<?xml version="1.0" encoding="UTF-8" standalone="no"?><svg xmlns="http://www.w3.org/2000/svg" xmlns:xlink="http://www.w3.org/1999/xlink" contentScriptType="application/ecmascript" contentStyleType="text/css" height="765px" preserveAspectRatio="none" style="width:1088px;height:765px;" version="1.1" viewBox="0 0 1088 765" width="1088px" zoomAndPan="magnify"><defs><filter height="300%" id="feqpkwma1qlpi" width="300%" x="-1" y="-1"><feGaussianBlur result="blurOut" stdDeviation="2.0"/><feColorMatrix in="blurOut" result="blurOut2" type="matrix" values="0 0 0 0 0 0 0 0 0 0 0 0 0 0 0 0 0 0 .4 0"/><feOffset dx="4.0" dy="4.0" in="blurOut2" result="blurOut3"/><feBlend in="SourceGraphic" in2="blurOut3" mode="normal"/></filter></defs><g><polygon fill="#DDDDDD" filter="url(#feqpkwma1qlpi)" points="499,123,587,123,594,146.6094,601,146.6094,601,178.2188,499,178.2188,499,123" style="stroke: #000000; stroke-width: 1.5;"/><line style="stroke: #000000; stroke-width: 1.5;" x1="499" x2="594" y1="146.6094" y2="146.6094"/><text fill="#000000" font-family="sans-serif" font-size="14" font-weight="bold" lengthAdjust="spacingAndGlyphs" textLength="82" x="503" y="139.5332">mastermind</text><polygon fill="#DDDDDD" filter="url(#feqpkwma1qlpi)" points="490.5,468,659.5,468,666.5,491.6094,673.5,491.6094,673.5,523.2188,490.5,523.2188,490.5,468" style="stroke: #000000; stroke-width: 1.5;"/><line style="stroke: #000000; stroke-width: 1.5;" x1="490.5" x2="666.5" y1="491.6094" y2="491.6094"/><text fill="#000000" font-family="sans-serif" font-size="14" font-weight="bold" lengthAdjust="spacingAndGlyphs" textLength="163" x="494.5" y="484.5332">mastermind.controllers</text><polygon fill="#FFFFFF" filter="url(#feqpkwma1qlpi)" points="520.5,698,581.5,698,588.5,721.6094,595.5,721.6094,595.5,753.2188,520.5,753.2188,520.5,698" style="stroke: #000000; stroke-width: 1.5;"/><line style="stroke: #000000; stroke-width: 1.5;" x1="520.5" x2="588.5" y1="721.6094" y2="721.6094"/><text fill="#000000" font-family="sans-serif" font-size="14" font-weight="bold" lengthAdjust="spacingAndGlyphs" textLength="55" x="524.5" y="714.5332">java.util</text><polygon fill="#DDDDDD" filter="url(#feqpkwma1qlpi)" points="674.5,353,955.5,353,962.5,376.6094,969.5,376.6094,969.5,408.2188,674.5,408.2188,674.5,353" style="stroke: #000000; stroke-width: 1.5;"/><line style="stroke: #000000; stroke-width: 1.5;" x1="674.5" x2="962.5" y1="376.6094" y2="376.6094"/><text fill="#000000" font-family="sans-serif" font-size="14" font-weight="bold" lengthAdjust="spacingAndGlyphs" textLength="275" x="678.5" y="369.5332">mastermind.controllers.implementation</text><polygon fill="#DDDDDD" filter="url(#feqpkwma1qlpi)" points="531.5,8,700.5,8,707.5,31.6094,714.5,31.6094,714.5,63.2188,531.5,63.2188,531.5,8" style="stroke: #000000; stroke-width: 1.5;"/><line style="stroke: #000000; stroke-width: 1.5;" x1="531.5" x2="707.5" y1="31.6094" y2="31.6094"/><text fill="#000000" font-family="sans-serif" font-size="14" font-weight="bold" lengthAdjust="spacingAndGlyphs" textLength="163" x="535.5" y="24.5332">mastermind.distributed</text><polygon fill="#DDDDDD" filter="url(#feqpkwma1qlpi)" points="603,238,859,238,866,261.6094,873,261.6094,873,293.2188,603,293.2188,603,238" style="stroke: #000000; stroke-width: 1.5;"/><line style="stroke: #000000; stroke-width: 1.5;" x1="603" x2="866" y1="261.6094" y2="261.6094"/><text fill="#000000" font-family="sans-serif" font-size="14" font-weight="bold" lengthAdjust="spacingAndGlyphs" textLength="250" x="607" y="254.5332">mastermind.distributed.dispatchers</text><polygon fill="#DDDDDD" filter="url(#feqpkwma1qlpi)" points="272.5,353,411.5,353,418.5,376.6094,425.5,376.6094,425.5,408.2188,272.5,408.2188,272.5,353" style="stroke: #000000; stroke-width: 1.5;"/><line style="stroke: #000000; stroke-width: 1.5;" x1="272.5" x2="418.5" y1="376.6094" y2="376.6094"/><text fill="#000000" font-family="sans-serif" font-size="14" font-weight="bold" lengthAdjust="spacingAndGlyphs" textLength="133" x="276.5" y="369.5332">mastermind.menus</text><polygon fill="#DDDDDD" filter="url(#feqpkwma1qlpi)" points="413.5,583,556.5,583,563.5,606.6094,570.5,606.6094,570.5,638.2188,413.5,638.2188,413.5,583" style="stroke: #000000; stroke-width: 1.5;"/><line style="stroke: #000000; stroke-width: 1.5;" x1="413.5" x2="563.5" y1="606.6094" y2="606.6094"/><text fill="#000000" font-family="sans-serif" font-size="14" font-weight="bold" lengthAdjust="spacingAndGlyphs" textLength="137" x="417.5" y="599.5332">mastermind.models</text><polygon fill="#FFFFFF" filter="url(#feqpkwma1qlpi)" points="315,698,367,698,374,721.6094,381,721.6094,381,753.2188,315,753.2188,315,698" style="stroke: #000000; stroke-width: 1.5;"/><line style="stroke: #000000; stroke-width: 1.5;" x1="315" x2="374" y1="721.6094" y2="721.6094"/><text fill="#000000" font-family="sans-serif" font-size="14" font-weight="bold" lengthAdjust="spacingAndGlyphs" textLength="46" x="319" y="714.5332">java.io</text><polygon fill="#DDDDDD" filter="url(#feqpkwma1qlpi)" points="151,468,273,468,280,491.6094,287,491.6094,287,523.2188,151,523.2188,151,468" style="stroke: #000000; stroke-width: 1.5;"/><line style="stroke: #000000; stroke-width: 1.5;" x1="151" x2="280" y1="491.6094" y2="491.6094"/><text fill="#000000" font-family="sans-serif" font-size="14" font-weight="bold" lengthAdjust="spacingAndGlyphs" textLength="116" x="155" y="484.5332">mastermind.utils</text><polygon fill="#FFFFFF" filter="url(#feqpkwma1qlpi)" points="231,583,293,583,300,606.6094,307,606.6094,307,638.2188,231,638.2188,231,583" style="stroke: #000000; stroke-width: 1.5;"/><line style="stroke: #000000; stroke-width: 1.5;" x1="231" x2="300" y1="606.6094" y2="606.6094"/><text fill="#000000" font-family="sans-serif" font-size="14" font-weight="bold" lengthAdjust="spacingAndGlyphs" textLength="56" x="235" y="599.5332">java.net</text><polygon fill="#DDDDDD" filter="url(#feqpkwma1qlpi)" points="312.5,238,445.5,238,452.5,261.6094,459.5,261.6094,459.5,293.2188,312.5,293.2188,312.5,238" style="stroke: #000000; stroke-width: 1.5;"/><line style="stroke: #000000; stroke-width: 1.5;" x1="312.5" x2="452.5" y1="261.6094" y2="261.6094"/><text fill="#000000" font-family="sans-serif" font-size="14" font-weight="bold" lengthAdjust="spacingAndGlyphs" textLength="127" x="316.5" y="254.5332">mastermind.views</text><!--link mastermind to mastermind.views--><path d="M511.134,178.279 C486.421,195.307 454.401,217.37 428.937,234.915 " fill="none" id="mastermind-mastermind.views" style="stroke: #A80036; stroke-width: 1.0; stroke-dasharray: 7.0,7.0;"/><polygon fill="#A80036" points="424.587,237.913,434.2675,236.0999,428.7041,235.0759,429.7281,229.5125,424.587,237.913" style="stroke: #A80036; stroke-width: 1.0;"/><!--link mastermind to mastermind.controllers--><path d="M552.484,178.129 C558.295,240.411 572.753,395.386 579.022,462.581 " fill="none" id="mastermind-mastermind.controllers" style="stroke: #A80036; stroke-width: 1.0; stroke-dasharray: 7.0,7.0;"/><polygon fill="#A80036" points="579.495,467.651,582.642,458.3185,579.0307,462.6726,574.6766,459.0613,579.495,467.651" style="stroke: #A80036; stroke-width: 1.0;"/><!--link mastermind.controllers to java.util--><path d="M586.4,523.045 C590.379,551.634 594.679,598.357 588,638 C584.841,656.75 578.083,676.8645 571.781,692.9742 " fill="none" id="mastermind.controllers-java.util" style="stroke: #A80036; stroke-width: 1.0; stroke-dasharray: 7.0,7.0;"/><polygon fill="#A80036" points="569.843,697.8393,576.8885,690.9574,571.6926,693.194,569.4559,687.9981,569.843,697.8393" style="stroke: #A80036; stroke-width: 1.0;"/><!--link mastermind.controllers to mastermind.models--><path d="M560.671,523.279 C547.445,539.885 530.406,561.279 516.609,578.602 " fill="none" id="mastermind.controllers-mastermind.models" style="stroke: #A80036; stroke-width: 1.0; stroke-dasharray: 7.0,7.0;"/><polygon fill="#A80036" points="513.176,582.913,521.9122,578.3656,516.2913,579.0021,515.6548,573.3812,513.176,582.913" style="stroke: #A80036; stroke-width: 1.0;"/><!--link mastermind.controllers.implementation to mastermind.controllers--><path d="M765.427,408.136 C728.672,425.442 680.777,447.992 643.145,465.711 " fill="none" id="mastermind.controllers.implementation-mastermind.controllers" style="stroke: #A80036; stroke-width: 1.0; stroke-dasharray: 7.0,7.0;"/><polygon fill="#A80036" points="638.608,467.847,648.4545,467.6338,643.132,465.7179,645.048,460.3954,638.608,467.847" style="stroke: #A80036; stroke-width: 1.0;"/><!--link mastermind.controllers.implementation to mastermind.models--><path d="M802.883,408.078 C779.455,439.085 737.146,490.266 691,523 C656.007,547.822 612.765,567.678 575.538,582.074 " fill="none" id="mastermind.controllers.implementation-mastermind.models" style="stroke: #A80036; stroke-width: 1.0; stroke-dasharray: 7.0,7.0;"/><polygon fill="#A80036" points="570.562,583.98,580.3974,584.4955,575.2311,582.1912,577.5353,577.025,570.562,583.98" style="stroke: #A80036; stroke-width: 1.0;"/><!--link mastermind.distributed to mastermind.controllers--><path d="M714.604,58.857 C756.846,72.414 805.753,93.021 843,123 C953.556,211.983 1076.26,297.666 987,408 C948.941,455.046 785.831,477.621 678.575,487.567 " fill="none" id="mastermind.distributed-mastermind.controllers" style="stroke: #A80036; stroke-width: 1.0; stroke-dasharray: 7.0,7.0;"/><polygon fill="#A80036" points="673.51,488.031,682.8371,491.194,678.4892,487.5752,682.1079,483.2273,673.51,488.031" style="stroke: #A80036; stroke-width: 1.0;"/><!--link mastermind.distributed to mastermind--><path d="M605.7,63.279 C594.972,79.885 581.151,101.279 569.961,118.602 " fill="none" id="mastermind.distributed-mastermind" style="stroke: #A80036; stroke-width: 1.0; stroke-dasharray: 7.0,7.0;"/><polygon fill="#A80036" points="567.176,122.913,575.4205,117.5252,569.8899,118.7136,568.7015,113.183,567.176,122.913" style="stroke: #A80036; stroke-width: 1.0;"/><!--link mastermind.distributed to mastermind.distributed.dispatchers--><path d="M636.417,63.101 C657.783,105.462 699.445,188.06 722.213,233.201 " fill="none" id="mastermind.distributed-mastermind.distributed.dispatchers" style="stroke: #A80036; stroke-width: 1.0; stroke-dasharray: 7.0,7.0;"/><polygon fill="#A80036" points="724.491,237.716,724.0098,227.8789,722.2395,233.2516,716.8668,231.4813,724.491,237.716" style="stroke: #A80036; stroke-width: 1.0;"/><!--link mastermind.distributed to mastermind.controllers.implementation--><path d="M686.032,63.059 C750.96,94.271 848.487,152.846 891,238 C910.044,276.146 880.258,320.344 854.08,349.055 " fill="none" id="mastermind.distributed-mastermind.controllers.implementation" style="stroke: #A80036; stroke-width: 1.0; stroke-dasharray: 7.0,7.0;"/><polygon fill="#A80036" points="850.581,352.826,859.6348,348.9494,853.9819,349.1608,853.7705,343.5079,850.581,352.826" style="stroke: #A80036; stroke-width: 1.0;"/><!--link mastermind.distributed to mastermind.models--><path d="M531.295,50.764 C359.418,80.099 6,153.871 6,264.5 C6,264.5 6,264.5 6,381.5 C6,466.004 60.4286,479.706 133,523 C178.863,550.36 317.075,578.744 408.014,595.231 " fill="none" id="mastermind.distributed-mastermind.models" style="stroke: #A80036; stroke-width: 1.0; stroke-dasharray: 7.0,7.0;"/><polygon fill="#A80036" points="413.12,596.153,404.9739,590.6175,408.1996,595.2646,403.5525,598.4902,413.12,596.153" style="stroke: #A80036; stroke-width: 1.0;"/><!--link mastermind.distributed to mastermind.utils--><path d="M542.566,63.146 C432.667,104.721 241.624,196.874 175,353 C159.281,389.835 178.95,434.195 196.78,463.308 " fill="none" id="mastermind.distributed-mastermind.utils" style="stroke: #A80036; stroke-width: 1.0; stroke-dasharray: 7.0,7.0;"/><polygon fill="#A80036" points="199.621,467.846,198.2368,458.0949,196.9683,463.6077,191.4555,462.3392,199.621,467.846" style="stroke: #A80036; stroke-width: 1.0;"/><!--link mastermind.distributed.dispatchers to java.util--><path d="M873.152,282.17 C916.68,294.35 960.476,315.707 987,353 C1001.168,372.92 998.018,386.179 987,408 C904.109,572.162 691.456,672.1578 600.405,708.7 " fill="none" id="mastermind.distributed.dispatchers-java.util" style="stroke: #A80036; stroke-width: 1.0; stroke-dasharray: 7.0,7.0;"/><polygon fill="#A80036" points="595.636,710.6005,605.4774,710.9838,600.2806,708.7492,602.5153,703.5524,595.636,710.6005" style="stroke: #A80036; stroke-width: 1.0;"/><!--link mastermind.distributed.dispatchers to mastermind.controllers--><path d="M709.36,293.295 C692.867,309.604 672.42,331.399 657,353 C631.622,388.549 609.148,433.753 595.57,463.376 " fill="none" id="mastermind.distributed.dispatchers-mastermind.controllers" style="stroke: #A80036; stroke-width: 1.0; stroke-dasharray: 7.0,7.0;"/><polygon fill="#A80036" points="593.468,467.993,600.8368,461.4584,595.5392,463.4421,593.5554,458.1445,593.468,467.993" style="stroke: #A80036; stroke-width: 1.0;"/><!--link mastermind.distributed.dispatchers to mastermind.controllers.implementation--><path d="M757.907,293.279 C770.251,309.885 786.155,331.279 799.032,348.602 " fill="none" id="mastermind.distributed.dispatchers-mastermind.controllers.implementation" style="stroke: #A80036; stroke-width: 1.0; stroke-dasharray: 7.0,7.0;"/><polygon fill="#A80036" points="802.236,352.913,800.0772,343.3037,799.2532,348.9002,793.6567,348.0762,802.236,352.913" style="stroke: #A80036; stroke-width: 1.0;"/><!--link mastermind.distributed.dispatchers to mastermind.utils--><path d="M602.838,283.131 C468.988,300.794 280.394,329.37 255,353 C224.879,381.029 218.482,430.4 217.833,462.781 " fill="none" id="mastermind.distributed.dispatchers-mastermind.utils" style="stroke: #A80036; stroke-width: 1.0; stroke-dasharray: 7.0,7.0;"/><polygon fill="#A80036" points="217.776,467.826,221.8786,458.8723,217.8331,462.8263,213.8791,458.7809,217.776,467.826" style="stroke: #A80036; stroke-width: 1.0;"/><!--link mastermind.menus to mastermind.controllers--><path d="M403.923,408.136 C439.46,425.371 485.726,447.809 522.192,465.494 " fill="none" id="mastermind.menus-mastermind.controllers" style="stroke: #A80036; stroke-width: 1.0; stroke-dasharray: 7.0,7.0;"/><polygon fill="#A80036" points="527.043,467.847,520.6912,460.3201,522.5443,465.6648,517.1996,467.518,527.043,467.847" style="stroke: #A80036; stroke-width: 1.0;"/><!--link mastermind.menus to mastermind.utils--><path d="M318.192,408.279 C298.764,425.167 273.639,447.006 253.537,464.479 " fill="none" id="mastermind.menus-mastermind.utils" style="stroke: #A80036; stroke-width: 1.0; stroke-dasharray: 7.0,7.0;"/><polygon fill="#A80036" points="249.587,467.913,259.0035,465.0269,253.3604,464.6325,253.7547,458.9894,249.587,467.913" style="stroke: #A80036; stroke-width: 1.0;"/><!--link mastermind.models to java.util--><path d="M507.641,638.279 C517.258,654.7445 529.624,675.9172 539.696,693.1606 " fill="none" id="mastermind.models-java.util" style="stroke: #A80036; stroke-width: 1.0; stroke-dasharray: 7.0,7.0;"/><polygon fill="#A80036" points="542.471,697.9128,541.387,688.1238,539.9497,693.595,534.4785,692.1578,542.471,697.9128" style="stroke: #A80036; stroke-width: 1.0;"/><!--link mastermind.models to java.io--><path d="M457.874,638.279 C436.108,655.36 407.886,677.5065 385.494,695.0773 " fill="none" id="mastermind.models-java.io" style="stroke: #A80036; stroke-width: 1.0; stroke-dasharray: 7.0,7.0;"/><polygon fill="#A80036" points="381.384,698.3026,390.9334,695.8926,385.3172,695.2156,385.9942,689.5994,381.384,698.3026" style="stroke: #A80036; stroke-width: 1.0;"/><!--link mastermind.utils to java.util--><path d="M251.846,523.298 C298.808,561.528 381.133,628.208 396,638 C434.829,663.5741 481.989,688.0806 515.388,704.4371 " fill="none" id="mastermind.utils-java.util" style="stroke: #A80036; stroke-width: 1.0; stroke-dasharray: 7.0,7.0;"/><polygon fill="#A80036" points="520.213,706.7904,513.8766,699.2505,515.7188,704.599,510.3703,706.4411,520.213,706.7904" style="stroke: #A80036; stroke-width: 1.0;"/><!--link mastermind.utils to java.net--><path d="M230.849,523.279 C238.135,539.745 247.503,560.917 255.133,578.161 " fill="none" id="mastermind.utils-java.net" style="stroke: #A80036; stroke-width: 1.0; stroke-dasharray: 7.0,7.0;"/><polygon fill="#A80036" points="257.236,582.913,257.2506,573.0642,255.2121,578.3409,249.9353,576.3024,257.236,582.913" style="stroke: #A80036; stroke-width: 1.0;"/><!--link mastermind.utils to java.io--><path d="M210.109,523.122 C201.802,553.03 193.356,602.082 213,638 C233.497,675.4762 277.928,699.1044 310.235,712.0207 " fill="none" id="mastermind.utils-java.io" style="stroke: #A80036; stroke-width: 1.0; stroke-dasharray: 7.0,7.0;"/><polygon fill="#A80036" points="314.909,713.8491,307.9846,706.8454,310.2526,712.0277,305.0703,714.2957,314.909,713.8491" style="stroke: #A80036; stroke-width: 1.0;"/><!--link mastermind.views to mastermind.controllers--><path d="M408.867,293.101 C445.43,335.633 516.863,418.728 555.563,463.746 " fill="none" id="mastermind.views-mastermind.controllers" style="stroke: #A80036; stroke-width: 1.0; stroke-dasharray: 7.0,7.0;"/><polygon fill="#A80036" points="558.975,467.716,556.1423,458.2833,555.716,463.9241,550.0752,463.4977,558.975,467.716" style="stroke: #A80036; stroke-width: 1.0;"/><!--link mastermind.views to mastermind.utils--><path d="M312.081,279.221 C269.455,290.757 219.248,312.473 193,353 C171.477,386.233 186.578,432.564 201.199,463.03 " fill="none" id="mastermind.views-mastermind.utils" style="stroke: #A80036; stroke-width: 1.0; stroke-dasharray: 7.0,7.0;"/><polygon fill="#A80036" points="203.536,467.779,203.1517,457.9376,201.3286,463.2927,195.9735,461.4696,203.536,467.779" style="stroke: #A80036; stroke-width: 1.0;"/><!--link mastermind.views to mastermind.menus--><path d="M377.232,293.279 C371.84,309.745 364.908,330.917 359.262,348.161 " fill="none" id="mastermind.views-mastermind.menus" style="stroke: #A80036; stroke-width: 1.0; stroke-dasharray: 7.0,7.0;"/><polygon fill="#A80036" points="357.706,352.913,364.3092,345.6057,359.2627,348.1615,356.7069,343.115,357.706,352.913" style="stroke: #A80036; stroke-width: 1.0;"/><!--
@startuml

package mastermind #DDDDDD { }
mastermind .down.> mastermind.views
mastermind .down.> mastermind.controllers

package mastermind.controllers #DDDDDD { }
package java.util{ }
mastermind.controllers .down.> java.util
mastermind.controllers .down.> mastermind.models

package mastermind.controllers.implementation #DDDDDD { }
mastermind.controllers.implementation .down.> mastermind.controllers
mastermind.controllers.implementation .down.> mastermind.models

package mastermind.distributed #DDDDDD { }
mastermind.distributed .down.> mastermind.controllers
mastermind.distributed .down.> mastermind
mastermind.distributed .down.> mastermind.distributed.dispatchers
mastermind.distributed .down.> mastermind.controllers.implementation
mastermind.distributed .down.> mastermind.models
mastermind.distributed .down.> mastermind.utils

package mastermind.distributed.dispatchers #DDDDDD { }
package java.util{ }
mastermind.distributed.dispatchers .down.> java.util
mastermind.distributed.dispatchers .down.> mastermind.controllers
mastermind.distributed.dispatchers .down.> mastermind.controllers.implementation
mastermind.distributed.dispatchers .down.> mastermind.utils

package mastermind.menus #DDDDDD { }
mastermind.menus .down.> mastermind.controllers
mastermind.menus .down.> mastermind.utils

package mastermind.models #DDDDDD { }
package java.util{ }
mastermind.models .down.> java.util
package java.io{ }
mastermind.models .down.> java.io

package mastermind.utils #DDDDDD { }
package java.util{ }
mastermind.utils .down.> java.util
package java.net{ }
mastermind.utils .down.> java.net
package java.io{ }
mastermind.utils .down.> java.io

package mastermind.views #DDDDDD { }
mastermind.views .down.> mastermind.controllers
mastermind.views .down.> mastermind.utils
mastermind.views ..> mastermind.menus

@enduml

PlantUML version 1.2019.05(Sat Apr 20 18:45:36 CEST 2019)
(GPL source distribution)
Java Runtime: OpenJDK Runtime Environment
JVM: OpenJDK 64-Bit Server VM
Java Version: 1.8.0_222-b10
Operating System: Windows 10
OS Version: 10.0
Default Encoding: windows-1252
Language: es
Country: ES
--></g></svg>