<?xml version="1.0" encoding="UTF-8" standalone="no"?><svg xmlns="http://www.w3.org/2000/svg" xmlns:xlink="http://www.w3.org/1999/xlink" contentScriptType="application/ecmascript" contentStyleType="text/css" height="880px" preserveAspectRatio="none" style="width:2143px;height:880px;" version="1.1" viewBox="0 0 2143 880" width="2143px" zoomAndPan="magnify"><defs><filter height="300%" id="f13dheeffp8o03" width="300%" x="-1" y="-1"><feGaussianBlur result="blurOut" stdDeviation="2.0"/><feColorMatrix in="blurOut" result="blurOut2" type="matrix" values="0 0 0 0 0 0 0 0 0 0 0 0 0 0 0 0 0 0 .4 0"/><feOffset dx="4.0" dy="4.0" in="blurOut2" result="blurOut3"/><feBlend in="SourceGraphic" in2="blurOut3" mode="normal"/></filter></defs><g><polygon fill="#DDDDDD" filter="url(#f13dheeffp8o03)" points="1032,123,1120,123,1127,146.6094,1134,146.6094,1134,178.2188,1032,178.2188,1032,123" style="stroke: #000000; stroke-width: 1.5;"/><line style="stroke: #000000; stroke-width: 1.5;" x1="1032" x2="1127" y1="146.6094" y2="146.6094"/><text fill="#000000" font-family="sans-serif" font-size="14" font-weight="bold" lengthAdjust="spacingAndGlyphs" textLength="82" x="1036" y="139.5332">mastermind</text><polygon fill="#DDDDDD" filter="url(#f13dheeffp8o03)" points="998.5,698,1141.5,698,1148.5,721.6094,1155.5,721.6094,1155.5,753.2188,998.5,753.2188,998.5,698" style="stroke: #000000; stroke-width: 1.5;"/><line style="stroke: #000000; stroke-width: 1.5;" x1="998.5" x2="1148.5" y1="721.6094" y2="721.6094"/><text fill="#000000" font-family="sans-serif" font-size="14" font-weight="bold" lengthAdjust="spacingAndGlyphs" textLength="137" x="1002.5" y="714.5332">mastermind.models</text><polygon fill="#DDDDDD" filter="url(#f13dheeffp8o03)" points="671.5,583,840.5,583,847.5,606.6094,854.5,606.6094,854.5,638.2188,671.5,638.2188,671.5,583" style="stroke: #000000; stroke-width: 1.5;"/><line style="stroke: #000000; stroke-width: 1.5;" x1="671.5" x2="847.5" y1="606.6094" y2="606.6094"/><text fill="#000000" font-family="sans-serif" font-size="14" font-weight="bold" lengthAdjust="spacingAndGlyphs" textLength="163" x="675.5" y="599.5332">mastermind.controllers</text><polygon fill="#FFFFFF" filter="url(#f13dheeffp8o03)" points="725.5,813,786.5,813,793.5,836.6094,800.5,836.6094,800.5,868.2188,725.5,868.2188,725.5,813" style="stroke: #000000; stroke-width: 1.5;"/><line style="stroke: #000000; stroke-width: 1.5;" x1="725.5" x2="793.5" y1="836.6094" y2="836.6094"/><text fill="#000000" font-family="sans-serif" font-size="14" font-weight="bold" lengthAdjust="spacingAndGlyphs" textLength="55" x="729.5" y="829.5332">java.util</text><polygon fill="#DDDDDD" filter="url(#f13dheeffp8o03)" points="343.5,468,624.5,468,631.5,491.6094,638.5,491.6094,638.5,523.2188,343.5,523.2188,343.5,468" style="stroke: #000000; stroke-width: 1.5;"/><line style="stroke: #000000; stroke-width: 1.5;" x1="343.5" x2="631.5" y1="491.6094" y2="491.6094"/><text fill="#000000" font-family="sans-serif" font-size="14" font-weight="bold" lengthAdjust="spacingAndGlyphs" textLength="275" x="347.5" y="484.5332">mastermind.controllers.implementation</text><polygon fill="#DDDDDD" filter="url(#f13dheeffp8o03)" points="902.5,8,1071.5,8,1078.5,31.6094,1085.5,31.6094,1085.5,63.2188,902.5,63.2188,902.5,8" style="stroke: #000000; stroke-width: 1.5;"/><line style="stroke: #000000; stroke-width: 1.5;" x1="902.5" x2="1078.5" y1="31.6094" y2="31.6094"/><text fill="#000000" font-family="sans-serif" font-size="14" font-weight="bold" lengthAdjust="spacingAndGlyphs" textLength="163" x="906.5" y="24.5332">mastermind.distributed</text><polygon fill="#FFFFFF" filter="url(#f13dheeffp8o03)" points="1120.5,8,1201.5,8,1208.5,31.6094,1215.5,31.6094,1215.5,63.2188,1120.5,63.2188,1120.5,8" style="stroke: #000000; stroke-width: 1.5;"/><line style="stroke: #000000; stroke-width: 1.5;" x1="1120.5" x2="1208.5" y1="31.6094" y2="31.6094"/><text fill="#000000" font-family="sans-serif" font-size="14" font-weight="bold" lengthAdjust="spacingAndGlyphs" textLength="75" x="1124.5" y="24.5332">santaTecla</text><polygon fill="#DDDDDD" filter="url(#f13dheeffp8o03)" points="276,353,532,353,539,376.6094,546,376.6094,546,408.2188,276,408.2188,276,353" style="stroke: #000000; stroke-width: 1.5;"/><line style="stroke: #000000; stroke-width: 1.5;" x1="276" x2="539" y1="376.6094" y2="376.6094"/><text fill="#000000" font-family="sans-serif" font-size="14" font-weight="bold" lengthAdjust="spacingAndGlyphs" textLength="250" x="280" y="369.5332">mastermind.distributed.dispatchers</text><polygon fill="#DDDDDD" filter="url(#f13dheeffp8o03)" points="1351.5,583,1528.5,583,1535.5,606.6094,1542.5,606.6094,1542.5,638.2188,1351.5,638.2188,1351.5,583" style="stroke: #000000; stroke-width: 1.5;"/><line style="stroke: #000000; stroke-width: 1.5;" x1="1351.5" x2="1535.5" y1="606.6094" y2="606.6094"/><text fill="#000000" font-family="sans-serif" font-size="14" font-weight="bold" lengthAdjust="spacingAndGlyphs" textLength="171" x="1355.5" y="599.5332">mastermind.models.DAO</text><polygon fill="#FFFFFF" filter="url(#f13dheeffp8o03)" points="1191,698,1243,698,1250,721.6094,1257,721.6094,1257,753.2188,1191,753.2188,1191,698" style="stroke: #000000; stroke-width: 1.5;"/><line style="stroke: #000000; stroke-width: 1.5;" x1="1191" x2="1250" y1="721.6094" y2="721.6094"/><text fill="#000000" font-family="sans-serif" font-size="14" font-weight="bold" lengthAdjust="spacingAndGlyphs" textLength="46" x="1195" y="714.5332">java.io</text><polygon fill="#DDDDDD" filter="url(#f13dheeffp8o03)" points="1479,468,1691,468,1698,491.6094,1705,491.6094,1705,523.2188,1479,523.2188,1479,468" style="stroke: #000000; stroke-width: 1.5;"/><line style="stroke: #000000; stroke-width: 1.5;" x1="1479" x2="1698" y1="491.6094" y2="491.6094"/><text fill="#000000" font-family="sans-serif" font-size="14" font-weight="bold" lengthAdjust="spacingAndGlyphs" textLength="206" x="1483" y="484.5332">mastermind.models.dataBase</text><polygon fill="#DDDDDD" filter="url(#f13dheeffp8o03)" points="1882.5,468,2063.5,468,2070.5,491.6094,2077.5,491.6094,2077.5,523.2188,1882.5,523.2188,1882.5,468" style="stroke: #000000; stroke-width: 1.5;"/><line style="stroke: #000000; stroke-width: 1.5;" x1="1882.5" x2="2070.5" y1="491.6094" y2="491.6094"/><text fill="#000000" font-family="sans-serif" font-size="14" font-weight="bold" lengthAdjust="spacingAndGlyphs" textLength="175" x="1886.5" y="484.5332">mastermind.models.Files</text><polygon fill="#DDDDDD" filter="url(#f13dheeffp8o03)" points="1238,813,1368,813,1375,836.6094,1382,836.6094,1382,868.2188,1238,868.2188,1238,813" style="stroke: #000000; stroke-width: 1.5;"/><line style="stroke: #000000; stroke-width: 1.5;" x1="1238" x2="1375" y1="836.6094" y2="836.6094"/><text fill="#000000" font-family="sans-serif" font-size="14" font-weight="bold" lengthAdjust="spacingAndGlyphs" textLength="124" x="1242" y="829.5332">mastermind.types</text><polygon fill="#DDDDDD" filter="url(#f13dheeffp8o03)" points="976.5,583,1091.5,583,1098.5,606.6094,1105.5,606.6094,1105.5,638.2188,976.5,638.2188,976.5,583" style="stroke: #000000; stroke-width: 1.5;"/><line style="stroke: #000000; stroke-width: 1.5;" x1="976.5" x2="1098.5" y1="606.6094" y2="606.6094"/><text fill="#000000" font-family="sans-serif" font-size="14" font-weight="bold" lengthAdjust="spacingAndGlyphs" textLength="109" x="980.5" y="599.5332">santaTecla.utils</text><polygon fill="#FFFFFF" filter="url(#f13dheeffp8o03)" points="887,698,949,698,956,721.6094,963,721.6094,963,753.2188,887,753.2188,887,698" style="stroke: #000000; stroke-width: 1.5;"/><line style="stroke: #000000; stroke-width: 1.5;" x1="887" x2="956" y1="721.6094" y2="721.6094"/><text fill="#000000" font-family="sans-serif" font-size="14" font-weight="bold" lengthAdjust="spacingAndGlyphs" textLength="56" x="891" y="714.5332">java.net</text><polygon fill="#DDDDDD" filter="url(#f13dheeffp8o03)" points="1009.5,238,1142.5,238,1149.5,261.6094,1156.5,261.6094,1156.5,293.2188,1009.5,293.2188,1009.5,238" style="stroke: #000000; stroke-width: 1.5;"/><line style="stroke: #000000; stroke-width: 1.5;" x1="1009.5" x2="1149.5" y1="261.6094" y2="261.6094"/><text fill="#000000" font-family="sans-serif" font-size="14" font-weight="bold" lengthAdjust="spacingAndGlyphs" textLength="127" x="1013.5" y="254.5332">mastermind.views</text><polygon fill="#DDDDDD" filter="url(#f13dheeffp8o03)" points="1171,353,1355,353,1362,376.6094,1369,376.6094,1369,408.2188,1171,408.2188,1171,353" style="stroke: #000000; stroke-width: 1.5;"/><line style="stroke: #000000; stroke-width: 1.5;" x1="1171" x2="1362" y1="376.6094" y2="376.6094"/><text fill="#000000" font-family="sans-serif" font-size="14" font-weight="bold" lengthAdjust="spacingAndGlyphs" textLength="178" x="1175" y="369.5332">mastermind.views.menus</text><polygon fill="#DDDDDD" filter="url(#f13dheeffp8o03)" points="1100,468,1288,468,1295,491.6094,1302,491.6094,1302,523.2188,1100,523.2188,1100,468" style="stroke: #000000; stroke-width: 1.5;"/><line style="stroke: #000000; stroke-width: 1.5;" x1="1100" x2="1295" y1="491.6094" y2="491.6094"/><text fill="#000000" font-family="sans-serif" font-size="14" font-weight="bold" lengthAdjust="spacingAndGlyphs" textLength="182" x="1104" y="484.5332">mastermind.views.models</text><!--link mastermind to mastermind.views--><path d="M1083,178.279 C1083,194.604 1083,215.556 1083,232.718 " fill="none" id="mastermind-mastermind.views" style="stroke: #A80036; stroke-width: 1.0; stroke-dasharray: 7.0,7.0;"/><polygon fill="#A80036" points="1083,237.913,1087,228.913,1083,232.913,1079,228.913,1083,237.913" style="stroke: #A80036; stroke-width: 1.0;"/><!--link mastermind to mastermind.controllers--><path d="M1051.89,178.031 C1033.51,194.42 1010.33,216.389 992,238 C912.111,332.203 899.095,361.814 836,468 C814.019,504.994 791.777,549.32 777.72,578.381 " fill="none" id="mastermind-mastermind.controllers" style="stroke: #A80036; stroke-width: 1.0; stroke-dasharray: 7.0,7.0;"/><polygon fill="#A80036" points="775.535,582.911,783.0464,576.5409,777.7063,578.407,775.8401,573.0669,775.535,582.911" style="stroke: #A80036; stroke-width: 1.0;"/><!--link mastermind to mastermind.controllers.implementation--><path d="M1031.94,152.585 C959.698,156.523 826.489,172.873 737,238 C665.007,290.394 694.089,345.168 631,408 C607.94,430.966 577.683,450.62 551.199,465.362 " fill="none" id="mastermind-mastermind.controllers.implementation" style="stroke: #A80036; stroke-width: 1.0; stroke-dasharray: 7.0,7.0;"/><polygon fill="#A80036" points="546.643,467.871,556.4561,467.0331,551.0227,465.4589,552.5968,460.0255,546.643,467.871" style="stroke: #A80036; stroke-width: 1.0;"/><!--link mastermind to mastermind.models.DAO--><path d="M1134.07,171.263 C1202.37,200.403 1322.24,261.525 1386,353 C1434.58,422.705 1444.78,526.184 1446.72,577.809 " fill="none" id="mastermind-mastermind.models.DAO" style="stroke: #A80036; stroke-width: 1.0; stroke-dasharray: 7.0,7.0;"/><polygon fill="#A80036" points="1446.89,582.941,1450.5862,573.812,1446.7225,577.9438,1442.5907,574.0801,1446.89,582.941" style="stroke: #A80036; stroke-width: 1.0;"/><!--link mastermind to mastermind.models.dataBase--><path d="M1134.22,150.674 C1211.08,152.028 1357.31,164.954 1452,238 C1519.69,290.218 1500.6,333.202 1542,408 C1552.21,426.45 1564,446.884 1573.57,463.256 " fill="none" id="mastermind-mastermind.models.dataBase" style="stroke: #A80036; stroke-width: 1.0; stroke-dasharray: 7.0,7.0;"/><polygon fill="#A80036" points="1576.2,467.762,1575.105,457.9742,1573.6739,463.447,1568.2011,462.016,1576.2,467.762" style="stroke: #A80036; stroke-width: 1.0;"/><!--link mastermind to mastermind.models.Files--><path d="M1134.28,157.239 C1214.58,167.293 1374.05,191.577 1502,238 C1670.95,299.298 1853.64,411.743 1935.69,465.017 " fill="none" id="mastermind-mastermind.models.Files" style="stroke: #A80036; stroke-width: 1.0; stroke-dasharray: 7.0,7.0;"/><polygon fill="#A80036" points="1940,467.819,1934.6199,459.5695,1935.8031,465.1012,1930.2714,466.2844,1940,467.819" style="stroke: #A80036; stroke-width: 1.0;"/><!--link mastermind.controllers to java.util--><path d="M752.729,638.309 C746.83,655.163 740.011,677.521 737,698 C733.444,722.184 733.444,728.816 737,753 C739.729,771.5589 745.585,791.661 751.049,807.8116 " fill="none" id="mastermind.controllers-java.util" style="stroke: #A80036; stroke-width: 1.0; stroke-dasharray: 7.0,7.0;"/><polygon fill="#A80036" points="752.729,812.6909,753.5817,802.879,751.1015,807.9632,746.0174,805.483,752.729,812.6909" style="stroke: #A80036; stroke-width: 1.0;"/><!--link mastermind.controllers to mastermind.models--><path d="M837.016,638.136 C885.582,655.614 949.016,678.442 998.468,696.239 " fill="none" id="mastermind.controllers-mastermind.models" style="stroke: #A80036; stroke-width: 1.0; stroke-dasharray: 7.0,7.0;"/><polygon fill="#A80036" points="1003.209,697.945,996.095,691.1339,998.5043,696.252,993.3862,698.6613,1003.209,697.945" style="stroke: #A80036; stroke-width: 1.0;"/><!--link mastermind.controllers to mastermind.types--><path d="M775.307,638.137 C791.81,670.698 824.291,724.922 869,753 C928.511,790.3747 1122.63,817.9813 1232.46,831.0605 " fill="none" id="mastermind.controllers-mastermind.types" style="stroke: #A80036; stroke-width: 1.0; stroke-dasharray: 7.0,7.0;"/><polygon fill="#A80036" points="1237.62,831.6724,1229.1506,826.6456,1232.6544,831.0867,1228.2134,834.5905,1237.62,831.6724" style="stroke: #A80036; stroke-width: 1.0;"/><!--link mastermind.controllers.implementation to mastermind.controllers--><path d="M555.116,523.136 C596.941,540.512 651.494,563.176 694.222,580.927 " fill="none" id="mastermind.controllers.implementation-mastermind.controllers" style="stroke: #A80036; stroke-width: 1.0; stroke-dasharray: 7.0,7.0;"/><polygon fill="#A80036" points="698.844,582.847,692.0679,575.6997,694.2268,580.9284,688.9981,583.0873,698.844,582.847" style="stroke: #A80036; stroke-width: 1.0;"/><!--link mastermind.controllers.implementation to mastermind.models--><path d="M633.863,523.088 C723.333,540.862 829.457,564.322 872,583 C889.559,590.709 981.204,655.668 1035.84,694.841 " fill="none" id="mastermind.controllers.implementation-mastermind.models" style="stroke: #A80036; stroke-width: 1.0; stroke-dasharray: 7.0,7.0;"/><polygon fill="#A80036" points="1040.03,697.848,1035.0483,689.352,1035.9671,694.9337,1030.3854,695.8526,1040.03,697.848" style="stroke: #A80036; stroke-width: 1.0;"/><!--link mastermind.controllers.implementation to mastermind.models.DAO--><path d="M638.541,513.939 C834.818,537.14 1176.68,577.548 1346.01,597.563 " fill="none" id="mastermind.controllers.implementation-mastermind.models.DAO" style="stroke: #A80036; stroke-width: 1.0; stroke-dasharray: 7.0,7.0;"/><polygon fill="#A80036" points="1351.22,598.178,1342.7507,593.151,1346.2544,597.5921,1341.8133,601.0959,1351.22,598.178" style="stroke: #A80036; stroke-width: 1.0;"/><!--link mastermind.controllers.implementation to mastermind.types--><path d="M513.897,523.11 C561.898,576.886 679.163,698.049 806,753 C948.196,814.6057 1130.8,832.4153 1232.6,837.5118 " fill="none" id="mastermind.controllers.implementation-mastermind.types" style="stroke: #A80036; stroke-width: 1.0; stroke-dasharray: 7.0,7.0;"/><polygon fill="#A80036" points="1237.68,837.7592,1228.8849,833.3268,1232.6859,837.5163,1228.4963,841.3173,1237.68,837.7592" style="stroke: #A80036; stroke-width: 1.0;"/><!--link mastermind.distributed to mastermind.controllers--><path d="M902.437,43.996 C697.359,63.305 219,123.461 219,264.5 C219,264.5 219,264.5 219,381.5 C219,456.032 247.33,481.145 309,523 C365.996,561.683 550.761,587.387 666.269,600.122 " fill="none" id="mastermind.distributed-mastermind.controllers" style="stroke: #A80036; stroke-width: 1.0; stroke-dasharray: 7.0,7.0;"/><polygon fill="#A80036" points="671.374,600.681,662.8629,595.725,666.4037,600.1367,661.992,603.6775,671.374,600.681" style="stroke: #A80036; stroke-width: 1.0;"/><!--link mastermind.distributed to mastermind--><path d="M1015.09,63.279 C1028.17,79.885 1045.02,101.279 1058.66,118.602 " fill="none" id="mastermind.distributed-mastermind" style="stroke: #A80036; stroke-width: 1.0; stroke-dasharray: 7.0,7.0;"/><polygon fill="#A80036" points="1062.06,122.913,1059.6335,113.3677,1058.9662,118.9851,1053.3489,118.3178,1062.06,122.913" style="stroke: #A80036; stroke-width: 1.0;"/><!--link mastermind.distributed to mastermind.distributed.dispatchers--><path d="M902.465,47.299 C796.738,61.185 630.694,87.77 579,123 C495.735,179.746 443.755,292.809 422.317,347.882 " fill="none" id="mastermind.distributed-mastermind.distributed.dispatchers" style="stroke: #A80036; stroke-width: 1.0; stroke-dasharray: 7.0,7.0;"/><polygon fill="#A80036" points="420.459,352.707,427.4266,345.7462,422.2562,348.0412,419.9613,342.8707,420.459,352.707" style="stroke: #A80036; stroke-width: 1.0;"/><!--link mastermind.distributed to mastermind.controllers.implementation--><path d="M940.432,63.029 C874.765,97.285 762.438,161.659 683,238 C616.318,302.082 619.294,334.624 563,408 C548.527,426.864 531.545,447.339 517.709,463.631 " fill="none" id="mastermind.distributed-mastermind.controllers.implementation" style="stroke: #A80036; stroke-width: 1.0; stroke-dasharray: 7.0,7.0;"/><polygon fill="#A80036" points="514.263,467.68,523.1431,463.4204,517.5044,463.8729,517.0518,458.2342,514.263,467.68" style="stroke: #A80036; stroke-width: 1.0;"/><!--link mastermind.distributed to mastermind.models--><path d="M902.381,38.245 C657.451,45.374 6,81.533 6,264.5 C6,264.5 6,264.5 6,381.5 C6,501.897 126.55,475.081 237,523 C548.229,658.028 649.244,622.524 980,698 C984.375,698.998 988.849,700.063 993.358,701.171 " fill="none" id="mastermind.distributed-mastermind.models" style="stroke: #A80036; stroke-width: 1.0; stroke-dasharray: 7.0,7.0;"/><polygon fill="#A80036" points="998.262,702.39,990.4908,696.3395,993.4093,701.1854,988.5634,704.1039,998.262,702.39" style="stroke: #A80036; stroke-width: 1.0;"/><!--link mastermind.distributed to santaTecla.utils--><path d="M975.99,63.253 C949.983,104.552 905,187.164 905,264.5 C905,264.5 905,264.5 905,381.5 C905,461.647 967.75,538.111 1008,578.915 " fill="none" id="mastermind.distributed-santaTecla.utils" style="stroke: #A80036; stroke-width: 1.0; stroke-dasharray: 7.0,7.0;"/><polygon fill="#A80036" points="1011.82,582.752,1008.303,573.5525,1008.2916,579.2093,1002.6348,579.1979,1011.82,582.752" style="stroke: #A80036; stroke-width: 1.0;"/><!--link mastermind.distributed to mastermind.types--><path d="M1085.66,59.921 C1091.51,61.063 1097.33,62.104 1103,63 C1456.07,118.741 1565.37,11.568 1905,123 C2017.6,159.945 2131,145.992 2131,264.5 C2131,264.5 2131,264.5 2131,611.5 C2131,764.986 1591.55,819.4529 1387.2,834.5791 " fill="none" id="mastermind.distributed-mastermind.types" style="stroke: #A80036; stroke-width: 1.0; stroke-dasharray: 7.0,7.0;"/><polygon fill="#A80036" points="1382.14,834.9507,1391.4028,838.2975,1387.1272,834.5935,1390.8313,830.318,1382.14,834.9507" style="stroke: #A80036; stroke-width: 1.0;"/><!--link mastermind.distributed to mastermind.models.DAO--><path d="M1085.57,58.821 C1091.47,60.241 1097.32,61.643 1103,63 C1428.71,140.761 1829,-70.364 1829,264.5 C1829,264.5 1829,264.5 1829,381.5 C1829,460.345 1786.44,477.571 1722,523 C1706.99,533.578 1618.85,560.447 1546.34,581.456 " fill="none" id="mastermind.distributed-mastermind.models.DAO" style="stroke: #A80036; stroke-width: 1.0; stroke-dasharray: 7.0,7.0;"/><polygon fill="#A80036" points="1541.14,582.959,1550.8961,584.3073,1545.944,581.5729,1548.6784,576.6209,1541.14,582.959" style="stroke: #A80036; stroke-width: 1.0;"/><!--link mastermind.distributed to mastermind.models.dataBase--><path d="M1082.83,63.079 C1210.97,102.829 1439.2,179.358 1502,238 C1566.83,298.532 1584.98,408.427 1590.04,462.584 " fill="none" id="mastermind.distributed-mastermind.models.dataBase" style="stroke: #A80036; stroke-width: 1.0; stroke-dasharray: 7.0,7.0;"/><polygon fill="#A80036" points="1590.5,467.648,1593.6857,458.3286,1590.0564,462.6677,1585.7172,459.0384,1590.5,467.648" style="stroke: #A80036; stroke-width: 1.0;"/><!--link mastermind.distributed to mastermind.models.Files--><path d="M1085.67,59.888 C1091.51,61.038 1097.33,62.09 1103,63 C1268.53,89.552 1722.86,19.829 1855,123 C1963.16,207.454 1978.48,389.379 1980.12,462.806 " fill="none" id="mastermind.distributed-mastermind.models.Files" style="stroke: #A80036; stroke-width: 1.0; stroke-dasharray: 7.0,7.0;"/><polygon fill="#A80036" points="1980.21,467.903,1984.0422,458.8303,1980.1172,462.9039,1976.0436,458.9788,1980.21,467.903" style="stroke: #A80036; stroke-width: 1.0;"/><!--link mastermind.distributed.dispatchers to java.util--><path d="M275.986,405.824 C210.355,420.676 141.469,441.85 122,468 C46.3565,569.6 38.637,657.632 122,753 C161.538,798.2319 582.892,828.2868 720.09,836.9314 " fill="none" id="mastermind.distributed.dispatchers-java.util" style="stroke: #A80036; stroke-width: 1.0; stroke-dasharray: 7.0,7.0;"/><polygon fill="#A80036" points="725.24,837.2542,716.5079,832.6989,720.2498,836.9413,716.0073,840.6832,725.24,837.2542" style="stroke: #A80036; stroke-width: 1.0;"/><!--link mastermind.distributed.dispatchers to mastermind.controllers--><path d="M375.673,408.04 C340.508,437.657 295.804,486.241 326,523 C368.205,574.378 550.856,595.762 666.25,604.265 " fill="none" id="mastermind.distributed.dispatchers-mastermind.controllers" style="stroke: #A80036; stroke-width: 1.0; stroke-dasharray: 7.0,7.0;"/><polygon fill="#A80036" points="671.351,604.635,662.6637,599.9949,666.3641,604.2736,662.0854,607.974,671.351,604.635" style="stroke: #A80036; stroke-width: 1.0;"/><!--link mastermind.distributed.dispatchers to mastermind.controllers.implementation--><path d="M429.959,408.279 C441.715,424.885 456.862,446.279 469.125,463.602 " fill="none" id="mastermind.distributed.dispatchers-mastermind.controllers.implementation" style="stroke: #A80036; stroke-width: 1.0; stroke-dasharray: 7.0,7.0;"/><polygon fill="#A80036" points="472.177,467.913,470.2412,458.2563,469.2879,463.8322,463.7119,462.8789,472.177,467.913" style="stroke: #A80036; stroke-width: 1.0;"/><!--link mastermind.distributed.dispatchers to santaTecla.utils--><path d="M486.964,408.038 C535.394,425.027 599.452,447.627 656,468 C766.463,507.798 894.34,555.028 971.378,583.607 " fill="none" id="mastermind.distributed.dispatchers-santaTecla.utils" style="stroke: #A80036; stroke-width: 1.0; stroke-dasharray: 7.0,7.0;"/><polygon fill="#A80036" points="976.378,585.462,969.3302,578.5824,971.6899,583.7236,966.5488,586.0834,976.378,585.462" style="stroke: #A80036; stroke-width: 1.0;"/><!--link mastermind.distributed.dispatchers to mastermind.types--><path d="M364.073,408.135 C343.085,422.818 320.514,443.139 309,468 C298.727,490.181 296.84,501.795 309,523 C409.673,698.564 510.897,686.385 702,753 C885.029,816.8001 1114.72,833.608 1232.5,837.9915 " fill="none" id="mastermind.distributed.dispatchers-mastermind.types" style="stroke: #A80036; stroke-width: 1.0; stroke-dasharray: 7.0,7.0;"/><polygon fill="#A80036" points="1237.68,838.1789,1228.8224,833.8727,1232.6829,838.0075,1228.5481,841.868,1237.68,838.1789" style="stroke: #A80036; stroke-width: 1.0;"/><!--link mastermind.models to java.util--><path d="M1002.984,753.136 C941.508,775.26 856.209,805.9565 805.601,824.1691 " fill="none" id="mastermind.models-java.util" style="stroke: #A80036; stroke-width: 1.0; stroke-dasharray: 7.0,7.0;"/><polygon fill="#A80036" points="800.814,825.8919,810.6368,826.6084,805.5187,824.199,807.9281,819.0809,800.814,825.8919" style="stroke: #A80036; stroke-width: 1.0;"/><!--link mastermind.models to mastermind.types--><path d="M1131.92,753.136 C1167.46,770.3714 1213.73,792.8092 1250.19,810.4945 " fill="none" id="mastermind.models-mastermind.types" style="stroke: #A80036; stroke-width: 1.0; stroke-dasharray: 7.0,7.0;"/><polygon fill="#A80036" points="1255.04,812.8469,1248.6928,805.3161,1250.5427,810.6619,1245.1968,812.5118,1255.04,812.8469" style="stroke: #A80036; stroke-width: 1.0;"/><!--link mastermind.models.DAO to java.io--><path d="M1394.43,638.136 C1353.77,658.743 1298.42,686.788 1261.98,705.255 " fill="none" id="mastermind.models.DAO-java.io" style="stroke: #A80036; stroke-width: 1.0; stroke-dasharray: 7.0,7.0;"/><polygon fill="#A80036" points="1257.19,707.682,1267.0264,707.187,1261.6512,705.4242,1263.414,700.0491,1257.19,707.682" style="stroke: #A80036; stroke-width: 1.0;"/><!--link mastermind.models.DAO to mastermind.models--><path d="M1359.78,638.136 C1299.62,656.51 1220.1,680.795 1160.71,698.933 " fill="none" id="mastermind.models.DAO-mastermind.models" style="stroke: #A80036; stroke-width: 1.0; stroke-dasharray: 7.0,7.0;"/><polygon fill="#A80036" points="1155.75,700.448,1165.5252,701.6506,1160.5328,698.9904,1163.193,693.9981,1155.75,700.448" style="stroke: #A80036; stroke-width: 1.0;"/><!--link mastermind.models.dataBase to mastermind.models--><path d="M1499.74,523.007 C1449.85,538.437 1387.65,559.467 1334,583 C1258.16,616.268 1174.99,664.357 1124.39,695.02 " fill="none" id="mastermind.models.dataBase-mastermind.models" style="stroke: #A80036; stroke-width: 1.0; stroke-dasharray: 7.0,7.0;"/><polygon fill="#A80036" points="1119.9,697.748,1129.6679,696.4882,1124.1718,695.1495,1125.5104,689.6533,1119.9,697.748" style="stroke: #A80036; stroke-width: 1.0;"/><!--link mastermind.models.dataBase to mastermind.models.DAO--><path d="M1557.64,523.279 C1535.88,540.237 1507.71,562.188 1485.24,579.697 " fill="none" id="mastermind.models.dataBase-mastermind.models.DAO" style="stroke: #A80036; stroke-width: 1.0; stroke-dasharray: 7.0,7.0;"/><polygon fill="#A80036" points="1481.12,582.913,1490.6732,580.5179,1485.0581,579.8322,1485.7438,574.217,1481.12,582.913" style="stroke: #A80036; stroke-width: 1.0;"/><!--link mastermind.models.dataBase to mastermind.types--><path d="M1591.14,523.243 C1589.05,553.261 1582.18,602.413 1560,638 C1511.57,715.689 1422.4,776.6239 1364.68,810.3299 " fill="none" id="mastermind.models.dataBase-mastermind.types" style="stroke: #A80036; stroke-width: 1.0; stroke-dasharray: 7.0,7.0;"/><polygon fill="#A80036" points="1360.24,812.9087,1370.0337,811.8678,1364.5688,810.4065,1366.0301,804.9416,1360.24,812.9087" style="stroke: #A80036; stroke-width: 1.0;"/><!--link mastermind.models.Files to mastermind.models--><path d="M1913.03,523.038 C1831.01,554.61 1687.26,606.94 1560,638 C1390.91,679.27 1343.17,661.449 1173,698 C1168.93,698.874 1164.78,699.818 1160.59,700.812 " fill="none" id="mastermind.models.Files-mastermind.models" style="stroke: #A80036; stroke-width: 1.0; stroke-dasharray: 7.0,7.0;"/><polygon fill="#A80036" points="1155.66,701.999,1165.3466,703.7794,1160.5209,700.8277,1163.4725,696.002,1155.66,701.999" style="stroke: #A80036; stroke-width: 1.0;"/><!--link mastermind.models.Files to mastermind.models.DAO--><path d="M1882.42,517.2 C1873.15,519.162 1863.9,521.12 1855,523 C1728.35,549.756 1696.6,556.035 1570,583 C1562.8,584.534 1555.36,586.124 1547.87,587.728 " fill="none" id="mastermind.models.Files-mastermind.models.DAO" style="stroke: #A80036; stroke-width: 1.0; stroke-dasharray: 7.0,7.0;"/><polygon fill="#A80036" points="1542.68,588.841,1552.3165,590.8753,1547.57,587.7978,1550.6474,583.0513,1542.68,588.841" style="stroke: #A80036; stroke-width: 1.0;"/><!--link mastermind.models.Files to mastermind.types--><path d="M1967.99,523.12 C1942.47,576.368 1877.44,695.787 1784,753 C1718.63,793.0282 1503.91,820.0772 1387.2,832.2151 " fill="none" id="mastermind.models.Files-mastermind.types" style="stroke: #A80036; stroke-width: 1.0; stroke-dasharray: 7.0,7.0;"/><polygon fill="#A80036" points="1382.06,832.7465,1391.4237,835.7996,1387.0335,832.2322,1390.6008,827.842,1382.06,832.7465" style="stroke: #A80036; stroke-width: 1.0;"/><!--link santaTecla.utils to java.util--><path d="M976.32,635.558 C942.13,650.271 900.782,671.397 869,698 C831.199,729.641 799.109,777.2717 780.441,808.3772 " fill="none" id="santaTecla.utils-java.util" style="stroke: #A80036; stroke-width: 1.0; stroke-dasharray: 7.0,7.0;"/><polygon fill="#A80036" points="777.785,812.8427,785.8236,807.1523,780.341,808.5454,778.9479,803.0627,777.785,812.8427" style="stroke: #A80036; stroke-width: 1.0;"/><!--link santaTecla.utils to java.net--><path d="M1013.51,638.279 C996.318,655.026 974.128,676.642 956.267,694.041 " fill="none" id="santaTecla.utils-java.net" style="stroke: #A80036; stroke-width: 1.0; stroke-dasharray: 7.0,7.0;"/><polygon fill="#A80036" points="952.293,697.913,961.5303,694.4966,955.8739,694.4235,955.9471,688.7671,952.293,697.913" style="stroke: #A80036; stroke-width: 1.0;"/><!--link santaTecla.utils to java.io--><path d="M1084.37,638.279 C1115.5,657.501 1157.02,683.138 1186.67,701.45 " fill="none" id="santaTecla.utils-java.io" style="stroke: #A80036; stroke-width: 1.0; stroke-dasharray: 7.0,7.0;"/><polygon fill="#A80036" points="1190.96,704.097,1185.4061,695.9635,1186.7064,701.4689,1181.2011,702.7692,1190.96,704.097" style="stroke: #A80036; stroke-width: 1.0;"/><!--link mastermind.views to mastermind.controllers--><path d="M1058.16,293.129 C999.701,355.786 853.726,512.253 791.657,578.784 " fill="none" id="mastermind.views-mastermind.controllers" style="stroke: #A80036; stroke-width: 1.0; stroke-dasharray: 7.0,7.0;"/><polygon fill="#A80036" points="788.048,582.651,797.1128,578.8,791.4593,578.9954,791.2639,573.342,788.048,582.651" style="stroke: #A80036; stroke-width: 1.0;"/><!--link mastermind.views to santaTecla.utils--><path d="M1079.74,293.129 C1072.11,355.411 1053.14,510.386 1044.91,577.581 " fill="none" id="mastermind.views-santaTecla.utils" style="stroke: #A80036; stroke-width: 1.0; stroke-dasharray: 7.0,7.0;"/><polygon fill="#A80036" points="1044.29,582.651,1049.3545,574.204,1044.8978,577.6881,1041.4138,573.2315,1044.29,582.651" style="stroke: #A80036; stroke-width: 1.0;"/><!--link mastermind.views to mastermind.views.menus--><path d="M1127.32,293.279 C1155.61,310.378 1192.31,332.553 1221.4,350.132 " fill="none" id="mastermind.views-mastermind.views.menus" style="stroke: #A80036; stroke-width: 1.0; stroke-dasharray: 7.0,7.0;"/><polygon fill="#A80036" points="1226,352.913,1220.3651,344.8354,1221.7204,350.3275,1216.2283,351.6828,1226,352.913" style="stroke: #A80036; stroke-width: 1.0;"/><!--link mastermind.views to mastermind.views.models--><path d="M1095.66,293.028 C1109.41,321.603 1132.19,368.315 1153,408 C1162.7,426.491 1174.01,446.927 1183.22,463.29 " fill="none" id="mastermind.views-mastermind.views.models" style="stroke: #A80036; stroke-width: 1.0; stroke-dasharray: 7.0,7.0;"/><polygon fill="#A80036" points="1185.75,467.793,1184.8182,457.9883,1183.2961,463.4366,1177.8479,461.9145,1185.75,467.793" style="stroke: #A80036; stroke-width: 1.0;"/><!--link mastermind.views.menus to mastermind.controllers--><path d="M1210.85,408.101 C1114.81,451.29 925.764,536.304 826.809,580.805 " fill="none" id="mastermind.views.menus-mastermind.controllers" style="stroke: #A80036; stroke-width: 1.0; stroke-dasharray: 7.0,7.0;"/><polygon fill="#A80036" points="822.166,582.893,832.0148,582.851,826.7264,580.8428,828.7345,575.5544,822.166,582.893" style="stroke: #A80036; stroke-width: 1.0;"/><!--link mastermind.views.menus to santaTecla.utils--><path d="M1292.98,408.238 C1316.04,438.474 1344.74,488.036 1319,523 C1294.16,556.74 1184.92,583.054 1111,597.412 " fill="none" id="mastermind.views.menus-santaTecla.utils" style="stroke: #A80036; stroke-width: 1.0; stroke-dasharray: 7.0,7.0;"/><polygon fill="#A80036" points="1105.74,598.425,1115.3328,600.656,1110.6503,597.4821,1113.8242,592.7995,1105.74,598.425" style="stroke: #A80036; stroke-width: 1.0;"/><!--link mastermind.views.menus to mastermind.types--><path d="M1369.14,386.171 C1488.4,394.11 1678.12,414.929 1722,468 C1842.36,613.576 1536.5,754.136 1386.83,811.9265 " fill="none" id="mastermind.views.menus-mastermind.types" style="stroke: #A80036; stroke-width: 1.0; stroke-dasharray: 7.0,7.0;"/><polygon fill="#A80036" points="1382.01,813.7797,1391.8465,814.2731,1386.6751,811.9805,1388.9677,806.809,1382.01,813.7797" style="stroke: #A80036; stroke-width: 1.0;"/><!--link mastermind.views.menus to mastermind.views.models--><path d="M1253.65,408.279 C1243.51,424.885 1230.44,446.279 1219.87,463.602 " fill="none" id="mastermind.views.menus-mastermind.views.models" style="stroke: #A80036; stroke-width: 1.0; stroke-dasharray: 7.0,7.0;"/><polygon fill="#A80036" points="1217.23,467.913,1225.3401,462.325,1219.8403,463.6484,1218.5168,458.1486,1217.23,467.913" style="stroke: #A80036; stroke-width: 1.0;"/><!--link mastermind.views.models to mastermind.controllers--><path d="M1099.96,522.566 C1027.68,541.216 930.945,566.172 859.668,584.561 " fill="none" id="mastermind.views.models-mastermind.controllers" style="stroke: #A80036; stroke-width: 1.0; stroke-dasharray: 7.0,7.0;"/><polygon fill="#A80036" points="854.581,585.873,864.2947,587.4988,859.4226,584.6244,862.297,579.7522,854.581,585.873" style="stroke: #A80036; stroke-width: 1.0;"/><!--link mastermind.views.models to mastermind.types--><path d="M1211.65,523.266 C1226.69,561.599 1254.48,634.519 1274,698 C1285.47,735.293 1296.16,778.8935 1302.86,807.7354 " fill="none" id="mastermind.views.models-mastermind.types" style="stroke: #A80036; stroke-width: 1.0; stroke-dasharray: 7.0,7.0;"/><polygon fill="#A80036" points="1304.07,812.9442,1305.9396,803.2744,1302.9436,808.0727,1298.1452,805.0767,1304.07,812.9442" style="stroke: #A80036; stroke-width: 1.0;"/><!--link mastermind.views.models to santaTecla.utils--><path d="M1163.08,523.279 C1138.97,540.307 1107.73,562.37 1082.89,579.915 " fill="none" id="mastermind.views.models-santaTecla.utils" style="stroke: #A80036; stroke-width: 1.0; stroke-dasharray: 7.0,7.0;"/><polygon fill="#A80036" points="1078.65,582.913,1088.3086,580.9865,1082.7336,580.0278,1083.6923,574.4528,1078.65,582.913" style="stroke: #A80036; stroke-width: 1.0;"/><!--
@startuml
package mastermind #DDDDDD { }
mastermind .down.> mastermind.views
mastermind .down.> mastermind.controllers
mastermind .down.> mastermind.controllers.implementation
mastermind .down.> mastermind.models.DAO
mastermind .down.> mastermind.models.dataBase
mastermind .down.> mastermind.models.Files

package mastermind.controllers #DDDDDD { }
package java.util{ }
mastermind.controllers .down.> java.util
mastermind.controllers .down.> mastermind.models
mastermind.controllers .down.> mastermind.types

package mastermind.controllers.implementation #DDDDDD { }
mastermind.controllers.implementation .down.> mastermind.controllers
mastermind.controllers.implementation .down.> mastermind.models
mastermind.controllers.implementation .down.> mastermind.models.DAO
mastermind.controllers.implementation .down.> mastermind.types

package mastermind.distributed #DDDDDD { }
mastermind.distributed .down.> mastermind.controllers
mastermind.distributed .down.> mastermind
mastermind.distributed .down.> mastermind.distributed.dispatchers
mastermind.distributed .down.> mastermind.controllers.implementation
mastermind.distributed .down.> mastermind.models
mastermind.distributed .down.> santaTecla.utils
mastermind.distributed .down.> mastermind.types
mastermind.distributed .down.> mastermind.models.DAO
mastermind.distributed .down.> mastermind.models.dataBase
mastermind.distributed .down.> mastermind.models.Files

package mastermind.distributed.dispatchers #DDDDDD { }
package java.util{ }
mastermind.distributed.dispatchers .down.> java.util
mastermind.distributed.dispatchers .down.> mastermind.controllers
mastermind.distributed.dispatchers .down.> mastermind.controllers.implementation
mastermind.distributed.dispatchers .down.> santaTecla.utils
mastermind.distributed.dispatchers .down.> mastermind.types

package mastermind.models #DDDDDD { }
package java.util{ }
mastermind.models .down.> java.util
mastermind.models .down.> mastermind.types

package mastermind.models.DAO #DDDDDD { }
package java.io{ }
mastermind.models.DAO .down.> java.io
mastermind.models.DAO .down.> mastermind.models

package mastermind.models.dataBase #DDDDDD { }
mastermind.models.dataBase .down.> mastermind.models
mastermind.models.dataBase .down.> mastermind.models.DAO
mastermind.models.dataBase .down.> mastermind.types

package mastermind.models.Files #DDDDDD { }
mastermind.models.Files .down.> mastermind.models
mastermind.models.Files .down.> mastermind.models.DAO
mastermind.models.Files .down.> mastermind.types

package mastermind.types #DDDDDD { }

package santaTecla.utils #DDDDDD { }
package java.util{ }
santaTecla.utils .down.> java.util
package java.net{ }
santaTecla.utils .down.> java.net
package java.io{ }
santaTecla.utils .down.> java.io

package mastermind.views #DDDDDD { }
mastermind.views .down.> mastermind.controllers
mastermind.views .down.> santaTecla.utils
mastermind.views .down.> mastermind.views.menus
mastermind.views .down.> mastermind.views.models

package mastermind.views.menus #DDDDDD { }
mastermind.views.menus .down.> mastermind.controllers
mastermind.views.menus .down.> santaTecla.utils
mastermind.views.menus .down.> mastermind.types
mastermind.views.menus .down.> mastermind.views.models

package mastermind.views.models #DDDDDD { }
mastermind.views.models .down.> mastermind.controllers
mastermind.views.models .down.> mastermind.types
mastermind.views.models .down.> santaTecla.utils

@enduml

PlantUML version 1.2019.05(Sat Apr 20 18:45:36 CEST 2019)
(GPL source distribution)
Java Runtime: OpenJDK Runtime Environment
JVM: OpenJDK 64-Bit Server VM
Java Version: 1.8.0_222-b10
Operating System: Windows 10
OS Version: 10.0
Default Encoding: windows-1252
Language: es
Country: ES
--></g></svg>