<?xml version="1.0" encoding="UTF-8" standalone="no"?><svg xmlns="http://www.w3.org/2000/svg" xmlns:xlink="http://www.w3.org/1999/xlink" contentScriptType="application/ecmascript" contentStyleType="text/css" height="650px" preserveAspectRatio="none" style="width:1027px;height:650px;" version="1.1" viewBox="0 0 1027 650" width="1027px" zoomAndPan="magnify"><defs><filter height="300%" id="fj9z3u9ea0gpx" width="300%" x="-1" y="-1"><feGaussianBlur result="blurOut" stdDeviation="2.0"/><feColorMatrix in="blurOut" result="blurOut2" type="matrix" values="0 0 0 0 0 0 0 0 0 0 0 0 0 0 0 0 0 0 .4 0"/><feOffset dx="4.0" dy="4.0" in="blurOut2" result="blurOut3"/><feBlend in="SourceGraphic" in2="blurOut3" mode="normal"/></filter></defs><g><polygon fill="#DDDDDD" filter="url(#fj9z3u9ea0gpx)" points="330.731,8,418.731,8,425.731,31.6094,432.731,31.6094,432.731,63.2188,330.731,63.2188,330.731,8" style="stroke: #000000; stroke-width: 1.5;"/><line style="stroke: #000000; stroke-width: 1.5;" x1="330.731" x2="425.731" y1="31.6094" y2="31.6094"/><text fill="#000000" font-family="sans-serif" font-size="14" font-weight="bold" lengthAdjust="spacingAndGlyphs" textLength="82" x="334.731" y="24.5332">mastermind</text><polygon fill="#DDDDDD" filter="url(#fj9z3u9ea0gpx)" points="260.231,353,429.231,353,436.231,376.6094,443.231,376.6094,443.231,408.2188,260.231,408.2188,260.231,353" style="stroke: #000000; stroke-width: 1.5;"/><line style="stroke: #000000; stroke-width: 1.5;" x1="260.231" x2="436.231" y1="376.6094" y2="376.6094"/><text fill="#000000" font-family="sans-serif" font-size="14" font-weight="bold" lengthAdjust="spacingAndGlyphs" textLength="163" x="264.231" y="369.5332">mastermind.controllers</text><polygon fill="#DDDDDD" filter="url(#fj9z3u9ea0gpx)" points="88.2312,468,231.2312,468,238.2312,491.6094,245.2312,491.6094,245.2312,523.2188,88.2312,523.2188,88.2312,468" style="stroke: #000000; stroke-width: 1.5;"/><line style="stroke: #000000; stroke-width: 1.5;" x1="88.2312" x2="238.2312" y1="491.6094" y2="491.6094"/><text fill="#000000" font-family="sans-serif" font-size="14" font-weight="bold" lengthAdjust="spacingAndGlyphs" textLength="137" x="92.2312" y="484.5332">mastermind.models</text><polygon fill="#FFFFFF" filter="url(#fj9z3u9ea0gpx)" points="129.231,583,190.231,583,197.231,606.6094,204.231,606.6094,204.231,638.2188,129.231,638.2188,129.231,583" style="stroke: #000000; stroke-width: 1.5;"/><line style="stroke: #000000; stroke-width: 1.5;" x1="129.231" x2="197.231" y1="606.6094" y2="606.6094"/><text fill="#000000" font-family="sans-serif" font-size="14" font-weight="bold" lengthAdjust="spacingAndGlyphs" textLength="55" x="133.231" y="599.5332">java.util</text><polygon fill="#DDDDDD" filter="url(#fj9z3u9ea0gpx)" points="35.7312,238,157.7312,238,164.7312,261.6094,171.7312,261.6094,171.7312,293.2188,35.7312,293.2188,35.7312,238" style="stroke: #000000; stroke-width: 1.5;"/><line style="stroke: #000000; stroke-width: 1.5;" x1="35.7312" x2="164.7312" y1="261.6094" y2="261.6094"/><text fill="#000000" font-family="sans-serif" font-size="14" font-weight="bold" lengthAdjust="spacingAndGlyphs" textLength="116" x="39.7312" y="254.5332">mastermind.utils</text><polygon fill="#FFFFFF" filter="url(#fj9z3u9ea0gpx)" points="70.7312,353,122.7312,353,129.7312,376.6094,136.7312,376.6094,136.7312,408.2188,70.7312,408.2188,70.7312,353" style="stroke: #000000; stroke-width: 1.5;"/><line style="stroke: #000000; stroke-width: 1.5;" x1="70.7312" x2="129.7312" y1="376.6094" y2="376.6094"/><text fill="#000000" font-family="sans-serif" font-size="14" font-weight="bold" lengthAdjust="spacingAndGlyphs" textLength="46" x="74.7312" y="369.5332">java.io</text><polygon fill="#DDDDDD" filter="url(#fj9z3u9ea0gpx)" points="278.231,238,411.231,238,418.231,261.6094,425.231,261.6094,425.231,293.2188,278.231,293.2188,278.231,238" style="stroke: #000000; stroke-width: 1.5;"/><line style="stroke: #000000; stroke-width: 1.5;" x1="278.231" x2="418.231" y1="261.6094" y2="261.6094"/><text fill="#000000" font-family="sans-serif" font-size="14" font-weight="bold" lengthAdjust="spacingAndGlyphs" textLength="127" x="282.231" y="254.5332">mastermind.views</text><polygon fill="#DDDDDD" filter="url(#fj9z3u9ea0gpx)" points="121.231,123,314.231,123,321.231,146.6094,328.231,146.6094,328.231,178.2188,121.231,178.2188,121.231,123" style="stroke: #000000; stroke-width: 1.5;"/><line style="stroke: #000000; stroke-width: 1.5;" x1="121.231" x2="321.231" y1="146.6094" y2="146.6094"/><text fill="#000000" font-family="sans-serif" font-size="14" font-weight="bold" lengthAdjust="spacingAndGlyphs" textLength="187" x="125.231" y="139.5332">mastermind.views.console</text><polygon fill="#DDDDDD" filter="url(#fj9z3u9ea0gpx)" points="480.731,123,678.731,123,685.731,146.6094,692.731,146.6094,692.731,178.2188,480.731,178.2188,480.731,123" style="stroke: #000000; stroke-width: 1.5;"/><line style="stroke: #000000; stroke-width: 1.5;" x1="480.731" x2="685.731" y1="146.6094" y2="146.6094"/><text fill="#000000" font-family="sans-serif" font-size="14" font-weight="bold" lengthAdjust="spacingAndGlyphs" textLength="192" x="484.731" y="139.5332">mastermind.views.graphics</text><polygon fill="#FFFFFF" filter="url(#fj9z3u9ea0gpx)" points="460.231,238,523.231,238,530.231,261.6094,537.231,261.6094,537.231,293.2188,460.231,293.2188,460.231,238" style="stroke: #000000; stroke-width: 1.5;"/><line style="stroke: #000000; stroke-width: 1.5;" x1="460.231" x2="530.231" y1="261.6094" y2="261.6094"/><text fill="#000000" font-family="sans-serif" font-size="14" font-weight="bold" lengthAdjust="spacingAndGlyphs" textLength="57" x="464.231" y="254.5332">java.awt</text><polygon fill="#FFFFFF" filter="url(#fj9z3u9ea0gpx)" points="572.731,238,680.731,238,687.731,261.6094,694.731,261.6094,694.731,293.2188,572.731,293.2188,572.731,238" style="stroke: #000000; stroke-width: 1.5;"/><line style="stroke: #000000; stroke-width: 1.5;" x1="572.731" x2="687.731" y1="261.6094" y2="261.6094"/><text fill="#000000" font-family="sans-serif" font-size="14" font-weight="bold" lengthAdjust="spacingAndGlyphs" textLength="102" x="576.731" y="254.5332">java.awt.event</text><polygon fill="#FFFFFF" filter="url(#fj9z3u9ea0gpx)" points="729.731,238,817.731,238,824.731,261.6094,831.731,261.6094,831.731,293.2188,729.731,293.2188,729.731,238" style="stroke: #000000; stroke-width: 1.5;"/><line style="stroke: #000000; stroke-width: 1.5;" x1="729.731" x2="824.731" y1="261.6094" y2="261.6094"/><text fill="#000000" font-family="sans-serif" font-size="14" font-weight="bold" lengthAdjust="spacingAndGlyphs" textLength="82" x="733.731" y="254.5332">javax.swing</text><!--link mastermind to mastermind.models--><path d="M330.615,42.723 C271.426,51.991 173.185,73.921 103.7312,123 C51.6092,159.832 37.8714,177.439 17.7312,238 C-6.6117,311.199 8.6303,344.709 52.7312,408 C68.7099,430.932 92.6604,450.413 114.49,465.049 " fill="none" id="mastermind-mastermind.models" style="stroke: #A80036; stroke-width: 1.0; stroke-dasharray: 7.0,7.0;"/><polygon fill="#A80036" points="118.825,467.911,113.5191,459.6135,114.6527,465.1557,109.1106,466.2892,118.825,467.911" style="stroke: #A80036; stroke-width: 1.0;"/><!--link mastermind to mastermind.views--><path d="M378.231,63.101 C372.68,105.291 361.877,187.393 355.922,232.652 " fill="none" id="mastermind-mastermind.views" style="stroke: #A80036; stroke-width: 1.0; stroke-dasharray: 7.0,7.0;"/><polygon fill="#A80036" points="355.255,237.716,360.3935,229.3139,355.9065,232.7586,352.4617,228.2716,355.255,237.716" style="stroke: #A80036; stroke-width: 1.0;"/><!--link mastermind to mastermind.views.console--><path d="M344.524,63.279 C320.866,80.307 290.212,102.37 265.836,119.915 " fill="none" id="mastermind-mastermind.views.console" style="stroke: #A80036; stroke-width: 1.0; stroke-dasharray: 7.0,7.0;"/><polygon fill="#A80036" points="261.671,122.913,271.3124,120.9022,265.7292,119.9922,266.6392,114.409,261.671,122.913" style="stroke: #A80036; stroke-width: 1.0;"/><!--link mastermind to mastermind.controllers--><path d="M432.837,42.661 C584.883,62.923 1015.69,135.41 881.731,293 C827.22,357.129 585.964,373.827 448.495,378.099 " fill="none" id="mastermind-mastermind.controllers" style="stroke: #A80036; stroke-width: 1.0; stroke-dasharray: 7.0,7.0;"/><polygon fill="#A80036" points="443.244,378.258,452.361,381.9836,448.2417,378.1066,452.1187,373.9872,443.244,378.258" style="stroke: #A80036; stroke-width: 1.0;"/><!--link mastermind to mastermind.views.graphics--><path d="M430.054,63.136 C461.193,80.301 501.695,102.626 533.717,120.278 " fill="none" id="mastermind-mastermind.views.graphics" style="stroke: #A80036; stroke-width: 1.0; stroke-dasharray: 7.0,7.0;"/><polygon fill="#A80036" points="538.378,122.847,532.4261,115,533.9989,120.4338,528.5651,122.0066,538.378,122.847" style="stroke: #A80036; stroke-width: 1.0;"/><!--link mastermind.controllers to mastermind.models--><path d="M307.889,408.279 C279.896,425.378 243.592,447.553 214.811,465.132 " fill="none" id="mastermind.controllers-mastermind.models" style="stroke: #A80036; stroke-width: 1.0; stroke-dasharray: 7.0,7.0;"/><polygon fill="#A80036" points="210.259,467.913,220.0248,466.6364,214.5263,465.3072,215.8555,459.8087,210.259,467.913" style="stroke: #A80036; stroke-width: 1.0;"/><!--link mastermind.models to java.util--><path d="M166.731,523.279 C166.731,539.6038 166.731,560.5556 166.731,577.7176 " fill="none" id="mastermind.models-java.util" style="stroke: #A80036; stroke-width: 1.0; stroke-dasharray: 7.0,7.0;"/><polygon fill="#A80036" points="166.731,582.9128,170.731,573.9128,166.731,577.9128,162.731,573.9128,166.731,582.9128" style="stroke: #A80036; stroke-width: 1.0;"/><!--link mastermind.utils to java.io--><path d="M103.7312,293.279 C103.7312,309.604 103.7312,330.556 103.7312,347.718 " fill="none" id="mastermind.utils-java.io" style="stroke: #A80036; stroke-width: 1.0; stroke-dasharray: 7.0,7.0;"/><polygon fill="#A80036" points="103.7312,352.913,107.7312,343.913,103.7312,347.913,99.7312,343.913,103.7312,352.913" style="stroke: #A80036; stroke-width: 1.0;"/><!--link mastermind.views to mastermind.controllers--><path d="M351.731,293.279 C351.731,309.604 351.731,330.556 351.731,347.718 " fill="none" id="mastermind.views-mastermind.controllers" style="stroke: #A80036; stroke-width: 1.0; stroke-dasharray: 7.0,7.0;"/><polygon fill="#A80036" points="351.731,352.913,355.731,343.913,351.731,347.913,347.731,343.913,351.731,352.913" style="stroke: #A80036; stroke-width: 1.0;"/><!--link mastermind.views.console to mastermind.controllers--><path d="M227.064,178.207 C230.639,207.975 239.461,256.693 260.731,293 C273.433,314.681 293.149,334.377 310.985,349.478 " fill="none" id="mastermind.views.console-mastermind.controllers" style="stroke: #A80036; stroke-width: 1.0; stroke-dasharray: 7.0,7.0;"/><polygon fill="#A80036" points="314.996,352.825,310.6482,343.9877,311.1569,349.6217,305.5229,350.1303,314.996,352.825" style="stroke: #A80036; stroke-width: 1.0;"/><!--link mastermind.views.console to mastermind.views--><path d="M254.828,178.279 C273.808,195.167 298.353,217.006 317.991,234.479 " fill="none" id="mastermind.views.console-mastermind.views" style="stroke: #A80036; stroke-width: 1.0; stroke-dasharray: 7.0,7.0;"/><polygon fill="#A80036" points="321.85,237.913,317.7857,228.9419,318.1148,234.5891,312.4675,234.9182,321.85,237.913" style="stroke: #A80036; stroke-width: 1.0;"/><!--link mastermind.views.console to mastermind.utils--><path d="M196.056,178.279 C177.973,195.167 154.588,217.006 135.877,234.479 " fill="none" id="mastermind.views.console-mastermind.utils" style="stroke: #A80036; stroke-width: 1.0; stroke-dasharray: 7.0,7.0;"/><polygon fill="#A80036" points="132.201,237.913,141.5094,234.6953,135.8559,234.501,136.0502,228.8475,132.201,237.913" style="stroke: #A80036; stroke-width: 1.0;"/><!--link mastermind.views.graphics to java.awt--><path d="M565.876,178.279 C552.944,194.885 536.283,216.279 522.793,233.602 " fill="none" id="mastermind.views.graphics-java.awt" style="stroke: #A80036; stroke-width: 1.0; stroke-dasharray: 7.0,7.0;"/><polygon fill="#A80036" points="519.436,237.913,528.1216,233.2696,522.508,233.968,521.8096,228.3544,519.436,237.913" style="stroke: #A80036; stroke-width: 1.0;"/><!--link mastermind.views.graphics to java.awt.event--><path d="M597.87,178.279 C604.718,194.745 613.524,215.917 620.696,233.161 " fill="none" id="mastermind.views.graphics-java.awt.event" style="stroke: #A80036; stroke-width: 1.0; stroke-dasharray: 7.0,7.0;"/><polygon fill="#A80036" points="622.673,237.913,622.9096,228.067,620.7527,233.2965,615.5232,231.1395,622.673,237.913" style="stroke: #A80036; stroke-width: 1.0;"/><!--link mastermind.views.graphics to mastermind.views--><path d="M531.337,178.136 C495.494,195.371 448.831,217.809 412.052,235.494 " fill="none" id="mastermind.views.graphics-mastermind.views" style="stroke: #A80036; stroke-width: 1.0; stroke-dasharray: 7.0,7.0;"/><polygon fill="#A80036" points="407.16,237.847,417.0044,237.5507,411.6659,235.6798,413.5368,230.3413,407.16,237.847" style="stroke: #A80036; stroke-width: 1.0;"/><!--link mastermind.views.graphics to javax.swing--><path d="M632.706,178.279 C662.182,195.448 700.445,217.735 730.685,235.349 " fill="none" id="mastermind.views.graphics-javax.swing" style="stroke: #A80036; stroke-width: 1.0; stroke-dasharray: 7.0,7.0;"/><polygon fill="#A80036" points="735.086,237.913,729.3216,229.9273,730.7652,235.3968,725.2957,236.8405,735.086,237.913" style="stroke: #A80036; stroke-width: 1.0;"/><!--link mastermind.views.graphics to mastermind.controllers--><path d="M692.92,169.587 C787.413,190.239 903.053,229.618 849.731,293 C799.514,352.692 578.862,371.193 448.721,376.927 " fill="none" id="mastermind.views.graphics-mastermind.controllers" style="stroke: #A80036; stroke-width: 1.0; stroke-dasharray: 7.0,7.0;"/><polygon fill="#A80036" points="443.362,377.158,452.5262,380.766,448.3573,376.9423,452.1811,372.7735,443.362,377.158" style="stroke: #A80036; stroke-width: 1.0;"/><!--
@startuml

package mastermind #DDDDDD { }
mastermind .down.> mastermind.models
mastermind .down.> mastermind.views
mastermind .down.> mastermind.views.console
mastermind .down.> mastermind.controllers
mastermind ..> mastermind.views.graphics

package mastermind.controllers #DDDDDD { }
mastermind.controllers .down.> mastermind.models

package mastermind.models #DDDDDD { }
package java.util{ }
mastermind.models .down.> java.util

package mastermind.utils #DDDDDD { }
package java.io{ }
mastermind.utils .down.> java.io

package mastermind.views #DDDDDD { }
mastermind.views .down.> mastermind.controllers

package mastermind.views.console #DDDDDD { }
mastermind.views.console .down.> mastermind.controllers
mastermind.views.console .down.> mastermind.views
mastermind.views.console .down.> mastermind.utils

package mastermind.views.graphics #DDDDDD { }
package java.awt{ }
mastermind.views.graphics .down.> java.awt
package java.awt.event{ }
mastermind.views.graphics .down.> java.awt.event
mastermind.views.graphics .down.> mastermind.views
package javax.swing{ }
mastermind.views.graphics .down.> javax.swing
mastermind.views.graphics .down.> mastermind.controllers

@enduml

PlantUML version 1.2019.05(Sat Apr 20 18:45:36 CEST 2019)
(GPL source distribution)
Java Runtime: OpenJDK Runtime Environment
JVM: OpenJDK 64-Bit Server VM
Java Version: 1.8.0_222-b10
Operating System: Windows 10
OS Version: 10.0
Default Encoding: windows-1252
Language: es
Country: ES
--></g></svg>