<?xml version="1.0" encoding="UTF-8" standalone="no"?><svg xmlns="http://www.w3.org/2000/svg" xmlns:xlink="http://www.w3.org/1999/xlink" contentScriptType="application/ecmascript" contentStyleType="text/css" height="535px" preserveAspectRatio="none" style="width:606px;height:535px;" version="1.1" viewBox="0 0 606 535" width="606px" zoomAndPan="magnify"><defs><filter height="300%" id="fzhfy26x410j2" width="300%" x="-1" y="-1"><feGaussianBlur result="blurOut" stdDeviation="2.0"/><feColorMatrix in="blurOut" result="blurOut2" type="matrix" values="0 0 0 0 0 0 0 0 0 0 0 0 0 0 0 0 0 0 .4 0"/><feOffset dx="4.0" dy="4.0" in="blurOut2" result="blurOut3"/><feBlend in="SourceGraphic" in2="blurOut3" mode="normal"/></filter></defs><g><polygon fill="#DDDDDD" filter="url(#fzhfy26x410j2)" points="351.5,8,439.5,8,446.5,31.6094,453.5,31.6094,453.5,63.2188,351.5,63.2188,351.5,8" style="stroke: #000000; stroke-width: 1.5;"/><line style="stroke: #000000; stroke-width: 1.5;" x1="351.5" x2="446.5" y1="31.6094" y2="31.6094"/><text fill="#000000" font-family="sans-serif" font-size="14" font-weight="bold" lengthAdjust="spacingAndGlyphs" textLength="82" x="355.5" y="24.5332">mastermind</text><polygon fill="#DDDDDD" filter="url(#fzhfy26x410j2)" points="212,123,381,123,388,146.6094,395,146.6094,395,178.2188,212,178.2188,212,123" style="stroke: #000000; stroke-width: 1.5;"/><line style="stroke: #000000; stroke-width: 1.5;" x1="212" x2="388" y1="146.6094" y2="146.6094"/><text fill="#000000" font-family="sans-serif" font-size="14" font-weight="bold" lengthAdjust="spacingAndGlyphs" textLength="163" x="216" y="139.5332">mastermind.controllers</text><polygon fill="#FFFFFF" filter="url(#fzhfy26x410j2)" points="489,8,570,8,577,31.6094,584,31.6094,584,63.2188,489,63.2188,489,8" style="stroke: #000000; stroke-width: 1.5;"/><line style="stroke: #000000; stroke-width: 1.5;" x1="489" x2="577" y1="31.6094" y2="31.6094"/><text fill="#000000" font-family="sans-serif" font-size="14" font-weight="bold" lengthAdjust="spacingAndGlyphs" textLength="75" x="493" y="24.5332">santaTecla</text><polygon fill="#DDDDDD" filter="url(#fzhfy26x410j2)" points="328,353,471,353,478,376.6094,485,376.6094,485,408.2188,328,408.2188,328,353" style="stroke: #000000; stroke-width: 1.5;"/><line style="stroke: #000000; stroke-width: 1.5;" x1="328" x2="478" y1="376.6094" y2="376.6094"/><text fill="#000000" font-family="sans-serif" font-size="14" font-weight="bold" lengthAdjust="spacingAndGlyphs" textLength="137" x="332" y="369.5332">mastermind.models</text><polygon fill="#DDDDDD" filter="url(#fzhfy26x410j2)" points="331.5,468,461.5,468,468.5,491.6094,475.5,491.6094,475.5,523.2188,331.5,523.2188,331.5,468" style="stroke: #000000; stroke-width: 1.5;"/><line style="stroke: #000000; stroke-width: 1.5;" x1="331.5" x2="468.5" y1="491.6094" y2="491.6094"/><text fill="#000000" font-family="sans-serif" font-size="14" font-weight="bold" lengthAdjust="spacingAndGlyphs" textLength="124" x="335.5" y="484.5332">mastermind.types</text><polygon fill="#DDDDDD" filter="url(#fzhfy26x410j2)" points="90,353,205,353,212,376.6094,219,376.6094,219,408.2188,90,408.2188,90,353" style="stroke: #000000; stroke-width: 1.5;"/><line style="stroke: #000000; stroke-width: 1.5;" x1="90" x2="212" y1="376.6094" y2="376.6094"/><text fill="#000000" font-family="sans-serif" font-size="14" font-weight="bold" lengthAdjust="spacingAndGlyphs" textLength="109" x="94" y="369.5332">santaTecla.utils</text><polygon fill="#FFFFFF" filter="url(#fzhfy26x410j2)" points="6,468,67,468,74,491.6094,81,491.6094,81,523.2188,6,523.2188,6,468" style="stroke: #000000; stroke-width: 1.5;"/><line style="stroke: #000000; stroke-width: 1.5;" x1="6" x2="74" y1="491.6094" y2="491.6094"/><text fill="#000000" font-family="sans-serif" font-size="14" font-weight="bold" lengthAdjust="spacingAndGlyphs" textLength="55" x="10" y="484.5332">java.util</text><polygon fill="#FFFFFF" filter="url(#fzhfy26x410j2)" points="116.5,468,178.5,468,185.5,491.6094,192.5,491.6094,192.5,523.2188,116.5,523.2188,116.5,468" style="stroke: #000000; stroke-width: 1.5;"/><line style="stroke: #000000; stroke-width: 1.5;" x1="116.5" x2="185.5" y1="491.6094" y2="491.6094"/><text fill="#000000" font-family="sans-serif" font-size="14" font-weight="bold" lengthAdjust="spacingAndGlyphs" textLength="56" x="120.5" y="484.5332">java.net</text><polygon fill="#FFFFFF" filter="url(#fzhfy26x410j2)" points="227.5,468,279.5,468,286.5,491.6094,293.5,491.6094,293.5,523.2188,227.5,523.2188,227.5,468" style="stroke: #000000; stroke-width: 1.5;"/><line style="stroke: #000000; stroke-width: 1.5;" x1="227.5" x2="286.5" y1="491.6094" y2="491.6094"/><text fill="#000000" font-family="sans-serif" font-size="14" font-weight="bold" lengthAdjust="spacingAndGlyphs" textLength="46" x="231.5" y="484.5332">java.io</text><polygon fill="#DDDDDD" filter="url(#fzhfy26x410j2)" points="204,238,337,238,344,261.6094,351,261.6094,351,293.2188,204,293.2188,204,238" style="stroke: #000000; stroke-width: 1.5;"/><line style="stroke: #000000; stroke-width: 1.5;" x1="204" x2="344" y1="261.6094" y2="261.6094"/><text fill="#000000" font-family="sans-serif" font-size="14" font-weight="bold" lengthAdjust="spacingAndGlyphs" textLength="127" x="208" y="254.5332">mastermind.views</text><!--link mastermind to mastermind.controllers--><path d="M379.038,63.279 C364.367,80.026 345.428,101.642 330.185,119.041 " fill="none" id="mastermind-mastermind.controllers" style="stroke: #A80036; stroke-width: 1.0; stroke-dasharray: 7.0,7.0;"/><polygon fill="#A80036" points="326.793,122.913,335.7325,118.7796,330.088,119.1522,329.7153,113.5077,326.793,122.913" style="stroke: #A80036; stroke-width: 1.0;"/><!--link mastermind to mastermind.models--><path d="M406.406,63.316 C408.69,80.364 411.344,102.927 412.5,123 C417.16,203.878 412.17,299.301 408.89,347.78 " fill="none" id="mastermind-mastermind.models" style="stroke: #A80036; stroke-width: 1.0; stroke-dasharray: 7.0,7.0;"/><polygon fill="#A80036" points="408.539,352.889,413.1467,344.1844,408.8818,347.9008,405.1655,343.6359,408.539,352.889" style="stroke: #A80036; stroke-width: 1.0;"/><!--link mastermind.controllers to mastermind.models--><path d="M327.782,178.159 C341.464,194.422 357.886,216.216 368.5,238 C385.878,273.666 396.187,318.399 401.589,347.91 " fill="none" id="mastermind.controllers-mastermind.models" style="stroke: #A80036; stroke-width: 1.0; stroke-dasharray: 7.0,7.0;"/><polygon fill="#A80036" points="402.478,352.875,404.8287,343.3108,401.5965,347.9533,396.954,344.7211,402.478,352.875" style="stroke: #A80036; stroke-width: 1.0;"/><!--link mastermind.controllers to mastermind.views--><path d="M297.338,178.279 C293.582,194.604 288.762,215.556 284.813,232.718 " fill="none" id="mastermind.controllers-mastermind.views" style="stroke: #A80036; stroke-width: 1.0; stroke-dasharray: 7.0,7.0;"/><polygon fill="#A80036" points="283.617,237.913,289.5336,230.0394,284.7384,233.0404,281.7374,228.2452,283.617,237.913" style="stroke: #A80036; stroke-width: 1.0;"/><!--link mastermind.controllers to santaTecla.utils--><path d="M252.362,178.048 C228.924,192.711 202.793,213.039 186.5,238 C164.767,271.296 157.669,317.336 155.421,347.741 " fill="none" id="mastermind.controllers-santaTecla.utils" style="stroke: #A80036; stroke-width: 1.0; stroke-dasharray: 7.0,7.0;"/><polygon fill="#A80036" points="155.078,352.856,159.6708,344.1436,155.4123,347.8672,151.6887,343.6087,155.078,352.856" style="stroke: #A80036; stroke-width: 1.0;"/><!--link mastermind.models to mastermind.types--><path d="M405.789,408.279 C405.356,424.6038 404.799,445.5556 404.344,462.7176 " fill="none" id="mastermind.models-mastermind.types" style="stroke: #A80036; stroke-width: 1.0; stroke-dasharray: 7.0,7.0;"/><polygon fill="#A80036" points="404.206,467.9128,408.4435,459.0221,404.3387,462.9146,400.4463,458.8098,404.206,467.9128" style="stroke: #A80036; stroke-width: 1.0;"/><!--link santaTecla.utils to java.util--><path d="M128.195,408.279 C111.744,425.026 90.5106,446.6424 73.4195,464.0414 " fill="none" id="santaTecla.utils-java.util" style="stroke: #A80036; stroke-width: 1.0; stroke-dasharray: 7.0,7.0;"/><polygon fill="#A80036" points="69.6166,467.9128,78.7771,464.2953,73.1204,464.3458,73.0699,458.6892,69.6166,467.9128" style="stroke: #A80036; stroke-width: 1.0;"/><!--link santaTecla.utils to java.net--><path d="M154.5,408.279 C154.5,424.6038 154.5,445.5556 154.5,462.7176 " fill="none" id="santaTecla.utils-java.net" style="stroke: #A80036; stroke-width: 1.0; stroke-dasharray: 7.0,7.0;"/><polygon fill="#A80036" points="154.5,467.9128,158.5,458.9128,154.5,462.9128,150.5,458.9128,154.5,467.9128" style="stroke: #A80036; stroke-width: 1.0;"/><!--link santaTecla.utils to java.io--><path d="M179.621,408.279 C195.33,425.026 215.607,446.6424 231.928,464.0414 " fill="none" id="santaTecla.utils-java.io" style="stroke: #A80036; stroke-width: 1.0; stroke-dasharray: 7.0,7.0;"/><polygon fill="#A80036" points="235.56,467.9128,232.3186,458.6126,232.1387,464.2666,226.4847,464.0867,235.56,467.9128" style="stroke: #A80036; stroke-width: 1.0;"/><!--link mastermind.views to mastermind.models--><path d="M308.071,293.279 C327.35,310.167 352.281,332.006 372.228,349.479 " fill="none" id="mastermind.views-mastermind.models" style="stroke: #A80036; stroke-width: 1.0; stroke-dasharray: 7.0,7.0;"/><polygon fill="#A80036" points="376.148,352.913,372.0129,343.9743,372.3866,349.6188,366.7421,349.9925,376.148,352.913" style="stroke: #A80036; stroke-width: 1.0;"/><!--link mastermind.views to mastermind.types--><path d="M279.081,293.237 C281.858,323.031 289.499,371.773 310.5,408 C323.146,429.8144 343.05,449.3996 361.206,464.3945 " fill="none" id="mastermind.views-mastermind.types" style="stroke: #A80036; stroke-width: 1.0; stroke-dasharray: 7.0,7.0;"/><polygon fill="#A80036" points="365.291,467.717,360.8317,458.9355,361.4116,464.5625,355.7846,465.1425,365.291,467.717" style="stroke: #A80036; stroke-width: 1.0;"/><!--link mastermind.views to santaTecla.utils--><path d="M248.351,293.279 C229.969,310.167 206.197,332.006 187.178,349.479 " fill="none" id="mastermind.views-santaTecla.utils" style="stroke: #A80036; stroke-width: 1.0; stroke-dasharray: 7.0,7.0;"/><polygon fill="#A80036" points="183.44,352.913,192.7741,349.7706,187.1223,349.5306,187.3623,343.8789,183.44,352.913" style="stroke: #A80036; stroke-width: 1.0;"/><!--
@startuml
package mastermind #DDDDDD { }
mastermind .down.> mastermind.controllers
mastermind .down.> mastermind.models

package mastermind.controllers #DDDDDD { }
mastermind.controllers .down.> mastermind.models
mastermind.controllers .down.> mastermind.views
mastermind.controllers .down.> santaTecla.utils

package mastermind.models #DDDDDD { }
mastermind.models .down.> mastermind.types

package mastermind.types #DDDDDD { }

package santaTecla.utils #DDDDDD { }
package java.util{ }
santaTecla.utils .down.> java.util
package java.net{ }
santaTecla.utils .down.> java.net
package java.io{ }
santaTecla.utils .down.> java.io

package mastermind.views #DDDDDD { }
mastermind.views .down.> mastermind.models
mastermind.views .down.> mastermind.types
mastermind.views .down.> santaTecla.utils
@enduml

PlantUML version 1.2019.05(Sat Apr 20 18:45:36 CEST 2019)
(GPL source distribution)
Java Runtime: OpenJDK Runtime Environment
JVM: OpenJDK 64-Bit Server VM
Java Version: 1.8.0_222-b10
Operating System: Windows 10
OS Version: 10.0
Default Encoding: windows-1252
Language: es
Country: ES
--></g></svg>