<?xml version="1.0" encoding="UTF-8" standalone="no"?><svg xmlns="http://www.w3.org/2000/svg" xmlns:xlink="http://www.w3.org/1999/xlink" contentScriptType="application/ecmascript" contentStyleType="text/css" height="650px" preserveAspectRatio="none" style="width:867px;height:650px;" version="1.1" viewBox="0 0 867 650" width="867px" zoomAndPan="magnify"><defs><filter height="300%" id="f1gq9h9vvybhf0" width="300%" x="-1" y="-1"><feGaussianBlur result="blurOut" stdDeviation="2.0"/><feColorMatrix in="blurOut" result="blurOut2" type="matrix" values="0 0 0 0 0 0 0 0 0 0 0 0 0 0 0 0 0 0 .4 0"/><feOffset dx="4.0" dy="4.0" in="blurOut2" result="blurOut3"/><feBlend in="SourceGraphic" in2="blurOut3" mode="normal"/></filter></defs><g><polygon fill="#DDDDDD" filter="url(#f1gq9h9vvybhf0)" points="151.299,123,239.299,123,246.299,146.6094,253.299,146.6094,253.299,178.2188,151.299,178.2188,151.299,123" style="stroke: #000000; stroke-width: 1.5;"/><line style="stroke: #000000; stroke-width: 1.5;" x1="151.299" x2="246.299" y1="146.6094" y2="146.6094"/><text fill="#000000" font-family="sans-serif" font-size="14" font-weight="bold" lengthAdjust="spacingAndGlyphs" textLength="82" x="155.299" y="139.5332">mastermind</text><polygon fill="#DDDDDD" filter="url(#f1gq9h9vvybhf0)" points="290.799,353,459.799,353,466.799,376.6094,473.799,376.6094,473.799,408.2188,290.799,408.2188,290.799,353" style="stroke: #000000; stroke-width: 1.5;"/><line style="stroke: #000000; stroke-width: 1.5;" x1="290.799" x2="466.799" y1="376.6094" y2="376.6094"/><text fill="#000000" font-family="sans-serif" font-size="14" font-weight="bold" lengthAdjust="spacingAndGlyphs" textLength="163" x="294.799" y="369.5332">mastermind.controllers</text><polygon fill="#FFFFFF" filter="url(#f1gq9h9vvybhf0)" points="623.799,583,684.799,583,691.799,606.6094,698.799,606.6094,698.799,638.2188,623.799,638.2188,623.799,583" style="stroke: #000000; stroke-width: 1.5;"/><line style="stroke: #000000; stroke-width: 1.5;" x1="623.799" x2="691.799" y1="606.6094" y2="606.6094"/><text fill="#000000" font-family="sans-serif" font-size="14" font-weight="bold" lengthAdjust="spacingAndGlyphs" textLength="55" x="627.799" y="599.5332">java.util</text><polygon fill="#DDDDDD" filter="url(#f1gq9h9vvybhf0)" points="232.799,238,513.799,238,520.799,261.6094,527.799,261.6094,527.799,293.2188,232.799,293.2188,232.799,238" style="stroke: #000000; stroke-width: 1.5;"/><line style="stroke: #000000; stroke-width: 1.5;" x1="232.799" x2="520.799" y1="261.6094" y2="261.6094"/><text fill="#000000" font-family="sans-serif" font-size="14" font-weight="bold" lengthAdjust="spacingAndGlyphs" textLength="275" x="236.799" y="254.5332">mastermind.controllers.implementation</text><polygon fill="#DDDDDD" filter="url(#f1gq9h9vvybhf0)" points="329.799,8,498.799,8,505.799,31.6094,512.799,31.6094,512.799,63.2188,329.799,63.2188,329.799,8" style="stroke: #000000; stroke-width: 1.5;"/><line style="stroke: #000000; stroke-width: 1.5;" x1="329.799" x2="505.799" y1="31.6094" y2="31.6094"/><text fill="#000000" font-family="sans-serif" font-size="14" font-weight="bold" lengthAdjust="spacingAndGlyphs" textLength="163" x="333.799" y="24.5332">mastermind.distributed</text><polygon fill="#DDDDDD" filter="url(#f1gq9h9vvybhf0)" points="513.299,123,769.299,123,776.299,146.6094,783.299,146.6094,783.299,178.2188,513.299,178.2188,513.299,123" style="stroke: #000000; stroke-width: 1.5;"/><line style="stroke: #000000; stroke-width: 1.5;" x1="513.299" x2="776.299" y1="146.6094" y2="146.6094"/><text fill="#000000" font-family="sans-serif" font-size="14" font-weight="bold" lengthAdjust="spacingAndGlyphs" textLength="250" x="517.299" y="139.5332">mastermind.distributed.dispatchers</text><polygon fill="#DDDDDD" filter="url(#f1gq9h9vvybhf0)" points="303.799,468,446.799,468,453.799,491.6094,460.799,491.6094,460.799,523.2188,303.799,523.2188,303.799,468" style="stroke: #000000; stroke-width: 1.5;"/><line style="stroke: #000000; stroke-width: 1.5;" x1="303.799" x2="453.799" y1="491.6094" y2="491.6094"/><text fill="#000000" font-family="sans-serif" font-size="14" font-weight="bold" lengthAdjust="spacingAndGlyphs" textLength="137" x="307.799" y="484.5332">mastermind.models</text><polygon fill="#DDDDDD" filter="url(#f1gq9h9vvybhf0)" points="654.299,353,776.299,353,783.299,376.6094,790.299,376.6094,790.299,408.2188,654.299,408.2188,654.299,353" style="stroke: #000000; stroke-width: 1.5;"/><line style="stroke: #000000; stroke-width: 1.5;" x1="654.299" x2="783.299" y1="376.6094" y2="376.6094"/><text fill="#000000" font-family="sans-serif" font-size="14" font-weight="bold" lengthAdjust="spacingAndGlyphs" textLength="116" x="658.299" y="369.5332">mastermind.utils</text><polygon fill="#FFFFFF" filter="url(#f1gq9h9vvybhf0)" points="675.299,468,737.299,468,744.299,491.6094,751.299,491.6094,751.299,523.2188,675.299,523.2188,675.299,468" style="stroke: #000000; stroke-width: 1.5;"/><line style="stroke: #000000; stroke-width: 1.5;" x1="675.299" x2="744.299" y1="491.6094" y2="491.6094"/><text fill="#000000" font-family="sans-serif" font-size="14" font-weight="bold" lengthAdjust="spacingAndGlyphs" textLength="56" x="679.299" y="484.5332">java.net</text><polygon fill="#FFFFFF" filter="url(#f1gq9h9vvybhf0)" points="574.299,468,626.299,468,633.299,491.6094,640.299,491.6094,640.299,523.2188,574.299,523.2188,574.299,468" style="stroke: #000000; stroke-width: 1.5;"/><line style="stroke: #000000; stroke-width: 1.5;" x1="574.299" x2="633.299" y1="491.6094" y2="491.6094"/><text fill="#000000" font-family="sans-serif" font-size="14" font-weight="bold" lengthAdjust="spacingAndGlyphs" textLength="46" x="578.299" y="484.5332">java.io</text><polygon fill="#DDDDDD" filter="url(#f1gq9h9vvybhf0)" points="50.7985,238,183.7985,238,190.7985,261.6094,197.7985,261.6094,197.7985,293.2188,50.7985,293.2188,50.7985,238" style="stroke: #000000; stroke-width: 1.5;"/><line style="stroke: #000000; stroke-width: 1.5;" x1="50.7985" x2="190.7985" y1="261.6094" y2="261.6094"/><text fill="#000000" font-family="sans-serif" font-size="14" font-weight="bold" lengthAdjust="spacingAndGlyphs" textLength="127" x="54.7985" y="254.5332">mastermind.views</text><!--link mastermind to mastermind.views--><path d="M183.814,178.279 C172.351,194.885 157.583,216.279 145.626,233.602 " fill="none" id="mastermind-mastermind.views" style="stroke: #A80036; stroke-width: 1.0; stroke-dasharray: 7.0,7.0;"/><polygon fill="#A80036" points="142.651,237.913,151.0556,232.7786,145.4914,233.7981,144.4718,228.2339,142.651,237.913" style="stroke: #A80036; stroke-width: 1.0;"/><!--link mastermind to mastermind.controllers--><path d="M151.031,162.476 C111.257,173.976 58.7484,196.384 33.2985,238 C20.5454,258.854 18.2356,273.748 33.2985,293 C64.1138,332.385 193.062,356.353 285.237,368.775 " fill="none" id="mastermind-mastermind.controllers" style="stroke: #A80036; stroke-width: 1.0; stroke-dasharray: 7.0,7.0;"/><polygon fill="#A80036" points="290.424,369.467,282.0323,364.3115,285.4679,368.8055,280.9739,372.2412,290.424,369.467" style="stroke: #A80036; stroke-width: 1.0;"/><!--link mastermind to mastermind.controllers.implementation--><path d="M244.482,178.279 C271.416,195.378 306.346,217.553 334.038,235.132 " fill="none" id="mastermind-mastermind.controllers.implementation" style="stroke: #A80036; stroke-width: 1.0; stroke-dasharray: 7.0,7.0;"/><polygon fill="#A80036" points="338.418,237.913,332.963,229.7128,334.1966,235.2335,328.6759,236.4671,338.418,237.913" style="stroke: #A80036; stroke-width: 1.0;"/><!--link mastermind.controllers to java.util--><path d="M414.849,408.101 C467.105,450.804 569.397,534.398 624.329,579.288 " fill="none" id="mastermind.controllers-java.util" style="stroke: #A80036; stroke-width: 1.0; stroke-dasharray: 7.0,7.0;"/><polygon fill="#A80036" points="628.524,582.7163,624.0847,573.9247,624.6518,579.5531,619.0235,580.1202,628.524,582.7163" style="stroke: #A80036; stroke-width: 1.0;"/><!--link mastermind.controllers to mastermind.models--><path d="M382.299,408.279 C382.299,424.604 382.299,445.556 382.299,462.718 " fill="none" id="mastermind.controllers-mastermind.models" style="stroke: #A80036; stroke-width: 1.0; stroke-dasharray: 7.0,7.0;"/><polygon fill="#A80036" points="382.299,467.913,386.299,458.913,382.299,462.913,378.299,458.913,382.299,467.913" style="stroke: #A80036; stroke-width: 1.0;"/><!--link mastermind.controllers.implementation to mastermind.controllers--><path d="M380.772,293.279 C381.061,309.604 381.432,330.556 381.736,347.718 " fill="none" id="mastermind.controllers.implementation-mastermind.controllers" style="stroke: #A80036; stroke-width: 1.0; stroke-dasharray: 7.0,7.0;"/><polygon fill="#A80036" points="381.828,352.913,385.6679,343.8435,381.7394,347.9138,377.6692,343.9853,381.828,352.913" style="stroke: #A80036; stroke-width: 1.0;"/><!--link mastermind.distributed to mastermind.controllers--><path d="M433.08,63.003 C446.511,92.165 469.914,139.948 495.299,178 C514.562,206.877 533.482,205.361 545.299,238 C553.62,260.984 557.897,272.052 545.299,293 C529.69,318.953 503.383,337.533 476.407,350.647 " fill="none" id="mastermind.distributed-mastermind.controllers" style="stroke: #A80036; stroke-width: 1.0; stroke-dasharray: 7.0,7.0;"/><polygon fill="#A80036" points="471.721,352.869,481.5669,352.6293,476.2393,350.7277,478.1409,345.4001,471.721,352.869" style="stroke: #A80036; stroke-width: 1.0;"/><!--link mastermind.distributed to mastermind--><path d="M369.676,63.136 C336.152,80.434 292.472,102.972 258.141,120.687 " fill="none" id="mastermind.distributed-mastermind" style="stroke: #A80036; stroke-width: 1.0; stroke-dasharray: 7.0,7.0;"/><polygon fill="#A80036" points="253.575,123.042,263.4073,122.4716,258.0188,120.7501,259.7403,115.3615,253.575,123.042" style="stroke: #A80036; stroke-width: 1.0;"/><!--link mastermind.distributed to mastermind.distributed.dispatchers--><path d="M474.807,63.136 C509.43,80.371 554.504,102.809 590.031,120.494 " fill="none" id="mastermind.distributed-mastermind.distributed.dispatchers" style="stroke: #A80036; stroke-width: 1.0; stroke-dasharray: 7.0,7.0;"/><polygon fill="#A80036" points="594.756,122.847,588.4804,115.2564,590.2796,120.6195,584.9165,122.4186,594.756,122.847" style="stroke: #A80036; stroke-width: 1.0;"/><!--link mastermind.distributed to mastermind.controllers.implementation--><path d="M416.515,63.101 C408.928,105.291 394.164,187.393 386.026,232.652 " fill="none" id="mastermind.distributed-mastermind.controllers.implementation" style="stroke: #A80036; stroke-width: 1.0; stroke-dasharray: 7.0,7.0;"/><polygon fill="#A80036" points="385.115,237.716,390.6463,229.5671,386.0009,232.7951,382.7729,228.1497,385.115,237.716" style="stroke: #A80036; stroke-width: 1.0;"/><!--link mastermind.distributed to mastermind.models--><path d="M329.488,48.211 C226.415,67.189 66.8269,115.83 15.2985,238 C-40.2718,369.753 173.509,444.599 298.245,476.293 " fill="none" id="mastermind.distributed-mastermind.models" style="stroke: #A80036; stroke-width: 1.0; stroke-dasharray: 7.0,7.0;"/><polygon fill="#A80036" points="303.38,477.586,295.6298,471.5086,298.5315,476.3646,293.6755,479.2663,303.38,477.586" style="stroke: #A80036; stroke-width: 1.0;"/><!--link mastermind.distributed to mastermind.utils--><path d="M513.019,44.437 C613.729,55.275 765.903,78.642 801.299,123 C855.714,191.194 788.272,296.846 748.114,348.683 " fill="none" id="mastermind.distributed-mastermind.utils" style="stroke: #A80036; stroke-width: 1.0; stroke-dasharray: 7.0,7.0;"/><polygon fill="#A80036" points="744.796,352.925,753.4911,348.2995,747.8761,348.9863,747.1892,343.3713,744.796,352.925" style="stroke: #A80036; stroke-width: 1.0;"/><!--link mastermind.distributed.dispatchers to java.util--><path d="M679.824,178.298 C718.729,213.663 782.852,280.031 808.299,353 C819.845,386.108 807.081,508.585 798.299,523 C777.044,557.8872 735.814,581.0298 704.113,594.5254 " fill="none" id="mastermind.distributed.dispatchers-java.util" style="stroke: #A80036; stroke-width: 1.0; stroke-dasharray: 7.0,7.0;"/><polygon fill="#A80036" points="699.111,596.6089,708.9571,596.8402,703.7265,594.6861,705.8806,589.4554,699.111,596.6089" style="stroke: #A80036; stroke-width: 1.0;"/><!--link mastermind.distributed.dispatchers to mastermind.controllers--><path d="M647.463,178.112 C645.089,209.391 636.623,261.071 607.299,293 C573.908,329.356 523.522,350.573 478.889,362.884 " fill="none" id="mastermind.distributed.dispatchers-mastermind.controllers" style="stroke: #A80036; stroke-width: 1.0; stroke-dasharray: 7.0,7.0;"/><polygon fill="#A80036" points="474.035,364.194,483.7664,365.7106,478.8623,362.8911,481.6818,357.987,474.035,364.194" style="stroke: #A80036; stroke-width: 1.0;"/><!--link mastermind.distributed.dispatchers to mastermind.controllers.implementation--><path d="M585.126,178.136 C543.999,195.477 490.382,218.084 448.321,235.819 " fill="none" id="mastermind.distributed.dispatchers-mastermind.controllers.implementation" style="stroke: #A80036; stroke-width: 1.0; stroke-dasharray: 7.0,7.0;"/><polygon fill="#A80036" points="443.511,237.847,453.3581,238.0356,448.1181,235.9042,450.2495,230.6642,443.511,237.847" style="stroke: #A80036; stroke-width: 1.0;"/><!--link mastermind.distributed.dispatchers to mastermind.utils--><path d="M657.847,178.309 C663.856,195.354 671.696,217.917 678.299,238 C690.68,275.657 704.097,319.246 712.817,347.983 " fill="none" id="mastermind.distributed.dispatchers-mastermind.utils" style="stroke: #A80036; stroke-width: 1.0; stroke-dasharray: 7.0,7.0;"/><polygon fill="#A80036" points="714.283,352.817,715.498,343.0434,712.8315,348.0323,707.8425,345.3658,714.283,352.817" style="stroke: #A80036; stroke-width: 1.0;"/><!--link mastermind.models to java.util--><path d="M448.064,523.136 C500.758,544.4783 573.149,573.7979 618.566,592.1927 " fill="none" id="mastermind.models-java.util" style="stroke: #A80036; stroke-width: 1.0; stroke-dasharray: 7.0,7.0;"/><polygon fill="#A80036" points="623.421,594.159,616.581,587.0728,618.7867,592.2819,613.5776,594.4876,623.421,594.159" style="stroke: #A80036; stroke-width: 1.0;"/><!--link mastermind.utils to java.util--><path d="M743.085,408.097 C763.07,437.135 787.734,484.616 769.299,523 C755.64,551.4381 727.574,573.4626 703.476,588.1699 " fill="none" id="mastermind.utils-java.util" style="stroke: #A80036; stroke-width: 1.0; stroke-dasharray: 7.0,7.0;"/><polygon fill="#A80036" points="699.027,590.8309,708.8043,589.6455,703.3184,588.265,704.6988,582.7792,699.027,590.8309" style="stroke: #A80036; stroke-width: 1.0;"/><!--link mastermind.utils to java.net--><path d="M720.166,408.279 C718.865,424.604 717.197,445.556 715.83,462.718 " fill="none" id="mastermind.utils-java.net" style="stroke: #A80036; stroke-width: 1.0; stroke-dasharray: 7.0,7.0;"/><polygon fill="#A80036" points="715.416,467.913,720.1182,459.2591,715.8131,462.9288,712.1435,458.6237,715.416,467.913" style="stroke: #A80036; stroke-width: 1.0;"/><!--link mastermind.utils to java.io--><path d="M695.045,408.279 C678.002,425.026 656.003,446.642 638.296,464.041 " fill="none" id="mastermind.utils-java.io" style="stroke: #A80036; stroke-width: 1.0; stroke-dasharray: 7.0,7.0;"/><polygon fill="#A80036" points="634.356,467.913,643.5795,464.4593,637.9228,464.409,637.9731,458.7524,634.356,467.913" style="stroke: #A80036; stroke-width: 1.0;"/><!--link mastermind.views to mastermind.controllers--><path d="M185.114,293.136 C224.626,310.442 276.113,332.992 316.567,350.711 " fill="none" id="mastermind.views-mastermind.controllers" style="stroke: #A80036; stroke-width: 1.0; stroke-dasharray: 7.0,7.0;"/><polygon fill="#A80036" points="321.445,352.847,314.8074,345.5709,316.8655,350.8401,311.5963,352.8981,321.445,352.847" style="stroke: #A80036; stroke-width: 1.0;"/><!--link mastermind.views to mastermind.utils--><path d="M198.112,288.762 C203.907,290.275 209.686,291.708 215.299,293 C368.11,328.164 549.844,355.788 648.915,369.67 " fill="none" id="mastermind.views-mastermind.utils" style="stroke: #A80036; stroke-width: 1.0; stroke-dasharray: 7.0,7.0;"/><polygon fill="#A80036" points="654.153,370.402,645.7942,365.1934,649.2012,369.7091,644.6855,373.1162,654.153,370.402" style="stroke: #A80036; stroke-width: 1.0;"/><!--
@startuml

package mastermind #DDDDDD { }
mastermind .down.> mastermind.views
mastermind .down.> mastermind.controllers
mastermind .down.> mastermind.controllers.implementation

package mastermind.controllers #DDDDDD { }
package java.util{ }
mastermind.controllers .down.> java.util
mastermind.controllers .down.> mastermind.models

package mastermind.controllers.implementation #DDDDDD { }
mastermind.controllers.implementation .down.> mastermind.controllers

package mastermind.distributed #DDDDDD { }
mastermind.distributed .down.> mastermind.controllers
mastermind.distributed .down.> mastermind
mastermind.distributed .down.> mastermind.distributed.dispatchers
mastermind.distributed .down.> mastermind.controllers.implementation
mastermind.distributed .down.> mastermind.models
mastermind.distributed .down.> mastermind.utils

package mastermind.distributed.dispatchers #DDDDDD { }
package java.util{ }
mastermind.distributed.dispatchers .down.> java.util
mastermind.distributed.dispatchers .down.> mastermind.controllers
mastermind.distributed.dispatchers .down.> mastermind.controllers.implementation
mastermind.distributed.dispatchers .down.> mastermind.utils

package mastermind.models #DDDDDD { }
package java.util{ }
mastermind.models .down.> java.util

package mastermind.utils #DDDDDD { }
package java.util{ }
mastermind.utils .down.> java.util
package java.net{ }
mastermind.utils .down.> java.net
package java.io{ }
mastermind.utils .down.> java.io

package mastermind.views #DDDDDD { }
mastermind.views .down.> mastermind.controllers
mastermind.views .down.> mastermind.utils

@enduml

PlantUML version 1.2019.05(Sat Apr 20 18:45:36 CEST 2019)
(GPL source distribution)
Java Runtime: OpenJDK Runtime Environment
JVM: OpenJDK 64-Bit Server VM
Java Version: 1.8.0_222-b10
Operating System: Windows 10
OS Version: 10.0
Default Encoding: windows-1252
Language: es
Country: ES
--></g></svg>