<?xml version="1.0" encoding="UTF-8" standalone="no"?><svg xmlns="http://www.w3.org/2000/svg" xmlns:xlink="http://www.w3.org/1999/xlink" contentScriptType="application/ecmascript" contentStyleType="text/css" height="535px" preserveAspectRatio="none" style="width:590px;height:535px;" version="1.1" viewBox="0 0 590 535" width="590px" zoomAndPan="magnify"><defs><filter height="300%" id="f1sournbtpikzv" width="300%" x="-1" y="-1"><feGaussianBlur result="blurOut" stdDeviation="2.0"/><feColorMatrix in="blurOut" result="blurOut2" type="matrix" values="0 0 0 0 0 0 0 0 0 0 0 0 0 0 0 0 0 0 .4 0"/><feOffset dx="4.0" dy="4.0" in="blurOut2" result="blurOut3"/><feBlend in="SourceGraphic" in2="blurOut3" mode="normal"/></filter></defs><g><polygon fill="#DDDDDD" filter="url(#f1sournbtpikzv)" points="105.5,8,193.5,8,200.5,31.6094,207.5,31.6094,207.5,63.2188,105.5,63.2188,105.5,8" style="stroke: #000000; stroke-width: 1.5;"/><line style="stroke: #000000; stroke-width: 1.5;" x1="105.5" x2="200.5" y1="31.6094" y2="31.6094"/><text fill="#000000" font-family="sans-serif" font-size="14" font-weight="bold" lengthAdjust="spacingAndGlyphs" textLength="82" x="109.5" y="24.5332">mastermind</text><polygon fill="#DDDDDD" filter="url(#f1sournbtpikzv)" points="138,123,307,123,314,146.6094,321,146.6094,321,178.2188,138,178.2188,138,123" style="stroke: #000000; stroke-width: 1.5;"/><line style="stroke: #000000; stroke-width: 1.5;" x1="138" x2="314" y1="146.6094" y2="146.6094"/><text fill="#000000" font-family="sans-serif" font-size="14" font-weight="bold" lengthAdjust="spacingAndGlyphs" textLength="163" x="142" y="139.5332">mastermind.controllers</text><polygon fill="#FFFFFF" filter="url(#f1sournbtpikzv)" points="243,8,324,8,331,31.6094,338,31.6094,338,63.2188,243,63.2188,243,8" style="stroke: #000000; stroke-width: 1.5;"/><line style="stroke: #000000; stroke-width: 1.5;" x1="243" x2="331" y1="31.6094" y2="31.6094"/><text fill="#000000" font-family="sans-serif" font-size="14" font-weight="bold" lengthAdjust="spacingAndGlyphs" textLength="75" x="247" y="24.5332">santaTecla</text><polygon fill="#DDDDDD" filter="url(#f1sournbtpikzv)" points="6,238,149,238,156,261.6094,163,261.6094,163,293.2188,6,293.2188,6,238" style="stroke: #000000; stroke-width: 1.5;"/><line style="stroke: #000000; stroke-width: 1.5;" x1="6" x2="156" y1="261.6094" y2="261.6094"/><text fill="#000000" font-family="sans-serif" font-size="14" font-weight="bold" lengthAdjust="spacingAndGlyphs" textLength="137" x="10" y="254.5332">mastermind.models</text><polygon fill="#DDDDDD" filter="url(#f1sournbtpikzv)" points="144.5,353,274.5,353,281.5,376.6094,288.5,376.6094,288.5,408.2188,144.5,408.2188,144.5,353" style="stroke: #000000; stroke-width: 1.5;"/><line style="stroke: #000000; stroke-width: 1.5;" x1="144.5" x2="281.5" y1="376.6094" y2="376.6094"/><text fill="#000000" font-family="sans-serif" font-size="14" font-weight="bold" lengthAdjust="spacingAndGlyphs" textLength="124" x="148.5" y="369.5332">mastermind.types</text><polygon fill="#DDDDDD" filter="url(#f1sournbtpikzv)" points="365,353,480,353,487,376.6094,494,376.6094,494,408.2188,365,408.2188,365,353" style="stroke: #000000; stroke-width: 1.5;"/><line style="stroke: #000000; stroke-width: 1.5;" x1="365" x2="487" y1="376.6094" y2="376.6094"/><text fill="#000000" font-family="sans-serif" font-size="14" font-weight="bold" lengthAdjust="spacingAndGlyphs" textLength="109" x="369" y="369.5332">santaTecla.utils</text><polygon fill="#FFFFFF" filter="url(#f1sournbtpikzv)" points="281,468,342,468,349,491.6094,356,491.6094,356,523.2188,281,523.2188,281,468" style="stroke: #000000; stroke-width: 1.5;"/><line style="stroke: #000000; stroke-width: 1.5;" x1="281" x2="349" y1="491.6094" y2="491.6094"/><text fill="#000000" font-family="sans-serif" font-size="14" font-weight="bold" lengthAdjust="spacingAndGlyphs" textLength="55" x="285" y="484.5332">java.util</text><polygon fill="#FFFFFF" filter="url(#f1sournbtpikzv)" points="391.5,468,453.5,468,460.5,491.6094,467.5,491.6094,467.5,523.2188,391.5,523.2188,391.5,468" style="stroke: #000000; stroke-width: 1.5;"/><line style="stroke: #000000; stroke-width: 1.5;" x1="391.5" x2="460.5" y1="491.6094" y2="491.6094"/><text fill="#000000" font-family="sans-serif" font-size="14" font-weight="bold" lengthAdjust="spacingAndGlyphs" textLength="56" x="395.5" y="484.5332">java.net</text><polygon fill="#FFFFFF" filter="url(#f1sournbtpikzv)" points="502.5,468,554.5,468,561.5,491.6094,568.5,491.6094,568.5,523.2188,502.5,523.2188,502.5,468" style="stroke: #000000; stroke-width: 1.5;"/><line style="stroke: #000000; stroke-width: 1.5;" x1="502.5" x2="561.5" y1="491.6094" y2="491.6094"/><text fill="#000000" font-family="sans-serif" font-size="14" font-weight="bold" lengthAdjust="spacingAndGlyphs" textLength="46" x="506.5" y="484.5332">java.io</text><polygon fill="#DDDDDD" filter="url(#f1sournbtpikzv)" points="270,238,403,238,410,261.6094,417,261.6094,417,293.2188,270,293.2188,270,238" style="stroke: #000000; stroke-width: 1.5;"/><line style="stroke: #000000; stroke-width: 1.5;" x1="270" x2="410" y1="261.6094" y2="261.6094"/><text fill="#000000" font-family="sans-serif" font-size="14" font-weight="bold" lengthAdjust="spacingAndGlyphs" textLength="127" x="274" y="254.5332">mastermind.views</text><!--link mastermind to mastermind.controllers--><path d="M173.8,63.279 C184.528,79.885 198.349,101.279 209.539,118.602 " fill="none" id="mastermind-mastermind.controllers" style="stroke: #A80036; stroke-width: 1.0; stroke-dasharray: 7.0,7.0;"/><polygon fill="#A80036" points="212.324,122.913,210.7985,113.183,209.6101,118.7136,204.0795,117.5252,212.324,122.913" style="stroke: #A80036; stroke-width: 1.0;"/><!--link mastermind to mastermind.models--><path d="M144.292,63.003 C136.791,79.931 127.341,102.476 120.5,123 C108.162,160.014 97.6462,203.671 91.2218,232.602 " fill="none" id="mastermind-mastermind.models" style="stroke: #A80036; stroke-width: 1.0; stroke-dasharray: 7.0,7.0;"/><polygon fill="#A80036" points="90.0703,237.828,95.9129,229.8993,91.146,232.9451,88.1003,228.1782,90.0703,237.828" style="stroke: #A80036; stroke-width: 1.0;"/><!--link mastermind.controllers to mastermind.models--><path d="M195.137,178.279 C173.377,195.237 145.21,217.188 122.742,234.697 " fill="none" id="mastermind.controllers-mastermind.models" style="stroke: #A80036; stroke-width: 1.0; stroke-dasharray: 7.0,7.0;"/><polygon fill="#A80036" points="118.616,237.913,128.1735,235.5351,122.5596,234.8392,123.2555,229.2254,118.616,237.913" style="stroke: #A80036; stroke-width: 1.0;"/><!--link mastermind.controllers to mastermind.types--><path d="M227.983,178.101 C225.578,220.291 220.896,302.393 218.316,347.652 " fill="none" id="mastermind.controllers-mastermind.types" style="stroke: #A80036; stroke-width: 1.0; stroke-dasharray: 7.0,7.0;"/><polygon fill="#A80036" points="218.027,352.716,222.5323,343.958,218.3113,347.7241,214.5452,343.5031,218.027,352.716" style="stroke: #A80036; stroke-width: 1.0;"/><!--link mastermind.controllers to mastermind.views--><path d="M256.516,178.279 C273.411,195.026 295.219,216.642 312.772,234.041 " fill="none" id="mastermind.controllers-mastermind.views" style="stroke: #A80036; stroke-width: 1.0; stroke-dasharray: 7.0,7.0;"/><polygon fill="#A80036" points="316.678,237.913,313.1016,228.7364,313.1268,234.3932,307.47,234.4184,316.678,237.913" style="stroke: #A80036; stroke-width: 1.0;"/><!--link mastermind.controllers to santaTecla.utils--><path d="M321.224,166.468 C363.198,178.401 409.141,199.775 434.5,238 C456.017,270.433 449.004,316.878 440.522,347.594 " fill="none" id="mastermind.controllers-santaTecla.utils" style="stroke: #A80036; stroke-width: 1.0; stroke-dasharray: 7.0,7.0;"/><polygon fill="#A80036" points="439.04,352.761,445.366,345.2124,440.4183,347.9547,437.676,343.0071,439.04,352.761" style="stroke: #A80036; stroke-width: 1.0;"/><!--link mastermind.models to mastermind.types--><path d="M115.782,293.279 C135.509,310.167 161.02,332.006 181.431,349.479 " fill="none" id="mastermind.models-mastermind.types" style="stroke: #A80036; stroke-width: 1.0; stroke-dasharray: 7.0,7.0;"/><polygon fill="#A80036" points="185.442,352.913,181.2058,344.0217,181.6435,349.6616,176.0036,350.0993,185.442,352.913" style="stroke: #A80036; stroke-width: 1.0;"/><!--link santaTecla.utils to java.util--><path d="M403.195,408.279 C386.744,425.026 365.511,446.6424 348.419,464.0414 " fill="none" id="santaTecla.utils-java.util" style="stroke: #A80036; stroke-width: 1.0; stroke-dasharray: 7.0,7.0;"/><polygon fill="#A80036" points="344.617,467.9128,353.7774,464.2951,348.1208,464.3458,348.0701,458.6891,344.617,467.9128" style="stroke: #A80036; stroke-width: 1.0;"/><!--link santaTecla.utils to java.net--><path d="M429.5,408.279 C429.5,424.6038 429.5,445.5556 429.5,462.7176 " fill="none" id="santaTecla.utils-java.net" style="stroke: #A80036; stroke-width: 1.0; stroke-dasharray: 7.0,7.0;"/><polygon fill="#A80036" points="429.5,467.9128,433.5,458.9128,429.5,462.9128,425.5,458.9128,429.5,467.9128" style="stroke: #A80036; stroke-width: 1.0;"/><!--link santaTecla.utils to java.io--><path d="M454.621,408.279 C470.33,425.026 490.607,446.6424 506.928,464.0414 " fill="none" id="santaTecla.utils-java.io" style="stroke: #A80036; stroke-width: 1.0; stroke-dasharray: 7.0,7.0;"/><polygon fill="#A80036" points="510.56,467.9128,507.3186,458.6126,507.1387,464.2666,501.4847,464.0867,510.56,467.9128" style="stroke: #A80036; stroke-width: 1.0;"/><!--link mastermind.views to mastermind.types--><path d="M313.403,293.279 C294.423,310.167 269.878,332.006 250.24,349.479 " fill="none" id="mastermind.views-mastermind.types" style="stroke: #A80036; stroke-width: 1.0; stroke-dasharray: 7.0,7.0;"/><polygon fill="#A80036" points="246.381,352.913,255.7635,349.9182,250.1162,349.5891,250.4453,343.9419,246.381,352.913" style="stroke: #A80036; stroke-width: 1.0;"/><!--link mastermind.views to santaTecla.utils--><path d="M363.881,293.279 C376.519,309.885 392.801,331.279 405.985,348.602 " fill="none" id="mastermind.views-santaTecla.utils" style="stroke: #A80036; stroke-width: 1.0; stroke-dasharray: 7.0,7.0;"/><polygon fill="#A80036" points="409.265,352.913,406.9965,343.329,406.2365,348.9345,400.6309,348.1745,409.265,352.913" style="stroke: #A80036; stroke-width: 1.0;"/><!--
@startuml

package mastermind #DDDDDD { }
mastermind .down.> mastermind.controllers
mastermind .down.> mastermind.models

package mastermind.controllers #DDDDDD { }
mastermind.controllers .down.> mastermind.models
mastermind.controllers .down.> mastermind.types
mastermind.controllers .down.> mastermind.views
mastermind.controllers .down.> santaTecla.utils

package mastermind.models #DDDDDD { }
mastermind.models .down.> mastermind.types

package mastermind.types #DDDDDD { }

package santaTecla.utils #DDDDDD { }
package java.util{ }
santaTecla.utils .down.> java.util
package java.net{ }
santaTecla.utils .down.> java.net
package java.io{ }
santaTecla.utils .down.> java.io

package mastermind.views #DDDDDD { }
mastermind.views .down.> mastermind.types
mastermind.views .down.> santaTecla.utils
@enduml

PlantUML version 1.2019.05(Sat Apr 20 18:45:36 CEST 2019)
(GPL source distribution)
Java Runtime: OpenJDK Runtime Environment
JVM: OpenJDK 64-Bit Server VM
Java Version: 1.8.0_222-b10
Operating System: Windows 10
OS Version: 10.0
Default Encoding: windows-1252
Language: es
Country: ES
--></g></svg>