<?xml version="1.0" encoding="UTF-8" standalone="no"?><svg xmlns="http://www.w3.org/2000/svg" xmlns:xlink="http://www.w3.org/1999/xlink" contentScriptType="application/ecmascript" contentStyleType="text/css" height="765px" preserveAspectRatio="none" style="width:622px;height:765px;" version="1.1" viewBox="0 0 622 765" width="622px" zoomAndPan="magnify"><defs><filter height="300%" id="f14mw0qvjrncyn" width="300%" x="-1" y="-1"><feGaussianBlur result="blurOut" stdDeviation="2.0"/><feColorMatrix in="blurOut" result="blurOut2" type="matrix" values="0 0 0 0 0 0 0 0 0 0 0 0 0 0 0 0 0 0 .4 0"/><feOffset dx="4.0" dy="4.0" in="blurOut2" result="blurOut3"/><feBlend in="SourceGraphic" in2="blurOut3" mode="normal"/></filter></defs><g><polygon fill="#DDDDDD" filter="url(#f14mw0qvjrncyn)" points="122.5,123,210.5,123,217.5,146.6094,224.5,146.6094,224.5,178.2188,122.5,178.2188,122.5,123" style="stroke: #000000; stroke-width: 1.5;"/><line style="stroke: #000000; stroke-width: 1.5;" x1="122.5" x2="217.5" y1="146.6094" y2="146.6094"/><text fill="#000000" font-family="sans-serif" font-size="14" font-weight="bold" lengthAdjust="spacingAndGlyphs" textLength="82" x="126.5" y="139.5332">mastermind</text><polygon fill="#DDDDDD" filter="url(#f14mw0qvjrncyn)" points="178,353,347,353,354,376.6094,361,376.6094,361,408.2188,178,408.2188,178,353" style="stroke: #000000; stroke-width: 1.5;"/><line style="stroke: #000000; stroke-width: 1.5;" x1="178" x2="354" y1="376.6094" y2="376.6094"/><text fill="#000000" font-family="sans-serif" font-size="14" font-weight="bold" lengthAdjust="spacingAndGlyphs" textLength="163" x="182" y="369.5332">mastermind.controllers</text><polygon fill="#FFFFFF" filter="url(#f14mw0qvjrncyn)" points="407,698,468,698,475,721.6094,482,721.6094,482,753.2188,407,753.2188,407,698" style="stroke: #000000; stroke-width: 1.5;"/><line style="stroke: #000000; stroke-width: 1.5;" x1="407" x2="475" y1="721.6094" y2="721.6094"/><text fill="#000000" font-family="sans-serif" font-size="14" font-weight="bold" lengthAdjust="spacingAndGlyphs" textLength="55" x="411" y="714.5332">java.util</text><polygon fill="#DDDDDD" filter="url(#f14mw0qvjrncyn)" points="186,8,355,8,362,31.6094,369,31.6094,369,63.2188,186,63.2188,186,8" style="stroke: #000000; stroke-width: 1.5;"/><line style="stroke: #000000; stroke-width: 1.5;" x1="186" x2="362" y1="31.6094" y2="31.6094"/><text fill="#000000" font-family="sans-serif" font-size="14" font-weight="bold" lengthAdjust="spacingAndGlyphs" textLength="163" x="190" y="24.5332">mastermind.distributed</text><polygon fill="#DDDDDD" filter="url(#f14mw0qvjrncyn)" points="330.5,238,586.5,238,593.5,261.6094,600.5,261.6094,600.5,293.2188,330.5,293.2188,330.5,238" style="stroke: #000000; stroke-width: 1.5;"/><line style="stroke: #000000; stroke-width: 1.5;" x1="330.5" x2="593.5" y1="261.6094" y2="261.6094"/><text fill="#000000" font-family="sans-serif" font-size="14" font-weight="bold" lengthAdjust="spacingAndGlyphs" textLength="250" x="334.5" y="254.5332">mastermind.distributed.dispatchers</text><polygon fill="#DDDDDD" filter="url(#f14mw0qvjrncyn)" points="204,468,347,468,354,491.6094,361,491.6094,361,523.2188,204,523.2188,204,468" style="stroke: #000000; stroke-width: 1.5;"/><line style="stroke: #000000; stroke-width: 1.5;" x1="204" x2="354" y1="491.6094" y2="491.6094"/><text fill="#000000" font-family="sans-serif" font-size="14" font-weight="bold" lengthAdjust="spacingAndGlyphs" textLength="137" x="208" y="484.5332">mastermind.models</text><polygon fill="#DDDDDD" filter="url(#f14mw0qvjrncyn)" points="214.5,583,336.5,583,343.5,606.6094,350.5,606.6094,350.5,638.2188,214.5,638.2188,214.5,583" style="stroke: #000000; stroke-width: 1.5;"/><line style="stroke: #000000; stroke-width: 1.5;" x1="214.5" x2="343.5" y1="606.6094" y2="606.6094"/><text fill="#000000" font-family="sans-serif" font-size="14" font-weight="bold" lengthAdjust="spacingAndGlyphs" textLength="116" x="218.5" y="599.5332">mastermind.utils</text><polygon fill="#FFFFFF" filter="url(#f14mw0qvjrncyn)" points="166.5,698,228.5,698,235.5,721.6094,242.5,721.6094,242.5,753.2188,166.5,753.2188,166.5,698" style="stroke: #000000; stroke-width: 1.5;"/><line style="stroke: #000000; stroke-width: 1.5;" x1="166.5" x2="235.5" y1="721.6094" y2="721.6094"/><text fill="#000000" font-family="sans-serif" font-size="14" font-weight="bold" lengthAdjust="spacingAndGlyphs" textLength="56" x="170.5" y="714.5332">java.net</text><polygon fill="#FFFFFF" filter="url(#f14mw0qvjrncyn)" points="277.5,698,329.5,698,336.5,721.6094,343.5,721.6094,343.5,753.2188,277.5,753.2188,277.5,698" style="stroke: #000000; stroke-width: 1.5;"/><line style="stroke: #000000; stroke-width: 1.5;" x1="277.5" x2="336.5" y1="721.6094" y2="721.6094"/><text fill="#000000" font-family="sans-serif" font-size="14" font-weight="bold" lengthAdjust="spacingAndGlyphs" textLength="46" x="281.5" y="714.5332">java.io</text><polygon fill="#DDDDDD" filter="url(#f14mw0qvjrncyn)" points="6,238,139,238,146,261.6094,153,261.6094,153,293.2188,6,293.2188,6,238" style="stroke: #000000; stroke-width: 1.5;"/><line style="stroke: #000000; stroke-width: 1.5;" x1="6" x2="146" y1="261.6094" y2="261.6094"/><text fill="#000000" font-family="sans-serif" font-size="14" font-weight="bold" lengthAdjust="spacingAndGlyphs" textLength="127" x="10" y="254.5332">mastermind.views</text><!--link mastermind to mastermind.controllers--><path d="M184.7,178.101 C202.5,220.376 237.174,302.727 256.206,347.927 " fill="none" id="mastermind-mastermind.controllers" style="stroke: #A80036; stroke-width: 1.0; stroke-dasharray: 7.0,7.0;"/><polygon fill="#A80036" points="258.223,352.716,258.4178,342.8691,256.2831,348.1077,251.0445,345.9729,258.223,352.716" style="stroke: #A80036; stroke-width: 1.0;"/><!--link mastermind to mastermind.views--><path d="M151.223,178.279 C137.293,195.026 119.311,216.642 104.8372,234.041 " fill="none" id="mastermind-mastermind.views" style="stroke: #A80036; stroke-width: 1.0; stroke-dasharray: 7.0,7.0;"/><polygon fill="#A80036" points="101.6168,237.913,110.447,233.551,104.8139,234.0687,104.2962,228.4356,101.6168,237.913" style="stroke: #A80036; stroke-width: 1.0;"/><!--link mastermind.controllers to java.util--><path d="M315.26,408.158 C337.315,423.155 362.408,443.741 378.5,468 C425.558,538.943 439.071,641.43 442.946,692.7302 " fill="none" id="mastermind.controllers-java.util" style="stroke: #A80036; stroke-width: 1.0; stroke-dasharray: 7.0,7.0;"/><polygon fill="#A80036" points="443.312,697.8312,446.6573,688.5679,442.954,692.844,438.6779,689.1407,443.312,697.8312" style="stroke: #A80036; stroke-width: 1.0;"/><!--link mastermind.controllers to mastermind.models--><path d="M272.581,408.279 C274.459,424.604 276.869,445.556 278.844,462.718 " fill="none" id="mastermind.controllers-mastermind.models" style="stroke: #A80036; stroke-width: 1.0; stroke-dasharray: 7.0,7.0;"/><polygon fill="#A80036" points="279.441,467.913,282.3862,458.5148,278.8696,462.9458,274.4386,459.4291,279.441,467.913" style="stroke: #A80036; stroke-width: 1.0;"/><!--link mastermind.controllers to mastermind.utils--><path d="M233.304,408.051 C215.585,423.353 196.052,444.249 186.5,468 C177.379,490.679 176.561,500.667 186.5,523 C196.633,545.771 216.052,565.069 234.788,579.619 " fill="none" id="mastermind.controllers-mastermind.utils" style="stroke: #A80036; stroke-width: 1.0; stroke-dasharray: 7.0,7.0;"/><polygon fill="#A80036" points="239.022,582.839,234.2781,574.2079,235.0416,579.813,229.4365,580.5765,239.022,582.839" style="stroke: #A80036; stroke-width: 1.0;"/><!--link mastermind.distributed to mastermind.controllers--><path d="M276.879,63.129 C275.426,125.411 271.812,280.386 270.244,347.581 " fill="none" id="mastermind.distributed-mastermind.controllers" style="stroke: #A80036; stroke-width: 1.0; stroke-dasharray: 7.0,7.0;"/><polygon fill="#A80036" points="270.126,352.651,274.3332,343.746,270.2417,347.6523,266.3354,343.5608,270.126,352.651" style="stroke: #A80036; stroke-width: 1.0;"/><!--link mastermind.distributed to mastermind--><path d="M252.853,63.279 C237.441,80.026 217.546,101.642 201.533,119.041 " fill="none" id="mastermind.distributed-mastermind" style="stroke: #A80036; stroke-width: 1.0; stroke-dasharray: 7.0,7.0;"/><polygon fill="#A80036" points="197.97,122.913,207.0081,118.9997,201.3561,119.2341,201.1217,113.5821,197.97,122.913" style="stroke: #A80036; stroke-width: 1.0;"/><!--link mastermind.distributed to mastermind.distributed.dispatchers--><path d="M299.434,63.101 C334.504,105.633 403.021,188.728 440.142,233.746 " fill="none" id="mastermind.distributed-mastermind.distributed.dispatchers" style="stroke: #A80036; stroke-width: 1.0; stroke-dasharray: 7.0,7.0;"/><polygon fill="#A80036" points="443.415,237.716,440.7741,228.2278,440.2335,233.8588,434.6025,233.3182,443.415,237.716" style="stroke: #A80036; stroke-width: 1.0;"/><!--link mastermind.distributed.dispatchers to mastermind.controllers--><path d="M419.051,293.279 C389.271,310.448 350.614,332.735 320.063,350.349 " fill="none" id="mastermind.distributed.dispatchers-mastermind.controllers" style="stroke: #A80036; stroke-width: 1.0; stroke-dasharray: 7.0,7.0;"/><polygon fill="#A80036" points="315.616,352.913,325.4108,351.8822,319.9474,350.4153,321.4144,344.9519,315.616,352.913" style="stroke: #A80036; stroke-width: 1.0;"/><!--link mastermind.distributed.dispatchers to java.util--><path d="M466.433,293.161 C468.259,354.306 471.105,509.277 458.5,638 C456.713,656.2489 453.505,676.4887 450.611,692.7993 " fill="none" id="mastermind.distributed.dispatchers-java.util" style="stroke: #A80036; stroke-width: 1.0; stroke-dasharray: 7.0,7.0;"/><polygon fill="#A80036" points="449.724,697.7286,455.2535,689.5785,450.6088,692.8075,447.3798,688.1628,449.724,697.7286" style="stroke: #A80036; stroke-width: 1.0;"/><!--link mastermind.distributed.dispatchers to mastermind.utils--><path d="M461.073,293.202 C452.008,342.123 427.886,447.983 378.5,523 C364.279,544.602 343.399,564.289 324.74,579.406 " fill="none" id="mastermind.distributed.dispatchers-mastermind.utils" style="stroke: #A80036; stroke-width: 1.0; stroke-dasharray: 7.0,7.0;"/><polygon fill="#A80036" points="320.549,582.756,330.0768,580.2619,324.4549,579.6344,325.0823,574.0125,320.549,582.756" style="stroke: #A80036; stroke-width: 1.0;"/><!--link mastermind.models to java.util--><path d="M312.567,523.129 C329.877,539.381 351.334,561.175 367.5,583 C393.65,618.306 416.702,663.5658 430.611,693.2675 " fill="none" id="mastermind.models-java.util" style="stroke: #A80036; stroke-width: 1.0; stroke-dasharray: 7.0,7.0;"/><polygon fill="#A80036" points="432.764,697.897,432.5965,688.0496,430.6559,693.3631,425.3423,691.4225,432.764,697.897" style="stroke: #A80036; stroke-width: 1.0;"/><!--link mastermind.models to mastermind.utils--><path d="M282.5,523.279 C282.5,539.604 282.5,560.556 282.5,577.718 " fill="none" id="mastermind.models-mastermind.utils" style="stroke: #A80036; stroke-width: 1.0; stroke-dasharray: 7.0,7.0;"/><polygon fill="#A80036" points="282.5,582.913,286.5,573.913,282.5,577.913,278.5,573.913,282.5,582.913" style="stroke: #A80036; stroke-width: 1.0;"/><!--link mastermind.utils to java.util--><path d="M320.892,638.279 C345.48,655.4308 377.392,677.6904 402.632,695.2958 " fill="none" id="mastermind.utils-java.util" style="stroke: #A80036; stroke-width: 1.0; stroke-dasharray: 7.0,7.0;"/><polygon fill="#A80036" points="406.943,698.3026,401.849,689.8734,402.8418,695.4425,397.2728,696.4353,406.943,698.3026" style="stroke: #A80036; stroke-width: 1.0;"/><!--link mastermind.utils to java.net--><path d="M264.015,638.279 C252.553,654.8853 237.785,676.2794 225.828,693.6019 " fill="none" id="mastermind.utils-java.net" style="stroke: #A80036; stroke-width: 1.0; stroke-dasharray: 7.0,7.0;"/><polygon fill="#A80036" points="222.852,697.9128,231.256,692.7774,225.6919,693.7976,224.6717,688.2335,222.852,697.9128" style="stroke: #A80036; stroke-width: 1.0;"/><!--link mastermind.utils to java.io--><path d="M289.136,638.279 C293.181,654.6038 298.372,675.5556 302.625,692.7176 " fill="none" id="mastermind.utils-java.io" style="stroke: #A80036; stroke-width: 1.0; stroke-dasharray: 7.0,7.0;"/><polygon fill="#A80036" points="303.912,697.9128,305.6295,688.2149,302.7092,693.0596,297.8644,690.1393,303.912,697.9128" style="stroke: #A80036; stroke-width: 1.0;"/><!--link mastermind.views to mastermind.controllers--><path d="M124.527,293.279 C153.395,310.448 190.869,332.735 220.485,350.349 " fill="none" id="mastermind.views-mastermind.controllers" style="stroke: #A80036; stroke-width: 1.0; stroke-dasharray: 7.0,7.0;"/><polygon fill="#A80036" points="224.796,352.913,219.1054,344.8745,220.4986,350.3571,215.016,351.7504,224.796,352.913" style="stroke: #A80036; stroke-width: 1.0;"/><!--link mastermind.views to mastermind.utils--><path d="M83.9604,293.168 C93.249,342.49 118.375,449.614 171.5,523 C187.819,545.542 211.591,565.149 232.953,579.97 " fill="none" id="mastermind.views-mastermind.utils" style="stroke: #A80036; stroke-width: 1.0; stroke-dasharray: 7.0,7.0;"/><polygon fill="#A80036" points="237.191,582.87,232.0239,574.4854,233.0651,580.0456,227.5049,581.0868,237.191,582.87" style="stroke: #A80036; stroke-width: 1.0;"/><!--
@startuml

package mastermind #DDDDDD { }
mastermind .down.> mastermind.controllers
mastermind .down.> mastermind.views

package mastermind.controllers #DDDDDD { }
package java.util{ }
mastermind.controllers .down.> java.util
mastermind.controllers .down.> mastermind.models
mastermind.controllers .down.> mastermind.utils

package mastermind.distributed #DDDDDD { }
mastermind.distributed .down.> mastermind.controllers
mastermind.distributed .down.> mastermind
mastermind.distributed .down.> mastermind.distributed.dispatchers

package mastermind.distributed.dispatchers #DDDDDD { }
mastermind.distributed.dispatchers .down.> mastermind.controllers
package java.util{ }
mastermind.distributed.dispatchers .down.> java.util
mastermind.distributed.dispatchers .down.> mastermind.utils

package mastermind.models #DDDDDD { }
package java.util{ }
mastermind.models .down.> java.util
mastermind.models .down.> mastermind.utils

package mastermind.utils #DDDDDD { }
package java.util{ }
mastermind.utils .down.> java.util
package java.net{ }
mastermind.utils .down.> java.net
package java.io{ }
mastermind.utils .down.> java.io

package mastermind.views #DDDDDD { }
mastermind.views .down.> mastermind.controllers
mastermind.views .down.> mastermind.utils

@enduml

PlantUML version 1.2019.05(Sat Apr 20 18:45:36 CEST 2019)
(GPL source distribution)
Java Runtime: OpenJDK Runtime Environment
JVM: OpenJDK 64-Bit Server VM
Java Version: 1.8.0_222-b10
Operating System: Windows 10
OS Version: 10.0
Default Encoding: windows-1252
Language: es
Country: ES
--></g></svg>