<?xml version="1.0" encoding="UTF-8" standalone="no"?><svg xmlns="http://www.w3.org/2000/svg" xmlns:xlink="http://www.w3.org/1999/xlink" contentScriptType="application/ecmascript" contentStyleType="text/css" height="535px" preserveAspectRatio="none" style="width:932px;height:535px;" version="1.1" viewBox="0 0 932 535" width="932px" zoomAndPan="magnify"><defs><filter height="300%" id="f1vlhxpojjbxqb" width="300%" x="-1" y="-1"><feGaussianBlur result="blurOut" stdDeviation="2.0"/><feColorMatrix in="blurOut" result="blurOut2" type="matrix" values="0 0 0 0 0 0 0 0 0 0 0 0 0 0 0 0 0 0 .4 0"/><feOffset dx="4.0" dy="4.0" in="blurOut2" result="blurOut3"/><feBlend in="SourceGraphic" in2="blurOut3" mode="normal"/></filter></defs><g><polygon fill="#DDDDDD" filter="url(#f1vlhxpojjbxqb)" points="243.388,8,331.388,8,338.388,31.6094,345.388,31.6094,345.388,63.2188,243.388,63.2188,243.388,8" style="stroke: #000000; stroke-width: 1.5;"/><line style="stroke: #000000; stroke-width: 1.5;" x1="243.388" x2="338.388" y1="31.6094" y2="31.6094"/><text fill="#000000" font-family="sans-serif" font-size="14" font-weight="bold" lengthAdjust="spacingAndGlyphs" textLength="82" x="247.388" y="24.5332">mastermind</text><polygon fill="#DDDDDD" filter="url(#f1vlhxpojjbxqb)" points="228.888,353,371.888,353,378.888,376.6094,385.888,376.6094,385.888,408.2188,228.888,408.2188,228.888,353" style="stroke: #000000; stroke-width: 1.5;"/><line style="stroke: #000000; stroke-width: 1.5;" x1="228.888" x2="378.888" y1="376.6094" y2="376.6094"/><text fill="#000000" font-family="sans-serif" font-size="14" font-weight="bold" lengthAdjust="spacingAndGlyphs" textLength="137" x="232.888" y="369.5332">mastermind.models</text><polygon fill="#FFFFFF" filter="url(#f1vlhxpojjbxqb)" points="269.888,468,330.888,468,337.888,491.6094,344.888,491.6094,344.888,523.2188,269.888,523.2188,269.888,468" style="stroke: #000000; stroke-width: 1.5;"/><line style="stroke: #000000; stroke-width: 1.5;" x1="269.888" x2="337.888" y1="491.6094" y2="491.6094"/><text fill="#000000" font-family="sans-serif" font-size="14" font-weight="bold" lengthAdjust="spacingAndGlyphs" textLength="55" x="273.888" y="484.5332">java.util</text><polygon fill="#DDDDDD" filter="url(#f1vlhxpojjbxqb)" points="42.3884,238,164.3884,238,171.3884,261.6094,178.3884,261.6094,178.3884,293.2188,42.3884,293.2188,42.3884,238" style="stroke: #000000; stroke-width: 1.5;"/><line style="stroke: #000000; stroke-width: 1.5;" x1="42.3884" x2="171.3884" y1="261.6094" y2="261.6094"/><text fill="#000000" font-family="sans-serif" font-size="14" font-weight="bold" lengthAdjust="spacingAndGlyphs" textLength="116" x="46.3884" y="254.5332">mastermind.utils</text><polygon fill="#FFFFFF" filter="url(#f1vlhxpojjbxqb)" points="77.3884,353,129.3884,353,136.3884,376.6094,143.3884,376.6094,143.3884,408.2188,77.3884,408.2188,77.3884,353" style="stroke: #000000; stroke-width: 1.5;"/><line style="stroke: #000000; stroke-width: 1.5;" x1="77.3884" x2="136.3884" y1="376.6094" y2="376.6094"/><text fill="#000000" font-family="sans-serif" font-size="14" font-weight="bold" lengthAdjust="spacingAndGlyphs" textLength="46" x="81.3884" y="369.5332">java.io</text><polygon fill="#DDDDDD" filter="url(#f1vlhxpojjbxqb)" points="284.888,238,417.888,238,424.888,261.6094,431.888,261.6094,431.888,293.2188,284.888,293.2188,284.888,238" style="stroke: #000000; stroke-width: 1.5;"/><line style="stroke: #000000; stroke-width: 1.5;" x1="284.888" x2="424.888" y1="261.6094" y2="261.6094"/><text fill="#000000" font-family="sans-serif" font-size="14" font-weight="bold" lengthAdjust="spacingAndGlyphs" textLength="127" x="288.888" y="254.5332">mastermind.views</text><polygon fill="#DDDDDD" filter="url(#f1vlhxpojjbxqb)" points="112.888,123,305.888,123,312.888,146.6094,319.888,146.6094,319.888,178.2188,112.888,178.2188,112.888,123" style="stroke: #000000; stroke-width: 1.5;"/><line style="stroke: #000000; stroke-width: 1.5;" x1="112.888" x2="312.888" y1="146.6094" y2="146.6094"/><text fill="#000000" font-family="sans-serif" font-size="14" font-weight="bold" lengthAdjust="spacingAndGlyphs" textLength="187" x="116.888" y="139.5332">mastermind.views.console</text><polygon fill="#DDDDDD" filter="url(#f1vlhxpojjbxqb)" points="456.388,123,654.388,123,661.388,146.6094,668.388,146.6094,668.388,178.2188,456.388,178.2188,456.388,123" style="stroke: #000000; stroke-width: 1.5;"/><line style="stroke: #000000; stroke-width: 1.5;" x1="456.388" x2="661.388" y1="146.6094" y2="146.6094"/><text fill="#000000" font-family="sans-serif" font-size="14" font-weight="bold" lengthAdjust="spacingAndGlyphs" textLength="192" x="460.388" y="139.5332">mastermind.views.graphics</text><polygon fill="#FFFFFF" filter="url(#f1vlhxpojjbxqb)" points="538.888,238,601.888,238,608.888,261.6094,615.888,261.6094,615.888,293.2188,538.888,293.2188,538.888,238" style="stroke: #000000; stroke-width: 1.5;"/><line style="stroke: #000000; stroke-width: 1.5;" x1="538.888" x2="608.888" y1="261.6094" y2="261.6094"/><text fill="#000000" font-family="sans-serif" font-size="14" font-weight="bold" lengthAdjust="spacingAndGlyphs" textLength="57" x="542.888" y="254.5332">java.awt</text><polygon fill="#FFFFFF" filter="url(#f1vlhxpojjbxqb)" points="651.388,238,759.388,238,766.388,261.6094,773.388,261.6094,773.388,293.2188,651.388,293.2188,651.388,238" style="stroke: #000000; stroke-width: 1.5;"/><line style="stroke: #000000; stroke-width: 1.5;" x1="651.388" x2="766.388" y1="261.6094" y2="261.6094"/><text fill="#000000" font-family="sans-serif" font-size="14" font-weight="bold" lengthAdjust="spacingAndGlyphs" textLength="102" x="655.388" y="254.5332">java.awt.event</text><polygon fill="#FFFFFF" filter="url(#f1vlhxpojjbxqb)" points="808.388,238,896.388,238,903.388,261.6094,910.388,261.6094,910.388,293.2188,808.388,293.2188,808.388,238" style="stroke: #000000; stroke-width: 1.5;"/><line style="stroke: #000000; stroke-width: 1.5;" x1="808.388" x2="903.388" y1="261.6094" y2="261.6094"/><text fill="#000000" font-family="sans-serif" font-size="14" font-weight="bold" lengthAdjust="spacingAndGlyphs" textLength="82" x="812.388" y="254.5332">javax.swing</text><!--link mastermind to mastermind.views--><path d="M310.424,63.238 C319.7,79.881 330.805,102.04 337.388,123 C348.878,159.581 354.147,203.505 356.52,232.609 " fill="none" id="mastermind-mastermind.views" style="stroke: #A80036; stroke-width: 1.0; stroke-dasharray: 7.0,7.0;"/><polygon fill="#A80036" points="356.93,237.866,360.2186,228.5824,356.5415,232.8811,352.2428,229.204,356.93,237.866" style="stroke: #A80036; stroke-width: 1.0;"/><!--link mastermind to mastermind.models--><path d="M243.117,49.421 C199.893,62.353 138.383,85.755 95.3884,123 C33.5,176.612 -24.3183,227.182 24.3884,293 C48.3387,325.365 149.047,350.524 223.544,365.168 " fill="none" id="mastermind-mastermind.models" style="stroke: #A80036; stroke-width: 1.0; stroke-dasharray: 7.0,7.0;"/><polygon fill="#A80036" points="228.861,366.204,220.7929,360.5554,223.9534,365.2471,219.2618,368.4076,228.861,366.204" style="stroke: #A80036; stroke-width: 1.0;"/><!--link mastermind to mastermind.views.console--><path d="M275.903,63.279 C264.441,79.885 249.673,101.279 237.716,118.602 " fill="none" id="mastermind-mastermind.views.console" style="stroke: #A80036; stroke-width: 1.0; stroke-dasharray: 7.0,7.0;"/><polygon fill="#A80036" points="234.741,122.913,243.1456,117.7786,237.5814,118.7981,236.5618,113.2339,234.741,122.913" style="stroke: #A80036; stroke-width: 1.0;"/><!--link mastermind to mastermind.views.graphics--><path d="M345.428,58.02 C387.714,75.85 448.173,101.342 494.533,120.889 " fill="none" id="mastermind-mastermind.views.graphics" style="stroke: #A80036; stroke-width: 1.0; stroke-dasharray: 7.0,7.0;"/><polygon fill="#A80036" points="499.258,122.882,492.5195,115.6992,494.6509,120.9392,489.4109,123.0706,499.258,122.882" style="stroke: #A80036; stroke-width: 1.0;"/><!--link mastermind.models to java.util--><path d="M307.388,408.279 C307.388,424.6038 307.388,445.5556 307.388,462.7176 " fill="none" id="mastermind.models-java.util" style="stroke: #A80036; stroke-width: 1.0; stroke-dasharray: 7.0,7.0;"/><polygon fill="#A80036" points="307.388,467.9128,311.388,458.9128,307.388,462.9128,303.388,458.9128,307.388,467.9128" style="stroke: #A80036; stroke-width: 1.0;"/><!--link mastermind.utils to java.io--><path d="M110.388,293.279 C110.388,309.604 110.388,330.556 110.388,347.718 " fill="none" id="mastermind.utils-java.io" style="stroke: #A80036; stroke-width: 1.0; stroke-dasharray: 7.0,7.0;"/><polygon fill="#A80036" points="110.388,352.913,114.388,343.913,110.388,347.913,106.388,343.913,110.388,352.913" style="stroke: #A80036; stroke-width: 1.0;"/><!--link mastermind.views to mastermind.models--><path d="M346.302,293.279 C338.871,309.745 329.315,330.917 321.533,348.161 " fill="none" id="mastermind.views-mastermind.models" style="stroke: #A80036; stroke-width: 1.0; stroke-dasharray: 7.0,7.0;"/><polygon fill="#A80036" points="319.388,352.913,326.735,346.3539,321.444,348.3553,319.4426,343.0643,319.388,352.913" style="stroke: #A80036; stroke-width: 1.0;"/><!--link mastermind.views.console to mastermind.views--><path d="M250.04,178.279 C271.35,195.237 298.935,217.188 320.937,234.697 " fill="none" id="mastermind.views.console-mastermind.views" style="stroke: #A80036; stroke-width: 1.0; stroke-dasharray: 7.0,7.0;"/><polygon fill="#A80036" points="324.978,237.913,320.4252,229.1796,321.0652,234.8002,315.4446,235.4402,324.978,237.913" style="stroke: #A80036; stroke-width: 1.0;"/><!--link mastermind.views.console to mastermind.models--><path d="M225.201,178.102 C234.868,206.74 251.175,253.504 267.388,293 C274.962,311.448 284.271,331.7 292.002,347.967 " fill="none" id="mastermind.views.console-mastermind.models" style="stroke: #A80036; stroke-width: 1.0; stroke-dasharray: 7.0,7.0;"/><polygon fill="#A80036" points="294.347,352.881,294.0821,343.0357,292.1942,348.3682,286.8617,346.4802,294.347,352.881" style="stroke: #A80036; stroke-width: 1.0;"/><!--link mastermind.views.console to mastermind.utils--><path d="M191.268,178.279 C175.559,195.026 155.281,216.642 138.96,234.041 " fill="none" id="mastermind.views.console-mastermind.utils" style="stroke: #A80036; stroke-width: 1.0; stroke-dasharray: 7.0,7.0;"/><polygon fill="#A80036" points="135.329,237.913,144.4031,234.084,138.7491,234.2657,138.5674,228.6118,135.329,237.913" style="stroke: #A80036; stroke-width: 1.0;"/><!--link mastermind.views.graphics to java.awt--><path d="M565.943,178.279 C568.11,194.604 570.891,215.556 573.169,232.718 " fill="none" id="mastermind.views.graphics-java.awt" style="stroke: #A80036; stroke-width: 1.0; stroke-dasharray: 7.0,7.0;"/><polygon fill="#A80036" points="573.859,237.913,576.6389,228.4646,573.2005,232.9565,568.7086,229.5182,573.859,237.913" style="stroke: #A80036; stroke-width: 1.0;"/><!--link mastermind.views.graphics to java.awt.event--><path d="M597.936,178.279 C620.446,195.237 649.585,217.188 672.827,234.697 " fill="none" id="mastermind.views.graphics-java.awt.event" style="stroke: #A80036; stroke-width: 1.0; stroke-dasharray: 7.0,7.0;"/><polygon fill="#A80036" points="677.096,237.913,672.3137,229.3031,673.1022,234.9048,667.5005,235.6933,677.096,237.913" style="stroke: #A80036; stroke-width: 1.0;"/><!--link mastermind.views.graphics to mastermind.views--><path d="M514.302,178.136 C483.314,195.301 443.01,217.626 411.144,235.278 " fill="none" id="mastermind.views.graphics-mastermind.views" style="stroke: #A80036; stroke-width: 1.0; stroke-dasharray: 7.0,7.0;"/><polygon fill="#A80036" points="406.505,237.847,416.3161,236.9854,410.8789,235.4244,412.4399,229.9872,406.505,237.847" style="stroke: #A80036; stroke-width: 1.0;"/><!--link mastermind.views.graphics to mastermind.models--><path d="M545.38,178.062 C525.088,208.361 488.907,258.198 449.388,293 C424.097,315.273 392.341,335.221 365.277,350.332 " fill="none" id="mastermind.views.graphics-mastermind.models" style="stroke: #A80036; stroke-width: 1.0; stroke-dasharray: 7.0,7.0;"/><polygon fill="#A80036" points="360.629,352.906,370.4403,352.0468,365.0035,350.4845,366.5658,345.0476,360.629,352.906" style="stroke: #A80036; stroke-width: 1.0;"/><!--link mastermind.views.graphics to javax.swing--><path d="M633.126,178.002 C678.419,195.025 738.418,217.675 791.388,238 C795.299,239.501 799.335,241.056 803.396,242.626 " fill="none" id="mastermind.views.graphics-javax.swing" style="stroke: #A80036; stroke-width: 1.0; stroke-dasharray: 7.0,7.0;"/><polygon fill="#A80036" points="808.171,244.474,801.2228,237.4938,803.5084,242.6684,798.3338,244.954,808.171,244.474" style="stroke: #A80036; stroke-width: 1.0;"/><!--
@startuml
package mastermind #DDDDDD { }
mastermind ..> mastermind.views
mastermind ..> mastermind.models
mastermind ..> mastermind.views.console
mastermind ..> mastermind.views.graphics

package mastermind.models #DDDDDD { }
package java.util{ }
mastermind.models .down.> java.util

package mastermind.utils #DDDDDD { }
package java.io{ }
mastermind.utils .down.> java.io

package mastermind.views #DDDDDD { }
mastermind.views .down.> mastermind.models

package mastermind.views.console #DDDDDD { }
mastermind.views.console .down.> mastermind.views
mastermind.views.console .down.> mastermind.models
mastermind.views.console .down.> mastermind.utils

package mastermind.views.graphics #DDDDDD { }
package java.awt{ }
mastermind.views.graphics .down.> java.awt
package java.awt.event{ }
mastermind.views.graphics .down.> java.awt.event
mastermind.views.graphics .down.> mastermind.views
mastermind.views.graphics .down.> mastermind.models
package javax.swing{ }
mastermind.views.graphics .down.> javax.swing

@enduml

PlantUML version 1.2019.05(Sat Apr 20 18:45:36 CEST 2019)
(GPL source distribution)
Java Runtime: OpenJDK Runtime Environment
JVM: OpenJDK 64-Bit Server VM
Java Version: 1.8.0_222-b10
Operating System: Windows 10
OS Version: 10.0
Default Encoding: windows-1252
Language: es
Country: ES
--></g></svg>