<?xml version="1.0" encoding="UTF-8" standalone="no"?><svg xmlns="http://www.w3.org/2000/svg" xmlns:xlink="http://www.w3.org/1999/xlink" contentScriptType="application/ecmascript" contentStyleType="text/css" height="158px" preserveAspectRatio="none" style="width:1397px;height:158px;" version="1.1" viewBox="0 0 1397 158" width="1397px" zoomAndPan="magnify"><defs><filter height="300%" id="fwwjrzb1eg9lh" width="300%" x="-1" y="-1"><feGaussianBlur result="blurOut" stdDeviation="2.0"/><feColorMatrix in="blurOut" result="blurOut2" type="matrix" values="0 0 0 0 0 0 0 0 0 0 0 0 0 0 0 0 0 0 .4 0"/><feOffset dx="4.0" dy="4.0" in="blurOut2" result="blurOut3"/><feBlend in="SourceGraphic" in2="blurOut3" mode="normal"/></filter></defs><g><!--entity mastermind--><polygon fill="#FFFFFF" filter="url(#fwwjrzb1eg9lh)" points="6,106,85,106,92,129.6094,109,129.6094,109,146.6094,6,146.6094,6,106" style="stroke: #000000; stroke-width: 1.5;"/><line style="stroke: #000000; stroke-width: 1.5;" x1="6" x2="92" y1="129.6094" y2="129.6094"/><text fill="#000000" font-family="sans-serif" font-size="14" lengthAdjust="spacingAndGlyphs" textLength="73" x="10" y="123.5332">mastermind</text><!--entity mastermind.controllers--><polygon fill="#FFFFFF" filter="url(#fwwjrzb1eg9lh)" points="144,106,293,106,300,129.6094,317,129.6094,317,146.6094,144,146.6094,144,106" style="stroke: #000000; stroke-width: 1.5;"/><line style="stroke: #000000; stroke-width: 1.5;" x1="144" x2="300" y1="129.6094" y2="129.6094"/><text fill="#000000" font-family="sans-serif" font-size="14" lengthAdjust="spacingAndGlyphs" textLength="143" x="148" y="123.5332">mastermind.controllers</text><!--entity mastermind.controllers.implementation--><polygon fill="#FFFFFF" filter="url(#fwwjrzb1eg9lh)" points="352.5,106,600.5,106,607.5,129.6094,624.5,129.6094,624.5,146.6094,352.5,146.6094,352.5,106" style="stroke: #000000; stroke-width: 1.5;"/><line style="stroke: #000000; stroke-width: 1.5;" x1="352.5" x2="607.5" y1="129.6094" y2="129.6094"/><text fill="#000000" font-family="sans-serif" font-size="14" lengthAdjust="spacingAndGlyphs" textLength="242" x="356.5" y="123.5332">mastermind.controllers.implementation</text><!--entity mastermind.models--><polygon fill="#FFFFFF" filter="url(#fwwjrzb1eg9lh)" points="659.5,106,787.5,106,794.5,129.6094,811.5,129.6094,811.5,146.6094,659.5,146.6094,659.5,106" style="stroke: #000000; stroke-width: 1.5;"/><line style="stroke: #000000; stroke-width: 1.5;" x1="659.5" x2="794.5" y1="129.6094" y2="129.6094"/><text fill="#000000" font-family="sans-serif" font-size="14" lengthAdjust="spacingAndGlyphs" textLength="122" x="663.5" y="123.5332">mastermind.models</text><!--entity mastermind.views--><polygon fill="#FFFFFF" filter="url(#fwwjrzb1eg9lh)" points="847,106,964,106,971,129.6094,988,129.6094,988,146.6094,847,146.6094,847,106" style="stroke: #000000; stroke-width: 1.5;"/><line style="stroke: #000000; stroke-width: 1.5;" x1="847" x2="971" y1="129.6094" y2="129.6094"/><text fill="#000000" font-family="sans-serif" font-size="14" lengthAdjust="spacingAndGlyphs" textLength="111" x="851" y="123.5332">mastermind.views</text><!--entity mastermind.utils--><polygon fill="#FFFFFF" filter="url(#fwwjrzb1eg9lh)" points="1023.5,106,1131.5,106,1138.5,129.6094,1155.5,129.6094,1155.5,146.6094,1023.5,146.6094,1023.5,106" style="stroke: #000000; stroke-width: 1.5;"/><line style="stroke: #000000; stroke-width: 1.5;" x1="1023.5" x2="1138.5" y1="129.6094" y2="129.6094"/><text fill="#000000" font-family="sans-serif" font-size="14" lengthAdjust="spacingAndGlyphs" textLength="102" x="1027.5" y="123.5332">mastermind.utils</text><!--entity java.io--><polygon fill="#FFFFFF" filter="url(#fwwjrzb1eg9lh)" points="1191,106,1238,106,1245,129.6094,1262,129.6094,1262,146.6094,1191,146.6094,1191,106" style="stroke: #000000; stroke-width: 1.5;"/><line style="stroke: #000000; stroke-width: 1.5;" x1="1191" x2="1245" y1="129.6094" y2="129.6094"/><text fill="#000000" font-family="sans-serif" font-size="14" lengthAdjust="spacingAndGlyphs" textLength="41" x="1195" y="123.5332">java.io</text><!--entity java.util--><polygon fill="#FFFFFF" filter="url(#fwwjrzb1eg9lh)" points="1297.5,106,1351.5,106,1358.5,129.6094,1375.5,129.6094,1375.5,146.6094,1297.5,146.6094,1297.5,106" style="stroke: #000000; stroke-width: 1.5;"/><line style="stroke: #000000; stroke-width: 1.5;" x1="1297.5" x2="1358.5" y1="129.6094" y2="129.6094"/><text fill="#000000" font-family="sans-serif" font-size="14" lengthAdjust="spacingAndGlyphs" textLength="48" x="1301.5" y="123.5332">java.util</text><!--entity jar--><rect fill="#FEFECE" filter="url(#fwwjrzb1eg9lh)" height="37.6094" style="stroke: #A80036; stroke-width: 1.5;" width="113" x="770" y="8"/><rect fill="#FEFECE" height="5" style="stroke: #A80036; stroke-width: 1.5;" width="10" x="765" y="13"/><rect fill="#FEFECE" height="5" style="stroke: #A80036; stroke-width: 1.5;" width="10" x="765" y="35.6094"/><text fill="#000000" font-family="sans-serif" font-size="14" lengthAdjust="spacingAndGlyphs" textLength="93" x="780" y="32.5332">mastermind.jar</text><!--link jar to mastermind--><path d="M756.523,31.976 C629.872,40.017 354.598,61.3751 126.5,106 C125.007,106.292 123.5,106.6006 121.983,106.9235 " fill="none" id="jar-mastermind" style="stroke: #A80036; stroke-width: 1.0;"/><polygon fill="#A80036" points="109.272,109.882,118.9445,111.7375,114.1418,108.7485,117.1309,103.9458,109.272,109.882" style="stroke: #A80036; stroke-width: 1.0;"/><line style="stroke: #A80036; stroke-width: 1.0;" x1="114.1418" x2="121.9335" y1="108.7485" y2="106.9348"/><polygon fill="#A80036" points="769.766,31.149,763.5284,27.5306,757.7893,31.8967,764.0269,35.5151,769.766,31.149" style="stroke: #A80036; stroke-width: 1.0;"/><!--link jar to mastermind.controllers--><path d="M757.061,38.379 C661.69,52.7785 484.867,79.989 334.5,106 C332.985,106.262 331.459,106.5277 329.922,106.7966 " fill="none" id="jar-mastermind.controllers" style="stroke: #A80036; stroke-width: 1.0;"/><polygon fill="#A80036" points="317.009,109.0887,326.5697,111.4536,321.932,108.2145,325.1711,103.5768,317.009,109.0887" style="stroke: #A80036; stroke-width: 1.0;"/><line style="stroke: #A80036; stroke-width: 1.0;" x1="321.932" x2="329.8085" y1="108.2145" y2="106.8167"/><polygon fill="#A80036" points="769.967,36.434,763.4376,33.3735,758.1012,38.2235,764.6306,41.284,769.967,36.434" style="stroke: #A80036; stroke-width: 1.0;"/><!--link jar to mastermind.controllers.implementation--><path d="M757.417,47.9278 C702.785,63.6871 626.416,85.7164 569.016,102.2742 " fill="none" id="jar-mastermind.controllers.implementation" style="stroke: #A80036; stroke-width: 1.0;"/><polygon fill="#A80036" points="556.336,105.932,566.0922,107.28,561.14,104.5458,563.8742,99.5936,556.336,105.932" style="stroke: #A80036; stroke-width: 1.0;"/><line style="stroke: #A80036; stroke-width: 1.0;" x1="561.14" x2="568.8265" y1="104.5458" y2="102.3289"/><polygon fill="#A80036" points="769.926,44.319,763.0524,42.1386,758.3961,47.6448,765.2697,49.8252,769.926,44.319" style="stroke: #A80036; stroke-width: 1.0;"/><!--link jar to mastermind.models--><path d="M800.18,56.1996 C788.447,68.7708 774.631,83.5737 762.787,96.2638 " fill="none" id="jar-mastermind.models" style="stroke: #A80036; stroke-width: 1.0;"/><polygon fill="#A80036" points="753.789,105.905,762.8543,102.0552,757.2008,102.2499,757.0061,96.5964,753.789,105.905" style="stroke: #A80036; stroke-width: 1.0;"/><line style="stroke: #A80036; stroke-width: 1.0;" x1="757.2008" x2="762.659" y1="102.2499" y2="96.4013"/><polygon fill="#A80036" points="809.384,46.339,802.3659,47.9963,801.1964,55.1119,808.2145,53.4546,809.384,46.339" style="stroke: #A80036; stroke-width: 1.0;"/><!--link jar to mastermind.views--><path d="M852.82,56.1996 C864.553,68.7708 878.369,83.5737 890.213,96.2638 " fill="none" id="jar-mastermind.views" style="stroke: #A80036; stroke-width: 1.0;"/><polygon fill="#A80036" points="899.211,105.905,895.9939,96.5964,895.7992,102.2499,890.1457,102.0552,899.211,105.905" style="stroke: #A80036; stroke-width: 1.0;"/><line style="stroke: #A80036; stroke-width: 1.0;" x1="895.7992" x2="890.341" y1="102.2499" y2="96.4013"/><polygon fill="#A80036" points="843.616,46.339,844.7855,53.4546,851.8036,55.1119,850.6341,47.9963,843.616,46.339" style="stroke: #A80036; stroke-width: 1.0;"/><!--link jar to mastermind.utils--><path d="M887.659,50.6729 C928.719,65.8947 982.744,85.9232 1024.57,101.4281 " fill="none" id="jar-mastermind.utils" style="stroke: #A80036; stroke-width: 1.0;"/><polygon fill="#A80036" points="1036.85,105.9814,1029.7994,99.1047,1032.1612,104.2449,1027.021,106.6068,1036.85,105.9814" style="stroke: #A80036; stroke-width: 1.0;"/><line style="stroke: #A80036; stroke-width: 1.0;" x1="1032.1612" x2="1024.66" y1="104.2449" y2="101.4625"/><polygon fill="#A80036" points="875.352,46.111,879.5876,51.9471,886.6038,50.282,882.3682,44.4459,875.352,46.111" style="stroke: #A80036; stroke-width: 1.0;"/><!--link jar to java.io--><path d="M896.394,40.903 C966.966,54.5856 1078.78,78.0599 1173.5,106 C1175.09,106.4681 1176.69,106.9592 1178.31,107.4682 " fill="none" id="jar-java.io" style="stroke: #A80036; stroke-width: 1.0;"/><polygon fill="#A80036" points="1190.79,111.6381,1183.5189,104.995,1186.0471,110.0554,1180.9866,112.5836,1190.79,111.6381" style="stroke: #A80036; stroke-width: 1.0;"/><line style="stroke: #A80036; stroke-width: 1.0;" x1="1186.0471" x2="1178.46" y1="110.0554" y2="107.5175"/><polygon fill="#A80036" points="883.278,38.381,888.4144,43.4424,895.0619,40.6479,889.9256,35.5864,883.278,38.381" style="stroke: #A80036; stroke-width: 1.0;"/><!--link jar to java.util--><path d="M896.212,36.496 C985.788,48.2102 1145.69,71.8239 1279.5,106 C1281.24,106.4457 1283.01,106.9196 1284.79,107.416 " fill="none" id="jar-java.util" style="stroke: #A80036; stroke-width: 1.0;"/><polygon fill="#A80036" points="1297.5,111.2434,1290.033,104.8212,1292.7118,109.8036,1287.7294,112.4824,1297.5,111.2434" style="stroke: #A80036; stroke-width: 1.0;"/><line style="stroke: #A80036; stroke-width: 1.0;" x1="1292.7118" x2="1285.05" y1="109.8036" y2="107.494"/><polygon fill="#A80036" points="883.252,34.82,888.6895,39.5564,895.1529,36.3589,889.7154,31.6225,883.252,34.82" style="stroke: #A80036; stroke-width: 1.0;"/><!--
@startuml

package "  "  as mastermind {
}
package "  "  as mastermind.controllers {
}
package "  "  as mastermind.controllers.implementation {
}
package "  "  as mastermind.models {
}
package "  "  as mastermind.views {
}
package "  "  as mastermind.utils {
}
package "  "  as java.io {
}
package "  "  as java.util {
}

[mastermind.jar] as jar

jar *- -> mastermind
jar *- -> mastermind.controllers
jar *- -> mastermind.controllers.implementation
jar *- -> mastermind.models
jar *- -> mastermind.views
jar *- -> mastermind.utils
jar *- -> java.io
jar *- -> java.util

@enduml

PlantUML version 1.2019.05(Sat Apr 20 18:45:36 CEST 2019)
(GPL source distribution)
Java Runtime: OpenJDK Runtime Environment
JVM: OpenJDK 64-Bit Server VM
Java Version: 1.8.0_222-b10
Operating System: Windows 10
OS Version: 10.0
Default Encoding: windows-1252
Language: es
Country: ES
--></g></svg>