<?xml version="1.0" encoding="UTF-8" standalone="no"?><svg xmlns="http://www.w3.org/2000/svg" xmlns:xlink="http://www.w3.org/1999/xlink" contentScriptType="application/ecmascript" contentStyleType="text/css" height="158px" preserveAspectRatio="none" style="width:1755px;height:158px;" version="1.1" viewBox="0 0 1755 158" width="1755px" zoomAndPan="magnify"><defs><filter height="300%" id="fh9965sgau4mw" width="300%" x="-1" y="-1"><feGaussianBlur result="blurOut" stdDeviation="2.0"/><feColorMatrix in="blurOut" result="blurOut2" type="matrix" values="0 0 0 0 0 0 0 0 0 0 0 0 0 0 0 0 0 0 .4 0"/><feOffset dx="4.0" dy="4.0" in="blurOut2" result="blurOut3"/><feBlend in="SourceGraphic" in2="blurOut3" mode="normal"/></filter></defs><g><!--entity mastermind--><polygon fill="#FFFFFF" filter="url(#fh9965sgau4mw)" points="6,106,85,106,92,129.6094,109,129.6094,109,146.6094,6,146.6094,6,106" style="stroke: #000000; stroke-width: 1.5;"/><line style="stroke: #000000; stroke-width: 1.5;" x1="6" x2="92" y1="129.6094" y2="129.6094"/><text fill="#000000" font-family="sans-serif" font-size="14" lengthAdjust="spacingAndGlyphs" textLength="73" x="10" y="123.5332">mastermind</text><!--entity mastermind.models--><polygon fill="#FFFFFF" filter="url(#fh9965sgau4mw)" points="144.5,106,272.5,106,279.5,129.6094,296.5,129.6094,296.5,146.6094,144.5,146.6094,144.5,106" style="stroke: #000000; stroke-width: 1.5;"/><line style="stroke: #000000; stroke-width: 1.5;" x1="144.5" x2="279.5" y1="129.6094" y2="129.6094"/><text fill="#000000" font-family="sans-serif" font-size="14" lengthAdjust="spacingAndGlyphs" textLength="122" x="148.5" y="123.5332">mastermind.models</text><!--entity mastermind.views--><polygon fill="#FFFFFF" filter="url(#fh9965sgau4mw)" points="332,106,449,106,456,129.6094,473,129.6094,473,146.6094,332,146.6094,332,106" style="stroke: #000000; stroke-width: 1.5;"/><line style="stroke: #000000; stroke-width: 1.5;" x1="332" x2="456" y1="129.6094" y2="129.6094"/><text fill="#000000" font-family="sans-serif" font-size="14" lengthAdjust="spacingAndGlyphs" textLength="111" x="336" y="123.5332">mastermind.views</text><!--entity mastermind.views.console--><polygon fill="#FFFFFF" filter="url(#fh9965sgau4mw)" points="508.5,106,678.5,106,685.5,129.6094,702.5,129.6094,702.5,146.6094,508.5,146.6094,508.5,106" style="stroke: #000000; stroke-width: 1.5;"/><line style="stroke: #000000; stroke-width: 1.5;" x1="508.5" x2="685.5" y1="129.6094" y2="129.6094"/><text fill="#000000" font-family="sans-serif" font-size="14" lengthAdjust="spacingAndGlyphs" textLength="164" x="512.5" y="123.5332">mastermind.views.console</text><!--entity mastermind.views.graphics--><polygon fill="#FFFFFF" filter="url(#fh9965sgau4mw)" points="738,106,913,106,920,129.6094,937,129.6094,937,146.6094,738,146.6094,738,106" style="stroke: #000000; stroke-width: 1.5;"/><line style="stroke: #000000; stroke-width: 1.5;" x1="738" x2="920" y1="129.6094" y2="129.6094"/><text fill="#000000" font-family="sans-serif" font-size="14" lengthAdjust="spacingAndGlyphs" textLength="169" x="742" y="123.5332">mastermind.views.graphics</text><!--entity mastermind.utils--><polygon fill="#FFFFFF" filter="url(#fh9965sgau4mw)" points="972.5,106,1080.5,106,1087.5,129.6094,1104.5,129.6094,1104.5,146.6094,972.5,146.6094,972.5,106" style="stroke: #000000; stroke-width: 1.5;"/><line style="stroke: #000000; stroke-width: 1.5;" x1="972.5" x2="1087.5" y1="129.6094" y2="129.6094"/><text fill="#000000" font-family="sans-serif" font-size="14" lengthAdjust="spacingAndGlyphs" textLength="102" x="976.5" y="123.5332">mastermind.utils</text><!--entity java.io--><polygon fill="#FFFFFF" filter="url(#fh9965sgau4mw)" points="1140,106,1187,106,1194,129.6094,1211,129.6094,1211,146.6094,1140,146.6094,1140,106" style="stroke: #000000; stroke-width: 1.5;"/><line style="stroke: #000000; stroke-width: 1.5;" x1="1140" x2="1194" y1="129.6094" y2="129.6094"/><text fill="#000000" font-family="sans-serif" font-size="14" lengthAdjust="spacingAndGlyphs" textLength="41" x="1144" y="123.5332">java.io</text><!--entity java.util--><polygon fill="#FFFFFF" filter="url(#fh9965sgau4mw)" points="1246.5,106,1300.5,106,1307.5,129.6094,1324.5,129.6094,1324.5,146.6094,1246.5,146.6094,1246.5,106" style="stroke: #000000; stroke-width: 1.5;"/><line style="stroke: #000000; stroke-width: 1.5;" x1="1246.5" x2="1307.5" y1="129.6094" y2="129.6094"/><text fill="#000000" font-family="sans-serif" font-size="14" lengthAdjust="spacingAndGlyphs" textLength="48" x="1250.5" y="123.5332">java.util</text><!--entity java.awt--><polygon fill="#FFFFFF" filter="url(#fh9965sgau4mw)" points="1360,106,1417,106,1424,129.6094,1441,129.6094,1441,146.6094,1360,146.6094,1360,106" style="stroke: #000000; stroke-width: 1.5;"/><line style="stroke: #000000; stroke-width: 1.5;" x1="1360" x2="1424" y1="129.6094" y2="129.6094"/><text fill="#000000" font-family="sans-serif" font-size="14" lengthAdjust="spacingAndGlyphs" textLength="51" x="1364" y="123.5332">java.awt</text><!--entity java.awt.event--><polygon fill="#FFFFFF" filter="url(#fh9965sgau4mw)" points="1476.5,106,1572.5,106,1579.5,129.6094,1596.5,129.6094,1596.5,146.6094,1476.5,146.6094,1476.5,106" style="stroke: #000000; stroke-width: 1.5;"/><line style="stroke: #000000; stroke-width: 1.5;" x1="1476.5" x2="1579.5" y1="129.6094" y2="129.6094"/><text fill="#000000" font-family="sans-serif" font-size="14" lengthAdjust="spacingAndGlyphs" textLength="90" x="1480.5" y="123.5332">java.awt.event</text><!--entity javax.swing--><polygon fill="#FFFFFF" filter="url(#fh9965sgau4mw)" points="1632,106,1709,106,1716,129.6094,1733,129.6094,1733,146.6094,1632,146.6094,1632,106" style="stroke: #000000; stroke-width: 1.5;"/><line style="stroke: #000000; stroke-width: 1.5;" x1="1632" x2="1716" y1="129.6094" y2="129.6094"/><text fill="#000000" font-family="sans-serif" font-size="14" lengthAdjust="spacingAndGlyphs" textLength="71" x="1636" y="123.5332">javax.swing</text><!--entity jar--><rect fill="#FEFECE" filter="url(#fh9965sgau4mw)" height="37.6094" style="stroke: #A80036; stroke-width: 1.5;" width="113" x="982" y="8"/><rect fill="#FEFECE" height="5" style="stroke: #A80036; stroke-width: 1.5;" width="10" x="977" y="13"/><rect fill="#FEFECE" height="5" style="stroke: #A80036; stroke-width: 1.5;" width="10" x="977" y="35.6094"/><text fill="#000000" font-family="sans-serif" font-size="14" lengthAdjust="spacingAndGlyphs" textLength="93" x="992" y="32.5332">mastermind.jar</text><!--link jar to mastermind--><path d="M968.689,29.457 C815.181,33.644 437.215,49.3398 126.5,106 C125.004,106.2729 123.493,106.5641 121.973,106.8714 " fill="none" id="jar-mastermind" style="stroke: #A80036; stroke-width: 1.0;"/><polygon fill="#A80036" points="109.245,109.7363,118.9038,111.6616,114.1229,108.638,117.1465,103.857,109.245,109.7363" style="stroke: #A80036; stroke-width: 1.0;"/><line style="stroke: #A80036; stroke-width: 1.0;" x1="114.1229" x2="121.9275" y1="108.638" y2="106.8815"/><polygon fill="#A80036" points="981.967,29.109,975.864,25.268,969.9711,29.4242,976.0741,33.2652,981.967,29.109" style="stroke: #A80036; stroke-width: 1.0;"/><!--link jar to mastermind.models--><path d="M968.784,33.242 C839.346,43.477 553.326,68.4543 314.5,106 C312.856,106.2584 311.197,106.5264 309.528,106.8027 " fill="none" id="jar-mastermind.models" style="stroke: #A80036; stroke-width: 1.0;"/><polygon fill="#A80036" points="296.57,109.0661,306.1241,111.4576,301.4954,108.2057,304.7474,103.577,296.57,109.0661" style="stroke: #A80036; stroke-width: 1.0;"/><line style="stroke: #A80036; stroke-width: 1.0;" x1="301.4954" x2="309.376" y1="108.2057" y2="106.8292"/><polygon fill="#A80036" points="981.928,32.211,975.6335,28.6927,969.9648,33.1498,976.2593,36.6681,981.928,32.211" style="stroke: #A80036; stroke-width: 1.0;"/><!--link jar to mastermind.views--><path d="M968.715,36.192 C864.321,48.8405 661.469,74.9371 490.5,106 C488.987,106.2749 487.46,106.5575 485.923,106.8467 " fill="none" id="jar-mastermind.views" style="stroke: #A80036; stroke-width: 1.0;"/><polygon fill="#A80036" points="473.01,109.3766,482.6112,111.5712,477.9167,108.4151,481.0728,103.7205,473.01,109.3766" style="stroke: #A80036; stroke-width: 1.0;"/><line style="stroke: #A80036; stroke-width: 1.0;" x1="477.9167" x2="485.767" y1="108.4151" y2="106.8772"/><polygon fill="#A80036" points="981.865,34.607,975.4294,31.3538,969.9512,36.0431,976.3868,39.2963,981.865,34.607" style="stroke: #A80036; stroke-width: 1.0;"/><!--link jar to mastermind.views.console--><path d="M968.85,43.683 C897.621,59.7221 786.278,84.7936 705.611,102.9576 " fill="none" id="jar-mastermind.views.console" style="stroke: #A80036; stroke-width: 1.0;"/><polygon fill="#A80036" points="692.437,105.9242,702.0961,107.8484,697.3148,104.8253,700.3379,100.044,692.437,105.9242" style="stroke: #A80036; stroke-width: 1.0;"/><line style="stroke: #A80036; stroke-width: 1.0;" x1="697.3148" x2="705.119" y1="104.8253" y2="103.0684"/><polygon fill="#A80036" points="981.893,40.746,975.1609,38.1617,970.1861,43.3819,976.9182,45.9663,981.893,40.746" style="stroke: #A80036; stroke-width: 1.0;"/><!--link jar to mastermind.views.graphics--><path d="M989.078,51.9734 C958.842,66.6403 920.204,85.3826 889.505,100.2735 " fill="none" id="jar-mastermind.views.graphics" style="stroke: #A80036; stroke-width: 1.0;"/><polygon fill="#A80036" points="877.738,105.9814,887.5813,105.652,882.2366,103.799,884.0896,98.4543,877.738,105.9814" style="stroke: #A80036; stroke-width: 1.0;"/><line style="stroke: #A80036; stroke-width: 1.0;" x1="882.2366" x2="889.435" y1="103.799" y2="100.3076"/><polygon fill="#A80036" points="1001.165,46.111,994.0208,45.131,990.3684,51.3487,997.5126,52.3287,1001.165,46.111" style="stroke: #A80036; stroke-width: 1.0;"/><!--link jar to mastermind.utils--><path d="M1038.5,59.4311 C1038.5,70.0549 1038.5,81.9399 1038.5,92.6692 " fill="none" id="jar-mastermind.utils" style="stroke: #A80036; stroke-width: 1.0;"/><polygon fill="#A80036" points="1038.5,105.905,1042.5,96.905,1038.5,100.905,1034.5,96.905,1038.5,105.905" style="stroke: #A80036; stroke-width: 1.0;"/><line style="stroke: #A80036; stroke-width: 1.0;" x1="1038.5" x2="1038.5" y1="100.905" y2="92.905"/><polygon fill="#A80036" points="1038.5,46.339,1034.5,52.339,1038.5,58.339,1042.5,52.339,1038.5,46.339" style="stroke: #A80036; stroke-width: 1.0;"/><!--link jar to java.io--><path d="M1074.63,53.7151 C1093.88,67.4159 1117.56,84.2687 1137.14,98.2014 " fill="none" id="jar-java.io" style="stroke: #A80036; stroke-width: 1.0;"/><polygon fill="#A80036" points="1147.84,105.8116,1142.8218,97.3371,1143.7646,102.9148,1138.1869,103.8577,1147.84,105.8116" style="stroke: #A80036; stroke-width: 1.0;"/><line style="stroke: #A80036; stroke-width: 1.0;" x1="1143.7646" x2="1137.245" y1="102.9148" y2="98.2738"/><polygon fill="#A80036" points="1063.95,46.111,1066.517,52.8497,1073.7246,53.0721,1071.1577,46.3333,1063.95,46.111" style="stroke: #A80036; stroke-width: 1.0;"/><!--link jar to java.util--><path d="M1096.61,50.9397 C1138.36,67.4174 1194.11,89.4234 1234.2,105.2512 " fill="none" id="jar-java.util" style="stroke: #A80036; stroke-width: 1.0;"/><polygon fill="#A80036" points="1246.37,110.055,1239.4664,103.0307,1241.719,108.2197,1236.53,110.4723,1246.37,110.055" style="stroke: #A80036; stroke-width: 1.0;"/><line style="stroke: #A80036; stroke-width: 1.0;" x1="1241.719" x2="1234.28" y1="108.2197" y2="105.2818"/><polygon fill="#A80036" points="1084.38,46.111,1088.4929,52.0342,1095.5423,50.5158,1091.4294,44.5926,1084.38,46.111" style="stroke: #A80036; stroke-width: 1.0;"/><!--link jar to java.awt--><path d="M1107.86,44.266 C1169.74,59.1388 1262.63,82.3606 1342.5,106 C1344.08,106.4664 1345.67,106.9476 1347.28,107.4401 " fill="none" id="jar-java.awt" style="stroke: #A80036; stroke-width: 1.0;"/><polygon fill="#A80036" points="1359.74,111.3801,1352.3623,104.8555,1354.9721,109.8744,1349.9532,112.4842,1359.74,111.3801" style="stroke: #A80036; stroke-width: 1.0;"/><line style="stroke: #A80036; stroke-width: 1.0;" x1="1354.9721" x2="1347.35" y1="109.8744" y2="107.4605"/><polygon fill="#A80036" points="1095.15,41.222,1100.0531,46.5096,1106.8199,44.0174,1101.9167,38.7297,1095.15,41.222" style="stroke: #A80036; stroke-width: 1.0;"/><!--link jar to java.awt.event--><path d="M1107.97,39.558 C1191.48,53.7592 1335.72,79.2768 1458.5,106 C1460.11,106.3506 1461.74,106.7105 1463.38,107.0778 " fill="none" id="jar-java.awt.event" style="stroke: #A80036; stroke-width: 1.0;"/><polygon fill="#A80036" points="1476.12,110.016,1468.246,104.1,1471.2473,108.895,1466.4523,111.8963,1476.12,110.016" style="stroke: #A80036; stroke-width: 1.0;"/><line style="stroke: #A80036; stroke-width: 1.0;" x1="1471.2473" x2="1463.45" y1="108.895" y2="107.0941"/><polygon fill="#A80036" points="1095.11,37.377,1100.3576,42.323,1106.9414,39.3814,1101.6938,34.4354,1095.11,37.377" style="stroke: #A80036; stroke-width: 1.0;"/><!--link jar to javax.swing--><path d="M1108.44,34.176 C1217.39,44.536 1433.9,68.084 1614.5,106 C1616,106.315 1617.52,106.6457 1619.04,106.9897 " fill="none" id="jar-javax.swing" style="stroke: #A80036; stroke-width: 1.0;"/><polygon fill="#A80036" points="1631.83,110.1019,1624.0299,104.0887,1626.9716,108.9205,1622.1397,111.8622,1631.83,110.1019" style="stroke: #A80036; stroke-width: 1.0;"/><line style="stroke: #A80036; stroke-width: 1.0;" x1="1626.9716" x2="1619.195" y1="108.9205" y2="107.0277"/><polygon fill="#A80036" points="1095.38,32.949,1100.9752,37.4981,1107.3263,34.083,1101.7311,29.5339,1095.38,32.949" style="stroke: #A80036; stroke-width: 1.0;"/><!--
@startuml

package "  "  as mastermind {
}
package "  "  as mastermind.models {
}
package "  "  as mastermind.views {
}
package "  "  as mastermind.views.console {
}
package "  "  as mastermind.views.graphics {
}
package "  "  as mastermind.utils {
}
package "  "  as java.io {
}
package "  "  as java.util {
}
package "  "  as java.awt {
}
package "  "  as java.awt.event {
}
package "  "  as javax.swing {
}

[mastermind.jar] as jar

jar *- -> mastermind
jar *- -> mastermind.models
jar *- -> mastermind.views
jar *- -> mastermind.views.console
jar *- -> mastermind.views.graphics
jar *- -> mastermind.utils
jar *- -> java.io
jar *- -> java.util
jar *- -> java.awt
jar *- -> java.awt.event
jar *- -> javax.swing
@enduml

PlantUML version 1.2019.05(Sat Apr 20 18:45:36 CEST 2019)
(GPL source distribution)
Java Runtime: OpenJDK Runtime Environment
JVM: OpenJDK 64-Bit Server VM
Java Version: 1.8.0_222-b10
Operating System: Windows 10
OS Version: 10.0
Default Encoding: windows-1252
Language: es
Country: ES
--></g></svg>