<?xml version="1.0" encoding="UTF-8" standalone="no"?><svg xmlns="http://www.w3.org/2000/svg" xmlns:xlink="http://www.w3.org/1999/xlink" contentScriptType="application/ecmascript" contentStyleType="text/css" height="158px" preserveAspectRatio="none" style="width:1584px;height:158px;" version="1.1" viewBox="0 0 1584 158" width="1584px" zoomAndPan="magnify"><defs><filter height="300%" id="f231x8qd1hzyd" width="300%" x="-1" y="-1"><feGaussianBlur result="blurOut" stdDeviation="2.0"/><feColorMatrix in="blurOut" result="blurOut2" type="matrix" values="0 0 0 0 0 0 0 0 0 0 0 0 0 0 0 0 0 0 .4 0"/><feOffset dx="4.0" dy="4.0" in="blurOut2" result="blurOut3"/><feBlend in="SourceGraphic" in2="blurOut3" mode="normal"/></filter></defs><g><!--entity mastermind--><polygon fill="#FFFFFF" filter="url(#f231x8qd1hzyd)" points="6,106,85,106,92,129.6094,109,129.6094,109,146.6094,6,146.6094,6,106" style="stroke: #000000; stroke-width: 1.5;"/><line style="stroke: #000000; stroke-width: 1.5;" x1="6" x2="92" y1="129.6094" y2="129.6094"/><text fill="#000000" font-family="sans-serif" font-size="14" lengthAdjust="spacingAndGlyphs" textLength="73" x="10" y="123.5332">mastermind</text><!--entity mastermind.distributed--><polygon fill="#FFFFFF" filter="url(#f231x8qd1hzyd)" points="144,106,293,106,300,129.6094,317,129.6094,317,146.6094,144,146.6094,144,106" style="stroke: #000000; stroke-width: 1.5;"/><line style="stroke: #000000; stroke-width: 1.5;" x1="144" x2="300" y1="129.6094" y2="129.6094"/><text fill="#000000" font-family="sans-serif" font-size="14" lengthAdjust="spacingAndGlyphs" textLength="143" x="148" y="123.5332">mastermind.distributed</text><!--entity mastermind.distributed.dispatchers--><polygon fill="#FFFFFF" filter="url(#f231x8qd1hzyd)" points="352.5,106,578.5,106,585.5,129.6094,602.5,129.6094,602.5,146.6094,352.5,146.6094,352.5,106" style="stroke: #000000; stroke-width: 1.5;"/><line style="stroke: #000000; stroke-width: 1.5;" x1="352.5" x2="585.5" y1="129.6094" y2="129.6094"/><text fill="#000000" font-family="sans-serif" font-size="14" lengthAdjust="spacingAndGlyphs" textLength="220" x="356.5" y="123.5332">mastermind.distributed.dispatchers</text><!--entity mastermind.controllers--><polygon fill="#FFFFFF" filter="url(#f231x8qd1hzyd)" points="638,106,787,106,794,129.6094,811,129.6094,811,146.6094,638,146.6094,638,106" style="stroke: #000000; stroke-width: 1.5;"/><line style="stroke: #000000; stroke-width: 1.5;" x1="638" x2="794" y1="129.6094" y2="129.6094"/><text fill="#000000" font-family="sans-serif" font-size="14" lengthAdjust="spacingAndGlyphs" textLength="143" x="642" y="123.5332">mastermind.controllers</text><!--entity mastermind.models--><polygon fill="#FFFFFF" filter="url(#f231x8qd1hzyd)" points="846.5,106,974.5,106,981.5,129.6094,998.5,129.6094,998.5,146.6094,846.5,146.6094,846.5,106" style="stroke: #000000; stroke-width: 1.5;"/><line style="stroke: #000000; stroke-width: 1.5;" x1="846.5" x2="981.5" y1="129.6094" y2="129.6094"/><text fill="#000000" font-family="sans-serif" font-size="14" lengthAdjust="spacingAndGlyphs" textLength="122" x="850.5" y="123.5332">mastermind.models</text><!--entity mastermind.views--><polygon fill="#FFFFFF" filter="url(#f231x8qd1hzyd)" points="1034,106,1151,106,1158,129.6094,1175,129.6094,1175,146.6094,1034,146.6094,1034,106" style="stroke: #000000; stroke-width: 1.5;"/><line style="stroke: #000000; stroke-width: 1.5;" x1="1034" x2="1158" y1="129.6094" y2="129.6094"/><text fill="#000000" font-family="sans-serif" font-size="14" lengthAdjust="spacingAndGlyphs" textLength="111" x="1038" y="123.5332">mastermind.views</text><!--entity mastermind.utils--><polygon fill="#FFFFFF" filter="url(#f231x8qd1hzyd)" points="1210.5,106,1318.5,106,1325.5,129.6094,1342.5,129.6094,1342.5,146.6094,1210.5,146.6094,1210.5,106" style="stroke: #000000; stroke-width: 1.5;"/><line style="stroke: #000000; stroke-width: 1.5;" x1="1210.5" x2="1325.5" y1="129.6094" y2="129.6094"/><text fill="#000000" font-family="sans-serif" font-size="14" lengthAdjust="spacingAndGlyphs" textLength="102" x="1214.5" y="123.5332">mastermind.utils</text><!--entity java.io--><polygon fill="#FFFFFF" filter="url(#f231x8qd1hzyd)" points="1378,106,1425,106,1432,129.6094,1449,129.6094,1449,146.6094,1378,146.6094,1378,106" style="stroke: #000000; stroke-width: 1.5;"/><line style="stroke: #000000; stroke-width: 1.5;" x1="1378" x2="1432" y1="129.6094" y2="129.6094"/><text fill="#000000" font-family="sans-serif" font-size="14" lengthAdjust="spacingAndGlyphs" textLength="41" x="1382" y="123.5332">java.io</text><!--entity java.util--><polygon fill="#FFFFFF" filter="url(#f231x8qd1hzyd)" points="1484.5,106,1538.5,106,1545.5,129.6094,1562.5,129.6094,1562.5,146.6094,1484.5,146.6094,1484.5,106" style="stroke: #000000; stroke-width: 1.5;"/><line style="stroke: #000000; stroke-width: 1.5;" x1="1484.5" x2="1545.5" y1="129.6094" y2="129.6094"/><text fill="#000000" font-family="sans-serif" font-size="14" lengthAdjust="spacingAndGlyphs" textLength="48" x="1488.5" y="123.5332">java.util</text><!--entity jarServer--><rect fill="#FEFECE" filter="url(#f231x8qd1hzyd)" height="37.6094" style="stroke: #A80036; stroke-width: 1.5;" width="155" x="845" y="8"/><rect fill="#FEFECE" height="5" style="stroke: #A80036; stroke-width: 1.5;" width="10" x="840" y="13"/><rect fill="#FEFECE" height="5" style="stroke: #A80036; stroke-width: 1.5;" width="10" x="840" y="35.6094"/><text fill="#000000" font-family="sans-serif" font-size="14" lengthAdjust="spacingAndGlyphs" textLength="135" x="855" y="32.5332">mastermindServer.jar</text><!--link jarServer to mastermind--><path d="M831.71,31.644 C683.143,38.778 379.313,58.2823 126.5,106 C125.005,106.2821 123.496,106.5817 121.977,106.8965 " fill="none" id="jarServer-mastermind" style="stroke: #A80036; stroke-width: 1.0;"/><polygon fill="#A80036" points="109.258,109.8066,118.9233,111.6992,114.1321,108.6918,117.1395,103.9006,109.258,109.8066" style="stroke: #A80036; stroke-width: 1.0;"/><line style="stroke: #A80036; stroke-width: 1.0;" x1="114.1321" x2="121.9305" y1="108.6918" y2="106.9071"/><polygon fill="#A80036" points="844.732,31.031,838.5505,27.3176,832.7453,31.5954,838.9268,35.3088,844.732,31.031" style="stroke: #A80036; stroke-width: 1.0;"/><!--link jarServer to mastermind.distributed--><path d="M831.82,38.503 C716.138,52.252 510.006,77.9262 334.5,106 C333.094,106.2249 331.678,106.454 330.254,106.6869 " fill="none" id="jarServer-mastermind.distributed" style="stroke: #A80036; stroke-width: 1.0;"/><polygon fill="#A80036" points="317.263,108.8731,326.8022,111.3232,322.1936,108.0429,325.4739,103.4342,317.263,108.8731" style="stroke: #A80036; stroke-width: 1.0;"/><line style="stroke: #A80036; stroke-width: 1.0;" x1="322.1936" x2="330.0825" y1="108.0429" y2="106.7157"/><polygon fill="#A80036" points="844.786,36.967,838.3573,33.7002,832.8692,38.378,839.2979,41.6447,844.786,36.967" style="stroke: #A80036; stroke-width: 1.0;"/><!--link jarServer to mastermind.distributed.dispatchers--><path d="M831.9,47.8505 C758.727,63.883 655.768,86.4414 579.668,103.1148 " fill="none" id="jarServer-mastermind.distributed.dispatchers" style="stroke: #A80036; stroke-width: 1.0;"/><polygon fill="#A80036" points="566.741,105.9471,576.3886,107.9278,571.6251,104.8768,574.6761,100.1133,566.741,105.9471" style="stroke: #A80036; stroke-width: 1.0;"/><line style="stroke: #A80036; stroke-width: 1.0;" x1="571.6251" x2="579.44" y1="104.8768" y2="103.1647"/><polygon fill="#A80036" points="844.987,44.983,838.2698,42.3601,833.2652,47.5518,839.9823,50.1747,844.987,44.983" style="stroke: #A80036; stroke-width: 1.0;"/><!--link jarServer to mastermind.controllers--><path d="M873.815,51.9734 C844.162,66.5754 806.306,85.2168 776.131,100.0756 " fill="none" id="jarServer-mastermind.controllers" style="stroke: #A80036; stroke-width: 1.0;"/><polygon fill="#A80036" points="764.138,105.9814,773.9792,105.5931,768.6235,103.7722,770.4444,98.4164,764.138,105.9814" style="stroke: #A80036; stroke-width: 1.0;"/><line style="stroke: #A80036; stroke-width: 1.0;" x1="768.6235" x2="775.8005" y1="103.7722" y2="100.2384"/><polygon fill="#A80036" points="885.722,46.111,878.5722,45.173,874.9564,51.4121,882.1062,52.3501,885.722,46.111" style="stroke: #A80036; stroke-width: 1.0;"/><!--link jarServer to mastermind.models--><path d="M922.5,59.4311 C922.5,70.0549 922.5,81.9399 922.5,92.6692 " fill="none" id="jarServer-mastermind.models" style="stroke: #A80036; stroke-width: 1.0;"/><polygon fill="#A80036" points="922.5,105.905,926.5,96.905,922.5,100.905,918.5,96.905,922.5,105.905" style="stroke: #A80036; stroke-width: 1.0;"/><line style="stroke: #A80036; stroke-width: 1.0;" x1="922.5" x2="922.5" y1="100.905" y2="92.905"/><polygon fill="#A80036" points="922.5,46.339,918.5,52.339,922.5,58.339,926.5,52.339,922.5,46.339" style="stroke: #A80036; stroke-width: 1.0;"/><!--link jarServer to mastermind.views--><path d="M968.069,52.4118 C994.993,66.8355 1029.05,85.0825 1056.41,99.7361 " fill="none" id="jarServer-mastermind.views" style="stroke: #A80036; stroke-width: 1.0;"/><polygon fill="#A80036" points="1068.07,105.9814,1062.0201,98.2097,1063.6609,103.6234,1058.2473,105.2642,1068.07,105.9814" style="stroke: #A80036; stroke-width: 1.0;"/><line style="stroke: #A80036; stroke-width: 1.0;" x1="1063.6609" x2="1056.605" y1="103.6234" y2="99.8425"/><polygon fill="#A80036" points="956.306,46.111,959.7061,52.4702,966.8839,51.7774,963.4837,45.4182,956.306,46.111" style="stroke: #A80036; stroke-width: 1.0;"/><!--link jarServer to mastermind.utils--><path d="M1000.893,49.5912 C1059.5,65.7337 1139.3,87.711 1197.95,103.8643 " fill="none" id="jarServer-mastermind.utils" style="stroke: #A80036; stroke-width: 1.0;"/><polygon fill="#A80036" points="1210.5,107.3213,1202.881,101.0802,1205.6786,105.9969,1200.7619,108.7945,1210.5,107.3213" style="stroke: #A80036; stroke-width: 1.0;"/><line style="stroke: #A80036; stroke-width: 1.0;" x1="1205.6786" x2="1197.965" y1="105.9969" y2="103.8693"/><polygon fill="#A80036" points="988.255,46.111,992.9771,51.5609,999.824,49.2982,995.1019,43.8483,988.255,46.111" style="stroke: #A80036; stroke-width: 1.0;"/><!--link jarServer to java.io--><path d="M1013.23,39.395 C1102.53,51.7218 1242.31,74.0015 1360.5,106 C1362.1,106.4324 1363.71,106.8925 1365.34,107.3747 " fill="none" id="jarServer-java.io" style="stroke: #A80036; stroke-width: 1.0;"/><polygon fill="#A80036" points="1377.85,111.4148,1370.5102,104.8476,1373.0909,109.8815,1368.057,112.4622,1377.85,111.4148" style="stroke: #A80036; stroke-width: 1.0;"/><line style="stroke: #A80036; stroke-width: 1.0;" x1="1373.0909" x2="1365.485" y1="109.8815" y2="107.4208"/><polygon fill="#A80036" points="1000.156,37.612,1005.5602,42.3863,1012.0459,39.2341,1006.6416,34.4597,1000.156,37.612" style="stroke: #A80036; stroke-width: 1.0;"/><!--link jarServer to java.util--><path d="M1013.59,35.803 C1122.44,46.33 1309.55,68.2529 1466.5,106 C1468.22,106.4138 1469.96,106.8582 1471.72,107.3272 " fill="none" id="jarServer-java.util" style="stroke: #A80036; stroke-width: 1.0;"/><polygon fill="#A80036" points="1484.23,110.9967,1476.7188,104.6263,1479.4319,109.59,1474.4682,112.3032,1484.23,110.9967" style="stroke: #A80036; stroke-width: 1.0;"/><line style="stroke: #A80036; stroke-width: 1.0;" x1="1479.4319" x2="1471.75" y1="109.59" y2="107.3376"/><polygon fill="#A80036" points="1000.387,34.545,1005.9821,39.0941,1012.3333,35.6791,1006.7382,31.13,1000.387,34.545" style="stroke: #A80036; stroke-width: 1.0;"/><!--
@startuml

package "  "  as mastermind {
}
package "  "  as mastermind.distributed {
}
package "  "  as mastermind.distributed.dispatchers {
}
package "  "  as mastermind.controllers {
}
package "  "  as mastermind.models {
}
package "  "  as mastermind.views {
}
package "  "  as mastermind.utils {
}
package "  "  as java.io {
}
package "  "  as java.util {
}

[mastermindServer.jar] as jarServer

jarServer *- -> mastermind
jarServer *- -> mastermind.distributed
jarServer *- -> mastermind.distributed.dispatchers
jarServer *- -> mastermind.controllers
jarServer *- -> mastermind.models
jarServer *- -> mastermind.views
jarServer *- -> mastermind.utils
jarServer *- -> java.io
jarServer *- -> java.util
@enduml

PlantUML version 1.2019.05(Sat Apr 20 18:45:36 CEST 2019)
(GPL source distribution)
Java Runtime: OpenJDK Runtime Environment
JVM: OpenJDK 64-Bit Server VM
Java Version: 1.8.0_222-b10
Operating System: Windows 10
OS Version: 10.0
Default Encoding: windows-1252
Language: es
Country: ES
--></g></svg>