<?xml version="1.0" encoding="UTF-8" standalone="no"?><svg xmlns="http://www.w3.org/2000/svg" xmlns:xlink="http://www.w3.org/1999/xlink" contentScriptType="application/ecmascript" contentStyleType="text/css" height="158px" preserveAspectRatio="none" style="width:1584px;height:158px;" version="1.1" viewBox="0 0 1584 158" width="1584px" zoomAndPan="magnify"><defs><filter height="300%" id="f1008op9h5pk6t" width="300%" x="-1" y="-1"><feGaussianBlur result="blurOut" stdDeviation="2.0"/><feColorMatrix in="blurOut" result="blurOut2" type="matrix" values="0 0 0 0 0 0 0 0 0 0 0 0 0 0 0 0 0 0 .4 0"/><feOffset dx="4.0" dy="4.0" in="blurOut2" result="blurOut3"/><feBlend in="SourceGraphic" in2="blurOut3" mode="normal"/></filter></defs><g><!--entity mastermind--><polygon fill="#FFFFFF" filter="url(#f1008op9h5pk6t)" points="719.5,106,798.5,106,805.5,129.6094,822.5,129.6094,822.5,146.6094,719.5,146.6094,719.5,106" style="stroke: #000000; stroke-width: 1.5;"/><line style="stroke: #000000; stroke-width: 1.5;" x1="719.5" x2="805.5" y1="129.6094" y2="129.6094"/><text fill="#000000" font-family="sans-serif" font-size="14" lengthAdjust="spacingAndGlyphs" textLength="73" x="723.5" y="123.5332">mastermind</text><!--entity mastermind.distributed--><polygon fill="#FFFFFF" filter="url(#f1008op9h5pk6t)" points="291.5,106,440.5,106,447.5,129.6094,464.5,129.6094,464.5,146.6094,291.5,146.6094,291.5,106" style="stroke: #000000; stroke-width: 1.5;"/><line style="stroke: #000000; stroke-width: 1.5;" x1="291.5" x2="447.5" y1="129.6094" y2="129.6094"/><text fill="#000000" font-family="sans-serif" font-size="14" lengthAdjust="spacingAndGlyphs" textLength="143" x="295.5" y="123.5332">mastermind.distributed</text><!--entity mastermind.distributed.dispatchers--><polygon fill="#FFFFFF" filter="url(#f1008op9h5pk6t)" points="6,106,232,106,239,129.6094,256,129.6094,256,146.6094,6,146.6094,6,106" style="stroke: #000000; stroke-width: 1.5;"/><line style="stroke: #000000; stroke-width: 1.5;" x1="6" x2="239" y1="129.6094" y2="129.6094"/><text fill="#000000" font-family="sans-serif" font-size="14" lengthAdjust="spacingAndGlyphs" textLength="220" x="10" y="123.5332">mastermind.distributed.dispatchers</text><!--entity mastermind.controllers--><polygon fill="#FFFFFF" filter="url(#f1008op9h5pk6t)" points="857.5,106,1006.5,106,1013.5,129.6094,1030.5,129.6094,1030.5,146.6094,857.5,146.6094,857.5,106" style="stroke: #000000; stroke-width: 1.5;"/><line style="stroke: #000000; stroke-width: 1.5;" x1="857.5" x2="1013.5" y1="129.6094" y2="129.6094"/><text fill="#000000" font-family="sans-serif" font-size="14" lengthAdjust="spacingAndGlyphs" textLength="143" x="861.5" y="123.5332">mastermind.controllers</text><!--entity mastermind.models--><polygon fill="#FFFFFF" filter="url(#f1008op9h5pk6t)" points="1066,106,1194,106,1201,129.6094,1218,129.6094,1218,146.6094,1066,146.6094,1066,106" style="stroke: #000000; stroke-width: 1.5;"/><line style="stroke: #000000; stroke-width: 1.5;" x1="1066" x2="1201" y1="129.6094" y2="129.6094"/><text fill="#000000" font-family="sans-serif" font-size="14" lengthAdjust="spacingAndGlyphs" textLength="122" x="1070" y="123.5332">mastermind.models</text><!--entity mastermind.views--><polygon fill="#FFFFFF" filter="url(#f1008op9h5pk6t)" points="1253.5,106,1370.5,106,1377.5,129.6094,1394.5,129.6094,1394.5,146.6094,1253.5,146.6094,1253.5,106" style="stroke: #000000; stroke-width: 1.5;"/><line style="stroke: #000000; stroke-width: 1.5;" x1="1253.5" x2="1377.5" y1="129.6094" y2="129.6094"/><text fill="#000000" font-family="sans-serif" font-size="14" lengthAdjust="spacingAndGlyphs" textLength="111" x="1257.5" y="123.5332">mastermind.views</text><!--entity mastermind.utils--><polygon fill="#FFFFFF" filter="url(#f1008op9h5pk6t)" points="1430,106,1538,106,1545,129.6094,1562,129.6094,1562,146.6094,1430,146.6094,1430,106" style="stroke: #000000; stroke-width: 1.5;"/><line style="stroke: #000000; stroke-width: 1.5;" x1="1430" x2="1545" y1="129.6094" y2="129.6094"/><text fill="#000000" font-family="sans-serif" font-size="14" lengthAdjust="spacingAndGlyphs" textLength="102" x="1434" y="123.5332">mastermind.utils</text><!--entity java.io--><polygon fill="#FFFFFF" filter="url(#f1008op9h5pk6t)" points="499.5,106,546.5,106,553.5,129.6094,570.5,129.6094,570.5,146.6094,499.5,146.6094,499.5,106" style="stroke: #000000; stroke-width: 1.5;"/><line style="stroke: #000000; stroke-width: 1.5;" x1="499.5" x2="553.5" y1="129.6094" y2="129.6094"/><text fill="#000000" font-family="sans-serif" font-size="14" lengthAdjust="spacingAndGlyphs" textLength="41" x="503.5" y="123.5332">java.io</text><!--entity java.util--><polygon fill="#FFFFFF" filter="url(#f1008op9h5pk6t)" points="606,106,660,106,667,129.6094,684,129.6094,684,146.6094,606,146.6094,606,106" style="stroke: #000000; stroke-width: 1.5;"/><line style="stroke: #000000; stroke-width: 1.5;" x1="606" x2="667" y1="129.6094" y2="129.6094"/><text fill="#000000" font-family="sans-serif" font-size="14" lengthAdjust="spacingAndGlyphs" textLength="48" x="610" y="123.5332">java.util</text><!--entity jar--><rect fill="#FEFECE" filter="url(#f1008op9h5pk6t)" height="37.6094" style="stroke: #A80036; stroke-width: 1.5;" width="113" x="997.5" y="8"/><rect fill="#FEFECE" height="5" style="stroke: #A80036; stroke-width: 1.5;" width="10" x="992.5" y="13"/><rect fill="#FEFECE" height="5" style="stroke: #A80036; stroke-width: 1.5;" width="10" x="992.5" y="35.6094"/><text fill="#000000" font-family="sans-serif" font-size="14" lengthAdjust="spacingAndGlyphs" textLength="93" x="1007.5" y="32.5332">mastermind.jar</text><!--entity jarClient--><rect fill="#FEFECE" filter="url(#f1008op9h5pk6t)" height="37.6094" style="stroke: #A80036; stroke-width: 1.5;" width="149" x="813.5" y="8"/><rect fill="#FEFECE" height="5" style="stroke: #A80036; stroke-width: 1.5;" width="10" x="808.5" y="13"/><rect fill="#FEFECE" height="5" style="stroke: #A80036; stroke-width: 1.5;" width="10" x="808.5" y="35.6094"/><text fill="#000000" font-family="sans-serif" font-size="14" lengthAdjust="spacingAndGlyphs" textLength="129" x="823.5" y="32.5332">mastermindClient.jar</text><!--entity jarServer--><rect fill="#FEFECE" filter="url(#f1008op9h5pk6t)" height="37.6094" style="stroke: #A80036; stroke-width: 1.5;" width="155" x="623.5" y="8"/><rect fill="#FEFECE" height="5" style="stroke: #A80036; stroke-width: 1.5;" width="10" x="618.5" y="13"/><rect fill="#FEFECE" height="5" style="stroke: #A80036; stroke-width: 1.5;" width="10" x="618.5" y="35.6094"/><text fill="#000000" font-family="sans-serif" font-size="14" lengthAdjust="spacingAndGlyphs" textLength="135" x="633.5" y="32.5332">mastermindServer.jar</text><!--link jar to mastermind--><path d="M989.032,50.3828 C942.921,66.2693 881.3,87.4991 835.332,103.3362 " fill="none" id="jar-mastermind" style="stroke: #A80036; stroke-width: 1.0;"/><polygon fill="#A80036" points="822.808,107.6511,832.6202,108.5005,827.5352,106.022,830.0136,100.937,822.808,107.6511" style="stroke: #A80036; stroke-width: 1.0;"/><line style="stroke: #A80036; stroke-width: 1.0;" x1="827.5352" x2="835.0985" y1="106.022" y2="103.4166"/><polygon fill="#A80036" points="1001.433,46.111,994.4573,44.2834,990.0873,50.0195,997.063,51.8471,1001.433,46.111" style="stroke: #A80036; stroke-width: 1.0;"/><!--link jar to mastermind.controllers--><path d="M1023.73,54.8342 C1008.93,67.9447 991.13,83.726 976.102,97.0462 " fill="none" id="jar-mastermind.controllers" style="stroke: #A80036; stroke-width: 1.0;"/><polygon fill="#A80036" points="966.213,105.8116,975.6014,102.8353,969.9548,102.4951,970.295,96.8485,966.213,105.8116" style="stroke: #A80036; stroke-width: 1.0;"/><line style="stroke: #A80036; stroke-width: 1.0;" x1="969.9548" x2="975.941" y1="102.4951" y2="97.1886"/><polygon fill="#A80036" points="1033.57,46.111,1026.427,47.0997,1024.5924,54.0735,1031.7354,53.0848,1033.57,46.111" style="stroke: #A80036; stroke-width: 1.0;"/><!--link jar to mastermind.models--><path d="M1079.45,56.1996 C1090.69,68.6464 1103.89,83.2808 1115.27,95.8863 " fill="none" id="jar-mastermind.models" style="stroke: #A80036; stroke-width: 1.0;"/><polygon fill="#A80036" points="1124.31,105.905,1121.2455,96.545,1120.9584,102.1946,1115.3089,101.9075,1124.31,105.905" style="stroke: #A80036; stroke-width: 1.0;"/><line style="stroke: #A80036; stroke-width: 1.0;" x1="1120.9584" x2="1115.605" y1="102.1946" y2="96.2545"/><polygon fill="#A80036" points="1070.55,46.339,1071.5982,53.4735,1078.5871,55.2499,1077.5389,48.1154,1070.55,46.339" style="stroke: #A80036; stroke-width: 1.0;"/><!--link jar to mastermind.views--><path d="M1116.49,50.5655 C1158.76,65.8299 1214.52,85.9644 1257.59,101.5183 " fill="none" id="jar-mastermind.views" style="stroke: #A80036; stroke-width: 1.0;"/><polygon fill="#A80036" points="1269.95,105.9814,1262.8431,99.1629,1265.2471,104.2835,1260.1265,106.6876,1269.95,105.9814" style="stroke: #A80036; stroke-width: 1.0;"/><line style="stroke: #A80036; stroke-width: 1.0;" x1="1265.2471" x2="1257.725" y1="104.2835" y2="101.5659"/><polygon fill="#A80036" points="1104.15,46.111,1108.4353,51.9107,1115.437,50.1856,1111.1517,44.386,1104.15,46.111" style="stroke: #A80036; stroke-width: 1.0;"/><!--link jar to mastermind.utils--><path d="M1123.74,42.902 C1195.94,58.397 1311.95,83.4889 1412,106 C1413.73,106.3903 1415.49,106.7863 1417.26,107.1866 " fill="none" id="jar-mastermind.utils" style="stroke: #A80036; stroke-width: 1.0;"/><polygon fill="#A80036" points="1429.99,110.087,1422.1025,104.1889,1425.1147,108.9771,1420.3266,111.9893,1429.99,110.087" style="stroke: #A80036; stroke-width: 1.0;"/><line style="stroke: #A80036; stroke-width: 1.0;" x1="1425.1147" x2="1417.31" y1="108.9771" y2="107.1995"/><polygon fill="#A80036" points="1110.79,40.124,1115.8168,45.2942,1122.5227,42.6426,1117.4959,37.4724,1110.79,40.124" style="stroke: #A80036; stroke-width: 1.0;"/><!--link jar to java.io--><path d="M984.22,45.148 C982.802,45.44 981.394,45.724 980,46 C807.098,80.1941 758.675,62.0161 588,106 C586.398,106.4129 584.777,106.8561 583.146,107.3238 " fill="none" id="jar-java.io" style="stroke: #A80036; stroke-width: 1.0;"/><polygon fill="#A80036" points="570.613,111.293,580.4007,112.3885,575.3796,109.7831,577.985,104.762,570.613,111.293" style="stroke: #A80036; stroke-width: 1.0;"/><line style="stroke: #A80036; stroke-width: 1.0;" x1="575.3796" x2="583.006" y1="109.7831" y2="107.3679"/><polygon fill="#A80036" points="997.145,42.356,990.4358,39.7128,985.4154,44.8893,992.1247,47.5325,997.145,42.356" style="stroke: #A80036; stroke-width: 1.0;"/><!--link jar to java.util--><path d="M984.564,44.946 C983.029,45.303 981.506,45.654 980,46 C856.802,74.2732 823.784,72.1516 702,106 C700.265,106.4823 698.505,106.9879 696.732,107.5115 " fill="none" id="jar-java.util" style="stroke: #A80036; stroke-width: 1.0;"/><polygon fill="#A80036" points="684.059,111.4645,693.8419,112.6028,688.8321,109.9755,691.4595,104.9658,684.059,111.4645" style="stroke: #A80036; stroke-width: 1.0;"/><line style="stroke: #A80036; stroke-width: 1.0;" x1="688.8321" x2="696.47" y1="109.9755" y2="107.5934"/><polygon fill="#A80036" points="997.472,41.91,990.7157,39.3897,985.7906,44.6569,992.547,47.1773,997.472,41.91" style="stroke: #A80036; stroke-width: 1.0;"/><!--link jarClient to mastermind--><path d="M856.069,54.6093 C840.148,67.8763 820.895,83.9212 804.734,97.3887 " fill="none" id="jarClient-mastermind" style="stroke: #A80036; stroke-width: 1.0;"/><polygon fill="#A80036" points="794.626,105.8116,804.1007,103.1226,798.467,102.6106,798.9791,96.977,794.626,105.8116" style="stroke: #A80036; stroke-width: 1.0;"/><line style="stroke: #A80036; stroke-width: 1.0;" x1="798.467" x2="804.613" y1="102.6106" y2="97.4892"/><polygon fill="#A80036" points="866.267,46.111,859.0969,46.8788,857.0479,53.7927,864.218,53.0249,866.267,46.111" style="stroke: #A80036; stroke-width: 1.0;"/><!--link jarClient to mastermind.distributed--><path d="M800.228,45.183 C798.808,45.458 797.398,45.73 796,46 C687.278,66.9747 562.569,90.6425 477.868,106.6588 " fill="none" id="jarClient-mastermind.distributed" style="stroke: #A80036; stroke-width: 1.0;"/><polygon fill="#A80036" points="464.887,109.1128,474.4733,111.3718,469.8,108.1842,472.9876,103.5109,464.887,109.1128" style="stroke: #A80036; stroke-width: 1.0;"/><line style="stroke: #A80036; stroke-width: 1.0;" x1="469.8" x2="477.661" y1="108.1842" y2="106.6979"/><polygon fill="#A80036" points="813.194,42.67,806.5424,39.885,801.4133,44.9539,808.065,47.7388,813.194,42.67" style="stroke: #A80036; stroke-width: 1.0;"/><!--link jarClient to mastermind.controllers--><path d="M905.251,58.0355 C911.891,69.5953 919.481,82.8102 926.173,94.4625 " fill="none" id="jarClient-mastermind.controllers" style="stroke: #A80036; stroke-width: 1.0;"/><polygon fill="#A80036" points="932.745,105.905,931.731,96.1085,930.2547,101.5693,924.7939,100.093,932.745,105.905" style="stroke: #A80036; stroke-width: 1.0;"/><line style="stroke: #A80036; stroke-width: 1.0;" x1="930.2547" x2="926.2705" y1="101.5693" y2="94.6321"/><polygon fill="#A80036" points="898.533,46.339,898.0528,53.5341,904.5097,56.7447,904.9899,49.5496,898.533,46.339" style="stroke: #A80036; stroke-width: 1.0;"/><!--link jarClient to mastermind.models--><path d="M947.346,50.7804 C986.804,65.9268 1038.57,85.7965 1078.8,101.2383 " fill="none" id="jarClient-mastermind.models" style="stroke: #A80036; stroke-width: 1.0;"/><polygon fill="#A80036" points="1091.15,105.9814,1084.1876,99.0154,1086.4837,104.1853,1081.3138,106.4815,1091.15,105.9814" style="stroke: #A80036; stroke-width: 1.0;"/><line style="stroke: #A80036; stroke-width: 1.0;" x1="1086.4837" x2="1079.015" y1="104.1853" y2="101.3226"/><polygon fill="#A80036" points="935.18,46.111,939.3482,51.9954,946.3831,50.411,942.2149,44.5266,935.18,46.111" style="stroke: #A80036; stroke-width: 1.0;"/><!--link jarClient to mastermind.views--><path d="M975.715,47.6151 C1052.91,64.8789 1164.54,89.8418 1240.47,106.8201 " fill="none" id="jarClient-mastermind.views" style="stroke: #A80036; stroke-width: 1.0;"/><polygon fill="#A80036" points="1253.27,109.6835,1245.3624,103.8124,1248.391,108.5902,1243.6132,111.6188,1253.27,109.6835" style="stroke: #A80036; stroke-width: 1.0;"/><line style="stroke: #A80036; stroke-width: 1.0;" x1="1248.391" x2="1240.585" y1="108.5902" y2="106.8465"/><polygon fill="#A80036" points="962.951,44.761,967.9334,49.9741,974.6617,47.38,969.6794,42.1669,962.951,44.761" style="stroke: #A80036; stroke-width: 1.0;"/><!--link jarClient to mastermind.utils--><path d="M975.754,45.281 C977.179,45.525 978.595,45.765 980,46 C1171.19,77.9556 1221.4,70.714 1412,106 C1413.61,106.2989 1415.25,106.608 1416.89,106.9259 " fill="none" id="jarClient-mastermind.utils" style="stroke: #A80036; stroke-width: 1.0;"/><polygon fill="#A80036" points="1429.63,109.5108,1421.6054,103.8007,1424.7299,108.5163,1420.0142,111.6408,1429.63,109.5108" style="stroke: #A80036; stroke-width: 1.0;"/><line style="stroke: #A80036; stroke-width: 1.0;" x1="1424.7299" x2="1416.885" y1="108.5163" y2="106.9263"/><polygon fill="#A80036" points="962.75,42.983,967.9627,47.9658,974.567,45.0705,969.3543,40.0877,962.75,42.983" style="stroke: #A80036; stroke-width: 1.0;"/><!--link jarClient to java.io--><path d="M800.562,48.3311 C740.372,62.9113 658.811,83.8268 588,106 C586.421,106.4944 584.82,107.0084 583.207,107.5371 " fill="none" id="jarClient-java.io" style="stroke: #A80036; stroke-width: 1.0;"/><polygon fill="#A80036" points="570.758,111.8027,580.5687,112.6691,575.488,110.1818,577.9753,105.1011,570.758,111.8027" style="stroke: #A80036; stroke-width: 1.0;"/><line style="stroke: #A80036; stroke-width: 1.0;" x1="575.488" x2="583.056" y1="110.1818" y2="107.5886"/><polygon fill="#A80036" points="813.453,45.226,806.6831,42.7423,801.7867,48.0362,808.5566,50.5199,813.453,45.226" style="stroke: #A80036; stroke-width: 1.0;"/><!--link jarClient to java.util--><path d="M830.613,51.0256 C789.919,67.3534 735.778,89.0767 696.477,104.8457 " fill="none" id="jarClient-java.util" style="stroke: #A80036; stroke-width: 1.0;"/><polygon fill="#A80036" points="684.274,109.7418,694.1163,110.1023,688.9143,107.8797,691.1369,102.6778,684.274,109.7418" style="stroke: #A80036; stroke-width: 1.0;"/><line style="stroke: #A80036; stroke-width: 1.0;" x1="688.9143" x2="696.3395" y1="107.8797" y2="104.9009"/><polygon fill="#A80036" points="842.863,46.111,835.8051,44.6326,831.7258,50.5789,838.7837,52.0574,842.863,46.111" style="stroke: #A80036; stroke-width: 1.0;"/><!--link jarServer to mastermind--><path d="M721.902,57.1138 C730.565,69.1795 740.611,83.1719 749.35,95.3448 " fill="none" id="jarServer-mastermind" style="stroke: #A80036; stroke-width: 1.0;"/><polygon fill="#A80036" points="756.932,105.905,754.9323,96.2613,754.0159,101.8434,748.4338,100.927,756.932,105.905" style="stroke: #A80036; stroke-width: 1.0;"/><line style="stroke: #A80036; stroke-width: 1.0;" x1="754.0159" x2="749.35" y1="101.8434" y2="95.3448"/><polygon fill="#A80036" points="714.166,46.339,714.416,53.5458,721.1646,56.0868,720.9146,48.88,714.166,46.339" style="stroke: #A80036; stroke-width: 1.0;"/><!--link jarServer to mastermind.distributed--><path d="M628.367,49.9248 C576.855,65.474 507.828,86.3103 455.3,102.1665 " fill="none" id="jarServer-mastermind.distributed" style="stroke: #A80036; stroke-width: 1.0;"/><polygon fill="#A80036" points="442.662,105.9814,452.434,107.2096,447.4486,104.5364,450.1219,99.551,442.662,105.9814" style="stroke: #A80036; stroke-width: 1.0;"/><line style="stroke: #A80036; stroke-width: 1.0;" x1="447.4486" x2="455.107" y1="104.5364" y2="102.2246"/><polygon fill="#A80036" points="641.003,46.111,634.103,44.0156,629.515,49.5789,636.415,51.6743,641.003,46.111" style="stroke: #A80036; stroke-width: 1.0;"/><!--link jarServer to mastermind.distributed.dispatchers--><path d="M610.269,43.52 C515.108,59.7973 364.806,85.507 257.908,103.792 " fill="none" id="jarServer-mastermind.distributed.dispatchers" style="stroke: #A80036; stroke-width: 1.0;"/><polygon fill="#A80036" points="245.094,105.9839,254.6395,108.4095,250.0224,105.141,253.2909,100.524,245.094,105.9839" style="stroke: #A80036; stroke-width: 1.0;"/><line style="stroke: #A80036; stroke-width: 1.0;" x1="250.0224" x2="257.908" y1="105.141" y2="103.792"/><polygon fill="#A80036" points="623.237,41.302,616.6486,38.3707,611.4087,43.3249,617.9972,46.2562,623.237,41.302" style="stroke: #A80036; stroke-width: 1.0;"/><!--link jarServer to mastermind.controllers--><path d="M758.313,50.9959 C795.767,66.0238 844.636,85.6317 882.839,100.96 " fill="none" id="jarServer-mastermind.controllers" style="stroke: #A80036; stroke-width: 1.0;"/><polygon fill="#A80036" points="895.354,105.9814,888.491,98.9174,890.7137,104.1194,885.5117,106.342,895.354,105.9814" style="stroke: #A80036; stroke-width: 1.0;"/><line style="stroke: #A80036; stroke-width: 1.0;" x1="890.7137" x2="883.2885" y1="104.1194" y2="101.1404"/><polygon fill="#A80036" points="746.137,46.111,750.2163,52.0574,757.2742,50.5789,753.1949,44.6326,746.137,46.111" style="stroke: #A80036; stroke-width: 1.0;"/><!--link jarServer to mastermind.models--><path d="M791.492,48.0067 C868.017,64.9256 977.04,89.0294 1053.11,105.8471 " fill="none" id="jarServer-mastermind.models" style="stroke: #A80036; stroke-width: 1.0;"/><polygon fill="#A80036" points="1065.97,108.6899,1058.0492,102.8366,1061.0885,107.6076,1056.3175,110.647,1065.97,108.6899" style="stroke: #A80036; stroke-width: 1.0;"/><line style="stroke: #A80036; stroke-width: 1.0;" x1="1061.0885" x2="1053.275" y1="107.6076" y2="105.8835"/><polygon fill="#A80036" points="778.574,45.151,783.5693,50.3516,790.2912,47.7408,785.2959,42.5402,778.574,45.151" style="stroke: #A80036; stroke-width: 1.0;"/><!--link jarServer to mastermind.views--><path d="M791.744,45.299 C793.172,45.537 794.592,45.771 796,46 C990.801,77.7149 1041.71,71.2878 1236,106 C1237.51,106.2705 1239.04,106.549 1240.58,106.8344 " fill="none" id="jarServer-mastermind.views" style="stroke: #A80036; stroke-width: 1.0;"/><polygon fill="#A80036" points="1253.5,109.34,1245.4246,103.7019,1248.5912,108.3894,1243.9037,111.556,1253.5,109.34" style="stroke: #A80036; stroke-width: 1.0;"/><line style="stroke: #A80036; stroke-width: 1.0;" x1="1248.5912" x2="1240.735" y1="108.3894" y2="106.8645"/><polygon fill="#A80036" points="778.709,43.063,783.9467,48.0195,790.5364,45.0911,785.2987,40.1346,778.709,43.063" style="stroke: #A80036; stroke-width: 1.0;"/><!--link jarServer to mastermind.utils--><path d="M791.732,45.375 C793.164,45.589 794.588,45.798 796,46 C1068.3,84.977 1140.55,61.47 1412,106 C1413.53,106.2511 1415.07,106.5137 1416.63,106.7867 " fill="none" id="jarServer-mastermind.utils" style="stroke: #A80036; stroke-width: 1.0;"/><polygon fill="#A80036" points="1429.67,109.2572,1421.5755,103.6465,1424.758,108.3233,1420.0812,111.5057,1429.67,109.2572" style="stroke: #A80036; stroke-width: 1.0;"/><line style="stroke: #A80036; stroke-width: 1.0;" x1="1424.758" x2="1416.9" y1="108.3233" y2="106.8382"/><polygon fill="#A80036" points="778.672,43.307,783.9727,48.196,790.5244,45.1835,785.2237,40.2944,778.672,43.307" style="stroke: #A80036; stroke-width: 1.0;"/><!--link jarServer to java.io--><path d="M658.687,52.8526 C634.546,67.0315 604.305,84.794 579.767,99.2059 " fill="none" id="jarServer-java.io" style="stroke: #A80036; stroke-width: 1.0;"/><polygon fill="#A80036" points="568.232,105.9814,578.0182,104.8722,572.5433,103.449,573.9664,97.9741,568.232,105.9814" style="stroke: #A80036; stroke-width: 1.0;"/><line style="stroke: #A80036; stroke-width: 1.0;" x1="572.5433" x2="579.4415" y1="103.449" y2="99.3974"/><polygon fill="#A80036" points="670.166,46.111,662.9666,45.7008,659.8189,52.1887,667.0184,52.5989,670.166,46.111" style="stroke: #A80036; stroke-width: 1.0;"/><!--link jarServer to java.util--><path d="M683.749,58.0355 C677.109,69.5953 669.519,82.8102 662.827,94.4625 " fill="none" id="jarServer-java.util" style="stroke: #A80036; stroke-width: 1.0;"/><polygon fill="#A80036" points="656.255,105.905,664.2061,100.093,658.7453,101.5693,657.269,96.1085,656.255,105.905" style="stroke: #A80036; stroke-width: 1.0;"/><line style="stroke: #A80036; stroke-width: 1.0;" x1="658.7453" x2="662.7295" y1="101.5693" y2="94.6321"/><polygon fill="#A80036" points="690.467,46.339,684.0101,49.5496,684.4903,56.7447,690.9472,53.5341,690.467,46.339" style="stroke: #A80036; stroke-width: 1.0;"/><!--
@startuml

package "  "  as mastermind {
}
package "  "  as mastermind.distributed {
}
package "  "  as mastermind.distributed.dispatchers {
}
package "  "  as mastermind.controllers {
}
package "  "  as mastermind.models {
}
package "  "  as mastermind.views {
}
package "  "  as mastermind.utils {
}
package "  "  as java.io {
}
package "  "  as java.util {
}

[mastermind.jar] as jar

jar *- -> mastermind
jar *- -> mastermind.controllers
jar *- -> mastermind.models
jar *- -> mastermind.views
jar *- -> mastermind.utils
jar *- -> java.io
jar *- -> java.util


[mastermindClient.jar] as jarClient

jarClient *- -> mastermind
jarClient *- -> mastermind.distributed
jarClient *- -> mastermind.controllers
jarClient *- -> mastermind.models
jarClient *- -> mastermind.views
jarClient *- -> mastermind.utils
jarClient *- -> java.io
jarClient *- -> java.util

[mastermindServer.jar] as jarServer

jarServer *- -> mastermind
jarServer *- -> mastermind.distributed
jarServer *- -> mastermind.distributed.dispatchers
jarServer *- -> mastermind.controllers
jarServer *- -> mastermind.models
jarServer *- -> mastermind.views
jarServer *- -> mastermind.utils
jarServer *- -> java.io
jarServer *- -> java.util
@enduml

PlantUML version 1.2019.05(Sat Apr 20 18:45:36 CEST 2019)
(GPL source distribution)
Java Runtime: OpenJDK Runtime Environment
JVM: OpenJDK 64-Bit Server VM
Java Version: 1.8.0_222-b10
Operating System: Windows 10
OS Version: 10.0
Default Encoding: windows-1252
Language: es
Country: ES
--></g></svg>