<?xml version="1.0" encoding="UTF-8" standalone="no"?><svg xmlns="http://www.w3.org/2000/svg" xmlns:xlink="http://www.w3.org/1999/xlink" contentScriptType="application/ecmascript" contentStyleType="text/css" height="184px" preserveAspectRatio="none" style="width:1855px;height:184px;" version="1.1" viewBox="0 0 1855 184" width="1855px" zoomAndPan="magnify"><defs><filter height="300%" id="ffvfr1b2ihkgl" width="300%" x="-1" y="-1"><feGaussianBlur result="blurOut" stdDeviation="2.0"/><feColorMatrix in="blurOut" result="blurOut2" type="matrix" values="0 0 0 0 0 0 0 0 0 0 0 0 0 0 0 0 0 0 .4 0"/><feOffset dx="4.0" dy="4.0" in="blurOut2" result="blurOut3"/><feBlend in="SourceGraphic" in2="blurOut3" mode="normal"/></filter></defs><g><!--entity mastermind--><polygon fill="#FFFFFF" filter="url(#ffvfr1b2ihkgl)" points="6,118.5,85,118.5,92,142.1094,109,142.1094,109,159.1094,6,159.1094,6,118.5" style="stroke: #000000; stroke-width: 1.5;"/><line style="stroke: #000000; stroke-width: 1.5;" x1="6" x2="92" y1="142.1094" y2="142.1094"/><text fill="#000000" font-family="sans-serif" font-size="14" lengthAdjust="spacingAndGlyphs" textLength="73" x="10" y="136.0332">mastermind</text><!--entity mastermind.controllers--><polygon fill="#FFFFFF" filter="url(#ffvfr1b2ihkgl)" points="144,118.5,293,118.5,300,142.1094,317,142.1094,317,159.1094,144,159.1094,144,118.5" style="stroke: #000000; stroke-width: 1.5;"/><line style="stroke: #000000; stroke-width: 1.5;" x1="144" x2="300" y1="142.1094" y2="142.1094"/><text fill="#000000" font-family="sans-serif" font-size="14" lengthAdjust="spacingAndGlyphs" textLength="143" x="148" y="136.0332">mastermind.controllers</text><!--entity mastermind.models--><polygon fill="#FFFFFF" filter="url(#ffvfr1b2ihkgl)" points="352.5,118.5,480.5,118.5,487.5,142.1094,504.5,142.1094,504.5,159.1094,352.5,159.1094,352.5,118.5" style="stroke: #000000; stroke-width: 1.5;"/><line style="stroke: #000000; stroke-width: 1.5;" x1="352.5" x2="487.5" y1="142.1094" y2="142.1094"/><text fill="#000000" font-family="sans-serif" font-size="14" lengthAdjust="spacingAndGlyphs" textLength="122" x="356.5" y="136.0332">mastermind.models</text><!--entity mastermind.views--><polygon fill="#FFFFFF" filter="url(#ffvfr1b2ihkgl)" points="540,118.5,657,118.5,664,142.1094,681,142.1094,681,159.1094,540,159.1094,540,118.5" style="stroke: #000000; stroke-width: 1.5;"/><line style="stroke: #000000; stroke-width: 1.5;" x1="540" x2="664" y1="142.1094" y2="142.1094"/><text fill="#000000" font-family="sans-serif" font-size="14" lengthAdjust="spacingAndGlyphs" textLength="111" x="544" y="136.0332">mastermind.views</text><!--entity santaTecla.utils--><polygon fill="#FFFFFF" filter="url(#ffvfr1b2ihkgl)" points="1035,8,1140,8,1147,31.6094,1164,31.6094,1164,48.6094,1035,48.6094,1035,8" style="stroke: #000000; stroke-width: 1.5;"/><line style="stroke: #000000; stroke-width: 1.5;" x1="1035" x2="1147" y1="31.6094" y2="31.6094"/><text fill="#000000" font-family="sans-serif" font-size="14" lengthAdjust="spacingAndGlyphs" textLength="99" x="1039" y="25.5332">santaTecla.utils</text><!--entity java.io--><polygon fill="#FFFFFF" filter="url(#ffvfr1b2ihkgl)" points="716,118.5,763,118.5,770,142.1094,787,142.1094,787,159.1094,716,159.1094,716,118.5" style="stroke: #000000; stroke-width: 1.5;"/><line style="stroke: #000000; stroke-width: 1.5;" x1="716" x2="770" y1="142.1094" y2="142.1094"/><text fill="#000000" font-family="sans-serif" font-size="14" lengthAdjust="spacingAndGlyphs" textLength="41" x="720" y="136.0332">java.io</text><!--entity java.util--><polygon fill="#FFFFFF" filter="url(#ffvfr1b2ihkgl)" points="822.5,118.5,876.5,118.5,883.5,142.1094,900.5,142.1094,900.5,159.1094,822.5,159.1094,822.5,118.5" style="stroke: #000000; stroke-width: 1.5;"/><line style="stroke: #000000; stroke-width: 1.5;" x1="822.5" x2="883.5" y1="142.1094" y2="142.1094"/><text fill="#000000" font-family="sans-serif" font-size="14" lengthAdjust="spacingAndGlyphs" textLength="48" x="826.5" y="136.0332">java.util</text><!--entity jar--><rect fill="#FEFECE" filter="url(#ffvfr1b2ihkgl)" height="37.6094" style="stroke: #A80036; stroke-width: 1.5;" width="113" x="887" y="9.5"/><rect fill="#FEFECE" height="5" style="stroke: #A80036; stroke-width: 1.5;" width="10" x="882" y="14.5"/><rect fill="#FEFECE" height="5" style="stroke: #A80036; stroke-width: 1.5;" width="10" x="882" y="37.1094"/><text fill="#000000" font-family="sans-serif" font-size="14" lengthAdjust="spacingAndGlyphs" textLength="93" x="897" y="34.0332">mastermind.jar</text><!--entity mastermind.views.console--><ellipse cx="1025.5" cy="139" fill="#FEFECE" filter="url(#ffvfr1b2ihkgl)" rx="8" ry="8" style="stroke: #A80036; stroke-width: 2.0;"/><text fill="#000000" font-family="sans-serif" font-size="14" lengthAdjust="spacingAndGlyphs" textLength="164" x="943.5" y="170.5332">mastermind.views.console</text><!--entity mastermind.views.graphics--><ellipse cx="1242.5" cy="139" fill="#FEFECE" filter="url(#ffvfr1b2ihkgl)" rx="8" ry="8" style="stroke: #A80036; stroke-width: 2.0;"/><text fill="#000000" font-family="sans-serif" font-size="14" lengthAdjust="spacingAndGlyphs" textLength="169" x="1158" y="170.5332">mastermind.views.graphics</text><!--entity mastermind.utils--><ellipse cx="1428.5" cy="139" fill="#FEFECE" filter="url(#ffvfr1b2ihkgl)" rx="8" ry="8" style="stroke: #A80036; stroke-width: 2.0;"/><text fill="#000000" font-family="sans-serif" font-size="14" lengthAdjust="spacingAndGlyphs" textLength="102" x="1377.5" y="170.5332">mastermind.utils</text><!--entity java.awt--><ellipse cx="1555.5" cy="139" fill="#FEFECE" filter="url(#ffvfr1b2ihkgl)" rx="8" ry="8" style="stroke: #A80036; stroke-width: 2.0;"/><text fill="#000000" font-family="sans-serif" font-size="14" lengthAdjust="spacingAndGlyphs" textLength="51" x="1530" y="170.5332">java.awt</text><!--entity java.awt.event--><ellipse cx="1676.5" cy="139" fill="#FEFECE" filter="url(#ffvfr1b2ihkgl)" rx="8" ry="8" style="stroke: #A80036; stroke-width: 2.0;"/><text fill="#000000" font-family="sans-serif" font-size="14" lengthAdjust="spacingAndGlyphs" textLength="90" x="1631.5" y="170.5332">java.awt.event</text><!--entity javax.swing--><ellipse cx="1807.5" cy="139" fill="#FEFECE" filter="url(#ffvfr1b2ihkgl)" rx="8" ry="8" style="stroke: #A80036; stroke-width: 2.0;"/><text fill="#000000" font-family="sans-serif" font-size="14" lengthAdjust="spacingAndGlyphs" textLength="71" x="1772" y="170.5332">javax.swing</text><!--link jar to mastermind--><path d="M873.582,29.287 C730.872,30.376 396.714,40.74 126.5,109 C121.256,110.3247 115.893,111.9854 110.588,113.8377 " fill="none" id="jar-mastermind" style="stroke: #A80036; stroke-width: 1.0;"/><polygon fill="#A80036" points="98.4006,118.4396,108.2334,119.002,103.0782,116.6731,105.4071,111.5179,98.4006,118.4396" style="stroke: #A80036; stroke-width: 1.0;"/><line style="stroke: #A80036; stroke-width: 1.0;" x1="103.0782" x2="110.5625" y1="116.6731" y2="113.8474"/><polygon fill="#A80036" points="886.786,29.209,880.7628,25.244,874.7862,29.2789,880.8094,33.2439,886.786,29.209" style="stroke: #A80036; stroke-width: 1.0;"/><!--link jar to mastermind.controllers--><path d="M873.52,35.374 C759.707,45.656 527.772,69.6462 334.5,109 C325.761,110.7794 316.678,112.8991 307.681,115.1711 " fill="none" id="jar-mastermind.controllers" style="stroke: #A80036; stroke-width: 1.0;"/><polygon fill="#A80036" points="295.063,118.4651,304.7816,120.0616,299.9008,117.2019,302.7605,112.3211,295.063,118.4651" style="stroke: #A80036; stroke-width: 1.0;"/><line style="stroke: #A80036; stroke-width: 1.0;" x1="299.9008" x2="307.6415" y1="117.2019" y2="115.1814"/><polygon fill="#A80036" points="886.803,34.188,880.4712,30.7372,874.8505,35.2548,881.1824,38.7056,886.803,34.188" style="stroke: #A80036; stroke-width: 1.0;"/><!--link jar to mastermind.models--><path d="M873.956,40.167 C790.056,53.601 645,78.6399 522.5,109 C515.419,110.7549 508.084,112.7315 500.777,114.8071 " fill="none" id="jar-mastermind.models" style="stroke: #A80036; stroke-width: 1.0;"/><polygon fill="#A80036" points="488.141,118.4959,497.9013,119.8137,492.9407,117.0948,495.6595,112.1342,488.141,118.4959" style="stroke: #A80036; stroke-width: 1.0;"/><line style="stroke: #A80036; stroke-width: 1.0;" x1="492.9407" x2="500.62" y1="117.0948" y2="114.8529"/><polygon fill="#A80036" points="886.884,38.111,880.3303,35.1028,875.0329,39.9954,881.5866,43.0036,886.884,38.111" style="stroke: #A80036; stroke-width: 1.0;"/><!--link jar to mastermind.views--><path d="M875.132,51.592 C825.977,67.499 758.127,89.5011 698.5,109 C693.254,110.7156 687.833,112.4922 682.379,114.2828 " fill="none" id="jar-mastermind.views" style="stroke: #A80036; stroke-width: 1.0;"/><polygon fill="#A80036" points="669.658,118.4638,679.457,119.454,674.4081,116.9028,676.9593,111.8539,669.658,118.4638" style="stroke: #A80036; stroke-width: 1.0;"/><line style="stroke: #A80036; stroke-width: 1.0;" x1="674.4081" x2="682.0075" y1="116.9028" y2="114.4047"/><polygon fill="#A80036" points="887.526,47.583,880.5861,45.6238,876.1085,51.2763,883.0484,53.2355,887.526,47.583" style="stroke: #A80036; stroke-width: 1.0;"/><!--link jar to mastermind.views.console--><path d="M965.468,58.568 C980.062,77.8775 998.79,102.6576 1011.42,119.3642 " fill="none" id="jar-mastermind.views.console" style="stroke: #A80036; stroke-width: 1.0;"/><polygon fill="#A80036" points="1019.38,129.9086,1017.1448,120.3167,1016.3654,125.9196,1010.7625,125.1402,1019.38,129.9086" style="stroke: #A80036; stroke-width: 1.0;"/><line style="stroke: #A80036; stroke-width: 1.0;" x1="1016.3654" x2="1011.55" y1="125.9196" y2="119.5374"/><polygon fill="#A80036" points="957.41,47.906,957.8366,55.1045,964.6454,57.4794,964.2188,50.2809,957.41,47.906" style="stroke: #A80036; stroke-width: 1.0;"/><!--link jar to mastermind.views.graphics--><path d="M1005.697,52.07 C1072.94,76.4712 1176.46,114.0366 1220.96,130.1836 " fill="none" id="jar-mastermind.views.graphics" style="stroke: #A80036; stroke-width: 1.0;"/><polygon fill="#A80036" points="1233.43,134.7094,1226.3313,127.8823,1228.7292,133.0058,1223.6056,135.4037,1233.43,134.7094" style="stroke: #A80036; stroke-width: 1.0;"/><line style="stroke: #A80036; stroke-width: 1.0;" x1="1228.7292" x2="1221.21" y1="133.0058" y2="130.2748"/><polygon fill="#A80036" points="993.209,47.538,997.4859,53.3439,1004.4901,51.629,1000.2132,45.8231,993.209,47.538" style="stroke: #A80036; stroke-width: 1.0;"/><!--link jar to mastermind.utils--><path d="M1013.01,47.991 C1014.52,48.336 1016.02,48.673 1017.5,49 C1165.2,81.6311 1206.76,68.527 1352.5,109 C1371.46,114.2655 1392.3,122.3909 1407.35,128.7027 " fill="none" id="jar-mastermind.utils" style="stroke: #A80036; stroke-width: 1.0;"/><polygon fill="#A80036" points="1419.33,133.8554,1412.6388,126.6285,1414.7357,131.8824,1409.4819,133.9793,1419.33,133.8554" style="stroke: #A80036; stroke-width: 1.0;"/><line style="stroke: #A80036; stroke-width: 1.0;" x1="1414.7357" x2="1407.385" y1="131.8824" y2="128.7182"/><polygon fill="#A80036" points="1000.353,44.975,1005.262,50.2572,1012.026,47.7574,1007.117,42.4752,1000.353,44.975" style="stroke: #A80036; stroke-width: 1.0;"/><!--link jar to java.io--><path d="M899.753,54.222 C869.177,71.5003 828.43,94.5266 797.392,112.0661 " fill="none" id="jar-java.io" style="stroke: #A80036; stroke-width: 1.0;"/><polygon fill="#A80036" points="786.014,118.4962,795.8174,117.5508,790.367,116.0363,791.8815,110.586,786.014,118.4962" style="stroke: #A80036; stroke-width: 1.0;"/><line style="stroke: #A80036; stroke-width: 1.0;" x1="790.367" x2="797.3315" y1="116.0363" y2="112.1003"/><polygon fill="#A80036" points="911.364,47.66,904.1725,47.1293,900.9166,53.5635,908.1081,54.0942,911.364,47.66" style="stroke: #A80036; stroke-width: 1.0;"/><!--link jar to java.util--><path d="M921.688,58.361 C910.15,73.628 895.993,92.3594 884.309,107.8196 " fill="none" id="jar-java.util" style="stroke: #A80036; stroke-width: 1.0;"/><polygon fill="#A80036" points="876.311,118.4025,884.9285,113.6341,879.3256,114.4135,878.5462,108.8106,876.311,118.4025" style="stroke: #A80036; stroke-width: 1.0;"/><line style="stroke: #A80036; stroke-width: 1.0;" x1="879.3256" x2="884.149" y1="114.4135" y2="108.0313"/><polygon fill="#A80036" points="929.59,47.906,922.7812,50.2809,922.3546,57.4794,929.1634,55.1045,929.59,47.906" style="stroke: #A80036; stroke-width: 1.0;"/><!--link jar to java.awt--><path d="M1012.99,48.102 C1014.51,48.414 1016.01,48.713 1017.5,49 C1232.09,90.2691 1298.34,39.439 1505.5,109 C1515.97,112.5173 1526.69,118.3739 1535.5,123.9067 " fill="none" id="jar-java.awt" style="stroke: #A80036; stroke-width: 1.0;"/><polygon fill="#A80036" points="1546.46,131.2346,1541.2029,122.9062,1542.3039,128.4548,1536.7553,129.5559,1546.46,131.2346" style="stroke: #A80036; stroke-width: 1.0;"/><line style="stroke: #A80036; stroke-width: 1.0;" x1="1542.3039" x2="1535.65" y1="128.4548" y2="124.0099"/><polygon fill="#A80036" points="1000.287,45.294,1005.2846,50.4925,1012.0053,47.8787,1007.0077,42.6803,1000.287,45.294" style="stroke: #A80036; stroke-width: 1.0;"/><!--link jar to java.awt.event--><path d="M1012.98,48.145 C1014.5,48.443 1016.01,48.729 1017.5,49 C1276.4,96.0015 1351.36,44.63 1606.5,109 C1623.53,113.296 1641.83,120.9978 1655.45,127.3851 " fill="none" id="jar-java.awt.event" style="stroke: #A80036; stroke-width: 1.0;"/><polygon fill="#A80036" points="1667.29,133.1592,1660.9551,125.6181,1662.7962,130.9669,1657.4474,132.8081,1667.29,133.1592" style="stroke: #A80036; stroke-width: 1.0;"/><line style="stroke: #A80036; stroke-width: 1.0;" x1="1662.7962" x2="1655.605" y1="130.9669" y2="127.4595"/><polygon fill="#A80036" points="1000.264,45.415,1005.2909,50.5852,1011.9967,47.9335,1006.9699,42.7633,1000.264,45.415" style="stroke: #A80036; stroke-width: 1.0;"/><!--link jar to javax.swing--><path d="M1012.98,48.185 C1014.49,48.471 1016,48.744 1017.5,49 C1338.36,104.0214 1433.42,23.388 1747.5,109 C1761.14,112.7177 1775.43,119.4931 1786.64,125.5603 " fill="none" id="jar-javax.swing" style="stroke: #A80036; stroke-width: 1.0;"/><polygon fill="#A80036" points="1798.16,132.1318,1792.325,124.1975,1793.8171,129.654,1788.3606,131.1461,1798.16,132.1318" style="stroke: #A80036; stroke-width: 1.0;"/><line style="stroke: #A80036; stroke-width: 1.0;" x1="1793.8171" x2="1786.865" y1="129.654" y2="125.6916"/><polygon fill="#A80036" points="1000.244,45.529,1005.2999,50.6708,1011.9907,47.9815,1006.9348,42.8397,1000.244,45.529" style="stroke: #A80036; stroke-width: 1.0;"/><!--
@startuml

package "  "  as mastermind {
}
package "  "  as mastermind.controllers {
}
package "  "  as mastermind.models {
}
package "  "  as mastermind.views {
}
package "  "  as santaTecla.utils {
}
package "  "  as java.io {
}
package "  "  as java.util {
}

[mastermind.jar] as jar

jar *- -> mastermind
jar *- -> mastermind.controllers
jar *- -> mastermind.models
jar *- -> mastermind.views
jar *- -> mastermind.views.console
jar *- -> mastermind.views.graphics
jar *- -> mastermind.utils
jar *- -> java.io
jar *- -> java.util
jar *- -> java.awt
jar *- -> java.awt.event
jar *- -> javax.swing

@enduml

PlantUML version 1.2019.05(Sat Apr 20 18:45:36 CEST 2019)
(GPL source distribution)
Java Runtime: OpenJDK Runtime Environment
JVM: OpenJDK 64-Bit Server VM
Java Version: 1.8.0_222-b10
Operating System: Windows 10
OS Version: 10.0
Default Encoding: windows-1252
Language: es
Country: ES
--></g></svg>