<?xml version="1.0" encoding="UTF-8" standalone="no"?><svg xmlns="http://www.w3.org/2000/svg" xmlns:xlink="http://www.w3.org/1999/xlink" contentScriptType="application/ecmascript" contentStyleType="text/css" height="158px" preserveAspectRatio="none" style="width:1826px;height:158px;" version="1.1" viewBox="0 0 1826 158" width="1826px" zoomAndPan="magnify"><defs><filter height="300%" id="fl3nwrnozexhx" width="300%" x="-1" y="-1"><feGaussianBlur result="blurOut" stdDeviation="2.0"/><feColorMatrix in="blurOut" result="blurOut2" type="matrix" values="0 0 0 0 0 0 0 0 0 0 0 0 0 0 0 0 0 0 .4 0"/><feOffset dx="4.0" dy="4.0" in="blurOut2" result="blurOut3"/><feBlend in="SourceGraphic" in2="blurOut3" mode="normal"/></filter></defs><g><!--entity mastermind--><polygon fill="#FFFFFF" filter="url(#fl3nwrnozexhx)" points="6,106,85,106,92,129.6094,109,129.6094,109,146.6094,6,146.6094,6,106" style="stroke: #000000; stroke-width: 1.5;"/><line style="stroke: #000000; stroke-width: 1.5;" x1="6" x2="92" y1="129.6094" y2="129.6094"/><text fill="#000000" font-family="sans-serif" font-size="14" lengthAdjust="spacingAndGlyphs" textLength="73" x="10" y="123.5332">mastermind</text><!--entity mastermind.distributed--><polygon fill="#FFFFFF" filter="url(#fl3nwrnozexhx)" points="144,106,293,106,300,129.6094,317,129.6094,317,146.6094,144,146.6094,144,106" style="stroke: #000000; stroke-width: 1.5;"/><line style="stroke: #000000; stroke-width: 1.5;" x1="144" x2="300" y1="129.6094" y2="129.6094"/><text fill="#000000" font-family="sans-serif" font-size="14" lengthAdjust="spacingAndGlyphs" textLength="143" x="148" y="123.5332">mastermind.distributed</text><!--entity mastermind.controllers--><polygon fill="#FFFFFF" filter="url(#fl3nwrnozexhx)" points="352,106,501,106,508,129.6094,525,129.6094,525,146.6094,352,146.6094,352,106" style="stroke: #000000; stroke-width: 1.5;"/><line style="stroke: #000000; stroke-width: 1.5;" x1="352" x2="508" y1="129.6094" y2="129.6094"/><text fill="#000000" font-family="sans-serif" font-size="14" lengthAdjust="spacingAndGlyphs" textLength="143" x="356" y="123.5332">mastermind.controllers</text><!--entity mastermind.controllers.implementation--><polygon fill="#FFFFFF" filter="url(#fl3nwrnozexhx)" points="560.5,106,808.5,106,815.5,129.6094,832.5,129.6094,832.5,146.6094,560.5,146.6094,560.5,106" style="stroke: #000000; stroke-width: 1.5;"/><line style="stroke: #000000; stroke-width: 1.5;" x1="560.5" x2="815.5" y1="129.6094" y2="129.6094"/><text fill="#000000" font-family="sans-serif" font-size="14" lengthAdjust="spacingAndGlyphs" textLength="242" x="564.5" y="123.5332">mastermind.controllers.implementation</text><!--entity mastermind.models--><polygon fill="#FFFFFF" filter="url(#fl3nwrnozexhx)" points="867.5,106,995.5,106,1002.5,129.6094,1019.5,129.6094,1019.5,146.6094,867.5,146.6094,867.5,106" style="stroke: #000000; stroke-width: 1.5;"/><line style="stroke: #000000; stroke-width: 1.5;" x1="867.5" x2="1002.5" y1="129.6094" y2="129.6094"/><text fill="#000000" font-family="sans-serif" font-size="14" lengthAdjust="spacingAndGlyphs" textLength="122" x="871.5" y="123.5332">mastermind.models</text><!--entity mastermind.models.DAO--><polygon fill="#FFFFFF" filter="url(#fl3nwrnozexhx)" points="1054.5,106,1216.5,106,1223.5,129.6094,1240.5,129.6094,1240.5,146.6094,1054.5,146.6094,1054.5,106" style="stroke: #000000; stroke-width: 1.5;"/><line style="stroke: #000000; stroke-width: 1.5;" x1="1054.5" x2="1223.5" y1="129.6094" y2="129.6094"/><text fill="#000000" font-family="sans-serif" font-size="14" lengthAdjust="spacingAndGlyphs" textLength="156" x="1058.5" y="123.5332">mastermind.models.DAO</text><!--entity mastermind.views--><polygon fill="#FFFFFF" filter="url(#fl3nwrnozexhx)" points="1276,106,1393,106,1400,129.6094,1417,129.6094,1417,146.6094,1276,146.6094,1276,106" style="stroke: #000000; stroke-width: 1.5;"/><line style="stroke: #000000; stroke-width: 1.5;" x1="1276" x2="1400" y1="129.6094" y2="129.6094"/><text fill="#000000" font-family="sans-serif" font-size="14" lengthAdjust="spacingAndGlyphs" textLength="111" x="1280" y="123.5332">mastermind.views</text><!--entity mastermind.utils--><polygon fill="#FFFFFF" filter="url(#fl3nwrnozexhx)" points="1452.5,106,1560.5,106,1567.5,129.6094,1584.5,129.6094,1584.5,146.6094,1452.5,146.6094,1452.5,106" style="stroke: #000000; stroke-width: 1.5;"/><line style="stroke: #000000; stroke-width: 1.5;" x1="1452.5" x2="1567.5" y1="129.6094" y2="129.6094"/><text fill="#000000" font-family="sans-serif" font-size="14" lengthAdjust="spacingAndGlyphs" textLength="102" x="1456.5" y="123.5332">mastermind.utils</text><!--entity java.io--><polygon fill="#FFFFFF" filter="url(#fl3nwrnozexhx)" points="1620,106,1667,106,1674,129.6094,1691,129.6094,1691,146.6094,1620,146.6094,1620,106" style="stroke: #000000; stroke-width: 1.5;"/><line style="stroke: #000000; stroke-width: 1.5;" x1="1620" x2="1674" y1="129.6094" y2="129.6094"/><text fill="#000000" font-family="sans-serif" font-size="14" lengthAdjust="spacingAndGlyphs" textLength="41" x="1624" y="123.5332">java.io</text><!--entity java.util--><polygon fill="#FFFFFF" filter="url(#fl3nwrnozexhx)" points="1726.5,106,1780.5,106,1787.5,129.6094,1804.5,129.6094,1804.5,146.6094,1726.5,146.6094,1726.5,106" style="stroke: #000000; stroke-width: 1.5;"/><line style="stroke: #000000; stroke-width: 1.5;" x1="1726.5" x2="1787.5" y1="129.6094" y2="129.6094"/><text fill="#000000" font-family="sans-serif" font-size="14" lengthAdjust="spacingAndGlyphs" textLength="48" x="1730.5" y="123.5332">java.util</text><!--entity jarClient--><rect fill="#FEFECE" filter="url(#fl3nwrnozexhx)" height="37.6094" style="stroke: #A80036; stroke-width: 1.5;" width="149" x="971" y="8"/><rect fill="#FEFECE" height="5" style="stroke: #A80036; stroke-width: 1.5;" width="10" x="966" y="13"/><rect fill="#FEFECE" height="5" style="stroke: #A80036; stroke-width: 1.5;" width="10" x="966" y="35.6094"/><text fill="#000000" font-family="sans-serif" font-size="14" lengthAdjust="spacingAndGlyphs" textLength="129" x="981" y="32.5332">mastermindClient.jar</text><!--link jarClient to mastermind--><path d="M957.312,29.903 C792.734,34.684 428.164,51.091 126.5,106 C125.004,106.2724 123.493,106.5632 121.972,106.87 " fill="none" id="jarClient-mastermind" style="stroke: #A80036; stroke-width: 1.0;"/><polygon fill="#A80036" points="109.244,109.7327,118.9024,111.6601,114.1221,108.6355,117.1468,103.8552,109.244,109.7327" style="stroke: #A80036; stroke-width: 1.0;"/><line style="stroke: #A80036; stroke-width: 1.0;" x1="114.1221" x2="121.9275" y1="108.6355" y2="106.8801"/><polygon fill="#A80036" points="970.712,29.526,964.6023,25.6957,958.7167,29.8623,964.8264,33.6926,970.712,29.526" style="stroke: #A80036; stroke-width: 1.0;"/><!--link jarClient to mastermind.distributed--><path d="M957.796,35.457 C823.287,47.3814 558.133,72.8167 334.5,106 C333.092,106.209 331.673,106.4231 330.247,106.642 " fill="none" id="jarClient-mastermind.distributed" style="stroke: #A80036; stroke-width: 1.0;"/><polygon fill="#A80036" points="317.24,108.7256,326.7593,111.2521,322.1771,107.9349,325.4942,103.3527,317.24,108.7256" style="stroke: #A80036; stroke-width: 1.0;"/><line style="stroke: #A80036; stroke-width: 1.0;" x1="322.1771" x2="330.0765" y1="107.9349" y2="106.6693"/><polygon fill="#A80036" points="970.792,34.311,964.4639,30.8533,958.8384,35.3647,965.1664,38.8224,970.792,34.311" style="stroke: #A80036; stroke-width: 1.0;"/><!--link jarClient to mastermind.controllers--><path d="M957.701,40.759 C857.211,55.5602 687.754,81.1265 542.5,106 C540.985,106.2594 539.458,106.5227 537.921,106.7894 " fill="none" id="jarClient-mastermind.controllers" style="stroke: #A80036; stroke-width: 1.0;"/><polygon fill="#A80036" points="525.005,109.0664,534.5628,111.443,529.9291,108.1983,533.1738,103.5645,525.005,109.0664" style="stroke: #A80036; stroke-width: 1.0;"/><line style="stroke: #A80036; stroke-width: 1.0;" x1="529.9291" x2="537.807" y1="108.1983" y2="106.8094"/><polygon fill="#A80036" points="970.811,38.831,964.2929,35.7465,958.9387,40.577,965.4568,43.6614,970.811,38.831" style="stroke: #A80036; stroke-width: 1.0;"/><!--link jarClient to mastermind.controllers.implementation--><path d="M967.78,49.7125 C911.708,65.3773 836.138,86.4895 778.998,102.4525 " fill="none" id="jarClient-mastermind.controllers.implementation" style="stroke: #A80036; stroke-width: 1.0;"/><polygon fill="#A80036" points="766.367,105.9814,776.1114,107.4118,771.1825,104.6358,773.9585,99.7069,766.367,105.9814" style="stroke: #A80036; stroke-width: 1.0;"/><line style="stroke: #A80036; stroke-width: 1.0;" x1="771.1825" x2="778.8875" y1="104.6358" y2="102.4834"/><polygon fill="#A80036" points="980.674,46.111,973.8191,43.8725,969.1163,49.3391,975.9712,51.5776,980.674,46.111" style="stroke: #A80036; stroke-width: 1.0;"/><!--link jarClient to mastermind.models--><path d="M1016.47,55.7454 C1003.124,68.5064 987.29,83.6416 973.789,96.547 " fill="none" id="jarClient-mastermind.models" style="stroke: #A80036; stroke-width: 1.0;"/><polygon fill="#A80036" points="963.999,105.905,973.2688,102.5776,967.6134,102.4501,967.7409,96.7947,963.999,105.905" style="stroke: #A80036; stroke-width: 1.0;"/><line style="stroke: #A80036; stroke-width: 1.0;" x1="967.6134" x2="973.397" y1="102.4501" y2="96.9222"/><polygon fill="#A80036" points="1026.31,46.339,1019.209,47.5945,1017.6369,54.6322,1024.7378,53.3766,1026.31,46.339" style="stroke: #A80036; stroke-width: 1.0;"/><!--link jarClient to mastermind.models.DAO--><path d="M1074.53,55.7454 C1087.88,68.5064 1103.71,83.6416 1117.21,96.547 " fill="none" id="jarClient-mastermind.models.DAO" style="stroke: #A80036; stroke-width: 1.0;"/><polygon fill="#A80036" points="1127,105.905,1123.2595,96.7941,1123.3862,102.4495,1117.7308,102.5762,1127,105.905" style="stroke: #A80036; stroke-width: 1.0;"/><line style="stroke: #A80036; stroke-width: 1.0;" x1="1123.3862" x2="1117.605" y1="102.4495" y2="96.9222"/><polygon fill="#A80036" points="1064.69,46.339,1066.2622,53.3766,1073.3631,54.6322,1071.791,47.5945,1064.69,46.339" style="stroke: #A80036; stroke-width: 1.0;"/><!--link jarClient to mastermind.views--><path d="M1113.84,50.1377 C1161.49,65.5707 1224.97,86.1343 1273.59,101.8821 " fill="none" id="jarClient-mastermind.views" style="stroke: #A80036; stroke-width: 1.0;"/><polygon fill="#A80036" points="1286.24,105.9814,1278.9146,99.3982,1281.4843,104.4377,1276.4447,107.0074,1286.24,105.9814" style="stroke: #A80036; stroke-width: 1.0;"/><line style="stroke: #A80036; stroke-width: 1.0;" x1="1281.4843" x2="1273.875" y1="104.4377" y2="101.9753"/><polygon fill="#A80036" points="1101.41,46.111,1105.8879,51.7633,1112.8277,49.8038,1108.3498,44.1515,1101.41,46.111" style="stroke: #A80036; stroke-width: 1.0;"/><!--link jarClient to mastermind.utils--><path d="M1133.01,44.764 C1211.96,60.0723 1331.19,83.6562 1434.5,106 C1436.11,106.3471 1437.73,106.7003 1439.36,107.0584 " fill="none" id="jarClient-mastermind.utils" style="stroke: #A80036; stroke-width: 1.0;"/><polygon fill="#A80036" points="1452.06,109.8803,1444.1395,104.0266,1447.1786,108.7978,1442.4074,111.8369,1452.06,109.8803" style="stroke: #A80036; stroke-width: 1.0;"/><line style="stroke: #A80036; stroke-width: 1.0;" x1="1447.1786" x2="1439.365" y1="108.7978" y2="107.0594"/><polygon fill="#A80036" points="1120.21,42.286,1125.3401,47.3537,1131.9911,44.5674,1126.861,39.4997,1120.21,42.286" style="stroke: #A80036; stroke-width: 1.0;"/><!--link jarClient to java.io--><path d="M1133.42,34.479 C1244.14,43.964 1439.59,65.1238 1602.5,106 C1604.1,106.4027 1605.73,106.837 1607.36,107.297 " fill="none" id="jarClient-java.io" style="stroke: #A80036; stroke-width: 1.0;"/><polygon fill="#A80036" points="1619.9,111.2291,1612.5072,104.7217,1615.1286,109.7345,1610.1158,112.3559,1619.9,111.2291" style="stroke: #A80036; stroke-width: 1.0;"/><line style="stroke: #A80036; stroke-width: 1.0;" x1="1615.1286" x2="1607.5" y1="109.7345" y2="107.3401"/><polygon fill="#A80036" points="1120.35,33.38,1125.995,37.8671,1132.3081,34.3822,1126.6631,29.8951,1120.35,33.38" style="stroke: #A80036; stroke-width: 1.0;"/><!--link jarClient to java.util--><path d="M1133.34,32.385 C1261.24,40.105 1505.61,59.9113 1708.5,106 C1710.23,106.392 1711.97,106.8175 1713.73,107.2701 " fill="none" id="jarClient-java.util" style="stroke: #A80036; stroke-width: 1.0;"/><polygon fill="#A80036" points="1726.26,110.8636,1718.7124,104.5364,1721.4539,109.4845,1716.5058,112.2261,1726.26,110.8636" style="stroke: #A80036; stroke-width: 1.0;"/><line style="stroke: #A80036; stroke-width: 1.0;" x1="1721.4539" x2="1713.765" y1="109.4845" y2="107.2792"/><polygon fill="#A80036" points="1120.2,31.61,1125.9521,35.959,1132.1789,32.322,1126.4268,27.9731,1120.2,31.61" style="stroke: #A80036; stroke-width: 1.0;"/><!--
@startuml

package "  "  as mastermind {
}
package "  "  as mastermind.distributed {
}
package "  "  as mastermind.controllers {
}
package "  "  as mastermind.controllers.implementation {
}
package "  "  as mastermind.models {
}
package "  "  as mastermind.models.DAO {
}
package "  "  as mastermind.views {
}
package "  "  as mastermind.utils {
}
package "  "  as java.io {
}
package "  "  as java.util {
}

[mastermindClient.jar] as jarClient

jarClient *- -> mastermind
jarClient *- -> mastermind.distributed
jarClient *- -> mastermind.controllers
jarClient *- -> mastermind.controllers.implementation
jarClient *- -> mastermind.models
jarClient *- -> mastermind.models.DAO
jarClient *- -> mastermind.views
jarClient *- -> mastermind.utils
jarClient *- -> java.io
jarClient *- -> java.util

@enduml

PlantUML version 1.2019.05(Sat Apr 20 18:45:36 CEST 2019)
(GPL source distribution)
Java Runtime: OpenJDK Runtime Environment
JVM: OpenJDK 64-Bit Server VM
Java Version: 1.8.0_222-b10
Operating System: Windows 10
OS Version: 10.0
Default Encoding: windows-1252
Language: es
Country: ES
--></g></svg>