<?xml version="1.0" encoding="UTF-8" standalone="no"?><svg xmlns="http://www.w3.org/2000/svg" xmlns:xlink="http://www.w3.org/1999/xlink" contentScriptType="application/ecmascript" contentStyleType="text/css" height="158px" preserveAspectRatio="none" style="width:1605px;height:158px;" version="1.1" viewBox="0 0 1605 158" width="1605px" zoomAndPan="magnify"><defs><filter height="300%" id="f1axqu4nprhuhs" width="300%" x="-1" y="-1"><feGaussianBlur result="blurOut" stdDeviation="2.0"/><feColorMatrix in="blurOut" result="blurOut2" type="matrix" values="0 0 0 0 0 0 0 0 0 0 0 0 0 0 0 0 0 0 .4 0"/><feOffset dx="4.0" dy="4.0" in="blurOut2" result="blurOut3"/><feBlend in="SourceGraphic" in2="blurOut3" mode="normal"/></filter></defs><g><!--entity mastermind--><polygon fill="#FFFFFF" filter="url(#f1axqu4nprhuhs)" points="6,106,85,106,92,129.6094,109,129.6094,109,146.6094,6,146.6094,6,106" style="stroke: #000000; stroke-width: 1.5;"/><line style="stroke: #000000; stroke-width: 1.5;" x1="6" x2="92" y1="129.6094" y2="129.6094"/><text fill="#000000" font-family="sans-serif" font-size="14" lengthAdjust="spacingAndGlyphs" textLength="73" x="10" y="123.5332">mastermind</text><!--entity mastermind.distributed--><polygon fill="#FFFFFF" filter="url(#f1axqu4nprhuhs)" points="144,106,293,106,300,129.6094,317,129.6094,317,146.6094,144,146.6094,144,106" style="stroke: #000000; stroke-width: 1.5;"/><line style="stroke: #000000; stroke-width: 1.5;" x1="144" x2="300" y1="129.6094" y2="129.6094"/><text fill="#000000" font-family="sans-serif" font-size="14" lengthAdjust="spacingAndGlyphs" textLength="143" x="148" y="123.5332">mastermind.distributed</text><!--entity mastermind.controllers--><polygon fill="#FFFFFF" filter="url(#f1axqu4nprhuhs)" points="352,106,501,106,508,129.6094,525,129.6094,525,146.6094,352,146.6094,352,106" style="stroke: #000000; stroke-width: 1.5;"/><line style="stroke: #000000; stroke-width: 1.5;" x1="352" x2="508" y1="129.6094" y2="129.6094"/><text fill="#000000" font-family="sans-serif" font-size="14" lengthAdjust="spacingAndGlyphs" textLength="143" x="356" y="123.5332">mastermind.controllers</text><!--entity mastermind.controllers.implementation--><polygon fill="#FFFFFF" filter="url(#f1axqu4nprhuhs)" points="560.5,106,808.5,106,815.5,129.6094,832.5,129.6094,832.5,146.6094,560.5,146.6094,560.5,106" style="stroke: #000000; stroke-width: 1.5;"/><line style="stroke: #000000; stroke-width: 1.5;" x1="560.5" x2="815.5" y1="129.6094" y2="129.6094"/><text fill="#000000" font-family="sans-serif" font-size="14" lengthAdjust="spacingAndGlyphs" textLength="242" x="564.5" y="123.5332">mastermind.controllers.implementation</text><!--entity mastermind.models--><polygon fill="#FFFFFF" filter="url(#f1axqu4nprhuhs)" points="867.5,106,995.5,106,1002.5,129.6094,1019.5,129.6094,1019.5,146.6094,867.5,146.6094,867.5,106" style="stroke: #000000; stroke-width: 1.5;"/><line style="stroke: #000000; stroke-width: 1.5;" x1="867.5" x2="1002.5" y1="129.6094" y2="129.6094"/><text fill="#000000" font-family="sans-serif" font-size="14" lengthAdjust="spacingAndGlyphs" textLength="122" x="871.5" y="123.5332">mastermind.models</text><!--entity mastermind.views--><polygon fill="#FFFFFF" filter="url(#f1axqu4nprhuhs)" points="1055,106,1172,106,1179,129.6094,1196,129.6094,1196,146.6094,1055,146.6094,1055,106" style="stroke: #000000; stroke-width: 1.5;"/><line style="stroke: #000000; stroke-width: 1.5;" x1="1055" x2="1179" y1="129.6094" y2="129.6094"/><text fill="#000000" font-family="sans-serif" font-size="14" lengthAdjust="spacingAndGlyphs" textLength="111" x="1059" y="123.5332">mastermind.views</text><!--entity mastermind.utils--><polygon fill="#FFFFFF" filter="url(#f1axqu4nprhuhs)" points="1231.5,106,1339.5,106,1346.5,129.6094,1363.5,129.6094,1363.5,146.6094,1231.5,146.6094,1231.5,106" style="stroke: #000000; stroke-width: 1.5;"/><line style="stroke: #000000; stroke-width: 1.5;" x1="1231.5" x2="1346.5" y1="129.6094" y2="129.6094"/><text fill="#000000" font-family="sans-serif" font-size="14" lengthAdjust="spacingAndGlyphs" textLength="102" x="1235.5" y="123.5332">mastermind.utils</text><!--entity java.io--><polygon fill="#FFFFFF" filter="url(#f1axqu4nprhuhs)" points="1399,106,1446,106,1453,129.6094,1470,129.6094,1470,146.6094,1399,146.6094,1399,106" style="stroke: #000000; stroke-width: 1.5;"/><line style="stroke: #000000; stroke-width: 1.5;" x1="1399" x2="1453" y1="129.6094" y2="129.6094"/><text fill="#000000" font-family="sans-serif" font-size="14" lengthAdjust="spacingAndGlyphs" textLength="41" x="1403" y="123.5332">java.io</text><!--entity java.util--><polygon fill="#FFFFFF" filter="url(#f1axqu4nprhuhs)" points="1505.5,106,1559.5,106,1566.5,129.6094,1583.5,129.6094,1583.5,146.6094,1505.5,146.6094,1505.5,106" style="stroke: #000000; stroke-width: 1.5;"/><line style="stroke: #000000; stroke-width: 1.5;" x1="1505.5" x2="1566.5" y1="129.6094" y2="129.6094"/><text fill="#000000" font-family="sans-serif" font-size="14" lengthAdjust="spacingAndGlyphs" textLength="48" x="1509.5" y="123.5332">java.util</text><!--entity jarClient--><rect fill="#FEFECE" filter="url(#f1axqu4nprhuhs)" height="37.6094" style="stroke: #A80036; stroke-width: 1.5;" width="149" x="869" y="8"/><rect fill="#FEFECE" height="5" style="stroke: #A80036; stroke-width: 1.5;" width="10" x="864" y="13"/><rect fill="#FEFECE" height="5" style="stroke: #A80036; stroke-width: 1.5;" width="10" x="864" y="35.6094"/><text fill="#000000" font-family="sans-serif" font-size="14" lengthAdjust="spacingAndGlyphs" textLength="129" x="879" y="32.5332">mastermindClient.jar</text><!--link jarClient to mastermind--><path d="M855.64,31.196 C705.186,37.822 389.04,56.7856 126.5,106 C125.005,106.2802 123.496,106.5782 121.976,106.8914 " fill="none" id="jarClient-mastermind" style="stroke: #A80036; stroke-width: 1.0;"/><polygon fill="#A80036" points="109.255,109.7924,118.919,111.6915,114.1299,108.6809,117.1406,103.8917,109.255,109.7924" style="stroke: #A80036; stroke-width: 1.0;"/><line style="stroke: #A80036; stroke-width: 1.0;" x1="114.1299" x2="121.9295" y1="108.6809" y2="106.902"/><polygon fill="#A80036" points="868.804,30.629,862.6373,26.8912,856.8151,31.146,862.9819,34.8838,868.804,30.629" style="stroke: #A80036; stroke-width: 1.0;"/><!--link jarClient to mastermind.distributed--><path d="M855.506,37.649 C736.896,51.0243 519.274,76.8697 334.5,106 C333.094,106.2217 331.677,106.4479 330.252,106.678 " fill="none" id="jarClient-mastermind.distributed" style="stroke: #A80036; stroke-width: 1.0;"/><polygon fill="#A80036" points="317.258,108.8438,326.7931,111.3098,322.19,108.0218,325.478,103.4187,317.258,108.8438" style="stroke: #A80036; stroke-width: 1.0;"/><line style="stroke: #A80036; stroke-width: 1.0;" x1="322.19" x2="330.081" y1="108.0218" y2="106.7065"/><polygon fill="#A80036" points="868.771,36.158,862.3619,32.8529,856.846,37.4978,863.2551,40.8029,868.771,36.158" style="stroke: #A80036; stroke-width: 1.0;"/><!--link jarClient to mastermind.controllers--><path d="M855.977,44.898 C767.384,62.0025 630.601,88.4111 537.957,106.2979 " fill="none" id="jarClient-mastermind.controllers" style="stroke: #A80036; stroke-width: 1.0;"/><polygon fill="#A80036" points="525.187,108.7634,534.7821,110.9848,530.0963,107.8156,533.2656,103.1299,525.187,108.7634" style="stroke: #A80036; stroke-width: 1.0;"/><line style="stroke: #A80036; stroke-width: 1.0;" x1="530.0963" x2="537.9515" y1="107.8156" y2="106.2989"/><polygon fill="#A80036" points="868.986,42.386,862.3366,39.5958,857.2036,44.6606,863.853,47.4508,868.986,42.386" style="stroke: #A80036; stroke-width: 1.0;"/><!--link jarClient to mastermind.controllers.implementation--><path d="M885.517,50.8881 C847.255,65.9916 797.183,85.7565 758.189,101.1489 " fill="none" id="jarClient-mastermind.controllers.implementation" style="stroke: #A80036; stroke-width: 1.0;"/><polygon fill="#A80036" points="745.947,105.9814,755.7871,106.3977,750.5978,104.1457,752.8499,98.9564,745.947,105.9814" style="stroke: #A80036; stroke-width: 1.0;"/><line style="stroke: #A80036; stroke-width: 1.0;" x1="750.5978" x2="758.0395" y1="104.1457" y2="101.2081"/><polygon fill="#A80036" points="897.62,46.111,890.5702,44.5941,886.4586,50.5181,893.5083,52.035,897.62,46.111" style="stroke: #A80036; stroke-width: 1.0;"/><!--link jarClient to mastermind.models--><path d="M943.5,59.4311 C943.5,70.0549 943.5,81.9399 943.5,92.6692 " fill="none" id="jarClient-mastermind.models" style="stroke: #A80036; stroke-width: 1.0;"/><polygon fill="#A80036" points="943.5,105.905,947.5,96.905,943.5,100.905,939.5,96.905,943.5,105.905" style="stroke: #A80036; stroke-width: 1.0;"/><line style="stroke: #A80036; stroke-width: 1.0;" x1="943.5" x2="943.5" y1="100.905" y2="92.905"/><polygon fill="#A80036" points="943.5,46.339,939.5,52.339,943.5,58.339,947.5,52.339,943.5,46.339" style="stroke: #A80036; stroke-width: 1.0;"/><!--link jarClient to mastermind.views--><path d="M989.069,52.4118 C1015.99,66.8355 1050.05,85.0825 1077.41,99.7361 " fill="none" id="jarClient-mastermind.views" style="stroke: #A80036; stroke-width: 1.0;"/><polygon fill="#A80036" points="1089.07,105.9814,1083.0201,98.2097,1084.6609,103.6234,1079.2473,105.2642,1089.07,105.9814" style="stroke: #A80036; stroke-width: 1.0;"/><line style="stroke: #A80036; stroke-width: 1.0;" x1="1084.6609" x2="1077.605" y1="103.6234" y2="99.8425"/><polygon fill="#A80036" points="977.306,46.111,980.7061,52.4702,987.8839,51.7774,984.4837,45.4182,977.306,46.111" style="stroke: #A80036; stroke-width: 1.0;"/><!--link jarClient to mastermind.utils--><path d="M1021.89,49.5912 C1080.5,65.7337 1160.3,87.711 1218.95,103.8643 " fill="none" id="jarClient-mastermind.utils" style="stroke: #A80036; stroke-width: 1.0;"/><polygon fill="#A80036" points="1231.5,107.3213,1223.881,101.0802,1226.6786,105.9969,1221.7619,108.7945,1231.5,107.3213" style="stroke: #A80036; stroke-width: 1.0;"/><line style="stroke: #A80036; stroke-width: 1.0;" x1="1226.6786" x2="1218.965" y1="105.9969" y2="103.8693"/><polygon fill="#A80036" points="1009.26,46.111,1013.9804,51.5624,1020.828,49.3019,1016.1076,43.8505,1009.26,46.111" style="stroke: #A80036; stroke-width: 1.0;"/><!--link jarClient to java.io--><path d="M1031.03,38.955 C1120.17,51.188 1261.89,73.6171 1381.5,106 C1383.1,106.4324 1384.71,106.8925 1386.34,107.3747 " fill="none" id="jarClient-java.io" style="stroke: #A80036; stroke-width: 1.0;"/><polygon fill="#A80036" points="1398.85,111.4148,1391.5102,104.8476,1394.0909,109.8815,1389.057,112.4622,1398.85,111.4148" style="stroke: #A80036; stroke-width: 1.0;"/><line style="stroke: #A80036; stroke-width: 1.0;" x1="1394.0909" x2="1386.485" y1="109.8815" y2="107.4208"/><polygon fill="#A80036" points="1018,37.188,1023.4096,41.9563,1029.8917,38.7968,1024.4821,34.0285,1018,37.188" style="stroke: #A80036; stroke-width: 1.0;"/><!--link jarClient to java.util--><path d="M1031.37,35.493 C1139.72,45.896 1328.99,67.8781 1487.5,106 C1489.22,106.4138 1490.96,106.8582 1492.72,107.3272 " fill="none" id="jarClient-java.util" style="stroke: #A80036; stroke-width: 1.0;"/><polygon fill="#A80036" points="1505.23,110.9967,1497.7188,104.6263,1500.4319,109.59,1495.4682,112.3032,1505.23,110.9967" style="stroke: #A80036; stroke-width: 1.0;"/><line style="stroke: #A80036; stroke-width: 1.0;" x1="1500.4319" x2="1492.75" y1="109.59" y2="107.3376"/><polygon fill="#A80036" points="1018.24,34.251,1023.8401,38.794,1030.1875,35.3719,1024.5874,30.8289,1018.24,34.251" style="stroke: #A80036; stroke-width: 1.0;"/><!--
@startuml

package "  "  as mastermind {
}
package "  "  as mastermind.distributed {
}
package "  "  as mastermind.controllers {
}
package "  "  as mastermind.controllers.implementation {
}
package "  "  as mastermind.models {
}
package "  "  as mastermind.views {
}
package "  "  as mastermind.utils {
}
package "  "  as java.io {
}
package "  "  as java.util {
}

[mastermindClient.jar] as jarClient

jarClient *- -> mastermind
jarClient *- -> mastermind.distributed
jarClient *- -> mastermind.controllers
jarClient *- -> mastermind.controllers.implementation
jarClient *- -> mastermind.models
jarClient *- -> mastermind.views
jarClient *- -> mastermind.utils
jarClient *- -> java.io
jarClient *- -> java.util

@enduml

PlantUML version 1.2019.05(Sat Apr 20 18:45:36 CEST 2019)
(GPL source distribution)
Java Runtime: OpenJDK Runtime Environment
JVM: OpenJDK 64-Bit Server VM
Java Version: 1.8.0_222-b10
Operating System: Windows 10
OS Version: 10.0
Default Encoding: windows-1252
Language: es
Country: ES
--></g></svg>