<?xml version="1.0" encoding="UTF-8" standalone="no"?><svg xmlns="http://www.w3.org/2000/svg" xmlns:xlink="http://www.w3.org/1999/xlink" contentScriptType="application/ecmascript" contentStyleType="text/css" height="158px" preserveAspectRatio="none" style="width:2112px;height:158px;" version="1.1" viewBox="0 0 2112 158" width="2112px" zoomAndPan="magnify"><defs><filter height="300%" id="fb87322l8gd5d" width="300%" x="-1" y="-1"><feGaussianBlur result="blurOut" stdDeviation="2.0"/><feColorMatrix in="blurOut" result="blurOut2" type="matrix" values="0 0 0 0 0 0 0 0 0 0 0 0 0 0 0 0 0 0 .4 0"/><feOffset dx="4.0" dy="4.0" in="blurOut2" result="blurOut3"/><feBlend in="SourceGraphic" in2="blurOut3" mode="normal"/></filter></defs><g><!--entity mastermind--><polygon fill="#FFFFFF" filter="url(#fb87322l8gd5d)" points="6,106,85,106,92,129.6094,109,129.6094,109,146.6094,6,146.6094,6,106" style="stroke: #000000; stroke-width: 1.5;"/><line style="stroke: #000000; stroke-width: 1.5;" x1="6" x2="92" y1="129.6094" y2="129.6094"/><text fill="#000000" font-family="sans-serif" font-size="14" lengthAdjust="spacingAndGlyphs" textLength="73" x="10" y="123.5332">mastermind</text><!--entity mastermind.distributed--><polygon fill="#FFFFFF" filter="url(#fb87322l8gd5d)" points="144,106,293,106,300,129.6094,317,129.6094,317,146.6094,144,146.6094,144,106" style="stroke: #000000; stroke-width: 1.5;"/><line style="stroke: #000000; stroke-width: 1.5;" x1="144" x2="300" y1="129.6094" y2="129.6094"/><text fill="#000000" font-family="sans-serif" font-size="14" lengthAdjust="spacingAndGlyphs" textLength="143" x="148" y="123.5332">mastermind.distributed</text><!--entity mastermind.distributed.dispatchers--><polygon fill="#FFFFFF" filter="url(#fb87322l8gd5d)" points="352.5,106,578.5,106,585.5,129.6094,602.5,129.6094,602.5,146.6094,352.5,146.6094,352.5,106" style="stroke: #000000; stroke-width: 1.5;"/><line style="stroke: #000000; stroke-width: 1.5;" x1="352.5" x2="585.5" y1="129.6094" y2="129.6094"/><text fill="#000000" font-family="sans-serif" font-size="14" lengthAdjust="spacingAndGlyphs" textLength="220" x="356.5" y="123.5332">mastermind.distributed.dispatchers</text><!--entity mastermind.controllers--><polygon fill="#FFFFFF" filter="url(#fb87322l8gd5d)" points="638,106,787,106,794,129.6094,811,129.6094,811,146.6094,638,146.6094,638,106" style="stroke: #000000; stroke-width: 1.5;"/><line style="stroke: #000000; stroke-width: 1.5;" x1="638" x2="794" y1="129.6094" y2="129.6094"/><text fill="#000000" font-family="sans-serif" font-size="14" lengthAdjust="spacingAndGlyphs" textLength="143" x="642" y="123.5332">mastermind.controllers</text><!--entity mastermind.controllers.implementation--><polygon fill="#FFFFFF" filter="url(#fb87322l8gd5d)" points="846.5,106,1094.5,106,1101.5,129.6094,1118.5,129.6094,1118.5,146.6094,846.5,146.6094,846.5,106" style="stroke: #000000; stroke-width: 1.5;"/><line style="stroke: #000000; stroke-width: 1.5;" x1="846.5" x2="1101.5" y1="129.6094" y2="129.6094"/><text fill="#000000" font-family="sans-serif" font-size="14" lengthAdjust="spacingAndGlyphs" textLength="242" x="850.5" y="123.5332">mastermind.controllers.implementation</text><!--entity mastermind.models--><polygon fill="#FFFFFF" filter="url(#fb87322l8gd5d)" points="1153.5,106,1281.5,106,1288.5,129.6094,1305.5,129.6094,1305.5,146.6094,1153.5,146.6094,1153.5,106" style="stroke: #000000; stroke-width: 1.5;"/><line style="stroke: #000000; stroke-width: 1.5;" x1="1153.5" x2="1288.5" y1="129.6094" y2="129.6094"/><text fill="#000000" font-family="sans-serif" font-size="14" lengthAdjust="spacingAndGlyphs" textLength="122" x="1157.5" y="123.5332">mastermind.models</text><!--entity mastermind.models.DAO--><polygon fill="#FFFFFF" filter="url(#fb87322l8gd5d)" points="1340.5,106,1502.5,106,1509.5,129.6094,1526.5,129.6094,1526.5,146.6094,1340.5,146.6094,1340.5,106" style="stroke: #000000; stroke-width: 1.5;"/><line style="stroke: #000000; stroke-width: 1.5;" x1="1340.5" x2="1509.5" y1="129.6094" y2="129.6094"/><text fill="#000000" font-family="sans-serif" font-size="14" lengthAdjust="spacingAndGlyphs" textLength="156" x="1344.5" y="123.5332">mastermind.models.DAO</text><!--entity mastermind.views--><polygon fill="#FFFFFF" filter="url(#fb87322l8gd5d)" points="1562,106,1679,106,1686,129.6094,1703,129.6094,1703,146.6094,1562,146.6094,1562,106" style="stroke: #000000; stroke-width: 1.5;"/><line style="stroke: #000000; stroke-width: 1.5;" x1="1562" x2="1686" y1="129.6094" y2="129.6094"/><text fill="#000000" font-family="sans-serif" font-size="14" lengthAdjust="spacingAndGlyphs" textLength="111" x="1566" y="123.5332">mastermind.views</text><!--entity mastermind.utils--><polygon fill="#FFFFFF" filter="url(#fb87322l8gd5d)" points="1738.5,106,1846.5,106,1853.5,129.6094,1870.5,129.6094,1870.5,146.6094,1738.5,146.6094,1738.5,106" style="stroke: #000000; stroke-width: 1.5;"/><line style="stroke: #000000; stroke-width: 1.5;" x1="1738.5" x2="1853.5" y1="129.6094" y2="129.6094"/><text fill="#000000" font-family="sans-serif" font-size="14" lengthAdjust="spacingAndGlyphs" textLength="102" x="1742.5" y="123.5332">mastermind.utils</text><!--entity java.io--><polygon fill="#FFFFFF" filter="url(#fb87322l8gd5d)" points="1906,106,1953,106,1960,129.6094,1977,129.6094,1977,146.6094,1906,146.6094,1906,106" style="stroke: #000000; stroke-width: 1.5;"/><line style="stroke: #000000; stroke-width: 1.5;" x1="1906" x2="1960" y1="129.6094" y2="129.6094"/><text fill="#000000" font-family="sans-serif" font-size="14" lengthAdjust="spacingAndGlyphs" textLength="41" x="1910" y="123.5332">java.io</text><!--entity java.util--><polygon fill="#FFFFFF" filter="url(#fb87322l8gd5d)" points="2012.5,106,2066.5,106,2073.5,129.6094,2090.5,129.6094,2090.5,146.6094,2012.5,146.6094,2012.5,106" style="stroke: #000000; stroke-width: 1.5;"/><line style="stroke: #000000; stroke-width: 1.5;" x1="2012.5" x2="2073.5" y1="129.6094" y2="129.6094"/><text fill="#000000" font-family="sans-serif" font-size="14" lengthAdjust="spacingAndGlyphs" textLength="48" x="2016.5" y="123.5332">java.util</text><!--entity jarServer--><rect fill="#FEFECE" filter="url(#fb87322l8gd5d)" height="37.6094" style="stroke: #A80036; stroke-width: 1.5;" width="155" x="1152" y="8"/><rect fill="#FEFECE" height="5" style="stroke: #A80036; stroke-width: 1.5;" width="10" x="1147" y="13"/><rect fill="#FEFECE" height="5" style="stroke: #A80036; stroke-width: 1.5;" width="10" x="1147" y="35.6094"/><text fill="#000000" font-family="sans-serif" font-size="14" lengthAdjust="spacingAndGlyphs" textLength="135" x="1162" y="32.5332">mastermindServer.jar</text><!--link jarServer to mastermind--><path d="M1138.76,28.157 C949.246,29.854 498.155,41.05 126.5,106 C125.002,106.2618 123.489,106.5431 121.967,106.8414 " fill="none" id="jarServer-mastermind" style="stroke: #A80036; stroke-width: 1.0;"/><polygon fill="#A80036" points="109.23,109.6526,118.8805,111.6191,114.1125,108.5751,117.1566,103.8071,109.23,109.6526" style="stroke: #A80036; stroke-width: 1.0;"/><line style="stroke: #A80036; stroke-width: 1.0;" x1="114.1125" x2="121.9245" y1="108.5751" y2="106.8508"/><polygon fill="#A80036" points="1151.95,28.051,1145.9151,24.1039,1139.9505,28.1565,1145.9854,32.1036,1151.95,28.051" style="stroke: #A80036; stroke-width: 1.0;"/><!--link jarServer to mastermind.distributed--><path d="M1138.78,32.946 C976.769,42.438 627.214,65.902 334.5,106 C333.089,106.1932 331.669,106.3926 330.241,106.5976 " fill="none" id="jarServer-mastermind.distributed" style="stroke: #A80036; stroke-width: 1.0;"/><polygon fill="#A80036" points="317.219,108.5797,326.7186,111.1792,322.162,107.827,325.5142,103.2703,317.219,108.5797" style="stroke: #A80036; stroke-width: 1.0;"/><line style="stroke: #A80036; stroke-width: 1.0;" x1="322.162" x2="330.071" y1="107.827" y2="106.6234"/><polygon fill="#A80036" points="1152,32.179,1145.7772,28.5352,1140.0204,32.8779,1146.2431,36.5216,1152,32.179" style="stroke: #A80036; stroke-width: 1.0;"/><!--link jarServer to mastermind.distributed.dispatchers--><path d="M1138.63,39.404 C1019.58,54.3984 804.348,81.6918 620.5,106 C618.949,106.205 617.389,106.4116 615.821,106.6196 " fill="none" id="jarServer-mastermind.distributed.dispatchers" style="stroke: #A80036; stroke-width: 1.0;"/><polygon fill="#A80036" points="602.662,108.3726,612.1115,111.1488,607.6182,107.7122,611.0548,103.2189,602.662,108.3726" style="stroke: #A80036; stroke-width: 1.0;"/><line style="stroke: #A80036; stroke-width: 1.0;" x1="607.6182" x2="615.548" y1="107.7122" y2="106.656"/><polygon fill="#A80036" points="1151.6,37.771,1145.1497,34.5471,1139.6929,39.2612,1146.1432,42.4851,1151.6,37.771" style="stroke: #A80036; stroke-width: 1.0;"/><!--link jarServer to mastermind.controllers--><path d="M1138.94,45.484 C1050.4,62.5794 915.882,88.55 824.295,106.2326 " fill="none" id="jarServer-mastermind.controllers" style="stroke: #A80036; stroke-width: 1.0;"/><polygon fill="#A80036" points="811.385,108.7251,820.9801,110.9465,816.2943,107.7773,819.4636,103.0916,811.385,108.7251" style="stroke: #A80036; stroke-width: 1.0;"/><line style="stroke: #A80036; stroke-width: 1.0;" x1="816.2943" x2="824.1495" y1="107.7773" y2="106.2607"/><polygon fill="#A80036" points="1151.98,42.967,1145.3321,40.1732,1140.1963,45.2353,1146.8443,48.029,1151.98,42.967" style="stroke: #A80036; stroke-width: 1.0;"/><!--link jarServer to mastermind.controllers.implementation--><path d="M1171.52,50.8881 C1133.25,65.9916 1083.18,85.7565 1044.19,101.1489 " fill="none" id="jarServer-mastermind.controllers.implementation" style="stroke: #A80036; stroke-width: 1.0;"/><polygon fill="#A80036" points="1031.95,105.9814,1041.79,106.3987,1036.601,104.1461,1038.8536,98.9571,1031.95,105.9814" style="stroke: #A80036; stroke-width: 1.0;"/><line style="stroke: #A80036; stroke-width: 1.0;" x1="1036.601" x2="1044.04" y1="104.1461" y2="101.2081"/><polygon fill="#A80036" points="1183.62,46.111,1176.5706,44.5926,1172.4577,50.5158,1179.5071,52.0342,1183.62,46.111" style="stroke: #A80036; stroke-width: 1.0;"/><!--link jarServer to mastermind.models--><path d="M1229.5,59.4311 C1229.5,70.0549 1229.5,81.9399 1229.5,92.6692 " fill="none" id="jarServer-mastermind.models" style="stroke: #A80036; stroke-width: 1.0;"/><polygon fill="#A80036" points="1229.5,105.905,1233.5,96.905,1229.5,100.905,1225.5,96.905,1229.5,105.905" style="stroke: #A80036; stroke-width: 1.0;"/><line style="stroke: #A80036; stroke-width: 1.0;" x1="1229.5" x2="1229.5" y1="100.905" y2="92.905"/><polygon fill="#A80036" points="1229.5,46.339,1225.5,52.339,1229.5,58.339,1233.5,52.339,1229.5,46.339" style="stroke: #A80036; stroke-width: 1.0;"/><!--link jarServer to mastermind.models.DAO--><path d="M1279.2,51.7551 C1309.94,66.4455 1349.36,85.2868 1380.66,100.2475 " fill="none" id="jarServer-mastermind.models.DAO" style="stroke: #A80036; stroke-width: 1.0;"/><polygon fill="#A80036" points="1392.66,105.9814,1386.2616,98.4941,1388.1479,103.8271,1382.8148,105.7134,1392.66,105.9814" style="stroke: #A80036; stroke-width: 1.0;"/><line style="stroke: #A80036; stroke-width: 1.0;" x1="1388.1479" x2="1380.93" y1="103.8271" y2="100.3755"/><polygon fill="#A80036" points="1267.39,46.111,1271.0811,52.3058,1278.2191,51.2812,1274.5279,45.0864,1267.39,46.111" style="stroke: #A80036; stroke-width: 1.0;"/><!--link jarServer to mastermind.views--><path d="M1317.22,49.2227 C1386.07,65.88 1481.28,88.9155 1549.02,105.3032 " fill="none" id="jarServer-mastermind.views" style="stroke: #A80036; stroke-width: 1.0;"/><polygon fill="#A80036" points="1561.76,108.3854,1553.9531,102.3811,1556.9002,107.2096,1552.0717,110.1567,1561.76,108.3854" style="stroke: #A80036; stroke-width: 1.0;"/><line style="stroke: #A80036; stroke-width: 1.0;" x1="1556.9002" x2="1549.12" y1="107.2096" y2="105.3283"/><polygon fill="#A80036" points="1304.36,46.111,1309.2511,51.4098,1316.0235,48.9329,1311.1324,43.6341,1304.36,46.111" style="stroke: #A80036; stroke-width: 1.0;"/><!--link jarServer to mastermind.utils--><path d="M1320.1,40.437 C1418.88,54.4534 1581.46,78.8528 1720.5,106 C1722.11,106.3147 1723.74,106.6382 1725.38,106.9692 " fill="none" id="jarServer-mastermind.utils" style="stroke: #A80036; stroke-width: 1.0;"/><polygon fill="#A80036" points="1738.11,109.6316,1730.1177,103.8764,1733.2156,108.6096,1728.4824,111.7075,1738.11,109.6316" style="stroke: #A80036; stroke-width: 1.0;"/><line style="stroke: #A80036; stroke-width: 1.0;" x1="1733.2156" x2="1725.38" y1="108.6096" y2="106.9699"/><polygon fill="#A80036" points="1307.18,38.613,1312.563,43.4113,1319.0625,40.2879,1313.6796,35.4896,1307.18,38.613" style="stroke: #A80036; stroke-width: 1.0;"/><!--link jarServer to java.io--><path d="M1320.32,32.008 C1448.5,39.181 1689.13,58.227 1888.5,106 C1890.11,106.3855 1891.74,106.805 1893.37,107.2522 " fill="none" id="jarServer-java.io" style="stroke: #A80036; stroke-width: 1.0;"/><polygon fill="#A80036" points="1905.93,111.122,1898.5072,104.6488,1901.1518,109.6495,1896.1511,112.294,1905.93,111.122" style="stroke: #A80036; stroke-width: 1.0;"/><line style="stroke: #A80036; stroke-width: 1.0;" x1="1901.1518" x2="1893.51" y1="109.6495" y2="107.2934"/><polygon fill="#A80036" points="1307.14,31.29,1312.9159,35.6073,1319.1226,31.9362,1313.3467,27.6189,1307.14,31.29" style="stroke: #A80036; stroke-width: 1.0;"/><!--link jarServer to java.util--><path d="M1320.33,30.578 C1464.69,36.165 1754.7,53.4779 1994.5,106 C1996.23,106.3787 1997.98,106.7925 1999.74,107.2351 " fill="none" id="jarServer-java.util" style="stroke: #A80036; stroke-width: 1.0;"/><polygon fill="#A80036" points="2012.28,110.7819,2004.7106,104.4808,2007.4692,109.4194,2002.5306,112.178,2012.28,110.7819" style="stroke: #A80036; stroke-width: 1.0;"/><line style="stroke: #A80036; stroke-width: 1.0;" x1="2007.4692" x2="1999.77" y1="109.4194" y2="107.2432"/><polygon fill="#A80036" points="1307.24,30.088,1313.0863,34.3094,1319.2316,30.5364,1313.3853,26.315,1307.24,30.088" style="stroke: #A80036; stroke-width: 1.0;"/><!--
@startuml

package "  "  as mastermind {
}
package "  "  as mastermind.distributed {
}
package "  "  as mastermind.distributed.dispatchers {
}
package "  "  as mastermind.controllers {
}
package "  "  as mastermind.controllers.implementation {
}
package "  "  as mastermind.models {
}
package "  "  as mastermind.models.DAO {
}
package "  "  as mastermind.views {
}
package "  "  as mastermind.utils {
}
package "  "  as java.io {
}
package "  "  as java.util {
}

[mastermindServer.jar] as jarServer

jarServer *- -> mastermind
jarServer *- -> mastermind.distributed
jarServer *- -> mastermind.distributed.dispatchers
jarServer *- -> mastermind.controllers
jarServer *- -> mastermind.controllers.implementation
jarServer *- -> mastermind.models
jarServer *- -> mastermind.models.DAO
jarServer *- -> mastermind.views
jarServer *- -> mastermind.utils
jarServer *- -> java.io
jarServer *- -> java.util
@enduml

PlantUML version 1.2019.05(Sat Apr 20 18:45:36 CEST 2019)
(GPL source distribution)
Java Runtime: OpenJDK Runtime Environment
JVM: OpenJDK 64-Bit Server VM
Java Version: 1.8.0_222-b10
Operating System: Windows 10
OS Version: 10.0
Default Encoding: windows-1252
Language: es
Country: ES
--></g></svg>