<?xml version="1.0" encoding="UTF-8" standalone="no"?><svg xmlns="http://www.w3.org/2000/svg" xmlns:xlink="http://www.w3.org/1999/xlink" contentScriptType="application/ecmascript" contentStyleType="text/css" height="158px" preserveAspectRatio="none" style="width:1891px;height:158px;" version="1.1" viewBox="0 0 1891 158" width="1891px" zoomAndPan="magnify"><defs><filter height="300%" id="f15ewrbgb8f9fc" width="300%" x="-1" y="-1"><feGaussianBlur result="blurOut" stdDeviation="2.0"/><feColorMatrix in="blurOut" result="blurOut2" type="matrix" values="0 0 0 0 0 0 0 0 0 0 0 0 0 0 0 0 0 0 .4 0"/><feOffset dx="4.0" dy="4.0" in="blurOut2" result="blurOut3"/><feBlend in="SourceGraphic" in2="blurOut3" mode="normal"/></filter></defs><g><!--entity mastermind--><polygon fill="#FFFFFF" filter="url(#f15ewrbgb8f9fc)" points="6,106,85,106,92,129.6094,109,129.6094,109,146.6094,6,146.6094,6,106" style="stroke: #000000; stroke-width: 1.5;"/><line style="stroke: #000000; stroke-width: 1.5;" x1="6" x2="92" y1="129.6094" y2="129.6094"/><text fill="#000000" font-family="sans-serif" font-size="14" lengthAdjust="spacingAndGlyphs" textLength="73" x="10" y="123.5332">mastermind</text><!--entity mastermind.distributed--><polygon fill="#FFFFFF" filter="url(#f15ewrbgb8f9fc)" points="144,106,293,106,300,129.6094,317,129.6094,317,146.6094,144,146.6094,144,106" style="stroke: #000000; stroke-width: 1.5;"/><line style="stroke: #000000; stroke-width: 1.5;" x1="144" x2="300" y1="129.6094" y2="129.6094"/><text fill="#000000" font-family="sans-serif" font-size="14" lengthAdjust="spacingAndGlyphs" textLength="143" x="148" y="123.5332">mastermind.distributed</text><!--entity mastermind.distributed.dispatchers--><polygon fill="#FFFFFF" filter="url(#f15ewrbgb8f9fc)" points="352.5,106,578.5,106,585.5,129.6094,602.5,129.6094,602.5,146.6094,352.5,146.6094,352.5,106" style="stroke: #000000; stroke-width: 1.5;"/><line style="stroke: #000000; stroke-width: 1.5;" x1="352.5" x2="585.5" y1="129.6094" y2="129.6094"/><text fill="#000000" font-family="sans-serif" font-size="14" lengthAdjust="spacingAndGlyphs" textLength="220" x="356.5" y="123.5332">mastermind.distributed.dispatchers</text><!--entity mastermind.controllers--><polygon fill="#FFFFFF" filter="url(#f15ewrbgb8f9fc)" points="638,106,787,106,794,129.6094,811,129.6094,811,146.6094,638,146.6094,638,106" style="stroke: #000000; stroke-width: 1.5;"/><line style="stroke: #000000; stroke-width: 1.5;" x1="638" x2="794" y1="129.6094" y2="129.6094"/><text fill="#000000" font-family="sans-serif" font-size="14" lengthAdjust="spacingAndGlyphs" textLength="143" x="642" y="123.5332">mastermind.controllers</text><!--entity mastermind.controllers.implementation--><polygon fill="#FFFFFF" filter="url(#f15ewrbgb8f9fc)" points="846.5,106,1094.5,106,1101.5,129.6094,1118.5,129.6094,1118.5,146.6094,846.5,146.6094,846.5,106" style="stroke: #000000; stroke-width: 1.5;"/><line style="stroke: #000000; stroke-width: 1.5;" x1="846.5" x2="1101.5" y1="129.6094" y2="129.6094"/><text fill="#000000" font-family="sans-serif" font-size="14" lengthAdjust="spacingAndGlyphs" textLength="242" x="850.5" y="123.5332">mastermind.controllers.implementation</text><!--entity mastermind.models--><polygon fill="#FFFFFF" filter="url(#f15ewrbgb8f9fc)" points="1153.5,106,1281.5,106,1288.5,129.6094,1305.5,129.6094,1305.5,146.6094,1153.5,146.6094,1153.5,106" style="stroke: #000000; stroke-width: 1.5;"/><line style="stroke: #000000; stroke-width: 1.5;" x1="1153.5" x2="1288.5" y1="129.6094" y2="129.6094"/><text fill="#000000" font-family="sans-serif" font-size="14" lengthAdjust="spacingAndGlyphs" textLength="122" x="1157.5" y="123.5332">mastermind.models</text><!--entity mastermind.views--><polygon fill="#FFFFFF" filter="url(#f15ewrbgb8f9fc)" points="1341,106,1458,106,1465,129.6094,1482,129.6094,1482,146.6094,1341,146.6094,1341,106" style="stroke: #000000; stroke-width: 1.5;"/><line style="stroke: #000000; stroke-width: 1.5;" x1="1341" x2="1465" y1="129.6094" y2="129.6094"/><text fill="#000000" font-family="sans-serif" font-size="14" lengthAdjust="spacingAndGlyphs" textLength="111" x="1345" y="123.5332">mastermind.views</text><!--entity mastermind.utils--><polygon fill="#FFFFFF" filter="url(#f15ewrbgb8f9fc)" points="1517.5,106,1625.5,106,1632.5,129.6094,1649.5,129.6094,1649.5,146.6094,1517.5,146.6094,1517.5,106" style="stroke: #000000; stroke-width: 1.5;"/><line style="stroke: #000000; stroke-width: 1.5;" x1="1517.5" x2="1632.5" y1="129.6094" y2="129.6094"/><text fill="#000000" font-family="sans-serif" font-size="14" lengthAdjust="spacingAndGlyphs" textLength="102" x="1521.5" y="123.5332">mastermind.utils</text><!--entity java.io--><polygon fill="#FFFFFF" filter="url(#f15ewrbgb8f9fc)" points="1685,106,1732,106,1739,129.6094,1756,129.6094,1756,146.6094,1685,146.6094,1685,106" style="stroke: #000000; stroke-width: 1.5;"/><line style="stroke: #000000; stroke-width: 1.5;" x1="1685" x2="1739" y1="129.6094" y2="129.6094"/><text fill="#000000" font-family="sans-serif" font-size="14" lengthAdjust="spacingAndGlyphs" textLength="41" x="1689" y="123.5332">java.io</text><!--entity java.util--><polygon fill="#FFFFFF" filter="url(#f15ewrbgb8f9fc)" points="1791.5,106,1845.5,106,1852.5,129.6094,1869.5,129.6094,1869.5,146.6094,1791.5,146.6094,1791.5,106" style="stroke: #000000; stroke-width: 1.5;"/><line style="stroke: #000000; stroke-width: 1.5;" x1="1791.5" x2="1852.5" y1="129.6094" y2="129.6094"/><text fill="#000000" font-family="sans-serif" font-size="14" lengthAdjust="spacingAndGlyphs" textLength="48" x="1795.5" y="123.5332">java.util</text><!--entity jarServer--><rect fill="#FEFECE" filter="url(#f15ewrbgb8f9fc)" height="37.6094" style="stroke: #A80036; stroke-width: 1.5;" width="155" x="1028" y="8"/><rect fill="#FEFECE" height="5" style="stroke: #A80036; stroke-width: 1.5;" width="10" x="1023" y="13"/><rect fill="#FEFECE" height="5" style="stroke: #A80036; stroke-width: 1.5;" width="10" x="1023" y="35.6094"/><text fill="#000000" font-family="sans-serif" font-size="14" lengthAdjust="spacingAndGlyphs" textLength="135" x="1038" y="32.5332">mastermindServer.jar</text><!--link jarServer to mastermind--><path d="M1014.6,29.315 C840.765,33.135 449.745,48.0252 126.5,106 C125.003,106.2685 123.491,106.5558 121.971,106.8595 " fill="none" id="jarServer-mastermind" style="stroke: #A80036; stroke-width: 1.0;"/><polygon fill="#A80036" points="109.239,109.7033,118.8946,111.6449,114.1187,108.6132,117.1504,103.8373,109.239,109.7033" style="stroke: #A80036; stroke-width: 1.0;"/><line style="stroke: #A80036; stroke-width: 1.0;" x1="114.1187" x2="121.926" y1="108.6132" y2="106.8694"/><polygon fill="#A80036" points="1027.74,29.038,1021.6578,25.1641,1015.7426,29.2885,1021.8248,33.1624,1027.74,29.038" style="stroke: #A80036; stroke-width: 1.0;"/><!--link jarServer to mastermind.distributed--><path d="M1014.72,34.683 C870.257,45.88 579.365,70.7221 334.5,106 C333.091,106.203 331.672,106.4116 330.244,106.6253 " fill="none" id="jarServer-mastermind.distributed" style="stroke: #A80036; stroke-width: 1.0;"/><polygon fill="#A80036" points="317.232,108.6705,326.7439,111.2245,322.1714,107.8941,325.5017,103.3216,317.232,108.6705" style="stroke: #A80036; stroke-width: 1.0;"/><line style="stroke: #A80036; stroke-width: 1.0;" x1="322.1714" x2="330.0745" y1="107.8941" y2="106.652"/><polygon fill="#A80036" points="1027.81,33.675,1021.5201,30.1484,1015.8456,34.5981,1022.1355,38.1247,1027.81,33.675" style="stroke: #A80036; stroke-width: 1.0;"/><!--link jarServer to mastermind.distributed.dispatchers--><path d="M1014.69,42.099 C910.068,58.3417 737.013,85.2093 615.664,104.0493 " fill="none" id="jarServer-mastermind.distributed.dispatchers" style="stroke: #A80036; stroke-width: 1.0;"/><polygon fill="#A80036" points="602.611,106.0759,612.1181,108.6479,607.5518,105.3089,610.8908,100.7426,602.611,106.0759" style="stroke: #A80036; stroke-width: 1.0;"/><line style="stroke: #A80036; stroke-width: 1.0;" x1="607.5518" x2="615.457" y1="105.3089" y2="104.0814"/><polygon fill="#A80036" points="1027.87,40.053,1021.3261,37.0237,1016.0129,41.8991,1022.5568,44.9284,1027.87,40.053" style="stroke: #A80036; stroke-width: 1.0;"/><!--link jarServer to mastermind.controllers--><path d="M1021.89,49.3953 C960.201,65.1829 876.393,86.6298 813.467,102.7329 " fill="none" id="jarServer-mastermind.controllers" style="stroke: #A80036; stroke-width: 1.0;"/><polygon fill="#A80036" points="800.773,105.9814,810.4837,107.6253,805.6169,104.7418,808.5004,99.8751,800.773,105.9814" style="stroke: #A80036; stroke-width: 1.0;"/><line style="stroke: #A80036; stroke-width: 1.0;" x1="805.6169" x2="813.367" y1="104.7418" y2="102.7584"/><polygon fill="#A80036" points="1034.73,46.111,1027.9271,43.7191,1023.1028,49.0787,1029.9056,51.4706,1034.73,46.111" style="stroke: #A80036; stroke-width: 1.0;"/><!--link jarServer to mastermind.controllers.implementation--><path d="M1072.21,54.3849 C1055.28,67.8083 1034.7,84.1201 1017.53,97.7338 " fill="none" id="jarServer-mastermind.controllers.implementation" style="stroke: #A80036; stroke-width: 1.0;"/><polygon fill="#A80036" points="1007.34,105.8116,1016.8783,103.3579,1011.2591,102.7066,1011.9103,97.0874,1007.34,105.8116" style="stroke: #A80036; stroke-width: 1.0;"/><line style="stroke: #A80036; stroke-width: 1.0;" x1="1011.2591" x2="1017.525" y1="102.7066" y2="97.7361"/><polygon fill="#A80036" points="1082.65,46.111,1075.4631,46.7018,1073.2443,53.563,1080.4311,52.9722,1082.65,46.111" style="stroke: #A80036; stroke-width: 1.0;"/><!--link jarServer to mastermind.models--><path d="M1138.77,54.1611 C1155.88,67.6139 1176.74,84.0131 1194.14,97.6947 " fill="none" id="jarServer-mastermind.models" style="stroke: #A80036; stroke-width: 1.0;"/><polygon fill="#A80036" points="1204.46,105.8116,1199.854,97.1062,1200.5282,102.7227,1194.9117,103.397,1204.46,105.8116" style="stroke: #A80036; stroke-width: 1.0;"/><line style="stroke: #A80036; stroke-width: 1.0;" x1="1200.5282" x2="1194.24" y1="102.7227" y2="97.7763"/><polygon fill="#A80036" points="1128.53,46.111,1130.777,52.9631,1137.9662,53.5244,1135.7192,46.6723,1128.53,46.111" style="stroke: #A80036; stroke-width: 1.0;"/><!--link jarServer to mastermind.views--><path d="M1174.98,50.1377 C1223.52,65.6036 1288.23,86.2219 1337.69,101.9826 " fill="none" id="jarServer-mastermind.views" style="stroke: #A80036; stroke-width: 1.0;"/><polygon fill="#A80036" points="1350.24,105.9814,1342.8842,99.4322,1345.4772,104.4598,1340.4496,107.0528,1350.24,105.9814" style="stroke: #A80036; stroke-width: 1.0;"/><line style="stroke: #A80036; stroke-width: 1.0;" x1="1345.4772" x2="1337.855" y1="104.4598" y2="102.0347"/><polygon fill="#A80036" points="1162.34,46.111,1166.8381,51.7472,1173.7708,49.7629,1169.2727,44.1266,1162.34,46.111" style="stroke: #A80036; stroke-width: 1.0;"/><!--link jarServer to mastermind.utils--><path d="M1196.01,45.047 C1275.98,60.317 1395.69,83.6816 1499.5,106 C1501.11,106.3452 1502.73,106.6966 1504.36,107.053 " fill="none" id="jarServer-mastermind.utils" style="stroke: #A80036; stroke-width: 1.0;"/><polygon fill="#A80036" points="1517.06,109.8653,1509.1393,104.0119,1512.1786,108.7829,1507.4075,111.8222,1517.06,109.8653" style="stroke: #A80036; stroke-width: 1.0;"/><line style="stroke: #A80036; stroke-width: 1.0;" x1="1512.1786" x2="1504.365" y1="108.7829" y2="107.054"/><polygon fill="#A80036" points="1183.03,42.574,1188.1771,47.6245,1194.8187,44.8159,1189.6716,39.7654,1183.03,42.574" style="stroke: #A80036; stroke-width: 1.0;"/><!--link jarServer to java.io--><path d="M1196.57,34.594 C1308.68,44.089 1504.28,65.1516 1667.5,106 C1669.1,106.4017 1670.73,106.8351 1672.36,107.2944 " fill="none" id="jarServer-java.io" style="stroke: #A80036; stroke-width: 1.0;"/><polygon fill="#A80036" points="1684.9,111.2229,1677.507,104.7157,1680.1286,109.7284,1675.1158,112.3499,1684.9,111.2229" style="stroke: #A80036; stroke-width: 1.0;"/><line style="stroke: #A80036; stroke-width: 1.0;" x1="1680.1286" x2="1672.5" y1="109.7284" y2="107.3374"/><polygon fill="#A80036" points="1183.32,33.493,1188.965,37.9801,1195.2781,34.4951,1189.6331,30.008,1183.32,33.493" style="stroke: #A80036; stroke-width: 1.0;"/><!--link jarServer to java.util--><path d="M1196.35,32.457 C1325.84,40.193 1570.31,59.9378 1773.5,106 C1775.23,106.3913 1776.97,106.8161 1778.73,107.2682 " fill="none" id="jarServer-java.util" style="stroke: #A80036; stroke-width: 1.0;"/><polygon fill="#A80036" points="1791.26,110.859,1783.7123,104.5319,1786.4539,109.48,1781.5059,112.2217,1791.26,110.859" style="stroke: #A80036; stroke-width: 1.0;"/><line style="stroke: #A80036; stroke-width: 1.0;" x1="1786.4539" x2="1778.765" y1="109.48" y2="107.2771"/><polygon fill="#A80036" points="1183.04,31.68,1188.7969,36.0226,1195.0196,32.3789,1189.2628,28.0362,1183.04,31.68" style="stroke: #A80036; stroke-width: 1.0;"/><!--
@startuml

package "  "  as mastermind {
}
package "  "  as mastermind.distributed {
}
package "  "  as mastermind.distributed.dispatchers {
}
package "  "  as mastermind.controllers {
}
package "  "  as mastermind.controllers.implementation {
}
package "  "  as mastermind.models {
}
package "  "  as mastermind.views {
}
package "  "  as mastermind.utils {
}
package "  "  as java.io {
}
package "  "  as java.util {
}

[mastermindServer.jar] as jarServer

jarServer *- -> mastermind
jarServer *- -> mastermind.distributed
jarServer *- -> mastermind.distributed.dispatchers
jarServer *- -> mastermind.controllers
jarServer *- -> mastermind.controllers.implementation
jarServer *- -> mastermind.models
jarServer *- -> mastermind.views
jarServer *- -> mastermind.utils
jarServer *- -> java.io
jarServer *- -> java.util
@enduml

PlantUML version 1.2019.05(Sat Apr 20 18:45:36 CEST 2019)
(GPL source distribution)
Java Runtime: OpenJDK Runtime Environment
JVM: OpenJDK 64-Bit Server VM
Java Version: 1.8.0_222-b10
Operating System: Windows 10
OS Version: 10.0
Default Encoding: windows-1252
Language: es
Country: ES
--></g></svg>