<?xml version="1.0" encoding="UTF-8" standalone="no"?><svg xmlns="http://www.w3.org/2000/svg" xmlns:xlink="http://www.w3.org/1999/xlink" contentScriptType="application/ecmascript" contentStyleType="text/css" height="158px" preserveAspectRatio="none" style="width:1618px;height:158px;" version="1.1" viewBox="0 0 1618 158" width="1618px" zoomAndPan="magnify"><defs><filter height="300%" id="fnivmor6r883r" width="300%" x="-1" y="-1"><feGaussianBlur result="blurOut" stdDeviation="2.0"/><feColorMatrix in="blurOut" result="blurOut2" type="matrix" values="0 0 0 0 0 0 0 0 0 0 0 0 0 0 0 0 0 0 .4 0"/><feOffset dx="4.0" dy="4.0" in="blurOut2" result="blurOut3"/><feBlend in="SourceGraphic" in2="blurOut3" mode="normal"/></filter></defs><g><!--entity mastermind--><polygon fill="#FFFFFF" filter="url(#fnivmor6r883r)" points="6,106,85,106,92,129.6094,109,129.6094,109,146.6094,6,146.6094,6,106" style="stroke: #000000; stroke-width: 1.5;"/><line style="stroke: #000000; stroke-width: 1.5;" x1="6" x2="92" y1="129.6094" y2="129.6094"/><text fill="#000000" font-family="sans-serif" font-size="14" lengthAdjust="spacingAndGlyphs" textLength="73" x="10" y="123.5332">mastermind</text><!--entity mastermind.controllers--><polygon fill="#FFFFFF" filter="url(#fnivmor6r883r)" points="144,106,293,106,300,129.6094,317,129.6094,317,146.6094,144,146.6094,144,106" style="stroke: #000000; stroke-width: 1.5;"/><line style="stroke: #000000; stroke-width: 1.5;" x1="144" x2="300" y1="129.6094" y2="129.6094"/><text fill="#000000" font-family="sans-serif" font-size="14" lengthAdjust="spacingAndGlyphs" textLength="143" x="148" y="123.5332">mastermind.controllers</text><!--entity mastermind.controllers.implementation--><polygon fill="#FFFFFF" filter="url(#fnivmor6r883r)" points="352.5,106,600.5,106,607.5,129.6094,624.5,129.6094,624.5,146.6094,352.5,146.6094,352.5,106" style="stroke: #000000; stroke-width: 1.5;"/><line style="stroke: #000000; stroke-width: 1.5;" x1="352.5" x2="607.5" y1="129.6094" y2="129.6094"/><text fill="#000000" font-family="sans-serif" font-size="14" lengthAdjust="spacingAndGlyphs" textLength="242" x="356.5" y="123.5332">mastermind.controllers.implementation</text><!--entity mastermind.models--><polygon fill="#FFFFFF" filter="url(#fnivmor6r883r)" points="659.5,106,787.5,106,794.5,129.6094,811.5,129.6094,811.5,146.6094,659.5,146.6094,659.5,106" style="stroke: #000000; stroke-width: 1.5;"/><line style="stroke: #000000; stroke-width: 1.5;" x1="659.5" x2="794.5" y1="129.6094" y2="129.6094"/><text fill="#000000" font-family="sans-serif" font-size="14" lengthAdjust="spacingAndGlyphs" textLength="122" x="663.5" y="123.5332">mastermind.models</text><!--entity mastermind.models.DAO--><polygon fill="#FFFFFF" filter="url(#fnivmor6r883r)" points="846.5,106,1008.5,106,1015.5,129.6094,1032.5,129.6094,1032.5,146.6094,846.5,146.6094,846.5,106" style="stroke: #000000; stroke-width: 1.5;"/><line style="stroke: #000000; stroke-width: 1.5;" x1="846.5" x2="1015.5" y1="129.6094" y2="129.6094"/><text fill="#000000" font-family="sans-serif" font-size="14" lengthAdjust="spacingAndGlyphs" textLength="156" x="850.5" y="123.5332">mastermind.models.DAO</text><!--entity mastermind.views--><polygon fill="#FFFFFF" filter="url(#fnivmor6r883r)" points="1068,106,1185,106,1192,129.6094,1209,129.6094,1209,146.6094,1068,146.6094,1068,106" style="stroke: #000000; stroke-width: 1.5;"/><line style="stroke: #000000; stroke-width: 1.5;" x1="1068" x2="1192" y1="129.6094" y2="129.6094"/><text fill="#000000" font-family="sans-serif" font-size="14" lengthAdjust="spacingAndGlyphs" textLength="111" x="1072" y="123.5332">mastermind.views</text><!--entity mastermind.utils--><polygon fill="#FFFFFF" filter="url(#fnivmor6r883r)" points="1244.5,106,1352.5,106,1359.5,129.6094,1376.5,129.6094,1376.5,146.6094,1244.5,146.6094,1244.5,106" style="stroke: #000000; stroke-width: 1.5;"/><line style="stroke: #000000; stroke-width: 1.5;" x1="1244.5" x2="1359.5" y1="129.6094" y2="129.6094"/><text fill="#000000" font-family="sans-serif" font-size="14" lengthAdjust="spacingAndGlyphs" textLength="102" x="1248.5" y="123.5332">mastermind.utils</text><!--entity java.io--><polygon fill="#FFFFFF" filter="url(#fnivmor6r883r)" points="1412,106,1459,106,1466,129.6094,1483,129.6094,1483,146.6094,1412,146.6094,1412,106" style="stroke: #000000; stroke-width: 1.5;"/><line style="stroke: #000000; stroke-width: 1.5;" x1="1412" x2="1466" y1="129.6094" y2="129.6094"/><text fill="#000000" font-family="sans-serif" font-size="14" lengthAdjust="spacingAndGlyphs" textLength="41" x="1416" y="123.5332">java.io</text><!--entity java.util--><polygon fill="#FFFFFF" filter="url(#fnivmor6r883r)" points="1518.5,106,1572.5,106,1579.5,129.6094,1596.5,129.6094,1596.5,146.6094,1518.5,146.6094,1518.5,106" style="stroke: #000000; stroke-width: 1.5;"/><line style="stroke: #000000; stroke-width: 1.5;" x1="1518.5" x2="1579.5" y1="129.6094" y2="129.6094"/><text fill="#000000" font-family="sans-serif" font-size="14" lengthAdjust="spacingAndGlyphs" textLength="48" x="1522.5" y="123.5332">java.util</text><!--entity jar--><rect fill="#FEFECE" filter="url(#fnivmor6r883r)" height="37.6094" style="stroke: #A80036; stroke-width: 1.5;" width="113" x="883" y="8"/><rect fill="#FEFECE" height="5" style="stroke: #A80036; stroke-width: 1.5;" width="10" x="878" y="13"/><rect fill="#FEFECE" height="5" style="stroke: #A80036; stroke-width: 1.5;" width="10" x="878" y="35.6094"/><text fill="#000000" font-family="sans-serif" font-size="14" lengthAdjust="spacingAndGlyphs" textLength="93" x="893" y="32.5332">mastermind.jar</text><!--link jar to mastermind--><path d="M869.747,30.469 C728.409,36.397 398.536,54.94 126.5,106 C125.005,106.2806 123.496,106.5788 121.977,106.8924 " fill="none" id="jar-mastermind" style="stroke: #A80036; stroke-width: 1.0;"/><polygon fill="#A80036" points="109.256,109.795,118.9202,111.693,114.1308,108.6829,117.1409,103.8934,109.256,109.795" style="stroke: #A80036; stroke-width: 1.0;"/><line style="stroke: #A80036; stroke-width: 1.0;" x1="114.1308" x2="121.93" y1="108.6829" y2="106.9029"/><polygon fill="#A80036" points="882.829,29.934,876.6705,26.1826,870.839,30.4246,876.9975,34.1759,882.829,29.934" style="stroke: #A80036; stroke-width: 1.0;"/><!--link jar to mastermind.controllers--><path d="M869.445,35.715 C756.551,48.4437 527.496,75.491 334.5,106 C333.094,106.2223 331.677,106.449 330.253,106.6797 " fill="none" id="jar-mastermind.controllers" style="stroke: #A80036; stroke-width: 1.0;"/><polygon fill="#A80036" points="317.259,108.8492,326.795,111.312,322.1907,108.0256,325.4772,103.4213,317.259,108.8492" style="stroke: #A80036; stroke-width: 1.0;"/><line style="stroke: #A80036; stroke-width: 1.0;" x1="322.1907" x2="330.0815" y1="108.0256" y2="106.7082"/><polygon fill="#A80036" points="882.627,34.235,876.2179,30.9299,870.702,35.5748,877.1111,38.8799,882.627,34.235" style="stroke: #A80036; stroke-width: 1.0;"/><!--link jar to mastermind.controllers.implementation--><path d="M869.775,43.074 C795.4,59.1524 676.814,84.7892 591.637,103.2033 " fill="none" id="jar-mastermind.controllers.implementation" style="stroke: #A80036; stroke-width: 1.0;"/><polygon fill="#A80036" points="578.794,105.9798,588.436,107.9876,583.6811,104.9232,586.7455,100.1683,578.794,105.9798" style="stroke: #A80036; stroke-width: 1.0;"/><line style="stroke: #A80036; stroke-width: 1.0;" x1="583.6811" x2="591.5005" y1="104.9232" y2="103.2328"/><polygon fill="#A80036" points="882.837,40.25,876.1273,37.6082,871.108,42.7857,877.8177,45.4275,882.837,40.25" style="stroke: #A80036; stroke-width: 1.0;"/><!--link jar to mastermind.models--><path d="M889.797,51.7551 C859.06,66.4455 819.638,85.2868 788.336,100.2475 " fill="none" id="jar-mastermind.models" style="stroke: #A80036; stroke-width: 1.0;"/><polygon fill="#A80036" points="776.339,105.9814,786.1841,105.7095,780.8503,103.8254,782.7344,98.4915,776.339,105.9814" style="stroke: #A80036; stroke-width: 1.0;"/><line style="stroke: #A80036; stroke-width: 1.0;" x1="780.8503" x2="788.068" y1="103.8254" y2="100.3755"/><polygon fill="#A80036" points="901.607,46.111,894.4687,45.0892,890.78,51.2855,897.9183,52.3073,901.607,46.111" style="stroke: #A80036; stroke-width: 1.0;"/><!--link jar to mastermind.models.DAO--><path d="M939.5,59.4311 C939.5,70.0549 939.5,81.9399 939.5,92.6692 " fill="none" id="jar-mastermind.models.DAO" style="stroke: #A80036; stroke-width: 1.0;"/><polygon fill="#A80036" points="939.5,105.905,943.5,96.905,939.5,100.905,935.5,96.905,939.5,105.905" style="stroke: #A80036; stroke-width: 1.0;"/><line style="stroke: #A80036; stroke-width: 1.0;" x1="939.5" x2="939.5" y1="100.905" y2="92.905"/><polygon fill="#A80036" points="939.5,46.339,935.5,52.339,939.5,58.339,943.5,52.339,939.5,46.339" style="stroke: #A80036; stroke-width: 1.0;"/><!--link jar to mastermind.views--><path d="M988.43,51.9734 C1018.23,66.5754 1056.28,85.2168 1086.61,100.0756 " fill="none" id="jar-mastermind.views" style="stroke: #A80036; stroke-width: 1.0;"/><polygon fill="#A80036" points="1098.66,105.9814,1092.335,98.4319,1094.1691,103.7832,1088.8179,105.6173,1098.66,105.9814" style="stroke: #A80036; stroke-width: 1.0;"/><line style="stroke: #A80036; stroke-width: 1.0;" x1="1094.1691" x2="1086.99" y1="103.7832" y2="100.2616"/><polygon fill="#A80036" points="976.464,46.111,980.092,52.343,987.24,51.3909,983.612,45.159,976.464,46.111" style="stroke: #A80036; stroke-width: 1.0;"/><!--link jar to mastermind.utils--><path d="M1008.85,46.224 C1072.08,62.8416 1165.44,87.3773 1231.52,104.7438 " fill="none" id="jar-mastermind.utils" style="stroke: #A80036; stroke-width: 1.0;"/><polygon fill="#A80036" points="1244.36,108.117,1236.6703,101.9632,1239.5238,106.8477,1234.6394,109.7011,1244.36,108.117" style="stroke: #A80036; stroke-width: 1.0;"/><line style="stroke: #A80036; stroke-width: 1.0;" x1="1239.5238" x2="1231.785" y1="106.8477" y2="104.8128"/><polygon fill="#A80036" points="996.251,42.914,1001.039,48.3062,1007.8579,45.9604,1003.0699,40.5682,996.251,42.914" style="stroke: #A80036; stroke-width: 1.0;"/><!--link jar to java.io--><path d="M1009.28,35.935 C1099.31,47.0869 1260.32,70.139 1394.5,106 C1396.1,106.4272 1397.72,106.8828 1399.34,107.3612 " fill="none" id="jar-java.io" style="stroke: #A80036; stroke-width: 1.0;"/><polygon fill="#A80036" points="1411.86,111.3825,1404.5193,104.8164,1407.1007,109.8499,1402.0671,112.4313,1411.86,111.3825" style="stroke: #A80036; stroke-width: 1.0;"/><line style="stroke: #A80036; stroke-width: 1.0;" x1="1407.1007" x2="1399.485" y1="109.8499" y2="107.4068"/><polygon fill="#A80036" points="996.252,34.343,1001.7193,39.0449,1008.1624,35.8066,1002.6951,31.1047,996.252,34.343" style="stroke: #A80036; stroke-width: 1.0;"/><!--link jar to java.util--><path d="M1009.44,33.392 C1116.38,42.605 1326.44,64.5301 1500.5,106 C1502.22,106.4102 1503.96,106.8513 1505.72,107.3176 " fill="none" id="jar-java.util" style="stroke: #A80036; stroke-width: 1.0;"/><polygon fill="#A80036" points="1518.23,110.9744,1510.7116,104.6125,1513.4304,109.5732,1508.4697,112.2919,1518.23,110.9744" style="stroke: #A80036; stroke-width: 1.0;"/><line style="stroke: #A80036; stroke-width: 1.0;" x1="1513.4304" x2="1505.755" y1="109.5732" y2="107.3277"/><polygon fill="#A80036" points="996.3,32.279,1001.94,36.7723,1008.257,33.2943,1002.6169,28.801,996.3,32.279" style="stroke: #A80036; stroke-width: 1.0;"/><!--
@startuml

package "  "  as mastermind {
}
package "  "  as mastermind.controllers {
}
package "  "  as mastermind.controllers.implementation {
}
package "  "  as mastermind.models {
}
package "  "  as mastermind.models.DAO {
}
package "  "  as mastermind.views {
}
package "  "  as mastermind.utils {
}
package "  "  as java.io {
}
package "  "  as java.util {
}

[mastermind.jar] as jar

jar *- -> mastermind
jar *- -> mastermind.controllers
jar *- -> mastermind.controllers.implementation
jar *- -> mastermind.models
jar *- -> mastermind.models.DAO
jar *- -> mastermind.views
jar *- -> mastermind.utils
jar *- -> java.io
jar *- -> java.util

@enduml

PlantUML version 1.2019.05(Sat Apr 20 18:45:36 CEST 2019)
(GPL source distribution)
Java Runtime: OpenJDK Runtime Environment
JVM: OpenJDK 64-Bit Server VM
Java Version: 1.8.0_222-b10
Operating System: Windows 10
OS Version: 10.0
Default Encoding: windows-1252
Language: es
Country: ES
--></g></svg>