<?xml version="1.0" encoding="UTF-8" standalone="no"?><svg xmlns="http://www.w3.org/2000/svg" xmlns:xlink="http://www.w3.org/1999/xlink" contentScriptType="application/ecmascript" contentStyleType="text/css" height="158px" preserveAspectRatio="none" style="width:1298px;height:158px;" version="1.1" viewBox="0 0 1298 158" width="1298px" zoomAndPan="magnify"><defs><filter height="300%" id="f1ery8hplulx1z" width="300%" x="-1" y="-1"><feGaussianBlur result="blurOut" stdDeviation="2.0"/><feColorMatrix in="blurOut" result="blurOut2" type="matrix" values="0 0 0 0 0 0 0 0 0 0 0 0 0 0 0 0 0 0 .4 0"/><feOffset dx="4.0" dy="4.0" in="blurOut2" result="blurOut3"/><feBlend in="SourceGraphic" in2="blurOut3" mode="normal"/></filter></defs><g><!--entity mastermind--><polygon fill="#FFFFFF" filter="url(#f1ery8hplulx1z)" points="6,106,85,106,92,129.6094,109,129.6094,109,146.6094,6,146.6094,6,106" style="stroke: #000000; stroke-width: 1.5;"/><line style="stroke: #000000; stroke-width: 1.5;" x1="6" x2="92" y1="129.6094" y2="129.6094"/><text fill="#000000" font-family="sans-serif" font-size="14" lengthAdjust="spacingAndGlyphs" textLength="73" x="10" y="123.5332">mastermind</text><!--entity mastermind.distributed--><polygon fill="#FFFFFF" filter="url(#f1ery8hplulx1z)" points="144,106,293,106,300,129.6094,317,129.6094,317,146.6094,144,146.6094,144,106" style="stroke: #000000; stroke-width: 1.5;"/><line style="stroke: #000000; stroke-width: 1.5;" x1="144" x2="300" y1="129.6094" y2="129.6094"/><text fill="#000000" font-family="sans-serif" font-size="14" lengthAdjust="spacingAndGlyphs" textLength="143" x="148" y="123.5332">mastermind.distributed</text><!--entity mastermind.controllers--><polygon fill="#FFFFFF" filter="url(#f1ery8hplulx1z)" points="352,106,501,106,508,129.6094,525,129.6094,525,146.6094,352,146.6094,352,106" style="stroke: #000000; stroke-width: 1.5;"/><line style="stroke: #000000; stroke-width: 1.5;" x1="352" x2="508" y1="129.6094" y2="129.6094"/><text fill="#000000" font-family="sans-serif" font-size="14" lengthAdjust="spacingAndGlyphs" textLength="143" x="356" y="123.5332">mastermind.controllers</text><!--entity mastermind.models--><polygon fill="#FFFFFF" filter="url(#f1ery8hplulx1z)" points="560.5,106,688.5,106,695.5,129.6094,712.5,129.6094,712.5,146.6094,560.5,146.6094,560.5,106" style="stroke: #000000; stroke-width: 1.5;"/><line style="stroke: #000000; stroke-width: 1.5;" x1="560.5" x2="695.5" y1="129.6094" y2="129.6094"/><text fill="#000000" font-family="sans-serif" font-size="14" lengthAdjust="spacingAndGlyphs" textLength="122" x="564.5" y="123.5332">mastermind.models</text><!--entity mastermind.views--><polygon fill="#FFFFFF" filter="url(#f1ery8hplulx1z)" points="748,106,865,106,872,129.6094,889,129.6094,889,146.6094,748,146.6094,748,106" style="stroke: #000000; stroke-width: 1.5;"/><line style="stroke: #000000; stroke-width: 1.5;" x1="748" x2="872" y1="129.6094" y2="129.6094"/><text fill="#000000" font-family="sans-serif" font-size="14" lengthAdjust="spacingAndGlyphs" textLength="111" x="752" y="123.5332">mastermind.views</text><!--entity mastermind.utils--><polygon fill="#FFFFFF" filter="url(#f1ery8hplulx1z)" points="924.5,106,1032.5,106,1039.5,129.6094,1056.5,129.6094,1056.5,146.6094,924.5,146.6094,924.5,106" style="stroke: #000000; stroke-width: 1.5;"/><line style="stroke: #000000; stroke-width: 1.5;" x1="924.5" x2="1039.5" y1="129.6094" y2="129.6094"/><text fill="#000000" font-family="sans-serif" font-size="14" lengthAdjust="spacingAndGlyphs" textLength="102" x="928.5" y="123.5332">mastermind.utils</text><!--entity java.io--><polygon fill="#FFFFFF" filter="url(#f1ery8hplulx1z)" points="1092,106,1139,106,1146,129.6094,1163,129.6094,1163,146.6094,1092,146.6094,1092,106" style="stroke: #000000; stroke-width: 1.5;"/><line style="stroke: #000000; stroke-width: 1.5;" x1="1092" x2="1146" y1="129.6094" y2="129.6094"/><text fill="#000000" font-family="sans-serif" font-size="14" lengthAdjust="spacingAndGlyphs" textLength="41" x="1096" y="123.5332">java.io</text><!--entity java.util--><polygon fill="#FFFFFF" filter="url(#f1ery8hplulx1z)" points="1198.5,106,1252.5,106,1259.5,129.6094,1276.5,129.6094,1276.5,146.6094,1198.5,146.6094,1198.5,106" style="stroke: #000000; stroke-width: 1.5;"/><line style="stroke: #000000; stroke-width: 1.5;" x1="1198.5" x2="1259.5" y1="129.6094" y2="129.6094"/><text fill="#000000" font-family="sans-serif" font-size="14" lengthAdjust="spacingAndGlyphs" textLength="48" x="1202.5" y="123.5332">java.util</text><!--entity jarClient--><rect fill="#FEFECE" filter="url(#f1ery8hplulx1z)" height="37.6094" style="stroke: #A80036; stroke-width: 1.5;" width="149" x="653" y="8"/><rect fill="#FEFECE" height="5" style="stroke: #A80036; stroke-width: 1.5;" width="10" x="648" y="13"/><rect fill="#FEFECE" height="5" style="stroke: #A80036; stroke-width: 1.5;" width="10" x="648" y="35.6094"/><text fill="#000000" font-family="sans-serif" font-size="14" lengthAdjust="spacingAndGlyphs" textLength="129" x="663" y="32.5332">mastermindClient.jar</text><!--link jarClient to mastermind--><path d="M639.741,35.331 C522.094,46.082 307.128,68.9627 126.5,106 C125.01,106.3055 123.505,106.6263 121.99,106.9602 " fill="none" id="jarClient-mastermind" style="stroke: #A80036; stroke-width: 1.0;"/><polygon fill="#A80036" points="109.293,109.9846,118.9748,111.7909,114.157,108.8263,117.1216,104.0086,109.293,109.9846" style="stroke: #A80036; stroke-width: 1.0;"/><line style="stroke: #A80036; stroke-width: 1.0;" x1="114.157" x2="121.939" y1="108.8263" y2="106.9722"/><polygon fill="#A80036" points="652.902,34.142,646.5663,30.6982,640.9507,35.222,647.2864,38.6658,652.902,34.142" style="stroke: #A80036; stroke-width: 1.0;"/><!--link jarClient to mastermind.distributed--><path d="M640.064,45.153 C553.301,62.1739 420.515,88.2233 329.82,106.0157 " fill="none" id="jarClient-mastermind.distributed" style="stroke: #A80036; stroke-width: 1.0;"/><polygon fill="#A80036" points="317.033,108.5242,326.6347,110.7166,321.9395,107.5616,325.0945,102.8663,317.033,108.5242" style="stroke: #A80036; stroke-width: 1.0;"/><line style="stroke: #A80036; stroke-width: 1.0;" x1="321.9395" x2="329.79" y1="107.5616" y2="106.0215"/><polygon fill="#A80036" points="652.825,42.649,646.1672,39.8789,641.0495,44.9592,647.7073,47.7293,652.825,42.649" style="stroke: #A80036; stroke-width: 1.0;"/><!--link jarClient to mastermind.controllers--><path d="M661.248,50.3513 C615.655,65.7331 555.181,86.1354 508.75,101.7998 " fill="none" id="jarClient-mastermind.controllers" style="stroke: #A80036; stroke-width: 1.0;"/><polygon fill="#A80036" points="496.355,105.9814,506.1614,106.8945,501.0926,104.383,503.6041,99.3142,496.355,105.9814" style="stroke: #A80036; stroke-width: 1.0;"/><line style="stroke: #A80036; stroke-width: 1.0;" x1="501.0926" x2="508.6735" y1="104.383" y2="101.8257"/><polygon fill="#A80036" points="673.819,46.111,666.8551,44.2389,662.4487,49.947,669.4125,51.8191,673.819,46.111" style="stroke: #A80036; stroke-width: 1.0;"/><!--link jarClient to mastermind.models--><path d="M701.18,56.1996 C689.447,68.7708 675.631,83.5737 663.787,96.2638 " fill="none" id="jarClient-mastermind.models" style="stroke: #A80036; stroke-width: 1.0;"/><polygon fill="#A80036" points="654.789,105.905,663.8543,102.0552,658.2008,102.2499,658.0061,96.5964,654.789,105.905" style="stroke: #A80036; stroke-width: 1.0;"/><line style="stroke: #A80036; stroke-width: 1.0;" x1="658.2008" x2="663.659" y1="102.2499" y2="96.4013"/><polygon fill="#A80036" points="710.384,46.339,703.3659,47.9963,702.1964,55.1119,709.2145,53.4546,710.384,46.339" style="stroke: #A80036; stroke-width: 1.0;"/><!--link jarClient to mastermind.views--><path d="M753.82,56.1996 C765.553,68.7708 779.369,83.5737 791.213,96.2638 " fill="none" id="jarClient-mastermind.views" style="stroke: #A80036; stroke-width: 1.0;"/><polygon fill="#A80036" points="800.211,105.905,796.9939,96.5964,796.7992,102.2499,791.1457,102.0552,800.211,105.905" style="stroke: #A80036; stroke-width: 1.0;"/><line style="stroke: #A80036; stroke-width: 1.0;" x1="796.7992" x2="791.341" y1="102.2499" y2="96.4013"/><polygon fill="#A80036" points="744.616,46.339,745.7855,53.4546,752.8036,55.1119,751.6341,47.9963,744.616,46.339" style="stroke: #A80036; stroke-width: 1.0;"/><!--link jarClient to mastermind.utils--><path d="M788.659,50.6729 C829.719,65.8947 883.744,85.9232 925.568,101.4281 " fill="none" id="jarClient-mastermind.utils" style="stroke: #A80036; stroke-width: 1.0;"/><polygon fill="#A80036" points="937.85,105.9814,930.8015,99.1025,933.1618,104.2435,928.0208,106.6037,937.85,105.9814" style="stroke: #A80036; stroke-width: 1.0;"/><line style="stroke: #A80036; stroke-width: 1.0;" x1="933.1618" x2="925.6605" y1="104.2435" y2="101.4625"/><polygon fill="#A80036" points="776.352,46.111,780.5876,51.9471,787.6038,50.282,783.3682,44.4459,776.352,46.111" style="stroke: #A80036; stroke-width: 1.0;"/><!--link jarClient to java.io--><path d="M814.829,44.32 C885.493,58.3154 987.246,80.2631 1074.5,106 C1076.09,106.4681 1077.69,106.9592 1079.31,107.4682 " fill="none" id="jarClient-java.io" style="stroke: #A80036; stroke-width: 1.0;"/><polygon fill="#A80036" points="1091.79,111.6381,1084.5189,104.995,1087.0471,110.0554,1081.9866,112.5836,1091.79,111.6381" style="stroke: #A80036; stroke-width: 1.0;"/><line style="stroke: #A80036; stroke-width: 1.0;" x1="1087.0471" x2="1079.46" y1="110.0554" y2="107.5175"/><polygon fill="#A80036" points="802.007,41.8,807.123,46.882,813.7817,44.1142,808.6658,39.0322,802.007,41.8" style="stroke: #A80036; stroke-width: 1.0;"/><!--link jarClient to java.util--><path d="M815.158,38.879 C907.051,51.2609 1055.22,74.0005 1180.5,106 C1182.24,106.4457 1184.01,106.9196 1185.79,107.416 " fill="none" id="jarClient-java.util" style="stroke: #A80036; stroke-width: 1.0;"/><polygon fill="#A80036" points="1198.5,111.2434,1191.033,104.8212,1193.7118,109.8036,1188.7294,112.4824,1198.5,111.2434" style="stroke: #A80036; stroke-width: 1.0;"/><line style="stroke: #A80036; stroke-width: 1.0;" x1="1193.7118" x2="1186.05" y1="109.8036" y2="107.494"/><polygon fill="#A80036" points="802.018,37.127,807.4371,41.8845,813.9128,38.7121,808.4938,33.9546,802.018,37.127" style="stroke: #A80036; stroke-width: 1.0;"/><!--
@startuml

package "  "  as mastermind {
}
package "  "  as mastermind.distributed {
}
package "  "  as mastermind.controllers {
}
package "  "  as mastermind.models {
}
package "  "  as mastermind.views {
}
package "  "  as mastermind.utils {
}
package "  "  as java.io {
}
package "  "  as java.util {
}

[mastermindClient.jar] as jarClient

jarClient *- -> mastermind
jarClient *- -> mastermind.distributed
jarClient *- -> mastermind.controllers
jarClient *- -> mastermind.models
jarClient *- -> mastermind.views
jarClient *- -> mastermind.utils
jarClient *- -> java.io
jarClient *- -> java.util

@enduml

PlantUML version 1.2019.05(Sat Apr 20 18:45:36 CEST 2019)
(GPL source distribution)
Java Runtime: OpenJDK Runtime Environment
JVM: OpenJDK 64-Bit Server VM
Java Version: 1.8.0_222-b10
Operating System: Windows 10
OS Version: 10.0
Default Encoding: windows-1252
Language: es
Country: ES
--></g></svg>