<?xml version="1.0" encoding="UTF-8" standalone="no"?><svg xmlns="http://www.w3.org/2000/svg" xmlns:xlink="http://www.w3.org/1999/xlink" contentScriptType="application/ecmascript" contentStyleType="text/css" height="278px" preserveAspectRatio="none" style="width:703px;height:278px;" version="1.1" viewBox="0 0 703 278" width="703px" zoomAndPan="magnify"><defs><filter height="300%" id="f1pih1vsxklcg4" width="300%" x="-1" y="-1"><feGaussianBlur result="blurOut" stdDeviation="2.0"/><feColorMatrix in="blurOut" result="blurOut2" type="matrix" values="0 0 0 0 0 0 0 0 0 0 0 0 0 0 0 0 0 0 .4 0"/><feOffset dx="4.0" dy="4.0" in="blurOut2" result="blurOut3"/><feBlend in="SourceGraphic" in2="blurOut3" mode="normal"/></filter></defs><g><!--cluster stanalone--><polygon fill="#FFFFFF" filter="url(#f1pih1vsxklcg4)" points="473,24,548,24,555,47.6094,681,47.6094,681,266,473,266,473,24" style="stroke: #000000; stroke-width: 1.5;"/><line style="stroke: #000000; stroke-width: 1.5;" x1="473" x2="555" y1="47.6094" y2="47.6094"/><text fill="#000000" font-family="sans-serif" font-size="14" font-weight="bold" lengthAdjust="spacingAndGlyphs" textLength="69" x="477" y="40.5332">stanalone</text><!--cluster clientServer--><polygon fill="#FFFFFF" filter="url(#f1pih1vsxklcg4)" points="22,24,115,24,122,47.6094,449,47.6094,449,266,22,266,22,24" style="stroke: #000000; stroke-width: 1.5;"/><line style="stroke: #000000; stroke-width: 1.5;" x1="22" x2="122" y1="47.6094" y2="47.6094"/><text fill="#000000" font-family="sans-serif" font-size="14" font-weight="bold" lengthAdjust="spacingAndGlyphs" textLength="87" x="26" y="40.5332">clientServer</text><!--entity standaloneNode--><polygon fill="#DDDDDD" filter="url(#f1pih1vsxklcg4)" points="489.5,70,499.5,60,664.5,60,664.5,140.8281,654.5,150.8281,489.5,150.8281,489.5,70" style="stroke: #000000; stroke-width: 1.5;"/><line style="stroke: #000000; stroke-width: 1.5;" x1="654.5" x2="663.5" y1="70" y2="61"/><line style="stroke: #000000; stroke-width: 1.5;" x1="489.5" x2="654.5" y1="70" y2="70"/><line style="stroke: #000000; stroke-width: 1.5;" x1="654.5" x2="654.5" y1="70" y2="150.8281"/><text fill="#000000" font-family="sans-serif" font-size="14" font-weight="bold" lengthAdjust="spacingAndGlyphs" textLength="135" x="504.5" y="94.5332">Personal Computer</text><line style="stroke: #000000; stroke-width: 1.0;" x1="489.5" x2="654.5" y1="97.6094" y2="97.6094"/><line style="stroke: #000000; stroke-width: 1.0;" x1="654.5" x2="664.5" y1="97.6094" y2="87.6094"/><text fill="#000000" font-family="sans-serif" font-size="14" lengthAdjust="spacingAndGlyphs" textLength="103" x="510.5" y="116.1426">memory : xxx Mb</text><text fill="#000000" font-family="sans-serif" font-size="14" lengthAdjust="spacingAndGlyphs" textLength="83" x="510.5" y="133.752">cpu : xxx GHz</text><!--entity standaloneComponent--><rect fill="#FEFECE" filter="url(#f1pih1vsxklcg4)" height="37.6094" style="stroke: #A80036; stroke-width: 1.5;" width="113" x="520.5" y="212"/><rect fill="#FEFECE" height="5" style="stroke: #A80036; stroke-width: 1.5;" width="10" x="515.5" y="217"/><rect fill="#FEFECE" height="5" style="stroke: #A80036; stroke-width: 1.5;" width="10" x="515.5" y="239.6094"/><text fill="#000000" font-family="sans-serif" font-size="14" lengthAdjust="spacingAndGlyphs" textLength="93" x="530.5" y="236.5332">masterming.jar</text><!--entity clientNode--><polygon fill="#DDDDDD" filter="url(#f1pih1vsxklcg4)" points="38.5,70,48.5,60,193.5,60,193.5,140.8281,183.5,150.8281,38.5,150.8281,38.5,70" style="stroke: #000000; stroke-width: 1.5;"/><line style="stroke: #000000; stroke-width: 1.5;" x1="183.5" x2="192.5" y1="70" y2="61"/><line style="stroke: #000000; stroke-width: 1.5;" x1="38.5" x2="183.5" y1="70" y2="70"/><line style="stroke: #000000; stroke-width: 1.5;" x1="183.5" x2="183.5" y1="70" y2="150.8281"/><text fill="#000000" font-family="sans-serif" font-size="14" font-weight="bold" lengthAdjust="spacingAndGlyphs" textLength="114" x="53.5" y="94.5332">Client Computer</text><line style="stroke: #000000; stroke-width: 1.0;" x1="38.5" x2="183.5" y1="97.6094" y2="97.6094"/><line style="stroke: #000000; stroke-width: 1.0;" x1="183.5" x2="193.5" y1="97.6094" y2="87.6094"/><text fill="#000000" font-family="sans-serif" font-size="14" lengthAdjust="spacingAndGlyphs" textLength="103" x="59.5" y="116.1426">memory : xxx Mb</text><text fill="#000000" font-family="sans-serif" font-size="14" lengthAdjust="spacingAndGlyphs" textLength="83" x="59.5" y="133.752">cpu : xxx GHz</text><!--entity clientComponent--><rect fill="#FEFECE" filter="url(#f1pih1vsxklcg4)" height="37.6094" style="stroke: #A80036; stroke-width: 1.5;" width="149" x="41.5" y="212"/><rect fill="#FEFECE" height="5" style="stroke: #A80036; stroke-width: 1.5;" width="10" x="36.5" y="217"/><rect fill="#FEFECE" height="5" style="stroke: #A80036; stroke-width: 1.5;" width="10" x="36.5" y="239.6094"/><text fill="#000000" font-family="sans-serif" font-size="14" lengthAdjust="spacingAndGlyphs" textLength="129" x="51.5" y="236.5332">mastermingClient.jar</text><!--entity serverNode--><polygon fill="#DDDDDD" filter="url(#f1pih1vsxklcg4)" points="271.5,70,281.5,60,432.5,60,432.5,140.8281,422.5,150.8281,271.5,150.8281,271.5,70" style="stroke: #000000; stroke-width: 1.5;"/><line style="stroke: #000000; stroke-width: 1.5;" x1="422.5" x2="431.5" y1="70" y2="61"/><line style="stroke: #000000; stroke-width: 1.5;" x1="271.5" x2="422.5" y1="70" y2="70"/><line style="stroke: #000000; stroke-width: 1.5;" x1="422.5" x2="422.5" y1="70" y2="150.8281"/><text fill="#000000" font-family="sans-serif" font-size="14" font-weight="bold" lengthAdjust="spacingAndGlyphs" textLength="121" x="286.5" y="94.5332">Server Computer</text><line style="stroke: #000000; stroke-width: 1.0;" x1="271.5" x2="422.5" y1="97.6094" y2="97.6094"/><line style="stroke: #000000; stroke-width: 1.0;" x1="422.5" x2="432.5" y1="97.6094" y2="87.6094"/><text fill="#000000" font-family="sans-serif" font-size="14" lengthAdjust="spacingAndGlyphs" textLength="103" x="292.5" y="116.1426">memory : xxx Mb</text><text fill="#000000" font-family="sans-serif" font-size="14" lengthAdjust="spacingAndGlyphs" textLength="83" x="292.5" y="133.752">cpu : xxx GHz</text><!--entity serverComponent--><rect fill="#FEFECE" filter="url(#f1pih1vsxklcg4)" height="37.6094" style="stroke: #A80036; stroke-width: 1.5;" width="155" x="274.5" y="212"/><rect fill="#FEFECE" height="5" style="stroke: #A80036; stroke-width: 1.5;" width="10" x="269.5" y="217"/><rect fill="#FEFECE" height="5" style="stroke: #A80036; stroke-width: 1.5;" width="10" x="269.5" y="239.6094"/><text fill="#000000" font-family="sans-serif" font-size="14" lengthAdjust="spacingAndGlyphs" textLength="135" x="284.5" y="236.5332">mastermingServer.jar</text><!--link standaloneNode to standaloneComponent--><path d="M577,164.151 C577,176.054 577,188.1611 577,198.6925 " fill="none" id="standaloneNode-standaloneComponent" style="stroke: #A80036; stroke-width: 1.0;"/><polygon fill="#A80036" points="577,211.9098,581,202.9098,577,206.9098,573,202.9098,577,211.9098" style="stroke: #A80036; stroke-width: 1.0;"/><line style="stroke: #A80036; stroke-width: 1.0;" x1="577" x2="577" y1="206.9098" y2="198.9098"/><polygon fill="#A80036" points="577,151.086,573,157.086,577,163.086,581,157.086,577,151.086" style="stroke: #A80036; stroke-width: 1.0;"/><!--link clientNode to clientComponent--><path d="M116,164.151 C116,176.054 116,188.1611 116,198.6925 " fill="none" id="clientNode-clientComponent" style="stroke: #A80036; stroke-width: 1.0;"/><polygon fill="#A80036" points="116,211.9098,120,202.9098,116,206.9098,112,202.9098,116,211.9098" style="stroke: #A80036; stroke-width: 1.0;"/><line style="stroke: #A80036; stroke-width: 1.0;" x1="116" x2="116" y1="206.9098" y2="198.9098"/><polygon fill="#A80036" points="116,151.086,112,157.086,116,163.086,120,157.086,116,151.086" style="stroke: #A80036; stroke-width: 1.0;"/><!--link serverNode to serverComponent--><path d="M352,164.151 C352,176.054 352,188.1611 352,198.6925 " fill="none" id="serverNode-serverComponent" style="stroke: #A80036; stroke-width: 1.0;"/><polygon fill="#A80036" points="352,211.9098,356,202.9098,352,206.9098,348,202.9098,352,211.9098" style="stroke: #A80036; stroke-width: 1.0;"/><line style="stroke: #A80036; stroke-width: 1.0;" x1="352" x2="352" y1="206.9098" y2="198.9098"/><polygon fill="#A80036" points="352,151.086,348,157.086,352,163.086,356,157.086,352,151.086" style="stroke: #A80036; stroke-width: 1.0;"/><!--link clientNode to serverNode--><path d="M193.602,105.5 C216.806,105.5 242.379,105.5 266.083,105.5 " fill="none" id="clientNode-serverNode" style="stroke: #A80036; stroke-width: 1.0;"/><polygon fill="#A80036" points="271.112,105.5,262.112,101.5,266.112,105.5,262.112,109.5,271.112,105.5" style="stroke: #A80036; stroke-width: 1.0;"/><text fill="#000000" font-family="sans-serif" font-size="13" lengthAdjust="spacingAndGlyphs" textLength="41" x="212" y="98.9951">TCP/IP</text><!--
@startuml

package stanalone {

node standaloneNode #DDDDDD [
<b>Personal Computer</b>
- - - -
memory : xxx Mb
cpu : xxx GHz
]

[ masterming.jar ] as standaloneComponent

}

standaloneNode *- -> standaloneComponent

package clientServer {

node clientNode #DDDDDD [
<b>Client Computer</b>
- - - -
memory : xxx Mb
cpu : xxx GHz
]

[ mastermingClient.jar ] as clientComponent

node serverNode #DDDDDD [
<b>Server Computer</b>
- - - -
memory : xxx Mb
cpu : xxx GHz
]

[ mastermingServer.jar ] as serverComponent

}

clientNode *- -> clientComponent
serverNode *- -> serverComponent

clientNode -right-> serverNode : TCP/IP
@enduml

PlantUML version 1.2019.05(Sat Apr 20 18:45:36 CEST 2019)
(GPL source distribution)
Java Runtime: OpenJDK Runtime Environment
JVM: OpenJDK 64-Bit Server VM
Java Version: 1.8.0_222-b10
Operating System: Windows 10
OS Version: 10.0
Default Encoding: windows-1252
Language: es
Country: ES
--></g></svg>