<?xml version="1.0" encoding="UTF-8" standalone="no"?><svg xmlns="http://www.w3.org/2000/svg" xmlns:xlink="http://www.w3.org/1999/xlink" contentScriptType="application/ecmascript" contentStyleType="text/css" height="656px" preserveAspectRatio="none" style="width:4251px;height:656px;" version="1.1" viewBox="0 0 4251 656" width="4251px" zoomAndPan="magnify"><defs><filter height="300%" id="f4jl6qi5bvt7u" width="300%" x="-1" y="-1"><feGaussianBlur result="blurOut" stdDeviation="2.0"/><feColorMatrix in="blurOut" result="blurOut2" type="matrix" values="0 0 0 0 0 0 0 0 0 0 0 0 0 0 0 0 0 0 .4 0"/><feOffset dx="4.0" dy="4.0" in="blurOut2" result="blurOut3"/><feBlend in="SourceGraphic" in2="blurOut3" mode="normal"/></filter></defs><g><!--cluster mastermind.distributed.dispatchers--><polygon fill="#FFFFFF" filter="url(#f4jl6qi5bvt7u)" points="22,24,278,24,285,47.6094,3870,47.6094,3870,520,22,520,22,24" style="stroke: #000000; stroke-width: 1.5;"/><line style="stroke: #000000; stroke-width: 1.5;" x1="22" x2="285" y1="47.6094" y2="47.6094"/><text fill="#000000" font-family="sans-serif" font-size="14" font-weight="bold" lengthAdjust="spacingAndGlyphs" textLength="250" x="26" y="40.5332">mastermind.distributed.dispatchers</text><!--cluster mastermind.controllers.implementation--><polygon fill="#FFFFFF" filter="url(#f4jl6qi5bvt7u)" points="1379,544,1660,544,1667,567.6094,2094,567.6094,2094,644,1379,644,1379,544" style="stroke: #000000; stroke-width: 1.5;"/><line style="stroke: #000000; stroke-width: 1.5;" x1="1379" x2="1667" y1="567.6094" y2="567.6094"/><text fill="#000000" font-family="sans-serif" font-size="14" font-weight="bold" lengthAdjust="spacingAndGlyphs" textLength="275" x="1383" y="560.5332">mastermind.controllers.implementation</text><!--cluster mastermind.controllers--><polygon fill="#FFFFFF" filter="url(#f4jl6qi5bvt7u)" points="3894,406,4063,406,4070,429.6094,4073,429.6094,4073,506,3894,506,3894,406" style="stroke: #000000; stroke-width: 1.5;"/><line style="stroke: #000000; stroke-width: 1.5;" x1="3894" x2="4070" y1="429.6094" y2="429.6094"/><text fill="#000000" font-family="sans-serif" font-size="14" font-weight="bold" lengthAdjust="spacingAndGlyphs" textLength="163" x="3898" y="422.5332">mastermind.controllers</text><!--cluster mastermind.utils--><polygon fill="#FFFFFF" filter="url(#f4jl6qi5bvt7u)" points="4097,406,4219,406,4226,429.6094,4229,429.6094,4229,506,4097,506,4097,406" style="stroke: #000000; stroke-width: 1.5;"/><line style="stroke: #000000; stroke-width: 1.5;" x1="4097" x2="4226" y1="429.6094" y2="429.6094"/><text fill="#000000" font-family="sans-serif" font-size="14" font-weight="bold" lengthAdjust="spacingAndGlyphs" textLength="116" x="4101" y="422.5332">mastermind.utils</text><!--cluster java.util--><polygon fill="#FFFFFF" filter="url(#f4jl6qi5bvt7u)" points="3894,249.5,3955,249.5,3962,273.1094,3982,273.1094,3982,349.5,3894,349.5,3894,249.5" style="stroke: #000000; stroke-width: 1.5;"/><line style="stroke: #000000; stroke-width: 1.5;" x1="3894" x2="3962" y1="273.1094" y2="273.1094"/><text fill="#000000" font-family="sans-serif" font-size="14" font-weight="bold" lengthAdjust="spacingAndGlyphs" textLength="55" x="3898" y="266.0332">java.util</text><!--cluster mastermind.distributed--><polygon fill="#FFFFFF" filter="url(#f4jl6qi5bvt7u)" points="4006,249.5,4175,249.5,4182,273.1094,4185,273.1094,4185,349.5,4006,349.5,4006,249.5" style="stroke: #000000; stroke-width: 1.5;"/><line style="stroke: #000000; stroke-width: 1.5;" x1="4006" x2="4182" y1="273.1094" y2="273.1094"/><text fill="#000000" font-family="sans-serif" font-size="14" font-weight="bold" lengthAdjust="spacingAndGlyphs" textLength="163" x="4010" y="266.0332">mastermind.distributed</text><!--class mastermind.distributed.dispatchers.AllCodesDispatcher--><rect fill="#FEFECE" filter="url(#f4jl6qi5bvt7u)" height="75.6719" id="mastermind.distributed.dispatchers.AllCodesDispatcher" style="stroke: #A80036; stroke-width: 1.5;" width="265" x="3297.5" y="428"/><ellipse cx="3370.75" cy="444" fill="#ADD1B2" rx="11" ry="11" style="stroke: #A80036; stroke-width: 1.0;"/><path d="M3373.5156,439.875 Q3373.6719,439.6563 3373.8594,439.5469 Q3374.0469,439.4375 3374.2656,439.4375 Q3374.6406,439.4375 3374.875,439.6953 Q3375.1094,439.9531 3375.1094,440.5625 L3375.1094,442.0156 Q3375.1094,442.625 3374.875,442.8906 Q3374.6406,443.1563 3374.2656,443.1563 Q3373.9219,443.1563 3373.7188,442.9531 Q3373.5156,442.7656 3373.4063,442.25 Q3373.3594,441.8906 3373.1719,441.7031 Q3372.8438,441.3281 3372.2344,441.1094 Q3371.625,440.8906 3371,440.8906 Q3370.2344,440.8906 3369.6016,441.2188 Q3368.9688,441.5469 3368.4766,442.2969 Q3367.9844,443.0469 3367.9844,444.0781 L3367.9844,445.1719 Q3367.9844,446.4063 3368.875,447.2266 Q3369.7656,448.0469 3371.3594,448.0469 Q3372.2969,448.0469 3372.9531,447.7969 Q3373.3438,447.6406 3373.7656,447.2031 Q3374.0313,446.9375 3374.1797,446.8594 Q3374.3281,446.7813 3374.5313,446.7813 Q3374.8594,446.7813 3375.1172,447.0391 Q3375.375,447.2969 3375.375,447.6406 Q3375.375,447.9844 3375.0313,448.3906 Q3374.5313,448.9688 3373.7344,449.2969 Q3372.6563,449.75 3371.3594,449.75 Q3369.8438,449.75 3368.6406,449.125 Q3367.6563,448.625 3366.9688,447.5547 Q3366.2813,446.4844 3366.2813,445.2031 L3366.2813,444.0469 Q3366.2813,442.7188 3366.8984,441.5703 Q3367.5156,440.4219 3368.6094,439.8047 Q3369.7031,439.1875 3370.9375,439.1875 Q3371.6719,439.1875 3372.3203,439.3516 Q3372.9688,439.5156 3373.5156,439.875 Z "/><text fill="#000000" font-family="sans-serif" font-size="12" lengthAdjust="spacingAndGlyphs" textLength="110" x="3391.25" y="448.9102">AllCodesDispatcher</text><line style="stroke: #A80036; stroke-width: 1.5;" x1="3298.5" x2="3561.5" y1="460" y2="460"/><line style="stroke: #A80036; stroke-width: 1.5;" x1="3298.5" x2="3561.5" y1="468" y2="468"/><ellipse cx="3308.5" cy="480.418" fill="#84BE84" rx="3" ry="3" style="stroke: #038048; stroke-width: 1.0;"/><text fill="#000000" font-family="sans-serif" font-size="11" lengthAdjust="spacingAndGlyphs" textLength="239" x="3317.5" y="483.4189">AllCodesDispatcher(PlayControllerImplementation)</text><ellipse cx="3308.5" cy="494.2539" fill="#84BE84" rx="3" ry="3" style="stroke: #038048; stroke-width: 1.0;"/><text fill="#000000" font-family="sans-serif" font-size="11" lengthAdjust="spacingAndGlyphs" textLength="75" x="3317.5" y="497.2549">dispatch(): void</text><!--class mastermind.distributed.dispatchers.Dispatcher--><rect fill="#FEFECE" filter="url(#f4jl6qi5bvt7u)" height="117.1797" id="mastermind.distributed.dispatchers.Dispatcher" style="stroke: #A80036; stroke-width: 1.5;" width="212" x="2311" y="251"/><ellipse cx="2382.75" cy="267" fill="#ADD1B2" rx="11" ry="11" style="stroke: #A80036; stroke-width: 1.0;"/><path d="M2385.5156,262.875 Q2385.6719,262.6563 2385.8594,262.5469 Q2386.0469,262.4375 2386.2656,262.4375 Q2386.6406,262.4375 2386.875,262.6953 Q2387.1094,262.9531 2387.1094,263.5625 L2387.1094,265.0156 Q2387.1094,265.625 2386.875,265.8906 Q2386.6406,266.1563 2386.2656,266.1563 Q2385.9219,266.1563 2385.7188,265.9531 Q2385.5156,265.7656 2385.4063,265.25 Q2385.3594,264.8906 2385.1719,264.7031 Q2384.8438,264.3281 2384.2344,264.1094 Q2383.625,263.8906 2383,263.8906 Q2382.2344,263.8906 2381.6016,264.2188 Q2380.9688,264.5469 2380.4766,265.2969 Q2379.9844,266.0469 2379.9844,267.0781 L2379.9844,268.1719 Q2379.9844,269.4063 2380.875,270.2266 Q2381.7656,271.0469 2383.3594,271.0469 Q2384.2969,271.0469 2384.9531,270.7969 Q2385.3438,270.6406 2385.7656,270.2031 Q2386.0313,269.9375 2386.1797,269.8594 Q2386.3281,269.7813 2386.5313,269.7813 Q2386.8594,269.7813 2387.1172,270.0391 Q2387.375,270.2969 2387.375,270.6406 Q2387.375,270.9844 2387.0313,271.3906 Q2386.5313,271.9688 2385.7344,272.2969 Q2384.6563,272.75 2383.3594,272.75 Q2381.8438,272.75 2380.6406,272.125 Q2379.6563,271.625 2378.9688,270.5547 Q2378.2813,269.4844 2378.2813,268.2031 L2378.2813,267.0469 Q2378.2813,265.7188 2378.8984,264.5703 Q2379.5156,263.4219 2380.6094,262.8047 Q2381.7031,262.1875 2382.9375,262.1875 Q2383.6719,262.1875 2384.3203,262.3516 Q2384.9688,262.5156 2385.5156,262.875 Z "/><text fill="#000000" font-family="sans-serif" font-size="12" lengthAdjust="spacingAndGlyphs" textLength="60" x="2403.25" y="271.9102">Dispatcher</text><line style="stroke: #A80036; stroke-width: 1.5;" x1="2312" x2="2522" y1="283" y2="283"/><polygon fill="none" points="2322,290.418,2326,294.418,2322,298.418,2318,294.418" style="stroke: #B38D22; stroke-width: 1.0;"/><text fill="#000000" font-family="sans-serif" font-size="11" lengthAdjust="spacingAndGlyphs" textLength="186" x="2331" y="298.4189">acceptorController: AcceptorController</text><polygon fill="none" points="2322,304.2539,2326,308.2539,2322,312.2539,2318,308.2539" style="stroke: #B38D22; stroke-width: 1.0;"/><text fill="#000000" font-family="sans-serif" font-size="11" lengthAdjust="spacingAndGlyphs" textLength="56" x="2331" y="312.2549">tcpip: TCPIP</text><line style="stroke: #A80036; stroke-width: 1.5;" x1="2312" x2="2522" y1="318.6719" y2="318.6719"/><ellipse cx="2322" cy="331.0898" fill="#84BE84" rx="3" ry="3" style="stroke: #038048; stroke-width: 1.0;"/><text fill="#000000" font-family="sans-serif" font-size="11" lengthAdjust="spacingAndGlyphs" textLength="151" x="2331" y="334.0908">Dispatcher(AcceptorController)</text><ellipse cx="2322" cy="344.9258" fill="#84BE84" rx="3" ry="3" style="stroke: #038048; stroke-width: 1.0;"/><text fill="#000000" font-family="sans-serif" font-size="11" font-style="italic" lengthAdjust="spacingAndGlyphs" textLength="76" x="2331" y="347.9268">dispatch(): void</text><ellipse cx="2322" cy="358.7617" fill="#84BE84" rx="3" ry="3" style="stroke: #038048; stroke-width: 1.0;"/><text fill="#000000" font-family="sans-serif" font-size="11" lengthAdjust="spacingAndGlyphs" textLength="108" x="2331" y="361.7627">associate(TCPIP): void</text><!--class mastermind.distributed.dispatchers.DispatcherPrototype--><rect fill="#FEFECE" filter="url(#f4jl6qi5bvt7u)" height="131.0156" id="mastermind.distributed.dispatchers.DispatcherPrototype" style="stroke: #A80036; stroke-width: 1.5;" width="247" x="3606.5" y="60"/><ellipse cx="3670.25" cy="76" fill="#ADD1B2" rx="11" ry="11" style="stroke: #A80036; stroke-width: 1.0;"/><path d="M3673.0156,71.875 Q3673.1719,71.6563 3673.3594,71.5469 Q3673.5469,71.4375 3673.7656,71.4375 Q3674.1406,71.4375 3674.375,71.6953 Q3674.6094,71.9531 3674.6094,72.5625 L3674.6094,74.0156 Q3674.6094,74.625 3674.375,74.8906 Q3674.1406,75.1563 3673.7656,75.1563 Q3673.4219,75.1563 3673.2188,74.9531 Q3673.0156,74.7656 3672.9063,74.25 Q3672.8594,73.8906 3672.6719,73.7031 Q3672.3438,73.3281 3671.7344,73.1094 Q3671.125,72.8906 3670.5,72.8906 Q3669.7344,72.8906 3669.1016,73.2188 Q3668.4688,73.5469 3667.9766,74.2969 Q3667.4844,75.0469 3667.4844,76.0781 L3667.4844,77.1719 Q3667.4844,78.4063 3668.375,79.2266 Q3669.2656,80.0469 3670.8594,80.0469 Q3671.7969,80.0469 3672.4531,79.7969 Q3672.8438,79.6406 3673.2656,79.2031 Q3673.5313,78.9375 3673.6797,78.8594 Q3673.8281,78.7813 3674.0313,78.7813 Q3674.3594,78.7813 3674.6172,79.0391 Q3674.875,79.2969 3674.875,79.6406 Q3674.875,79.9844 3674.5313,80.3906 Q3674.0313,80.9688 3673.2344,81.2969 Q3672.1563,81.75 3670.8594,81.75 Q3669.3438,81.75 3668.1406,81.125 Q3667.1563,80.625 3666.4688,79.5547 Q3665.7813,78.4844 3665.7813,77.2031 L3665.7813,76.0469 Q3665.7813,74.7188 3666.3984,73.5703 Q3667.0156,72.4219 3668.1094,71.8047 Q3669.2031,71.1875 3670.4375,71.1875 Q3671.1719,71.1875 3671.8203,71.3516 Q3672.4688,71.5156 3673.0156,71.875 Z "/><text fill="#000000" font-family="sans-serif" font-size="12" lengthAdjust="spacingAndGlyphs" textLength="111" x="3690.75" y="80.9102">DispatcherPrototype</text><line style="stroke: #A80036; stroke-width: 1.5;" x1="3607.5" x2="3852.5" y1="92" y2="92"/><rect fill="none" height="6" style="stroke: #C82930; stroke-width: 1.0;" width="6" x="3614.5" y="101.418"/><text fill="#000000" font-family="sans-serif" font-size="11" lengthAdjust="spacingAndGlyphs" textLength="56" x="3626.5" y="107.4189">tcpip: TCPIP</text><rect fill="none" height="6" style="stroke: #C82930; stroke-width: 1.0;" width="6" x="3614.5" y="115.2539"/><text fill="#000000" font-family="sans-serif" font-size="11" lengthAdjust="spacingAndGlyphs" textLength="221" x="3626.5" y="121.2549">dispatcherMap: Map&lt;FrameType, Dispatcher&gt;</text><line style="stroke: #A80036; stroke-width: 1.5;" x1="3607.5" x2="3852.5" y1="127.6719" y2="127.6719"/><ellipse cx="3617.5" cy="140.0898" fill="#84BE84" rx="3" ry="3" style="stroke: #038048; stroke-width: 1.0;"/><text fill="#000000" font-family="sans-serif" font-size="11" lengthAdjust="spacingAndGlyphs" textLength="106" x="3626.5" y="143.0908">DispatcherPrototype()</text><ellipse cx="3617.5" cy="153.9258" fill="#84BE84" rx="3" ry="3" style="stroke: #038048; stroke-width: 1.0;"/><text fill="#000000" font-family="sans-serif" font-size="11" lengthAdjust="spacingAndGlyphs" textLength="164" x="3626.5" y="156.9268">add(FrameType, Dispatcher): void</text><ellipse cx="3617.5" cy="167.7617" fill="#84BE84" rx="3" ry="3" style="stroke: #038048; stroke-width: 1.0;"/><text fill="#000000" font-family="sans-serif" font-size="11" lengthAdjust="spacingAndGlyphs" textLength="129" x="3626.5" y="170.7627">dispatch(FrameType): void</text><ellipse cx="3617.5" cy="181.5977" fill="#84BE84" rx="3" ry="3" style="stroke: #038048; stroke-width: 1.0;"/><text fill="#000000" font-family="sans-serif" font-size="11" lengthAdjust="spacingAndGlyphs" textLength="62" x="3626.5" y="184.5986">serve(): void</text><!--class mastermind.distributed.dispatchers.LooserDispatcher--><rect fill="#FEFECE" filter="url(#f4jl6qi5bvt7u)" height="75.6719" id="mastermind.distributed.dispatchers.LooserDispatcher" style="stroke: #A80036; stroke-width: 1.5;" width="256" x="3598" y="428"/><ellipse cx="3672.25" cy="444" fill="#ADD1B2" rx="11" ry="11" style="stroke: #A80036; stroke-width: 1.0;"/><path d="M3675.0156,439.875 Q3675.1719,439.6563 3675.3594,439.5469 Q3675.5469,439.4375 3675.7656,439.4375 Q3676.1406,439.4375 3676.375,439.6953 Q3676.6094,439.9531 3676.6094,440.5625 L3676.6094,442.0156 Q3676.6094,442.625 3676.375,442.8906 Q3676.1406,443.1563 3675.7656,443.1563 Q3675.4219,443.1563 3675.2188,442.9531 Q3675.0156,442.7656 3674.9063,442.25 Q3674.8594,441.8906 3674.6719,441.7031 Q3674.3438,441.3281 3673.7344,441.1094 Q3673.125,440.8906 3672.5,440.8906 Q3671.7344,440.8906 3671.1016,441.2188 Q3670.4688,441.5469 3669.9766,442.2969 Q3669.4844,443.0469 3669.4844,444.0781 L3669.4844,445.1719 Q3669.4844,446.4063 3670.375,447.2266 Q3671.2656,448.0469 3672.8594,448.0469 Q3673.7969,448.0469 3674.4531,447.7969 Q3674.8438,447.6406 3675.2656,447.2031 Q3675.5313,446.9375 3675.6797,446.8594 Q3675.8281,446.7813 3676.0313,446.7813 Q3676.3594,446.7813 3676.6172,447.0391 Q3676.875,447.2969 3676.875,447.6406 Q3676.875,447.9844 3676.5313,448.3906 Q3676.0313,448.9688 3675.2344,449.2969 Q3674.1563,449.75 3672.8594,449.75 Q3671.3438,449.75 3670.1406,449.125 Q3669.1563,448.625 3668.4688,447.5547 Q3667.7813,446.4844 3667.7813,445.2031 L3667.7813,444.0469 Q3667.7813,442.7188 3668.3984,441.5703 Q3669.0156,440.4219 3670.1094,439.8047 Q3671.2031,439.1875 3672.4375,439.1875 Q3673.1719,439.1875 3673.8203,439.3516 Q3674.4688,439.5156 3675.0156,439.875 Z "/><text fill="#000000" font-family="sans-serif" font-size="12" lengthAdjust="spacingAndGlyphs" textLength="99" x="3692.75" y="448.9102">LooserDispatcher</text><line style="stroke: #A80036; stroke-width: 1.5;" x1="3599" x2="3853" y1="460" y2="460"/><line style="stroke: #A80036; stroke-width: 1.5;" x1="3599" x2="3853" y1="468" y2="468"/><ellipse cx="3609" cy="480.418" fill="#84BE84" rx="3" ry="3" style="stroke: #038048; stroke-width: 1.0;"/><text fill="#000000" font-family="sans-serif" font-size="11" lengthAdjust="spacingAndGlyphs" textLength="230" x="3618" y="483.4189">LooserDispatcher(PlayControllerImplementation)</text><ellipse cx="3609" cy="494.2539" fill="#84BE84" rx="3" ry="3" style="stroke: #038048; stroke-width: 1.0;"/><text fill="#000000" font-family="sans-serif" font-size="11" lengthAdjust="spacingAndGlyphs" textLength="75" x="3618" y="497.2549">dispatch(): void</text><!--class mastermind.distributed.dispatchers.ProposeCombinationDispatcher--><rect fill="#FEFECE" filter="url(#f4jl6qi5bvt7u)" height="75.6719" id="mastermind.distributed.dispatchers.ProposeCombinationDispatcher" style="stroke: #A80036; stroke-width: 1.5;" width="320" x="636" y="428"/><ellipse cx="702.75" cy="444" fill="#ADD1B2" rx="11" ry="11" style="stroke: #A80036; stroke-width: 1.0;"/><path d="M705.5156,439.875 Q705.6719,439.6563 705.8594,439.5469 Q706.0469,439.4375 706.2656,439.4375 Q706.6406,439.4375 706.875,439.6953 Q707.1094,439.9531 707.1094,440.5625 L707.1094,442.0156 Q707.1094,442.625 706.875,442.8906 Q706.6406,443.1563 706.2656,443.1563 Q705.9219,443.1563 705.7188,442.9531 Q705.5156,442.7656 705.4063,442.25 Q705.3594,441.8906 705.1719,441.7031 Q704.8438,441.3281 704.2344,441.1094 Q703.625,440.8906 703,440.8906 Q702.2344,440.8906 701.6016,441.2188 Q700.9688,441.5469 700.4766,442.2969 Q699.9844,443.0469 699.9844,444.0781 L699.9844,445.1719 Q699.9844,446.4063 700.875,447.2266 Q701.7656,448.0469 703.3594,448.0469 Q704.2969,448.0469 704.9531,447.7969 Q705.3438,447.6406 705.7656,447.2031 Q706.0313,446.9375 706.1797,446.8594 Q706.3281,446.7813 706.5313,446.7813 Q706.8594,446.7813 707.1172,447.0391 Q707.375,447.2969 707.375,447.6406 Q707.375,447.9844 707.0313,448.3906 Q706.5313,448.9688 705.7344,449.2969 Q704.6563,449.75 703.3594,449.75 Q701.8438,449.75 700.6406,449.125 Q699.6563,448.625 698.9688,447.5547 Q698.2813,446.4844 698.2813,445.2031 L698.2813,444.0469 Q698.2813,442.7188 698.8984,441.5703 Q699.5156,440.4219 700.6094,439.8047 Q701.7031,439.1875 702.9375,439.1875 Q703.6719,439.1875 704.3203,439.3516 Q704.9688,439.5156 705.5156,439.875 Z "/><text fill="#000000" font-family="sans-serif" font-size="12" lengthAdjust="spacingAndGlyphs" textLength="178" x="723.25" y="448.9102">ProposeCombinationDispatcher</text><line style="stroke: #A80036; stroke-width: 1.5;" x1="637" x2="955" y1="460" y2="460"/><line style="stroke: #A80036; stroke-width: 1.5;" x1="637" x2="955" y1="468" y2="468"/><ellipse cx="647" cy="480.418" fill="#84BE84" rx="3" ry="3" style="stroke: #038048; stroke-width: 1.0;"/><text fill="#000000" font-family="sans-serif" font-size="11" lengthAdjust="spacingAndGlyphs" textLength="294" x="656" y="483.4189">ProposeCombinationDispatcher(PlayControllerImplementation)</text><ellipse cx="647" cy="494.2539" fill="#84BE84" rx="3" ry="3" style="stroke: #038048; stroke-width: 1.0;"/><text fill="#000000" font-family="sans-serif" font-size="11" lengthAdjust="spacingAndGlyphs" textLength="75" x="656" y="497.2549">dispatch(): void</text><!--class mastermind.distributed.dispatchers.RedoableDispatcher--><rect fill="#FEFECE" filter="url(#f4jl6qi5bvt7u)" height="75.6719" id="mastermind.distributed.dispatchers.RedoableDispatcher" style="stroke: #A80036; stroke-width: 1.5;" width="267" x="991.5" y="428"/><ellipse cx="1063.75" cy="444" fill="#ADD1B2" rx="11" ry="11" style="stroke: #A80036; stroke-width: 1.0;"/><path d="M1066.5156,439.875 Q1066.6719,439.6563 1066.8594,439.5469 Q1067.0469,439.4375 1067.2656,439.4375 Q1067.6406,439.4375 1067.875,439.6953 Q1068.1094,439.9531 1068.1094,440.5625 L1068.1094,442.0156 Q1068.1094,442.625 1067.875,442.8906 Q1067.6406,443.1563 1067.2656,443.1563 Q1066.9219,443.1563 1066.7188,442.9531 Q1066.5156,442.7656 1066.4063,442.25 Q1066.3594,441.8906 1066.1719,441.7031 Q1065.8438,441.3281 1065.2344,441.1094 Q1064.625,440.8906 1064,440.8906 Q1063.2344,440.8906 1062.6016,441.2188 Q1061.9688,441.5469 1061.4766,442.2969 Q1060.9844,443.0469 1060.9844,444.0781 L1060.9844,445.1719 Q1060.9844,446.4063 1061.875,447.2266 Q1062.7656,448.0469 1064.3594,448.0469 Q1065.2969,448.0469 1065.9531,447.7969 Q1066.3438,447.6406 1066.7656,447.2031 Q1067.0313,446.9375 1067.1797,446.8594 Q1067.3281,446.7813 1067.5313,446.7813 Q1067.8594,446.7813 1068.1172,447.0391 Q1068.375,447.2969 1068.375,447.6406 Q1068.375,447.9844 1068.0313,448.3906 Q1067.5313,448.9688 1066.7344,449.2969 Q1065.6563,449.75 1064.3594,449.75 Q1062.8438,449.75 1061.6406,449.125 Q1060.6563,448.625 1059.9688,447.5547 Q1059.2813,446.4844 1059.2813,445.2031 L1059.2813,444.0469 Q1059.2813,442.7188 1059.8984,441.5703 Q1060.5156,440.4219 1061.6094,439.8047 Q1062.7031,439.1875 1063.9375,439.1875 Q1064.6719,439.1875 1065.3203,439.3516 Q1065.9688,439.5156 1066.5156,439.875 Z "/><text fill="#000000" font-family="sans-serif" font-size="12" lengthAdjust="spacingAndGlyphs" textLength="114" x="1084.25" y="448.9102">RedoableDispatcher</text><line style="stroke: #A80036; stroke-width: 1.5;" x1="992.5" x2="1257.5" y1="460" y2="460"/><line style="stroke: #A80036; stroke-width: 1.5;" x1="992.5" x2="1257.5" y1="468" y2="468"/><ellipse cx="1002.5" cy="480.418" fill="#84BE84" rx="3" ry="3" style="stroke: #038048; stroke-width: 1.0;"/><text fill="#000000" font-family="sans-serif" font-size="11" lengthAdjust="spacingAndGlyphs" textLength="241" x="1011.5" y="483.4189">RedoableDispatcher(PlayControllerImplementation)</text><ellipse cx="1002.5" cy="494.2539" fill="#84BE84" rx="3" ry="3" style="stroke: #038048; stroke-width: 1.0;"/><text fill="#000000" font-family="sans-serif" font-size="11" lengthAdjust="spacingAndGlyphs" textLength="75" x="1011.5" y="497.2549">dispatch(): void</text><!--class mastermind.distributed.dispatchers.RedoDispatcher--><rect fill="#FEFECE" filter="url(#f4jl6qi5bvt7u)" height="75.6719" id="mastermind.distributed.dispatchers.RedoDispatcher" style="stroke: #A80036; stroke-width: 1.5;" width="247" x="1293.5" y="428"/><ellipse cx="1367.75" cy="444" fill="#ADD1B2" rx="11" ry="11" style="stroke: #A80036; stroke-width: 1.0;"/><path d="M1370.5156,439.875 Q1370.6719,439.6563 1370.8594,439.5469 Q1371.0469,439.4375 1371.2656,439.4375 Q1371.6406,439.4375 1371.875,439.6953 Q1372.1094,439.9531 1372.1094,440.5625 L1372.1094,442.0156 Q1372.1094,442.625 1371.875,442.8906 Q1371.6406,443.1563 1371.2656,443.1563 Q1370.9219,443.1563 1370.7188,442.9531 Q1370.5156,442.7656 1370.4063,442.25 Q1370.3594,441.8906 1370.1719,441.7031 Q1369.8438,441.3281 1369.2344,441.1094 Q1368.625,440.8906 1368,440.8906 Q1367.2344,440.8906 1366.6016,441.2188 Q1365.9688,441.5469 1365.4766,442.2969 Q1364.9844,443.0469 1364.9844,444.0781 L1364.9844,445.1719 Q1364.9844,446.4063 1365.875,447.2266 Q1366.7656,448.0469 1368.3594,448.0469 Q1369.2969,448.0469 1369.9531,447.7969 Q1370.3438,447.6406 1370.7656,447.2031 Q1371.0313,446.9375 1371.1797,446.8594 Q1371.3281,446.7813 1371.5313,446.7813 Q1371.8594,446.7813 1372.1172,447.0391 Q1372.375,447.2969 1372.375,447.6406 Q1372.375,447.9844 1372.0313,448.3906 Q1371.5313,448.9688 1370.7344,449.2969 Q1369.6563,449.75 1368.3594,449.75 Q1366.8438,449.75 1365.6406,449.125 Q1364.6563,448.625 1363.9688,447.5547 Q1363.2813,446.4844 1363.2813,445.2031 L1363.2813,444.0469 Q1363.2813,442.7188 1363.8984,441.5703 Q1364.5156,440.4219 1365.6094,439.8047 Q1366.7031,439.1875 1367.9375,439.1875 Q1368.6719,439.1875 1369.3203,439.3516 Q1369.9688,439.5156 1370.5156,439.875 Z "/><text fill="#000000" font-family="sans-serif" font-size="12" lengthAdjust="spacingAndGlyphs" textLength="90" x="1388.25" y="448.9102">RedoDispatcher</text><line style="stroke: #A80036; stroke-width: 1.5;" x1="1294.5" x2="1539.5" y1="460" y2="460"/><line style="stroke: #A80036; stroke-width: 1.5;" x1="1294.5" x2="1539.5" y1="468" y2="468"/><ellipse cx="1304.5" cy="480.418" fill="#84BE84" rx="3" ry="3" style="stroke: #038048; stroke-width: 1.0;"/><text fill="#000000" font-family="sans-serif" font-size="11" lengthAdjust="spacingAndGlyphs" textLength="221" x="1313.5" y="483.4189">RedoDispatcher(PlayControllerImplementation)</text><ellipse cx="1304.5" cy="494.2539" fill="#84BE84" rx="3" ry="3" style="stroke: #038048; stroke-width: 1.0;"/><text fill="#000000" font-family="sans-serif" font-size="11" lengthAdjust="spacingAndGlyphs" textLength="75" x="1313.5" y="497.2549">dispatch(): void</text><!--class mastermind.distributed.dispatchers.ResumeDispatcher--><rect fill="#FEFECE" filter="url(#f4jl6qi5bvt7u)" height="75.6719" id="mastermind.distributed.dispatchers.ResumeDispatcher" style="stroke: #A80036; stroke-width: 1.5;" width="280" x="38" y="428"/><ellipse cx="119.75" cy="444" fill="#ADD1B2" rx="11" ry="11" style="stroke: #A80036; stroke-width: 1.0;"/><path d="M122.5156,439.875 Q122.6719,439.6563 122.8594,439.5469 Q123.0469,439.4375 123.2656,439.4375 Q123.6406,439.4375 123.875,439.6953 Q124.1094,439.9531 124.1094,440.5625 L124.1094,442.0156 Q124.1094,442.625 123.875,442.8906 Q123.6406,443.1563 123.2656,443.1563 Q122.9219,443.1563 122.7188,442.9531 Q122.5156,442.7656 122.4063,442.25 Q122.3594,441.8906 122.1719,441.7031 Q121.8438,441.3281 121.2344,441.1094 Q120.625,440.8906 120,440.8906 Q119.2344,440.8906 118.6016,441.2188 Q117.9688,441.5469 117.4766,442.2969 Q116.9844,443.0469 116.9844,444.0781 L116.9844,445.1719 Q116.9844,446.4063 117.875,447.2266 Q118.7656,448.0469 120.3594,448.0469 Q121.2969,448.0469 121.9531,447.7969 Q122.3438,447.6406 122.7656,447.2031 Q123.0313,446.9375 123.1797,446.8594 Q123.3281,446.7813 123.5313,446.7813 Q123.8594,446.7813 124.1172,447.0391 Q124.375,447.2969 124.375,447.6406 Q124.375,447.9844 124.0313,448.3906 Q123.5313,448.9688 122.7344,449.2969 Q121.6563,449.75 120.3594,449.75 Q118.8438,449.75 117.6406,449.125 Q116.6563,448.625 115.9688,447.5547 Q115.2813,446.4844 115.2813,445.2031 L115.2813,444.0469 Q115.2813,442.7188 115.8984,441.5703 Q116.5156,440.4219 117.6094,439.8047 Q118.7031,439.1875 119.9375,439.1875 Q120.6719,439.1875 121.3203,439.3516 Q121.9688,439.5156 122.5156,439.875 Z "/><text fill="#000000" font-family="sans-serif" font-size="12" lengthAdjust="spacingAndGlyphs" textLength="108" x="140.25" y="448.9102">ResumeDispatcher</text><line style="stroke: #A80036; stroke-width: 1.5;" x1="39" x2="317" y1="460" y2="460"/><line style="stroke: #A80036; stroke-width: 1.5;" x1="39" x2="317" y1="468" y2="468"/><ellipse cx="49" cy="480.418" fill="#84BE84" rx="3" ry="3" style="stroke: #038048; stroke-width: 1.0;"/><text fill="#000000" font-family="sans-serif" font-size="11" lengthAdjust="spacingAndGlyphs" textLength="254" x="58" y="483.4189">ResumeDispatcher(ResumeControllerImplementation)</text><ellipse cx="49" cy="494.2539" fill="#84BE84" rx="3" ry="3" style="stroke: #038048; stroke-width: 1.0;"/><text fill="#000000" font-family="sans-serif" font-size="11" lengthAdjust="spacingAndGlyphs" textLength="75" x="58" y="497.2549">dispatch(): void</text><!--class mastermind.distributed.dispatchers.StartDispatcher--><rect fill="#FEFECE" filter="url(#f4jl6qi5bvt7u)" height="75.6719" id="mastermind.distributed.dispatchers.StartDispatcher" style="stroke: #A80036; stroke-width: 1.5;" width="248" x="353" y="428"/><ellipse cx="430.25" cy="444" fill="#ADD1B2" rx="11" ry="11" style="stroke: #A80036; stroke-width: 1.0;"/><path d="M433.0156,439.875 Q433.1719,439.6563 433.3594,439.5469 Q433.5469,439.4375 433.7656,439.4375 Q434.1406,439.4375 434.375,439.6953 Q434.6094,439.9531 434.6094,440.5625 L434.6094,442.0156 Q434.6094,442.625 434.375,442.8906 Q434.1406,443.1563 433.7656,443.1563 Q433.4219,443.1563 433.2188,442.9531 Q433.0156,442.7656 432.9063,442.25 Q432.8594,441.8906 432.6719,441.7031 Q432.3438,441.3281 431.7344,441.1094 Q431.125,440.8906 430.5,440.8906 Q429.7344,440.8906 429.1016,441.2188 Q428.4688,441.5469 427.9766,442.2969 Q427.4844,443.0469 427.4844,444.0781 L427.4844,445.1719 Q427.4844,446.4063 428.375,447.2266 Q429.2656,448.0469 430.8594,448.0469 Q431.7969,448.0469 432.4531,447.7969 Q432.8438,447.6406 433.2656,447.2031 Q433.5313,446.9375 433.6797,446.8594 Q433.8281,446.7813 434.0313,446.7813 Q434.3594,446.7813 434.6172,447.0391 Q434.875,447.2969 434.875,447.6406 Q434.875,447.9844 434.5313,448.3906 Q434.0313,448.9688 433.2344,449.2969 Q432.1563,449.75 430.8594,449.75 Q429.3438,449.75 428.1406,449.125 Q427.1563,448.625 426.4688,447.5547 Q425.7813,446.4844 425.7813,445.2031 L425.7813,444.0469 Q425.7813,442.7188 426.3984,441.5703 Q427.0156,440.4219 428.1094,439.8047 Q429.2031,439.1875 430.4375,439.1875 Q431.1719,439.1875 431.8203,439.3516 Q432.4688,439.5156 433.0156,439.875 Z "/><text fill="#000000" font-family="sans-serif" font-size="12" lengthAdjust="spacingAndGlyphs" textLength="85" x="450.75" y="448.9102">StartDispatcher</text><line style="stroke: #A80036; stroke-width: 1.5;" x1="354" x2="600" y1="460" y2="460"/><line style="stroke: #A80036; stroke-width: 1.5;" x1="354" x2="600" y1="468" y2="468"/><ellipse cx="364" cy="480.418" fill="#84BE84" rx="3" ry="3" style="stroke: #038048; stroke-width: 1.0;"/><text fill="#000000" font-family="sans-serif" font-size="11" lengthAdjust="spacingAndGlyphs" textLength="222" x="373" y="483.4189">StartDispatcher(StartControllerImplementation)</text><ellipse cx="364" cy="494.2539" fill="#84BE84" rx="3" ry="3" style="stroke: #038048; stroke-width: 1.0;"/><text fill="#000000" font-family="sans-serif" font-size="11" lengthAdjust="spacingAndGlyphs" textLength="75" x="373" y="497.2549">dispatch(): void</text><!--class mastermind.distributed.dispatchers.StateDispatcher--><rect fill="#FEFECE" filter="url(#f4jl6qi5bvt7u)" height="75.6719" id="mastermind.distributed.dispatchers.StateDispatcher" style="stroke: #A80036; stroke-width: 1.5;" width="247" x="1575.5" y="428"/><ellipse cx="1650.75" cy="444" fill="#ADD1B2" rx="11" ry="11" style="stroke: #A80036; stroke-width: 1.0;"/><path d="M1653.5156,439.875 Q1653.6719,439.6563 1653.8594,439.5469 Q1654.0469,439.4375 1654.2656,439.4375 Q1654.6406,439.4375 1654.875,439.6953 Q1655.1094,439.9531 1655.1094,440.5625 L1655.1094,442.0156 Q1655.1094,442.625 1654.875,442.8906 Q1654.6406,443.1563 1654.2656,443.1563 Q1653.9219,443.1563 1653.7188,442.9531 Q1653.5156,442.7656 1653.4063,442.25 Q1653.3594,441.8906 1653.1719,441.7031 Q1652.8438,441.3281 1652.2344,441.1094 Q1651.625,440.8906 1651,440.8906 Q1650.2344,440.8906 1649.6016,441.2188 Q1648.9688,441.5469 1648.4766,442.2969 Q1647.9844,443.0469 1647.9844,444.0781 L1647.9844,445.1719 Q1647.9844,446.4063 1648.875,447.2266 Q1649.7656,448.0469 1651.3594,448.0469 Q1652.2969,448.0469 1652.9531,447.7969 Q1653.3438,447.6406 1653.7656,447.2031 Q1654.0313,446.9375 1654.1797,446.8594 Q1654.3281,446.7813 1654.5313,446.7813 Q1654.8594,446.7813 1655.1172,447.0391 Q1655.375,447.2969 1655.375,447.6406 Q1655.375,447.9844 1655.0313,448.3906 Q1654.5313,448.9688 1653.7344,449.2969 Q1652.6563,449.75 1651.3594,449.75 Q1649.8438,449.75 1648.6406,449.125 Q1647.6563,448.625 1646.9688,447.5547 Q1646.2813,446.4844 1646.2813,445.2031 L1646.2813,444.0469 Q1646.2813,442.7188 1646.8984,441.5703 Q1647.5156,440.4219 1648.6094,439.8047 Q1649.7031,439.1875 1650.9375,439.1875 Q1651.6719,439.1875 1652.3203,439.3516 Q1652.9688,439.5156 1653.5156,439.875 Z "/><text fill="#000000" font-family="sans-serif" font-size="12" lengthAdjust="spacingAndGlyphs" textLength="88" x="1671.25" y="448.9102">StateDispatcher</text><line style="stroke: #A80036; stroke-width: 1.5;" x1="1576.5" x2="1821.5" y1="460" y2="460"/><line style="stroke: #A80036; stroke-width: 1.5;" x1="1576.5" x2="1821.5" y1="468" y2="468"/><ellipse cx="1586.5" cy="480.418" fill="#84BE84" rx="3" ry="3" style="stroke: #038048; stroke-width: 1.0;"/><text fill="#000000" font-family="sans-serif" font-size="11" lengthAdjust="spacingAndGlyphs" textLength="221" x="1595.5" y="483.4189">StateDispatcher(PlayControllerImplementation)</text><ellipse cx="1586.5" cy="494.2539" fill="#84BE84" rx="3" ry="3" style="stroke: #038048; stroke-width: 1.0;"/><text fill="#000000" font-family="sans-serif" font-size="11" lengthAdjust="spacingAndGlyphs" textLength="75" x="1595.5" y="497.2549">dispatch(): void</text><!--class mastermind.distributed.dispatchers.TurnDispatcher--><rect fill="#FEFECE" filter="url(#f4jl6qi5bvt7u)" height="75.6719" id="mastermind.distributed.dispatchers.TurnDispatcher" style="stroke: #A80036; stroke-width: 1.5;" width="244" x="1858" y="428"/><ellipse cx="1933.25" cy="444" fill="#ADD1B2" rx="11" ry="11" style="stroke: #A80036; stroke-width: 1.0;"/><path d="M1936.0156,439.875 Q1936.1719,439.6563 1936.3594,439.5469 Q1936.5469,439.4375 1936.7656,439.4375 Q1937.1406,439.4375 1937.375,439.6953 Q1937.6094,439.9531 1937.6094,440.5625 L1937.6094,442.0156 Q1937.6094,442.625 1937.375,442.8906 Q1937.1406,443.1563 1936.7656,443.1563 Q1936.4219,443.1563 1936.2188,442.9531 Q1936.0156,442.7656 1935.9063,442.25 Q1935.8594,441.8906 1935.6719,441.7031 Q1935.3438,441.3281 1934.7344,441.1094 Q1934.125,440.8906 1933.5,440.8906 Q1932.7344,440.8906 1932.1016,441.2188 Q1931.4688,441.5469 1930.9766,442.2969 Q1930.4844,443.0469 1930.4844,444.0781 L1930.4844,445.1719 Q1930.4844,446.4063 1931.375,447.2266 Q1932.2656,448.0469 1933.8594,448.0469 Q1934.7969,448.0469 1935.4531,447.7969 Q1935.8438,447.6406 1936.2656,447.2031 Q1936.5313,446.9375 1936.6797,446.8594 Q1936.8281,446.7813 1937.0313,446.7813 Q1937.3594,446.7813 1937.6172,447.0391 Q1937.875,447.2969 1937.875,447.6406 Q1937.875,447.9844 1937.5313,448.3906 Q1937.0313,448.9688 1936.2344,449.2969 Q1935.1563,449.75 1933.8594,449.75 Q1932.3438,449.75 1931.1406,449.125 Q1930.1563,448.625 1929.4688,447.5547 Q1928.7813,446.4844 1928.7813,445.2031 L1928.7813,444.0469 Q1928.7813,442.7188 1929.3984,441.5703 Q1930.0156,440.4219 1931.1094,439.8047 Q1932.2031,439.1875 1933.4375,439.1875 Q1934.1719,439.1875 1934.8203,439.3516 Q1935.4688,439.5156 1936.0156,439.875 Z "/><text fill="#000000" font-family="sans-serif" font-size="12" lengthAdjust="spacingAndGlyphs" textLength="85" x="1953.75" y="448.9102">TurnDispatcher</text><line style="stroke: #A80036; stroke-width: 1.5;" x1="1859" x2="2101" y1="460" y2="460"/><line style="stroke: #A80036; stroke-width: 1.5;" x1="1859" x2="2101" y1="468" y2="468"/><ellipse cx="1869" cy="480.418" fill="#84BE84" rx="3" ry="3" style="stroke: #038048; stroke-width: 1.0;"/><text fill="#000000" font-family="sans-serif" font-size="11" lengthAdjust="spacingAndGlyphs" textLength="218" x="1878" y="483.4189">TurnDispatcher(PlayControllerImplementation)</text><ellipse cx="1869" cy="494.2539" fill="#84BE84" rx="3" ry="3" style="stroke: #038048; stroke-width: 1.0;"/><text fill="#000000" font-family="sans-serif" font-size="11" lengthAdjust="spacingAndGlyphs" textLength="75" x="1878" y="497.2549">dispatch(): void</text><!--class mastermind.distributed.dispatchers.UndoableDispatcher--><rect fill="#FEFECE" filter="url(#f4jl6qi5bvt7u)" height="75.6719" id="mastermind.distributed.dispatchers.UndoableDispatcher" style="stroke: #A80036; stroke-width: 1.5;" width="267" x="2137.5" y="428"/><ellipse cx="2209.75" cy="444" fill="#ADD1B2" rx="11" ry="11" style="stroke: #A80036; stroke-width: 1.0;"/><path d="M2212.5156,439.875 Q2212.6719,439.6563 2212.8594,439.5469 Q2213.0469,439.4375 2213.2656,439.4375 Q2213.6406,439.4375 2213.875,439.6953 Q2214.1094,439.9531 2214.1094,440.5625 L2214.1094,442.0156 Q2214.1094,442.625 2213.875,442.8906 Q2213.6406,443.1563 2213.2656,443.1563 Q2212.9219,443.1563 2212.7188,442.9531 Q2212.5156,442.7656 2212.4063,442.25 Q2212.3594,441.8906 2212.1719,441.7031 Q2211.8438,441.3281 2211.2344,441.1094 Q2210.625,440.8906 2210,440.8906 Q2209.2344,440.8906 2208.6016,441.2188 Q2207.9688,441.5469 2207.4766,442.2969 Q2206.9844,443.0469 2206.9844,444.0781 L2206.9844,445.1719 Q2206.9844,446.4063 2207.875,447.2266 Q2208.7656,448.0469 2210.3594,448.0469 Q2211.2969,448.0469 2211.9531,447.7969 Q2212.3438,447.6406 2212.7656,447.2031 Q2213.0313,446.9375 2213.1797,446.8594 Q2213.3281,446.7813 2213.5313,446.7813 Q2213.8594,446.7813 2214.1172,447.0391 Q2214.375,447.2969 2214.375,447.6406 Q2214.375,447.9844 2214.0313,448.3906 Q2213.5313,448.9688 2212.7344,449.2969 Q2211.6563,449.75 2210.3594,449.75 Q2208.8438,449.75 2207.6406,449.125 Q2206.6563,448.625 2205.9688,447.5547 Q2205.2813,446.4844 2205.2813,445.2031 L2205.2813,444.0469 Q2205.2813,442.7188 2205.8984,441.5703 Q2206.5156,440.4219 2207.6094,439.8047 Q2208.7031,439.1875 2209.9375,439.1875 Q2210.6719,439.1875 2211.3203,439.3516 Q2211.9688,439.5156 2212.5156,439.875 Z "/><text fill="#000000" font-family="sans-serif" font-size="12" lengthAdjust="spacingAndGlyphs" textLength="114" x="2230.25" y="448.9102">UndoableDispatcher</text><line style="stroke: #A80036; stroke-width: 1.5;" x1="2138.5" x2="2403.5" y1="460" y2="460"/><line style="stroke: #A80036; stroke-width: 1.5;" x1="2138.5" x2="2403.5" y1="468" y2="468"/><ellipse cx="2148.5" cy="480.418" fill="#84BE84" rx="3" ry="3" style="stroke: #038048; stroke-width: 1.0;"/><text fill="#000000" font-family="sans-serif" font-size="11" lengthAdjust="spacingAndGlyphs" textLength="241" x="2157.5" y="483.4189">UndoableDispatcher(PlayControllerImplementation)</text><ellipse cx="2148.5" cy="494.2539" fill="#84BE84" rx="3" ry="3" style="stroke: #038048; stroke-width: 1.0;"/><text fill="#000000" font-family="sans-serif" font-size="11" lengthAdjust="spacingAndGlyphs" textLength="75" x="2157.5" y="497.2549">dispatch(): void</text><!--class mastermind.distributed.dispatchers.UndoDispatcher--><rect fill="#FEFECE" filter="url(#f4jl6qi5bvt7u)" height="75.6719" id="mastermind.distributed.dispatchers.UndoDispatcher" style="stroke: #A80036; stroke-width: 1.5;" width="247" x="2439.5" y="428"/><ellipse cx="2513.75" cy="444" fill="#ADD1B2" rx="11" ry="11" style="stroke: #A80036; stroke-width: 1.0;"/><path d="M2516.5156,439.875 Q2516.6719,439.6563 2516.8594,439.5469 Q2517.0469,439.4375 2517.2656,439.4375 Q2517.6406,439.4375 2517.875,439.6953 Q2518.1094,439.9531 2518.1094,440.5625 L2518.1094,442.0156 Q2518.1094,442.625 2517.875,442.8906 Q2517.6406,443.1563 2517.2656,443.1563 Q2516.9219,443.1563 2516.7188,442.9531 Q2516.5156,442.7656 2516.4063,442.25 Q2516.3594,441.8906 2516.1719,441.7031 Q2515.8438,441.3281 2515.2344,441.1094 Q2514.625,440.8906 2514,440.8906 Q2513.2344,440.8906 2512.6016,441.2188 Q2511.9688,441.5469 2511.4766,442.2969 Q2510.9844,443.0469 2510.9844,444.0781 L2510.9844,445.1719 Q2510.9844,446.4063 2511.875,447.2266 Q2512.7656,448.0469 2514.3594,448.0469 Q2515.2969,448.0469 2515.9531,447.7969 Q2516.3438,447.6406 2516.7656,447.2031 Q2517.0313,446.9375 2517.1797,446.8594 Q2517.3281,446.7813 2517.5313,446.7813 Q2517.8594,446.7813 2518.1172,447.0391 Q2518.375,447.2969 2518.375,447.6406 Q2518.375,447.9844 2518.0313,448.3906 Q2517.5313,448.9688 2516.7344,449.2969 Q2515.6563,449.75 2514.3594,449.75 Q2512.8438,449.75 2511.6406,449.125 Q2510.6563,448.625 2509.9688,447.5547 Q2509.2813,446.4844 2509.2813,445.2031 L2509.2813,444.0469 Q2509.2813,442.7188 2509.8984,441.5703 Q2510.5156,440.4219 2511.6094,439.8047 Q2512.7031,439.1875 2513.9375,439.1875 Q2514.6719,439.1875 2515.3203,439.3516 Q2515.9688,439.5156 2516.5156,439.875 Z "/><text fill="#000000" font-family="sans-serif" font-size="12" lengthAdjust="spacingAndGlyphs" textLength="90" x="2534.25" y="448.9102">UndoDispatcher</text><line style="stroke: #A80036; stroke-width: 1.5;" x1="2440.5" x2="2685.5" y1="460" y2="460"/><line style="stroke: #A80036; stroke-width: 1.5;" x1="2440.5" x2="2685.5" y1="468" y2="468"/><ellipse cx="2450.5" cy="480.418" fill="#84BE84" rx="3" ry="3" style="stroke: #038048; stroke-width: 1.0;"/><text fill="#000000" font-family="sans-serif" font-size="11" lengthAdjust="spacingAndGlyphs" textLength="221" x="2459.5" y="483.4189">UndoDispatcher(PlayControllerImplementation)</text><ellipse cx="2450.5" cy="494.2539" fill="#84BE84" rx="3" ry="3" style="stroke: #038048; stroke-width: 1.0;"/><text fill="#000000" font-family="sans-serif" font-size="11" lengthAdjust="spacingAndGlyphs" textLength="75" x="2459.5" y="497.2549">dispatch(): void</text><!--class mastermind.distributed.dispatchers.WidthDispatcher--><rect fill="#FEFECE" filter="url(#f4jl6qi5bvt7u)" height="75.6719" id="mastermind.distributed.dispatchers.WidthDispatcher" style="stroke: #A80036; stroke-width: 1.5;" width="249" x="2721.5" y="428"/><ellipse cx="2796.25" cy="444" fill="#ADD1B2" rx="11" ry="11" style="stroke: #A80036; stroke-width: 1.0;"/><path d="M2799.0156,439.875 Q2799.1719,439.6563 2799.3594,439.5469 Q2799.5469,439.4375 2799.7656,439.4375 Q2800.1406,439.4375 2800.375,439.6953 Q2800.6094,439.9531 2800.6094,440.5625 L2800.6094,442.0156 Q2800.6094,442.625 2800.375,442.8906 Q2800.1406,443.1563 2799.7656,443.1563 Q2799.4219,443.1563 2799.2188,442.9531 Q2799.0156,442.7656 2798.9063,442.25 Q2798.8594,441.8906 2798.6719,441.7031 Q2798.3438,441.3281 2797.7344,441.1094 Q2797.125,440.8906 2796.5,440.8906 Q2795.7344,440.8906 2795.1016,441.2188 Q2794.4688,441.5469 2793.9766,442.2969 Q2793.4844,443.0469 2793.4844,444.0781 L2793.4844,445.1719 Q2793.4844,446.4063 2794.375,447.2266 Q2795.2656,448.0469 2796.8594,448.0469 Q2797.7969,448.0469 2798.4531,447.7969 Q2798.8438,447.6406 2799.2656,447.2031 Q2799.5313,446.9375 2799.6797,446.8594 Q2799.8281,446.7813 2800.0313,446.7813 Q2800.3594,446.7813 2800.6172,447.0391 Q2800.875,447.2969 2800.875,447.6406 Q2800.875,447.9844 2800.5313,448.3906 Q2800.0313,448.9688 2799.2344,449.2969 Q2798.1563,449.75 2796.8594,449.75 Q2795.3438,449.75 2794.1406,449.125 Q2793.1563,448.625 2792.4688,447.5547 Q2791.7813,446.4844 2791.7813,445.2031 L2791.7813,444.0469 Q2791.7813,442.7188 2792.3984,441.5703 Q2793.0156,440.4219 2794.1094,439.8047 Q2795.2031,439.1875 2796.4375,439.1875 Q2797.1719,439.1875 2797.8203,439.3516 Q2798.4688,439.5156 2799.0156,439.875 Z "/><text fill="#000000" font-family="sans-serif" font-size="12" lengthAdjust="spacingAndGlyphs" textLength="91" x="2816.75" y="448.9102">WidthDispatcher</text><line style="stroke: #A80036; stroke-width: 1.5;" x1="2722.5" x2="2969.5" y1="460" y2="460"/><line style="stroke: #A80036; stroke-width: 1.5;" x1="2722.5" x2="2969.5" y1="468" y2="468"/><ellipse cx="2732.5" cy="480.418" fill="#84BE84" rx="3" ry="3" style="stroke: #038048; stroke-width: 1.0;"/><text fill="#000000" font-family="sans-serif" font-size="11" lengthAdjust="spacingAndGlyphs" textLength="223" x="2741.5" y="483.4189">WidthDispatcher(PlayControllerImplementation)</text><ellipse cx="2732.5" cy="494.2539" fill="#84BE84" rx="3" ry="3" style="stroke: #038048; stroke-width: 1.0;"/><text fill="#000000" font-family="sans-serif" font-size="11" lengthAdjust="spacingAndGlyphs" textLength="75" x="2741.5" y="497.2549">dispatch(): void</text><!--class mastermind.distributed.dispatchers.WinnerDispatcher--><rect fill="#FEFECE" filter="url(#f4jl6qi5bvt7u)" height="75.6719" id="mastermind.distributed.dispatchers.WinnerDispatcher" style="stroke: #A80036; stroke-width: 1.5;" width="256" x="3006" y="428"/><ellipse cx="3080.25" cy="444" fill="#ADD1B2" rx="11" ry="11" style="stroke: #A80036; stroke-width: 1.0;"/><path d="M3083.0156,439.875 Q3083.1719,439.6563 3083.3594,439.5469 Q3083.5469,439.4375 3083.7656,439.4375 Q3084.1406,439.4375 3084.375,439.6953 Q3084.6094,439.9531 3084.6094,440.5625 L3084.6094,442.0156 Q3084.6094,442.625 3084.375,442.8906 Q3084.1406,443.1563 3083.7656,443.1563 Q3083.4219,443.1563 3083.2188,442.9531 Q3083.0156,442.7656 3082.9063,442.25 Q3082.8594,441.8906 3082.6719,441.7031 Q3082.3438,441.3281 3081.7344,441.1094 Q3081.125,440.8906 3080.5,440.8906 Q3079.7344,440.8906 3079.1016,441.2188 Q3078.4688,441.5469 3077.9766,442.2969 Q3077.4844,443.0469 3077.4844,444.0781 L3077.4844,445.1719 Q3077.4844,446.4063 3078.375,447.2266 Q3079.2656,448.0469 3080.8594,448.0469 Q3081.7969,448.0469 3082.4531,447.7969 Q3082.8438,447.6406 3083.2656,447.2031 Q3083.5313,446.9375 3083.6797,446.8594 Q3083.8281,446.7813 3084.0313,446.7813 Q3084.3594,446.7813 3084.6172,447.0391 Q3084.875,447.2969 3084.875,447.6406 Q3084.875,447.9844 3084.5313,448.3906 Q3084.0313,448.9688 3083.2344,449.2969 Q3082.1563,449.75 3080.8594,449.75 Q3079.3438,449.75 3078.1406,449.125 Q3077.1563,448.625 3076.4688,447.5547 Q3075.7813,446.4844 3075.7813,445.2031 L3075.7813,444.0469 Q3075.7813,442.7188 3076.3984,441.5703 Q3077.0156,440.4219 3078.1094,439.8047 Q3079.2031,439.1875 3080.4375,439.1875 Q3081.1719,439.1875 3081.8203,439.3516 Q3082.4688,439.5156 3083.0156,439.875 Z "/><text fill="#000000" font-family="sans-serif" font-size="12" lengthAdjust="spacingAndGlyphs" textLength="99" x="3100.75" y="448.9102">WinnerDispatcher</text><line style="stroke: #A80036; stroke-width: 1.5;" x1="3007" x2="3261" y1="460" y2="460"/><line style="stroke: #A80036; stroke-width: 1.5;" x1="3007" x2="3261" y1="468" y2="468"/><ellipse cx="3017" cy="480.418" fill="#84BE84" rx="3" ry="3" style="stroke: #038048; stroke-width: 1.0;"/><text fill="#000000" font-family="sans-serif" font-size="11" lengthAdjust="spacingAndGlyphs" textLength="230" x="3026" y="483.4189">WinnerDispatcher(PlayControllerImplementation)</text><ellipse cx="3017" cy="494.2539" fill="#84BE84" rx="3" ry="3" style="stroke: #038048; stroke-width: 1.0;"/><text fill="#000000" font-family="sans-serif" font-size="11" lengthAdjust="spacingAndGlyphs" textLength="75" x="3026" y="497.2549">dispatch(): void</text><!--class mastermind.controllers.implementation.PlayControllerImplementation--><rect fill="#FEFECE" filter="url(#f4jl6qi5bvt7u)" height="48" id="mastermind.controllers.implementation.PlayControllerImplementation" style="stroke: #A80036; stroke-width: 1.5;" width="195" x="1882.5" y="580"/><ellipse cx="1897.5" cy="596" fill="#ADD1B2" rx="11" ry="11" style="stroke: #A80036; stroke-width: 1.0;"/><path d="M1900.2656,591.875 Q1900.4219,591.6563 1900.6094,591.5469 Q1900.7969,591.4375 1901.0156,591.4375 Q1901.3906,591.4375 1901.625,591.6953 Q1901.8594,591.9531 1901.8594,592.5625 L1901.8594,594.0156 Q1901.8594,594.625 1901.625,594.8906 Q1901.3906,595.1563 1901.0156,595.1563 Q1900.6719,595.1563 1900.4688,594.9531 Q1900.2656,594.7656 1900.1563,594.25 Q1900.1094,593.8906 1899.9219,593.7031 Q1899.5938,593.3281 1898.9844,593.1094 Q1898.375,592.8906 1897.75,592.8906 Q1896.9844,592.8906 1896.3516,593.2188 Q1895.7188,593.5469 1895.2266,594.2969 Q1894.7344,595.0469 1894.7344,596.0781 L1894.7344,597.1719 Q1894.7344,598.4063 1895.625,599.2266 Q1896.5156,600.0469 1898.1094,600.0469 Q1899.0469,600.0469 1899.7031,599.7969 Q1900.0938,599.6406 1900.5156,599.2031 Q1900.7813,598.9375 1900.9297,598.8594 Q1901.0781,598.7813 1901.2813,598.7813 Q1901.6094,598.7813 1901.8672,599.0391 Q1902.125,599.2969 1902.125,599.6406 Q1902.125,599.9844 1901.7813,600.3906 Q1901.2813,600.9688 1900.4844,601.2969 Q1899.4063,601.75 1898.1094,601.75 Q1896.5938,601.75 1895.3906,601.125 Q1894.4063,600.625 1893.7188,599.5547 Q1893.0313,598.4844 1893.0313,597.2031 L1893.0313,596.0469 Q1893.0313,594.7188 1893.6484,593.5703 Q1894.2656,592.4219 1895.3594,591.8047 Q1896.4531,591.1875 1897.6875,591.1875 Q1898.4219,591.1875 1899.0703,591.3516 Q1899.7188,591.5156 1900.2656,591.875 Z "/><text fill="#000000" font-family="sans-serif" font-size="12" lengthAdjust="spacingAndGlyphs" textLength="163" x="1911.5" y="600.9102">PlayControllerImplementation</text><line style="stroke: #A80036; stroke-width: 1.5;" x1="1883.5" x2="2076.5" y1="612" y2="612"/><line style="stroke: #A80036; stroke-width: 1.5;" x1="1883.5" x2="2076.5" y1="620" y2="620"/><!--class mastermind.controllers.implementation.ResumeControllerImplementation--><rect fill="#FEFECE" filter="url(#f4jl6qi5bvt7u)" height="48" id="mastermind.controllers.implementation.ResumeControllerImplementation" style="stroke: #A80036; stroke-width: 1.5;" width="220" x="1395" y="580"/><ellipse cx="1410" cy="596" fill="#ADD1B2" rx="11" ry="11" style="stroke: #A80036; stroke-width: 1.0;"/><path d="M1412.7656,591.875 Q1412.9219,591.6563 1413.1094,591.5469 Q1413.2969,591.4375 1413.5156,591.4375 Q1413.8906,591.4375 1414.125,591.6953 Q1414.3594,591.9531 1414.3594,592.5625 L1414.3594,594.0156 Q1414.3594,594.625 1414.125,594.8906 Q1413.8906,595.1563 1413.5156,595.1563 Q1413.1719,595.1563 1412.9688,594.9531 Q1412.7656,594.7656 1412.6563,594.25 Q1412.6094,593.8906 1412.4219,593.7031 Q1412.0938,593.3281 1411.4844,593.1094 Q1410.875,592.8906 1410.25,592.8906 Q1409.4844,592.8906 1408.8516,593.2188 Q1408.2188,593.5469 1407.7266,594.2969 Q1407.2344,595.0469 1407.2344,596.0781 L1407.2344,597.1719 Q1407.2344,598.4063 1408.125,599.2266 Q1409.0156,600.0469 1410.6094,600.0469 Q1411.5469,600.0469 1412.2031,599.7969 Q1412.5938,599.6406 1413.0156,599.2031 Q1413.2813,598.9375 1413.4297,598.8594 Q1413.5781,598.7813 1413.7813,598.7813 Q1414.1094,598.7813 1414.3672,599.0391 Q1414.625,599.2969 1414.625,599.6406 Q1414.625,599.9844 1414.2813,600.3906 Q1413.7813,600.9688 1412.9844,601.2969 Q1411.9063,601.75 1410.6094,601.75 Q1409.0938,601.75 1407.8906,601.125 Q1406.9063,600.625 1406.2188,599.5547 Q1405.5313,598.4844 1405.5313,597.2031 L1405.5313,596.0469 Q1405.5313,594.7188 1406.1484,593.5703 Q1406.7656,592.4219 1407.8594,591.8047 Q1408.9531,591.1875 1410.1875,591.1875 Q1410.9219,591.1875 1411.5703,591.3516 Q1412.2188,591.5156 1412.7656,591.875 Z "/><text fill="#000000" font-family="sans-serif" font-size="12" lengthAdjust="spacingAndGlyphs" textLength="188" x="1424" y="600.9102">ResumeControllerImplementation</text><line style="stroke: #A80036; stroke-width: 1.5;" x1="1396" x2="1614" y1="612" y2="612"/><line style="stroke: #A80036; stroke-width: 1.5;" x1="1396" x2="1614" y1="620" y2="620"/><!--class mastermind.controllers.implementation.StartControllerImplementation--><rect fill="#FEFECE" filter="url(#f4jl6qi5bvt7u)" height="48" id="mastermind.controllers.implementation.StartControllerImplementation" style="stroke: #A80036; stroke-width: 1.5;" width="197" x="1650.5" y="580"/><ellipse cx="1665.5" cy="596" fill="#ADD1B2" rx="11" ry="11" style="stroke: #A80036; stroke-width: 1.0;"/><path d="M1668.2656,591.875 Q1668.4219,591.6563 1668.6094,591.5469 Q1668.7969,591.4375 1669.0156,591.4375 Q1669.3906,591.4375 1669.625,591.6953 Q1669.8594,591.9531 1669.8594,592.5625 L1669.8594,594.0156 Q1669.8594,594.625 1669.625,594.8906 Q1669.3906,595.1563 1669.0156,595.1563 Q1668.6719,595.1563 1668.4688,594.9531 Q1668.2656,594.7656 1668.1563,594.25 Q1668.1094,593.8906 1667.9219,593.7031 Q1667.5938,593.3281 1666.9844,593.1094 Q1666.375,592.8906 1665.75,592.8906 Q1664.9844,592.8906 1664.3516,593.2188 Q1663.7188,593.5469 1663.2266,594.2969 Q1662.7344,595.0469 1662.7344,596.0781 L1662.7344,597.1719 Q1662.7344,598.4063 1663.625,599.2266 Q1664.5156,600.0469 1666.1094,600.0469 Q1667.0469,600.0469 1667.7031,599.7969 Q1668.0938,599.6406 1668.5156,599.2031 Q1668.7813,598.9375 1668.9297,598.8594 Q1669.0781,598.7813 1669.2813,598.7813 Q1669.6094,598.7813 1669.8672,599.0391 Q1670.125,599.2969 1670.125,599.6406 Q1670.125,599.9844 1669.7813,600.3906 Q1669.2813,600.9688 1668.4844,601.2969 Q1667.4063,601.75 1666.1094,601.75 Q1664.5938,601.75 1663.3906,601.125 Q1662.4063,600.625 1661.7188,599.5547 Q1661.0313,598.4844 1661.0313,597.2031 L1661.0313,596.0469 Q1661.0313,594.7188 1661.6484,593.5703 Q1662.2656,592.4219 1663.3594,591.8047 Q1664.4531,591.1875 1665.6875,591.1875 Q1666.4219,591.1875 1667.0703,591.3516 Q1667.7188,591.5156 1668.2656,591.875 Z "/><text fill="#000000" font-family="sans-serif" font-size="12" lengthAdjust="spacingAndGlyphs" textLength="165" x="1679.5" y="600.9102">StartControllerImplementation</text><line style="stroke: #A80036; stroke-width: 1.5;" x1="1651.5" x2="1846.5" y1="612" y2="612"/><line style="stroke: #A80036; stroke-width: 1.5;" x1="1651.5" x2="1846.5" y1="620" y2="620"/><!--class mastermind.controllers.AcceptorController--><rect fill="#FEFECE" filter="url(#f4jl6qi5bvt7u)" height="48" id="mastermind.controllers.AcceptorController" style="stroke: #A80036; stroke-width: 1.5;" width="133" x="3910.5" y="442"/><ellipse cx="3925.5" cy="458" fill="#ADD1B2" rx="11" ry="11" style="stroke: #A80036; stroke-width: 1.0;"/><path d="M3928.2656,453.875 Q3928.4219,453.6563 3928.6094,453.5469 Q3928.7969,453.4375 3929.0156,453.4375 Q3929.3906,453.4375 3929.625,453.6953 Q3929.8594,453.9531 3929.8594,454.5625 L3929.8594,456.0156 Q3929.8594,456.625 3929.625,456.8906 Q3929.3906,457.1563 3929.0156,457.1563 Q3928.6719,457.1563 3928.4688,456.9531 Q3928.2656,456.7656 3928.1563,456.25 Q3928.1094,455.8906 3927.9219,455.7031 Q3927.5938,455.3281 3926.9844,455.1094 Q3926.375,454.8906 3925.75,454.8906 Q3924.9844,454.8906 3924.3516,455.2188 Q3923.7188,455.5469 3923.2266,456.2969 Q3922.7344,457.0469 3922.7344,458.0781 L3922.7344,459.1719 Q3922.7344,460.4063 3923.625,461.2266 Q3924.5156,462.0469 3926.1094,462.0469 Q3927.0469,462.0469 3927.7031,461.7969 Q3928.0938,461.6406 3928.5156,461.2031 Q3928.7813,460.9375 3928.9297,460.8594 Q3929.0781,460.7813 3929.2813,460.7813 Q3929.6094,460.7813 3929.8672,461.0391 Q3930.125,461.2969 3930.125,461.6406 Q3930.125,461.9844 3929.7813,462.3906 Q3929.2813,462.9688 3928.4844,463.2969 Q3927.4063,463.75 3926.1094,463.75 Q3924.5938,463.75 3923.3906,463.125 Q3922.4063,462.625 3921.7188,461.5547 Q3921.0313,460.4844 3921.0313,459.2031 L3921.0313,458.0469 Q3921.0313,456.7188 3921.6484,455.5703 Q3922.2656,454.4219 3923.3594,453.8047 Q3924.4531,453.1875 3925.6875,453.1875 Q3926.4219,453.1875 3927.0703,453.3516 Q3927.7188,453.5156 3928.2656,453.875 Z "/><text fill="#000000" font-family="sans-serif" font-size="12" lengthAdjust="spacingAndGlyphs" textLength="101" x="3939.5" y="462.9102">AcceptorController</text><line style="stroke: #A80036; stroke-width: 1.5;" x1="3911.5" x2="4042.5" y1="474" y2="474"/><line style="stroke: #A80036; stroke-width: 1.5;" x1="3911.5" x2="4042.5" y1="482" y2="482"/><!--class mastermind.utils.TCPIP--><rect fill="#FEFECE" filter="url(#f4jl6qi5bvt7u)" height="48" id="mastermind.utils.TCPIP" style="stroke: #A80036; stroke-width: 1.5;" width="67" x="4113.5" y="442"/><ellipse cx="4128.5" cy="458" fill="#ADD1B2" rx="11" ry="11" style="stroke: #A80036; stroke-width: 1.0;"/><path d="M4131.2656,453.875 Q4131.4219,453.6563 4131.6094,453.5469 Q4131.7969,453.4375 4132.0156,453.4375 Q4132.3906,453.4375 4132.625,453.6953 Q4132.8594,453.9531 4132.8594,454.5625 L4132.8594,456.0156 Q4132.8594,456.625 4132.625,456.8906 Q4132.3906,457.1563 4132.0156,457.1563 Q4131.6719,457.1563 4131.4688,456.9531 Q4131.2656,456.7656 4131.1563,456.25 Q4131.1094,455.8906 4130.9219,455.7031 Q4130.5938,455.3281 4129.9844,455.1094 Q4129.375,454.8906 4128.75,454.8906 Q4127.9844,454.8906 4127.3516,455.2188 Q4126.7188,455.5469 4126.2266,456.2969 Q4125.7344,457.0469 4125.7344,458.0781 L4125.7344,459.1719 Q4125.7344,460.4063 4126.625,461.2266 Q4127.5156,462.0469 4129.1094,462.0469 Q4130.0469,462.0469 4130.7031,461.7969 Q4131.0938,461.6406 4131.5156,461.2031 Q4131.7813,460.9375 4131.9297,460.8594 Q4132.0781,460.7813 4132.2813,460.7813 Q4132.6094,460.7813 4132.8672,461.0391 Q4133.125,461.2969 4133.125,461.6406 Q4133.125,461.9844 4132.7813,462.3906 Q4132.2813,462.9688 4131.4844,463.2969 Q4130.4063,463.75 4129.1094,463.75 Q4127.5938,463.75 4126.3906,463.125 Q4125.4063,462.625 4124.7188,461.5547 Q4124.0313,460.4844 4124.0313,459.2031 L4124.0313,458.0469 Q4124.0313,456.7188 4124.6484,455.5703 Q4125.2656,454.4219 4126.3594,453.8047 Q4127.4531,453.1875 4128.6875,453.1875 Q4129.4219,453.1875 4130.0703,453.3516 Q4130.7188,453.5156 4131.2656,453.875 Z "/><text fill="#000000" font-family="sans-serif" font-size="12" lengthAdjust="spacingAndGlyphs" textLength="35" x="4142.5" y="462.9102">TCPIP</text><line style="stroke: #A80036; stroke-width: 1.5;" x1="4114.5" x2="4179.5" y1="474" y2="474"/><line style="stroke: #A80036; stroke-width: 1.5;" x1="4114.5" x2="4179.5" y1="482" y2="482"/><!--class java.util.Map--><rect fill="#FEFECE" filter="url(#f4jl6qi5bvt7u)" height="48" id="java.util.Map" style="stroke: #A80036; stroke-width: 1.5;" width="55" x="3910.5" y="285.5"/><ellipse cx="3925.5" cy="301.5" fill="#ADD1B2" rx="11" ry="11" style="stroke: #A80036; stroke-width: 1.0;"/><path d="M3928.2656,297.375 Q3928.4219,297.1563 3928.6094,297.0469 Q3928.7969,296.9375 3929.0156,296.9375 Q3929.3906,296.9375 3929.625,297.1953 Q3929.8594,297.4531 3929.8594,298.0625 L3929.8594,299.5156 Q3929.8594,300.125 3929.625,300.3906 Q3929.3906,300.6563 3929.0156,300.6563 Q3928.6719,300.6563 3928.4688,300.4531 Q3928.2656,300.2656 3928.1563,299.75 Q3928.1094,299.3906 3927.9219,299.2031 Q3927.5938,298.8281 3926.9844,298.6094 Q3926.375,298.3906 3925.75,298.3906 Q3924.9844,298.3906 3924.3516,298.7188 Q3923.7188,299.0469 3923.2266,299.7969 Q3922.7344,300.5469 3922.7344,301.5781 L3922.7344,302.6719 Q3922.7344,303.9063 3923.625,304.7266 Q3924.5156,305.5469 3926.1094,305.5469 Q3927.0469,305.5469 3927.7031,305.2969 Q3928.0938,305.1406 3928.5156,304.7031 Q3928.7813,304.4375 3928.9297,304.3594 Q3929.0781,304.2813 3929.2813,304.2813 Q3929.6094,304.2813 3929.8672,304.5391 Q3930.125,304.7969 3930.125,305.1406 Q3930.125,305.4844 3929.7813,305.8906 Q3929.2813,306.4688 3928.4844,306.7969 Q3927.4063,307.25 3926.1094,307.25 Q3924.5938,307.25 3923.3906,306.625 Q3922.4063,306.125 3921.7188,305.0547 Q3921.0313,303.9844 3921.0313,302.7031 L3921.0313,301.5469 Q3921.0313,300.2188 3921.6484,299.0703 Q3922.2656,297.9219 3923.3594,297.3047 Q3924.4531,296.6875 3925.6875,296.6875 Q3926.4219,296.6875 3927.0703,296.8516 Q3927.7188,297.0156 3928.2656,297.375 Z "/><text fill="#000000" font-family="sans-serif" font-size="12" lengthAdjust="spacingAndGlyphs" textLength="23" x="3939.5" y="306.4102">Map</text><line style="stroke: #A80036; stroke-width: 1.5;" x1="3911.5" x2="3964.5" y1="317.5" y2="317.5"/><line style="stroke: #A80036; stroke-width: 1.5;" x1="3911.5" x2="3964.5" y1="325.5" y2="325.5"/><!--class mastermind.distributed.FrameType--><rect fill="#FEFECE" filter="url(#f4jl6qi5bvt7u)" height="48" id="mastermind.distributed.FrameType" style="stroke: #A80036; stroke-width: 1.5;" width="94" x="4022" y="285.5"/><ellipse cx="4037" cy="301.5" fill="#ADD1B2" rx="11" ry="11" style="stroke: #A80036; stroke-width: 1.0;"/><path d="M4039.7656,297.375 Q4039.9219,297.1563 4040.1094,297.0469 Q4040.2969,296.9375 4040.5156,296.9375 Q4040.8906,296.9375 4041.125,297.1953 Q4041.3594,297.4531 4041.3594,298.0625 L4041.3594,299.5156 Q4041.3594,300.125 4041.125,300.3906 Q4040.8906,300.6563 4040.5156,300.6563 Q4040.1719,300.6563 4039.9688,300.4531 Q4039.7656,300.2656 4039.6563,299.75 Q4039.6094,299.3906 4039.4219,299.2031 Q4039.0938,298.8281 4038.4844,298.6094 Q4037.875,298.3906 4037.25,298.3906 Q4036.4844,298.3906 4035.8516,298.7188 Q4035.2188,299.0469 4034.7266,299.7969 Q4034.2344,300.5469 4034.2344,301.5781 L4034.2344,302.6719 Q4034.2344,303.9063 4035.125,304.7266 Q4036.0156,305.5469 4037.6094,305.5469 Q4038.5469,305.5469 4039.2031,305.2969 Q4039.5938,305.1406 4040.0156,304.7031 Q4040.2813,304.4375 4040.4297,304.3594 Q4040.5781,304.2813 4040.7813,304.2813 Q4041.1094,304.2813 4041.3672,304.5391 Q4041.625,304.7969 4041.625,305.1406 Q4041.625,305.4844 4041.2813,305.8906 Q4040.7813,306.4688 4039.9844,306.7969 Q4038.9063,307.25 4037.6094,307.25 Q4036.0938,307.25 4034.8906,306.625 Q4033.9063,306.125 4033.2188,305.0547 Q4032.5313,303.9844 4032.5313,302.7031 L4032.5313,301.5469 Q4032.5313,300.2188 4033.1484,299.0703 Q4033.7656,297.9219 4034.8594,297.3047 Q4035.9531,296.6875 4037.1875,296.6875 Q4037.9219,296.6875 4038.5703,296.8516 Q4039.2188,297.0156 4039.7656,297.375 Z "/><text fill="#000000" font-family="sans-serif" font-size="12" lengthAdjust="spacingAndGlyphs" textLength="62" x="4051" y="306.4102">FrameType</text><line style="stroke: #A80036; stroke-width: 1.5;" x1="4023" x2="4115" y1="317.5" y2="317.5"/><line style="stroke: #A80036; stroke-width: 1.5;" x1="4023" x2="4115" y1="325.5" y2="325.5"/><!--link mastermind.distributed.dispatchers.Dispatcher to mastermind.distributed.dispatchers.AllCodesDispatcher--><path d="M2543.26,310.811 C2713.41,314.036 3024.47,329.869 3280,398 C3306.87,405.164 3335.03,416.59 3359.6,427.992 " fill="none" id="mastermind.distributed.dispatchers.Dispatcher-mastermind.distributed.dispatchers.AllCodesDispatcher" style="stroke: #A80036; stroke-width: 1.0;"/><polygon fill="none" points="2543.1,317.809,2523.22,310.477,2543.33,303.811,2543.1,317.809" style="stroke: #A80036; stroke-width: 1.0;"/><!--link mastermind.distributed.dispatchers.AllCodesDispatcher to mastermind.controllers.implementation.PlayControllerImplementation--><path d="M3352.55,504.137 C3329.69,513.543 3304.27,522.524 3280,528 C3052.66,579.3001 2348.25,596.6162 2082.7,601.4129 " fill="none" id="mastermind.distributed.dispatchers.AllCodesDispatcher-mastermind.controllers.implementation.PlayControllerImplementation" style="stroke: #A80036; stroke-width: 1.0; stroke-dasharray: 7.0,7.0;"/><polygon fill="#A80036" points="2077.66,601.5033,2086.7382,605.3225,2082.659,601.4033,2086.5782,597.3241,2077.66,601.5033" style="stroke: #A80036; stroke-width: 1.0;"/><!--link mastermind.distributed.dispatchers.Dispatcher to mastermind.controllers.AcceptorController--><path d="M2536.23,310.131 C2837.5,310.399 3622.91,318.907 3870,398 C3894.43,405.82 3918.88,420.492 3938.24,434.118 " fill="none" id="mastermind.distributed.dispatchers.Dispatcher-mastermind.controllers.AcceptorController" style="stroke: #A80036; stroke-width: 1.0;"/><polygon fill="#A80036" points="3949,441.959,3944.0742,433.4304,3944.9564,439.0181,3939.3687,439.9002,3949,441.959" style="stroke: #A80036; stroke-width: 1.0;"/><line style="stroke: #A80036; stroke-width: 1.0;" x1="3944.9564" x2="3938.495" y1="439.0181" y2="434.305"/><polygon fill="#A80036" points="2523.11,310.124,2529.1056,314.1306,2535.11,310.1372,2529.1144,306.1306,2523.11,310.124" style="stroke: #A80036; stroke-width: 1.0;"/><!--link mastermind.distributed.dispatchers.Dispatcher to mastermind.utils.TCPIP--><path d="M2523.16,314.416 C2875.49,327.641 3987.93,371.305 4060,398 C4083.07,406.546 4104.99,423.504 4121.06,438.221 " fill="none" id="mastermind.distributed.dispatchers.Dispatcher-mastermind.utils.TCPIP" style="stroke: #A80036; stroke-width: 1.0;"/><polygon fill="#A80036" points="4125.02,441.907,4121.1693,432.8421,4121.3645,438.4956,4115.7111,438.6909,4125.02,441.907" style="stroke: #A80036; stroke-width: 1.0;"/><!--link mastermind.distributed.dispatchers.DispatcherPrototype to java.util.Map--><path d="M3821.5,199.662 C3837.87,213.313 3854.61,227.647 3870,241.5 C3882.1,252.391 3894.93,264.788 3906.14,275.932 " fill="none" id="mastermind.distributed.dispatchers.DispatcherPrototype-java.util.Map" style="stroke: #A80036; stroke-width: 1.0;"/><polygon fill="#A80036" points="3915.52,285.334,3911.9938,276.138,3911.988,281.7949,3906.3312,281.7892,3915.52,285.334" style="stroke: #A80036; stroke-width: 1.0;"/><line style="stroke: #A80036; stroke-width: 1.0;" x1="3911.988" x2="3906.34" y1="281.7949" y2="276.1305"/><polygon fill="#A80036" points="3811.38,191.261,3813.4441,198.1704,3820.6159,198.9224,3818.5518,192.0131,3811.38,191.261" style="stroke: #A80036; stroke-width: 1.0;"/><!--link mastermind.distributed.dispatchers.DispatcherPrototype to mastermind.utils.TCPIP--><path d="M3762.13,203.022 C3789.18,257.762 3833.24,328.492 3894,368 C3956.85,408.868 3991.47,367.599 4060,398 C4079.4,406.605 4098.38,420.394 4113.63,433.232 " fill="none" id="mastermind.distributed.dispatchers.DispatcherPrototype-mastermind.utils.TCPIP" style="stroke: #A80036; stroke-width: 1.0;"/><polygon fill="#A80036" points="4123.56,441.893,4119.4061,432.963,4119.7917,438.6067,4114.148,438.9922,4123.56,441.893" style="stroke: #A80036; stroke-width: 1.0;"/><line style="stroke: #A80036; stroke-width: 1.0;" x1="4119.7917" x2="4113.76" y1="438.6067" y2="433.3455"/><polygon fill="#A80036" points="3756.45,191.249,3755.4537,198.3909,3761.6631,202.0575,3762.6594,194.9155,3756.45,191.249" style="stroke: #A80036; stroke-width: 1.0;"/><!--link mastermind.distributed.dispatchers.DispatcherPrototype to mastermind.distributed.dispatchers.Dispatcher--><path d="M3606.48,143.622 C3351.76,178.93 2771.66,259.339 2528.01,293.112 " fill="none" id="mastermind.distributed.dispatchers.DispatcherPrototype-mastermind.distributed.dispatchers.Dispatcher" style="stroke: #A80036; stroke-width: 1.0;"/><polygon fill="#A80036" points="2523.03,293.803,2532.4936,296.5306,2527.9827,293.1171,2531.3962,288.6062,2523.03,293.803" style="stroke: #A80036; stroke-width: 1.0;"/><!--link mastermind.distributed.dispatchers.DispatcherPrototype to mastermind.distributed.FrameType--><path d="M3853.67,176.196 C3895.48,194.744 3941.73,217.243 3982,241.5 C4001.72,253.38 4022.2,268.962 4038.33,282.109 " fill="none" id="mastermind.distributed.dispatchers.DispatcherPrototype-mastermind.distributed.FrameType" style="stroke: #A80036; stroke-width: 1.0;"/><polygon fill="#A80036" points="4042.33,285.395,4037.93,276.5836,4038.472,282.2145,4032.8412,282.7564,4042.33,285.395" style="stroke: #A80036; stroke-width: 1.0;"/><!--link mastermind.distributed.dispatchers.Dispatcher to mastermind.distributed.dispatchers.LooserDispatcher--><path d="M2543.4,314.367 C2802.78,323.224 3386.97,348.163 3580,398 C3606.6,404.867 3634.34,416.369 3658.41,427.922 " fill="none" id="mastermind.distributed.dispatchers.Dispatcher-mastermind.distributed.dispatchers.LooserDispatcher" style="stroke: #A80036; stroke-width: 1.0;"/><polygon fill="none" points="2542.81,321.351,2523.06,313.683,2543.28,307.359,2542.81,321.351" style="stroke: #A80036; stroke-width: 1.0;"/><!--link mastermind.distributed.dispatchers.LooserDispatcher to mastermind.controllers.implementation.PlayControllerImplementation--><path d="M3651.12,504.157 C3628.77,513.626 3603.85,522.633 3580,528 C3293.35,592.4931 2389.73,601.6171 2083.02,602.8373 " fill="none" id="mastermind.distributed.dispatchers.LooserDispatcher-mastermind.controllers.implementation.PlayControllerImplementation" style="stroke: #A80036; stroke-width: 1.0; stroke-dasharray: 7.0,7.0;"/><polygon fill="#A80036" points="2077.66,602.8581,2086.6714,606.8324,2082.66,602.8438,2086.6485,598.8324,2077.66,602.8581" style="stroke: #A80036; stroke-width: 1.0;"/><!--link mastermind.distributed.dispatchers.Dispatcher to mastermind.distributed.dispatchers.ProposeCombinationDispatcher--><path d="M2290.57,313.324 C1986.98,320.885 1223.54,344.739 974,398 C942.192,404.789 908.51,416.273 879.104,427.833 " fill="none" id="mastermind.distributed.dispatchers.Dispatcher-mastermind.distributed.dispatchers.ProposeCombinationDispatcher" style="stroke: #A80036; stroke-width: 1.0;"/><polygon fill="none" points="2290.59,306.322,2310.76,312.829,2290.93,320.317,2290.59,306.322" style="stroke: #A80036; stroke-width: 1.0;"/><!--link mastermind.distributed.dispatchers.ProposeCombinationDispatcher to mastermind.controllers.implementation.PlayControllerImplementation--><path d="M885.999,504.104 C913.738,513.825 944.699,522.983 974,528 C1022.79,536.354 1817.27,522.879 1865,536 C1894.45,544.096 1924.15,561.6947 1945.99,576.8243 " fill="none" id="mastermind.distributed.dispatchers.ProposeCombinationDispatcher-mastermind.controllers.implementation.PlayControllerImplementation" style="stroke: #A80036; stroke-width: 1.0; stroke-dasharray: 7.0,7.0;"/><polygon fill="#A80036" points="1950.25,579.8138,1945.1797,571.3704,1946.1569,576.9422,1940.5851,577.9194,1950.25,579.8138" style="stroke: #A80036; stroke-width: 1.0;"/><!--link mastermind.distributed.dispatchers.Dispatcher to mastermind.distributed.dispatchers.RedoableDispatcher--><path d="M2290.67,314.774 C2035.12,324.307 1465.08,350.308 1276,398 C1248.61,404.909 1219.94,416.42 1195.03,427.969 " fill="none" id="mastermind.distributed.dispatchers.Dispatcher-mastermind.distributed.dispatchers.RedoableDispatcher" style="stroke: #A80036; stroke-width: 1.0;"/><polygon fill="none" points="2290.48,307.777,2310.72,314.036,2290.99,321.767,2290.48,307.777" style="stroke: #A80036; stroke-width: 1.0;"/><!--link mastermind.distributed.dispatchers.RedoableDispatcher to mastermind.controllers.implementation.PlayControllerImplementation--><path d="M1200.89,504.025 C1224.41,513.744 1250.78,522.92 1276,528 C1340.16,540.923 1801.93,518.507 1865,536 C1894.43,544.163 1924.13,561.7603 1945.97,576.8719 " fill="none" id="mastermind.distributed.dispatchers.RedoableDispatcher-mastermind.controllers.implementation.PlayControllerImplementation" style="stroke: #A80036; stroke-width: 1.0; stroke-dasharray: 7.0,7.0;"/><polygon fill="#A80036" points="1950.24,579.8575,1945.1676,571.4153,1946.1462,576.9869,1940.5746,577.9655,1950.24,579.8575" style="stroke: #A80036; stroke-width: 1.0;"/><!--link mastermind.distributed.dispatchers.Dispatcher to mastermind.distributed.dispatchers.RedoDispatcher--><path d="M2290.48,310.011 C2120.71,312.355 1811.23,327.221 1558,398 C1532.55,405.113 1506.03,416.527 1482.95,427.933 " fill="none" id="mastermind.distributed.dispatchers.Dispatcher-mastermind.distributed.dispatchers.RedoDispatcher" style="stroke: #A80036; stroke-width: 1.0;"/><polygon fill="none" points="2290.65,303.009,2310.73,309.782,2290.81,317.008,2290.65,303.009" style="stroke: #A80036; stroke-width: 1.0;"/><!--link mastermind.distributed.dispatchers.RedoDispatcher to mastermind.controllers.implementation.PlayControllerImplementation--><path d="M1488.4,504.158 C1510.17,513.753 1534.56,522.828 1558,528 C1624.64,542.705 1799.35,517.35 1865,536 C1894.38,544.347 1924.08,561.9376 1945.94,577.0006 " fill="none" id="mastermind.distributed.dispatchers.RedoDispatcher-mastermind.controllers.implementation.PlayControllerImplementation" style="stroke: #A80036; stroke-width: 1.0; stroke-dasharray: 7.0,7.0;"/><polygon fill="#A80036" points="1950.2,579.976,1945.1024,571.549,1946.0976,577.1176,1940.529,578.1128,1950.2,579.976" style="stroke: #A80036; stroke-width: 1.0;"/><!--link mastermind.distributed.dispatchers.Dispatcher to mastermind.distributed.dispatchers.ResumeDispatcher--><path d="M2290.63,309.87 C1899.14,308.853 710.241,313.033 335,398 C306.097,404.545 275.818,416.2 249.648,427.974 " fill="none" id="mastermind.distributed.dispatchers.Dispatcher-mastermind.distributed.dispatchers.ResumeDispatcher" style="stroke: #A80036; stroke-width: 1.0;"/><polygon fill="none" points="2290.9,302.871,2310.87,309.929,2290.85,316.871,2290.9,302.871" style="stroke: #A80036; stroke-width: 1.0;"/><!--link mastermind.distributed.dispatchers.ResumeDispatcher to mastermind.controllers.implementation.ResumeControllerImplementation--><path d="M259.228,504.004 C283.168,513.409 309.729,522.421 335,528 C533.63,571.8547 1135.31,592.9483 1389.59,600.0896 " fill="none" id="mastermind.distributed.dispatchers.ResumeDispatcher-mastermind.controllers.implementation.ResumeControllerImplementation" style="stroke: #A80036; stroke-width: 1.0; stroke-dasharray: 7.0,7.0;"/><polygon fill="#A80036" points="1394.79,600.2351,1385.908,595.9796,1389.792,600.0922,1385.6794,603.9763,1394.79,600.2351" style="stroke: #A80036; stroke-width: 1.0;"/><!--link mastermind.distributed.dispatchers.Dispatcher to mastermind.distributed.dispatchers.StartDispatcher--><path d="M2290.72,310.214 C1935.92,310.429 935.315,318.294 618,398 C591.846,404.57 564.722,416.154 541.334,427.862 " fill="none" id="mastermind.distributed.dispatchers.Dispatcher-mastermind.distributed.dispatchers.StartDispatcher" style="stroke: #A80036; stroke-width: 1.0;"/><polygon fill="none" points="2290.89,303.214,2310.89,310.21,2290.9,317.214,2290.89,303.214" style="stroke: #A80036; stroke-width: 1.0;"/><!--link mastermind.distributed.dispatchers.StartDispatcher to mastermind.controllers.implementation.StartControllerImplementation--><path d="M547.621,504.107 C569.571,513.828 594.252,522.986 618,528 C673.174,539.65 1578.59,521.186 1633,536 C1662.66,544.076 1692.62,561.676 1714.66,576.8107 " fill="none" id="mastermind.distributed.dispatchers.StartDispatcher-mastermind.controllers.implementation.StartControllerImplementation" style="stroke: #A80036; stroke-width: 1.0; stroke-dasharray: 7.0,7.0;"/><polygon fill="#A80036" points="1718.96,579.8013,1713.8385,571.3888,1714.8495,576.9546,1709.2837,577.9655,1718.96,579.8013" style="stroke: #A80036; stroke-width: 1.0;"/><!--link mastermind.distributed.dispatchers.Dispatcher to mastermind.distributed.dispatchers.StateDispatcher--><path d="M2290.67,319.105 C2172.38,329.625 1991.76,352.057 1841,398 C1816.1,405.589 1790.01,416.84 1767.1,427.964 " fill="none" id="mastermind.distributed.dispatchers.Dispatcher-mastermind.distributed.dispatchers.StateDispatcher" style="stroke: #A80036; stroke-width: 1.0;"/><polygon fill="none" points="2290.39,312.103,2310.91,317.366,2291.59,326.052,2290.39,312.103" style="stroke: #A80036; stroke-width: 1.0;"/><!--link mastermind.distributed.dispatchers.StateDispatcher to mastermind.controllers.implementation.PlayControllerImplementation--><path d="M1782.24,504.143 C1801.42,512.312 1821.82,520.697 1841,528 C1851.51,532 1854.75,531.368 1865,536 C1891.05,547.781 1918.79,563.8281 1940.5,577.2642 " fill="none" id="mastermind.distributed.dispatchers.StateDispatcher-mastermind.controllers.implementation.PlayControllerImplementation" style="stroke: #A80036; stroke-width: 1.0; stroke-dasharray: 7.0,7.0;"/><polygon fill="#A80036" points="1944.76,579.9146,1939.2338,571.7622,1940.5154,577.272,1935.0056,578.5536,1944.76,579.9146" style="stroke: #A80036; stroke-width: 1.0;"/><!--link mastermind.distributed.dispatchers.Dispatcher to mastermind.distributed.dispatchers.TurnDispatcher--><path d="M2291.21,342.757 C2237.77,357.69 2175.19,376.82 2120,398 C2097.36,406.689 2073.33,417.549 2051.7,427.98 " fill="none" id="mastermind.distributed.dispatchers.Dispatcher-mastermind.distributed.dispatchers.TurnDispatcher" style="stroke: #A80036; stroke-width: 1.0;"/><polygon fill="none" points="2289.69,335.915,2310.83,337.346,2293.41,349.411,2289.69,335.915" style="stroke: #A80036; stroke-width: 1.0;"/><!--link mastermind.distributed.dispatchers.TurnDispatcher to mastermind.controllers.implementation.PlayControllerImplementation--><path d="M1980,504.163 C1980,526.493 1980,554.453 1980,574.9309 " fill="none" id="mastermind.distributed.dispatchers.TurnDispatcher-mastermind.controllers.implementation.PlayControllerImplementation" style="stroke: #A80036; stroke-width: 1.0; stroke-dasharray: 7.0,7.0;"/><polygon fill="#A80036" points="1980,579.9679,1984,570.9679,1980,574.9679,1976,570.9679,1980,579.9679" style="stroke: #A80036; stroke-width: 1.0;"/><!--link mastermind.distributed.dispatchers.Dispatcher to mastermind.distributed.dispatchers.UndoableDispatcher--><path d="M2348.74,382.739 C2334.08,398.253 2319.16,414.037 2306.37,427.575 " fill="none" id="mastermind.distributed.dispatchers.Dispatcher-mastermind.distributed.dispatchers.UndoableDispatcher" style="stroke: #A80036; stroke-width: 1.0;"/><polygon fill="none" points="2343.81,377.759,2362.63,368.03,2353.99,387.374,2343.81,377.759" style="stroke: #A80036; stroke-width: 1.0;"/><!--link mastermind.distributed.dispatchers.UndoableDispatcher to mastermind.controllers.implementation.PlayControllerImplementation--><path d="M2191.48,504.163 C2141.47,527.534 2078.27,557.072 2034.04,577.7442 " fill="none" id="mastermind.distributed.dispatchers.UndoableDispatcher-mastermind.controllers.implementation.PlayControllerImplementation" style="stroke: #A80036; stroke-width: 1.0; stroke-dasharray: 7.0,7.0;"/><polygon fill="#A80036" points="2029.28,579.9679,2039.1272,579.7859,2033.8108,577.8531,2035.7435,572.5367,2029.28,579.9679" style="stroke: #A80036; stroke-width: 1.0;"/><!--link mastermind.distributed.dispatchers.Dispatcher to mastermind.distributed.dispatchers.UndoDispatcher--><path d="M2485.26,382.739 C2499.92,398.253 2514.84,414.037 2527.63,427.575 " fill="none" id="mastermind.distributed.dispatchers.Dispatcher-mastermind.distributed.dispatchers.UndoDispatcher" style="stroke: #A80036; stroke-width: 1.0;"/><polygon fill="none" points="2480.01,387.374,2471.37,368.03,2490.19,377.759,2480.01,387.374" style="stroke: #A80036; stroke-width: 1.0;"/><!--link mastermind.distributed.dispatchers.UndoDispatcher to mastermind.controllers.implementation.PlayControllerImplementation--><path d="M2486.3,504.142 C2465.78,512.98 2443.35,521.67 2422,528 C2308.3,561.7071 2173.36,581.8588 2082.75,592.6504 " fill="none" id="mastermind.distributed.dispatchers.UndoDispatcher-mastermind.controllers.implementation.PlayControllerImplementation" style="stroke: #A80036; stroke-width: 1.0; stroke-dasharray: 7.0,7.0;"/><polygon fill="#A80036" points="2077.66,593.2525,2087.0666,596.1706,2082.6256,592.6668,2086.1294,588.2257,2077.66,593.2525" style="stroke: #A80036; stroke-width: 1.0;"/><!--link mastermind.distributed.dispatchers.Dispatcher to mastermind.distributed.dispatchers.WidthDispatcher--><path d="M2542.57,344.498 C2593.27,359.329 2651.98,377.918 2704,398 C2726.76,406.786 2750.96,417.618 2772.82,427.991 " fill="none" id="mastermind.distributed.dispatchers.Dispatcher-mastermind.distributed.dispatchers.WidthDispatcher" style="stroke: #A80036; stroke-width: 1.0;"/><polygon fill="none" points="2540.47,351.178,2523.2,338.899,2544.36,337.728,2540.47,351.178" style="stroke: #A80036; stroke-width: 1.0;"/><!--link mastermind.distributed.dispatchers.WidthDispatcher to mastermind.controllers.implementation.PlayControllerImplementation--><path d="M2771.22,504.129 C2749.96,513.299 2726.46,522.157 2704,528 C2487.87,584.2209 2225.11,598.5614 2083.1,602.0518 " fill="none" id="mastermind.distributed.dispatchers.WidthDispatcher-mastermind.controllers.implementation.PlayControllerImplementation" style="stroke: #A80036; stroke-width: 1.0; stroke-dasharray: 7.0,7.0;"/><polygon fill="#A80036" points="2077.68,602.1811,2086.7691,605.9743,2082.6787,602.0668,2086.5862,597.9764,2077.68,602.1811" style="stroke: #A80036; stroke-width: 1.0;"/><!--link mastermind.distributed.dispatchers.Dispatcher to mastermind.distributed.dispatchers.WinnerDispatcher--><path d="M2543.19,319.703 C2660.39,330.614 2838.76,353.28 2988,398 C3013.38,405.605 3040.03,416.793 3063.51,427.856 " fill="none" id="mastermind.distributed.dispatchers.Dispatcher-mastermind.distributed.dispatchers.WinnerDispatcher" style="stroke: #A80036; stroke-width: 1.0;"/><polygon fill="none" points="2542.42,326.662,2523.13,317.895,2543.67,312.718,2542.42,326.662" style="stroke: #A80036; stroke-width: 1.0;"/><!--link mastermind.distributed.dispatchers.WinnerDispatcher to mastermind.controllers.implementation.PlayControllerImplementation--><path d="M3058.27,504.059 C3036.11,513.404 3011.51,522.371 2988,528 C2818.36,568.6196 2304.27,591.3819 2083.04,599.5249 " fill="none" id="mastermind.distributed.dispatchers.WinnerDispatcher-mastermind.controllers.implementation.PlayControllerImplementation" style="stroke: #A80036; stroke-width: 1.0; stroke-dasharray: 7.0,7.0;"/><polygon fill="#A80036" points="2077.87,599.7145,2087.0019,603.4035,2082.8671,599.5431,2086.7276,595.4083,2077.87,599.7145" style="stroke: #A80036; stroke-width: 1.0;"/><!--
@startuml

class  mastermind.distributed.dispatchers.AllCodesDispatcher{
+ AllCodesDispatcher(PlayControllerImplementation)
+ dispatch(): void
}
mastermind.distributed.dispatchers.Dispatcher <|-down- mastermind.distributed.dispatchers.AllCodesDispatcher
mastermind.distributed.dispatchers.AllCodesDispatcher ..> mastermind.controllers.implementation.PlayControllerImplementation

class  mastermind.distributed.dispatchers.Dispatcher{
# acceptorController: AcceptorController
# tcpip: TCPIP
+ Dispatcher(AcceptorController)
+ {abstract} dispatch(): void
+ associate(TCPIP): void
}
mastermind.distributed.dispatchers.Dispatcher *-down-> mastermind.controllers.AcceptorController
mastermind.distributed.dispatchers.Dispatcher - -> mastermind.utils.TCPIP

class  mastermind.distributed.dispatchers.DispatcherPrototype{
- tcpip: TCPIP
- dispatcherMap: Map<FrameType, Dispatcher>
+ DispatcherPrototype()
+ add(FrameType, Dispatcher): void
+ dispatch(FrameType): void
+ serve(): void
}
mastermind.distributed.dispatchers.DispatcherPrototype *-down-> java.util.Map
mastermind.distributed.dispatchers.DispatcherPrototype *-down-> mastermind.utils.TCPIP
mastermind.distributed.dispatchers.DispatcherPrototype - -> mastermind.distributed.dispatchers.Dispatcher
mastermind.distributed.dispatchers.DispatcherPrototype - -> mastermind.distributed.FrameType

class  mastermind.distributed.dispatchers.LooserDispatcher{
+ LooserDispatcher(PlayControllerImplementation)
+ dispatch(): void
}
mastermind.distributed.dispatchers.Dispatcher <|-down- mastermind.distributed.dispatchers.LooserDispatcher
mastermind.distributed.dispatchers.LooserDispatcher ..> mastermind.controllers.implementation.PlayControllerImplementation

class  mastermind.distributed.dispatchers.ProposeCombinationDispatcher{
+ ProposeCombinationDispatcher(PlayControllerImplementation)
+ dispatch(): void
}
mastermind.distributed.dispatchers.Dispatcher <|-down- mastermind.distributed.dispatchers.ProposeCombinationDispatcher
mastermind.distributed.dispatchers.ProposeCombinationDispatcher ..> mastermind.controllers.implementation.PlayControllerImplementation

class  mastermind.distributed.dispatchers.RedoableDispatcher{
+ RedoableDispatcher(PlayControllerImplementation)
+ dispatch(): void
}
mastermind.distributed.dispatchers.Dispatcher <|-down- mastermind.distributed.dispatchers.RedoableDispatcher
mastermind.distributed.dispatchers.RedoableDispatcher ..> mastermind.controllers.implementation.PlayControllerImplementation

class  mastermind.distributed.dispatchers.RedoDispatcher{
+ RedoDispatcher(PlayControllerImplementation)
+ dispatch(): void
}
mastermind.distributed.dispatchers.Dispatcher <|-down- mastermind.distributed.dispatchers.RedoDispatcher
mastermind.distributed.dispatchers.RedoDispatcher ..> mastermind.controllers.implementation.PlayControllerImplementation

class  mastermind.distributed.dispatchers.ResumeDispatcher{
+ ResumeDispatcher(ResumeControllerImplementation)
+ dispatch(): void
}
mastermind.distributed.dispatchers.Dispatcher <|-down- mastermind.distributed.dispatchers.ResumeDispatcher
mastermind.distributed.dispatchers.ResumeDispatcher ..> mastermind.controllers.implementation.ResumeControllerImplementation

class  mastermind.distributed.dispatchers.StartDispatcher{
+ StartDispatcher(StartControllerImplementation)
+ dispatch(): void
}
mastermind.distributed.dispatchers.Dispatcher <|-down- mastermind.distributed.dispatchers.StartDispatcher
mastermind.distributed.dispatchers.StartDispatcher ..> mastermind.controllers.implementation.StartControllerImplementation

class  mastermind.distributed.dispatchers.StateDispatcher{
+ StateDispatcher(PlayControllerImplementation)
+ dispatch(): void
}
mastermind.distributed.dispatchers.Dispatcher <|-down- mastermind.distributed.dispatchers.StateDispatcher
mastermind.distributed.dispatchers.StateDispatcher ..> mastermind.controllers.implementation.PlayControllerImplementation

class  mastermind.distributed.dispatchers.TurnDispatcher{
+ TurnDispatcher(PlayControllerImplementation)
+ dispatch(): void
}
mastermind.distributed.dispatchers.Dispatcher <|-down- mastermind.distributed.dispatchers.TurnDispatcher
mastermind.distributed.dispatchers.TurnDispatcher ..> mastermind.controllers.implementation.PlayControllerImplementation

class  mastermind.distributed.dispatchers.UndoableDispatcher{
+ UndoableDispatcher(PlayControllerImplementation)
+ dispatch(): void
}
mastermind.distributed.dispatchers.Dispatcher <|-down- mastermind.distributed.dispatchers.UndoableDispatcher
mastermind.distributed.dispatchers.UndoableDispatcher ..> mastermind.controllers.implementation.PlayControllerImplementation

class  mastermind.distributed.dispatchers.UndoDispatcher{
+ UndoDispatcher(PlayControllerImplementation)
+ dispatch(): void
}
mastermind.distributed.dispatchers.Dispatcher <|-down- mastermind.distributed.dispatchers.UndoDispatcher
mastermind.distributed.dispatchers.UndoDispatcher ..> mastermind.controllers.implementation.PlayControllerImplementation

class  mastermind.distributed.dispatchers.WidthDispatcher{
+ WidthDispatcher(PlayControllerImplementation)
+ dispatch(): void
}
mastermind.distributed.dispatchers.Dispatcher <|-down- mastermind.distributed.dispatchers.WidthDispatcher
mastermind.distributed.dispatchers.WidthDispatcher ..> mastermind.controllers.implementation.PlayControllerImplementation

class  mastermind.distributed.dispatchers.WinnerDispatcher{
+ WinnerDispatcher(PlayControllerImplementation)
+ dispatch(): void
}
mastermind.distributed.dispatchers.Dispatcher <|-down- mastermind.distributed.dispatchers.WinnerDispatcher
mastermind.distributed.dispatchers.WinnerDispatcher ..> mastermind.controllers.implementation.PlayControllerImplementation

@enduml

PlantUML version 1.2019.05(Sat Apr 20 18:45:36 CEST 2019)
(GPL source distribution)
Java Runtime: OpenJDK Runtime Environment
JVM: OpenJDK 64-Bit Server VM
Java Version: 1.8.0_222-b10
Operating System: Windows 10
OS Version: 10.0
Default Encoding: windows-1252
Language: es
Country: ES
--></g></svg>