<?xml version="1.0" encoding="UTF-8" standalone="no"?><svg xmlns="http://www.w3.org/2000/svg" xmlns:xlink="http://www.w3.org/1999/xlink" contentScriptType="application/ecmascript" contentStyleType="text/css" height="1012px" preserveAspectRatio="none" style="width:2406px;height:1012px;" version="1.1" viewBox="0 0 2406 1012" width="2406px" zoomAndPan="magnify"><defs><filter height="300%" id="f1bdjnh8lg0ck8" width="300%" x="-1" y="-1"><feGaussianBlur result="blurOut" stdDeviation="2.0"/><feColorMatrix in="blurOut" result="blurOut2" type="matrix" values="0 0 0 0 0 0 0 0 0 0 0 0 0 0 0 0 0 0 .4 0"/><feOffset dx="4.0" dy="4.0" in="blurOut2" result="blurOut3"/><feBlend in="SourceGraphic" in2="blurOut3" mode="normal"/></filter></defs><g><!--cluster mastermind.views.graphics--><polygon fill="#FFFFFF" filter="url(#f1bdjnh8lg0ck8)" points="919,148,1117,148,1124,171.6094,1661,171.6094,1661,1000,919,1000,919,148" style="stroke: #000000; stroke-width: 1.5;"/><line style="stroke: #000000; stroke-width: 1.5;" x1="919" x2="1124" y1="171.6094" y2="171.6094"/><text fill="#000000" font-family="sans-serif" font-size="14" font-weight="bold" lengthAdjust="spacingAndGlyphs" textLength="192" x="923" y="164.5332">mastermind.views.graphics</text><!--cluster java.awt--><polygon fill="#FFFFFF" filter="url(#f1bdjnh8lg0ck8)" points="721,654,784,654,791,677.6094,895,677.6094,895,754,721,754,721,654" style="stroke: #000000; stroke-width: 1.5;"/><line style="stroke: #000000; stroke-width: 1.5;" x1="721" x2="791" y1="677.6094" y2="677.6094"/><text fill="#000000" font-family="sans-serif" font-size="14" font-weight="bold" lengthAdjust="spacingAndGlyphs" textLength="57" x="725" y="670.5332">java.awt</text><!--cluster javax.swing--><polygon fill="#FFFFFF" filter="url(#f1bdjnh8lg0ck8)" points="22,654,110,654,117,677.6094,697,677.6094,697,754,22,754,22,654" style="stroke: #000000; stroke-width: 1.5;"/><line style="stroke: #000000; stroke-width: 1.5;" x1="22" x2="117" y1="677.6094" y2="677.6094"/><text fill="#000000" font-family="sans-serif" font-size="14" font-weight="bold" lengthAdjust="spacingAndGlyphs" textLength="82" x="26" y="670.5332">javax.swing</text><!--cluster mastermind.models--><polygon fill="#FFFFFF" filter="url(#f1bdjnh8lg0ck8)" points="2231,872.5,2374,872.5,2381,896.1094,2384,896.1094,2384,972.5,2231,972.5,2231,872.5" style="stroke: #000000; stroke-width: 1.5;"/><line style="stroke: #000000; stroke-width: 1.5;" x1="2231" x2="2381" y1="896.1094" y2="896.1094"/><text fill="#000000" font-family="sans-serif" font-size="14" font-weight="bold" lengthAdjust="spacingAndGlyphs" textLength="137" x="2235" y="889.0332">mastermind.models</text><!--cluster mastermind.views--><polygon fill="#FFFFFF" filter="url(#f1bdjnh8lg0ck8)" points="1253,24,1386,24,1393,47.6094,1396,47.6094,1396,124,1253,124,1253,24" style="stroke: #000000; stroke-width: 1.5;"/><line style="stroke: #000000; stroke-width: 1.5;" x1="1253" x2="1393" y1="47.6094" y2="47.6094"/><text fill="#000000" font-family="sans-serif" font-size="14" font-weight="bold" lengthAdjust="spacingAndGlyphs" textLength="127" x="1257" y="40.5332">mastermind.views</text><!--cluster java.awt.event--><polygon fill="#FFFFFF" filter="url(#f1bdjnh8lg0ck8)" points="1685,872.5,1793,872.5,1800,896.1094,2207,896.1094,2207,972.5,1685,972.5,1685,872.5" style="stroke: #000000; stroke-width: 1.5;"/><line style="stroke: #000000; stroke-width: 1.5;" x1="1685" x2="1800" y1="896.1094" y2="896.1094"/><text fill="#000000" font-family="sans-serif" font-size="14" font-weight="bold" lengthAdjust="spacingAndGlyphs" textLength="102" x="1689" y="889.0332">java.awt.event</text><!--class mastermind.views.graphics.Constraints--><rect fill="#FEFECE" filter="url(#f1bdjnh8lg0ck8)" height="61.8359" id="mastermind.views.graphics.Constraints" style="stroke: #A80036; stroke-width: 1.5;" width="151" x="1441.5" y="901.5"/><ellipse cx="1481.25" cy="917.5" fill="#ADD1B2" rx="11" ry="11" style="stroke: #A80036; stroke-width: 1.0;"/><path d="M1484.0156,913.375 Q1484.1719,913.1563 1484.3594,913.0469 Q1484.5469,912.9375 1484.7656,912.9375 Q1485.1406,912.9375 1485.375,913.1953 Q1485.6094,913.4531 1485.6094,914.0625 L1485.6094,915.5156 Q1485.6094,916.125 1485.375,916.3906 Q1485.1406,916.6563 1484.7656,916.6563 Q1484.4219,916.6563 1484.2188,916.4531 Q1484.0156,916.2656 1483.9063,915.75 Q1483.8594,915.3906 1483.6719,915.2031 Q1483.3438,914.8281 1482.7344,914.6094 Q1482.125,914.3906 1481.5,914.3906 Q1480.7344,914.3906 1480.1016,914.7188 Q1479.4688,915.0469 1478.9766,915.7969 Q1478.4844,916.5469 1478.4844,917.5781 L1478.4844,918.6719 Q1478.4844,919.9063 1479.375,920.7266 Q1480.2656,921.5469 1481.8594,921.5469 Q1482.7969,921.5469 1483.4531,921.2969 Q1483.8438,921.1406 1484.2656,920.7031 Q1484.5313,920.4375 1484.6797,920.3594 Q1484.8281,920.2813 1485.0313,920.2813 Q1485.3594,920.2813 1485.6172,920.5391 Q1485.875,920.7969 1485.875,921.1406 Q1485.875,921.4844 1485.5313,921.8906 Q1485.0313,922.4688 1484.2344,922.7969 Q1483.1563,923.25 1481.8594,923.25 Q1480.3438,923.25 1479.1406,922.625 Q1478.1563,922.125 1477.4688,921.0547 Q1476.7813,919.9844 1476.7813,918.7031 L1476.7813,917.5469 Q1476.7813,916.2188 1477.3984,915.0703 Q1478.0156,913.9219 1479.1094,913.3047 Q1480.2031,912.6875 1481.4375,912.6875 Q1482.1719,912.6875 1482.8203,912.8516 Q1483.4688,913.0156 1484.0156,913.375 Z "/><text fill="#000000" font-family="sans-serif" font-size="12" lengthAdjust="spacingAndGlyphs" textLength="64" x="1500.75" y="922.4102">Constraints</text><line style="stroke: #A80036; stroke-width: 1.5;" x1="1442.5" x2="1591.5" y1="933.5" y2="933.5"/><line style="stroke: #A80036; stroke-width: 1.5;" x1="1442.5" x2="1591.5" y1="941.5" y2="941.5"/><polygon fill="#4177AF" points="1452.5,949.918,1448.5,955.918,1456.5,955.918" style="stroke: #1963A0; stroke-width: 1.0;"/><text fill="#000000" font-family="sans-serif" font-size="11" lengthAdjust="spacingAndGlyphs" textLength="125" x="1461.5" y="956.9189">Constraints(int, int, int, int)</text><!--class mastermind.views.graphics.GameView--><rect fill="#FEFECE" filter="url(#f1bdjnh8lg0ck8)" height="186.3594" id="mastermind.views.graphics.GameView" style="stroke: #A80036; stroke-width: 1.5;" width="304" x="1046" y="361"/><ellipse cx="1163.75" cy="377" fill="#ADD1B2" rx="11" ry="11" style="stroke: #A80036; stroke-width: 1.0;"/><path d="M1166.5156,372.875 Q1166.6719,372.6563 1166.8594,372.5469 Q1167.0469,372.4375 1167.2656,372.4375 Q1167.6406,372.4375 1167.875,372.6953 Q1168.1094,372.9531 1168.1094,373.5625 L1168.1094,375.0156 Q1168.1094,375.625 1167.875,375.8906 Q1167.6406,376.1563 1167.2656,376.1563 Q1166.9219,376.1563 1166.7188,375.9531 Q1166.5156,375.7656 1166.4063,375.25 Q1166.3594,374.8906 1166.1719,374.7031 Q1165.8438,374.3281 1165.2344,374.1094 Q1164.625,373.8906 1164,373.8906 Q1163.2344,373.8906 1162.6016,374.2188 Q1161.9688,374.5469 1161.4766,375.2969 Q1160.9844,376.0469 1160.9844,377.0781 L1160.9844,378.1719 Q1160.9844,379.4063 1161.875,380.2266 Q1162.7656,381.0469 1164.3594,381.0469 Q1165.2969,381.0469 1165.9531,380.7969 Q1166.3438,380.6406 1166.7656,380.2031 Q1167.0313,379.9375 1167.1797,379.8594 Q1167.3281,379.7813 1167.5313,379.7813 Q1167.8594,379.7813 1168.1172,380.0391 Q1168.375,380.2969 1168.375,380.6406 Q1168.375,380.9844 1168.0313,381.3906 Q1167.5313,381.9688 1166.7344,382.2969 Q1165.6563,382.75 1164.3594,382.75 Q1162.8438,382.75 1161.6406,382.125 Q1160.6563,381.625 1159.9688,380.5547 Q1159.2813,379.4844 1159.2813,378.2031 L1159.2813,377.0469 Q1159.2813,375.7188 1159.8984,374.5703 Q1160.5156,373.4219 1161.6094,372.8047 Q1162.7031,372.1875 1163.9375,372.1875 Q1164.6719,372.1875 1165.3203,372.3516 Q1165.9688,372.5156 1166.5156,372.875 Z "/><text fill="#000000" font-family="sans-serif" font-size="12" lengthAdjust="spacingAndGlyphs" textLength="60" x="1184.25" y="381.9102">GameView</text><line style="stroke: #A80036; stroke-width: 1.5;" x1="1047" x2="1349" y1="393" y2="393"/><rect fill="none" height="6" style="stroke: #C82930; stroke-width: 1.0;" width="6" x="1054" y="402.418"/><text fill="#000000" font-family="sans-serif" font-size="11" lengthAdjust="spacingAndGlyphs" text-decoration="underline" textLength="99" x="1066" y="408.4189">GAME_OVER: String</text><rect fill="none" height="6" style="stroke: #C82930; stroke-width: 1.0;" width="6" x="1054" y="416.2539"/><text fill="#000000" font-family="sans-serif" font-size="11" lengthAdjust="spacingAndGlyphs" textLength="237" x="1066" y="422.2549">secretCombinationView: SecretCombinationView</text><rect fill="none" height="6" style="stroke: #C82930; stroke-width: 1.0;" width="6" x="1054" y="430.0898"/><text fill="#000000" font-family="sans-serif" font-size="11" lengthAdjust="spacingAndGlyphs" textLength="278" x="1066" y="436.0908">proposedCombinationsView: ProposedCombinationsView</text><rect fill="none" height="6" style="stroke: #C82930; stroke-width: 1.0;" width="6" x="1054" y="443.9258"/><text fill="#000000" font-family="sans-serif" font-size="11" lengthAdjust="spacingAndGlyphs" textLength="258" x="1066" y="449.9268">proposalCombinationView: ProposalCombinationView</text><line style="stroke: #A80036; stroke-width: 1.5;" x1="1047" x2="1349" y1="456.3438" y2="456.3438"/><polygon fill="#4177AF" points="1057,464.7617,1053,470.7617,1061,470.7617" style="stroke: #1963A0; stroke-width: 1.0;"/><text fill="#000000" font-family="sans-serif" font-size="11" lengthAdjust="spacingAndGlyphs" textLength="62" x="1066" y="471.7627">GameView()</text><rect fill="#F24D5C" height="6" style="stroke: #C82930; stroke-width: 1.0;" width="6" x="1054" y="479.5977"/><text fill="#000000" font-family="sans-serif" font-size="11" lengthAdjust="spacingAndGlyphs" textLength="58" x="1066" y="485.5986">clear(): void</text><polygon fill="#4177AF" points="1057,492.4336,1053,498.4336,1061,498.4336" style="stroke: #1963A0; stroke-width: 1.0;"/><text fill="#000000" font-family="sans-serif" font-size="11" lengthAdjust="spacingAndGlyphs" textLength="84" x="1066" y="499.4346">start(Game): void</text><polygon fill="#4177AF" points="1057,506.2695,1053,512.2695,1061,512.2695" style="stroke: #1963A0; stroke-width: 1.0;"/><text fill="#000000" font-family="sans-serif" font-size="11" lengthAdjust="spacingAndGlyphs" textLength="120" x="1066" y="513.2705">propose(Game): boolean</text><rect fill="#F24D5C" height="6" style="stroke: #C82930; stroke-width: 1.0;" width="6" x="1054" y="521.1055"/><text fill="#000000" font-family="sans-serif" font-size="11" lengthAdjust="spacingAndGlyphs" textLength="174" x="1066" y="527.1064">proposeCombination(Game, int[]): int</text><rect fill="#F24D5C" height="6" style="stroke: #C82930; stroke-width: 1.0;" width="6" x="1054" y="534.9414"/><text fill="#000000" font-family="sans-serif" font-size="11" lengthAdjust="spacingAndGlyphs" textLength="158" x="1066" y="540.9424">drawGameOver(Game): boolean</text><!--class mastermind.views.graphics.ProposedCombinationsView--><rect fill="#FEFECE" filter="url(#f1bdjnh8lg0ck8)" height="75.6719" id="mastermind.views.graphics.ProposedCombinationsView" style="stroke: #A80036; stroke-width: 1.5;" width="190" x="972" y="676"/><ellipse cx="987" cy="692" fill="#ADD1B2" rx="11" ry="11" style="stroke: #A80036; stroke-width: 1.0;"/><path d="M989.7656,687.875 Q989.9219,687.6563 990.1094,687.5469 Q990.2969,687.4375 990.5156,687.4375 Q990.8906,687.4375 991.125,687.6953 Q991.3594,687.9531 991.3594,688.5625 L991.3594,690.0156 Q991.3594,690.625 991.125,690.8906 Q990.8906,691.1563 990.5156,691.1563 Q990.1719,691.1563 989.9688,690.9531 Q989.7656,690.7656 989.6563,690.25 Q989.6094,689.8906 989.4219,689.7031 Q989.0938,689.3281 988.4844,689.1094 Q987.875,688.8906 987.25,688.8906 Q986.4844,688.8906 985.8516,689.2188 Q985.2188,689.5469 984.7266,690.2969 Q984.2344,691.0469 984.2344,692.0781 L984.2344,693.1719 Q984.2344,694.4063 985.125,695.2266 Q986.0156,696.0469 987.6094,696.0469 Q988.5469,696.0469 989.2031,695.7969 Q989.5938,695.6406 990.0156,695.2031 Q990.2813,694.9375 990.4297,694.8594 Q990.5781,694.7813 990.7813,694.7813 Q991.1094,694.7813 991.3672,695.0391 Q991.625,695.2969 991.625,695.6406 Q991.625,695.9844 991.2813,696.3906 Q990.7813,696.9688 989.9844,697.2969 Q988.9063,697.75 987.6094,697.75 Q986.0938,697.75 984.8906,697.125 Q983.9063,696.625 983.2188,695.5547 Q982.5313,694.4844 982.5313,693.2031 L982.5313,692.0469 Q982.5313,690.7188 983.1484,689.5703 Q983.7656,688.4219 984.8594,687.8047 Q985.9531,687.1875 987.1875,687.1875 Q987.9219,687.1875 988.5703,687.3516 Q989.2188,687.5156 989.7656,687.875 Z "/><text fill="#000000" font-family="sans-serif" font-size="12" lengthAdjust="spacingAndGlyphs" textLength="158" x="1001" y="696.9102">ProposedCombinationsView</text><line style="stroke: #A80036; stroke-width: 1.5;" x1="973" x2="1161" y1="708" y2="708"/><line style="stroke: #A80036; stroke-width: 1.5;" x1="973" x2="1161" y1="716" y2="716"/><polygon fill="#4177AF" points="983,724.418,979,730.418,987,730.418" style="stroke: #1963A0; stroke-width: 1.0;"/><text fill="#000000" font-family="sans-serif" font-size="11" lengthAdjust="spacingAndGlyphs" textLength="144" x="992" y="731.4189">ProposedCombinationsView()</text><polygon fill="#4177AF" points="983,738.2539,979,744.2539,987,744.2539" style="stroke: #1963A0; stroke-width: 1.0;"/><text fill="#000000" font-family="sans-serif" font-size="11" lengthAdjust="spacingAndGlyphs" textLength="80" x="992" y="745.2549">add(Game): void</text><!--class mastermind.views.graphics.SecretCombinationView--><rect fill="#FEFECE" filter="url(#f1bdjnh8lg0ck8)" height="103.3438" id="mastermind.views.graphics.SecretCombinationView" style="stroke: #A80036; stroke-width: 1.5;" width="164" x="1234" y="662.5"/><ellipse cx="1249" cy="678.5" fill="#ADD1B2" rx="11" ry="11" style="stroke: #A80036; stroke-width: 1.0;"/><path d="M1251.7656,674.375 Q1251.9219,674.1563 1252.1094,674.0469 Q1252.2969,673.9375 1252.5156,673.9375 Q1252.8906,673.9375 1253.125,674.1953 Q1253.3594,674.4531 1253.3594,675.0625 L1253.3594,676.5156 Q1253.3594,677.125 1253.125,677.3906 Q1252.8906,677.6563 1252.5156,677.6563 Q1252.1719,677.6563 1251.9688,677.4531 Q1251.7656,677.2656 1251.6563,676.75 Q1251.6094,676.3906 1251.4219,676.2031 Q1251.0938,675.8281 1250.4844,675.6094 Q1249.875,675.3906 1249.25,675.3906 Q1248.4844,675.3906 1247.8516,675.7188 Q1247.2188,676.0469 1246.7266,676.7969 Q1246.2344,677.5469 1246.2344,678.5781 L1246.2344,679.6719 Q1246.2344,680.9063 1247.125,681.7266 Q1248.0156,682.5469 1249.6094,682.5469 Q1250.5469,682.5469 1251.2031,682.2969 Q1251.5938,682.1406 1252.0156,681.7031 Q1252.2813,681.4375 1252.4297,681.3594 Q1252.5781,681.2813 1252.7813,681.2813 Q1253.1094,681.2813 1253.3672,681.5391 Q1253.625,681.7969 1253.625,682.1406 Q1253.625,682.4844 1253.2813,682.8906 Q1252.7813,683.4688 1251.9844,683.7969 Q1250.9063,684.25 1249.6094,684.25 Q1248.0938,684.25 1246.8906,683.625 Q1245.9063,683.125 1245.2188,682.0547 Q1244.5313,680.9844 1244.5313,679.7031 L1244.5313,678.5469 Q1244.5313,677.2188 1245.1484,676.0703 Q1245.7656,674.9219 1246.8594,674.3047 Q1247.9531,673.6875 1249.1875,673.6875 Q1249.9219,673.6875 1250.5703,673.8516 Q1251.2188,674.0156 1251.7656,674.375 Z "/><text fill="#000000" font-family="sans-serif" font-size="12" lengthAdjust="spacingAndGlyphs" textLength="132" x="1263" y="683.4102">SecretCombinationView</text><line style="stroke: #A80036; stroke-width: 1.5;" x1="1235" x2="1397" y1="694.5" y2="694.5"/><rect fill="none" height="6" style="stroke: #C82930; stroke-width: 1.0;" width="6" x="1242" y="703.918"/><text fill="#000000" font-family="sans-serif" font-size="11" lengthAdjust="spacingAndGlyphs" text-decoration="underline" textLength="60" x="1254" y="709.9189">TITLE: String</text><rect fill="none" height="6" style="stroke: #C82930; stroke-width: 1.0;" width="6" x="1242" y="717.7539"/><text fill="#000000" font-family="sans-serif" font-size="11" lengthAdjust="spacingAndGlyphs" textLength="53" x="1254" y="723.7549">title: JLabel</text><rect fill="none" height="6" style="stroke: #C82930; stroke-width: 1.0;" width="6" x="1242" y="731.5898"/><text fill="#000000" font-family="sans-serif" font-size="11" lengthAdjust="spacingAndGlyphs" textLength="126" x="1254" y="737.5908">secretCombination: JLabel</text><line style="stroke: #A80036; stroke-width: 1.5;" x1="1235" x2="1397" y1="744.0078" y2="744.0078"/><polygon fill="#4177AF" points="1245,752.4258,1241,758.4258,1249,758.4258" style="stroke: #1963A0; stroke-width: 1.0;"/><text fill="#000000" font-family="sans-serif" font-size="11" lengthAdjust="spacingAndGlyphs" textLength="135" x="1254" y="759.4268">SecretCombinationView(int)</text><!--class mastermind.views.graphics.ProposalCombinationView--><rect fill="#FEFECE" filter="url(#f1bdjnh8lg0ck8)" height="214.0313" id="mastermind.views.graphics.ProposalCombinationView" style="stroke: #A80036; stroke-width: 1.5;" width="211" x="1433.5" y="607"/><ellipse cx="1462.9" cy="623" fill="#ADD1B2" rx="11" ry="11" style="stroke: #A80036; stroke-width: 1.0;"/><path d="M1465.6656,618.875 Q1465.8219,618.6563 1466.0094,618.5469 Q1466.1969,618.4375 1466.4156,618.4375 Q1466.7906,618.4375 1467.025,618.6953 Q1467.2594,618.9531 1467.2594,619.5625 L1467.2594,621.0156 Q1467.2594,621.625 1467.025,621.8906 Q1466.7906,622.1563 1466.4156,622.1563 Q1466.0719,622.1563 1465.8688,621.9531 Q1465.6656,621.7656 1465.5563,621.25 Q1465.5094,620.8906 1465.3219,620.7031 Q1464.9938,620.3281 1464.3844,620.1094 Q1463.775,619.8906 1463.15,619.8906 Q1462.3844,619.8906 1461.7516,620.2188 Q1461.1188,620.5469 1460.6266,621.2969 Q1460.1344,622.0469 1460.1344,623.0781 L1460.1344,624.1719 Q1460.1344,625.4063 1461.025,626.2266 Q1461.9156,627.0469 1463.5094,627.0469 Q1464.4469,627.0469 1465.1031,626.7969 Q1465.4938,626.6406 1465.9156,626.2031 Q1466.1813,625.9375 1466.3297,625.8594 Q1466.4781,625.7813 1466.6813,625.7813 Q1467.0094,625.7813 1467.2672,626.0391 Q1467.525,626.2969 1467.525,626.6406 Q1467.525,626.9844 1467.1813,627.3906 Q1466.6813,627.9688 1465.8844,628.2969 Q1464.8063,628.75 1463.5094,628.75 Q1461.9938,628.75 1460.7906,628.125 Q1459.8063,627.625 1459.1188,626.5547 Q1458.4313,625.4844 1458.4313,624.2031 L1458.4313,623.0469 Q1458.4313,621.7188 1459.0484,620.5703 Q1459.6656,619.4219 1460.7594,618.8047 Q1461.8531,618.1875 1463.0875,618.1875 Q1463.8219,618.1875 1464.4703,618.3516 Q1465.1188,618.5156 1465.6656,618.875 Z "/><text fill="#000000" font-family="sans-serif" font-size="12" lengthAdjust="spacingAndGlyphs" textLength="147" x="1480.1" y="627.9102">ProposalCombinationView</text><line style="stroke: #A80036; stroke-width: 1.5;" x1="1434.5" x2="1643.5" y1="639" y2="639"/><rect fill="none" height="6" style="stroke: #C82930; stroke-width: 1.0;" width="6" x="1441.5" y="648.418"/><text fill="#000000" font-family="sans-serif" font-size="11" lengthAdjust="spacingAndGlyphs" text-decoration="underline" textLength="74" x="1453.5" y="654.4189">ACCEPT: String</text><rect fill="none" height="6" style="stroke: #C82930; stroke-width: 1.0;" width="6" x="1441.5" y="662.2539"/><text fill="#000000" font-family="sans-serif" font-size="11" lengthAdjust="spacingAndGlyphs" textLength="59" x="1453.5" y="668.2549">label: JLabel</text><rect fill="none" height="6" style="stroke: #C82930; stroke-width: 1.0;" width="6" x="1441.5" y="676.0898"/><text fill="#000000" font-family="sans-serif" font-size="11" lengthAdjust="spacingAndGlyphs" textLength="94" x="1453.5" y="682.0908">textField: JTextField</text><rect fill="none" height="6" style="stroke: #C82930; stroke-width: 1.0;" width="6" x="1441.5" y="689.9258"/><text fill="#000000" font-family="sans-serif" font-size="11" lengthAdjust="spacingAndGlyphs" textLength="72" x="1453.5" y="695.9268">button: JButton</text><rect fill="none" height="6" style="stroke: #C82930; stroke-width: 1.0;" width="6" x="1441.5" y="703.7617"/><text fill="#000000" font-family="sans-serif" font-size="11" lengthAdjust="spacingAndGlyphs" textLength="87" x="1453.5" y="709.7627">characters: String</text><line style="stroke: #A80036; stroke-width: 1.5;" x1="1434.5" x2="1643.5" y1="716.1797" y2="716.1797"/><polygon fill="#4177AF" points="1444.5,724.5977,1440.5,730.5977,1448.5,730.5977" style="stroke: #1963A0; stroke-width: 1.0;"/><text fill="#000000" font-family="sans-serif" font-size="11" lengthAdjust="spacingAndGlyphs" textLength="185" x="1453.5" y="731.5986">ProposalCombinationView(JRootPane)</text><ellipse cx="1444.5" cy="742.4336" fill="#84BE84" rx="3" ry="3" style="stroke: #038048; stroke-width: 1.0;"/><text fill="#000000" font-family="sans-serif" font-size="11" lengthAdjust="spacingAndGlyphs" textLength="137" x="1453.5" y="745.4346">keyPressed(KeyEvent): void</text><ellipse cx="1444.5" cy="756.2695" fill="#84BE84" rx="3" ry="3" style="stroke: #038048; stroke-width: 1.0;"/><text fill="#000000" font-family="sans-serif" font-size="11" lengthAdjust="spacingAndGlyphs" textLength="142" x="1453.5" y="759.2705">keyReleased(KeyEvent): void</text><ellipse cx="1444.5" cy="770.1055" fill="#84BE84" rx="3" ry="3" style="stroke: #038048; stroke-width: 1.0;"/><text fill="#000000" font-family="sans-serif" font-size="11" lengthAdjust="spacingAndGlyphs" textLength="127" x="1453.5" y="773.1064">keyTyped(KeyEvent): void</text><polygon fill="#4177AF" points="1444.5,779.9414,1440.5,785.9414,1448.5,785.9414" style="stroke: #1963A0; stroke-width: 1.0;"/><text fill="#000000" font-family="sans-serif" font-size="11" lengthAdjust="spacingAndGlyphs" textLength="113" x="1453.5" y="786.9424">resetCharacters(): void</text><polygon fill="#4177AF" points="1444.5,793.7773,1440.5,799.7773,1448.5,799.7773" style="stroke: #1963A0; stroke-width: 1.0;"/><text fill="#000000" font-family="sans-serif" font-size="11" lengthAdjust="spacingAndGlyphs" textLength="111" x="1453.5" y="800.7783">getCharacters(): String</text><ellipse cx="1444.5" cy="811.6133" fill="#84BE84" rx="3" ry="3" style="stroke: #038048; stroke-width: 1.0;"/><text fill="#000000" font-family="sans-serif" font-size="11" lengthAdjust="spacingAndGlyphs" textLength="171" x="1453.5" y="814.6143">actionPerformed(ActionEvent): void</text><!--class mastermind.views.graphics.ProposedCombinationView--><rect fill="#FEFECE" filter="url(#f1bdjnh8lg0ck8)" height="103.3438" id="mastermind.views.graphics.ProposedCombinationView" style="stroke: #A80036; stroke-width: 1.5;" width="183" x="935.5" y="881"/><ellipse cx="950.5" cy="897" fill="#ADD1B2" rx="11" ry="11" style="stroke: #A80036; stroke-width: 1.0;"/><path d="M953.2656,892.875 Q953.4219,892.6563 953.6094,892.5469 Q953.7969,892.4375 954.0156,892.4375 Q954.3906,892.4375 954.625,892.6953 Q954.8594,892.9531 954.8594,893.5625 L954.8594,895.0156 Q954.8594,895.625 954.625,895.8906 Q954.3906,896.1563 954.0156,896.1563 Q953.6719,896.1563 953.4688,895.9531 Q953.2656,895.7656 953.1563,895.25 Q953.1094,894.8906 952.9219,894.7031 Q952.5938,894.3281 951.9844,894.1094 Q951.375,893.8906 950.75,893.8906 Q949.9844,893.8906 949.3516,894.2188 Q948.7188,894.5469 948.2266,895.2969 Q947.7344,896.0469 947.7344,897.0781 L947.7344,898.1719 Q947.7344,899.4063 948.625,900.2266 Q949.5156,901.0469 951.1094,901.0469 Q952.0469,901.0469 952.7031,900.7969 Q953.0938,900.6406 953.5156,900.2031 Q953.7813,899.9375 953.9297,899.8594 Q954.0781,899.7813 954.2813,899.7813 Q954.6094,899.7813 954.8672,900.0391 Q955.125,900.2969 955.125,900.6406 Q955.125,900.9844 954.7813,901.3906 Q954.2813,901.9688 953.4844,902.2969 Q952.4063,902.75 951.1094,902.75 Q949.5938,902.75 948.3906,902.125 Q947.4063,901.625 946.7188,900.5547 Q946.0313,899.4844 946.0313,898.2031 L946.0313,897.0469 Q946.0313,895.7188 946.6484,894.5703 Q947.2656,893.4219 948.3594,892.8047 Q949.4531,892.1875 950.6875,892.1875 Q951.4219,892.1875 952.0703,892.3516 Q952.7188,892.5156 953.2656,892.875 Z "/><text fill="#000000" font-family="sans-serif" font-size="12" lengthAdjust="spacingAndGlyphs" textLength="151" x="964.5" y="901.9102">ProposedCombinationView</text><line style="stroke: #A80036; stroke-width: 1.5;" x1="936.5" x2="1117.5" y1="913" y2="913"/><polygon fill="none" points="946.5,921.418,942.5,927.418,950.5,927.418" style="stroke: #1963A0; stroke-width: 1.0;"/><text fill="#000000" font-family="sans-serif" font-size="11" lengthAdjust="spacingAndGlyphs" text-decoration="underline" textLength="86" x="955.5" y="928.4189">ERROR_CODE: int</text><line style="stroke: #A80036; stroke-width: 1.5;" x1="936.5" x2="1117.5" y1="934.8359" y2="934.8359"/><polygon fill="#4177AF" points="946.5,943.2539,942.5,949.2539,950.5,949.2539" style="stroke: #1963A0; stroke-width: 1.0;"/><text fill="#000000" font-family="sans-serif" font-size="11" lengthAdjust="spacingAndGlyphs" textLength="155" x="955.5" y="950.2549">ProposedCombinationView(int[])</text><polygon fill="#4177AF" points="946.5,957.0898,942.5,963.0898,950.5,963.0898" style="stroke: #1963A0; stroke-width: 1.0;"/><text fill="#000000" font-family="sans-serif" font-size="11" lengthAdjust="spacingAndGlyphs" textLength="138" x="955.5" y="964.0908">ProposedCombinationView()</text><polygon fill="#4177AF" points="946.5,970.9258,942.5,976.9258,950.5,976.9258" style="stroke: #1963A0; stroke-width: 1.0;"/><text fill="#000000" font-family="sans-serif" font-size="11" lengthAdjust="spacingAndGlyphs" textLength="81" x="955.5" y="977.9268">read(String): int[]</text><!--class mastermind.views.graphics.GraphicsView--><rect fill="#FEFECE" filter="url(#f1bdjnh8lg0ck8)" height="117.1797" id="mastermind.views.graphics.GraphicsView" style="stroke: #A80036; stroke-width: 1.5;" width="138" x="1255" y="184"/><ellipse cx="1283.5" cy="200" fill="#ADD1B2" rx="11" ry="11" style="stroke: #A80036; stroke-width: 1.0;"/><path d="M1286.2656,195.875 Q1286.4219,195.6563 1286.6094,195.5469 Q1286.7969,195.4375 1287.0156,195.4375 Q1287.3906,195.4375 1287.625,195.6953 Q1287.8594,195.9531 1287.8594,196.5625 L1287.8594,198.0156 Q1287.8594,198.625 1287.625,198.8906 Q1287.3906,199.1563 1287.0156,199.1563 Q1286.6719,199.1563 1286.4688,198.9531 Q1286.2656,198.7656 1286.1563,198.25 Q1286.1094,197.8906 1285.9219,197.7031 Q1285.5938,197.3281 1284.9844,197.1094 Q1284.375,196.8906 1283.75,196.8906 Q1282.9844,196.8906 1282.3516,197.2188 Q1281.7188,197.5469 1281.2266,198.2969 Q1280.7344,199.0469 1280.7344,200.0781 L1280.7344,201.1719 Q1280.7344,202.4063 1281.625,203.2266 Q1282.5156,204.0469 1284.1094,204.0469 Q1285.0469,204.0469 1285.7031,203.7969 Q1286.0938,203.6406 1286.5156,203.2031 Q1286.7813,202.9375 1286.9297,202.8594 Q1287.0781,202.7813 1287.2813,202.7813 Q1287.6094,202.7813 1287.8672,203.0391 Q1288.125,203.2969 1288.125,203.6406 Q1288.125,203.9844 1287.7813,204.3906 Q1287.2813,204.9688 1286.4844,205.2969 Q1285.4063,205.75 1284.1094,205.75 Q1282.5938,205.75 1281.3906,205.125 Q1280.4063,204.625 1279.7188,203.5547 Q1279.0313,202.4844 1279.0313,201.2031 L1279.0313,200.0469 Q1279.0313,198.7188 1279.6484,197.5703 Q1280.2656,196.4219 1281.3594,195.8047 Q1282.4531,195.1875 1283.6875,195.1875 Q1284.4219,195.1875 1285.0703,195.3516 Q1285.7188,195.5156 1286.2656,195.875 Z "/><text fill="#000000" font-family="sans-serif" font-size="12" lengthAdjust="spacingAndGlyphs" textLength="76" x="1300.5" y="204.9102">GraphicsView</text><line style="stroke: #A80036; stroke-width: 1.5;" x1="1256" x2="1392" y1="216" y2="216"/><rect fill="none" height="6" style="stroke: #C82930; stroke-width: 1.0;" width="6" x="1263" y="225.418"/><text fill="#000000" font-family="sans-serif" font-size="11" lengthAdjust="spacingAndGlyphs" textLength="112" x="1275" y="231.4189">gameView: GameView</text><line style="stroke: #A80036; stroke-width: 1.5;" x1="1256" x2="1392" y1="237.8359" y2="237.8359"/><ellipse cx="1266" cy="250.2539" fill="#84BE84" rx="3" ry="3" style="stroke: #038048; stroke-width: 1.0;"/><text fill="#000000" font-family="sans-serif" font-size="11" lengthAdjust="spacingAndGlyphs" textLength="106" x="1275" y="253.2549">GraphicsView(Game)</text><polygon fill="#FFFF44" points="1266,259.0898,1270,263.0898,1266,267.0898,1262,263.0898" style="stroke: #B38D22; stroke-width: 1.0;"/><text fill="#000000" font-family="sans-serif" font-size="11" lengthAdjust="spacingAndGlyphs" textLength="56" x="1275" y="267.0908">start(): void</text><polygon fill="#FFFF44" points="1266,272.9258,1270,276.9258,1266,280.9258,1262,276.9258" style="stroke: #B38D22; stroke-width: 1.0;"/><text fill="#000000" font-family="sans-serif" font-size="11" lengthAdjust="spacingAndGlyphs" textLength="88" x="1275" y="280.9268">resume(): boolean</text><polygon fill="#FFFF44" points="1266,286.7617,1270,290.7617,1266,294.7617,1262,290.7617" style="stroke: #B38D22; stroke-width: 1.0;"/><text fill="#000000" font-family="sans-serif" font-size="11" lengthAdjust="spacingAndGlyphs" textLength="92" x="1275" y="294.7627">propose(): boolean</text><!--class mastermind.views.graphics.ResumeDialog--><rect fill="#FEFECE" filter="url(#f1bdjnh8lg0ck8)" height="89.5078" id="mastermind.views.graphics.ResumeDialog" style="stroke: #A80036; stroke-width: 1.5;" width="131" x="1385.5" y="409"/><ellipse cx="1407.25" cy="425" fill="#ADD1B2" rx="11" ry="11" style="stroke: #A80036; stroke-width: 1.0;"/><path d="M1410.0156,420.875 Q1410.1719,420.6563 1410.3594,420.5469 Q1410.5469,420.4375 1410.7656,420.4375 Q1411.1406,420.4375 1411.375,420.6953 Q1411.6094,420.9531 1411.6094,421.5625 L1411.6094,423.0156 Q1411.6094,423.625 1411.375,423.8906 Q1411.1406,424.1563 1410.7656,424.1563 Q1410.4219,424.1563 1410.2188,423.9531 Q1410.0156,423.7656 1409.9063,423.25 Q1409.8594,422.8906 1409.6719,422.7031 Q1409.3438,422.3281 1408.7344,422.1094 Q1408.125,421.8906 1407.5,421.8906 Q1406.7344,421.8906 1406.1016,422.2188 Q1405.4688,422.5469 1404.9766,423.2969 Q1404.4844,424.0469 1404.4844,425.0781 L1404.4844,426.1719 Q1404.4844,427.4063 1405.375,428.2266 Q1406.2656,429.0469 1407.8594,429.0469 Q1408.7969,429.0469 1409.4531,428.7969 Q1409.8438,428.6406 1410.2656,428.2031 Q1410.5313,427.9375 1410.6797,427.8594 Q1410.8281,427.7813 1411.0313,427.7813 Q1411.3594,427.7813 1411.6172,428.0391 Q1411.875,428.2969 1411.875,428.6406 Q1411.875,428.9844 1411.5313,429.3906 Q1411.0313,429.9688 1410.2344,430.2969 Q1409.1563,430.75 1407.8594,430.75 Q1406.3438,430.75 1405.1406,430.125 Q1404.1563,429.625 1403.4688,428.5547 Q1402.7813,427.4844 1402.7813,426.2031 L1402.7813,425.0469 Q1402.7813,423.7188 1403.3984,422.5703 Q1404.0156,421.4219 1405.1094,420.8047 Q1406.2031,420.1875 1407.4375,420.1875 Q1408.1719,420.1875 1408.8203,420.3516 Q1409.4688,420.5156 1410.0156,420.875 Z "/><text fill="#000000" font-family="sans-serif" font-size="12" lengthAdjust="spacingAndGlyphs" textLength="84" x="1422.75" y="429.9102">ResumeDialog</text><line style="stroke: #A80036; stroke-width: 1.5;" x1="1386.5" x2="1515.5" y1="441" y2="441"/><rect fill="none" height="6" style="stroke: #C82930; stroke-width: 1.0;" width="6" x="1393.5" y="450.418"/><text fill="#000000" font-family="sans-serif" font-size="11" lengthAdjust="spacingAndGlyphs" textLength="80" x="1405.5" y="456.4189">resume: boolean</text><line style="stroke: #A80036; stroke-width: 1.5;" x1="1386.5" x2="1515.5" y1="462.8359" y2="462.8359"/><polygon fill="#4177AF" points="1396.5,471.2539,1392.5,477.2539,1400.5,477.2539" style="stroke: #1963A0; stroke-width: 1.0;"/><text fill="#000000" font-family="sans-serif" font-size="11" lengthAdjust="spacingAndGlyphs" textLength="76" x="1405.5" y="478.2549">ResumeDialog()</text><polygon fill="#4177AF" points="1396.5,485.0898,1392.5,491.0898,1400.5,491.0898" style="stroke: #1963A0; stroke-width: 1.0;"/><text fill="#000000" font-family="sans-serif" font-size="11" lengthAdjust="spacingAndGlyphs" textLength="105" x="1405.5" y="492.0908">isResumed(): boolean</text><!--class mastermind.views.graphics.TurnView--><rect fill="#FEFECE" filter="url(#f1bdjnh8lg0ck8)" height="61.8359" id="mastermind.views.graphics.TurnView" style="stroke: #A80036; stroke-width: 1.5;" width="93" x="1313.5" y="901.5"/><ellipse cx="1333" cy="917.5" fill="#ADD1B2" rx="11" ry="11" style="stroke: #A80036; stroke-width: 1.0;"/><path d="M1335.7656,913.375 Q1335.9219,913.1563 1336.1094,913.0469 Q1336.2969,912.9375 1336.5156,912.9375 Q1336.8906,912.9375 1337.125,913.1953 Q1337.3594,913.4531 1337.3594,914.0625 L1337.3594,915.5156 Q1337.3594,916.125 1337.125,916.3906 Q1336.8906,916.6563 1336.5156,916.6563 Q1336.1719,916.6563 1335.9688,916.4531 Q1335.7656,916.2656 1335.6563,915.75 Q1335.6094,915.3906 1335.4219,915.2031 Q1335.0938,914.8281 1334.4844,914.6094 Q1333.875,914.3906 1333.25,914.3906 Q1332.4844,914.3906 1331.8516,914.7188 Q1331.2188,915.0469 1330.7266,915.7969 Q1330.2344,916.5469 1330.2344,917.5781 L1330.2344,918.6719 Q1330.2344,919.9063 1331.125,920.7266 Q1332.0156,921.5469 1333.6094,921.5469 Q1334.5469,921.5469 1335.2031,921.2969 Q1335.5938,921.1406 1336.0156,920.7031 Q1336.2813,920.4375 1336.4297,920.3594 Q1336.5781,920.2813 1336.7813,920.2813 Q1337.1094,920.2813 1337.3672,920.5391 Q1337.625,920.7969 1337.625,921.1406 Q1337.625,921.4844 1337.2813,921.8906 Q1336.7813,922.4688 1335.9844,922.7969 Q1334.9063,923.25 1333.6094,923.25 Q1332.0938,923.25 1330.8906,922.625 Q1329.9063,922.125 1329.2188,921.0547 Q1328.5313,919.9844 1328.5313,918.7031 L1328.5313,917.5469 Q1328.5313,916.2188 1329.1484,915.0703 Q1329.7656,913.9219 1330.8594,913.3047 Q1331.9531,912.6875 1333.1875,912.6875 Q1333.9219,912.6875 1334.5703,912.8516 Q1335.2188,913.0156 1335.7656,913.375 Z "/><text fill="#000000" font-family="sans-serif" font-size="12" lengthAdjust="spacingAndGlyphs" textLength="51" x="1348" y="922.4102">TurnView</text><line style="stroke: #A80036; stroke-width: 1.5;" x1="1314.5" x2="1405.5" y1="933.5" y2="933.5"/><line style="stroke: #A80036; stroke-width: 1.5;" x1="1314.5" x2="1405.5" y1="941.5" y2="941.5"/><polygon fill="#4177AF" points="1324.5,949.918,1320.5,955.918,1328.5,955.918" style="stroke: #1963A0; stroke-width: 1.0;"/><text fill="#000000" font-family="sans-serif" font-size="11" lengthAdjust="spacingAndGlyphs" textLength="67" x="1333.5" y="956.9189">TurnView(int)</text><!--class mastermind.views.graphics.ResultView--><rect fill="#FEFECE" filter="url(#f1bdjnh8lg0ck8)" height="61.8359" id="mastermind.views.graphics.ResultView" style="stroke: #A80036; stroke-width: 1.5;" width="107" x="1171.5" y="901.5"/><ellipse cx="1192.35" cy="917.5" fill="#ADD1B2" rx="11" ry="11" style="stroke: #A80036; stroke-width: 1.0;"/><path d="M1195.1156,913.375 Q1195.2719,913.1563 1195.4594,913.0469 Q1195.6469,912.9375 1195.8656,912.9375 Q1196.2406,912.9375 1196.475,913.1953 Q1196.7094,913.4531 1196.7094,914.0625 L1196.7094,915.5156 Q1196.7094,916.125 1196.475,916.3906 Q1196.2406,916.6563 1195.8656,916.6563 Q1195.5219,916.6563 1195.3188,916.4531 Q1195.1156,916.2656 1195.0063,915.75 Q1194.9594,915.3906 1194.7719,915.2031 Q1194.4438,914.8281 1193.8344,914.6094 Q1193.225,914.3906 1192.6,914.3906 Q1191.8344,914.3906 1191.2016,914.7188 Q1190.5688,915.0469 1190.0766,915.7969 Q1189.5844,916.5469 1189.5844,917.5781 L1189.5844,918.6719 Q1189.5844,919.9063 1190.475,920.7266 Q1191.3656,921.5469 1192.9594,921.5469 Q1193.8969,921.5469 1194.5531,921.2969 Q1194.9438,921.1406 1195.3656,920.7031 Q1195.6313,920.4375 1195.7797,920.3594 Q1195.9281,920.2813 1196.1313,920.2813 Q1196.4594,920.2813 1196.7172,920.5391 Q1196.975,920.7969 1196.975,921.1406 Q1196.975,921.4844 1196.6313,921.8906 Q1196.1313,922.4688 1195.3344,922.7969 Q1194.2563,923.25 1192.9594,923.25 Q1191.4438,923.25 1190.2406,922.625 Q1189.2563,922.125 1188.5688,921.0547 Q1187.8813,919.9844 1187.8813,918.7031 L1187.8813,917.5469 Q1187.8813,916.2188 1188.4984,915.0703 Q1189.1156,913.9219 1190.2094,913.3047 Q1191.3031,912.6875 1192.5375,912.6875 Q1193.2719,912.6875 1193.9203,912.8516 Q1194.5688,913.0156 1195.1156,913.375 Z "/><text fill="#000000" font-family="sans-serif" font-size="12" lengthAdjust="spacingAndGlyphs" textLength="62" x="1207.65" y="922.4102">ResultView</text><line style="stroke: #A80036; stroke-width: 1.5;" x1="1172.5" x2="1277.5" y1="933.5" y2="933.5"/><line style="stroke: #A80036; stroke-width: 1.5;" x1="1172.5" x2="1277.5" y1="941.5" y2="941.5"/><polygon fill="#4177AF" points="1182.5,949.918,1178.5,955.918,1186.5,955.918" style="stroke: #1963A0; stroke-width: 1.0;"/><text fill="#000000" font-family="sans-serif" font-size="11" lengthAdjust="spacingAndGlyphs" textLength="81" x="1191.5" y="956.9189">ResultView(int[])</text><!--class java.awt.GridBagConstraints--><rect fill="#FEFECE" filter="url(#f1bdjnh8lg0ck8)" height="48" id="java.awt.GridBagConstraints" style="stroke: #A80036; stroke-width: 1.5;" width="141" x="737.5" y="690"/><ellipse cx="752.5" cy="706" fill="#ADD1B2" rx="11" ry="11" style="stroke: #A80036; stroke-width: 1.0;"/><path d="M755.2656,701.875 Q755.4219,701.6563 755.6094,701.5469 Q755.7969,701.4375 756.0156,701.4375 Q756.3906,701.4375 756.625,701.6953 Q756.8594,701.9531 756.8594,702.5625 L756.8594,704.0156 Q756.8594,704.625 756.625,704.8906 Q756.3906,705.1563 756.0156,705.1563 Q755.6719,705.1563 755.4688,704.9531 Q755.2656,704.7656 755.1563,704.25 Q755.1094,703.8906 754.9219,703.7031 Q754.5938,703.3281 753.9844,703.1094 Q753.375,702.8906 752.75,702.8906 Q751.9844,702.8906 751.3516,703.2188 Q750.7188,703.5469 750.2266,704.2969 Q749.7344,705.0469 749.7344,706.0781 L749.7344,707.1719 Q749.7344,708.4063 750.625,709.2266 Q751.5156,710.0469 753.1094,710.0469 Q754.0469,710.0469 754.7031,709.7969 Q755.0938,709.6406 755.5156,709.2031 Q755.7813,708.9375 755.9297,708.8594 Q756.0781,708.7813 756.2813,708.7813 Q756.6094,708.7813 756.8672,709.0391 Q757.125,709.2969 757.125,709.6406 Q757.125,709.9844 756.7813,710.3906 Q756.2813,710.9688 755.4844,711.2969 Q754.4063,711.75 753.1094,711.75 Q751.5938,711.75 750.3906,711.125 Q749.4063,710.625 748.7188,709.5547 Q748.0313,708.4844 748.0313,707.2031 L748.0313,706.0469 Q748.0313,704.7188 748.6484,703.5703 Q749.2656,702.4219 750.3594,701.8047 Q751.4531,701.1875 752.6875,701.1875 Q753.4219,701.1875 754.0703,701.3516 Q754.7188,701.5156 755.2656,701.875 Z "/><text fill="#000000" font-family="sans-serif" font-size="12" lengthAdjust="spacingAndGlyphs" textLength="109" x="766.5" y="710.9102">GridBagConstraints</text><line style="stroke: #A80036; stroke-width: 1.5;" x1="738.5" x2="877.5" y1="722" y2="722"/><line style="stroke: #A80036; stroke-width: 1.5;" x1="738.5" x2="877.5" y1="730" y2="730"/><!--class javax.swing.JFrame--><rect fill="#FEFECE" filter="url(#f1bdjnh8lg0ck8)" height="48" id="javax.swing.JFrame" style="stroke: #A80036; stroke-width: 1.5;" width="74" x="38" y="690"/><ellipse cx="53" cy="706" fill="#ADD1B2" rx="11" ry="11" style="stroke: #A80036; stroke-width: 1.0;"/><path d="M55.7656,701.875 Q55.9219,701.6563 56.1094,701.5469 Q56.2969,701.4375 56.5156,701.4375 Q56.8906,701.4375 57.125,701.6953 Q57.3594,701.9531 57.3594,702.5625 L57.3594,704.0156 Q57.3594,704.625 57.125,704.8906 Q56.8906,705.1563 56.5156,705.1563 Q56.1719,705.1563 55.9688,704.9531 Q55.7656,704.7656 55.6563,704.25 Q55.6094,703.8906 55.4219,703.7031 Q55.0938,703.3281 54.4844,703.1094 Q53.875,702.8906 53.25,702.8906 Q52.4844,702.8906 51.8516,703.2188 Q51.2188,703.5469 50.7266,704.2969 Q50.2344,705.0469 50.2344,706.0781 L50.2344,707.1719 Q50.2344,708.4063 51.125,709.2266 Q52.0156,710.0469 53.6094,710.0469 Q54.5469,710.0469 55.2031,709.7969 Q55.5938,709.6406 56.0156,709.2031 Q56.2813,708.9375 56.4297,708.8594 Q56.5781,708.7813 56.7813,708.7813 Q57.1094,708.7813 57.3672,709.0391 Q57.625,709.2969 57.625,709.6406 Q57.625,709.9844 57.2813,710.3906 Q56.7813,710.9688 55.9844,711.2969 Q54.9063,711.75 53.6094,711.75 Q52.0938,711.75 50.8906,711.125 Q49.9063,710.625 49.2188,709.5547 Q48.5313,708.4844 48.5313,707.2031 L48.5313,706.0469 Q48.5313,704.7188 49.1484,703.5703 Q49.7656,702.4219 50.8594,701.8047 Q51.9531,701.1875 53.1875,701.1875 Q53.9219,701.1875 54.5703,701.3516 Q55.2188,701.5156 55.7656,701.875 Z "/><text fill="#000000" font-family="sans-serif" font-size="12" lengthAdjust="spacingAndGlyphs" textLength="42" x="67" y="710.9102">JFrame</text><line style="stroke: #A80036; stroke-width: 1.5;" x1="39" x2="111" y1="722" y2="722"/><line style="stroke: #A80036; stroke-width: 1.5;" x1="39" x2="111" y1="730" y2="730"/><!--class javax.swing.JPanel--><rect fill="#FEFECE" filter="url(#f1bdjnh8lg0ck8)" height="48" id="javax.swing.JPanel" style="stroke: #A80036; stroke-width: 1.5;" width="70" x="252" y="690"/><ellipse cx="267" cy="706" fill="#ADD1B2" rx="11" ry="11" style="stroke: #A80036; stroke-width: 1.0;"/><path d="M269.7656,701.875 Q269.9219,701.6563 270.1094,701.5469 Q270.2969,701.4375 270.5156,701.4375 Q270.8906,701.4375 271.125,701.6953 Q271.3594,701.9531 271.3594,702.5625 L271.3594,704.0156 Q271.3594,704.625 271.125,704.8906 Q270.8906,705.1563 270.5156,705.1563 Q270.1719,705.1563 269.9688,704.9531 Q269.7656,704.7656 269.6563,704.25 Q269.6094,703.8906 269.4219,703.7031 Q269.0938,703.3281 268.4844,703.1094 Q267.875,702.8906 267.25,702.8906 Q266.4844,702.8906 265.8516,703.2188 Q265.2188,703.5469 264.7266,704.2969 Q264.2344,705.0469 264.2344,706.0781 L264.2344,707.1719 Q264.2344,708.4063 265.125,709.2266 Q266.0156,710.0469 267.6094,710.0469 Q268.5469,710.0469 269.2031,709.7969 Q269.5938,709.6406 270.0156,709.2031 Q270.2813,708.9375 270.4297,708.8594 Q270.5781,708.7813 270.7813,708.7813 Q271.1094,708.7813 271.3672,709.0391 Q271.625,709.2969 271.625,709.6406 Q271.625,709.9844 271.2813,710.3906 Q270.7813,710.9688 269.9844,711.2969 Q268.9063,711.75 267.6094,711.75 Q266.0938,711.75 264.8906,711.125 Q263.9063,710.625 263.2188,709.5547 Q262.5313,708.4844 262.5313,707.2031 L262.5313,706.0469 Q262.5313,704.7188 263.1484,703.5703 Q263.7656,702.4219 264.8594,701.8047 Q265.9531,701.1875 267.1875,701.1875 Q267.9219,701.1875 268.5703,701.3516 Q269.2188,701.5156 269.7656,701.875 Z "/><text fill="#000000" font-family="sans-serif" font-size="12" lengthAdjust="spacingAndGlyphs" textLength="38" x="281" y="710.9102">JPanel</text><line style="stroke: #A80036; stroke-width: 1.5;" x1="253" x2="321" y1="722" y2="722"/><line style="stroke: #A80036; stroke-width: 1.5;" x1="253" x2="321" y1="730" y2="730"/><!--class javax.swing.JButton--><rect fill="#FEFECE" filter="url(#f1bdjnh8lg0ck8)" height="48" id="javax.swing.JButton" style="stroke: #A80036; stroke-width: 1.5;" width="73" x="357.5" y="690"/><ellipse cx="372.5" cy="706" fill="#ADD1B2" rx="11" ry="11" style="stroke: #A80036; stroke-width: 1.0;"/><path d="M375.2656,701.875 Q375.4219,701.6563 375.6094,701.5469 Q375.7969,701.4375 376.0156,701.4375 Q376.3906,701.4375 376.625,701.6953 Q376.8594,701.9531 376.8594,702.5625 L376.8594,704.0156 Q376.8594,704.625 376.625,704.8906 Q376.3906,705.1563 376.0156,705.1563 Q375.6719,705.1563 375.4688,704.9531 Q375.2656,704.7656 375.1563,704.25 Q375.1094,703.8906 374.9219,703.7031 Q374.5938,703.3281 373.9844,703.1094 Q373.375,702.8906 372.75,702.8906 Q371.9844,702.8906 371.3516,703.2188 Q370.7188,703.5469 370.2266,704.2969 Q369.7344,705.0469 369.7344,706.0781 L369.7344,707.1719 Q369.7344,708.4063 370.625,709.2266 Q371.5156,710.0469 373.1094,710.0469 Q374.0469,710.0469 374.7031,709.7969 Q375.0938,709.6406 375.5156,709.2031 Q375.7813,708.9375 375.9297,708.8594 Q376.0781,708.7813 376.2813,708.7813 Q376.6094,708.7813 376.8672,709.0391 Q377.125,709.2969 377.125,709.6406 Q377.125,709.9844 376.7813,710.3906 Q376.2813,710.9688 375.4844,711.2969 Q374.4063,711.75 373.1094,711.75 Q371.5938,711.75 370.3906,711.125 Q369.4063,710.625 368.7188,709.5547 Q368.0313,708.4844 368.0313,707.2031 L368.0313,706.0469 Q368.0313,704.7188 368.6484,703.5703 Q369.2656,702.4219 370.3594,701.8047 Q371.4531,701.1875 372.6875,701.1875 Q373.4219,701.1875 374.0703,701.3516 Q374.7188,701.5156 375.2656,701.875 Z "/><text fill="#000000" font-family="sans-serif" font-size="12" lengthAdjust="spacingAndGlyphs" textLength="41" x="386.5" y="710.9102">JButton</text><line style="stroke: #A80036; stroke-width: 1.5;" x1="358.5" x2="429.5" y1="722" y2="722"/><line style="stroke: #A80036; stroke-width: 1.5;" x1="358.5" x2="429.5" y1="730" y2="730"/><!--class javax.swing.JTextField--><rect fill="#FEFECE" filter="url(#f1bdjnh8lg0ck8)" height="48" id="javax.swing.JTextField" style="stroke: #A80036; stroke-width: 1.5;" width="87" x="593.5" y="690"/><ellipse cx="608.5" cy="706" fill="#ADD1B2" rx="11" ry="11" style="stroke: #A80036; stroke-width: 1.0;"/><path d="M611.2656,701.875 Q611.4219,701.6563 611.6094,701.5469 Q611.7969,701.4375 612.0156,701.4375 Q612.3906,701.4375 612.625,701.6953 Q612.8594,701.9531 612.8594,702.5625 L612.8594,704.0156 Q612.8594,704.625 612.625,704.8906 Q612.3906,705.1563 612.0156,705.1563 Q611.6719,705.1563 611.4688,704.9531 Q611.2656,704.7656 611.1563,704.25 Q611.1094,703.8906 610.9219,703.7031 Q610.5938,703.3281 609.9844,703.1094 Q609.375,702.8906 608.75,702.8906 Q607.9844,702.8906 607.3516,703.2188 Q606.7188,703.5469 606.2266,704.2969 Q605.7344,705.0469 605.7344,706.0781 L605.7344,707.1719 Q605.7344,708.4063 606.625,709.2266 Q607.5156,710.0469 609.1094,710.0469 Q610.0469,710.0469 610.7031,709.7969 Q611.0938,709.6406 611.5156,709.2031 Q611.7813,708.9375 611.9297,708.8594 Q612.0781,708.7813 612.2813,708.7813 Q612.6094,708.7813 612.8672,709.0391 Q613.125,709.2969 613.125,709.6406 Q613.125,709.9844 612.7813,710.3906 Q612.2813,710.9688 611.4844,711.2969 Q610.4063,711.75 609.1094,711.75 Q607.5938,711.75 606.3906,711.125 Q605.4063,710.625 604.7188,709.5547 Q604.0313,708.4844 604.0313,707.2031 L604.0313,706.0469 Q604.0313,704.7188 604.6484,703.5703 Q605.2656,702.4219 606.3594,701.8047 Q607.4531,701.1875 608.6875,701.1875 Q609.4219,701.1875 610.0703,701.3516 Q610.7188,701.5156 611.2656,701.875 Z "/><text fill="#000000" font-family="sans-serif" font-size="12" lengthAdjust="spacingAndGlyphs" textLength="55" x="622.5" y="710.9102">JTextField</text><line style="stroke: #A80036; stroke-width: 1.5;" x1="594.5" x2="679.5" y1="722" y2="722"/><line style="stroke: #A80036; stroke-width: 1.5;" x1="594.5" x2="679.5" y1="730" y2="730"/><!--class javax.swing.JLabel--><rect fill="#FEFECE" filter="url(#f1bdjnh8lg0ck8)" height="48" id="javax.swing.JLabel" style="stroke: #A80036; stroke-width: 1.5;" width="69" x="147.5" y="690"/><ellipse cx="162.5" cy="706" fill="#ADD1B2" rx="11" ry="11" style="stroke: #A80036; stroke-width: 1.0;"/><path d="M165.2656,701.875 Q165.4219,701.6563 165.6094,701.5469 Q165.7969,701.4375 166.0156,701.4375 Q166.3906,701.4375 166.625,701.6953 Q166.8594,701.9531 166.8594,702.5625 L166.8594,704.0156 Q166.8594,704.625 166.625,704.8906 Q166.3906,705.1563 166.0156,705.1563 Q165.6719,705.1563 165.4688,704.9531 Q165.2656,704.7656 165.1563,704.25 Q165.1094,703.8906 164.9219,703.7031 Q164.5938,703.3281 163.9844,703.1094 Q163.375,702.8906 162.75,702.8906 Q161.9844,702.8906 161.3516,703.2188 Q160.7188,703.5469 160.2266,704.2969 Q159.7344,705.0469 159.7344,706.0781 L159.7344,707.1719 Q159.7344,708.4063 160.625,709.2266 Q161.5156,710.0469 163.1094,710.0469 Q164.0469,710.0469 164.7031,709.7969 Q165.0938,709.6406 165.5156,709.2031 Q165.7813,708.9375 165.9297,708.8594 Q166.0781,708.7813 166.2813,708.7813 Q166.6094,708.7813 166.8672,709.0391 Q167.125,709.2969 167.125,709.6406 Q167.125,709.9844 166.7813,710.3906 Q166.2813,710.9688 165.4844,711.2969 Q164.4063,711.75 163.1094,711.75 Q161.5938,711.75 160.3906,711.125 Q159.4063,710.625 158.7188,709.5547 Q158.0313,708.4844 158.0313,707.2031 L158.0313,706.0469 Q158.0313,704.7188 158.6484,703.5703 Q159.2656,702.4219 160.3594,701.8047 Q161.4531,701.1875 162.6875,701.1875 Q163.4219,701.1875 164.0703,701.3516 Q164.7188,701.5156 165.2656,701.875 Z "/><text fill="#000000" font-family="sans-serif" font-size="12" lengthAdjust="spacingAndGlyphs" textLength="37" x="176.5" y="710.9102">JLabel</text><line style="stroke: #A80036; stroke-width: 1.5;" x1="148.5" x2="215.5" y1="722" y2="722"/><line style="stroke: #A80036; stroke-width: 1.5;" x1="148.5" x2="215.5" y1="730" y2="730"/><!--class javax.swing.JRootPane--><rect fill="#FEFECE" filter="url(#f1bdjnh8lg0ck8)" height="48" id="javax.swing.JRootPane" style="stroke: #A80036; stroke-width: 1.5;" width="93" x="465.5" y="690"/><ellipse cx="480.5" cy="706" fill="#ADD1B2" rx="11" ry="11" style="stroke: #A80036; stroke-width: 1.0;"/><path d="M483.2656,701.875 Q483.4219,701.6563 483.6094,701.5469 Q483.7969,701.4375 484.0156,701.4375 Q484.3906,701.4375 484.625,701.6953 Q484.8594,701.9531 484.8594,702.5625 L484.8594,704.0156 Q484.8594,704.625 484.625,704.8906 Q484.3906,705.1563 484.0156,705.1563 Q483.6719,705.1563 483.4688,704.9531 Q483.2656,704.7656 483.1563,704.25 Q483.1094,703.8906 482.9219,703.7031 Q482.5938,703.3281 481.9844,703.1094 Q481.375,702.8906 480.75,702.8906 Q479.9844,702.8906 479.3516,703.2188 Q478.7188,703.5469 478.2266,704.2969 Q477.7344,705.0469 477.7344,706.0781 L477.7344,707.1719 Q477.7344,708.4063 478.625,709.2266 Q479.5156,710.0469 481.1094,710.0469 Q482.0469,710.0469 482.7031,709.7969 Q483.0938,709.6406 483.5156,709.2031 Q483.7813,708.9375 483.9297,708.8594 Q484.0781,708.7813 484.2813,708.7813 Q484.6094,708.7813 484.8672,709.0391 Q485.125,709.2969 485.125,709.6406 Q485.125,709.9844 484.7813,710.3906 Q484.2813,710.9688 483.4844,711.2969 Q482.4063,711.75 481.1094,711.75 Q479.5938,711.75 478.3906,711.125 Q477.4063,710.625 476.7188,709.5547 Q476.0313,708.4844 476.0313,707.2031 L476.0313,706.0469 Q476.0313,704.7188 476.6484,703.5703 Q477.2656,702.4219 478.3594,701.8047 Q479.4531,701.1875 480.6875,701.1875 Q481.4219,701.1875 482.0703,701.3516 Q482.7188,701.5156 483.2656,701.875 Z "/><text fill="#000000" font-family="sans-serif" font-size="12" lengthAdjust="spacingAndGlyphs" textLength="61" x="494.5" y="710.9102">JRootPane</text><line style="stroke: #A80036; stroke-width: 1.5;" x1="466.5" x2="557.5" y1="722" y2="722"/><line style="stroke: #A80036; stroke-width: 1.5;" x1="466.5" x2="557.5" y1="730" y2="730"/><!--class mastermind.models.Game--><rect fill="#FEFECE" filter="url(#f1bdjnh8lg0ck8)" height="48" id="mastermind.models.Game" style="stroke: #A80036; stroke-width: 1.5;" width="66" x="2247" y="908.5"/><ellipse cx="2262" cy="924.5" fill="#ADD1B2" rx="11" ry="11" style="stroke: #A80036; stroke-width: 1.0;"/><path d="M2264.7656,920.375 Q2264.9219,920.1563 2265.1094,920.0469 Q2265.2969,919.9375 2265.5156,919.9375 Q2265.8906,919.9375 2266.125,920.1953 Q2266.3594,920.4531 2266.3594,921.0625 L2266.3594,922.5156 Q2266.3594,923.125 2266.125,923.3906 Q2265.8906,923.6563 2265.5156,923.6563 Q2265.1719,923.6563 2264.9688,923.4531 Q2264.7656,923.2656 2264.6563,922.75 Q2264.6094,922.3906 2264.4219,922.2031 Q2264.0938,921.8281 2263.4844,921.6094 Q2262.875,921.3906 2262.25,921.3906 Q2261.4844,921.3906 2260.8516,921.7188 Q2260.2188,922.0469 2259.7266,922.7969 Q2259.2344,923.5469 2259.2344,924.5781 L2259.2344,925.6719 Q2259.2344,926.9063 2260.125,927.7266 Q2261.0156,928.5469 2262.6094,928.5469 Q2263.5469,928.5469 2264.2031,928.2969 Q2264.5938,928.1406 2265.0156,927.7031 Q2265.2813,927.4375 2265.4297,927.3594 Q2265.5781,927.2813 2265.7813,927.2813 Q2266.1094,927.2813 2266.3672,927.5391 Q2266.625,927.7969 2266.625,928.1406 Q2266.625,928.4844 2266.2813,928.8906 Q2265.7813,929.4688 2264.9844,929.7969 Q2263.9063,930.25 2262.6094,930.25 Q2261.0938,930.25 2259.8906,929.625 Q2258.9063,929.125 2258.2188,928.0547 Q2257.5313,926.9844 2257.5313,925.7031 L2257.5313,924.5469 Q2257.5313,923.2188 2258.1484,922.0703 Q2258.7656,920.9219 2259.8594,920.3047 Q2260.9531,919.6875 2262.1875,919.6875 Q2262.9219,919.6875 2263.5703,919.8516 Q2264.2188,920.0156 2264.7656,920.375 Z "/><text fill="#000000" font-family="sans-serif" font-size="12" lengthAdjust="spacingAndGlyphs" textLength="34" x="2276" y="929.4102">Game</text><line style="stroke: #A80036; stroke-width: 1.5;" x1="2248" x2="2312" y1="940.5" y2="940.5"/><line style="stroke: #A80036; stroke-width: 1.5;" x1="2248" x2="2312" y1="948.5" y2="948.5"/><!--class mastermind.views.View--><rect fill="#FEFECE" filter="url(#f1bdjnh8lg0ck8)" height="48" id="mastermind.views.View" style="stroke: #A80036; stroke-width: 1.5;" width="58" x="1295" y="60"/><ellipse cx="1310" cy="76" fill="#ADD1B2" rx="11" ry="11" style="stroke: #A80036; stroke-width: 1.0;"/><path d="M1312.7656,71.875 Q1312.9219,71.6563 1313.1094,71.5469 Q1313.2969,71.4375 1313.5156,71.4375 Q1313.8906,71.4375 1314.125,71.6953 Q1314.3594,71.9531 1314.3594,72.5625 L1314.3594,74.0156 Q1314.3594,74.625 1314.125,74.8906 Q1313.8906,75.1563 1313.5156,75.1563 Q1313.1719,75.1563 1312.9688,74.9531 Q1312.7656,74.7656 1312.6563,74.25 Q1312.6094,73.8906 1312.4219,73.7031 Q1312.0938,73.3281 1311.4844,73.1094 Q1310.875,72.8906 1310.25,72.8906 Q1309.4844,72.8906 1308.8516,73.2188 Q1308.2188,73.5469 1307.7266,74.2969 Q1307.2344,75.0469 1307.2344,76.0781 L1307.2344,77.1719 Q1307.2344,78.4063 1308.125,79.2266 Q1309.0156,80.0469 1310.6094,80.0469 Q1311.5469,80.0469 1312.2031,79.7969 Q1312.5938,79.6406 1313.0156,79.2031 Q1313.2813,78.9375 1313.4297,78.8594 Q1313.5781,78.7813 1313.7813,78.7813 Q1314.1094,78.7813 1314.3672,79.0391 Q1314.625,79.2969 1314.625,79.6406 Q1314.625,79.9844 1314.2813,80.3906 Q1313.7813,80.9688 1312.9844,81.2969 Q1311.9063,81.75 1310.6094,81.75 Q1309.0938,81.75 1307.8906,81.125 Q1306.9063,80.625 1306.2188,79.5547 Q1305.5313,78.4844 1305.5313,77.2031 L1305.5313,76.0469 Q1305.5313,74.7188 1306.1484,73.5703 Q1306.7656,72.4219 1307.8594,71.8047 Q1308.9531,71.1875 1310.1875,71.1875 Q1310.9219,71.1875 1311.5703,71.3516 Q1312.2188,71.5156 1312.7656,71.875 Z "/><text fill="#000000" font-family="sans-serif" font-size="12" lengthAdjust="spacingAndGlyphs" textLength="26" x="1324" y="80.9102">View</text><line style="stroke: #A80036; stroke-width: 1.5;" x1="1296" x2="1352" y1="92" y2="92"/><line style="stroke: #A80036; stroke-width: 1.5;" x1="1296" x2="1352" y1="100" y2="100"/><!--class java.awt.event.KeyListener--><rect fill="#FEFECE" filter="url(#f1bdjnh8lg0ck8)" height="48" id="java.awt.event.KeyListener" style="stroke: #A80036; stroke-width: 1.5;" width="97" x="1846.5" y="908.5"/><ellipse cx="1861.5" cy="924.5" fill="#ADD1B2" rx="11" ry="11" style="stroke: #A80036; stroke-width: 1.0;"/><path d="M1864.2656,920.375 Q1864.4219,920.1563 1864.6094,920.0469 Q1864.7969,919.9375 1865.0156,919.9375 Q1865.3906,919.9375 1865.625,920.1953 Q1865.8594,920.4531 1865.8594,921.0625 L1865.8594,922.5156 Q1865.8594,923.125 1865.625,923.3906 Q1865.3906,923.6563 1865.0156,923.6563 Q1864.6719,923.6563 1864.4688,923.4531 Q1864.2656,923.2656 1864.1563,922.75 Q1864.1094,922.3906 1863.9219,922.2031 Q1863.5938,921.8281 1862.9844,921.6094 Q1862.375,921.3906 1861.75,921.3906 Q1860.9844,921.3906 1860.3516,921.7188 Q1859.7188,922.0469 1859.2266,922.7969 Q1858.7344,923.5469 1858.7344,924.5781 L1858.7344,925.6719 Q1858.7344,926.9063 1859.625,927.7266 Q1860.5156,928.5469 1862.1094,928.5469 Q1863.0469,928.5469 1863.7031,928.2969 Q1864.0938,928.1406 1864.5156,927.7031 Q1864.7813,927.4375 1864.9297,927.3594 Q1865.0781,927.2813 1865.2813,927.2813 Q1865.6094,927.2813 1865.8672,927.5391 Q1866.125,927.7969 1866.125,928.1406 Q1866.125,928.4844 1865.7813,928.8906 Q1865.2813,929.4688 1864.4844,929.7969 Q1863.4063,930.25 1862.1094,930.25 Q1860.5938,930.25 1859.3906,929.625 Q1858.4063,929.125 1857.7188,928.0547 Q1857.0313,926.9844 1857.0313,925.7031 L1857.0313,924.5469 Q1857.0313,923.2188 1857.6484,922.0703 Q1858.2656,920.9219 1859.3594,920.3047 Q1860.4531,919.6875 1861.6875,919.6875 Q1862.4219,919.6875 1863.0703,919.8516 Q1863.7188,920.0156 1864.2656,920.375 Z "/><text fill="#000000" font-family="sans-serif" font-size="12" lengthAdjust="spacingAndGlyphs" textLength="65" x="1875.5" y="929.4102">KeyListener</text><line style="stroke: #A80036; stroke-width: 1.5;" x1="1847.5" x2="1942.5" y1="940.5" y2="940.5"/><line style="stroke: #A80036; stroke-width: 1.5;" x1="1847.5" x2="1942.5" y1="948.5" y2="948.5"/><!--class java.awt.event.ActionListener--><rect fill="#FEFECE" filter="url(#f1bdjnh8lg0ck8)" height="48" id="java.awt.event.ActionListener" style="stroke: #A80036; stroke-width: 1.5;" width="110" x="1701" y="908.5"/><ellipse cx="1716" cy="924.5" fill="#ADD1B2" rx="11" ry="11" style="stroke: #A80036; stroke-width: 1.0;"/><path d="M1718.7656,920.375 Q1718.9219,920.1563 1719.1094,920.0469 Q1719.2969,919.9375 1719.5156,919.9375 Q1719.8906,919.9375 1720.125,920.1953 Q1720.3594,920.4531 1720.3594,921.0625 L1720.3594,922.5156 Q1720.3594,923.125 1720.125,923.3906 Q1719.8906,923.6563 1719.5156,923.6563 Q1719.1719,923.6563 1718.9688,923.4531 Q1718.7656,923.2656 1718.6563,922.75 Q1718.6094,922.3906 1718.4219,922.2031 Q1718.0938,921.8281 1717.4844,921.6094 Q1716.875,921.3906 1716.25,921.3906 Q1715.4844,921.3906 1714.8516,921.7188 Q1714.2188,922.0469 1713.7266,922.7969 Q1713.2344,923.5469 1713.2344,924.5781 L1713.2344,925.6719 Q1713.2344,926.9063 1714.125,927.7266 Q1715.0156,928.5469 1716.6094,928.5469 Q1717.5469,928.5469 1718.2031,928.2969 Q1718.5938,928.1406 1719.0156,927.7031 Q1719.2813,927.4375 1719.4297,927.3594 Q1719.5781,927.2813 1719.7813,927.2813 Q1720.1094,927.2813 1720.3672,927.5391 Q1720.625,927.7969 1720.625,928.1406 Q1720.625,928.4844 1720.2813,928.8906 Q1719.7813,929.4688 1718.9844,929.7969 Q1717.9063,930.25 1716.6094,930.25 Q1715.0938,930.25 1713.8906,929.625 Q1712.9063,929.125 1712.2188,928.0547 Q1711.5313,926.9844 1711.5313,925.7031 L1711.5313,924.5469 Q1711.5313,923.2188 1712.1484,922.0703 Q1712.7656,920.9219 1713.8594,920.3047 Q1714.9531,919.6875 1716.1875,919.6875 Q1716.9219,919.6875 1717.5703,919.8516 Q1718.2188,920.0156 1718.7656,920.375 Z "/><text fill="#000000" font-family="sans-serif" font-size="12" lengthAdjust="spacingAndGlyphs" textLength="78" x="1730" y="929.4102">ActionListener</text><line style="stroke: #A80036; stroke-width: 1.5;" x1="1702" x2="1810" y1="940.5" y2="940.5"/><line style="stroke: #A80036; stroke-width: 1.5;" x1="1702" x2="1810" y1="948.5" y2="948.5"/><!--class java.awt.event.KeyEvent--><rect fill="#FEFECE" filter="url(#f1bdjnh8lg0ck8)" height="48" id="java.awt.event.KeyEvent" style="stroke: #A80036; stroke-width: 1.5;" width="82" x="2109" y="908.5"/><ellipse cx="2124" cy="924.5" fill="#ADD1B2" rx="11" ry="11" style="stroke: #A80036; stroke-width: 1.0;"/><path d="M2126.7656,920.375 Q2126.9219,920.1563 2127.1094,920.0469 Q2127.2969,919.9375 2127.5156,919.9375 Q2127.8906,919.9375 2128.125,920.1953 Q2128.3594,920.4531 2128.3594,921.0625 L2128.3594,922.5156 Q2128.3594,923.125 2128.125,923.3906 Q2127.8906,923.6563 2127.5156,923.6563 Q2127.1719,923.6563 2126.9688,923.4531 Q2126.7656,923.2656 2126.6563,922.75 Q2126.6094,922.3906 2126.4219,922.2031 Q2126.0938,921.8281 2125.4844,921.6094 Q2124.875,921.3906 2124.25,921.3906 Q2123.4844,921.3906 2122.8516,921.7188 Q2122.2188,922.0469 2121.7266,922.7969 Q2121.2344,923.5469 2121.2344,924.5781 L2121.2344,925.6719 Q2121.2344,926.9063 2122.125,927.7266 Q2123.0156,928.5469 2124.6094,928.5469 Q2125.5469,928.5469 2126.2031,928.2969 Q2126.5938,928.1406 2127.0156,927.7031 Q2127.2813,927.4375 2127.4297,927.3594 Q2127.5781,927.2813 2127.7813,927.2813 Q2128.1094,927.2813 2128.3672,927.5391 Q2128.625,927.7969 2128.625,928.1406 Q2128.625,928.4844 2128.2813,928.8906 Q2127.7813,929.4688 2126.9844,929.7969 Q2125.9063,930.25 2124.6094,930.25 Q2123.0938,930.25 2121.8906,929.625 Q2120.9063,929.125 2120.2188,928.0547 Q2119.5313,926.9844 2119.5313,925.7031 L2119.5313,924.5469 Q2119.5313,923.2188 2120.1484,922.0703 Q2120.7656,920.9219 2121.8594,920.3047 Q2122.9531,919.6875 2124.1875,919.6875 Q2124.9219,919.6875 2125.5703,919.8516 Q2126.2188,920.0156 2126.7656,920.375 Z "/><text fill="#000000" font-family="sans-serif" font-size="12" lengthAdjust="spacingAndGlyphs" textLength="50" x="2138" y="929.4102">KeyEvent</text><line style="stroke: #A80036; stroke-width: 1.5;" x1="2110" x2="2190" y1="940.5" y2="940.5"/><line style="stroke: #A80036; stroke-width: 1.5;" x1="2110" x2="2190" y1="948.5" y2="948.5"/><!--class java.awt.event.ActionEvent--><rect fill="#FEFECE" filter="url(#f1bdjnh8lg0ck8)" height="48" id="java.awt.event.ActionEvent" style="stroke: #A80036; stroke-width: 1.5;" width="95" x="1978.5" y="908.5"/><ellipse cx="1993.5" cy="924.5" fill="#ADD1B2" rx="11" ry="11" style="stroke: #A80036; stroke-width: 1.0;"/><path d="M1996.2656,920.375 Q1996.4219,920.1563 1996.6094,920.0469 Q1996.7969,919.9375 1997.0156,919.9375 Q1997.3906,919.9375 1997.625,920.1953 Q1997.8594,920.4531 1997.8594,921.0625 L1997.8594,922.5156 Q1997.8594,923.125 1997.625,923.3906 Q1997.3906,923.6563 1997.0156,923.6563 Q1996.6719,923.6563 1996.4688,923.4531 Q1996.2656,923.2656 1996.1563,922.75 Q1996.1094,922.3906 1995.9219,922.2031 Q1995.5938,921.8281 1994.9844,921.6094 Q1994.375,921.3906 1993.75,921.3906 Q1992.9844,921.3906 1992.3516,921.7188 Q1991.7188,922.0469 1991.2266,922.7969 Q1990.7344,923.5469 1990.7344,924.5781 L1990.7344,925.6719 Q1990.7344,926.9063 1991.625,927.7266 Q1992.5156,928.5469 1994.1094,928.5469 Q1995.0469,928.5469 1995.7031,928.2969 Q1996.0938,928.1406 1996.5156,927.7031 Q1996.7813,927.4375 1996.9297,927.3594 Q1997.0781,927.2813 1997.2813,927.2813 Q1997.6094,927.2813 1997.8672,927.5391 Q1998.125,927.7969 1998.125,928.1406 Q1998.125,928.4844 1997.7813,928.8906 Q1997.2813,929.4688 1996.4844,929.7969 Q1995.4063,930.25 1994.1094,930.25 Q1992.5938,930.25 1991.3906,929.625 Q1990.4063,929.125 1989.7188,928.0547 Q1989.0313,926.9844 1989.0313,925.7031 L1989.0313,924.5469 Q1989.0313,923.2188 1989.6484,922.0703 Q1990.2656,920.9219 1991.3594,920.3047 Q1992.4531,919.6875 1993.6875,919.6875 Q1994.4219,919.6875 1995.0703,919.8516 Q1995.7188,920.0156 1996.2656,920.375 Z "/><text fill="#000000" font-family="sans-serif" font-size="12" lengthAdjust="spacingAndGlyphs" textLength="63" x="2007.5" y="929.4102">ActionEvent</text><line style="stroke: #A80036; stroke-width: 1.5;" x1="1979.5" x2="2072.5" y1="940.5" y2="940.5"/><line style="stroke: #A80036; stroke-width: 1.5;" x1="1979.5" x2="2072.5" y1="948.5" y2="948.5"/><!--link java.awt.GridBagConstraints to mastermind.views.graphics.Constraints--><path d="M837.326,754.144 C857.473,777.856 886.403,806.281 919,821 C1124.31,913.71 1212.78,786.172 1424,864.5 C1446.02,872.664 1467.5,887.537 1484.25,901.2 " fill="none" id="java.awt.GridBagConstraints-mastermind.views.graphics.Constraints" style="stroke: #A80036; stroke-width: 1.0;"/><polygon fill="none" points="831.684,758.299,824.563,738.342,842.576,749.503,831.684,758.299" style="stroke: #A80036; stroke-width: 1.0;"/><!--link javax.swing.JFrame to mastermind.views.graphics.GameView--><path d="M86.5934,670.622 C94.9624,648.159 108.635,622.149 130,607 C274.28,504.699 787.016,470.613 1045.98,459.771 " fill="none" id="javax.swing.JFrame-mastermind.views.graphics.GameView" style="stroke: #A80036; stroke-width: 1.0;"/><polygon fill="none" points="93.1827,672.994,80.3299,689.841,79.8718,668.656,93.1827,672.994" style="stroke: #A80036; stroke-width: 1.0;"/><!--link mastermind.views.graphics.GameView to mastermind.views.graphics.ProposedCombinationsView--><path d="M1145.25,558.897 C1126.78,595.267 1106.91,634.405 1091.81,664.137 " fill="none" id="mastermind.views.graphics.GameView-mastermind.views.graphics.ProposedCombinationsView" style="stroke: #A80036; stroke-width: 1.0;"/><polygon fill="#A80036" points="1085.86,675.859,1093.5025,669.6467,1088.1246,671.4012,1086.3701,666.0234,1085.86,675.859" style="stroke: #A80036; stroke-width: 1.0;"/><line style="stroke: #A80036; stroke-width: 1.0;" x1="1088.1246" x2="1091.745" y1="671.4012" y2="664.268"/><polygon fill="#A80036" points="1151.26,547.051,1144.9763,550.5886,1145.8249,557.7496,1152.1087,554.212,1151.26,547.051" style="stroke: #A80036; stroke-width: 1.0;"/><!--link mastermind.views.graphics.GameView to mastermind.views.graphics.SecretCombinationView--><path d="M1245.57,559.002 C1259.68,589.863 1274.7,622.708 1287.23,650.103 " fill="none" id="mastermind.views.graphics.GameView-mastermind.views.graphics.SecretCombinationView" style="stroke: #A80036; stroke-width: 1.0;"/><polygon fill="#A80036" points="1292.8,662.28,1292.6917,652.4317,1290.7192,657.7335,1285.4174,655.761,1292.8,662.28" style="stroke: #A80036; stroke-width: 1.0;"/><line style="stroke: #A80036; stroke-width: 1.0;" x1="1290.7192" x2="1287.395" y1="657.7335" y2="650.4575"/><polygon fill="#A80036" points="1240.1,547.051,1238.9566,554.1709,1245.089,557.9648,1246.2324,550.8449,1240.1,547.051" style="stroke: #A80036; stroke-width: 1.0;"/><!--link mastermind.views.graphics.GameView to mastermind.views.graphics.ProposalCombinationView--><path d="M1344.64,554.837 C1368.44,571.861 1392.61,589.655 1415,607 C1417.64,609.049 1420.31,611.135 1422.99,613.249 " fill="none" id="mastermind.views.graphics.GameView-mastermind.views.graphics.ProposalCombinationView" style="stroke: #A80036; stroke-width: 1.0;"/><polygon fill="#A80036" points="1433.36,621.531,1428.8244,612.7887,1429.4533,618.4105,1423.8315,619.0394,1433.36,621.531" style="stroke: #A80036; stroke-width: 1.0;"/><line style="stroke: #A80036; stroke-width: 1.0;" x1="1429.4533" x2="1423.2" y1="618.4105" y2="613.4195"/><polygon fill="#A80036" points="1333.74,547.074,1336.3065,553.8129,1343.5141,554.0358,1340.9477,547.2968,1333.74,547.074" style="stroke: #A80036; stroke-width: 1.0;"/><!--link mastermind.views.graphics.GameView to mastermind.models.Game--><path d="M1350.4,540.151 C1356.29,542.584 1362.17,544.879 1368,547 C1493.33,592.563 1535.47,564.878 1662,607 C1916.18,691.615 1984.69,715.012 2207,864.5 C2224.22,876.082 2241.43,891.629 2254.81,904.832 " fill="none" id="mastermind.views.graphics.GameView-mastermind.models.Game" style="stroke: #A80036; stroke-width: 1.0; stroke-dasharray: 7.0,7.0;"/><polygon fill="#A80036" points="2258.47,908.488,2254.9178,899.3021,2254.928,904.9589,2249.2712,904.9692,2258.47,908.488" style="stroke: #A80036; stroke-width: 1.0;"/><!--link mastermind.views.graphics.GameView to mastermind.views.graphics.ProposedCombinationView--><path d="M1045.99,517.223 C1009.41,539.837 974.895,569.366 954,607 C907.832,690.154 926.629,729.912 954,821 C959.856,840.487 970.387,859.707 981.661,876.515 " fill="none" id="mastermind.views.graphics.GameView-mastermind.views.graphics.ProposedCombinationView" style="stroke: #A80036; stroke-width: 1.0; stroke-dasharray: 7.0,7.0;"/><polygon fill="#A80036" points="984.541,880.735,982.7716,871.0464,981.7225,876.6051,976.1638,875.556,984.541,880.735" style="stroke: #A80036; stroke-width: 1.0;"/><!--link mastermind.views.graphics.GameView to mastermind.views.graphics.Constraints--><path d="M1190.2,547.03 C1184.27,641.858 1182.07,781.272 1216,821 C1277.34,892.814 1337.58,826.401 1424,864.5 C1443.3,873.01 1462.57,885.963 1478.52,898.218 " fill="none" id="mastermind.views.graphics.GameView-mastermind.views.graphics.Constraints" style="stroke: #A80036; stroke-width: 1.0; stroke-dasharray: 7.0,7.0;"/><polygon fill="#A80036" points="1482.5,901.316,1477.8551,892.6313,1478.5545,898.2447,1472.941,898.9441,1482.5,901.316" style="stroke: #A80036; stroke-width: 1.0;"/><!--link mastermind.views.View to mastermind.views.graphics.GraphicsView--><path d="M1324,128.318 C1324,145.479 1324,165.46 1324,183.816 " fill="none" id="mastermind.views.View-mastermind.views.graphics.GraphicsView" style="stroke: #A80036; stroke-width: 1.0;"/><polygon fill="none" points="1317,128.092,1324,108.092,1331,128.092,1317,128.092" style="stroke: #A80036; stroke-width: 1.0;"/><!--link mastermind.views.graphics.GraphicsView to mastermind.views.graphics.GameView--><path d="M1282.44,312.6 C1275.32,324.447 1267.78,336.984 1260.25,349.497 " fill="none" id="mastermind.views.graphics.GraphicsView-mastermind.views.graphics.GameView" style="stroke: #A80036; stroke-width: 1.0;"/><polygon fill="#A80036" points="1253.35,360.962,1261.419,355.3147,1255.9289,356.6784,1254.5652,351.1884,1253.35,360.962" style="stroke: #A80036; stroke-width: 1.0;"/><line style="stroke: #A80036; stroke-width: 1.0;" x1="1255.9289" x2="1260.055" y1="356.6784" y2="349.822"/><polygon fill="#A80036" points="1289.4,301.024,1282.8801,304.1048,1283.2164,311.3081,1289.7362,308.2273,1289.4,301.024" style="stroke: #A80036; stroke-width: 1.0;"/><!--link mastermind.views.graphics.GraphicsView to mastermind.views.graphics.ResumeDialog--><path d="M1358.87,301.024 C1378.54,333.467 1402.84,373.554 1421.54,404.41 " fill="none" id="mastermind.views.graphics.GraphicsView-mastermind.views.graphics.ResumeDialog" style="stroke: #A80036; stroke-width: 1.0; stroke-dasharray: 7.0,7.0;"/><polygon fill="#A80036" points="1424.26,408.894,1423.026,399.1227,1421.6729,404.6154,1416.1802,403.2622,1424.26,408.894" style="stroke: #A80036; stroke-width: 1.0;"/><!--link java.awt.event.KeyListener to mastermind.views.graphics.ProposalCombinationView--><path d="M1861.64,893.46 C1851.73,883.353 1840.44,872.919 1829,864.5 C1772.09,822.616 1701.78,786.051 1644.64,759.568 " fill="none" id="java.awt.event.KeyListener-mastermind.views.graphics.ProposalCombinationView" style="stroke: #A80036; stroke-width: 1.0;"/><polygon fill="none" points="1866.92,888.861,1875.48,908.246,1856.7,898.428,1866.92,888.861" style="stroke: #A80036; stroke-width: 1.0;"/><!--link java.awt.event.ActionListener to mastermind.views.graphics.ProposalCombinationView--><path d="M1718.69,894.276 C1698.04,873.671 1671.22,846.919 1644.64,820.396 " fill="none" id="java.awt.event.ActionListener-mastermind.views.graphics.ProposalCombinationView" style="stroke: #A80036; stroke-width: 1.0;"/><polygon fill="none" points="1723.65,889.334,1732.86,908.416,1713.76,899.245,1723.65,889.334" style="stroke: #A80036; stroke-width: 1.0;"/><!--link javax.swing.JPanel to mastermind.views.graphics.ProposalCombinationView--><path d="M296.182,670.365 C305.565,638.05 323.726,596.399 357.5,577 C407.602,548.223 1343.94,555.321 1397.5,577 C1415.25,584.185 1432,594.782 1447.35,606.954 " fill="none" id="javax.swing.JPanel-mastermind.views.graphics.ProposalCombinationView" style="stroke: #A80036; stroke-width: 1.0;"/><polygon fill="none" points="302.921,672.267,291.208,689.925,289.353,668.817,302.921,672.267" style="stroke: #A80036; stroke-width: 1.0;"/><!--link mastermind.views.graphics.ProposalCombinationView to javax.swing.JButton--><path d="M1436.71,598.945 C1424.36,590.155 1411.23,582.557 1397.5,577 C1349.51,557.573 510.399,551.212 465.5,577 C429.206,597.846 410.594,644.162 401.592,677.164 " fill="none" id="mastermind.views.graphics.ProposalCombinationView-javax.swing.JButton" style="stroke: #A80036; stroke-width: 1.0;"/><polygon fill="#A80036" points="398.397,689.945,404.4604,682.1839,399.6097,685.0943,396.6993,680.2436,398.397,689.945" style="stroke: #A80036; stroke-width: 1.0;"/><line style="stroke: #A80036; stroke-width: 1.0;" x1="399.6097" x2="401.55" y1="685.0943" y2="677.3335"/><polygon fill="#A80036" points="1447.35,606.954,1444.96,600.1505,1437.7606,599.7399,1440.1506,606.5434,1447.35,606.954" style="stroke: #A80036; stroke-width: 1.0;"/><!--link mastermind.views.graphics.ProposalCombinationView to javax.swing.JTextField--><path d="M1436.71,598.945 C1424.36,590.155 1411.23,582.557 1397.5,577 C1329.63,549.526 803.896,544.062 738.5,577 C696.89,597.958 668.078,644.931 652.056,678.008 " fill="none" id="mastermind.views.graphics.ProposalCombinationView-javax.swing.JTextField" style="stroke: #A80036; stroke-width: 1.0;"/><polygon fill="#A80036" points="646.541,689.922,653.9512,683.4344,648.6411,685.3844,646.6911,680.0743,646.541,689.922" style="stroke: #A80036; stroke-width: 1.0;"/><line style="stroke: #A80036; stroke-width: 1.0;" x1="648.6411" x2="652.002" y1="685.3844" y2="678.124"/><polygon fill="#A80036" points="1447.35,606.954,1444.96,600.1505,1437.7606,599.7399,1440.1506,606.5434,1447.35,606.954" style="stroke: #A80036; stroke-width: 1.0;"/><!--link mastermind.views.graphics.ProposalCombinationView to javax.swing.JLabel--><path d="M1436.71,598.945 C1424.36,590.155 1411.23,582.557 1397.5,577 C1338.48,553.112 306.708,545.29 251.5,577 C215.421,597.723 197.505,644.066 189.013,677.108 " fill="none" id="mastermind.views.graphics.ProposalCombinationView-javax.swing.JLabel" style="stroke: #A80036; stroke-width: 1.0;"/><polygon fill="#A80036" points="186.017,689.906,191.9628,682.0544,187.1565,685.0376,184.1734,680.2312,186.017,689.906" style="stroke: #A80036; stroke-width: 1.0;"/><line style="stroke: #A80036; stroke-width: 1.0;" x1="187.1565" x2="188.9805" y1="685.0376" y2="677.248"/><polygon fill="#A80036" points="1447.35,606.954,1444.96,600.1505,1437.7606,599.7399,1440.1506,606.5434,1447.35,606.954" style="stroke: #A80036; stroke-width: 1.0;"/><!--link mastermind.views.graphics.ProposalCombinationView to javax.swing.JRootPane--><path d="M1447.35,606.954 C1432,594.782 1415.25,584.185 1397.5,577 C1314.69,543.481 671.155,532.839 593.5,577 C553.081,599.985 530.612,651.81 519.941,684.719 " fill="none" id="mastermind.views.graphics.ProposalCombinationView-javax.swing.JRootPane" style="stroke: #A80036; stroke-width: 1.0; stroke-dasharray: 7.0,7.0;"/><polygon fill="#A80036" points="518.329,689.831,524.8519,682.4519,519.8336,685.0628,517.2227,680.0445,518.329,689.831" style="stroke: #A80036; stroke-width: 1.0;"/><!--link mastermind.views.graphics.ProposalCombinationView to java.awt.event.KeyEvent--><path d="M1644.79,740.163 C1794.14,776.216 2052.96,840.829 2091,864.5 C2107.22,874.593 2121.5,890.497 2131.94,904.278 " fill="none" id="mastermind.views.graphics.ProposalCombinationView-java.awt.event.KeyEvent" style="stroke: #A80036; stroke-width: 1.0; stroke-dasharray: 7.0,7.0;"/><polygon fill="#A80036" points="2135.06,908.478,2132.9094,898.8668,2132.0806,904.4626,2126.4848,903.6338,2135.06,908.478" style="stroke: #A80036; stroke-width: 1.0;"/><!--link mastermind.views.graphics.ProposalCombinationView to java.awt.event.ActionEvent--><path d="M1644.78,738.056 C1734.01,760.761 1862.55,801.325 1961,864.5 C1977.56,875.129 1993.04,890.75 2004.73,904.236 " fill="none" id="mastermind.views.graphics.ProposalCombinationView-java.awt.event.ActionEvent" style="stroke: #A80036; stroke-width: 1.0; stroke-dasharray: 7.0,7.0;"/><polygon fill="#A80036" points="2008.24,908.345,2005.4383,898.903,2004.9935,904.5424,1999.3541,904.0975,2008.24,908.345" style="stroke: #A80036; stroke-width: 1.0;"/><!--link mastermind.views.graphics.ProposalCombinationView to mastermind.views.graphics.Constraints--><path d="M1528.23,821.03 C1525.48,848.093 1522.71,875.34 1520.61,896.003 " fill="none" id="mastermind.views.graphics.ProposalCombinationView-mastermind.views.graphics.Constraints" style="stroke: #A80036; stroke-width: 1.0; stroke-dasharray: 7.0,7.0;"/><polygon fill="#A80036" points="1520.09,901.111,1524.9803,892.562,1520.596,896.1367,1517.0214,891.7524,1520.09,901.111" style="stroke: #A80036; stroke-width: 1.0;"/><!--link javax.swing.JPanel to mastermind.views.graphics.ProposedCombinationsView--><path d="M296.182,670.365 C305.565,638.05 323.726,596.399 357.5,577 C412.419,545.456 868.879,553.028 927.5,577 C976.043,596.851 1016.8,642.641 1041.49,675.83 " fill="none" id="javax.swing.JPanel-mastermind.views.graphics.ProposedCombinationsView" style="stroke: #A80036; stroke-width: 1.0;"/><polygon fill="none" points="302.921,672.267,291.208,689.925,289.353,668.817,302.921,672.267" style="stroke: #A80036; stroke-width: 1.0;"/><!--link mastermind.views.graphics.ProposedCombinationsView to mastermind.models.Game--><path d="M1105.77,752.196 C1133.93,776.637 1174.27,806.655 1216,821 C1424.46,892.661 2003.39,780.038 2207,864.5 C2227.33,872.935 2245.58,889.679 2258.74,904.317 " fill="none" id="mastermind.views.graphics.ProposedCombinationsView-mastermind.models.Game" style="stroke: #A80036; stroke-width: 1.0; stroke-dasharray: 7.0,7.0;"/><polygon fill="#A80036" points="2262.32,908.381,2259.382,898.9806,2259.0188,904.6257,2253.3736,904.2625,2262.32,908.381" style="stroke: #A80036; stroke-width: 1.0;"/><!--link mastermind.views.graphics.ProposedCombinationsView to mastermind.views.graphics.Constraints--><path d="M1099.63,752.115 C1122.34,775.55 1154.63,804.43 1189,821 C1284.68,867.124 1326.32,822.778 1424,864.5 C1443.57,872.859 1463.02,885.925 1479.03,898.308 " fill="none" id="mastermind.views.graphics.ProposedCombinationsView-mastermind.views.graphics.Constraints" style="stroke: #A80036; stroke-width: 1.0; stroke-dasharray: 7.0,7.0;"/><polygon fill="#A80036" points="1483.03,901.438,1478.4153,892.7371,1479.0952,898.353,1473.4793,899.0328,1483.03,901.438" style="stroke: #A80036; stroke-width: 1.0;"/><!--link mastermind.views.graphics.ProposedCombinationsView to mastermind.views.graphics.TurnView--><path d="M1103.19,752.126 C1126.23,774.25 1157.56,801.691 1189,821 C1232.74,847.864 1253.55,835.632 1296,864.5 C1309.38,873.602 1322.14,885.901 1332.68,897.476 " fill="none" id="mastermind.views.graphics.ProposedCombinationsView-mastermind.views.graphics.TurnView" style="stroke: #A80036; stroke-width: 1.0; stroke-dasharray: 7.0,7.0;"/><polygon fill="#A80036" points="1336.17,901.368,1333.1463,891.9948,1332.8346,897.643,1327.1864,897.3313,1336.17,901.368" style="stroke: #A80036; stroke-width: 1.0;"/><!--link mastermind.views.graphics.ProposedCombinationsView to mastermind.views.graphics.ProposedCombinationView--><path d="M1060.12,752.218 C1053.86,786.119 1044.52,836.662 1037.36,875.45 " fill="none" id="mastermind.views.graphics.ProposedCombinationsView-mastermind.views.graphics.ProposedCombinationView" style="stroke: #A80036; stroke-width: 1.0; stroke-dasharray: 7.0,7.0;"/><polygon fill="#A80036" points="1036.4,880.6,1041.9696,872.4772,1037.309,875.6833,1034.1029,871.0228,1036.4,880.6" style="stroke: #A80036; stroke-width: 1.0;"/><!--link mastermind.views.graphics.ProposedCombinationsView to mastermind.views.graphics.ResultView--><path d="M1094.16,752.218 C1123.87,792.928 1171.1,857.637 1199.94,897.168 " fill="none" id="mastermind.views.graphics.ProposedCombinationsView-mastermind.views.graphics.ResultView" style="stroke: #A80036; stroke-width: 1.0; stroke-dasharray: 7.0,7.0;"/><polygon fill="#A80036" points="1203.02,901.387,1200.9485,891.7585,1200.0737,897.3473,1194.4849,896.4725,1203.02,901.387" style="stroke: #A80036; stroke-width: 1.0;"/><!--link javax.swing.JLabel to mastermind.views.graphics.ProposedCombinationView--><path d="M192.364,757.351 C200.088,779.805 213.025,805.816 234,821 C344.416,900.93 751.085,923.2451 935.274,929.3108 " fill="none" id="javax.swing.JLabel-mastermind.views.graphics.ProposedCombinationView" style="stroke: #A80036; stroke-width: 1.0;"/><polygon fill="none" points="185.643,759.307,186.655,738.142,199.063,755.319,185.643,759.307" style="stroke: #A80036; stroke-width: 1.0;"/><!--link mastermind.views.graphics.ProposedCombinationView to mastermind.views.graphics.ProposedCombinationView--><path d="M1118.54,892.725 C1138.77,896.462 1153.5,909.721 1153.5,932.5 C1153.5,953.3217 1141.19,966.1885 1123.63,971.1003 " fill="none" id="mastermind.views.graphics.ProposedCombinationView-mastermind.views.graphics.ProposedCombinationView" style="stroke: #A80036; stroke-width: 1.0; stroke-dasharray: 7.0,7.0;"/><polygon fill="#A80036" points="1118.54,972.2748,1128.2053,974.1675,1123.4141,971.16,1126.4216,966.3688,1118.54,972.2748" style="stroke: #A80036; stroke-width: 1.0;"/><!--link javax.swing.JLabel to mastermind.views.graphics.ResultView--><path d="M191.711,757.687 C199.252,780.474 212.223,806.702 234,821 C319.545,877.167 1059.82,824.476 1154,864.5 C1172.56,872.388 1189.21,887.42 1201.71,901.25 " fill="none" id="javax.swing.JLabel-mastermind.views.graphics.ResultView" style="stroke: #A80036; stroke-width: 1.0;"/><polygon fill="none" points="184.898,759.316,186.216,738.167,198.374,755.522,184.898,759.316" style="stroke: #A80036; stroke-width: 1.0;"/><!--link javax.swing.JPanel to mastermind.views.graphics.SecretCombinationView--><path d="M296.182,670.365 C305.565,638.05 323.726,596.399 357.5,577 C397.581,553.979 1147.16,558.465 1189.5,577 C1229.24,594.396 1262.04,631.116 1284.27,662.165 " fill="none" id="javax.swing.JPanel-mastermind.views.graphics.SecretCombinationView" style="stroke: #A80036; stroke-width: 1.0;"/><polygon fill="none" points="302.921,672.267,291.208,689.925,289.353,668.817,302.921,672.267" style="stroke: #A80036; stroke-width: 1.0;"/><!--link mastermind.views.graphics.SecretCombinationView to javax.swing.JLabel--><path d="M1276.31,651.431 C1254.52,623.045 1224.74,592.425 1189.5,577 C1141.76,556.103 296.688,551.046 251.5,577 C215.421,597.723 197.505,644.066 189.013,677.108 " fill="none" id="mastermind.views.graphics.SecretCombinationView-javax.swing.JLabel" style="stroke: #A80036; stroke-width: 1.0;"/><polygon fill="#A80036" points="186.017,689.906,191.9628,682.0544,187.1565,685.0376,184.1734,680.2312,186.017,689.906" style="stroke: #A80036; stroke-width: 1.0;"/><line style="stroke: #A80036; stroke-width: 1.0;" x1="187.1565" x2="188.9805" y1="685.0376" y2="677.248"/><polygon fill="#A80036" points="1284.27,662.165,1283.9096,654.9629,1277.1229,652.5256,1277.4833,659.7277,1284.27,662.165" style="stroke: #A80036; stroke-width: 1.0;"/><!--link mastermind.views.graphics.SecretCombinationView to mastermind.views.graphics.Constraints--><path d="M1363.13,765.76 C1400.85,806.398 1452.72,862.264 1485.55,897.628 " fill="none" id="mastermind.views.graphics.SecretCombinationView-mastermind.views.graphics.Constraints" style="stroke: #A80036; stroke-width: 1.0; stroke-dasharray: 7.0,7.0;"/><polygon fill="#A80036" points="1489.06,901.41,1485.8596,892.0956,1485.6548,897.7488,1480.0016,897.544,1489.06,901.41" style="stroke: #A80036; stroke-width: 1.0;"/><!--link javax.swing.JLabel to mastermind.views.graphics.TurnView--><path d="M191.677,757.739 C199.207,780.544 212.178,806.77 234,821 C332.926,885.507 1188.39,815.847 1296,864.5 C1313.44,872.386 1328.5,887.418 1339.62,901.248 " fill="none" id="javax.swing.JLabel-mastermind.views.graphics.TurnView" style="stroke: #A80036; stroke-width: 1.0;"/><polygon fill="none" points="184.858,759.348,186.194,738.201,198.337,755.565,184.858,759.348" style="stroke: #A80036; stroke-width: 1.0;"/><!--
@startuml

class  mastermind.views.graphics.Constraints{
~ Constraints(int, int, int, int)
}
java.awt.GridBagConstraints <|-down- mastermind.views.graphics.Constraints

class  mastermind.views.graphics.GameView{
- {static} GAME_OVER: String
- secretCombinationView: SecretCombinationView
- proposedCombinationsView: ProposedCombinationsView
- proposalCombinationView: ProposalCombinationView
~ GameView()
- clear(): void
~ start(Game): void
~ propose(Game): boolean
- proposeCombination(Game, int[]): int
- drawGameOver(Game): boolean
}
javax.swing.JFrame <|-down- mastermind.views.graphics.GameView
mastermind.views.graphics.GameView *-down-> mastermind.views.graphics.ProposedCombinationsView
mastermind.views.graphics.GameView *-down-> mastermind.views.graphics.SecretCombinationView
mastermind.views.graphics.GameView *-down-> mastermind.views.graphics.ProposalCombinationView
mastermind.views.graphics.GameView ..> mastermind.models.Game
mastermind.views.graphics.GameView ..> mastermind.views.graphics.ProposedCombinationView
mastermind.views.graphics.GameView ..> mastermind.views.graphics.Constraints

class  mastermind.views.graphics.GraphicsView{
- gameView: GameView
+ GraphicsView(Game)
# start(): void
# resume(): boolean
# propose(): boolean
}
mastermind.views.View <|-down- mastermind.views.graphics.GraphicsView
mastermind.views.graphics.GraphicsView *-down-> mastermind.views.graphics.GameView
mastermind.views.graphics.GraphicsView ..> mastermind.views.graphics.ResumeDialog

class  mastermind.views.graphics.ProposalCombinationView{
- {static} ACCEPT: String
- label: JLabel
- textField: JTextField
- button: JButton
- characters: String
~ ProposalCombinationView(JRootPane)
+ keyPressed(KeyEvent): void
+ keyReleased(KeyEvent): void
+ keyTyped(KeyEvent): void
~ resetCharacters(): void
~ getCharacters(): String
+ actionPerformed(ActionEvent): void
}
java.awt.event.KeyListener <|-down- mastermind.views.graphics.ProposalCombinationView
java.awt.event.ActionListener <|-down- mastermind.views.graphics.ProposalCombinationView
javax.swing.JPanel <|-down- mastermind.views.graphics.ProposalCombinationView
mastermind.views.graphics.ProposalCombinationView *-down-> javax.swing.JButton
mastermind.views.graphics.ProposalCombinationView *-down-> javax.swing.JTextField
mastermind.views.graphics.ProposalCombinationView *-down-> javax.swing.JLabel
mastermind.views.graphics.ProposalCombinationView ..> javax.swing.JRootPane
mastermind.views.graphics.ProposalCombinationView ..> java.awt.event.KeyEvent
mastermind.views.graphics.ProposalCombinationView ..> java.awt.event.ActionEvent
mastermind.views.graphics.ProposalCombinationView..> mastermind.views.graphics.Constraints

class  mastermind.views.graphics.ProposedCombinationsView{
~ ProposedCombinationsView()
~ add(Game): void
}
javax.swing.JPanel <|-down- mastermind.views.graphics.ProposedCombinationsView
mastermind.views.graphics.ProposedCombinationsView ..> mastermind.models.Game
mastermind.views.graphics.ProposedCombinationsView..> mastermind.views.graphics.Constraints
mastermind.views.graphics.ProposedCombinationsView ..> mastermind.views.graphics.TurnView
mastermind.views.graphics.ProposedCombinationsView..> mastermind.views.graphics.ProposedCombinationView
mastermind.views.graphics.ProposedCombinationsView..> mastermind.views.graphics.ResultView

class  mastermind.views.graphics.ProposedCombinationView{
~ {static} ERROR_CODE: int
~ ProposedCombinationView(int[])
~ ProposedCombinationView()
~ read(String): int[]
}
javax.swing.JLabel <|-down- mastermind.views.graphics.ProposedCombinationView
mastermind.views.graphics.ProposedCombinationView..> mastermind.views.graphics.ProposedCombinationView

class  mastermind.views.graphics.ResultView{
~ ResultView(int[])
}
javax.swing.JLabel <|-down- mastermind.views.graphics.ResultView

class  mastermind.views.graphics.ResumeDialog{
- resume: boolean
~ ResumeDialog()
~ isResumed(): boolean
}

class  mastermind.views.graphics.SecretCombinationView{
- {static} TITLE: String
- title: JLabel
- secretCombination: JLabel
~ SecretCombinationView(int)
}
javax.swing.JPanel <|-down- mastermind.views.graphics.SecretCombinationView
mastermind.views.graphics.SecretCombinationView *-down-> javax.swing.JLabel
mastermind.views.graphics.SecretCombinationView..> mastermind.views.graphics.Constraints

class  mastermind.views.graphics.TurnView{
~ TurnView(int)
}
javax.swing.JLabel <|-down- mastermind.views.graphics.TurnView

@enduml

PlantUML version 1.2019.05(Sat Apr 20 18:45:36 CEST 2019)
(GPL source distribution)
Java Runtime: OpenJDK Runtime Environment
JVM: OpenJDK 64-Bit Server VM
Java Version: 1.8.0_222-b10
Operating System: Windows 10
OS Version: 10.0
Default Encoding: windows-1252
Language: es
Country: ES
--></g></svg>