<?xml version="1.0" encoding="UTF-8" standalone="no"?><svg xmlns="http://www.w3.org/2000/svg" xmlns:xlink="http://www.w3.org/1999/xlink" contentScriptType="application/ecmascript" contentStyleType="text/css" height="1168px" preserveAspectRatio="none" style="width:2585px;height:1168px;" version="1.1" viewBox="0 0 2585 1168" width="2585px" zoomAndPan="magnify"><defs><filter height="300%" id="f1oy1u0vhqtafn" width="300%" x="-1" y="-1"><feGaussianBlur result="blurOut" stdDeviation="2.0"/><feColorMatrix in="blurOut" result="blurOut2" type="matrix" values="0 0 0 0 0 0 0 0 0 0 0 0 0 0 0 0 0 0 .4 0"/><feOffset dx="4.0" dy="4.0" in="blurOut2" result="blurOut3"/><feBlend in="SourceGraphic" in2="blurOut3" mode="normal"/></filter></defs><g><!--cluster mastermind.distributed--><polygon fill="#FFFFFF" filter="url(#f1oy1u0vhqtafn)" points="360,148,529,148,536,171.6094,1521,171.6094,1521,1032,360,1032,360,148" style="stroke: #000000; stroke-width: 1.5;"/><line style="stroke: #000000; stroke-width: 1.5;" x1="360" x2="536" y1="171.6094" y2="171.6094"/><text fill="#000000" font-family="sans-serif" font-size="14" font-weight="bold" lengthAdjust="spacingAndGlyphs" textLength="163" x="364" y="164.5332">mastermind.distributed</text><!--cluster mastermind.controllers.implementation--><polygon fill="#FFFFFF" filter="url(#f1oy1u0vhqtafn)" points="1545,328,1826,328,1833,351.6094,1836,351.6094,1836,428,1545,428,1545,328" style="stroke: #000000; stroke-width: 1.5;"/><line style="stroke: #000000; stroke-width: 1.5;" x1="1545" x2="1833" y1="351.6094" y2="351.6094"/><text fill="#000000" font-family="sans-serif" font-size="14" font-weight="bold" lengthAdjust="spacingAndGlyphs" textLength="275" x="1549" y="344.5332">mastermind.controllers.implementation</text><!--cluster mastermind.distributed.dispatchers--><polygon fill="#FFFFFF" filter="url(#f1oy1u0vhqtafn)" points="22,849,278,849,285,872.6094,288,872.6094,288,949,22,949,22,849" style="stroke: #000000; stroke-width: 1.5;"/><line style="stroke: #000000; stroke-width: 1.5;" x1="22" x2="285" y1="872.6094" y2="872.6094"/><text fill="#000000" font-family="sans-serif" font-size="14" font-weight="bold" lengthAdjust="spacingAndGlyphs" textLength="250" x="26" y="865.5332">mastermind.distributed.dispatchers</text><!--cluster mastermind.controllers--><polygon fill="#FFFFFF" filter="url(#f1oy1u0vhqtafn)" points="1860,328,2029,328,2036,351.6094,2563,351.6094,2563,428,1860,428,1860,328" style="stroke: #000000; stroke-width: 1.5;"/><line style="stroke: #000000; stroke-width: 1.5;" x1="1860" x2="2036" y1="351.6094" y2="351.6094"/><text fill="#000000" font-family="sans-serif" font-size="14" font-weight="bold" lengthAdjust="spacingAndGlyphs" textLength="163" x="1864" y="344.5332">mastermind.controllers</text><!--cluster mastermind.utils--><polygon fill="#FFFFFF" filter="url(#f1oy1u0vhqtafn)" points="772,1056,894,1056,901,1079.6094,904,1079.6094,904,1156,772,1156,772,1056" style="stroke: #000000; stroke-width: 1.5;"/><line style="stroke: #000000; stroke-width: 1.5;" x1="772" x2="901" y1="1079.6094" y2="1079.6094"/><text fill="#000000" font-family="sans-serif" font-size="14" font-weight="bold" lengthAdjust="spacingAndGlyphs" textLength="116" x="776" y="1072.5332">mastermind.utils</text><!--cluster mastermind--><polygon fill="#FFFFFF" filter="url(#f1oy1u0vhqtafn)" points="886,24,974,24,981,47.6094,1016,47.6094,1016,124,886,124,886,24" style="stroke: #000000; stroke-width: 1.5;"/><line style="stroke: #000000; stroke-width: 1.5;" x1="886" x2="981" y1="47.6094" y2="47.6094"/><text fill="#000000" font-family="sans-serif" font-size="14" font-weight="bold" lengthAdjust="spacingAndGlyphs" textLength="82" x="890" y="40.5332">mastermind</text><!--cluster mastermind.models--><polygon fill="#FFFFFF" filter="url(#f1oy1u0vhqtafn)" points="1092,1056,1235,1056,1242,1079.6094,1245,1079.6094,1245,1156,1092,1156,1092,1056" style="stroke: #000000; stroke-width: 1.5;"/><line style="stroke: #000000; stroke-width: 1.5;" x1="1092" x2="1242" y1="1079.6094" y2="1079.6094"/><text fill="#000000" font-family="sans-serif" font-size="14" font-weight="bold" lengthAdjust="spacingAndGlyphs" textLength="137" x="1096" y="1072.5332">mastermind.models</text><!--class mastermind.distributed.FrameType--><rect fill="#FEFECE" filter="url(#f1oy1u0vhqtafn)" height="407.7344" id="mastermind.distributed.FrameType" style="stroke: #A80036; stroke-width: 1.5;" width="204" x="1168" y="184"/><ellipse cx="1234.75" cy="200" fill="#ADD1B2" rx="11" ry="11" style="stroke: #A80036; stroke-width: 1.0;"/><path d="M1237.5156,195.875 Q1237.6719,195.6563 1237.8594,195.5469 Q1238.0469,195.4375 1238.2656,195.4375 Q1238.6406,195.4375 1238.875,195.6953 Q1239.1094,195.9531 1239.1094,196.5625 L1239.1094,198.0156 Q1239.1094,198.625 1238.875,198.8906 Q1238.6406,199.1563 1238.2656,199.1563 Q1237.9219,199.1563 1237.7188,198.9531 Q1237.5156,198.7656 1237.4063,198.25 Q1237.3594,197.8906 1237.1719,197.7031 Q1236.8438,197.3281 1236.2344,197.1094 Q1235.625,196.8906 1235,196.8906 Q1234.2344,196.8906 1233.6016,197.2188 Q1232.9688,197.5469 1232.4766,198.2969 Q1231.9844,199.0469 1231.9844,200.0781 L1231.9844,201.1719 Q1231.9844,202.4063 1232.875,203.2266 Q1233.7656,204.0469 1235.3594,204.0469 Q1236.2969,204.0469 1236.9531,203.7969 Q1237.3438,203.6406 1237.7656,203.2031 Q1238.0313,202.9375 1238.1797,202.8594 Q1238.3281,202.7813 1238.5313,202.7813 Q1238.8594,202.7813 1239.1172,203.0391 Q1239.375,203.2969 1239.375,203.6406 Q1239.375,203.9844 1239.0313,204.3906 Q1238.5313,204.9688 1237.7344,205.2969 Q1236.6563,205.75 1235.3594,205.75 Q1233.8438,205.75 1232.6406,205.125 Q1231.6563,204.625 1230.9688,203.5547 Q1230.2813,202.4844 1230.2813,201.2031 L1230.2813,200.0469 Q1230.2813,198.7188 1230.8984,197.5703 Q1231.5156,196.4219 1232.6094,195.8047 Q1233.7031,195.1875 1234.9375,195.1875 Q1235.6719,195.1875 1236.3203,195.3516 Q1236.9688,195.5156 1237.5156,195.875 Z "/><text fill="#000000" font-family="sans-serif" font-size="12" lengthAdjust="spacingAndGlyphs" textLength="62" x="1255.25" y="204.9102">FrameType</text><line style="stroke: #A80036; stroke-width: 1.5;" x1="1169" x2="1371" y1="216" y2="216"/><ellipse cx="1179" cy="228.418" fill="none" rx="3" ry="3" style="stroke: #038048; stroke-width: 1.0;"/><text fill="#000000" font-family="sans-serif" font-size="11" lengthAdjust="spacingAndGlyphs" text-decoration="underline" textLength="94" x="1188" y="231.4189">START: FrameType</text><ellipse cx="1179" cy="242.2539" fill="none" rx="3" ry="3" style="stroke: #038048; stroke-width: 1.0;"/><text fill="#000000" font-family="sans-serif" font-size="11" lengthAdjust="spacingAndGlyphs" text-decoration="underline" textLength="93" x="1188" y="245.2549">STATE: FrameType</text><ellipse cx="1179" cy="256.0898" fill="none" rx="3" ry="3" style="stroke: #038048; stroke-width: 1.0;"/><text fill="#000000" font-family="sans-serif" font-size="11" lengthAdjust="spacingAndGlyphs" text-decoration="underline" textLength="89" x="1188" y="259.0908">UNDO: FrameType</text><ellipse cx="1179" cy="269.9258" fill="none" rx="3" ry="3" style="stroke: #038048; stroke-width: 1.0;"/><text fill="#000000" font-family="sans-serif" font-size="11" lengthAdjust="spacingAndGlyphs" text-decoration="underline" textLength="88" x="1188" y="272.9268">REDO: FrameType</text><ellipse cx="1179" cy="283.7617" fill="none" rx="3" ry="3" style="stroke: #038048; stroke-width: 1.0;"/><text fill="#000000" font-family="sans-serif" font-size="11" lengthAdjust="spacingAndGlyphs" text-decoration="underline" textLength="116" x="1188" y="286.7627">UNDOABLE: FrameType</text><ellipse cx="1179" cy="297.5977" fill="none" rx="3" ry="3" style="stroke: #038048; stroke-width: 1.0;"/><text fill="#000000" font-family="sans-serif" font-size="11" lengthAdjust="spacingAndGlyphs" text-decoration="underline" textLength="115" x="1188" y="300.5986">REDOABLE: FrameType</text><ellipse cx="1179" cy="311.4336" fill="none" rx="3" ry="3" style="stroke: #038048; stroke-width: 1.0;"/><text fill="#000000" font-family="sans-serif" font-size="11" lengthAdjust="spacingAndGlyphs" text-decoration="underline" textLength="99" x="1188" y="314.4346">WINNER: FrameType</text><ellipse cx="1179" cy="325.2695" fill="none" rx="3" ry="3" style="stroke: #038048; stroke-width: 1.0;"/><text fill="#000000" font-family="sans-serif" font-size="11" lengthAdjust="spacingAndGlyphs" text-decoration="underline" textLength="102" x="1188" y="328.2705">LOOSER: FrameType</text><ellipse cx="1179" cy="339.1055" fill="none" rx="3" ry="3" style="stroke: #038048; stroke-width: 1.0;"/><text fill="#000000" font-family="sans-serif" font-size="11" lengthAdjust="spacingAndGlyphs" text-decoration="underline" textLength="87" x="1188" y="342.1064">TURN: FrameType</text><ellipse cx="1179" cy="352.9414" fill="none" rx="3" ry="3" style="stroke: #038048; stroke-width: 1.0;"/><text fill="#000000" font-family="sans-serif" font-size="11" lengthAdjust="spacingAndGlyphs" text-decoration="underline" textLength="115" x="1188" y="355.9424">ALLCODES: FrameType</text><ellipse cx="1179" cy="366.7773" fill="none" rx="3" ry="3" style="stroke: #038048; stroke-width: 1.0;"/><text fill="#000000" font-family="sans-serif" font-size="11" lengthAdjust="spacingAndGlyphs" text-decoration="underline" textLength="178" x="1188" y="369.7783">PROPOSECOMBINATION: FrameType</text><ellipse cx="1179" cy="380.6133" fill="none" rx="3" ry="3" style="stroke: #038048; stroke-width: 1.0;"/><text fill="#000000" font-family="sans-serif" font-size="11" lengthAdjust="spacingAndGlyphs" text-decoration="underline" textLength="92" x="1188" y="383.6143">WIDTH: FrameType</text><ellipse cx="1179" cy="394.4492" fill="none" rx="3" ry="3" style="stroke: #038048; stroke-width: 1.0;"/><text fill="#000000" font-family="sans-serif" font-size="11" lengthAdjust="spacingAndGlyphs" text-decoration="underline" textLength="101" x="1188" y="397.4502">RESUME: FrameType</text><ellipse cx="1179" cy="408.2852" fill="none" rx="3" ry="3" style="stroke: #038048; stroke-width: 1.0;"/><text fill="#000000" font-family="sans-serif" font-size="11" lengthAdjust="spacingAndGlyphs" text-decoration="underline" textLength="95" x="1188" y="411.2861">EXISTS: FrameType</text><ellipse cx="1179" cy="422.1211" fill="none" rx="3" ry="3" style="stroke: #038048; stroke-width: 1.0;"/><text fill="#000000" font-family="sans-serif" font-size="11" lengthAdjust="spacingAndGlyphs" text-decoration="underline" textLength="117" x="1188" y="425.1221">HAS_NAME: FrameType</text><ellipse cx="1179" cy="435.957" fill="none" rx="3" ry="3" style="stroke: #038048; stroke-width: 1.0;"/><text fill="#000000" font-family="sans-serif" font-size="11" lengthAdjust="spacingAndGlyphs" text-decoration="underline" textLength="89" x="1188" y="438.958">SAVE: FrameType</text><ellipse cx="1179" cy="449.793" fill="none" rx="3" ry="3" style="stroke: #038048; stroke-width: 1.0;"/><text fill="#000000" font-family="sans-serif" font-size="11" lengthAdjust="spacingAndGlyphs" text-decoration="underline" textLength="86" x="1188" y="452.7939">NEXT: FrameType</text><ellipse cx="1179" cy="463.6289" fill="none" rx="3" ry="3" style="stroke: #038048; stroke-width: 1.0;"/><text fill="#000000" font-family="sans-serif" font-size="11" lengthAdjust="spacingAndGlyphs" text-decoration="underline" textLength="94" x="1188" y="466.6299">CLOSE: FrameType</text><ellipse cx="1179" cy="477.4648" fill="none" rx="3" ry="3" style="stroke: #038048; stroke-width: 1.0;"/><text fill="#000000" font-family="sans-serif" font-size="11" lengthAdjust="spacingAndGlyphs" text-decoration="underline" textLength="129" x="1188" y="480.4658">START_NAME: FrameType</text><ellipse cx="1179" cy="491.3008" fill="none" rx="3" ry="3" style="stroke: #038048; stroke-width: 1.0;"/><text fill="#000000" font-family="sans-serif" font-size="11" lengthAdjust="spacingAndGlyphs" text-decoration="underline" textLength="93" x="1188" y="494.3018">TITLES: FrameType</text><ellipse cx="1179" cy="505.1367" fill="none" rx="3" ry="3" style="stroke: #038048; stroke-width: 1.0;"/><text fill="#000000" font-family="sans-serif" font-size="11" lengthAdjust="spacingAndGlyphs" text-decoration="underline" textLength="112" x="1188" y="508.1377">GET_TITLE: FrameType</text><ellipse cx="1179" cy="518.9727" fill="none" rx="3" ry="3" style="stroke: #038048; stroke-width: 1.0;"/><text fill="#000000" font-family="sans-serif" font-size="11" lengthAdjust="spacingAndGlyphs" text-decoration="underline" textLength="111" x="1188" y="521.9736">SET_TITLE: FrameType</text><ellipse cx="1179" cy="532.8086" fill="none" rx="3" ry="3" style="stroke: #038048; stroke-width: 1.0;"/><text fill="#000000" font-family="sans-serif" font-size="11" lengthAdjust="spacingAndGlyphs" text-decoration="underline" textLength="131" x="1188" y="535.8096">SAVE_NAMED: FrameType</text><line style="stroke: #A80036; stroke-width: 1.5;" x1="1169" x2="1371" y1="542.2266" y2="542.2266"/><rect fill="#F24D5C" height="6" style="stroke: #C82930; stroke-width: 1.0;" width="6" x="1176" y="551.6445"/><text fill="#000000" font-family="sans-serif" font-size="11" lengthAdjust="spacingAndGlyphs" textLength="62" x="1188" y="557.6455">FrameType()</text><ellipse cx="1179" cy="568.4805" fill="#84BE84" rx="3" ry="3" style="stroke: #038048; stroke-width: 1.0;"/><text fill="#000000" font-family="sans-serif" font-size="11" lengthAdjust="spacingAndGlyphs" text-decoration="underline" textLength="134" x="1188" y="571.4814">valueOf(String): FrameType</text><ellipse cx="1179" cy="582.3164" fill="#84BE84" rx="3" ry="3" style="stroke: #038048; stroke-width: 1.0;"/><text fill="#000000" font-family="sans-serif" font-size="11" lengthAdjust="spacingAndGlyphs" text-decoration="underline" textLength="128" x="1188" y="585.3174">parser(String): FrameType</text><!--class mastermind.distributed.LogicImplementationServer--><rect fill="#FEFECE" filter="url(#f1oy1u0vhqtafn)" height="75.6719" id="mastermind.distributed.LogicImplementationServer" style="stroke: #A80036; stroke-width: 1.5;" width="247" x="376.5" y="659"/><ellipse cx="420.3" cy="675" fill="#ADD1B2" rx="11" ry="11" style="stroke: #A80036; stroke-width: 1.0;"/><path d="M423.0656,670.875 Q423.2219,670.6563 423.4094,670.5469 Q423.5969,670.4375 423.8156,670.4375 Q424.1906,670.4375 424.425,670.6953 Q424.6594,670.9531 424.6594,671.5625 L424.6594,673.0156 Q424.6594,673.625 424.425,673.8906 Q424.1906,674.1563 423.8156,674.1563 Q423.4719,674.1563 423.2688,673.9531 Q423.0656,673.7656 422.9563,673.25 Q422.9094,672.8906 422.7219,672.7031 Q422.3938,672.3281 421.7844,672.1094 Q421.175,671.8906 420.55,671.8906 Q419.7844,671.8906 419.1516,672.2188 Q418.5188,672.5469 418.0266,673.2969 Q417.5344,674.0469 417.5344,675.0781 L417.5344,676.1719 Q417.5344,677.4063 418.425,678.2266 Q419.3156,679.0469 420.9094,679.0469 Q421.8469,679.0469 422.5031,678.7969 Q422.8938,678.6406 423.3156,678.2031 Q423.5813,677.9375 423.7297,677.8594 Q423.8781,677.7813 424.0813,677.7813 Q424.4094,677.7813 424.6672,678.0391 Q424.925,678.2969 424.925,678.6406 Q424.925,678.9844 424.5813,679.3906 Q424.0813,679.9688 423.2844,680.2969 Q422.2063,680.75 420.9094,680.75 Q419.3938,680.75 418.1906,680.125 Q417.2063,679.625 416.5188,678.5547 Q415.8313,677.4844 415.8313,676.2031 L415.8313,675.0469 Q415.8313,673.7188 416.4484,672.5703 Q417.0656,671.4219 418.1594,670.8047 Q419.2531,670.1875 420.4875,670.1875 Q421.2219,670.1875 421.8703,670.3516 Q422.5188,670.5156 423.0656,670.875 Z "/><text fill="#000000" font-family="sans-serif" font-size="12" lengthAdjust="spacingAndGlyphs" textLength="151" x="440.7" y="679.9102">LogicImplementationServer</text><line style="stroke: #A80036; stroke-width: 1.5;" x1="377.5" x2="622.5" y1="691" y2="691"/><line style="stroke: #A80036; stroke-width: 1.5;" x1="377.5" x2="622.5" y1="699" y2="699"/><ellipse cx="387.5" cy="711.418" fill="#84BE84" rx="3" ry="3" style="stroke: #038048; stroke-width: 1.0;"/><text fill="#000000" font-family="sans-serif" font-size="11" lengthAdjust="spacingAndGlyphs" textLength="137" x="396.5" y="714.4189">LogicImplementationServer()</text><ellipse cx="387.5" cy="725.2539" fill="#84BE84" rx="3" ry="3" style="stroke: #038048; stroke-width: 1.0;"/><text fill="#000000" font-family="sans-serif" font-size="11" lengthAdjust="spacingAndGlyphs" textLength="221" x="396.5" y="728.2549">createDispatchers(DispatcherPrototype): void</text><!--class mastermind.distributed.LogicProxy--><rect fill="#FEFECE" filter="url(#f1oy1u0vhqtafn)" height="89.5078" id="mastermind.distributed.LogicProxy" style="stroke: #A80036; stroke-width: 1.5;" width="91" x="905.5" y="652"/><ellipse cx="920.5" cy="668" fill="#ADD1B2" rx="11" ry="11" style="stroke: #A80036; stroke-width: 1.0;"/><path d="M923.2656,663.875 Q923.4219,663.6563 923.6094,663.5469 Q923.7969,663.4375 924.0156,663.4375 Q924.3906,663.4375 924.625,663.6953 Q924.8594,663.9531 924.8594,664.5625 L924.8594,666.0156 Q924.8594,666.625 924.625,666.8906 Q924.3906,667.1563 924.0156,667.1563 Q923.6719,667.1563 923.4688,666.9531 Q923.2656,666.7656 923.1563,666.25 Q923.1094,665.8906 922.9219,665.7031 Q922.5938,665.3281 921.9844,665.1094 Q921.375,664.8906 920.75,664.8906 Q919.9844,664.8906 919.3516,665.2188 Q918.7188,665.5469 918.2266,666.2969 Q917.7344,667.0469 917.7344,668.0781 L917.7344,669.1719 Q917.7344,670.4063 918.625,671.2266 Q919.5156,672.0469 921.1094,672.0469 Q922.0469,672.0469 922.7031,671.7969 Q923.0938,671.6406 923.5156,671.2031 Q923.7813,670.9375 923.9297,670.8594 Q924.0781,670.7813 924.2813,670.7813 Q924.6094,670.7813 924.8672,671.0391 Q925.125,671.2969 925.125,671.6406 Q925.125,671.9844 924.7813,672.3906 Q924.2813,672.9688 923.4844,673.2969 Q922.4063,673.75 921.1094,673.75 Q919.5938,673.75 918.3906,673.125 Q917.4063,672.625 916.7188,671.5547 Q916.0313,670.4844 916.0313,669.2031 L916.0313,668.0469 Q916.0313,666.7188 916.6484,665.5703 Q917.2656,664.4219 918.3594,663.8047 Q919.4531,663.1875 920.6875,663.1875 Q921.4219,663.1875 922.0703,663.3516 Q922.7188,663.5156 923.2656,663.875 Z "/><text fill="#000000" font-family="sans-serif" font-size="12" lengthAdjust="spacingAndGlyphs" textLength="59" x="934.5" y="672.9102">LogicProxy</text><line style="stroke: #A80036; stroke-width: 1.5;" x1="906.5" x2="995.5" y1="684" y2="684"/><rect fill="none" height="6" style="stroke: #C82930; stroke-width: 1.0;" width="6" x="913.5" y="693.418"/><text fill="#000000" font-family="sans-serif" font-size="11" lengthAdjust="spacingAndGlyphs" textLength="56" x="925.5" y="699.4189">tcpip: TCPIP</text><line style="stroke: #A80036; stroke-width: 1.5;" x1="906.5" x2="995.5" y1="705.8359" y2="705.8359"/><ellipse cx="916.5" cy="718.2539" fill="#84BE84" rx="3" ry="3" style="stroke: #038048; stroke-width: 1.0;"/><text fill="#000000" font-family="sans-serif" font-size="11" lengthAdjust="spacingAndGlyphs" textLength="62" x="925.5" y="721.2549">LogicProxy()</text><ellipse cx="916.5" cy="732.0898" fill="#84BE84" rx="3" ry="3" style="stroke: #038048; stroke-width: 1.0;"/><text fill="#000000" font-family="sans-serif" font-size="11" lengthAdjust="spacingAndGlyphs" textLength="60" x="925.5" y="735.0908">close(): void</text><!--class mastermind.distributed.SessionProxy--><rect fill="#FEFECE" filter="url(#f1oy1u0vhqtafn)" height="131.0156" id="mastermind.distributed.SessionProxy" style="stroke: #A80036; stroke-width: 1.5;" width="161" x="870.5" y="843.5"/><ellipse cx="909.8" cy="859.5" fill="#ADD1B2" rx="11" ry="11" style="stroke: #A80036; stroke-width: 1.0;"/><path d="M912.5656,855.375 Q912.7219,855.1563 912.9094,855.0469 Q913.0969,854.9375 913.3156,854.9375 Q913.6906,854.9375 913.925,855.1953 Q914.1594,855.4531 914.1594,856.0625 L914.1594,857.5156 Q914.1594,858.125 913.925,858.3906 Q913.6906,858.6563 913.3156,858.6563 Q912.9719,858.6563 912.7688,858.4531 Q912.5656,858.2656 912.4563,857.75 Q912.4094,857.3906 912.2219,857.2031 Q911.8938,856.8281 911.2844,856.6094 Q910.675,856.3906 910.05,856.3906 Q909.2844,856.3906 908.6516,856.7188 Q908.0188,857.0469 907.5266,857.7969 Q907.0344,858.5469 907.0344,859.5781 L907.0344,860.6719 Q907.0344,861.9063 907.925,862.7266 Q908.8156,863.5469 910.4094,863.5469 Q911.3469,863.5469 912.0031,863.2969 Q912.3938,863.1406 912.8156,862.7031 Q913.0813,862.4375 913.2297,862.3594 Q913.3781,862.2813 913.5813,862.2813 Q913.9094,862.2813 914.1672,862.5391 Q914.425,862.7969 914.425,863.1406 Q914.425,863.4844 914.0813,863.8906 Q913.5813,864.4688 912.7844,864.7969 Q911.7063,865.25 910.4094,865.25 Q908.8938,865.25 907.6906,864.625 Q906.7063,864.125 906.0188,863.0547 Q905.3313,861.9844 905.3313,860.7031 L905.3313,859.5469 Q905.3313,858.2188 905.9484,857.0703 Q906.5656,855.9219 907.6594,855.3047 Q908.7531,854.6875 909.9875,854.6875 Q910.7219,854.6875 911.3703,854.8516 Q912.0188,855.0156 912.5656,855.375 Z "/><text fill="#000000" font-family="sans-serif" font-size="12" lengthAdjust="spacingAndGlyphs" textLength="75" x="929.2" y="864.4102">SessionProxy</text><line style="stroke: #A80036; stroke-width: 1.5;" x1="871.5" x2="1030.5" y1="875.5" y2="875.5"/><rect fill="none" height="6" style="stroke: #C82930; stroke-width: 1.0;" width="6" x="878.5" y="884.918"/><text fill="#000000" font-family="sans-serif" font-size="11" lengthAdjust="spacingAndGlyphs" textLength="56" x="890.5" y="890.9189">tcpip: TCPIP</text><line style="stroke: #A80036; stroke-width: 1.5;" x1="871.5" x2="1030.5" y1="897.3359" y2="897.3359"/><polygon fill="#4177AF" points="881.5,905.7539,877.5,911.7539,885.5,911.7539" style="stroke: #1963A0; stroke-width: 1.0;"/><text fill="#000000" font-family="sans-serif" font-size="11" lengthAdjust="spacingAndGlyphs" textLength="102" x="890.5" y="912.7549">SessionProxy(TCPIP)</text><ellipse cx="881.5" cy="923.5898" fill="#84BE84" rx="3" ry="3" style="stroke: #038048; stroke-width: 1.0;"/><text fill="#000000" font-family="sans-serif" font-size="11" lengthAdjust="spacingAndGlyphs" textLength="84" x="890.5" y="926.5908">getName(): String</text><ellipse cx="881.5" cy="937.4258" fill="#84BE84" rx="3" ry="3" style="stroke: #038048; stroke-width: 1.0;"/><text fill="#000000" font-family="sans-serif" font-size="11" lengthAdjust="spacingAndGlyphs" textLength="104" x="890.5" y="940.4268">setName(String): void</text><ellipse cx="881.5" cy="951.2617" fill="#84BE84" rx="3" ry="3" style="stroke: #038048; stroke-width: 1.0;"/><text fill="#000000" font-family="sans-serif" font-size="11" lengthAdjust="spacingAndGlyphs" textLength="67" x="890.5" y="954.2627">getWidth(): int</text><ellipse cx="881.5" cy="965.0977" fill="#84BE84" rx="3" ry="3" style="stroke: #038048; stroke-width: 1.0;"/><text fill="#000000" font-family="sans-serif" font-size="11" lengthAdjust="spacingAndGlyphs" textLength="135" x="890.5" y="968.0986">getValueState(): StateValue</text><!--class mastermind.distributed.StartControllerProxy--><rect fill="#FEFECE" filter="url(#f1oy1u0vhqtafn)" height="172.5234" id="mastermind.distributed.StartControllerProxy" style="stroke: #A80036; stroke-width: 1.5;" width="203" x="1066.5" y="822.5"/><ellipse cx="1109.85" cy="838.5" fill="#ADD1B2" rx="11" ry="11" style="stroke: #A80036; stroke-width: 1.0;"/><path d="M1112.6156,834.375 Q1112.7719,834.1563 1112.9594,834.0469 Q1113.1469,833.9375 1113.3656,833.9375 Q1113.7406,833.9375 1113.975,834.1953 Q1114.2094,834.4531 1114.2094,835.0625 L1114.2094,836.5156 Q1114.2094,837.125 1113.975,837.3906 Q1113.7406,837.6563 1113.3656,837.6563 Q1113.0219,837.6563 1112.8188,837.4531 Q1112.6156,837.2656 1112.5063,836.75 Q1112.4594,836.3906 1112.2719,836.2031 Q1111.9438,835.8281 1111.3344,835.6094 Q1110.725,835.3906 1110.1,835.3906 Q1109.3344,835.3906 1108.7016,835.7188 Q1108.0688,836.0469 1107.5766,836.7969 Q1107.0844,837.5469 1107.0844,838.5781 L1107.0844,839.6719 Q1107.0844,840.9063 1107.975,841.7266 Q1108.8656,842.5469 1110.4594,842.5469 Q1111.3969,842.5469 1112.0531,842.2969 Q1112.4438,842.1406 1112.8656,841.7031 Q1113.1313,841.4375 1113.2797,841.3594 Q1113.4281,841.2813 1113.6313,841.2813 Q1113.9594,841.2813 1114.2172,841.5391 Q1114.475,841.7969 1114.475,842.1406 Q1114.475,842.4844 1114.1313,842.8906 Q1113.6313,843.4688 1112.8344,843.7969 Q1111.7563,844.25 1110.4594,844.25 Q1108.9438,844.25 1107.7406,843.625 Q1106.7563,843.125 1106.0688,842.0547 Q1105.3813,840.9844 1105.3813,839.7031 L1105.3813,838.5469 Q1105.3813,837.2188 1105.9984,836.0703 Q1106.6156,834.9219 1107.7094,834.3047 Q1108.8031,833.6875 1110.0375,833.6875 Q1110.7719,833.6875 1111.4203,833.8516 Q1112.0688,834.0156 1112.6156,834.375 Z "/><text fill="#000000" font-family="sans-serif" font-size="12" lengthAdjust="spacingAndGlyphs" textLength="108" x="1130.15" y="843.4102">StartControllerProxy</text><line style="stroke: #A80036; stroke-width: 1.5;" x1="1067.5" x2="1268.5" y1="854.5" y2="854.5"/><rect fill="none" height="6" style="stroke: #C82930; stroke-width: 1.0;" width="6" x="1074.5" y="863.918"/><text fill="#000000" font-family="sans-serif" font-size="11" lengthAdjust="spacingAndGlyphs" textLength="56" x="1086.5" y="869.9189">tcpip: TCPIP</text><line style="stroke: #A80036; stroke-width: 1.5;" x1="1067.5" x2="1268.5" y1="876.3359" y2="876.3359"/><polygon fill="#4177AF" points="1077.5,884.7539,1073.5,890.7539,1081.5,890.7539" style="stroke: #1963A0; stroke-width: 1.0;"/><text fill="#000000" font-family="sans-serif" font-size="11" lengthAdjust="spacingAndGlyphs" textLength="177" x="1086.5" y="891.7549">StartControllerProxy(Session, TCPIP)</text><ellipse cx="1077.5" cy="902.5898" fill="#84BE84" rx="3" ry="3" style="stroke: #038048; stroke-width: 1.0;"/><text fill="#000000" font-family="sans-serif" font-size="11" lengthAdjust="spacingAndGlyphs" textLength="84" x="1086.5" y="905.5908">start(String): void</text><ellipse cx="1077.5" cy="916.4258" fill="#84BE84" rx="3" ry="3" style="stroke: #038048; stroke-width: 1.0;"/><text fill="#000000" font-family="sans-serif" font-size="11" lengthAdjust="spacingAndGlyphs" textLength="56" x="1086.5" y="919.4268">start(): void</text><ellipse cx="1077.5" cy="930.2617" fill="#84BE84" rx="3" ry="3" style="stroke: #038048; stroke-width: 1.0;"/><text fill="#000000" font-family="sans-serif" font-size="11" lengthAdjust="spacingAndGlyphs" textLength="130" x="1086.5" y="933.2627">getGamesNames(): String[]</text><ellipse cx="1077.5" cy="944.0977" fill="#84BE84" rx="3" ry="3" style="stroke: #038048; stroke-width: 1.0;"/><text fill="#000000" font-family="sans-serif" font-size="11" lengthAdjust="spacingAndGlyphs" textLength="101" x="1086.5" y="947.0986">getAllCodes(): int[][][]</text><ellipse cx="1077.5" cy="957.9336" fill="#84BE84" rx="3" ry="3" style="stroke: #038048; stroke-width: 1.0;"/><text fill="#000000" font-family="sans-serif" font-size="11" lengthAdjust="spacingAndGlyphs" textLength="94" x="1086.5" y="960.9346">isWinner(): boolean</text><ellipse cx="1077.5" cy="971.7695" fill="#84BE84" rx="3" ry="3" style="stroke: #038048; stroke-width: 1.0;"/><text fill="#000000" font-family="sans-serif" font-size="11" lengthAdjust="spacingAndGlyphs" textLength="94" x="1086.5" y="974.7705">isLooser(): boolean</text><ellipse cx="1077.5" cy="985.6055" fill="#84BE84" rx="3" ry="3" style="stroke: #038048; stroke-width: 1.0;"/><text fill="#000000" font-family="sans-serif" font-size="11" lengthAdjust="spacingAndGlyphs" textLength="62" x="1086.5" y="988.6064">getTurn(): int</text><!--class mastermind.distributed.PlayControllerProxy--><rect fill="#FEFECE" filter="url(#f1oy1u0vhqtafn)" height="214.0313" id="mastermind.distributed.PlayControllerProxy" style="stroke: #A80036; stroke-width: 1.5;" width="200" x="1305" y="802"/><ellipse cx="1347.9" cy="818" fill="#ADD1B2" rx="11" ry="11" style="stroke: #A80036; stroke-width: 1.0;"/><path d="M1350.6656,813.875 Q1350.8219,813.6563 1351.0094,813.5469 Q1351.1969,813.4375 1351.4156,813.4375 Q1351.7906,813.4375 1352.025,813.6953 Q1352.2594,813.9531 1352.2594,814.5625 L1352.2594,816.0156 Q1352.2594,816.625 1352.025,816.8906 Q1351.7906,817.1563 1351.4156,817.1563 Q1351.0719,817.1563 1350.8688,816.9531 Q1350.6656,816.7656 1350.5563,816.25 Q1350.5094,815.8906 1350.3219,815.7031 Q1349.9938,815.3281 1349.3844,815.1094 Q1348.775,814.8906 1348.15,814.8906 Q1347.3844,814.8906 1346.7516,815.2188 Q1346.1188,815.5469 1345.6266,816.2969 Q1345.1344,817.0469 1345.1344,818.0781 L1345.1344,819.1719 Q1345.1344,820.4063 1346.025,821.2266 Q1346.9156,822.0469 1348.5094,822.0469 Q1349.4469,822.0469 1350.1031,821.7969 Q1350.4938,821.6406 1350.9156,821.2031 Q1351.1813,820.9375 1351.3297,820.8594 Q1351.4781,820.7813 1351.6813,820.7813 Q1352.0094,820.7813 1352.2672,821.0391 Q1352.525,821.2969 1352.525,821.6406 Q1352.525,821.9844 1352.1813,822.3906 Q1351.6813,822.9688 1350.8844,823.2969 Q1349.8063,823.75 1348.5094,823.75 Q1346.9938,823.75 1345.7906,823.125 Q1344.8063,822.625 1344.1188,821.5547 Q1343.4313,820.4844 1343.4313,819.2031 L1343.4313,818.0469 Q1343.4313,816.7188 1344.0484,815.5703 Q1344.6656,814.4219 1345.7594,813.8047 Q1346.8531,813.1875 1348.0875,813.1875 Q1348.8219,813.1875 1349.4703,813.3516 Q1350.1188,813.5156 1350.6656,813.875 Z "/><text fill="#000000" font-family="sans-serif" font-size="12" lengthAdjust="spacingAndGlyphs" textLength="106" x="1368.1" y="822.9102">PlayControllerProxy</text><line style="stroke: #A80036; stroke-width: 1.5;" x1="1306" x2="1504" y1="834" y2="834"/><rect fill="none" height="6" style="stroke: #C82930; stroke-width: 1.0;" width="6" x="1313" y="843.418"/><text fill="#000000" font-family="sans-serif" font-size="11" lengthAdjust="spacingAndGlyphs" textLength="56" x="1325" y="849.4189">tcpip: TCPIP</text><line style="stroke: #A80036; stroke-width: 1.5;" x1="1306" x2="1504" y1="855.8359" y2="855.8359"/><polygon fill="#4177AF" points="1316,864.2539,1312,870.2539,1320,870.2539" style="stroke: #1963A0; stroke-width: 1.0;"/><text fill="#000000" font-family="sans-serif" font-size="11" lengthAdjust="spacingAndGlyphs" textLength="174" x="1325" y="871.2549">PlayControllerProxy(TCPIP, Session)</text><ellipse cx="1316" cy="882.0898" fill="#84BE84" rx="3" ry="3" style="stroke: #038048; stroke-width: 1.0;"/><text fill="#000000" font-family="sans-serif" font-size="11" lengthAdjust="spacingAndGlyphs" textLength="55" x="1325" y="885.0908">next(): void</text><ellipse cx="1316" cy="895.9258" fill="#84BE84" rx="3" ry="3" style="stroke: #038048; stroke-width: 1.0;"/><text fill="#000000" font-family="sans-serif" font-size="11" lengthAdjust="spacingAndGlyphs" textLength="140" x="1325" y="898.9268">proposeCombination(int[]): int</text><ellipse cx="1316" cy="909.7617" fill="#84BE84" rx="3" ry="3" style="stroke: #038048; stroke-width: 1.0;"/><text fill="#000000" font-family="sans-serif" font-size="11" lengthAdjust="spacingAndGlyphs" textLength="56" x="1325" y="912.7627">redo(): void</text><ellipse cx="1316" cy="923.5977" fill="#84BE84" rx="3" ry="3" style="stroke: #038048; stroke-width: 1.0;"/><text fill="#000000" font-family="sans-serif" font-size="11" lengthAdjust="spacingAndGlyphs" textLength="101" x="1325" y="926.5986">getAllCodes(): int[][][]</text><ellipse cx="1316" cy="937.4336" fill="#84BE84" rx="3" ry="3" style="stroke: #038048; stroke-width: 1.0;"/><text fill="#000000" font-family="sans-serif" font-size="11" lengthAdjust="spacingAndGlyphs" textLength="96" x="1325" y="940.4346">undoable(): boolean</text><ellipse cx="1316" cy="951.2695" fill="#84BE84" rx="3" ry="3" style="stroke: #038048; stroke-width: 1.0;"/><text fill="#000000" font-family="sans-serif" font-size="11" lengthAdjust="spacingAndGlyphs" textLength="94" x="1325" y="954.2705">isWinner(): boolean</text><ellipse cx="1316" cy="965.1055" fill="#84BE84" rx="3" ry="3" style="stroke: #038048; stroke-width: 1.0;"/><text fill="#000000" font-family="sans-serif" font-size="11" lengthAdjust="spacingAndGlyphs" textLength="94" x="1325" y="968.1064">redoable(): boolean</text><ellipse cx="1316" cy="978.9414" fill="#84BE84" rx="3" ry="3" style="stroke: #038048; stroke-width: 1.0;"/><text fill="#000000" font-family="sans-serif" font-size="11" lengthAdjust="spacingAndGlyphs" textLength="94" x="1325" y="981.9424">isLooser(): boolean</text><ellipse cx="1316" cy="992.7773" fill="#84BE84" rx="3" ry="3" style="stroke: #038048; stroke-width: 1.0;"/><text fill="#000000" font-family="sans-serif" font-size="11" lengthAdjust="spacingAndGlyphs" textLength="62" x="1325" y="995.7783">getTurn(): int</text><ellipse cx="1316" cy="1006.6133" fill="#84BE84" rx="3" ry="3" style="stroke: #038048; stroke-width: 1.0;"/><text fill="#000000" font-family="sans-serif" font-size="11" lengthAdjust="spacingAndGlyphs" textLength="58" x="1325" y="1009.6143">undo(): void</text><!--class mastermind.distributed.SaveControllerProxy--><rect fill="#FEFECE" filter="url(#f1oy1u0vhqtafn)" height="144.8516" id="mastermind.distributed.SaveControllerProxy" style="stroke: #A80036; stroke-width: 1.5;" width="205" x="376.5" y="836.5"/><ellipse cx="419.85" cy="852.5" fill="#ADD1B2" rx="11" ry="11" style="stroke: #A80036; stroke-width: 1.0;"/><path d="M422.6156,848.375 Q422.7719,848.1563 422.9594,848.0469 Q423.1469,847.9375 423.3656,847.9375 Q423.7406,847.9375 423.975,848.1953 Q424.2094,848.4531 424.2094,849.0625 L424.2094,850.5156 Q424.2094,851.125 423.975,851.3906 Q423.7406,851.6563 423.3656,851.6563 Q423.0219,851.6563 422.8188,851.4531 Q422.6156,851.2656 422.5063,850.75 Q422.4594,850.3906 422.2719,850.2031 Q421.9438,849.8281 421.3344,849.6094 Q420.725,849.3906 420.1,849.3906 Q419.3344,849.3906 418.7016,849.7188 Q418.0688,850.0469 417.5766,850.7969 Q417.0844,851.5469 417.0844,852.5781 L417.0844,853.6719 Q417.0844,854.9063 417.975,855.7266 Q418.8656,856.5469 420.4594,856.5469 Q421.3969,856.5469 422.0531,856.2969 Q422.4438,856.1406 422.8656,855.7031 Q423.1313,855.4375 423.2797,855.3594 Q423.4281,855.2813 423.6313,855.2813 Q423.9594,855.2813 424.2172,855.5391 Q424.475,855.7969 424.475,856.1406 Q424.475,856.4844 424.1313,856.8906 Q423.6313,857.4688 422.8344,857.7969 Q421.7563,858.25 420.4594,858.25 Q418.9438,858.25 417.7406,857.625 Q416.7563,857.125 416.0688,856.0547 Q415.3813,854.9844 415.3813,853.7031 L415.3813,852.5469 Q415.3813,851.2188 415.9984,850.0703 Q416.6156,848.9219 417.7094,848.3047 Q418.8031,847.6875 420.0375,847.6875 Q420.7719,847.6875 421.4203,847.8516 Q422.0688,848.0156 422.6156,848.375 Z "/><text fill="#000000" font-family="sans-serif" font-size="12" lengthAdjust="spacingAndGlyphs" textLength="110" x="440.15" y="857.4102">SaveControllerProxy</text><line style="stroke: #A80036; stroke-width: 1.5;" x1="377.5" x2="580.5" y1="868.5" y2="868.5"/><rect fill="none" height="6" style="stroke: #C82930; stroke-width: 1.0;" width="6" x="384.5" y="877.918"/><text fill="#000000" font-family="sans-serif" font-size="11" lengthAdjust="spacingAndGlyphs" textLength="56" x="396.5" y="883.9189">tcpip: TCPIP</text><line style="stroke: #A80036; stroke-width: 1.5;" x1="377.5" x2="580.5" y1="890.3359" y2="890.3359"/><polygon fill="#4177AF" points="387.5,898.7539,383.5,904.7539,391.5,904.7539" style="stroke: #1963A0; stroke-width: 1.0;"/><text fill="#000000" font-family="sans-serif" font-size="11" lengthAdjust="spacingAndGlyphs" textLength="179" x="396.5" y="905.7549">SaveControllerProxy(TCPIP, Session)</text><ellipse cx="387.5" cy="916.5898" fill="#84BE84" rx="3" ry="3" style="stroke: #038048; stroke-width: 1.0;"/><text fill="#000000" font-family="sans-serif" font-size="11" lengthAdjust="spacingAndGlyphs" textLength="55" x="396.5" y="919.5908">next(): void</text><ellipse cx="387.5" cy="930.4258" fill="#84BE84" rx="3" ry="3" style="stroke: #038048; stroke-width: 1.0;"/><text fill="#000000" font-family="sans-serif" font-size="11" lengthAdjust="spacingAndGlyphs" textLength="58" x="396.5" y="933.4268">save(): void</text><ellipse cx="387.5" cy="944.2617" fill="#84BE84" rx="3" ry="3" style="stroke: #038048; stroke-width: 1.0;"/><text fill="#000000" font-family="sans-serif" font-size="11" lengthAdjust="spacingAndGlyphs" textLength="86" x="396.5" y="947.2627">save(String): void</text><ellipse cx="387.5" cy="958.0977" fill="#84BE84" rx="3" ry="3" style="stroke: #038048; stroke-width: 1.0;"/><text fill="#000000" font-family="sans-serif" font-size="11" lengthAdjust="spacingAndGlyphs" textLength="109" x="396.5" y="961.0986">exists(String): boolean</text><ellipse cx="387.5" cy="971.9336" fill="#84BE84" rx="3" ry="3" style="stroke: #038048; stroke-width: 1.0;"/><text fill="#000000" font-family="sans-serif" font-size="11" lengthAdjust="spacingAndGlyphs" textLength="97" x="396.5" y="974.9346">hasName(): boolean</text><!--class mastermind.distributed.ResumeControllerProxy--><rect fill="#FEFECE" filter="url(#f1oy1u0vhqtafn)" height="89.5078" id="mastermind.distributed.ResumeControllerProxy" style="stroke: #A80036; stroke-width: 1.5;" width="219" x="616.5" y="864"/><ellipse cx="656.7" cy="880" fill="#ADD1B2" rx="11" ry="11" style="stroke: #A80036; stroke-width: 1.0;"/><path d="M659.4656,875.875 Q659.6219,875.6563 659.8094,875.5469 Q659.9969,875.4375 660.2156,875.4375 Q660.5906,875.4375 660.825,875.6953 Q661.0594,875.9531 661.0594,876.5625 L661.0594,878.0156 Q661.0594,878.625 660.825,878.8906 Q660.5906,879.1563 660.2156,879.1563 Q659.8719,879.1563 659.6688,878.9531 Q659.4656,878.7656 659.3563,878.25 Q659.3094,877.8906 659.1219,877.7031 Q658.7938,877.3281 658.1844,877.1094 Q657.575,876.8906 656.95,876.8906 Q656.1844,876.8906 655.5516,877.2188 Q654.9188,877.5469 654.4266,878.2969 Q653.9344,879.0469 653.9344,880.0781 L653.9344,881.1719 Q653.9344,882.4063 654.825,883.2266 Q655.7156,884.0469 657.3094,884.0469 Q658.2469,884.0469 658.9031,883.7969 Q659.2938,883.6406 659.7156,883.2031 Q659.9813,882.9375 660.1297,882.8594 Q660.2781,882.7813 660.4813,882.7813 Q660.8094,882.7813 661.0672,883.0391 Q661.325,883.2969 661.325,883.6406 Q661.325,883.9844 660.9813,884.3906 Q660.4813,884.9688 659.6844,885.2969 Q658.6063,885.75 657.3094,885.75 Q655.7938,885.75 654.5906,885.125 Q653.6063,884.625 652.9188,883.5547 Q652.2313,882.4844 652.2313,881.2031 L652.2313,880.0469 Q652.2313,878.7188 652.8484,877.5703 Q653.4656,876.4219 654.5594,875.8047 Q655.6531,875.1875 656.8875,875.1875 Q657.6219,875.1875 658.2703,875.3516 Q658.9188,875.5156 659.4656,875.875 Z "/><text fill="#000000" font-family="sans-serif" font-size="12" lengthAdjust="spacingAndGlyphs" textLength="131" x="676.3" y="884.9102">ResumeControllerProxy</text><line style="stroke: #A80036; stroke-width: 1.5;" x1="617.5" x2="834.5" y1="896" y2="896"/><rect fill="none" height="6" style="stroke: #C82930; stroke-width: 1.0;" width="6" x="624.5" y="905.418"/><text fill="#000000" font-family="sans-serif" font-size="11" lengthAdjust="spacingAndGlyphs" textLength="56" x="636.5" y="911.4189">tcpip: TCPIP</text><line style="stroke: #A80036; stroke-width: 1.5;" x1="617.5" x2="834.5" y1="917.8359" y2="917.8359"/><polygon fill="#4177AF" points="627.5,926.2539,623.5,932.2539,631.5,932.2539" style="stroke: #1963A0; stroke-width: 1.0;"/><text fill="#000000" font-family="sans-serif" font-size="11" lengthAdjust="spacingAndGlyphs" textLength="193" x="636.5" y="933.2549">ResumeControllerProxy(TCPIP, Session)</text><ellipse cx="627.5" cy="944.0898" fill="#84BE84" rx="3" ry="3" style="stroke: #038048; stroke-width: 1.0;"/><text fill="#000000" font-family="sans-serif" font-size="11" lengthAdjust="spacingAndGlyphs" textLength="108" x="636.5" y="947.0908">resume(boolean): void</text><!--class mastermind.distributed.MastermindClient--><rect fill="#FEFECE" filter="url(#f1oy1u0vhqtafn)" height="117.1797" id="mastermind.distributed.MastermindClient" style="stroke: #A80036; stroke-width: 1.5;" width="136" x="883" y="329.5"/><ellipse cx="901.15" cy="345.5" fill="#ADD1B2" rx="11" ry="11" style="stroke: #A80036; stroke-width: 1.0;"/><path d="M903.9156,341.375 Q904.0719,341.1563 904.2594,341.0469 Q904.4469,340.9375 904.6656,340.9375 Q905.0406,340.9375 905.275,341.1953 Q905.5094,341.4531 905.5094,342.0625 L905.5094,343.5156 Q905.5094,344.125 905.275,344.3906 Q905.0406,344.6563 904.6656,344.6563 Q904.3219,344.6563 904.1188,344.4531 Q903.9156,344.2656 903.8063,343.75 Q903.7594,343.3906 903.5719,343.2031 Q903.2438,342.8281 902.6344,342.6094 Q902.025,342.3906 901.4,342.3906 Q900.6344,342.3906 900.0016,342.7188 Q899.3688,343.0469 898.8766,343.7969 Q898.3844,344.5469 898.3844,345.5781 L898.3844,346.6719 Q898.3844,347.9063 899.275,348.7266 Q900.1656,349.5469 901.7594,349.5469 Q902.6969,349.5469 903.3531,349.2969 Q903.7438,349.1406 904.1656,348.7031 Q904.4313,348.4375 904.5797,348.3594 Q904.7281,348.2813 904.9313,348.2813 Q905.2594,348.2813 905.5172,348.5391 Q905.775,348.7969 905.775,349.1406 Q905.775,349.4844 905.4313,349.8906 Q904.9313,350.4688 904.1344,350.7969 Q903.0563,351.25 901.7594,351.25 Q900.2438,351.25 899.0406,350.625 Q898.0563,350.125 897.3688,349.0547 Q896.6813,347.9844 896.6813,346.7031 L896.6813,345.5469 Q896.6813,344.2188 897.2984,343.0703 Q897.9156,341.9219 899.0094,341.3047 Q900.1031,340.6875 901.3375,340.6875 Q902.0719,340.6875 902.7203,340.8516 Q903.3688,341.0156 903.9156,341.375 Z "/><text fill="#000000" font-family="sans-serif" font-size="12" lengthAdjust="spacingAndGlyphs" textLength="97" x="915.85" y="350.4102">MastermindClient</text><line style="stroke: #A80036; stroke-width: 1.5;" x1="884" x2="1018" y1="361.5" y2="361.5"/><rect fill="none" height="6" style="stroke: #C82930; stroke-width: 1.0;" width="6" x="891" y="370.918"/><text fill="#000000" font-family="sans-serif" font-size="11" lengthAdjust="spacingAndGlyphs" textLength="110" x="903" y="376.9189">logicProxy: LogicProxy</text><line style="stroke: #A80036; stroke-width: 1.5;" x1="884" x2="1018" y1="383.3359" y2="383.3359"/><ellipse cx="894" cy="395.7539" fill="#84BE84" rx="3" ry="3" style="stroke: #038048; stroke-width: 1.0;"/><text fill="#000000" font-family="sans-serif" font-size="11" lengthAdjust="spacingAndGlyphs" textLength="89" x="903" y="398.7549">MastermindClient()</text><ellipse cx="894" cy="409.5898" fill="#84BE84" rx="3" ry="3" style="stroke: #038048; stroke-width: 1.0;"/><text fill="#000000" font-family="sans-serif" font-size="11" lengthAdjust="spacingAndGlyphs" text-decoration="underline" textLength="90" x="903" y="412.5908">main(String[]): void</text><polygon fill="#FFFF44" points="894,418.4258,898,422.4258,894,426.4258,890,422.4258" style="stroke: #B38D22; stroke-width: 1.0;"/><text fill="#000000" font-family="sans-serif" font-size="11" lengthAdjust="spacingAndGlyphs" textLength="97" x="903" y="426.4268">createLogic(): Logic</text><polygon fill="#FFFF44" points="894,432.2617,898,436.2617,894,440.2617,890,436.2617" style="stroke: #B38D22; stroke-width: 1.0;"/><text fill="#000000" font-family="sans-serif" font-size="11" lengthAdjust="spacingAndGlyphs" textLength="54" x="903" y="440.2627">play(): void</text><!--class mastermind.distributed.MastermindServer--><rect fill="#FEFECE" filter="url(#f1oy1u0vhqtafn)" height="117.1797" id="mastermind.distributed.MastermindServer" style="stroke: #A80036; stroke-width: 1.5;" width="227" x="381.5" y="329.5"/><ellipse cx="440.75" cy="345.5" fill="#ADD1B2" rx="11" ry="11" style="stroke: #A80036; stroke-width: 1.0;"/><path d="M443.5156,341.375 Q443.6719,341.1563 443.8594,341.0469 Q444.0469,340.9375 444.2656,340.9375 Q444.6406,340.9375 444.875,341.1953 Q445.1094,341.4531 445.1094,342.0625 L445.1094,343.5156 Q445.1094,344.125 444.875,344.3906 Q444.6406,344.6563 444.2656,344.6563 Q443.9219,344.6563 443.7188,344.4531 Q443.5156,344.2656 443.4063,343.75 Q443.3594,343.3906 443.1719,343.2031 Q442.8438,342.8281 442.2344,342.6094 Q441.625,342.3906 441,342.3906 Q440.2344,342.3906 439.6016,342.7188 Q438.9688,343.0469 438.4766,343.7969 Q437.9844,344.5469 437.9844,345.5781 L437.9844,346.6719 Q437.9844,347.9063 438.875,348.7266 Q439.7656,349.5469 441.3594,349.5469 Q442.2969,349.5469 442.9531,349.2969 Q443.3438,349.1406 443.7656,348.7031 Q444.0313,348.4375 444.1797,348.3594 Q444.3281,348.2813 444.5313,348.2813 Q444.8594,348.2813 445.1172,348.5391 Q445.375,348.7969 445.375,349.1406 Q445.375,349.4844 445.0313,349.8906 Q444.5313,350.4688 443.7344,350.7969 Q442.6563,351.25 441.3594,351.25 Q439.8438,351.25 438.6406,350.625 Q437.6563,350.125 436.9688,349.0547 Q436.2813,347.9844 436.2813,346.7031 L436.2813,345.5469 Q436.2813,344.2188 436.8984,343.0703 Q437.5156,341.9219 438.6094,341.3047 Q439.7031,340.6875 440.9375,340.6875 Q441.6719,340.6875 442.3203,340.8516 Q442.9688,341.0156 443.5156,341.375 Z "/><text fill="#000000" font-family="sans-serif" font-size="12" lengthAdjust="spacingAndGlyphs" textLength="100" x="461.25" y="350.4102">MastermindServer</text><line style="stroke: #A80036; stroke-width: 1.5;" x1="382.5" x2="607.5" y1="361.5" y2="361.5"/><rect fill="none" height="6" style="stroke: #C82930; stroke-width: 1.0;" width="6" x="389.5" y="370.918"/><text fill="#000000" font-family="sans-serif" font-size="11" lengthAdjust="spacingAndGlyphs" textLength="201" x="401.5" y="376.9189">dispatcherPrototype: DispatcherPrototype</text><rect fill="none" height="6" style="stroke: #C82930; stroke-width: 1.0;" width="6" x="389.5" y="384.7539"/><text fill="#000000" font-family="sans-serif" font-size="11" lengthAdjust="spacingAndGlyphs" textLength="157" x="401.5" y="390.7549">logic: LogicImplementationServer</text><line style="stroke: #A80036; stroke-width: 1.5;" x1="382.5" x2="607.5" y1="397.1719" y2="397.1719"/><rect fill="#F24D5C" height="6" style="stroke: #C82930; stroke-width: 1.0;" width="6" x="389.5" y="406.5898"/><text fill="#000000" font-family="sans-serif" font-size="11" lengthAdjust="spacingAndGlyphs" textLength="96" x="401.5" y="412.5908">MastermindServer()</text><ellipse cx="392.5" cy="423.4258" fill="#84BE84" rx="3" ry="3" style="stroke: #038048; stroke-width: 1.0;"/><text fill="#000000" font-family="sans-serif" font-size="11" lengthAdjust="spacingAndGlyphs" text-decoration="underline" textLength="90" x="401.5" y="426.4268">main(String[]): void</text><rect fill="#F24D5C" height="6" style="stroke: #C82930; stroke-width: 1.0;" width="6" x="389.5" y="434.2617"/><text fill="#000000" font-family="sans-serif" font-size="11" lengthAdjust="spacingAndGlyphs" textLength="62" x="401.5" y="440.2627">serve(): void</text><!--class mastermind.controllers.implementation.LogicImplementation--><rect fill="#FEFECE" filter="url(#f1oy1u0vhqtafn)" height="48" id="mastermind.controllers.implementation.LogicImplementation" style="stroke: #A80036; stroke-width: 1.5;" width="148" x="1561" y="364"/><ellipse cx="1576" cy="380" fill="#ADD1B2" rx="11" ry="11" style="stroke: #A80036; stroke-width: 1.0;"/><path d="M1578.7656,375.875 Q1578.9219,375.6563 1579.1094,375.5469 Q1579.2969,375.4375 1579.5156,375.4375 Q1579.8906,375.4375 1580.125,375.6953 Q1580.3594,375.9531 1580.3594,376.5625 L1580.3594,378.0156 Q1580.3594,378.625 1580.125,378.8906 Q1579.8906,379.1563 1579.5156,379.1563 Q1579.1719,379.1563 1578.9688,378.9531 Q1578.7656,378.7656 1578.6563,378.25 Q1578.6094,377.8906 1578.4219,377.7031 Q1578.0938,377.3281 1577.4844,377.1094 Q1576.875,376.8906 1576.25,376.8906 Q1575.4844,376.8906 1574.8516,377.2188 Q1574.2188,377.5469 1573.7266,378.2969 Q1573.2344,379.0469 1573.2344,380.0781 L1573.2344,381.1719 Q1573.2344,382.4063 1574.125,383.2266 Q1575.0156,384.0469 1576.6094,384.0469 Q1577.5469,384.0469 1578.2031,383.7969 Q1578.5938,383.6406 1579.0156,383.2031 Q1579.2813,382.9375 1579.4297,382.8594 Q1579.5781,382.7813 1579.7813,382.7813 Q1580.1094,382.7813 1580.3672,383.0391 Q1580.625,383.2969 1580.625,383.6406 Q1580.625,383.9844 1580.2813,384.3906 Q1579.7813,384.9688 1578.9844,385.2969 Q1577.9063,385.75 1576.6094,385.75 Q1575.0938,385.75 1573.8906,385.125 Q1572.9063,384.625 1572.2188,383.5547 Q1571.5313,382.4844 1571.5313,381.2031 L1571.5313,380.0469 Q1571.5313,378.7188 1572.1484,377.5703 Q1572.7656,376.4219 1573.8594,375.8047 Q1574.9531,375.1875 1576.1875,375.1875 Q1576.9219,375.1875 1577.5703,375.3516 Q1578.2188,375.5156 1578.7656,375.875 Z "/><text fill="#000000" font-family="sans-serif" font-size="12" lengthAdjust="spacingAndGlyphs" textLength="116" x="1590" y="384.9102">LogicImplementation</text><line style="stroke: #A80036; stroke-width: 1.5;" x1="1562" x2="1708" y1="396" y2="396"/><line style="stroke: #A80036; stroke-width: 1.5;" x1="1562" x2="1708" y1="404" y2="404"/><!--class mastermind.distributed.dispatchers.DispatcherPrototype--><rect fill="#FEFECE" filter="url(#f1oy1u0vhqtafn)" height="48" id="mastermind.distributed.dispatchers.DispatcherPrototype" style="stroke: #A80036; stroke-width: 1.5;" width="143" x="126.5" y="885"/><ellipse cx="141.5" cy="901" fill="#ADD1B2" rx="11" ry="11" style="stroke: #A80036; stroke-width: 1.0;"/><path d="M144.2656,896.875 Q144.4219,896.6563 144.6094,896.5469 Q144.7969,896.4375 145.0156,896.4375 Q145.3906,896.4375 145.625,896.6953 Q145.8594,896.9531 145.8594,897.5625 L145.8594,899.0156 Q145.8594,899.625 145.625,899.8906 Q145.3906,900.1563 145.0156,900.1563 Q144.6719,900.1563 144.4688,899.9531 Q144.2656,899.7656 144.1563,899.25 Q144.1094,898.8906 143.9219,898.7031 Q143.5938,898.3281 142.9844,898.1094 Q142.375,897.8906 141.75,897.8906 Q140.9844,897.8906 140.3516,898.2188 Q139.7188,898.5469 139.2266,899.2969 Q138.7344,900.0469 138.7344,901.0781 L138.7344,902.1719 Q138.7344,903.4063 139.625,904.2266 Q140.5156,905.0469 142.1094,905.0469 Q143.0469,905.0469 143.7031,904.7969 Q144.0938,904.6406 144.5156,904.2031 Q144.7813,903.9375 144.9297,903.8594 Q145.0781,903.7813 145.2813,903.7813 Q145.6094,903.7813 145.8672,904.0391 Q146.125,904.2969 146.125,904.6406 Q146.125,904.9844 145.7813,905.3906 Q145.2813,905.9688 144.4844,906.2969 Q143.4063,906.75 142.1094,906.75 Q140.5938,906.75 139.3906,906.125 Q138.4063,905.625 137.7188,904.5547 Q137.0313,903.4844 137.0313,902.2031 L137.0313,901.0469 Q137.0313,899.7188 137.6484,898.5703 Q138.2656,897.4219 139.3594,896.8047 Q140.4531,896.1875 141.6875,896.1875 Q142.4219,896.1875 143.0703,896.3516 Q143.7188,896.5156 144.2656,896.875 Z "/><text fill="#000000" font-family="sans-serif" font-size="12" lengthAdjust="spacingAndGlyphs" textLength="111" x="155.5" y="905.9102">DispatcherPrototype</text><line style="stroke: #A80036; stroke-width: 1.5;" x1="127.5" x2="268.5" y1="917" y2="917"/><line style="stroke: #A80036; stroke-width: 1.5;" x1="127.5" x2="268.5" y1="925" y2="925"/><!--class mastermind.controllers.Logic--><rect fill="#FEFECE" filter="url(#f1oy1u0vhqtafn)" height="48" id="mastermind.controllers.Logic" style="stroke: #A80036; stroke-width: 1.5;" width="62" x="1876" y="364"/><ellipse cx="1891" cy="380" fill="#ADD1B2" rx="11" ry="11" style="stroke: #A80036; stroke-width: 1.0;"/><path d="M1893.7656,375.875 Q1893.9219,375.6563 1894.1094,375.5469 Q1894.2969,375.4375 1894.5156,375.4375 Q1894.8906,375.4375 1895.125,375.6953 Q1895.3594,375.9531 1895.3594,376.5625 L1895.3594,378.0156 Q1895.3594,378.625 1895.125,378.8906 Q1894.8906,379.1563 1894.5156,379.1563 Q1894.1719,379.1563 1893.9688,378.9531 Q1893.7656,378.7656 1893.6563,378.25 Q1893.6094,377.8906 1893.4219,377.7031 Q1893.0938,377.3281 1892.4844,377.1094 Q1891.875,376.8906 1891.25,376.8906 Q1890.4844,376.8906 1889.8516,377.2188 Q1889.2188,377.5469 1888.7266,378.2969 Q1888.2344,379.0469 1888.2344,380.0781 L1888.2344,381.1719 Q1888.2344,382.4063 1889.125,383.2266 Q1890.0156,384.0469 1891.6094,384.0469 Q1892.5469,384.0469 1893.2031,383.7969 Q1893.5938,383.6406 1894.0156,383.2031 Q1894.2813,382.9375 1894.4297,382.8594 Q1894.5781,382.7813 1894.7813,382.7813 Q1895.1094,382.7813 1895.3672,383.0391 Q1895.625,383.2969 1895.625,383.6406 Q1895.625,383.9844 1895.2813,384.3906 Q1894.7813,384.9688 1893.9844,385.2969 Q1892.9063,385.75 1891.6094,385.75 Q1890.0938,385.75 1888.8906,385.125 Q1887.9063,384.625 1887.2188,383.5547 Q1886.5313,382.4844 1886.5313,381.2031 L1886.5313,380.0469 Q1886.5313,378.7188 1887.1484,377.5703 Q1887.7656,376.4219 1888.8594,375.8047 Q1889.9531,375.1875 1891.1875,375.1875 Q1891.9219,375.1875 1892.5703,375.3516 Q1893.2188,375.5156 1893.7656,375.875 Z "/><text fill="#000000" font-family="sans-serif" font-size="12" lengthAdjust="spacingAndGlyphs" textLength="30" x="1905" y="384.9102">Logic</text><line style="stroke: #A80036; stroke-width: 1.5;" x1="1877" x2="1937" y1="396" y2="396"/><line style="stroke: #A80036; stroke-width: 1.5;" x1="1877" x2="1937" y1="404" y2="404"/><!--class mastermind.controllers.PlayController--><rect fill="#FEFECE" filter="url(#f1oy1u0vhqtafn)" height="48" id="mastermind.controllers.PlayController" style="stroke: #A80036; stroke-width: 1.5;" width="109" x="2437.5" y="364"/><ellipse cx="2452.5" cy="380" fill="#ADD1B2" rx="11" ry="11" style="stroke: #A80036; stroke-width: 1.0;"/><path d="M2455.2656,375.875 Q2455.4219,375.6563 2455.6094,375.5469 Q2455.7969,375.4375 2456.0156,375.4375 Q2456.3906,375.4375 2456.625,375.6953 Q2456.8594,375.9531 2456.8594,376.5625 L2456.8594,378.0156 Q2456.8594,378.625 2456.625,378.8906 Q2456.3906,379.1563 2456.0156,379.1563 Q2455.6719,379.1563 2455.4688,378.9531 Q2455.2656,378.7656 2455.1563,378.25 Q2455.1094,377.8906 2454.9219,377.7031 Q2454.5938,377.3281 2453.9844,377.1094 Q2453.375,376.8906 2452.75,376.8906 Q2451.9844,376.8906 2451.3516,377.2188 Q2450.7188,377.5469 2450.2266,378.2969 Q2449.7344,379.0469 2449.7344,380.0781 L2449.7344,381.1719 Q2449.7344,382.4063 2450.625,383.2266 Q2451.5156,384.0469 2453.1094,384.0469 Q2454.0469,384.0469 2454.7031,383.7969 Q2455.0938,383.6406 2455.5156,383.2031 Q2455.7813,382.9375 2455.9297,382.8594 Q2456.0781,382.7813 2456.2813,382.7813 Q2456.6094,382.7813 2456.8672,383.0391 Q2457.125,383.2969 2457.125,383.6406 Q2457.125,383.9844 2456.7813,384.3906 Q2456.2813,384.9688 2455.4844,385.2969 Q2454.4063,385.75 2453.1094,385.75 Q2451.5938,385.75 2450.3906,385.125 Q2449.4063,384.625 2448.7188,383.5547 Q2448.0313,382.4844 2448.0313,381.2031 L2448.0313,380.0469 Q2448.0313,378.7188 2448.6484,377.5703 Q2449.2656,376.4219 2450.3594,375.8047 Q2451.4531,375.1875 2452.6875,375.1875 Q2453.4219,375.1875 2454.0703,375.3516 Q2454.7188,375.5156 2455.2656,375.875 Z "/><text fill="#000000" font-family="sans-serif" font-size="12" lengthAdjust="spacingAndGlyphs" textLength="77" x="2466.5" y="384.9102">PlayController</text><line style="stroke: #A80036; stroke-width: 1.5;" x1="2438.5" x2="2545.5" y1="396" y2="396"/><line style="stroke: #A80036; stroke-width: 1.5;" x1="2438.5" x2="2545.5" y1="404" y2="404"/><!--class mastermind.controllers.ResumeController--><rect fill="#FEFECE" filter="url(#f1oy1u0vhqtafn)" height="48" id="mastermind.controllers.ResumeController" style="stroke: #A80036; stroke-width: 1.5;" width="134" x="2122" y="364"/><ellipse cx="2137" cy="380" fill="#ADD1B2" rx="11" ry="11" style="stroke: #A80036; stroke-width: 1.0;"/><path d="M2139.7656,375.875 Q2139.9219,375.6563 2140.1094,375.5469 Q2140.2969,375.4375 2140.5156,375.4375 Q2140.8906,375.4375 2141.125,375.6953 Q2141.3594,375.9531 2141.3594,376.5625 L2141.3594,378.0156 Q2141.3594,378.625 2141.125,378.8906 Q2140.8906,379.1563 2140.5156,379.1563 Q2140.1719,379.1563 2139.9688,378.9531 Q2139.7656,378.7656 2139.6563,378.25 Q2139.6094,377.8906 2139.4219,377.7031 Q2139.0938,377.3281 2138.4844,377.1094 Q2137.875,376.8906 2137.25,376.8906 Q2136.4844,376.8906 2135.8516,377.2188 Q2135.2188,377.5469 2134.7266,378.2969 Q2134.2344,379.0469 2134.2344,380.0781 L2134.2344,381.1719 Q2134.2344,382.4063 2135.125,383.2266 Q2136.0156,384.0469 2137.6094,384.0469 Q2138.5469,384.0469 2139.2031,383.7969 Q2139.5938,383.6406 2140.0156,383.2031 Q2140.2813,382.9375 2140.4297,382.8594 Q2140.5781,382.7813 2140.7813,382.7813 Q2141.1094,382.7813 2141.3672,383.0391 Q2141.625,383.2969 2141.625,383.6406 Q2141.625,383.9844 2141.2813,384.3906 Q2140.7813,384.9688 2139.9844,385.2969 Q2138.9063,385.75 2137.6094,385.75 Q2136.0938,385.75 2134.8906,385.125 Q2133.9063,384.625 2133.2188,383.5547 Q2132.5313,382.4844 2132.5313,381.2031 L2132.5313,380.0469 Q2132.5313,378.7188 2133.1484,377.5703 Q2133.7656,376.4219 2134.8594,375.8047 Q2135.9531,375.1875 2137.1875,375.1875 Q2137.9219,375.1875 2138.5703,375.3516 Q2139.2188,375.5156 2139.7656,375.875 Z "/><text fill="#000000" font-family="sans-serif" font-size="12" lengthAdjust="spacingAndGlyphs" textLength="102" x="2151" y="384.9102">ResumeController</text><line style="stroke: #A80036; stroke-width: 1.5;" x1="2123" x2="2255" y1="396" y2="396"/><line style="stroke: #A80036; stroke-width: 1.5;" x1="2123" x2="2255" y1="404" y2="404"/><!--class mastermind.controllers.SaveController--><rect fill="#FEFECE" filter="url(#f1oy1u0vhqtafn)" height="48" id="mastermind.controllers.SaveController" style="stroke: #A80036; stroke-width: 1.5;" width="113" x="1973.5" y="364"/><ellipse cx="1988.5" cy="380" fill="#ADD1B2" rx="11" ry="11" style="stroke: #A80036; stroke-width: 1.0;"/><path d="M1991.2656,375.875 Q1991.4219,375.6563 1991.6094,375.5469 Q1991.7969,375.4375 1992.0156,375.4375 Q1992.3906,375.4375 1992.625,375.6953 Q1992.8594,375.9531 1992.8594,376.5625 L1992.8594,378.0156 Q1992.8594,378.625 1992.625,378.8906 Q1992.3906,379.1563 1992.0156,379.1563 Q1991.6719,379.1563 1991.4688,378.9531 Q1991.2656,378.7656 1991.1563,378.25 Q1991.1094,377.8906 1990.9219,377.7031 Q1990.5938,377.3281 1989.9844,377.1094 Q1989.375,376.8906 1988.75,376.8906 Q1987.9844,376.8906 1987.3516,377.2188 Q1986.7188,377.5469 1986.2266,378.2969 Q1985.7344,379.0469 1985.7344,380.0781 L1985.7344,381.1719 Q1985.7344,382.4063 1986.625,383.2266 Q1987.5156,384.0469 1989.1094,384.0469 Q1990.0469,384.0469 1990.7031,383.7969 Q1991.0938,383.6406 1991.5156,383.2031 Q1991.7813,382.9375 1991.9297,382.8594 Q1992.0781,382.7813 1992.2813,382.7813 Q1992.6094,382.7813 1992.8672,383.0391 Q1993.125,383.2969 1993.125,383.6406 Q1993.125,383.9844 1992.7813,384.3906 Q1992.2813,384.9688 1991.4844,385.2969 Q1990.4063,385.75 1989.1094,385.75 Q1987.5938,385.75 1986.3906,385.125 Q1985.4063,384.625 1984.7188,383.5547 Q1984.0313,382.4844 1984.0313,381.2031 L1984.0313,380.0469 Q1984.0313,378.7188 1984.6484,377.5703 Q1985.2656,376.4219 1986.3594,375.8047 Q1987.4531,375.1875 1988.6875,375.1875 Q1989.4219,375.1875 1990.0703,375.3516 Q1990.7188,375.5156 1991.2656,375.875 Z "/><text fill="#000000" font-family="sans-serif" font-size="12" lengthAdjust="spacingAndGlyphs" textLength="81" x="2002.5" y="384.9102">SaveController</text><line style="stroke: #A80036; stroke-width: 1.5;" x1="1974.5" x2="2085.5" y1="396" y2="396"/><line style="stroke: #A80036; stroke-width: 1.5;" x1="1974.5" x2="2085.5" y1="404" y2="404"/><!--class mastermind.controllers.StartController--><rect fill="#FEFECE" filter="url(#f1oy1u0vhqtafn)" height="48" id="mastermind.controllers.StartController" style="stroke: #A80036; stroke-width: 1.5;" width="111" x="2291.5" y="364"/><ellipse cx="2306.5" cy="380" fill="#ADD1B2" rx="11" ry="11" style="stroke: #A80036; stroke-width: 1.0;"/><path d="M2309.2656,375.875 Q2309.4219,375.6563 2309.6094,375.5469 Q2309.7969,375.4375 2310.0156,375.4375 Q2310.3906,375.4375 2310.625,375.6953 Q2310.8594,375.9531 2310.8594,376.5625 L2310.8594,378.0156 Q2310.8594,378.625 2310.625,378.8906 Q2310.3906,379.1563 2310.0156,379.1563 Q2309.6719,379.1563 2309.4688,378.9531 Q2309.2656,378.7656 2309.1563,378.25 Q2309.1094,377.8906 2308.9219,377.7031 Q2308.5938,377.3281 2307.9844,377.1094 Q2307.375,376.8906 2306.75,376.8906 Q2305.9844,376.8906 2305.3516,377.2188 Q2304.7188,377.5469 2304.2266,378.2969 Q2303.7344,379.0469 2303.7344,380.0781 L2303.7344,381.1719 Q2303.7344,382.4063 2304.625,383.2266 Q2305.5156,384.0469 2307.1094,384.0469 Q2308.0469,384.0469 2308.7031,383.7969 Q2309.0938,383.6406 2309.5156,383.2031 Q2309.7813,382.9375 2309.9297,382.8594 Q2310.0781,382.7813 2310.2813,382.7813 Q2310.6094,382.7813 2310.8672,383.0391 Q2311.125,383.2969 2311.125,383.6406 Q2311.125,383.9844 2310.7813,384.3906 Q2310.2813,384.9688 2309.4844,385.2969 Q2308.4063,385.75 2307.1094,385.75 Q2305.5938,385.75 2304.3906,385.125 Q2303.4063,384.625 2302.7188,383.5547 Q2302.0313,382.4844 2302.0313,381.2031 L2302.0313,380.0469 Q2302.0313,378.7188 2302.6484,377.5703 Q2303.2656,376.4219 2304.3594,375.8047 Q2305.4531,375.1875 2306.6875,375.1875 Q2307.4219,375.1875 2308.0703,375.3516 Q2308.7188,375.5156 2309.2656,375.875 Z "/><text fill="#000000" font-family="sans-serif" font-size="12" lengthAdjust="spacingAndGlyphs" textLength="79" x="2320.5" y="384.9102">StartController</text><line style="stroke: #A80036; stroke-width: 1.5;" x1="2292.5" x2="2401.5" y1="396" y2="396"/><line style="stroke: #A80036; stroke-width: 1.5;" x1="2292.5" x2="2401.5" y1="404" y2="404"/><!--class mastermind.utils.TCPIP--><rect fill="#FEFECE" filter="url(#f1oy1u0vhqtafn)" height="48" id="mastermind.utils.TCPIP" style="stroke: #A80036; stroke-width: 1.5;" width="67" x="804.5" y="1092"/><ellipse cx="819.5" cy="1108" fill="#ADD1B2" rx="11" ry="11" style="stroke: #A80036; stroke-width: 1.0;"/><path d="M822.2656,1103.875 Q822.4219,1103.6563 822.6094,1103.5469 Q822.7969,1103.4375 823.0156,1103.4375 Q823.3906,1103.4375 823.625,1103.6953 Q823.8594,1103.9531 823.8594,1104.5625 L823.8594,1106.0156 Q823.8594,1106.625 823.625,1106.8906 Q823.3906,1107.1563 823.0156,1107.1563 Q822.6719,1107.1563 822.4688,1106.9531 Q822.2656,1106.7656 822.1563,1106.25 Q822.1094,1105.8906 821.9219,1105.7031 Q821.5938,1105.3281 820.9844,1105.1094 Q820.375,1104.8906 819.75,1104.8906 Q818.9844,1104.8906 818.3516,1105.2188 Q817.7188,1105.5469 817.2266,1106.2969 Q816.7344,1107.0469 816.7344,1108.0781 L816.7344,1109.1719 Q816.7344,1110.4063 817.625,1111.2266 Q818.5156,1112.0469 820.1094,1112.0469 Q821.0469,1112.0469 821.7031,1111.7969 Q822.0938,1111.6406 822.5156,1111.2031 Q822.7813,1110.9375 822.9297,1110.8594 Q823.0781,1110.7813 823.2813,1110.7813 Q823.6094,1110.7813 823.8672,1111.0391 Q824.125,1111.2969 824.125,1111.6406 Q824.125,1111.9844 823.7813,1112.3906 Q823.2813,1112.9688 822.4844,1113.2969 Q821.4063,1113.75 820.1094,1113.75 Q818.5938,1113.75 817.3906,1113.125 Q816.4063,1112.625 815.7188,1111.5547 Q815.0313,1110.4844 815.0313,1109.2031 L815.0313,1108.0469 Q815.0313,1106.7188 815.6484,1105.5703 Q816.2656,1104.4219 817.3594,1103.8047 Q818.4531,1103.1875 819.6875,1103.1875 Q820.4219,1103.1875 821.0703,1103.3516 Q821.7188,1103.5156 822.2656,1103.875 Z "/><text fill="#000000" font-family="sans-serif" font-size="12" lengthAdjust="spacingAndGlyphs" textLength="35" x="833.5" y="1112.9102">TCPIP</text><line style="stroke: #A80036; stroke-width: 1.5;" x1="805.5" x2="870.5" y1="1124" y2="1124"/><line style="stroke: #A80036; stroke-width: 1.5;" x1="805.5" x2="870.5" y1="1132" y2="1132"/><!--class mastermind.Mastermind--><rect fill="#FEFECE" filter="url(#f1oy1u0vhqtafn)" height="48" id="mastermind.Mastermind" style="stroke: #A80036; stroke-width: 1.5;" width="97" x="902.5" y="60"/><ellipse cx="917.5" cy="76" fill="#ADD1B2" rx="11" ry="11" style="stroke: #A80036; stroke-width: 1.0;"/><path d="M920.2656,71.875 Q920.4219,71.6563 920.6094,71.5469 Q920.7969,71.4375 921.0156,71.4375 Q921.3906,71.4375 921.625,71.6953 Q921.8594,71.9531 921.8594,72.5625 L921.8594,74.0156 Q921.8594,74.625 921.625,74.8906 Q921.3906,75.1563 921.0156,75.1563 Q920.6719,75.1563 920.4688,74.9531 Q920.2656,74.7656 920.1563,74.25 Q920.1094,73.8906 919.9219,73.7031 Q919.5938,73.3281 918.9844,73.1094 Q918.375,72.8906 917.75,72.8906 Q916.9844,72.8906 916.3516,73.2188 Q915.7188,73.5469 915.2266,74.2969 Q914.7344,75.0469 914.7344,76.0781 L914.7344,77.1719 Q914.7344,78.4063 915.625,79.2266 Q916.5156,80.0469 918.1094,80.0469 Q919.0469,80.0469 919.7031,79.7969 Q920.0938,79.6406 920.5156,79.2031 Q920.7813,78.9375 920.9297,78.8594 Q921.0781,78.7813 921.2813,78.7813 Q921.6094,78.7813 921.8672,79.0391 Q922.125,79.2969 922.125,79.6406 Q922.125,79.9844 921.7813,80.3906 Q921.2813,80.9688 920.4844,81.2969 Q919.4063,81.75 918.1094,81.75 Q916.5938,81.75 915.3906,81.125 Q914.4063,80.625 913.7188,79.5547 Q913.0313,78.4844 913.0313,77.2031 L913.0313,76.0469 Q913.0313,74.7188 913.6484,73.5703 Q914.2656,72.4219 915.3594,71.8047 Q916.4531,71.1875 917.6875,71.1875 Q918.4219,71.1875 919.0703,71.3516 Q919.7188,71.5156 920.2656,71.875 Z "/><text fill="#000000" font-family="sans-serif" font-size="12" lengthAdjust="spacingAndGlyphs" textLength="65" x="931.5" y="80.9102">Mastermind</text><line style="stroke: #A80036; stroke-width: 1.5;" x1="903.5" x2="998.5" y1="92" y2="92"/><line style="stroke: #A80036; stroke-width: 1.5;" x1="903.5" x2="998.5" y1="100" y2="100"/><!--class mastermind.models.Session--><rect fill="#FEFECE" filter="url(#f1oy1u0vhqtafn)" height="48" id="mastermind.models.Session" style="stroke: #A80036; stroke-width: 1.5;" width="78" x="1129" y="1092"/><ellipse cx="1144" cy="1108" fill="#ADD1B2" rx="11" ry="11" style="stroke: #A80036; stroke-width: 1.0;"/><path d="M1146.7656,1103.875 Q1146.9219,1103.6563 1147.1094,1103.5469 Q1147.2969,1103.4375 1147.5156,1103.4375 Q1147.8906,1103.4375 1148.125,1103.6953 Q1148.3594,1103.9531 1148.3594,1104.5625 L1148.3594,1106.0156 Q1148.3594,1106.625 1148.125,1106.8906 Q1147.8906,1107.1563 1147.5156,1107.1563 Q1147.1719,1107.1563 1146.9688,1106.9531 Q1146.7656,1106.7656 1146.6563,1106.25 Q1146.6094,1105.8906 1146.4219,1105.7031 Q1146.0938,1105.3281 1145.4844,1105.1094 Q1144.875,1104.8906 1144.25,1104.8906 Q1143.4844,1104.8906 1142.8516,1105.2188 Q1142.2188,1105.5469 1141.7266,1106.2969 Q1141.2344,1107.0469 1141.2344,1108.0781 L1141.2344,1109.1719 Q1141.2344,1110.4063 1142.125,1111.2266 Q1143.0156,1112.0469 1144.6094,1112.0469 Q1145.5469,1112.0469 1146.2031,1111.7969 Q1146.5938,1111.6406 1147.0156,1111.2031 Q1147.2813,1110.9375 1147.4297,1110.8594 Q1147.5781,1110.7813 1147.7813,1110.7813 Q1148.1094,1110.7813 1148.3672,1111.0391 Q1148.625,1111.2969 1148.625,1111.6406 Q1148.625,1111.9844 1148.2813,1112.3906 Q1147.7813,1112.9688 1146.9844,1113.2969 Q1145.9063,1113.75 1144.6094,1113.75 Q1143.0938,1113.75 1141.8906,1113.125 Q1140.9063,1112.625 1140.2188,1111.5547 Q1139.5313,1110.4844 1139.5313,1109.2031 L1139.5313,1108.0469 Q1139.5313,1106.7188 1140.1484,1105.5703 Q1140.7656,1104.4219 1141.8594,1103.8047 Q1142.9531,1103.1875 1144.1875,1103.1875 Q1144.9219,1103.1875 1145.5703,1103.3516 Q1146.2188,1103.5156 1146.7656,1103.875 Z "/><text fill="#000000" font-family="sans-serif" font-size="12" lengthAdjust="spacingAndGlyphs" textLength="46" x="1158" y="1112.9102">Session</text><line style="stroke: #A80036; stroke-width: 1.5;" x1="1130" x2="1206" y1="1124" y2="1124"/><line style="stroke: #A80036; stroke-width: 1.5;" x1="1130" x2="1206" y1="1132" y2="1132"/><!--link mastermind.distributed.FrameType to mastermind.distributed.FrameType--><path d="M1372.17,333.352 C1392.5,339.503 1407,357.719 1407,388 C1407,415.679 1394.89,433.277 1377.27,440.795 " fill="none" id="mastermind.distributed.FrameType-mastermind.distributed.FrameType" style="stroke: #A80036; stroke-width: 1.0; stroke-dasharray: 7.0,7.0;"/><polygon fill="#A80036" points="1372.17,442.648,1381.9939,443.3483,1376.8719,440.9473,1379.2728,435.8253,1372.17,442.648" style="stroke: #A80036; stroke-width: 1.0;"/><!--link mastermind.controllers.implementation.LogicImplementation to mastermind.distributed.LogicImplementationServer--><path d="M1623.96,431.561 C1609.13,479.346 1577.83,555.024 1521,592 C1402.56,669.056 1028.54,637.372 888,652 C799.5,661.212 699.759,672.543 623.566,681.4 " fill="none" id="mastermind.controllers.implementation.LogicImplementation-mastermind.distributed.LogicImplementationServer" style="stroke: #A80036; stroke-width: 1.0;"/><polygon fill="none" points="1617.3,429.382,1629.57,412.102,1630.75,433.258,1617.3,429.382" style="stroke: #A80036; stroke-width: 1.0;"/><!--link mastermind.distributed.LogicImplementationServer to mastermind.distributed.dispatchers.DispatcherPrototype--><path d="M411.662,735.054 C374.524,752.661 331.927,775.641 297,802 C266.725,824.848 237.804,857.505 219.124,880.519 " fill="none" id="mastermind.distributed.LogicImplementationServer-mastermind.distributed.dispatchers.DispatcherPrototype" style="stroke: #A80036; stroke-width: 1.0; stroke-dasharray: 7.0,7.0;"/><polygon fill="#A80036" points="215.757,884.7,224.517,880.1987,218.8928,880.8056,218.2859,875.1814,215.757,884.7" style="stroke: #A80036; stroke-width: 1.0;"/><!--link mastermind.controllers.Logic to mastermind.distributed.LogicProxy--><path d="M1883.46,429.272 C1853.3,476.846 1796.28,554.278 1725,592 C1708.69,600.631 1160.14,669.823 996.582,690.307 " fill="none" id="mastermind.controllers.Logic-mastermind.distributed.LogicProxy" style="stroke: #A80036; stroke-width: 1.0;"/><polygon fill="none" points="1877.6,425.449,1894.03,412.068,1889.53,432.774,1877.6,425.449" style="stroke: #A80036; stroke-width: 1.0;"/><!--link mastermind.distributed.LogicProxy to mastermind.utils.TCPIP--><path d="M892.131,706.27 C745.822,727.099 376.203,781.512 359,802 C290.982,883.009 290.232,959.627 359,1040 C414.364,1104.7075 681.464,1113.9801 790.993,1115.0246 " fill="none" id="mastermind.distributed.LogicProxy-mastermind.utils.TCPIP" style="stroke: #A80036; stroke-width: 1.0;"/><polygon fill="#A80036" points="804.153,1115.1172,795.1814,1111.054,799.1531,1115.082,795.1251,1119.0538,804.153,1115.1172" style="stroke: #A80036; stroke-width: 1.0;"/><line style="stroke: #A80036; stroke-width: 1.0;" x1="799.1531" x2="791.153" y1="1115.082" y2="1115.0257"/><polygon fill="#A80036" points="905.163,704.42,898.66,701.3038,893.2823,706.108,899.7853,709.2242,905.163,704.42" style="stroke: #A80036; stroke-width: 1.0;"/><!--link mastermind.distributed.LogicProxy to mastermind.distributed.SessionProxy--><path d="M951,755.309 C951,778.386 951,805.366 951,830.173 " fill="none" id="mastermind.distributed.LogicProxy-mastermind.distributed.SessionProxy" style="stroke: #A80036; stroke-width: 1.0;"/><polygon fill="#A80036" points="951,843.302,955,834.302,951,838.302,947,834.302,951,843.302" style="stroke: #A80036; stroke-width: 1.0;"/><line style="stroke: #A80036; stroke-width: 1.0;" x1="951" x2="951" y1="838.302" y2="830.302"/><polygon fill="#A80036" points="951,742.023,947,748.023,951,754.023,955,748.023,951,742.023" style="stroke: #A80036; stroke-width: 1.0;"/><!--link mastermind.distributed.LogicProxy to mastermind.distributed.StartControllerProxy--><path d="M1006.11,751.335 C1025.63,770.226 1048.23,792.089 1070.22,813.377 " fill="none" id="mastermind.distributed.LogicProxy-mastermind.distributed.StartControllerProxy" style="stroke: #A80036; stroke-width: 1.0;"/><polygon fill="#A80036" points="1079.6,822.455,1075.9157,813.3212,1076.0075,818.9773,1070.3514,819.0692,1079.6,822.455" style="stroke: #A80036; stroke-width: 1.0;"/><line style="stroke: #A80036; stroke-width: 1.0;" x1="1076.0075" x2="1070.265" y1="818.9773" y2="813.4145"/><polygon fill="#A80036" points="996.49,742.023,998.0177,749.0704,1005.1106,750.3707,1003.5829,743.3233,996.49,742.023" style="stroke: #A80036; stroke-width: 1.0;"/><!--link mastermind.distributed.LogicProxy to mastermind.distributed.PlayControllerProxy--><path d="M1009.53,708.145 C1079.09,721.951 1197.06,750.978 1287,802 C1289.25,803.274 1291.48,804.597 1293.72,805.963 " fill="none" id="mastermind.distributed.LogicProxy-mastermind.distributed.PlayControllerProxy" style="stroke: #A80036; stroke-width: 1.0;"/><polygon fill="#A80036" points="1304.78,813.133,1299.4033,804.8813,1300.5843,810.4135,1295.0521,811.5945,1304.78,813.133" style="stroke: #A80036; stroke-width: 1.0;"/><line style="stroke: #A80036; stroke-width: 1.0;" x1="1300.5843" x2="1293.875" y1="810.4135" y2="806.0645"/><polygon fill="#A80036" points="996.7,705.663,1001.8302,710.7306,1008.4812,707.9441,1003.351,702.8765,996.7,705.663" style="stroke: #A80036; stroke-width: 1.0;"/><!--link mastermind.distributed.LogicProxy to mastermind.distributed.SaveControllerProxy--><path d="M892.609,707.202 C820.205,720.372 694.661,749.067 599,802 C585.699,809.36 572.604,818.413 560.235,828.099 " fill="none" id="mastermind.distributed.LogicProxy-mastermind.distributed.SaveControllerProxy" style="stroke: #A80036; stroke-width: 1.0;"/><polygon fill="#A80036" points="550.027,836.362,559.5393,833.8095,553.9136,833.2165,554.5066,827.5908,550.027,836.362" style="stroke: #A80036; stroke-width: 1.0;"/><line style="stroke: #A80036; stroke-width: 1.0;" x1="553.9136" x2="560.1325" y1="833.2165" y2="828.183"/><polygon fill="#A80036" points="905.491,704.921,898.8854,702.0286,893.6749,707.0136,900.2805,709.906,905.491,704.921" style="stroke: #A80036; stroke-width: 1.0;"/><!--link mastermind.distributed.LogicProxy to mastermind.distributed.ResumeControllerProxy--><path d="M895.707,749.607 C861.567,781.471 817.849,822.274 783.337,854.486 " fill="none" id="mastermind.distributed.LogicProxy-mastermind.distributed.ResumeControllerProxy" style="stroke: #A80036; stroke-width: 1.0;"/><polygon fill="#A80036" points="773.403,863.757,782.7116,860.54,777.0581,860.3453,777.2529,854.6918,773.403,863.757" style="stroke: #A80036; stroke-width: 1.0;"/><line style="stroke: #A80036; stroke-width: 1.0;" x1="777.0581" x2="782.9065" y1="860.3453" y2="854.887"/><polygon fill="#A80036" points="905.468,740.497,898.3524,741.6664,896.695,748.6845,903.8107,747.5151,905.468,740.497" style="stroke: #A80036; stroke-width: 1.0;"/><!--link mastermind.Mastermind to mastermind.distributed.MastermindClient--><path d="M951,128.41 C951,181.28 951,270.75 951,329.351 " fill="none" id="mastermind.Mastermind-mastermind.distributed.MastermindClient" style="stroke: #A80036; stroke-width: 1.0;"/><polygon fill="none" points="944,128.2,951,108.2,958,128.2,944,128.2" style="stroke: #A80036; stroke-width: 1.0;"/><!--link mastermind.distributed.MastermindClient to mastermind.distributed.LogicProxy--><path d="M951,459.762 C951,514.042 951,588.007 951,638.628 " fill="none" id="mastermind.distributed.MastermindClient-mastermind.distributed.LogicProxy" style="stroke: #A80036; stroke-width: 1.0;"/><polygon fill="#A80036" points="951,651.93,955,642.93,951,646.93,947,642.93,951,651.93" style="stroke: #A80036; stroke-width: 1.0;"/><line style="stroke: #A80036; stroke-width: 1.0;" x1="951" x2="951" y1="646.93" y2="638.93"/><polygon fill="#A80036" points="951,446.744,947,452.744,951,458.744,955,452.744,951,446.744" style="stroke: #A80036; stroke-width: 1.0;"/><!--link mastermind.distributed.MastermindServer to mastermind.distributed.LogicImplementationServer--><path d="M496.156,459.961 C497.081,516.783 498.356,595.083 499.18,645.627 " fill="none" id="mastermind.distributed.MastermindServer-mastermind.distributed.LogicImplementationServer" style="stroke: #A80036; stroke-width: 1.0;"/><polygon fill="#A80036" points="499.394,658.792,503.2461,649.7277,499.3121,653.7927,495.2472,649.8587,499.394,658.792" style="stroke: #A80036; stroke-width: 1.0;"/><line style="stroke: #A80036; stroke-width: 1.0;" x1="499.3121" x2="499.1825" y1="653.7927" y2="645.7935"/><polygon fill="#A80036" points="495.94,446.744,492.0388,452.8087,496.1365,458.7424,500.0377,452.6777,495.94,446.744" style="stroke: #A80036; stroke-width: 1.0;"/><!--link mastermind.distributed.MastermindServer to mastermind.distributed.dispatchers.DispatcherPrototype--><path d="M455.576,457.893 C391.331,570.16 266.363,788.538 217.888,873.246 " fill="none" id="mastermind.distributed.MastermindServer-mastermind.distributed.dispatchers.DispatcherPrototype" style="stroke: #A80036; stroke-width: 1.0;"/><polygon fill="#A80036" points="211.307,884.746,219.2485,878.9208,213.7901,880.4062,212.3048,874.9478,211.307,884.746" style="stroke: #A80036; stroke-width: 1.0;"/><line style="stroke: #A80036; stroke-width: 1.0;" x1="213.7901" x2="217.764" y1="880.4062" y2="873.4625"/><polygon fill="#A80036" points="462.081,446.525,455.6291,449.7457,456.1205,456.94,462.5724,453.7193,462.081,446.525" style="stroke: #A80036; stroke-width: 1.0;"/><!--link mastermind.controllers.PlayController to mastermind.distributed.PlayControllerProxy--><path d="M2487.97,431.909 C2481.43,477.687 2464.34,549.357 2420,592 C2160.11,841.946 1705.72,894.436 1505.08,905.28 " fill="none" id="mastermind.controllers.PlayController-mastermind.distributed.PlayControllerProxy" style="stroke: #A80036; stroke-width: 1.0;"/><polygon fill="none" points="2481.03,431.05,2490.39,412.04,2494.93,432.738,2481.03,431.05" style="stroke: #A80036; stroke-width: 1.0;"/><!--link mastermind.distributed.PlayControllerProxy to mastermind.utils.TCPIP--><path d="M1313.13,1024.301 C1304.84,1030.363 1296.11,1035.711 1287,1040 C1269.49,1048.241 1132.16,1045.252 1113,1048 C1031.44,1059.699 938.746,1084.8153 884.492,1100.7544 " fill="none" id="mastermind.distributed.PlayControllerProxy-mastermind.utils.TCPIP" style="stroke: #A80036; stroke-width: 1.0;"/><polygon fill="#A80036" points="871.883,1104.4972,881.6492,1105.7703,876.6762,1103.0741,879.3723,1098.1011,871.883,1104.4972" style="stroke: #A80036; stroke-width: 1.0;"/><line style="stroke: #A80036; stroke-width: 1.0;" x1="876.6762" x2="884.346" y1="1103.0741" y2="1100.7976"/><polygon fill="#A80036" points="1323.39,1016.266,1316.1999,1016.8155,1313.9416,1023.6638,1321.1317,1023.1144,1323.39,1016.266" style="stroke: #A80036; stroke-width: 1.0;"/><!--link mastermind.distributed.PlayControllerProxy to mastermind.models.Session--><path d="M1313.33,1016.062 C1304.71,1024.457 1295.87,1032.556 1287,1040 C1263.76,1059.497 1235.06,1077.7318 1211.66,1091.3384 " fill="none" id="mastermind.distributed.PlayControllerProxy-mastermind.models.Session" style="stroke: #A80036; stroke-width: 1.0; stroke-dasharray: 7.0,7.0;"/><polygon fill="#A80036" points="1207.06,1093.9971,1216.8542,1092.9612,1211.3901,1091.4971,1212.8542,1086.033,1207.06,1093.9971" style="stroke: #A80036; stroke-width: 1.0;"/><!--link mastermind.controllers.ResumeController to mastermind.distributed.ResumeControllerProxy--><path d="M2183.8,432.089 C2175.62,479.479 2155.01,553.946 2104,592 C2004.57,666.18 1668.18,617.562 1549,652 C1461.54,677.272 1452.34,716.336 1365,742 C1145.18,806.589 1063.48,711.497 853,802 C820.284,816.067 789.465,841.377 766.381,863.737 " fill="none" id="mastermind.controllers.ResumeController-mastermind.distributed.ResumeControllerProxy" style="stroke: #A80036; stroke-width: 1.0;"/><polygon fill="none" points="2176.9,430.899,2186.79,412.156,2190.75,432.972,2176.9,430.899" style="stroke: #A80036; stroke-width: 1.0;"/><!--link mastermind.distributed.ResumeControllerProxy to mastermind.utils.TCPIP--><path d="M756.484,965.797 C776.439,1002.32 801.891,1048.907 819.001,1080.2253 " fill="none" id="mastermind.distributed.ResumeControllerProxy-mastermind.utils.TCPIP" style="stroke: #A80036; stroke-width: 1.0;"/><polygon fill="#A80036" points="825.342,1091.8308,824.5373,1082.0149,822.9448,1087.4429,817.5167,1085.8504,825.342,1091.8308" style="stroke: #A80036; stroke-width: 1.0;"/><line style="stroke: #A80036; stroke-width: 1.0;" x1="822.9448" x2="819.109" y1="1087.4429" y2="1080.4224"/><polygon fill="#A80036" points="750.164,954.23,749.5304,961.4132,755.9173,964.7609,756.551,957.5777,750.164,954.23" style="stroke: #A80036; stroke-width: 1.0;"/><!--link mastermind.controllers.SaveController to mastermind.distributed.SaveControllerProxy--><path d="M2027.24,432.302 C2021.72,479.608 2005.21,553.737 1956,592 C1851.09,673.57 1491.81,628.583 1361,652 C1204.17,680.075 1170.19,710.553 1014,742 C831.304,778.783 768.119,723.709 599,802 C580.459,810.583 562.673,822.975 546.737,836.282 " fill="none" id="mastermind.controllers.SaveController-mastermind.distributed.SaveControllerProxy" style="stroke: #A80036; stroke-width: 1.0;"/><polygon fill="none" points="2020.3,431.357,2029.12,412.093,2034.24,432.656,2020.3,431.357" style="stroke: #A80036; stroke-width: 1.0;"/><!--link mastermind.distributed.SaveControllerProxy to mastermind.utils.TCPIP--><path d="M542.174,991.666 C559.076,1009.525 578.422,1026.962 599,1040 C659.403,1078.2685 740.809,1098.3182 791.32,1107.7655 " fill="none" id="mastermind.distributed.SaveControllerProxy-mastermind.utils.TCPIP" style="stroke: #A80036; stroke-width: 1.0;"/><polygon fill="#A80036" points="804.394,1110.1025,796.2381,1104.5815,799.472,1109.2228,794.8306,1112.4567,804.394,1110.1025" style="stroke: #A80036; stroke-width: 1.0;"/><line style="stroke: #A80036; stroke-width: 1.0;" x1="799.472" x2="791.5965" y1="1109.2228" y2="1107.8149"/><polygon fill="#A80036" points="533.044,981.726,534.1569,988.8507,541.1616,990.5636,540.0487,983.4389,533.044,981.726" style="stroke: #A80036; stroke-width: 1.0;"/><!--link mastermind.models.Session to mastermind.distributed.SessionProxy--><path d="M1111.28,1084.9912 C1090.51,1072.5703 1067.56,1057.069 1049,1040 C1028.2,1020.867 1008.69,996.845 992.647,974.673 " fill="none" id="mastermind.models.Session-mastermind.distributed.SessionProxy" style="stroke: #A80036; stroke-width: 1.0;"/><polygon fill="none" points="1114.97,1079.0364,1128.82,1095.0757,1107.99,1091.1723,1114.97,1079.0364" style="stroke: #A80036; stroke-width: 1.0;"/><!--link mastermind.distributed.SessionProxy to mastermind.utils.TCPIP--><path d="M909.099,986.016 C891.281,1018.341 871.383,1054.438 857.179,1080.2068 " fill="none" id="mastermind.distributed.SessionProxy-mastermind.utils.TCPIP" style="stroke: #A80036; stroke-width: 1.0;"/><polygon fill="#A80036" points="850.889,1091.6165,858.7365,1085.6653,853.3026,1087.2376,851.7303,1081.8036,850.889,1091.6165" style="stroke: #A80036; stroke-width: 1.0;"/><line style="stroke: #A80036; stroke-width: 1.0;" x1="853.3026" x2="857.165" y1="1087.2376" y2="1080.2316"/><polygon fill="#A80036" points="915.401,974.582,909.0014,977.9054,909.6078,985.091,916.0074,981.7676,915.401,974.582" style="stroke: #A80036; stroke-width: 1.0;"/><!--link mastermind.controllers.StartController to mastermind.distributed.StartControllerProxy--><path d="M2343.53,432.357 C2337.41,478.825 2320.54,551.372 2274,592 C2105.24,739.334 1488.07,701.204 1288,802 C1276.7,807.691 1265.63,814.707 1255.06,822.398 " fill="none" id="mastermind.controllers.StartController-mastermind.distributed.StartControllerProxy" style="stroke: #A80036; stroke-width: 1.0;"/><polygon fill="none" points="2336.6,431.308,2345.72,412.183,2350.52,432.823,2336.6,431.308" style="stroke: #A80036; stroke-width: 1.0;"/><!--link mastermind.distributed.StartControllerProxy to mastermind.utils.TCPIP--><path d="M1091.33,1005.18 C1078.15,1018.015 1063.88,1030.135 1049,1040 C997.798,1073.9527 929.407,1094.5667 884.559,1105.372 " fill="none" id="mastermind.distributed.StartControllerProxy-mastermind.utils.TCPIP" style="stroke: #A80036; stroke-width: 1.0;"/><polygon fill="#A80036" points="871.724,1108.3515,881.3952,1110.2136,876.5946,1107.2213,879.5869,1102.4206,871.724,1108.3515" style="stroke: #A80036; stroke-width: 1.0;"/><line style="stroke: #A80036; stroke-width: 1.0;" x1="876.5946" x2="884.3875" y1="1107.2213" y2="1105.4119"/><polygon fill="#A80036" points="1100.72,995.73,1093.6539,997.1689,1092.2644,1004.2449,1099.3305,1002.806,1100.72,995.73" style="stroke: #A80036; stroke-width: 1.0;"/><!--link mastermind.distributed.StartControllerProxy to mastermind.models.Session--><path d="M1168,995.751 C1168,1028.188 1168,1062.925 1168,1086.4905 " fill="none" id="mastermind.distributed.StartControllerProxy-mastermind.models.Session" style="stroke: #A80036; stroke-width: 1.0; stroke-dasharray: 7.0,7.0;"/><polygon fill="#A80036" points="1168,1091.6399,1172,1082.6399,1168,1086.6399,1164,1082.6399,1168,1091.6399" style="stroke: #A80036; stroke-width: 1.0;"/><!--
@startuml

class  mastermind.distributed.FrameType{
+ {static} START: FrameType
+ {static} STATE: FrameType
+ {static} UNDO: FrameType
+ {static} REDO: FrameType
+ {static} UNDOABLE: FrameType
+ {static} REDOABLE: FrameType
+ {static} WINNER: FrameType
+ {static} LOOSER: FrameType
+ {static} TURN: FrameType
+ {static} ALLCODES: FrameType
+ {static} PROPOSECOMBINATION: FrameType
+ {static} WIDTH: FrameType
+ {static} RESUME: FrameType
+ {static} EXISTS: FrameType
+ {static} HAS_NAME: FrameType
+ {static} SAVE: FrameType
+ {static} NEXT: FrameType
+ {static} CLOSE: FrameType
+ {static} START_NAME: FrameType
+ {static} TITLES: FrameType
+ {static} GET_TITLE: FrameType
+ {static} SET_TITLE: FrameType
+ {static} SAVE_NAMED: FrameType
- FrameType()
+ {static} valueOf(String): FrameType
+ {static} parser(String): FrameType
}
mastermind.distributed.FrameType ..> mastermind.distributed.FrameType

class  mastermind.distributed.LogicImplementationServer{
+ LogicImplementationServer()
+ createDispatchers(DispatcherPrototype): void
}
mastermind.controllers.implementation.LogicImplementation <|-down- mastermind.distributed.LogicImplementationServer
mastermind.distributed.LogicImplementationServer ..> mastermind.distributed.dispatchers.DispatcherPrototype

class  mastermind.distributed.LogicProxy{
- tcpip: TCPIP
+ LogicProxy()
+ close(): void
}
mastermind.controllers.Logic <|-down- mastermind.distributed.LogicProxy
mastermind.distributed.LogicProxy *-down-> mastermind.utils.TCPIP
mastermind.distributed.LogicProxy *-down-> mastermind.distributed.SessionProxy
mastermind.distributed.LogicProxy *-down-> mastermind.distributed.StartControllerProxy
mastermind.distributed.LogicProxy *-down-> mastermind.distributed.PlayControllerProxy
mastermind.distributed.LogicProxy *-down-> mastermind.distributed.SaveControllerProxy
mastermind.distributed.LogicProxy *-down-> mastermind.distributed.ResumeControllerProxy

class  mastermind.distributed.MastermindClient{
- logicProxy: LogicProxy
+ MastermindClient()
+ {static} main(String[]): void
# createLogic(): Logic
# play(): void
}
mastermind.Mastermind <|-down- mastermind.distributed.MastermindClient
mastermind.distributed.MastermindClient *-down-> mastermind.distributed.LogicProxy

class  mastermind.distributed.MastermindServer{
- dispatcherPrototype: DispatcherPrototype
- logic: LogicImplementationServer
- MastermindServer()
+ {static} main(String[]): void
- serve(): void
}
mastermind.distributed.MastermindServer *-down-> mastermind.distributed.LogicImplementationServer
mastermind.distributed.MastermindServer *-down-> mastermind.distributed.dispatchers.DispatcherPrototype

class  mastermind.distributed.PlayControllerProxy{
- tcpip: TCPIP
~ PlayControllerProxy(TCPIP, Session)
+ next(): void
+ proposeCombination(int[]): int
+ redo(): void
+ getAllCodes(): int[][][]
+ undoable(): boolean
+ isWinner(): boolean
+ redoable(): boolean
+ isLooser(): boolean
+ getTurn(): int
+ undo(): void
}
mastermind.controllers.PlayController <|-down- mastermind.distributed.PlayControllerProxy
mastermind.distributed.PlayControllerProxy *-down-> mastermind.utils.TCPIP
mastermind.distributed.PlayControllerProxy ..> mastermind.models.Session

class  mastermind.distributed.ResumeControllerProxy{
- tcpip: TCPIP
~ ResumeControllerProxy(TCPIP, Session)
+ resume(boolean): void
}
mastermind.controllers.ResumeController <|-down- mastermind.distributed.ResumeControllerProxy
mastermind.distributed.ResumeControllerProxy *-down-> mastermind.utils.TCPIP

class  mastermind.distributed.SaveControllerProxy{
- tcpip: TCPIP
~ SaveControllerProxy(TCPIP, Session)
+ next(): void
+ save(): void
+ save(String): void
+ exists(String): boolean
+ hasName(): boolean
}
mastermind.controllers.SaveController <|-down- mastermind.distributed.SaveControllerProxy
mastermind.distributed.SaveControllerProxy *-down-> mastermind.utils.TCPIP

class  mastermind.distributed.SessionProxy{
- tcpip: TCPIP
~ SessionProxy(TCPIP)
+ getName(): String
+ setName(String): void
+ getWidth(): int
+ getValueState(): StateValue
}
mastermind.models.Session <|-down- mastermind.distributed.SessionProxy
mastermind.distributed.SessionProxy *-down-> mastermind.utils.TCPIP

class  mastermind.distributed.StartControllerProxy{
- tcpip: TCPIP
~ StartControllerProxy(Session, TCPIP)
+ start(String): void
+ start(): void
+ getGamesNames(): String[]
+ getAllCodes(): int[][][]
+ isWinner(): boolean
+ isLooser(): boolean
+ getTurn(): int
}
mastermind.controllers.StartController <|-down- mastermind.distributed.StartControllerProxy
mastermind.distributed.StartControllerProxy *-down-> mastermind.utils.TCPIP
mastermind.distributed.StartControllerProxy ..> mastermind.models.Session

@enduml

PlantUML version 1.2019.05(Sat Apr 20 18:45:36 CEST 2019)
(GPL source distribution)
Java Runtime: OpenJDK Runtime Environment
JVM: OpenJDK 64-Bit Server VM
Java Version: 1.8.0_222-b10
Operating System: Windows 10
OS Version: 10.0
Default Encoding: windows-1252
Language: es
Country: ES
--></g></svg>