<?xml version="1.0" encoding="UTF-8" standalone="no"?><svg xmlns="http://www.w3.org/2000/svg" xmlns:xlink="http://www.w3.org/1999/xlink" contentScriptType="application/ecmascript" contentStyleType="text/css" height="478px" preserveAspectRatio="none" style="width:1396px;height:478px;" version="1.1" viewBox="0 0 1396 478" width="1396px" zoomAndPan="magnify"><defs><filter height="300%" id="f1lhfl4gxsgp2d" width="300%" x="-1" y="-1"><feGaussianBlur result="blurOut" stdDeviation="2.0"/><feColorMatrix in="blurOut" result="blurOut2" type="matrix" values="0 0 0 0 0 0 0 0 0 0 0 0 0 0 0 0 0 0 .4 0"/><feOffset dx="4.0" dy="4.0" in="blurOut2" result="blurOut3"/><feBlend in="SourceGraphic" in2="blurOut3" mode="normal"/></filter></defs><g><!--cluster mastermind--><polygon fill="#FFFFFF" filter="url(#f1lhfl4gxsgp2d)" points="275,24,363,24,370,47.6094,609,47.6094,609,342,275,342,275,24" style="stroke: #000000; stroke-width: 1.5;"/><line style="stroke: #000000; stroke-width: 1.5;" x1="275" x2="370" y1="47.6094" y2="47.6094"/><text fill="#000000" font-family="sans-serif" font-size="14" font-weight="bold" lengthAdjust="spacingAndGlyphs" textLength="82" x="279" y="40.5332">mastermind</text><!--cluster mastermind.controllers--><polygon fill="#FFFFFF" filter="url(#f1lhfl4gxsgp2d)" points="22,366,191,366,198,389.6094,285,389.6094,285,466,22,466,22,366" style="stroke: #000000; stroke-width: 1.5;"/><line style="stroke: #000000; stroke-width: 1.5;" x1="22" x2="198" y1="389.6094" y2="389.6094"/><text fill="#000000" font-family="sans-serif" font-size="14" font-weight="bold" lengthAdjust="spacingAndGlyphs" textLength="163" x="26" y="382.5332">mastermind.controllers</text><!--cluster mastermind.views--><polygon fill="#FFFFFF" filter="url(#f1lhfl4gxsgp2d)" points="633,214.5,766,214.5,773,238.1094,776,238.1094,776,314.5,633,314.5,633,214.5" style="stroke: #000000; stroke-width: 1.5;"/><line style="stroke: #000000; stroke-width: 1.5;" x1="633" x2="773" y1="238.1094" y2="238.1094"/><text fill="#000000" font-family="sans-serif" font-size="14" font-weight="bold" lengthAdjust="spacingAndGlyphs" textLength="127" x="637" y="231.0332">mastermind.views</text><!--cluster mastermind.models.DAO--><polygon fill="#FFFFFF" filter="url(#f1lhfl4gxsgp2d)" points="309,366,486,366,493,389.6094,531,389.6094,531,466,309,466,309,366" style="stroke: #000000; stroke-width: 1.5;"/><line style="stroke: #000000; stroke-width: 1.5;" x1="309" x2="493" y1="389.6094" y2="389.6094"/><text fill="#000000" font-family="sans-serif" font-size="14" font-weight="bold" lengthAdjust="spacingAndGlyphs" textLength="171" x="313" y="382.5332">mastermind.models.DAO</text><!--cluster mastermind.models.Files--><polygon fill="#FFFFFF" filter="url(#f1lhfl4gxsgp2d)" points="555,366,736,366,743,389.6094,797,389.6094,797,466,555,466,555,366" style="stroke: #000000; stroke-width: 1.5;"/><line style="stroke: #000000; stroke-width: 1.5;" x1="555" x2="743" y1="389.6094" y2="389.6094"/><text fill="#000000" font-family="sans-serif" font-size="14" font-weight="bold" lengthAdjust="spacingAndGlyphs" textLength="175" x="559" y="382.5332">mastermind.models.Files</text><!--cluster mastermind.models.dataBase--><polygon fill="#FFFFFF" filter="url(#f1lhfl4gxsgp2d)" points="821,366,1033,366,1040,389.6094,1059,389.6094,1059,466,821,466,821,366" style="stroke: #000000; stroke-width: 1.5;"/><line style="stroke: #000000; stroke-width: 1.5;" x1="821" x2="1040" y1="389.6094" y2="389.6094"/><text fill="#000000" font-family="sans-serif" font-size="14" font-weight="bold" lengthAdjust="spacingAndGlyphs" textLength="206" x="825" y="382.5332">mastermind.models.dataBase</text><!--cluster mastermind.controllers.implementation--><polygon fill="#FFFFFF" filter="url(#f1lhfl4gxsgp2d)" points="1083,366,1364,366,1371,389.6094,1374,389.6094,1374,466,1083,466,1083,366" style="stroke: #000000; stroke-width: 1.5;"/><line style="stroke: #000000; stroke-width: 1.5;" x1="1083" x2="1371" y1="389.6094" y2="389.6094"/><text fill="#000000" font-family="sans-serif" font-size="14" font-weight="bold" lengthAdjust="spacingAndGlyphs" textLength="275" x="1087" y="382.5332">mastermind.controllers.implementation</text><!--class mastermind.Mastermind--><rect fill="#FEFECE" filter="url(#f1lhfl4gxsgp2d)" height="103.3438" id="mastermind.Mastermind" style="stroke: #A80036; stroke-width: 1.5;" width="96" x="342" y="60"/><ellipse cx="357" cy="76" fill="#A9DCDF" rx="11" ry="11" style="stroke: #A80036; stroke-width: 1.0;"/><path d="M359.1875,77.7656 L355.0469,77.7656 L354.625,78.7969 L355.0469,78.7969 Q355.6563,78.7969 355.9219,79.0313 Q356.1875,79.2656 356.1875,79.6563 Q356.1875,80.0313 355.9219,80.2656 Q355.6563,80.5 355.0469,80.5 L352.75,80.5 Q352.1406,80.5 351.8828,80.2656 Q351.625,80.0313 351.625,79.6406 Q351.625,79.2656 351.8984,79.0234 Q352.1719,78.7813 352.7969,78.7969 L355.4688,72.1406 L354.3594,72.1406 Q353.75,72.1406 353.4844,71.9063 Q353.2188,71.6719 353.2188,71.2813 Q353.2188,70.9063 353.4844,70.6719 Q353.75,70.4375 354.3594,70.4375 L358.0313,70.4375 L361.4219,78.7969 Q362.0156,78.7969 362.2031,78.9375 Q362.5938,79.2031 362.5938,79.6563 Q362.5938,80.0313 362.3359,80.2656 Q362.0781,80.5 361.4688,80.5 L359.1719,80.5 Q358.5625,80.5 358.2969,80.2656 Q358.0313,80.0313 358.0313,79.6406 Q358.0313,79.2656 358.2969,79.0313 Q358.5625,78.7969 359.1719,78.7969 L359.5938,78.7969 L359.1875,77.7656 Z M358.4688,76.0625 L357.1094,72.6875 L355.7344,76.0625 L358.4688,76.0625 Z "/><text fill="#000000" font-family="sans-serif" font-size="12" font-style="italic" lengthAdjust="spacingAndGlyphs" textLength="64" x="371" y="80.9102">Mastermind</text><line style="stroke: #A80036; stroke-width: 1.5;" x1="343" x2="437" y1="92" y2="92"/><polygon fill="none" points="353,99.418,357,103.418,353,107.418,349,103.418" style="stroke: #B38D22; stroke-width: 1.0;"/><text fill="#000000" font-family="sans-serif" font-size="11" lengthAdjust="spacingAndGlyphs" text-decoration="underline" textLength="51" x="362" y="107.4189">Logic logic</text><rect fill="none" height="6" style="stroke: #C82930; stroke-width: 1.0;" width="6" x="350" y="115.2539"/><text fill="#000000" font-family="sans-serif" font-size="11" lengthAdjust="spacingAndGlyphs" textLength="53" x="362" y="121.2549">View view</text><line style="stroke: #A80036; stroke-width: 1.5;" x1="343" x2="437" y1="127.6719" y2="127.6719"/><polygon fill="#FFFF44" points="353,135.0898,357,139.0898,353,143.0898,349,139.0898" style="stroke: #B38D22; stroke-width: 1.0;"/><text fill="#000000" font-family="sans-serif" font-size="11" lengthAdjust="spacingAndGlyphs" textLength="63" x="362" y="143.0908">Mastermind()</text><polygon fill="#FFFF44" points="353,148.9258,357,152.9258,353,156.9258,349,152.9258" style="stroke: #B38D22; stroke-width: 1.0;"/><text fill="#000000" font-family="sans-serif" font-size="11" lengthAdjust="spacingAndGlyphs" textLength="51" x="362" y="156.9268">void play()</text><!--class mastermind.MastermindStandalone--><rect fill="#FEFECE" filter="url(#f1lhfl4gxsgp2d)" height="103.3438" id="mastermind.MastermindStandalone" style="stroke: #A80036; stroke-width: 1.5;" width="301" x="291.5" y="223"/><ellipse cx="373.75" cy="239" fill="#ADD1B2" rx="11" ry="11" style="stroke: #A80036; stroke-width: 1.0;"/><path d="M376.5156,234.875 Q376.6719,234.6563 376.8594,234.5469 Q377.0469,234.4375 377.2656,234.4375 Q377.6406,234.4375 377.875,234.6953 Q378.1094,234.9531 378.1094,235.5625 L378.1094,237.0156 Q378.1094,237.625 377.875,237.8906 Q377.6406,238.1563 377.2656,238.1563 Q376.9219,238.1563 376.7188,237.9531 Q376.5156,237.7656 376.4063,237.25 Q376.3594,236.8906 376.1719,236.7031 Q375.8438,236.3281 375.2344,236.1094 Q374.625,235.8906 374,235.8906 Q373.2344,235.8906 372.6016,236.2188 Q371.9688,236.5469 371.4766,237.2969 Q370.9844,238.0469 370.9844,239.0781 L370.9844,240.1719 Q370.9844,241.4063 371.875,242.2266 Q372.7656,243.0469 374.3594,243.0469 Q375.2969,243.0469 375.9531,242.7969 Q376.3438,242.6406 376.7656,242.2031 Q377.0313,241.9375 377.1797,241.8594 Q377.3281,241.7813 377.5313,241.7813 Q377.8594,241.7813 378.1172,242.0391 Q378.375,242.2969 378.375,242.6406 Q378.375,242.9844 378.0313,243.3906 Q377.5313,243.9688 376.7344,244.2969 Q375.6563,244.75 374.3594,244.75 Q372.8438,244.75 371.6406,244.125 Q370.6563,243.625 369.9688,242.5547 Q369.2813,241.4844 369.2813,240.2031 L369.2813,239.0469 Q369.2813,237.7188 369.8984,236.5703 Q370.5156,235.4219 371.6094,234.8047 Q372.7031,234.1875 373.9375,234.1875 Q374.6719,234.1875 375.3203,234.3516 Q375.9688,234.5156 376.5156,234.875 Z "/><text fill="#000000" font-family="sans-serif" font-size="12" lengthAdjust="spacingAndGlyphs" textLength="128" x="394.25" y="243.9102">MastermindStandalone</text><line style="stroke: #A80036; stroke-width: 1.5;" x1="292.5" x2="591.5" y1="255" y2="255"/><rect fill="none" height="6" style="stroke: #C82930; stroke-width: 1.0;" width="6" x="299.5" y="264.418"/><text fill="#000000" font-family="sans-serif" font-size="11" lengthAdjust="spacingAndGlyphs" text-decoration="underline" textLength="275" x="311.5" y="270.4189">Map&lt;String,SessionImplementationDAO&gt; sessionDaoMap</text><rect fill="none" height="6" style="stroke: #C82930; stroke-width: 1.0;" width="6" x="299.5" y="278.2539"/><text fill="#000000" font-family="sans-serif" font-size="11" lengthAdjust="spacingAndGlyphs" text-decoration="underline" textLength="153" x="311.5" y="284.2549">Map&lt;String,Logic&gt; logicDaoMap</text><line style="stroke: #A80036; stroke-width: 1.5;" x1="292.5" x2="591.5" y1="290.6719" y2="290.6719"/><ellipse cx="302.5" cy="303.0898" fill="#84BE84" rx="3" ry="3" style="stroke: #038048; stroke-width: 1.0;"/><text fill="#000000" font-family="sans-serif" font-size="11" lengthAdjust="spacingAndGlyphs" textLength="117" x="311.5" y="306.0908">MastermindStandalone()</text><ellipse cx="302.5" cy="316.9258" fill="#84BE84" rx="3" ry="3" style="stroke: #038048; stroke-width: 1.0;"/><text fill="#000000" font-family="sans-serif" font-size="11" lengthAdjust="spacingAndGlyphs" text-decoration="underline" textLength="112" x="311.5" y="319.9268">void main(String[] args)</text><!--class mastermind.controllers.Logic--><rect fill="#FEFECE" filter="url(#f1lhfl4gxsgp2d)" height="48" id="mastermind.controllers.Logic" style="stroke: #A80036; stroke-width: 1.5;" width="62" x="207" y="402"/><ellipse cx="222" cy="418" fill="#ADD1B2" rx="11" ry="11" style="stroke: #A80036; stroke-width: 1.0;"/><path d="M224.7656,413.875 Q224.9219,413.6563 225.1094,413.5469 Q225.2969,413.4375 225.5156,413.4375 Q225.8906,413.4375 226.125,413.6953 Q226.3594,413.9531 226.3594,414.5625 L226.3594,416.0156 Q226.3594,416.625 226.125,416.8906 Q225.8906,417.1563 225.5156,417.1563 Q225.1719,417.1563 224.9688,416.9531 Q224.7656,416.7656 224.6563,416.25 Q224.6094,415.8906 224.4219,415.7031 Q224.0938,415.3281 223.4844,415.1094 Q222.875,414.8906 222.25,414.8906 Q221.4844,414.8906 220.8516,415.2188 Q220.2188,415.5469 219.7266,416.2969 Q219.2344,417.0469 219.2344,418.0781 L219.2344,419.1719 Q219.2344,420.4063 220.125,421.2266 Q221.0156,422.0469 222.6094,422.0469 Q223.5469,422.0469 224.2031,421.7969 Q224.5938,421.6406 225.0156,421.2031 Q225.2813,420.9375 225.4297,420.8594 Q225.5781,420.7813 225.7813,420.7813 Q226.1094,420.7813 226.3672,421.0391 Q226.625,421.2969 226.625,421.6406 Q226.625,421.9844 226.2813,422.3906 Q225.7813,422.9688 224.9844,423.2969 Q223.9063,423.75 222.6094,423.75 Q221.0938,423.75 219.8906,423.125 Q218.9063,422.625 218.2188,421.5547 Q217.5313,420.4844 217.5313,419.2031 L217.5313,418.0469 Q217.5313,416.7188 218.1484,415.5703 Q218.7656,414.4219 219.8594,413.8047 Q220.9531,413.1875 222.1875,413.1875 Q222.9219,413.1875 223.5703,413.3516 Q224.2188,413.5156 224.7656,413.875 Z "/><text fill="#000000" font-family="sans-serif" font-size="12" lengthAdjust="spacingAndGlyphs" textLength="30" x="236" y="422.9102">Logic</text><line style="stroke: #A80036; stroke-width: 1.5;" x1="208" x2="268" y1="434" y2="434"/><line style="stroke: #A80036; stroke-width: 1.5;" x1="208" x2="268" y1="442" y2="442"/><!--class mastermind.controllers.AcceptorController--><rect fill="#FEFECE" filter="url(#f1lhfl4gxsgp2d)" height="48" id="mastermind.controllers.AcceptorController" style="stroke: #A80036; stroke-width: 1.5;" width="133" x="38.5" y="402"/><ellipse cx="53.5" cy="418" fill="#ADD1B2" rx="11" ry="11" style="stroke: #A80036; stroke-width: 1.0;"/><path d="M56.2656,413.875 Q56.4219,413.6563 56.6094,413.5469 Q56.7969,413.4375 57.0156,413.4375 Q57.3906,413.4375 57.625,413.6953 Q57.8594,413.9531 57.8594,414.5625 L57.8594,416.0156 Q57.8594,416.625 57.625,416.8906 Q57.3906,417.1563 57.0156,417.1563 Q56.6719,417.1563 56.4688,416.9531 Q56.2656,416.7656 56.1563,416.25 Q56.1094,415.8906 55.9219,415.7031 Q55.5938,415.3281 54.9844,415.1094 Q54.375,414.8906 53.75,414.8906 Q52.9844,414.8906 52.3516,415.2188 Q51.7188,415.5469 51.2266,416.2969 Q50.7344,417.0469 50.7344,418.0781 L50.7344,419.1719 Q50.7344,420.4063 51.625,421.2266 Q52.5156,422.0469 54.1094,422.0469 Q55.0469,422.0469 55.7031,421.7969 Q56.0938,421.6406 56.5156,421.2031 Q56.7813,420.9375 56.9297,420.8594 Q57.0781,420.7813 57.2813,420.7813 Q57.6094,420.7813 57.8672,421.0391 Q58.125,421.2969 58.125,421.6406 Q58.125,421.9844 57.7813,422.3906 Q57.2813,422.9688 56.4844,423.2969 Q55.4063,423.75 54.1094,423.75 Q52.5938,423.75 51.3906,423.125 Q50.4063,422.625 49.7188,421.5547 Q49.0313,420.4844 49.0313,419.2031 L49.0313,418.0469 Q49.0313,416.7188 49.6484,415.5703 Q50.2656,414.4219 51.3594,413.8047 Q52.4531,413.1875 53.6875,413.1875 Q54.4219,413.1875 55.0703,413.3516 Q55.7188,413.5156 56.2656,413.875 Z "/><text fill="#000000" font-family="sans-serif" font-size="12" lengthAdjust="spacingAndGlyphs" textLength="101" x="67.5" y="422.9102">AcceptorController</text><line style="stroke: #A80036; stroke-width: 1.5;" x1="39.5" x2="170.5" y1="434" y2="434"/><line style="stroke: #A80036; stroke-width: 1.5;" x1="39.5" x2="170.5" y1="442" y2="442"/><!--class mastermind.views.View--><rect fill="#FEFECE" filter="url(#f1lhfl4gxsgp2d)" height="48" id="mastermind.views.View" style="stroke: #A80036; stroke-width: 1.5;" width="58" x="649" y="250.5"/><ellipse cx="664" cy="266.5" fill="#ADD1B2" rx="11" ry="11" style="stroke: #A80036; stroke-width: 1.0;"/><path d="M666.7656,262.375 Q666.9219,262.1563 667.1094,262.0469 Q667.2969,261.9375 667.5156,261.9375 Q667.8906,261.9375 668.125,262.1953 Q668.3594,262.4531 668.3594,263.0625 L668.3594,264.5156 Q668.3594,265.125 668.125,265.3906 Q667.8906,265.6563 667.5156,265.6563 Q667.1719,265.6563 666.9688,265.4531 Q666.7656,265.2656 666.6563,264.75 Q666.6094,264.3906 666.4219,264.2031 Q666.0938,263.8281 665.4844,263.6094 Q664.875,263.3906 664.25,263.3906 Q663.4844,263.3906 662.8516,263.7188 Q662.2188,264.0469 661.7266,264.7969 Q661.2344,265.5469 661.2344,266.5781 L661.2344,267.6719 Q661.2344,268.9063 662.125,269.7266 Q663.0156,270.5469 664.6094,270.5469 Q665.5469,270.5469 666.2031,270.2969 Q666.5938,270.1406 667.0156,269.7031 Q667.2813,269.4375 667.4297,269.3594 Q667.5781,269.2813 667.7813,269.2813 Q668.1094,269.2813 668.3672,269.5391 Q668.625,269.7969 668.625,270.1406 Q668.625,270.4844 668.2813,270.8906 Q667.7813,271.4688 666.9844,271.7969 Q665.9063,272.25 664.6094,272.25 Q663.0938,272.25 661.8906,271.625 Q660.9063,271.125 660.2188,270.0547 Q659.5313,268.9844 659.5313,267.7031 L659.5313,266.5469 Q659.5313,265.2188 660.1484,264.0703 Q660.7656,262.9219 661.8594,262.3047 Q662.9531,261.6875 664.1875,261.6875 Q664.9219,261.6875 665.5703,261.8516 Q666.2188,262.0156 666.7656,262.375 Z "/><text fill="#000000" font-family="sans-serif" font-size="12" lengthAdjust="spacingAndGlyphs" textLength="26" x="678" y="271.4102">View</text><line style="stroke: #A80036; stroke-width: 1.5;" x1="650" x2="706" y1="282.5" y2="282.5"/><line style="stroke: #A80036; stroke-width: 1.5;" x1="650" x2="706" y1="290.5" y2="290.5"/><!--class mastermind.models.DAO.SessionImplementationDAO--><rect fill="#FEFECE" filter="url(#f1lhfl4gxsgp2d)" height="48" id="mastermind.models.DAO.SessionImplementationDAO" style="stroke: #A80036; stroke-width: 1.5;" width="189" x="325.5" y="402"/><ellipse cx="340.5" cy="418" fill="#ADD1B2" rx="11" ry="11" style="stroke: #A80036; stroke-width: 1.0;"/><path d="M343.2656,413.875 Q343.4219,413.6563 343.6094,413.5469 Q343.7969,413.4375 344.0156,413.4375 Q344.3906,413.4375 344.625,413.6953 Q344.8594,413.9531 344.8594,414.5625 L344.8594,416.0156 Q344.8594,416.625 344.625,416.8906 Q344.3906,417.1563 344.0156,417.1563 Q343.6719,417.1563 343.4688,416.9531 Q343.2656,416.7656 343.1563,416.25 Q343.1094,415.8906 342.9219,415.7031 Q342.5938,415.3281 341.9844,415.1094 Q341.375,414.8906 340.75,414.8906 Q339.9844,414.8906 339.3516,415.2188 Q338.7188,415.5469 338.2266,416.2969 Q337.7344,417.0469 337.7344,418.0781 L337.7344,419.1719 Q337.7344,420.4063 338.625,421.2266 Q339.5156,422.0469 341.1094,422.0469 Q342.0469,422.0469 342.7031,421.7969 Q343.0938,421.6406 343.5156,421.2031 Q343.7813,420.9375 343.9297,420.8594 Q344.0781,420.7813 344.2813,420.7813 Q344.6094,420.7813 344.8672,421.0391 Q345.125,421.2969 345.125,421.6406 Q345.125,421.9844 344.7813,422.3906 Q344.2813,422.9688 343.4844,423.2969 Q342.4063,423.75 341.1094,423.75 Q339.5938,423.75 338.3906,423.125 Q337.4063,422.625 336.7188,421.5547 Q336.0313,420.4844 336.0313,419.2031 L336.0313,418.0469 Q336.0313,416.7188 336.6484,415.5703 Q337.2656,414.4219 338.3594,413.8047 Q339.4531,413.1875 340.6875,413.1875 Q341.4219,413.1875 342.0703,413.3516 Q342.7188,413.5156 343.2656,413.875 Z "/><text fill="#000000" font-family="sans-serif" font-size="12" lengthAdjust="spacingAndGlyphs" textLength="157" x="354.5" y="422.9102">SessionImplementationDAO</text><line style="stroke: #A80036; stroke-width: 1.5;" x1="326.5" x2="513.5" y1="434" y2="434"/><line style="stroke: #A80036; stroke-width: 1.5;" x1="326.5" x2="513.5" y1="442" y2="442"/><!--class mastermind.models.Files.SessionImplementationFileDAO--><rect fill="#FEFECE" filter="url(#f1lhfl4gxsgp2d)" height="48" id="mastermind.models.Files.SessionImplementationFileDAO" style="stroke: #A80036; stroke-width: 1.5;" width="209" x="571.5" y="402"/><ellipse cx="586.5" cy="418" fill="#ADD1B2" rx="11" ry="11" style="stroke: #A80036; stroke-width: 1.0;"/><path d="M589.2656,413.875 Q589.4219,413.6563 589.6094,413.5469 Q589.7969,413.4375 590.0156,413.4375 Q590.3906,413.4375 590.625,413.6953 Q590.8594,413.9531 590.8594,414.5625 L590.8594,416.0156 Q590.8594,416.625 590.625,416.8906 Q590.3906,417.1563 590.0156,417.1563 Q589.6719,417.1563 589.4688,416.9531 Q589.2656,416.7656 589.1563,416.25 Q589.1094,415.8906 588.9219,415.7031 Q588.5938,415.3281 587.9844,415.1094 Q587.375,414.8906 586.75,414.8906 Q585.9844,414.8906 585.3516,415.2188 Q584.7188,415.5469 584.2266,416.2969 Q583.7344,417.0469 583.7344,418.0781 L583.7344,419.1719 Q583.7344,420.4063 584.625,421.2266 Q585.5156,422.0469 587.1094,422.0469 Q588.0469,422.0469 588.7031,421.7969 Q589.0938,421.6406 589.5156,421.2031 Q589.7813,420.9375 589.9297,420.8594 Q590.0781,420.7813 590.2813,420.7813 Q590.6094,420.7813 590.8672,421.0391 Q591.125,421.2969 591.125,421.6406 Q591.125,421.9844 590.7813,422.3906 Q590.2813,422.9688 589.4844,423.2969 Q588.4063,423.75 587.1094,423.75 Q585.5938,423.75 584.3906,423.125 Q583.4063,422.625 582.7188,421.5547 Q582.0313,420.4844 582.0313,419.2031 L582.0313,418.0469 Q582.0313,416.7188 582.6484,415.5703 Q583.2656,414.4219 584.3594,413.8047 Q585.4531,413.1875 586.6875,413.1875 Q587.4219,413.1875 588.0703,413.3516 Q588.7188,413.5156 589.2656,413.875 Z "/><text fill="#000000" font-family="sans-serif" font-size="12" lengthAdjust="spacingAndGlyphs" textLength="177" x="600.5" y="422.9102">SessionImplementationFileDAO</text><line style="stroke: #A80036; stroke-width: 1.5;" x1="572.5" x2="779.5" y1="434" y2="434"/><line style="stroke: #A80036; stroke-width: 1.5;" x1="572.5" x2="779.5" y1="442" y2="442"/><!--class mastermind.models.dataBase.SessionImplementationDBDAO--><rect fill="#FEFECE" filter="url(#f1lhfl4gxsgp2d)" height="48" id="mastermind.models.dataBase.SessionImplementationDBDAO" style="stroke: #A80036; stroke-width: 1.5;" width="206" x="837" y="402"/><ellipse cx="852" cy="418" fill="#ADD1B2" rx="11" ry="11" style="stroke: #A80036; stroke-width: 1.0;"/><path d="M854.7656,413.875 Q854.9219,413.6563 855.1094,413.5469 Q855.2969,413.4375 855.5156,413.4375 Q855.8906,413.4375 856.125,413.6953 Q856.3594,413.9531 856.3594,414.5625 L856.3594,416.0156 Q856.3594,416.625 856.125,416.8906 Q855.8906,417.1563 855.5156,417.1563 Q855.1719,417.1563 854.9688,416.9531 Q854.7656,416.7656 854.6563,416.25 Q854.6094,415.8906 854.4219,415.7031 Q854.0938,415.3281 853.4844,415.1094 Q852.875,414.8906 852.25,414.8906 Q851.4844,414.8906 850.8516,415.2188 Q850.2188,415.5469 849.7266,416.2969 Q849.2344,417.0469 849.2344,418.0781 L849.2344,419.1719 Q849.2344,420.4063 850.125,421.2266 Q851.0156,422.0469 852.6094,422.0469 Q853.5469,422.0469 854.2031,421.7969 Q854.5938,421.6406 855.0156,421.2031 Q855.2813,420.9375 855.4297,420.8594 Q855.5781,420.7813 855.7813,420.7813 Q856.1094,420.7813 856.3672,421.0391 Q856.625,421.2969 856.625,421.6406 Q856.625,421.9844 856.2813,422.3906 Q855.7813,422.9688 854.9844,423.2969 Q853.9063,423.75 852.6094,423.75 Q851.0938,423.75 849.8906,423.125 Q848.9063,422.625 848.2188,421.5547 Q847.5313,420.4844 847.5313,419.2031 L847.5313,418.0469 Q847.5313,416.7188 848.1484,415.5703 Q848.7656,414.4219 849.8594,413.8047 Q850.9531,413.1875 852.1875,413.1875 Q852.9219,413.1875 853.5703,413.3516 Q854.2188,413.5156 854.7656,413.875 Z "/><text fill="#000000" font-family="sans-serif" font-size="12" lengthAdjust="spacingAndGlyphs" textLength="174" x="866" y="422.9102">SessionImplementationDBDAO</text><line style="stroke: #A80036; stroke-width: 1.5;" x1="838" x2="1042" y1="434" y2="434"/><line style="stroke: #A80036; stroke-width: 1.5;" x1="838" x2="1042" y1="442" y2="442"/><!--class mastermind.controllers.implementation.LogicImplementation--><rect fill="#FEFECE" filter="url(#f1lhfl4gxsgp2d)" height="48" id="mastermind.controllers.implementation.LogicImplementation" style="stroke: #A80036; stroke-width: 1.5;" width="148" x="1099" y="402"/><ellipse cx="1114" cy="418" fill="#ADD1B2" rx="11" ry="11" style="stroke: #A80036; stroke-width: 1.0;"/><path d="M1116.7656,413.875 Q1116.9219,413.6563 1117.1094,413.5469 Q1117.2969,413.4375 1117.5156,413.4375 Q1117.8906,413.4375 1118.125,413.6953 Q1118.3594,413.9531 1118.3594,414.5625 L1118.3594,416.0156 Q1118.3594,416.625 1118.125,416.8906 Q1117.8906,417.1563 1117.5156,417.1563 Q1117.1719,417.1563 1116.9688,416.9531 Q1116.7656,416.7656 1116.6563,416.25 Q1116.6094,415.8906 1116.4219,415.7031 Q1116.0938,415.3281 1115.4844,415.1094 Q1114.875,414.8906 1114.25,414.8906 Q1113.4844,414.8906 1112.8516,415.2188 Q1112.2188,415.5469 1111.7266,416.2969 Q1111.2344,417.0469 1111.2344,418.0781 L1111.2344,419.1719 Q1111.2344,420.4063 1112.125,421.2266 Q1113.0156,422.0469 1114.6094,422.0469 Q1115.5469,422.0469 1116.2031,421.7969 Q1116.5938,421.6406 1117.0156,421.2031 Q1117.2813,420.9375 1117.4297,420.8594 Q1117.5781,420.7813 1117.7813,420.7813 Q1118.1094,420.7813 1118.3672,421.0391 Q1118.625,421.2969 1118.625,421.6406 Q1118.625,421.9844 1118.2813,422.3906 Q1117.7813,422.9688 1116.9844,423.2969 Q1115.9063,423.75 1114.6094,423.75 Q1113.0938,423.75 1111.8906,423.125 Q1110.9063,422.625 1110.2188,421.5547 Q1109.5313,420.4844 1109.5313,419.2031 L1109.5313,418.0469 Q1109.5313,416.7188 1110.1484,415.5703 Q1110.7656,414.4219 1111.8594,413.8047 Q1112.9531,413.1875 1114.1875,413.1875 Q1114.9219,413.1875 1115.5703,413.3516 Q1116.2188,413.5156 1116.7656,413.875 Z "/><text fill="#000000" font-family="sans-serif" font-size="12" lengthAdjust="spacingAndGlyphs" textLength="116" x="1128" y="422.9102">LogicImplementation</text><line style="stroke: #A80036; stroke-width: 1.5;" x1="1100" x2="1246" y1="434" y2="434"/><line style="stroke: #A80036; stroke-width: 1.5;" x1="1100" x2="1246" y1="442" y2="442"/><!--link mastermind.Mastermind to mastermind.controllers.Logic--><path d="M331.205,147.185 C309.922,162.68 287.762,182.824 274,206.5 C240.645,263.883 235.906,343.241 236.356,388.8379 " fill="none" id="mastermind.Mastermind-mastermind.controllers.Logic" style="stroke: #A80036; stroke-width: 1.0;"/><polygon fill="#A80036" points="236.636,401.8432,240.441,392.7591,236.5282,396.8444,232.4429,392.9315,236.636,401.8432" style="stroke: #A80036; stroke-width: 1.0;"/><line style="stroke: #A80036; stroke-width: 1.0;" x1="236.5282" x2="236.356" y1="396.8444" y2="388.8462"/><polygon fill="#A80036" points="341.872,139.735,334.6626,139.8913,332.034,146.6062,339.2434,146.4499,341.872,139.735" style="stroke: #A80036; stroke-width: 1.0;"/><!--link mastermind.Mastermind to mastermind.views.View--><path d="M450.644,131.766 C496.363,147.849 559.44,173.456 609,206.5 C623.435,216.125 637.519,228.974 649.16,240.845 " fill="none" id="mastermind.Mastermind-mastermind.views.View" style="stroke: #A80036; stroke-width: 1.0;"/><polygon fill="#A80036" points="658.317,250.494,655.0234,241.2122,654.8753,246.8671,649.2203,246.719,658.317,250.494" style="stroke: #A80036; stroke-width: 1.0;"/><line style="stroke: #A80036; stroke-width: 1.0;" x1="654.8753" x2="649.3675" y1="246.8671" y2="241.064"/><polygon fill="#A80036" points="438.235,127.484,442.6024,133.2221,449.5789,131.3976,445.2115,125.6595,438.235,127.484" style="stroke: #A80036; stroke-width: 1.0;"/><!--link mastermind.Mastermind to mastermind.controllers.AcceptorController--><path d="M341.843,132.635 C307.551,148.781 262.048,174.08 230,206.5 C173.232,263.926 133.294,352.279 115.463,397.0016 " fill="none" id="mastermind.Mastermind-mastermind.controllers.AcceptorController" style="stroke: #A80036; stroke-width: 1.0; stroke-dasharray: 7.0,7.0;"/><polygon fill="#A80036" points="113.602,401.7129,120.6288,394.8119,115.439,397.0626,113.1883,391.8727,113.602,401.7129" style="stroke: #A80036; stroke-width: 1.0;"/><!--link mastermind.Mastermind to mastermind.MastermindStandalone--><path d="M412.694,182.764 C417.055,196.266 421.542,210.159 425.654,222.89 " fill="none" id="mastermind.Mastermind-mastermind.MastermindStandalone" style="stroke: #A80036; stroke-width: 1.0;"/><polygon fill="none" points="405.939,184.625,406.453,163.441,419.261,180.322,405.939,184.625" style="stroke: #A80036; stroke-width: 1.0;"/><!--link mastermind.MastermindStandalone to mastermind.controllers.Logic--><path d="M343.8,333.265 C331.828,341.22 319.964,349.564 309,358 C295.463,368.416 281.58,381.015 269.723,392.4631 " fill="none" id="mastermind.MastermindStandalone-mastermind.controllers.Logic" style="stroke: #A80036; stroke-width: 1.0;"/><polygon fill="#A80036" points="260.29,401.7362,269.5121,398.2788,263.8554,398.2308,263.9034,392.5741,260.29,401.7362" style="stroke: #A80036; stroke-width: 1.0;"/><line style="stroke: #A80036; stroke-width: 1.0;" x1="263.8554" x2="269.561" y1="398.2308" y2="392.6223"/><polygon fill="#A80036" points="354.802,326.078,347.5912,326.011,344.7559,332.6413,351.9667,332.7083,354.802,326.078" style="stroke: #A80036; stroke-width: 1.0;"/><!--link mastermind.MastermindStandalone to mastermind.models.DAO.SessionImplementationDAO--><path d="M432.658,338.985 C430.179,355.832 427.584,373.461 425.395,388.3415 " fill="none" id="mastermind.MastermindStandalone-mastermind.models.DAO.SessionImplementationDAO" style="stroke: #A80036; stroke-width: 1.0;"/><polygon fill="#A80036" points="423.436,401.6509,428.7038,393.3292,424.164,396.7042,420.7891,392.1644,423.436,401.6509" style="stroke: #A80036; stroke-width: 1.0;"/><line style="stroke: #A80036; stroke-width: 1.0;" x1="424.164" x2="425.3285" y1="396.7042" y2="388.7894"/><polygon fill="#A80036" points="434.552,326.114,429.721,331.4676,432.8047,337.9861,437.6357,332.6325,434.552,326.114" style="stroke: #A80036; stroke-width: 1.0;"/><!--link mastermind.MastermindStandalone to mastermind.models.Files.SessionImplementationFileDAO--><path d="M521.222,326.114 C559.513,350.578 603.851,378.905 635.233,398.9542 " fill="none" id="mastermind.MastermindStandalone-mastermind.models.Files.SessionImplementationFileDAO" style="stroke: #A80036; stroke-width: 1.0; stroke-dasharray: 7.0,7.0;"/><polygon fill="#A80036" points="639.766,401.8507,634.3346,393.6349,635.5523,399.1591,630.0281,400.3768,639.766,401.8507" style="stroke: #A80036; stroke-width: 1.0;"/><!--link mastermind.MastermindStandalone to mastermind.models.dataBase.SessionImplementationDBDAO--><path d="M553.765,326.015 C579.327,335.609 606.72,344.39 633,350 C704.367,365.235 726.176,340.409 797,358 C832.214,366.746 869.236,384.3556 896.786,399.3266 " fill="none" id="mastermind.MastermindStandalone-mastermind.models.dataBase.SessionImplementationDBDAO" style="stroke: #A80036; stroke-width: 1.0; stroke-dasharray: 7.0,7.0;"/><polygon fill="#A80036" points="901.471,401.8962,895.5054,394.0596,897.0877,399.4907,891.6566,401.073,901.471,401.8962" style="stroke: #A80036; stroke-width: 1.0;"/><!--link mastermind.MastermindStandalone to mastermind.controllers.implementation.LogicImplementation--><path d="M552.123,326.032 C578.123,335.821 606.115,344.68 633,350 C679.441,359.189 1013.44,345.142 1059,358 C1088.21,366.242 1117.65,383.8363 1139.29,398.927 " fill="none" id="mastermind.MastermindStandalone-mastermind.controllers.implementation.LogicImplementation" style="stroke: #A80036; stroke-width: 1.0; stroke-dasharray: 7.0,7.0;"/><polygon fill="#A80036" points="1143.51,401.9083,1138.4675,393.4482,1139.4263,399.0232,1133.8513,399.9821,1143.51,401.9083" style="stroke: #A80036; stroke-width: 1.0;"/><!--
@startuml
abstract class mastermind.Mastermind {
	#{static}Logic logic
	-View view
	#Mastermind()
	#void play()
}
mastermind.Mastermind *-down-> mastermind.controllers.Logic
mastermind.Mastermind *-down-> mastermind.views.View
mastermind.Mastermind ..> mastermind.controllers.AcceptorController

class mastermind.MastermindStandalone {
	-{static}Map<String,SessionImplementationDAO> sessionDaoMap
	-{static}Map<String,Logic> logicDaoMap
	+MastermindStandalone()
	+{static}void main(String[] args)
}
mastermind.Mastermind <|-down- mastermind.MastermindStandalone
mastermind.MastermindStandalone *-down-> mastermind.controllers.Logic
mastermind.MastermindStandalone *-down-> mastermind.models.DAO.SessionImplementationDAO
mastermind.MastermindStandalone ..> mastermind.models.Files.SessionImplementationFileDAO
mastermind.MastermindStandalone ..> mastermind.models.dataBase.SessionImplementationDBDAO
mastermind.MastermindStandalone ..> mastermind.controllers.implementation.LogicImplementation
@enduml

PlantUML version 1.2019.05(Sat Apr 20 18:45:36 CEST 2019)
(GPL source distribution)
Java Runtime: OpenJDK Runtime Environment
JVM: OpenJDK 64-Bit Server VM
Java Version: 1.8.0_222-b10
Operating System: Windows 10
OS Version: 10.0
Default Encoding: windows-1252
Language: es
Country: ES
--></g></svg>