<?xml version="1.0" encoding="UTF-8" standalone="no"?><svg xmlns="http://www.w3.org/2000/svg" xmlns:xlink="http://www.w3.org/1999/xlink" contentScriptType="application/ecmascript" contentStyleType="text/css" height="514px" preserveAspectRatio="none" style="width:1848px;height:514px;" version="1.1" viewBox="0 0 1848 514" width="1848px" zoomAndPan="magnify"><defs><filter height="300%" id="fcunxtpi26oon" width="300%" x="-1" y="-1"><feGaussianBlur result="blurOut" stdDeviation="2.0"/><feColorMatrix in="blurOut" result="blurOut2" type="matrix" values="0 0 0 0 0 0 0 0 0 0 0 0 0 0 0 0 0 0 .4 0"/><feOffset dx="4.0" dy="4.0" in="blurOut2" result="blurOut3"/><feBlend in="SourceGraphic" in2="blurOut3" mode="normal"/></filter></defs><g><!--cluster mastermind.controllers.implementation--><polygon fill="#FFFFFF" filter="url(#fcunxtpi26oon)" points="22,59,303,59,310,82.6094,774,82.6094,774,502,22,502,22,59" style="stroke: #000000; stroke-width: 1.5;"/><line style="stroke: #000000; stroke-width: 1.5;" x1="22" x2="310" y1="82.6094" y2="82.6094"/><text fill="#000000" font-family="sans-serif" font-size="14" font-weight="bold" lengthAdjust="spacingAndGlyphs" textLength="275" x="26" y="75.5332">mastermind.controllers.implementation</text><!--cluster mastermind.controllers--><polygon fill="#FFFFFF" filter="url(#fcunxtpi26oon)" points="798,86.5,967,86.5,974,110.1094,1826,110.1094,1826,186.5,798,186.5,798,86.5" style="stroke: #000000; stroke-width: 1.5;"/><line style="stroke: #000000; stroke-width: 1.5;" x1="798" x2="974" y1="110.1094" y2="110.1094"/><text fill="#000000" font-family="sans-serif" font-size="14" font-weight="bold" lengthAdjust="spacingAndGlyphs" textLength="163" x="802" y="103.0332">mastermind.controllers</text><!--class mastermind.controllers.implementation.LogicImplementation--><rect fill="#FEFECE" filter="url(#fcunxtpi26oon)" height="103.3438" id="mastermind.controllers.implementation.LogicImplementation" style="stroke: #A80036; stroke-width: 1.5;" width="339" x="323.5" y="95"/><ellipse cx="430.75" cy="111" fill="#ADD1B2" rx="11" ry="11" style="stroke: #A80036; stroke-width: 1.0;"/><path d="M433.5156,106.875 Q433.6719,106.6563 433.8594,106.5469 Q434.0469,106.4375 434.2656,106.4375 Q434.6406,106.4375 434.875,106.6953 Q435.1094,106.9531 435.1094,107.5625 L435.1094,109.0156 Q435.1094,109.625 434.875,109.8906 Q434.6406,110.1563 434.2656,110.1563 Q433.9219,110.1563 433.7188,109.9531 Q433.5156,109.7656 433.4063,109.25 Q433.3594,108.8906 433.1719,108.7031 Q432.8438,108.3281 432.2344,108.1094 Q431.625,107.8906 431,107.8906 Q430.2344,107.8906 429.6016,108.2188 Q428.9688,108.5469 428.4766,109.2969 Q427.9844,110.0469 427.9844,111.0781 L427.9844,112.1719 Q427.9844,113.4063 428.875,114.2266 Q429.7656,115.0469 431.3594,115.0469 Q432.2969,115.0469 432.9531,114.7969 Q433.3438,114.6406 433.7656,114.2031 Q434.0313,113.9375 434.1797,113.8594 Q434.3281,113.7813 434.5313,113.7813 Q434.8594,113.7813 435.1172,114.0391 Q435.375,114.2969 435.375,114.6406 Q435.375,114.9844 435.0313,115.3906 Q434.5313,115.9688 433.7344,116.2969 Q432.6563,116.75 431.3594,116.75 Q429.8438,116.75 428.6406,116.125 Q427.6563,115.625 426.9688,114.5547 Q426.2813,113.4844 426.2813,112.2031 L426.2813,111.0469 Q426.2813,109.7188 426.8984,108.5703 Q427.5156,107.4219 428.6094,106.8047 Q429.7031,106.1875 430.9375,106.1875 Q431.6719,106.1875 432.3203,106.3516 Q432.9688,106.5156 433.5156,106.875 Z "/><text fill="#000000" font-family="sans-serif" font-size="12" lengthAdjust="spacingAndGlyphs" textLength="116" x="451.25" y="115.9102">LogicImplementation</text><line style="stroke: #A80036; stroke-width: 1.5;" x1="324.5" x2="661.5" y1="127" y2="127"/><polygon fill="none" points="334.5,134.418,338.5,138.418,334.5,142.418,330.5,138.418" style="stroke: #B38D22; stroke-width: 1.0;"/><text fill="#000000" font-family="sans-serif" font-size="11" lengthAdjust="spacingAndGlyphs" textLength="283" x="343.5" y="142.4189">startControllerImplementation: StartControllerImplementation</text><polygon fill="none" points="334.5,148.2539,338.5,152.2539,334.5,156.2539,330.5,152.2539" style="stroke: #B38D22; stroke-width: 1.0;"/><text fill="#000000" font-family="sans-serif" font-size="11" lengthAdjust="spacingAndGlyphs" textLength="278" x="343.5" y="156.2549">playControllerImplementation: PlayControllerImplementation</text><polygon fill="none" points="334.5,162.0898,338.5,166.0898,334.5,170.0898,330.5,166.0898" style="stroke: #B38D22; stroke-width: 1.0;"/><text fill="#000000" font-family="sans-serif" font-size="11" lengthAdjust="spacingAndGlyphs" textLength="313" x="343.5" y="170.0908">resumeControllerImplementation: ResumeControllerImplementation</text><line style="stroke: #A80036; stroke-width: 1.5;" x1="324.5" x2="661.5" y1="176.5078" y2="176.5078"/><ellipse cx="334.5" cy="188.9258" fill="#84BE84" rx="3" ry="3" style="stroke: #038048; stroke-width: 1.0;"/><text fill="#000000" font-family="sans-serif" font-size="11" lengthAdjust="spacingAndGlyphs" textLength="104" x="343.5" y="191.9268">LogicImplementation()</text><!--class mastermind.controllers.implementation.StartControllerImplementation--><rect fill="#FEFECE" filter="url(#fcunxtpi26oon)" height="75.6719" id="mastermind.controllers.implementation.StartControllerImplementation" style="stroke: #A80036; stroke-width: 1.5;" width="212" x="38" y="334"/><ellipse cx="59.75" cy="350" fill="#ADD1B2" rx="11" ry="11" style="stroke: #A80036; stroke-width: 1.0;"/><path d="M62.5156,345.875 Q62.6719,345.6563 62.8594,345.5469 Q63.0469,345.4375 63.2656,345.4375 Q63.6406,345.4375 63.875,345.6953 Q64.1094,345.9531 64.1094,346.5625 L64.1094,348.0156 Q64.1094,348.625 63.875,348.8906 Q63.6406,349.1563 63.2656,349.1563 Q62.9219,349.1563 62.7188,348.9531 Q62.5156,348.7656 62.4063,348.25 Q62.3594,347.8906 62.1719,347.7031 Q61.8438,347.3281 61.2344,347.1094 Q60.625,346.8906 60,346.8906 Q59.2344,346.8906 58.6016,347.2188 Q57.9688,347.5469 57.4766,348.2969 Q56.9844,349.0469 56.9844,350.0781 L56.9844,351.1719 Q56.9844,352.4063 57.875,353.2266 Q58.7656,354.0469 60.3594,354.0469 Q61.2969,354.0469 61.9531,353.7969 Q62.3438,353.6406 62.7656,353.2031 Q63.0313,352.9375 63.1797,352.8594 Q63.3281,352.7813 63.5313,352.7813 Q63.8594,352.7813 64.1172,353.0391 Q64.375,353.2969 64.375,353.6406 Q64.375,353.9844 64.0313,354.3906 Q63.5313,354.9688 62.7344,355.2969 Q61.6563,355.75 60.3594,355.75 Q58.8438,355.75 57.6406,355.125 Q56.6563,354.625 55.9688,353.5547 Q55.2813,352.4844 55.2813,351.2031 L55.2813,350.0469 Q55.2813,348.7188 55.8984,347.5703 Q56.5156,346.4219 57.6094,345.8047 Q58.7031,345.1875 59.9375,345.1875 Q60.6719,345.1875 61.3203,345.3516 Q61.9688,345.5156 62.5156,345.875 Z "/><text fill="#000000" font-family="sans-serif" font-size="12" lengthAdjust="spacingAndGlyphs" textLength="165" x="75.25" y="354.9102">StartControllerImplementation</text><line style="stroke: #A80036; stroke-width: 1.5;" x1="39" x2="249" y1="366" y2="366"/><line style="stroke: #A80036; stroke-width: 1.5;" x1="39" x2="249" y1="374" y2="374"/><ellipse cx="49" cy="386.418" fill="#84BE84" rx="3" ry="3" style="stroke: #038048; stroke-width: 1.0;"/><text fill="#000000" font-family="sans-serif" font-size="11" lengthAdjust="spacingAndGlyphs" textLength="186" x="58" y="389.4189">StartControllerImplementation(Session)</text><ellipse cx="49" cy="400.2539" fill="#84BE84" rx="3" ry="3" style="stroke: #038048; stroke-width: 1.0;"/><text fill="#000000" font-family="sans-serif" font-size="11" lengthAdjust="spacingAndGlyphs" textLength="56" x="58" y="403.2549">start(): void</text><!--class mastermind.controllers.implementation.ResumeControllerImplementation--><rect fill="#FEFECE" filter="url(#fcunxtpi26oon)" height="75.6719" id="mastermind.controllers.implementation.ResumeControllerImplementation" style="stroke: #A80036; stroke-width: 1.5;" width="228" x="285" y="334"/><ellipse cx="303.6" cy="350" fill="#ADD1B2" rx="11" ry="11" style="stroke: #A80036; stroke-width: 1.0;"/><path d="M306.3656,345.875 Q306.5219,345.6563 306.7094,345.5469 Q306.8969,345.4375 307.1156,345.4375 Q307.4906,345.4375 307.725,345.6953 Q307.9594,345.9531 307.9594,346.5625 L307.9594,348.0156 Q307.9594,348.625 307.725,348.8906 Q307.4906,349.1563 307.1156,349.1563 Q306.7719,349.1563 306.5688,348.9531 Q306.3656,348.7656 306.2563,348.25 Q306.2094,347.8906 306.0219,347.7031 Q305.6938,347.3281 305.0844,347.1094 Q304.475,346.8906 303.85,346.8906 Q303.0844,346.8906 302.4516,347.2188 Q301.8188,347.5469 301.3266,348.2969 Q300.8344,349.0469 300.8344,350.0781 L300.8344,351.1719 Q300.8344,352.4063 301.725,353.2266 Q302.6156,354.0469 304.2094,354.0469 Q305.1469,354.0469 305.8031,353.7969 Q306.1938,353.6406 306.6156,353.2031 Q306.8813,352.9375 307.0297,352.8594 Q307.1781,352.7813 307.3813,352.7813 Q307.7094,352.7813 307.9672,353.0391 Q308.225,353.2969 308.225,353.6406 Q308.225,353.9844 307.8813,354.3906 Q307.3813,354.9688 306.5844,355.2969 Q305.5063,355.75 304.2094,355.75 Q302.6938,355.75 301.4906,355.125 Q300.5063,354.625 299.8188,353.5547 Q299.1313,352.4844 299.1313,351.2031 L299.1313,350.0469 Q299.1313,348.7188 299.7484,347.5703 Q300.3656,346.4219 301.4594,345.8047 Q302.5531,345.1875 303.7875,345.1875 Q304.5219,345.1875 305.1703,345.3516 Q305.8188,345.5156 306.3656,345.875 Z "/><text fill="#000000" font-family="sans-serif" font-size="12" lengthAdjust="spacingAndGlyphs" textLength="188" x="318.4" y="354.9102">ResumeControllerImplementation</text><line style="stroke: #A80036; stroke-width: 1.5;" x1="286" x2="512" y1="366" y2="366"/><line style="stroke: #A80036; stroke-width: 1.5;" x1="286" x2="512" y1="374" y2="374"/><ellipse cx="296" cy="386.418" fill="#84BE84" rx="3" ry="3" style="stroke: #038048; stroke-width: 1.0;"/><text fill="#000000" font-family="sans-serif" font-size="11" lengthAdjust="spacingAndGlyphs" textLength="202" x="305" y="389.4189">ResumeControllerImplementation(Session)</text><ellipse cx="296" cy="400.2539" fill="#84BE84" rx="3" ry="3" style="stroke: #038048; stroke-width: 1.0;"/><text fill="#000000" font-family="sans-serif" font-size="11" lengthAdjust="spacingAndGlyphs" textLength="108" x="305" y="403.2549">resume(boolean): void</text><!--class mastermind.controllers.implementation.PlayControllerImplementation--><rect fill="#FEFECE" filter="url(#fcunxtpi26oon)" height="227.8672" id="mastermind.controllers.implementation.PlayControllerImplementation" style="stroke: #A80036; stroke-width: 1.5;" width="209" x="548.5" y="258"/><ellipse cx="569.8" cy="274" fill="#ADD1B2" rx="11" ry="11" style="stroke: #A80036; stroke-width: 1.0;"/><path d="M572.5656,269.875 Q572.7219,269.6563 572.9094,269.5469 Q573.0969,269.4375 573.3156,269.4375 Q573.6906,269.4375 573.925,269.6953 Q574.1594,269.9531 574.1594,270.5625 L574.1594,272.0156 Q574.1594,272.625 573.925,272.8906 Q573.6906,273.1563 573.3156,273.1563 Q572.9719,273.1563 572.7688,272.9531 Q572.5656,272.7656 572.4563,272.25 Q572.4094,271.8906 572.2219,271.7031 Q571.8938,271.3281 571.2844,271.1094 Q570.675,270.8906 570.05,270.8906 Q569.2844,270.8906 568.6516,271.2188 Q568.0188,271.5469 567.5266,272.2969 Q567.0344,273.0469 567.0344,274.0781 L567.0344,275.1719 Q567.0344,276.4063 567.925,277.2266 Q568.8156,278.0469 570.4094,278.0469 Q571.3469,278.0469 572.0031,277.7969 Q572.3938,277.6406 572.8156,277.2031 Q573.0813,276.9375 573.2297,276.8594 Q573.3781,276.7813 573.5813,276.7813 Q573.9094,276.7813 574.1672,277.0391 Q574.425,277.2969 574.425,277.6406 Q574.425,277.9844 574.0813,278.3906 Q573.5813,278.9688 572.7844,279.2969 Q571.7063,279.75 570.4094,279.75 Q568.8938,279.75 567.6906,279.125 Q566.7063,278.625 566.0188,277.5547 Q565.3313,276.4844 565.3313,275.2031 L565.3313,274.0469 Q565.3313,272.7188 565.9484,271.5703 Q566.5656,270.4219 567.6594,269.8047 Q568.7531,269.1875 569.9875,269.1875 Q570.7219,269.1875 571.3703,269.3516 Q572.0188,269.5156 572.5656,269.875 Z "/><text fill="#000000" font-family="sans-serif" font-size="12" lengthAdjust="spacingAndGlyphs" textLength="163" x="585.2" y="278.9102">PlayControllerImplementation</text><line style="stroke: #A80036; stroke-width: 1.5;" x1="549.5" x2="756.5" y1="290" y2="290"/><rect fill="none" height="6" style="stroke: #C82930; stroke-width: 1.0;" width="6" x="556.5" y="299.418"/><text fill="#000000" font-family="sans-serif" font-size="11" lengthAdjust="spacingAndGlyphs" textLength="182" x="568.5" y="305.4189">proposalController: ProposalController</text><rect fill="none" height="6" style="stroke: #C82930; stroke-width: 1.0;" width="6" x="556.5" y="313.2539"/><text fill="#000000" font-family="sans-serif" font-size="11" lengthAdjust="spacingAndGlyphs" textLength="147" x="568.5" y="319.2549">undoController: UndoController</text><rect fill="none" height="6" style="stroke: #C82930; stroke-width: 1.0;" width="6" x="556.5" y="327.0898"/><text fill="#000000" font-family="sans-serif" font-size="11" lengthAdjust="spacingAndGlyphs" textLength="145" x="568.5" y="333.0908">redoController: RedoController</text><line style="stroke: #A80036; stroke-width: 1.5;" x1="549.5" x2="756.5" y1="339.5078" y2="339.5078"/><polygon fill="#4177AF" points="559.5,347.9258,555.5,353.9258,563.5,353.9258" style="stroke: #1963A0; stroke-width: 1.0;"/><text fill="#000000" font-family="sans-serif" font-size="11" lengthAdjust="spacingAndGlyphs" textLength="183" x="568.5" y="354.9268">PlayControllerImplementation(Session)</text><ellipse cx="559.5" cy="365.7617" fill="#84BE84" rx="3" ry="3" style="stroke: #038048; stroke-width: 1.0;"/><text fill="#000000" font-family="sans-serif" font-size="11" lengthAdjust="spacingAndGlyphs" textLength="94" x="568.5" y="368.7627">redoable(): boolean</text><ellipse cx="559.5" cy="379.5977" fill="#84BE84" rx="3" ry="3" style="stroke: #038048; stroke-width: 1.0;"/><text fill="#000000" font-family="sans-serif" font-size="11" lengthAdjust="spacingAndGlyphs" textLength="94" x="568.5" y="382.5986">isLooser(): boolean</text><ellipse cx="559.5" cy="393.4336" fill="#84BE84" rx="3" ry="3" style="stroke: #038048; stroke-width: 1.0;"/><text fill="#000000" font-family="sans-serif" font-size="11" lengthAdjust="spacingAndGlyphs" textLength="94" x="568.5" y="396.4346">isWinner(): boolean</text><ellipse cx="559.5" cy="407.2695" fill="#84BE84" rx="3" ry="3" style="stroke: #038048; stroke-width: 1.0;"/><text fill="#000000" font-family="sans-serif" font-size="11" lengthAdjust="spacingAndGlyphs" textLength="58" x="568.5" y="410.2705">undo(): void</text><ellipse cx="559.5" cy="421.1055" fill="#84BE84" rx="3" ry="3" style="stroke: #038048; stroke-width: 1.0;"/><text fill="#000000" font-family="sans-serif" font-size="11" lengthAdjust="spacingAndGlyphs" textLength="56" x="568.5" y="424.1064">redo(): void</text><ellipse cx="559.5" cy="434.9414" fill="#84BE84" rx="3" ry="3" style="stroke: #038048; stroke-width: 1.0;"/><text fill="#000000" font-family="sans-serif" font-size="11" lengthAdjust="spacingAndGlyphs" textLength="62" x="568.5" y="437.9424">getTurn(): int</text><ellipse cx="559.5" cy="448.7773" fill="#84BE84" rx="3" ry="3" style="stroke: #038048; stroke-width: 1.0;"/><text fill="#000000" font-family="sans-serif" font-size="11" lengthAdjust="spacingAndGlyphs" textLength="101" x="568.5" y="451.7783">getAllCodes(): int[][][]</text><ellipse cx="559.5" cy="462.6133" fill="#84BE84" rx="3" ry="3" style="stroke: #038048; stroke-width: 1.0;"/><text fill="#000000" font-family="sans-serif" font-size="11" lengthAdjust="spacingAndGlyphs" textLength="96" x="568.5" y="465.6143">undoable(): boolean</text><ellipse cx="559.5" cy="476.4492" fill="#84BE84" rx="3" ry="3" style="stroke: #038048; stroke-width: 1.0;"/><text fill="#000000" font-family="sans-serif" font-size="11" lengthAdjust="spacingAndGlyphs" textLength="140" x="568.5" y="479.4502">proposeCombination(int[]): int</text><!--class mastermind.controllers.Logic--><rect fill="#FEFECE" filter="url(#fcunxtpi26oon)" height="48" id="mastermind.controllers.Logic" style="stroke: #A80036; stroke-width: 1.5;" width="62" x="961" y="122.5"/><ellipse cx="976" cy="138.5" fill="#ADD1B2" rx="11" ry="11" style="stroke: #A80036; stroke-width: 1.0;"/><path d="M978.7656,134.375 Q978.9219,134.1563 979.1094,134.0469 Q979.2969,133.9375 979.5156,133.9375 Q979.8906,133.9375 980.125,134.1953 Q980.3594,134.4531 980.3594,135.0625 L980.3594,136.5156 Q980.3594,137.125 980.125,137.3906 Q979.8906,137.6563 979.5156,137.6563 Q979.1719,137.6563 978.9688,137.4531 Q978.7656,137.2656 978.6563,136.75 Q978.6094,136.3906 978.4219,136.2031 Q978.0938,135.8281 977.4844,135.6094 Q976.875,135.3906 976.25,135.3906 Q975.4844,135.3906 974.8516,135.7188 Q974.2188,136.0469 973.7266,136.7969 Q973.2344,137.5469 973.2344,138.5781 L973.2344,139.6719 Q973.2344,140.9063 974.125,141.7266 Q975.0156,142.5469 976.6094,142.5469 Q977.5469,142.5469 978.2031,142.2969 Q978.5938,142.1406 979.0156,141.7031 Q979.2813,141.4375 979.4297,141.3594 Q979.5781,141.2813 979.7813,141.2813 Q980.1094,141.2813 980.3672,141.5391 Q980.625,141.7969 980.625,142.1406 Q980.625,142.4844 980.2813,142.8906 Q979.7813,143.4688 978.9844,143.7969 Q977.9063,144.25 976.6094,144.25 Q975.0938,144.25 973.8906,143.625 Q972.9063,143.125 972.2188,142.0547 Q971.5313,140.9844 971.5313,139.7031 L971.5313,138.5469 Q971.5313,137.2188 972.1484,136.0703 Q972.7656,134.9219 973.8594,134.3047 Q974.9531,133.6875 976.1875,133.6875 Q976.9219,133.6875 977.5703,133.8516 Q978.2188,134.0156 978.7656,134.375 Z "/><text fill="#000000" font-family="sans-serif" font-size="12" lengthAdjust="spacingAndGlyphs" textLength="30" x="990" y="143.4102">Logic</text><line style="stroke: #A80036; stroke-width: 1.5;" x1="962" x2="1022" y1="154.5" y2="154.5"/><line style="stroke: #A80036; stroke-width: 1.5;" x1="962" x2="1022" y1="162.5" y2="162.5"/><!--class mastermind.controllers.PlayController--><rect fill="#FEFECE" filter="url(#fcunxtpi26oon)" height="48" id="mastermind.controllers.PlayController" style="stroke: #A80036; stroke-width: 1.5;" width="109" x="1378.5" y="122.5"/><ellipse cx="1393.5" cy="138.5" fill="#ADD1B2" rx="11" ry="11" style="stroke: #A80036; stroke-width: 1.0;"/><path d="M1396.2656,134.375 Q1396.4219,134.1563 1396.6094,134.0469 Q1396.7969,133.9375 1397.0156,133.9375 Q1397.3906,133.9375 1397.625,134.1953 Q1397.8594,134.4531 1397.8594,135.0625 L1397.8594,136.5156 Q1397.8594,137.125 1397.625,137.3906 Q1397.3906,137.6563 1397.0156,137.6563 Q1396.6719,137.6563 1396.4688,137.4531 Q1396.2656,137.2656 1396.1563,136.75 Q1396.1094,136.3906 1395.9219,136.2031 Q1395.5938,135.8281 1394.9844,135.6094 Q1394.375,135.3906 1393.75,135.3906 Q1392.9844,135.3906 1392.3516,135.7188 Q1391.7188,136.0469 1391.2266,136.7969 Q1390.7344,137.5469 1390.7344,138.5781 L1390.7344,139.6719 Q1390.7344,140.9063 1391.625,141.7266 Q1392.5156,142.5469 1394.1094,142.5469 Q1395.0469,142.5469 1395.7031,142.2969 Q1396.0938,142.1406 1396.5156,141.7031 Q1396.7813,141.4375 1396.9297,141.3594 Q1397.0781,141.2813 1397.2813,141.2813 Q1397.6094,141.2813 1397.8672,141.5391 Q1398.125,141.7969 1398.125,142.1406 Q1398.125,142.4844 1397.7813,142.8906 Q1397.2813,143.4688 1396.4844,143.7969 Q1395.4063,144.25 1394.1094,144.25 Q1392.5938,144.25 1391.3906,143.625 Q1390.4063,143.125 1389.7188,142.0547 Q1389.0313,140.9844 1389.0313,139.7031 L1389.0313,138.5469 Q1389.0313,137.2188 1389.6484,136.0703 Q1390.2656,134.9219 1391.3594,134.3047 Q1392.4531,133.6875 1393.6875,133.6875 Q1394.4219,133.6875 1395.0703,133.8516 Q1395.7188,134.0156 1396.2656,134.375 Z "/><text fill="#000000" font-family="sans-serif" font-size="12" lengthAdjust="spacingAndGlyphs" textLength="77" x="1407.5" y="143.4102">PlayController</text><line style="stroke: #A80036; stroke-width: 1.5;" x1="1379.5" x2="1486.5" y1="154.5" y2="154.5"/><line style="stroke: #A80036; stroke-width: 1.5;" x1="1379.5" x2="1486.5" y1="162.5" y2="162.5"/><!--class mastermind.controllers.RedoController--><rect fill="#FEFECE" filter="url(#fcunxtpi26oon)" height="48" id="mastermind.controllers.RedoController" style="stroke: #A80036; stroke-width: 1.5;" width="116" x="1227" y="122.5"/><ellipse cx="1242" cy="138.5" fill="#ADD1B2" rx="11" ry="11" style="stroke: #A80036; stroke-width: 1.0;"/><path d="M1244.7656,134.375 Q1244.9219,134.1563 1245.1094,134.0469 Q1245.2969,133.9375 1245.5156,133.9375 Q1245.8906,133.9375 1246.125,134.1953 Q1246.3594,134.4531 1246.3594,135.0625 L1246.3594,136.5156 Q1246.3594,137.125 1246.125,137.3906 Q1245.8906,137.6563 1245.5156,137.6563 Q1245.1719,137.6563 1244.9688,137.4531 Q1244.7656,137.2656 1244.6563,136.75 Q1244.6094,136.3906 1244.4219,136.2031 Q1244.0938,135.8281 1243.4844,135.6094 Q1242.875,135.3906 1242.25,135.3906 Q1241.4844,135.3906 1240.8516,135.7188 Q1240.2188,136.0469 1239.7266,136.7969 Q1239.2344,137.5469 1239.2344,138.5781 L1239.2344,139.6719 Q1239.2344,140.9063 1240.125,141.7266 Q1241.0156,142.5469 1242.6094,142.5469 Q1243.5469,142.5469 1244.2031,142.2969 Q1244.5938,142.1406 1245.0156,141.7031 Q1245.2813,141.4375 1245.4297,141.3594 Q1245.5781,141.2813 1245.7813,141.2813 Q1246.1094,141.2813 1246.3672,141.5391 Q1246.625,141.7969 1246.625,142.1406 Q1246.625,142.4844 1246.2813,142.8906 Q1245.7813,143.4688 1244.9844,143.7969 Q1243.9063,144.25 1242.6094,144.25 Q1241.0938,144.25 1239.8906,143.625 Q1238.9063,143.125 1238.2188,142.0547 Q1237.5313,140.9844 1237.5313,139.7031 L1237.5313,138.5469 Q1237.5313,137.2188 1238.1484,136.0703 Q1238.7656,134.9219 1239.8594,134.3047 Q1240.9531,133.6875 1242.1875,133.6875 Q1242.9219,133.6875 1243.5703,133.8516 Q1244.2188,134.0156 1244.7656,134.375 Z "/><text fill="#000000" font-family="sans-serif" font-size="12" lengthAdjust="spacingAndGlyphs" textLength="84" x="1256" y="143.4102">RedoController</text><line style="stroke: #A80036; stroke-width: 1.5;" x1="1228" x2="1342" y1="154.5" y2="154.5"/><line style="stroke: #A80036; stroke-width: 1.5;" x1="1228" x2="1342" y1="162.5" y2="162.5"/><!--class mastermind.controllers.UndoController--><rect fill="#FEFECE" filter="url(#fcunxtpi26oon)" height="48" id="mastermind.controllers.UndoController" style="stroke: #A80036; stroke-width: 1.5;" width="116" x="1694" y="122.5"/><ellipse cx="1709" cy="138.5" fill="#ADD1B2" rx="11" ry="11" style="stroke: #A80036; stroke-width: 1.0;"/><path d="M1711.7656,134.375 Q1711.9219,134.1563 1712.1094,134.0469 Q1712.2969,133.9375 1712.5156,133.9375 Q1712.8906,133.9375 1713.125,134.1953 Q1713.3594,134.4531 1713.3594,135.0625 L1713.3594,136.5156 Q1713.3594,137.125 1713.125,137.3906 Q1712.8906,137.6563 1712.5156,137.6563 Q1712.1719,137.6563 1711.9688,137.4531 Q1711.7656,137.2656 1711.6563,136.75 Q1711.6094,136.3906 1711.4219,136.2031 Q1711.0938,135.8281 1710.4844,135.6094 Q1709.875,135.3906 1709.25,135.3906 Q1708.4844,135.3906 1707.8516,135.7188 Q1707.2188,136.0469 1706.7266,136.7969 Q1706.2344,137.5469 1706.2344,138.5781 L1706.2344,139.6719 Q1706.2344,140.9063 1707.125,141.7266 Q1708.0156,142.5469 1709.6094,142.5469 Q1710.5469,142.5469 1711.2031,142.2969 Q1711.5938,142.1406 1712.0156,141.7031 Q1712.2813,141.4375 1712.4297,141.3594 Q1712.5781,141.2813 1712.7813,141.2813 Q1713.1094,141.2813 1713.3672,141.5391 Q1713.625,141.7969 1713.625,142.1406 Q1713.625,142.4844 1713.2813,142.8906 Q1712.7813,143.4688 1711.9844,143.7969 Q1710.9063,144.25 1709.6094,144.25 Q1708.0938,144.25 1706.8906,143.625 Q1705.9063,143.125 1705.2188,142.0547 Q1704.5313,140.9844 1704.5313,139.7031 L1704.5313,138.5469 Q1704.5313,137.2188 1705.1484,136.0703 Q1705.7656,134.9219 1706.8594,134.3047 Q1707.9531,133.6875 1709.1875,133.6875 Q1709.9219,133.6875 1710.5703,133.8516 Q1711.2188,134.0156 1711.7656,134.375 Z "/><text fill="#000000" font-family="sans-serif" font-size="12" lengthAdjust="spacingAndGlyphs" textLength="84" x="1723" y="143.4102">UndoController</text><line style="stroke: #A80036; stroke-width: 1.5;" x1="1695" x2="1809" y1="154.5" y2="154.5"/><line style="stroke: #A80036; stroke-width: 1.5;" x1="1695" x2="1809" y1="162.5" y2="162.5"/><!--class mastermind.controllers.ProposalController--><rect fill="#FEFECE" filter="url(#fcunxtpi26oon)" height="48" id="mastermind.controllers.ProposalController" style="stroke: #A80036; stroke-width: 1.5;" width="136" x="1523" y="122.5"/><ellipse cx="1538" cy="138.5" fill="#ADD1B2" rx="11" ry="11" style="stroke: #A80036; stroke-width: 1.0;"/><path d="M1540.7656,134.375 Q1540.9219,134.1563 1541.1094,134.0469 Q1541.2969,133.9375 1541.5156,133.9375 Q1541.8906,133.9375 1542.125,134.1953 Q1542.3594,134.4531 1542.3594,135.0625 L1542.3594,136.5156 Q1542.3594,137.125 1542.125,137.3906 Q1541.8906,137.6563 1541.5156,137.6563 Q1541.1719,137.6563 1540.9688,137.4531 Q1540.7656,137.2656 1540.6563,136.75 Q1540.6094,136.3906 1540.4219,136.2031 Q1540.0938,135.8281 1539.4844,135.6094 Q1538.875,135.3906 1538.25,135.3906 Q1537.4844,135.3906 1536.8516,135.7188 Q1536.2188,136.0469 1535.7266,136.7969 Q1535.2344,137.5469 1535.2344,138.5781 L1535.2344,139.6719 Q1535.2344,140.9063 1536.125,141.7266 Q1537.0156,142.5469 1538.6094,142.5469 Q1539.5469,142.5469 1540.2031,142.2969 Q1540.5938,142.1406 1541.0156,141.7031 Q1541.2813,141.4375 1541.4297,141.3594 Q1541.5781,141.2813 1541.7813,141.2813 Q1542.1094,141.2813 1542.3672,141.5391 Q1542.625,141.7969 1542.625,142.1406 Q1542.625,142.4844 1542.2813,142.8906 Q1541.7813,143.4688 1540.9844,143.7969 Q1539.9063,144.25 1538.6094,144.25 Q1537.0938,144.25 1535.8906,143.625 Q1534.9063,143.125 1534.2188,142.0547 Q1533.5313,140.9844 1533.5313,139.7031 L1533.5313,138.5469 Q1533.5313,137.2188 1534.1484,136.0703 Q1534.7656,134.9219 1535.8594,134.3047 Q1536.9531,133.6875 1538.1875,133.6875 Q1538.9219,133.6875 1539.5703,133.8516 Q1540.2188,134.0156 1540.7656,134.375 Z "/><text fill="#000000" font-family="sans-serif" font-size="12" lengthAdjust="spacingAndGlyphs" textLength="104" x="1552" y="143.4102">ProposalController</text><line style="stroke: #A80036; stroke-width: 1.5;" x1="1524" x2="1658" y1="154.5" y2="154.5"/><line style="stroke: #A80036; stroke-width: 1.5;" x1="1524" x2="1658" y1="162.5" y2="162.5"/><!--class mastermind.controllers.ResumeController--><rect fill="#FEFECE" filter="url(#fcunxtpi26oon)" height="48" id="mastermind.controllers.ResumeController" style="stroke: #A80036; stroke-width: 1.5;" width="134" x="1058" y="122.5"/><ellipse cx="1073" cy="138.5" fill="#ADD1B2" rx="11" ry="11" style="stroke: #A80036; stroke-width: 1.0;"/><path d="M1075.7656,134.375 Q1075.9219,134.1563 1076.1094,134.0469 Q1076.2969,133.9375 1076.5156,133.9375 Q1076.8906,133.9375 1077.125,134.1953 Q1077.3594,134.4531 1077.3594,135.0625 L1077.3594,136.5156 Q1077.3594,137.125 1077.125,137.3906 Q1076.8906,137.6563 1076.5156,137.6563 Q1076.1719,137.6563 1075.9688,137.4531 Q1075.7656,137.2656 1075.6563,136.75 Q1075.6094,136.3906 1075.4219,136.2031 Q1075.0938,135.8281 1074.4844,135.6094 Q1073.875,135.3906 1073.25,135.3906 Q1072.4844,135.3906 1071.8516,135.7188 Q1071.2188,136.0469 1070.7266,136.7969 Q1070.2344,137.5469 1070.2344,138.5781 L1070.2344,139.6719 Q1070.2344,140.9063 1071.125,141.7266 Q1072.0156,142.5469 1073.6094,142.5469 Q1074.5469,142.5469 1075.2031,142.2969 Q1075.5938,142.1406 1076.0156,141.7031 Q1076.2813,141.4375 1076.4297,141.3594 Q1076.5781,141.2813 1076.7813,141.2813 Q1077.1094,141.2813 1077.3672,141.5391 Q1077.625,141.7969 1077.625,142.1406 Q1077.625,142.4844 1077.2813,142.8906 Q1076.7813,143.4688 1075.9844,143.7969 Q1074.9063,144.25 1073.6094,144.25 Q1072.0938,144.25 1070.8906,143.625 Q1069.9063,143.125 1069.2188,142.0547 Q1068.5313,140.9844 1068.5313,139.7031 L1068.5313,138.5469 Q1068.5313,137.2188 1069.1484,136.0703 Q1069.7656,134.9219 1070.8594,134.3047 Q1071.9531,133.6875 1073.1875,133.6875 Q1073.9219,133.6875 1074.5703,133.8516 Q1075.2188,134.0156 1075.7656,134.375 Z "/><text fill="#000000" font-family="sans-serif" font-size="12" lengthAdjust="spacingAndGlyphs" textLength="102" x="1087" y="143.4102">ResumeController</text><line style="stroke: #A80036; stroke-width: 1.5;" x1="1059" x2="1191" y1="154.5" y2="154.5"/><line style="stroke: #A80036; stroke-width: 1.5;" x1="1059" x2="1191" y1="162.5" y2="162.5"/><!--class mastermind.controllers.StartController--><rect fill="#FEFECE" filter="url(#fcunxtpi26oon)" height="48" id="mastermind.controllers.StartController" style="stroke: #A80036; stroke-width: 1.5;" width="111" x="814.5" y="122.5"/><ellipse cx="829.5" cy="138.5" fill="#ADD1B2" rx="11" ry="11" style="stroke: #A80036; stroke-width: 1.0;"/><path d="M832.2656,134.375 Q832.4219,134.1563 832.6094,134.0469 Q832.7969,133.9375 833.0156,133.9375 Q833.3906,133.9375 833.625,134.1953 Q833.8594,134.4531 833.8594,135.0625 L833.8594,136.5156 Q833.8594,137.125 833.625,137.3906 Q833.3906,137.6563 833.0156,137.6563 Q832.6719,137.6563 832.4688,137.4531 Q832.2656,137.2656 832.1563,136.75 Q832.1094,136.3906 831.9219,136.2031 Q831.5938,135.8281 830.9844,135.6094 Q830.375,135.3906 829.75,135.3906 Q828.9844,135.3906 828.3516,135.7188 Q827.7188,136.0469 827.2266,136.7969 Q826.7344,137.5469 826.7344,138.5781 L826.7344,139.6719 Q826.7344,140.9063 827.625,141.7266 Q828.5156,142.5469 830.1094,142.5469 Q831.0469,142.5469 831.7031,142.2969 Q832.0938,142.1406 832.5156,141.7031 Q832.7813,141.4375 832.9297,141.3594 Q833.0781,141.2813 833.2813,141.2813 Q833.6094,141.2813 833.8672,141.5391 Q834.125,141.7969 834.125,142.1406 Q834.125,142.4844 833.7813,142.8906 Q833.2813,143.4688 832.4844,143.7969 Q831.4063,144.25 830.1094,144.25 Q828.5938,144.25 827.3906,143.625 Q826.4063,143.125 825.7188,142.0547 Q825.0313,140.9844 825.0313,139.7031 L825.0313,138.5469 Q825.0313,137.2188 825.6484,136.0703 Q826.2656,134.9219 827.3594,134.3047 Q828.4531,133.6875 829.6875,133.6875 Q830.4219,133.6875 831.0703,133.8516 Q831.7188,134.0156 832.2656,134.375 Z "/><text fill="#000000" font-family="sans-serif" font-size="12" lengthAdjust="spacingAndGlyphs" textLength="79" x="843.5" y="143.4102">StartController</text><line style="stroke: #A80036; stroke-width: 1.5;" x1="815.5" x2="924.5" y1="154.5" y2="154.5"/><line style="stroke: #A80036; stroke-width: 1.5;" x1="815.5" x2="924.5" y1="162.5" y2="162.5"/><!--link mastermind.controllers.Logic to mastermind.controllers.implementation.LogicImplementation--><path d="M981.773,102.898 C972.422,73.917 955.352,38.146 925.5,21 C883.106,-3.35 863.55,11.98 815.5,21 C739.475,35.271 658.348,66.931 596.481,94.88 " fill="none" id="mastermind.controllers.Logic-mastermind.controllers.implementation.LogicImplementation" style="stroke: #A80036; stroke-width: 1.0;"/><polygon fill="none" points="988.592,101.288,987.291,122.438,975.119,105.093,988.592,101.288" style="stroke: #A80036; stroke-width: 1.0;"/><!--link mastermind.controllers.implementation.LogicImplementation to mastermind.controllers.implementation.StartControllerImplementation--><path d="M361.577,203.827 C329.613,219.65 296.236,238.045 267,258 C238.834,277.224 210.59,302.631 188.283,324.484 " fill="none" id="mastermind.controllers.implementation.LogicImplementation-mastermind.controllers.implementation.StartControllerImplementation" style="stroke: #A80036; stroke-width: 1.0;"/><polygon fill="#A80036" points="178.79,333.921,187.9931,330.4133,182.3362,330.3962,182.3534,324.7394,178.79,333.921" style="stroke: #A80036; stroke-width: 1.0;"/><line style="stroke: #A80036; stroke-width: 1.0;" x1="182.3362" x2="188.0095" y1="330.3962" y2="324.756"/><polygon fill="#A80036" points="373.279,198.116,366.1325,197.1527,362.4947,203.3789,369.6411,204.3422,373.279,198.116" style="stroke: #A80036; stroke-width: 1.0;"/><!--link mastermind.controllers.implementation.LogicImplementation to mastermind.controllers.implementation.ResumeControllerImplementation--><path d="M466.522,210.456 C451.703,245.691 433.497,288.978 419.725,321.722 " fill="none" id="mastermind.controllers.implementation.LogicImplementation-mastermind.controllers.implementation.ResumeControllerImplementation" style="stroke: #A80036; stroke-width: 1.0;"/><polygon fill="#A80036" points="414.681,333.717,421.8572,326.9714,416.6193,329.108,414.4828,323.8701,414.681,333.717" style="stroke: #A80036; stroke-width: 1.0;"/><line style="stroke: #A80036; stroke-width: 1.0;" x1="416.6193" x2="419.7205" y1="329.108" y2="321.734"/><polygon fill="#A80036" points="471.67,198.216,465.6566,202.1959,467.0176,209.2774,473.0309,205.2975,471.67,198.216" style="stroke: #A80036; stroke-width: 1.0;"/><!--link mastermind.controllers.implementation.LogicImplementation to mastermind.controllers.implementation.PlayControllerImplementation--><path d="M536.99,208.948 C545.546,220.9 554.797,233.822 564.212,246.974 " fill="none" id="mastermind.controllers.implementation.LogicImplementation-mastermind.controllers.implementation.PlayControllerImplementation" style="stroke: #A80036; stroke-width: 1.0;"/><polygon fill="#A80036" points="571.788,257.557,569.8014,247.9106,568.8774,253.4915,563.2966,252.5675,571.788,257.557" style="stroke: #A80036; stroke-width: 1.0;"/><line style="stroke: #A80036; stroke-width: 1.0;" x1="568.8774" x2="564.2205" y1="253.4915" y2="246.9865"/><polygon fill="#A80036" points="529.306,198.216,529.5462,205.4231,536.2913,207.9733,536.0511,200.7662,529.306,198.216" style="stroke: #A80036; stroke-width: 1.0;"/><!--link mastermind.controllers.PlayController to mastermind.controllers.implementation.PlayControllerImplementation--><path d="M1388.6,182.429 C1379.79,188.243 1370.37,193.752 1361,198 C1158.17,289.956 899.593,337.242 757.787,357.816 " fill="none" id="mastermind.controllers.PlayController-mastermind.controllers.implementation.PlayControllerImplementation" style="stroke: #A80036; stroke-width: 1.0;"/><polygon fill="none" points="1384.7,176.608,1405.07,170.757,1392.8,188.032,1384.7,176.608" style="stroke: #A80036; stroke-width: 1.0;"/><!--link mastermind.controllers.implementation.PlayControllerImplementation to mastermind.controllers.RedoController--><path d="M770.211,345.17 C885.564,317.335 1064.99,267.488 1210,198 C1221.66,192.411 1233.59,185.19 1244.39,177.965 " fill="none" id="mastermind.controllers.implementation.PlayControllerImplementation-mastermind.controllers.RedoController" style="stroke: #A80036; stroke-width: 1.0;"/><polygon fill="#A80036" points="1255.2,170.504,1245.5228,172.3346,1251.088,173.3486,1250.0741,178.9138,1255.2,170.504" style="stroke: #A80036; stroke-width: 1.0;"/><line style="stroke: #A80036; stroke-width: 1.0;" x1="1251.088" x2="1244.5" y1="173.3486" y2="177.892"/><polygon fill="#A80036" points="757.513,348.208,764.279,350.7024,769.1837,345.4163,762.4178,342.9219,757.513,348.208" style="stroke: #A80036; stroke-width: 1.0;"/><!--link mastermind.controllers.implementation.PlayControllerImplementation to mastermind.controllers.UndoController--><path d="M770.65,367.185 C965.698,357.385 1365.4,322.45 1677,198 C1689.33,193.074 1701.71,185.888 1712.75,178.473 " fill="none" id="mastermind.controllers.implementation.PlayControllerImplementation-mastermind.controllers.UndoController" style="stroke: #A80036; stroke-width: 1.0;"/><polygon fill="#A80036" points="1723.71,170.75,1714.0487,172.6627,1719.6223,173.6294,1718.6556,179.203,1723.71,170.75" style="stroke: #A80036; stroke-width: 1.0;"/><line style="stroke: #A80036; stroke-width: 1.0;" x1="1719.6223" x2="1713.08" y1="173.6294" y2="178.2365"/><polygon fill="#A80036" points="757.533,367.821,763.7202,371.5249,769.5188,367.2382,763.3316,363.5343,757.533,367.821" style="stroke: #A80036; stroke-width: 1.0;"/><!--link mastermind.controllers.implementation.PlayControllerImplementation to mastermind.controllers.ProposalController--><path d="M770.775,359.523 C938.407,340.439 1253.38,294.335 1505,198 C1518.99,192.644 1533.35,185.14 1546.22,177.553 " fill="none" id="mastermind.controllers.implementation.PlayControllerImplementation-mastermind.controllers.ProposalController" style="stroke: #A80036; stroke-width: 1.0;"/><polygon fill="#A80036" points="1557.58,170.62,1547.8139,171.894,1553.312,173.2246,1551.9813,178.7228,1557.58,170.62" style="stroke: #A80036; stroke-width: 1.0;"/><line style="stroke: #A80036; stroke-width: 1.0;" x1="1553.312" x2="1546.48" y1="173.2246" y2="177.3935"/><polygon fill="#A80036" points="757.731,360.987,764.1397,364.2928,769.6561,359.6485,763.2474,356.3427,757.731,360.987" style="stroke: #A80036; stroke-width: 1.0;"/><!--link mastermind.controllers.ResumeController to mastermind.controllers.implementation.ResumeControllerImplementation--><path d="M1076.61,181.292 C1065.36,187.796 1053.11,193.862 1041,198 C825.026,271.784 740.081,166.491 531,258 C491.757,275.176 455.436,308.065 430.869,333.95 " fill="none" id="mastermind.controllers.ResumeController-mastermind.controllers.implementation.ResumeControllerImplementation" style="stroke: #A80036; stroke-width: 1.0;"/><polygon fill="none" points="1073.19,175.179,1093.87,170.565,1080.58,187.069,1073.19,175.179" style="stroke: #A80036; stroke-width: 1.0;"/><!--link mastermind.controllers.StartController to mastermind.controllers.implementation.StartControllerImplementation--><path d="M815.736,180.433 C802.481,187.228 788.058,193.636 774,198 C557.298,265.278 473.21,163.322 267,258 C229.579,275.181 195.827,308.07 173.188,333.954 " fill="none" id="mastermind.controllers.StartController-mastermind.controllers.implementation.StartControllerImplementation" style="stroke: #A80036; stroke-width: 1.0;"/><polygon fill="none" points="812.623,174.157,833.536,170.74,819.319,186.452,812.623,174.157" style="stroke: #A80036; stroke-width: 1.0;"/><!--
@startuml

class  mastermind.controllers.implementation.LogicImplementation{
# startControllerImplementation: StartControllerImplementation
# playControllerImplementation: PlayControllerImplementation
# resumeControllerImplementation: ResumeControllerImplementation
+ LogicImplementation()
}
mastermind.controllers.Logic <|-down- mastermind.controllers.implementation.LogicImplementation
mastermind.controllers.implementation.LogicImplementation *-down-> mastermind.controllers.implementation.StartControllerImplementation
mastermind.controllers.implementation.LogicImplementation *-down-> mastermind.controllers.implementation.ResumeControllerImplementation
mastermind.controllers.implementation.LogicImplementation *-down-> mastermind.controllers.implementation.PlayControllerImplementation

class  mastermind.controllers.implementation.PlayControllerImplementation{
- proposalController: ProposalController
- undoController: UndoController
- redoController: RedoController
~ PlayControllerImplementation(Session)
+ redoable(): boolean
+ isLooser(): boolean
+ isWinner(): boolean
+ undo(): void
+ redo(): void
+ getTurn(): int
+ getAllCodes(): int[][][]
+ undoable(): boolean
+ proposeCombination(int[]): int
}
mastermind.controllers.PlayController <|-down- mastermind.controllers.implementation.PlayControllerImplementation
mastermind.controllers.implementation.PlayControllerImplementation *-down-> mastermind.controllers.RedoController
mastermind.controllers.implementation.PlayControllerImplementation *-down-> mastermind.controllers.UndoController
mastermind.controllers.implementation.PlayControllerImplementation *-down-> mastermind.controllers.ProposalController

class  mastermind.controllers.implementation.ResumeControllerImplementation{
+ ResumeControllerImplementation(Session)
+ resume(boolean): void
}
mastermind.controllers.ResumeController <|-down- mastermind.controllers.implementation.ResumeControllerImplementation

class  mastermind.controllers.implementation.StartControllerImplementation{
+ StartControllerImplementation(Session)
+ start(): void
}
mastermind.controllers.StartController <|-down- mastermind.controllers.implementation.StartControllerImplementation

@enduml

PlantUML version 1.2019.05(Sat Apr 20 18:45:36 CEST 2019)
(GPL source distribution)
Java Runtime: OpenJDK Runtime Environment
JVM: OpenJDK 64-Bit Server VM
Java Version: 1.8.0_222-b10
Operating System: Windows 10
OS Version: 10.0
Default Encoding: windows-1252
Language: es
Country: ES
--></g></svg>