<?xml version="1.0" encoding="UTF-8" standalone="no"?><svg xmlns="http://www.w3.org/2000/svg" xmlns:xlink="http://www.w3.org/1999/xlink" contentScriptType="application/ecmascript" contentStyleType="text/css" height="233px" preserveAspectRatio="none" style="width:317px;height:233px;" version="1.1" viewBox="0 0 317 233" width="317px" zoomAndPan="magnify"><defs><filter height="300%" id="f6v1109kxd8em" width="300%" x="-1" y="-1"><feGaussianBlur result="blurOut" stdDeviation="2.0"/><feColorMatrix in="blurOut" result="blurOut2" type="matrix" values="0 0 0 0 0 0 0 0 0 0 0 0 0 0 0 0 0 0 .4 0"/><feOffset dx="4.0" dy="4.0" in="blurOut2" result="blurOut3"/><feBlend in="SourceGraphic" in2="blurOut3" mode="normal"/></filter></defs><g><!--cluster mastermind.types--><polygon fill="#FFFFFF" filter="url(#f6v1109kxd8em)" points="22,24,152,24,159,47.6094,295,47.6094,295,221,22,221,22,24" style="stroke: #000000; stroke-width: 1.5;"/><line style="stroke: #000000; stroke-width: 1.5;" x1="22" x2="159" y1="47.6094" y2="47.6094"/><text fill="#000000" font-family="sans-serif" font-size="14" font-weight="bold" lengthAdjust="spacingAndGlyphs" textLength="124" x="26" y="40.5332">mastermind.types</text><!--class mastermind.types.Color--><rect fill="#FEFECE" filter="url(#f6v1109kxd8em)" height="144.8516" id="mastermind.types.Color" style="stroke: #A80036; stroke-width: 1.5;" width="77" x="201.5" y="60"/><ellipse cx="223.25" cy="76" fill="#EB937F" rx="11" ry="11" style="stroke: #A80036; stroke-width: 1.0;"/><path d="M222.1094,76.7969 L222.1094,79.2969 L226.4375,79.2969 L226.4375,78.375 Q226.4375,77.7656 226.6797,77.5 Q226.9219,77.2344 227.2969,77.2344 Q227.6719,77.2344 227.9063,77.5 Q228.1406,77.7656 228.1406,78.375 L228.1406,81 L220.1406,81 Q219.5156,81 219.2578,80.7656 Q219,80.5313 219,80.1406 Q219,79.7656 219.2656,79.5313 Q219.5313,79.2969 220.1406,79.2969 L220.4063,79.2969 L220.4063,72.6406 L220.1406,72.6406 Q219.5156,72.6406 219.2578,72.4063 Q219,72.1719 219,71.7813 Q219,71.4063 219.2578,71.1719 Q219.5156,70.9375 220.1406,70.9375 L227.7656,70.9375 L227.7656,73.5313 Q227.7656,74.1406 227.5391,74.3984 Q227.3125,74.6563 226.9219,74.6563 Q226.5469,74.6563 226.3125,74.3984 Q226.0781,74.1406 226.0781,73.5313 L226.0781,72.6406 L222.1094,72.6406 L222.1094,75.0938 L223.5938,75.0938 Q223.5938,74.4375 223.7188,74.25 Q223.9844,73.8438 224.4531,73.8438 Q224.8281,73.8438 225.0625,74.1016 Q225.2969,74.3594 225.2969,74.9688 L225.2969,76.9375 Q225.2969,77.4844 225.1719,77.6719 Q224.9063,78.0625 224.4531,78.0625 Q223.9844,78.0625 223.7188,77.6563 Q223.5938,77.4688 223.5938,76.7969 L222.1094,76.7969 Z "/><text fill="#000000" font-family="sans-serif" font-size="12" lengthAdjust="spacingAndGlyphs" textLength="30" x="238.75" y="80.9102">Color</text><line style="stroke: #A80036; stroke-width: 1.5;" x1="202.5" x2="277.5" y1="92" y2="92"/><text fill="#000000" font-family="sans-serif" font-size="11" lengthAdjust="spacingAndGlyphs" textLength="20" x="207.5" y="107.4189">RED</text><text fill="#000000" font-family="sans-serif" font-size="11" lengthAdjust="spacingAndGlyphs" textLength="26" x="207.5" y="121.2549">BLUE</text><text fill="#000000" font-family="sans-serif" font-size="11" lengthAdjust="spacingAndGlyphs" textLength="44" x="207.5" y="135.0908">YELLOW</text><text fill="#000000" font-family="sans-serif" font-size="11" lengthAdjust="spacingAndGlyphs" textLength="34" x="207.5" y="148.9268">GREEN</text><text fill="#000000" font-family="sans-serif" font-size="11" lengthAdjust="spacingAndGlyphs" textLength="44" x="207.5" y="162.7627">ORANGE</text><text fill="#000000" font-family="sans-serif" font-size="11" lengthAdjust="spacingAndGlyphs" textLength="38" x="207.5" y="176.5986">PURPLE</text><line style="stroke: #A80036; stroke-width: 1.5;" x1="202.5" x2="277.5" y1="183.0156" y2="183.0156"/><ellipse cx="212.5" cy="195.4336" fill="#84BE84" rx="3" ry="3" style="stroke: #038048; stroke-width: 1.0;"/><text fill="#000000" font-family="sans-serif" font-size="11" lengthAdjust="spacingAndGlyphs" text-decoration="underline" textLength="51" x="221.5" y="198.4346">int length()</text><!--class mastermind.types.Error--><rect fill="#FEFECE" filter="url(#f6v1109kxd8em)" height="89.5078" id="mastermind.types.Error" style="stroke: #A80036; stroke-width: 1.5;" width="128" x="38" y="87.5"/><ellipse cx="84.25" cy="103.5" fill="#EB937F" rx="11" ry="11" style="stroke: #A80036; stroke-width: 1.0;"/><path d="M83.1094,104.2969 L83.1094,106.7969 L87.4375,106.7969 L87.4375,105.875 Q87.4375,105.2656 87.6797,105 Q87.9219,104.7344 88.2969,104.7344 Q88.6719,104.7344 88.9063,105 Q89.1406,105.2656 89.1406,105.875 L89.1406,108.5 L81.1406,108.5 Q80.5156,108.5 80.2578,108.2656 Q80,108.0313 80,107.6406 Q80,107.2656 80.2656,107.0313 Q80.5313,106.7969 81.1406,106.7969 L81.4063,106.7969 L81.4063,100.1406 L81.1406,100.1406 Q80.5156,100.1406 80.2578,99.9063 Q80,99.6719 80,99.2813 Q80,98.9063 80.2578,98.6719 Q80.5156,98.4375 81.1406,98.4375 L88.7656,98.4375 L88.7656,101.0313 Q88.7656,101.6406 88.5391,101.8984 Q88.3125,102.1563 87.9219,102.1563 Q87.5469,102.1563 87.3125,101.8984 Q87.0781,101.6406 87.0781,101.0313 L87.0781,100.1406 L83.1094,100.1406 L83.1094,102.5938 L84.5938,102.5938 Q84.5938,101.9375 84.7188,101.75 Q84.9844,101.3438 85.4531,101.3438 Q85.8281,101.3438 86.0625,101.6016 Q86.2969,101.8594 86.2969,102.4688 L86.2969,104.4375 Q86.2969,104.9844 86.1719,105.1719 Q85.9063,105.5625 85.4531,105.5625 Q84.9844,105.5625 84.7188,105.1563 Q84.5938,104.9688 84.5938,104.2969 L83.1094,104.2969 Z "/><text fill="#000000" font-family="sans-serif" font-size="12" lengthAdjust="spacingAndGlyphs" textLength="27" x="104.75" y="108.4102">Error</text><line style="stroke: #A80036; stroke-width: 1.5;" x1="39" x2="165" y1="119.5" y2="119.5"/><text fill="#000000" font-family="sans-serif" font-size="11" lengthAdjust="spacingAndGlyphs" textLength="62" x="44" y="134.9189">DUPLICATED</text><text fill="#000000" font-family="sans-serif" font-size="11" lengthAdjust="spacingAndGlyphs" textLength="116" x="44" y="148.7549">WRONG_CHARACTERS</text><text fill="#000000" font-family="sans-serif" font-size="11" lengthAdjust="spacingAndGlyphs" textLength="86" x="44" y="162.5908">WRONG_LENGTH</text><line style="stroke: #A80036; stroke-width: 1.5;" x1="39" x2="165" y1="169.0078" y2="169.0078"/><!--
@startuml
enum mastermind.types.Color {
	RED
	BLUE
	YELLOW
	GREEN
	ORANGE
	PURPLE
	+{static}int length()
}

enum mastermind.types.Error {
	DUPLICATED
	WRONG_CHARACTERS
	WRONG_LENGTH
}
@enduml

PlantUML version 1.2019.05(Sat Apr 20 18:45:36 CEST 2019)
(GPL source distribution)
Java Runtime: OpenJDK Runtime Environment
JVM: OpenJDK 64-Bit Server VM
Java Version: 1.8.0_222-b10
Operating System: Windows 10
OS Version: 10.0
Default Encoding: windows-1252
Language: es
Country: ES
--></g></svg>