<?xml version="1.0" encoding="UTF-8" standalone="no"?><svg xmlns="http://www.w3.org/2000/svg" xmlns:xlink="http://www.w3.org/1999/xlink" contentScriptType="application/ecmascript" contentStyleType="text/css" height="1081px" preserveAspectRatio="none" style="width:1350px;height:1081px;" version="1.1" viewBox="0 0 1350 1081" width="1350px" zoomAndPan="magnify"><defs><filter height="300%" id="f16w4pd7l5lowb" width="300%" x="-1" y="-1"><feGaussianBlur result="blurOut" stdDeviation="2.0"/><feColorMatrix in="blurOut" result="blurOut2" type="matrix" values="0 0 0 0 0 0 0 0 0 0 0 0 0 0 0 0 0 0 .4 0"/><feOffset dx="4.0" dy="4.0" in="blurOut2" result="blurOut3"/><feBlend in="SourceGraphic" in2="blurOut3" mode="normal"/></filter></defs><g><!--cluster mastermind.controllers--><polygon fill="#FFFFFF" filter="url(#f16w4pd7l5lowb)" points="50.7312,24,219.7312,24,226.7312,47.6094,839.731,47.6094,839.731,1069,50.7312,1069,50.7312,24" style="stroke: #000000; stroke-width: 1.5;"/><line style="stroke: #000000; stroke-width: 1.5;" x1="50.7312" x2="226.7312" y1="47.6094" y2="47.6094"/><text fill="#000000" font-family="sans-serif" font-size="14" font-weight="bold" lengthAdjust="spacingAndGlyphs" textLength="163" x="54.7312" y="40.5332">mastermind.controllers</text><!--cluster mastermind.utils--><polygon fill="#FFFFFF" filter="url(#f16w4pd7l5lowb)" points="863.731,441,985.731,441,992.731,464.6094,995.731,464.6094,995.731,541,863.731,541,863.731,441" style="stroke: #000000; stroke-width: 1.5;"/><line style="stroke: #000000; stroke-width: 1.5;" x1="863.731" x2="992.731" y1="464.6094" y2="464.6094"/><text fill="#000000" font-family="sans-serif" font-size="14" font-weight="bold" lengthAdjust="spacingAndGlyphs" textLength="116" x="867.731" y="457.5332">mastermind.utils</text><!--cluster mastermind.models--><polygon fill="#FFFFFF" filter="url(#f16w4pd7l5lowb)" points="925.731,920.5,1068.731,920.5,1075.731,944.1094,1162.73,944.1094,1162.73,1020.5,925.731,1020.5,925.731,920.5" style="stroke: #000000; stroke-width: 1.5;"/><line style="stroke: #000000; stroke-width: 1.5;" x1="925.731" x2="1075.731" y1="944.1094" y2="944.1094"/><text fill="#000000" font-family="sans-serif" font-size="14" font-weight="bold" lengthAdjust="spacingAndGlyphs" textLength="137" x="929.731" y="937.0332">mastermind.models</text><!--cluster java.util--><polygon fill="#FFFFFF" filter="url(#f16w4pd7l5lowb)" points="1137.73,441,1198.73,441,1205.73,464.6094,1225.73,464.6094,1225.73,541,1137.73,541,1137.73,441" style="stroke: #000000; stroke-width: 1.5;"/><line style="stroke: #000000; stroke-width: 1.5;" x1="1137.73" x2="1205.73" y1="464.6094" y2="464.6094"/><text fill="#000000" font-family="sans-serif" font-size="14" font-weight="bold" lengthAdjust="spacingAndGlyphs" textLength="55" x="1141.73" y="457.5332">java.util</text><!--class mastermind.controllers.AcceptorController--><rect fill="#FEFECE" filter="url(#f16w4pd7l5lowb)" height="89.5078" id="mastermind.controllers.AcceptorController" style="stroke: #A80036; stroke-width: 1.5;" width="197" x="282.231" y="264.5"/><ellipse cx="326.031" cy="280.5" fill="#ADD1B2" rx="11" ry="11" style="stroke: #A80036; stroke-width: 1.0;"/><path d="M328.7966,276.375 Q328.9529,276.1563 329.1404,276.0469 Q329.3279,275.9375 329.5466,275.9375 Q329.9216,275.9375 330.156,276.1953 Q330.3904,276.4531 330.3904,277.0625 L330.3904,278.5156 Q330.3904,279.125 330.156,279.3906 Q329.9216,279.6563 329.5466,279.6563 Q329.2029,279.6563 328.9998,279.4531 Q328.7966,279.2656 328.6873,278.75 Q328.6404,278.3906 328.4529,278.2031 Q328.1248,277.8281 327.5154,277.6094 Q326.906,277.3906 326.281,277.3906 Q325.5154,277.3906 324.8826,277.7188 Q324.2498,278.0469 323.7576,278.7969 Q323.2654,279.5469 323.2654,280.5781 L323.2654,281.6719 Q323.2654,282.9063 324.156,283.7266 Q325.0466,284.5469 326.6404,284.5469 Q327.5779,284.5469 328.2341,284.2969 Q328.6248,284.1406 329.0466,283.7031 Q329.3123,283.4375 329.4607,283.3594 Q329.6091,283.2813 329.8123,283.2813 Q330.1404,283.2813 330.3982,283.5391 Q330.656,283.7969 330.656,284.1406 Q330.656,284.4844 330.3123,284.8906 Q329.8123,285.4688 329.0154,285.7969 Q327.9373,286.25 326.6404,286.25 Q325.1248,286.25 323.9216,285.625 Q322.9373,285.125 322.2498,284.0547 Q321.5623,282.9844 321.5623,281.7031 L321.5623,280.5469 Q321.5623,279.2188 322.1794,278.0703 Q322.7966,276.9219 323.8904,276.3047 Q324.9841,275.6875 326.2185,275.6875 Q326.9529,275.6875 327.6013,275.8516 Q328.2498,276.0156 328.7966,276.375 Z "/><text fill="#000000" font-family="sans-serif" font-size="12" lengthAdjust="spacingAndGlyphs" textLength="101" x="346.431" y="285.4102">AcceptorController</text><line style="stroke: #A80036; stroke-width: 1.5;" x1="283.231" x2="478.231" y1="296.5" y2="296.5"/><polygon fill="none" points="293.231,303.918,297.231,307.918,293.231,311.918,289.231,307.918" style="stroke: #B38D22; stroke-width: 1.0;"/><text fill="#000000" font-family="sans-serif" font-size="11" lengthAdjust="spacingAndGlyphs" textLength="56" x="302.231" y="311.9189">tcpip: TCPIP</text><line style="stroke: #A80036; stroke-width: 1.5;" x1="283.231" x2="478.231" y1="318.3359" y2="318.3359"/><polygon fill="#4177AF" points="293.231,326.7539,289.231,332.7539,297.231,332.7539" style="stroke: #1963A0; stroke-width: 1.0;"/><text fill="#000000" font-family="sans-serif" font-size="11" lengthAdjust="spacingAndGlyphs" textLength="171" x="302.231" y="333.7549">AcceptorController(TCPIP, Session)</text><ellipse cx="293.231" cy="344.5898" fill="#84BE84" rx="3" ry="3" style="stroke: #038048; stroke-width: 1.0;"/><text fill="#000000" font-family="sans-serif" font-size="11" font-style="italic" lengthAdjust="spacingAndGlyphs" textLength="154" x="302.231" y="347.5908">accept(ControllersVisitor): void</text><!--class mastermind.controllers.Controller--><rect fill="#FEFECE" filter="url(#f16w4pd7l5lowb)" height="103.3438" id="mastermind.controllers.Controller" style="stroke: #A80036; stroke-width: 1.5;" width="161" x="183.231" y="60"/><ellipse cx="232.481" cy="76" fill="#ADD1B2" rx="11" ry="11" style="stroke: #A80036; stroke-width: 1.0;"/><path d="M235.2466,71.875 Q235.4029,71.6563 235.5904,71.5469 Q235.7779,71.4375 235.9966,71.4375 Q236.3716,71.4375 236.606,71.6953 Q236.8404,71.9531 236.8404,72.5625 L236.8404,74.0156 Q236.8404,74.625 236.606,74.8906 Q236.3716,75.1563 235.9966,75.1563 Q235.6529,75.1563 235.4498,74.9531 Q235.2466,74.7656 235.1373,74.25 Q235.0904,73.8906 234.9029,73.7031 Q234.5748,73.3281 233.9654,73.1094 Q233.356,72.8906 232.731,72.8906 Q231.9654,72.8906 231.3326,73.2188 Q230.6998,73.5469 230.2076,74.2969 Q229.7154,75.0469 229.7154,76.0781 L229.7154,77.1719 Q229.7154,78.4063 230.606,79.2266 Q231.4966,80.0469 233.0904,80.0469 Q234.0279,80.0469 234.6841,79.7969 Q235.0748,79.6406 235.4966,79.2031 Q235.7623,78.9375 235.9107,78.8594 Q236.0591,78.7813 236.2623,78.7813 Q236.5904,78.7813 236.8482,79.0391 Q237.106,79.2969 237.106,79.6406 Q237.106,79.9844 236.7623,80.3906 Q236.2623,80.9688 235.4654,81.2969 Q234.3873,81.75 233.0904,81.75 Q231.5748,81.75 230.3716,81.125 Q229.3873,80.625 228.6998,79.5547 Q228.0123,78.4844 228.0123,77.2031 L228.0123,76.0469 Q228.0123,74.7188 228.6294,73.5703 Q229.2466,72.4219 230.3404,71.8047 Q231.4341,71.1875 232.6685,71.1875 Q233.4029,71.1875 234.0513,71.3516 Q234.6998,71.5156 235.2466,71.875 Z "/><text fill="#000000" font-family="sans-serif" font-size="12" lengthAdjust="spacingAndGlyphs" textLength="54" x="252.981" y="80.9102">Controller</text><line style="stroke: #A80036; stroke-width: 1.5;" x1="184.231" x2="343.231" y1="92" y2="92"/><polygon fill="none" points="194.231,99.418,198.231,103.418,194.231,107.418,190.231,103.418" style="stroke: #B38D22; stroke-width: 1.0;"/><text fill="#000000" font-family="sans-serif" font-size="11" lengthAdjust="spacingAndGlyphs" textLength="83" x="203.231" y="107.4189">session: Session</text><line style="stroke: #A80036; stroke-width: 1.5;" x1="184.231" x2="343.231" y1="113.8359" y2="113.8359"/><polygon fill="#4177AF" points="194.231,122.2539,190.231,128.2539,198.231,128.2539" style="stroke: #1963A0; stroke-width: 1.0;"/><text fill="#000000" font-family="sans-serif" font-size="11" lengthAdjust="spacingAndGlyphs" textLength="93" x="203.231" y="129.2549">Controller(Session)</text><ellipse cx="194.231" cy="140.0898" fill="#84BE84" rx="3" ry="3" style="stroke: #038048; stroke-width: 1.0;"/><text fill="#000000" font-family="sans-serif" font-size="11" lengthAdjust="spacingAndGlyphs" textLength="67" x="203.231" y="143.0908">getWidth(): int</text><ellipse cx="194.231" cy="153.9258" fill="#84BE84" rx="3" ry="3" style="stroke: #038048; stroke-width: 1.0;"/><text fill="#000000" font-family="sans-serif" font-size="11" lengthAdjust="spacingAndGlyphs" textLength="135" x="203.231" y="156.9268">getValueState(): StateValue</text><!--class mastermind.controllers.ControllersVisitor--><rect fill="#FEFECE" filter="url(#f16w4pd7l5lowb)" height="89.5078" id="mastermind.controllers.ControllersVisitor" style="stroke: #A80036; stroke-width: 1.5;" width="170" x="424.731" y="456"/><ellipse cx="459.081" cy="472" fill="#ADD1B2" rx="11" ry="11" style="stroke: #A80036; stroke-width: 1.0;"/><path d="M461.8466,467.875 Q462.0029,467.6563 462.1904,467.5469 Q462.3779,467.4375 462.5966,467.4375 Q462.9716,467.4375 463.206,467.6953 Q463.4404,467.9531 463.4404,468.5625 L463.4404,470.0156 Q463.4404,470.625 463.206,470.8906 Q462.9716,471.1563 462.5966,471.1563 Q462.2529,471.1563 462.0498,470.9531 Q461.8466,470.7656 461.7373,470.25 Q461.6904,469.8906 461.5029,469.7031 Q461.1748,469.3281 460.5654,469.1094 Q459.956,468.8906 459.331,468.8906 Q458.5654,468.8906 457.9326,469.2188 Q457.2998,469.5469 456.8076,470.2969 Q456.3154,471.0469 456.3154,472.0781 L456.3154,473.1719 Q456.3154,474.4063 457.206,475.2266 Q458.0966,476.0469 459.6904,476.0469 Q460.6279,476.0469 461.2841,475.7969 Q461.6748,475.6406 462.0966,475.2031 Q462.3623,474.9375 462.5107,474.8594 Q462.6591,474.7813 462.8623,474.7813 Q463.1904,474.7813 463.4482,475.0391 Q463.706,475.2969 463.706,475.6406 Q463.706,475.9844 463.3623,476.3906 Q462.8623,476.9688 462.0654,477.2969 Q460.9873,477.75 459.6904,477.75 Q458.1748,477.75 456.9716,477.125 Q455.9873,476.625 455.2998,475.5547 Q454.6123,474.4844 454.6123,473.2031 L454.6123,472.0469 Q454.6123,470.7188 455.2294,469.5703 Q455.8466,468.4219 456.9404,467.8047 Q458.0341,467.1875 459.2685,467.1875 Q460.0029,467.1875 460.6513,467.3516 Q461.2998,467.5156 461.8466,467.875 Z "/><text fill="#000000" font-family="sans-serif" font-size="12" lengthAdjust="spacingAndGlyphs" textLength="95" x="477.381" y="476.9102">ControllersVisitor</text><line style="stroke: #A80036; stroke-width: 1.5;" x1="425.731" x2="593.731" y1="488" y2="488"/><line style="stroke: #A80036; stroke-width: 1.5;" x1="425.731" x2="593.731" y1="496" y2="496"/><ellipse cx="435.731" cy="508.418" fill="#84BE84" rx="3" ry="3" style="stroke: #038048; stroke-width: 1.0;"/><text fill="#000000" font-family="sans-serif" font-size="11" font-style="italic" lengthAdjust="spacingAndGlyphs" textLength="126" x="444.731" y="511.4189">visit(StartController): void</text><ellipse cx="435.731" cy="522.2539" fill="#84BE84" rx="3" ry="3" style="stroke: #038048; stroke-width: 1.0;"/><text fill="#000000" font-family="sans-serif" font-size="11" font-style="italic" lengthAdjust="spacingAndGlyphs" textLength="124" x="444.731" y="525.2549">visit(PlayController): void</text><ellipse cx="435.731" cy="536.0898" fill="#84BE84" rx="3" ry="3" style="stroke: #038048; stroke-width: 1.0;"/><text fill="#000000" font-family="sans-serif" font-size="11" font-style="italic" lengthAdjust="spacingAndGlyphs" textLength="144" x="444.731" y="539.0908">visit(ResumeController): void</text><!--class mastermind.controllers.ResumeController--><rect fill="#FEFECE" filter="url(#f16w4pd7l5lowb)" height="89.5078" id="mastermind.controllers.ResumeController" style="stroke: #A80036; stroke-width: 1.5;" width="191" x="632.231" y="682"/><ellipse cx="672.881" cy="698" fill="#ADD1B2" rx="11" ry="11" style="stroke: #A80036; stroke-width: 1.0;"/><path d="M675.6466,693.875 Q675.8029,693.6563 675.9904,693.5469 Q676.1779,693.4375 676.3966,693.4375 Q676.7716,693.4375 677.006,693.6953 Q677.2404,693.9531 677.2404,694.5625 L677.2404,696.0156 Q677.2404,696.625 677.006,696.8906 Q676.7716,697.1563 676.3966,697.1563 Q676.0529,697.1563 675.8498,696.9531 Q675.6466,696.7656 675.5373,696.25 Q675.4904,695.8906 675.3029,695.7031 Q674.9748,695.3281 674.3654,695.1094 Q673.756,694.8906 673.131,694.8906 Q672.3654,694.8906 671.7326,695.2188 Q671.0998,695.5469 670.6076,696.2969 Q670.1154,697.0469 670.1154,698.0781 L670.1154,699.1719 Q670.1154,700.4063 671.006,701.2266 Q671.8966,702.0469 673.4904,702.0469 Q674.4279,702.0469 675.0841,701.7969 Q675.4748,701.6406 675.8966,701.2031 Q676.1623,700.9375 676.3107,700.8594 Q676.4591,700.7813 676.6623,700.7813 Q676.9904,700.7813 677.2482,701.0391 Q677.506,701.2969 677.506,701.6406 Q677.506,701.9844 677.1623,702.3906 Q676.6623,702.9688 675.8654,703.2969 Q674.7873,703.75 673.4904,703.75 Q671.9748,703.75 670.7716,703.125 Q669.7873,702.625 669.0998,701.5547 Q668.4123,700.4844 668.4123,699.2031 L668.4123,698.0469 Q668.4123,696.7188 669.0294,695.5703 Q669.6466,694.4219 670.7404,693.8047 Q671.8341,693.1875 673.0685,693.1875 Q673.8029,693.1875 674.4513,693.3516 Q675.0998,693.5156 675.6466,693.875 Z "/><text fill="#000000" font-family="sans-serif" font-size="12" lengthAdjust="spacingAndGlyphs" textLength="102" x="692.581" y="702.9102">ResumeController</text><line style="stroke: #A80036; stroke-width: 1.5;" x1="633.231" x2="822.231" y1="714" y2="714"/><line style="stroke: #A80036; stroke-width: 1.5;" x1="633.231" x2="822.231" y1="722" y2="722"/><ellipse cx="643.231" cy="734.418" fill="#84BE84" rx="3" ry="3" style="stroke: #038048; stroke-width: 1.0;"/><text fill="#000000" font-family="sans-serif" font-size="11" lengthAdjust="spacingAndGlyphs" textLength="165" x="652.231" y="737.4189">ResumeController(Session, TCPIP)</text><ellipse cx="643.231" cy="748.2539" fill="#84BE84" rx="3" ry="3" style="stroke: #038048; stroke-width: 1.0;"/><text fill="#000000" font-family="sans-serif" font-size="11" lengthAdjust="spacingAndGlyphs" textLength="150" x="652.231" y="751.2549">accept(ControllersVisitor): void</text><ellipse cx="643.231" cy="762.0898" fill="#84BE84" rx="3" ry="3" style="stroke: #038048; stroke-width: 1.0;"/><text fill="#000000" font-family="sans-serif" font-size="11" lengthAdjust="spacingAndGlyphs" textLength="108" x="652.231" y="765.0908">resume(boolean): void</text><!--class mastermind.controllers.StartController--><rect fill="#FEFECE" filter="url(#f16w4pd7l5lowb)" height="89.5078" id="mastermind.controllers.StartController" style="stroke: #A80036; stroke-width: 1.5;" width="176" x="420.731" y="682"/><ellipse cx="464.981" cy="698" fill="#ADD1B2" rx="11" ry="11" style="stroke: #A80036; stroke-width: 1.0;"/><path d="M467.7466,693.875 Q467.9029,693.6563 468.0904,693.5469 Q468.2779,693.4375 468.4966,693.4375 Q468.8716,693.4375 469.106,693.6953 Q469.3404,693.9531 469.3404,694.5625 L469.3404,696.0156 Q469.3404,696.625 469.106,696.8906 Q468.8716,697.1563 468.4966,697.1563 Q468.1529,697.1563 467.9498,696.9531 Q467.7466,696.7656 467.6373,696.25 Q467.5904,695.8906 467.4029,695.7031 Q467.0748,695.3281 466.4654,695.1094 Q465.856,694.8906 465.231,694.8906 Q464.4654,694.8906 463.8326,695.2188 Q463.1998,695.5469 462.7076,696.2969 Q462.2154,697.0469 462.2154,698.0781 L462.2154,699.1719 Q462.2154,700.4063 463.106,701.2266 Q463.9966,702.0469 465.5904,702.0469 Q466.5279,702.0469 467.1841,701.7969 Q467.5748,701.6406 467.9966,701.2031 Q468.2623,700.9375 468.4107,700.8594 Q468.5591,700.7813 468.7623,700.7813 Q469.0904,700.7813 469.3482,701.0391 Q469.606,701.2969 469.606,701.6406 Q469.606,701.9844 469.2623,702.3906 Q468.7623,702.9688 467.9654,703.2969 Q466.8873,703.75 465.5904,703.75 Q464.0748,703.75 462.8716,703.125 Q461.8873,702.625 461.1998,701.5547 Q460.5123,700.4844 460.5123,699.2031 L460.5123,698.0469 Q460.5123,696.7188 461.1294,695.5703 Q461.7466,694.4219 462.8404,693.8047 Q463.9341,693.1875 465.1685,693.1875 Q465.9029,693.1875 466.5513,693.3516 Q467.1998,693.5156 467.7466,693.875 Z "/><text fill="#000000" font-family="sans-serif" font-size="12" lengthAdjust="spacingAndGlyphs" textLength="79" x="485.481" y="702.9102">StartController</text><line style="stroke: #A80036; stroke-width: 1.5;" x1="421.731" x2="595.731" y1="714" y2="714"/><line style="stroke: #A80036; stroke-width: 1.5;" x1="421.731" x2="595.731" y1="722" y2="722"/><ellipse cx="431.731" cy="734.418" fill="#84BE84" rx="3" ry="3" style="stroke: #038048; stroke-width: 1.0;"/><text fill="#000000" font-family="sans-serif" font-size="11" lengthAdjust="spacingAndGlyphs" textLength="149" x="440.731" y="737.4189">StartController(Session, TCPIP)</text><ellipse cx="431.731" cy="748.2539" fill="#84BE84" rx="3" ry="3" style="stroke: #038048; stroke-width: 1.0;"/><text fill="#000000" font-family="sans-serif" font-size="11" lengthAdjust="spacingAndGlyphs" textLength="150" x="440.731" y="751.2549">accept(ControllersVisitor): void</text><ellipse cx="431.731" cy="762.0898" fill="#84BE84" rx="3" ry="3" style="stroke: #038048; stroke-width: 1.0;"/><text fill="#000000" font-family="sans-serif" font-size="11" lengthAdjust="spacingAndGlyphs" textLength="56" x="440.731" y="765.0908">start(): void</text><!--class mastermind.controllers.PlayController--><rect fill="#FEFECE" filter="url(#f16w4pd7l5lowb)" height="241.7031" id="mastermind.controllers.PlayController" style="stroke: #A80036; stroke-width: 1.5;" width="208" x="177.731" y="606"/><ellipse cx="238.981" cy="622" fill="#ADD1B2" rx="11" ry="11" style="stroke: #A80036; stroke-width: 1.0;"/><path d="M241.7466,617.875 Q241.9029,617.6563 242.0904,617.5469 Q242.2779,617.4375 242.4966,617.4375 Q242.8716,617.4375 243.106,617.6953 Q243.3404,617.9531 243.3404,618.5625 L243.3404,620.0156 Q243.3404,620.625 243.106,620.8906 Q242.8716,621.1563 242.4966,621.1563 Q242.1529,621.1563 241.9498,620.9531 Q241.7466,620.7656 241.6373,620.25 Q241.5904,619.8906 241.4029,619.7031 Q241.0748,619.3281 240.4654,619.1094 Q239.856,618.8906 239.231,618.8906 Q238.4654,618.8906 237.8326,619.2188 Q237.1998,619.5469 236.7076,620.2969 Q236.2154,621.0469 236.2154,622.0781 L236.2154,623.1719 Q236.2154,624.4063 237.106,625.2266 Q237.9966,626.0469 239.5904,626.0469 Q240.5279,626.0469 241.1841,625.7969 Q241.5748,625.6406 241.9966,625.2031 Q242.2623,624.9375 242.4107,624.8594 Q242.5591,624.7813 242.7623,624.7813 Q243.0904,624.7813 243.3482,625.0391 Q243.606,625.2969 243.606,625.6406 Q243.606,625.9844 243.2623,626.3906 Q242.7623,626.9688 241.9654,627.2969 Q240.8873,627.75 239.5904,627.75 Q238.0748,627.75 236.8716,627.125 Q235.8873,626.625 235.1998,625.5547 Q234.5123,624.4844 234.5123,623.2031 L234.5123,622.0469 Q234.5123,620.7188 235.1294,619.5703 Q235.7466,618.4219 236.8404,617.8047 Q237.9341,617.1875 239.1685,617.1875 Q239.9029,617.1875 240.5513,617.3516 Q241.1998,617.5156 241.7466,617.875 Z "/><text fill="#000000" font-family="sans-serif" font-size="12" lengthAdjust="spacingAndGlyphs" textLength="77" x="259.481" y="626.9102">PlayController</text><line style="stroke: #A80036; stroke-width: 1.5;" x1="178.731" x2="384.731" y1="638" y2="638"/><rect fill="none" height="6" style="stroke: #C82930; stroke-width: 1.0;" width="6" x="185.731" y="647.418"/><text fill="#000000" font-family="sans-serif" font-size="11" lengthAdjust="spacingAndGlyphs" textLength="182" x="197.731" y="653.4189">proposalController: ProposalController</text><rect fill="none" height="6" style="stroke: #C82930; stroke-width: 1.0;" width="6" x="185.731" y="661.2539"/><text fill="#000000" font-family="sans-serif" font-size="11" lengthAdjust="spacingAndGlyphs" textLength="147" x="197.731" y="667.2549">undoController: UndoController</text><rect fill="none" height="6" style="stroke: #C82930; stroke-width: 1.0;" width="6" x="185.731" y="675.0898"/><text fill="#000000" font-family="sans-serif" font-size="11" lengthAdjust="spacingAndGlyphs" textLength="145" x="197.731" y="681.0908">redoController: RedoController</text><line style="stroke: #A80036; stroke-width: 1.5;" x1="178.731" x2="384.731" y1="687.5078" y2="687.5078"/><polygon fill="#FFFF44" points="188.731,694.9258,192.731,698.9258,188.731,702.9258,184.731,698.9258" style="stroke: #B38D22; stroke-width: 1.0;"/><text fill="#000000" font-family="sans-serif" font-size="11" lengthAdjust="spacingAndGlyphs" textLength="146" x="197.731" y="702.9268">PlayController(Session, TCPIP)</text><ellipse cx="188.731" cy="713.7617" fill="#84BE84" rx="3" ry="3" style="stroke: #038048; stroke-width: 1.0;"/><text fill="#000000" font-family="sans-serif" font-size="11" lengthAdjust="spacingAndGlyphs" textLength="150" x="197.731" y="716.7627">accept(ControllersVisitor): void</text><ellipse cx="188.731" cy="727.5977" fill="#84BE84" rx="3" ry="3" style="stroke: #038048; stroke-width: 1.0;"/><text fill="#000000" font-family="sans-serif" font-size="11" lengthAdjust="spacingAndGlyphs" textLength="140" x="197.731" y="730.5986">proposeCombination(int[]): int</text><ellipse cx="188.731" cy="741.4336" fill="#84BE84" rx="3" ry="3" style="stroke: #038048; stroke-width: 1.0;"/><text fill="#000000" font-family="sans-serif" font-size="11" lengthAdjust="spacingAndGlyphs" textLength="96" x="197.731" y="744.4346">undoable(): boolean</text><ellipse cx="188.731" cy="755.2695" fill="#84BE84" rx="3" ry="3" style="stroke: #038048; stroke-width: 1.0;"/><text fill="#000000" font-family="sans-serif" font-size="11" lengthAdjust="spacingAndGlyphs" textLength="94" x="197.731" y="758.2705">redoable(): boolean</text><ellipse cx="188.731" cy="769.1055" fill="#84BE84" rx="3" ry="3" style="stroke: #038048; stroke-width: 1.0;"/><text fill="#000000" font-family="sans-serif" font-size="11" lengthAdjust="spacingAndGlyphs" textLength="58" x="197.731" y="772.1064">undo(): void</text><ellipse cx="188.731" cy="782.9414" fill="#84BE84" rx="3" ry="3" style="stroke: #038048; stroke-width: 1.0;"/><text fill="#000000" font-family="sans-serif" font-size="11" lengthAdjust="spacingAndGlyphs" textLength="94" x="197.731" y="785.9424">isLooser(): boolean</text><ellipse cx="188.731" cy="796.7773" fill="#84BE84" rx="3" ry="3" style="stroke: #038048; stroke-width: 1.0;"/><text fill="#000000" font-family="sans-serif" font-size="11" lengthAdjust="spacingAndGlyphs" textLength="56" x="197.731" y="799.7783">redo(): void</text><ellipse cx="188.731" cy="810.6133" fill="#84BE84" rx="3" ry="3" style="stroke: #038048; stroke-width: 1.0;"/><text fill="#000000" font-family="sans-serif" font-size="11" lengthAdjust="spacingAndGlyphs" textLength="94" x="197.731" y="813.6143">isWinner(): boolean</text><ellipse cx="188.731" cy="824.4492" fill="#84BE84" rx="3" ry="3" style="stroke: #038048; stroke-width: 1.0;"/><text fill="#000000" font-family="sans-serif" font-size="11" lengthAdjust="spacingAndGlyphs" textLength="62" x="197.731" y="827.4502">getTurn(): int</text><ellipse cx="188.731" cy="838.2852" fill="#84BE84" rx="3" ry="3" style="stroke: #038048; stroke-width: 1.0;"/><text fill="#000000" font-family="sans-serif" font-size="11" lengthAdjust="spacingAndGlyphs" textLength="101" x="197.731" y="841.2861">getAllCodes(): int[][][]</text><!--class mastermind.controllers.Logic--><rect fill="#FEFECE" filter="url(#f16w4pd7l5lowb)" height="172.5234" id="mastermind.controllers.Logic" style="stroke: #A80036; stroke-width: 1.5;" width="309" x="514.231" y="223"/><ellipse cx="649.481" cy="239" fill="#ADD1B2" rx="11" ry="11" style="stroke: #A80036; stroke-width: 1.0;"/><path d="M652.2466,234.875 Q652.4029,234.6563 652.5904,234.5469 Q652.7779,234.4375 652.9966,234.4375 Q653.3716,234.4375 653.606,234.6953 Q653.8404,234.9531 653.8404,235.5625 L653.8404,237.0156 Q653.8404,237.625 653.606,237.8906 Q653.3716,238.1563 652.9966,238.1563 Q652.6529,238.1563 652.4498,237.9531 Q652.2466,237.7656 652.1373,237.25 Q652.0904,236.8906 651.9029,236.7031 Q651.5748,236.3281 650.9654,236.1094 Q650.356,235.8906 649.731,235.8906 Q648.9654,235.8906 648.3326,236.2188 Q647.6998,236.5469 647.2076,237.2969 Q646.7154,238.0469 646.7154,239.0781 L646.7154,240.1719 Q646.7154,241.4063 647.606,242.2266 Q648.4966,243.0469 650.0904,243.0469 Q651.0279,243.0469 651.6841,242.7969 Q652.0748,242.6406 652.4966,242.2031 Q652.7623,241.9375 652.9107,241.8594 Q653.0591,241.7813 653.2623,241.7813 Q653.5904,241.7813 653.8482,242.0391 Q654.106,242.2969 654.106,242.6406 Q654.106,242.9844 653.7623,243.3906 Q653.2623,243.9688 652.4654,244.2969 Q651.3873,244.75 650.0904,244.75 Q648.5748,244.75 647.3716,244.125 Q646.3873,243.625 645.6998,242.5547 Q645.0123,241.4844 645.0123,240.2031 L645.0123,239.0469 Q645.0123,237.7188 645.6294,236.5703 Q646.2466,235.4219 647.3404,234.8047 Q648.4341,234.1875 649.6685,234.1875 Q650.4029,234.1875 651.0513,234.3516 Q651.6998,234.5156 652.2466,234.875 Z "/><text fill="#000000" font-family="sans-serif" font-size="12" lengthAdjust="spacingAndGlyphs" textLength="30" x="669.981" y="243.9102">Logic</text><line style="stroke: #A80036; stroke-width: 1.5;" x1="515.231" x2="822.231" y1="255" y2="255"/><polygon fill="none" points="525.231,262.418,529.231,266.418,525.231,270.418,521.231,266.418" style="stroke: #B38D22; stroke-width: 1.0;"/><text fill="#000000" font-family="sans-serif" font-size="11" lengthAdjust="spacingAndGlyphs" textLength="83" x="534.231" y="270.4189">session: Session</text><polygon fill="none" points="525.231,276.2539,529.231,280.2539,525.231,284.2539,521.231,280.2539" style="stroke: #B38D22; stroke-width: 1.0;"/><text fill="#000000" font-family="sans-serif" font-size="11" lengthAdjust="spacingAndGlyphs" textLength="283" x="534.231" y="284.2549">acceptorControllers: Map&lt;StateValue, AcceptorController&gt;</text><polygon fill="none" points="525.231,290.0898,529.231,294.0898,525.231,298.0898,521.231,294.0898" style="stroke: #B38D22; stroke-width: 1.0;"/><text fill="#000000" font-family="sans-serif" font-size="11" lengthAdjust="spacingAndGlyphs" textLength="143" x="534.231" y="298.0908">startController: StartController</text><polygon fill="none" points="525.231,303.9258,529.231,307.9258,525.231,311.9258,521.231,307.9258" style="stroke: #B38D22; stroke-width: 1.0;"/><text fill="#000000" font-family="sans-serif" font-size="11" lengthAdjust="spacingAndGlyphs" textLength="138" x="534.231" y="311.9268">playController: PlayController</text><polygon fill="none" points="525.231,317.7617,529.231,321.7617,525.231,325.7617,521.231,321.7617" style="stroke: #B38D22; stroke-width: 1.0;"/><text fill="#000000" font-family="sans-serif" font-size="11" lengthAdjust="spacingAndGlyphs" textLength="173" x="534.231" y="325.7627">resumeController: ResumeController</text><rect fill="none" height="6" style="stroke: #C82930; stroke-width: 1.0;" width="6" x="522.231" y="333.5977"/><text fill="#000000" font-family="sans-serif" font-size="11" lengthAdjust="spacingAndGlyphs" textLength="56" x="534.231" y="339.5986">tcpip: TCPIP</text><line style="stroke: #A80036; stroke-width: 1.5;" x1="515.231" x2="822.231" y1="346.0156" y2="346.0156"/><ellipse cx="525.231" cy="358.4336" fill="#84BE84" rx="3" ry="3" style="stroke: #038048; stroke-width: 1.0;"/><text fill="#000000" font-family="sans-serif" font-size="11" lengthAdjust="spacingAndGlyphs" textLength="72" x="534.231" y="361.4346">Logic(boolean)</text><ellipse cx="525.231" cy="372.2695" fill="#84BE84" rx="3" ry="3" style="stroke: #038048; stroke-width: 1.0;"/><text fill="#000000" font-family="sans-serif" font-size="11" lengthAdjust="spacingAndGlyphs" textLength="60" x="534.231" y="375.2705">close(): void</text><ellipse cx="525.231" cy="386.1055" fill="#84BE84" rx="3" ry="3" style="stroke: #038048; stroke-width: 1.0;"/><text fill="#000000" font-family="sans-serif" font-size="11" lengthAdjust="spacingAndGlyphs" textLength="166" x="534.231" y="389.1064">getController(): AcceptorController</text><!--class mastermind.controllers.RedoController--><rect fill="#FEFECE" filter="url(#f16w4pd7l5lowb)" height="89.5078" id="mastermind.controllers.RedoController" style="stroke: #A80036; stroke-width: 1.5;" width="144" x="66.7312" y="935.5"/><ellipse cx="94.3312" cy="951.5" fill="#ADD1B2" rx="11" ry="11" style="stroke: #A80036; stroke-width: 1.0;"/><path d="M97.0968,947.375 Q97.2531,947.1563 97.4406,947.0469 Q97.6281,946.9375 97.8468,946.9375 Q98.2218,946.9375 98.4562,947.1953 Q98.6906,947.4531 98.6906,948.0625 L98.6906,949.5156 Q98.6906,950.125 98.4562,950.3906 Q98.2218,950.6563 97.8468,950.6563 Q97.5031,950.6563 97.3,950.4531 Q97.0968,950.2656 96.9875,949.75 Q96.9406,949.3906 96.7531,949.2031 Q96.425,948.8281 95.8156,948.6094 Q95.2062,948.3906 94.5812,948.3906 Q93.8156,948.3906 93.1828,948.7188 Q92.55,949.0469 92.0578,949.7969 Q91.5656,950.5469 91.5656,951.5781 L91.5656,952.6719 Q91.5656,953.9063 92.4562,954.7266 Q93.3468,955.5469 94.9406,955.5469 Q95.8781,955.5469 96.5343,955.2969 Q96.925,955.1406 97.3468,954.7031 Q97.6125,954.4375 97.7609,954.3594 Q97.9093,954.2813 98.1125,954.2813 Q98.4406,954.2813 98.6984,954.5391 Q98.9562,954.7969 98.9562,955.1406 Q98.9562,955.4844 98.6125,955.8906 Q98.1125,956.4688 97.3156,956.7969 Q96.2375,957.25 94.9406,957.25 Q93.425,957.25 92.2218,956.625 Q91.2375,956.125 90.55,955.0547 Q89.8625,953.9844 89.8625,952.7031 L89.8625,951.5469 Q89.8625,950.2188 90.4796,949.0703 Q91.0968,947.9219 92.1906,947.3047 Q93.2843,946.6875 94.5187,946.6875 Q95.2531,946.6875 95.9015,946.8516 Q96.55,947.0156 97.0968,947.375 Z "/><text fill="#000000" font-family="sans-serif" font-size="12" lengthAdjust="spacingAndGlyphs" textLength="84" x="111.1312" y="956.4102">RedoController</text><line style="stroke: #A80036; stroke-width: 1.5;" x1="67.7312" x2="209.7312" y1="967.5" y2="967.5"/><line style="stroke: #A80036; stroke-width: 1.5;" x1="67.7312" x2="209.7312" y1="975.5" y2="975.5"/><ellipse cx="77.7312" cy="987.918" fill="#84BE84" rx="3" ry="3" style="stroke: #038048; stroke-width: 1.0;"/><text fill="#000000" font-family="sans-serif" font-size="11" lengthAdjust="spacingAndGlyphs" textLength="118" x="86.7312" y="990.9189">RedoController(Session)</text><ellipse cx="77.7312" cy="1001.7539" fill="#84BE84" rx="3" ry="3" style="stroke: #038048; stroke-width: 1.0;"/><text fill="#000000" font-family="sans-serif" font-size="11" lengthAdjust="spacingAndGlyphs" textLength="94" x="86.7312" y="1004.7549">redoable(): boolean</text><ellipse cx="77.7312" cy="1015.5898" fill="#84BE84" rx="3" ry="3" style="stroke: #038048; stroke-width: 1.0;"/><text fill="#000000" font-family="sans-serif" font-size="11" lengthAdjust="spacingAndGlyphs" textLength="56" x="86.7312" y="1018.5908">redo(): void</text><!--class mastermind.controllers.UndoController--><rect fill="#FEFECE" filter="url(#f16w4pd7l5lowb)" height="89.5078" id="mastermind.controllers.UndoController" style="stroke: #A80036; stroke-width: 1.5;" width="144" x="245.731" y="935.5"/><ellipse cx="273.331" cy="951.5" fill="#ADD1B2" rx="11" ry="11" style="stroke: #A80036; stroke-width: 1.0;"/><path d="M276.0966,947.375 Q276.2529,947.1563 276.4404,947.0469 Q276.6279,946.9375 276.8466,946.9375 Q277.2216,946.9375 277.456,947.1953 Q277.6904,947.4531 277.6904,948.0625 L277.6904,949.5156 Q277.6904,950.125 277.456,950.3906 Q277.2216,950.6563 276.8466,950.6563 Q276.5029,950.6563 276.2998,950.4531 Q276.0966,950.2656 275.9873,949.75 Q275.9404,949.3906 275.7529,949.2031 Q275.4248,948.8281 274.8154,948.6094 Q274.206,948.3906 273.581,948.3906 Q272.8154,948.3906 272.1826,948.7188 Q271.5498,949.0469 271.0576,949.7969 Q270.5654,950.5469 270.5654,951.5781 L270.5654,952.6719 Q270.5654,953.9063 271.456,954.7266 Q272.3466,955.5469 273.9404,955.5469 Q274.8779,955.5469 275.5341,955.2969 Q275.9248,955.1406 276.3466,954.7031 Q276.6123,954.4375 276.7607,954.3594 Q276.9091,954.2813 277.1123,954.2813 Q277.4404,954.2813 277.6982,954.5391 Q277.956,954.7969 277.956,955.1406 Q277.956,955.4844 277.6123,955.8906 Q277.1123,956.4688 276.3154,956.7969 Q275.2373,957.25 273.9404,957.25 Q272.4248,957.25 271.2216,956.625 Q270.2373,956.125 269.5498,955.0547 Q268.8623,953.9844 268.8623,952.7031 L268.8623,951.5469 Q268.8623,950.2188 269.4794,949.0703 Q270.0966,947.9219 271.1904,947.3047 Q272.2841,946.6875 273.5185,946.6875 Q274.2529,946.6875 274.9013,946.8516 Q275.5498,947.0156 276.0966,947.375 Z "/><text fill="#000000" font-family="sans-serif" font-size="12" lengthAdjust="spacingAndGlyphs" textLength="84" x="290.131" y="956.4102">UndoController</text><line style="stroke: #A80036; stroke-width: 1.5;" x1="246.731" x2="388.731" y1="967.5" y2="967.5"/><line style="stroke: #A80036; stroke-width: 1.5;" x1="246.731" x2="388.731" y1="975.5" y2="975.5"/><ellipse cx="256.731" cy="987.918" fill="#84BE84" rx="3" ry="3" style="stroke: #038048; stroke-width: 1.0;"/><text fill="#000000" font-family="sans-serif" font-size="11" lengthAdjust="spacingAndGlyphs" textLength="118" x="265.731" y="990.9189">UndoController(Session)</text><ellipse cx="256.731" cy="1001.7539" fill="#84BE84" rx="3" ry="3" style="stroke: #038048; stroke-width: 1.0;"/><text fill="#000000" font-family="sans-serif" font-size="11" lengthAdjust="spacingAndGlyphs" textLength="96" x="265.731" y="1004.7549">undoable(): boolean</text><ellipse cx="256.731" cy="1015.5898" fill="#84BE84" rx="3" ry="3" style="stroke: #038048; stroke-width: 1.0;"/><text fill="#000000" font-family="sans-serif" font-size="11" lengthAdjust="spacingAndGlyphs" textLength="58" x="265.731" y="1018.5908">undo(): void</text><!--class mastermind.controllers.ProposalController--><rect fill="#FEFECE" filter="url(#f16w4pd7l5lowb)" height="144.8516" id="mastermind.controllers.ProposalController" style="stroke: #A80036; stroke-width: 1.5;" width="166" x="424.731" y="908"/><ellipse cx="453.231" cy="924" fill="#ADD1B2" rx="11" ry="11" style="stroke: #A80036; stroke-width: 1.0;"/><path d="M455.9966,919.875 Q456.1529,919.6563 456.3404,919.5469 Q456.5279,919.4375 456.7466,919.4375 Q457.1216,919.4375 457.356,919.6953 Q457.5904,919.9531 457.5904,920.5625 L457.5904,922.0156 Q457.5904,922.625 457.356,922.8906 Q457.1216,923.1563 456.7466,923.1563 Q456.4029,923.1563 456.1998,922.9531 Q455.9966,922.7656 455.8873,922.25 Q455.8404,921.8906 455.6529,921.7031 Q455.3248,921.3281 454.7154,921.1094 Q454.106,920.8906 453.481,920.8906 Q452.7154,920.8906 452.0826,921.2188 Q451.4498,921.5469 450.9576,922.2969 Q450.4654,923.0469 450.4654,924.0781 L450.4654,925.1719 Q450.4654,926.4063 451.356,927.2266 Q452.2466,928.0469 453.8404,928.0469 Q454.7779,928.0469 455.4341,927.7969 Q455.8248,927.6406 456.2466,927.2031 Q456.5123,926.9375 456.6607,926.8594 Q456.8091,926.7813 457.0123,926.7813 Q457.3404,926.7813 457.5982,927.0391 Q457.856,927.2969 457.856,927.6406 Q457.856,927.9844 457.5123,928.3906 Q457.0123,928.9688 456.2154,929.2969 Q455.1373,929.75 453.8404,929.75 Q452.3248,929.75 451.1216,929.125 Q450.1373,928.625 449.4498,927.5547 Q448.7623,926.4844 448.7623,925.2031 L448.7623,924.0469 Q448.7623,922.7188 449.3794,921.5703 Q449.9966,920.4219 451.0904,919.8047 Q452.1841,919.1875 453.4185,919.1875 Q454.1529,919.1875 454.8013,919.3516 Q455.4498,919.5156 455.9966,919.875 Z "/><text fill="#000000" font-family="sans-serif" font-size="12" lengthAdjust="spacingAndGlyphs" textLength="104" x="470.231" y="928.9102">ProposalController</text><line style="stroke: #A80036; stroke-width: 1.5;" x1="425.731" x2="589.731" y1="940" y2="940"/><ellipse cx="435.731" cy="952.418" fill="none" rx="3" ry="3" style="stroke: #038048; stroke-width: 1.0;"/><text fill="#000000" font-family="sans-serif" font-size="11" lengthAdjust="spacingAndGlyphs" text-decoration="underline" textLength="73" x="444.731" y="955.4189">NO_ERROR: int</text><line style="stroke: #A80036; stroke-width: 1.5;" x1="425.731" x2="589.731" y1="961.8359" y2="961.8359"/><ellipse cx="435.731" cy="974.2539" fill="#84BE84" rx="3" ry="3" style="stroke: #038048; stroke-width: 1.0;"/><text fill="#000000" font-family="sans-serif" font-size="11" lengthAdjust="spacingAndGlyphs" textLength="135" x="444.731" y="977.2549">ProposalController(Session)</text><ellipse cx="435.731" cy="988.0898" fill="#84BE84" rx="3" ry="3" style="stroke: #038048; stroke-width: 1.0;"/><text fill="#000000" font-family="sans-serif" font-size="11" lengthAdjust="spacingAndGlyphs" textLength="140" x="444.731" y="991.0908">proposeCombination(int[]): int</text><ellipse cx="435.731" cy="1001.9258" fill="#84BE84" rx="3" ry="3" style="stroke: #038048; stroke-width: 1.0;"/><text fill="#000000" font-family="sans-serif" font-size="11" lengthAdjust="spacingAndGlyphs" textLength="94" x="444.731" y="1004.9268">isLooser(): boolean</text><ellipse cx="435.731" cy="1015.7617" fill="#84BE84" rx="3" ry="3" style="stroke: #038048; stroke-width: 1.0;"/><text fill="#000000" font-family="sans-serif" font-size="11" lengthAdjust="spacingAndGlyphs" textLength="94" x="444.731" y="1018.7627">isWinner(): boolean</text><ellipse cx="435.731" cy="1029.5977" fill="#84BE84" rx="3" ry="3" style="stroke: #038048; stroke-width: 1.0;"/><text fill="#000000" font-family="sans-serif" font-size="11" lengthAdjust="spacingAndGlyphs" textLength="62" x="444.731" y="1032.5986">getTurn(): int</text><ellipse cx="435.731" cy="1043.4336" fill="#84BE84" rx="3" ry="3" style="stroke: #038048; stroke-width: 1.0;"/><text fill="#000000" font-family="sans-serif" font-size="11" lengthAdjust="spacingAndGlyphs" textLength="101" x="444.731" y="1046.4346">getAllCodes(): int[][][]</text><!--class mastermind.utils.TCPIP--><rect fill="#FEFECE" filter="url(#f16w4pd7l5lowb)" height="48" id="mastermind.utils.TCPIP" style="stroke: #A80036; stroke-width: 1.5;" width="67" x="880.231" y="477"/><ellipse cx="895.231" cy="493" fill="#ADD1B2" rx="11" ry="11" style="stroke: #A80036; stroke-width: 1.0;"/><path d="M897.9966,488.875 Q898.1529,488.6563 898.3404,488.5469 Q898.5279,488.4375 898.7466,488.4375 Q899.1216,488.4375 899.356,488.6953 Q899.5904,488.9531 899.5904,489.5625 L899.5904,491.0156 Q899.5904,491.625 899.356,491.8906 Q899.1216,492.1563 898.7466,492.1563 Q898.4029,492.1563 898.1998,491.9531 Q897.9966,491.7656 897.8873,491.25 Q897.8404,490.8906 897.6529,490.7031 Q897.3248,490.3281 896.7154,490.1094 Q896.106,489.8906 895.481,489.8906 Q894.7154,489.8906 894.0826,490.2188 Q893.4498,490.5469 892.9576,491.2969 Q892.4654,492.0469 892.4654,493.0781 L892.4654,494.1719 Q892.4654,495.4063 893.356,496.2266 Q894.2466,497.0469 895.8404,497.0469 Q896.7779,497.0469 897.4341,496.7969 Q897.8248,496.6406 898.2466,496.2031 Q898.5123,495.9375 898.6607,495.8594 Q898.8091,495.7813 899.0123,495.7813 Q899.3404,495.7813 899.5982,496.0391 Q899.856,496.2969 899.856,496.6406 Q899.856,496.9844 899.5123,497.3906 Q899.0123,497.9688 898.2154,498.2969 Q897.1373,498.75 895.8404,498.75 Q894.3248,498.75 893.1216,498.125 Q892.1373,497.625 891.4498,496.5547 Q890.7623,495.4844 890.7623,494.2031 L890.7623,493.0469 Q890.7623,491.7188 891.3794,490.5703 Q891.9966,489.4219 893.0904,488.8047 Q894.1841,488.1875 895.4185,488.1875 Q896.1529,488.1875 896.8013,488.3516 Q897.4498,488.5156 897.9966,488.875 Z "/><text fill="#000000" font-family="sans-serif" font-size="12" lengthAdjust="spacingAndGlyphs" textLength="35" x="909.231" y="497.9102">TCPIP</text><line style="stroke: #A80036; stroke-width: 1.5;" x1="881.231" x2="946.231" y1="509" y2="509"/><line style="stroke: #A80036; stroke-width: 1.5;" x1="881.231" x2="946.231" y1="517" y2="517"/><!--class mastermind.models.Session--><rect fill="#FEFECE" filter="url(#f16w4pd7l5lowb)" height="48" id="mastermind.models.Session" style="stroke: #A80036; stroke-width: 1.5;" width="78" x="941.731" y="956.5"/><ellipse cx="956.731" cy="972.5" fill="#ADD1B2" rx="11" ry="11" style="stroke: #A80036; stroke-width: 1.0;"/><path d="M959.4966,968.375 Q959.6529,968.1563 959.8404,968.0469 Q960.0279,967.9375 960.2466,967.9375 Q960.6216,967.9375 960.856,968.1953 Q961.0904,968.4531 961.0904,969.0625 L961.0904,970.5156 Q961.0904,971.125 960.856,971.3906 Q960.6216,971.6563 960.2466,971.6563 Q959.9029,971.6563 959.6998,971.4531 Q959.4966,971.2656 959.3873,970.75 Q959.3404,970.3906 959.1529,970.2031 Q958.8248,969.8281 958.2154,969.6094 Q957.606,969.3906 956.981,969.3906 Q956.2154,969.3906 955.5826,969.7188 Q954.9498,970.0469 954.4576,970.7969 Q953.9654,971.5469 953.9654,972.5781 L953.9654,973.6719 Q953.9654,974.9063 954.856,975.7266 Q955.7466,976.5469 957.3404,976.5469 Q958.2779,976.5469 958.9341,976.2969 Q959.3248,976.1406 959.7466,975.7031 Q960.0123,975.4375 960.1607,975.3594 Q960.3091,975.2813 960.5123,975.2813 Q960.8404,975.2813 961.0982,975.5391 Q961.356,975.7969 961.356,976.1406 Q961.356,976.4844 961.0123,976.8906 Q960.5123,977.4688 959.7154,977.7969 Q958.6373,978.25 957.3404,978.25 Q955.8248,978.25 954.6216,977.625 Q953.6373,977.125 952.9498,976.0547 Q952.2623,974.9844 952.2623,973.7031 L952.2623,972.5469 Q952.2623,971.2188 952.8794,970.0703 Q953.4966,968.9219 954.5904,968.3047 Q955.6841,967.6875 956.9185,967.6875 Q957.6529,967.6875 958.3013,967.8516 Q958.9498,968.0156 959.4966,968.375 Z "/><text fill="#000000" font-family="sans-serif" font-size="12" lengthAdjust="spacingAndGlyphs" textLength="46" x="970.731" y="977.4102">Session</text><line style="stroke: #A80036; stroke-width: 1.5;" x1="942.731" x2="1018.731" y1="988.5" y2="988.5"/><line style="stroke: #A80036; stroke-width: 1.5;" x1="942.731" x2="1018.731" y1="996.5" y2="996.5"/><!--class mastermind.models.StateValue--><rect fill="#FEFECE" filter="url(#f16w4pd7l5lowb)" height="48" id="mastermind.models.StateValue" style="stroke: #A80036; stroke-width: 1.5;" width="91" x="1055.23" y="956.5"/><ellipse cx="1070.23" cy="972.5" fill="#ADD1B2" rx="11" ry="11" style="stroke: #A80036; stroke-width: 1.0;"/><path d="M1072.9956,968.375 Q1073.1519,968.1563 1073.3394,968.0469 Q1073.5269,967.9375 1073.7456,967.9375 Q1074.1206,967.9375 1074.355,968.1953 Q1074.5894,968.4531 1074.5894,969.0625 L1074.5894,970.5156 Q1074.5894,971.125 1074.355,971.3906 Q1074.1206,971.6563 1073.7456,971.6563 Q1073.4019,971.6563 1073.1988,971.4531 Q1072.9956,971.2656 1072.8863,970.75 Q1072.8394,970.3906 1072.6519,970.2031 Q1072.3238,969.8281 1071.7144,969.6094 Q1071.105,969.3906 1070.48,969.3906 Q1069.7144,969.3906 1069.0816,969.7188 Q1068.4488,970.0469 1067.9566,970.7969 Q1067.4644,971.5469 1067.4644,972.5781 L1067.4644,973.6719 Q1067.4644,974.9063 1068.355,975.7266 Q1069.2456,976.5469 1070.8394,976.5469 Q1071.7769,976.5469 1072.4331,976.2969 Q1072.8238,976.1406 1073.2456,975.7031 Q1073.5113,975.4375 1073.6597,975.3594 Q1073.8081,975.2813 1074.0113,975.2813 Q1074.3394,975.2813 1074.5972,975.5391 Q1074.855,975.7969 1074.855,976.1406 Q1074.855,976.4844 1074.5113,976.8906 Q1074.0113,977.4688 1073.2144,977.7969 Q1072.1363,978.25 1070.8394,978.25 Q1069.3238,978.25 1068.1206,977.625 Q1067.1363,977.125 1066.4488,976.0547 Q1065.7613,974.9844 1065.7613,973.7031 L1065.7613,972.5469 Q1065.7613,971.2188 1066.3784,970.0703 Q1066.9956,968.9219 1068.0894,968.3047 Q1069.1831,967.6875 1070.4175,967.6875 Q1071.1519,967.6875 1071.8003,967.8516 Q1072.4488,968.0156 1072.9956,968.375 Z "/><text fill="#000000" font-family="sans-serif" font-size="12" lengthAdjust="spacingAndGlyphs" textLength="59" x="1084.23" y="977.4102">StateValue</text><line style="stroke: #A80036; stroke-width: 1.5;" x1="1056.23" x2="1145.23" y1="988.5" y2="988.5"/><line style="stroke: #A80036; stroke-width: 1.5;" x1="1056.23" x2="1145.23" y1="996.5" y2="996.5"/><!--class java.util.Map--><rect fill="#FEFECE" filter="url(#f16w4pd7l5lowb)" height="48" id="java.util.Map" style="stroke: #A80036; stroke-width: 1.5;" width="55" x="1154.23" y="477"/><ellipse cx="1169.23" cy="493" fill="#ADD1B2" rx="11" ry="11" style="stroke: #A80036; stroke-width: 1.0;"/><path d="M1171.9956,488.875 Q1172.1519,488.6563 1172.3394,488.5469 Q1172.5269,488.4375 1172.7456,488.4375 Q1173.1206,488.4375 1173.355,488.6953 Q1173.5894,488.9531 1173.5894,489.5625 L1173.5894,491.0156 Q1173.5894,491.625 1173.355,491.8906 Q1173.1206,492.1563 1172.7456,492.1563 Q1172.4019,492.1563 1172.1988,491.9531 Q1171.9956,491.7656 1171.8863,491.25 Q1171.8394,490.8906 1171.6519,490.7031 Q1171.3238,490.3281 1170.7144,490.1094 Q1170.105,489.8906 1169.48,489.8906 Q1168.7144,489.8906 1168.0816,490.2188 Q1167.4488,490.5469 1166.9566,491.2969 Q1166.4644,492.0469 1166.4644,493.0781 L1166.4644,494.1719 Q1166.4644,495.4063 1167.355,496.2266 Q1168.2456,497.0469 1169.8394,497.0469 Q1170.7769,497.0469 1171.4331,496.7969 Q1171.8238,496.6406 1172.2456,496.2031 Q1172.5113,495.9375 1172.6597,495.8594 Q1172.8081,495.7813 1173.0113,495.7813 Q1173.3394,495.7813 1173.5972,496.0391 Q1173.855,496.2969 1173.855,496.6406 Q1173.855,496.9844 1173.5113,497.3906 Q1173.0113,497.9688 1172.2144,498.2969 Q1171.1363,498.75 1169.8394,498.75 Q1168.3238,498.75 1167.1206,498.125 Q1166.1363,497.625 1165.4488,496.5547 Q1164.7613,495.4844 1164.7613,494.2031 L1164.7613,493.0469 Q1164.7613,491.7188 1165.3784,490.5703 Q1165.9956,489.4219 1167.0894,488.8047 Q1168.1831,488.1875 1169.4175,488.1875 Q1170.1519,488.1875 1170.8003,488.3516 Q1171.4488,488.5156 1171.9956,488.875 Z "/><text fill="#000000" font-family="sans-serif" font-size="12" lengthAdjust="spacingAndGlyphs" textLength="23" x="1183.23" y="497.9102">Map</text><line style="stroke: #A80036; stroke-width: 1.5;" x1="1155.23" x2="1208.23" y1="509" y2="509"/><line style="stroke: #A80036; stroke-width: 1.5;" x1="1155.23" x2="1208.23" y1="517" y2="517"/><!--link mastermind.controllers.Controller to mastermind.controllers.AcceptorController--><path d="M304.278,180.424 C320.867,208.215 339.589,239.579 354.354,264.313 " fill="none" id="mastermind.controllers.Controller-mastermind.controllers.AcceptorController" style="stroke: #A80036; stroke-width: 1.0;"/><polygon fill="none" points="298.255,183.991,294.014,163.23,310.276,176.815,298.255,183.991" style="stroke: #A80036; stroke-width: 1.0;"/><!--link mastermind.controllers.AcceptorController to mastermind.utils.TCPIP--><path d="M439.156,362.783 C456.576,375.711 476.46,388.107 496.731,396 C639.611,451.634 699.83,370.251 839.731,433 C857.247,440.856 873.458,454.457 886.216,467.361 " fill="none" id="mastermind.controllers.AcceptorController-mastermind.utils.TCPIP" style="stroke: #A80036; stroke-width: 1.0;"/><polygon fill="#A80036" points="895.262,476.985,892.0125,467.6877,891.8375,473.3418,886.1834,473.1668,895.262,476.985" style="stroke: #A80036; stroke-width: 1.0;"/><line style="stroke: #A80036; stroke-width: 1.0;" x1="891.8375" x2="886.359" y1="473.3418" y2="467.513"/><polygon fill="#A80036" points="428.646,354.7,430.9632,361.5287,438.1578,362.0161,435.8406,355.1875,428.646,354.7" style="stroke: #A80036; stroke-width: 1.0;"/><!--link mastermind.controllers.AcceptorController to mastermind.controllers.ControllersVisitor--><path d="M410.976,354.929 C430.708,383.916 456.466,421.754 476.728,451.518 " fill="none" id="mastermind.controllers.AcceptorController-mastermind.controllers.ControllersVisitor" style="stroke: #A80036; stroke-width: 1.0; stroke-dasharray: 7.0,7.0;"/><polygon fill="#A80036" points="479.676,455.849,477.9166,446.1586,476.8618,451.7162,471.3041,450.6614,479.676,455.849" style="stroke: #A80036; stroke-width: 1.0;"/><!--link mastermind.controllers.Controller to mastermind.models.Session--><path d="M344.67,120.01 C458.232,132.32 670.076,161.809 840.731,223 C1024.2,288.786 1126.24,265.397 1225.73,433 C1252.05,477.333 1238.92,499.16 1225.73,549 C1181.39,716.576 1054.98,887.163 1003.231,952.122 " fill="none" id="mastermind.controllers.Controller-mastermind.models.Session" style="stroke: #A80036; stroke-width: 1.0;"/><polygon fill="#A80036" points="999.932,956.247,1008.6765,951.7156,1003.0544,952.3418,1002.4282,946.7197,999.932,956.247" style="stroke: #A80036; stroke-width: 1.0;"/><!--link mastermind.controllers.Controller to mastermind.models.StateValue--><path d="M344.37,117.446 C518.59,129.159 924.281,162.267 1046.73,223 C1165.54,281.929 1207.69,310.593 1258.73,433 C1338.83,625.093 1180,871.245 1121.32,952.296 " fill="none" id="mastermind.controllers.Controller-mastermind.models.StateValue" style="stroke: #A80036; stroke-width: 1.0; stroke-dasharray: 7.0,7.0;"/><polygon fill="#A80036" points="1118.27,956.486,1126.8017,951.5656,1121.2135,952.4442,1120.3349,946.856,1118.27,956.486" style="stroke: #A80036; stroke-width: 1.0;"/><!--link mastermind.controllers.ControllersVisitor to mastermind.controllers.ResumeController--><path d="M554.263,546.032 C572.766,564.456 594.394,586.16 613.731,606 C636.673,629.538 661.872,655.998 682.732,678.071 " fill="none" id="mastermind.controllers.ControllersVisitor-mastermind.controllers.ResumeController" style="stroke: #A80036; stroke-width: 1.0; stroke-dasharray: 7.0,7.0;"/><polygon fill="#A80036" points="686.307,681.856,683.0329,672.5673,682.8729,678.2219,677.2183,678.0619,686.307,681.856" style="stroke: #A80036; stroke-width: 1.0;"/><!--link mastermind.controllers.ControllersVisitor to mastermind.controllers.StartController--><path d="M509.534,546.255 C509.366,583.838 509.125,637.723 508.951,676.682 " fill="none" id="mastermind.controllers.ControllersVisitor-mastermind.controllers.StartController" style="stroke: #A80036; stroke-width: 1.0; stroke-dasharray: 7.0,7.0;"/><polygon fill="#A80036" points="508.928,681.837,512.9691,672.8554,508.9509,676.8371,504.9692,672.8188,508.928,681.837" style="stroke: #A80036; stroke-width: 1.0;"/><!--link mastermind.controllers.ControllersVisitor to mastermind.controllers.PlayController--><path d="M464.075,546.18 C445.064,564.627 422.788,586.309 402.731,606 C398.443,610.21 394.073,614.508 389.662,618.852 " fill="none" id="mastermind.controllers.ControllersVisitor-mastermind.controllers.PlayController" style="stroke: #A80036; stroke-width: 1.0; stroke-dasharray: 7.0,7.0;"/><polygon fill="#A80036" points="385.948,622.512,395.1666,619.0453,389.5099,619.003,389.5522,613.3463,385.948,622.512" style="stroke: #A80036; stroke-width: 1.0;"/><!--link mastermind.controllers.Logic to mastermind.controllers.ResumeController--><path d="M690.561,409.304 C692.066,417.304 693.48,425.276 694.731,433 C707.911,514.335 717.563,609.223 722.913,668.467 " fill="none" id="mastermind.controllers.Logic-mastermind.controllers.ResumeController" style="stroke: #A80036; stroke-width: 1.0;"/><polygon fill="#A80036" points="724.085,681.639,727.2721,672.3201,723.6421,676.6587,719.3036,673.0287,724.085,681.639" style="stroke: #A80036; stroke-width: 1.0;"/><line style="stroke: #A80036; stroke-width: 1.0;" x1="723.6421" x2="722.933" y1="676.6587" y2="668.69"/><polygon fill="#A80036" points="688.043,396.305,685.2573,402.9563,690.3256,408.0859,693.1113,401.4346,688.043,396.305" style="stroke: #A80036; stroke-width: 1.0;"/><!--link mastermind.controllers.Logic to mastermind.models.Session--><path d="M835.857,343.229 C885.042,361.351 933.674,389.454 963.731,433 C1074.87,594.018 1018.07,850.015 991.708,943.673 " fill="none" id="mastermind.controllers.Logic-mastermind.models.Session" style="stroke: #A80036; stroke-width: 1.0;"/><polygon fill="#A80036" points="988.063,956.283,994.4041,948.7471,989.451,951.4795,986.7185,946.5263,988.063,956.283" style="stroke: #A80036; stroke-width: 1.0;"/><line style="stroke: #A80036; stroke-width: 1.0;" x1="989.451" x2="991.673" y1="951.4795" y2="943.794"/><polygon fill="#A80036" points="823.352,338.834,827.6864,344.597,834.6733,342.8126,830.3388,337.0495,823.352,338.834" style="stroke: #A80036; stroke-width: 1.0;"/><!--link mastermind.controllers.Logic to mastermind.models.StateValue--><path d="M836.547,333.276 C901.315,350.409 970.544,380.423 1015.73,433 C1145.18,583.612 1120.94,847.58 1106.86,943.428 " fill="none" id="mastermind.controllers.Logic-mastermind.models.StateValue" style="stroke: #A80036; stroke-width: 1.0;"/><polygon fill="#A80036" points="1104.87,956.316,1110.1923,948.0291,1105.6305,951.3742,1102.2854,946.8123,1104.87,956.316" style="stroke: #A80036; stroke-width: 1.0;"/><line style="stroke: #A80036; stroke-width: 1.0;" x1="1105.6305" x2="1106.85" y1="951.3742" y2="943.4675"/><polygon fill="#A80036" points="823.661,330.018,828.4979,335.3663,835.2951,332.9585,830.4582,327.6102,823.661,330.018" style="stroke: #A80036; stroke-width: 1.0;"/><!--link mastermind.controllers.Logic to java.util.Map--><path d="M836.303,329.845 C927.77,346.417 1039.76,376.959 1126.73,433 C1139.9,441.488 1151.46,454.155 1160.53,466.198 " fill="none" id="mastermind.controllers.Logic-java.util.Map" style="stroke: #A80036; stroke-width: 1.0;"/><polygon fill="#A80036" points="1168.15,476.944,1166.2145,467.2872,1165.261,472.8631,1159.6851,471.9096,1168.15,476.944" style="stroke: #A80036; stroke-width: 1.0;"/><line style="stroke: #A80036; stroke-width: 1.0;" x1="1165.261" x2="1160.635" y1="472.8631" y2="466.336"/><polygon fill="#A80036" points="823.25,327.549,828.4661,332.5282,835.0685,329.6284,829.8524,324.6492,823.25,327.549" style="stroke: #A80036; stroke-width: 1.0;"/><!--link mastermind.controllers.Logic to mastermind.controllers.StartController--><path d="M651.888,409.256 C642.723,452.987 629.55,504.491 611.731,549 C594.576,591.851 568.331,636.76 546.628,670.62 " fill="none" id="mastermind.controllers.Logic-mastermind.controllers.StartController" style="stroke: #A80036; stroke-width: 1.0;"/><polygon fill="#A80036" points="539.462,681.661,547.7175,676.2901,542.1844,677.4672,541.0073,671.9341,539.462,681.661" style="stroke: #A80036; stroke-width: 1.0;"/><line style="stroke: #A80036; stroke-width: 1.0;" x1="542.1844" x2="546.5395" y1="677.4672" y2="670.7565"/><polygon fill="#A80036" points="654.545,396.249,649.4253,401.3272,652.1437,408.0063,657.2634,402.9281,654.545,396.249" style="stroke: #A80036; stroke-width: 1.0;"/><!--link mastermind.controllers.Logic to mastermind.utils.TCPIP--><path d="M802.59,404.143 C815.29,413.699 827.85,423.417 839.731,433 C853.221,443.88 867.464,456.483 879.812,467.804 " fill="none" id="mastermind.controllers.Logic-mastermind.utils.TCPIP" style="stroke: #A80036; stroke-width: 1.0;"/><polygon fill="#A80036" points="889.682,476.945,885.7976,467.8945,886.0139,473.5472,880.3612,473.7635,889.682,476.945" style="stroke: #A80036; stroke-width: 1.0;"/><line style="stroke: #A80036; stroke-width: 1.0;" x1="886.0139" x2="880.144" y1="473.5472" y2="468.111"/><polygon fill="#A80036" points="791.901,396.162,794.3149,402.9571,801.5157,403.3424,799.1018,396.5473,791.901,396.162" style="stroke: #A80036; stroke-width: 1.0;"/><!--link mastermind.controllers.Logic to mastermind.controllers.PlayController--><path d="M501.757,393.711 C500.075,394.481 498.399,395.244 496.731,396 C457.342,413.859 437.514,402.621 406.731,433 C382.089,457.319 351.65,527.938 326.979,593.75 " fill="none" id="mastermind.controllers.Logic-mastermind.controllers.PlayController" style="stroke: #A80036; stroke-width: 1.0;"/><polygon fill="#A80036" points="322.443,605.97,329.3252,598.9247,324.1831,601.2826,321.8253,596.1405,322.443,605.97" style="stroke: #A80036; stroke-width: 1.0;"/><line style="stroke: #A80036; stroke-width: 1.0;" x1="324.1831" x2="326.9675" y1="601.2826" y2="593.7835"/><polygon fill="#A80036" points="513.804,388.147,506.6797,387.0315,502.9099,393.1787,510.0342,394.2942,513.804,388.147" style="stroke: #A80036; stroke-width: 1.0;"/><!--link mastermind.controllers.Logic to mastermind.controllers.AcceptorController--><path d="M500.966,309.5 C498.138,309.5 495.31,309.5 492.482,309.5 " fill="none" id="mastermind.controllers.Logic-mastermind.controllers.AcceptorController" style="stroke: #A80036; stroke-width: 1.0;"/><polygon fill="#A80036" points="479.45,309.5,488.45,313.5,484.45,309.5,488.45,305.5,479.45,309.5" style="stroke: #A80036; stroke-width: 1.0;"/><line style="stroke: #A80036; stroke-width: 1.0;" x1="484.45" x2="492.45" y1="309.5" y2="309.5"/><polygon fill="#A80036" points="514.201,309.5,508.201,305.5,502.201,309.5,508.201,313.5,514.201,309.5" style="stroke: #A80036; stroke-width: 1.0;"/><!--link mastermind.controllers.AcceptorController to mastermind.controllers.PlayController--><path d="M359.788,373.939 C353.893,392.836 347.731,413.662 342.731,433 C328.163,489.341 314.667,552.466 304.092,605.654 " fill="none" id="mastermind.controllers.AcceptorController-mastermind.controllers.PlayController" style="stroke: #A80036; stroke-width: 1.0;"/><polygon fill="none" points="353.166,371.662,365.894,354.721,366.509,375.902,353.166,371.662" style="stroke: #A80036; stroke-width: 1.0;"/><!--link mastermind.controllers.PlayController to mastermind.controllers.RedoController--><path d="M206.925,859.564 C194.017,882.266 181.253,904.716 170.32,923.943 " fill="none" id="mastermind.controllers.PlayController-mastermind.controllers.RedoController" style="stroke: #A80036; stroke-width: 1.0;"/><polygon fill="#A80036" points="163.765,935.472,171.6907,929.6253,166.2363,931.1255,164.7362,925.6711,163.765,935.472" style="stroke: #A80036; stroke-width: 1.0;"/><line style="stroke: #A80036; stroke-width: 1.0;" x1="166.2363" x2="170.1905" y1="931.1255" y2="924.171"/><polygon fill="#A80036" points="213.372,848.225,206.9292,851.4638,207.4408,858.6567,213.8836,855.4179,213.372,848.225" style="stroke: #A80036; stroke-width: 1.0;"/><!--link mastermind.controllers.PlayController to mastermind.controllers.UndoController--><path d="M300.825,861.391 C303.895,882.841 306.923,903.994 309.549,922.34 " fill="none" id="mastermind.controllers.PlayController-mastermind.controllers.UndoController" style="stroke: #A80036; stroke-width: 1.0;"/><polygon fill="#A80036" points="311.429,935.472,314.1138,925.9961,310.7207,930.5224,306.1945,927.1294,311.429,935.472" style="stroke: #A80036; stroke-width: 1.0;"/><line style="stroke: #A80036; stroke-width: 1.0;" x1="310.7207" x2="309.587" y1="930.5224" y2="922.6035"/><polygon fill="#A80036" points="298.94,848.225,295.8301,854.7311,300.6396,860.104,303.7495,853.598,298.94,848.225" style="stroke: #A80036; stroke-width: 1.0;"/><!--link mastermind.controllers.PlayController to mastermind.controllers.ProposalController--><path d="M394.536,853.532 C408.119,868.649 421.707,883.77 434.513,898.021 " fill="none" id="mastermind.controllers.PlayController-mastermind.controllers.ProposalController" style="stroke: #A80036; stroke-width: 1.0;"/><polygon fill="#A80036" points="443.245,907.737,440.2045,898.3692,439.9029,904.018,434.2541,903.7165,443.245,907.737" style="stroke: #A80036; stroke-width: 1.0;"/><line style="stroke: #A80036; stroke-width: 1.0;" x1="439.9029" x2="434.5555" y1="904.018" y2="898.0675"/><polygon fill="#A80036" points="385.801,843.812,386.8357,850.9485,393.8212,852.7381,392.7865,845.6017,385.801,843.812" style="stroke: #A80036; stroke-width: 1.0;"/><!--link mastermind.controllers.PlayController to mastermind.models.Session--><path d="M385.958,838.511 C391.43,841.992 397.028,845.183 402.731,848 C578.497,934.831 652.61,849.527 839.731,908 C874.773,918.95 911.691,937.978 938.957,953.652 " fill="none" id="mastermind.controllers.PlayController-mastermind.models.Session" style="stroke: #A80036; stroke-width: 1.0; stroke-dasharray: 7.0,7.0;"/><polygon fill="#A80036" points="943.59,956.337,937.8091,948.3632,939.2641,953.8297,933.7975,955.2847,943.59,956.337" style="stroke: #A80036; stroke-width: 1.0;"/><!--link mastermind.controllers.Controller to mastermind.controllers.ProposalController--><path d="M241.379,182.157 C190.999,345.159 79.0588,745.385 159.731,848 C229.551,936.811 303.912,861.198 406.731,908 C412.695,910.715 418.671,913.797 424.573,917.122 " fill="none" id="mastermind.controllers.Controller-mastermind.controllers.ProposalController" style="stroke: #A80036; stroke-width: 1.0;"/><polygon fill="none" points="234.705,180.046,247.343,163.038,248.069,184.215,234.705,180.046" style="stroke: #A80036; stroke-width: 1.0;"/><!--link mastermind.controllers.Controller to mastermind.controllers.RedoController--><path d="M165.326,151.652 C134.876,168.841 104.6505,192.26 86.7312,223 C-53.1682,462.997 20.6766,576.554 79.7312,848 C86.3804,878.563 100.6029,910.631 113.418,935.448 " fill="none" id="mastermind.controllers.Controller-mastermind.controllers.RedoController" style="stroke: #A80036; stroke-width: 1.0;"/><polygon fill="none" points="162.231,145.37,183.189,142.242,168.756,157.757,162.231,145.37" style="stroke: #A80036; stroke-width: 1.0;"/><!--link mastermind.controllers.AcceptorController to mastermind.controllers.ResumeController--><path d="M449.333,366.661 C464.375,377.351 480.632,387.757 496.731,396 C544.522,420.47 572.539,396.302 611.731,433 C683.714,500.403 711.839,618.146 722.18,681.925 " fill="none" id="mastermind.controllers.AcceptorController-mastermind.controllers.ResumeController" style="stroke: #A80036; stroke-width: 1.0;"/><polygon fill="none" points="444.882,372.076,432.94,354.572,453.191,360.809,444.882,372.076" style="stroke: #A80036; stroke-width: 1.0;"/><!--link mastermind.controllers.ResumeController to mastermind.models.Session--><path d="M772.09,772.096 C824.608,824.302 910.404,909.59 953.792,952.721 " fill="none" id="mastermind.controllers.ResumeController-mastermind.models.Session" style="stroke: #A80036; stroke-width: 1.0; stroke-dasharray: 7.0,7.0;"/><polygon fill="#A80036" points="957.349,956.257,953.7856,947.0754,953.8028,952.7322,948.1459,952.7493,957.349,956.257" style="stroke: #A80036; stroke-width: 1.0;"/><!--link mastermind.controllers.AcceptorController to mastermind.controllers.StartController--><path d="M380.612,374.715 C382.207,423.6 388.103,491.965 406.731,549 C422.587,597.548 452.879,647.483 476.349,681.884 " fill="none" id="mastermind.controllers.AcceptorController-mastermind.controllers.StartController" style="stroke: #A80036; stroke-width: 1.0;"/><polygon fill="none" points="373.614,374.872,380.163,354.72,387.61,374.557,373.614,374.872" style="stroke: #A80036; stroke-width: 1.0;"/><!--link mastermind.controllers.StartController to mastermind.models.Session--><path d="M537.717,772.19 C556.731,797.871 583.762,828.845 614.731,848 C702.749,902.442 743.053,871.062 839.731,908 C873.42,920.872 909.673,939.367 936.981,954.321 " fill="none" id="mastermind.controllers.StartController-mastermind.models.Session" style="stroke: #A80036; stroke-width: 1.0; stroke-dasharray: 7.0,7.0;"/><polygon fill="#A80036" points="941.629,956.879,935.6721,949.0358,937.2483,954.4686,931.8155,956.0449,941.629,956.879" style="stroke: #A80036; stroke-width: 1.0;"/><!--link mastermind.controllers.Controller to mastermind.controllers.UndoController--><path d="M167.834,175.525 C153.601,189.375 140.968,205.277 132.731,223 C74.1969,348.952 65.6889,726.363 132.731,848 C156.837,891.735 187.01,879.093 227.731,908 C239.773,916.548 252.373,926.129 264.203,935.431 " fill="none" id="mastermind.controllers.Controller-mastermind.controllers.UndoController" style="stroke: #A80036; stroke-width: 1.0;"/><polygon fill="none" points="163.554,169.962,183.127,161.845,172.888,180.396,163.554,169.962" style="stroke: #A80036; stroke-width: 1.0;"/><!--
@startuml

class  mastermind.controllers.AcceptorController{
# tcpip: TCPIP
~ AcceptorController(TCPIP, Session)
+ {abstract} accept(ControllersVisitor): void
}
mastermind.controllers.Controller <|-down- mastermind.controllers.AcceptorController
mastermind.controllers.AcceptorController *-down-> mastermind.utils.TCPIP
mastermind.controllers.AcceptorController ..> mastermind.controllers.ControllersVisitor

class  mastermind.controllers.Controller{
# session: Session
~ Controller(Session)
+ getWidth(): int
+ getValueState(): StateValue
}
mastermind.controllers.Controller -down-> mastermind.models.Session
mastermind.controllers.Controller ..> mastermind.models.StateValue

class  mastermind.controllers.ControllersVisitor{
+ {abstract} visit(StartController): void
+ {abstract} visit(PlayController): void
+ {abstract} visit(ResumeController): void
}
mastermind.controllers.ControllersVisitor ..> mastermind.controllers.ResumeController
mastermind.controllers.ControllersVisitor ..> mastermind.controllers.StartController
mastermind.controllers.ControllersVisitor ..> mastermind.controllers.PlayController

class  mastermind.controllers.Logic{
# session: Session
# acceptorControllers: Map<StateValue, AcceptorController>
# startController: StartController
# playController: PlayController
# resumeController: ResumeController
- tcpip: TCPIP
+ Logic(boolean)
+ close(): void
+ getController(): AcceptorController
}
mastermind.controllers.Logic *-down-> mastermind.controllers.ResumeController
mastermind.controllers.Logic *-down-> mastermind.models.Session
mastermind.controllers.Logic *-down-> mastermind.models.StateValue
mastermind.controllers.Logic *-down-> java.util.Map
mastermind.controllers.Logic *-down-> mastermind.controllers.StartController
mastermind.controllers.Logic *-down-> mastermind.utils.TCPIP
mastermind.controllers.Logic *-down-> mastermind.controllers.PlayController
mastermind.controllers.Logic *-> mastermind.controllers.AcceptorController

class  mastermind.controllers.PlayController{
- proposalController: ProposalController
- undoController: UndoController
- redoController: RedoController
# PlayController(Session, TCPIP)
+ accept(ControllersVisitor): void
+ proposeCombination(int[]): int
+ undoable(): boolean
+ redoable(): boolean
+ undo(): void
+ isLooser(): boolean
+ redo(): void
+ isWinner(): boolean
+ getTurn(): int
+ getAllCodes(): int[][][]
}
mastermind.controllers.AcceptorController <|-down- mastermind.controllers.PlayController
mastermind.controllers.PlayController *-down-> mastermind.controllers.RedoController
mastermind.controllers.PlayController *-down-> mastermind.controllers.UndoController
mastermind.controllers.PlayController *-down-> mastermind.controllers.ProposalController
mastermind.controllers.PlayController ..> mastermind.models.Session

class  mastermind.controllers.ProposalController{
+ {static} NO_ERROR: int
+ ProposalController(Session)
+ proposeCombination(int[]): int
+ isLooser(): boolean
+ isWinner(): boolean
+ getTurn(): int
+ getAllCodes(): int[][][]
}
mastermind.controllers.Controller <|-down- mastermind.controllers.ProposalController

class  mastermind.controllers.RedoController{
+ RedoController(Session)
+ redoable(): boolean
+ redo(): void
}
mastermind.controllers.Controller <|-down- mastermind.controllers.RedoController

class  mastermind.controllers.ResumeController{
+ ResumeController(Session, TCPIP)
+ accept(ControllersVisitor): void
+ resume(boolean): void
}
mastermind.controllers.AcceptorController <|-down- mastermind.controllers.ResumeController
mastermind.controllers.ResumeController ..> mastermind.models.Session

class  mastermind.controllers.StartController{
+ StartController(Session, TCPIP)
+ accept(ControllersVisitor): void
+ start(): void
}
mastermind.controllers.AcceptorController <|-down- mastermind.controllers.StartController
mastermind.controllers.StartController ..> mastermind.models.Session

class  mastermind.controllers.UndoController{
+ UndoController(Session)
+ undoable(): boolean
+ undo(): void
}
mastermind.controllers.Controller <|-down- mastermind.controllers.UndoController

@enduml

PlantUML version 1.2019.05(Sat Apr 20 18:45:36 CEST 2019)
(GPL source distribution)
Java Runtime: OpenJDK Runtime Environment
JVM: OpenJDK 64-Bit Server VM
Java Version: 1.8.0_222-b10
Operating System: Windows 10
OS Version: 10.0
Default Encoding: windows-1252
Language: es
Country: ES
--></g></svg>