<?xml version="1.0" encoding="UTF-8" standalone="no"?><svg xmlns="http://www.w3.org/2000/svg" xmlns:xlink="http://www.w3.org/1999/xlink" contentScriptType="application/ecmascript" contentStyleType="text/css" height="656px" preserveAspectRatio="none" style="width:1407px;height:656px;" version="1.1" viewBox="0 0 1407 656" width="1407px" zoomAndPan="magnify"><defs><filter height="300%" id="f15hsdj189roah" width="300%" x="-1" y="-1"><feGaussianBlur result="blurOut" stdDeviation="2.0"/><feColorMatrix in="blurOut" result="blurOut2" type="matrix" values="0 0 0 0 0 0 0 0 0 0 0 0 0 0 0 0 0 0 .4 0"/><feOffset dx="4.0" dy="4.0" in="blurOut2" result="blurOut3"/><feBlend in="SourceGraphic" in2="blurOut3" mode="normal"/></filter></defs><g><!--cluster mastermind.views.console--><polygon fill="#FFFFFF" filter="url(#f15hsdj189roah)" points="530,148,723,148,730,171.6094,1199,171.6094,1199,644,530,644,530,148" style="stroke: #000000; stroke-width: 1.5;"/><line style="stroke: #000000; stroke-width: 1.5;" x1="530" x2="730" y1="171.6094" y2="171.6094"/><text fill="#000000" font-family="sans-serif" font-size="14" font-weight="bold" lengthAdjust="spacingAndGlyphs" textLength="187" x="534" y="164.5332">mastermind.views.console</text><!--cluster mastermind.views--><polygon fill="#FFFFFF" filter="url(#f15hsdj189roah)" points="792,24,925,24,932,47.6094,935,47.6094,935,124,792,124,792,24" style="stroke: #000000; stroke-width: 1.5;"/><line style="stroke: #000000; stroke-width: 1.5;" x1="792" x2="932" y1="47.6094" y2="47.6094"/><text fill="#000000" font-family="sans-serif" font-size="14" font-weight="bold" lengthAdjust="spacingAndGlyphs" textLength="127" x="796" y="40.5332">mastermind.views</text><!--cluster mastermind.utils--><polygon fill="#FFFFFF" filter="url(#f15hsdj189roah)" points="1223,196.5,1345,196.5,1352,220.1094,1385,220.1094,1385,296.5,1223,296.5,1223,196.5" style="stroke: #000000; stroke-width: 1.5;"/><line style="stroke: #000000; stroke-width: 1.5;" x1="1223" x2="1352" y1="220.1094" y2="220.1094"/><text fill="#000000" font-family="sans-serif" font-size="14" font-weight="bold" lengthAdjust="spacingAndGlyphs" textLength="116" x="1227" y="213.0332">mastermind.utils</text><!--cluster mastermind.controllers--><polygon fill="#FFFFFF" filter="url(#f15hsdj189roah)" points="22,516.5,191,516.5,198,540.1094,506,540.1094,506,616.5,22,616.5,22,516.5" style="stroke: #000000; stroke-width: 1.5;"/><line style="stroke: #000000; stroke-width: 1.5;" x1="22" x2="198" y1="540.1094" y2="540.1094"/><text fill="#000000" font-family="sans-serif" font-size="14" font-weight="bold" lengthAdjust="spacingAndGlyphs" textLength="163" x="26" y="533.0332">mastermind.controllers</text><!--class mastermind.views.console.ConsoleView--><rect fill="#FEFECE" filter="url(#f15hsdj189roah)" height="144.8516" id="mastermind.views.console.ConsoleView" style="stroke: #A80036; stroke-width: 1.5;" width="353" x="686.5" y="184"/><ellipse cx="822.25" cy="200" fill="#ADD1B2" rx="11" ry="11" style="stroke: #A80036; stroke-width: 1.0;"/><path d="M825.0156,195.875 Q825.1719,195.6563 825.3594,195.5469 Q825.5469,195.4375 825.7656,195.4375 Q826.1406,195.4375 826.375,195.6953 Q826.6094,195.9531 826.6094,196.5625 L826.6094,198.0156 Q826.6094,198.625 826.375,198.8906 Q826.1406,199.1563 825.7656,199.1563 Q825.4219,199.1563 825.2188,198.9531 Q825.0156,198.7656 824.9063,198.25 Q824.8594,197.8906 824.6719,197.7031 Q824.3438,197.3281 823.7344,197.1094 Q823.125,196.8906 822.5,196.8906 Q821.7344,196.8906 821.1016,197.2188 Q820.4688,197.5469 819.9766,198.2969 Q819.4844,199.0469 819.4844,200.0781 L819.4844,201.1719 Q819.4844,202.4063 820.375,203.2266 Q821.2656,204.0469 822.8594,204.0469 Q823.7969,204.0469 824.4531,203.7969 Q824.8438,203.6406 825.2656,203.2031 Q825.5313,202.9375 825.6797,202.8594 Q825.8281,202.7813 826.0313,202.7813 Q826.3594,202.7813 826.6172,203.0391 Q826.875,203.2969 826.875,203.6406 Q826.875,203.9844 826.5313,204.3906 Q826.0313,204.9688 825.2344,205.2969 Q824.1563,205.75 822.8594,205.75 Q821.3438,205.75 820.1406,205.125 Q819.1563,204.625 818.4688,203.5547 Q817.7813,202.4844 817.7813,201.2031 L817.7813,200.0469 Q817.7813,198.7188 818.3984,197.5703 Q819.0156,196.4219 820.1094,195.8047 Q821.2031,195.1875 822.4375,195.1875 Q823.1719,195.1875 823.8203,195.3516 Q824.4688,195.5156 825.0156,195.875 Z "/><text fill="#000000" font-family="sans-serif" font-size="12" lengthAdjust="spacingAndGlyphs" textLength="73" x="842.75" y="204.9102">ConsoleView</text><line style="stroke: #A80036; stroke-width: 1.5;" x1="687.5" x2="1038.5" y1="216" y2="216"/><rect fill="none" height="6" style="stroke: #C82930; stroke-width: 1.0;" width="6" x="694.5" y="225.418"/><text fill="#000000" font-family="sans-serif" font-size="11" lengthAdjust="spacingAndGlyphs" textLength="103" x="706.5" y="231.4189">startView: StartView</text><rect fill="none" height="6" style="stroke: #C82930; stroke-width: 1.0;" width="6" x="694.5" y="239.2539"/><text fill="#000000" font-family="sans-serif" font-size="11" lengthAdjust="spacingAndGlyphs" textLength="142" x="706.5" y="245.2549">proposalView: ProposalView</text><rect fill="none" height="6" style="stroke: #C82930; stroke-width: 1.0;" width="6" x="694.5" y="253.0898"/><text fill="#000000" font-family="sans-serif" font-size="11" lengthAdjust="spacingAndGlyphs" textLength="133" x="706.5" y="259.0908">resumeView: ResumeView</text><line style="stroke: #A80036; stroke-width: 1.5;" x1="687.5" x2="1038.5" y1="265.5078" y2="265.5078"/><ellipse cx="697.5" cy="277.9258" fill="#84BE84" rx="3" ry="3" style="stroke: #038048; stroke-width: 1.0;"/><text fill="#000000" font-family="sans-serif" font-size="11" lengthAdjust="spacingAndGlyphs" textLength="327" x="706.5" y="280.9268">ConsoleView(ResumeController, StartController, ProposalController)</text><polygon fill="#FFFF44" points="697.5,286.7617,701.5,290.7617,697.5,294.7617,693.5,290.7617" style="stroke: #B38D22; stroke-width: 1.0;"/><text fill="#000000" font-family="sans-serif" font-size="11" lengthAdjust="spacingAndGlyphs" textLength="56" x="706.5" y="294.7627">start(): void</text><polygon fill="#FFFF44" points="697.5,300.5977,701.5,304.5977,697.5,308.5977,693.5,304.5977" style="stroke: #B38D22; stroke-width: 1.0;"/><text fill="#000000" font-family="sans-serif" font-size="11" lengthAdjust="spacingAndGlyphs" textLength="88" x="706.5" y="308.5986">resume(): boolean</text><polygon fill="#FFFF44" points="697.5,314.4336,701.5,318.4336,697.5,322.4336,693.5,318.4336" style="stroke: #B38D22; stroke-width: 1.0;"/><text fill="#000000" font-family="sans-serif" font-size="11" lengthAdjust="spacingAndGlyphs" textLength="92" x="706.5" y="322.4346">propose(): boolean</text><!--class mastermind.views.console.ProposalView--><rect fill="#FEFECE" filter="url(#f15hsdj189roah)" height="75.6719" id="mastermind.views.console.ProposalView" style="stroke: #A80036; stroke-width: 1.5;" width="202" x="981" y="389"/><ellipse cx="1039.75" cy="405" fill="#ADD1B2" rx="11" ry="11" style="stroke: #A80036; stroke-width: 1.0;"/><path d="M1042.5156,400.875 Q1042.6719,400.6563 1042.8594,400.5469 Q1043.0469,400.4375 1043.2656,400.4375 Q1043.6406,400.4375 1043.875,400.6953 Q1044.1094,400.9531 1044.1094,401.5625 L1044.1094,403.0156 Q1044.1094,403.625 1043.875,403.8906 Q1043.6406,404.1563 1043.2656,404.1563 Q1042.9219,404.1563 1042.7188,403.9531 Q1042.5156,403.7656 1042.4063,403.25 Q1042.3594,402.8906 1042.1719,402.7031 Q1041.8438,402.3281 1041.2344,402.1094 Q1040.625,401.8906 1040,401.8906 Q1039.2344,401.8906 1038.6016,402.2188 Q1037.9688,402.5469 1037.4766,403.2969 Q1036.9844,404.0469 1036.9844,405.0781 L1036.9844,406.1719 Q1036.9844,407.4063 1037.875,408.2266 Q1038.7656,409.0469 1040.3594,409.0469 Q1041.2969,409.0469 1041.9531,408.7969 Q1042.3438,408.6406 1042.7656,408.2031 Q1043.0313,407.9375 1043.1797,407.8594 Q1043.3281,407.7813 1043.5313,407.7813 Q1043.8594,407.7813 1044.1172,408.0391 Q1044.375,408.2969 1044.375,408.6406 Q1044.375,408.9844 1044.0313,409.3906 Q1043.5313,409.9688 1042.7344,410.2969 Q1041.6563,410.75 1040.3594,410.75 Q1038.8438,410.75 1037.6406,410.125 Q1036.6563,409.625 1035.9688,408.5547 Q1035.2813,407.4844 1035.2813,406.2031 L1035.2813,405.0469 Q1035.2813,403.7188 1035.8984,402.5703 Q1036.5156,401.4219 1037.6094,400.8047 Q1038.7031,400.1875 1039.9375,400.1875 Q1040.6719,400.1875 1041.3203,400.3516 Q1041.9688,400.5156 1042.5156,400.875 Z "/><text fill="#000000" font-family="sans-serif" font-size="12" lengthAdjust="spacingAndGlyphs" textLength="76" x="1060.25" y="409.9102">ProposalView</text><line style="stroke: #A80036; stroke-width: 1.5;" x1="982" x2="1182" y1="421" y2="421"/><line style="stroke: #A80036; stroke-width: 1.5;" x1="982" x2="1182" y1="429" y2="429"/><polygon fill="#4177AF" points="992,437.418,988,443.418,996,443.418" style="stroke: #1963A0; stroke-width: 1.0;"/><text fill="#000000" font-family="sans-serif" font-size="11" lengthAdjust="spacingAndGlyphs" textLength="76" x="1001" y="444.4189">ProposalView()</text><polygon fill="#4177AF" points="992,451.2539,988,457.2539,996,457.2539" style="stroke: #1963A0; stroke-width: 1.0;"/><text fill="#000000" font-family="sans-serif" font-size="11" lengthAdjust="spacingAndGlyphs" textLength="176" x="1001" y="458.2549">interact(ProposalController): boolean</text><!--class mastermind.views.console.ResumeView--><rect fill="#FEFECE" filter="url(#f15hsdj189roah)" height="75.6719" id="mastermind.views.console.ResumeView" style="stroke: #A80036; stroke-width: 1.5;" width="199" x="546.5" y="389"/><ellipse cx="604.75" cy="405" fill="#ADD1B2" rx="11" ry="11" style="stroke: #A80036; stroke-width: 1.0;"/><path d="M607.5156,400.875 Q607.6719,400.6563 607.8594,400.5469 Q608.0469,400.4375 608.2656,400.4375 Q608.6406,400.4375 608.875,400.6953 Q609.1094,400.9531 609.1094,401.5625 L609.1094,403.0156 Q609.1094,403.625 608.875,403.8906 Q608.6406,404.1563 608.2656,404.1563 Q607.9219,404.1563 607.7188,403.9531 Q607.5156,403.7656 607.4063,403.25 Q607.3594,402.8906 607.1719,402.7031 Q606.8438,402.3281 606.2344,402.1094 Q605.625,401.8906 605,401.8906 Q604.2344,401.8906 603.6016,402.2188 Q602.9688,402.5469 602.4766,403.2969 Q601.9844,404.0469 601.9844,405.0781 L601.9844,406.1719 Q601.9844,407.4063 602.875,408.2266 Q603.7656,409.0469 605.3594,409.0469 Q606.2969,409.0469 606.9531,408.7969 Q607.3438,408.6406 607.7656,408.2031 Q608.0313,407.9375 608.1797,407.8594 Q608.3281,407.7813 608.5313,407.7813 Q608.8594,407.7813 609.1172,408.0391 Q609.375,408.2969 609.375,408.6406 Q609.375,408.9844 609.0313,409.3906 Q608.5313,409.9688 607.7344,410.2969 Q606.6563,410.75 605.3594,410.75 Q603.8438,410.75 602.6406,410.125 Q601.6563,409.625 600.9688,408.5547 Q600.2813,407.4844 600.2813,406.2031 L600.2813,405.0469 Q600.2813,403.7188 600.8984,402.5703 Q601.5156,401.4219 602.6094,400.8047 Q603.7031,400.1875 604.9375,400.1875 Q605.6719,400.1875 606.3203,400.3516 Q606.9688,400.5156 607.5156,400.875 Z "/><text fill="#000000" font-family="sans-serif" font-size="12" lengthAdjust="spacingAndGlyphs" textLength="74" x="625.25" y="409.9102">ResumeView</text><line style="stroke: #A80036; stroke-width: 1.5;" x1="547.5" x2="744.5" y1="421" y2="421"/><line style="stroke: #A80036; stroke-width: 1.5;" x1="547.5" x2="744.5" y1="429" y2="429"/><polygon fill="#4177AF" points="557.5,437.418,553.5,443.418,561.5,443.418" style="stroke: #1963A0; stroke-width: 1.0;"/><text fill="#000000" font-family="sans-serif" font-size="11" lengthAdjust="spacingAndGlyphs" textLength="73" x="566.5" y="444.4189">ResumeView()</text><polygon fill="#4177AF" points="557.5,451.2539,553.5,457.2539,561.5,457.2539" style="stroke: #1963A0; stroke-width: 1.0;"/><text fill="#000000" font-family="sans-serif" font-size="11" lengthAdjust="spacingAndGlyphs" textLength="173" x="566.5" y="458.2549">interact(ResumeController): boolean</text><!--class mastermind.views.console.StartView--><rect fill="#FEFECE" filter="url(#f15hsdj189roah)" height="75.6719" id="mastermind.views.console.StartView" style="stroke: #A80036; stroke-width: 1.5;" width="165" x="780.5" y="389"/><ellipse cx="833.25" cy="405" fill="#ADD1B2" rx="11" ry="11" style="stroke: #A80036; stroke-width: 1.0;"/><path d="M836.0156,400.875 Q836.1719,400.6563 836.3594,400.5469 Q836.5469,400.4375 836.7656,400.4375 Q837.1406,400.4375 837.375,400.6953 Q837.6094,400.9531 837.6094,401.5625 L837.6094,403.0156 Q837.6094,403.625 837.375,403.8906 Q837.1406,404.1563 836.7656,404.1563 Q836.4219,404.1563 836.2188,403.9531 Q836.0156,403.7656 835.9063,403.25 Q835.8594,402.8906 835.6719,402.7031 Q835.3438,402.3281 834.7344,402.1094 Q834.125,401.8906 833.5,401.8906 Q832.7344,401.8906 832.1016,402.2188 Q831.4688,402.5469 830.9766,403.2969 Q830.4844,404.0469 830.4844,405.0781 L830.4844,406.1719 Q830.4844,407.4063 831.375,408.2266 Q832.2656,409.0469 833.8594,409.0469 Q834.7969,409.0469 835.4531,408.7969 Q835.8438,408.6406 836.2656,408.2031 Q836.5313,407.9375 836.6797,407.8594 Q836.8281,407.7813 837.0313,407.7813 Q837.3594,407.7813 837.6172,408.0391 Q837.875,408.2969 837.875,408.6406 Q837.875,408.9844 837.5313,409.3906 Q837.0313,409.9688 836.2344,410.2969 Q835.1563,410.75 833.8594,410.75 Q832.3438,410.75 831.1406,410.125 Q830.1563,409.625 829.4688,408.5547 Q828.7813,407.4844 828.7813,406.2031 L828.7813,405.0469 Q828.7813,403.7188 829.3984,402.5703 Q830.0156,401.4219 831.1094,400.8047 Q832.2031,400.1875 833.4375,400.1875 Q834.1719,400.1875 834.8203,400.3516 Q835.4688,400.5156 836.0156,400.875 Z "/><text fill="#000000" font-family="sans-serif" font-size="12" lengthAdjust="spacingAndGlyphs" textLength="51" x="853.75" y="409.9102">StartView</text><line style="stroke: #A80036; stroke-width: 1.5;" x1="781.5" x2="944.5" y1="421" y2="421"/><line style="stroke: #A80036; stroke-width: 1.5;" x1="781.5" x2="944.5" y1="429" y2="429"/><polygon fill="#4177AF" points="791.5,437.418,787.5,443.418,795.5,443.418" style="stroke: #1963A0; stroke-width: 1.0;"/><text fill="#000000" font-family="sans-serif" font-size="11" lengthAdjust="spacingAndGlyphs" textLength="57" x="800.5" y="444.4189">StartView()</text><polygon fill="#4177AF" points="791.5,451.2539,787.5,457.2539,795.5,457.2539" style="stroke: #1963A0; stroke-width: 1.0;"/><text fill="#000000" font-family="sans-serif" font-size="11" lengthAdjust="spacingAndGlyphs" textLength="139" x="800.5" y="458.2549">interact(StartController): void</text><!--class mastermind.views.console.SecretCombinationView--><rect fill="#FEFECE" filter="url(#f15hsdj189roah)" height="75.6719" id="mastermind.views.console.SecretCombinationView" style="stroke: #A80036; stroke-width: 1.5;" width="164" x="655" y="538.5"/><ellipse cx="670" cy="554.5" fill="#ADD1B2" rx="11" ry="11" style="stroke: #A80036; stroke-width: 1.0;"/><path d="M672.7656,550.375 Q672.9219,550.1563 673.1094,550.0469 Q673.2969,549.9375 673.5156,549.9375 Q673.8906,549.9375 674.125,550.1953 Q674.3594,550.4531 674.3594,551.0625 L674.3594,552.5156 Q674.3594,553.125 674.125,553.3906 Q673.8906,553.6563 673.5156,553.6563 Q673.1719,553.6563 672.9688,553.4531 Q672.7656,553.2656 672.6563,552.75 Q672.6094,552.3906 672.4219,552.2031 Q672.0938,551.8281 671.4844,551.6094 Q670.875,551.3906 670.25,551.3906 Q669.4844,551.3906 668.8516,551.7188 Q668.2188,552.0469 667.7266,552.7969 Q667.2344,553.5469 667.2344,554.5781 L667.2344,555.6719 Q667.2344,556.9063 668.125,557.7266 Q669.0156,558.5469 670.6094,558.5469 Q671.5469,558.5469 672.2031,558.2969 Q672.5938,558.1406 673.0156,557.7031 Q673.2813,557.4375 673.4297,557.3594 Q673.5781,557.2813 673.7813,557.2813 Q674.1094,557.2813 674.3672,557.5391 Q674.625,557.7969 674.625,558.1406 Q674.625,558.4844 674.2813,558.8906 Q673.7813,559.4688 672.9844,559.7969 Q671.9063,560.25 670.6094,560.25 Q669.0938,560.25 667.8906,559.625 Q666.9063,559.125 666.2188,558.0547 Q665.5313,556.9844 665.5313,555.7031 L665.5313,554.5469 Q665.5313,553.2188 666.1484,552.0703 Q666.7656,550.9219 667.8594,550.3047 Q668.9531,549.6875 670.1875,549.6875 Q670.9219,549.6875 671.5703,549.8516 Q672.2188,550.0156 672.7656,550.375 Z "/><text fill="#000000" font-family="sans-serif" font-size="12" lengthAdjust="spacingAndGlyphs" textLength="132" x="684" y="559.4102">SecretCombinationView</text><line style="stroke: #A80036; stroke-width: 1.5;" x1="656" x2="818" y1="570.5" y2="570.5"/><line style="stroke: #A80036; stroke-width: 1.5;" x1="656" x2="818" y1="578.5" y2="578.5"/><polygon fill="#4177AF" points="666,586.918,662,592.918,670,592.918" style="stroke: #1963A0; stroke-width: 1.0;"/><text fill="#000000" font-family="sans-serif" font-size="11" lengthAdjust="spacingAndGlyphs" textLength="124" x="675" y="593.9189">SecretCombinationView()</text><polygon fill="#4177AF" points="666,600.7539,662,606.7539,670,606.7539" style="stroke: #1963A0; stroke-width: 1.0;"/><text fill="#000000" font-family="sans-serif" font-size="11" lengthAdjust="spacingAndGlyphs" textLength="78" x="675" y="607.7549">writeln(int): void</text><!--class mastermind.views.console.ProposedCombinationView--><rect fill="#FEFECE" filter="url(#f15hsdj189roah)" height="103.3438" id="mastermind.views.console.ProposedCombinationView" style="stroke: #A80036; stroke-width: 1.5;" width="183" x="854.5" y="525"/><ellipse cx="869.5" cy="541" fill="#ADD1B2" rx="11" ry="11" style="stroke: #A80036; stroke-width: 1.0;"/><path d="M872.2656,536.875 Q872.4219,536.6563 872.6094,536.5469 Q872.7969,536.4375 873.0156,536.4375 Q873.3906,536.4375 873.625,536.6953 Q873.8594,536.9531 873.8594,537.5625 L873.8594,539.0156 Q873.8594,539.625 873.625,539.8906 Q873.3906,540.1563 873.0156,540.1563 Q872.6719,540.1563 872.4688,539.9531 Q872.2656,539.7656 872.1563,539.25 Q872.1094,538.8906 871.9219,538.7031 Q871.5938,538.3281 870.9844,538.1094 Q870.375,537.8906 869.75,537.8906 Q868.9844,537.8906 868.3516,538.2188 Q867.7188,538.5469 867.2266,539.2969 Q866.7344,540.0469 866.7344,541.0781 L866.7344,542.1719 Q866.7344,543.4063 867.625,544.2266 Q868.5156,545.0469 870.1094,545.0469 Q871.0469,545.0469 871.7031,544.7969 Q872.0938,544.6406 872.5156,544.2031 Q872.7813,543.9375 872.9297,543.8594 Q873.0781,543.7813 873.2813,543.7813 Q873.6094,543.7813 873.8672,544.0391 Q874.125,544.2969 874.125,544.6406 Q874.125,544.9844 873.7813,545.3906 Q873.2813,545.9688 872.4844,546.2969 Q871.4063,546.75 870.1094,546.75 Q868.5938,546.75 867.3906,546.125 Q866.4063,545.625 865.7188,544.5547 Q865.0313,543.4844 865.0313,542.2031 L865.0313,541.0469 Q865.0313,539.7188 865.6484,538.5703 Q866.2656,537.4219 867.3594,536.8047 Q868.4531,536.1875 869.6875,536.1875 Q870.4219,536.1875 871.0703,536.3516 Q871.7188,536.5156 872.2656,536.875 Z "/><text fill="#000000" font-family="sans-serif" font-size="12" lengthAdjust="spacingAndGlyphs" textLength="151" x="883.5" y="545.9102">ProposedCombinationView</text><line style="stroke: #A80036; stroke-width: 1.5;" x1="855.5" x2="1036.5" y1="557" y2="557"/><rect fill="none" height="6" style="stroke: #C82930; stroke-width: 1.0;" width="6" x="862.5" y="566.418"/><text fill="#000000" font-family="sans-serif" font-size="11" lengthAdjust="spacingAndGlyphs" text-decoration="underline" textLength="86" x="874.5" y="572.4189">ERROR_CODE: int</text><line style="stroke: #A80036; stroke-width: 1.5;" x1="855.5" x2="1036.5" y1="578.8359" y2="578.8359"/><polygon fill="#4177AF" points="865.5,587.2539,861.5,593.2539,869.5,593.2539" style="stroke: #1963A0; stroke-width: 1.0;"/><text fill="#000000" font-family="sans-serif" font-size="11" lengthAdjust="spacingAndGlyphs" textLength="138" x="874.5" y="594.2549">ProposedCombinationView()</text><polygon fill="#4177AF" points="865.5,601.0898,861.5,607.0898,869.5,607.0898" style="stroke: #1963A0; stroke-width: 1.0;"/><text fill="#000000" font-family="sans-serif" font-size="11" lengthAdjust="spacingAndGlyphs" textLength="76" x="874.5" y="608.0908">write(int[]): void</text><polygon fill="#4177AF" points="865.5,614.9258,861.5,620.9258,869.5,620.9258" style="stroke: #1963A0; stroke-width: 1.0;"/><text fill="#000000" font-family="sans-serif" font-size="11" lengthAdjust="spacingAndGlyphs" textLength="53" x="874.5" y="621.9268">read(): int[]</text><!--class mastermind.views.console.ResultView--><rect fill="#FEFECE" filter="url(#f15hsdj189roah)" height="75.6719" id="mastermind.views.console.ResultView" style="stroke: #A80036; stroke-width: 1.5;" width="110" x="1073" y="538.5"/><ellipse cx="1095.2" cy="554.5" fill="#ADD1B2" rx="11" ry="11" style="stroke: #A80036; stroke-width: 1.0;"/><path d="M1097.9656,550.375 Q1098.1219,550.1563 1098.3094,550.0469 Q1098.4969,549.9375 1098.7156,549.9375 Q1099.0906,549.9375 1099.325,550.1953 Q1099.5594,550.4531 1099.5594,551.0625 L1099.5594,552.5156 Q1099.5594,553.125 1099.325,553.3906 Q1099.0906,553.6563 1098.7156,553.6563 Q1098.3719,553.6563 1098.1688,553.4531 Q1097.9656,553.2656 1097.8563,552.75 Q1097.8094,552.3906 1097.6219,552.2031 Q1097.2938,551.8281 1096.6844,551.6094 Q1096.075,551.3906 1095.45,551.3906 Q1094.6844,551.3906 1094.0516,551.7188 Q1093.4188,552.0469 1092.9266,552.7969 Q1092.4344,553.5469 1092.4344,554.5781 L1092.4344,555.6719 Q1092.4344,556.9063 1093.325,557.7266 Q1094.2156,558.5469 1095.8094,558.5469 Q1096.7469,558.5469 1097.4031,558.2969 Q1097.7938,558.1406 1098.2156,557.7031 Q1098.4813,557.4375 1098.6297,557.3594 Q1098.7781,557.2813 1098.9813,557.2813 Q1099.3094,557.2813 1099.5672,557.5391 Q1099.825,557.7969 1099.825,558.1406 Q1099.825,558.4844 1099.4813,558.8906 Q1098.9813,559.4688 1098.1844,559.7969 Q1097.1063,560.25 1095.8094,560.25 Q1094.2938,560.25 1093.0906,559.625 Q1092.1063,559.125 1091.4188,558.0547 Q1090.7313,556.9844 1090.7313,555.7031 L1090.7313,554.5469 Q1090.7313,553.2188 1091.3484,552.0703 Q1091.9656,550.9219 1093.0594,550.3047 Q1094.1531,549.6875 1095.3875,549.6875 Q1096.1219,549.6875 1096.7703,549.8516 Q1097.4188,550.0156 1097.9656,550.375 Z "/><text fill="#000000" font-family="sans-serif" font-size="12" lengthAdjust="spacingAndGlyphs" textLength="62" x="1110.8" y="559.4102">ResultView</text><line style="stroke: #A80036; stroke-width: 1.5;" x1="1074" x2="1182" y1="570.5" y2="570.5"/><line style="stroke: #A80036; stroke-width: 1.5;" x1="1074" x2="1182" y1="578.5" y2="578.5"/><polygon fill="#4177AF" points="1084,586.918,1080,592.918,1088,592.918" style="stroke: #1963A0; stroke-width: 1.0;"/><text fill="#000000" font-family="sans-serif" font-size="11" lengthAdjust="spacingAndGlyphs" textLength="64" x="1093" y="593.9189">ResultView()</text><polygon fill="#4177AF" points="1084,600.7539,1080,606.7539,1088,606.7539" style="stroke: #1963A0; stroke-width: 1.0;"/><text fill="#000000" font-family="sans-serif" font-size="11" lengthAdjust="spacingAndGlyphs" textLength="84" x="1093" y="607.7549">writeln(int[]): void</text><!--class mastermind.views.View--><rect fill="#FEFECE" filter="url(#f15hsdj189roah)" height="48" id="mastermind.views.View" style="stroke: #A80036; stroke-width: 1.5;" width="58" x="834" y="60"/><ellipse cx="849" cy="76" fill="#ADD1B2" rx="11" ry="11" style="stroke: #A80036; stroke-width: 1.0;"/><path d="M851.7656,71.875 Q851.9219,71.6563 852.1094,71.5469 Q852.2969,71.4375 852.5156,71.4375 Q852.8906,71.4375 853.125,71.6953 Q853.3594,71.9531 853.3594,72.5625 L853.3594,74.0156 Q853.3594,74.625 853.125,74.8906 Q852.8906,75.1563 852.5156,75.1563 Q852.1719,75.1563 851.9688,74.9531 Q851.7656,74.7656 851.6563,74.25 Q851.6094,73.8906 851.4219,73.7031 Q851.0938,73.3281 850.4844,73.1094 Q849.875,72.8906 849.25,72.8906 Q848.4844,72.8906 847.8516,73.2188 Q847.2188,73.5469 846.7266,74.2969 Q846.2344,75.0469 846.2344,76.0781 L846.2344,77.1719 Q846.2344,78.4063 847.125,79.2266 Q848.0156,80.0469 849.6094,80.0469 Q850.5469,80.0469 851.2031,79.7969 Q851.5938,79.6406 852.0156,79.2031 Q852.2813,78.9375 852.4297,78.8594 Q852.5781,78.7813 852.7813,78.7813 Q853.1094,78.7813 853.3672,79.0391 Q853.625,79.2969 853.625,79.6406 Q853.625,79.9844 853.2813,80.3906 Q852.7813,80.9688 851.9844,81.2969 Q850.9063,81.75 849.6094,81.75 Q848.0938,81.75 846.8906,81.125 Q845.9063,80.625 845.2188,79.5547 Q844.5313,78.4844 844.5313,77.2031 L844.5313,76.0469 Q844.5313,74.7188 845.1484,73.5703 Q845.7656,72.4219 846.8594,71.8047 Q847.9531,71.1875 849.1875,71.1875 Q849.9219,71.1875 850.5703,71.3516 Q851.2188,71.5156 851.7656,71.875 Z "/><text fill="#000000" font-family="sans-serif" font-size="12" lengthAdjust="spacingAndGlyphs" textLength="26" x="863" y="80.9102">View</text><line style="stroke: #A80036; stroke-width: 1.5;" x1="835" x2="891" y1="92" y2="92"/><line style="stroke: #A80036; stroke-width: 1.5;" x1="835" x2="891" y1="100" y2="100"/><!--class mastermind.utils.WithConsoleView--><rect fill="#FEFECE" filter="url(#f15hsdj189roah)" height="48" id="mastermind.utils.WithConsoleView" style="stroke: #A80036; stroke-width: 1.5;" width="129" x="1239.5" y="232.5"/><ellipse cx="1254.5" cy="248.5" fill="#ADD1B2" rx="11" ry="11" style="stroke: #A80036; stroke-width: 1.0;"/><path d="M1257.2656,244.375 Q1257.4219,244.1563 1257.6094,244.0469 Q1257.7969,243.9375 1258.0156,243.9375 Q1258.3906,243.9375 1258.625,244.1953 Q1258.8594,244.4531 1258.8594,245.0625 L1258.8594,246.5156 Q1258.8594,247.125 1258.625,247.3906 Q1258.3906,247.6563 1258.0156,247.6563 Q1257.6719,247.6563 1257.4688,247.4531 Q1257.2656,247.2656 1257.1563,246.75 Q1257.1094,246.3906 1256.9219,246.2031 Q1256.5938,245.8281 1255.9844,245.6094 Q1255.375,245.3906 1254.75,245.3906 Q1253.9844,245.3906 1253.3516,245.7188 Q1252.7188,246.0469 1252.2266,246.7969 Q1251.7344,247.5469 1251.7344,248.5781 L1251.7344,249.6719 Q1251.7344,250.9063 1252.625,251.7266 Q1253.5156,252.5469 1255.1094,252.5469 Q1256.0469,252.5469 1256.7031,252.2969 Q1257.0938,252.1406 1257.5156,251.7031 Q1257.7813,251.4375 1257.9297,251.3594 Q1258.0781,251.2813 1258.2813,251.2813 Q1258.6094,251.2813 1258.8672,251.5391 Q1259.125,251.7969 1259.125,252.1406 Q1259.125,252.4844 1258.7813,252.8906 Q1258.2813,253.4688 1257.4844,253.7969 Q1256.4063,254.25 1255.1094,254.25 Q1253.5938,254.25 1252.3906,253.625 Q1251.4063,253.125 1250.7188,252.0547 Q1250.0313,250.9844 1250.0313,249.7031 L1250.0313,248.5469 Q1250.0313,247.2188 1250.6484,246.0703 Q1251.2656,244.9219 1252.3594,244.3047 Q1253.4531,243.6875 1254.6875,243.6875 Q1255.4219,243.6875 1256.0703,243.8516 Q1256.7188,244.0156 1257.2656,244.375 Z "/><text fill="#000000" font-family="sans-serif" font-size="12" lengthAdjust="spacingAndGlyphs" textLength="97" x="1268.5" y="253.4102">WithConsoleView</text><line style="stroke: #A80036; stroke-width: 1.5;" x1="1240.5" x2="1367.5" y1="264.5" y2="264.5"/><line style="stroke: #A80036; stroke-width: 1.5;" x1="1240.5" x2="1367.5" y1="272.5" y2="272.5"/><!--class mastermind.controllers.ProposalController--><rect fill="#FEFECE" filter="url(#f15hsdj189roah)" height="48" id="mastermind.controllers.ProposalController" style="stroke: #A80036; stroke-width: 1.5;" width="136" x="354" y="552.5"/><ellipse cx="369" cy="568.5" fill="#ADD1B2" rx="11" ry="11" style="stroke: #A80036; stroke-width: 1.0;"/><path d="M371.7656,564.375 Q371.9219,564.1563 372.1094,564.0469 Q372.2969,563.9375 372.5156,563.9375 Q372.8906,563.9375 373.125,564.1953 Q373.3594,564.4531 373.3594,565.0625 L373.3594,566.5156 Q373.3594,567.125 373.125,567.3906 Q372.8906,567.6563 372.5156,567.6563 Q372.1719,567.6563 371.9688,567.4531 Q371.7656,567.2656 371.6563,566.75 Q371.6094,566.3906 371.4219,566.2031 Q371.0938,565.8281 370.4844,565.6094 Q369.875,565.3906 369.25,565.3906 Q368.4844,565.3906 367.8516,565.7188 Q367.2188,566.0469 366.7266,566.7969 Q366.2344,567.5469 366.2344,568.5781 L366.2344,569.6719 Q366.2344,570.9063 367.125,571.7266 Q368.0156,572.5469 369.6094,572.5469 Q370.5469,572.5469 371.2031,572.2969 Q371.5938,572.1406 372.0156,571.7031 Q372.2813,571.4375 372.4297,571.3594 Q372.5781,571.2813 372.7813,571.2813 Q373.1094,571.2813 373.3672,571.5391 Q373.625,571.7969 373.625,572.1406 Q373.625,572.4844 373.2813,572.8906 Q372.7813,573.4688 371.9844,573.7969 Q370.9063,574.25 369.6094,574.25 Q368.0938,574.25 366.8906,573.625 Q365.9063,573.125 365.2188,572.0547 Q364.5313,570.9844 364.5313,569.7031 L364.5313,568.5469 Q364.5313,567.2188 365.1484,566.0703 Q365.7656,564.9219 366.8594,564.3047 Q367.9531,563.6875 369.1875,563.6875 Q369.9219,563.6875 370.5703,563.8516 Q371.2188,564.0156 371.7656,564.375 Z "/><text fill="#000000" font-family="sans-serif" font-size="12" lengthAdjust="spacingAndGlyphs" textLength="104" x="383" y="573.4102">ProposalController</text><line style="stroke: #A80036; stroke-width: 1.5;" x1="355" x2="489" y1="584.5" y2="584.5"/><line style="stroke: #A80036; stroke-width: 1.5;" x1="355" x2="489" y1="592.5" y2="592.5"/><!--class mastermind.controllers.ResumeController--><rect fill="#FEFECE" filter="url(#f15hsdj189roah)" height="48" id="mastermind.controllers.ResumeController" style="stroke: #A80036; stroke-width: 1.5;" width="134" x="38" y="552.5"/><ellipse cx="53" cy="568.5" fill="#ADD1B2" rx="11" ry="11" style="stroke: #A80036; stroke-width: 1.0;"/><path d="M55.7656,564.375 Q55.9219,564.1563 56.1094,564.0469 Q56.2969,563.9375 56.5156,563.9375 Q56.8906,563.9375 57.125,564.1953 Q57.3594,564.4531 57.3594,565.0625 L57.3594,566.5156 Q57.3594,567.125 57.125,567.3906 Q56.8906,567.6563 56.5156,567.6563 Q56.1719,567.6563 55.9688,567.4531 Q55.7656,567.2656 55.6563,566.75 Q55.6094,566.3906 55.4219,566.2031 Q55.0938,565.8281 54.4844,565.6094 Q53.875,565.3906 53.25,565.3906 Q52.4844,565.3906 51.8516,565.7188 Q51.2188,566.0469 50.7266,566.7969 Q50.2344,567.5469 50.2344,568.5781 L50.2344,569.6719 Q50.2344,570.9063 51.125,571.7266 Q52.0156,572.5469 53.6094,572.5469 Q54.5469,572.5469 55.2031,572.2969 Q55.5938,572.1406 56.0156,571.7031 Q56.2813,571.4375 56.4297,571.3594 Q56.5781,571.2813 56.7813,571.2813 Q57.1094,571.2813 57.3672,571.5391 Q57.625,571.7969 57.625,572.1406 Q57.625,572.4844 57.2813,572.8906 Q56.7813,573.4688 55.9844,573.7969 Q54.9063,574.25 53.6094,574.25 Q52.0938,574.25 50.8906,573.625 Q49.9063,573.125 49.2188,572.0547 Q48.5313,570.9844 48.5313,569.7031 L48.5313,568.5469 Q48.5313,567.2188 49.1484,566.0703 Q49.7656,564.9219 50.8594,564.3047 Q51.9531,563.6875 53.1875,563.6875 Q53.9219,563.6875 54.5703,563.8516 Q55.2188,564.0156 55.7656,564.375 Z "/><text fill="#000000" font-family="sans-serif" font-size="12" lengthAdjust="spacingAndGlyphs" textLength="102" x="67" y="573.4102">ResumeController</text><line style="stroke: #A80036; stroke-width: 1.5;" x1="39" x2="171" y1="584.5" y2="584.5"/><line style="stroke: #A80036; stroke-width: 1.5;" x1="39" x2="171" y1="592.5" y2="592.5"/><!--class mastermind.controllers.StartController--><rect fill="#FEFECE" filter="url(#f15hsdj189roah)" height="48" id="mastermind.controllers.StartController" style="stroke: #A80036; stroke-width: 1.5;" width="111" x="207.5" y="552.5"/><ellipse cx="222.5" cy="568.5" fill="#ADD1B2" rx="11" ry="11" style="stroke: #A80036; stroke-width: 1.0;"/><path d="M225.2656,564.375 Q225.4219,564.1563 225.6094,564.0469 Q225.7969,563.9375 226.0156,563.9375 Q226.3906,563.9375 226.625,564.1953 Q226.8594,564.4531 226.8594,565.0625 L226.8594,566.5156 Q226.8594,567.125 226.625,567.3906 Q226.3906,567.6563 226.0156,567.6563 Q225.6719,567.6563 225.4688,567.4531 Q225.2656,567.2656 225.1563,566.75 Q225.1094,566.3906 224.9219,566.2031 Q224.5938,565.8281 223.9844,565.6094 Q223.375,565.3906 222.75,565.3906 Q221.9844,565.3906 221.3516,565.7188 Q220.7188,566.0469 220.2266,566.7969 Q219.7344,567.5469 219.7344,568.5781 L219.7344,569.6719 Q219.7344,570.9063 220.625,571.7266 Q221.5156,572.5469 223.1094,572.5469 Q224.0469,572.5469 224.7031,572.2969 Q225.0938,572.1406 225.5156,571.7031 Q225.7813,571.4375 225.9297,571.3594 Q226.0781,571.2813 226.2813,571.2813 Q226.6094,571.2813 226.8672,571.5391 Q227.125,571.7969 227.125,572.1406 Q227.125,572.4844 226.7813,572.8906 Q226.2813,573.4688 225.4844,573.7969 Q224.4063,574.25 223.1094,574.25 Q221.5938,574.25 220.3906,573.625 Q219.4063,573.125 218.7188,572.0547 Q218.0313,570.9844 218.0313,569.7031 L218.0313,568.5469 Q218.0313,567.2188 218.6484,566.0703 Q219.2656,564.9219 220.3594,564.3047 Q221.4531,563.6875 222.6875,563.6875 Q223.4219,563.6875 224.0703,563.8516 Q224.7188,564.0156 225.2656,564.375 Z "/><text fill="#000000" font-family="sans-serif" font-size="12" lengthAdjust="spacingAndGlyphs" textLength="79" x="236.5" y="573.4102">StartController</text><line style="stroke: #A80036; stroke-width: 1.5;" x1="208.5" x2="317.5" y1="584.5" y2="584.5"/><line style="stroke: #A80036; stroke-width: 1.5;" x1="208.5" x2="317.5" y1="592.5" y2="592.5"/><!--link mastermind.views.View to mastermind.views.console.ConsoleView--><path d="M863,128.487 C863,145.31 863,165.015 863,183.816 " fill="none" id="mastermind.views.View-mastermind.views.console.ConsoleView" style="stroke: #A80036; stroke-width: 1.0;"/><polygon fill="none" points="856,128.35,863,108.35,870,128.35,856,128.35" style="stroke: #A80036; stroke-width: 1.0;"/><!--link mastermind.views.console.ConsoleView to mastermind.views.console.ProposalView--><path d="M966.555,337.176 C985.954,352.102 1005.602,367.219 1023.06,380.648 " fill="none" id="mastermind.views.console.ConsoleView-mastermind.views.console.ProposalView" style="stroke: #A80036; stroke-width: 1.0;"/><polygon fill="#A80036" points="1033.62,388.774,1028.9264,380.1155,1029.6573,385.7249,1024.0479,386.4558,1033.62,388.774" style="stroke: #A80036; stroke-width: 1.0;"/><line style="stroke: #A80036; stroke-width: 1.0;" x1="1029.6573" x2="1023.315" y1="385.7249" y2="380.8465"/><polygon fill="#A80036" points="956.193,329.203,958.5091,336.032,965.7037,336.5206,963.3875,329.6916,956.193,329.203" style="stroke: #A80036; stroke-width: 1.0;"/><!--link mastermind.views.console.ConsoleView to mastermind.views.console.ResumeView--><path d="M760.078,337.418 C740.94,352.279 721.57,367.32 704.358,380.685 " fill="none" id="mastermind.views.console.ConsoleView-mastermind.views.console.ResumeView" style="stroke: #A80036; stroke-width: 1.0;"/><polygon fill="#A80036" points="693.941,388.774,703.5029,386.414,697.8903,385.7076,698.5967,380.095,693.941,388.774" style="stroke: #A80036; stroke-width: 1.0;"/><line style="stroke: #A80036; stroke-width: 1.0;" x1="697.8903" x2="704.2095" y1="385.7076" y2="380.801"/><polygon fill="#A80036" points="770.658,329.203,763.4657,329.7237,761.1801,336.563,768.3724,336.0423,770.658,329.203" style="stroke: #A80036; stroke-width: 1.0;"/><!--link mastermind.views.console.ConsoleView to mastermind.views.console.StartView--><path d="M863,342.921 C863,354.105 863,365.262 863,375.603 " fill="none" id="mastermind.views.console.ConsoleView-mastermind.views.console.StartView" style="stroke: #A80036; stroke-width: 1.0;"/><polygon fill="#A80036" points="863,388.66,867,379.66,863,383.66,859,379.66,863,388.66" style="stroke: #A80036; stroke-width: 1.0;"/><line style="stroke: #A80036; stroke-width: 1.0;" x1="863" x2="863" y1="383.66" y2="375.66"/><polygon fill="#A80036" points="863,329.448,859,335.448,863,341.448,867,335.448,863,329.448" style="stroke: #A80036; stroke-width: 1.0;"/><!--link mastermind.utils.WithConsoleView to mastermind.views.console.ProposalView--><path d="M1257.48,292.808 C1220.48,320.892 1168.85,360.083 1131.17,388.68 " fill="none" id="mastermind.utils.WithConsoleView-mastermind.views.console.ProposalView" style="stroke: #A80036; stroke-width: 1.0;"/><polygon fill="none" points="1253.43,287.092,1273.6,280.576,1261.9,298.243,1253.43,287.092" style="stroke: #A80036; stroke-width: 1.0;"/><!--link mastermind.views.console.ProposalView to mastermind.controllers.ProposalController--><path d="M980.759,460.975 C974.781,462.455 968.83,463.813 963,465 C773.473,503.574 713.121,446.248 530,508.5 C502.89,517.716 475.513,534.805 455.106,549.417 " fill="none" id="mastermind.views.console.ProposalView-mastermind.controllers.ProposalController" style="stroke: #A80036; stroke-width: 1.0; stroke-dasharray: 7.0,7.0;"/><polygon fill="#A80036" points="450.86,552.494,460.4947,550.4512,454.9085,549.5598,455.7999,543.9736,450.86,552.494" style="stroke: #A80036; stroke-width: 1.0;"/><!--link mastermind.views.console.ProposalView to mastermind.views.console.SecretCombinationView--><path d="M968.344,463.799 C910.555,482.281 849.816,502.248 837,508.5 C823.708,514.984 810.123,523.004 797.423,531.214 " fill="none" id="mastermind.views.console.ProposalView-mastermind.views.console.SecretCombinationView" style="stroke: #A80036; stroke-width: 1.0;"/><polygon fill="#A80036" points="786.519,538.445,796.2303,536.8049,790.6861,535.6818,791.8092,530.1375,786.519,538.445" style="stroke: #A80036; stroke-width: 1.0;"/><line style="stroke: #A80036; stroke-width: 1.0;" x1="790.6861" x2="797.3535" y1="535.6818" y2="531.26"/><polygon fill="#A80036" points="980.997,459.76,974.0648,457.7738,969.5652,463.4088,976.4974,465.395,980.997,459.76" style="stroke: #A80036; stroke-width: 1.0;"/><!--link mastermind.views.console.ProposalView to mastermind.views.console.ProposedCombinationView--><path d="M1038.79,474.865 C1026.96,487.696 1013.97,501.784 1001.552,515.25 " fill="none" id="mastermind.views.console.ProposalView-mastermind.views.console.ProposedCombinationView" style="stroke: #A80036; stroke-width: 1.0;"/><polygon fill="#A80036" points="992.637,524.919,1001.6784,521.0135,996.0262,521.243,995.7967,515.5908,992.637,524.919" style="stroke: #A80036; stroke-width: 1.0;"/><line style="stroke: #A80036; stroke-width: 1.0;" x1="996.0262" x2="1001.449" y1="521.243" y2="515.362"/><polygon fill="#A80036" points="1047.68,465.22,1040.6721,466.9199,1039.5459,474.0425,1046.5538,472.3426,1047.68,465.22" style="stroke: #A80036; stroke-width: 1.0;"/><!--link mastermind.views.console.ProposalView to mastermind.views.console.ResultView--><path d="M1097.53,477.785 C1102.35,493.247 1107.66,510.286 1112.48,525.746 " fill="none" id="mastermind.views.console.ProposalView-mastermind.views.console.ResultView" style="stroke: #A80036; stroke-width: 1.0;"/><polygon fill="#A80036" points="1116.4,538.291,1117.5392,528.5083,1114.9114,533.5177,1109.902,530.8899,1116.4,538.291" style="stroke: #A80036; stroke-width: 1.0;"/><line style="stroke: #A80036; stroke-width: 1.0;" x1="1114.9114" x2="1112.525" y1="533.5177" y2="525.881"/><polygon fill="#A80036" points="1093.61,465.22,1091.5776,472.1388,1097.1825,476.6759,1099.2149,469.7571,1093.61,465.22" style="stroke: #A80036; stroke-width: 1.0;"/><!--link mastermind.utils.WithConsoleView to mastermind.views.console.ProposedCombinationView--><path d="M1308.02,300.562 C1309.87,347.529 1304.92,421.763 1262,465 C1195.77,531.721 1142.33,473.705 1055,508.5 C1043.55,513.063 1031.94,518.796 1020.78,524.978 " fill="none" id="mastermind.utils.WithConsoleView-mastermind.views.console.ProposedCombinationView" style="stroke: #A80036; stroke-width: 1.0;"/><polygon fill="none" points="1301.03,300.932,1306.76,280.531,1315,300.051,1301.03,300.932" style="stroke: #A80036; stroke-width: 1.0;"/><!--link mastermind.utils.WithConsoleView to mastermind.views.console.ResultView--><path d="M1324.43,298.871 C1343.1,343.115 1363.56,413.811 1333,465 C1300.77,518.983 1232.06,548.155 1183.08,562.7402 " fill="none" id="mastermind.utils.WithConsoleView-mastermind.views.console.ResultView" style="stroke: #A80036; stroke-width: 1.0;"/><polygon fill="none" points="1318.01,301.678,1316.16,280.57,1330.77,295.916,1318.01,301.678" style="stroke: #A80036; stroke-width: 1.0;"/><!--link mastermind.views.console.ResumeView to mastermind.controllers.ResumeController--><path d="M546.292,431.625 C451.06,438.258 305.369,456.823 190,508.5 C168.342,518.201 147.366,534.638 131.67,548.802 " fill="none" id="mastermind.views.console.ResumeView-mastermind.controllers.ResumeController" style="stroke: #A80036; stroke-width: 1.0; stroke-dasharray: 7.0,7.0;"/><polygon fill="#A80036" points="127.796,552.349,137.1352,549.2218,131.4838,548.9726,131.733,543.3213,127.796,552.349" style="stroke: #A80036; stroke-width: 1.0;"/><!--link mastermind.utils.WithConsoleView to mastermind.views.console.SecretCombinationView--><path d="M1288.38,299.639 C1267.29,354.164 1229.01,444.605 1200,465 C1067.07,558.447 989.368,452.053 837,508.5 C817.894,515.578 798.836,526.983 782.561,538.393 " fill="none" id="mastermind.utils.WithConsoleView-mastermind.views.console.SecretCombinationView" style="stroke: #A80036; stroke-width: 1.0;"/><polygon fill="none" points="1281.92,296.932,1295.57,280.721,1295.01,301.903,1281.92,296.932" style="stroke: #A80036; stroke-width: 1.0;"/><!--link mastermind.utils.WithConsoleView to mastermind.views.console.StartView--><path d="M1259.71,292.728 C1241.71,305.66 1220.18,319.455 1199,329 C1100.33,373.465 1066.34,356.844 963,389 C957.344,390.76 951.539,392.658 945.712,394.632 " fill="none" id="mastermind.utils.WithConsoleView-mastermind.views.console.StartView" style="stroke: #A80036; stroke-width: 1.0;"/><polygon fill="none" points="1255.55,287.101,1275.76,280.76,1263.91,298.326,1255.55,287.101" style="stroke: #A80036; stroke-width: 1.0;"/><!--link mastermind.views.console.StartView to mastermind.controllers.StartController--><path d="M780.275,460.417 C774.477,462.129 768.68,463.682 763,465 C577.175,508.108 510.021,430.36 336,508.5 C316.061,517.453 297.933,534.023 284.729,548.443 " fill="none" id="mastermind.views.console.StartView-mastermind.controllers.StartController" style="stroke: #A80036; stroke-width: 1.0; stroke-dasharray: 7.0,7.0;"/><polygon fill="#A80036" points="281.138,552.445,290.1263,548.4188,284.4777,548.7239,284.1726,543.0753,281.138,552.445" style="stroke: #A80036; stroke-width: 1.0;"/><!--
@startuml

class  mastermind.views.console.ConsoleView{
- startView: StartView
- proposalView: ProposalView
- resumeView: ResumeView
+ ConsoleView(ResumeController, StartController, ProposalController)
# start(): void
# resume(): boolean
# propose(): boolean
}
mastermind.views.View <|-down- mastermind.views.console.ConsoleView
mastermind.views.console.ConsoleView *-down-> mastermind.views.console.ProposalView
mastermind.views.console.ConsoleView *-down-> mastermind.views.console.ResumeView
mastermind.views.console.ConsoleView *-down-> mastermind.views.console.StartView

class  mastermind.views.console.ProposalView{
~ ProposalView()
~ interact(ProposalController): boolean
}
mastermind.utils.WithConsoleView <|-down- mastermind.views.console.ProposalView
mastermind.views.console.ProposalView ..> mastermind.controllers.ProposalController
mastermind.views.console.ProposalView *-down-> mastermind.views.console.SecretCombinationView
mastermind.views.console.ProposalView *-down-> mastermind.views.console.ProposedCombinationView
mastermind.views.console.ProposalView *-down-> mastermind.views.console.ResultView

class  mastermind.views.console.ProposedCombinationView{
- {static} ERROR_CODE: int
~ ProposedCombinationView()
~ write(int[]): void
~ read(): int[]
}
mastermind.utils.WithConsoleView <|-down- mastermind.views.console.ProposedCombinationView

class  mastermind.views.console.ResultView{
~ ResultView()
~ writeln(int[]): void
}
mastermind.utils.WithConsoleView <|-down- mastermind.views.console.ResultView

class  mastermind.views.console.ResumeView{
~ ResumeView()
~ interact(ResumeController): boolean
}
mastermind.views.console.ResumeView ..> mastermind.controllers.ResumeController

class  mastermind.views.console.SecretCombinationView{
~ SecretCombinationView()
~ writeln(int): void
}
mastermind.utils.WithConsoleView <|-down- mastermind.views.console.SecretCombinationView

class  mastermind.views.console.StartView{
~ StartView()
~ interact(StartController): void
}
mastermind.utils.WithConsoleView <|-down- mastermind.views.console.StartView
mastermind.views.console.StartView ..> mastermind.controllers.StartController

@enduml

PlantUML version 1.2019.05(Sat Apr 20 18:45:36 CEST 2019)
(GPL source distribution)
Java Runtime: OpenJDK Runtime Environment
JVM: OpenJDK 64-Bit Server VM
Java Version: 1.8.0_222-b10
Operating System: Windows 10
OS Version: 10.0
Default Encoding: windows-1252
Language: es
Country: ES
--></g></svg>