<?xml version="1.0" encoding="UTF-8" standalone="no"?><svg xmlns="http://www.w3.org/2000/svg" xmlns:xlink="http://www.w3.org/1999/xlink" contentScriptType="application/ecmascript" contentStyleType="text/css" height="711px" preserveAspectRatio="none" style="width:1711px;height:711px;" version="1.1" viewBox="0 0 1711 711" width="1711px" zoomAndPan="magnify"><defs><filter height="300%" id="f1bjr7z7oc10lm" width="300%" x="-1" y="-1"><feGaussianBlur result="blurOut" stdDeviation="2.0"/><feColorMatrix in="blurOut" result="blurOut2" type="matrix" values="0 0 0 0 0 0 0 0 0 0 0 0 0 0 0 0 0 0 .4 0"/><feOffset dx="4.0" dy="4.0" in="blurOut2" result="blurOut3"/><feBlend in="SourceGraphic" in2="blurOut3" mode="normal"/></filter></defs><g><!--cluster mastermind.controllers--><polygon fill="#FFFFFF" filter="url(#f1bjr7z7oc10lm)" points="676,24,845,24,852,47.6094,1601,47.6094,1601,575,676,575,676,24" style="stroke: #000000; stroke-width: 1.5;"/><line style="stroke: #000000; stroke-width: 1.5;" x1="676" x2="852" y1="47.6094" y2="47.6094"/><text fill="#000000" font-family="sans-serif" font-size="14" font-weight="bold" lengthAdjust="spacingAndGlyphs" textLength="163" x="680" y="40.5332">mastermind.controllers</text><!--cluster mastermind.models--><polygon fill="#FFFFFF" filter="url(#f1bjr7z7oc10lm)" points="1437,599,1580,599,1587,622.6094,1686,622.6094,1686,699,1437,699,1437,599" style="stroke: #000000; stroke-width: 1.5;"/><line style="stroke: #000000; stroke-width: 1.5;" x1="1437" x2="1587" y1="622.6094" y2="622.6094"/><text fill="#000000" font-family="sans-serif" font-size="14" font-weight="bold" lengthAdjust="spacingAndGlyphs" textLength="137" x="1441" y="615.5332">mastermind.models</text><!--cluster mastermind.views--><polygon fill="#FFFFFF" filter="url(#f1bjr7z7oc10lm)" points="22,599,155,599,162,622.6094,1111,622.6094,1111,699,22,699,22,599" style="stroke: #000000; stroke-width: 1.5;"/><line style="stroke: #000000; stroke-width: 1.5;" x1="22" x2="162" y1="622.6094" y2="622.6094"/><text fill="#000000" font-family="sans-serif" font-size="14" font-weight="bold" lengthAdjust="spacingAndGlyphs" textLength="127" x="26" y="615.5332">mastermind.views</text><!--cluster santaTecla.utils--><polygon fill="#FFFFFF" filter="url(#f1bjr7z7oc10lm)" points="431,454,546,454,553,477.6094,652,477.6094,652,554,431,554,431,454" style="stroke: #000000; stroke-width: 1.5;"/><line style="stroke: #000000; stroke-width: 1.5;" x1="431" x2="553" y1="477.6094" y2="477.6094"/><text fill="#000000" font-family="sans-serif" font-size="14" font-weight="bold" lengthAdjust="spacingAndGlyphs" textLength="109" x="435" y="470.5332">santaTecla.utils</text><!--cluster mastermind.types--><polygon fill="#FFFFFF" filter="url(#f1bjr7z7oc10lm)" points="1196,599,1326,599,1333,622.6094,1385,622.6094,1385,699,1196,699,1196,599" style="stroke: #000000; stroke-width: 1.5;"/><line style="stroke: #000000; stroke-width: 1.5;" x1="1196" x2="1333" y1="622.6094" y2="622.6094"/><text fill="#000000" font-family="sans-serif" font-size="14" font-weight="bold" lengthAdjust="spacingAndGlyphs" textLength="124" x="1200" y="615.5332">mastermind.types</text><!--class mastermind.controllers.Controller--><rect fill="#FEFECE" filter="url(#f1bjr7z7oc10lm)" height="103.3438" id="mastermind.controllers.Controller" style="stroke: #A80036; stroke-width: 1.5;" width="160" x="1069" y="60"/><ellipse cx="1117.75" cy="76" fill="#A9DCDF" rx="11" ry="11" style="stroke: #A80036; stroke-width: 1.0;"/><path d="M1119.9375,77.7656 L1115.7969,77.7656 L1115.375,78.7969 L1115.7969,78.7969 Q1116.4063,78.7969 1116.6719,79.0313 Q1116.9375,79.2656 1116.9375,79.6563 Q1116.9375,80.0313 1116.6719,80.2656 Q1116.4063,80.5 1115.7969,80.5 L1113.5,80.5 Q1112.8906,80.5 1112.6328,80.2656 Q1112.375,80.0313 1112.375,79.6406 Q1112.375,79.2656 1112.6484,79.0234 Q1112.9219,78.7813 1113.5469,78.7969 L1116.2188,72.1406 L1115.1094,72.1406 Q1114.5,72.1406 1114.2344,71.9063 Q1113.9688,71.6719 1113.9688,71.2813 Q1113.9688,70.9063 1114.2344,70.6719 Q1114.5,70.4375 1115.1094,70.4375 L1118.7813,70.4375 L1122.1719,78.7969 Q1122.7656,78.7969 1122.9531,78.9375 Q1123.3438,79.2031 1123.3438,79.6563 Q1123.3438,80.0313 1123.0859,80.2656 Q1122.8281,80.5 1122.2188,80.5 L1119.9219,80.5 Q1119.3125,80.5 1119.0469,80.2656 Q1118.7813,80.0313 1118.7813,79.6406 Q1118.7813,79.2656 1119.0469,79.0313 Q1119.3125,78.7969 1119.9219,78.7969 L1120.3438,78.7969 L1119.9375,77.7656 Z M1119.2188,76.0625 L1117.8594,72.6875 L1116.4844,76.0625 L1119.2188,76.0625 Z "/><text fill="#000000" font-family="sans-serif" font-size="12" font-style="italic" lengthAdjust="spacingAndGlyphs" textLength="54" x="1138.25" y="80.9102">Controller</text><line style="stroke: #A80036; stroke-width: 1.5;" x1="1070" x2="1228" y1="92" y2="92"/><polygon fill="none" points="1080,99.418,1084,103.418,1080,107.418,1076,103.418" style="stroke: #B38D22; stroke-width: 1.0;"/><text fill="#000000" font-family="sans-serif" font-size="11" lengthAdjust="spacingAndGlyphs" textLength="80" x="1089" y="107.4189">Session session</text><line style="stroke: #A80036; stroke-width: 1.5;" x1="1070" x2="1228" y1="113.8359" y2="113.8359"/><polygon fill="#4177AF" points="1080,122.2539,1076,128.2539,1084,128.2539" style="stroke: #1963A0; stroke-width: 1.0;"/><text fill="#000000" font-family="sans-serif" font-size="11" lengthAdjust="spacingAndGlyphs" textLength="134" x="1089" y="129.2549">Controller(Session session)</text><polygon fill="#4177AF" points="1080,136.0898,1076,142.0898,1084,142.0898" style="stroke: #1963A0; stroke-width: 1.0;"/><text fill="#000000" font-family="sans-serif" font-size="11" lengthAdjust="spacingAndGlyphs" textLength="64" x="1089" y="143.0908">int getWidth()</text><ellipse cx="1080" cy="153.9258" fill="#84BE84" rx="3" ry="3" style="stroke: #038048; stroke-width: 1.0;"/><text fill="#000000" font-family="sans-serif" font-size="11" font-style="italic" lengthAdjust="spacingAndGlyphs" textLength="65" x="1089" y="156.9268">void control()</text><!--class mastermind.controllers.InGameController--><rect fill="#FEFECE" filter="url(#f1bjr7z7oc10lm)" height="103.3438" id="mastermind.controllers.InGameController" style="stroke: #A80036; stroke-width: 1.5;" width="196" x="1170" y="264.5"/><ellipse cx="1214.25" cy="280.5" fill="#A9DCDF" rx="11" ry="11" style="stroke: #A80036; stroke-width: 1.0;"/><path d="M1216.4375,282.2656 L1212.2969,282.2656 L1211.875,283.2969 L1212.2969,283.2969 Q1212.9063,283.2969 1213.1719,283.5313 Q1213.4375,283.7656 1213.4375,284.1563 Q1213.4375,284.5313 1213.1719,284.7656 Q1212.9063,285 1212.2969,285 L1210,285 Q1209.3906,285 1209.1328,284.7656 Q1208.875,284.5313 1208.875,284.1406 Q1208.875,283.7656 1209.1484,283.5234 Q1209.4219,283.2813 1210.0469,283.2969 L1212.7188,276.6406 L1211.6094,276.6406 Q1211,276.6406 1210.7344,276.4063 Q1210.4688,276.1719 1210.4688,275.7813 Q1210.4688,275.4063 1210.7344,275.1719 Q1211,274.9375 1211.6094,274.9375 L1215.2813,274.9375 L1218.6719,283.2969 Q1219.2656,283.2969 1219.4531,283.4375 Q1219.8438,283.7031 1219.8438,284.1563 Q1219.8438,284.5313 1219.5859,284.7656 Q1219.3281,285 1218.7188,285 L1216.4219,285 Q1215.8125,285 1215.5469,284.7656 Q1215.2813,284.5313 1215.2813,284.1406 Q1215.2813,283.7656 1215.5469,283.5313 Q1215.8125,283.2969 1216.4219,283.2969 L1216.8438,283.2969 L1216.4375,282.2656 Z M1215.7188,280.5625 L1214.3594,277.1875 L1212.9844,280.5625 L1215.7188,280.5625 Z "/><text fill="#000000" font-family="sans-serif" font-size="12" font-style="italic" lengthAdjust="spacingAndGlyphs" textLength="99" x="1234.75" y="285.4102">InGameController</text><line style="stroke: #A80036; stroke-width: 1.5;" x1="1171" x2="1365" y1="296.5" y2="296.5"/><rect fill="none" height="6" style="stroke: #C82930; stroke-width: 1.0;" width="6" x="1178" y="305.918"/><text fill="#000000" font-family="sans-serif" font-size="11" lengthAdjust="spacingAndGlyphs" textLength="109" x="1190" y="311.9189">GameView gameView</text><line style="stroke: #A80036; stroke-width: 1.5;" x1="1171" x2="1365" y1="318.3359" y2="318.3359"/><polygon fill="#4177AF" points="1181,326.7539,1177,332.7539,1185,332.7539" style="stroke: #1963A0; stroke-width: 1.0;"/><text fill="#000000" font-family="sans-serif" font-size="11" lengthAdjust="spacingAndGlyphs" textLength="170" x="1190" y="333.7549">InGameController(Session session)</text><ellipse cx="1181" cy="344.5898" fill="#84BE84" rx="3" ry="3" style="stroke: #038048; stroke-width: 1.0;"/><text fill="#000000" font-family="sans-serif" font-size="11" lengthAdjust="spacingAndGlyphs" textLength="64" x="1190" y="347.5908">void control()</text><polygon fill="#FFFF44" points="1181,353.4258,1185,357.4258,1181,361.4258,1177,357.4258" style="stroke: #B38D22; stroke-width: 1.0;"/><text fill="#000000" font-family="sans-serif" font-size="11" font-style="italic" lengthAdjust="spacingAndGlyphs" textLength="106" x="1190" y="361.4268">void inGameControl()</text><!--class mastermind.controllers.PlayController--><rect fill="#FEFECE" filter="url(#f1bjr7z7oc10lm)" height="186.3594" id="mastermind.controllers.PlayController" style="stroke: #A80036; stroke-width: 1.5;" width="208" x="927" y="223"/><ellipse cx="988.25" cy="239" fill="#ADD1B2" rx="11" ry="11" style="stroke: #A80036; stroke-width: 1.0;"/><path d="M991.0156,234.875 Q991.1719,234.6563 991.3594,234.5469 Q991.5469,234.4375 991.7656,234.4375 Q992.1406,234.4375 992.375,234.6953 Q992.6094,234.9531 992.6094,235.5625 L992.6094,237.0156 Q992.6094,237.625 992.375,237.8906 Q992.1406,238.1563 991.7656,238.1563 Q991.4219,238.1563 991.2188,237.9531 Q991.0156,237.7656 990.9063,237.25 Q990.8594,236.8906 990.6719,236.7031 Q990.3438,236.3281 989.7344,236.1094 Q989.125,235.8906 988.5,235.8906 Q987.7344,235.8906 987.1016,236.2188 Q986.4688,236.5469 985.9766,237.2969 Q985.4844,238.0469 985.4844,239.0781 L985.4844,240.1719 Q985.4844,241.4063 986.375,242.2266 Q987.2656,243.0469 988.8594,243.0469 Q989.7969,243.0469 990.4531,242.7969 Q990.8438,242.6406 991.2656,242.2031 Q991.5313,241.9375 991.6797,241.8594 Q991.8281,241.7813 992.0313,241.7813 Q992.3594,241.7813 992.6172,242.0391 Q992.875,242.2969 992.875,242.6406 Q992.875,242.9844 992.5313,243.3906 Q992.0313,243.9688 991.2344,244.2969 Q990.1563,244.75 988.8594,244.75 Q987.3438,244.75 986.1406,244.125 Q985.1563,243.625 984.4688,242.5547 Q983.7813,241.4844 983.7813,240.2031 L983.7813,239.0469 Q983.7813,237.7188 984.3984,236.5703 Q985.0156,235.4219 986.1094,234.8047 Q987.2031,234.1875 988.4375,234.1875 Q989.1719,234.1875 989.8203,234.3516 Q990.4688,234.5156 991.0156,234.875 Z "/><text fill="#000000" font-family="sans-serif" font-size="12" lengthAdjust="spacingAndGlyphs" textLength="77" x="1008.75" y="243.9102">PlayController</text><line style="stroke: #A80036; stroke-width: 1.5;" x1="928" x2="1134" y1="255" y2="255"/><rect fill="none" height="6" style="stroke: #C82930; stroke-width: 1.0;" width="6" x="935" y="264.418"/><text fill="#000000" font-family="sans-serif" font-size="11" lengthAdjust="spacingAndGlyphs" textLength="182" x="947" y="270.4189">Map&lt;Command,Controller&gt; controllers</text><rect fill="none" height="6" style="stroke: #C82930; stroke-width: 1.0;" width="6" x="935" y="278.2539"/><text fill="#000000" font-family="sans-serif" font-size="11" lengthAdjust="spacingAndGlyphs" textLength="177" x="947" y="284.2549">ProposeCommand proposeCommand</text><rect fill="none" height="6" style="stroke: #C82930; stroke-width: 1.0;" width="6" x="935" y="292.0898"/><text fill="#000000" font-family="sans-serif" font-size="11" lengthAdjust="spacingAndGlyphs" textLength="179" x="947" y="298.0908">ProposalController proposalController</text><rect fill="none" height="6" style="stroke: #C82930; stroke-width: 1.0;" width="6" x="935" y="305.9258"/><text fill="#000000" font-family="sans-serif" font-size="11" lengthAdjust="spacingAndGlyphs" textLength="146" x="947" y="311.9268">UndoCommand undoCommand</text><rect fill="none" height="6" style="stroke: #C82930; stroke-width: 1.0;" width="6" x="935" y="319.7617"/><text fill="#000000" font-family="sans-serif" font-size="11" lengthAdjust="spacingAndGlyphs" textLength="144" x="947" y="325.7627">UndoController undoController</text><rect fill="none" height="6" style="stroke: #C82930; stroke-width: 1.0;" width="6" x="935" y="333.5977"/><text fill="#000000" font-family="sans-serif" font-size="11" lengthAdjust="spacingAndGlyphs" textLength="144" x="947" y="339.5986">RedoCommand redoCommand</text><rect fill="none" height="6" style="stroke: #C82930; stroke-width: 1.0;" width="6" x="935" y="347.4336"/><text fill="#000000" font-family="sans-serif" font-size="11" lengthAdjust="spacingAndGlyphs" textLength="142" x="947" y="353.4346">RedoController redoController</text><rect fill="none" height="6" style="stroke: #C82930; stroke-width: 1.0;" width="6" x="935" y="361.2695"/><text fill="#000000" font-family="sans-serif" font-size="11" lengthAdjust="spacingAndGlyphs" textLength="55" x="947" y="367.2705">Menu menu</text><line style="stroke: #A80036; stroke-width: 1.5;" x1="928" x2="1134" y1="373.6875" y2="373.6875"/><ellipse cx="938" cy="386.1055" fill="#84BE84" rx="3" ry="3" style="stroke: #038048; stroke-width: 1.0;"/><text fill="#000000" font-family="sans-serif" font-size="11" lengthAdjust="spacingAndGlyphs" textLength="154" x="947" y="389.1064">PlayController(Session session)</text><ellipse cx="938" cy="399.9414" fill="#84BE84" rx="3" ry="3" style="stroke: #038048; stroke-width: 1.0;"/><text fill="#000000" font-family="sans-serif" font-size="11" lengthAdjust="spacingAndGlyphs" textLength="64" x="947" y="402.9424">void control()</text><!--class mastermind.controllers.ProposalController--><rect fill="#FEFECE" filter="url(#f1bjr7z7oc10lm)" height="89.5078" id="mastermind.controllers.ProposalController" style="stroke: #A80036; stroke-width: 1.5;" width="270" x="1190" y="469"/><ellipse cx="1268.75" cy="485" fill="#ADD1B2" rx="11" ry="11" style="stroke: #A80036; stroke-width: 1.0;"/><path d="M1271.5156,480.875 Q1271.6719,480.6563 1271.8594,480.5469 Q1272.0469,480.4375 1272.2656,480.4375 Q1272.6406,480.4375 1272.875,480.6953 Q1273.1094,480.9531 1273.1094,481.5625 L1273.1094,483.0156 Q1273.1094,483.625 1272.875,483.8906 Q1272.6406,484.1563 1272.2656,484.1563 Q1271.9219,484.1563 1271.7188,483.9531 Q1271.5156,483.7656 1271.4063,483.25 Q1271.3594,482.8906 1271.1719,482.7031 Q1270.8438,482.3281 1270.2344,482.1094 Q1269.625,481.8906 1269,481.8906 Q1268.2344,481.8906 1267.6016,482.2188 Q1266.9688,482.5469 1266.4766,483.2969 Q1265.9844,484.0469 1265.9844,485.0781 L1265.9844,486.1719 Q1265.9844,487.4063 1266.875,488.2266 Q1267.7656,489.0469 1269.3594,489.0469 Q1270.2969,489.0469 1270.9531,488.7969 Q1271.3438,488.6406 1271.7656,488.2031 Q1272.0313,487.9375 1272.1797,487.8594 Q1272.3281,487.7813 1272.5313,487.7813 Q1272.8594,487.7813 1273.1172,488.0391 Q1273.375,488.2969 1273.375,488.6406 Q1273.375,488.9844 1273.0313,489.3906 Q1272.5313,489.9688 1271.7344,490.2969 Q1270.6563,490.75 1269.3594,490.75 Q1267.8438,490.75 1266.6406,490.125 Q1265.6563,489.625 1264.9688,488.5547 Q1264.2813,487.4844 1264.2813,486.2031 L1264.2813,485.0469 Q1264.2813,483.7188 1264.8984,482.5703 Q1265.5156,481.4219 1266.6094,480.8047 Q1267.7031,480.1875 1268.9375,480.1875 Q1269.6719,480.1875 1270.3203,480.3516 Q1270.9688,480.5156 1271.5156,480.875 Z "/><text fill="#000000" font-family="sans-serif" font-size="12" lengthAdjust="spacingAndGlyphs" textLength="104" x="1289.25" y="489.9102">ProposalController</text><line style="stroke: #A80036; stroke-width: 1.5;" x1="1191" x2="1459" y1="501" y2="501"/><line style="stroke: #A80036; stroke-width: 1.5;" x1="1191" x2="1459" y1="509" y2="509"/><polygon fill="#4177AF" points="1201,517.418,1197,523.418,1205,523.418" style="stroke: #1963A0; stroke-width: 1.0;"/><text fill="#000000" font-family="sans-serif" font-size="11" lengthAdjust="spacingAndGlyphs" textLength="176" x="1210" y="524.4189">ProposalController(Session session)</text><ellipse cx="1201" cy="535.2539" fill="#84BE84" rx="3" ry="3" style="stroke: #038048; stroke-width: 1.0;"/><text fill="#000000" font-family="sans-serif" font-size="11" lengthAdjust="spacingAndGlyphs" textLength="101" x="1210" y="538.2549">void inGameControl()</text><rect fill="#F24D5C" height="6" style="stroke: #C82930; stroke-width: 1.0;" width="6" x="1198" y="546.0898"/><text fill="#000000" font-family="sans-serif" font-size="11" lengthAdjust="spacingAndGlyphs" textLength="244" x="1210" y="552.0908">Error addProposedCombination(List&lt;Color&gt; colors)</text><!--class mastermind.controllers.UndoController--><rect fill="#FEFECE" filter="url(#f1bjr7z7oc10lm)" height="89.5078" id="mastermind.controllers.UndoController" style="stroke: #A80036; stroke-width: 1.5;" width="185" x="749.5" y="469"/><ellipse cx="795.75" cy="485" fill="#ADD1B2" rx="11" ry="11" style="stroke: #A80036; stroke-width: 1.0;"/><path d="M798.5156,480.875 Q798.6719,480.6563 798.8594,480.5469 Q799.0469,480.4375 799.2656,480.4375 Q799.6406,480.4375 799.875,480.6953 Q800.1094,480.9531 800.1094,481.5625 L800.1094,483.0156 Q800.1094,483.625 799.875,483.8906 Q799.6406,484.1563 799.2656,484.1563 Q798.9219,484.1563 798.7188,483.9531 Q798.5156,483.7656 798.4063,483.25 Q798.3594,482.8906 798.1719,482.7031 Q797.8438,482.3281 797.2344,482.1094 Q796.625,481.8906 796,481.8906 Q795.2344,481.8906 794.6016,482.2188 Q793.9688,482.5469 793.4766,483.2969 Q792.9844,484.0469 792.9844,485.0781 L792.9844,486.1719 Q792.9844,487.4063 793.875,488.2266 Q794.7656,489.0469 796.3594,489.0469 Q797.2969,489.0469 797.9531,488.7969 Q798.3438,488.6406 798.7656,488.2031 Q799.0313,487.9375 799.1797,487.8594 Q799.3281,487.7813 799.5313,487.7813 Q799.8594,487.7813 800.1172,488.0391 Q800.375,488.2969 800.375,488.6406 Q800.375,488.9844 800.0313,489.3906 Q799.5313,489.9688 798.7344,490.2969 Q797.6563,490.75 796.3594,490.75 Q794.8438,490.75 793.6406,490.125 Q792.6563,489.625 791.9688,488.5547 Q791.2813,487.4844 791.2813,486.2031 L791.2813,485.0469 Q791.2813,483.7188 791.8984,482.5703 Q792.5156,481.4219 793.6094,480.8047 Q794.7031,480.1875 795.9375,480.1875 Q796.6719,480.1875 797.3203,480.3516 Q797.9688,480.5156 798.5156,480.875 Z "/><text fill="#000000" font-family="sans-serif" font-size="12" lengthAdjust="spacingAndGlyphs" textLength="84" x="816.25" y="489.9102">UndoController</text><line style="stroke: #A80036; stroke-width: 1.5;" x1="750.5" x2="933.5" y1="501" y2="501"/><line style="stroke: #A80036; stroke-width: 1.5;" x1="750.5" x2="933.5" y1="509" y2="509"/><polygon fill="#4177AF" points="760.5,517.418,756.5,523.418,764.5,523.418" style="stroke: #1963A0; stroke-width: 1.0;"/><text fill="#000000" font-family="sans-serif" font-size="11" lengthAdjust="spacingAndGlyphs" textLength="159" x="769.5" y="524.4189">UndoController(Session session)</text><polygon fill="#4177AF" points="760.5,531.2539,756.5,537.2539,764.5,537.2539" style="stroke: #1963A0; stroke-width: 1.0;"/><text fill="#000000" font-family="sans-serif" font-size="11" lengthAdjust="spacingAndGlyphs" textLength="93" x="769.5" y="538.2549">boolean undoable()</text><ellipse cx="760.5" cy="549.0898" fill="#84BE84" rx="3" ry="3" style="stroke: #038048; stroke-width: 1.0;"/><text fill="#000000" font-family="sans-serif" font-size="11" lengthAdjust="spacingAndGlyphs" textLength="101" x="769.5" y="552.0908">void inGameControl()</text><!--class mastermind.controllers.RedoController--><rect fill="#FEFECE" filter="url(#f1bjr7z7oc10lm)" height="89.5078" id="mastermind.controllers.RedoController" style="stroke: #A80036; stroke-width: 1.5;" width="185" x="969.5" y="469"/><ellipse cx="1015.75" cy="485" fill="#ADD1B2" rx="11" ry="11" style="stroke: #A80036; stroke-width: 1.0;"/><path d="M1018.5156,480.875 Q1018.6719,480.6563 1018.8594,480.5469 Q1019.0469,480.4375 1019.2656,480.4375 Q1019.6406,480.4375 1019.875,480.6953 Q1020.1094,480.9531 1020.1094,481.5625 L1020.1094,483.0156 Q1020.1094,483.625 1019.875,483.8906 Q1019.6406,484.1563 1019.2656,484.1563 Q1018.9219,484.1563 1018.7188,483.9531 Q1018.5156,483.7656 1018.4063,483.25 Q1018.3594,482.8906 1018.1719,482.7031 Q1017.8438,482.3281 1017.2344,482.1094 Q1016.625,481.8906 1016,481.8906 Q1015.2344,481.8906 1014.6016,482.2188 Q1013.9688,482.5469 1013.4766,483.2969 Q1012.9844,484.0469 1012.9844,485.0781 L1012.9844,486.1719 Q1012.9844,487.4063 1013.875,488.2266 Q1014.7656,489.0469 1016.3594,489.0469 Q1017.2969,489.0469 1017.9531,488.7969 Q1018.3438,488.6406 1018.7656,488.2031 Q1019.0313,487.9375 1019.1797,487.8594 Q1019.3281,487.7813 1019.5313,487.7813 Q1019.8594,487.7813 1020.1172,488.0391 Q1020.375,488.2969 1020.375,488.6406 Q1020.375,488.9844 1020.0313,489.3906 Q1019.5313,489.9688 1018.7344,490.2969 Q1017.6563,490.75 1016.3594,490.75 Q1014.8438,490.75 1013.6406,490.125 Q1012.6563,489.625 1011.9688,488.5547 Q1011.2813,487.4844 1011.2813,486.2031 L1011.2813,485.0469 Q1011.2813,483.7188 1011.8984,482.5703 Q1012.5156,481.4219 1013.6094,480.8047 Q1014.7031,480.1875 1015.9375,480.1875 Q1016.6719,480.1875 1017.3203,480.3516 Q1017.9688,480.5156 1018.5156,480.875 Z "/><text fill="#000000" font-family="sans-serif" font-size="12" lengthAdjust="spacingAndGlyphs" textLength="84" x="1036.25" y="489.9102">RedoController</text><line style="stroke: #A80036; stroke-width: 1.5;" x1="970.5" x2="1153.5" y1="501" y2="501"/><line style="stroke: #A80036; stroke-width: 1.5;" x1="970.5" x2="1153.5" y1="509" y2="509"/><polygon fill="#4177AF" points="980.5,517.418,976.5,523.418,984.5,523.418" style="stroke: #1963A0; stroke-width: 1.0;"/><text fill="#000000" font-family="sans-serif" font-size="11" lengthAdjust="spacingAndGlyphs" textLength="159" x="989.5" y="524.4189">RedoController(Session session)</text><polygon fill="#4177AF" points="980.5,531.2539,976.5,537.2539,984.5,537.2539" style="stroke: #1963A0; stroke-width: 1.0;"/><text fill="#000000" font-family="sans-serif" font-size="11" lengthAdjust="spacingAndGlyphs" textLength="91" x="989.5" y="538.2549">boolean redoable()</text><ellipse cx="980.5" cy="549.0898" fill="#84BE84" rx="3" ry="3" style="stroke: #038048; stroke-width: 1.0;"/><text fill="#000000" font-family="sans-serif" font-size="11" lengthAdjust="spacingAndGlyphs" textLength="101" x="989.5" y="552.0908">void inGameControl()</text><!--class mastermind.controllers.ResumeController--><rect fill="#FEFECE" filter="url(#f1bjr7z7oc10lm)" height="89.5078" id="mastermind.controllers.ResumeController" style="stroke: #A80036; stroke-width: 1.5;" width="199" x="692.5" y="271"/><ellipse cx="736.75" cy="287" fill="#ADD1B2" rx="11" ry="11" style="stroke: #A80036; stroke-width: 1.0;"/><path d="M739.5156,282.875 Q739.6719,282.6563 739.8594,282.5469 Q740.0469,282.4375 740.2656,282.4375 Q740.6406,282.4375 740.875,282.6953 Q741.1094,282.9531 741.1094,283.5625 L741.1094,285.0156 Q741.1094,285.625 740.875,285.8906 Q740.6406,286.1563 740.2656,286.1563 Q739.9219,286.1563 739.7188,285.9531 Q739.5156,285.7656 739.4063,285.25 Q739.3594,284.8906 739.1719,284.7031 Q738.8438,284.3281 738.2344,284.1094 Q737.625,283.8906 737,283.8906 Q736.2344,283.8906 735.6016,284.2188 Q734.9688,284.5469 734.4766,285.2969 Q733.9844,286.0469 733.9844,287.0781 L733.9844,288.1719 Q733.9844,289.4063 734.875,290.2266 Q735.7656,291.0469 737.3594,291.0469 Q738.2969,291.0469 738.9531,290.7969 Q739.3438,290.6406 739.7656,290.2031 Q740.0313,289.9375 740.1797,289.8594 Q740.3281,289.7813 740.5313,289.7813 Q740.8594,289.7813 741.1172,290.0391 Q741.375,290.2969 741.375,290.6406 Q741.375,290.9844 741.0313,291.3906 Q740.5313,291.9688 739.7344,292.2969 Q738.6563,292.75 737.3594,292.75 Q735.8438,292.75 734.6406,292.125 Q733.6563,291.625 732.9688,290.5547 Q732.2813,289.4844 732.2813,288.2031 L732.2813,287.0469 Q732.2813,285.7188 732.8984,284.5703 Q733.5156,283.4219 734.6094,282.8047 Q735.7031,282.1875 736.9375,282.1875 Q737.6719,282.1875 738.3203,282.3516 Q738.9688,282.5156 739.5156,282.875 Z "/><text fill="#000000" font-family="sans-serif" font-size="12" lengthAdjust="spacingAndGlyphs" textLength="102" x="757.25" y="291.9102">ResumeController</text><line style="stroke: #A80036; stroke-width: 1.5;" x1="693.5" x2="890.5" y1="303" y2="303"/><line style="stroke: #A80036; stroke-width: 1.5;" x1="693.5" x2="890.5" y1="311" y2="311"/><ellipse cx="703.5" cy="323.418" fill="#84BE84" rx="3" ry="3" style="stroke: #038048; stroke-width: 1.0;"/><text fill="#000000" font-family="sans-serif" font-size="11" lengthAdjust="spacingAndGlyphs" textLength="173" x="712.5" y="326.4189">ResumeController(Session session)</text><rect fill="#F24D5C" height="6" style="stroke: #C82930; stroke-width: 1.0;" width="6" x="700.5" y="334.2539"/><text fill="#000000" font-family="sans-serif" font-size="11" lengthAdjust="spacingAndGlyphs" textLength="158" x="712.5" y="340.2549">void resume(boolean newGame)</text><ellipse cx="703.5" cy="351.0898" fill="#84BE84" rx="3" ry="3" style="stroke: #038048; stroke-width: 1.0;"/><text fill="#000000" font-family="sans-serif" font-size="11" lengthAdjust="spacingAndGlyphs" textLength="64" x="712.5" y="354.0908">void control()</text><!--class mastermind.controllers.StartController--><rect fill="#FEFECE" filter="url(#f1bjr7z7oc10lm)" height="75.6719" id="mastermind.controllers.StartController" style="stroke: #A80036; stroke-width: 1.5;" width="183" x="1401.5" y="278"/><ellipse cx="1449.25" cy="294" fill="#ADD1B2" rx="11" ry="11" style="stroke: #A80036; stroke-width: 1.0;"/><path d="M1452.0156,289.875 Q1452.1719,289.6563 1452.3594,289.5469 Q1452.5469,289.4375 1452.7656,289.4375 Q1453.1406,289.4375 1453.375,289.6953 Q1453.6094,289.9531 1453.6094,290.5625 L1453.6094,292.0156 Q1453.6094,292.625 1453.375,292.8906 Q1453.1406,293.1563 1452.7656,293.1563 Q1452.4219,293.1563 1452.2188,292.9531 Q1452.0156,292.7656 1451.9063,292.25 Q1451.8594,291.8906 1451.6719,291.7031 Q1451.3438,291.3281 1450.7344,291.1094 Q1450.125,290.8906 1449.5,290.8906 Q1448.7344,290.8906 1448.1016,291.2188 Q1447.4688,291.5469 1446.9766,292.2969 Q1446.4844,293.0469 1446.4844,294.0781 L1446.4844,295.1719 Q1446.4844,296.4063 1447.375,297.2266 Q1448.2656,298.0469 1449.8594,298.0469 Q1450.7969,298.0469 1451.4531,297.7969 Q1451.8438,297.6406 1452.2656,297.2031 Q1452.5313,296.9375 1452.6797,296.8594 Q1452.8281,296.7813 1453.0313,296.7813 Q1453.3594,296.7813 1453.6172,297.0391 Q1453.875,297.2969 1453.875,297.6406 Q1453.875,297.9844 1453.5313,298.3906 Q1453.0313,298.9688 1452.2344,299.2969 Q1451.1563,299.75 1449.8594,299.75 Q1448.3438,299.75 1447.1406,299.125 Q1446.1563,298.625 1445.4688,297.5547 Q1444.7813,296.4844 1444.7813,295.2031 L1444.7813,294.0469 Q1444.7813,292.7188 1445.3984,291.5703 Q1446.0156,290.4219 1447.1094,289.8047 Q1448.2031,289.1875 1449.4375,289.1875 Q1450.1719,289.1875 1450.8203,289.3516 Q1451.4688,289.5156 1452.0156,289.875 Z "/><text fill="#000000" font-family="sans-serif" font-size="12" lengthAdjust="spacingAndGlyphs" textLength="79" x="1469.75" y="298.9102">StartController</text><line style="stroke: #A80036; stroke-width: 1.5;" x1="1402.5" x2="1583.5" y1="310" y2="310"/><line style="stroke: #A80036; stroke-width: 1.5;" x1="1402.5" x2="1583.5" y1="318" y2="318"/><ellipse cx="1412.5" cy="330.418" fill="#84BE84" rx="3" ry="3" style="stroke: #038048; stroke-width: 1.0;"/><text fill="#000000" font-family="sans-serif" font-size="11" lengthAdjust="spacingAndGlyphs" textLength="157" x="1421.5" y="333.4189">StartController(Session session)</text><ellipse cx="1412.5" cy="344.2539" fill="#84BE84" rx="3" ry="3" style="stroke: #038048; stroke-width: 1.0;"/><text fill="#000000" font-family="sans-serif" font-size="11" lengthAdjust="spacingAndGlyphs" textLength="64" x="1421.5" y="347.2549">void control()</text><!--class mastermind.models.Session--><rect fill="#FEFECE" filter="url(#f1bjr7z7oc10lm)" height="48" id="mastermind.models.Session" style="stroke: #A80036; stroke-width: 1.5;" width="78" x="1592" y="635"/><ellipse cx="1607" cy="651" fill="#ADD1B2" rx="11" ry="11" style="stroke: #A80036; stroke-width: 1.0;"/><path d="M1609.7656,646.875 Q1609.9219,646.6563 1610.1094,646.5469 Q1610.2969,646.4375 1610.5156,646.4375 Q1610.8906,646.4375 1611.125,646.6953 Q1611.3594,646.9531 1611.3594,647.5625 L1611.3594,649.0156 Q1611.3594,649.625 1611.125,649.8906 Q1610.8906,650.1563 1610.5156,650.1563 Q1610.1719,650.1563 1609.9688,649.9531 Q1609.7656,649.7656 1609.6563,649.25 Q1609.6094,648.8906 1609.4219,648.7031 Q1609.0938,648.3281 1608.4844,648.1094 Q1607.875,647.8906 1607.25,647.8906 Q1606.4844,647.8906 1605.8516,648.2188 Q1605.2188,648.5469 1604.7266,649.2969 Q1604.2344,650.0469 1604.2344,651.0781 L1604.2344,652.1719 Q1604.2344,653.4063 1605.125,654.2266 Q1606.0156,655.0469 1607.6094,655.0469 Q1608.5469,655.0469 1609.2031,654.7969 Q1609.5938,654.6406 1610.0156,654.2031 Q1610.2813,653.9375 1610.4297,653.8594 Q1610.5781,653.7813 1610.7813,653.7813 Q1611.1094,653.7813 1611.3672,654.0391 Q1611.625,654.2969 1611.625,654.6406 Q1611.625,654.9844 1611.2813,655.3906 Q1610.7813,655.9688 1609.9844,656.2969 Q1608.9063,656.75 1607.6094,656.75 Q1606.0938,656.75 1604.8906,656.125 Q1603.9063,655.625 1603.2188,654.5547 Q1602.5313,653.4844 1602.5313,652.2031 L1602.5313,651.0469 Q1602.5313,649.7188 1603.1484,648.5703 Q1603.7656,647.4219 1604.8594,646.8047 Q1605.9531,646.1875 1607.1875,646.1875 Q1607.9219,646.1875 1608.5703,646.3516 Q1609.2188,646.5156 1609.7656,646.875 Z "/><text fill="#000000" font-family="sans-serif" font-size="12" lengthAdjust="spacingAndGlyphs" textLength="46" x="1621" y="655.9102">Session</text><line style="stroke: #A80036; stroke-width: 1.5;" x1="1593" x2="1669" y1="667" y2="667"/><line style="stroke: #A80036; stroke-width: 1.5;" x1="1593" x2="1669" y1="675" y2="675"/><!--class mastermind.models.Combination--><rect fill="#FEFECE" filter="url(#f1bjr7z7oc10lm)" height="48" id="mastermind.models.Combination" style="stroke: #A80036; stroke-width: 1.5;" width="103" x="1453.5" y="635"/><ellipse cx="1468.5" cy="651" fill="#ADD1B2" rx="11" ry="11" style="stroke: #A80036; stroke-width: 1.0;"/><path d="M1471.2656,646.875 Q1471.4219,646.6563 1471.6094,646.5469 Q1471.7969,646.4375 1472.0156,646.4375 Q1472.3906,646.4375 1472.625,646.6953 Q1472.8594,646.9531 1472.8594,647.5625 L1472.8594,649.0156 Q1472.8594,649.625 1472.625,649.8906 Q1472.3906,650.1563 1472.0156,650.1563 Q1471.6719,650.1563 1471.4688,649.9531 Q1471.2656,649.7656 1471.1563,649.25 Q1471.1094,648.8906 1470.9219,648.7031 Q1470.5938,648.3281 1469.9844,648.1094 Q1469.375,647.8906 1468.75,647.8906 Q1467.9844,647.8906 1467.3516,648.2188 Q1466.7188,648.5469 1466.2266,649.2969 Q1465.7344,650.0469 1465.7344,651.0781 L1465.7344,652.1719 Q1465.7344,653.4063 1466.625,654.2266 Q1467.5156,655.0469 1469.1094,655.0469 Q1470.0469,655.0469 1470.7031,654.7969 Q1471.0938,654.6406 1471.5156,654.2031 Q1471.7813,653.9375 1471.9297,653.8594 Q1472.0781,653.7813 1472.2813,653.7813 Q1472.6094,653.7813 1472.8672,654.0391 Q1473.125,654.2969 1473.125,654.6406 Q1473.125,654.9844 1472.7813,655.3906 Q1472.2813,655.9688 1471.4844,656.2969 Q1470.4063,656.75 1469.1094,656.75 Q1467.5938,656.75 1466.3906,656.125 Q1465.4063,655.625 1464.7188,654.5547 Q1464.0313,653.4844 1464.0313,652.2031 L1464.0313,651.0469 Q1464.0313,649.7188 1464.6484,648.5703 Q1465.2656,647.4219 1466.3594,646.8047 Q1467.4531,646.1875 1468.6875,646.1875 Q1469.4219,646.1875 1470.0703,646.3516 Q1470.7188,646.5156 1471.2656,646.875 Z "/><text fill="#000000" font-family="sans-serif" font-size="12" lengthAdjust="spacingAndGlyphs" textLength="71" x="1482.5" y="655.9102">Combination</text><line style="stroke: #A80036; stroke-width: 1.5;" x1="1454.5" x2="1555.5" y1="667" y2="667"/><line style="stroke: #A80036; stroke-width: 1.5;" x1="1454.5" x2="1555.5" y1="675" y2="675"/><!--class mastermind.views.GameView--><rect fill="#FEFECE" filter="url(#f1bjr7z7oc10lm)" height="48" id="mastermind.views.GameView" style="stroke: #A80036; stroke-width: 1.5;" width="92" x="352" y="635"/><ellipse cx="367" cy="651" fill="#ADD1B2" rx="11" ry="11" style="stroke: #A80036; stroke-width: 1.0;"/><path d="M369.7656,646.875 Q369.9219,646.6563 370.1094,646.5469 Q370.2969,646.4375 370.5156,646.4375 Q370.8906,646.4375 371.125,646.6953 Q371.3594,646.9531 371.3594,647.5625 L371.3594,649.0156 Q371.3594,649.625 371.125,649.8906 Q370.8906,650.1563 370.5156,650.1563 Q370.1719,650.1563 369.9688,649.9531 Q369.7656,649.7656 369.6563,649.25 Q369.6094,648.8906 369.4219,648.7031 Q369.0938,648.3281 368.4844,648.1094 Q367.875,647.8906 367.25,647.8906 Q366.4844,647.8906 365.8516,648.2188 Q365.2188,648.5469 364.7266,649.2969 Q364.2344,650.0469 364.2344,651.0781 L364.2344,652.1719 Q364.2344,653.4063 365.125,654.2266 Q366.0156,655.0469 367.6094,655.0469 Q368.5469,655.0469 369.2031,654.7969 Q369.5938,654.6406 370.0156,654.2031 Q370.2813,653.9375 370.4297,653.8594 Q370.5781,653.7813 370.7813,653.7813 Q371.1094,653.7813 371.3672,654.0391 Q371.625,654.2969 371.625,654.6406 Q371.625,654.9844 371.2813,655.3906 Q370.7813,655.9688 369.9844,656.2969 Q368.9063,656.75 367.6094,656.75 Q366.0938,656.75 364.8906,656.125 Q363.9063,655.625 363.2188,654.5547 Q362.5313,653.4844 362.5313,652.2031 L362.5313,651.0469 Q362.5313,649.7188 363.1484,648.5703 Q363.7656,647.4219 364.8594,646.8047 Q365.9531,646.1875 367.1875,646.1875 Q367.9219,646.1875 368.5703,646.3516 Q369.2188,646.5156 369.7656,646.875 Z "/><text fill="#000000" font-family="sans-serif" font-size="12" lengthAdjust="spacingAndGlyphs" textLength="60" x="381" y="655.9102">GameView</text><line style="stroke: #A80036; stroke-width: 1.5;" x1="353" x2="443" y1="667" y2="667"/><line style="stroke: #A80036; stroke-width: 1.5;" x1="353" x2="443" y1="675" y2="675"/><!--class mastermind.views.ProposeCommand--><rect fill="#FEFECE" filter="url(#f1bjr7z7oc10lm)" height="48" id="mastermind.views.ProposeCommand" style="stroke: #A80036; stroke-width: 1.5;" width="138" x="38" y="635"/><ellipse cx="53" cy="651" fill="#ADD1B2" rx="11" ry="11" style="stroke: #A80036; stroke-width: 1.0;"/><path d="M55.7656,646.875 Q55.9219,646.6563 56.1094,646.5469 Q56.2969,646.4375 56.5156,646.4375 Q56.8906,646.4375 57.125,646.6953 Q57.3594,646.9531 57.3594,647.5625 L57.3594,649.0156 Q57.3594,649.625 57.125,649.8906 Q56.8906,650.1563 56.5156,650.1563 Q56.1719,650.1563 55.9688,649.9531 Q55.7656,649.7656 55.6563,649.25 Q55.6094,648.8906 55.4219,648.7031 Q55.0938,648.3281 54.4844,648.1094 Q53.875,647.8906 53.25,647.8906 Q52.4844,647.8906 51.8516,648.2188 Q51.2188,648.5469 50.7266,649.2969 Q50.2344,650.0469 50.2344,651.0781 L50.2344,652.1719 Q50.2344,653.4063 51.125,654.2266 Q52.0156,655.0469 53.6094,655.0469 Q54.5469,655.0469 55.2031,654.7969 Q55.5938,654.6406 56.0156,654.2031 Q56.2813,653.9375 56.4297,653.8594 Q56.5781,653.7813 56.7813,653.7813 Q57.1094,653.7813 57.3672,654.0391 Q57.625,654.2969 57.625,654.6406 Q57.625,654.9844 57.2813,655.3906 Q56.7813,655.9688 55.9844,656.2969 Q54.9063,656.75 53.6094,656.75 Q52.0938,656.75 50.8906,656.125 Q49.9063,655.625 49.2188,654.5547 Q48.5313,653.4844 48.5313,652.2031 L48.5313,651.0469 Q48.5313,649.7188 49.1484,648.5703 Q49.7656,647.4219 50.8594,646.8047 Q51.9531,646.1875 53.1875,646.1875 Q53.9219,646.1875 54.5703,646.3516 Q55.2188,646.5156 55.7656,646.875 Z "/><text fill="#000000" font-family="sans-serif" font-size="12" lengthAdjust="spacingAndGlyphs" textLength="106" x="67" y="655.9102">ProposeCommand</text><line style="stroke: #A80036; stroke-width: 1.5;" x1="39" x2="175" y1="667" y2="667"/><line style="stroke: #A80036; stroke-width: 1.5;" x1="39" x2="175" y1="675" y2="675"/><!--class mastermind.views.UndoCommand--><rect fill="#FEFECE" filter="url(#f1bjr7z7oc10lm)" height="48" id="mastermind.views.UndoCommand" style="stroke: #A80036; stroke-width: 1.5;" width="121" x="479.5" y="635"/><ellipse cx="494.5" cy="651" fill="#ADD1B2" rx="11" ry="11" style="stroke: #A80036; stroke-width: 1.0;"/><path d="M497.2656,646.875 Q497.4219,646.6563 497.6094,646.5469 Q497.7969,646.4375 498.0156,646.4375 Q498.3906,646.4375 498.625,646.6953 Q498.8594,646.9531 498.8594,647.5625 L498.8594,649.0156 Q498.8594,649.625 498.625,649.8906 Q498.3906,650.1563 498.0156,650.1563 Q497.6719,650.1563 497.4688,649.9531 Q497.2656,649.7656 497.1563,649.25 Q497.1094,648.8906 496.9219,648.7031 Q496.5938,648.3281 495.9844,648.1094 Q495.375,647.8906 494.75,647.8906 Q493.9844,647.8906 493.3516,648.2188 Q492.7188,648.5469 492.2266,649.2969 Q491.7344,650.0469 491.7344,651.0781 L491.7344,652.1719 Q491.7344,653.4063 492.625,654.2266 Q493.5156,655.0469 495.1094,655.0469 Q496.0469,655.0469 496.7031,654.7969 Q497.0938,654.6406 497.5156,654.2031 Q497.7813,653.9375 497.9297,653.8594 Q498.0781,653.7813 498.2813,653.7813 Q498.6094,653.7813 498.8672,654.0391 Q499.125,654.2969 499.125,654.6406 Q499.125,654.9844 498.7813,655.3906 Q498.2813,655.9688 497.4844,656.2969 Q496.4063,656.75 495.1094,656.75 Q493.5938,656.75 492.3906,656.125 Q491.4063,655.625 490.7188,654.5547 Q490.0313,653.4844 490.0313,652.2031 L490.0313,651.0469 Q490.0313,649.7188 490.6484,648.5703 Q491.2656,647.4219 492.3594,646.8047 Q493.4531,646.1875 494.6875,646.1875 Q495.4219,646.1875 496.0703,646.3516 Q496.7188,646.5156 497.2656,646.875 Z "/><text fill="#000000" font-family="sans-serif" font-size="12" lengthAdjust="spacingAndGlyphs" textLength="89" x="508.5" y="655.9102">UndoCommand</text><line style="stroke: #A80036; stroke-width: 1.5;" x1="480.5" x2="599.5" y1="667" y2="667"/><line style="stroke: #A80036; stroke-width: 1.5;" x1="480.5" x2="599.5" y1="675" y2="675"/><!--class mastermind.views.RedoCommand--><rect fill="#FEFECE" filter="url(#f1bjr7z7oc10lm)" height="48" id="mastermind.views.RedoCommand" style="stroke: #A80036; stroke-width: 1.5;" width="121" x="635.5" y="635"/><ellipse cx="650.5" cy="651" fill="#ADD1B2" rx="11" ry="11" style="stroke: #A80036; stroke-width: 1.0;"/><path d="M653.2656,646.875 Q653.4219,646.6563 653.6094,646.5469 Q653.7969,646.4375 654.0156,646.4375 Q654.3906,646.4375 654.625,646.6953 Q654.8594,646.9531 654.8594,647.5625 L654.8594,649.0156 Q654.8594,649.625 654.625,649.8906 Q654.3906,650.1563 654.0156,650.1563 Q653.6719,650.1563 653.4688,649.9531 Q653.2656,649.7656 653.1563,649.25 Q653.1094,648.8906 652.9219,648.7031 Q652.5938,648.3281 651.9844,648.1094 Q651.375,647.8906 650.75,647.8906 Q649.9844,647.8906 649.3516,648.2188 Q648.7188,648.5469 648.2266,649.2969 Q647.7344,650.0469 647.7344,651.0781 L647.7344,652.1719 Q647.7344,653.4063 648.625,654.2266 Q649.5156,655.0469 651.1094,655.0469 Q652.0469,655.0469 652.7031,654.7969 Q653.0938,654.6406 653.5156,654.2031 Q653.7813,653.9375 653.9297,653.8594 Q654.0781,653.7813 654.2813,653.7813 Q654.6094,653.7813 654.8672,654.0391 Q655.125,654.2969 655.125,654.6406 Q655.125,654.9844 654.7813,655.3906 Q654.2813,655.9688 653.4844,656.2969 Q652.4063,656.75 651.1094,656.75 Q649.5938,656.75 648.3906,656.125 Q647.4063,655.625 646.7188,654.5547 Q646.0313,653.4844 646.0313,652.2031 L646.0313,651.0469 Q646.0313,649.7188 646.6484,648.5703 Q647.2656,647.4219 648.3594,646.8047 Q649.4531,646.1875 650.6875,646.1875 Q651.4219,646.1875 652.0703,646.3516 Q652.7188,646.5156 653.2656,646.875 Z "/><text fill="#000000" font-family="sans-serif" font-size="12" lengthAdjust="spacingAndGlyphs" textLength="89" x="664.5" y="655.9102">RedoCommand</text><line style="stroke: #A80036; stroke-width: 1.5;" x1="636.5" x2="755.5" y1="667" y2="667"/><line style="stroke: #A80036; stroke-width: 1.5;" x1="636.5" x2="755.5" y1="675" y2="675"/><!--class mastermind.views.ProposedCombinationView--><rect fill="#FEFECE" filter="url(#f1bjr7z7oc10lm)" height="48" id="mastermind.views.ProposedCombinationView" style="stroke: #A80036; stroke-width: 1.5;" width="183" x="791.5" y="635"/><ellipse cx="806.5" cy="651" fill="#ADD1B2" rx="11" ry="11" style="stroke: #A80036; stroke-width: 1.0;"/><path d="M809.2656,646.875 Q809.4219,646.6563 809.6094,646.5469 Q809.7969,646.4375 810.0156,646.4375 Q810.3906,646.4375 810.625,646.6953 Q810.8594,646.9531 810.8594,647.5625 L810.8594,649.0156 Q810.8594,649.625 810.625,649.8906 Q810.3906,650.1563 810.0156,650.1563 Q809.6719,650.1563 809.4688,649.9531 Q809.2656,649.7656 809.1563,649.25 Q809.1094,648.8906 808.9219,648.7031 Q808.5938,648.3281 807.9844,648.1094 Q807.375,647.8906 806.75,647.8906 Q805.9844,647.8906 805.3516,648.2188 Q804.7188,648.5469 804.2266,649.2969 Q803.7344,650.0469 803.7344,651.0781 L803.7344,652.1719 Q803.7344,653.4063 804.625,654.2266 Q805.5156,655.0469 807.1094,655.0469 Q808.0469,655.0469 808.7031,654.7969 Q809.0938,654.6406 809.5156,654.2031 Q809.7813,653.9375 809.9297,653.8594 Q810.0781,653.7813 810.2813,653.7813 Q810.6094,653.7813 810.8672,654.0391 Q811.125,654.2969 811.125,654.6406 Q811.125,654.9844 810.7813,655.3906 Q810.2813,655.9688 809.4844,656.2969 Q808.4063,656.75 807.1094,656.75 Q805.5938,656.75 804.3906,656.125 Q803.4063,655.625 802.7188,654.5547 Q802.0313,653.4844 802.0313,652.2031 L802.0313,651.0469 Q802.0313,649.7188 802.6484,648.5703 Q803.2656,647.4219 804.3594,646.8047 Q805.4531,646.1875 806.6875,646.1875 Q807.4219,646.1875 808.0703,646.3516 Q808.7188,646.5156 809.2656,646.875 Z "/><text fill="#000000" font-family="sans-serif" font-size="12" lengthAdjust="spacingAndGlyphs" textLength="151" x="820.5" y="655.9102">ProposedCombinationView</text><line style="stroke: #A80036; stroke-width: 1.5;" x1="792.5" x2="973.5" y1="667" y2="667"/><line style="stroke: #A80036; stroke-width: 1.5;" x1="792.5" x2="973.5" y1="675" y2="675"/><!--class mastermind.views.ErrorView--><rect fill="#FEFECE" filter="url(#f1bjr7z7oc10lm)" height="48" id="mastermind.views.ErrorView" style="stroke: #A80036; stroke-width: 1.5;" width="85" x="1009.5" y="635"/><ellipse cx="1024.5" cy="651" fill="#ADD1B2" rx="11" ry="11" style="stroke: #A80036; stroke-width: 1.0;"/><path d="M1027.2656,646.875 Q1027.4219,646.6563 1027.6094,646.5469 Q1027.7969,646.4375 1028.0156,646.4375 Q1028.3906,646.4375 1028.625,646.6953 Q1028.8594,646.9531 1028.8594,647.5625 L1028.8594,649.0156 Q1028.8594,649.625 1028.625,649.8906 Q1028.3906,650.1563 1028.0156,650.1563 Q1027.6719,650.1563 1027.4688,649.9531 Q1027.2656,649.7656 1027.1563,649.25 Q1027.1094,648.8906 1026.9219,648.7031 Q1026.5938,648.3281 1025.9844,648.1094 Q1025.375,647.8906 1024.75,647.8906 Q1023.9844,647.8906 1023.3516,648.2188 Q1022.7188,648.5469 1022.2266,649.2969 Q1021.7344,650.0469 1021.7344,651.0781 L1021.7344,652.1719 Q1021.7344,653.4063 1022.625,654.2266 Q1023.5156,655.0469 1025.1094,655.0469 Q1026.0469,655.0469 1026.7031,654.7969 Q1027.0938,654.6406 1027.5156,654.2031 Q1027.7813,653.9375 1027.9297,653.8594 Q1028.0781,653.7813 1028.2813,653.7813 Q1028.6094,653.7813 1028.8672,654.0391 Q1029.125,654.2969 1029.125,654.6406 Q1029.125,654.9844 1028.7813,655.3906 Q1028.2813,655.9688 1027.4844,656.2969 Q1026.4063,656.75 1025.1094,656.75 Q1023.5938,656.75 1022.3906,656.125 Q1021.4063,655.625 1020.7188,654.5547 Q1020.0313,653.4844 1020.0313,652.2031 L1020.0313,651.0469 Q1020.0313,649.7188 1020.6484,648.5703 Q1021.2656,647.4219 1022.3594,646.8047 Q1023.4531,646.1875 1024.6875,646.1875 Q1025.4219,646.1875 1026.0703,646.3516 Q1026.7188,646.5156 1027.2656,646.875 Z "/><text fill="#000000" font-family="sans-serif" font-size="12" lengthAdjust="spacingAndGlyphs" textLength="53" x="1038.5" y="655.9102">ErrorView</text><line style="stroke: #A80036; stroke-width: 1.5;" x1="1010.5" x2="1093.5" y1="667" y2="667"/><line style="stroke: #A80036; stroke-width: 1.5;" x1="1010.5" x2="1093.5" y1="675" y2="675"/><!--class mastermind.views.ResumeView--><rect fill="#FEFECE" filter="url(#f1bjr7z7oc10lm)" height="48" id="mastermind.views.ResumeView" style="stroke: #A80036; stroke-width: 1.5;" width="106" x="211" y="635"/><ellipse cx="226" cy="651" fill="#ADD1B2" rx="11" ry="11" style="stroke: #A80036; stroke-width: 1.0;"/><path d="M228.7656,646.875 Q228.9219,646.6563 229.1094,646.5469 Q229.2969,646.4375 229.5156,646.4375 Q229.8906,646.4375 230.125,646.6953 Q230.3594,646.9531 230.3594,647.5625 L230.3594,649.0156 Q230.3594,649.625 230.125,649.8906 Q229.8906,650.1563 229.5156,650.1563 Q229.1719,650.1563 228.9688,649.9531 Q228.7656,649.7656 228.6563,649.25 Q228.6094,648.8906 228.4219,648.7031 Q228.0938,648.3281 227.4844,648.1094 Q226.875,647.8906 226.25,647.8906 Q225.4844,647.8906 224.8516,648.2188 Q224.2188,648.5469 223.7266,649.2969 Q223.2344,650.0469 223.2344,651.0781 L223.2344,652.1719 Q223.2344,653.4063 224.125,654.2266 Q225.0156,655.0469 226.6094,655.0469 Q227.5469,655.0469 228.2031,654.7969 Q228.5938,654.6406 229.0156,654.2031 Q229.2813,653.9375 229.4297,653.8594 Q229.5781,653.7813 229.7813,653.7813 Q230.1094,653.7813 230.3672,654.0391 Q230.625,654.2969 230.625,654.6406 Q230.625,654.9844 230.2813,655.3906 Q229.7813,655.9688 228.9844,656.2969 Q227.9063,656.75 226.6094,656.75 Q225.0938,656.75 223.8906,656.125 Q222.9063,655.625 222.2188,654.5547 Q221.5313,653.4844 221.5313,652.2031 L221.5313,651.0469 Q221.5313,649.7188 222.1484,648.5703 Q222.7656,647.4219 223.8594,646.8047 Q224.9531,646.1875 226.1875,646.1875 Q226.9219,646.1875 227.5703,646.3516 Q228.2188,646.5156 228.7656,646.875 Z "/><text fill="#000000" font-family="sans-serif" font-size="12" lengthAdjust="spacingAndGlyphs" textLength="74" x="240" y="655.9102">ResumeView</text><line style="stroke: #A80036; stroke-width: 1.5;" x1="212" x2="316" y1="667" y2="667"/><line style="stroke: #A80036; stroke-width: 1.5;" x1="212" x2="316" y1="675" y2="675"/><!--class santaTecla.utils.Command--><rect fill="#FEFECE" filter="url(#f1bjr7z7oc10lm)" height="48" id="santaTecla.utils.Command" style="stroke: #A80036; stroke-width: 1.5;" width="91" x="544.5" y="490"/><ellipse cx="559.5" cy="506" fill="#ADD1B2" rx="11" ry="11" style="stroke: #A80036; stroke-width: 1.0;"/><path d="M562.2656,501.875 Q562.4219,501.6563 562.6094,501.5469 Q562.7969,501.4375 563.0156,501.4375 Q563.3906,501.4375 563.625,501.6953 Q563.8594,501.9531 563.8594,502.5625 L563.8594,504.0156 Q563.8594,504.625 563.625,504.8906 Q563.3906,505.1563 563.0156,505.1563 Q562.6719,505.1563 562.4688,504.9531 Q562.2656,504.7656 562.1563,504.25 Q562.1094,503.8906 561.9219,503.7031 Q561.5938,503.3281 560.9844,503.1094 Q560.375,502.8906 559.75,502.8906 Q558.9844,502.8906 558.3516,503.2188 Q557.7188,503.5469 557.2266,504.2969 Q556.7344,505.0469 556.7344,506.0781 L556.7344,507.1719 Q556.7344,508.4063 557.625,509.2266 Q558.5156,510.0469 560.1094,510.0469 Q561.0469,510.0469 561.7031,509.7969 Q562.0938,509.6406 562.5156,509.2031 Q562.7813,508.9375 562.9297,508.8594 Q563.0781,508.7813 563.2813,508.7813 Q563.6094,508.7813 563.8672,509.0391 Q564.125,509.2969 564.125,509.6406 Q564.125,509.9844 563.7813,510.3906 Q563.2813,510.9688 562.4844,511.2969 Q561.4063,511.75 560.1094,511.75 Q558.5938,511.75 557.3906,511.125 Q556.4063,510.625 555.7188,509.5547 Q555.0313,508.4844 555.0313,507.2031 L555.0313,506.0469 Q555.0313,504.7188 555.6484,503.5703 Q556.2656,502.4219 557.3594,501.8047 Q558.4531,501.1875 559.6875,501.1875 Q560.4219,501.1875 561.0703,501.3516 Q561.7188,501.5156 562.2656,501.875 Z "/><text fill="#000000" font-family="sans-serif" font-size="12" lengthAdjust="spacingAndGlyphs" textLength="59" x="573.5" y="510.9102">Command</text><line style="stroke: #A80036; stroke-width: 1.5;" x1="545.5" x2="634.5" y1="522" y2="522"/><line style="stroke: #A80036; stroke-width: 1.5;" x1="545.5" x2="634.5" y1="530" y2="530"/><!--class santaTecla.utils.Menu--><rect fill="#FEFECE" filter="url(#f1bjr7z7oc10lm)" height="48" id="santaTecla.utils.Menu" style="stroke: #A80036; stroke-width: 1.5;" width="62" x="447" y="490"/><ellipse cx="462" cy="506" fill="#ADD1B2" rx="11" ry="11" style="stroke: #A80036; stroke-width: 1.0;"/><path d="M464.7656,501.875 Q464.9219,501.6563 465.1094,501.5469 Q465.2969,501.4375 465.5156,501.4375 Q465.8906,501.4375 466.125,501.6953 Q466.3594,501.9531 466.3594,502.5625 L466.3594,504.0156 Q466.3594,504.625 466.125,504.8906 Q465.8906,505.1563 465.5156,505.1563 Q465.1719,505.1563 464.9688,504.9531 Q464.7656,504.7656 464.6563,504.25 Q464.6094,503.8906 464.4219,503.7031 Q464.0938,503.3281 463.4844,503.1094 Q462.875,502.8906 462.25,502.8906 Q461.4844,502.8906 460.8516,503.2188 Q460.2188,503.5469 459.7266,504.2969 Q459.2344,505.0469 459.2344,506.0781 L459.2344,507.1719 Q459.2344,508.4063 460.125,509.2266 Q461.0156,510.0469 462.6094,510.0469 Q463.5469,510.0469 464.2031,509.7969 Q464.5938,509.6406 465.0156,509.2031 Q465.2813,508.9375 465.4297,508.8594 Q465.5781,508.7813 465.7813,508.7813 Q466.1094,508.7813 466.3672,509.0391 Q466.625,509.2969 466.625,509.6406 Q466.625,509.9844 466.2813,510.3906 Q465.7813,510.9688 464.9844,511.2969 Q463.9063,511.75 462.6094,511.75 Q461.0938,511.75 459.8906,511.125 Q458.9063,510.625 458.2188,509.5547 Q457.5313,508.4844 457.5313,507.2031 L457.5313,506.0469 Q457.5313,504.7188 458.1484,503.5703 Q458.7656,502.4219 459.8594,501.8047 Q460.9531,501.1875 462.1875,501.1875 Q462.9219,501.1875 463.5703,501.3516 Q464.2188,501.5156 464.7656,501.875 Z "/><text fill="#000000" font-family="sans-serif" font-size="12" lengthAdjust="spacingAndGlyphs" textLength="30" x="476" y="510.9102">Menu</text><line style="stroke: #A80036; stroke-width: 1.5;" x1="448" x2="508" y1="522" y2="522"/><line style="stroke: #A80036; stroke-width: 1.5;" x1="448" x2="508" y1="530" y2="530"/><!--class mastermind.types.Error--><rect fill="#FEFECE" filter="url(#f1bjr7z7oc10lm)" height="48" id="mastermind.types.Error" style="stroke: #A80036; stroke-width: 1.5;" width="59" x="1309.5" y="635"/><ellipse cx="1324.5" cy="651" fill="#ADD1B2" rx="11" ry="11" style="stroke: #A80036; stroke-width: 1.0;"/><path d="M1327.2656,646.875 Q1327.4219,646.6563 1327.6094,646.5469 Q1327.7969,646.4375 1328.0156,646.4375 Q1328.3906,646.4375 1328.625,646.6953 Q1328.8594,646.9531 1328.8594,647.5625 L1328.8594,649.0156 Q1328.8594,649.625 1328.625,649.8906 Q1328.3906,650.1563 1328.0156,650.1563 Q1327.6719,650.1563 1327.4688,649.9531 Q1327.2656,649.7656 1327.1563,649.25 Q1327.1094,648.8906 1326.9219,648.7031 Q1326.5938,648.3281 1325.9844,648.1094 Q1325.375,647.8906 1324.75,647.8906 Q1323.9844,647.8906 1323.3516,648.2188 Q1322.7188,648.5469 1322.2266,649.2969 Q1321.7344,650.0469 1321.7344,651.0781 L1321.7344,652.1719 Q1321.7344,653.4063 1322.625,654.2266 Q1323.5156,655.0469 1325.1094,655.0469 Q1326.0469,655.0469 1326.7031,654.7969 Q1327.0938,654.6406 1327.5156,654.2031 Q1327.7813,653.9375 1327.9297,653.8594 Q1328.0781,653.7813 1328.2813,653.7813 Q1328.6094,653.7813 1328.8672,654.0391 Q1329.125,654.2969 1329.125,654.6406 Q1329.125,654.9844 1328.7813,655.3906 Q1328.2813,655.9688 1327.4844,656.2969 Q1326.4063,656.75 1325.1094,656.75 Q1323.5938,656.75 1322.3906,656.125 Q1321.4063,655.625 1320.7188,654.5547 Q1320.0313,653.4844 1320.0313,652.2031 L1320.0313,651.0469 Q1320.0313,649.7188 1320.6484,648.5703 Q1321.2656,647.4219 1322.3594,646.8047 Q1323.4531,646.1875 1324.6875,646.1875 Q1325.4219,646.1875 1326.0703,646.3516 Q1326.7188,646.5156 1327.2656,646.875 Z "/><text fill="#000000" font-family="sans-serif" font-size="12" lengthAdjust="spacingAndGlyphs" textLength="27" x="1338.5" y="655.9102">Error</text><line style="stroke: #A80036; stroke-width: 1.5;" x1="1310.5" x2="1367.5" y1="667" y2="667"/><line style="stroke: #A80036; stroke-width: 1.5;" x1="1310.5" x2="1367.5" y1="675" y2="675"/><!--class mastermind.types.Color--><rect fill="#FEFECE" filter="url(#f1bjr7z7oc10lm)" height="48" id="mastermind.types.Color" style="stroke: #A80036; stroke-width: 1.5;" width="62" x="1212" y="635"/><ellipse cx="1227" cy="651" fill="#ADD1B2" rx="11" ry="11" style="stroke: #A80036; stroke-width: 1.0;"/><path d="M1229.7656,646.875 Q1229.9219,646.6563 1230.1094,646.5469 Q1230.2969,646.4375 1230.5156,646.4375 Q1230.8906,646.4375 1231.125,646.6953 Q1231.3594,646.9531 1231.3594,647.5625 L1231.3594,649.0156 Q1231.3594,649.625 1231.125,649.8906 Q1230.8906,650.1563 1230.5156,650.1563 Q1230.1719,650.1563 1229.9688,649.9531 Q1229.7656,649.7656 1229.6563,649.25 Q1229.6094,648.8906 1229.4219,648.7031 Q1229.0938,648.3281 1228.4844,648.1094 Q1227.875,647.8906 1227.25,647.8906 Q1226.4844,647.8906 1225.8516,648.2188 Q1225.2188,648.5469 1224.7266,649.2969 Q1224.2344,650.0469 1224.2344,651.0781 L1224.2344,652.1719 Q1224.2344,653.4063 1225.125,654.2266 Q1226.0156,655.0469 1227.6094,655.0469 Q1228.5469,655.0469 1229.2031,654.7969 Q1229.5938,654.6406 1230.0156,654.2031 Q1230.2813,653.9375 1230.4297,653.8594 Q1230.5781,653.7813 1230.7813,653.7813 Q1231.1094,653.7813 1231.3672,654.0391 Q1231.625,654.2969 1231.625,654.6406 Q1231.625,654.9844 1231.2813,655.3906 Q1230.7813,655.9688 1229.9844,656.2969 Q1228.9063,656.75 1227.6094,656.75 Q1226.0938,656.75 1224.8906,656.125 Q1223.9063,655.625 1223.2188,654.5547 Q1222.5313,653.4844 1222.5313,652.2031 L1222.5313,651.0469 Q1222.5313,649.7188 1223.1484,648.5703 Q1223.7656,647.4219 1224.8594,646.8047 Q1225.9531,646.1875 1227.1875,646.1875 Q1227.9219,646.1875 1228.5703,646.3516 Q1229.2188,646.5156 1229.7656,646.875 Z "/><text fill="#000000" font-family="sans-serif" font-size="12" lengthAdjust="spacingAndGlyphs" textLength="30" x="1241" y="655.9102">Color</text><line style="stroke: #A80036; stroke-width: 1.5;" x1="1213" x2="1273" y1="667" y2="667"/><line style="stroke: #A80036; stroke-width: 1.5;" x1="1213" x2="1273" y1="675" y2="675"/><!--link mastermind.controllers.Controller to mastermind.models.Session--><path d="M1242.29,122.357 C1361.06,136.987 1556.37,168.724 1602,223 C1699.71,339.227 1662.09,540.426 1641.24,622.0463 " fill="none" id="mastermind.controllers.Controller-mastermind.models.Session" style="stroke: #A80036; stroke-width: 1.0;"/><polygon fill="#A80036" points="1637.88,634.7513,1644.0481,627.0731,1639.1583,629.9175,1636.3139,625.0278,1637.88,634.7513" style="stroke: #A80036; stroke-width: 1.0;"/><line style="stroke: #A80036; stroke-width: 1.0;" x1="1639.1583" x2="1641.2" y1="629.9175" y2="622.1836"/><polygon fill="#A80036" points="1229.27,120.784,1234.7477,125.4739,1241.1836,122.2214,1235.7059,117.5315,1229.27,120.784" style="stroke: #A80036; stroke-width: 1.0;"/><!--link mastermind.controllers.Controller to mastermind.controllers.InGameController--><path d="M1188.94,180.473 C1205.06,207.898 1223.33,238.988 1238.24,264.366 " fill="none" id="mastermind.controllers.Controller-mastermind.controllers.InGameController" style="stroke: #A80036; stroke-width: 1.0;"/><polygon fill="none" points="1182.82,183.867,1178.72,163.077,1194.89,176.773,1182.82,183.867" style="stroke: #A80036; stroke-width: 1.0;"/><!--link mastermind.controllers.InGameController to mastermind.views.GameView--><path d="M1207.91,376.027 C1191.08,389.203 1171.91,401.484 1152,409 C1076.95,437.326 490.57,392.278 431,446 C382.284,489.934 384.978,573.753 391.403,621.7872 " fill="none" id="mastermind.controllers.InGameController-mastermind.views.GameView" style="stroke: #A80036; stroke-width: 1.0;"/><polygon fill="#A80036" points="393.369,634.8929,395.9894,625.399,392.6272,629.9482,388.078,626.586,393.369,634.8929" style="stroke: #A80036; stroke-width: 1.0;"/><line style="stroke: #A80036; stroke-width: 1.0;" x1="392.6272" x2="391.4405" y1="629.9482" y2="622.0368"/><polygon fill="#A80036" points="1218.06,367.742,1210.8822,368.434,1208.7602,375.3258,1215.9381,374.6338,1218.06,367.742" style="stroke: #A80036; stroke-width: 1.0;"/><!--link mastermind.controllers.Controller to mastermind.controllers.PlayController--><path d="M1097.32,180.393 C1088.83,194.038 1080.16,208.592 1071.96,222.901 " fill="none" id="mastermind.controllers.Controller-mastermind.controllers.PlayController" style="stroke: #A80036; stroke-width: 1.0;"/><polygon fill="none" points="1091.69,176.208,1108.32,163.077,1103.51,183.713,1091.69,176.208" style="stroke: #A80036; stroke-width: 1.0;"/><!--link mastermind.controllers.PlayController to mastermind.controllers.Controller--><path d="M1104.84,211.453 C1112.07,198.978 1119.01,186.55 1125.2,174.926 " fill="none" id="mastermind.controllers.PlayController-mastermind.controllers.Controller" style="stroke: #A80036; stroke-width: 1.0;"/><polygon fill="#A80036" points="1131.4,163.077,1123.6835,169.1971,1129.0821,167.5073,1130.772,172.9058,1131.4,163.077" style="stroke: #A80036; stroke-width: 1.0;"/><line style="stroke: #A80036; stroke-width: 1.0;" x1="1129.0821" x2="1125.37" y1="167.5073" y2="174.5965"/><polygon fill="#A80036" points="1098.12,222.901,1104.6061,219.7497,1104.1918,212.5505,1097.7058,215.7018,1098.12,222.901" style="stroke: #A80036; stroke-width: 1.0;"/><!--link mastermind.controllers.PlayController to santaTecla.utils.Command--><path d="M915.157,406.256 C913.109,407.21 911.056,408.126 909,409 C812.498,450.006 772.177,404.237 676,446 C656.675,454.391 637.897,468.153 622.842,481.027 " fill="none" id="mastermind.controllers.PlayController-santaTecla.utils.Command" style="stroke: #A80036; stroke-width: 1.0;"/><polygon fill="#A80036" points="613.055,489.722,622.4401,486.7355,616.7932,486.4014,617.1273,480.7545,613.055,489.722" style="stroke: #A80036; stroke-width: 1.0;"/><line style="stroke: #A80036; stroke-width: 1.0;" x1="616.7932" x2="622.7735" y1="486.4014" y2="481.0885"/><polygon fill="#A80036" points="926.813,400.398,919.6557,399.5187,916.0912,405.7872,923.2485,406.6665,926.813,400.398" style="stroke: #A80036; stroke-width: 1.0;"/><!--link mastermind.controllers.PlayController to mastermind.controllers.ProposalController--><path d="M1145.96,404.87 C1147.98,406.266 1150,407.643 1152,409 C1178.9,427.232 1209.01,445.9 1236.47,462.297 " fill="none" id="mastermind.controllers.PlayController-mastermind.controllers.ProposalController" style="stroke: #A80036; stroke-width: 1.0;"/><polygon fill="#A80036" points="1247.66,468.938,1241.9588,460.907,1243.3593,466.3878,1237.8785,467.7882,1247.66,468.938" style="stroke: #A80036; stroke-width: 1.0;"/><line style="stroke: #A80036; stroke-width: 1.0;" x1="1243.3593" x2="1236.48" y1="466.3878" y2="462.3015"/><polygon fill="#A80036" points="1135.09,397.261,1137.7111,403.9789,1144.9203,404.1433,1142.2992,397.4254,1135.09,397.261" style="stroke: #A80036; stroke-width: 1.0;"/><!--link mastermind.controllers.PlayController to mastermind.controllers.UndoController--><path d="M932.644,418.999 C919.179,432.963 905.819,446.818 893.659,459.428 " fill="none" id="mastermind.controllers.PlayController-mastermind.controllers.UndoController" style="stroke: #A80036; stroke-width: 1.0;"/><polygon fill="#A80036" points="884.612,468.81,893.7389,465.1086,888.0829,465.211,887.9805,459.5551,884.612,468.81" style="stroke: #A80036; stroke-width: 1.0;"/><line style="stroke: #A80036; stroke-width: 1.0;" x1="888.0829" x2="893.636" y1="465.211" y2="459.4515"/><polygon fill="#A80036" points="942.034,409.261,934.9898,410.8035,933.7044,417.8992,940.7486,416.3566,942.034,409.261" style="stroke: #A80036; stroke-width: 1.0;"/><!--link mastermind.controllers.PlayController to mastermind.controllers.RedoController--><path d="M1047.67,422.403 C1049.49,433.905 1051.29,445.27 1052.96,455.859 " fill="none" id="mastermind.controllers.PlayController-mastermind.controllers.RedoController" style="stroke: #A80036; stroke-width: 1.0;"/><polygon fill="#A80036" points="1055.01,468.81,1057.5531,459.2951,1054.228,463.8715,1049.6516,460.5464,1055.01,468.81" style="stroke: #A80036; stroke-width: 1.0;"/><line style="stroke: #A80036; stroke-width: 1.0;" x1="1054.228" x2="1052.98" y1="463.8715" y2="455.969"/><polygon fill="#A80036" points="1045.59,409.261,1042.5765,415.8123,1047.4648,421.1136,1050.4783,414.5624,1045.59,409.261" style="stroke: #A80036; stroke-width: 1.0;"/><!--link mastermind.controllers.PlayController to mastermind.views.ProposeCommand--><path d="M914.854,406.681 C912.908,407.494 910.957,408.268 909,409 C688.255,491.579 600.185,361.939 380,446 C277.939,484.964 182.976,575.722 136.63,624.9043 " fill="none" id="mastermind.controllers.PlayController-mastermind.views.ProposeCommand" style="stroke: #A80036; stroke-width: 1.0;"/><polygon fill="#A80036" points="127.493,634.7346,136.5502,630.8659,130.8971,631.0724,130.6907,625.4193,127.493,634.7346" style="stroke: #A80036; stroke-width: 1.0;"/><line style="stroke: #A80036; stroke-width: 1.0;" x1="130.8971" x2="136.3435" y1="631.0724" y2="625.2125"/><polygon fill="#A80036" points="926.708,401.23,919.5855,400.1029,915.8057,406.244,922.9282,407.3711,926.708,401.23" style="stroke: #A80036; stroke-width: 1.0;"/><!--link mastermind.controllers.PlayController to mastermind.views.UndoCommand--><path d="M914.846,406.661 C912.903,407.48 910.954,408.261 909,409 C809.353,446.699 503.37,367.812 431,446 C389.64,490.685 393.904,534.716 431,583 C439.407,593.943 448.773,584.603 461,591 C478.142,599.968 494.828,613.23 508.414,625.5943 " fill="none" id="mastermind.controllers.PlayController-mastermind.views.UndoCommand" style="stroke: #A80036; stroke-width: 1.0;"/><polygon fill="#A80036" points="518.155,634.7879,514.3553,625.7015,514.5188,631.356,508.8643,631.5195,518.155,634.7879" style="stroke: #A80036; stroke-width: 1.0;"/><line style="stroke: #A80036; stroke-width: 1.0;" x1="514.5188" x2="508.7" y1="631.356" y2="625.865"/><polygon fill="#A80036" points="926.688,401.175,919.5624,400.0675,915.7996,406.219,922.9251,407.3265,926.688,401.175" style="stroke: #A80036; stroke-width: 1.0;"/><!--link mastermind.controllers.PlayController to mastermind.views.RedoCommand--><path d="M915.096,406.117 C913.067,407.114 911.034,408.077 909,409 C835.819,442.217 787.742,388.106 732,446 C686.731,493.017 686.503,574.69 690.909,621.7558 " fill="none" id="mastermind.controllers.PlayController-mastermind.views.RedoCommand" style="stroke: #A80036; stroke-width: 1.0;"/><polygon fill="#A80036" points="692.346,634.8952,695.3441,625.5137,691.8025,629.9248,687.3915,626.3833,692.346,634.8952" style="stroke: #A80036; stroke-width: 1.0;"/><line style="stroke: #A80036; stroke-width: 1.0;" x1="691.8025" x2="690.933" y1="629.9248" y2="621.9723"/><polygon fill="#A80036" points="926.657,400.043,919.4851,399.2922,916.0336,405.6237,923.2055,406.3745,926.657,400.043" style="stroke: #A80036; stroke-width: 1.0;"/><!--link mastermind.controllers.PlayController to santaTecla.utils.Menu--><path d="M915.229,406.433 C913.159,407.332 911.082,408.189 909,409 C750.053,470.894 675.199,361.55 527,446 C513.906,453.461 503.333,466.008 495.406,478.239 " fill="none" id="mastermind.controllers.PlayController-santaTecla.utils.Menu" style="stroke: #A80036; stroke-width: 1.0;"/><polygon fill="#A80036" points="488.622,489.694,496.6498,483.9883,491.1698,485.3918,489.7663,479.9118,488.622,489.694" style="stroke: #A80036; stroke-width: 1.0;"/><line style="stroke: #A80036; stroke-width: 1.0;" x1="491.1698" x2="495.247" y1="485.3918" y2="478.5085"/><polygon fill="#A80036" points="926.996,400.848,919.8604,399.8071,916.1552,405.9935,923.2907,407.0344,926.996,400.848" style="stroke: #A80036; stroke-width: 1.0;"/><!--link mastermind.controllers.InGameController to mastermind.controllers.ProposalController--><path d="M1288.45,387.303 C1296.35,414.493 1305.16,444.782 1312.15,468.813 " fill="none" id="mastermind.controllers.InGameController-mastermind.controllers.ProposalController" style="stroke: #A80036; stroke-width: 1.0;"/><polygon fill="none" points="1281.62,388.889,1282.75,367.73,1295.06,384.979,1281.62,388.889" style="stroke: #A80036; stroke-width: 1.0;"/><!--link mastermind.controllers.ProposalController to mastermind.types.Error--><path d="M1329.31,559.072 C1331.56,581.973 1334.23,609.298 1336.2,629.4224 " fill="none" id="mastermind.controllers.ProposalController-mastermind.types.Error" style="stroke: #A80036; stroke-width: 1.0; stroke-dasharray: 7.0,7.0;"/><polygon fill="#A80036" points="1336.71,634.6365,1339.8156,625.2901,1336.2236,629.6602,1331.8535,626.0683,1336.71,634.6365" style="stroke: #A80036; stroke-width: 1.0;"/><!--link mastermind.controllers.ProposalController to mastermind.types.Color--><path d="M1299.73,559.072 C1286.43,582.265 1270.53,609.997 1258.95,630.1895 " fill="none" id="mastermind.controllers.ProposalController-mastermind.types.Color" style="stroke: #A80036; stroke-width: 1.0; stroke-dasharray: 7.0,7.0;"/><polygon fill="#A80036" points="1256.4,634.6365,1264.3522,628.826,1258.8911,630.3013,1257.4158,624.8402,1256.4,634.6365" style="stroke: #A80036; stroke-width: 1.0;"/><!--link mastermind.controllers.ProposalController to mastermind.views.ProposedCombinationView--><path d="M1240.79,559.142 C1218.94,568.704 1195.06,577.569 1172,583 C1133.03,592.18 1030.28,579.253 992,591 C964.245,599.518 936.418,616.8032 915.828,631.6827 " fill="none" id="mastermind.controllers.ProposalController-mastermind.views.ProposedCombinationView" style="stroke: #A80036; stroke-width: 1.0; stroke-dasharray: 7.0,7.0;"/><polygon fill="#A80036" points="911.546,634.8172,921.171,632.7293,915.5807,631.864,916.4459,626.2737,911.546,634.8172" style="stroke: #A80036; stroke-width: 1.0;"/><!--link mastermind.controllers.ProposalController to mastermind.views.ErrorView--><path d="M1240.86,559.072 C1194.34,583.439 1138.26,612.816 1099.35,633.1961 " fill="none" id="mastermind.controllers.ProposalController-mastermind.views.ErrorView" style="stroke: #A80036; stroke-width: 1.0; stroke-dasharray: 7.0,7.0;"/><polygon fill="#A80036" points="1094.69,635.636,1104.5175,634.9884,1099.1156,633.3093,1100.7948,627.9074,1094.69,635.636" style="stroke: #A80036; stroke-width: 1.0;"/><!--link mastermind.controllers.ProposalController to mastermind.models.Combination--><path d="M1380.47,559.072 C1410.38,582.83 1446.28,611.351 1471.83,631.652 " fill="none" id="mastermind.controllers.ProposalController-mastermind.models.Combination" style="stroke: #A80036; stroke-width: 1.0; stroke-dasharray: 7.0,7.0;"/><polygon fill="#A80036" points="1475.84,634.8377,1471.2868,626.1045,1471.927,631.725,1466.3065,632.3653,1475.84,634.8377" style="stroke: #A80036; stroke-width: 1.0;"/><!--link mastermind.controllers.InGameController to mastermind.controllers.RedoController--><path d="M1199.92,381.779 C1169.91,410.327 1135.42,443.141 1108.44,468.813 " fill="none" id="mastermind.controllers.InGameController-mastermind.controllers.RedoController" style="stroke: #A80036; stroke-width: 1.0;"/><polygon fill="none" points="1195.37,376.445,1214.68,367.73,1205.02,386.587,1195.37,376.445" style="stroke: #A80036; stroke-width: 1.0;"/><!--link mastermind.controllers.Controller to mastermind.controllers.ResumeController--><path d="M1050.28,151.72 C1005.852,170.928 953.513,195.775 909,223 C886.185,236.954 862.693,254.663 842.802,270.81 " fill="none" id="mastermind.controllers.Controller-mastermind.controllers.ResumeController" style="stroke: #A80036; stroke-width: 1.0;"/><polygon fill="none" points="1047.64,145.235,1068.78,143.843,1053.12,158.117,1047.64,145.235" style="stroke: #A80036; stroke-width: 1.0;"/><!--link mastermind.controllers.ResumeController to mastermind.views.ResumeView--><path d="M692.274,329.977 C563.42,348.853 349.378,388.074 297,446 C250.814,497.079 254.126,584.946 259.531,629.8283 " fill="none" id="mastermind.controllers.ResumeController-mastermind.views.ResumeView" style="stroke: #A80036; stroke-width: 1.0; stroke-dasharray: 7.0,7.0;"/><polygon fill="#A80036" points="260.163,634.8214,263.0016,625.3905,259.5354,629.8609,255.0649,626.3947,260.163,634.8214" style="stroke: #A80036; stroke-width: 1.0;"/><!--link mastermind.controllers.Controller to mastermind.controllers.StartController--><path d="M1247.66,152.36 C1290.58,171.385 1340.63,195.911 1383,223 C1407.96,238.959 1433.48,259.96 1453.65,277.868 " fill="none" id="mastermind.controllers.Controller-mastermind.controllers.StartController" style="stroke: #A80036; stroke-width: 1.0;"/><polygon fill="none" points="1244.66,158.69,1229.12,144.285,1250.25,145.855,1244.66,158.69" style="stroke: #A80036; stroke-width: 1.0;"/><!--link mastermind.controllers.InGameController to mastermind.controllers.UndoController--><path d="M1199.29,380.279 C1184.53,391.267 1168.41,401.541 1152,409 C1069.71,446.415 1036.44,413.732 952,446 C936.334,451.986 920.406,460.216 905.714,468.86 " fill="none" id="mastermind.controllers.InGameController-mastermind.controllers.UndoController" style="stroke: #A80036; stroke-width: 1.0;"/><polygon fill="none" points="1195.27,374.535,1215.32,367.682,1203.92,385.543,1195.27,374.535" style="stroke: #A80036; stroke-width: 1.0;"/><!--
@startuml
abstract class mastermind.controllers.Controller {
	#Session session
	~Controller(Session session)
	~int getWidth()
	+{abstract}void control()
}
mastermind.controllers.Controller *-down-> mastermind.models.Session

abstract class mastermind.controllers.InGameController {
	-GameView gameView
	~InGameController(Session session)
	+void control()
	#{abstract}void inGameControl()
}
mastermind.controllers.Controller <|-down- mastermind.controllers.InGameController
mastermind.controllers.InGameController *-down-> mastermind.views.GameView

class mastermind.controllers.PlayController {
	-Map<Command,Controller> controllers
	-ProposeCommand proposeCommand
	-ProposalController proposalController
	-UndoCommand undoCommand
	-UndoController undoController
	-RedoCommand redoCommand
	-RedoController redoController
	-Menu menu
	+PlayController(Session session)
	+void control()
}
mastermind.controllers.Controller <|-down- mastermind.controllers.PlayController
mastermind.controllers.PlayController *-down-> santaTecla.utils.Command
mastermind.controllers.PlayController *-down-> mastermind.controllers.Controller
mastermind.controllers.PlayController *-down-> mastermind.controllers.ProposalController
mastermind.controllers.PlayController *-down-> mastermind.controllers.UndoController
mastermind.controllers.PlayController *-down-> mastermind.controllers.RedoController
mastermind.controllers.PlayController *-down-> mastermind.views.ProposeCommand
mastermind.controllers.PlayController *-down-> mastermind.views.UndoCommand
mastermind.controllers.PlayController *-down-> mastermind.views.RedoCommand
mastermind.controllers.PlayController *-down-> santaTecla.utils.Menu

class mastermind.controllers.ProposalController {
	~ProposalController(Session session)
	+void inGameControl()
	-Error addProposedCombination(List<Color> colors)
}
mastermind.controllers.InGameController <|-down- mastermind.controllers.ProposalController
mastermind.controllers.ProposalController ..> mastermind.types.Error
mastermind.controllers.ProposalController ..> mastermind.types.Color
mastermind.controllers.ProposalController ..> mastermind.views.ProposedCombinationView
mastermind.controllers.ProposalController ..> mastermind.views.ErrorView
mastermind.controllers.ProposalController ..> mastermind.models.Combination

class mastermind.controllers.RedoController {
	~RedoController(Session session)
	~boolean redoable()
	+void inGameControl()
}
mastermind.controllers.InGameController <|-down- mastermind.controllers.RedoController

class mastermind.controllers.ResumeController {
	+ResumeController(Session session)
	-void resume(boolean newGame)
	+void control()
}
mastermind.controllers.Controller <|-down- mastermind.controllers.ResumeController
mastermind.controllers.ResumeController ..> mastermind.views.ResumeView

class mastermind.controllers.StartController {
	+StartController(Session session)
	+void control()
}
mastermind.controllers.Controller <|-down- mastermind.controllers.StartController

class mastermind.controllers.UndoController {
	~UndoController(Session session)
	~boolean undoable()
	+void inGameControl()
}
mastermind.controllers.InGameController <|-down- mastermind.controllers.UndoController
@enduml

PlantUML version 1.2019.05(Sat Apr 20 18:45:36 CEST 2019)
(GPL source distribution)
Java Runtime: OpenJDK Runtime Environment
JVM: OpenJDK 64-Bit Server VM
Java Version: 1.8.0_222-b10
Operating System: Windows 10
OS Version: 10.0
Default Encoding: windows-1252
Language: es
Country: ES
--></g></svg>