<?xml version="1.0" encoding="UTF-8" standalone="no"?><svg xmlns="http://www.w3.org/2000/svg" xmlns:xlink="http://www.w3.org/1999/xlink" contentScriptType="application/ecmascript" contentStyleType="text/css" height="699px" preserveAspectRatio="none" style="width:835px;height:699px;" version="1.1" viewBox="0 0 835 699" width="835px" zoomAndPan="magnify"><defs><filter height="300%" id="f131kp3ypyx3o2" width="300%" x="-1" y="-1"><feGaussianBlur result="blurOut" stdDeviation="2.0"/><feColorMatrix in="blurOut" result="blurOut2" type="matrix" values="0 0 0 0 0 0 0 0 0 0 0 0 0 0 0 0 0 0 .4 0"/><feOffset dx="4.0" dy="4.0" in="blurOut2" result="blurOut3"/><feBlend in="SourceGraphic" in2="blurOut3" mode="normal"/></filter></defs><g><!--cluster mastermind.models.dataBase--><polygon fill="#FFFFFF" filter="url(#f131kp3ypyx3o2)" points="104,148,316,148,323,171.6094,813,171.6094,813,563,104,563,104,148" style="stroke: #000000; stroke-width: 1.5;"/><line style="stroke: #000000; stroke-width: 1.5;" x1="104" x2="323" y1="171.6094" y2="171.6094"/><text fill="#000000" font-family="sans-serif" font-size="14" font-weight="bold" lengthAdjust="spacingAndGlyphs" textLength="206" x="108" y="164.5332">mastermind.models.dataBase</text><!--cluster mastermind.models.DAO--><polygon fill="#FFFFFF" filter="url(#f131kp3ypyx3o2)" points="204,24,381,24,388,47.6094,552,47.6094,552,124,204,124,204,24" style="stroke: #000000; stroke-width: 1.5;"/><line style="stroke: #000000; stroke-width: 1.5;" x1="204" x2="388" y1="47.6094" y2="47.6094"/><text fill="#000000" font-family="sans-serif" font-size="14" font-weight="bold" lengthAdjust="spacingAndGlyphs" textLength="171" x="208" y="40.5332">mastermind.models.DAO</text><!--cluster mastermind.models--><polygon fill="#FFFFFF" filter="url(#f131kp3ypyx3o2)" points="186,587,329,587,336,610.6094,744,610.6094,744,687,186,687,186,587" style="stroke: #000000; stroke-width: 1.5;"/><line style="stroke: #000000; stroke-width: 1.5;" x1="186" x2="336" y1="610.6094" y2="610.6094"/><text fill="#000000" font-family="sans-serif" font-size="14" font-weight="bold" lengthAdjust="spacingAndGlyphs" textLength="137" x="190" y="603.5332">mastermind.models</text><!--cluster mastermind.types--><polygon fill="#FFFFFF" filter="url(#f131kp3ypyx3o2)" points="22,587,152,587,159,610.6094,162,610.6094,162,687,22,687,22,587" style="stroke: #000000; stroke-width: 1.5;"/><line style="stroke: #000000; stroke-width: 1.5;" x1="22" x2="159" y1="610.6094" y2="610.6094"/><text fill="#000000" font-family="sans-serif" font-size="14" font-weight="bold" lengthAdjust="spacingAndGlyphs" textLength="124" x="26" y="603.5332">mastermind.types</text><!--class mastermind.models.dataBase.DBDAO--><rect fill="#FEFECE" filter="url(#f131kp3ypyx3o2)" height="75.6719" id="mastermind.models.dataBase.DBDAO" style="stroke: #A80036; stroke-width: 1.5;" width="317" x="120.5" y="246"/><ellipse cx="253.25" cy="262" fill="#B4A7E5" rx="11" ry="11" style="stroke: #A80036; stroke-width: 1.0;"/><path d="M254.2031,258.6406 L254.2031,265.2969 L255.9219,265.2969 Q256.5313,265.2969 256.7969,265.5313 Q257.0625,265.7656 257.0625,266.1563 Q257.0625,266.5313 256.7969,266.7656 Q256.5313,267 255.9219,267 L250.7813,267 Q250.1719,267 249.9063,266.7656 Q249.6406,266.5313 249.6406,266.1406 Q249.6406,265.7656 249.9063,265.5313 Q250.1719,265.2969 250.7813,265.2969 L252.5,265.2969 L252.5,258.6406 L250.7813,258.6406 Q250.1719,258.6406 249.9063,258.4063 Q249.6406,258.1719 249.6406,257.7813 Q249.6406,257.4063 249.9063,257.1719 Q250.1719,256.9375 250.7813,256.9375 L255.9219,256.9375 Q256.5313,256.9375 256.7969,257.1719 Q257.0625,257.4063 257.0625,257.7813 Q257.0625,258.1719 256.7969,258.4063 Q256.5313,258.6406 255.9219,258.6406 L254.2031,258.6406 Z "/><text fill="#000000" font-family="sans-serif" font-size="12" font-style="italic" lengthAdjust="spacingAndGlyphs" textLength="43" x="273.75" y="266.9102">DBDAO</text><line style="stroke: #A80036; stroke-width: 1.5;" x1="121.5" x2="436.5" y1="278" y2="278"/><line style="stroke: #A80036; stroke-width: 1.5;" x1="121.5" x2="436.5" y1="286" y2="286"/><text fill="#000000" font-family="sans-serif" font-size="11" lengthAdjust="spacingAndGlyphs" textLength="305" x="126.5" y="301.4189">void save(String name, Connection connection, Boolean exists)</text><text fill="#000000" font-family="sans-serif" font-size="11" lengthAdjust="spacingAndGlyphs" textLength="224" x="126.5" y="315.2549">void load(String name, Connection connection)</text><!--class mastermind.models.dataBase.GameDBDAO--><rect fill="#FEFECE" filter="url(#f131kp3ypyx3o2)" height="103.3438" id="mastermind.models.dataBase.GameDBDAO" style="stroke: #A80036; stroke-width: 1.5;" width="331" x="120.5" y="444"/><ellipse cx="243.75" cy="460" fill="#ADD1B2" rx="11" ry="11" style="stroke: #A80036; stroke-width: 1.0;"/><path d="M246.5156,455.875 Q246.6719,455.6563 246.8594,455.5469 Q247.0469,455.4375 247.2656,455.4375 Q247.6406,455.4375 247.875,455.6953 Q248.1094,455.9531 248.1094,456.5625 L248.1094,458.0156 Q248.1094,458.625 247.875,458.8906 Q247.6406,459.1563 247.2656,459.1563 Q246.9219,459.1563 246.7188,458.9531 Q246.5156,458.7656 246.4063,458.25 Q246.3594,457.8906 246.1719,457.7031 Q245.8438,457.3281 245.2344,457.1094 Q244.625,456.8906 244,456.8906 Q243.2344,456.8906 242.6016,457.2188 Q241.9688,457.5469 241.4766,458.2969 Q240.9844,459.0469 240.9844,460.0781 L240.9844,461.1719 Q240.9844,462.4063 241.875,463.2266 Q242.7656,464.0469 244.3594,464.0469 Q245.2969,464.0469 245.9531,463.7969 Q246.3438,463.6406 246.7656,463.2031 Q247.0313,462.9375 247.1797,462.8594 Q247.3281,462.7813 247.5313,462.7813 Q247.8594,462.7813 248.1172,463.0391 Q248.375,463.2969 248.375,463.6406 Q248.375,463.9844 248.0313,464.3906 Q247.5313,464.9688 246.7344,465.2969 Q245.6563,465.75 244.3594,465.75 Q242.8438,465.75 241.6406,465.125 Q240.6563,464.625 239.9688,463.5547 Q239.2813,462.4844 239.2813,461.2031 L239.2813,460.0469 Q239.2813,458.7188 239.8984,457.5703 Q240.5156,456.4219 241.6094,455.8047 Q242.7031,455.1875 243.9375,455.1875 Q244.6719,455.1875 245.3203,455.3516 Q245.9688,455.5156 246.5156,455.875 Z "/><text fill="#000000" font-family="sans-serif" font-size="12" lengthAdjust="spacingAndGlyphs" textLength="76" x="264.25" y="464.9102">GameDBDAO</text><line style="stroke: #A80036; stroke-width: 1.5;" x1="121.5" x2="450.5" y1="476" y2="476"/><line style="stroke: #A80036; stroke-width: 1.5;" x1="121.5" x2="450.5" y1="484" y2="484"/><polygon fill="#FFFF44" points="131.5,491.418,135.5,495.418,131.5,499.418,127.5,495.418" style="stroke: #B38D22; stroke-width: 1.0;"/><text fill="#000000" font-family="sans-serif" font-size="11" lengthAdjust="spacingAndGlyphs" textLength="130" x="140.5" y="499.4189">GameDBDAO(Game game)</text><ellipse cx="131.5" cy="510.2539" fill="#84BE84" rx="3" ry="3" style="stroke: #038048; stroke-width: 1.0;"/><text fill="#000000" font-family="sans-serif" font-size="11" lengthAdjust="spacingAndGlyphs" textLength="305" x="140.5" y="513.2549">void save(String name, Connection connection, Boolean exists)</text><rect fill="#F24D5C" height="6" style="stroke: #C82930; stroke-width: 1.0;" width="6" x="128.5" y="521.0898"/><text fill="#000000" font-family="sans-serif" font-size="11" lengthAdjust="spacingAndGlyphs" textLength="292" x="140.5" y="527.0908">void insert(String name, Connection connection, int attempts)</text><ellipse cx="131.5" cy="537.9258" fill="#84BE84" rx="3" ry="3" style="stroke: #038048; stroke-width: 1.0;"/><text fill="#000000" font-family="sans-serif" font-size="11" lengthAdjust="spacingAndGlyphs" textLength="224" x="140.5" y="540.9268">void load(String name, Connection connection)</text><!--class mastermind.models.dataBase.SessionImplementationDBDAO--><rect fill="#FEFECE" filter="url(#f131kp3ypyx3o2)" height="200.1953" id="mastermind.models.dataBase.SessionImplementationDBDAO" style="stroke: #A80036; stroke-width: 1.5;" width="324" x="473" y="184"/><ellipse cx="543.75" cy="200" fill="#ADD1B2" rx="11" ry="11" style="stroke: #A80036; stroke-width: 1.0;"/><path d="M546.5156,195.875 Q546.6719,195.6563 546.8594,195.5469 Q547.0469,195.4375 547.2656,195.4375 Q547.6406,195.4375 547.875,195.6953 Q548.1094,195.9531 548.1094,196.5625 L548.1094,198.0156 Q548.1094,198.625 547.875,198.8906 Q547.6406,199.1563 547.2656,199.1563 Q546.9219,199.1563 546.7188,198.9531 Q546.5156,198.7656 546.4063,198.25 Q546.3594,197.8906 546.1719,197.7031 Q545.8438,197.3281 545.2344,197.1094 Q544.625,196.8906 544,196.8906 Q543.2344,196.8906 542.6016,197.2188 Q541.9688,197.5469 541.4766,198.2969 Q540.9844,199.0469 540.9844,200.0781 L540.9844,201.1719 Q540.9844,202.4063 541.875,203.2266 Q542.7656,204.0469 544.3594,204.0469 Q545.2969,204.0469 545.9531,203.7969 Q546.3438,203.6406 546.7656,203.2031 Q547.0313,202.9375 547.1797,202.8594 Q547.3281,202.7813 547.5313,202.7813 Q547.8594,202.7813 548.1172,203.0391 Q548.375,203.2969 548.375,203.6406 Q548.375,203.9844 548.0313,204.3906 Q547.5313,204.9688 546.7344,205.2969 Q545.6563,205.75 544.3594,205.75 Q542.8438,205.75 541.6406,205.125 Q540.6563,204.625 539.9688,203.5547 Q539.2813,202.4844 539.2813,201.2031 L539.2813,200.0469 Q539.2813,198.7188 539.8984,197.5703 Q540.5156,196.4219 541.6094,195.8047 Q542.7031,195.1875 543.9375,195.1875 Q544.6719,195.1875 545.3203,195.3516 Q545.9688,195.5156 546.5156,195.875 Z "/><text fill="#000000" font-family="sans-serif" font-size="12" lengthAdjust="spacingAndGlyphs" textLength="174" x="564.25" y="204.9102">SessionImplementationDBDAO</text><line style="stroke: #A80036; stroke-width: 1.5;" x1="474" x2="796" y1="216" y2="216"/><rect fill="none" height="6" style="stroke: #C82930; stroke-width: 1.0;" width="6" x="481" y="225.418"/><text fill="#000000" font-family="sans-serif" font-size="11" lengthAdjust="spacingAndGlyphs" text-decoration="underline" textLength="51" x="493" y="231.4189">String URL</text><rect fill="none" height="6" style="stroke: #C82930; stroke-width: 1.0;" width="6" x="481" y="239.2539"/><text fill="#000000" font-family="sans-serif" font-size="11" lengthAdjust="spacingAndGlyphs" text-decoration="underline" textLength="58" x="493" y="245.2549">String USER</text><rect fill="none" height="6" style="stroke: #C82930; stroke-width: 1.0;" width="6" x="481" y="253.0898"/><text fill="#000000" font-family="sans-serif" font-size="11" lengthAdjust="spacingAndGlyphs" text-decoration="underline" textLength="91" x="493" y="259.0908">String PASSWORD</text><rect fill="none" height="6" style="stroke: #C82930; stroke-width: 1.0;" width="6" x="481" y="266.9258"/><text fill="#000000" font-family="sans-serif" font-size="11" lengthAdjust="spacingAndGlyphs" textLength="131" x="493" y="272.9268">GameDBDAO gameDBDAO</text><polygon fill="none" points="484,278.7617,488,282.7617,484,286.7617,480,282.7617" style="stroke: #B38D22; stroke-width: 1.0;"/><text fill="#000000" font-family="sans-serif" font-size="11" lengthAdjust="spacingAndGlyphs" textLength="110" x="493" y="286.7627">Connection connection</text><line style="stroke: #A80036; stroke-width: 1.5;" x1="474" x2="796" y1="293.1797" y2="293.1797"/><ellipse cx="484" cy="305.5977" fill="#84BE84" rx="3" ry="3" style="stroke: #038048; stroke-width: 1.0;"/><text fill="#000000" font-family="sans-serif" font-size="11" lengthAdjust="spacingAndGlyphs" textLength="298" x="493" y="308.5986">void associate(SessionImplementation sessionImplementation)</text><ellipse cx="484" cy="319.4336" fill="#84BE84" rx="3" ry="3" style="stroke: #038048; stroke-width: 1.0;"/><text fill="#000000" font-family="sans-serif" font-size="11" lengthAdjust="spacingAndGlyphs" textLength="154" x="493" y="322.4346">SessionImplementationDBDAO()</text><ellipse cx="484" cy="333.2695" fill="#84BE84" rx="3" ry="3" style="stroke: #038048; stroke-width: 1.0;"/><text fill="#000000" font-family="sans-serif" font-size="11" lengthAdjust="spacingAndGlyphs" textLength="108" x="493" y="336.2705">void load(String name)</text><ellipse cx="484" cy="347.1055" fill="#84BE84" rx="3" ry="3" style="stroke: #038048; stroke-width: 1.0;"/><text fill="#000000" font-family="sans-serif" font-size="11" lengthAdjust="spacingAndGlyphs" textLength="112" x="493" y="350.1064">void save(String name)</text><ellipse cx="484" cy="360.9414" fill="#84BE84" rx="3" ry="3" style="stroke: #038048; stroke-width: 1.0;"/><text fill="#000000" font-family="sans-serif" font-size="11" lengthAdjust="spacingAndGlyphs" textLength="127" x="493" y="363.9424">String[] getGamesNames()</text><ellipse cx="484" cy="374.7773" fill="#84BE84" rx="3" ry="3" style="stroke: #038048; stroke-width: 1.0;"/><text fill="#000000" font-family="sans-serif" font-size="11" lengthAdjust="spacingAndGlyphs" textLength="135" x="493" y="377.7783">boolean exists(String name)</text><!--class mastermind.models.DAO.GameDAO--><rect fill="#FEFECE" filter="url(#f131kp3ypyx3o2)" height="48" id="mastermind.models.DAO.GameDAO" style="stroke: #A80036; stroke-width: 1.5;" width="91" x="220.5" y="60"/><ellipse cx="235.5" cy="76" fill="#ADD1B2" rx="11" ry="11" style="stroke: #A80036; stroke-width: 1.0;"/><path d="M238.2656,71.875 Q238.4219,71.6563 238.6094,71.5469 Q238.7969,71.4375 239.0156,71.4375 Q239.3906,71.4375 239.625,71.6953 Q239.8594,71.9531 239.8594,72.5625 L239.8594,74.0156 Q239.8594,74.625 239.625,74.8906 Q239.3906,75.1563 239.0156,75.1563 Q238.6719,75.1563 238.4688,74.9531 Q238.2656,74.7656 238.1563,74.25 Q238.1094,73.8906 237.9219,73.7031 Q237.5938,73.3281 236.9844,73.1094 Q236.375,72.8906 235.75,72.8906 Q234.9844,72.8906 234.3516,73.2188 Q233.7188,73.5469 233.2266,74.2969 Q232.7344,75.0469 232.7344,76.0781 L232.7344,77.1719 Q232.7344,78.4063 233.625,79.2266 Q234.5156,80.0469 236.1094,80.0469 Q237.0469,80.0469 237.7031,79.7969 Q238.0938,79.6406 238.5156,79.2031 Q238.7813,78.9375 238.9297,78.8594 Q239.0781,78.7813 239.2813,78.7813 Q239.6094,78.7813 239.8672,79.0391 Q240.125,79.2969 240.125,79.6406 Q240.125,79.9844 239.7813,80.3906 Q239.2813,80.9688 238.4844,81.2969 Q237.4063,81.75 236.1094,81.75 Q234.5938,81.75 233.3906,81.125 Q232.4063,80.625 231.7188,79.5547 Q231.0313,78.4844 231.0313,77.2031 L231.0313,76.0469 Q231.0313,74.7188 231.6484,73.5703 Q232.2656,72.4219 233.3594,71.8047 Q234.4531,71.1875 235.6875,71.1875 Q236.4219,71.1875 237.0703,71.3516 Q237.7188,71.5156 238.2656,71.875 Z "/><text fill="#000000" font-family="sans-serif" font-size="12" lengthAdjust="spacingAndGlyphs" textLength="59" x="249.5" y="80.9102">GameDAO</text><line style="stroke: #A80036; stroke-width: 1.5;" x1="221.5" x2="310.5" y1="92" y2="92"/><line style="stroke: #A80036; stroke-width: 1.5;" x1="221.5" x2="310.5" y1="100" y2="100"/><!--class mastermind.models.DAO.SessionImplementationDAO--><rect fill="#FEFECE" filter="url(#f131kp3ypyx3o2)" height="48" id="mastermind.models.DAO.SessionImplementationDAO" style="stroke: #A80036; stroke-width: 1.5;" width="189" x="346.5" y="60"/><ellipse cx="361.5" cy="76" fill="#ADD1B2" rx="11" ry="11" style="stroke: #A80036; stroke-width: 1.0;"/><path d="M364.2656,71.875 Q364.4219,71.6563 364.6094,71.5469 Q364.7969,71.4375 365.0156,71.4375 Q365.3906,71.4375 365.625,71.6953 Q365.8594,71.9531 365.8594,72.5625 L365.8594,74.0156 Q365.8594,74.625 365.625,74.8906 Q365.3906,75.1563 365.0156,75.1563 Q364.6719,75.1563 364.4688,74.9531 Q364.2656,74.7656 364.1563,74.25 Q364.1094,73.8906 363.9219,73.7031 Q363.5938,73.3281 362.9844,73.1094 Q362.375,72.8906 361.75,72.8906 Q360.9844,72.8906 360.3516,73.2188 Q359.7188,73.5469 359.2266,74.2969 Q358.7344,75.0469 358.7344,76.0781 L358.7344,77.1719 Q358.7344,78.4063 359.625,79.2266 Q360.5156,80.0469 362.1094,80.0469 Q363.0469,80.0469 363.7031,79.7969 Q364.0938,79.6406 364.5156,79.2031 Q364.7813,78.9375 364.9297,78.8594 Q365.0781,78.7813 365.2813,78.7813 Q365.6094,78.7813 365.8672,79.0391 Q366.125,79.2969 366.125,79.6406 Q366.125,79.9844 365.7813,80.3906 Q365.2813,80.9688 364.4844,81.2969 Q363.4063,81.75 362.1094,81.75 Q360.5938,81.75 359.3906,81.125 Q358.4063,80.625 357.7188,79.5547 Q357.0313,78.4844 357.0313,77.2031 L357.0313,76.0469 Q357.0313,74.7188 357.6484,73.5703 Q358.2656,72.4219 359.3594,71.8047 Q360.4531,71.1875 361.6875,71.1875 Q362.4219,71.1875 363.0703,71.3516 Q363.7188,71.5156 364.2656,71.875 Z "/><text fill="#000000" font-family="sans-serif" font-size="12" lengthAdjust="spacingAndGlyphs" textLength="157" x="375.5" y="80.9102">SessionImplementationDAO</text><line style="stroke: #A80036; stroke-width: 1.5;" x1="347.5" x2="534.5" y1="92" y2="92"/><line style="stroke: #A80036; stroke-width: 1.5;" x1="347.5" x2="534.5" y1="100" y2="100"/><!--class mastermind.models.Combination--><rect fill="#FEFECE" filter="url(#f131kp3ypyx3o2)" height="48" id="mastermind.models.Combination" style="stroke: #A80036; stroke-width: 1.5;" width="103" x="498.5" y="623"/><ellipse cx="513.5" cy="639" fill="#ADD1B2" rx="11" ry="11" style="stroke: #A80036; stroke-width: 1.0;"/><path d="M516.2656,634.875 Q516.4219,634.6563 516.6094,634.5469 Q516.7969,634.4375 517.0156,634.4375 Q517.3906,634.4375 517.625,634.6953 Q517.8594,634.9531 517.8594,635.5625 L517.8594,637.0156 Q517.8594,637.625 517.625,637.8906 Q517.3906,638.1563 517.0156,638.1563 Q516.6719,638.1563 516.4688,637.9531 Q516.2656,637.7656 516.1563,637.25 Q516.1094,636.8906 515.9219,636.7031 Q515.5938,636.3281 514.9844,636.1094 Q514.375,635.8906 513.75,635.8906 Q512.9844,635.8906 512.3516,636.2188 Q511.7188,636.5469 511.2266,637.2969 Q510.7344,638.0469 510.7344,639.0781 L510.7344,640.1719 Q510.7344,641.4063 511.625,642.2266 Q512.5156,643.0469 514.1094,643.0469 Q515.0469,643.0469 515.7031,642.7969 Q516.0938,642.6406 516.5156,642.2031 Q516.7813,641.9375 516.9297,641.8594 Q517.0781,641.7813 517.2813,641.7813 Q517.6094,641.7813 517.8672,642.0391 Q518.125,642.2969 518.125,642.6406 Q518.125,642.9844 517.7813,643.3906 Q517.2813,643.9688 516.4844,644.2969 Q515.4063,644.75 514.1094,644.75 Q512.5938,644.75 511.3906,644.125 Q510.4063,643.625 509.7188,642.5547 Q509.0313,641.4844 509.0313,640.2031 L509.0313,639.0469 Q509.0313,637.7188 509.6484,636.5703 Q510.2656,635.4219 511.3594,634.8047 Q512.4531,634.1875 513.6875,634.1875 Q514.4219,634.1875 515.0703,634.3516 Q515.7188,634.5156 516.2656,634.875 Z "/><text fill="#000000" font-family="sans-serif" font-size="12" lengthAdjust="spacingAndGlyphs" textLength="71" x="527.5" y="643.9102">Combination</text><line style="stroke: #A80036; stroke-width: 1.5;" x1="499.5" x2="600.5" y1="655" y2="655"/><line style="stroke: #A80036; stroke-width: 1.5;" x1="499.5" x2="600.5" y1="663" y2="663"/><!--class mastermind.models.ProposedCombination--><rect fill="#FEFECE" filter="url(#f131kp3ypyx3o2)" height="48" id="mastermind.models.ProposedCombination" style="stroke: #A80036; stroke-width: 1.5;" width="157" x="202.5" y="623"/><ellipse cx="217.5" cy="639" fill="#ADD1B2" rx="11" ry="11" style="stroke: #A80036; stroke-width: 1.0;"/><path d="M220.2656,634.875 Q220.4219,634.6563 220.6094,634.5469 Q220.7969,634.4375 221.0156,634.4375 Q221.3906,634.4375 221.625,634.6953 Q221.8594,634.9531 221.8594,635.5625 L221.8594,637.0156 Q221.8594,637.625 221.625,637.8906 Q221.3906,638.1563 221.0156,638.1563 Q220.6719,638.1563 220.4688,637.9531 Q220.2656,637.7656 220.1563,637.25 Q220.1094,636.8906 219.9219,636.7031 Q219.5938,636.3281 218.9844,636.1094 Q218.375,635.8906 217.75,635.8906 Q216.9844,635.8906 216.3516,636.2188 Q215.7188,636.5469 215.2266,637.2969 Q214.7344,638.0469 214.7344,639.0781 L214.7344,640.1719 Q214.7344,641.4063 215.625,642.2266 Q216.5156,643.0469 218.1094,643.0469 Q219.0469,643.0469 219.7031,642.7969 Q220.0938,642.6406 220.5156,642.2031 Q220.7813,641.9375 220.9297,641.8594 Q221.0781,641.7813 221.2813,641.7813 Q221.6094,641.7813 221.8672,642.0391 Q222.125,642.2969 222.125,642.6406 Q222.125,642.9844 221.7813,643.3906 Q221.2813,643.9688 220.4844,644.2969 Q219.4063,644.75 218.1094,644.75 Q216.5938,644.75 215.3906,644.125 Q214.4063,643.625 213.7188,642.5547 Q213.0313,641.4844 213.0313,640.2031 L213.0313,639.0469 Q213.0313,637.7188 213.6484,636.5703 Q214.2656,635.4219 215.3594,634.8047 Q216.4531,634.1875 217.6875,634.1875 Q218.4219,634.1875 219.0703,634.3516 Q219.7188,634.5156 220.2656,634.875 Z "/><text fill="#000000" font-family="sans-serif" font-size="12" lengthAdjust="spacingAndGlyphs" textLength="125" x="231.5" y="643.9102">ProposedCombination</text><line style="stroke: #A80036; stroke-width: 1.5;" x1="203.5" x2="358.5" y1="655" y2="655"/><line style="stroke: #A80036; stroke-width: 1.5;" x1="203.5" x2="358.5" y1="663" y2="663"/><!--class mastermind.models.Result--><rect fill="#FEFECE" filter="url(#f131kp3ypyx3o2)" height="48" id="mastermind.models.Result" style="stroke: #A80036; stroke-width: 1.5;" width="68" x="395" y="623"/><ellipse cx="410" cy="639" fill="#ADD1B2" rx="11" ry="11" style="stroke: #A80036; stroke-width: 1.0;"/><path d="M412.7656,634.875 Q412.9219,634.6563 413.1094,634.5469 Q413.2969,634.4375 413.5156,634.4375 Q413.8906,634.4375 414.125,634.6953 Q414.3594,634.9531 414.3594,635.5625 L414.3594,637.0156 Q414.3594,637.625 414.125,637.8906 Q413.8906,638.1563 413.5156,638.1563 Q413.1719,638.1563 412.9688,637.9531 Q412.7656,637.7656 412.6563,637.25 Q412.6094,636.8906 412.4219,636.7031 Q412.0938,636.3281 411.4844,636.1094 Q410.875,635.8906 410.25,635.8906 Q409.4844,635.8906 408.8516,636.2188 Q408.2188,636.5469 407.7266,637.2969 Q407.2344,638.0469 407.2344,639.0781 L407.2344,640.1719 Q407.2344,641.4063 408.125,642.2266 Q409.0156,643.0469 410.6094,643.0469 Q411.5469,643.0469 412.2031,642.7969 Q412.5938,642.6406 413.0156,642.2031 Q413.2813,641.9375 413.4297,641.8594 Q413.5781,641.7813 413.7813,641.7813 Q414.1094,641.7813 414.3672,642.0391 Q414.625,642.2969 414.625,642.6406 Q414.625,642.9844 414.2813,643.3906 Q413.7813,643.9688 412.9844,644.2969 Q411.9063,644.75 410.6094,644.75 Q409.0938,644.75 407.8906,644.125 Q406.9063,643.625 406.2188,642.5547 Q405.5313,641.4844 405.5313,640.2031 L405.5313,639.0469 Q405.5313,637.7188 406.1484,636.5703 Q406.7656,635.4219 407.8594,634.8047 Q408.9531,634.1875 410.1875,634.1875 Q410.9219,634.1875 411.5703,634.3516 Q412.2188,634.5156 412.7656,634.875 Z "/><text fill="#000000" font-family="sans-serif" font-size="12" lengthAdjust="spacingAndGlyphs" textLength="36" x="424" y="643.9102">Result</text><line style="stroke: #A80036; stroke-width: 1.5;" x1="396" x2="462" y1="655" y2="655"/><line style="stroke: #A80036; stroke-width: 1.5;" x1="396" x2="462" y1="663" y2="663"/><!--class mastermind.models.StateValue--><rect fill="#FEFECE" filter="url(#f131kp3ypyx3o2)" height="48" id="mastermind.models.StateValue" style="stroke: #A80036; stroke-width: 1.5;" width="91" x="636.5" y="623"/><ellipse cx="651.5" cy="639" fill="#ADD1B2" rx="11" ry="11" style="stroke: #A80036; stroke-width: 1.0;"/><path d="M654.2656,634.875 Q654.4219,634.6563 654.6094,634.5469 Q654.7969,634.4375 655.0156,634.4375 Q655.3906,634.4375 655.625,634.6953 Q655.8594,634.9531 655.8594,635.5625 L655.8594,637.0156 Q655.8594,637.625 655.625,637.8906 Q655.3906,638.1563 655.0156,638.1563 Q654.6719,638.1563 654.4688,637.9531 Q654.2656,637.7656 654.1563,637.25 Q654.1094,636.8906 653.9219,636.7031 Q653.5938,636.3281 652.9844,636.1094 Q652.375,635.8906 651.75,635.8906 Q650.9844,635.8906 650.3516,636.2188 Q649.7188,636.5469 649.2266,637.2969 Q648.7344,638.0469 648.7344,639.0781 L648.7344,640.1719 Q648.7344,641.4063 649.625,642.2266 Q650.5156,643.0469 652.1094,643.0469 Q653.0469,643.0469 653.7031,642.7969 Q654.0938,642.6406 654.5156,642.2031 Q654.7813,641.9375 654.9297,641.8594 Q655.0781,641.7813 655.2813,641.7813 Q655.6094,641.7813 655.8672,642.0391 Q656.125,642.2969 656.125,642.6406 Q656.125,642.9844 655.7813,643.3906 Q655.2813,643.9688 654.4844,644.2969 Q653.4063,644.75 652.1094,644.75 Q650.5938,644.75 649.3906,644.125 Q648.4063,643.625 647.7188,642.5547 Q647.0313,641.4844 647.0313,640.2031 L647.0313,639.0469 Q647.0313,637.7188 647.6484,636.5703 Q648.2656,635.4219 649.3594,634.8047 Q650.4531,634.1875 651.6875,634.1875 Q652.4219,634.1875 653.0703,634.3516 Q653.7188,634.5156 654.2656,634.875 Z "/><text fill="#000000" font-family="sans-serif" font-size="12" lengthAdjust="spacingAndGlyphs" textLength="59" x="665.5" y="643.9102">StateValue</text><line style="stroke: #A80036; stroke-width: 1.5;" x1="637.5" x2="726.5" y1="655" y2="655"/><line style="stroke: #A80036; stroke-width: 1.5;" x1="637.5" x2="726.5" y1="663" y2="663"/><!--class mastermind.types.Color--><rect fill="#FEFECE" filter="url(#f131kp3ypyx3o2)" height="48" id="mastermind.types.Color" style="stroke: #A80036; stroke-width: 1.5;" width="62" x="84" y="623"/><ellipse cx="99" cy="639" fill="#ADD1B2" rx="11" ry="11" style="stroke: #A80036; stroke-width: 1.0;"/><path d="M101.7656,634.875 Q101.9219,634.6563 102.1094,634.5469 Q102.2969,634.4375 102.5156,634.4375 Q102.8906,634.4375 103.125,634.6953 Q103.3594,634.9531 103.3594,635.5625 L103.3594,637.0156 Q103.3594,637.625 103.125,637.8906 Q102.8906,638.1563 102.5156,638.1563 Q102.1719,638.1563 101.9688,637.9531 Q101.7656,637.7656 101.6563,637.25 Q101.6094,636.8906 101.4219,636.7031 Q101.0938,636.3281 100.4844,636.1094 Q99.875,635.8906 99.25,635.8906 Q98.4844,635.8906 97.8516,636.2188 Q97.2188,636.5469 96.7266,637.2969 Q96.2344,638.0469 96.2344,639.0781 L96.2344,640.1719 Q96.2344,641.4063 97.125,642.2266 Q98.0156,643.0469 99.6094,643.0469 Q100.5469,643.0469 101.2031,642.7969 Q101.5938,642.6406 102.0156,642.2031 Q102.2813,641.9375 102.4297,641.8594 Q102.5781,641.7813 102.7813,641.7813 Q103.1094,641.7813 103.3672,642.0391 Q103.625,642.2969 103.625,642.6406 Q103.625,642.9844 103.2813,643.3906 Q102.7813,643.9688 101.9844,644.2969 Q100.9063,644.75 99.6094,644.75 Q98.0938,644.75 96.8906,644.125 Q95.9063,643.625 95.2188,642.5547 Q94.5313,641.4844 94.5313,640.2031 L94.5313,639.0469 Q94.5313,637.7188 95.1484,636.5703 Q95.7656,635.4219 96.8594,634.8047 Q97.9531,634.1875 99.1875,634.1875 Q99.9219,634.1875 100.5703,634.3516 Q101.2188,634.5156 101.7656,634.875 Z "/><text fill="#000000" font-family="sans-serif" font-size="12" lengthAdjust="spacingAndGlyphs" textLength="30" x="113" y="643.9102">Color</text><line style="stroke: #A80036; stroke-width: 1.5;" x1="85" x2="145" y1="655" y2="655"/><line style="stroke: #A80036; stroke-width: 1.5;" x1="85" x2="145" y1="663" y2="663"/><!--link mastermind.models.DAO.GameDAO to mastermind.models.dataBase.GameDBDAO--><path d="M200.448,89.342 C165.45,95.399 125.132,109.174 103,140 C39.7532,228.091 49.7021,289.557 103,384 C116.863,408.565 138.623,428.283 162.37,443.867 " fill="none" id="mastermind.models.DAO.GameDAO-mastermind.models.dataBase.GameDBDAO" style="stroke: #A80036; stroke-width: 1.0;"/><polygon fill="none" points="199.491,82.408,220.262,86.598,201.412,96.276,199.491,82.408" style="stroke: #A80036; stroke-width: 1.0;"/><!--link mastermind.models.dataBase.DBDAO to mastermind.models.dataBase.GameDBDAO--><path d="M280.924,342.592 C281.986,374.353 283.291,413.423 284.312,443.986 " fill="none" id="mastermind.models.dataBase.DBDAO-mastermind.models.dataBase.GameDBDAO" style="stroke: #A80036; stroke-width: 1.0; stroke-dasharray: 7.0,7.0;"/><polygon fill="none" points="273.923,342.677,280.251,322.454,287.916,342.209,273.923,342.677" style="stroke: #A80036; stroke-width: 1.0;"/><!--link mastermind.models.dataBase.GameDBDAO to mastermind.models.Combination--><path d="M422.319,547.004 C442.287,556.51 462.124,567.216 480,579 C497.075,590.255 513.719,605.9303 526.49,619.2889 " fill="none" id="mastermind.models.dataBase.GameDBDAO-mastermind.models.Combination" style="stroke: #A80036; stroke-width: 1.0; stroke-dasharray: 7.0,7.0;"/><polygon fill="#A80036" points="529.987,622.9897,526.7134,613.7008,526.5531,619.3554,520.8985,619.195,529.987,622.9897" style="stroke: #A80036; stroke-width: 1.0;"/><!--link mastermind.models.dataBase.GameDBDAO to mastermind.models.ProposedCombination--><path d="M284.307,547.114 C283.522,570.598 282.617,597.641 281.953,617.5054 " fill="none" id="mastermind.models.dataBase.GameDBDAO-mastermind.models.ProposedCombination" style="stroke: #A80036; stroke-width: 1.0; stroke-dasharray: 7.0,7.0;"/><polygon fill="#A80036" points="281.781,622.6509,286.0796,613.7896,281.9481,617.6537,278.0841,613.5222,281.781,622.6509" style="stroke: #A80036; stroke-width: 1.0;"/><!--link mastermind.models.dataBase.GameDBDAO to mastermind.models.Result--><path d="M345.205,547.418 C356.106,557.555 367.146,568.362 377,579 C388.507,591.422 400.169,606.2041 409.525,618.7191 " fill="none" id="mastermind.models.dataBase.GameDBDAO-mastermind.models.Result" style="stroke: #A80036; stroke-width: 1.0; stroke-dasharray: 7.0,7.0;"/><polygon fill="#A80036" points="412.606,622.8697,410.453,613.2591,409.6256,618.8551,404.0296,618.0277,412.606,622.8697" style="stroke: #A80036; stroke-width: 1.0;"/><!--link mastermind.models.dataBase.GameDBDAO to mastermind.types.Color--><path d="M223.314,547.137 C210.825,557.527 197.896,568.5 186,579 C171.375,591.908 155.549,606.7517 142.559,619.1819 " fill="none" id="mastermind.models.dataBase.GameDBDAO-mastermind.types.Color" style="stroke: #A80036; stroke-width: 1.0; stroke-dasharray: 7.0,7.0;"/><polygon fill="#A80036" points="138.623,622.9573,147.8869,619.6136,142.2313,619.496,142.3489,613.8404,138.623,622.9573" style="stroke: #A80036; stroke-width: 1.0;"/><!--link mastermind.models.DAO.SessionImplementationDAO to mastermind.models.dataBase.SessionImplementationDBDAO--><path d="M477.828,122.588 C494.994,140.108 516.316,161.869 537.66,183.653 " fill="none" id="mastermind.models.DAO.SessionImplementationDAO-mastermind.models.dataBase.SessionImplementationDBDAO" style="stroke: #A80036; stroke-width: 1.0;"/><polygon fill="none" points="472.631,127.285,463.634,108.101,482.631,117.487,472.631,127.285" style="stroke: #A80036; stroke-width: 1.0;"/><!--link mastermind.models.dataBase.SessionImplementationDBDAO to mastermind.models.dataBase.GameDBDAO--><path d="M461.537,389.128 C433.998,405.659 406.425,422.211 381.561,437.136 " fill="none" id="mastermind.models.dataBase.SessionImplementationDBDAO-mastermind.models.dataBase.GameDBDAO" style="stroke: #A80036; stroke-width: 1.0;"/><polygon fill="#A80036" points="370.337,443.874,380.1121,442.6709,374.6238,441.3004,375.9943,435.8121,370.337,443.874" style="stroke: #A80036; stroke-width: 1.0;"/><line style="stroke: #A80036; stroke-width: 1.0;" x1="374.6238" x2="381.483" y1="441.3004" y2="437.183"/><polygon fill="#A80036" points="472.761,382.39,465.558,382.0482,462.4721,388.5657,469.6751,388.9075,472.761,382.39" style="stroke: #A80036; stroke-width: 1.0;"/><!--link mastermind.models.dataBase.SessionImplementationDBDAO to mastermind.models.Combination--><path d="M611.661,384.122 C593.082,463.026 568.326,568.17 556.641,617.7962 " fill="none" id="mastermind.models.dataBase.SessionImplementationDBDAO-mastermind.models.Combination" style="stroke: #A80036; stroke-width: 1.0; stroke-dasharray: 7.0,7.0;"/><polygon fill="#A80036" points="555.484,622.7094,561.4407,614.8661,556.6303,617.8426,553.6538,613.0321,555.484,622.7094" style="stroke: #A80036; stroke-width: 1.0;"/><!--link mastermind.models.dataBase.SessionImplementationDBDAO to mastermind.models.StateValue--><path d="M647.905,384.122 C658.157,462.867 671.812,567.746 678.289,617.4947 " fill="none" id="mastermind.models.dataBase.SessionImplementationDBDAO-mastermind.models.StateValue" style="stroke: #A80036; stroke-width: 1.0; stroke-dasharray: 7.0,7.0;"/><polygon fill="#A80036" points="678.968,622.7094,681.7722,613.2682,678.3223,617.7513,673.8392,614.3013,678.968,622.7094" style="stroke: #A80036; stroke-width: 1.0;"/><!--
@startuml
interface mastermind.models.dataBase.DBDAO {
	void save(String name, Connection connection, Boolean exists)
	void load(String name, Connection connection)
}

class mastermind.models.dataBase.GameDBDAO {
	#GameDBDAO(Game game)
	+void save(String name, Connection connection, Boolean exists)
	-void insert(String name, Connection connection, int attempts)
	+void load(String name, Connection connection)
}
mastermind.models.DAO.GameDAO <|-down- mastermind.models.dataBase.GameDBDAO
mastermind.models.dataBase.DBDAO <|.down. mastermind.models.dataBase.GameDBDAO
mastermind.models.dataBase.GameDBDAO ..> mastermind.models.Combination
mastermind.models.dataBase.GameDBDAO ..> mastermind.models.ProposedCombination
mastermind.models.dataBase.GameDBDAO ..> mastermind.models.Result
mastermind.models.dataBase.GameDBDAO ..> mastermind.types.Color

class mastermind.models.dataBase.SessionImplementationDBDAO {
	-{static}String URL
	-{static}String USER
	-{static}String PASSWORD
	-GameDBDAO gameDBDAO
	#Connection connection
	+void associate(SessionImplementation sessionImplementation)
	+SessionImplementationDBDAO()
	+void load(String name)
	+void save(String name)
	+String[] getGamesNames()
	+boolean exists(String name)
}
mastermind.models.DAO.SessionImplementationDAO <|-down- mastermind.models.dataBase.SessionImplementationDBDAO
mastermind.models.dataBase.SessionImplementationDBDAO *-down-> mastermind.models.dataBase.GameDBDAO
mastermind.models.dataBase.SessionImplementationDBDAO ..> mastermind.models.Combination
mastermind.models.dataBase.SessionImplementationDBDAO ..> mastermind.models.StateValue
@enduml

PlantUML version 1.2019.05(Sat Apr 20 18:45:36 CEST 2019)
(GPL source distribution)
Java Runtime: OpenJDK Runtime Environment
JVM: OpenJDK 64-Bit Server VM
Java Version: 1.8.0_222-b10
Operating System: Windows 10
OS Version: 10.0
Default Encoding: windows-1252
Language: es
Country: ES
--></g></svg>