<?xml version="1.0" encoding="UTF-8" standalone="no"?><svg xmlns="http://www.w3.org/2000/svg" xmlns:xlink="http://www.w3.org/1999/xlink" contentScriptType="application/ecmascript" contentStyleType="text/css" height="355px" preserveAspectRatio="none" style="width:606px;height:355px;" version="1.1" viewBox="0 0 606 355" width="606px" zoomAndPan="magnify"><defs><filter height="300%" id="f2kr8a76skhn1" width="300%" x="-1" y="-1"><feGaussianBlur result="blurOut" stdDeviation="2.0"/><feColorMatrix in="blurOut" result="blurOut2" type="matrix" values="0 0 0 0 0 0 0 0 0 0 0 0 0 0 0 0 0 0 .4 0"/><feOffset dx="4.0" dy="4.0" in="blurOut2" result="blurOut3"/><feBlend in="SourceGraphic" in2="blurOut3" mode="normal"/></filter></defs><g><!--cluster mastermind--><polygon fill="#FFFFFF" filter="url(#f2kr8a76skhn1)" points="22,24,110,24,117,47.6094,214,47.6094,214,343,22,343,22,24" style="stroke: #000000; stroke-width: 1.5;"/><line style="stroke: #000000; stroke-width: 1.5;" x1="22" x2="117" y1="47.6094" y2="47.6094"/><text fill="#000000" font-family="sans-serif" font-size="14" font-weight="bold" lengthAdjust="spacingAndGlyphs" textLength="82" x="26" y="40.5332">mastermind</text><!--cluster mastermind.controllers--><polygon fill="#FFFFFF" filter="url(#f2kr8a76skhn1)" points="238,222,407,222,414,245.6094,417,245.6094,417,322,238,322,238,222" style="stroke: #000000; stroke-width: 1.5;"/><line style="stroke: #000000; stroke-width: 1.5;" x1="238" x2="414" y1="245.6094" y2="245.6094"/><text fill="#000000" font-family="sans-serif" font-size="14" font-weight="bold" lengthAdjust="spacingAndGlyphs" textLength="163" x="242" y="238.5332">mastermind.controllers</text><!--cluster mastermind.views--><polygon fill="#FFFFFF" filter="url(#f2kr8a76skhn1)" points="441,222,574,222,581,245.6094,584,245.6094,584,322,441,322,441,222" style="stroke: #000000; stroke-width: 1.5;"/><line style="stroke: #000000; stroke-width: 1.5;" x1="441" x2="581" y1="245.6094" y2="245.6094"/><text fill="#000000" font-family="sans-serif" font-size="14" font-weight="bold" lengthAdjust="spacingAndGlyphs" textLength="127" x="445" y="238.5332">mastermind.views</text><!--class mastermind.Mastermind--><rect fill="#FEFECE" filter="url(#f2kr8a76skhn1)" height="117.1797" id="mastermind.Mastermind" style="stroke: #A80036; stroke-width: 1.5;" width="144" x="54" y="60"/><ellipse cx="90.15" cy="76" fill="#ADD1B2" rx="11" ry="11" style="stroke: #A80036; stroke-width: 1.0;"/><path d="M92.9156,71.875 Q93.0719,71.6563 93.2594,71.5469 Q93.4469,71.4375 93.6656,71.4375 Q94.0406,71.4375 94.275,71.6953 Q94.5094,71.9531 94.5094,72.5625 L94.5094,74.0156 Q94.5094,74.625 94.275,74.8906 Q94.0406,75.1563 93.6656,75.1563 Q93.3219,75.1563 93.1188,74.9531 Q92.9156,74.7656 92.8063,74.25 Q92.7594,73.8906 92.5719,73.7031 Q92.2438,73.3281 91.6344,73.1094 Q91.025,72.8906 90.4,72.8906 Q89.6344,72.8906 89.0016,73.2188 Q88.3688,73.5469 87.8766,74.2969 Q87.3844,75.0469 87.3844,76.0781 L87.3844,77.1719 Q87.3844,78.4063 88.275,79.2266 Q89.1656,80.0469 90.7594,80.0469 Q91.6969,80.0469 92.3531,79.7969 Q92.7438,79.6406 93.1656,79.2031 Q93.4313,78.9375 93.5797,78.8594 Q93.7281,78.7813 93.9313,78.7813 Q94.2594,78.7813 94.5172,79.0391 Q94.775,79.2969 94.775,79.6406 Q94.775,79.9844 94.4313,80.3906 Q93.9313,80.9688 93.1344,81.2969 Q92.0563,81.75 90.7594,81.75 Q89.2438,81.75 88.0406,81.125 Q87.0563,80.625 86.3688,79.5547 Q85.6813,78.4844 85.6813,77.2031 L85.6813,76.0469 Q85.6813,74.7188 86.2984,73.5703 Q86.9156,72.4219 88.0094,71.8047 Q89.1031,71.1875 90.3375,71.1875 Q91.0719,71.1875 91.7203,71.3516 Q92.3688,71.5156 92.9156,71.875 Z "/><text fill="#000000" font-family="sans-serif" font-size="12" lengthAdjust="spacingAndGlyphs" textLength="65" x="108.85" y="80.9102">Mastermind</text><line style="stroke: #A80036; stroke-width: 1.5;" x1="55" x2="197" y1="92" y2="92"/><rect fill="none" height="6" style="stroke: #C82930; stroke-width: 1.0;" width="6" x="62" y="101.418"/><text fill="#000000" font-family="sans-serif" font-size="11" lengthAdjust="spacingAndGlyphs" textLength="54" x="74" y="107.4189">logic: Logic</text><rect fill="none" height="6" style="stroke: #C82930; stroke-width: 1.0;" width="6" x="62" y="115.2539"/><text fill="#000000" font-family="sans-serif" font-size="11" lengthAdjust="spacingAndGlyphs" textLength="56" x="74" y="121.2549">view: View</text><line style="stroke: #A80036; stroke-width: 1.5;" x1="55" x2="197" y1="127.6719" y2="127.6719"/><polygon fill="#FFFF44" points="65,135.0898,69,139.0898,65,143.0898,61,139.0898" style="stroke: #B38D22; stroke-width: 1.0;"/><text fill="#000000" font-family="sans-serif" font-size="11" lengthAdjust="spacingAndGlyphs" textLength="63" x="74" y="143.0908">Mastermind()</text><polygon fill="#FFFF44" points="65,148.9258,69,152.9258,65,156.9258,61,152.9258" style="stroke: #B38D22; stroke-width: 1.0;"/><text fill="#000000" font-family="sans-serif" font-size="11" font-style="italic" lengthAdjust="spacingAndGlyphs" textLength="118" x="74" y="156.9268">isStandalone(): boolean</text><polygon fill="#FFFF44" points="65,162.7617,69,166.7617,65,170.7617,61,166.7617" style="stroke: #B38D22; stroke-width: 1.0;"/><text fill="#000000" font-family="sans-serif" font-size="11" lengthAdjust="spacingAndGlyphs" textLength="54" x="74" y="170.7627">play(): void</text><!--class mastermind.MastermindStandalone--><rect fill="#FEFECE" filter="url(#f2kr8a76skhn1)" height="89.5078" id="mastermind.MastermindStandalone" style="stroke: #A80036; stroke-width: 1.5;" width="160" x="38" y="237"/><ellipse cx="53" cy="253" fill="#ADD1B2" rx="11" ry="11" style="stroke: #A80036; stroke-width: 1.0;"/><path d="M55.7656,248.875 Q55.9219,248.6563 56.1094,248.5469 Q56.2969,248.4375 56.5156,248.4375 Q56.8906,248.4375 57.125,248.6953 Q57.3594,248.9531 57.3594,249.5625 L57.3594,251.0156 Q57.3594,251.625 57.125,251.8906 Q56.8906,252.1563 56.5156,252.1563 Q56.1719,252.1563 55.9688,251.9531 Q55.7656,251.7656 55.6563,251.25 Q55.6094,250.8906 55.4219,250.7031 Q55.0938,250.3281 54.4844,250.1094 Q53.875,249.8906 53.25,249.8906 Q52.4844,249.8906 51.8516,250.2188 Q51.2188,250.5469 50.7266,251.2969 Q50.2344,252.0469 50.2344,253.0781 L50.2344,254.1719 Q50.2344,255.4063 51.125,256.2266 Q52.0156,257.0469 53.6094,257.0469 Q54.5469,257.0469 55.2031,256.7969 Q55.5938,256.6406 56.0156,256.2031 Q56.2813,255.9375 56.4297,255.8594 Q56.5781,255.7813 56.7813,255.7813 Q57.1094,255.7813 57.3672,256.0391 Q57.625,256.2969 57.625,256.6406 Q57.625,256.9844 57.2813,257.3906 Q56.7813,257.9688 55.9844,258.2969 Q54.9063,258.75 53.6094,258.75 Q52.0938,258.75 50.8906,258.125 Q49.9063,257.625 49.2188,256.5547 Q48.5313,255.4844 48.5313,254.2031 L48.5313,253.0469 Q48.5313,251.7188 49.1484,250.5703 Q49.7656,249.4219 50.8594,248.8047 Q51.9531,248.1875 53.1875,248.1875 Q53.9219,248.1875 54.5703,248.3516 Q55.2188,248.5156 55.7656,248.875 Z "/><text fill="#000000" font-family="sans-serif" font-size="12" lengthAdjust="spacingAndGlyphs" textLength="128" x="67" y="257.9102">MastermindStandalone</text><line style="stroke: #A80036; stroke-width: 1.5;" x1="39" x2="197" y1="269" y2="269"/><line style="stroke: #A80036; stroke-width: 1.5;" x1="39" x2="197" y1="277" y2="277"/><ellipse cx="49" cy="289.418" fill="#84BE84" rx="3" ry="3" style="stroke: #038048; stroke-width: 1.0;"/><text fill="#000000" font-family="sans-serif" font-size="11" lengthAdjust="spacingAndGlyphs" textLength="117" x="58" y="292.4189">MastermindStandalone()</text><ellipse cx="49" cy="303.2539" fill="#84BE84" rx="3" ry="3" style="stroke: #038048; stroke-width: 1.0;"/><text fill="#000000" font-family="sans-serif" font-size="11" lengthAdjust="spacingAndGlyphs" text-decoration="underline" textLength="90" x="58" y="306.2549">main(String[]): void</text><polygon fill="#FFFF44" points="49,312.0898,53,316.0898,49,320.0898,45,316.0898" style="stroke: #B38D22; stroke-width: 1.0;"/><text fill="#000000" font-family="sans-serif" font-size="11" lengthAdjust="spacingAndGlyphs" textLength="115" x="58" y="320.0908">isStandalone(): Boolean</text><!--class mastermind.controllers.Logic--><rect fill="#FEFECE" filter="url(#f2kr8a76skhn1)" height="48" id="mastermind.controllers.Logic" style="stroke: #A80036; stroke-width: 1.5;" width="62" x="254" y="258"/><ellipse cx="269" cy="274" fill="#ADD1B2" rx="11" ry="11" style="stroke: #A80036; stroke-width: 1.0;"/><path d="M271.7656,269.875 Q271.9219,269.6563 272.1094,269.5469 Q272.2969,269.4375 272.5156,269.4375 Q272.8906,269.4375 273.125,269.6953 Q273.3594,269.9531 273.3594,270.5625 L273.3594,272.0156 Q273.3594,272.625 273.125,272.8906 Q272.8906,273.1563 272.5156,273.1563 Q272.1719,273.1563 271.9688,272.9531 Q271.7656,272.7656 271.6563,272.25 Q271.6094,271.8906 271.4219,271.7031 Q271.0938,271.3281 270.4844,271.1094 Q269.875,270.8906 269.25,270.8906 Q268.4844,270.8906 267.8516,271.2188 Q267.2188,271.5469 266.7266,272.2969 Q266.2344,273.0469 266.2344,274.0781 L266.2344,275.1719 Q266.2344,276.4063 267.125,277.2266 Q268.0156,278.0469 269.6094,278.0469 Q270.5469,278.0469 271.2031,277.7969 Q271.5938,277.6406 272.0156,277.2031 Q272.2813,276.9375 272.4297,276.8594 Q272.5781,276.7813 272.7813,276.7813 Q273.1094,276.7813 273.3672,277.0391 Q273.625,277.2969 273.625,277.6406 Q273.625,277.9844 273.2813,278.3906 Q272.7813,278.9688 271.9844,279.2969 Q270.9063,279.75 269.6094,279.75 Q268.0938,279.75 266.8906,279.125 Q265.9063,278.625 265.2188,277.5547 Q264.5313,276.4844 264.5313,275.2031 L264.5313,274.0469 Q264.5313,272.7188 265.1484,271.5703 Q265.7656,270.4219 266.8594,269.8047 Q267.9531,269.1875 269.1875,269.1875 Q269.9219,269.1875 270.5703,269.3516 Q271.2188,269.5156 271.7656,269.875 Z "/><text fill="#000000" font-family="sans-serif" font-size="12" lengthAdjust="spacingAndGlyphs" textLength="30" x="283" y="278.9102">Logic</text><line style="stroke: #A80036; stroke-width: 1.5;" x1="255" x2="315" y1="290" y2="290"/><line style="stroke: #A80036; stroke-width: 1.5;" x1="255" x2="315" y1="298" y2="298"/><!--class mastermind.views.View--><rect fill="#FEFECE" filter="url(#f2kr8a76skhn1)" height="48" id="mastermind.views.View" style="stroke: #A80036; stroke-width: 1.5;" width="58" x="457" y="258"/><ellipse cx="472" cy="274" fill="#ADD1B2" rx="11" ry="11" style="stroke: #A80036; stroke-width: 1.0;"/><path d="M474.7656,269.875 Q474.9219,269.6563 475.1094,269.5469 Q475.2969,269.4375 475.5156,269.4375 Q475.8906,269.4375 476.125,269.6953 Q476.3594,269.9531 476.3594,270.5625 L476.3594,272.0156 Q476.3594,272.625 476.125,272.8906 Q475.8906,273.1563 475.5156,273.1563 Q475.1719,273.1563 474.9688,272.9531 Q474.7656,272.7656 474.6563,272.25 Q474.6094,271.8906 474.4219,271.7031 Q474.0938,271.3281 473.4844,271.1094 Q472.875,270.8906 472.25,270.8906 Q471.4844,270.8906 470.8516,271.2188 Q470.2188,271.5469 469.7266,272.2969 Q469.2344,273.0469 469.2344,274.0781 L469.2344,275.1719 Q469.2344,276.4063 470.125,277.2266 Q471.0156,278.0469 472.6094,278.0469 Q473.5469,278.0469 474.2031,277.7969 Q474.5938,277.6406 475.0156,277.2031 Q475.2813,276.9375 475.4297,276.8594 Q475.5781,276.7813 475.7813,276.7813 Q476.1094,276.7813 476.3672,277.0391 Q476.625,277.2969 476.625,277.6406 Q476.625,277.9844 476.2813,278.3906 Q475.7813,278.9688 474.9844,279.2969 Q473.9063,279.75 472.6094,279.75 Q471.0938,279.75 469.8906,279.125 Q468.9063,278.625 468.2188,277.5547 Q467.5313,276.4844 467.5313,275.2031 L467.5313,274.0469 Q467.5313,272.7188 468.1484,271.5703 Q468.7656,270.4219 469.8594,269.8047 Q470.9531,269.1875 472.1875,269.1875 Q472.9219,269.1875 473.5703,269.3516 Q474.2188,269.5156 474.7656,269.875 Z "/><text fill="#000000" font-family="sans-serif" font-size="12" lengthAdjust="spacingAndGlyphs" textLength="26" x="486" y="278.9102">View</text><line style="stroke: #A80036; stroke-width: 1.5;" x1="458" x2="514" y1="290" y2="290"/><line style="stroke: #A80036; stroke-width: 1.5;" x1="458" x2="514" y1="298" y2="298"/><!--link mastermind.Mastermind to mastermind.controllers.Logic--><path d="M192.348,186.891 C213.264,208.136 235.43,230.651 252.835,248.33 " fill="none" id="mastermind.Mastermind-mastermind.controllers.Logic" style="stroke: #A80036; stroke-width: 1.0;"/><polygon fill="#A80036" points="261.977,257.615,258.5137,248.3951,258.4693,254.0518,252.8126,254.0074,261.977,257.615" style="stroke: #A80036; stroke-width: 1.0;"/><line style="stroke: #A80036; stroke-width: 1.0;" x1="258.4693" x2="252.8565" y1="254.0518" y2="248.351"/><polygon fill="#A80036" points="182.954,177.349,184.3132,184.4308,191.3731,185.9,190.0139,178.8181,182.954,177.349" style="stroke: #A80036; stroke-width: 1.0;"/><!--link mastermind.Mastermind to mastermind.views.View--><path d="M210.329,157.331 C283.975,190.369 387.74,236.919 444.648,262.4488 " fill="none" id="mastermind.Mastermind-mastermind.views.View" style="stroke: #A80036; stroke-width: 1.0;"/><polygon fill="#A80036" points="456.722,267.8656,450.1471,260.5327,452.1599,265.8194,446.8732,267.8321,456.722,267.8656" style="stroke: #A80036; stroke-width: 1.0;"/><line style="stroke: #A80036; stroke-width: 1.0;" x1="452.1599" x2="444.861" y1="265.8194" y2="262.5445"/><polygon fill="#A80036" points="198.418,151.988,202.255,158.0935,209.3667,156.8999,205.5296,150.7944,198.418,151.988" style="stroke: #A80036; stroke-width: 1.0;"/><!--link mastermind.Mastermind to mastermind.MastermindStandalone--><path d="M122.131,197.613 C121.46,211.145 120.785,224.776 120.18,236.984 " fill="none" id="mastermind.Mastermind-mastermind.MastermindStandalone" style="stroke: #A80036; stroke-width: 1.0;"/><polygon fill="none" points="115.153,196.978,123.134,177.349,129.136,197.671,115.153,196.978" style="stroke: #A80036; stroke-width: 1.0;"/><!--
@startuml

class  mastermind.Mastermind{
- logic: Logic
- view: View
# Mastermind()
# {abstract} isStandalone(): boolean
# play(): void
}
mastermind.Mastermind *-down-> mastermind.controllers.Logic
mastermind.Mastermind *-down-> mastermind.views.View

class  mastermind.MastermindStandalone{
+ MastermindStandalone()
+ {static} main(String[]): void
# isStandalone(): Boolean
}
mastermind.Mastermind <|-down- mastermind.MastermindStandalone

@enduml

PlantUML version 1.2019.05(Sat Apr 20 18:45:36 CEST 2019)
(GPL source distribution)
Java Runtime: OpenJDK Runtime Environment
JVM: OpenJDK 64-Bit Server VM
Java Version: 1.8.0_222-b10
Operating System: Windows 10
OS Version: 10.0
Default Encoding: windows-1252
Language: es
Country: ES
--></g></svg>