<?xml version="1.0" encoding="UTF-8" standalone="no"?><svg xmlns="http://www.w3.org/2000/svg" xmlns:xlink="http://www.w3.org/1999/xlink" contentScriptType="application/ecmascript" contentStyleType="text/css" height="1109px" preserveAspectRatio="none" style="width:2373px;height:1109px;" version="1.1" viewBox="0 0 2373 1109" width="2373px" zoomAndPan="magnify"><defs><filter height="300%" id="fs5bvt3xav1dn" width="300%" x="-1" y="-1"><feGaussianBlur result="blurOut" stdDeviation="2.0"/><feColorMatrix in="blurOut" result="blurOut2" type="matrix" values="0 0 0 0 0 0 0 0 0 0 0 0 0 0 0 0 0 0 .4 0"/><feOffset dx="4.0" dy="4.0" in="blurOut2" result="blurOut3"/><feBlend in="SourceGraphic" in2="blurOut3" mode="normal"/></filter></defs><g><!--cluster mastermind.distributed--><polygon fill="#FFFFFF" filter="url(#fs5bvt3xav1dn)" points="468,148,637,148,644,171.6094,1672,171.6094,1672,1097,468,1097,468,148" style="stroke: #000000; stroke-width: 1.5;"/><line style="stroke: #000000; stroke-width: 1.5;" x1="468" x2="644" y1="171.6094" y2="171.6094"/><text fill="#000000" font-family="sans-serif" font-size="14" font-weight="bold" lengthAdjust="spacingAndGlyphs" textLength="163" x="472" y="164.5332">mastermind.distributed</text><!--cluster mastermind.controllers.implementation--><polygon fill="#FFFFFF" filter="url(#fs5bvt3xav1dn)" points="1696,359.5,1977,359.5,1984,383.1094,1987,383.1094,1987,459.5,1696,459.5,1696,359.5" style="stroke: #000000; stroke-width: 1.5;"/><line style="stroke: #000000; stroke-width: 1.5;" x1="1696" x2="1984" y1="383.1094" y2="383.1094"/><text fill="#000000" font-family="sans-serif" font-size="14" font-weight="bold" lengthAdjust="spacingAndGlyphs" textLength="275" x="1700" y="376.0332">mastermind.controllers.implementation</text><!--cluster mastermind.distributed.dispatchers--><polygon fill="#FFFFFF" filter="url(#fs5bvt3xav1dn)" points="22,879.5,278,879.5,285,903.1094,288,903.1094,288,979.5,22,979.5,22,879.5" style="stroke: #000000; stroke-width: 1.5;"/><line style="stroke: #000000; stroke-width: 1.5;" x1="22" x2="285" y1="903.1094" y2="903.1094"/><text fill="#000000" font-family="sans-serif" font-size="14" font-weight="bold" lengthAdjust="spacingAndGlyphs" textLength="250" x="26" y="896.0332">mastermind.distributed.dispatchers</text><!--cluster mastermind.controllers--><polygon fill="#FFFFFF" filter="url(#fs5bvt3xav1dn)" points="1731,182.5,1900,182.5,1907,206.1094,2286,206.1094,2286,282.5,1731,282.5,1731,182.5" style="stroke: #000000; stroke-width: 1.5;"/><line style="stroke: #000000; stroke-width: 1.5;" x1="1731" x2="1907" y1="206.1094" y2="206.1094"/><text fill="#000000" font-family="sans-serif" font-size="14" font-weight="bold" lengthAdjust="spacingAndGlyphs" textLength="163" x="1735" y="199.0332">mastermind.controllers</text><!--cluster mastermind.utils--><polygon fill="#FFFFFF" filter="url(#fs5bvt3xav1dn)" points="312,879.5,434,879.5,441,903.1094,444,903.1094,444,979.5,312,979.5,312,879.5" style="stroke: #000000; stroke-width: 1.5;"/><line style="stroke: #000000; stroke-width: 1.5;" x1="312" x2="441" y1="903.1094" y2="903.1094"/><text fill="#000000" font-family="sans-serif" font-size="14" font-weight="bold" lengthAdjust="spacingAndGlyphs" textLength="116" x="316" y="896.0332">mastermind.utils</text><!--cluster mastermind--><polygon fill="#FFFFFF" filter="url(#fs5bvt3xav1dn)" points="1170,24,1258,24,1265,47.6094,1300,47.6094,1300,124,1170,124,1170,24" style="stroke: #000000; stroke-width: 1.5;"/><line style="stroke: #000000; stroke-width: 1.5;" x1="1170" x2="1265" y1="47.6094" y2="47.6094"/><text fill="#000000" font-family="sans-serif" font-size="14" font-weight="bold" lengthAdjust="spacingAndGlyphs" textLength="82" x="1174" y="40.5332">mastermind</text><!--cluster mastermind.models--><polygon fill="#FFFFFF" filter="url(#fs5bvt3xav1dn)" points="2198,359.5,2341,359.5,2348,383.1094,2351,383.1094,2351,459.5,2198,459.5,2198,359.5" style="stroke: #000000; stroke-width: 1.5;"/><line style="stroke: #000000; stroke-width: 1.5;" x1="2198" x2="2348" y1="383.1094" y2="383.1094"/><text fill="#000000" font-family="sans-serif" font-size="14" font-weight="bold" lengthAdjust="spacingAndGlyphs" textLength="137" x="2202" y="376.0332">mastermind.models</text><!--class mastermind.distributed.FrameType--><rect fill="#FEFECE" filter="url(#fs5bvt3xav1dn)" height="283.2109" id="mastermind.distributed.FrameType" style="stroke: #A80036; stroke-width: 1.5;" width="204" x="1010" y="798"/><ellipse cx="1076.75" cy="814" fill="#ADD1B2" rx="11" ry="11" style="stroke: #A80036; stroke-width: 1.0;"/><path d="M1079.5156,809.875 Q1079.6719,809.6563 1079.8594,809.5469 Q1080.0469,809.4375 1080.2656,809.4375 Q1080.6406,809.4375 1080.875,809.6953 Q1081.1094,809.9531 1081.1094,810.5625 L1081.1094,812.0156 Q1081.1094,812.625 1080.875,812.8906 Q1080.6406,813.1563 1080.2656,813.1563 Q1079.9219,813.1563 1079.7188,812.9531 Q1079.5156,812.7656 1079.4063,812.25 Q1079.3594,811.8906 1079.1719,811.7031 Q1078.8438,811.3281 1078.2344,811.1094 Q1077.625,810.8906 1077,810.8906 Q1076.2344,810.8906 1075.6016,811.2188 Q1074.9688,811.5469 1074.4766,812.2969 Q1073.9844,813.0469 1073.9844,814.0781 L1073.9844,815.1719 Q1073.9844,816.4063 1074.875,817.2266 Q1075.7656,818.0469 1077.3594,818.0469 Q1078.2969,818.0469 1078.9531,817.7969 Q1079.3438,817.6406 1079.7656,817.2031 Q1080.0313,816.9375 1080.1797,816.8594 Q1080.3281,816.7813 1080.5313,816.7813 Q1080.8594,816.7813 1081.1172,817.0391 Q1081.375,817.2969 1081.375,817.6406 Q1081.375,817.9844 1081.0313,818.3906 Q1080.5313,818.9688 1079.7344,819.2969 Q1078.6563,819.75 1077.3594,819.75 Q1075.8438,819.75 1074.6406,819.125 Q1073.6563,818.625 1072.9688,817.5547 Q1072.2813,816.4844 1072.2813,815.2031 L1072.2813,814.0469 Q1072.2813,812.7188 1072.8984,811.5703 Q1073.5156,810.4219 1074.6094,809.8047 Q1075.7031,809.1875 1076.9375,809.1875 Q1077.6719,809.1875 1078.3203,809.3516 Q1078.9688,809.5156 1079.5156,809.875 Z "/><text fill="#000000" font-family="sans-serif" font-size="12" lengthAdjust="spacingAndGlyphs" textLength="62" x="1097.25" y="818.9102">FrameType</text><line style="stroke: #A80036; stroke-width: 1.5;" x1="1011" x2="1213" y1="830" y2="830"/><ellipse cx="1021" cy="842.418" fill="none" rx="3" ry="3" style="stroke: #038048; stroke-width: 1.0;"/><text fill="#000000" font-family="sans-serif" font-size="11" lengthAdjust="spacingAndGlyphs" text-decoration="underline" textLength="94" x="1030" y="845.4189">START: FrameType</text><ellipse cx="1021" cy="856.2539" fill="none" rx="3" ry="3" style="stroke: #038048; stroke-width: 1.0;"/><text fill="#000000" font-family="sans-serif" font-size="11" lengthAdjust="spacingAndGlyphs" text-decoration="underline" textLength="93" x="1030" y="859.2549">STATE: FrameType</text><ellipse cx="1021" cy="870.0898" fill="none" rx="3" ry="3" style="stroke: #038048; stroke-width: 1.0;"/><text fill="#000000" font-family="sans-serif" font-size="11" lengthAdjust="spacingAndGlyphs" text-decoration="underline" textLength="89" x="1030" y="873.0908">UNDO: FrameType</text><ellipse cx="1021" cy="883.9258" fill="none" rx="3" ry="3" style="stroke: #038048; stroke-width: 1.0;"/><text fill="#000000" font-family="sans-serif" font-size="11" lengthAdjust="spacingAndGlyphs" text-decoration="underline" textLength="88" x="1030" y="886.9268">REDO: FrameType</text><ellipse cx="1021" cy="897.7617" fill="none" rx="3" ry="3" style="stroke: #038048; stroke-width: 1.0;"/><text fill="#000000" font-family="sans-serif" font-size="11" lengthAdjust="spacingAndGlyphs" text-decoration="underline" textLength="116" x="1030" y="900.7627">UNDOABLE: FrameType</text><ellipse cx="1021" cy="911.5977" fill="none" rx="3" ry="3" style="stroke: #038048; stroke-width: 1.0;"/><text fill="#000000" font-family="sans-serif" font-size="11" lengthAdjust="spacingAndGlyphs" text-decoration="underline" textLength="115" x="1030" y="914.5986">REDOABLE: FrameType</text><ellipse cx="1021" cy="925.4336" fill="none" rx="3" ry="3" style="stroke: #038048; stroke-width: 1.0;"/><text fill="#000000" font-family="sans-serif" font-size="11" lengthAdjust="spacingAndGlyphs" text-decoration="underline" textLength="99" x="1030" y="928.4346">WINNER: FrameType</text><ellipse cx="1021" cy="939.2695" fill="none" rx="3" ry="3" style="stroke: #038048; stroke-width: 1.0;"/><text fill="#000000" font-family="sans-serif" font-size="11" lengthAdjust="spacingAndGlyphs" text-decoration="underline" textLength="102" x="1030" y="942.2705">LOOSER: FrameType</text><ellipse cx="1021" cy="953.1055" fill="none" rx="3" ry="3" style="stroke: #038048; stroke-width: 1.0;"/><text fill="#000000" font-family="sans-serif" font-size="11" lengthAdjust="spacingAndGlyphs" text-decoration="underline" textLength="87" x="1030" y="956.1064">TURN: FrameType</text><ellipse cx="1021" cy="966.9414" fill="none" rx="3" ry="3" style="stroke: #038048; stroke-width: 1.0;"/><text fill="#000000" font-family="sans-serif" font-size="11" lengthAdjust="spacingAndGlyphs" text-decoration="underline" textLength="115" x="1030" y="969.9424">ALLCODES: FrameType</text><ellipse cx="1021" cy="980.7773" fill="none" rx="3" ry="3" style="stroke: #038048; stroke-width: 1.0;"/><text fill="#000000" font-family="sans-serif" font-size="11" lengthAdjust="spacingAndGlyphs" text-decoration="underline" textLength="178" x="1030" y="983.7783">PROPOSECOMBINATION: FrameType</text><ellipse cx="1021" cy="994.6133" fill="none" rx="3" ry="3" style="stroke: #038048; stroke-width: 1.0;"/><text fill="#000000" font-family="sans-serif" font-size="11" lengthAdjust="spacingAndGlyphs" text-decoration="underline" textLength="92" x="1030" y="997.6143">WIDTH: FrameType</text><ellipse cx="1021" cy="1008.4492" fill="none" rx="3" ry="3" style="stroke: #038048; stroke-width: 1.0;"/><text fill="#000000" font-family="sans-serif" font-size="11" lengthAdjust="spacingAndGlyphs" text-decoration="underline" textLength="101" x="1030" y="1011.4502">RESUME: FrameType</text><ellipse cx="1021" cy="1022.2852" fill="none" rx="3" ry="3" style="stroke: #038048; stroke-width: 1.0;"/><text fill="#000000" font-family="sans-serif" font-size="11" lengthAdjust="spacingAndGlyphs" text-decoration="underline" textLength="94" x="1030" y="1025.2861">CLOSE: FrameType</text><line style="stroke: #A80036; stroke-width: 1.5;" x1="1011" x2="1213" y1="1031.7031" y2="1031.7031"/><rect fill="#F24D5C" height="6" style="stroke: #C82930; stroke-width: 1.0;" width="6" x="1018" y="1041.1211"/><text fill="#000000" font-family="sans-serif" font-size="11" lengthAdjust="spacingAndGlyphs" textLength="62" x="1030" y="1047.1221">FrameType()</text><ellipse cx="1021" cy="1057.957" fill="#84BE84" rx="3" ry="3" style="stroke: #038048; stroke-width: 1.0;"/><text fill="#000000" font-family="sans-serif" font-size="11" lengthAdjust="spacingAndGlyphs" text-decoration="underline" textLength="134" x="1030" y="1060.958">valueOf(String): FrameType</text><ellipse cx="1021" cy="1071.793" fill="#84BE84" rx="3" ry="3" style="stroke: #038048; stroke-width: 1.0;"/><text fill="#000000" font-family="sans-serif" font-size="11" lengthAdjust="spacingAndGlyphs" text-decoration="underline" textLength="128" x="1030" y="1074.7939">parser(String): FrameType</text><!--class mastermind.distributed.LogicImplementationServer--><rect fill="#FEFECE" filter="url(#fs5bvt3xav1dn)" height="75.6719" id="mastermind.distributed.LogicImplementationServer" style="stroke: #A80036; stroke-width: 1.5;" width="247" x="484.5" y="600"/><ellipse cx="528.3" cy="616" fill="#ADD1B2" rx="11" ry="11" style="stroke: #A80036; stroke-width: 1.0;"/><path d="M531.0656,611.875 Q531.2219,611.6563 531.4094,611.5469 Q531.5969,611.4375 531.8156,611.4375 Q532.1906,611.4375 532.425,611.6953 Q532.6594,611.9531 532.6594,612.5625 L532.6594,614.0156 Q532.6594,614.625 532.425,614.8906 Q532.1906,615.1563 531.8156,615.1563 Q531.4719,615.1563 531.2688,614.9531 Q531.0656,614.7656 530.9563,614.25 Q530.9094,613.8906 530.7219,613.7031 Q530.3938,613.3281 529.7844,613.1094 Q529.175,612.8906 528.55,612.8906 Q527.7844,612.8906 527.1516,613.2188 Q526.5188,613.5469 526.0266,614.2969 Q525.5344,615.0469 525.5344,616.0781 L525.5344,617.1719 Q525.5344,618.4063 526.425,619.2266 Q527.3156,620.0469 528.9094,620.0469 Q529.8469,620.0469 530.5031,619.7969 Q530.8938,619.6406 531.3156,619.2031 Q531.5813,618.9375 531.7297,618.8594 Q531.8781,618.7813 532.0813,618.7813 Q532.4094,618.7813 532.6672,619.0391 Q532.925,619.2969 532.925,619.6406 Q532.925,619.9844 532.5813,620.3906 Q532.0813,620.9688 531.2844,621.2969 Q530.2063,621.75 528.9094,621.75 Q527.3938,621.75 526.1906,621.125 Q525.2063,620.625 524.5188,619.5547 Q523.8313,618.4844 523.8313,617.2031 L523.8313,616.0469 Q523.8313,614.7188 524.4484,613.5703 Q525.0656,612.4219 526.1594,611.8047 Q527.2531,611.1875 528.4875,611.1875 Q529.2219,611.1875 529.8703,611.3516 Q530.5188,611.5156 531.0656,611.875 Z "/><text fill="#000000" font-family="sans-serif" font-size="12" lengthAdjust="spacingAndGlyphs" textLength="151" x="548.7" y="620.9102">LogicImplementationServer</text><line style="stroke: #A80036; stroke-width: 1.5;" x1="485.5" x2="730.5" y1="632" y2="632"/><line style="stroke: #A80036; stroke-width: 1.5;" x1="485.5" x2="730.5" y1="640" y2="640"/><ellipse cx="495.5" cy="652.418" fill="#84BE84" rx="3" ry="3" style="stroke: #038048; stroke-width: 1.0;"/><text fill="#000000" font-family="sans-serif" font-size="11" lengthAdjust="spacingAndGlyphs" textLength="137" x="504.5" y="655.4189">LogicImplementationServer()</text><ellipse cx="495.5" cy="666.2539" fill="#84BE84" rx="3" ry="3" style="stroke: #038048; stroke-width: 1.0;"/><text fill="#000000" font-family="sans-serif" font-size="11" lengthAdjust="spacingAndGlyphs" textLength="221" x="504.5" y="669.2549">createDispatchers(DispatcherPrototype): void</text><!--class mastermind.distributed.LogicProxy--><rect fill="#FEFECE" filter="url(#fs5bvt3xav1dn)" height="89.5078" id="mastermind.distributed.LogicProxy" style="stroke: #A80036; stroke-width: 1.5;" width="91" x="1189.5" y="374.5"/><ellipse cx="1204.5" cy="390.5" fill="#ADD1B2" rx="11" ry="11" style="stroke: #A80036; stroke-width: 1.0;"/><path d="M1207.2656,386.375 Q1207.4219,386.1563 1207.6094,386.0469 Q1207.7969,385.9375 1208.0156,385.9375 Q1208.3906,385.9375 1208.625,386.1953 Q1208.8594,386.4531 1208.8594,387.0625 L1208.8594,388.5156 Q1208.8594,389.125 1208.625,389.3906 Q1208.3906,389.6563 1208.0156,389.6563 Q1207.6719,389.6563 1207.4688,389.4531 Q1207.2656,389.2656 1207.1563,388.75 Q1207.1094,388.3906 1206.9219,388.2031 Q1206.5938,387.8281 1205.9844,387.6094 Q1205.375,387.3906 1204.75,387.3906 Q1203.9844,387.3906 1203.3516,387.7188 Q1202.7188,388.0469 1202.2266,388.7969 Q1201.7344,389.5469 1201.7344,390.5781 L1201.7344,391.6719 Q1201.7344,392.9063 1202.625,393.7266 Q1203.5156,394.5469 1205.1094,394.5469 Q1206.0469,394.5469 1206.7031,394.2969 Q1207.0938,394.1406 1207.5156,393.7031 Q1207.7813,393.4375 1207.9297,393.3594 Q1208.0781,393.2813 1208.2813,393.2813 Q1208.6094,393.2813 1208.8672,393.5391 Q1209.125,393.7969 1209.125,394.1406 Q1209.125,394.4844 1208.7813,394.8906 Q1208.2813,395.4688 1207.4844,395.7969 Q1206.4063,396.25 1205.1094,396.25 Q1203.5938,396.25 1202.3906,395.625 Q1201.4063,395.125 1200.7188,394.0547 Q1200.0313,392.9844 1200.0313,391.7031 L1200.0313,390.5469 Q1200.0313,389.2188 1200.6484,388.0703 Q1201.2656,386.9219 1202.3594,386.3047 Q1203.4531,385.6875 1204.6875,385.6875 Q1205.4219,385.6875 1206.0703,385.8516 Q1206.7188,386.0156 1207.2656,386.375 Z "/><text fill="#000000" font-family="sans-serif" font-size="12" lengthAdjust="spacingAndGlyphs" textLength="59" x="1218.5" y="395.4102">LogicProxy</text><line style="stroke: #A80036; stroke-width: 1.5;" x1="1190.5" x2="1279.5" y1="406.5" y2="406.5"/><rect fill="none" height="6" style="stroke: #C82930; stroke-width: 1.0;" width="6" x="1197.5" y="415.918"/><text fill="#000000" font-family="sans-serif" font-size="11" lengthAdjust="spacingAndGlyphs" textLength="56" x="1209.5" y="421.9189">tcpip: TCPIP</text><line style="stroke: #A80036; stroke-width: 1.5;" x1="1190.5" x2="1279.5" y1="428.3359" y2="428.3359"/><ellipse cx="1200.5" cy="440.7539" fill="#84BE84" rx="3" ry="3" style="stroke: #038048; stroke-width: 1.0;"/><text fill="#000000" font-family="sans-serif" font-size="11" lengthAdjust="spacingAndGlyphs" textLength="62" x="1209.5" y="443.7549">LogicProxy()</text><ellipse cx="1200.5" cy="454.5898" fill="#84BE84" rx="3" ry="3" style="stroke: #038048; stroke-width: 1.0;"/><text fill="#000000" font-family="sans-serif" font-size="11" lengthAdjust="spacingAndGlyphs" textLength="60" x="1209.5" y="457.5908">close(): void</text><!--class mastermind.distributed.SessionProxy--><rect fill="#FEFECE" filter="url(#fs5bvt3xav1dn)" height="103.3438" id="mastermind.distributed.SessionProxy" style="stroke: #A80036; stroke-width: 1.5;" width="161" x="1494.5" y="586.5"/><ellipse cx="1533.8" cy="602.5" fill="#ADD1B2" rx="11" ry="11" style="stroke: #A80036; stroke-width: 1.0;"/><path d="M1536.5656,598.375 Q1536.7219,598.1563 1536.9094,598.0469 Q1537.0969,597.9375 1537.3156,597.9375 Q1537.6906,597.9375 1537.925,598.1953 Q1538.1594,598.4531 1538.1594,599.0625 L1538.1594,600.5156 Q1538.1594,601.125 1537.925,601.3906 Q1537.6906,601.6563 1537.3156,601.6563 Q1536.9719,601.6563 1536.7688,601.4531 Q1536.5656,601.2656 1536.4563,600.75 Q1536.4094,600.3906 1536.2219,600.2031 Q1535.8938,599.8281 1535.2844,599.6094 Q1534.675,599.3906 1534.05,599.3906 Q1533.2844,599.3906 1532.6516,599.7188 Q1532.0188,600.0469 1531.5266,600.7969 Q1531.0344,601.5469 1531.0344,602.5781 L1531.0344,603.6719 Q1531.0344,604.9063 1531.925,605.7266 Q1532.8156,606.5469 1534.4094,606.5469 Q1535.3469,606.5469 1536.0031,606.2969 Q1536.3938,606.1406 1536.8156,605.7031 Q1537.0813,605.4375 1537.2297,605.3594 Q1537.3781,605.2813 1537.5813,605.2813 Q1537.9094,605.2813 1538.1672,605.5391 Q1538.425,605.7969 1538.425,606.1406 Q1538.425,606.4844 1538.0813,606.8906 Q1537.5813,607.4688 1536.7844,607.7969 Q1535.7063,608.25 1534.4094,608.25 Q1532.8938,608.25 1531.6906,607.625 Q1530.7063,607.125 1530.0188,606.0547 Q1529.3313,604.9844 1529.3313,603.7031 L1529.3313,602.5469 Q1529.3313,601.2188 1529.9484,600.0703 Q1530.5656,598.9219 1531.6594,598.3047 Q1532.7531,597.6875 1533.9875,597.6875 Q1534.7219,597.6875 1535.3703,597.8516 Q1536.0188,598.0156 1536.5656,598.375 Z "/><text fill="#000000" font-family="sans-serif" font-size="12" lengthAdjust="spacingAndGlyphs" textLength="75" x="1553.2" y="607.4102">SessionProxy</text><line style="stroke: #A80036; stroke-width: 1.5;" x1="1495.5" x2="1654.5" y1="618.5" y2="618.5"/><rect fill="none" height="6" style="stroke: #C82930; stroke-width: 1.0;" width="6" x="1502.5" y="627.918"/><text fill="#000000" font-family="sans-serif" font-size="11" lengthAdjust="spacingAndGlyphs" textLength="56" x="1514.5" y="633.9189">tcpip: TCPIP</text><line style="stroke: #A80036; stroke-width: 1.5;" x1="1495.5" x2="1654.5" y1="640.3359" y2="640.3359"/><ellipse cx="1505.5" cy="652.7539" fill="#84BE84" rx="3" ry="3" style="stroke: #038048; stroke-width: 1.0;"/><text fill="#000000" font-family="sans-serif" font-size="11" lengthAdjust="spacingAndGlyphs" textLength="102" x="1514.5" y="655.7549">SessionProxy(TCPIP)</text><ellipse cx="1505.5" cy="666.5898" fill="#84BE84" rx="3" ry="3" style="stroke: #038048; stroke-width: 1.0;"/><text fill="#000000" font-family="sans-serif" font-size="11" lengthAdjust="spacingAndGlyphs" textLength="135" x="1514.5" y="669.5908">getValueState(): StateValue</text><ellipse cx="1505.5" cy="680.4258" fill="#84BE84" rx="3" ry="3" style="stroke: #038048; stroke-width: 1.0;"/><text fill="#000000" font-family="sans-serif" font-size="11" lengthAdjust="spacingAndGlyphs" textLength="67" x="1514.5" y="683.4268">getWidth(): int</text><!--class mastermind.distributed.ResumeControllerProxy--><rect fill="#FEFECE" filter="url(#fs5bvt3xav1dn)" height="89.5078" id="mastermind.distributed.ResumeControllerProxy" style="stroke: #A80036; stroke-width: 1.5;" width="219" x="1002.5" y="593"/><ellipse cx="1042.7" cy="609" fill="#ADD1B2" rx="11" ry="11" style="stroke: #A80036; stroke-width: 1.0;"/><path d="M1045.4656,604.875 Q1045.6219,604.6563 1045.8094,604.5469 Q1045.9969,604.4375 1046.2156,604.4375 Q1046.5906,604.4375 1046.825,604.6953 Q1047.0594,604.9531 1047.0594,605.5625 L1047.0594,607.0156 Q1047.0594,607.625 1046.825,607.8906 Q1046.5906,608.1563 1046.2156,608.1563 Q1045.8719,608.1563 1045.6688,607.9531 Q1045.4656,607.7656 1045.3563,607.25 Q1045.3094,606.8906 1045.1219,606.7031 Q1044.7938,606.3281 1044.1844,606.1094 Q1043.575,605.8906 1042.95,605.8906 Q1042.1844,605.8906 1041.5516,606.2188 Q1040.9188,606.5469 1040.4266,607.2969 Q1039.9344,608.0469 1039.9344,609.0781 L1039.9344,610.1719 Q1039.9344,611.4063 1040.825,612.2266 Q1041.7156,613.0469 1043.3094,613.0469 Q1044.2469,613.0469 1044.9031,612.7969 Q1045.2938,612.6406 1045.7156,612.2031 Q1045.9813,611.9375 1046.1297,611.8594 Q1046.2781,611.7813 1046.4813,611.7813 Q1046.8094,611.7813 1047.0672,612.0391 Q1047.325,612.2969 1047.325,612.6406 Q1047.325,612.9844 1046.9813,613.3906 Q1046.4813,613.9688 1045.6844,614.2969 Q1044.6063,614.75 1043.3094,614.75 Q1041.7938,614.75 1040.5906,614.125 Q1039.6063,613.625 1038.9188,612.5547 Q1038.2313,611.4844 1038.2313,610.2031 L1038.2313,609.0469 Q1038.2313,607.7188 1038.8484,606.5703 Q1039.4656,605.4219 1040.5594,604.8047 Q1041.6531,604.1875 1042.8875,604.1875 Q1043.6219,604.1875 1044.2703,604.3516 Q1044.9188,604.5156 1045.4656,604.875 Z "/><text fill="#000000" font-family="sans-serif" font-size="12" lengthAdjust="spacingAndGlyphs" textLength="131" x="1062.3" y="613.9102">ResumeControllerProxy</text><line style="stroke: #A80036; stroke-width: 1.5;" x1="1003.5" x2="1220.5" y1="625" y2="625"/><rect fill="none" height="6" style="stroke: #C82930; stroke-width: 1.0;" width="6" x="1010.5" y="634.418"/><text fill="#000000" font-family="sans-serif" font-size="11" lengthAdjust="spacingAndGlyphs" textLength="56" x="1022.5" y="640.4189">tcpip: TCPIP</text><line style="stroke: #A80036; stroke-width: 1.5;" x1="1003.5" x2="1220.5" y1="646.8359" y2="646.8359"/><ellipse cx="1013.5" cy="659.2539" fill="#84BE84" rx="3" ry="3" style="stroke: #038048; stroke-width: 1.0;"/><text fill="#000000" font-family="sans-serif" font-size="11" lengthAdjust="spacingAndGlyphs" textLength="193" x="1022.5" y="662.2549">ResumeControllerProxy(Session, TCPIP)</text><ellipse cx="1013.5" cy="673.0898" fill="#84BE84" rx="3" ry="3" style="stroke: #038048; stroke-width: 1.0;"/><text fill="#000000" font-family="sans-serif" font-size="11" lengthAdjust="spacingAndGlyphs" textLength="108" x="1022.5" y="676.0908">resume(boolean): void</text><!--class mastermind.distributed.StartControllerProxy--><rect fill="#FEFECE" filter="url(#fs5bvt3xav1dn)" height="89.5078" id="mastermind.distributed.StartControllerProxy" style="stroke: #A80036; stroke-width: 1.5;" width="203" x="1256.5" y="593"/><ellipse cx="1299.85" cy="609" fill="#ADD1B2" rx="11" ry="11" style="stroke: #A80036; stroke-width: 1.0;"/><path d="M1302.6156,604.875 Q1302.7719,604.6563 1302.9594,604.5469 Q1303.1469,604.4375 1303.3656,604.4375 Q1303.7406,604.4375 1303.975,604.6953 Q1304.2094,604.9531 1304.2094,605.5625 L1304.2094,607.0156 Q1304.2094,607.625 1303.975,607.8906 Q1303.7406,608.1563 1303.3656,608.1563 Q1303.0219,608.1563 1302.8188,607.9531 Q1302.6156,607.7656 1302.5063,607.25 Q1302.4594,606.8906 1302.2719,606.7031 Q1301.9438,606.3281 1301.3344,606.1094 Q1300.725,605.8906 1300.1,605.8906 Q1299.3344,605.8906 1298.7016,606.2188 Q1298.0688,606.5469 1297.5766,607.2969 Q1297.0844,608.0469 1297.0844,609.0781 L1297.0844,610.1719 Q1297.0844,611.4063 1297.975,612.2266 Q1298.8656,613.0469 1300.4594,613.0469 Q1301.3969,613.0469 1302.0531,612.7969 Q1302.4438,612.6406 1302.8656,612.2031 Q1303.1313,611.9375 1303.2797,611.8594 Q1303.4281,611.7813 1303.6313,611.7813 Q1303.9594,611.7813 1304.2172,612.0391 Q1304.475,612.2969 1304.475,612.6406 Q1304.475,612.9844 1304.1313,613.3906 Q1303.6313,613.9688 1302.8344,614.2969 Q1301.7563,614.75 1300.4594,614.75 Q1298.9438,614.75 1297.7406,614.125 Q1296.7563,613.625 1296.0688,612.5547 Q1295.3813,611.4844 1295.3813,610.2031 L1295.3813,609.0469 Q1295.3813,607.7188 1295.9984,606.5703 Q1296.6156,605.4219 1297.7094,604.8047 Q1298.8031,604.1875 1300.0375,604.1875 Q1300.7719,604.1875 1301.4203,604.3516 Q1302.0688,604.5156 1302.6156,604.875 Z "/><text fill="#000000" font-family="sans-serif" font-size="12" lengthAdjust="spacingAndGlyphs" textLength="108" x="1320.15" y="613.9102">StartControllerProxy</text><line style="stroke: #A80036; stroke-width: 1.5;" x1="1257.5" x2="1458.5" y1="625" y2="625"/><rect fill="none" height="6" style="stroke: #C82930; stroke-width: 1.0;" width="6" x="1264.5" y="634.418"/><text fill="#000000" font-family="sans-serif" font-size="11" lengthAdjust="spacingAndGlyphs" textLength="56" x="1276.5" y="640.4189">tcpip: TCPIP</text><line style="stroke: #A80036; stroke-width: 1.5;" x1="1257.5" x2="1458.5" y1="646.8359" y2="646.8359"/><ellipse cx="1267.5" cy="659.2539" fill="#84BE84" rx="3" ry="3" style="stroke: #038048; stroke-width: 1.0;"/><text fill="#000000" font-family="sans-serif" font-size="11" lengthAdjust="spacingAndGlyphs" textLength="177" x="1276.5" y="662.2549">StartControllerProxy(TCPIP, Session)</text><ellipse cx="1267.5" cy="673.0898" fill="#84BE84" rx="3" ry="3" style="stroke: #038048; stroke-width: 1.0;"/><text fill="#000000" font-family="sans-serif" font-size="11" lengthAdjust="spacingAndGlyphs" textLength="56" x="1276.5" y="676.0908">start(): void</text><!--class mastermind.distributed.PlayControllerProxy--><rect fill="#FEFECE" filter="url(#fs5bvt3xav1dn)" height="200.1953" id="mastermind.distributed.PlayControllerProxy" style="stroke: #A80036; stroke-width: 1.5;" width="200" x="767" y="538"/><ellipse cx="809.9" cy="554" fill="#ADD1B2" rx="11" ry="11" style="stroke: #A80036; stroke-width: 1.0;"/><path d="M812.6656,549.875 Q812.8219,549.6563 813.0094,549.5469 Q813.1969,549.4375 813.4156,549.4375 Q813.7906,549.4375 814.025,549.6953 Q814.2594,549.9531 814.2594,550.5625 L814.2594,552.0156 Q814.2594,552.625 814.025,552.8906 Q813.7906,553.1563 813.4156,553.1563 Q813.0719,553.1563 812.8688,552.9531 Q812.6656,552.7656 812.5563,552.25 Q812.5094,551.8906 812.3219,551.7031 Q811.9938,551.3281 811.3844,551.1094 Q810.775,550.8906 810.15,550.8906 Q809.3844,550.8906 808.7516,551.2188 Q808.1188,551.5469 807.6266,552.2969 Q807.1344,553.0469 807.1344,554.0781 L807.1344,555.1719 Q807.1344,556.4063 808.025,557.2266 Q808.9156,558.0469 810.5094,558.0469 Q811.4469,558.0469 812.1031,557.7969 Q812.4938,557.6406 812.9156,557.2031 Q813.1813,556.9375 813.3297,556.8594 Q813.4781,556.7813 813.6813,556.7813 Q814.0094,556.7813 814.2672,557.0391 Q814.525,557.2969 814.525,557.6406 Q814.525,557.9844 814.1813,558.3906 Q813.6813,558.9688 812.8844,559.2969 Q811.8063,559.75 810.5094,559.75 Q808.9938,559.75 807.7906,559.125 Q806.8063,558.625 806.1188,557.5547 Q805.4313,556.4844 805.4313,555.2031 L805.4313,554.0469 Q805.4313,552.7188 806.0484,551.5703 Q806.6656,550.4219 807.7594,549.8047 Q808.8531,549.1875 810.0875,549.1875 Q810.8219,549.1875 811.4703,549.3516 Q812.1188,549.5156 812.6656,549.875 Z "/><text fill="#000000" font-family="sans-serif" font-size="12" lengthAdjust="spacingAndGlyphs" textLength="106" x="830.1" y="558.9102">PlayControllerProxy</text><line style="stroke: #A80036; stroke-width: 1.5;" x1="768" x2="966" y1="570" y2="570"/><rect fill="none" height="6" style="stroke: #C82930; stroke-width: 1.0;" width="6" x="775" y="579.418"/><text fill="#000000" font-family="sans-serif" font-size="11" lengthAdjust="spacingAndGlyphs" textLength="56" x="787" y="585.4189">tcpip: TCPIP</text><line style="stroke: #A80036; stroke-width: 1.5;" x1="768" x2="966" y1="591.8359" y2="591.8359"/><polygon fill="#4177AF" points="778,600.2539,774,606.2539,782,606.2539" style="stroke: #1963A0; stroke-width: 1.0;"/><text fill="#000000" font-family="sans-serif" font-size="11" lengthAdjust="spacingAndGlyphs" textLength="174" x="787" y="607.2549">PlayControllerProxy(TCPIP, Session)</text><ellipse cx="778" cy="618.0898" fill="#84BE84" rx="3" ry="3" style="stroke: #038048; stroke-width: 1.0;"/><text fill="#000000" font-family="sans-serif" font-size="11" lengthAdjust="spacingAndGlyphs" textLength="94" x="787" y="621.0908">redoable(): boolean</text><ellipse cx="778" cy="631.9258" fill="#84BE84" rx="3" ry="3" style="stroke: #038048; stroke-width: 1.0;"/><text fill="#000000" font-family="sans-serif" font-size="11" lengthAdjust="spacingAndGlyphs" textLength="94" x="787" y="634.9268">isLooser(): boolean</text><ellipse cx="778" cy="645.7617" fill="#84BE84" rx="3" ry="3" style="stroke: #038048; stroke-width: 1.0;"/><text fill="#000000" font-family="sans-serif" font-size="11" lengthAdjust="spacingAndGlyphs" textLength="94" x="787" y="648.7627">isWinner(): boolean</text><ellipse cx="778" cy="659.5977" fill="#84BE84" rx="3" ry="3" style="stroke: #038048; stroke-width: 1.0;"/><text fill="#000000" font-family="sans-serif" font-size="11" lengthAdjust="spacingAndGlyphs" textLength="58" x="787" y="662.5986">undo(): void</text><ellipse cx="778" cy="673.4336" fill="#84BE84" rx="3" ry="3" style="stroke: #038048; stroke-width: 1.0;"/><text fill="#000000" font-family="sans-serif" font-size="11" lengthAdjust="spacingAndGlyphs" textLength="56" x="787" y="676.4346">redo(): void</text><ellipse cx="778" cy="687.2695" fill="#84BE84" rx="3" ry="3" style="stroke: #038048; stroke-width: 1.0;"/><text fill="#000000" font-family="sans-serif" font-size="11" lengthAdjust="spacingAndGlyphs" textLength="62" x="787" y="690.2705">getTurn(): int</text><ellipse cx="778" cy="701.1055" fill="#84BE84" rx="3" ry="3" style="stroke: #038048; stroke-width: 1.0;"/><text fill="#000000" font-family="sans-serif" font-size="11" lengthAdjust="spacingAndGlyphs" textLength="101" x="787" y="704.1064">getAllCodes(): int[][][]</text><ellipse cx="778" cy="714.9414" fill="#84BE84" rx="3" ry="3" style="stroke: #038048; stroke-width: 1.0;"/><text fill="#000000" font-family="sans-serif" font-size="11" lengthAdjust="spacingAndGlyphs" textLength="96" x="787" y="717.9424">undoable(): boolean</text><ellipse cx="778" cy="728.7773" fill="#84BE84" rx="3" ry="3" style="stroke: #038048; stroke-width: 1.0;"/><text fill="#000000" font-family="sans-serif" font-size="11" lengthAdjust="spacingAndGlyphs" textLength="140" x="787" y="731.7783">proposeCombination(int[]): int</text><!--class mastermind.distributed.MastermindClient--><rect fill="#FEFECE" filter="url(#fs5bvt3xav1dn)" height="117.1797" id="mastermind.distributed.MastermindClient" style="stroke: #A80036; stroke-width: 1.5;" width="136" x="1167" y="184"/><ellipse cx="1185.15" cy="200" fill="#ADD1B2" rx="11" ry="11" style="stroke: #A80036; stroke-width: 1.0;"/><path d="M1187.9156,195.875 Q1188.0719,195.6563 1188.2594,195.5469 Q1188.4469,195.4375 1188.6656,195.4375 Q1189.0406,195.4375 1189.275,195.6953 Q1189.5094,195.9531 1189.5094,196.5625 L1189.5094,198.0156 Q1189.5094,198.625 1189.275,198.8906 Q1189.0406,199.1563 1188.6656,199.1563 Q1188.3219,199.1563 1188.1188,198.9531 Q1187.9156,198.7656 1187.8063,198.25 Q1187.7594,197.8906 1187.5719,197.7031 Q1187.2438,197.3281 1186.6344,197.1094 Q1186.025,196.8906 1185.4,196.8906 Q1184.6344,196.8906 1184.0016,197.2188 Q1183.3688,197.5469 1182.8766,198.2969 Q1182.3844,199.0469 1182.3844,200.0781 L1182.3844,201.1719 Q1182.3844,202.4063 1183.275,203.2266 Q1184.1656,204.0469 1185.7594,204.0469 Q1186.6969,204.0469 1187.3531,203.7969 Q1187.7438,203.6406 1188.1656,203.2031 Q1188.4313,202.9375 1188.5797,202.8594 Q1188.7281,202.7813 1188.9313,202.7813 Q1189.2594,202.7813 1189.5172,203.0391 Q1189.775,203.2969 1189.775,203.6406 Q1189.775,203.9844 1189.4313,204.3906 Q1188.9313,204.9688 1188.1344,205.2969 Q1187.0563,205.75 1185.7594,205.75 Q1184.2438,205.75 1183.0406,205.125 Q1182.0563,204.625 1181.3688,203.5547 Q1180.6813,202.4844 1180.6813,201.2031 L1180.6813,200.0469 Q1180.6813,198.7188 1181.2984,197.5703 Q1181.9156,196.4219 1183.0094,195.8047 Q1184.1031,195.1875 1185.3375,195.1875 Q1186.0719,195.1875 1186.7203,195.3516 Q1187.3688,195.5156 1187.9156,195.875 Z "/><text fill="#000000" font-family="sans-serif" font-size="12" lengthAdjust="spacingAndGlyphs" textLength="97" x="1199.85" y="204.9102">MastermindClient</text><line style="stroke: #A80036; stroke-width: 1.5;" x1="1168" x2="1302" y1="216" y2="216"/><rect fill="none" height="6" style="stroke: #C82930; stroke-width: 1.0;" width="6" x="1175" y="225.418"/><text fill="#000000" font-family="sans-serif" font-size="11" lengthAdjust="spacingAndGlyphs" textLength="110" x="1187" y="231.4189">logicProxy: LogicProxy</text><line style="stroke: #A80036; stroke-width: 1.5;" x1="1168" x2="1302" y1="237.8359" y2="237.8359"/><ellipse cx="1178" cy="250.2539" fill="#84BE84" rx="3" ry="3" style="stroke: #038048; stroke-width: 1.0;"/><text fill="#000000" font-family="sans-serif" font-size="11" lengthAdjust="spacingAndGlyphs" textLength="89" x="1187" y="253.2549">MastermindClient()</text><ellipse cx="1178" cy="264.0898" fill="#84BE84" rx="3" ry="3" style="stroke: #038048; stroke-width: 1.0;"/><text fill="#000000" font-family="sans-serif" font-size="11" lengthAdjust="spacingAndGlyphs" text-decoration="underline" textLength="90" x="1187" y="267.0908">main(String[]): void</text><polygon fill="#FFFF44" points="1178,272.9258,1182,276.9258,1178,280.9258,1174,276.9258" style="stroke: #B38D22; stroke-width: 1.0;"/><text fill="#000000" font-family="sans-serif" font-size="11" lengthAdjust="spacingAndGlyphs" textLength="97" x="1187" y="280.9268">createLogic(): Logic</text><polygon fill="#FFFF44" points="1178,286.7617,1182,290.7617,1178,294.7617,1174,290.7617" style="stroke: #B38D22; stroke-width: 1.0;"/><text fill="#000000" font-family="sans-serif" font-size="11" lengthAdjust="spacingAndGlyphs" textLength="54" x="1187" y="294.7627">play(): void</text><!--class mastermind.distributed.MastermindServer--><rect fill="#FEFECE" filter="url(#fs5bvt3xav1dn)" height="117.1797" id="mastermind.distributed.MastermindServer" style="stroke: #A80036; stroke-width: 1.5;" width="227" x="489.5" y="361"/><ellipse cx="548.75" cy="377" fill="#ADD1B2" rx="11" ry="11" style="stroke: #A80036; stroke-width: 1.0;"/><path d="M551.5156,372.875 Q551.6719,372.6563 551.8594,372.5469 Q552.0469,372.4375 552.2656,372.4375 Q552.6406,372.4375 552.875,372.6953 Q553.1094,372.9531 553.1094,373.5625 L553.1094,375.0156 Q553.1094,375.625 552.875,375.8906 Q552.6406,376.1563 552.2656,376.1563 Q551.9219,376.1563 551.7188,375.9531 Q551.5156,375.7656 551.4063,375.25 Q551.3594,374.8906 551.1719,374.7031 Q550.8438,374.3281 550.2344,374.1094 Q549.625,373.8906 549,373.8906 Q548.2344,373.8906 547.6016,374.2188 Q546.9688,374.5469 546.4766,375.2969 Q545.9844,376.0469 545.9844,377.0781 L545.9844,378.1719 Q545.9844,379.4063 546.875,380.2266 Q547.7656,381.0469 549.3594,381.0469 Q550.2969,381.0469 550.9531,380.7969 Q551.3438,380.6406 551.7656,380.2031 Q552.0313,379.9375 552.1797,379.8594 Q552.3281,379.7813 552.5313,379.7813 Q552.8594,379.7813 553.1172,380.0391 Q553.375,380.2969 553.375,380.6406 Q553.375,380.9844 553.0313,381.3906 Q552.5313,381.9688 551.7344,382.2969 Q550.6563,382.75 549.3594,382.75 Q547.8438,382.75 546.6406,382.125 Q545.6563,381.625 544.9688,380.5547 Q544.2813,379.4844 544.2813,378.2031 L544.2813,377.0469 Q544.2813,375.7188 544.8984,374.5703 Q545.5156,373.4219 546.6094,372.8047 Q547.7031,372.1875 548.9375,372.1875 Q549.6719,372.1875 550.3203,372.3516 Q550.9688,372.5156 551.5156,372.875 Z "/><text fill="#000000" font-family="sans-serif" font-size="12" lengthAdjust="spacingAndGlyphs" textLength="100" x="569.25" y="381.9102">MastermindServer</text><line style="stroke: #A80036; stroke-width: 1.5;" x1="490.5" x2="715.5" y1="393" y2="393"/><rect fill="none" height="6" style="stroke: #C82930; stroke-width: 1.0;" width="6" x="497.5" y="402.418"/><text fill="#000000" font-family="sans-serif" font-size="11" lengthAdjust="spacingAndGlyphs" textLength="201" x="509.5" y="408.4189">dispatcherPrototype: DispatcherPrototype</text><rect fill="none" height="6" style="stroke: #C82930; stroke-width: 1.0;" width="6" x="497.5" y="416.2539"/><text fill="#000000" font-family="sans-serif" font-size="11" lengthAdjust="spacingAndGlyphs" textLength="157" x="509.5" y="422.2549">logic: LogicImplementationServer</text><line style="stroke: #A80036; stroke-width: 1.5;" x1="490.5" x2="715.5" y1="428.6719" y2="428.6719"/><rect fill="#F24D5C" height="6" style="stroke: #C82930; stroke-width: 1.0;" width="6" x="497.5" y="438.0898"/><text fill="#000000" font-family="sans-serif" font-size="11" lengthAdjust="spacingAndGlyphs" textLength="96" x="509.5" y="444.0908">MastermindServer()</text><ellipse cx="500.5" cy="454.9258" fill="#84BE84" rx="3" ry="3" style="stroke: #038048; stroke-width: 1.0;"/><text fill="#000000" font-family="sans-serif" font-size="11" lengthAdjust="spacingAndGlyphs" text-decoration="underline" textLength="90" x="509.5" y="457.9268">main(String[]): void</text><rect fill="#F24D5C" height="6" style="stroke: #C82930; stroke-width: 1.0;" width="6" x="497.5" y="465.7617"/><text fill="#000000" font-family="sans-serif" font-size="11" lengthAdjust="spacingAndGlyphs" textLength="62" x="509.5" y="471.7627">serve(): void</text><!--class mastermind.controllers.implementation.LogicImplementation--><rect fill="#FEFECE" filter="url(#fs5bvt3xav1dn)" height="48" id="mastermind.controllers.implementation.LogicImplementation" style="stroke: #A80036; stroke-width: 1.5;" width="148" x="1712" y="395.5"/><ellipse cx="1727" cy="411.5" fill="#ADD1B2" rx="11" ry="11" style="stroke: #A80036; stroke-width: 1.0;"/><path d="M1729.7656,407.375 Q1729.9219,407.1563 1730.1094,407.0469 Q1730.2969,406.9375 1730.5156,406.9375 Q1730.8906,406.9375 1731.125,407.1953 Q1731.3594,407.4531 1731.3594,408.0625 L1731.3594,409.5156 Q1731.3594,410.125 1731.125,410.3906 Q1730.8906,410.6563 1730.5156,410.6563 Q1730.1719,410.6563 1729.9688,410.4531 Q1729.7656,410.2656 1729.6563,409.75 Q1729.6094,409.3906 1729.4219,409.2031 Q1729.0938,408.8281 1728.4844,408.6094 Q1727.875,408.3906 1727.25,408.3906 Q1726.4844,408.3906 1725.8516,408.7188 Q1725.2188,409.0469 1724.7266,409.7969 Q1724.2344,410.5469 1724.2344,411.5781 L1724.2344,412.6719 Q1724.2344,413.9063 1725.125,414.7266 Q1726.0156,415.5469 1727.6094,415.5469 Q1728.5469,415.5469 1729.2031,415.2969 Q1729.5938,415.1406 1730.0156,414.7031 Q1730.2813,414.4375 1730.4297,414.3594 Q1730.5781,414.2813 1730.7813,414.2813 Q1731.1094,414.2813 1731.3672,414.5391 Q1731.625,414.7969 1731.625,415.1406 Q1731.625,415.4844 1731.2813,415.8906 Q1730.7813,416.4688 1729.9844,416.7969 Q1728.9063,417.25 1727.6094,417.25 Q1726.0938,417.25 1724.8906,416.625 Q1723.9063,416.125 1723.2188,415.0547 Q1722.5313,413.9844 1722.5313,412.7031 L1722.5313,411.5469 Q1722.5313,410.2188 1723.1484,409.0703 Q1723.7656,407.9219 1724.8594,407.3047 Q1725.9531,406.6875 1727.1875,406.6875 Q1727.9219,406.6875 1728.5703,406.8516 Q1729.2188,407.0156 1729.7656,407.375 Z "/><text fill="#000000" font-family="sans-serif" font-size="12" lengthAdjust="spacingAndGlyphs" textLength="116" x="1741" y="416.4102">LogicImplementation</text><line style="stroke: #A80036; stroke-width: 1.5;" x1="1713" x2="1859" y1="427.5" y2="427.5"/><line style="stroke: #A80036; stroke-width: 1.5;" x1="1713" x2="1859" y1="435.5" y2="435.5"/><!--class mastermind.distributed.dispatchers.DispatcherPrototype--><rect fill="#FEFECE" filter="url(#fs5bvt3xav1dn)" height="48" id="mastermind.distributed.dispatchers.DispatcherPrototype" style="stroke: #A80036; stroke-width: 1.5;" width="143" x="128.5" y="915.5"/><ellipse cx="143.5" cy="931.5" fill="#ADD1B2" rx="11" ry="11" style="stroke: #A80036; stroke-width: 1.0;"/><path d="M146.2656,927.375 Q146.4219,927.1563 146.6094,927.0469 Q146.7969,926.9375 147.0156,926.9375 Q147.3906,926.9375 147.625,927.1953 Q147.8594,927.4531 147.8594,928.0625 L147.8594,929.5156 Q147.8594,930.125 147.625,930.3906 Q147.3906,930.6563 147.0156,930.6563 Q146.6719,930.6563 146.4688,930.4531 Q146.2656,930.2656 146.1563,929.75 Q146.1094,929.3906 145.9219,929.2031 Q145.5938,928.8281 144.9844,928.6094 Q144.375,928.3906 143.75,928.3906 Q142.9844,928.3906 142.3516,928.7188 Q141.7188,929.0469 141.2266,929.7969 Q140.7344,930.5469 140.7344,931.5781 L140.7344,932.6719 Q140.7344,933.9063 141.625,934.7266 Q142.5156,935.5469 144.1094,935.5469 Q145.0469,935.5469 145.7031,935.2969 Q146.0938,935.1406 146.5156,934.7031 Q146.7813,934.4375 146.9297,934.3594 Q147.0781,934.2813 147.2813,934.2813 Q147.6094,934.2813 147.8672,934.5391 Q148.125,934.7969 148.125,935.1406 Q148.125,935.4844 147.7813,935.8906 Q147.2813,936.4688 146.4844,936.7969 Q145.4063,937.25 144.1094,937.25 Q142.5938,937.25 141.3906,936.625 Q140.4063,936.125 139.7188,935.0547 Q139.0313,933.9844 139.0313,932.7031 L139.0313,931.5469 Q139.0313,930.2188 139.6484,929.0703 Q140.2656,927.9219 141.3594,927.3047 Q142.4531,926.6875 143.6875,926.6875 Q144.4219,926.6875 145.0703,926.8516 Q145.7188,927.0156 146.2656,927.375 Z "/><text fill="#000000" font-family="sans-serif" font-size="12" lengthAdjust="spacingAndGlyphs" textLength="111" x="157.5" y="936.4102">DispatcherPrototype</text><line style="stroke: #A80036; stroke-width: 1.5;" x1="129.5" x2="270.5" y1="947.5" y2="947.5"/><line style="stroke: #A80036; stroke-width: 1.5;" x1="129.5" x2="270.5" y1="955.5" y2="955.5"/><!--class mastermind.controllers.Logic--><rect fill="#FEFECE" filter="url(#fs5bvt3xav1dn)" height="48" id="mastermind.controllers.Logic" style="stroke: #A80036; stroke-width: 1.5;" width="62" x="1747" y="218.5"/><ellipse cx="1762" cy="234.5" fill="#ADD1B2" rx="11" ry="11" style="stroke: #A80036; stroke-width: 1.0;"/><path d="M1764.7656,230.375 Q1764.9219,230.1563 1765.1094,230.0469 Q1765.2969,229.9375 1765.5156,229.9375 Q1765.8906,229.9375 1766.125,230.1953 Q1766.3594,230.4531 1766.3594,231.0625 L1766.3594,232.5156 Q1766.3594,233.125 1766.125,233.3906 Q1765.8906,233.6563 1765.5156,233.6563 Q1765.1719,233.6563 1764.9688,233.4531 Q1764.7656,233.2656 1764.6563,232.75 Q1764.6094,232.3906 1764.4219,232.2031 Q1764.0938,231.8281 1763.4844,231.6094 Q1762.875,231.3906 1762.25,231.3906 Q1761.4844,231.3906 1760.8516,231.7188 Q1760.2188,232.0469 1759.7266,232.7969 Q1759.2344,233.5469 1759.2344,234.5781 L1759.2344,235.6719 Q1759.2344,236.9063 1760.125,237.7266 Q1761.0156,238.5469 1762.6094,238.5469 Q1763.5469,238.5469 1764.2031,238.2969 Q1764.5938,238.1406 1765.0156,237.7031 Q1765.2813,237.4375 1765.4297,237.3594 Q1765.5781,237.2813 1765.7813,237.2813 Q1766.1094,237.2813 1766.3672,237.5391 Q1766.625,237.7969 1766.625,238.1406 Q1766.625,238.4844 1766.2813,238.8906 Q1765.7813,239.4688 1764.9844,239.7969 Q1763.9063,240.25 1762.6094,240.25 Q1761.0938,240.25 1759.8906,239.625 Q1758.9063,239.125 1758.2188,238.0547 Q1757.5313,236.9844 1757.5313,235.7031 L1757.5313,234.5469 Q1757.5313,233.2188 1758.1484,232.0703 Q1758.7656,230.9219 1759.8594,230.3047 Q1760.9531,229.6875 1762.1875,229.6875 Q1762.9219,229.6875 1763.5703,229.8516 Q1764.2188,230.0156 1764.7656,230.375 Z "/><text fill="#000000" font-family="sans-serif" font-size="12" lengthAdjust="spacingAndGlyphs" textLength="30" x="1776" y="239.4102">Logic</text><line style="stroke: #A80036; stroke-width: 1.5;" x1="1748" x2="1808" y1="250.5" y2="250.5"/><line style="stroke: #A80036; stroke-width: 1.5;" x1="1748" x2="1808" y1="258.5" y2="258.5"/><!--class mastermind.controllers.PlayController--><rect fill="#FEFECE" filter="url(#fs5bvt3xav1dn)" height="48" id="mastermind.controllers.PlayController" style="stroke: #A80036; stroke-width: 1.5;" width="109" x="1844.5" y="218.5"/><ellipse cx="1859.5" cy="234.5" fill="#ADD1B2" rx="11" ry="11" style="stroke: #A80036; stroke-width: 1.0;"/><path d="M1862.2656,230.375 Q1862.4219,230.1563 1862.6094,230.0469 Q1862.7969,229.9375 1863.0156,229.9375 Q1863.3906,229.9375 1863.625,230.1953 Q1863.8594,230.4531 1863.8594,231.0625 L1863.8594,232.5156 Q1863.8594,233.125 1863.625,233.3906 Q1863.3906,233.6563 1863.0156,233.6563 Q1862.6719,233.6563 1862.4688,233.4531 Q1862.2656,233.2656 1862.1563,232.75 Q1862.1094,232.3906 1861.9219,232.2031 Q1861.5938,231.8281 1860.9844,231.6094 Q1860.375,231.3906 1859.75,231.3906 Q1858.9844,231.3906 1858.3516,231.7188 Q1857.7188,232.0469 1857.2266,232.7969 Q1856.7344,233.5469 1856.7344,234.5781 L1856.7344,235.6719 Q1856.7344,236.9063 1857.625,237.7266 Q1858.5156,238.5469 1860.1094,238.5469 Q1861.0469,238.5469 1861.7031,238.2969 Q1862.0938,238.1406 1862.5156,237.7031 Q1862.7813,237.4375 1862.9297,237.3594 Q1863.0781,237.2813 1863.2813,237.2813 Q1863.6094,237.2813 1863.8672,237.5391 Q1864.125,237.7969 1864.125,238.1406 Q1864.125,238.4844 1863.7813,238.8906 Q1863.2813,239.4688 1862.4844,239.7969 Q1861.4063,240.25 1860.1094,240.25 Q1858.5938,240.25 1857.3906,239.625 Q1856.4063,239.125 1855.7188,238.0547 Q1855.0313,236.9844 1855.0313,235.7031 L1855.0313,234.5469 Q1855.0313,233.2188 1855.6484,232.0703 Q1856.2656,230.9219 1857.3594,230.3047 Q1858.4531,229.6875 1859.6875,229.6875 Q1860.4219,229.6875 1861.0703,229.8516 Q1861.7188,230.0156 1862.2656,230.375 Z "/><text fill="#000000" font-family="sans-serif" font-size="12" lengthAdjust="spacingAndGlyphs" textLength="77" x="1873.5" y="239.4102">PlayController</text><line style="stroke: #A80036; stroke-width: 1.5;" x1="1845.5" x2="1952.5" y1="250.5" y2="250.5"/><line style="stroke: #A80036; stroke-width: 1.5;" x1="1845.5" x2="1952.5" y1="258.5" y2="258.5"/><!--class mastermind.controllers.ResumeController--><rect fill="#FEFECE" filter="url(#fs5bvt3xav1dn)" height="48" id="mastermind.controllers.ResumeController" style="stroke: #A80036; stroke-width: 1.5;" width="134" x="1989" y="218.5"/><ellipse cx="2004" cy="234.5" fill="#ADD1B2" rx="11" ry="11" style="stroke: #A80036; stroke-width: 1.0;"/><path d="M2006.7656,230.375 Q2006.9219,230.1563 2007.1094,230.0469 Q2007.2969,229.9375 2007.5156,229.9375 Q2007.8906,229.9375 2008.125,230.1953 Q2008.3594,230.4531 2008.3594,231.0625 L2008.3594,232.5156 Q2008.3594,233.125 2008.125,233.3906 Q2007.8906,233.6563 2007.5156,233.6563 Q2007.1719,233.6563 2006.9688,233.4531 Q2006.7656,233.2656 2006.6563,232.75 Q2006.6094,232.3906 2006.4219,232.2031 Q2006.0938,231.8281 2005.4844,231.6094 Q2004.875,231.3906 2004.25,231.3906 Q2003.4844,231.3906 2002.8516,231.7188 Q2002.2188,232.0469 2001.7266,232.7969 Q2001.2344,233.5469 2001.2344,234.5781 L2001.2344,235.6719 Q2001.2344,236.9063 2002.125,237.7266 Q2003.0156,238.5469 2004.6094,238.5469 Q2005.5469,238.5469 2006.2031,238.2969 Q2006.5938,238.1406 2007.0156,237.7031 Q2007.2813,237.4375 2007.4297,237.3594 Q2007.5781,237.2813 2007.7813,237.2813 Q2008.1094,237.2813 2008.3672,237.5391 Q2008.625,237.7969 2008.625,238.1406 Q2008.625,238.4844 2008.2813,238.8906 Q2007.7813,239.4688 2006.9844,239.7969 Q2005.9063,240.25 2004.6094,240.25 Q2003.0938,240.25 2001.8906,239.625 Q2000.9063,239.125 2000.2188,238.0547 Q1999.5313,236.9844 1999.5313,235.7031 L1999.5313,234.5469 Q1999.5313,233.2188 2000.1484,232.0703 Q2000.7656,230.9219 2001.8594,230.3047 Q2002.9531,229.6875 2004.1875,229.6875 Q2004.9219,229.6875 2005.5703,229.8516 Q2006.2188,230.0156 2006.7656,230.375 Z "/><text fill="#000000" font-family="sans-serif" font-size="12" lengthAdjust="spacingAndGlyphs" textLength="102" x="2018" y="239.4102">ResumeController</text><line style="stroke: #A80036; stroke-width: 1.5;" x1="1990" x2="2122" y1="250.5" y2="250.5"/><line style="stroke: #A80036; stroke-width: 1.5;" x1="1990" x2="2122" y1="258.5" y2="258.5"/><!--class mastermind.controllers.StartController--><rect fill="#FEFECE" filter="url(#fs5bvt3xav1dn)" height="48" id="mastermind.controllers.StartController" style="stroke: #A80036; stroke-width: 1.5;" width="111" x="2158.5" y="218.5"/><ellipse cx="2173.5" cy="234.5" fill="#ADD1B2" rx="11" ry="11" style="stroke: #A80036; stroke-width: 1.0;"/><path d="M2176.2656,230.375 Q2176.4219,230.1563 2176.6094,230.0469 Q2176.7969,229.9375 2177.0156,229.9375 Q2177.3906,229.9375 2177.625,230.1953 Q2177.8594,230.4531 2177.8594,231.0625 L2177.8594,232.5156 Q2177.8594,233.125 2177.625,233.3906 Q2177.3906,233.6563 2177.0156,233.6563 Q2176.6719,233.6563 2176.4688,233.4531 Q2176.2656,233.2656 2176.1563,232.75 Q2176.1094,232.3906 2175.9219,232.2031 Q2175.5938,231.8281 2174.9844,231.6094 Q2174.375,231.3906 2173.75,231.3906 Q2172.9844,231.3906 2172.3516,231.7188 Q2171.7188,232.0469 2171.2266,232.7969 Q2170.7344,233.5469 2170.7344,234.5781 L2170.7344,235.6719 Q2170.7344,236.9063 2171.625,237.7266 Q2172.5156,238.5469 2174.1094,238.5469 Q2175.0469,238.5469 2175.7031,238.2969 Q2176.0938,238.1406 2176.5156,237.7031 Q2176.7813,237.4375 2176.9297,237.3594 Q2177.0781,237.2813 2177.2813,237.2813 Q2177.6094,237.2813 2177.8672,237.5391 Q2178.125,237.7969 2178.125,238.1406 Q2178.125,238.4844 2177.7813,238.8906 Q2177.2813,239.4688 2176.4844,239.7969 Q2175.4063,240.25 2174.1094,240.25 Q2172.5938,240.25 2171.3906,239.625 Q2170.4063,239.125 2169.7188,238.0547 Q2169.0313,236.9844 2169.0313,235.7031 L2169.0313,234.5469 Q2169.0313,233.2188 2169.6484,232.0703 Q2170.2656,230.9219 2171.3594,230.3047 Q2172.4531,229.6875 2173.6875,229.6875 Q2174.4219,229.6875 2175.0703,229.8516 Q2175.7188,230.0156 2176.2656,230.375 Z "/><text fill="#000000" font-family="sans-serif" font-size="12" lengthAdjust="spacingAndGlyphs" textLength="79" x="2187.5" y="239.4102">StartController</text><line style="stroke: #A80036; stroke-width: 1.5;" x1="2159.5" x2="2268.5" y1="250.5" y2="250.5"/><line style="stroke: #A80036; stroke-width: 1.5;" x1="2159.5" x2="2268.5" y1="258.5" y2="258.5"/><!--class mastermind.utils.TCPIP--><rect fill="#FEFECE" filter="url(#fs5bvt3xav1dn)" height="48" id="mastermind.utils.TCPIP" style="stroke: #A80036; stroke-width: 1.5;" width="67" x="360.5" y="915.5"/><ellipse cx="375.5" cy="931.5" fill="#ADD1B2" rx="11" ry="11" style="stroke: #A80036; stroke-width: 1.0;"/><path d="M378.2656,927.375 Q378.4219,927.1563 378.6094,927.0469 Q378.7969,926.9375 379.0156,926.9375 Q379.3906,926.9375 379.625,927.1953 Q379.8594,927.4531 379.8594,928.0625 L379.8594,929.5156 Q379.8594,930.125 379.625,930.3906 Q379.3906,930.6563 379.0156,930.6563 Q378.6719,930.6563 378.4688,930.4531 Q378.2656,930.2656 378.1563,929.75 Q378.1094,929.3906 377.9219,929.2031 Q377.5938,928.8281 376.9844,928.6094 Q376.375,928.3906 375.75,928.3906 Q374.9844,928.3906 374.3516,928.7188 Q373.7188,929.0469 373.2266,929.7969 Q372.7344,930.5469 372.7344,931.5781 L372.7344,932.6719 Q372.7344,933.9063 373.625,934.7266 Q374.5156,935.5469 376.1094,935.5469 Q377.0469,935.5469 377.7031,935.2969 Q378.0938,935.1406 378.5156,934.7031 Q378.7813,934.4375 378.9297,934.3594 Q379.0781,934.2813 379.2813,934.2813 Q379.6094,934.2813 379.8672,934.5391 Q380.125,934.7969 380.125,935.1406 Q380.125,935.4844 379.7813,935.8906 Q379.2813,936.4688 378.4844,936.7969 Q377.4063,937.25 376.1094,937.25 Q374.5938,937.25 373.3906,936.625 Q372.4063,936.125 371.7188,935.0547 Q371.0313,933.9844 371.0313,932.7031 L371.0313,931.5469 Q371.0313,930.2188 371.6484,929.0703 Q372.2656,927.9219 373.3594,927.3047 Q374.4531,926.6875 375.6875,926.6875 Q376.4219,926.6875 377.0703,926.8516 Q377.7188,927.0156 378.2656,927.375 Z "/><text fill="#000000" font-family="sans-serif" font-size="12" lengthAdjust="spacingAndGlyphs" textLength="35" x="389.5" y="936.4102">TCPIP</text><line style="stroke: #A80036; stroke-width: 1.5;" x1="361.5" x2="426.5" y1="947.5" y2="947.5"/><line style="stroke: #A80036; stroke-width: 1.5;" x1="361.5" x2="426.5" y1="955.5" y2="955.5"/><!--class mastermind.Mastermind--><rect fill="#FEFECE" filter="url(#fs5bvt3xav1dn)" height="48" id="mastermind.Mastermind" style="stroke: #A80036; stroke-width: 1.5;" width="97" x="1186.5" y="60"/><ellipse cx="1201.5" cy="76" fill="#ADD1B2" rx="11" ry="11" style="stroke: #A80036; stroke-width: 1.0;"/><path d="M1204.2656,71.875 Q1204.4219,71.6563 1204.6094,71.5469 Q1204.7969,71.4375 1205.0156,71.4375 Q1205.3906,71.4375 1205.625,71.6953 Q1205.8594,71.9531 1205.8594,72.5625 L1205.8594,74.0156 Q1205.8594,74.625 1205.625,74.8906 Q1205.3906,75.1563 1205.0156,75.1563 Q1204.6719,75.1563 1204.4688,74.9531 Q1204.2656,74.7656 1204.1563,74.25 Q1204.1094,73.8906 1203.9219,73.7031 Q1203.5938,73.3281 1202.9844,73.1094 Q1202.375,72.8906 1201.75,72.8906 Q1200.9844,72.8906 1200.3516,73.2188 Q1199.7188,73.5469 1199.2266,74.2969 Q1198.7344,75.0469 1198.7344,76.0781 L1198.7344,77.1719 Q1198.7344,78.4063 1199.625,79.2266 Q1200.5156,80.0469 1202.1094,80.0469 Q1203.0469,80.0469 1203.7031,79.7969 Q1204.0938,79.6406 1204.5156,79.2031 Q1204.7813,78.9375 1204.9297,78.8594 Q1205.0781,78.7813 1205.2813,78.7813 Q1205.6094,78.7813 1205.8672,79.0391 Q1206.125,79.2969 1206.125,79.6406 Q1206.125,79.9844 1205.7813,80.3906 Q1205.2813,80.9688 1204.4844,81.2969 Q1203.4063,81.75 1202.1094,81.75 Q1200.5938,81.75 1199.3906,81.125 Q1198.4063,80.625 1197.7188,79.5547 Q1197.0313,78.4844 1197.0313,77.2031 L1197.0313,76.0469 Q1197.0313,74.7188 1197.6484,73.5703 Q1198.2656,72.4219 1199.3594,71.8047 Q1200.4531,71.1875 1201.6875,71.1875 Q1202.4219,71.1875 1203.0703,71.3516 Q1203.7188,71.5156 1204.2656,71.875 Z "/><text fill="#000000" font-family="sans-serif" font-size="12" lengthAdjust="spacingAndGlyphs" textLength="65" x="1215.5" y="80.9102">Mastermind</text><line style="stroke: #A80036; stroke-width: 1.5;" x1="1187.5" x2="1282.5" y1="92" y2="92"/><line style="stroke: #A80036; stroke-width: 1.5;" x1="1187.5" x2="1282.5" y1="100" y2="100"/><!--class mastermind.models.Session--><rect fill="#FEFECE" filter="url(#fs5bvt3xav1dn)" height="48" id="mastermind.models.Session" style="stroke: #A80036; stroke-width: 1.5;" width="78" x="2216" y="395.5"/><ellipse cx="2231" cy="411.5" fill="#ADD1B2" rx="11" ry="11" style="stroke: #A80036; stroke-width: 1.0;"/><path d="M2233.7656,407.375 Q2233.9219,407.1563 2234.1094,407.0469 Q2234.2969,406.9375 2234.5156,406.9375 Q2234.8906,406.9375 2235.125,407.1953 Q2235.3594,407.4531 2235.3594,408.0625 L2235.3594,409.5156 Q2235.3594,410.125 2235.125,410.3906 Q2234.8906,410.6563 2234.5156,410.6563 Q2234.1719,410.6563 2233.9688,410.4531 Q2233.7656,410.2656 2233.6563,409.75 Q2233.6094,409.3906 2233.4219,409.2031 Q2233.0938,408.8281 2232.4844,408.6094 Q2231.875,408.3906 2231.25,408.3906 Q2230.4844,408.3906 2229.8516,408.7188 Q2229.2188,409.0469 2228.7266,409.7969 Q2228.2344,410.5469 2228.2344,411.5781 L2228.2344,412.6719 Q2228.2344,413.9063 2229.125,414.7266 Q2230.0156,415.5469 2231.6094,415.5469 Q2232.5469,415.5469 2233.2031,415.2969 Q2233.5938,415.1406 2234.0156,414.7031 Q2234.2813,414.4375 2234.4297,414.3594 Q2234.5781,414.2813 2234.7813,414.2813 Q2235.1094,414.2813 2235.3672,414.5391 Q2235.625,414.7969 2235.625,415.1406 Q2235.625,415.4844 2235.2813,415.8906 Q2234.7813,416.4688 2233.9844,416.7969 Q2232.9063,417.25 2231.6094,417.25 Q2230.0938,417.25 2228.8906,416.625 Q2227.9063,416.125 2227.2188,415.0547 Q2226.5313,413.9844 2226.5313,412.7031 L2226.5313,411.5469 Q2226.5313,410.2188 2227.1484,409.0703 Q2227.7656,407.9219 2228.8594,407.3047 Q2229.9531,406.6875 2231.1875,406.6875 Q2231.9219,406.6875 2232.5703,406.8516 Q2233.2188,407.0156 2233.7656,407.375 Z "/><text fill="#000000" font-family="sans-serif" font-size="12" lengthAdjust="spacingAndGlyphs" textLength="46" x="2245" y="416.4102">Session</text><line style="stroke: #A80036; stroke-width: 1.5;" x1="2217" x2="2293" y1="427.5" y2="427.5"/><line style="stroke: #A80036; stroke-width: 1.5;" x1="2217" x2="2293" y1="435.5" y2="435.5"/><!--link mastermind.distributed.FrameType to mastermind.distributed.FrameType--><path d="M1214.17,885.571 C1234.5,891.641 1249,909.617 1249,939.5 C1249,966.815 1236.89,984.182 1219.27,991.6 " fill="none" id="mastermind.distributed.FrameType-mastermind.distributed.FrameType" style="stroke: #A80036; stroke-width: 1.0; stroke-dasharray: 7.0,7.0;"/><polygon fill="#A80036" points="1214.17,993.429,1223.9917,994.1604,1218.8773,991.7432,1221.2945,986.6288,1214.17,993.429" style="stroke: #A80036; stroke-width: 1.0;"/><!--link mastermind.controllers.implementation.LogicImplementation to mastermind.distributed.LogicImplementationServer--><path d="M1732.06,453.289 C1713.64,462.946 1692.5,472.413 1672,478 C1275.37,586.077 1136.76,401.476 749,538 C711.336,551.261 674.61,577.614 648.086,599.798 " fill="none" id="mastermind.controllers.implementation.LogicImplementation-mastermind.distributed.LogicImplementationServer" style="stroke: #A80036; stroke-width: 1.0;"/><polygon fill="none" points="1728.89,447.041,1749.78,443.509,1735.65,459.299,1728.89,447.041" style="stroke: #A80036; stroke-width: 1.0;"/><!--link mastermind.distributed.LogicImplementationServer to mastermind.distributed.dispatchers.DispatcherPrototype--><path d="M536.774,676.011 C481.943,705.87 405.403,750.582 344,798 C298.23,833.346 251.431,881.741 224.078,911.521 " fill="none" id="mastermind.distributed.LogicImplementationServer-mastermind.distributed.dispatchers.DispatcherPrototype" style="stroke: #A80036; stroke-width: 1.0; stroke-dasharray: 7.0,7.0;"/><polygon fill="#A80036" points="220.514,915.417,229.541,911.4782,223.8896,911.7285,223.6394,906.0772,220.514,915.417" style="stroke: #A80036; stroke-width: 1.0;"/><!--link mastermind.distributed.LogicImplementationServer to mastermind.distributed.FrameType--><path d="M658.015,676.086 C684.578,695.276 718.052,718.666 749,738 C833.095,790.535 931.77,844.575 1004.997,883.295 " fill="none" id="mastermind.distributed.LogicImplementationServer-mastermind.distributed.FrameType" style="stroke: #A80036; stroke-width: 1.0; stroke-dasharray: 7.0,7.0;"/><polygon fill="#A80036" points="1009.78,885.824,1003.6906,878.0833,1005.359,883.4885,999.9538,885.1569,1009.78,885.824" style="stroke: #A80036; stroke-width: 1.0;"/><!--link mastermind.controllers.Logic to mastermind.distributed.LogicProxy--><path d="M1729.37,272.984 C1711.74,282.835 1691.38,293.263 1672,301 C1534.1,356.055 1361.63,393.862 1280.79,409.881 " fill="none" id="mastermind.controllers.Logic-mastermind.distributed.LogicProxy" style="stroke: #A80036; stroke-width: 1.0;"/><polygon fill="none" points="1726.11,266.784,1746.94,262.87,1733.1,278.916,1726.11,266.784" style="stroke: #A80036; stroke-width: 1.0;"/><!--link mastermind.distributed.LogicProxy to mastermind.utils.TCPIP--><path d="M1176.35,427.593 C1001.219,449.017 492.6,513.119 467,538 C366.117,636.05 377.981,823.752 388.253,902.414 " fill="none" id="mastermind.distributed.LogicProxy-mastermind.utils.TCPIP" style="stroke: #A80036; stroke-width: 1.0;"/><polygon fill="#A80036" points="390.061,915.36,392.7785,905.8935,389.3698,910.408,384.8553,906.9994,390.061,915.36" style="stroke: #A80036; stroke-width: 1.0;"/><line style="stroke: #A80036; stroke-width: 1.0;" x1="389.3698" x2="388.2625" y1="910.408" y2="902.485"/><polygon fill="#A80036" points="1189.34,426.007,1182.9005,422.7616,1177.428,427.4576,1183.8675,430.703,1189.34,426.007" style="stroke: #A80036; stroke-width: 1.0;"/><!--link mastermind.distributed.LogicProxy to mastermind.distributed.SessionProxy--><path d="M1292.89,442.101 C1343.91,462.609 1418.93,496.437 1477,538 C1492.74,549.266 1508.21,563.163 1522.05,576.945 " fill="none" id="mastermind.distributed.LogicProxy-mastermind.distributed.SessionProxy" style="stroke: #A80036; stroke-width: 1.0;"/><polygon fill="#A80036" points="1531.36,586.435,1527.9175,577.2074,1527.8604,582.8639,1522.2038,582.8068,1531.36,586.435" style="stroke: #A80036; stroke-width: 1.0;"/><line style="stroke: #A80036; stroke-width: 1.0;" x1="1527.8604" x2="1522.26" y1="582.8639" y2="577.152"/><polygon fill="#A80036" points="1280.78,437.303,1284.8859,443.231,1291.9371,441.721,1287.8312,435.793,1280.78,437.303" style="stroke: #A80036; stroke-width: 1.0;"/><!--link mastermind.distributed.LogicProxy to mastermind.distributed.ResumeControllerProxy--><path d="M1203.48,475.977 C1185.09,508.356 1161.95,549.075 1143.55,581.464 " fill="none" id="mastermind.distributed.LogicProxy-mastermind.distributed.ResumeControllerProxy" style="stroke: #A80036; stroke-width: 1.0;"/><polygon fill="#A80036" points="1137,592.989,1144.9243,587.1404,1139.4703,588.6419,1137.9689,583.1879,1137,592.989" style="stroke: #A80036; stroke-width: 1.0;"/><line style="stroke: #A80036; stroke-width: 1.0;" x1="1139.4703" x2="1143.425" y1="588.6419" y2="581.6855"/><polygon fill="#A80036" points="1209.96,464.573,1203.5197,467.8168,1204.0369,475.0093,1210.4772,471.7655,1209.96,464.573" style="stroke: #A80036; stroke-width: 1.0;"/><!--link mastermind.distributed.LogicProxy to mastermind.distributed.StartControllerProxy--><path d="M1266.52,475.977 C1284.91,508.356 1308.05,549.075 1326.45,581.464 " fill="none" id="mastermind.distributed.LogicProxy-mastermind.distributed.StartControllerProxy" style="stroke: #A80036; stroke-width: 1.0;"/><polygon fill="#A80036" points="1333,592.989,1332.0311,583.1879,1330.5297,588.6419,1325.0757,587.1404,1333,592.989" style="stroke: #A80036; stroke-width: 1.0;"/><line style="stroke: #A80036; stroke-width: 1.0;" x1="1330.5297" x2="1326.575" y1="588.6419" y2="581.6855"/><polygon fill="#A80036" points="1260.04,464.573,1259.5228,471.7655,1265.9631,475.0093,1266.4803,467.8168,1260.04,464.573" style="stroke: #A80036; stroke-width: 1.0;"/><!--link mastermind.distributed.LogicProxy to mastermind.distributed.PlayControllerProxy--><path d="M1177.01,442.728 C1124.87,463.866 1047.16,498.273 985,538 C982.668,539.491 980.331,541.023 977.994,542.59 " fill="none" id="mastermind.distributed.LogicProxy-mastermind.distributed.PlayControllerProxy" style="stroke: #A80036; stroke-width: 1.0;"/><polygon fill="#A80036" points="967.072,550.164,976.7471,548.3221,971.1807,547.3146,972.1881,541.7482,967.072,550.164" style="stroke: #A80036; stroke-width: 1.0;"/><line style="stroke: #A80036; stroke-width: 1.0;" x1="971.1807" x2="977.755" y1="547.3146" y2="542.756"/><polygon fill="#A80036" points="1189.37,437.775,1182.3134,436.2903,1178.2288,442.2331,1185.2854,443.7178,1189.37,437.775" style="stroke: #A80036; stroke-width: 1.0;"/><!--link mastermind.Mastermind to mastermind.distributed.MastermindClient--><path d="M1235,128.318 C1235,145.479 1235,165.46 1235,183.816 " fill="none" id="mastermind.Mastermind-mastermind.distributed.MastermindClient" style="stroke: #A80036; stroke-width: 1.0;"/><polygon fill="none" points="1228,128.092,1235,108.09,1242,128.092,1228,128.092" style="stroke: #A80036; stroke-width: 1.0;"/><!--link mastermind.distributed.MastermindClient to mastermind.distributed.LogicProxy--><path d="M1235,314.387 C1235,329.914 1235,346.165 1235,361.087 " fill="none" id="mastermind.distributed.MastermindClient-mastermind.distributed.LogicProxy" style="stroke: #A80036; stroke-width: 1.0;"/><polygon fill="#A80036" points="1235,374.359,1239,365.359,1235,369.359,1231,365.359,1235,374.359" style="stroke: #A80036; stroke-width: 1.0;"/><line style="stroke: #A80036; stroke-width: 1.0;" x1="1235" x2="1235" y1="369.359" y2="361.359"/><polygon fill="#A80036" points="1235,301.287,1231,307.287,1235,313.287,1239,307.287,1235,301.287" style="stroke: #A80036; stroke-width: 1.0;"/><!--link mastermind.distributed.MastermindServer to mastermind.distributed.LogicImplementationServer--><path d="M604.634,491.254 C605.353,522.381 606.181,558.228 606.836,586.582 " fill="none" id="mastermind.distributed.MastermindServer-mastermind.distributed.LogicImplementationServer" style="stroke: #A80036; stroke-width: 1.0;"/><polygon fill="#A80036" points="607.142,599.846,610.9332,590.7561,607.0266,594.8473,602.9354,590.9407,607.142,599.846" style="stroke: #A80036; stroke-width: 1.0;"/><line style="stroke: #A80036; stroke-width: 1.0;" x1="607.0266" x2="606.8415" y1="594.8473" y2="586.849"/><polygon fill="#A80036" points="604.333,478.234,600.4725,484.3247,604.6099,490.2308,608.4704,484.1401,604.333,478.234" style="stroke: #A80036; stroke-width: 1.0;"/><!--link mastermind.distributed.MastermindServer to mastermind.distributed.dispatchers.DispatcherPrototype--><path d="M477.779,470.88 C444.939,488.468 411.597,510.779 386,538 C282.423,648.151 228.043,826.288 208.532,902.279 " fill="none" id="mastermind.distributed.MastermindServer-mastermind.distributed.dispatchers.DispatcherPrototype" style="stroke: #A80036; stroke-width: 1.0;"/><polygon fill="#A80036" points="205.291,915.24,211.3544,907.4789,206.5037,910.3893,203.5933,905.5386,205.291,915.24" style="stroke: #A80036; stroke-width: 1.0;"/><line style="stroke: #A80036; stroke-width: 1.0;" x1="206.5037" x2="208.445" y1="910.3893" y2="902.6285"/><polygon fill="#A80036" points="489.361,464.856,482.1922,464.0756,478.7147,470.3928,485.8834,471.1732,489.361,464.856" style="stroke: #A80036; stroke-width: 1.0;"/><!--link mastermind.controllers.PlayController to mastermind.distributed.PlayControllerProxy--><path d="M1909.39,286.2 C1919.47,339.265 1926.71,428.812 1876,478 C1804.78,547.083 1077.05,500.952 985,538 C978.922,540.446 972.927,543.331 967.054,546.548 " fill="none" id="mastermind.controllers.PlayController-mastermind.distributed.PlayControllerProxy" style="stroke: #A80036; stroke-width: 1.0;"/><polygon fill="none" points="1902.52,287.564,1905.2,266.545,1916.21,284.649,1902.52,287.564" style="stroke: #A80036; stroke-width: 1.0;"/><!--link mastermind.distributed.PlayControllerProxy to mastermind.utils.TCPIP--><path d="M755.456,734.698 C753.312,735.844 751.159,736.946 749,738 C634.244,794.031 569.803,720.899 468,798 C433.714,823.967 413.735,870.462 403.358,902.823 " fill="none" id="mastermind.distributed.PlayControllerProxy-mastermind.utils.TCPIP" style="stroke: #A80036; stroke-width: 1.0;"/><polygon fill="#A80036" points="399.603,915.303,406.0266,907.8372,401.0437,910.515,398.3658,905.5322,399.603,915.303" style="stroke: #A80036; stroke-width: 1.0;"/><line style="stroke: #A80036; stroke-width: 1.0;" x1="401.0437" x2="403.348" y1="910.515" y2="902.854"/><polygon fill="#A80036" points="766.83,728.187,759.6356,727.6966,756.4159,734.149,763.6103,734.6394,766.83,728.187" style="stroke: #A80036; stroke-width: 1.0;"/><!--link mastermind.distributed.PlayControllerProxy to mastermind.distributed.FrameType--><path d="M948.241,738.313 C966.873,761.09 986.947,785.629 1006.44,809.455 " fill="none" id="mastermind.distributed.PlayControllerProxy-mastermind.distributed.FrameType" style="stroke: #A80036; stroke-width: 1.0; stroke-dasharray: 7.0,7.0;"/><polygon fill="#A80036" points="1009.81,813.582,1007.2042,804.0841,1006.6428,809.713,1001.0139,809.1516,1009.81,813.582" style="stroke: #A80036; stroke-width: 1.0;"/><!--link mastermind.controllers.ResumeController to mastermind.distributed.ResumeControllerProxy--><path d="M2069.38,286.142 C2082.95,338.775 2095.73,427.493 2047,478 C1921.98,607.57 1406.99,473.206 1239,538 C1207.83,550.022 1178.09,572.393 1155.23,592.831 " fill="none" id="mastermind.controllers.ResumeController-mastermind.distributed.ResumeControllerProxy" style="stroke: #A80036; stroke-width: 1.0;"/><polygon fill="none" points="2062.57,287.785,2063.89,266.636,2076.05,283.988,2062.57,287.785" style="stroke: #A80036; stroke-width: 1.0;"/><!--link mastermind.distributed.ResumeControllerProxy to mastermind.utils.TCPIP--><path d="M1057.47,691.717 C1036.16,709.328 1010.49,727.201 984,738 C770.2,825.146 658.436,667.466 468,798 C432.325,822.453 412.584,869.702 402.645,902.622 " fill="none" id="mastermind.distributed.ResumeControllerProxy-mastermind.utils.TCPIP" style="stroke: #A80036; stroke-width: 1.0;"/><polygon fill="#A80036" points="399.08,915.316,405.3649,907.7331,400.4322,910.5023,397.663,905.5696,399.08,915.316" style="stroke: #A80036; stroke-width: 1.0;"/><line style="stroke: #A80036; stroke-width: 1.0;" x1="400.4322" x2="402.5955" y1="910.5023" y2="902.8005"/><polygon fill="#A80036" points="1067.57,683.126,1060.4084,683.9698,1058.4329,690.9051,1065.5945,690.0612,1067.57,683.126" style="stroke: #A80036; stroke-width: 1.0;"/><!--link mastermind.distributed.ResumeControllerProxy to mastermind.distributed.FrameType--><path d="M1112,683.192 C1112,712.469 1112,752.697 1112,792.564 " fill="none" id="mastermind.distributed.ResumeControllerProxy-mastermind.distributed.FrameType" style="stroke: #A80036; stroke-width: 1.0; stroke-dasharray: 7.0,7.0;"/><polygon fill="#A80036" points="1112,797.931,1116,788.931,1112,792.931,1108,788.931,1112,797.931" style="stroke: #A80036; stroke-width: 1.0;"/><!--link mastermind.models.Session to mastermind.distributed.SessionProxy--><path d="M2218.68,457.372 C2209.58,465.073 2199.42,472.509 2189,478 C2012.07,571.245 1777.14,612.213 1655.56,628.148 " fill="none" id="mastermind.models.Session-mastermind.distributed.SessionProxy" style="stroke: #A80036; stroke-width: 1.0;"/><polygon fill="none" points="2214.27,451.922,2233.75,443.59,2223.72,462.253,2214.27,451.922" style="stroke: #A80036; stroke-width: 1.0;"/><!--link mastermind.distributed.SessionProxy to mastermind.utils.TCPIP--><path d="M1529.14,699.297 C1514.27,714.586 1496.52,729.165 1477,738 C1272.36,830.601 656.777,676.277 468,798 C431.548,821.504 411.952,869.182 402.26,902.445 " fill="none" id="mastermind.distributed.SessionProxy-mastermind.utils.TCPIP" style="stroke: #A80036; stroke-width: 1.0;"/><polygon fill="#A80036" points="398.801,915.272,405.0069,907.6243,400.1032,910.4445,397.283,905.5408,398.801,915.272" style="stroke: #A80036; stroke-width: 1.0;"/><line style="stroke: #A80036; stroke-width: 1.0;" x1="400.1032" x2="402.186" y1="910.4445" y2="902.72"/><polygon fill="#A80036" points="1538.01,689.73,1530.9981,691.4133,1529.8551,698.5333,1536.867,696.8499,1538.01,689.73" style="stroke: #A80036; stroke-width: 1.0;"/><!--link mastermind.distributed.SessionProxy to mastermind.distributed.FrameType--><path d="M1530.46,689.525 C1514.52,706.053 1495.82,723.798 1477,738 C1396.24,798.934 1294.72,853.158 1219.26,889.802 " fill="none" id="mastermind.distributed.SessionProxy-mastermind.distributed.FrameType" style="stroke: #A80036; stroke-width: 1.0; stroke-dasharray: 7.0,7.0;"/><polygon fill="#A80036" points="1214.33,892.19,1224.1732,891.8571,1218.8278,890.006,1220.6789,884.6606,1214.33,892.19" style="stroke: #A80036; stroke-width: 1.0;"/><!--link mastermind.controllers.StartController to mastermind.distributed.StartControllerProxy--><path d="M2209.63,286.627 C2201.64,340.909 2179.35,432.533 2118,478 C2003.06,563.184 1609.13,483.129 1477,538 C1447.47,550.266 1419.67,572.52 1398.39,592.826 " fill="none" id="mastermind.controllers.StartController-mastermind.distributed.StartControllerProxy" style="stroke: #A80036; stroke-width: 1.0;"/><polygon fill="none" points="2202.72,285.493,2212.19,266.536,2216.61,287.259,2202.72,285.493" style="stroke: #A80036; stroke-width: 1.0;"/><!--link mastermind.distributed.StartControllerProxy to mastermind.utils.TCPIP--><path d="M1308.33,692.058 C1288.56,709.794 1264.45,727.662 1239,738 C1079.78,802.666 611.573,703.556 468,798 C431.765,821.836 412.118,869.438 402.357,902.593 " fill="none" id="mastermind.distributed.StartControllerProxy-mastermind.utils.TCPIP" style="stroke: #A80036; stroke-width: 1.0;"/><polygon fill="#A80036" points="398.867,915.374,405.0963,907.7454,400.184,910.5506,397.3788,905.6382,398.867,915.374" style="stroke: #A80036; stroke-width: 1.0;"/><line style="stroke: #A80036; stroke-width: 1.0;" x1="400.184" x2="402.2915" y1="910.5506" y2="902.8335"/><polygon fill="#A80036" points="1317.96,683.116,1310.8411,684.2655,1309.1641,691.2789,1316.283,690.1294,1317.96,683.116" style="stroke: #A80036; stroke-width: 1.0;"/><!--link mastermind.distributed.StartControllerProxy to mastermind.distributed.FrameType--><path d="M1321.7,683.192 C1294.13,716.757 1254.74,764.716 1217.53,810.023 " fill="none" id="mastermind.distributed.StartControllerProxy-mastermind.distributed.FrameType" style="stroke: #A80036; stroke-width: 1.0; stroke-dasharray: 7.0,7.0;"/><polygon fill="#A80036" points="1214.16,814.117,1222.9666,809.7075,1217.3364,810.2556,1216.7883,804.6253,1214.16,814.117" style="stroke: #A80036; stroke-width: 1.0;"/><!--
@startuml

class  mastermind.distributed.FrameType{
+ {static} START: FrameType
+ {static} STATE: FrameType
+ {static} UNDO: FrameType
+ {static} REDO: FrameType
+ {static} UNDOABLE: FrameType
+ {static} REDOABLE: FrameType
+ {static} WINNER: FrameType
+ {static} LOOSER: FrameType
+ {static} TURN: FrameType
+ {static} ALLCODES: FrameType
+ {static} PROPOSECOMBINATION: FrameType
+ {static} WIDTH: FrameType
+ {static} RESUME: FrameType
+ {static} CLOSE: FrameType
- FrameType()
+ {static} valueOf(String): FrameType
+ {static} parser(String): FrameType
}
mastermind.distributed.FrameType ..> mastermind.distributed.FrameType

class  mastermind.distributed.LogicImplementationServer{
+ LogicImplementationServer()
+ createDispatchers(DispatcherPrototype): void
}
mastermind.controllers.implementation.LogicImplementation <|-down- mastermind.distributed.LogicImplementationServer
mastermind.distributed.LogicImplementationServer ..> mastermind.distributed.dispatchers.DispatcherPrototype
mastermind.distributed.LogicImplementationServer ..> mastermind.distributed.FrameType

class  mastermind.distributed.LogicProxy{
- tcpip: TCPIP
+ LogicProxy()
+ close(): void
}
mastermind.controllers.Logic <|-down- mastermind.distributed.LogicProxy
mastermind.distributed.LogicProxy *-down-> mastermind.utils.TCPIP
mastermind.distributed.LogicProxy *-down-> mastermind.distributed.SessionProxy
mastermind.distributed.LogicProxy *-down-> mastermind.distributed.ResumeControllerProxy
mastermind.distributed.LogicProxy *-down-> mastermind.distributed.StartControllerProxy
mastermind.distributed.LogicProxy *-down-> mastermind.distributed.PlayControllerProxy

class  mastermind.distributed.MastermindClient{
- logicProxy: LogicProxy
+ MastermindClient()
+ {static} main(String[]): void
# createLogic(): Logic
# play(): void
}
mastermind.Mastermind <|-down- mastermind.distributed.MastermindClient
mastermind.distributed.MastermindClient *-down-> mastermind.distributed.LogicProxy

class  mastermind.distributed.MastermindServer{
- dispatcherPrototype: DispatcherPrototype
- logic: LogicImplementationServer
- MastermindServer()
+ {static} main(String[]): void
- serve(): void
}
mastermind.distributed.MastermindServer *-down-> mastermind.distributed.LogicImplementationServer
mastermind.distributed.MastermindServer *-down-> mastermind.distributed.dispatchers.DispatcherPrototype

class  mastermind.distributed.PlayControllerProxy{
- tcpip: TCPIP
~ PlayControllerProxy(TCPIP, Session)
+ redoable(): boolean
+ isLooser(): boolean
+ isWinner(): boolean
+ undo(): void
+ redo(): void
+ getTurn(): int
+ getAllCodes(): int[][][]
+ undoable(): boolean
+ proposeCombination(int[]): int
}
mastermind.controllers.PlayController <|-down- mastermind.distributed.PlayControllerProxy
mastermind.distributed.PlayControllerProxy *-down-> mastermind.utils.TCPIP
mastermind.distributed.PlayControllerProxy..> mastermind.distributed.FrameType

class  mastermind.distributed.ResumeControllerProxy{
- tcpip: TCPIP
+ ResumeControllerProxy(Session, TCPIP)
+ resume(boolean): void
}
mastermind.controllers.ResumeController <|-down- mastermind.distributed.ResumeControllerProxy
mastermind.distributed.ResumeControllerProxy *-down-> mastermind.utils.TCPIP
mastermind.distributed.ResumeControllerProxy..> mastermind.distributed.FrameType

class  mastermind.distributed.SessionProxy{
- tcpip: TCPIP
+ SessionProxy(TCPIP)
+ getValueState(): StateValue
+ getWidth(): int
}
mastermind.models.Session <|-down- mastermind.distributed.SessionProxy
mastermind.distributed.SessionProxy *-down-> mastermind.utils.TCPIP
mastermind.distributed.SessionProxy..> mastermind.distributed.FrameType

class  mastermind.distributed.StartControllerProxy{
- tcpip: TCPIP
+ StartControllerProxy(TCPIP, Session)
+ start(): void
}
mastermind.controllers.StartController <|-down- mastermind.distributed.StartControllerProxy
mastermind.distributed.StartControllerProxy *-down-> mastermind.utils.TCPIP
mastermind.distributed.StartControllerProxy..> mastermind.distributed.FrameType

@enduml

PlantUML version 1.2019.05(Sat Apr 20 18:45:36 CEST 2019)
(GPL source distribution)
Java Runtime: OpenJDK Runtime Environment
JVM: OpenJDK 64-Bit Server VM
Java Version: 1.8.0_222-b10
Operating System: Windows 10
OS Version: 10.0
Default Encoding: windows-1252
Language: es
Country: ES
--></g></svg>