<?xml version="1.0" encoding="UTF-8" standalone="no"?><svg xmlns="http://www.w3.org/2000/svg" xmlns:xlink="http://www.w3.org/1999/xlink" contentScriptType="application/ecmascript" contentStyleType="text/css" height="960px" preserveAspectRatio="none" style="width:1760px;height:960px;" version="1.1" viewBox="0 0 1760 960" width="1760px" zoomAndPan="magnify"><defs><filter height="300%" id="ftxok59xj3qx8" width="300%" x="-1" y="-1"><feGaussianBlur result="blurOut" stdDeviation="2.0"/><feColorMatrix in="blurOut" result="blurOut2" type="matrix" values="0 0 0 0 0 0 0 0 0 0 0 0 0 0 0 0 0 0 .4 0"/><feOffset dx="4.0" dy="4.0" in="blurOut2" result="blurOut3"/><feBlend in="SourceGraphic" in2="blurOut3" mode="normal"/></filter></defs><g><!--cluster mastermind.views.graphics--><polygon fill="#FFFFFF" filter="url(#ftxok59xj3qx8)" points="720,148,918,148,925,171.6094,1731,171.6094,1731,824,720,824,720,148" style="stroke: #000000; stroke-width: 1.5;"/><line style="stroke: #000000; stroke-width: 1.5;" x1="720" x2="925" y1="171.6094" y2="171.6094"/><text fill="#000000" font-family="sans-serif" font-size="14" font-weight="bold" lengthAdjust="spacingAndGlyphs" textLength="192" x="724" y="164.5332">mastermind.views.graphics</text><!--cluster java.awt--><polygon fill="#FFFFFF" filter="url(#ftxok59xj3qx8)" points="1379,24,1442,24,1449,47.6094,1553,47.6094,1553,124,1379,124,1379,24" style="stroke: #000000; stroke-width: 1.5;"/><line style="stroke: #000000; stroke-width: 1.5;" x1="1379" x2="1449" y1="47.6094" y2="47.6094"/><text fill="#000000" font-family="sans-serif" font-size="14" font-weight="bold" lengthAdjust="spacingAndGlyphs" textLength="57" x="1383" y="40.5332">java.awt</text><!--cluster javax.swing--><polygon fill="#FFFFFF" filter="url(#ftxok59xj3qx8)" points="22,387.5,110,387.5,117,411.1094,696,411.1094,696,487.5,22,487.5,22,387.5" style="stroke: #000000; stroke-width: 1.5;"/><line style="stroke: #000000; stroke-width: 1.5;" x1="22" x2="117" y1="411.1094" y2="411.1094"/><text fill="#000000" font-family="sans-serif" font-size="14" font-weight="bold" lengthAdjust="spacingAndGlyphs" textLength="82" x="26" y="404.0332">javax.swing</text><!--cluster mastermind.controllers--><polygon fill="#FFFFFF" filter="url(#ftxok59xj3qx8)" points="1262,848,1431,848,1438,871.6094,1441,871.6094,1441,948,1262,948,1262,848" style="stroke: #000000; stroke-width: 1.5;"/><line style="stroke: #000000; stroke-width: 1.5;" x1="1262" x2="1438" y1="871.6094" y2="871.6094"/><text fill="#000000" font-family="sans-serif" font-size="14" font-weight="bold" lengthAdjust="spacingAndGlyphs" textLength="163" x="1266" y="864.5332">mastermind.controllers</text><!--cluster mastermind.views--><polygon fill="#FFFFFF" filter="url(#ftxok59xj3qx8)" points="1595,24,1728,24,1735,47.6094,1738,47.6094,1738,124,1595,124,1595,24" style="stroke: #000000; stroke-width: 1.5;"/><line style="stroke: #000000; stroke-width: 1.5;" x1="1595" x2="1735" y1="47.6094" y2="47.6094"/><text fill="#000000" font-family="sans-serif" font-size="14" font-weight="bold" lengthAdjust="spacingAndGlyphs" textLength="127" x="1599" y="40.5332">mastermind.views</text><!--cluster java.awt.event--><polygon fill="#FFFFFF" filter="url(#ftxok59xj3qx8)" points="566,848,674,848,681,871.6094,1088,871.6094,1088,948,566,948,566,848" style="stroke: #000000; stroke-width: 1.5;"/><line style="stroke: #000000; stroke-width: 1.5;" x1="566" x2="681" y1="871.6094" y2="871.6094"/><text fill="#000000" font-family="sans-serif" font-size="14" font-weight="bold" lengthAdjust="spacingAndGlyphs" textLength="102" x="570" y="864.5332">java.awt.event</text><!--class mastermind.views.graphics.Constraints--><rect fill="#FEFECE" filter="url(#ftxok59xj3qx8)" height="61.8359" id="mastermind.views.graphics.Constraints" style="stroke: #A80036; stroke-width: 1.5;" width="151" x="1390.5" y="211.5"/><ellipse cx="1430.25" cy="227.5" fill="#ADD1B2" rx="11" ry="11" style="stroke: #A80036; stroke-width: 1.0;"/><path d="M1433.0156,223.375 Q1433.1719,223.1563 1433.3594,223.0469 Q1433.5469,222.9375 1433.7656,222.9375 Q1434.1406,222.9375 1434.375,223.1953 Q1434.6094,223.4531 1434.6094,224.0625 L1434.6094,225.5156 Q1434.6094,226.125 1434.375,226.3906 Q1434.1406,226.6563 1433.7656,226.6563 Q1433.4219,226.6563 1433.2188,226.4531 Q1433.0156,226.2656 1432.9063,225.75 Q1432.8594,225.3906 1432.6719,225.2031 Q1432.3438,224.8281 1431.7344,224.6094 Q1431.125,224.3906 1430.5,224.3906 Q1429.7344,224.3906 1429.1016,224.7188 Q1428.4688,225.0469 1427.9766,225.7969 Q1427.4844,226.5469 1427.4844,227.5781 L1427.4844,228.6719 Q1427.4844,229.9063 1428.375,230.7266 Q1429.2656,231.5469 1430.8594,231.5469 Q1431.7969,231.5469 1432.4531,231.2969 Q1432.8438,231.1406 1433.2656,230.7031 Q1433.5313,230.4375 1433.6797,230.3594 Q1433.8281,230.2813 1434.0313,230.2813 Q1434.3594,230.2813 1434.6172,230.5391 Q1434.875,230.7969 1434.875,231.1406 Q1434.875,231.4844 1434.5313,231.8906 Q1434.0313,232.4688 1433.2344,232.7969 Q1432.1563,233.25 1430.8594,233.25 Q1429.3438,233.25 1428.1406,232.625 Q1427.1563,232.125 1426.4688,231.0547 Q1425.7813,229.9844 1425.7813,228.7031 L1425.7813,227.5469 Q1425.7813,226.2188 1426.3984,225.0703 Q1427.0156,223.9219 1428.1094,223.3047 Q1429.2031,222.6875 1430.4375,222.6875 Q1431.1719,222.6875 1431.8203,222.8516 Q1432.4688,223.0156 1433.0156,223.375 Z "/><text fill="#000000" font-family="sans-serif" font-size="12" lengthAdjust="spacingAndGlyphs" textLength="64" x="1449.75" y="232.4102">Constraints</text><line style="stroke: #A80036; stroke-width: 1.5;" x1="1391.5" x2="1540.5" y1="243.5" y2="243.5"/><line style="stroke: #A80036; stroke-width: 1.5;" x1="1391.5" x2="1540.5" y1="251.5" y2="251.5"/><polygon fill="#4177AF" points="1401.5,259.918,1397.5,265.918,1405.5,265.918" style="stroke: #1963A0; stroke-width: 1.0;"/><text fill="#000000" font-family="sans-serif" font-size="11" lengthAdjust="spacingAndGlyphs" textLength="125" x="1410.5" y="266.9189">Constraints(int, int, int, int)</text><!--class mastermind.views.graphics.GameView--><rect fill="#FEFECE" filter="url(#ftxok59xj3qx8)" height="172.5234" id="mastermind.views.graphics.GameView" style="stroke: #A80036; stroke-width: 1.5;" width="304" x="1019" y="361"/><ellipse cx="1136.75" cy="377" fill="#ADD1B2" rx="11" ry="11" style="stroke: #A80036; stroke-width: 1.0;"/><path d="M1139.5156,372.875 Q1139.6719,372.6563 1139.8594,372.5469 Q1140.0469,372.4375 1140.2656,372.4375 Q1140.6406,372.4375 1140.875,372.6953 Q1141.1094,372.9531 1141.1094,373.5625 L1141.1094,375.0156 Q1141.1094,375.625 1140.875,375.8906 Q1140.6406,376.1563 1140.2656,376.1563 Q1139.9219,376.1563 1139.7188,375.9531 Q1139.5156,375.7656 1139.4063,375.25 Q1139.3594,374.8906 1139.1719,374.7031 Q1138.8438,374.3281 1138.2344,374.1094 Q1137.625,373.8906 1137,373.8906 Q1136.2344,373.8906 1135.6016,374.2188 Q1134.9688,374.5469 1134.4766,375.2969 Q1133.9844,376.0469 1133.9844,377.0781 L1133.9844,378.1719 Q1133.9844,379.4063 1134.875,380.2266 Q1135.7656,381.0469 1137.3594,381.0469 Q1138.2969,381.0469 1138.9531,380.7969 Q1139.3438,380.6406 1139.7656,380.2031 Q1140.0313,379.9375 1140.1797,379.8594 Q1140.3281,379.7813 1140.5313,379.7813 Q1140.8594,379.7813 1141.1172,380.0391 Q1141.375,380.2969 1141.375,380.6406 Q1141.375,380.9844 1141.0313,381.3906 Q1140.5313,381.9688 1139.7344,382.2969 Q1138.6563,382.75 1137.3594,382.75 Q1135.8438,382.75 1134.6406,382.125 Q1133.6563,381.625 1132.9688,380.5547 Q1132.2813,379.4844 1132.2813,378.2031 L1132.2813,377.0469 Q1132.2813,375.7188 1132.8984,374.5703 Q1133.5156,373.4219 1134.6094,372.8047 Q1135.7031,372.1875 1136.9375,372.1875 Q1137.6719,372.1875 1138.3203,372.3516 Q1138.9688,372.5156 1139.5156,372.875 Z "/><text fill="#000000" font-family="sans-serif" font-size="12" lengthAdjust="spacingAndGlyphs" textLength="60" x="1157.25" y="381.9102">GameView</text><line style="stroke: #A80036; stroke-width: 1.5;" x1="1020" x2="1322" y1="393" y2="393"/><rect fill="none" height="6" style="stroke: #C82930; stroke-width: 1.0;" width="6" x="1027" y="402.418"/><text fill="#000000" font-family="sans-serif" font-size="11" lengthAdjust="spacingAndGlyphs" text-decoration="underline" textLength="99" x="1039" y="408.4189">GAME_OVER: String</text><rect fill="none" height="6" style="stroke: #C82930; stroke-width: 1.0;" width="6" x="1027" y="416.2539"/><text fill="#000000" font-family="sans-serif" font-size="11" lengthAdjust="spacingAndGlyphs" textLength="237" x="1039" y="422.2549">secretCombinationView: SecretCombinationView</text><rect fill="none" height="6" style="stroke: #C82930; stroke-width: 1.0;" width="6" x="1027" y="430.0898"/><text fill="#000000" font-family="sans-serif" font-size="11" lengthAdjust="spacingAndGlyphs" textLength="278" x="1039" y="436.0908">proposedCombinationsView: ProposedCombinationsView</text><rect fill="none" height="6" style="stroke: #C82930; stroke-width: 1.0;" width="6" x="1027" y="443.9258"/><text fill="#000000" font-family="sans-serif" font-size="11" lengthAdjust="spacingAndGlyphs" textLength="258" x="1039" y="449.9268">proposalCombinationView: ProposalCombinationView</text><line style="stroke: #A80036; stroke-width: 1.5;" x1="1020" x2="1322" y1="456.3438" y2="456.3438"/><polygon fill="#4177AF" points="1030,464.7617,1026,470.7617,1034,470.7617" style="stroke: #1963A0; stroke-width: 1.0;"/><text fill="#000000" font-family="sans-serif" font-size="11" lengthAdjust="spacingAndGlyphs" textLength="62" x="1039" y="471.7627">GameView()</text><rect fill="#F24D5C" height="6" style="stroke: #C82930; stroke-width: 1.0;" width="6" x="1027" y="479.5977"/><text fill="#000000" font-family="sans-serif" font-size="11" lengthAdjust="spacingAndGlyphs" textLength="58" x="1039" y="485.5986">clear(): void</text><polygon fill="#4177AF" points="1030,492.4336,1026,498.4336,1034,498.4336" style="stroke: #1963A0; stroke-width: 1.0;"/><text fill="#000000" font-family="sans-serif" font-size="11" lengthAdjust="spacingAndGlyphs" textLength="82" x="1039" y="499.4346">start(Logic): void</text><polygon fill="#4177AF" points="1030,506.2695,1026,512.2695,1034,512.2695" style="stroke: #1963A0; stroke-width: 1.0;"/><text fill="#000000" font-family="sans-serif" font-size="11" lengthAdjust="spacingAndGlyphs" textLength="118" x="1039" y="513.2705">propose(Logic): boolean</text><rect fill="#F24D5C" height="6" style="stroke: #C82930; stroke-width: 1.0;" width="6" x="1027" y="521.1055"/><text fill="#000000" font-family="sans-serif" font-size="11" lengthAdjust="spacingAndGlyphs" textLength="156" x="1039" y="527.1064">drawGameOver(Logic): boolean</text><!--class mastermind.views.graphics.ProposedCombinationsView--><rect fill="#FEFECE" filter="url(#ftxok59xj3qx8)" height="75.6719" id="mastermind.views.graphics.ProposedCombinationsView" style="stroke: #A80036; stroke-width: 1.5;" width="190" x="1182" y="663"/><ellipse cx="1197" cy="679" fill="#ADD1B2" rx="11" ry="11" style="stroke: #A80036; stroke-width: 1.0;"/><path d="M1199.7656,674.875 Q1199.9219,674.6563 1200.1094,674.5469 Q1200.2969,674.4375 1200.5156,674.4375 Q1200.8906,674.4375 1201.125,674.6953 Q1201.3594,674.9531 1201.3594,675.5625 L1201.3594,677.0156 Q1201.3594,677.625 1201.125,677.8906 Q1200.8906,678.1563 1200.5156,678.1563 Q1200.1719,678.1563 1199.9688,677.9531 Q1199.7656,677.7656 1199.6563,677.25 Q1199.6094,676.8906 1199.4219,676.7031 Q1199.0938,676.3281 1198.4844,676.1094 Q1197.875,675.8906 1197.25,675.8906 Q1196.4844,675.8906 1195.8516,676.2188 Q1195.2188,676.5469 1194.7266,677.2969 Q1194.2344,678.0469 1194.2344,679.0781 L1194.2344,680.1719 Q1194.2344,681.4063 1195.125,682.2266 Q1196.0156,683.0469 1197.6094,683.0469 Q1198.5469,683.0469 1199.2031,682.7969 Q1199.5938,682.6406 1200.0156,682.2031 Q1200.2813,681.9375 1200.4297,681.8594 Q1200.5781,681.7813 1200.7813,681.7813 Q1201.1094,681.7813 1201.3672,682.0391 Q1201.625,682.2969 1201.625,682.6406 Q1201.625,682.9844 1201.2813,683.3906 Q1200.7813,683.9688 1199.9844,684.2969 Q1198.9063,684.75 1197.6094,684.75 Q1196.0938,684.75 1194.8906,684.125 Q1193.9063,683.625 1193.2188,682.5547 Q1192.5313,681.4844 1192.5313,680.2031 L1192.5313,679.0469 Q1192.5313,677.7188 1193.1484,676.5703 Q1193.7656,675.4219 1194.8594,674.8047 Q1195.9531,674.1875 1197.1875,674.1875 Q1197.9219,674.1875 1198.5703,674.3516 Q1199.2188,674.5156 1199.7656,674.875 Z "/><text fill="#000000" font-family="sans-serif" font-size="12" lengthAdjust="spacingAndGlyphs" textLength="158" x="1211" y="683.9102">ProposedCombinationsView</text><line style="stroke: #A80036; stroke-width: 1.5;" x1="1183" x2="1371" y1="695" y2="695"/><line style="stroke: #A80036; stroke-width: 1.5;" x1="1183" x2="1371" y1="703" y2="703"/><polygon fill="#4177AF" points="1193,711.418,1189,717.418,1197,717.418" style="stroke: #1963A0; stroke-width: 1.0;"/><text fill="#000000" font-family="sans-serif" font-size="11" lengthAdjust="spacingAndGlyphs" textLength="144" x="1202" y="718.4189">ProposedCombinationsView()</text><polygon fill="#4177AF" points="1193,725.2539,1189,731.2539,1197,731.2539" style="stroke: #1963A0; stroke-width: 1.0;"/><text fill="#000000" font-family="sans-serif" font-size="11" lengthAdjust="spacingAndGlyphs" textLength="78" x="1202" y="732.2549">add(Logic): void</text><!--class mastermind.views.graphics.SecretCombinationView--><rect fill="#FEFECE" filter="url(#ftxok59xj3qx8)" height="103.3438" id="mastermind.views.graphics.SecretCombinationView" style="stroke: #A80036; stroke-width: 1.5;" width="164" x="983" y="649.5"/><ellipse cx="998" cy="665.5" fill="#ADD1B2" rx="11" ry="11" style="stroke: #A80036; stroke-width: 1.0;"/><path d="M1000.7656,661.375 Q1000.9219,661.1563 1001.1094,661.0469 Q1001.2969,660.9375 1001.5156,660.9375 Q1001.8906,660.9375 1002.125,661.1953 Q1002.3594,661.4531 1002.3594,662.0625 L1002.3594,663.5156 Q1002.3594,664.125 1002.125,664.3906 Q1001.8906,664.6563 1001.5156,664.6563 Q1001.1719,664.6563 1000.9688,664.4531 Q1000.7656,664.2656 1000.6563,663.75 Q1000.6094,663.3906 1000.4219,663.2031 Q1000.0938,662.8281 999.4844,662.6094 Q998.875,662.3906 998.25,662.3906 Q997.4844,662.3906 996.8516,662.7188 Q996.2188,663.0469 995.7266,663.7969 Q995.2344,664.5469 995.2344,665.5781 L995.2344,666.6719 Q995.2344,667.9063 996.125,668.7266 Q997.0156,669.5469 998.6094,669.5469 Q999.5469,669.5469 1000.2031,669.2969 Q1000.5938,669.1406 1001.0156,668.7031 Q1001.2813,668.4375 1001.4297,668.3594 Q1001.5781,668.2813 1001.7813,668.2813 Q1002.1094,668.2813 1002.3672,668.5391 Q1002.625,668.7969 1002.625,669.1406 Q1002.625,669.4844 1002.2813,669.8906 Q1001.7813,670.4688 1000.9844,670.7969 Q999.9063,671.25 998.6094,671.25 Q997.0938,671.25 995.8906,670.625 Q994.9063,670.125 994.2188,669.0547 Q993.5313,667.9844 993.5313,666.7031 L993.5313,665.5469 Q993.5313,664.2188 994.1484,663.0703 Q994.7656,661.9219 995.8594,661.3047 Q996.9531,660.6875 998.1875,660.6875 Q998.9219,660.6875 999.5703,660.8516 Q1000.2188,661.0156 1000.7656,661.375 Z "/><text fill="#000000" font-family="sans-serif" font-size="12" lengthAdjust="spacingAndGlyphs" textLength="132" x="1012" y="670.4102">SecretCombinationView</text><line style="stroke: #A80036; stroke-width: 1.5;" x1="984" x2="1146" y1="681.5" y2="681.5"/><rect fill="none" height="6" style="stroke: #C82930; stroke-width: 1.0;" width="6" x="991" y="690.918"/><text fill="#000000" font-family="sans-serif" font-size="11" lengthAdjust="spacingAndGlyphs" text-decoration="underline" textLength="60" x="1003" y="696.9189">TITLE: String</text><rect fill="none" height="6" style="stroke: #C82930; stroke-width: 1.0;" width="6" x="991" y="704.7539"/><text fill="#000000" font-family="sans-serif" font-size="11" lengthAdjust="spacingAndGlyphs" textLength="53" x="1003" y="710.7549">title: JLabel</text><rect fill="none" height="6" style="stroke: #C82930; stroke-width: 1.0;" width="6" x="991" y="718.5898"/><text fill="#000000" font-family="sans-serif" font-size="11" lengthAdjust="spacingAndGlyphs" textLength="126" x="1003" y="724.5908">secretCombination: JLabel</text><line style="stroke: #A80036; stroke-width: 1.5;" x1="984" x2="1146" y1="731.0078" y2="731.0078"/><polygon fill="#4177AF" points="994,739.4258,990,745.4258,998,745.4258" style="stroke: #1963A0; stroke-width: 1.0;"/><text fill="#000000" font-family="sans-serif" font-size="11" lengthAdjust="spacingAndGlyphs" textLength="135" x="1003" y="746.4268">SecretCombinationView(int)</text><!--class mastermind.views.graphics.ProposalCombinationView--><rect fill="#FEFECE" filter="url(#ftxok59xj3qx8)" height="214.0313" id="mastermind.views.graphics.ProposalCombinationView" style="stroke: #A80036; stroke-width: 1.5;" width="211" x="736.5" y="594"/><ellipse cx="765.9" cy="610" fill="#ADD1B2" rx="11" ry="11" style="stroke: #A80036; stroke-width: 1.0;"/><path d="M768.6656,605.875 Q768.8219,605.6563 769.0094,605.5469 Q769.1969,605.4375 769.4156,605.4375 Q769.7906,605.4375 770.025,605.6953 Q770.2594,605.9531 770.2594,606.5625 L770.2594,608.0156 Q770.2594,608.625 770.025,608.8906 Q769.7906,609.1563 769.4156,609.1563 Q769.0719,609.1563 768.8688,608.9531 Q768.6656,608.7656 768.5563,608.25 Q768.5094,607.8906 768.3219,607.7031 Q767.9938,607.3281 767.3844,607.1094 Q766.775,606.8906 766.15,606.8906 Q765.3844,606.8906 764.7516,607.2188 Q764.1188,607.5469 763.6266,608.2969 Q763.1344,609.0469 763.1344,610.0781 L763.1344,611.1719 Q763.1344,612.4063 764.025,613.2266 Q764.9156,614.0469 766.5094,614.0469 Q767.4469,614.0469 768.1031,613.7969 Q768.4938,613.6406 768.9156,613.2031 Q769.1813,612.9375 769.3297,612.8594 Q769.4781,612.7813 769.6813,612.7813 Q770.0094,612.7813 770.2672,613.0391 Q770.525,613.2969 770.525,613.6406 Q770.525,613.9844 770.1813,614.3906 Q769.6813,614.9688 768.8844,615.2969 Q767.8063,615.75 766.5094,615.75 Q764.9938,615.75 763.7906,615.125 Q762.8063,614.625 762.1188,613.5547 Q761.4313,612.4844 761.4313,611.2031 L761.4313,610.0469 Q761.4313,608.7188 762.0484,607.5703 Q762.6656,606.4219 763.7594,605.8047 Q764.8531,605.1875 766.0875,605.1875 Q766.8219,605.1875 767.4703,605.3516 Q768.1188,605.5156 768.6656,605.875 Z "/><text fill="#000000" font-family="sans-serif" font-size="12" lengthAdjust="spacingAndGlyphs" textLength="147" x="783.1" y="614.9102">ProposalCombinationView</text><line style="stroke: #A80036; stroke-width: 1.5;" x1="737.5" x2="946.5" y1="626" y2="626"/><rect fill="none" height="6" style="stroke: #C82930; stroke-width: 1.0;" width="6" x="744.5" y="635.418"/><text fill="#000000" font-family="sans-serif" font-size="11" lengthAdjust="spacingAndGlyphs" text-decoration="underline" textLength="74" x="756.5" y="641.4189">ACCEPT: String</text><rect fill="none" height="6" style="stroke: #C82930; stroke-width: 1.0;" width="6" x="744.5" y="649.2539"/><text fill="#000000" font-family="sans-serif" font-size="11" lengthAdjust="spacingAndGlyphs" textLength="59" x="756.5" y="655.2549">label: JLabel</text><rect fill="none" height="6" style="stroke: #C82930; stroke-width: 1.0;" width="6" x="744.5" y="663.0898"/><text fill="#000000" font-family="sans-serif" font-size="11" lengthAdjust="spacingAndGlyphs" textLength="94" x="756.5" y="669.0908">textField: JTextField</text><rect fill="none" height="6" style="stroke: #C82930; stroke-width: 1.0;" width="6" x="744.5" y="676.9258"/><text fill="#000000" font-family="sans-serif" font-size="11" lengthAdjust="spacingAndGlyphs" textLength="72" x="756.5" y="682.9268">button: JButton</text><rect fill="none" height="6" style="stroke: #C82930; stroke-width: 1.0;" width="6" x="744.5" y="690.7617"/><text fill="#000000" font-family="sans-serif" font-size="11" lengthAdjust="spacingAndGlyphs" textLength="87" x="756.5" y="696.7627">characters: String</text><line style="stroke: #A80036; stroke-width: 1.5;" x1="737.5" x2="946.5" y1="703.1797" y2="703.1797"/><polygon fill="#4177AF" points="747.5,711.5977,743.5,717.5977,751.5,717.5977" style="stroke: #1963A0; stroke-width: 1.0;"/><text fill="#000000" font-family="sans-serif" font-size="11" lengthAdjust="spacingAndGlyphs" textLength="185" x="756.5" y="718.5986">ProposalCombinationView(JRootPane)</text><ellipse cx="747.5" cy="729.4336" fill="#84BE84" rx="3" ry="3" style="stroke: #038048; stroke-width: 1.0;"/><text fill="#000000" font-family="sans-serif" font-size="11" lengthAdjust="spacingAndGlyphs" textLength="137" x="756.5" y="732.4346">keyPressed(KeyEvent): void</text><ellipse cx="747.5" cy="743.2695" fill="#84BE84" rx="3" ry="3" style="stroke: #038048; stroke-width: 1.0;"/><text fill="#000000" font-family="sans-serif" font-size="11" lengthAdjust="spacingAndGlyphs" textLength="142" x="756.5" y="746.2705">keyReleased(KeyEvent): void</text><ellipse cx="747.5" cy="757.1055" fill="#84BE84" rx="3" ry="3" style="stroke: #038048; stroke-width: 1.0;"/><text fill="#000000" font-family="sans-serif" font-size="11" lengthAdjust="spacingAndGlyphs" textLength="127" x="756.5" y="760.1064">keyTyped(KeyEvent): void</text><polygon fill="#4177AF" points="747.5,766.9414,743.5,772.9414,751.5,772.9414" style="stroke: #1963A0; stroke-width: 1.0;"/><text fill="#000000" font-family="sans-serif" font-size="11" lengthAdjust="spacingAndGlyphs" textLength="113" x="756.5" y="773.9424">resetCharacters(): void</text><polygon fill="#4177AF" points="747.5,780.7773,743.5,786.7773,751.5,786.7773" style="stroke: #1963A0; stroke-width: 1.0;"/><text fill="#000000" font-family="sans-serif" font-size="11" lengthAdjust="spacingAndGlyphs" textLength="111" x="756.5" y="787.7783">getCharacters(): String</text><ellipse cx="747.5" cy="798.6133" fill="#84BE84" rx="3" ry="3" style="stroke: #038048; stroke-width: 1.0;"/><text fill="#000000" font-family="sans-serif" font-size="11" lengthAdjust="spacingAndGlyphs" textLength="171" x="756.5" y="801.6143">actionPerformed(ActionEvent): void</text><!--class mastermind.views.graphics.GraphicsView--><rect fill="#FEFECE" filter="url(#ftxok59xj3qx8)" height="117.1797" id="mastermind.views.graphics.GraphicsView" style="stroke: #A80036; stroke-width: 1.5;" width="138" x="1577" y="184"/><ellipse cx="1605.5" cy="200" fill="#ADD1B2" rx="11" ry="11" style="stroke: #A80036; stroke-width: 1.0;"/><path d="M1608.2656,195.875 Q1608.4219,195.6563 1608.6094,195.5469 Q1608.7969,195.4375 1609.0156,195.4375 Q1609.3906,195.4375 1609.625,195.6953 Q1609.8594,195.9531 1609.8594,196.5625 L1609.8594,198.0156 Q1609.8594,198.625 1609.625,198.8906 Q1609.3906,199.1563 1609.0156,199.1563 Q1608.6719,199.1563 1608.4688,198.9531 Q1608.2656,198.7656 1608.1563,198.25 Q1608.1094,197.8906 1607.9219,197.7031 Q1607.5938,197.3281 1606.9844,197.1094 Q1606.375,196.8906 1605.75,196.8906 Q1604.9844,196.8906 1604.3516,197.2188 Q1603.7188,197.5469 1603.2266,198.2969 Q1602.7344,199.0469 1602.7344,200.0781 L1602.7344,201.1719 Q1602.7344,202.4063 1603.625,203.2266 Q1604.5156,204.0469 1606.1094,204.0469 Q1607.0469,204.0469 1607.7031,203.7969 Q1608.0938,203.6406 1608.5156,203.2031 Q1608.7813,202.9375 1608.9297,202.8594 Q1609.0781,202.7813 1609.2813,202.7813 Q1609.6094,202.7813 1609.8672,203.0391 Q1610.125,203.2969 1610.125,203.6406 Q1610.125,203.9844 1609.7813,204.3906 Q1609.2813,204.9688 1608.4844,205.2969 Q1607.4063,205.75 1606.1094,205.75 Q1604.5938,205.75 1603.3906,205.125 Q1602.4063,204.625 1601.7188,203.5547 Q1601.0313,202.4844 1601.0313,201.2031 L1601.0313,200.0469 Q1601.0313,198.7188 1601.6484,197.5703 Q1602.2656,196.4219 1603.3594,195.8047 Q1604.4531,195.1875 1605.6875,195.1875 Q1606.4219,195.1875 1607.0703,195.3516 Q1607.7188,195.5156 1608.2656,195.875 Z "/><text fill="#000000" font-family="sans-serif" font-size="12" lengthAdjust="spacingAndGlyphs" textLength="76" x="1622.5" y="204.9102">GraphicsView</text><line style="stroke: #A80036; stroke-width: 1.5;" x1="1578" x2="1714" y1="216" y2="216"/><rect fill="none" height="6" style="stroke: #C82930; stroke-width: 1.0;" width="6" x="1585" y="225.418"/><text fill="#000000" font-family="sans-serif" font-size="11" lengthAdjust="spacingAndGlyphs" textLength="112" x="1597" y="231.4189">gameView: GameView</text><line style="stroke: #A80036; stroke-width: 1.5;" x1="1578" x2="1714" y1="237.8359" y2="237.8359"/><ellipse cx="1588" cy="250.2539" fill="#84BE84" rx="3" ry="3" style="stroke: #038048; stroke-width: 1.0;"/><text fill="#000000" font-family="sans-serif" font-size="11" lengthAdjust="spacingAndGlyphs" textLength="104" x="1597" y="253.2549">GraphicsView(Logic)</text><polygon fill="#FFFF44" points="1588,259.0898,1592,263.0898,1588,267.0898,1584,263.0898" style="stroke: #B38D22; stroke-width: 1.0;"/><text fill="#000000" font-family="sans-serif" font-size="11" lengthAdjust="spacingAndGlyphs" textLength="56" x="1597" y="267.0908">start(): void</text><polygon fill="#FFFF44" points="1588,272.9258,1592,276.9258,1588,280.9258,1584,276.9258" style="stroke: #B38D22; stroke-width: 1.0;"/><text fill="#000000" font-family="sans-serif" font-size="11" lengthAdjust="spacingAndGlyphs" textLength="88" x="1597" y="280.9268">resume(): boolean</text><polygon fill="#FFFF44" points="1588,286.7617,1592,290.7617,1588,294.7617,1584,290.7617" style="stroke: #B38D22; stroke-width: 1.0;"/><text fill="#000000" font-family="sans-serif" font-size="11" lengthAdjust="spacingAndGlyphs" textLength="92" x="1597" y="294.7627">propose(): boolean</text><!--class mastermind.views.graphics.ProposedCombinationView--><rect fill="#FEFECE" filter="url(#ftxok59xj3qx8)" height="103.3438" id="mastermind.views.graphics.ProposedCombinationView" style="stroke: #A80036; stroke-width: 1.5;" width="183" x="1172.5" y="191"/><ellipse cx="1187.5" cy="207" fill="#ADD1B2" rx="11" ry="11" style="stroke: #A80036; stroke-width: 1.0;"/><path d="M1190.2656,202.875 Q1190.4219,202.6563 1190.6094,202.5469 Q1190.7969,202.4375 1191.0156,202.4375 Q1191.3906,202.4375 1191.625,202.6953 Q1191.8594,202.9531 1191.8594,203.5625 L1191.8594,205.0156 Q1191.8594,205.625 1191.625,205.8906 Q1191.3906,206.1563 1191.0156,206.1563 Q1190.6719,206.1563 1190.4688,205.9531 Q1190.2656,205.7656 1190.1563,205.25 Q1190.1094,204.8906 1189.9219,204.7031 Q1189.5938,204.3281 1188.9844,204.1094 Q1188.375,203.8906 1187.75,203.8906 Q1186.9844,203.8906 1186.3516,204.2188 Q1185.7188,204.5469 1185.2266,205.2969 Q1184.7344,206.0469 1184.7344,207.0781 L1184.7344,208.1719 Q1184.7344,209.4063 1185.625,210.2266 Q1186.5156,211.0469 1188.1094,211.0469 Q1189.0469,211.0469 1189.7031,210.7969 Q1190.0938,210.6406 1190.5156,210.2031 Q1190.7813,209.9375 1190.9297,209.8594 Q1191.0781,209.7813 1191.2813,209.7813 Q1191.6094,209.7813 1191.8672,210.0391 Q1192.125,210.2969 1192.125,210.6406 Q1192.125,210.9844 1191.7813,211.3906 Q1191.2813,211.9688 1190.4844,212.2969 Q1189.4063,212.75 1188.1094,212.75 Q1186.5938,212.75 1185.3906,212.125 Q1184.4063,211.625 1183.7188,210.5547 Q1183.0313,209.4844 1183.0313,208.2031 L1183.0313,207.0469 Q1183.0313,205.7188 1183.6484,204.5703 Q1184.2656,203.4219 1185.3594,202.8047 Q1186.4531,202.1875 1187.6875,202.1875 Q1188.4219,202.1875 1189.0703,202.3516 Q1189.7188,202.5156 1190.2656,202.875 Z "/><text fill="#000000" font-family="sans-serif" font-size="12" lengthAdjust="spacingAndGlyphs" textLength="151" x="1201.5" y="211.9102">ProposedCombinationView</text><line style="stroke: #A80036; stroke-width: 1.5;" x1="1173.5" x2="1354.5" y1="223" y2="223"/><ellipse cx="1183.5" cy="235.418" fill="none" rx="3" ry="3" style="stroke: #038048; stroke-width: 1.0;"/><text fill="#000000" font-family="sans-serif" font-size="11" lengthAdjust="spacingAndGlyphs" text-decoration="underline" textLength="86" x="1192.5" y="238.4189">ERROR_CODE: int</text><line style="stroke: #A80036; stroke-width: 1.5;" x1="1173.5" x2="1354.5" y1="244.8359" y2="244.8359"/><polygon fill="#4177AF" points="1183.5,253.2539,1179.5,259.2539,1187.5,259.2539" style="stroke: #1963A0; stroke-width: 1.0;"/><text fill="#000000" font-family="sans-serif" font-size="11" lengthAdjust="spacingAndGlyphs" textLength="155" x="1192.5" y="260.2549">ProposedCombinationView(int[])</text><polygon fill="#4177AF" points="1183.5,267.0898,1179.5,273.0898,1187.5,273.0898" style="stroke: #1963A0; stroke-width: 1.0;"/><text fill="#000000" font-family="sans-serif" font-size="11" lengthAdjust="spacingAndGlyphs" textLength="138" x="1192.5" y="274.0908">ProposedCombinationView()</text><polygon fill="#4177AF" points="1183.5,280.9258,1179.5,286.9258,1187.5,286.9258" style="stroke: #1963A0; stroke-width: 1.0;"/><text fill="#000000" font-family="sans-serif" font-size="11" lengthAdjust="spacingAndGlyphs" textLength="81" x="1192.5" y="287.9268">read(String): int[]</text><!--class mastermind.views.graphics.ResultView--><rect fill="#FEFECE" filter="url(#ftxok59xj3qx8)" height="61.8359" id="mastermind.views.graphics.ResultView" style="stroke: #A80036; stroke-width: 1.5;" width="107" x="1030.5" y="211.5"/><ellipse cx="1051.35" cy="227.5" fill="#ADD1B2" rx="11" ry="11" style="stroke: #A80036; stroke-width: 1.0;"/><path d="M1054.1156,223.375 Q1054.2719,223.1563 1054.4594,223.0469 Q1054.6469,222.9375 1054.8656,222.9375 Q1055.2406,222.9375 1055.475,223.1953 Q1055.7094,223.4531 1055.7094,224.0625 L1055.7094,225.5156 Q1055.7094,226.125 1055.475,226.3906 Q1055.2406,226.6563 1054.8656,226.6563 Q1054.5219,226.6563 1054.3188,226.4531 Q1054.1156,226.2656 1054.0063,225.75 Q1053.9594,225.3906 1053.7719,225.2031 Q1053.4438,224.8281 1052.8344,224.6094 Q1052.225,224.3906 1051.6,224.3906 Q1050.8344,224.3906 1050.2016,224.7188 Q1049.5688,225.0469 1049.0766,225.7969 Q1048.5844,226.5469 1048.5844,227.5781 L1048.5844,228.6719 Q1048.5844,229.9063 1049.475,230.7266 Q1050.3656,231.5469 1051.9594,231.5469 Q1052.8969,231.5469 1053.5531,231.2969 Q1053.9438,231.1406 1054.3656,230.7031 Q1054.6313,230.4375 1054.7797,230.3594 Q1054.9281,230.2813 1055.1313,230.2813 Q1055.4594,230.2813 1055.7172,230.5391 Q1055.975,230.7969 1055.975,231.1406 Q1055.975,231.4844 1055.6313,231.8906 Q1055.1313,232.4688 1054.3344,232.7969 Q1053.2563,233.25 1051.9594,233.25 Q1050.4438,233.25 1049.2406,232.625 Q1048.2563,232.125 1047.5688,231.0547 Q1046.8813,229.9844 1046.8813,228.7031 L1046.8813,227.5469 Q1046.8813,226.2188 1047.4984,225.0703 Q1048.1156,223.9219 1049.2094,223.3047 Q1050.3031,222.6875 1051.5375,222.6875 Q1052.2719,222.6875 1052.9203,222.8516 Q1053.5688,223.0156 1054.1156,223.375 Z "/><text fill="#000000" font-family="sans-serif" font-size="12" lengthAdjust="spacingAndGlyphs" textLength="62" x="1066.65" y="232.4102">ResultView</text><line style="stroke: #A80036; stroke-width: 1.5;" x1="1031.5" x2="1136.5" y1="243.5" y2="243.5"/><line style="stroke: #A80036; stroke-width: 1.5;" x1="1031.5" x2="1136.5" y1="251.5" y2="251.5"/><polygon fill="#4177AF" points="1041.5,259.918,1037.5,265.918,1045.5,265.918" style="stroke: #1963A0; stroke-width: 1.0;"/><text fill="#000000" font-family="sans-serif" font-size="11" lengthAdjust="spacingAndGlyphs" textLength="81" x="1050.5" y="266.9189">ResultView(int[])</text><!--class mastermind.views.graphics.ResumeDialog--><rect fill="#FEFECE" filter="url(#ftxok59xj3qx8)" height="89.5078" id="mastermind.views.graphics.ResumeDialog" style="stroke: #A80036; stroke-width: 1.5;" width="131" x="864.5" y="197.5"/><ellipse cx="886.25" cy="213.5" fill="#ADD1B2" rx="11" ry="11" style="stroke: #A80036; stroke-width: 1.0;"/><path d="M889.0156,209.375 Q889.1719,209.1563 889.3594,209.0469 Q889.5469,208.9375 889.7656,208.9375 Q890.1406,208.9375 890.375,209.1953 Q890.6094,209.4531 890.6094,210.0625 L890.6094,211.5156 Q890.6094,212.125 890.375,212.3906 Q890.1406,212.6563 889.7656,212.6563 Q889.4219,212.6563 889.2188,212.4531 Q889.0156,212.2656 888.9063,211.75 Q888.8594,211.3906 888.6719,211.2031 Q888.3438,210.8281 887.7344,210.6094 Q887.125,210.3906 886.5,210.3906 Q885.7344,210.3906 885.1016,210.7188 Q884.4688,211.0469 883.9766,211.7969 Q883.4844,212.5469 883.4844,213.5781 L883.4844,214.6719 Q883.4844,215.9063 884.375,216.7266 Q885.2656,217.5469 886.8594,217.5469 Q887.7969,217.5469 888.4531,217.2969 Q888.8438,217.1406 889.2656,216.7031 Q889.5313,216.4375 889.6797,216.3594 Q889.8281,216.2813 890.0313,216.2813 Q890.3594,216.2813 890.6172,216.5391 Q890.875,216.7969 890.875,217.1406 Q890.875,217.4844 890.5313,217.8906 Q890.0313,218.4688 889.2344,218.7969 Q888.1563,219.25 886.8594,219.25 Q885.3438,219.25 884.1406,218.625 Q883.1563,218.125 882.4688,217.0547 Q881.7813,215.9844 881.7813,214.7031 L881.7813,213.5469 Q881.7813,212.2188 882.3984,211.0703 Q883.0156,209.9219 884.1094,209.3047 Q885.2031,208.6875 886.4375,208.6875 Q887.1719,208.6875 887.8203,208.8516 Q888.4688,209.0156 889.0156,209.375 Z "/><text fill="#000000" font-family="sans-serif" font-size="12" lengthAdjust="spacingAndGlyphs" textLength="84" x="901.75" y="218.4102">ResumeDialog</text><line style="stroke: #A80036; stroke-width: 1.5;" x1="865.5" x2="994.5" y1="229.5" y2="229.5"/><rect fill="none" height="6" style="stroke: #C82930; stroke-width: 1.0;" width="6" x="872.5" y="238.918"/><text fill="#000000" font-family="sans-serif" font-size="11" lengthAdjust="spacingAndGlyphs" textLength="80" x="884.5" y="244.9189">resume: boolean</text><line style="stroke: #A80036; stroke-width: 1.5;" x1="865.5" x2="994.5" y1="251.3359" y2="251.3359"/><polygon fill="#4177AF" points="875.5,259.7539,871.5,265.7539,879.5,265.7539" style="stroke: #1963A0; stroke-width: 1.0;"/><text fill="#000000" font-family="sans-serif" font-size="11" lengthAdjust="spacingAndGlyphs" textLength="76" x="884.5" y="266.7549">ResumeDialog()</text><polygon fill="#4177AF" points="875.5,273.5898,871.5,279.5898,879.5,279.5898" style="stroke: #1963A0; stroke-width: 1.0;"/><text fill="#000000" font-family="sans-serif" font-size="11" lengthAdjust="spacingAndGlyphs" textLength="105" x="884.5" y="280.5908">isResumed(): boolean</text><!--class mastermind.views.graphics.TurnView--><rect fill="#FEFECE" filter="url(#ftxok59xj3qx8)" height="61.8359" id="mastermind.views.graphics.TurnView" style="stroke: #A80036; stroke-width: 1.5;" width="93" x="736.5" y="211.5"/><ellipse cx="756" cy="227.5" fill="#ADD1B2" rx="11" ry="11" style="stroke: #A80036; stroke-width: 1.0;"/><path d="M758.7656,223.375 Q758.9219,223.1563 759.1094,223.0469 Q759.2969,222.9375 759.5156,222.9375 Q759.8906,222.9375 760.125,223.1953 Q760.3594,223.4531 760.3594,224.0625 L760.3594,225.5156 Q760.3594,226.125 760.125,226.3906 Q759.8906,226.6563 759.5156,226.6563 Q759.1719,226.6563 758.9688,226.4531 Q758.7656,226.2656 758.6563,225.75 Q758.6094,225.3906 758.4219,225.2031 Q758.0938,224.8281 757.4844,224.6094 Q756.875,224.3906 756.25,224.3906 Q755.4844,224.3906 754.8516,224.7188 Q754.2188,225.0469 753.7266,225.7969 Q753.2344,226.5469 753.2344,227.5781 L753.2344,228.6719 Q753.2344,229.9063 754.125,230.7266 Q755.0156,231.5469 756.6094,231.5469 Q757.5469,231.5469 758.2031,231.2969 Q758.5938,231.1406 759.0156,230.7031 Q759.2813,230.4375 759.4297,230.3594 Q759.5781,230.2813 759.7813,230.2813 Q760.1094,230.2813 760.3672,230.5391 Q760.625,230.7969 760.625,231.1406 Q760.625,231.4844 760.2813,231.8906 Q759.7813,232.4688 758.9844,232.7969 Q757.9063,233.25 756.6094,233.25 Q755.0938,233.25 753.8906,232.625 Q752.9063,232.125 752.2188,231.0547 Q751.5313,229.9844 751.5313,228.7031 L751.5313,227.5469 Q751.5313,226.2188 752.1484,225.0703 Q752.7656,223.9219 753.8594,223.3047 Q754.9531,222.6875 756.1875,222.6875 Q756.9219,222.6875 757.5703,222.8516 Q758.2188,223.0156 758.7656,223.375 Z "/><text fill="#000000" font-family="sans-serif" font-size="12" lengthAdjust="spacingAndGlyphs" textLength="51" x="771" y="232.4102">TurnView</text><line style="stroke: #A80036; stroke-width: 1.5;" x1="737.5" x2="828.5" y1="243.5" y2="243.5"/><line style="stroke: #A80036; stroke-width: 1.5;" x1="737.5" x2="828.5" y1="251.5" y2="251.5"/><polygon fill="#4177AF" points="747.5,259.918,743.5,265.918,751.5,265.918" style="stroke: #1963A0; stroke-width: 1.0;"/><text fill="#000000" font-family="sans-serif" font-size="11" lengthAdjust="spacingAndGlyphs" textLength="67" x="756.5" y="266.9189">TurnView(int)</text><!--class java.awt.GridBagConstraints--><rect fill="#FEFECE" filter="url(#ftxok59xj3qx8)" height="48" id="java.awt.GridBagConstraints" style="stroke: #A80036; stroke-width: 1.5;" width="141" x="1395.5" y="60"/><ellipse cx="1410.5" cy="76" fill="#ADD1B2" rx="11" ry="11" style="stroke: #A80036; stroke-width: 1.0;"/><path d="M1413.2656,71.875 Q1413.4219,71.6563 1413.6094,71.5469 Q1413.7969,71.4375 1414.0156,71.4375 Q1414.3906,71.4375 1414.625,71.6953 Q1414.8594,71.9531 1414.8594,72.5625 L1414.8594,74.0156 Q1414.8594,74.625 1414.625,74.8906 Q1414.3906,75.1563 1414.0156,75.1563 Q1413.6719,75.1563 1413.4688,74.9531 Q1413.2656,74.7656 1413.1563,74.25 Q1413.1094,73.8906 1412.9219,73.7031 Q1412.5938,73.3281 1411.9844,73.1094 Q1411.375,72.8906 1410.75,72.8906 Q1409.9844,72.8906 1409.3516,73.2188 Q1408.7188,73.5469 1408.2266,74.2969 Q1407.7344,75.0469 1407.7344,76.0781 L1407.7344,77.1719 Q1407.7344,78.4063 1408.625,79.2266 Q1409.5156,80.0469 1411.1094,80.0469 Q1412.0469,80.0469 1412.7031,79.7969 Q1413.0938,79.6406 1413.5156,79.2031 Q1413.7813,78.9375 1413.9297,78.8594 Q1414.0781,78.7813 1414.2813,78.7813 Q1414.6094,78.7813 1414.8672,79.0391 Q1415.125,79.2969 1415.125,79.6406 Q1415.125,79.9844 1414.7813,80.3906 Q1414.2813,80.9688 1413.4844,81.2969 Q1412.4063,81.75 1411.1094,81.75 Q1409.5938,81.75 1408.3906,81.125 Q1407.4063,80.625 1406.7188,79.5547 Q1406.0313,78.4844 1406.0313,77.2031 L1406.0313,76.0469 Q1406.0313,74.7188 1406.6484,73.5703 Q1407.2656,72.4219 1408.3594,71.8047 Q1409.4531,71.1875 1410.6875,71.1875 Q1411.4219,71.1875 1412.0703,71.3516 Q1412.7188,71.5156 1413.2656,71.875 Z "/><text fill="#000000" font-family="sans-serif" font-size="12" lengthAdjust="spacingAndGlyphs" textLength="109" x="1424.5" y="80.9102">GridBagConstraints</text><line style="stroke: #A80036; stroke-width: 1.5;" x1="1396.5" x2="1535.5" y1="92" y2="92"/><line style="stroke: #A80036; stroke-width: 1.5;" x1="1396.5" x2="1535.5" y1="100" y2="100"/><!--class javax.swing.JFrame--><rect fill="#FEFECE" filter="url(#ftxok59xj3qx8)" height="48" id="javax.swing.JFrame" style="stroke: #A80036; stroke-width: 1.5;" width="74" x="606" y="423.5"/><ellipse cx="621" cy="439.5" fill="#ADD1B2" rx="11" ry="11" style="stroke: #A80036; stroke-width: 1.0;"/><path d="M623.7656,435.375 Q623.9219,435.1563 624.1094,435.0469 Q624.2969,434.9375 624.5156,434.9375 Q624.8906,434.9375 625.125,435.1953 Q625.3594,435.4531 625.3594,436.0625 L625.3594,437.5156 Q625.3594,438.125 625.125,438.3906 Q624.8906,438.6563 624.5156,438.6563 Q624.1719,438.6563 623.9688,438.4531 Q623.7656,438.2656 623.6563,437.75 Q623.6094,437.3906 623.4219,437.2031 Q623.0938,436.8281 622.4844,436.6094 Q621.875,436.3906 621.25,436.3906 Q620.4844,436.3906 619.8516,436.7188 Q619.2188,437.0469 618.7266,437.7969 Q618.2344,438.5469 618.2344,439.5781 L618.2344,440.6719 Q618.2344,441.9063 619.125,442.7266 Q620.0156,443.5469 621.6094,443.5469 Q622.5469,443.5469 623.2031,443.2969 Q623.5938,443.1406 624.0156,442.7031 Q624.2813,442.4375 624.4297,442.3594 Q624.5781,442.2813 624.7813,442.2813 Q625.1094,442.2813 625.3672,442.5391 Q625.625,442.7969 625.625,443.1406 Q625.625,443.4844 625.2813,443.8906 Q624.7813,444.4688 623.9844,444.7969 Q622.9063,445.25 621.6094,445.25 Q620.0938,445.25 618.8906,444.625 Q617.9063,444.125 617.2188,443.0547 Q616.5313,441.9844 616.5313,440.7031 L616.5313,439.5469 Q616.5313,438.2188 617.1484,437.0703 Q617.7656,435.9219 618.8594,435.3047 Q619.9531,434.6875 621.1875,434.6875 Q621.9219,434.6875 622.5703,434.8516 Q623.2188,435.0156 623.7656,435.375 Z "/><text fill="#000000" font-family="sans-serif" font-size="12" lengthAdjust="spacingAndGlyphs" textLength="42" x="635" y="444.4102">JFrame</text><line style="stroke: #A80036; stroke-width: 1.5;" x1="607" x2="679" y1="455.5" y2="455.5"/><line style="stroke: #A80036; stroke-width: 1.5;" x1="607" x2="679" y1="463.5" y2="463.5"/><!--class javax.swing.JPanel--><rect fill="#FEFECE" filter="url(#ftxok59xj3qx8)" height="48" id="javax.swing.JPanel" style="stroke: #A80036; stroke-width: 1.5;" width="70" x="501" y="423.5"/><ellipse cx="516" cy="439.5" fill="#ADD1B2" rx="11" ry="11" style="stroke: #A80036; stroke-width: 1.0;"/><path d="M518.7656,435.375 Q518.9219,435.1563 519.1094,435.0469 Q519.2969,434.9375 519.5156,434.9375 Q519.8906,434.9375 520.125,435.1953 Q520.3594,435.4531 520.3594,436.0625 L520.3594,437.5156 Q520.3594,438.125 520.125,438.3906 Q519.8906,438.6563 519.5156,438.6563 Q519.1719,438.6563 518.9688,438.4531 Q518.7656,438.2656 518.6563,437.75 Q518.6094,437.3906 518.4219,437.2031 Q518.0938,436.8281 517.4844,436.6094 Q516.875,436.3906 516.25,436.3906 Q515.4844,436.3906 514.8516,436.7188 Q514.2188,437.0469 513.7266,437.7969 Q513.2344,438.5469 513.2344,439.5781 L513.2344,440.6719 Q513.2344,441.9063 514.125,442.7266 Q515.0156,443.5469 516.6094,443.5469 Q517.5469,443.5469 518.2031,443.2969 Q518.5938,443.1406 519.0156,442.7031 Q519.2813,442.4375 519.4297,442.3594 Q519.5781,442.2813 519.7813,442.2813 Q520.1094,442.2813 520.3672,442.5391 Q520.625,442.7969 520.625,443.1406 Q520.625,443.4844 520.2813,443.8906 Q519.7813,444.4688 518.9844,444.7969 Q517.9063,445.25 516.6094,445.25 Q515.0938,445.25 513.8906,444.625 Q512.9063,444.125 512.2188,443.0547 Q511.5313,441.9844 511.5313,440.7031 L511.5313,439.5469 Q511.5313,438.2188 512.1484,437.0703 Q512.7656,435.9219 513.8594,435.3047 Q514.9531,434.6875 516.1875,434.6875 Q516.9219,434.6875 517.5703,434.8516 Q518.2188,435.0156 518.7656,435.375 Z "/><text fill="#000000" font-family="sans-serif" font-size="12" lengthAdjust="spacingAndGlyphs" textLength="38" x="530" y="444.4102">JPanel</text><line style="stroke: #A80036; stroke-width: 1.5;" x1="502" x2="570" y1="455.5" y2="455.5"/><line style="stroke: #A80036; stroke-width: 1.5;" x1="502" x2="570" y1="463.5" y2="463.5"/><!--class javax.swing.JButton--><rect fill="#FEFECE" filter="url(#ftxok59xj3qx8)" height="48" id="javax.swing.JButton" style="stroke: #A80036; stroke-width: 1.5;" width="73" x="160.5" y="423.5"/><ellipse cx="175.5" cy="439.5" fill="#ADD1B2" rx="11" ry="11" style="stroke: #A80036; stroke-width: 1.0;"/><path d="M178.2656,435.375 Q178.4219,435.1563 178.6094,435.0469 Q178.7969,434.9375 179.0156,434.9375 Q179.3906,434.9375 179.625,435.1953 Q179.8594,435.4531 179.8594,436.0625 L179.8594,437.5156 Q179.8594,438.125 179.625,438.3906 Q179.3906,438.6563 179.0156,438.6563 Q178.6719,438.6563 178.4688,438.4531 Q178.2656,438.2656 178.1563,437.75 Q178.1094,437.3906 177.9219,437.2031 Q177.5938,436.8281 176.9844,436.6094 Q176.375,436.3906 175.75,436.3906 Q174.9844,436.3906 174.3516,436.7188 Q173.7188,437.0469 173.2266,437.7969 Q172.7344,438.5469 172.7344,439.5781 L172.7344,440.6719 Q172.7344,441.9063 173.625,442.7266 Q174.5156,443.5469 176.1094,443.5469 Q177.0469,443.5469 177.7031,443.2969 Q178.0938,443.1406 178.5156,442.7031 Q178.7813,442.4375 178.9297,442.3594 Q179.0781,442.2813 179.2813,442.2813 Q179.6094,442.2813 179.8672,442.5391 Q180.125,442.7969 180.125,443.1406 Q180.125,443.4844 179.7813,443.8906 Q179.2813,444.4688 178.4844,444.7969 Q177.4063,445.25 176.1094,445.25 Q174.5938,445.25 173.3906,444.625 Q172.4063,444.125 171.7188,443.0547 Q171.0313,441.9844 171.0313,440.7031 L171.0313,439.5469 Q171.0313,438.2188 171.6484,437.0703 Q172.2656,435.9219 173.3594,435.3047 Q174.4531,434.6875 175.6875,434.6875 Q176.4219,434.6875 177.0703,434.8516 Q177.7188,435.0156 178.2656,435.375 Z "/><text fill="#000000" font-family="sans-serif" font-size="12" lengthAdjust="spacingAndGlyphs" textLength="41" x="189.5" y="444.4102">JButton</text><line style="stroke: #A80036; stroke-width: 1.5;" x1="161.5" x2="232.5" y1="455.5" y2="455.5"/><line style="stroke: #A80036; stroke-width: 1.5;" x1="161.5" x2="232.5" y1="463.5" y2="463.5"/><!--class javax.swing.JTextField--><rect fill="#FEFECE" filter="url(#ftxok59xj3qx8)" height="48" id="javax.swing.JTextField" style="stroke: #A80036; stroke-width: 1.5;" width="87" x="38.5" y="423.5"/><ellipse cx="53.5" cy="439.5" fill="#ADD1B2" rx="11" ry="11" style="stroke: #A80036; stroke-width: 1.0;"/><path d="M56.2656,435.375 Q56.4219,435.1563 56.6094,435.0469 Q56.7969,434.9375 57.0156,434.9375 Q57.3906,434.9375 57.625,435.1953 Q57.8594,435.4531 57.8594,436.0625 L57.8594,437.5156 Q57.8594,438.125 57.625,438.3906 Q57.3906,438.6563 57.0156,438.6563 Q56.6719,438.6563 56.4688,438.4531 Q56.2656,438.2656 56.1563,437.75 Q56.1094,437.3906 55.9219,437.2031 Q55.5938,436.8281 54.9844,436.6094 Q54.375,436.3906 53.75,436.3906 Q52.9844,436.3906 52.3516,436.7188 Q51.7188,437.0469 51.2266,437.7969 Q50.7344,438.5469 50.7344,439.5781 L50.7344,440.6719 Q50.7344,441.9063 51.625,442.7266 Q52.5156,443.5469 54.1094,443.5469 Q55.0469,443.5469 55.7031,443.2969 Q56.0938,443.1406 56.5156,442.7031 Q56.7813,442.4375 56.9297,442.3594 Q57.0781,442.2813 57.2813,442.2813 Q57.6094,442.2813 57.8672,442.5391 Q58.125,442.7969 58.125,443.1406 Q58.125,443.4844 57.7813,443.8906 Q57.2813,444.4688 56.4844,444.7969 Q55.4063,445.25 54.1094,445.25 Q52.5938,445.25 51.3906,444.625 Q50.4063,444.125 49.7188,443.0547 Q49.0313,441.9844 49.0313,440.7031 L49.0313,439.5469 Q49.0313,438.2188 49.6484,437.0703 Q50.2656,435.9219 51.3594,435.3047 Q52.4531,434.6875 53.6875,434.6875 Q54.4219,434.6875 55.0703,434.8516 Q55.7188,435.0156 56.2656,435.375 Z "/><text fill="#000000" font-family="sans-serif" font-size="12" lengthAdjust="spacingAndGlyphs" textLength="55" x="67.5" y="444.4102">JTextField</text><line style="stroke: #A80036; stroke-width: 1.5;" x1="39.5" x2="124.5" y1="455.5" y2="455.5"/><line style="stroke: #A80036; stroke-width: 1.5;" x1="39.5" x2="124.5" y1="463.5" y2="463.5"/><!--class javax.swing.JLabel--><rect fill="#FEFECE" filter="url(#ftxok59xj3qx8)" height="48" id="javax.swing.JLabel" style="stroke: #A80036; stroke-width: 1.5;" width="69" x="396.5" y="423.5"/><ellipse cx="411.5" cy="439.5" fill="#ADD1B2" rx="11" ry="11" style="stroke: #A80036; stroke-width: 1.0;"/><path d="M414.2656,435.375 Q414.4219,435.1563 414.6094,435.0469 Q414.7969,434.9375 415.0156,434.9375 Q415.3906,434.9375 415.625,435.1953 Q415.8594,435.4531 415.8594,436.0625 L415.8594,437.5156 Q415.8594,438.125 415.625,438.3906 Q415.3906,438.6563 415.0156,438.6563 Q414.6719,438.6563 414.4688,438.4531 Q414.2656,438.2656 414.1563,437.75 Q414.1094,437.3906 413.9219,437.2031 Q413.5938,436.8281 412.9844,436.6094 Q412.375,436.3906 411.75,436.3906 Q410.9844,436.3906 410.3516,436.7188 Q409.7188,437.0469 409.2266,437.7969 Q408.7344,438.5469 408.7344,439.5781 L408.7344,440.6719 Q408.7344,441.9063 409.625,442.7266 Q410.5156,443.5469 412.1094,443.5469 Q413.0469,443.5469 413.7031,443.2969 Q414.0938,443.1406 414.5156,442.7031 Q414.7813,442.4375 414.9297,442.3594 Q415.0781,442.2813 415.2813,442.2813 Q415.6094,442.2813 415.8672,442.5391 Q416.125,442.7969 416.125,443.1406 Q416.125,443.4844 415.7813,443.8906 Q415.2813,444.4688 414.4844,444.7969 Q413.4063,445.25 412.1094,445.25 Q410.5938,445.25 409.3906,444.625 Q408.4063,444.125 407.7188,443.0547 Q407.0313,441.9844 407.0313,440.7031 L407.0313,439.5469 Q407.0313,438.2188 407.6484,437.0703 Q408.2656,435.9219 409.3594,435.3047 Q410.4531,434.6875 411.6875,434.6875 Q412.4219,434.6875 413.0703,434.8516 Q413.7188,435.0156 414.2656,435.375 Z "/><text fill="#000000" font-family="sans-serif" font-size="12" lengthAdjust="spacingAndGlyphs" textLength="37" x="425.5" y="444.4102">JLabel</text><line style="stroke: #A80036; stroke-width: 1.5;" x1="397.5" x2="464.5" y1="455.5" y2="455.5"/><line style="stroke: #A80036; stroke-width: 1.5;" x1="397.5" x2="464.5" y1="463.5" y2="463.5"/><!--class javax.swing.JRootPane--><rect fill="#FEFECE" filter="url(#ftxok59xj3qx8)" height="48" id="javax.swing.JRootPane" style="stroke: #A80036; stroke-width: 1.5;" width="93" x="268.5" y="423.5"/><ellipse cx="283.5" cy="439.5" fill="#ADD1B2" rx="11" ry="11" style="stroke: #A80036; stroke-width: 1.0;"/><path d="M286.2656,435.375 Q286.4219,435.1563 286.6094,435.0469 Q286.7969,434.9375 287.0156,434.9375 Q287.3906,434.9375 287.625,435.1953 Q287.8594,435.4531 287.8594,436.0625 L287.8594,437.5156 Q287.8594,438.125 287.625,438.3906 Q287.3906,438.6563 287.0156,438.6563 Q286.6719,438.6563 286.4688,438.4531 Q286.2656,438.2656 286.1563,437.75 Q286.1094,437.3906 285.9219,437.2031 Q285.5938,436.8281 284.9844,436.6094 Q284.375,436.3906 283.75,436.3906 Q282.9844,436.3906 282.3516,436.7188 Q281.7188,437.0469 281.2266,437.7969 Q280.7344,438.5469 280.7344,439.5781 L280.7344,440.6719 Q280.7344,441.9063 281.625,442.7266 Q282.5156,443.5469 284.1094,443.5469 Q285.0469,443.5469 285.7031,443.2969 Q286.0938,443.1406 286.5156,442.7031 Q286.7813,442.4375 286.9297,442.3594 Q287.0781,442.2813 287.2813,442.2813 Q287.6094,442.2813 287.8672,442.5391 Q288.125,442.7969 288.125,443.1406 Q288.125,443.4844 287.7813,443.8906 Q287.2813,444.4688 286.4844,444.7969 Q285.4063,445.25 284.1094,445.25 Q282.5938,445.25 281.3906,444.625 Q280.4063,444.125 279.7188,443.0547 Q279.0313,441.9844 279.0313,440.7031 L279.0313,439.5469 Q279.0313,438.2188 279.6484,437.0703 Q280.2656,435.9219 281.3594,435.3047 Q282.4531,434.6875 283.6875,434.6875 Q284.4219,434.6875 285.0703,434.8516 Q285.7188,435.0156 286.2656,435.375 Z "/><text fill="#000000" font-family="sans-serif" font-size="12" lengthAdjust="spacingAndGlyphs" textLength="61" x="297.5" y="444.4102">JRootPane</text><line style="stroke: #A80036; stroke-width: 1.5;" x1="269.5" x2="360.5" y1="455.5" y2="455.5"/><line style="stroke: #A80036; stroke-width: 1.5;" x1="269.5" x2="360.5" y1="463.5" y2="463.5"/><!--class mastermind.controllers.Logic--><rect fill="#FEFECE" filter="url(#ftxok59xj3qx8)" height="48" id="mastermind.controllers.Logic" style="stroke: #A80036; stroke-width: 1.5;" width="62" x="1320" y="884"/><ellipse cx="1335" cy="900" fill="#ADD1B2" rx="11" ry="11" style="stroke: #A80036; stroke-width: 1.0;"/><path d="M1337.7656,895.875 Q1337.9219,895.6563 1338.1094,895.5469 Q1338.2969,895.4375 1338.5156,895.4375 Q1338.8906,895.4375 1339.125,895.6953 Q1339.3594,895.9531 1339.3594,896.5625 L1339.3594,898.0156 Q1339.3594,898.625 1339.125,898.8906 Q1338.8906,899.1563 1338.5156,899.1563 Q1338.1719,899.1563 1337.9688,898.9531 Q1337.7656,898.7656 1337.6563,898.25 Q1337.6094,897.8906 1337.4219,897.7031 Q1337.0938,897.3281 1336.4844,897.1094 Q1335.875,896.8906 1335.25,896.8906 Q1334.4844,896.8906 1333.8516,897.2188 Q1333.2188,897.5469 1332.7266,898.2969 Q1332.2344,899.0469 1332.2344,900.0781 L1332.2344,901.1719 Q1332.2344,902.4063 1333.125,903.2266 Q1334.0156,904.0469 1335.6094,904.0469 Q1336.5469,904.0469 1337.2031,903.7969 Q1337.5938,903.6406 1338.0156,903.2031 Q1338.2813,902.9375 1338.4297,902.8594 Q1338.5781,902.7813 1338.7813,902.7813 Q1339.1094,902.7813 1339.3672,903.0391 Q1339.625,903.2969 1339.625,903.6406 Q1339.625,903.9844 1339.2813,904.3906 Q1338.7813,904.9688 1337.9844,905.2969 Q1336.9063,905.75 1335.6094,905.75 Q1334.0938,905.75 1332.8906,905.125 Q1331.9063,904.625 1331.2188,903.5547 Q1330.5313,902.4844 1330.5313,901.2031 L1330.5313,900.0469 Q1330.5313,898.7188 1331.1484,897.5703 Q1331.7656,896.4219 1332.8594,895.8047 Q1333.9531,895.1875 1335.1875,895.1875 Q1335.9219,895.1875 1336.5703,895.3516 Q1337.2188,895.5156 1337.7656,895.875 Z "/><text fill="#000000" font-family="sans-serif" font-size="12" lengthAdjust="spacingAndGlyphs" textLength="30" x="1349" y="904.9102">Logic</text><line style="stroke: #A80036; stroke-width: 1.5;" x1="1321" x2="1381" y1="916" y2="916"/><line style="stroke: #A80036; stroke-width: 1.5;" x1="1321" x2="1381" y1="924" y2="924"/><!--class mastermind.views.View--><rect fill="#FEFECE" filter="url(#ftxok59xj3qx8)" height="48" id="mastermind.views.View" style="stroke: #A80036; stroke-width: 1.5;" width="58" x="1617" y="60"/><ellipse cx="1632" cy="76" fill="#ADD1B2" rx="11" ry="11" style="stroke: #A80036; stroke-width: 1.0;"/><path d="M1634.7656,71.875 Q1634.9219,71.6563 1635.1094,71.5469 Q1635.2969,71.4375 1635.5156,71.4375 Q1635.8906,71.4375 1636.125,71.6953 Q1636.3594,71.9531 1636.3594,72.5625 L1636.3594,74.0156 Q1636.3594,74.625 1636.125,74.8906 Q1635.8906,75.1563 1635.5156,75.1563 Q1635.1719,75.1563 1634.9688,74.9531 Q1634.7656,74.7656 1634.6563,74.25 Q1634.6094,73.8906 1634.4219,73.7031 Q1634.0938,73.3281 1633.4844,73.1094 Q1632.875,72.8906 1632.25,72.8906 Q1631.4844,72.8906 1630.8516,73.2188 Q1630.2188,73.5469 1629.7266,74.2969 Q1629.2344,75.0469 1629.2344,76.0781 L1629.2344,77.1719 Q1629.2344,78.4063 1630.125,79.2266 Q1631.0156,80.0469 1632.6094,80.0469 Q1633.5469,80.0469 1634.2031,79.7969 Q1634.5938,79.6406 1635.0156,79.2031 Q1635.2813,78.9375 1635.4297,78.8594 Q1635.5781,78.7813 1635.7813,78.7813 Q1636.1094,78.7813 1636.3672,79.0391 Q1636.625,79.2969 1636.625,79.6406 Q1636.625,79.9844 1636.2813,80.3906 Q1635.7813,80.9688 1634.9844,81.2969 Q1633.9063,81.75 1632.6094,81.75 Q1631.0938,81.75 1629.8906,81.125 Q1628.9063,80.625 1628.2188,79.5547 Q1627.5313,78.4844 1627.5313,77.2031 L1627.5313,76.0469 Q1627.5313,74.7188 1628.1484,73.5703 Q1628.7656,72.4219 1629.8594,71.8047 Q1630.9531,71.1875 1632.1875,71.1875 Q1632.9219,71.1875 1633.5703,71.3516 Q1634.2188,71.5156 1634.7656,71.875 Z "/><text fill="#000000" font-family="sans-serif" font-size="12" lengthAdjust="spacingAndGlyphs" textLength="26" x="1646" y="80.9102">View</text><line style="stroke: #A80036; stroke-width: 1.5;" x1="1618" x2="1674" y1="92" y2="92"/><line style="stroke: #A80036; stroke-width: 1.5;" x1="1618" x2="1674" y1="100" y2="100"/><!--class java.awt.event.KeyListener--><rect fill="#FEFECE" filter="url(#ftxok59xj3qx8)" height="48" id="java.awt.event.KeyListener" style="stroke: #A80036; stroke-width: 1.5;" width="97" x="727.5" y="884"/><ellipse cx="742.5" cy="900" fill="#ADD1B2" rx="11" ry="11" style="stroke: #A80036; stroke-width: 1.0;"/><path d="M745.2656,895.875 Q745.4219,895.6563 745.6094,895.5469 Q745.7969,895.4375 746.0156,895.4375 Q746.3906,895.4375 746.625,895.6953 Q746.8594,895.9531 746.8594,896.5625 L746.8594,898.0156 Q746.8594,898.625 746.625,898.8906 Q746.3906,899.1563 746.0156,899.1563 Q745.6719,899.1563 745.4688,898.9531 Q745.2656,898.7656 745.1563,898.25 Q745.1094,897.8906 744.9219,897.7031 Q744.5938,897.3281 743.9844,897.1094 Q743.375,896.8906 742.75,896.8906 Q741.9844,896.8906 741.3516,897.2188 Q740.7188,897.5469 740.2266,898.2969 Q739.7344,899.0469 739.7344,900.0781 L739.7344,901.1719 Q739.7344,902.4063 740.625,903.2266 Q741.5156,904.0469 743.1094,904.0469 Q744.0469,904.0469 744.7031,903.7969 Q745.0938,903.6406 745.5156,903.2031 Q745.7813,902.9375 745.9297,902.8594 Q746.0781,902.7813 746.2813,902.7813 Q746.6094,902.7813 746.8672,903.0391 Q747.125,903.2969 747.125,903.6406 Q747.125,903.9844 746.7813,904.3906 Q746.2813,904.9688 745.4844,905.2969 Q744.4063,905.75 743.1094,905.75 Q741.5938,905.75 740.3906,905.125 Q739.4063,904.625 738.7188,903.5547 Q738.0313,902.4844 738.0313,901.2031 L738.0313,900.0469 Q738.0313,898.7188 738.6484,897.5703 Q739.2656,896.4219 740.3594,895.8047 Q741.4531,895.1875 742.6875,895.1875 Q743.4219,895.1875 744.0703,895.3516 Q744.7188,895.5156 745.2656,895.875 Z "/><text fill="#000000" font-family="sans-serif" font-size="12" lengthAdjust="spacingAndGlyphs" textLength="65" x="756.5" y="904.9102">KeyListener</text><line style="stroke: #A80036; stroke-width: 1.5;" x1="728.5" x2="823.5" y1="916" y2="916"/><line style="stroke: #A80036; stroke-width: 1.5;" x1="728.5" x2="823.5" y1="924" y2="924"/><!--class java.awt.event.ActionListener--><rect fill="#FEFECE" filter="url(#ftxok59xj3qx8)" height="48" id="java.awt.event.ActionListener" style="stroke: #A80036; stroke-width: 1.5;" width="110" x="582" y="884"/><ellipse cx="597" cy="900" fill="#ADD1B2" rx="11" ry="11" style="stroke: #A80036; stroke-width: 1.0;"/><path d="M599.7656,895.875 Q599.9219,895.6563 600.1094,895.5469 Q600.2969,895.4375 600.5156,895.4375 Q600.8906,895.4375 601.125,895.6953 Q601.3594,895.9531 601.3594,896.5625 L601.3594,898.0156 Q601.3594,898.625 601.125,898.8906 Q600.8906,899.1563 600.5156,899.1563 Q600.1719,899.1563 599.9688,898.9531 Q599.7656,898.7656 599.6563,898.25 Q599.6094,897.8906 599.4219,897.7031 Q599.0938,897.3281 598.4844,897.1094 Q597.875,896.8906 597.25,896.8906 Q596.4844,896.8906 595.8516,897.2188 Q595.2188,897.5469 594.7266,898.2969 Q594.2344,899.0469 594.2344,900.0781 L594.2344,901.1719 Q594.2344,902.4063 595.125,903.2266 Q596.0156,904.0469 597.6094,904.0469 Q598.5469,904.0469 599.2031,903.7969 Q599.5938,903.6406 600.0156,903.2031 Q600.2813,902.9375 600.4297,902.8594 Q600.5781,902.7813 600.7813,902.7813 Q601.1094,902.7813 601.3672,903.0391 Q601.625,903.2969 601.625,903.6406 Q601.625,903.9844 601.2813,904.3906 Q600.7813,904.9688 599.9844,905.2969 Q598.9063,905.75 597.6094,905.75 Q596.0938,905.75 594.8906,905.125 Q593.9063,904.625 593.2188,903.5547 Q592.5313,902.4844 592.5313,901.2031 L592.5313,900.0469 Q592.5313,898.7188 593.1484,897.5703 Q593.7656,896.4219 594.8594,895.8047 Q595.9531,895.1875 597.1875,895.1875 Q597.9219,895.1875 598.5703,895.3516 Q599.2188,895.5156 599.7656,895.875 Z "/><text fill="#000000" font-family="sans-serif" font-size="12" lengthAdjust="spacingAndGlyphs" textLength="78" x="611" y="904.9102">ActionListener</text><line style="stroke: #A80036; stroke-width: 1.5;" x1="583" x2="691" y1="916" y2="916"/><line style="stroke: #A80036; stroke-width: 1.5;" x1="583" x2="691" y1="924" y2="924"/><!--class java.awt.event.KeyEvent--><rect fill="#FEFECE" filter="url(#ftxok59xj3qx8)" height="48" id="java.awt.event.KeyEvent" style="stroke: #A80036; stroke-width: 1.5;" width="82" x="990" y="884"/><ellipse cx="1005" cy="900" fill="#ADD1B2" rx="11" ry="11" style="stroke: #A80036; stroke-width: 1.0;"/><path d="M1007.7656,895.875 Q1007.9219,895.6563 1008.1094,895.5469 Q1008.2969,895.4375 1008.5156,895.4375 Q1008.8906,895.4375 1009.125,895.6953 Q1009.3594,895.9531 1009.3594,896.5625 L1009.3594,898.0156 Q1009.3594,898.625 1009.125,898.8906 Q1008.8906,899.1563 1008.5156,899.1563 Q1008.1719,899.1563 1007.9688,898.9531 Q1007.7656,898.7656 1007.6563,898.25 Q1007.6094,897.8906 1007.4219,897.7031 Q1007.0938,897.3281 1006.4844,897.1094 Q1005.875,896.8906 1005.25,896.8906 Q1004.4844,896.8906 1003.8516,897.2188 Q1003.2188,897.5469 1002.7266,898.2969 Q1002.2344,899.0469 1002.2344,900.0781 L1002.2344,901.1719 Q1002.2344,902.4063 1003.125,903.2266 Q1004.0156,904.0469 1005.6094,904.0469 Q1006.5469,904.0469 1007.2031,903.7969 Q1007.5938,903.6406 1008.0156,903.2031 Q1008.2813,902.9375 1008.4297,902.8594 Q1008.5781,902.7813 1008.7813,902.7813 Q1009.1094,902.7813 1009.3672,903.0391 Q1009.625,903.2969 1009.625,903.6406 Q1009.625,903.9844 1009.2813,904.3906 Q1008.7813,904.9688 1007.9844,905.2969 Q1006.9063,905.75 1005.6094,905.75 Q1004.0938,905.75 1002.8906,905.125 Q1001.9063,904.625 1001.2188,903.5547 Q1000.5313,902.4844 1000.5313,901.2031 L1000.5313,900.0469 Q1000.5313,898.7188 1001.1484,897.5703 Q1001.7656,896.4219 1002.8594,895.8047 Q1003.9531,895.1875 1005.1875,895.1875 Q1005.9219,895.1875 1006.5703,895.3516 Q1007.2188,895.5156 1007.7656,895.875 Z "/><text fill="#000000" font-family="sans-serif" font-size="12" lengthAdjust="spacingAndGlyphs" textLength="50" x="1019" y="904.9102">KeyEvent</text><line style="stroke: #A80036; stroke-width: 1.5;" x1="991" x2="1071" y1="916" y2="916"/><line style="stroke: #A80036; stroke-width: 1.5;" x1="991" x2="1071" y1="924" y2="924"/><!--class java.awt.event.ActionEvent--><rect fill="#FEFECE" filter="url(#ftxok59xj3qx8)" height="48" id="java.awt.event.ActionEvent" style="stroke: #A80036; stroke-width: 1.5;" width="95" x="859.5" y="884"/><ellipse cx="874.5" cy="900" fill="#ADD1B2" rx="11" ry="11" style="stroke: #A80036; stroke-width: 1.0;"/><path d="M877.2656,895.875 Q877.4219,895.6563 877.6094,895.5469 Q877.7969,895.4375 878.0156,895.4375 Q878.3906,895.4375 878.625,895.6953 Q878.8594,895.9531 878.8594,896.5625 L878.8594,898.0156 Q878.8594,898.625 878.625,898.8906 Q878.3906,899.1563 878.0156,899.1563 Q877.6719,899.1563 877.4688,898.9531 Q877.2656,898.7656 877.1563,898.25 Q877.1094,897.8906 876.9219,897.7031 Q876.5938,897.3281 875.9844,897.1094 Q875.375,896.8906 874.75,896.8906 Q873.9844,896.8906 873.3516,897.2188 Q872.7188,897.5469 872.2266,898.2969 Q871.7344,899.0469 871.7344,900.0781 L871.7344,901.1719 Q871.7344,902.4063 872.625,903.2266 Q873.5156,904.0469 875.1094,904.0469 Q876.0469,904.0469 876.7031,903.7969 Q877.0938,903.6406 877.5156,903.2031 Q877.7813,902.9375 877.9297,902.8594 Q878.0781,902.7813 878.2813,902.7813 Q878.6094,902.7813 878.8672,903.0391 Q879.125,903.2969 879.125,903.6406 Q879.125,903.9844 878.7813,904.3906 Q878.2813,904.9688 877.4844,905.2969 Q876.4063,905.75 875.1094,905.75 Q873.5938,905.75 872.3906,905.125 Q871.4063,904.625 870.7188,903.5547 Q870.0313,902.4844 870.0313,901.2031 L870.0313,900.0469 Q870.0313,898.7188 870.6484,897.5703 Q871.2656,896.4219 872.3594,895.8047 Q873.4531,895.1875 874.6875,895.1875 Q875.4219,895.1875 876.0703,895.3516 Q876.7188,895.5156 877.2656,895.875 Z "/><text fill="#000000" font-family="sans-serif" font-size="12" lengthAdjust="spacingAndGlyphs" textLength="63" x="888.5" y="904.9102">ActionEvent</text><line style="stroke: #A80036; stroke-width: 1.5;" x1="860.5" x2="953.5" y1="916" y2="916"/><line style="stroke: #A80036; stroke-width: 1.5;" x1="860.5" x2="953.5" y1="924" y2="924"/><!--link java.awt.GridBagConstraints to mastermind.views.graphics.Constraints--><path d="M1466,128.336 C1466,154.723 1466,187.774 1466,211.331 " fill="none" id="java.awt.GridBagConstraints-mastermind.views.graphics.Constraints" style="stroke: #A80036; stroke-width: 1.0;"/><polygon fill="none" points="1459,128.092,1466,108.092,1473,128.092,1459,128.092" style="stroke: #A80036; stroke-width: 1.0;"/><!--link javax.swing.JFrame to mastermind.views.graphics.GameView--><path d="M700.286,447.5 C806.377,447.5 912.469,447.5 1018.56,447.5 " fill="none" id="javax.swing.JFrame-mastermind.views.graphics.GameView" style="stroke: #A80036; stroke-width: 1.0;"/><polygon fill="none" points="700.125,454.5,680.125,447.5,700.125,440.5,700.125,454.5" style="stroke: #A80036; stroke-width: 1.0;"/><!--link mastermind.views.graphics.GameView to mastermind.views.graphics.ProposedCombinationsView--><path d="M1212.34,546.582 C1227.39,582.3 1243.77,621.151 1256.27,650.82 " fill="none" id="mastermind.views.graphics.GameView-mastermind.views.graphics.ProposedCombinationsView" style="stroke: #A80036; stroke-width: 1.0;"/><polygon fill="#A80036" points="1261.38,662.937,1261.5685,653.0899,1259.4371,658.3299,1254.1971,656.1986,1261.38,662.937" style="stroke: #A80036; stroke-width: 1.0;"/><line style="stroke: #A80036; stroke-width: 1.0;" x1="1259.4371" x2="1256.33" y1="658.3299" y2="650.957"/><polygon fill="#A80036" points="1207.18,534.349,1205.8258,541.4318,1211.8429,545.406,1213.1971,538.3232,1207.18,534.349" style="stroke: #A80036; stroke-width: 1.0;"/><!--link mastermind.views.graphics.GameView to mastermind.views.graphics.SecretCombinationView--><path d="M1129.64,546.625 C1116.81,577.078 1103.01,609.805 1091.48,637.174 " fill="none" id="mastermind.views.graphics.GameView-mastermind.views.graphics.SecretCombinationView" style="stroke: #A80036; stroke-width: 1.0;"/><polygon fill="#A80036" points="1086.35,649.345,1093.5329,642.6066,1088.2929,644.7379,1086.1615,639.4979,1086.35,649.345" style="stroke: #A80036; stroke-width: 1.0;"/><line style="stroke: #A80036; stroke-width: 1.0;" x1="1088.2929" x2="1091.4" y1="644.7379" y2="637.366"/><polygon fill="#A80036" points="1134.82,534.349,1128.8029,538.3232,1130.1571,545.406,1136.1742,541.4318,1134.82,534.349" style="stroke: #A80036; stroke-width: 1.0;"/><!--link mastermind.views.graphics.GameView to mastermind.views.graphics.ProposalCombinationView--><path d="M1035.86,541.804 C1012.3,558.808 988.235,576.662 966,594 C963.362,596.057 960.703,598.15 958.031,600.271 " fill="none" id="mastermind.views.graphics.GameView-mastermind.views.graphics.ProposalCombinationView" style="stroke: #A80036; stroke-width: 1.0;"/><polygon fill="#A80036" points="947.677,608.576,957.2004,606.0651,951.5774,605.4476,952.1949,599.8245,947.677,608.576" style="stroke: #A80036; stroke-width: 1.0;"/><line style="stroke: #A80036; stroke-width: 1.0;" x1="951.5774" x2="957.818" y1="605.4476" y2="600.4425"/><polygon fill="#A80036" points="1046.65,534.055,1039.4433,534.3082,1036.9053,541.0579,1044.1119,540.8047,1046.65,534.055" style="stroke: #A80036; stroke-width: 1.0;"/><!--link mastermind.views.graphics.GameView to mastermind.controllers.Logic--><path d="M1323.15,520.644 C1350.02,540.518 1374.36,564.834 1390,594 C1439.99,687.222 1415.12,729.248 1390,832 C1385.93,848.651 1377.46,865.7197 1369.44,879.3592 " fill="none" id="mastermind.views.graphics.GameView-mastermind.controllers.Logic" style="stroke: #A80036; stroke-width: 1.0; stroke-dasharray: 7.0,7.0;"/><polygon fill="#A80036" points="1366.75,883.8477,1374.8111,878.1892,1369.323,879.5606,1367.9517,874.0724,1366.75,883.8477" style="stroke: #A80036; stroke-width: 1.0;"/><!--link mastermind.views.View to mastermind.views.graphics.GraphicsView--><path d="M1646,128.318 C1646,145.479 1646,165.46 1646,183.816 " fill="none" id="mastermind.views.View-mastermind.views.graphics.GraphicsView" style="stroke: #A80036; stroke-width: 1.0;"/><polygon fill="none" points="1639,128.092,1646,108.092,1653,128.092,1639,128.092" style="stroke: #A80036; stroke-width: 1.0;"/><!--link mastermind.views.graphics.GraphicsView to mastermind.views.graphics.GameView--><path d="M1565.01,297.845 C1563,298.929 1561,299.983 1559,301 C1488.1,337.137 1406.04,369.209 1335.69,393.982 " fill="none" id="mastermind.views.graphics.GraphicsView-mastermind.views.graphics.GameView" style="stroke: #A80036; stroke-width: 1.0;"/><polygon fill="#A80036" points="1323.15,398.365,1332.9664,399.1641,1327.8688,396.7117,1330.3211,391.6141,1323.15,398.365" style="stroke: #A80036; stroke-width: 1.0;"/><line style="stroke: #A80036; stroke-width: 1.0;" x1="1327.8688" x2="1335.425" y1="396.7117" y2="394.0755"/><polygon fill="#A80036" points="1576.54,291.351,1569.349,290.8135,1566.087,297.2446,1573.2781,297.7822,1576.54,291.351" style="stroke: #A80036; stroke-width: 1.0;"/><!--link java.awt.event.KeyListener to mastermind.views.graphics.ProposalCombinationView--><path d="M789.635,864.6483 C794.984,848.036 801.382,828.161 807.84,808.103 " fill="none" id="java.awt.event.KeyListener-mastermind.views.graphics.ProposalCombinationView" style="stroke: #A80036; stroke-width: 1.0;"/><polygon fill="none" points="796.289,866.8222,783.497,883.7146,782.963,862.532,796.289,866.8222" style="stroke: #A80036; stroke-width: 1.0;"/><!--link java.awt.event.ActionListener to mastermind.views.graphics.ProposalCombinationView--><path d="M674.374,869.6262 C692.071,851.929 714.189,829.811 736.497,807.503 " fill="none" id="java.awt.event.ActionListener-mastermind.views.graphics.ProposalCombinationView" style="stroke: #A80036; stroke-width: 1.0;"/><polygon fill="none" points="679.158,874.7412,660.066,883.9336,669.259,864.8416,679.158,874.7412" style="stroke: #A80036; stroke-width: 1.0;"/><!--link javax.swing.JPanel to mastermind.views.graphics.ProposalCombinationView--><path d="M556.094,489.681 C564.629,504.677 575.51,521.098 588,534 C630.778,578.189 687.366,616.599 736.271,645.309 " fill="none" id="javax.swing.JPanel-mastermind.views.graphics.ProposalCombinationView" style="stroke: #A80036; stroke-width: 1.0;"/><polygon fill="none" points="549.806,492.766,546.592,471.822,562.166,486.191,549.806,492.766" style="stroke: #A80036; stroke-width: 1.0;"/><!--link mastermind.views.graphics.ProposalCombinationView to javax.swing.JButton--><path d="M723.175,691.682 C595.329,677.418 391.492,638.745 251,534 C233.815,521.187 220.739,501.147 211.761,483.689 " fill="none" id="mastermind.views.graphics.ProposalCombinationView-javax.swing.JButton" style="stroke: #A80036; stroke-width: 1.0;"/><polygon fill="#A80036" points="206.075,471.855,206.3684,481.6995,208.2409,476.3615,213.5789,478.234,206.075,471.855" style="stroke: #A80036; stroke-width: 1.0;"/><line style="stroke: #A80036; stroke-width: 1.0;" x1="208.2409" x2="211.705" y1="476.3615" y2="483.572"/><polygon fill="#A80036" points="736.456,693.107,730.9171,688.4896,724.5245,691.8266,730.0634,696.4439,736.456,693.107" style="stroke: #A80036; stroke-width: 1.0;"/><!--link mastermind.views.graphics.ProposalCombinationView to javax.swing.JTextField--><path d="M723.257,696.796 C575.528,687.536 321.07,653.778 143,534 C124.225,521.371 109.318,500.895 98.9416,483.147 " fill="none" id="mastermind.views.graphics.ProposalCombinationView-javax.swing.JTextField" style="stroke: #A80036; stroke-width: 1.0;"/><polygon fill="#A80036" points="92.6359,471.708,93.4776,481.5208,95.0497,476.0868,100.4837,477.6588,92.6359,471.708" style="stroke: #A80036; stroke-width: 1.0;"/><line style="stroke: #A80036; stroke-width: 1.0;" x1="95.0497" x2="98.9118" y1="476.0868" y2="483.0935"/><polygon fill="#A80036" points="736.336,697.569,730.5825,693.2219,724.3569,696.8609,730.1104,701.208,736.336,697.569" style="stroke: #A80036; stroke-width: 1.0;"/><!--link mastermind.views.graphics.ProposalCombinationView to javax.swing.JLabel--><path d="M723.93,665.307 C648.524,638.66 552.269,595.834 483,534 C467.46,520.128 455.07,500.495 446.288,483.541 " fill="none" id="mastermind.views.graphics.ProposalCombinationView-javax.swing.JLabel" style="stroke: #A80036; stroke-width: 1.0;"/><polygon fill="#A80036" points="440.538,471.789,440.9011,481.6312,442.7357,476.2801,448.0868,478.1148,440.538,471.789" style="stroke: #A80036; stroke-width: 1.0;"/><line style="stroke: #A80036; stroke-width: 1.0;" x1="442.7357" x2="446.252" y1="476.2801" y2="483.466"/><polygon fill="#A80036" points="736.322,669.607,731.9648,663.8612,724.9851,665.6733,729.3423,671.4191,736.322,669.607" style="stroke: #A80036; stroke-width: 1.0;"/><!--link mastermind.views.graphics.ProposalCombinationView to javax.swing.JRootPane--><path d="M736.208,680.464 C636.543,658.046 486.834,613.659 379,534 C358.377,518.765 341.36,495.042 330.071,476.446 " fill="none" id="mastermind.views.graphics.ProposalCombinationView-javax.swing.JRootPane" style="stroke: #A80036; stroke-width: 1.0; stroke-dasharray: 7.0,7.0;"/><polygon fill="#A80036" points="327.325,471.837,328.4939,481.6163,329.8836,476.1328,335.3671,477.5225,327.325,471.837" style="stroke: #A80036; stroke-width: 1.0;"/><!--link mastermind.views.graphics.ProposalCombinationView to java.awt.event.KeyEvent--><path d="M942.786,808.273 C952.705,818.947 962.58,829.658 972,840 C983.815,852.971 996.717,867.572 1007.44,879.8246 " fill="none" id="mastermind.views.graphics.ProposalCombinationView-java.awt.event.KeyEvent" style="stroke: #A80036; stroke-width: 1.0; stroke-dasharray: 7.0,7.0;"/><polygon fill="#A80036" points="1010.98,883.8841,1008.0785,874.4723,1007.6934,880.1161,1002.0497,879.7309,1010.98,883.8841" style="stroke: #A80036; stroke-width: 1.0;"/><!--link mastermind.views.graphics.ProposalCombinationView to java.awt.event.ActionEvent--><path d="M875.642,808.103 C883.91,834.179 892.08,859.944 898.006,878.6357 " fill="none" id="mastermind.views.graphics.ProposalCombinationView-java.awt.event.ActionEvent" style="stroke: #A80036; stroke-width: 1.0; stroke-dasharray: 7.0,7.0;"/><polygon fill="#A80036" points="899.617,883.7146,900.7102,873.9266,898.106,878.9484,893.0842,876.3442,899.617,883.7146" style="stroke: #A80036; stroke-width: 1.0;"/><!--link javax.swing.JPanel to mastermind.views.graphics.ProposedCombinationsView--><path d="M551.534,489.934 C559.829,506.346 571.748,523.72 588,534 C805.896,671.826 930.724,486.344 1165,594 C1198.45,609.371 1228.28,638.81 1248.72,662.77 " fill="none" id="javax.swing.JPanel-mastermind.views.graphics.ProposedCombinationsView" style="stroke: #A80036; stroke-width: 1.0;"/><polygon fill="none" points="545.109,492.714,543.418,471.592,557.912,487.049,545.109,492.714" style="stroke: #A80036; stroke-width: 1.0;"/><!--link mastermind.views.graphics.ProposedCombinationsView to mastermind.controllers.Logic--><path d="M1290.4,739.124 C1304.95,779.429 1327.85,842.879 1340.94,879.1319 " fill="none" id="mastermind.views.graphics.ProposedCombinationsView-mastermind.controllers.Logic" style="stroke: #A80036; stroke-width: 1.0; stroke-dasharray: 7.0,7.0;"/><polygon fill="#A80036" points="1342.64,883.8459,1343.3445,874.0223,1340.9413,879.1433,1335.8203,876.7401,1342.64,883.8459" style="stroke: #A80036; stroke-width: 1.0;"/><!--link javax.swing.JLabel to mastermind.views.graphics.ProposedCombinationView--><path d="M446.462,404.952 C454.744,388.52 466.674,371.161 483,361 C610.288,281.778 1011.22,343.475 1155,301 C1161.57,299.06 1168.19,296.707 1174.76,294.074 " fill="none" id="javax.swing.JLabel-mastermind.views.graphics.ProposedCombinationView" style="stroke: #A80036; stroke-width: 1.0;"/><polygon fill="none" points="452.836,407.846,438.369,423.329,440.023,402.204,452.836,407.846" style="stroke: #A80036; stroke-width: 1.0;"/><!--link javax.swing.JLabel to mastermind.views.graphics.ResultView--><path d="M446.579,405.138 C454.882,388.738 466.795,371.354 483,361 C682.766,233.364 794.352,392.6 1013,301 C1028.07,294.687 1042.51,284.146 1054.38,273.801 " fill="none" id="javax.swing.JLabel-mastermind.views.graphics.ResultView" style="stroke: #A80036; stroke-width: 1.0;"/><polygon fill="none" points="452.96,408.016,438.449,423.457,440.164,402.337,452.96,408.016" style="stroke: #A80036; stroke-width: 1.0;"/><!--link javax.swing.JPanel to mastermind.views.graphics.SecretCombinationView--><path d="M552.108,490.095 C560.435,506.264 572.223,523.411 588,534 C728.877,628.55 814.995,514.725 965,594 C989.94,607.181 1012.13,628.988 1029.22,649.407 " fill="none" id="javax.swing.JPanel-mastermind.views.graphics.SecretCombinationView" style="stroke: #A80036; stroke-width: 1.0;"/><polygon fill="none" points="545.647,492.796,543.761,471.691,558.397,487.014,545.647,492.796" style="stroke: #A80036; stroke-width: 1.0;"/><!--link mastermind.views.graphics.SecretCombinationView to javax.swing.JLabel--><path d="M1020.84,639.089 C1005.176,621.764 986.127,604.71 965,594 C772.452,496.391 664.265,651.24 483,534 C464.952,522.327 452.204,501.969 443.848,484.045 " fill="none" id="mastermind.views.graphics.SecretCombinationView-javax.swing.JLabel" style="stroke: #A80036; stroke-width: 1.0;"/><polygon fill="#A80036" points="438.64,471.874,438.5033,481.7219,440.6071,476.4708,445.8582,478.5746,438.64,471.874" style="stroke: #A80036; stroke-width: 1.0;"/><line style="stroke: #A80036; stroke-width: 1.0;" x1="440.6071" x2="443.754" y1="476.4708" y2="483.826"/><polygon fill="#A80036" points="1029.66,649.276,1028.7559,642.1218,1021.8043,640.2047,1022.7084,647.3589,1029.66,649.276" style="stroke: #A80036; stroke-width: 1.0;"/><!--link javax.swing.JLabel to mastermind.views.graphics.TurnView--><path d="M448.963,405.32 C457.426,389.745 468.816,372.919 483,361 C558.691,297.396 672.871,265.609 736.311,252.023 " fill="none" id="javax.swing.JLabel-mastermind.views.graphics.TurnView" style="stroke: #A80036; stroke-width: 1.0;"/><polygon fill="none" points="455.226,408.446,440.101,423.286,442.671,402.253,455.226,408.446" style="stroke: #A80036; stroke-width: 1.0;"/><!--
@startuml

class  mastermind.views.graphics.Constraints{
~ Constraints(int, int, int, int)
}
java.awt.GridBagConstraints <|-down- mastermind.views.graphics.Constraints

class  mastermind.views.graphics.GameView{
- {static} GAME_OVER: String
- secretCombinationView: SecretCombinationView
- proposedCombinationsView: ProposedCombinationsView
- proposalCombinationView: ProposalCombinationView
~ GameView()
- clear(): void
~ start(Logic): void
~ propose(Logic): boolean
- drawGameOver(Logic): boolean
}
javax.swing.JFrame <|-down- mastermind.views.graphics.GameView
mastermind.views.graphics.GameView *-down-> mastermind.views.graphics.ProposedCombinationsView
mastermind.views.graphics.GameView *-down-> mastermind.views.graphics.SecretCombinationView
mastermind.views.graphics.GameView *-down-> mastermind.views.graphics.ProposalCombinationView
mastermind.views.graphics.GameView ..> mastermind.controllers.Logic

class  mastermind.views.graphics.GraphicsView{
- gameView: GameView
+ GraphicsView(Logic)
# start(): void
# resume(): boolean
# propose(): boolean
}
mastermind.views.View <|-down- mastermind.views.graphics.GraphicsView
mastermind.views.graphics.GraphicsView *-down-> mastermind.views.graphics.GameView

class  mastermind.views.graphics.ProposalCombinationView{
- {static} ACCEPT: String
- label: JLabel
- textField: JTextField
- button: JButton
- characters: String
~ ProposalCombinationView(JRootPane)
+ keyPressed(KeyEvent): void
+ keyReleased(KeyEvent): void
+ keyTyped(KeyEvent): void
~ resetCharacters(): void
~ getCharacters(): String
+ actionPerformed(ActionEvent): void
}
java.awt.event.KeyListener <|-down- mastermind.views.graphics.ProposalCombinationView
java.awt.event.ActionListener <|-down- mastermind.views.graphics.ProposalCombinationView
javax.swing.JPanel <|-down- mastermind.views.graphics.ProposalCombinationView
mastermind.views.graphics.ProposalCombinationView *-down-> javax.swing.JButton
mastermind.views.graphics.ProposalCombinationView *-down-> javax.swing.JTextField
mastermind.views.graphics.ProposalCombinationView *-down-> javax.swing.JLabel
mastermind.views.graphics.ProposalCombinationView ..> javax.swing.JRootPane
mastermind.views.graphics.ProposalCombinationView ..> java.awt.event.KeyEvent
mastermind.views.graphics.ProposalCombinationView ..> java.awt.event.ActionEvent

class  mastermind.views.graphics.ProposedCombinationsView{
~ ProposedCombinationsView()
~ add(Logic): void
}
javax.swing.JPanel <|-down- mastermind.views.graphics.ProposedCombinationsView
mastermind.views.graphics.ProposedCombinationsView ..> mastermind.controllers.Logic

class  mastermind.views.graphics.ProposedCombinationView{
+ {static} ERROR_CODE: int
~ ProposedCombinationView(int[])
~ ProposedCombinationView()
~ read(String): int[]
}
javax.swing.JLabel <|-down- mastermind.views.graphics.ProposedCombinationView

class  mastermind.views.graphics.ResultView{
~ ResultView(int[])
}
javax.swing.JLabel <|-down- mastermind.views.graphics.ResultView

class  mastermind.views.graphics.ResumeDialog{
- resume: boolean
~ ResumeDialog()
~ isResumed(): boolean
}

class  mastermind.views.graphics.SecretCombinationView{
- {static} TITLE: String
- title: JLabel
- secretCombination: JLabel
~ SecretCombinationView(int)
}
javax.swing.JPanel <|-down- mastermind.views.graphics.SecretCombinationView
mastermind.views.graphics.SecretCombinationView *-down-> javax.swing.JLabel

class  mastermind.views.graphics.TurnView{
~ TurnView(int)
}
javax.swing.JLabel <|-down- mastermind.views.graphics.TurnView

@enduml

PlantUML version 1.2019.05(Sat Apr 20 18:45:36 CEST 2019)
(GPL source distribution)
Java Runtime: OpenJDK Runtime Environment
JVM: OpenJDK 64-Bit Server VM
Java Version: 1.8.0_222-b10
Operating System: Windows 10
OS Version: 10.0
Default Encoding: windows-1252
Language: es
Country: ES
--></g></svg>