<?xml version="1.0" encoding="UTF-8" standalone="no"?><svg xmlns="http://www.w3.org/2000/svg" xmlns:xlink="http://www.w3.org/1999/xlink" contentScriptType="application/ecmascript" contentStyleType="text/css" height="947px" preserveAspectRatio="none" style="width:2035px;height:947px;" version="1.1" viewBox="0 0 2035 947" width="2035px" zoomAndPan="magnify"><defs><filter height="300%" id="f7z3bolfyaph" width="300%" x="-1" y="-1"><feGaussianBlur result="blurOut" stdDeviation="2.0"/><feColorMatrix in="blurOut" result="blurOut2" type="matrix" values="0 0 0 0 0 0 0 0 0 0 0 0 0 0 0 0 0 0 .4 0"/><feOffset dx="4.0" dy="4.0" in="blurOut2" result="blurOut3"/><feBlend in="SourceGraphic" in2="blurOut3" mode="normal"/></filter></defs><g><!--cluster mastermind.views.models--><polygon fill="#FFFFFF" filter="url(#f7z3bolfyaph)" points="322,24,510,24,517,47.6094,1716,47.6094,1716,811,322,811,322,24" style="stroke: #000000; stroke-width: 1.5;"/><line style="stroke: #000000; stroke-width: 1.5;" x1="322" x2="517" y1="47.6094" y2="47.6094"/><text fill="#000000" font-family="sans-serif" font-size="14" font-weight="bold" lengthAdjust="spacingAndGlyphs" textLength="182" x="326" y="40.5332">mastermind.views.models</text><!--cluster mastermind.controllers--><polygon fill="#FFFFFF" filter="url(#f7z3bolfyaph)" points="1740,531,1909,531,1916,554.6094,2013,554.6094,2013,631,1740,631,1740,531" style="stroke: #000000; stroke-width: 1.5;"/><line style="stroke: #000000; stroke-width: 1.5;" x1="1740" x2="1916" y1="554.6094" y2="554.6094"/><text fill="#000000" font-family="sans-serif" font-size="14" font-weight="bold" lengthAdjust="spacingAndGlyphs" textLength="163" x="1744" y="547.5332">mastermind.controllers</text><!--cluster santaTecla.utils--><polygon fill="#FFFFFF" filter="url(#f7z3bolfyaph)" points="22,45,137,45,144,68.6094,298,68.6094,298,145,22,145,22,45" style="stroke: #000000; stroke-width: 1.5;"/><line style="stroke: #000000; stroke-width: 1.5;" x1="22" x2="144" y1="68.6094" y2="68.6094"/><text fill="#000000" font-family="sans-serif" font-size="14" font-weight="bold" lengthAdjust="spacingAndGlyphs" textLength="109" x="26" y="61.5332">santaTecla.utils</text><!--cluster mastermind.types--><polygon fill="#FFFFFF" filter="url(#f7z3bolfyaph)" points="669,835,799,835,806,858.6094,858,858.6094,858,935,669,935,669,835" style="stroke: #000000; stroke-width: 1.5;"/><line style="stroke: #000000; stroke-width: 1.5;" x1="669" x2="806" y1="858.6094" y2="858.6094"/><text fill="#000000" font-family="sans-serif" font-size="14" font-weight="bold" lengthAdjust="spacingAndGlyphs" textLength="124" x="673" y="851.5332">mastermind.types</text><!--class mastermind.views.models.AttemptsView--><rect fill="#FEFECE" filter="url(#f7z3bolfyaph)" height="89.5078" id="mastermind.views.models.AttemptsView" style="stroke: #A80036; stroke-width: 1.5;" width="252" x="1169" y="223.5"/><ellipse cx="1253.75" cy="239.5" fill="#ADD1B2" rx="11" ry="11" style="stroke: #A80036; stroke-width: 1.0;"/><path d="M1256.5156,235.375 Q1256.6719,235.1563 1256.8594,235.0469 Q1257.0469,234.9375 1257.2656,234.9375 Q1257.6406,234.9375 1257.875,235.1953 Q1258.1094,235.4531 1258.1094,236.0625 L1258.1094,237.5156 Q1258.1094,238.125 1257.875,238.3906 Q1257.6406,238.6563 1257.2656,238.6563 Q1256.9219,238.6563 1256.7188,238.4531 Q1256.5156,238.2656 1256.4063,237.75 Q1256.3594,237.3906 1256.1719,237.2031 Q1255.8438,236.8281 1255.2344,236.6094 Q1254.625,236.3906 1254,236.3906 Q1253.2344,236.3906 1252.6016,236.7188 Q1251.9688,237.0469 1251.4766,237.7969 Q1250.9844,238.5469 1250.9844,239.5781 L1250.9844,240.6719 Q1250.9844,241.9063 1251.875,242.7266 Q1252.7656,243.5469 1254.3594,243.5469 Q1255.2969,243.5469 1255.9531,243.2969 Q1256.3438,243.1406 1256.7656,242.7031 Q1257.0313,242.4375 1257.1797,242.3594 Q1257.3281,242.2813 1257.5313,242.2813 Q1257.8594,242.2813 1258.1172,242.5391 Q1258.375,242.7969 1258.375,243.1406 Q1258.375,243.4844 1258.0313,243.8906 Q1257.5313,244.4688 1256.7344,244.7969 Q1255.6563,245.25 1254.3594,245.25 Q1252.8438,245.25 1251.6406,244.625 Q1250.6563,244.125 1249.9688,243.0547 Q1249.2813,241.9844 1249.2813,240.7031 L1249.2813,239.5469 Q1249.2813,238.2188 1249.8984,237.0703 Q1250.5156,235.9219 1251.6094,235.3047 Q1252.7031,234.6875 1253.9375,234.6875 Q1254.6719,234.6875 1255.3203,234.8516 Q1255.9688,235.0156 1256.5156,235.375 Z "/><text fill="#000000" font-family="sans-serif" font-size="12" lengthAdjust="spacingAndGlyphs" textLength="74" x="1274.25" y="244.4102">AttemptsView</text><line style="stroke: #A80036; stroke-width: 1.5;" x1="1170" x2="1420" y1="255.5" y2="255.5"/><rect fill="none" height="6" style="stroke: #C82930; stroke-width: 1.0;" width="6" x="1177" y="264.918"/><text fill="#000000" font-family="sans-serif" font-size="11" lengthAdjust="spacingAndGlyphs" textLength="149" x="1189" y="270.9189">GameController gameController</text><line style="stroke: #A80036; stroke-width: 1.5;" x1="1170" x2="1420" y1="277.3359" y2="277.3359"/><polygon fill="#4177AF" points="1180,285.7539,1176,291.7539,1184,291.7539" style="stroke: #1963A0; stroke-width: 1.0;"/><text fill="#000000" font-family="sans-serif" font-size="11" lengthAdjust="spacingAndGlyphs" textLength="226" x="1189" y="292.7549">AttemptsView(GameController gameController)</text><polygon fill="#4177AF" points="1180,299.5898,1176,305.5898,1184,305.5898" style="stroke: #1963A0; stroke-width: 1.0;"/><text fill="#000000" font-family="sans-serif" font-size="11" lengthAdjust="spacingAndGlyphs" textLength="64" x="1189" y="306.5908">void writeln()</text><!--class mastermind.views.models.MessageView--><rect fill="#FEFECE" filter="url(#f7z3bolfyaph)" height="407.7344" id="mastermind.views.models.MessageView" style="stroke: #A80036; stroke-width: 1.5;" width="188" x="571" y="387"/><ellipse cx="622.25" cy="403" fill="#EB937F" rx="11" ry="11" style="stroke: #A80036; stroke-width: 1.0;"/><path d="M621.1094,403.7969 L621.1094,406.2969 L625.4375,406.2969 L625.4375,405.375 Q625.4375,404.7656 625.6797,404.5 Q625.9219,404.2344 626.2969,404.2344 Q626.6719,404.2344 626.9063,404.5 Q627.1406,404.7656 627.1406,405.375 L627.1406,408 L619.1406,408 Q618.5156,408 618.2578,407.7656 Q618,407.5313 618,407.1406 Q618,406.7656 618.2656,406.5313 Q618.5313,406.2969 619.1406,406.2969 L619.4063,406.2969 L619.4063,399.6406 L619.1406,399.6406 Q618.5156,399.6406 618.2578,399.4063 Q618,399.1719 618,398.7813 Q618,398.4063 618.2578,398.1719 Q618.5156,397.9375 619.1406,397.9375 L626.7656,397.9375 L626.7656,400.5313 Q626.7656,401.1406 626.5391,401.3984 Q626.3125,401.6563 625.9219,401.6563 Q625.5469,401.6563 625.3125,401.3984 Q625.0781,401.1406 625.0781,400.5313 L625.0781,399.6406 L621.1094,399.6406 L621.1094,402.0938 L622.5938,402.0938 Q622.5938,401.4375 622.7188,401.25 Q622.9844,400.8438 623.4531,400.8438 Q623.8281,400.8438 624.0625,401.1016 Q624.2969,401.3594 624.2969,401.9688 L624.2969,403.9375 Q624.2969,404.4844 624.1719,404.6719 Q623.9063,405.0625 623.4531,405.0625 Q622.9844,405.0625 622.7188,404.6563 Q622.5938,404.4688 622.5938,403.7969 L621.1094,403.7969 Z "/><text fill="#000000" font-family="sans-serif" font-size="12" lengthAdjust="spacingAndGlyphs" textLength="77" x="642.75" y="407.9102">MessageView</text><line style="stroke: #A80036; stroke-width: 1.5;" x1="572" x2="758" y1="419" y2="419"/><text fill="#000000" font-family="sans-serif" font-size="11" lengthAdjust="spacingAndGlyphs" textLength="53" x="577" y="434.4189">ATTEMPTS</text><text fill="#000000" font-family="sans-serif" font-size="11" lengthAdjust="spacingAndGlyphs" textLength="39" x="577" y="448.2549">SECRET</text><text fill="#000000" font-family="sans-serif" font-size="11" lengthAdjust="spacingAndGlyphs" textLength="41" x="577" y="462.0908">RESUME</text><text fill="#000000" font-family="sans-serif" font-size="11" lengthAdjust="spacingAndGlyphs" textLength="29" x="577" y="475.9268">SAVE</text><text fill="#000000" font-family="sans-serif" font-size="11" lengthAdjust="spacingAndGlyphs" textLength="39" x="577" y="489.7627">RESULT</text><text fill="#000000" font-family="sans-serif" font-size="11" lengthAdjust="spacingAndGlyphs" textLength="131" x="577" y="503.5986">PROPOSED_COMBINATION</text><text fill="#000000" font-family="sans-serif" font-size="11" lengthAdjust="spacingAndGlyphs" textLength="26" x="577" y="517.4346">TITLE</text><text fill="#000000" font-family="sans-serif" font-size="11" lengthAdjust="spacingAndGlyphs" textLength="39" x="577" y="531.2705">WINNER</text><text fill="#000000" font-family="sans-serif" font-size="11" lengthAdjust="spacingAndGlyphs" textLength="42" x="577" y="545.1064">LOOSER</text><text fill="#000000" font-family="sans-serif" font-size="11" lengthAdjust="spacingAndGlyphs" textLength="37" x="577" y="558.9424">OPTION</text><text fill="#000000" font-family="sans-serif" font-size="11" lengthAdjust="spacingAndGlyphs" textLength="107" x="577" y="572.7783">PROPOSE_COMMAND</text><text fill="#000000" font-family="sans-serif" font-size="11" lengthAdjust="spacingAndGlyphs" textLength="88" x="577" y="586.6143">UNDO_COMMAND</text><text fill="#000000" font-family="sans-serif" font-size="11" lengthAdjust="spacingAndGlyphs" textLength="87" x="577" y="600.4502">REDO_COMMAND</text><text fill="#000000" font-family="sans-serif" font-size="11" lengthAdjust="spacingAndGlyphs" textLength="112" x="577" y="614.2861">NEWGAME_COMMAND</text><text fill="#000000" font-family="sans-serif" font-size="11" lengthAdjust="spacingAndGlyphs" textLength="80" x="577" y="628.1221">EXIT_COMMAND</text><text fill="#000000" font-family="sans-serif" font-size="11" lengthAdjust="spacingAndGlyphs" textLength="116" x="577" y="641.958">OPENGAME_COMMAND</text><text fill="#000000" font-family="sans-serif" font-size="11" lengthAdjust="spacingAndGlyphs" textLength="29" x="577" y="655.7939">NAME</text><text fill="#000000" font-family="sans-serif" font-size="11" lengthAdjust="spacingAndGlyphs" textLength="50" x="577" y="669.6299">NEW_LINE</text><text fill="#000000" font-family="sans-serif" font-size="11" lengthAdjust="spacingAndGlyphs" textLength="44" x="577" y="683.4658">message</text><text fill="#000000" font-family="sans-serif" font-size="11" lengthAdjust="spacingAndGlyphs" textLength="38" x="577" y="697.3018">console</text><line style="stroke: #A80036; stroke-width: 1.5;" x1="572" x2="758" y1="703.7188" y2="703.7188"/><rect fill="#F24D5C" height="6" style="stroke: #C82930; stroke-width: 1.0;" width="6" x="579" y="713.1367"/><text fill="#000000" font-family="sans-serif" font-size="11" lengthAdjust="spacingAndGlyphs" textLength="153" x="591" y="719.1377">MessageView(String message)</text><ellipse cx="582" cy="729.9727" fill="#84BE84" rx="3" ry="3" style="stroke: #038048; stroke-width: 1.0;"/><text fill="#000000" font-family="sans-serif" font-size="11" lengthAdjust="spacingAndGlyphs" textLength="98" x="591" y="732.9736">String getMessage()</text><ellipse cx="582" cy="743.8086" fill="#84BE84" rx="3" ry="3" style="stroke: #038048; stroke-width: 1.0;"/><text fill="#000000" font-family="sans-serif" font-size="11" lengthAdjust="spacingAndGlyphs" textLength="56" x="591" y="746.8096">void write()</text><ellipse cx="582" cy="757.6445" fill="#84BE84" rx="3" ry="3" style="stroke: #038048; stroke-width: 1.0;"/><text fill="#000000" font-family="sans-serif" font-size="11" lengthAdjust="spacingAndGlyphs" textLength="64" x="591" y="760.6455">void writeln()</text><ellipse cx="582" cy="771.4805" fill="#84BE84" rx="3" ry="3" style="stroke: #038048; stroke-width: 1.0;"/><text fill="#000000" font-family="sans-serif" font-size="11" lengthAdjust="spacingAndGlyphs" textLength="119" x="591" y="774.4814">void writeln(int attempts)</text><ellipse cx="582" cy="785.3164" fill="#84BE84" rx="3" ry="3" style="stroke: #038048; stroke-width: 1.0;"/><text fill="#000000" font-family="sans-serif" font-size="11" lengthAdjust="spacingAndGlyphs" textLength="162" x="591" y="788.3174">void writeln(int blacks, int whites)</text><!--class mastermind.views.models.GameView--><rect fill="#FEFECE" filter="url(#f7z3bolfyaph)" height="89.5078" id="mastermind.views.models.GameView" style="stroke: #A80036; stroke-width: 1.5;" width="237" x="1035.5" y="60"/><ellipse cx="1119.75" cy="76" fill="#ADD1B2" rx="11" ry="11" style="stroke: #A80036; stroke-width: 1.0;"/><path d="M1122.5156,71.875 Q1122.6719,71.6563 1122.8594,71.5469 Q1123.0469,71.4375 1123.2656,71.4375 Q1123.6406,71.4375 1123.875,71.6953 Q1124.1094,71.9531 1124.1094,72.5625 L1124.1094,74.0156 Q1124.1094,74.625 1123.875,74.8906 Q1123.6406,75.1563 1123.2656,75.1563 Q1122.9219,75.1563 1122.7188,74.9531 Q1122.5156,74.7656 1122.4063,74.25 Q1122.3594,73.8906 1122.1719,73.7031 Q1121.8438,73.3281 1121.2344,73.1094 Q1120.625,72.8906 1120,72.8906 Q1119.2344,72.8906 1118.6016,73.2188 Q1117.9688,73.5469 1117.4766,74.2969 Q1116.9844,75.0469 1116.9844,76.0781 L1116.9844,77.1719 Q1116.9844,78.4063 1117.875,79.2266 Q1118.7656,80.0469 1120.3594,80.0469 Q1121.2969,80.0469 1121.9531,79.7969 Q1122.3438,79.6406 1122.7656,79.2031 Q1123.0313,78.9375 1123.1797,78.8594 Q1123.3281,78.7813 1123.5313,78.7813 Q1123.8594,78.7813 1124.1172,79.0391 Q1124.375,79.2969 1124.375,79.6406 Q1124.375,79.9844 1124.0313,80.3906 Q1123.5313,80.9688 1122.7344,81.2969 Q1121.6563,81.75 1120.3594,81.75 Q1118.8438,81.75 1117.6406,81.125 Q1116.6563,80.625 1115.9688,79.5547 Q1115.2813,78.4844 1115.2813,77.2031 L1115.2813,76.0469 Q1115.2813,74.7188 1115.8984,73.5703 Q1116.5156,72.4219 1117.6094,71.8047 Q1118.7031,71.1875 1119.9375,71.1875 Q1120.6719,71.1875 1121.3203,71.3516 Q1121.9688,71.5156 1122.5156,71.875 Z "/><text fill="#000000" font-family="sans-serif" font-size="12" lengthAdjust="spacingAndGlyphs" textLength="60" x="1140.25" y="80.9102">GameView</text><line style="stroke: #A80036; stroke-width: 1.5;" x1="1036.5" x2="1271.5" y1="92" y2="92"/><polygon fill="none" points="1046.5,100.418,1042.5,106.418,1050.5,106.418" style="stroke: #1963A0; stroke-width: 1.0;"/><text fill="#000000" font-family="sans-serif" font-size="11" lengthAdjust="spacingAndGlyphs" textLength="149" x="1055.5" y="107.4189">GameController gameController</text><line style="stroke: #A80036; stroke-width: 1.5;" x1="1036.5" x2="1271.5" y1="113.8359" y2="113.8359"/><ellipse cx="1046.5" cy="126.2539" fill="#84BE84" rx="3" ry="3" style="stroke: #038048; stroke-width: 1.0;"/><text fill="#000000" font-family="sans-serif" font-size="11" lengthAdjust="spacingAndGlyphs" textLength="211" x="1055.5" y="129.2549">GameView(GameController gameController)</text><polygon fill="#4177AF" points="1046.5,136.0898,1042.5,142.0898,1050.5,142.0898" style="stroke: #1963A0; stroke-width: 1.0;"/><text fill="#000000" font-family="sans-serif" font-size="11" lengthAdjust="spacingAndGlyphs" textLength="64" x="1055.5" y="143.0908">void writeln()</text><!--class mastermind.views.models.SecretCombinationView--><rect fill="#FEFECE" filter="url(#f7z3bolfyaph)" height="89.5078" id="mastermind.views.models.SecretCombinationView" style="stroke: #A80036; stroke-width: 1.5;" width="244" x="1456" y="223.5"/><ellipse cx="1507.75" cy="239.5" fill="#ADD1B2" rx="11" ry="11" style="stroke: #A80036; stroke-width: 1.0;"/><path d="M1510.5156,235.375 Q1510.6719,235.1563 1510.8594,235.0469 Q1511.0469,234.9375 1511.2656,234.9375 Q1511.6406,234.9375 1511.875,235.1953 Q1512.1094,235.4531 1512.1094,236.0625 L1512.1094,237.5156 Q1512.1094,238.125 1511.875,238.3906 Q1511.6406,238.6563 1511.2656,238.6563 Q1510.9219,238.6563 1510.7188,238.4531 Q1510.5156,238.2656 1510.4063,237.75 Q1510.3594,237.3906 1510.1719,237.2031 Q1509.8438,236.8281 1509.2344,236.6094 Q1508.625,236.3906 1508,236.3906 Q1507.2344,236.3906 1506.6016,236.7188 Q1505.9688,237.0469 1505.4766,237.7969 Q1504.9844,238.5469 1504.9844,239.5781 L1504.9844,240.6719 Q1504.9844,241.9063 1505.875,242.7266 Q1506.7656,243.5469 1508.3594,243.5469 Q1509.2969,243.5469 1509.9531,243.2969 Q1510.3438,243.1406 1510.7656,242.7031 Q1511.0313,242.4375 1511.1797,242.3594 Q1511.3281,242.2813 1511.5313,242.2813 Q1511.8594,242.2813 1512.1172,242.5391 Q1512.375,242.7969 1512.375,243.1406 Q1512.375,243.4844 1512.0313,243.8906 Q1511.5313,244.4688 1510.7344,244.7969 Q1509.6563,245.25 1508.3594,245.25 Q1506.8438,245.25 1505.6406,244.625 Q1504.6563,244.125 1503.9688,243.0547 Q1503.2813,241.9844 1503.2813,240.7031 L1503.2813,239.5469 Q1503.2813,238.2188 1503.8984,237.0703 Q1504.5156,235.9219 1505.6094,235.3047 Q1506.7031,234.6875 1507.9375,234.6875 Q1508.6719,234.6875 1509.3203,234.8516 Q1509.9688,235.0156 1510.5156,235.375 Z "/><text fill="#000000" font-family="sans-serif" font-size="12" lengthAdjust="spacingAndGlyphs" textLength="132" x="1528.25" y="244.4102">SecretCombinationView</text><line style="stroke: #A80036; stroke-width: 1.5;" x1="1457" x2="1699" y1="255.5" y2="255.5"/><rect fill="none" height="6" style="stroke: #C82930; stroke-width: 1.0;" width="6" x="1464" y="264.918"/><text fill="#000000" font-family="sans-serif" font-size="11" lengthAdjust="spacingAndGlyphs" textLength="94" x="1476" y="270.9189">Controller controller</text><line style="stroke: #A80036; stroke-width: 1.5;" x1="1457" x2="1699" y1="277.3359" y2="277.3359"/><polygon fill="#4177AF" points="1467,285.7539,1463,291.7539,1471,291.7539" style="stroke: #1963A0; stroke-width: 1.0;"/><text fill="#000000" font-family="sans-serif" font-size="11" lengthAdjust="spacingAndGlyphs" textLength="218" x="1476" y="292.7549">SecretCombinationView(Controller controller)</text><polygon fill="#4177AF" points="1467,299.5898,1463,305.5898,1471,305.5898" style="stroke: #1963A0; stroke-width: 1.0;"/><text fill="#000000" font-family="sans-serif" font-size="11" lengthAdjust="spacingAndGlyphs" textLength="64" x="1476" y="306.5908">void writeln()</text><!--class mastermind.views.models.ProposedCombinationView--><rect fill="#FEFECE" filter="url(#f7z3bolfyaph)" height="103.3438" id="mastermind.views.models.ProposedCombinationView" style="stroke: #A80036; stroke-width: 1.5;" width="313" x="508.5" y="217"/><ellipse cx="585.25" cy="233" fill="#ADD1B2" rx="11" ry="11" style="stroke: #A80036; stroke-width: 1.0;"/><path d="M588.0156,228.875 Q588.1719,228.6563 588.3594,228.5469 Q588.5469,228.4375 588.7656,228.4375 Q589.1406,228.4375 589.375,228.6953 Q589.6094,228.9531 589.6094,229.5625 L589.6094,231.0156 Q589.6094,231.625 589.375,231.8906 Q589.1406,232.1563 588.7656,232.1563 Q588.4219,232.1563 588.2188,231.9531 Q588.0156,231.7656 587.9063,231.25 Q587.8594,230.8906 587.6719,230.7031 Q587.3438,230.3281 586.7344,230.1094 Q586.125,229.8906 585.5,229.8906 Q584.7344,229.8906 584.1016,230.2188 Q583.4688,230.5469 582.9766,231.2969 Q582.4844,232.0469 582.4844,233.0781 L582.4844,234.1719 Q582.4844,235.4063 583.375,236.2266 Q584.2656,237.0469 585.8594,237.0469 Q586.7969,237.0469 587.4531,236.7969 Q587.8438,236.6406 588.2656,236.2031 Q588.5313,235.9375 588.6797,235.8594 Q588.8281,235.7813 589.0313,235.7813 Q589.3594,235.7813 589.6172,236.0391 Q589.875,236.2969 589.875,236.6406 Q589.875,236.9844 589.5313,237.3906 Q589.0313,237.9688 588.2344,238.2969 Q587.1563,238.75 585.8594,238.75 Q584.3438,238.75 583.1406,238.125 Q582.1563,237.625 581.4688,236.5547 Q580.7813,235.4844 580.7813,234.2031 L580.7813,233.0469 Q580.7813,231.7188 581.3984,230.5703 Q582.0156,229.4219 583.1094,228.8047 Q584.2031,228.1875 585.4375,228.1875 Q586.1719,228.1875 586.8203,228.3516 Q587.4688,228.5156 588.0156,228.875 Z "/><text fill="#000000" font-family="sans-serif" font-size="12" lengthAdjust="spacingAndGlyphs" textLength="151" x="605.75" y="237.9102">ProposedCombinationView</text><line style="stroke: #A80036; stroke-width: 1.5;" x1="509.5" x2="820.5" y1="249" y2="249"/><rect fill="none" height="6" style="stroke: #C82930; stroke-width: 1.0;" width="6" x="516.5" y="258.418"/><text fill="#000000" font-family="sans-serif" font-size="11" lengthAdjust="spacingAndGlyphs" textLength="149" x="528.5" y="264.4189">GameController gameController</text><line style="stroke: #A80036; stroke-width: 1.5;" x1="509.5" x2="820.5" y1="270.8359" y2="270.8359"/><ellipse cx="519.5" cy="283.2539" fill="#84BE84" rx="3" ry="3" style="stroke: #038048; stroke-width: 1.0;"/><text fill="#000000" font-family="sans-serif" font-size="11" lengthAdjust="spacingAndGlyphs" textLength="287" x="528.5" y="286.2549">ProposedCombinationView(GameController gameController)</text><polygon fill="#4177AF" points="519.5,293.0898,515.5,299.0898,523.5,299.0898" style="stroke: #1963A0; stroke-width: 1.0;"/><text fill="#000000" font-family="sans-serif" font-size="11" lengthAdjust="spacingAndGlyphs" textLength="107" x="528.5" y="300.0908">void write(int position)</text><ellipse cx="519.5" cy="310.9258" fill="#84BE84" rx="3" ry="3" style="stroke: #038048; stroke-width: 1.0;"/><text fill="#000000" font-family="sans-serif" font-size="11" lengthAdjust="spacingAndGlyphs" textLength="87" x="528.5" y="313.9268">List&lt;Color&gt; read()</text><!--class mastermind.views.models.ResultView--><rect fill="#FEFECE" filter="url(#f7z3bolfyaph)" height="89.5078" id="mastermind.views.models.ResultView" style="stroke: #A80036; stroke-width: 1.5;" width="239" x="894.5" y="223.5"/><ellipse cx="978.75" cy="239.5" fill="#ADD1B2" rx="11" ry="11" style="stroke: #A80036; stroke-width: 1.0;"/><path d="M981.5156,235.375 Q981.6719,235.1563 981.8594,235.0469 Q982.0469,234.9375 982.2656,234.9375 Q982.6406,234.9375 982.875,235.1953 Q983.1094,235.4531 983.1094,236.0625 L983.1094,237.5156 Q983.1094,238.125 982.875,238.3906 Q982.6406,238.6563 982.2656,238.6563 Q981.9219,238.6563 981.7188,238.4531 Q981.5156,238.2656 981.4063,237.75 Q981.3594,237.3906 981.1719,237.2031 Q980.8438,236.8281 980.2344,236.6094 Q979.625,236.3906 979,236.3906 Q978.2344,236.3906 977.6016,236.7188 Q976.9688,237.0469 976.4766,237.7969 Q975.9844,238.5469 975.9844,239.5781 L975.9844,240.6719 Q975.9844,241.9063 976.875,242.7266 Q977.7656,243.5469 979.3594,243.5469 Q980.2969,243.5469 980.9531,243.2969 Q981.3438,243.1406 981.7656,242.7031 Q982.0313,242.4375 982.1797,242.3594 Q982.3281,242.2813 982.5313,242.2813 Q982.8594,242.2813 983.1172,242.5391 Q983.375,242.7969 983.375,243.1406 Q983.375,243.4844 983.0313,243.8906 Q982.5313,244.4688 981.7344,244.7969 Q980.6563,245.25 979.3594,245.25 Q977.8438,245.25 976.6406,244.625 Q975.6563,244.125 974.9688,243.0547 Q974.2813,241.9844 974.2813,240.7031 L974.2813,239.5469 Q974.2813,238.2188 974.8984,237.0703 Q975.5156,235.9219 976.6094,235.3047 Q977.7031,234.6875 978.9375,234.6875 Q979.6719,234.6875 980.3203,234.8516 Q980.9688,235.0156 981.5156,235.375 Z "/><text fill="#000000" font-family="sans-serif" font-size="12" lengthAdjust="spacingAndGlyphs" textLength="62" x="999.25" y="244.4102">ResultView</text><line style="stroke: #A80036; stroke-width: 1.5;" x1="895.5" x2="1132.5" y1="255.5" y2="255.5"/><rect fill="none" height="6" style="stroke: #C82930; stroke-width: 1.0;" width="6" x="902.5" y="264.918"/><text fill="#000000" font-family="sans-serif" font-size="11" lengthAdjust="spacingAndGlyphs" textLength="149" x="914.5" y="270.9189">GameController gameController</text><line style="stroke: #A80036; stroke-width: 1.5;" x1="895.5" x2="1132.5" y1="277.3359" y2="277.3359"/><polygon fill="#4177AF" points="905.5,285.7539,901.5,291.7539,909.5,291.7539" style="stroke: #1963A0; stroke-width: 1.0;"/><text fill="#000000" font-family="sans-serif" font-size="11" lengthAdjust="spacingAndGlyphs" textLength="213" x="914.5" y="292.7549">ResultView(GameController gameController)</text><polygon fill="#4177AF" points="905.5,299.5898,901.5,305.5898,909.5,305.5898" style="stroke: #1963A0; stroke-width: 1.0;"/><text fill="#000000" font-family="sans-serif" font-size="11" lengthAdjust="spacingAndGlyphs" textLength="115" x="914.5" y="306.5908">void writeln(int position)</text><!--class mastermind.views.models.ColorView--><rect fill="#FEFECE" filter="url(#f7z3bolfyaph)" height="144.8516" id="mastermind.views.models.ColorView" style="stroke: #A80036; stroke-width: 1.5;" width="190" x="342" y="518.5"/><ellipse cx="404.75" cy="534.5" fill="#ADD1B2" rx="11" ry="11" style="stroke: #A80036; stroke-width: 1.0;"/><path d="M407.5156,530.375 Q407.6719,530.1563 407.8594,530.0469 Q408.0469,529.9375 408.2656,529.9375 Q408.6406,529.9375 408.875,530.1953 Q409.1094,530.4531 409.1094,531.0625 L409.1094,532.5156 Q409.1094,533.125 408.875,533.3906 Q408.6406,533.6563 408.2656,533.6563 Q407.9219,533.6563 407.7188,533.4531 Q407.5156,533.2656 407.4063,532.75 Q407.3594,532.3906 407.1719,532.2031 Q406.8438,531.8281 406.2344,531.6094 Q405.625,531.3906 405,531.3906 Q404.2344,531.3906 403.6016,531.7188 Q402.9688,532.0469 402.4766,532.7969 Q401.9844,533.5469 401.9844,534.5781 L401.9844,535.6719 Q401.9844,536.9063 402.875,537.7266 Q403.7656,538.5469 405.3594,538.5469 Q406.2969,538.5469 406.9531,538.2969 Q407.3438,538.1406 407.7656,537.7031 Q408.0313,537.4375 408.1797,537.3594 Q408.3281,537.2813 408.5313,537.2813 Q408.8594,537.2813 409.1172,537.5391 Q409.375,537.7969 409.375,538.1406 Q409.375,538.4844 409.0313,538.8906 Q408.5313,539.4688 407.7344,539.7969 Q406.6563,540.25 405.3594,540.25 Q403.8438,540.25 402.6406,539.625 Q401.6563,539.125 400.9688,538.0547 Q400.2813,536.9844 400.2813,535.7031 L400.2813,534.5469 Q400.2813,533.2188 400.8984,532.0703 Q401.5156,530.9219 402.6094,530.3047 Q403.7031,529.6875 404.9375,529.6875 Q405.6719,529.6875 406.3203,529.8516 Q406.9688,530.0156 407.5156,530.375 Z "/><text fill="#000000" font-family="sans-serif" font-size="12" lengthAdjust="spacingAndGlyphs" textLength="56" x="425.25" y="539.4102">ColorView</text><line style="stroke: #A80036; stroke-width: 1.5;" x1="343" x2="531" y1="550.5" y2="550.5"/><polygon fill="none" points="353,558.918,349,564.918,357,564.918" style="stroke: #1963A0; stroke-width: 1.0;"/><text fill="#000000" font-family="sans-serif" font-size="11" lengthAdjust="spacingAndGlyphs" text-decoration="underline" textLength="71" x="362" y="565.9189">char[] INITIALS</text><polygon fill="none" points="353,571.7539,357,575.7539,353,579.7539,349,575.7539" style="stroke: #B38D22; stroke-width: 1.0;"/><text fill="#000000" font-family="sans-serif" font-size="11" lengthAdjust="spacingAndGlyphs" textLength="52" x="362" y="579.7549">Color color</text><line style="stroke: #A80036; stroke-width: 1.5;" x1="343" x2="531" y1="586.1719" y2="586.1719"/><polygon fill="#4177AF" points="353,594.5898,349,600.5898,357,600.5898" style="stroke: #1963A0; stroke-width: 1.0;"/><text fill="#000000" font-family="sans-serif" font-size="11" lengthAdjust="spacingAndGlyphs" textLength="111" x="362" y="601.5908">ColorView(Color color)</text><polygon fill="#4177AF" points="353,608.4258,349,614.4258,357,614.4258" style="stroke: #1963A0; stroke-width: 1.0;"/><text fill="#000000" font-family="sans-serif" font-size="11" lengthAdjust="spacingAndGlyphs" text-decoration="underline" textLength="78" x="362" y="615.4268">String allInitials()</text><polygon fill="#4177AF" points="353,622.2617,349,628.2617,357,628.2617" style="stroke: #1963A0; stroke-width: 1.0;"/><text fill="#000000" font-family="sans-serif" font-size="11" lengthAdjust="spacingAndGlyphs" textLength="71" x="362" y="629.2627">char getInitial()</text><polygon fill="#4177AF" points="353,636.0977,349,642.0977,357,642.0977" style="stroke: #1963A0; stroke-width: 1.0;"/><text fill="#000000" font-family="sans-serif" font-size="11" lengthAdjust="spacingAndGlyphs" text-decoration="underline" textLength="164" x="362" y="643.0986">Color getInstance(char character)</text><polygon fill="#4177AF" points="353,649.9336,349,655.9336,357,655.9336" style="stroke: #1963A0; stroke-width: 1.0;"/><text fill="#000000" font-family="sans-serif" font-size="11" lengthAdjust="spacingAndGlyphs" textLength="56" x="362" y="656.9346">void write()</text><!--class mastermind.views.models.ErrorView--><rect fill="#FEFECE" filter="url(#f7z3bolfyaph)" height="117.1797" id="mastermind.views.models.ErrorView" style="stroke: #A80036; stroke-width: 1.5;" width="135" x="338.5" y="210"/><ellipse cx="376" cy="226" fill="#ADD1B2" rx="11" ry="11" style="stroke: #A80036; stroke-width: 1.0;"/><path d="M378.7656,221.875 Q378.9219,221.6563 379.1094,221.5469 Q379.2969,221.4375 379.5156,221.4375 Q379.8906,221.4375 380.125,221.6953 Q380.3594,221.9531 380.3594,222.5625 L380.3594,224.0156 Q380.3594,224.625 380.125,224.8906 Q379.8906,225.1563 379.5156,225.1563 Q379.1719,225.1563 378.9688,224.9531 Q378.7656,224.7656 378.6563,224.25 Q378.6094,223.8906 378.4219,223.7031 Q378.0938,223.3281 377.4844,223.1094 Q376.875,222.8906 376.25,222.8906 Q375.4844,222.8906 374.8516,223.2188 Q374.2188,223.5469 373.7266,224.2969 Q373.2344,225.0469 373.2344,226.0781 L373.2344,227.1719 Q373.2344,228.4063 374.125,229.2266 Q375.0156,230.0469 376.6094,230.0469 Q377.5469,230.0469 378.2031,229.7969 Q378.5938,229.6406 379.0156,229.2031 Q379.2813,228.9375 379.4297,228.8594 Q379.5781,228.7813 379.7813,228.7813 Q380.1094,228.7813 380.3672,229.0391 Q380.625,229.2969 380.625,229.6406 Q380.625,229.9844 380.2813,230.3906 Q379.7813,230.9688 378.9844,231.2969 Q377.9063,231.75 376.6094,231.75 Q375.0938,231.75 373.8906,231.125 Q372.9063,230.625 372.2188,229.5547 Q371.5313,228.4844 371.5313,227.2031 L371.5313,226.0469 Q371.5313,224.7188 372.1484,223.5703 Q372.7656,222.4219 373.8594,221.8047 Q374.9531,221.1875 376.1875,221.1875 Q376.9219,221.1875 377.5703,221.3516 Q378.2188,221.5156 378.7656,221.875 Z "/><text fill="#000000" font-family="sans-serif" font-size="12" lengthAdjust="spacingAndGlyphs" textLength="53" x="395" y="230.9102">ErrorView</text><line style="stroke: #A80036; stroke-width: 1.5;" x1="339.5" x2="472.5" y1="242" y2="242"/><polygon fill="none" points="349.5,250.418,345.5,256.418,353.5,256.418" style="stroke: #1963A0; stroke-width: 1.0;"/><text fill="#000000" font-family="sans-serif" font-size="11" lengthAdjust="spacingAndGlyphs" text-decoration="underline" textLength="94" x="358.5" y="257.4189">String[] MESSAGES</text><polygon fill="none" points="349.5,264.2539,345.5,270.2539,353.5,270.2539" style="stroke: #1963A0; stroke-width: 1.0;"/><text fill="#000000" font-family="sans-serif" font-size="11" lengthAdjust="spacingAndGlyphs" textLength="51" x="358.5" y="271.2549">Error error</text><line style="stroke: #A80036; stroke-width: 1.5;" x1="339.5" x2="472.5" y1="277.6719" y2="277.6719"/><polygon fill="#4177AF" points="349.5,286.0898,345.5,292.0898,353.5,292.0898" style="stroke: #1963A0; stroke-width: 1.0;"/><text fill="#000000" font-family="sans-serif" font-size="11" lengthAdjust="spacingAndGlyphs" textLength="109" x="358.5" y="293.0908">ErrorView(Error error)</text><polygon fill="#4177AF" points="349.5,299.9258,345.5,305.9258,353.5,305.9258" style="stroke: #1963A0; stroke-width: 1.0;"/><text fill="#000000" font-family="sans-serif" font-size="11" lengthAdjust="spacingAndGlyphs" textLength="98" x="358.5" y="306.9268">String getMessage()</text><polygon fill="#4177AF" points="349.5,313.7617,345.5,319.7617,353.5,319.7617" style="stroke: #1963A0; stroke-width: 1.0;"/><text fill="#000000" font-family="sans-serif" font-size="11" lengthAdjust="spacingAndGlyphs" textLength="64" x="358.5" y="320.7627">void writeln()</text><!--class mastermind.controllers.GameController--><rect fill="#FEFECE" filter="url(#f7z3bolfyaph)" height="48" id="mastermind.controllers.GameController" style="stroke: #A80036; stroke-width: 1.5;" width="120" x="1756" y="567"/><ellipse cx="1771" cy="583" fill="#ADD1B2" rx="11" ry="11" style="stroke: #A80036; stroke-width: 1.0;"/><path d="M1773.7656,578.875 Q1773.9219,578.6563 1774.1094,578.5469 Q1774.2969,578.4375 1774.5156,578.4375 Q1774.8906,578.4375 1775.125,578.6953 Q1775.3594,578.9531 1775.3594,579.5625 L1775.3594,581.0156 Q1775.3594,581.625 1775.125,581.8906 Q1774.8906,582.1563 1774.5156,582.1563 Q1774.1719,582.1563 1773.9688,581.9531 Q1773.7656,581.7656 1773.6563,581.25 Q1773.6094,580.8906 1773.4219,580.7031 Q1773.0938,580.3281 1772.4844,580.1094 Q1771.875,579.8906 1771.25,579.8906 Q1770.4844,579.8906 1769.8516,580.2188 Q1769.2188,580.5469 1768.7266,581.2969 Q1768.2344,582.0469 1768.2344,583.0781 L1768.2344,584.1719 Q1768.2344,585.4063 1769.125,586.2266 Q1770.0156,587.0469 1771.6094,587.0469 Q1772.5469,587.0469 1773.2031,586.7969 Q1773.5938,586.6406 1774.0156,586.2031 Q1774.2813,585.9375 1774.4297,585.8594 Q1774.5781,585.7813 1774.7813,585.7813 Q1775.1094,585.7813 1775.3672,586.0391 Q1775.625,586.2969 1775.625,586.6406 Q1775.625,586.9844 1775.2813,587.3906 Q1774.7813,587.9688 1773.9844,588.2969 Q1772.9063,588.75 1771.6094,588.75 Q1770.0938,588.75 1768.8906,588.125 Q1767.9063,587.625 1767.2188,586.5547 Q1766.5313,585.4844 1766.5313,584.2031 L1766.5313,583.0469 Q1766.5313,581.7188 1767.1484,580.5703 Q1767.7656,579.4219 1768.8594,578.8047 Q1769.9531,578.1875 1771.1875,578.1875 Q1771.9219,578.1875 1772.5703,578.3516 Q1773.2188,578.5156 1773.7656,578.875 Z "/><text fill="#000000" font-family="sans-serif" font-size="12" lengthAdjust="spacingAndGlyphs" textLength="88" x="1785" y="587.9102">GameController</text><line style="stroke: #A80036; stroke-width: 1.5;" x1="1757" x2="1875" y1="599" y2="599"/><line style="stroke: #A80036; stroke-width: 1.5;" x1="1757" x2="1875" y1="607" y2="607"/><!--class mastermind.controllers.Controller--><rect fill="#FEFECE" filter="url(#f7z3bolfyaph)" height="48" id="mastermind.controllers.Controller" style="stroke: #A80036; stroke-width: 1.5;" width="86" x="1911" y="567"/><ellipse cx="1926" cy="583" fill="#ADD1B2" rx="11" ry="11" style="stroke: #A80036; stroke-width: 1.0;"/><path d="M1928.7656,578.875 Q1928.9219,578.6563 1929.1094,578.5469 Q1929.2969,578.4375 1929.5156,578.4375 Q1929.8906,578.4375 1930.125,578.6953 Q1930.3594,578.9531 1930.3594,579.5625 L1930.3594,581.0156 Q1930.3594,581.625 1930.125,581.8906 Q1929.8906,582.1563 1929.5156,582.1563 Q1929.1719,582.1563 1928.9688,581.9531 Q1928.7656,581.7656 1928.6563,581.25 Q1928.6094,580.8906 1928.4219,580.7031 Q1928.0938,580.3281 1927.4844,580.1094 Q1926.875,579.8906 1926.25,579.8906 Q1925.4844,579.8906 1924.8516,580.2188 Q1924.2188,580.5469 1923.7266,581.2969 Q1923.2344,582.0469 1923.2344,583.0781 L1923.2344,584.1719 Q1923.2344,585.4063 1924.125,586.2266 Q1925.0156,587.0469 1926.6094,587.0469 Q1927.5469,587.0469 1928.2031,586.7969 Q1928.5938,586.6406 1929.0156,586.2031 Q1929.2813,585.9375 1929.4297,585.8594 Q1929.5781,585.7813 1929.7813,585.7813 Q1930.1094,585.7813 1930.3672,586.0391 Q1930.625,586.2969 1930.625,586.6406 Q1930.625,586.9844 1930.2813,587.3906 Q1929.7813,587.9688 1928.9844,588.2969 Q1927.9063,588.75 1926.6094,588.75 Q1925.0938,588.75 1923.8906,588.125 Q1922.9063,587.625 1922.2188,586.5547 Q1921.5313,585.4844 1921.5313,584.2031 L1921.5313,583.0469 Q1921.5313,581.7188 1922.1484,580.5703 Q1922.7656,579.4219 1923.8594,578.8047 Q1924.9531,578.1875 1926.1875,578.1875 Q1926.9219,578.1875 1927.5703,578.3516 Q1928.2188,578.5156 1928.7656,578.875 Z "/><text fill="#000000" font-family="sans-serif" font-size="12" lengthAdjust="spacingAndGlyphs" textLength="54" x="1940" y="587.9102">Controller</text><line style="stroke: #A80036; stroke-width: 1.5;" x1="1912" x2="1996" y1="599" y2="599"/><line style="stroke: #A80036; stroke-width: 1.5;" x1="1912" x2="1996" y1="607" y2="607"/><!--class santaTecla.utils.WithConsoleView--><rect fill="#FEFECE" filter="url(#f7z3bolfyaph)" height="48" id="santaTecla.utils.WithConsoleView" style="stroke: #A80036; stroke-width: 1.5;" width="129" x="152.5" y="81"/><ellipse cx="167.5" cy="97" fill="#ADD1B2" rx="11" ry="11" style="stroke: #A80036; stroke-width: 1.0;"/><path d="M170.2656,92.875 Q170.4219,92.6563 170.6094,92.5469 Q170.7969,92.4375 171.0156,92.4375 Q171.3906,92.4375 171.625,92.6953 Q171.8594,92.9531 171.8594,93.5625 L171.8594,95.0156 Q171.8594,95.625 171.625,95.8906 Q171.3906,96.1563 171.0156,96.1563 Q170.6719,96.1563 170.4688,95.9531 Q170.2656,95.7656 170.1563,95.25 Q170.1094,94.8906 169.9219,94.7031 Q169.5938,94.3281 168.9844,94.1094 Q168.375,93.8906 167.75,93.8906 Q166.9844,93.8906 166.3516,94.2188 Q165.7188,94.5469 165.2266,95.2969 Q164.7344,96.0469 164.7344,97.0781 L164.7344,98.1719 Q164.7344,99.4063 165.625,100.2266 Q166.5156,101.0469 168.1094,101.0469 Q169.0469,101.0469 169.7031,100.7969 Q170.0938,100.6406 170.5156,100.2031 Q170.7813,99.9375 170.9297,99.8594 Q171.0781,99.7813 171.2813,99.7813 Q171.6094,99.7813 171.8672,100.0391 Q172.125,100.2969 172.125,100.6406 Q172.125,100.9844 171.7813,101.3906 Q171.2813,101.9688 170.4844,102.2969 Q169.4063,102.75 168.1094,102.75 Q166.5938,102.75 165.3906,102.125 Q164.4063,101.625 163.7188,100.5547 Q163.0313,99.4844 163.0313,98.2031 L163.0313,97.0469 Q163.0313,95.7188 163.6484,94.5703 Q164.2656,93.4219 165.3594,92.8047 Q166.4531,92.1875 167.6875,92.1875 Q168.4219,92.1875 169.0703,92.3516 Q169.7188,92.5156 170.2656,92.875 Z "/><text fill="#000000" font-family="sans-serif" font-size="12" lengthAdjust="spacingAndGlyphs" textLength="97" x="181.5" y="101.9102">WithConsoleView</text><line style="stroke: #A80036; stroke-width: 1.5;" x1="153.5" x2="280.5" y1="113" y2="113"/><line style="stroke: #A80036; stroke-width: 1.5;" x1="153.5" x2="280.5" y1="121" y2="121"/><!--class santaTecla.utils.Console--><rect fill="#FEFECE" filter="url(#f7z3bolfyaph)" height="48" id="santaTecla.utils.Console" style="stroke: #A80036; stroke-width: 1.5;" width="79" x="38.5" y="81"/><ellipse cx="53.5" cy="97" fill="#ADD1B2" rx="11" ry="11" style="stroke: #A80036; stroke-width: 1.0;"/><path d="M56.2656,92.875 Q56.4219,92.6563 56.6094,92.5469 Q56.7969,92.4375 57.0156,92.4375 Q57.3906,92.4375 57.625,92.6953 Q57.8594,92.9531 57.8594,93.5625 L57.8594,95.0156 Q57.8594,95.625 57.625,95.8906 Q57.3906,96.1563 57.0156,96.1563 Q56.6719,96.1563 56.4688,95.9531 Q56.2656,95.7656 56.1563,95.25 Q56.1094,94.8906 55.9219,94.7031 Q55.5938,94.3281 54.9844,94.1094 Q54.375,93.8906 53.75,93.8906 Q52.9844,93.8906 52.3516,94.2188 Q51.7188,94.5469 51.2266,95.2969 Q50.7344,96.0469 50.7344,97.0781 L50.7344,98.1719 Q50.7344,99.4063 51.625,100.2266 Q52.5156,101.0469 54.1094,101.0469 Q55.0469,101.0469 55.7031,100.7969 Q56.0938,100.6406 56.5156,100.2031 Q56.7813,99.9375 56.9297,99.8594 Q57.0781,99.7813 57.2813,99.7813 Q57.6094,99.7813 57.8672,100.0391 Q58.125,100.2969 58.125,100.6406 Q58.125,100.9844 57.7813,101.3906 Q57.2813,101.9688 56.4844,102.2969 Q55.4063,102.75 54.1094,102.75 Q52.5938,102.75 51.3906,102.125 Q50.4063,101.625 49.7188,100.5547 Q49.0313,99.4844 49.0313,98.2031 L49.0313,97.0469 Q49.0313,95.7188 49.6484,94.5703 Q50.2656,93.4219 51.3594,92.8047 Q52.4531,92.1875 53.6875,92.1875 Q54.4219,92.1875 55.0703,92.3516 Q55.7188,92.5156 56.2656,92.875 Z "/><text fill="#000000" font-family="sans-serif" font-size="12" lengthAdjust="spacingAndGlyphs" textLength="47" x="67.5" y="101.9102">Console</text><line style="stroke: #A80036; stroke-width: 1.5;" x1="39.5" x2="116.5" y1="113" y2="113"/><line style="stroke: #A80036; stroke-width: 1.5;" x1="39.5" x2="116.5" y1="121" y2="121"/><!--class mastermind.types.Color--><rect fill="#FEFECE" filter="url(#f7z3bolfyaph)" height="48" id="mastermind.types.Color" style="stroke: #A80036; stroke-width: 1.5;" width="62" x="685" y="871"/><ellipse cx="700" cy="887" fill="#ADD1B2" rx="11" ry="11" style="stroke: #A80036; stroke-width: 1.0;"/><path d="M702.7656,882.875 Q702.9219,882.6563 703.1094,882.5469 Q703.2969,882.4375 703.5156,882.4375 Q703.8906,882.4375 704.125,882.6953 Q704.3594,882.9531 704.3594,883.5625 L704.3594,885.0156 Q704.3594,885.625 704.125,885.8906 Q703.8906,886.1563 703.5156,886.1563 Q703.1719,886.1563 702.9688,885.9531 Q702.7656,885.7656 702.6563,885.25 Q702.6094,884.8906 702.4219,884.7031 Q702.0938,884.3281 701.4844,884.1094 Q700.875,883.8906 700.25,883.8906 Q699.4844,883.8906 698.8516,884.2188 Q698.2188,884.5469 697.7266,885.2969 Q697.2344,886.0469 697.2344,887.0781 L697.2344,888.1719 Q697.2344,889.4063 698.125,890.2266 Q699.0156,891.0469 700.6094,891.0469 Q701.5469,891.0469 702.2031,890.7969 Q702.5938,890.6406 703.0156,890.2031 Q703.2813,889.9375 703.4297,889.8594 Q703.5781,889.7813 703.7813,889.7813 Q704.1094,889.7813 704.3672,890.0391 Q704.625,890.2969 704.625,890.6406 Q704.625,890.9844 704.2813,891.3906 Q703.7813,891.9688 702.9844,892.2969 Q701.9063,892.75 700.6094,892.75 Q699.0938,892.75 697.8906,892.125 Q696.9063,891.625 696.2188,890.5547 Q695.5313,889.4844 695.5313,888.2031 L695.5313,887.0469 Q695.5313,885.7188 696.1484,884.5703 Q696.7656,883.4219 697.8594,882.8047 Q698.9531,882.1875 700.1875,882.1875 Q700.9219,882.1875 701.5703,882.3516 Q702.2188,882.5156 702.7656,882.875 Z "/><text fill="#000000" font-family="sans-serif" font-size="12" lengthAdjust="spacingAndGlyphs" textLength="30" x="714" y="891.9102">Color</text><line style="stroke: #A80036; stroke-width: 1.5;" x1="686" x2="746" y1="903" y2="903"/><line style="stroke: #A80036; stroke-width: 1.5;" x1="686" x2="746" y1="911" y2="911"/><!--class mastermind.types.Error--><rect fill="#FEFECE" filter="url(#f7z3bolfyaph)" height="48" id="mastermind.types.Error" style="stroke: #A80036; stroke-width: 1.5;" width="59" x="782.5" y="871"/><ellipse cx="797.5" cy="887" fill="#ADD1B2" rx="11" ry="11" style="stroke: #A80036; stroke-width: 1.0;"/><path d="M800.2656,882.875 Q800.4219,882.6563 800.6094,882.5469 Q800.7969,882.4375 801.0156,882.4375 Q801.3906,882.4375 801.625,882.6953 Q801.8594,882.9531 801.8594,883.5625 L801.8594,885.0156 Q801.8594,885.625 801.625,885.8906 Q801.3906,886.1563 801.0156,886.1563 Q800.6719,886.1563 800.4688,885.9531 Q800.2656,885.7656 800.1563,885.25 Q800.1094,884.8906 799.9219,884.7031 Q799.5938,884.3281 798.9844,884.1094 Q798.375,883.8906 797.75,883.8906 Q796.9844,883.8906 796.3516,884.2188 Q795.7188,884.5469 795.2266,885.2969 Q794.7344,886.0469 794.7344,887.0781 L794.7344,888.1719 Q794.7344,889.4063 795.625,890.2266 Q796.5156,891.0469 798.1094,891.0469 Q799.0469,891.0469 799.7031,890.7969 Q800.0938,890.6406 800.5156,890.2031 Q800.7813,889.9375 800.9297,889.8594 Q801.0781,889.7813 801.2813,889.7813 Q801.6094,889.7813 801.8672,890.0391 Q802.125,890.2969 802.125,890.6406 Q802.125,890.9844 801.7813,891.3906 Q801.2813,891.9688 800.4844,892.2969 Q799.4063,892.75 798.1094,892.75 Q796.5938,892.75 795.3906,892.125 Q794.4063,891.625 793.7188,890.5547 Q793.0313,889.4844 793.0313,888.2031 L793.0313,887.0469 Q793.0313,885.7188 793.6484,884.5703 Q794.2656,883.4219 795.3594,882.8047 Q796.4531,882.1875 797.6875,882.1875 Q798.4219,882.1875 799.0703,882.3516 Q799.7188,882.5156 800.2656,882.875 Z "/><text fill="#000000" font-family="sans-serif" font-size="12" lengthAdjust="spacingAndGlyphs" textLength="27" x="811.5" y="891.9102">Error</text><line style="stroke: #A80036; stroke-width: 1.5;" x1="783.5" x2="840.5" y1="903" y2="903"/><line style="stroke: #A80036; stroke-width: 1.5;" x1="783.5" x2="840.5" y1="911" y2="911"/><!--link mastermind.views.models.AttemptsView to mastermind.controllers.GameController--><path d="M1410.91,318.011 C1420.01,321.236 1429.12,324.277 1438,327 C1558.85,364.045 1616.36,309.22 1716,387 C1770,429.155 1796.83,508.068 1808.45,554.104 " fill="none" id="mastermind.views.models.AttemptsView-mastermind.controllers.GameController" style="stroke: #A80036; stroke-width: 1.0;"/><polygon fill="#A80036" points="1811.52,566.984,1813.3272,557.3024,1810.3622,562.1199,1805.5446,559.1549,1811.52,566.984" style="stroke: #A80036; stroke-width: 1.0;"/><line style="stroke: #A80036; stroke-width: 1.0;" x1="1810.3622" x2="1808.51" y1="562.1199" y2="554.3385"/><polygon fill="#A80036" points="1398.53,313.514,1402.8021,319.3234,1409.8078,317.6143,1405.5356,311.8049,1398.53,313.514" style="stroke: #A80036; stroke-width: 1.0;"/><!--link mastermind.views.models.AttemptsView to mastermind.views.models.MessageView--><path d="M1208.39,313.56 C1092.1,372.724 885.982,477.58 763.777,539.749 " fill="none" id="mastermind.views.models.AttemptsView-mastermind.views.models.MessageView" style="stroke: #A80036; stroke-width: 1.0; stroke-dasharray: 7.0,7.0;"/><polygon fill="#A80036" points="759.105,542.126,768.9404,541.6109,763.5616,539.8591,765.3134,534.4804,759.105,542.126" style="stroke: #A80036; stroke-width: 1.0;"/><!--link mastermind.views.models.GameView to mastermind.controllers.GameController--><path d="M1285.72,114.222 C1432.04,126.057 1655.81,153.072 1717,210 C1815.24,301.392 1820.94,476.864 1818.32,553.114 " fill="none" id="mastermind.views.models.GameView-mastermind.controllers.GameController" style="stroke: #A80036; stroke-width: 1.0;"/><polygon fill="#A80036" points="1817.74,566.571,1822.1289,557.7541,1817.9582,561.5758,1814.1365,557.405,1817.74,566.571" style="stroke: #A80036; stroke-width: 1.0;"/><line style="stroke: #A80036; stroke-width: 1.0;" x1="1817.9582" x2="1818.305" y1="561.5758" y2="553.5835"/><polygon fill="#A80036" points="1272.69,113.191,1278.3596,117.647,1284.6534,114.1273,1278.9838,109.6713,1272.69,113.191" style="stroke: #A80036; stroke-width: 1.0;"/><!--link mastermind.views.models.GameView to mastermind.views.models.SecretCombinationView--><path d="M1272.52,148.245 C1323.61,166.751 1383.91,188.999 1438,210 C1447.47,213.678 1457.28,217.557 1467.1,221.492 " fill="none" id="mastermind.views.models.GameView-mastermind.views.models.SecretCombinationView" style="stroke: #A80036; stroke-width: 1.0; stroke-dasharray: 7.0,7.0;"/><polygon fill="#A80036" points="1471.92,223.428,1465.0508,216.3701,1467.278,221.5701,1462.0781,223.7973,1471.92,223.428" style="stroke: #A80036; stroke-width: 1.0;"/><!--link mastermind.views.models.GameView to mastermind.views.models.ProposedCombinationView--><path d="M1035.31,145.198 C971.546,166.258 892.082,192.503 823.132,215.274 " fill="none" id="mastermind.views.models.GameView-mastermind.views.models.ProposedCombinationView" style="stroke: #A80036; stroke-width: 1.0; stroke-dasharray: 7.0,7.0;"/><polygon fill="#A80036" points="818.187,216.908,827.9873,217.885,822.935,215.3406,825.4794,210.2883,818.187,216.908" style="stroke: #A80036; stroke-width: 1.0;"/><!--link mastermind.views.models.GameView to mastermind.views.models.ResultView--><path d="M1115.74,150.131 C1097.07,171.672 1074.57,197.625 1055.49,219.643 " fill="none" id="mastermind.views.models.GameView-mastermind.views.models.ResultView" style="stroke: #A80036; stroke-width: 1.0; stroke-dasharray: 7.0,7.0;"/><polygon fill="#A80036" points="1052.21,223.423,1061.1238,219.2345,1055.4817,219.642,1055.0742,213.9998,1052.21,223.423" style="stroke: #A80036; stroke-width: 1.0;"/><!--link mastermind.views.models.GameView to mastermind.views.models.MessageView--><path d="M1035.47,125.977 C980.744,140.772 918.794,166.276 877,210 C839.222,249.523 862.745,277.752 839,327 C817.493,371.608 789.461,417.527 762.2,458.262 " fill="none" id="mastermind.views.models.GameView-mastermind.views.models.MessageView" style="stroke: #A80036; stroke-width: 1.0; stroke-dasharray: 7.0,7.0;"/><polygon fill="#A80036" points="759.223,462.694,767.5618,457.4534,762.011,458.5434,760.9209,452.9926,759.223,462.694" style="stroke: #A80036; stroke-width: 1.0;"/><!--link mastermind.views.models.GameView to mastermind.views.models.AttemptsView--><path d="M1192.53,150.131 C1211.34,171.672 1233.99,197.625 1253.22,219.643 " fill="none" id="mastermind.views.models.GameView-mastermind.views.models.AttemptsView" style="stroke: #A80036; stroke-width: 1.0; stroke-dasharray: 7.0,7.0;"/><polygon fill="#A80036" points="1256.52,223.423,1253.6199,214.0108,1253.2339,219.6545,1247.5903,219.2685,1256.52,223.423" style="stroke: #A80036; stroke-width: 1.0;"/><!--link santaTecla.utils.WithConsoleView to mastermind.views.models.ProposedCombinationView--><path d="M284.135,137.23 C296.63,142.706 309.642,148.185 322,153 C331.798,156.818 425.316,188.01 512.226,216.873 " fill="none" id="santaTecla.utils.WithConsoleView-mastermind.views.models.ProposedCombinationView" style="stroke: #A80036; stroke-width: 1.0;"/><polygon fill="none" points="281.131,143.555,265.721,129.011,286.837,130.771,281.131,143.555" style="stroke: #A80036; stroke-width: 1.0;"/><!--link mastermind.views.models.ProposedCombinationView to mastermind.controllers.GameController--><path d="M834.743,318.625 C848.964,321.798 863.183,324.655 877,327 C1061.29,358.278 1560.91,282.658 1716,387 C1773.26,425.524 1799.02,506.759 1809.55,553.952 " fill="none" id="mastermind.views.models.ProposedCombinationView-mastermind.controllers.GameController" style="stroke: #A80036; stroke-width: 1.0;"/><polygon fill="#A80036" points="1812.24,566.859,1814.3184,557.2319,1811.2193,561.9643,1806.4869,558.8651,1812.24,566.859" style="stroke: #A80036; stroke-width: 1.0;"/><line style="stroke: #A80036; stroke-width: 1.0;" x1="1811.2193" x2="1809.59" y1="561.9643" y2="554.132"/><polygon fill="#A80036" points="821.694,315.627,826.6464,320.8686,833.3895,318.3132,828.4371,313.0716,821.694,315.627" style="stroke: #A80036; stroke-width: 1.0;"/><!--link mastermind.views.models.ProposedCombinationView to mastermind.views.models.MessageView--><path d="M665,320.284 C665,338.007 665,359.151 665,381.693 " fill="none" id="mastermind.views.models.ProposedCombinationView-mastermind.views.models.MessageView" style="stroke: #A80036; stroke-width: 1.0; stroke-dasharray: 7.0,7.0;"/><polygon fill="#A80036" points="665,386.831,669,377.831,665,381.831,661,377.831,665,386.831" style="stroke: #A80036; stroke-width: 1.0;"/><!--link mastermind.views.models.ProposedCombinationView to mastermind.views.models.ColorView--><path d="M611.67,320.01 C592.068,339.926 570.426,363.609 553,387 C523.522,426.569 495.883,474.33 474.984,513.583 " fill="none" id="mastermind.views.models.ProposedCombinationView-mastermind.views.models.ColorView" style="stroke: #A80036; stroke-width: 1.0; stroke-dasharray: 7.0,7.0;"/><polygon fill="#A80036" points="472.47,518.327,480.22,512.2494,474.8123,513.9096,473.1521,508.5018,472.47,518.327" style="stroke: #A80036; stroke-width: 1.0;"/><!--link mastermind.views.models.ProposedCombinationView to mastermind.types.Color--><path d="M728.921,320.195 C747.759,338.948 765.994,361.836 776,387 C846.946,565.412 863.125,647.906 776,819 C773.257,824.387 769.28,822.731 765,827 C753.083,838.886 741.84,853.8723 733.137,866.6561 " fill="none" id="mastermind.views.models.ProposedCombinationView-mastermind.types.Color" style="stroke: #A80036; stroke-width: 1.0; stroke-dasharray: 7.0,7.0;"/><polygon fill="#A80036" points="730.286,870.8994,738.6258,865.6603,733.0747,866.7494,731.9857,861.1983,730.286,870.8994" style="stroke: #A80036; stroke-width: 1.0;"/><!--link mastermind.views.models.ResultView to mastermind.controllers.GameController--><path d="M1121.41,317.999 C1131.29,321.416 1141.25,324.494 1151,327 C1273.29,358.432 1612.47,314.727 1716,387 C1772.44,426.401 1798.47,506.954 1809.27,553.876 " fill="none" id="mastermind.views.models.ResultView-mastermind.controllers.GameController" style="stroke: #A80036; stroke-width: 1.0;"/><polygon fill="#A80036" points="1812.04,566.717,1814.0542,557.0763,1810.9867,561.8292,1806.2337,558.7617,1812.04,566.717" style="stroke: #A80036; stroke-width: 1.0;"/><line style="stroke: #A80036; stroke-width: 1.0;" x1="1810.9867" x2="1809.3" y1="561.8292" y2="554.009"/><polygon fill="#A80036" points="1108.96,313.506,1113.2452,319.3058,1120.247,317.5809,1115.9618,311.7811,1108.96,313.506" style="stroke: #A80036; stroke-width: 1.0;"/><!--link mastermind.views.models.ResultView to mastermind.views.models.MessageView--><path d="M965.839,313.728 C913.771,361.544 829.356,439.065 763.179,499.838 " fill="none" id="mastermind.views.models.ResultView-mastermind.views.models.MessageView" style="stroke: #A80036; stroke-width: 1.0; stroke-dasharray: 7.0,7.0;"/><polygon fill="#A80036" points="759.247,503.45,768.5818,500.3096,762.93,500.0684,763.1712,494.4167,759.247,503.45" style="stroke: #A80036; stroke-width: 1.0;"/><!--link mastermind.views.models.SecretCombinationView to mastermind.controllers.Controller--><path d="M1713.21,291.064 C1775.91,307.553 1846.82,336.468 1894,387 C1937.2,433.275 1949.43,509.195 1952.81,553.907 " fill="none" id="mastermind.views.models.SecretCombinationView-mastermind.controllers.Controller" style="stroke: #A80036; stroke-width: 1.0;"/><polygon fill="#A80036" points="1953.61,566.983,1957.0531,557.7556,1953.3047,561.9923,1949.068,558.244,1953.61,566.983" style="stroke: #A80036; stroke-width: 1.0;"/><line style="stroke: #A80036; stroke-width: 1.0;" x1="1953.3047" x2="1952.815" y1="561.9923" y2="554.007"/><polygon fill="#A80036" points="1700.38,287.83,1705.2227,293.173,1712.0174,290.7578,1707.1746,285.4148,1700.38,287.83" style="stroke: #A80036; stroke-width: 1.0;"/><!--link mastermind.views.models.SecretCombinationView to mastermind.views.models.MessageView--><path d="M1472.78,313.529 C1461.09,318.18 1449.32,322.755 1438,327 C1198.05,416.998 911.494,511.046 763.829,558.54 " fill="none" id="mastermind.views.models.SecretCombinationView-mastermind.views.models.MessageView" style="stroke: #A80036; stroke-width: 1.0; stroke-dasharray: 7.0,7.0;"/><polygon fill="#A80036" points="759.068,560.07,768.8603,561.124,763.8281,558.54,766.4122,553.5078,759.068,560.07" style="stroke: #A80036; stroke-width: 1.0;"/><!--link santaTecla.utils.WithConsoleView to mastermind.views.models.ColorView--><path d="M235.839,147.445 C273.356,229.983 357.802,415.764 404.468,518.431 " fill="none" id="santaTecla.utils.WithConsoleView-mastermind.views.models.ColorView" style="stroke: #A80036; stroke-width: 1.0;"/><polygon fill="none" points="229.367,150.123,227.463,129.019,242.112,144.329,229.367,150.123" style="stroke: #A80036; stroke-width: 1.0;"/><!--link mastermind.views.models.ColorView to mastermind.types.Color--><path d="M464.32,676.02 C483.101,722.976 512.109,779.759 553,819 C586.629,851.272 636.63,871.4404 672.377,882.6293 " fill="none" id="mastermind.views.models.ColorView-mastermind.types.Color" style="stroke: #A80036; stroke-width: 1.0;"/><polygon fill="#A80036" points="684.845,886.351,677.3652,879.9437,680.0539,884.9208,675.0769,887.6095,684.845,886.351" style="stroke: #A80036; stroke-width: 1.0;"/><line style="stroke: #A80036; stroke-width: 1.0;" x1="680.0539" x2="672.3875" y1="884.9208" y2="882.6326"/><polygon fill="#A80036" points="459.529,663.686,457.9728,670.7272,463.8738,674.8718,465.43,667.8306,459.529,663.686" style="stroke: #A80036; stroke-width: 1.0;"/><!--link santaTecla.utils.WithConsoleView to mastermind.views.models.ErrorView--><path d="M259.48,142.299 C282.791,162.218 312.237,187.38 338.607,209.913 " fill="none" id="santaTecla.utils.WithConsoleView-mastermind.views.models.ErrorView" style="stroke: #A80036; stroke-width: 1.0;"/><polygon fill="none" points="254.737,147.453,244.079,129.139,263.832,136.81,254.737,147.453" style="stroke: #A80036; stroke-width: 1.0;"/><!--link mastermind.views.models.ErrorView to mastermind.types.Error--><path d="M485.616,324.602 C487.41,325.438 489.206,326.239 491,327 C610.168,377.542 690.93,289.436 776,387 C895.01,523.489 846.351,766.95 822.362,858.1732 " fill="none" id="mastermind.views.models.ErrorView-mastermind.types.Error" style="stroke: #A80036; stroke-width: 1.0;"/><polygon fill="#A80036" points="818.889,870.9834,825.105,863.344,820.1976,866.1577,817.3839,861.2502,818.889,870.9834" style="stroke: #A80036; stroke-width: 1.0;"/><line style="stroke: #A80036; stroke-width: 1.0;" x1="820.1976" x2="822.291" y1="866.1577" y2="858.4364"/><polygon fill="#A80036" points="473.833,318.626,477.3746,324.9075,484.5351,324.0542,480.9934,317.7727,473.833,318.626" style="stroke: #A80036; stroke-width: 1.0;"/><!--link mastermind.views.models.ErrorView to mastermind.views.models.ColorView--><path d="M411.578,327.169 C416.612,379.215 424.055,456.164 429.588,513.367 " fill="none" id="mastermind.views.models.ErrorView-mastermind.views.models.ColorView" style="stroke: #A80036; stroke-width: 1.0; stroke-dasharray: 7.0,7.0;"/><polygon fill="#A80036" points="430.083,518.492,433.1979,509.1487,429.6016,513.5152,425.2351,509.9189,430.083,518.492" style="stroke: #A80036; stroke-width: 1.0;"/><!--link mastermind.views.models.MessageView to santaTecla.utils.Console--><path d="M561.297,397.304 C557.325,393.687 553.227,390.243 549,387 C465.869,323.213 413.073,377.022 321,327 C230.436,277.798 146.627,187.913 105.1762,139.315 " fill="none" id="mastermind.views.models.MessageView-santaTecla.utils.Console" style="stroke: #A80036; stroke-width: 1.0;"/><polygon fill="#A80036" points="96.7501,129.316,99.4909,138.7758,99.9721,133.1395,105.6084,133.6206,96.7501,129.316" style="stroke: #A80036; stroke-width: 1.0;"/><line style="stroke: #A80036; stroke-width: 1.0;" x1="99.9721" x2="105.1277" y1="133.1395" y2="139.257"/><polygon fill="#A80036" points="570.91,406.63,569.3888,399.5812,562.2971,398.2743,563.8183,405.3231,570.91,406.63" style="stroke: #A80036; stroke-width: 1.0;"/><!--
@startuml
class mastermind.views.models.AttemptsView {
-GameController gameController
~AttemptsView(GameController gameController)
~void writeln()
}
mastermind.views.models.AttemptsView *-down-> mastermind.controllers.GameController
mastermind.views.models.AttemptsView ..> mastermind.views.models.MessageView

class  mastermind.views.models.GameView{
~GameController gameController
+GameView(GameController gameController)
~void writeln()
}
mastermind.views.models.GameView *-down-> mastermind.controllers.GameController
mastermind.views.models.GameView..> mastermind.views.models.SecretCombinationView
mastermind.views.models.GameView..>  mastermind.views.models.ProposedCombinationView
mastermind.views.models.GameView..>  mastermind.views.models.ResultView
mastermind.views.models.GameView..> mastermind.views.models.MessageView
mastermind.views.models.GameView..> mastermind.views.models.AttemptsView

class  mastermind.views.models.ProposedCombinationView{
-GameController gameController
+ProposedCombinationView(GameController gameController)
~void write(int position)
+List<Color> read()
}
santaTecla.utils.WithConsoleView <|-down- mastermind.views.models.ProposedCombinationView
mastermind.views.models.ProposedCombinationView *-down-> mastermind.controllers.GameController
mastermind.views.models.ProposedCombinationView..> mastermind.views.models.MessageView
mastermind.views.models.ProposedCombinationView ..>  mastermind.views.models.ColorView
mastermind.views.models.ProposedCombinationView ..>  mastermind.types.Color

class  mastermind.views.models.ResultView{
-GameController gameController
~ResultView(GameController gameController)
~void writeln(int position)
}
mastermind.views.models.ResultView *-down-> mastermind.controllers.GameController
mastermind.views.models.ResultView..> mastermind.views.models.MessageView

class  mastermind.views.models.SecretCombinationView{
-Controller controller
~SecretCombinationView(Controller controller)
~void writeln()
}
mastermind.views.models.SecretCombinationView *-down-> mastermind.controllers.Controller
mastermind.views.models.SecretCombinationView..> mastermind.views.models.MessageView

class  mastermind.views.models.ColorView{
~{static}char[] INITIALS
#Color color
~ColorView(Color color)
~{static}String allInitials()
~char getInitial()
~{static}Color getInstance(char character)
~void write()
}
santaTecla.utils.WithConsoleView <|-down- mastermind.views.models.ColorView
mastermind.views.models.ColorView *-down-> mastermind.types.Color

class  mastermind.views.models.ErrorView{
~{static}String[] MESSAGES
~Error error
~ErrorView(Error error)
~String getMessage()
~void writeln()
}
santaTecla.utils.WithConsoleView <|-down- mastermind.views.models.ErrorView
mastermind.views.models.ErrorView *-down-> mastermind.types.Error
mastermind.views.models.ErrorView ..> mastermind.views.models.ColorView

enum mastermind.views.models.MessageView {
ATTEMPTS
SECRET
RESUME
SAVE
RESULT
PROPOSED_COMBINATION
TITLE
WINNER
LOOSER
OPTION
PROPOSE_COMMAND
UNDO_COMMAND
REDO_COMMAND
NEWGAME_COMMAND
EXIT_COMMAND
OPENGAME_COMMAND
NAME
NEW_LINE
message
console
-MessageView(String message)
+String getMessage()
+void write()
+void writeln()
+void writeln(int attempts)
+void writeln(int blacks, int whites)
}
mastermind.views.models.MessageView *-down-> santaTecla.utils.Console
@enduml

PlantUML version 1.2019.05(Sat Apr 20 18:45:36 CEST 2019)
(GPL source distribution)
Java Runtime: OpenJDK Runtime Environment
JVM: OpenJDK 64-Bit Server VM
Java Version: 1.8.0_222-b10
Operating System: Windows 10
OS Version: 10.0
Default Encoding: windows-1252
Language: es
Country: ES
--></g></svg>