<?xml version="1.0" encoding="UTF-8" standalone="no"?><svg xmlns="http://www.w3.org/2000/svg" xmlns:xlink="http://www.w3.org/1999/xlink" contentScriptType="application/ecmascript" contentStyleType="text/css" height="1711px" preserveAspectRatio="none" style="width:1157px;height:1711px;" version="1.1" viewBox="0 0 1157 1711" width="1157px" zoomAndPan="magnify"><defs><filter height="300%" id="fgdtmv78hw4lc" width="300%" x="-1" y="-1"><feGaussianBlur result="blurOut" stdDeviation="2.0"/><feColorMatrix in="blurOut" result="blurOut2" type="matrix" values="0 0 0 0 0 0 0 0 0 0 0 0 0 0 0 0 0 0 .4 0"/><feOffset dx="4.0" dy="4.0" in="blurOut2" result="blurOut3"/><feBlend in="SourceGraphic" in2="blurOut3" mode="normal"/></filter></defs><g><!--cluster mastermind.models--><polygon fill="#FFFFFF" filter="url(#fgdtmv78hw4lc)" points="28.0732,24,171.0732,24,178.0732,47.6094,906.073,47.6094,906.073,1699,28.0732,1699,28.0732,24" style="stroke: #000000; stroke-width: 1.5;"/><line style="stroke: #000000; stroke-width: 1.5;" x1="28.0732" x2="178.0732" y1="47.6094" y2="47.6094"/><text fill="#000000" font-family="sans-serif" font-size="14" font-weight="bold" lengthAdjust="spacingAndGlyphs" textLength="137" x="32.0732" y="40.5332">mastermind.models</text><!--cluster java.util--><polygon fill="#FFFFFF" filter="url(#fgdtmv78hw4lc)" points="936.073,1366.5,997.073,1366.5,1004.073,1390.1094,1135.07,1390.1094,1135.07,1466.5,936.073,1466.5,936.073,1366.5" style="stroke: #000000; stroke-width: 1.5;"/><line style="stroke: #000000; stroke-width: 1.5;" x1="936.073" x2="1004.073" y1="1390.1094" y2="1390.1094"/><text fill="#000000" font-family="sans-serif" font-size="14" font-weight="bold" lengthAdjust="spacingAndGlyphs" textLength="55" x="940.073" y="1383.0332">java.util</text><!--class mastermind.models.Color--><rect fill="#FEFECE" filter="url(#fgdtmv78hw4lc)" height="186.3594" id="mastermind.models.Color" style="stroke: #A80036; stroke-width: 1.5;" width="132" x="118.073" y="1101"/><ellipse cx="164.823" cy="1117" fill="#ADD1B2" rx="11" ry="11" style="stroke: #A80036; stroke-width: 1.0;"/><path d="M167.5886,1112.875 Q167.7449,1112.6563 167.9324,1112.5469 Q168.1199,1112.4375 168.3386,1112.4375 Q168.7136,1112.4375 168.948,1112.6953 Q169.1824,1112.9531 169.1824,1113.5625 L169.1824,1115.0156 Q169.1824,1115.625 168.948,1115.8906 Q168.7136,1116.1563 168.3386,1116.1563 Q167.9949,1116.1563 167.7917,1115.9531 Q167.5886,1115.7656 167.4792,1115.25 Q167.4324,1114.8906 167.2449,1114.7031 Q166.9167,1114.3281 166.3074,1114.1094 Q165.698,1113.8906 165.073,1113.8906 Q164.3074,1113.8906 163.6746,1114.2188 Q163.0417,1114.5469 162.5496,1115.2969 Q162.0574,1116.0469 162.0574,1117.0781 L162.0574,1118.1719 Q162.0574,1119.4063 162.948,1120.2266 Q163.8386,1121.0469 165.4324,1121.0469 Q166.3699,1121.0469 167.0261,1120.7969 Q167.4167,1120.6406 167.8386,1120.2031 Q168.1042,1119.9375 168.2527,1119.8594 Q168.4011,1119.7813 168.6042,1119.7813 Q168.9324,1119.7813 169.1902,1120.0391 Q169.448,1120.2969 169.448,1120.6406 Q169.448,1120.9844 169.1042,1121.3906 Q168.6042,1121.9688 167.8074,1122.2969 Q166.7292,1122.75 165.4324,1122.75 Q163.9167,1122.75 162.7136,1122.125 Q161.7292,1121.625 161.0417,1120.5547 Q160.3542,1119.4844 160.3542,1118.2031 L160.3542,1117.0469 Q160.3542,1115.7188 160.9714,1114.5703 Q161.5886,1113.4219 162.6824,1112.8047 Q163.7761,1112.1875 165.0105,1112.1875 Q165.7449,1112.1875 166.3933,1112.3516 Q167.0417,1112.5156 167.5886,1112.875 Z "/><text fill="#000000" font-family="sans-serif" font-size="12" lengthAdjust="spacingAndGlyphs" textLength="30" x="185.323" y="1121.9102">Color</text><line style="stroke: #A80036; stroke-width: 1.5;" x1="119.073" x2="249.073" y1="1133" y2="1133"/><ellipse cx="129.073" cy="1145.418" fill="none" rx="3" ry="3" style="stroke: #038048; stroke-width: 1.0;"/><text fill="#000000" font-family="sans-serif" font-size="11" lengthAdjust="spacingAndGlyphs" text-decoration="underline" textLength="51" x="138.073" y="1148.4189">RED: Color</text><ellipse cx="129.073" cy="1159.2539" fill="none" rx="3" ry="3" style="stroke: #038048; stroke-width: 1.0;"/><text fill="#000000" font-family="sans-serif" font-size="11" lengthAdjust="spacingAndGlyphs" text-decoration="underline" textLength="57" x="138.073" y="1162.2549">BLUE: Color</text><ellipse cx="129.073" cy="1173.0898" fill="none" rx="3" ry="3" style="stroke: #038048; stroke-width: 1.0;"/><text fill="#000000" font-family="sans-serif" font-size="11" lengthAdjust="spacingAndGlyphs" text-decoration="underline" textLength="75" x="138.073" y="1176.0908">YELLOW: Color</text><ellipse cx="129.073" cy="1186.9258" fill="none" rx="3" ry="3" style="stroke: #038048; stroke-width: 1.0;"/><text fill="#000000" font-family="sans-serif" font-size="11" lengthAdjust="spacingAndGlyphs" text-decoration="underline" textLength="65" x="138.073" y="1189.9268">GREEN: Color</text><ellipse cx="129.073" cy="1200.7617" fill="none" rx="3" ry="3" style="stroke: #038048; stroke-width: 1.0;"/><text fill="#000000" font-family="sans-serif" font-size="11" lengthAdjust="spacingAndGlyphs" text-decoration="underline" textLength="75" x="138.073" y="1203.7627">ORANGE: Color</text><ellipse cx="129.073" cy="1214.5977" fill="none" rx="3" ry="3" style="stroke: #038048; stroke-width: 1.0;"/><text fill="#000000" font-family="sans-serif" font-size="11" lengthAdjust="spacingAndGlyphs" text-decoration="underline" textLength="69" x="138.073" y="1217.5986">PURPLE: Color</text><line style="stroke: #A80036; stroke-width: 1.5;" x1="119.073" x2="249.073" y1="1224.0156" y2="1224.0156"/><rect fill="#F24D5C" height="6" style="stroke: #C82930; stroke-width: 1.0;" width="6" x="126.073" y="1233.4336"/><text fill="#000000" font-family="sans-serif" font-size="11" lengthAdjust="spacingAndGlyphs" textLength="33" x="138.073" y="1239.4346">Color()</text><ellipse cx="129.073" cy="1250.2695" fill="#84BE84" rx="3" ry="3" style="stroke: #038048; stroke-width: 1.0;"/><text fill="#000000" font-family="sans-serif" font-size="11" lengthAdjust="spacingAndGlyphs" text-decoration="underline" textLength="105" x="138.073" y="1253.2705">valueOf(String): Color</text><polygon fill="#4177AF" points="129.073,1260.1055,125.073,1266.1055,133.073,1266.1055" style="stroke: #1963A0; stroke-width: 1.0;"/><text fill="#000000" font-family="sans-serif" font-size="11" lengthAdjust="spacingAndGlyphs" text-decoration="underline" textLength="54" x="138.073" y="1267.1064">length(): int</text><polygon fill="#4177AF" points="129.073,1273.9414,125.073,1279.9414,133.073,1279.9414" style="stroke: #1963A0; stroke-width: 1.0;"/><text fill="#000000" font-family="sans-serif" font-size="11" lengthAdjust="spacingAndGlyphs" text-decoration="underline" textLength="106" x="138.073" y="1280.9424">getInstance(int): Color</text><!--class mastermind.models.Combination--><rect fill="#FEFECE" filter="url(#fgdtmv78hw4lc)" height="103.3438" id="mastermind.models.Combination" style="stroke: #A80036; stroke-width: 1.5;" width="116" x="110.073" y="861.5"/><ellipse cx="130.923" cy="877.5" fill="#ADD1B2" rx="11" ry="11" style="stroke: #A80036; stroke-width: 1.0;"/><path d="M133.6886,873.375 Q133.8449,873.1563 134.0324,873.0469 Q134.2199,872.9375 134.4386,872.9375 Q134.8136,872.9375 135.048,873.1953 Q135.2824,873.4531 135.2824,874.0625 L135.2824,875.5156 Q135.2824,876.125 135.048,876.3906 Q134.8136,876.6563 134.4386,876.6563 Q134.0949,876.6563 133.8918,876.4531 Q133.6886,876.2656 133.5793,875.75 Q133.5324,875.3906 133.3449,875.2031 Q133.0168,874.8281 132.4074,874.6094 Q131.798,874.3906 131.173,874.3906 Q130.4074,874.3906 129.7746,874.7188 Q129.1418,875.0469 128.6496,875.7969 Q128.1574,876.5469 128.1574,877.5781 L128.1574,878.6719 Q128.1574,879.9063 129.048,880.7266 Q129.9386,881.5469 131.5324,881.5469 Q132.4699,881.5469 133.1261,881.2969 Q133.5168,881.1406 133.9386,880.7031 Q134.2043,880.4375 134.3527,880.3594 Q134.5011,880.2813 134.7043,880.2813 Q135.0324,880.2813 135.2902,880.5391 Q135.548,880.7969 135.548,881.1406 Q135.548,881.4844 135.2043,881.8906 Q134.7043,882.4688 133.9074,882.7969 Q132.8293,883.25 131.5324,883.25 Q130.0168,883.25 128.8136,882.625 Q127.8293,882.125 127.1418,881.0547 Q126.4543,879.9844 126.4543,878.7031 L126.4543,877.5469 Q126.4543,876.2188 127.0714,875.0703 Q127.6886,873.9219 128.7824,873.3047 Q129.8761,872.6875 131.1105,872.6875 Q131.8449,872.6875 132.4933,872.8516 Q133.1418,873.0156 133.6886,873.375 Z "/><text fill="#000000" font-family="sans-serif" font-size="12" lengthAdjust="spacingAndGlyphs" textLength="71" x="146.223" y="882.4102">Combination</text><line style="stroke: #A80036; stroke-width: 1.5;" x1="111.073" x2="225.073" y1="893.5" y2="893.5"/><rect fill="none" height="6" style="stroke: #C82930; stroke-width: 1.0;" width="6" x="118.073" y="902.918"/><text fill="#000000" font-family="sans-serif" font-size="11" lengthAdjust="spacingAndGlyphs" text-decoration="underline" textLength="49" x="130.073" y="908.9189">WIDTH: int</text><polygon fill="none" points="121.073,914.7539,125.073,918.7539,121.073,922.7539,117.073,918.7539" style="stroke: #B38D22; stroke-width: 1.0;"/><text fill="#000000" font-family="sans-serif" font-size="11" lengthAdjust="spacingAndGlyphs" textLength="90" x="130.073" y="922.7549">colors: List&lt;Color&gt;</text><line style="stroke: #A80036; stroke-width: 1.5;" x1="111.073" x2="225.073" y1="929.1719" y2="929.1719"/><polygon fill="#FFFF44" points="121.073,936.5898,125.073,940.5898,121.073,944.5898,117.073,940.5898" style="stroke: #B38D22; stroke-width: 1.0;"/><text fill="#000000" font-family="sans-serif" font-size="11" lengthAdjust="spacingAndGlyphs" textLength="66" x="130.073" y="944.5908">Combination()</text><ellipse cx="121.073" cy="955.4258" fill="#84BE84" rx="3" ry="3" style="stroke: #038048; stroke-width: 1.0;"/><text fill="#000000" font-family="sans-serif" font-size="11" lengthAdjust="spacingAndGlyphs" text-decoration="underline" textLength="67" x="130.073" y="958.4268">getWidth(): int</text><!--class mastermind.models.Error--><rect fill="#FEFECE" filter="url(#fgdtmv78hw4lc)" height="117.1797" id="mastermind.models.Error" style="stroke: #A80036; stroke-width: 1.5;" width="172" x="200.073" y="1566"/><ellipse cx="268.323" cy="1582" fill="#ADD1B2" rx="11" ry="11" style="stroke: #A80036; stroke-width: 1.0;"/><path d="M271.0886,1577.875 Q271.2449,1577.6563 271.4324,1577.5469 Q271.6199,1577.4375 271.8386,1577.4375 Q272.2136,1577.4375 272.448,1577.6953 Q272.6824,1577.9531 272.6824,1578.5625 L272.6824,1580.0156 Q272.6824,1580.625 272.448,1580.8906 Q272.2136,1581.1563 271.8386,1581.1563 Q271.4949,1581.1563 271.2918,1580.9531 Q271.0886,1580.7656 270.9793,1580.25 Q270.9324,1579.8906 270.7449,1579.7031 Q270.4168,1579.3281 269.8074,1579.1094 Q269.198,1578.8906 268.573,1578.8906 Q267.8074,1578.8906 267.1746,1579.2188 Q266.5418,1579.5469 266.0496,1580.2969 Q265.5574,1581.0469 265.5574,1582.0781 L265.5574,1583.1719 Q265.5574,1584.4063 266.448,1585.2266 Q267.3386,1586.0469 268.9324,1586.0469 Q269.8699,1586.0469 270.5261,1585.7969 Q270.9168,1585.6406 271.3386,1585.2031 Q271.6043,1584.9375 271.7527,1584.8594 Q271.9011,1584.7813 272.1043,1584.7813 Q272.4324,1584.7813 272.6902,1585.0391 Q272.948,1585.2969 272.948,1585.6406 Q272.948,1585.9844 272.6043,1586.3906 Q272.1043,1586.9688 271.3074,1587.2969 Q270.2293,1587.75 268.9324,1587.75 Q267.4168,1587.75 266.2136,1587.125 Q265.2293,1586.625 264.5418,1585.5547 Q263.8543,1584.4844 263.8543,1583.2031 L263.8543,1582.0469 Q263.8543,1580.7188 264.4714,1579.5703 Q265.0886,1578.4219 266.1824,1577.8047 Q267.2761,1577.1875 268.5105,1577.1875 Q269.2449,1577.1875 269.8933,1577.3516 Q270.5418,1577.5156 271.0886,1577.875 Z "/><text fill="#000000" font-family="sans-serif" font-size="12" lengthAdjust="spacingAndGlyphs" textLength="27" x="288.823" y="1586.9102">Error</text><line style="stroke: #A80036; stroke-width: 1.5;" x1="201.073" x2="371.073" y1="1598" y2="1598"/><ellipse cx="211.073" cy="1610.418" fill="none" rx="3" ry="3" style="stroke: #038048; stroke-width: 1.0;"/><text fill="#000000" font-family="sans-serif" font-size="11" lengthAdjust="spacingAndGlyphs" text-decoration="underline" textLength="92" x="220.073" y="1613.4189">DUPLICATED: Error</text><ellipse cx="211.073" cy="1624.2539" fill="none" rx="3" ry="3" style="stroke: #038048; stroke-width: 1.0;"/><text fill="#000000" font-family="sans-serif" font-size="11" lengthAdjust="spacingAndGlyphs" text-decoration="underline" textLength="146" x="220.073" y="1627.2549">WRONG_CHARACTERS: Error</text><ellipse cx="211.073" cy="1638.0898" fill="none" rx="3" ry="3" style="stroke: #038048; stroke-width: 1.0;"/><text fill="#000000" font-family="sans-serif" font-size="11" lengthAdjust="spacingAndGlyphs" text-decoration="underline" textLength="116" x="220.073" y="1641.0908">WRONG_LENGTH: Error</text><line style="stroke: #A80036; stroke-width: 1.5;" x1="201.073" x2="371.073" y1="1647.5078" y2="1647.5078"/><rect fill="#F24D5C" height="6" style="stroke: #C82930; stroke-width: 1.0;" width="6" x="208.073" y="1656.9258"/><text fill="#000000" font-family="sans-serif" font-size="11" lengthAdjust="spacingAndGlyphs" textLength="32" x="220.073" y="1662.9268">Error()</text><ellipse cx="211.073" cy="1673.7617" fill="#84BE84" rx="3" ry="3" style="stroke: #038048; stroke-width: 1.0;"/><text fill="#000000" font-family="sans-serif" font-size="11" lengthAdjust="spacingAndGlyphs" text-decoration="underline" textLength="104" x="220.073" y="1676.7627">valueOf(String): Error</text><!--class mastermind.models.Game--><rect fill="#FEFECE" filter="url(#fgdtmv78hw4lc)" height="255.5391" id="mastermind.models.Game" style="stroke: #A80036; stroke-width: 1.5;" width="275" x="455.573" y="785"/><ellipse cx="571.823" cy="801" fill="#ADD1B2" rx="11" ry="11" style="stroke: #A80036; stroke-width: 1.0;"/><path d="M574.5886,796.875 Q574.7449,796.6563 574.9324,796.5469 Q575.1199,796.4375 575.3386,796.4375 Q575.7136,796.4375 575.948,796.6953 Q576.1824,796.9531 576.1824,797.5625 L576.1824,799.0156 Q576.1824,799.625 575.948,799.8906 Q575.7136,800.1563 575.3386,800.1563 Q574.9949,800.1563 574.7918,799.9531 Q574.5886,799.7656 574.4793,799.25 Q574.4324,798.8906 574.2449,798.7031 Q573.9168,798.3281 573.3074,798.1094 Q572.698,797.8906 572.073,797.8906 Q571.3074,797.8906 570.6746,798.2188 Q570.0418,798.5469 569.5496,799.2969 Q569.0574,800.0469 569.0574,801.0781 L569.0574,802.1719 Q569.0574,803.4063 569.948,804.2266 Q570.8386,805.0469 572.4324,805.0469 Q573.3699,805.0469 574.0261,804.7969 Q574.4168,804.6406 574.8386,804.2031 Q575.1043,803.9375 575.2527,803.8594 Q575.4011,803.7813 575.6043,803.7813 Q575.9324,803.7813 576.1902,804.0391 Q576.448,804.2969 576.448,804.6406 Q576.448,804.9844 576.1043,805.3906 Q575.6043,805.9688 574.8074,806.2969 Q573.7293,806.75 572.4324,806.75 Q570.9168,806.75 569.7136,806.125 Q568.7293,805.625 568.0418,804.5547 Q567.3543,803.4844 567.3543,802.2031 L567.3543,801.0469 Q567.3543,799.7188 567.9714,798.5703 Q568.5886,797.4219 569.6824,796.8047 Q570.7761,796.1875 572.0105,796.1875 Q572.7449,796.1875 573.3933,796.3516 Q574.0418,796.5156 574.5886,796.875 Z "/><text fill="#000000" font-family="sans-serif" font-size="12" lengthAdjust="spacingAndGlyphs" textLength="34" x="592.323" y="805.9102">Game</text><line style="stroke: #A80036; stroke-width: 1.5;" x1="456.573" x2="729.573" y1="817" y2="817"/><rect fill="none" height="6" style="stroke: #C82930; stroke-width: 1.0;" width="6" x="463.573" y="826.418"/><text fill="#000000" font-family="sans-serif" font-size="11" lengthAdjust="spacingAndGlyphs" text-decoration="underline" textLength="75" x="475.573" y="832.4189">MAX_LONG: int</text><rect fill="none" height="6" style="stroke: #C82930; stroke-width: 1.0;" width="6" x="463.573" y="840.2539"/><text fill="#000000" font-family="sans-serif" font-size="11" lengthAdjust="spacingAndGlyphs" textLength="185" x="475.573" y="846.2549">secretCombination: SecretCombination</text><rect fill="none" height="6" style="stroke: #C82930; stroke-width: 1.0;" width="6" x="463.573" y="854.0898"/><text fill="#000000" font-family="sans-serif" font-size="11" lengthAdjust="spacingAndGlyphs" textLength="249" x="475.573" y="860.0908">proposedCombinations: List&lt;ProposedCombination&gt;</text><rect fill="none" height="6" style="stroke: #C82930; stroke-width: 1.0;" width="6" x="463.573" y="867.9258"/><text fill="#000000" font-family="sans-serif" font-size="11" lengthAdjust="spacingAndGlyphs" textLength="98" x="475.573" y="873.9268">results: List&lt;Result&gt;</text><rect fill="none" height="6" style="stroke: #C82930; stroke-width: 1.0;" width="6" x="463.573" y="881.7617"/><text fill="#000000" font-family="sans-serif" font-size="11" lengthAdjust="spacingAndGlyphs" textLength="36" x="475.573" y="887.7627">turn: int</text><line style="stroke: #A80036; stroke-width: 1.5;" x1="456.573" x2="729.573" y1="894.1797" y2="894.1797"/><ellipse cx="466.573" cy="906.5977" fill="#84BE84" rx="3" ry="3" style="stroke: #038048; stroke-width: 1.0;"/><text fill="#000000" font-family="sans-serif" font-size="11" lengthAdjust="spacingAndGlyphs" textLength="36" x="475.573" y="909.5986">Game()</text><ellipse cx="466.573" cy="920.4336" fill="#84BE84" rx="3" ry="3" style="stroke: #038048; stroke-width: 1.0;"/><text fill="#000000" font-family="sans-serif" font-size="11" lengthAdjust="spacingAndGlyphs" textLength="58" x="475.573" y="923.4346">clear(): void</text><ellipse cx="466.573" cy="934.2695" fill="#84BE84" rx="3" ry="3" style="stroke: #038048; stroke-width: 1.0;"/><text fill="#000000" font-family="sans-serif" font-size="11" lengthAdjust="spacingAndGlyphs" textLength="92" x="475.573" y="937.2705">set(Memento): void</text><ellipse cx="466.573" cy="948.1055" fill="#84BE84" rx="3" ry="3" style="stroke: #038048; stroke-width: 1.0;"/><text fill="#000000" font-family="sans-serif" font-size="11" lengthAdjust="spacingAndGlyphs" textLength="89" x="475.573" y="951.1064">getCodes(): int[][][]</text><ellipse cx="466.573" cy="961.9414" fill="#84BE84" rx="3" ry="3" style="stroke: #038048; stroke-width: 1.0;"/><text fill="#000000" font-family="sans-serif" font-size="11" lengthAdjust="spacingAndGlyphs" textLength="94" x="475.573" y="964.9424">isLooser(): boolean</text><ellipse cx="466.573" cy="975.7773" fill="#84BE84" rx="3" ry="3" style="stroke: #038048; stroke-width: 1.0;"/><text fill="#000000" font-family="sans-serif" font-size="11" lengthAdjust="spacingAndGlyphs" textLength="94" x="475.573" y="978.7783">isWinner(): boolean</text><ellipse cx="466.573" cy="989.6133" fill="#84BE84" rx="3" ry="3" style="stroke: #038048; stroke-width: 1.0;"/><text fill="#000000" font-family="sans-serif" font-size="11" lengthAdjust="spacingAndGlyphs" textLength="62" x="475.573" y="992.6143">getTurn(): int</text><ellipse cx="466.573" cy="1003.4492" fill="#84BE84" rx="3" ry="3" style="stroke: #038048; stroke-width: 1.0;"/><text fill="#000000" font-family="sans-serif" font-size="11" lengthAdjust="spacingAndGlyphs" textLength="67" x="475.573" y="1006.4502">getWidth(): int</text><ellipse cx="466.573" cy="1017.2852" fill="#84BE84" rx="3" ry="3" style="stroke: #038048; stroke-width: 1.0;"/><text fill="#000000" font-family="sans-serif" font-size="11" lengthAdjust="spacingAndGlyphs" textLength="236" x="475.573" y="1020.2861">proposeCombination(ProposedCombination): void</text><ellipse cx="466.573" cy="1031.1211" fill="#84BE84" rx="3" ry="3" style="stroke: #038048; stroke-width: 1.0;"/><text fill="#000000" font-family="sans-serif" font-size="11" lengthAdjust="spacingAndGlyphs" textLength="131" x="475.573" y="1034.1221">createMemento(): Memento</text><!--class mastermind.models.SecretCombination--><rect fill="#FEFECE" filter="url(#fgdtmv78hw4lc)" height="75.6719" id="mastermind.models.SecretCombination" style="stroke: #A80036; stroke-width: 1.5;" width="219" x="322.573" y="1156"/><ellipse cx="374.823" cy="1172" fill="#ADD1B2" rx="11" ry="11" style="stroke: #A80036; stroke-width: 1.0;"/><path d="M377.5886,1167.875 Q377.7449,1167.6563 377.9324,1167.5469 Q378.1199,1167.4375 378.3386,1167.4375 Q378.7136,1167.4375 378.948,1167.6953 Q379.1824,1167.9531 379.1824,1168.5625 L379.1824,1170.0156 Q379.1824,1170.625 378.948,1170.8906 Q378.7136,1171.1563 378.3386,1171.1563 Q377.9949,1171.1563 377.7918,1170.9531 Q377.5886,1170.7656 377.4793,1170.25 Q377.4324,1169.8906 377.2449,1169.7031 Q376.9168,1169.3281 376.3074,1169.1094 Q375.698,1168.8906 375.073,1168.8906 Q374.3074,1168.8906 373.6746,1169.2188 Q373.0418,1169.5469 372.5496,1170.2969 Q372.0574,1171.0469 372.0574,1172.0781 L372.0574,1173.1719 Q372.0574,1174.4063 372.948,1175.2266 Q373.8386,1176.0469 375.4324,1176.0469 Q376.3699,1176.0469 377.0261,1175.7969 Q377.4168,1175.6406 377.8386,1175.2031 Q378.1043,1174.9375 378.2527,1174.8594 Q378.4011,1174.7813 378.6043,1174.7813 Q378.9324,1174.7813 379.1902,1175.0391 Q379.448,1175.2969 379.448,1175.6406 Q379.448,1175.9844 379.1043,1176.3906 Q378.6043,1176.9688 377.8074,1177.2969 Q376.7293,1177.75 375.4324,1177.75 Q373.9168,1177.75 372.7136,1177.125 Q371.7293,1176.625 371.0418,1175.5547 Q370.3543,1174.4844 370.3543,1173.2031 L370.3543,1172.0469 Q370.3543,1170.7188 370.9714,1169.5703 Q371.5886,1168.4219 372.6824,1167.8047 Q373.7761,1167.1875 375.0105,1167.1875 Q375.7449,1167.1875 376.3933,1167.3516 Q377.0418,1167.5156 377.5886,1167.875 Z "/><text fill="#000000" font-family="sans-serif" font-size="12" lengthAdjust="spacingAndGlyphs" textLength="106" x="395.323" y="1176.9102">SecretCombination</text><line style="stroke: #A80036; stroke-width: 1.5;" x1="323.573" x2="540.573" y1="1188" y2="1188"/><line style="stroke: #A80036; stroke-width: 1.5;" x1="323.573" x2="540.573" y1="1196" y2="1196"/><polygon fill="#4177AF" points="333.573,1204.418,329.573,1210.418,337.573,1210.418" style="stroke: #1963A0; stroke-width: 1.0;"/><text fill="#000000" font-family="sans-serif" font-size="11" lengthAdjust="spacingAndGlyphs" textLength="98" x="342.573" y="1211.4189">SecretCombination()</text><polygon fill="#4177AF" points="333.573,1218.2539,329.573,1224.2539,337.573,1224.2539" style="stroke: #1963A0; stroke-width: 1.0;"/><text fill="#000000" font-family="sans-serif" font-size="11" lengthAdjust="spacingAndGlyphs" textLength="193" x="342.573" y="1225.2549">getResult(ProposedCombination): Result</text><!--class mastermind.models.Result--><rect fill="#FEFECE" filter="url(#fgdtmv78hw4lc)" height="158.6875" id="mastermind.models.Result" style="stroke: #A80036; stroke-width: 1.5;" width="120" x="518.073" y="1347"/><ellipse cx="556.473" cy="1363" fill="#ADD1B2" rx="11" ry="11" style="stroke: #A80036; stroke-width: 1.0;"/><path d="M559.2386,1358.875 Q559.3949,1358.6563 559.5824,1358.5469 Q559.7699,1358.4375 559.9886,1358.4375 Q560.3636,1358.4375 560.598,1358.6953 Q560.8324,1358.9531 560.8324,1359.5625 L560.8324,1361.0156 Q560.8324,1361.625 560.598,1361.8906 Q560.3636,1362.1563 559.9886,1362.1563 Q559.6449,1362.1563 559.4418,1361.9531 Q559.2386,1361.7656 559.1293,1361.25 Q559.0824,1360.8906 558.8949,1360.7031 Q558.5668,1360.3281 557.9574,1360.1094 Q557.348,1359.8906 556.723,1359.8906 Q555.9574,1359.8906 555.3246,1360.2188 Q554.6918,1360.5469 554.1996,1361.2969 Q553.7074,1362.0469 553.7074,1363.0781 L553.7074,1364.1719 Q553.7074,1365.4063 554.598,1366.2266 Q555.4886,1367.0469 557.0824,1367.0469 Q558.0199,1367.0469 558.6761,1366.7969 Q559.0668,1366.6406 559.4886,1366.2031 Q559.7543,1365.9375 559.9027,1365.8594 Q560.0511,1365.7813 560.2543,1365.7813 Q560.5824,1365.7813 560.8402,1366.0391 Q561.098,1366.2969 561.098,1366.6406 Q561.098,1366.9844 560.7543,1367.3906 Q560.2543,1367.9688 559.4574,1368.2969 Q558.3793,1368.75 557.0824,1368.75 Q555.5668,1368.75 554.3636,1368.125 Q553.3793,1367.625 552.6918,1366.5547 Q552.0043,1365.4844 552.0043,1364.2031 L552.0043,1363.0469 Q552.0043,1361.7188 552.6214,1360.5703 Q553.2386,1359.4219 554.3324,1358.8047 Q555.4261,1358.1875 556.6605,1358.1875 Q557.3949,1358.1875 558.0433,1358.3516 Q558.6918,1358.5156 559.2386,1358.875 Z "/><text fill="#000000" font-family="sans-serif" font-size="12" lengthAdjust="spacingAndGlyphs" textLength="36" x="575.673" y="1367.9102">Result</text><line style="stroke: #A80036; stroke-width: 1.5;" x1="519.073" x2="637.073" y1="1379" y2="1379"/><rect fill="none" height="6" style="stroke: #C82930; stroke-width: 1.0;" width="6" x="526.073" y="1388.418"/><text fill="#000000" font-family="sans-serif" font-size="11" lengthAdjust="spacingAndGlyphs" textLength="48" x="538.073" y="1394.4189">blacks: int</text><rect fill="none" height="6" style="stroke: #C82930; stroke-width: 1.0;" width="6" x="526.073" y="1402.2539"/><text fill="#000000" font-family="sans-serif" font-size="11" lengthAdjust="spacingAndGlyphs" textLength="50" x="538.073" y="1408.2549">whites: int</text><line style="stroke: #A80036; stroke-width: 1.5;" x1="519.073" x2="637.073" y1="1414.6719" y2="1414.6719"/><polygon fill="#4177AF" points="529.073,1423.0898,525.073,1429.0898,533.073,1429.0898" style="stroke: #1963A0; stroke-width: 1.0;"/><text fill="#000000" font-family="sans-serif" font-size="11" lengthAdjust="spacingAndGlyphs" textLength="66" x="538.073" y="1430.0908">Result(int, int)</text><ellipse cx="529.073" cy="1440.9258" fill="#84BE84" rx="3" ry="3" style="stroke: #038048; stroke-width: 1.0;"/><text fill="#000000" font-family="sans-serif" font-size="11" lengthAdjust="spacingAndGlyphs" textLength="68" x="538.073" y="1443.9268">copy(): Result</text><polygon fill="#4177AF" points="529.073,1450.7617,525.073,1456.7617,533.073,1456.7617" style="stroke: #1963A0; stroke-width: 1.0;"/><text fill="#000000" font-family="sans-serif" font-size="11" lengthAdjust="spacingAndGlyphs" textLength="77" x="538.073" y="1457.7627">getCodes(): int[]</text><polygon fill="#4177AF" points="529.073,1464.5977,525.073,1470.5977,533.073,1470.5977" style="stroke: #1963A0; stroke-width: 1.0;"/><text fill="#000000" font-family="sans-serif" font-size="11" lengthAdjust="spacingAndGlyphs" textLength="94" x="538.073" y="1471.5986">isWinner(): boolean</text><polygon fill="#4177AF" points="529.073,1478.4336,525.073,1484.4336,533.073,1484.4336" style="stroke: #1963A0; stroke-width: 1.0;"/><text fill="#000000" font-family="sans-serif" font-size="11" lengthAdjust="spacingAndGlyphs" textLength="73" x="538.073" y="1485.4346">getWhites(): int</text><polygon fill="#4177AF" points="529.073,1492.2695,525.073,1498.2695,533.073,1498.2695" style="stroke: #1963A0; stroke-width: 1.0;"/><text fill="#000000" font-family="sans-serif" font-size="11" lengthAdjust="spacingAndGlyphs" textLength="72" x="538.073" y="1499.2705">getBlacks(): int</text><!--class mastermind.models.ProposedCombination--><rect fill="#FEFECE" filter="url(#fgdtmv78hw4lc)" height="158.6875" id="mastermind.models.ProposedCombination" style="stroke: #A80036; stroke-width: 1.5;" width="217" x="177.573" y="1347"/><ellipse cx="219.573" cy="1363" fill="#ADD1B2" rx="11" ry="11" style="stroke: #A80036; stroke-width: 1.0;"/><path d="M222.3386,1358.875 Q222.4949,1358.6563 222.6824,1358.5469 Q222.8699,1358.4375 223.0886,1358.4375 Q223.4636,1358.4375 223.698,1358.6953 Q223.9324,1358.9531 223.9324,1359.5625 L223.9324,1361.0156 Q223.9324,1361.625 223.698,1361.8906 Q223.4636,1362.1563 223.0886,1362.1563 Q222.7449,1362.1563 222.5418,1361.9531 Q222.3386,1361.7656 222.2293,1361.25 Q222.1824,1360.8906 221.9949,1360.7031 Q221.6668,1360.3281 221.0574,1360.1094 Q220.448,1359.8906 219.823,1359.8906 Q219.0574,1359.8906 218.4246,1360.2188 Q217.7918,1360.5469 217.2996,1361.2969 Q216.8074,1362.0469 216.8074,1363.0781 L216.8074,1364.1719 Q216.8074,1365.4063 217.698,1366.2266 Q218.5886,1367.0469 220.1824,1367.0469 Q221.1199,1367.0469 221.7761,1366.7969 Q222.1668,1366.6406 222.5886,1366.2031 Q222.8543,1365.9375 223.0027,1365.8594 Q223.1511,1365.7813 223.3543,1365.7813 Q223.6824,1365.7813 223.9402,1366.0391 Q224.198,1366.2969 224.198,1366.6406 Q224.198,1366.9844 223.8543,1367.3906 Q223.3543,1367.9688 222.5574,1368.2969 Q221.4793,1368.75 220.1824,1368.75 Q218.6668,1368.75 217.4636,1368.125 Q216.4793,1367.625 215.7918,1366.5547 Q215.1043,1365.4844 215.1043,1364.2031 L215.1043,1363.0469 Q215.1043,1361.7188 215.7214,1360.5703 Q216.3386,1359.4219 217.4324,1358.8047 Q218.5261,1358.1875 219.7605,1358.1875 Q220.4949,1358.1875 221.1433,1358.3516 Q221.7918,1358.5156 222.3386,1358.875 Z "/><text fill="#000000" font-family="sans-serif" font-size="12" lengthAdjust="spacingAndGlyphs" textLength="125" x="239.573" y="1367.9102">ProposedCombination</text><line style="stroke: #A80036; stroke-width: 1.5;" x1="178.573" x2="393.573" y1="1379" y2="1379"/><line style="stroke: #A80036; stroke-width: 1.5;" x1="178.573" x2="393.573" y1="1387" y2="1387"/><ellipse cx="188.573" cy="1399.418" fill="#84BE84" rx="3" ry="3" style="stroke: #038048; stroke-width: 1.0;"/><text fill="#000000" font-family="sans-serif" font-size="11" lengthAdjust="spacingAndGlyphs" textLength="112" x="197.573" y="1402.4189">ProposedCombination()</text><polygon fill="#4177AF" points="188.573,1409.2539,184.573,1415.2539,192.573,1415.2539" style="stroke: #1963A0; stroke-width: 1.0;"/><text fill="#000000" font-family="sans-serif" font-size="11" lengthAdjust="spacingAndGlyphs" textLength="135" x="197.573" y="1416.2549">contains(int, Color): boolean</text><polygon fill="#4177AF" points="188.573,1423.0898,184.573,1429.0898,192.573,1429.0898" style="stroke: #1963A0; stroke-width: 1.0;"/><text fill="#000000" font-family="sans-serif" font-size="11" lengthAdjust="spacingAndGlyphs" textLength="118" x="197.573" y="1430.0908">contains(Color): boolean</text><ellipse cx="188.573" cy="1440.9258" fill="#84BE84" rx="3" ry="3" style="stroke: #038048; stroke-width: 1.0;"/><text fill="#000000" font-family="sans-serif" font-size="11" lengthAdjust="spacingAndGlyphs" text-decoration="underline" textLength="191" x="197.573" y="1443.9268">getInstance(int[]): ProposedCombination</text><ellipse cx="188.573" cy="1454.7617" fill="#84BE84" rx="3" ry="3" style="stroke: #038048; stroke-width: 1.0;"/><text fill="#000000" font-family="sans-serif" font-size="11" lengthAdjust="spacingAndGlyphs" textLength="142" x="197.573" y="1457.7627">copy(): ProposedCombination</text><ellipse cx="188.573" cy="1468.5977" fill="#84BE84" rx="3" ry="3" style="stroke: #038048; stroke-width: 1.0;"/><text fill="#000000" font-family="sans-serif" font-size="11" lengthAdjust="spacingAndGlyphs" text-decoration="underline" textLength="87" x="197.573" y="1471.5986">isValid(int[]): Error</text><polygon fill="#4177AF" points="188.573,1478.4336,184.573,1484.4336,192.573,1484.4336" style="stroke: #1963A0; stroke-width: 1.0;"/><text fill="#000000" font-family="sans-serif" font-size="11" lengthAdjust="spacingAndGlyphs" textLength="77" x="197.573" y="1485.4346">getCodes(): int[]</text><polygon fill="#4177AF" points="188.573,1492.2695,184.573,1498.2695,192.573,1498.2695" style="stroke: #1963A0; stroke-width: 1.0;"/><text fill="#000000" font-family="sans-serif" font-size="11" lengthAdjust="spacingAndGlyphs" textLength="97" x="197.573" y="1499.2705">setCodes(int[]): void</text><!--class mastermind.models.Memento--><rect fill="#FEFECE" filter="url(#fgdtmv78hw4lc)" height="172.5234" id="mastermind.models.Memento" style="stroke: #A80036; stroke-width: 1.5;" width="275" x="614.573" y="1107.5"/><ellipse cx="722.323" cy="1123.5" fill="#ADD1B2" rx="11" ry="11" style="stroke: #A80036; stroke-width: 1.0;"/><path d="M725.0886,1119.375 Q725.2449,1119.1563 725.4324,1119.0469 Q725.6199,1118.9375 725.8386,1118.9375 Q726.2136,1118.9375 726.448,1119.1953 Q726.6824,1119.4531 726.6824,1120.0625 L726.6824,1121.5156 Q726.6824,1122.125 726.448,1122.3906 Q726.2136,1122.6563 725.8386,1122.6563 Q725.4949,1122.6563 725.2918,1122.4531 Q725.0886,1122.2656 724.9793,1121.75 Q724.9324,1121.3906 724.7449,1121.2031 Q724.4168,1120.8281 723.8074,1120.6094 Q723.198,1120.3906 722.573,1120.3906 Q721.8074,1120.3906 721.1746,1120.7188 Q720.5418,1121.0469 720.0496,1121.7969 Q719.5574,1122.5469 719.5574,1123.5781 L719.5574,1124.6719 Q719.5574,1125.9063 720.448,1126.7266 Q721.3386,1127.5469 722.9324,1127.5469 Q723.8699,1127.5469 724.5261,1127.2969 Q724.9168,1127.1406 725.3386,1126.7031 Q725.6043,1126.4375 725.7527,1126.3594 Q725.9011,1126.2813 726.1043,1126.2813 Q726.4324,1126.2813 726.6902,1126.5391 Q726.948,1126.7969 726.948,1127.1406 Q726.948,1127.4844 726.6043,1127.8906 Q726.1043,1128.4688 725.3074,1128.7969 Q724.2293,1129.25 722.9324,1129.25 Q721.4168,1129.25 720.2136,1128.625 Q719.2293,1128.125 718.5418,1127.0547 Q717.8543,1125.9844 717.8543,1124.7031 L717.8543,1123.5469 Q717.8543,1122.2188 718.4714,1121.0703 Q719.0886,1119.9219 720.1824,1119.3047 Q721.2761,1118.6875 722.5105,1118.6875 Q723.2449,1118.6875 723.8933,1118.8516 Q724.5418,1119.0156 725.0886,1119.375 Z "/><text fill="#000000" font-family="sans-serif" font-size="12" lengthAdjust="spacingAndGlyphs" textLength="51" x="742.823" y="1128.4102">Memento</text><line style="stroke: #A80036; stroke-width: 1.5;" x1="615.573" x2="888.573" y1="1139.5" y2="1139.5"/><rect fill="none" height="6" style="stroke: #C82930; stroke-width: 1.0;" width="6" x="622.573" y="1148.918"/><text fill="#000000" font-family="sans-serif" font-size="11" lengthAdjust="spacingAndGlyphs" textLength="249" x="634.573" y="1154.9189">proposedCombinations: List&lt;ProposedCombination&gt;</text><rect fill="none" height="6" style="stroke: #C82930; stroke-width: 1.0;" width="6" x="622.573" y="1162.7539"/><text fill="#000000" font-family="sans-serif" font-size="11" lengthAdjust="spacingAndGlyphs" textLength="98" x="634.573" y="1168.7549">results: List&lt;Result&gt;</text><rect fill="none" height="6" style="stroke: #C82930; stroke-width: 1.0;" width="6" x="622.573" y="1176.5898"/><text fill="#000000" font-family="sans-serif" font-size="11" lengthAdjust="spacingAndGlyphs" textLength="36" x="634.573" y="1182.5908">turn: int</text><line style="stroke: #A80036; stroke-width: 1.5;" x1="615.573" x2="888.573" y1="1189.0078" y2="1189.0078"/><polygon fill="#4177AF" points="625.573,1197.4258,621.573,1203.4258,629.573,1203.4258" style="stroke: #1963A0; stroke-width: 1.0;"/><text fill="#000000" font-family="sans-serif" font-size="11" lengthAdjust="spacingAndGlyphs" textLength="62" x="634.573" y="1204.4268">Memento(int)</text><polygon fill="#4177AF" points="625.573,1211.2617,621.573,1217.2617,629.573,1217.2617" style="stroke: #1963A0; stroke-width: 1.0;"/><text fill="#000000" font-family="sans-serif" font-size="11" lengthAdjust="spacingAndGlyphs" textLength="189" x="634.573" y="1218.2627">set(Result, ProposedCombination): void</text><polygon fill="#4177AF" points="625.573,1225.0977,621.573,1231.0977,629.573,1231.0977" style="stroke: #1963A0; stroke-width: 1.0;"/><text fill="#000000" font-family="sans-serif" font-size="11" lengthAdjust="spacingAndGlyphs" textLength="61" x="634.573" y="1232.0986">getSize(): int</text><polygon fill="#4177AF" points="625.573,1238.9336,621.573,1244.9336,629.573,1244.9336" style="stroke: #1963A0; stroke-width: 1.0;"/><text fill="#000000" font-family="sans-serif" font-size="11" lengthAdjust="spacingAndGlyphs" textLength="100" x="634.573" y="1245.9346">getResult(int): Result</text><polygon fill="#4177AF" points="625.573,1252.7695,621.573,1258.7695,629.573,1258.7695" style="stroke: #1963A0; stroke-width: 1.0;"/><text fill="#000000" font-family="sans-serif" font-size="11" lengthAdjust="spacingAndGlyphs" textLength="62" x="634.573" y="1259.7705">getTurn(): int</text><polygon fill="#4177AF" points="625.573,1266.6055,621.573,1272.6055,629.573,1272.6055" style="stroke: #1963A0; stroke-width: 1.0;"/><text fill="#000000" font-family="sans-serif" font-size="11" lengthAdjust="spacingAndGlyphs" textLength="248" x="634.573" y="1273.6064">getProposedCombination(int): ProposedCombination</text><!--class mastermind.models.Registry--><rect fill="#FEFECE" filter="url(#fgdtmv78hw4lc)" height="186.3594" id="mastermind.models.Registry" style="stroke: #A80036; stroke-width: 1.5;" width="192" x="647.073" y="539"/><ellipse cx="716.323" cy="555" fill="#ADD1B2" rx="11" ry="11" style="stroke: #A80036; stroke-width: 1.0;"/><path d="M719.0886,550.875 Q719.2449,550.6563 719.4324,550.5469 Q719.6199,550.4375 719.8386,550.4375 Q720.2136,550.4375 720.448,550.6953 Q720.6824,550.9531 720.6824,551.5625 L720.6824,553.0156 Q720.6824,553.625 720.448,553.8906 Q720.2136,554.1563 719.8386,554.1563 Q719.4949,554.1563 719.2918,553.9531 Q719.0886,553.7656 718.9793,553.25 Q718.9324,552.8906 718.7449,552.7031 Q718.4168,552.3281 717.8074,552.1094 Q717.198,551.8906 716.573,551.8906 Q715.8074,551.8906 715.1746,552.2188 Q714.5418,552.5469 714.0496,553.2969 Q713.5574,554.0469 713.5574,555.0781 L713.5574,556.1719 Q713.5574,557.4063 714.448,558.2266 Q715.3386,559.0469 716.9324,559.0469 Q717.8699,559.0469 718.5261,558.7969 Q718.9168,558.6406 719.3386,558.2031 Q719.6043,557.9375 719.7527,557.8594 Q719.9011,557.7813 720.1043,557.7813 Q720.4324,557.7813 720.6902,558.0391 Q720.948,558.2969 720.948,558.6406 Q720.948,558.9844 720.6043,559.3906 Q720.1043,559.9688 719.3074,560.2969 Q718.2293,560.75 716.9324,560.75 Q715.4168,560.75 714.2136,560.125 Q713.2293,559.625 712.5418,558.5547 Q711.8543,557.4844 711.8543,556.2031 L711.8543,555.0469 Q711.8543,553.7188 712.4714,552.5703 Q713.0886,551.4219 714.1824,550.8047 Q715.2761,550.1875 716.5105,550.1875 Q717.2449,550.1875 717.8933,550.3516 Q718.5418,550.5156 719.0886,550.875 Z "/><text fill="#000000" font-family="sans-serif" font-size="12" lengthAdjust="spacingAndGlyphs" textLength="45" x="736.823" y="559.9102">Registry</text><line style="stroke: #A80036; stroke-width: 1.5;" x1="648.073" x2="838.073" y1="571" y2="571"/><rect fill="none" height="6" style="stroke: #C82930; stroke-width: 1.0;" width="6" x="655.073" y="580.418"/><text fill="#000000" font-family="sans-serif" font-size="11" lengthAdjust="spacingAndGlyphs" textLength="166" x="667.073" y="586.4189">mementoList: ArrayList&lt;Memento&gt;</text><rect fill="none" height="6" style="stroke: #C82930; stroke-width: 1.0;" width="6" x="655.073" y="594.2539"/><text fill="#000000" font-family="sans-serif" font-size="11" lengthAdjust="spacingAndGlyphs" textLength="60" x="667.073" y="600.2549">game: Game</text><rect fill="none" height="6" style="stroke: #C82930; stroke-width: 1.0;" width="6" x="655.073" y="608.0898"/><text fill="#000000" font-family="sans-serif" font-size="11" lengthAdjust="spacingAndGlyphs" textLength="78" x="667.073" y="614.0908">firstPrevious: int</text><line style="stroke: #A80036; stroke-width: 1.5;" x1="648.073" x2="838.073" y1="620.5078" y2="620.5078"/><polygon fill="#4177AF" points="658.073,628.9258,654.073,634.9258,662.073,634.9258" style="stroke: #1963A0; stroke-width: 1.0;"/><text fill="#000000" font-family="sans-serif" font-size="11" lengthAdjust="spacingAndGlyphs" textLength="76" x="667.073" y="635.9268">Registry(Game)</text><ellipse cx="658.073" cy="646.7617" fill="#84BE84" rx="3" ry="3" style="stroke: #038048; stroke-width: 1.0;"/><text fill="#000000" font-family="sans-serif" font-size="11" lengthAdjust="spacingAndGlyphs" textLength="59" x="667.073" y="649.7627">reset(): void</text><polygon fill="#4177AF" points="658.073,656.5977,654.073,662.5977,662.073,662.5977" style="stroke: #1963A0; stroke-width: 1.0;"/><text fill="#000000" font-family="sans-serif" font-size="11" lengthAdjust="spacingAndGlyphs" textLength="94" x="667.073" y="663.5986">redoable(): boolean</text><polygon fill="#4177AF" points="658.073,670.4336,654.073,676.4336,662.073,676.4336" style="stroke: #1963A0; stroke-width: 1.0;"/><text fill="#000000" font-family="sans-serif" font-size="11" lengthAdjust="spacingAndGlyphs" textLength="86" x="667.073" y="677.4346">undo(Game): void</text><polygon fill="#4177AF" points="658.073,684.2695,654.073,690.2695,662.073,690.2695" style="stroke: #1963A0; stroke-width: 1.0;"/><text fill="#000000" font-family="sans-serif" font-size="11" lengthAdjust="spacingAndGlyphs" textLength="84" x="667.073" y="691.2705">redo(Game): void</text><polygon fill="#4177AF" points="658.073,698.1055,654.073,704.1055,662.073,704.1055" style="stroke: #1963A0; stroke-width: 1.0;"/><text fill="#000000" font-family="sans-serif" font-size="11" lengthAdjust="spacingAndGlyphs" textLength="96" x="667.073" y="705.1064">undoable(): boolean</text><polygon fill="#4177AF" points="658.073,711.9414,654.073,717.9414,662.073,717.9414" style="stroke: #1963A0; stroke-width: 1.0;"/><text fill="#000000" font-family="sans-serif" font-size="11" lengthAdjust="spacingAndGlyphs" textLength="71" x="667.073" y="718.9424">registry(): void</text><!--class mastermind.models.Session--><rect fill="#FEFECE" filter="url(#fgdtmv78hw4lc)" height="75.6719" id="mastermind.models.Session" style="stroke: #A80036; stroke-width: 1.5;" width="161" x="343.573" y="60"/><ellipse cx="396.823" cy="76" fill="#ADD1B2" rx="11" ry="11" style="stroke: #A80036; stroke-width: 1.0;"/><path d="M399.5886,71.875 Q399.7449,71.6563 399.9324,71.5469 Q400.1199,71.4375 400.3386,71.4375 Q400.7136,71.4375 400.948,71.6953 Q401.1824,71.9531 401.1824,72.5625 L401.1824,74.0156 Q401.1824,74.625 400.948,74.8906 Q400.7136,75.1563 400.3386,75.1563 Q399.9949,75.1563 399.7918,74.9531 Q399.5886,74.7656 399.4793,74.25 Q399.4324,73.8906 399.2449,73.7031 Q398.9168,73.3281 398.3074,73.1094 Q397.698,72.8906 397.073,72.8906 Q396.3074,72.8906 395.6746,73.2188 Q395.0418,73.5469 394.5496,74.2969 Q394.0574,75.0469 394.0574,76.0781 L394.0574,77.1719 Q394.0574,78.4063 394.948,79.2266 Q395.8386,80.0469 397.4324,80.0469 Q398.3699,80.0469 399.0261,79.7969 Q399.4168,79.6406 399.8386,79.2031 Q400.1043,78.9375 400.2527,78.8594 Q400.4011,78.7813 400.6043,78.7813 Q400.9324,78.7813 401.1902,79.0391 Q401.448,79.2969 401.448,79.6406 Q401.448,79.9844 401.1043,80.3906 Q400.6043,80.9688 399.8074,81.2969 Q398.7293,81.75 397.4324,81.75 Q395.9168,81.75 394.7136,81.125 Q393.7293,80.625 393.0418,79.5547 Q392.3543,78.4844 392.3543,77.2031 L392.3543,76.0469 Q392.3543,74.7188 392.9714,73.5703 Q393.5886,72.4219 394.6824,71.8047 Q395.7761,71.1875 397.0105,71.1875 Q397.7449,71.1875 398.3933,71.3516 Q399.0418,71.5156 399.5886,71.875 Z "/><text fill="#000000" font-family="sans-serif" font-size="12" lengthAdjust="spacingAndGlyphs" textLength="46" x="417.323" y="80.9102">Session</text><line style="stroke: #A80036; stroke-width: 1.5;" x1="344.573" x2="503.573" y1="92" y2="92"/><line style="stroke: #A80036; stroke-width: 1.5;" x1="344.573" x2="503.573" y1="100" y2="100"/><ellipse cx="354.573" cy="112.418" fill="#84BE84" rx="3" ry="3" style="stroke: #038048; stroke-width: 1.0;"/><text fill="#000000" font-family="sans-serif" font-size="11" font-style="italic" lengthAdjust="spacingAndGlyphs" textLength="135" x="363.573" y="115.4189">getValueState(): StateValue</text><ellipse cx="354.573" cy="126.2539" fill="#84BE84" rx="3" ry="3" style="stroke: #038048; stroke-width: 1.0;"/><text fill="#000000" font-family="sans-serif" font-size="11" font-style="italic" lengthAdjust="spacingAndGlyphs" textLength="70" x="363.573" y="129.2549">getWidth(): int</text><!--class mastermind.models.StateValue--><rect fill="#FEFECE" filter="url(#fgdtmv78hw4lc)" height="131.0156" id="mastermind.models.StateValue" style="stroke: #A80036; stroke-width: 1.5;" width="159" x="261.573" y="847.5"/><ellipse cx="307.323" cy="863.5" fill="#ADD1B2" rx="11" ry="11" style="stroke: #A80036; stroke-width: 1.0;"/><path d="M310.0886,859.375 Q310.2449,859.1563 310.4324,859.0469 Q310.6199,858.9375 310.8386,858.9375 Q311.2136,858.9375 311.448,859.1953 Q311.6824,859.4531 311.6824,860.0625 L311.6824,861.5156 Q311.6824,862.125 311.448,862.3906 Q311.2136,862.6563 310.8386,862.6563 Q310.4949,862.6563 310.2918,862.4531 Q310.0886,862.2656 309.9793,861.75 Q309.9324,861.3906 309.7449,861.2031 Q309.4168,860.8281 308.8074,860.6094 Q308.198,860.3906 307.573,860.3906 Q306.8074,860.3906 306.1746,860.7188 Q305.5418,861.0469 305.0496,861.7969 Q304.5574,862.5469 304.5574,863.5781 L304.5574,864.6719 Q304.5574,865.9063 305.448,866.7266 Q306.3386,867.5469 307.9324,867.5469 Q308.8699,867.5469 309.5261,867.2969 Q309.9168,867.1406 310.3386,866.7031 Q310.6043,866.4375 310.7527,866.3594 Q310.9011,866.2813 311.1043,866.2813 Q311.4324,866.2813 311.6902,866.5391 Q311.948,866.7969 311.948,867.1406 Q311.948,867.4844 311.6043,867.8906 Q311.1043,868.4688 310.3074,868.7969 Q309.2293,869.25 307.9324,869.25 Q306.4168,869.25 305.2136,868.625 Q304.2293,868.125 303.5418,867.0547 Q302.8543,865.9844 302.8543,864.7031 L302.8543,863.5469 Q302.8543,862.2188 303.4714,861.0703 Q304.0886,859.9219 305.1824,859.3047 Q306.2761,858.6875 307.5105,858.6875 Q308.2449,858.6875 308.8933,858.8516 Q309.5418,859.0156 310.0886,859.375 Z "/><text fill="#000000" font-family="sans-serif" font-size="12" lengthAdjust="spacingAndGlyphs" textLength="59" x="327.823" y="868.4102">StateValue</text><line style="stroke: #A80036; stroke-width: 1.5;" x1="262.573" x2="419.573" y1="879.5" y2="879.5"/><ellipse cx="272.573" cy="891.918" fill="none" rx="3" ry="3" style="stroke: #038048; stroke-width: 1.0;"/><text fill="#000000" font-family="sans-serif" font-size="11" lengthAdjust="spacingAndGlyphs" text-decoration="underline" textLength="92" x="281.573" y="894.9189">INITIAL: StateValue</text><ellipse cx="272.573" cy="905.7539" fill="none" rx="3" ry="3" style="stroke: #038048; stroke-width: 1.0;"/><text fill="#000000" font-family="sans-serif" font-size="11" lengthAdjust="spacingAndGlyphs" text-decoration="underline" textLength="104" x="281.573" y="908.7549">IN_GAME: StateValue</text><ellipse cx="272.573" cy="919.5898" fill="none" rx="3" ry="3" style="stroke: #038048; stroke-width: 1.0;"/><text fill="#000000" font-family="sans-serif" font-size="11" lengthAdjust="spacingAndGlyphs" text-decoration="underline" textLength="88" x="281.573" y="922.5908">FINAL: StateValue</text><ellipse cx="272.573" cy="933.4258" fill="none" rx="3" ry="3" style="stroke: #038048; stroke-width: 1.0;"/><text fill="#000000" font-family="sans-serif" font-size="11" lengthAdjust="spacingAndGlyphs" text-decoration="underline" textLength="80" x="281.573" y="936.4268">EXIT: StateValue</text><line style="stroke: #A80036; stroke-width: 1.5;" x1="262.573" x2="419.573" y1="942.8438" y2="942.8438"/><rect fill="#F24D5C" height="6" style="stroke: #C82930; stroke-width: 1.0;" width="6" x="269.573" y="952.2617"/><text fill="#000000" font-family="sans-serif" font-size="11" lengthAdjust="spacingAndGlyphs" textLength="61" x="281.573" y="958.2627">StateValue()</text><ellipse cx="272.573" cy="969.0977" fill="#84BE84" rx="3" ry="3" style="stroke: #038048; stroke-width: 1.0;"/><text fill="#000000" font-family="sans-serif" font-size="11" lengthAdjust="spacingAndGlyphs" text-decoration="underline" textLength="133" x="281.573" y="972.0986">valueOf(String): StateValue</text><!--class mastermind.models.SessionImplementation--><rect fill="#FEFECE" filter="url(#fgdtmv78hw4lc)" height="283.2109" id="mastermind.models.SessionImplementation" style="stroke: #A80036; stroke-width: 1.5;" width="262" x="377.073" y="196"/><ellipse cx="437.823" cy="212" fill="#ADD1B2" rx="11" ry="11" style="stroke: #A80036; stroke-width: 1.0;"/><path d="M440.5886,207.875 Q440.7449,207.6563 440.9324,207.5469 Q441.1199,207.4375 441.3386,207.4375 Q441.7136,207.4375 441.948,207.6953 Q442.1824,207.9531 442.1824,208.5625 L442.1824,210.0156 Q442.1824,210.625 441.948,210.8906 Q441.7136,211.1563 441.3386,211.1563 Q440.9949,211.1563 440.7918,210.9531 Q440.5886,210.7656 440.4793,210.25 Q440.4324,209.8906 440.2449,209.7031 Q439.9168,209.3281 439.3074,209.1094 Q438.698,208.8906 438.073,208.8906 Q437.3074,208.8906 436.6746,209.2188 Q436.0418,209.5469 435.5496,210.2969 Q435.0574,211.0469 435.0574,212.0781 L435.0574,213.1719 Q435.0574,214.4063 435.948,215.2266 Q436.8386,216.0469 438.4324,216.0469 Q439.3699,216.0469 440.0261,215.7969 Q440.4168,215.6406 440.8386,215.2031 Q441.1043,214.9375 441.2527,214.8594 Q441.4011,214.7813 441.6043,214.7813 Q441.9324,214.7813 442.1902,215.0391 Q442.448,215.2969 442.448,215.6406 Q442.448,215.9844 442.1043,216.3906 Q441.6043,216.9688 440.8074,217.2969 Q439.7293,217.75 438.4324,217.75 Q436.9168,217.75 435.7136,217.125 Q434.7293,216.625 434.0418,215.5547 Q433.3543,214.4844 433.3543,213.2031 L433.3543,212.0469 Q433.3543,210.7188 433.9714,209.5703 Q434.5886,208.4219 435.6824,207.8047 Q436.7761,207.1875 438.0105,207.1875 Q438.7449,207.1875 439.3933,207.3516 Q440.0418,207.5156 440.5886,207.875 Z "/><text fill="#000000" font-family="sans-serif" font-size="12" lengthAdjust="spacingAndGlyphs" textLength="132" x="458.323" y="216.9102">SessionImplementation</text><line style="stroke: #A80036; stroke-width: 1.5;" x1="378.073" x2="638.073" y1="228" y2="228"/><rect fill="none" height="6" style="stroke: #C82930; stroke-width: 1.0;" width="6" x="385.073" y="237.418"/><text fill="#000000" font-family="sans-serif" font-size="11" lengthAdjust="spacingAndGlyphs" textLength="55" x="397.073" y="243.4189">state: State</text><rect fill="none" height="6" style="stroke: #C82930; stroke-width: 1.0;" width="6" x="385.073" y="251.2539"/><text fill="#000000" font-family="sans-serif" font-size="11" lengthAdjust="spacingAndGlyphs" textLength="60" x="397.073" y="257.2549">game: Game</text><rect fill="none" height="6" style="stroke: #C82930; stroke-width: 1.0;" width="6" x="385.073" y="265.0898"/><text fill="#000000" font-family="sans-serif" font-size="11" lengthAdjust="spacingAndGlyphs" textLength="83" x="397.073" y="271.0908">registry: Registry</text><line style="stroke: #A80036; stroke-width: 1.5;" x1="378.073" x2="638.073" y1="277.5078" y2="277.5078"/><ellipse cx="388.073" cy="289.9258" fill="#84BE84" rx="3" ry="3" style="stroke: #038048; stroke-width: 1.0;"/><text fill="#000000" font-family="sans-serif" font-size="11" lengthAdjust="spacingAndGlyphs" textLength="117" x="397.073" y="292.9268">SessionImplementation()</text><ellipse cx="388.073" cy="303.7617" fill="#84BE84" rx="3" ry="3" style="stroke: #038048; stroke-width: 1.0;"/><text fill="#000000" font-family="sans-serif" font-size="11" lengthAdjust="spacingAndGlyphs" textLength="55" x="397.073" y="306.7627">next(): void</text><ellipse cx="388.073" cy="317.5977" fill="#84BE84" rx="3" ry="3" style="stroke: #038048; stroke-width: 1.0;"/><text fill="#000000" font-family="sans-serif" font-size="11" lengthAdjust="spacingAndGlyphs" textLength="70" x="397.073" y="320.5986">resume(): void</text><ellipse cx="388.073" cy="331.4336" fill="#84BE84" rx="3" ry="3" style="stroke: #038048; stroke-width: 1.0;"/><text fill="#000000" font-family="sans-serif" font-size="11" lengthAdjust="spacingAndGlyphs" textLength="94" x="397.073" y="334.4346">redoable(): boolean</text><ellipse cx="388.073" cy="345.2695" fill="#84BE84" rx="3" ry="3" style="stroke: #038048; stroke-width: 1.0;"/><text fill="#000000" font-family="sans-serif" font-size="11" lengthAdjust="spacingAndGlyphs" textLength="89" x="397.073" y="348.2705">getCodes(): int[][][]</text><ellipse cx="388.073" cy="359.1055" fill="#84BE84" rx="3" ry="3" style="stroke: #038048; stroke-width: 1.0;"/><text fill="#000000" font-family="sans-serif" font-size="11" lengthAdjust="spacingAndGlyphs" textLength="94" x="397.073" y="362.1064">isLooser(): boolean</text><ellipse cx="388.073" cy="372.9414" fill="#84BE84" rx="3" ry="3" style="stroke: #038048; stroke-width: 1.0;"/><text fill="#000000" font-family="sans-serif" font-size="11" lengthAdjust="spacingAndGlyphs" textLength="94" x="397.073" y="375.9424">isWinner(): boolean</text><ellipse cx="388.073" cy="386.7773" fill="#84BE84" rx="3" ry="3" style="stroke: #038048; stroke-width: 1.0;"/><text fill="#000000" font-family="sans-serif" font-size="11" lengthAdjust="spacingAndGlyphs" textLength="58" x="397.073" y="389.7783">undo(): void</text><ellipse cx="388.073" cy="400.6133" fill="#84BE84" rx="3" ry="3" style="stroke: #038048; stroke-width: 1.0;"/><text fill="#000000" font-family="sans-serif" font-size="11" lengthAdjust="spacingAndGlyphs" textLength="56" x="397.073" y="403.6143">redo(): void</text><ellipse cx="388.073" cy="414.4492" fill="#84BE84" rx="3" ry="3" style="stroke: #038048; stroke-width: 1.0;"/><text fill="#000000" font-family="sans-serif" font-size="11" lengthAdjust="spacingAndGlyphs" textLength="62" x="397.073" y="417.4502">getTurn(): int</text><ellipse cx="388.073" cy="428.2852" fill="#84BE84" rx="3" ry="3" style="stroke: #038048; stroke-width: 1.0;"/><text fill="#000000" font-family="sans-serif" font-size="11" lengthAdjust="spacingAndGlyphs" textLength="96" x="397.073" y="431.2861">undoable(): boolean</text><ellipse cx="388.073" cy="442.1211" fill="#84BE84" rx="3" ry="3" style="stroke: #038048; stroke-width: 1.0;"/><text fill="#000000" font-family="sans-serif" font-size="11" lengthAdjust="spacingAndGlyphs" textLength="135" x="397.073" y="445.1221">getValueState(): StateValue</text><ellipse cx="388.073" cy="455.957" fill="#84BE84" rx="3" ry="3" style="stroke: #038048; stroke-width: 1.0;"/><text fill="#000000" font-family="sans-serif" font-size="11" lengthAdjust="spacingAndGlyphs" textLength="67" x="397.073" y="458.958">getWidth(): int</text><ellipse cx="388.073" cy="469.793" fill="#84BE84" rx="3" ry="3" style="stroke: #038048; stroke-width: 1.0;"/><text fill="#000000" font-family="sans-serif" font-size="11" lengthAdjust="spacingAndGlyphs" textLength="236" x="397.073" y="472.7939">proposeCombination(ProposedCombination): void</text><!--class mastermind.models.State--><rect fill="#FEFECE" filter="url(#fgdtmv78hw4lc)" height="117.1797" id="mastermind.models.State" style="stroke: #A80036; stroke-width: 1.5;" width="161" x="386.573" y="573.5"/><ellipse cx="448.823" cy="589.5" fill="#ADD1B2" rx="11" ry="11" style="stroke: #A80036; stroke-width: 1.0;"/><path d="M451.5886,585.375 Q451.7449,585.1563 451.9324,585.0469 Q452.1199,584.9375 452.3386,584.9375 Q452.7136,584.9375 452.948,585.1953 Q453.1824,585.4531 453.1824,586.0625 L453.1824,587.5156 Q453.1824,588.125 452.948,588.3906 Q452.7136,588.6563 452.3386,588.6563 Q451.9949,588.6563 451.7918,588.4531 Q451.5886,588.2656 451.4793,587.75 Q451.4324,587.3906 451.2449,587.2031 Q450.9168,586.8281 450.3074,586.6094 Q449.698,586.3906 449.073,586.3906 Q448.3074,586.3906 447.6746,586.7188 Q447.0418,587.0469 446.5496,587.7969 Q446.0574,588.5469 446.0574,589.5781 L446.0574,590.6719 Q446.0574,591.9063 446.948,592.7266 Q447.8386,593.5469 449.4324,593.5469 Q450.3699,593.5469 451.0261,593.2969 Q451.4168,593.1406 451.8386,592.7031 Q452.1043,592.4375 452.2527,592.3594 Q452.4011,592.2813 452.6043,592.2813 Q452.9324,592.2813 453.1902,592.5391 Q453.448,592.7969 453.448,593.1406 Q453.448,593.4844 453.1043,593.8906 Q452.6043,594.4688 451.8074,594.7969 Q450.7293,595.25 449.4324,595.25 Q447.9168,595.25 446.7136,594.625 Q445.7293,594.125 445.0418,593.0547 Q444.3543,591.9844 444.3543,590.7031 L444.3543,589.5469 Q444.3543,588.2188 444.9714,587.0703 Q445.5886,585.9219 446.6824,585.3047 Q447.7761,584.6875 449.0105,584.6875 Q449.7449,584.6875 450.3933,584.8516 Q451.0418,585.0156 451.5886,585.375 Z "/><text fill="#000000" font-family="sans-serif" font-size="12" lengthAdjust="spacingAndGlyphs" textLength="28" x="469.323" y="594.4102">State</text><line style="stroke: #A80036; stroke-width: 1.5;" x1="387.573" x2="546.573" y1="605.5" y2="605.5"/><rect fill="none" height="6" style="stroke: #C82930; stroke-width: 1.0;" width="6" x="394.573" y="614.918"/><text fill="#000000" font-family="sans-serif" font-size="11" lengthAdjust="spacingAndGlyphs" textLength="111" x="406.573" y="620.9189">stateValue: StateValue</text><line style="stroke: #A80036; stroke-width: 1.5;" x1="387.573" x2="546.573" y1="627.3359" y2="627.3359"/><ellipse cx="397.573" cy="639.7539" fill="#84BE84" rx="3" ry="3" style="stroke: #038048; stroke-width: 1.0;"/><text fill="#000000" font-family="sans-serif" font-size="11" lengthAdjust="spacingAndGlyphs" textLength="33" x="406.573" y="642.7549">State()</text><ellipse cx="397.573" cy="653.5898" fill="#84BE84" rx="3" ry="3" style="stroke: #038048; stroke-width: 1.0;"/><text fill="#000000" font-family="sans-serif" font-size="11" lengthAdjust="spacingAndGlyphs" textLength="55" x="406.573" y="656.5908">next(): void</text><ellipse cx="397.573" cy="667.4258" fill="#84BE84" rx="3" ry="3" style="stroke: #038048; stroke-width: 1.0;"/><text fill="#000000" font-family="sans-serif" font-size="11" lengthAdjust="spacingAndGlyphs" textLength="59" x="406.573" y="670.4268">reset(): void</text><ellipse cx="397.573" cy="681.2617" fill="#84BE84" rx="3" ry="3" style="stroke: #038048; stroke-width: 1.0;"/><text fill="#000000" font-family="sans-serif" font-size="11" lengthAdjust="spacingAndGlyphs" textLength="135" x="406.573" y="684.2627">getValueState(): StateValue</text><!--class java.util.List--><rect fill="#FEFECE" filter="url(#fgdtmv78hw4lc)" height="48" id="java.util.List" style="stroke: #A80036; stroke-width: 1.5;" width="52" x="952.073" y="1402.5"/><ellipse cx="967.073" cy="1418.5" fill="#ADD1B2" rx="11" ry="11" style="stroke: #A80036; stroke-width: 1.0;"/><path d="M969.8386,1414.375 Q969.9949,1414.1563 970.1824,1414.0469 Q970.3699,1413.9375 970.5886,1413.9375 Q970.9636,1413.9375 971.198,1414.1953 Q971.4324,1414.4531 971.4324,1415.0625 L971.4324,1416.5156 Q971.4324,1417.125 971.198,1417.3906 Q970.9636,1417.6563 970.5886,1417.6563 Q970.2449,1417.6563 970.0418,1417.4531 Q969.8386,1417.2656 969.7293,1416.75 Q969.6824,1416.3906 969.4949,1416.2031 Q969.1668,1415.8281 968.5574,1415.6094 Q967.948,1415.3906 967.323,1415.3906 Q966.5574,1415.3906 965.9246,1415.7188 Q965.2918,1416.0469 964.7996,1416.7969 Q964.3074,1417.5469 964.3074,1418.5781 L964.3074,1419.6719 Q964.3074,1420.9063 965.198,1421.7266 Q966.0886,1422.5469 967.6824,1422.5469 Q968.6199,1422.5469 969.2761,1422.2969 Q969.6668,1422.1406 970.0886,1421.7031 Q970.3543,1421.4375 970.5027,1421.3594 Q970.6511,1421.2813 970.8543,1421.2813 Q971.1824,1421.2813 971.4402,1421.5391 Q971.698,1421.7969 971.698,1422.1406 Q971.698,1422.4844 971.3543,1422.8906 Q970.8543,1423.4688 970.0574,1423.7969 Q968.9793,1424.25 967.6824,1424.25 Q966.1668,1424.25 964.9636,1423.625 Q963.9793,1423.125 963.2918,1422.0547 Q962.6043,1420.9844 962.6043,1419.7031 L962.6043,1418.5469 Q962.6043,1417.2188 963.2214,1416.0703 Q963.8386,1414.9219 964.9324,1414.3047 Q966.0261,1413.6875 967.2605,1413.6875 Q967.9949,1413.6875 968.6433,1413.8516 Q969.2918,1414.0156 969.8386,1414.375 Z "/><text fill="#000000" font-family="sans-serif" font-size="12" lengthAdjust="spacingAndGlyphs" textLength="20" x="981.073" y="1423.4102">List</text><line style="stroke: #A80036; stroke-width: 1.5;" x1="953.073" x2="1003.073" y1="1434.5" y2="1434.5"/><line style="stroke: #A80036; stroke-width: 1.5;" x1="953.073" x2="1003.073" y1="1442.5" y2="1442.5"/><!--class java.util.ArrayList--><rect fill="#FEFECE" filter="url(#fgdtmv78hw4lc)" height="48" id="java.util.ArrayList" style="stroke: #A80036; stroke-width: 1.5;" width="79" x="1039.57" y="1402.5"/><ellipse cx="1054.57" cy="1418.5" fill="#ADD1B2" rx="11" ry="11" style="stroke: #A80036; stroke-width: 1.0;"/><path d="M1057.3356,1414.375 Q1057.4919,1414.1563 1057.6794,1414.0469 Q1057.8669,1413.9375 1058.0856,1413.9375 Q1058.4606,1413.9375 1058.695,1414.1953 Q1058.9294,1414.4531 1058.9294,1415.0625 L1058.9294,1416.5156 Q1058.9294,1417.125 1058.695,1417.3906 Q1058.4606,1417.6563 1058.0856,1417.6563 Q1057.7419,1417.6563 1057.5388,1417.4531 Q1057.3356,1417.2656 1057.2263,1416.75 Q1057.1794,1416.3906 1056.9919,1416.2031 Q1056.6638,1415.8281 1056.0544,1415.6094 Q1055.445,1415.3906 1054.82,1415.3906 Q1054.0544,1415.3906 1053.4216,1415.7188 Q1052.7888,1416.0469 1052.2966,1416.7969 Q1051.8044,1417.5469 1051.8044,1418.5781 L1051.8044,1419.6719 Q1051.8044,1420.9063 1052.695,1421.7266 Q1053.5856,1422.5469 1055.1794,1422.5469 Q1056.1169,1422.5469 1056.7731,1422.2969 Q1057.1638,1422.1406 1057.5856,1421.7031 Q1057.8513,1421.4375 1057.9997,1421.3594 Q1058.1481,1421.2813 1058.3513,1421.2813 Q1058.6794,1421.2813 1058.9372,1421.5391 Q1059.195,1421.7969 1059.195,1422.1406 Q1059.195,1422.4844 1058.8513,1422.8906 Q1058.3513,1423.4688 1057.5544,1423.7969 Q1056.4763,1424.25 1055.1794,1424.25 Q1053.6638,1424.25 1052.4606,1423.625 Q1051.4763,1423.125 1050.7888,1422.0547 Q1050.1013,1420.9844 1050.1013,1419.7031 L1050.1013,1418.5469 Q1050.1013,1417.2188 1050.7184,1416.0703 Q1051.3356,1414.9219 1052.4294,1414.3047 Q1053.5231,1413.6875 1054.7575,1413.6875 Q1055.4919,1413.6875 1056.1403,1413.8516 Q1056.7888,1414.0156 1057.3356,1414.375 Z "/><text fill="#000000" font-family="sans-serif" font-size="12" lengthAdjust="spacingAndGlyphs" textLength="47" x="1068.57" y="1423.4102">ArrayList</text><line style="stroke: #A80036; stroke-width: 1.5;" x1="1040.57" x2="1117.57" y1="1434.5" y2="1434.5"/><line style="stroke: #A80036; stroke-width: 1.5;" x1="1040.57" x2="1117.57" y1="1442.5" y2="1442.5"/><!--link mastermind.models.Combination to java.util.List--><path d="M190.988,976.75 C203.036,1000.833 220.341,1026.092 244.073,1041 C369.342,1119.693 796.13,1003.14 907.073,1101 C949.925,1138.799 968.979,1312.522 975.401,1389.086 " fill="none" id="mastermind.models.Combination-java.util.List" style="stroke: #A80036; stroke-width: 1.0;"/><polygon fill="#A80036" points="976.456,1402.197,979.7211,1392.9051,976.0549,1397.2131,971.7469,1393.5469,976.456,1402.197" style="stroke: #A80036; stroke-width: 1.0;"/><line style="stroke: #A80036; stroke-width: 1.0;" x1="976.0549" x2="975.413" y1="1397.2131" y2="1389.238"/><polygon fill="#A80036" points="185.327,964.699,184.2577,971.8304,190.4293,975.5603,191.4985,968.4289,185.327,964.699" style="stroke: #A80036; stroke-width: 1.0;"/><!--link mastermind.models.Combination to mastermind.models.Color--><path d="M171.741,977.959 C173.6,1010.373 175.906,1050.578 178.018,1087.421 " fill="none" id="mastermind.models.Combination-mastermind.models.Color" style="stroke: #A80036; stroke-width: 1.0;"/><polygon fill="#A80036" points="178.787,1100.823,182.2652,1091.6087,178.5007,1095.8312,174.2783,1092.0668,178.787,1100.823" style="stroke: #A80036; stroke-width: 1.0;"/><line style="stroke: #A80036; stroke-width: 1.0;" x1="178.5007" x2="178.0425" y1="1095.8312" y2="1087.8435"/><polygon fill="#A80036" points="170.971,964.525,167.321,970.7441,171.658,976.5053,175.3079,970.2862,170.971,964.525" style="stroke: #A80036; stroke-width: 1.0;"/><!--link mastermind.models.Game to java.util.List--><path d="M743.068,948.412 C824.583,975.485 918.766,1022.255 969.073,1101 C1026.6,1191.043 1003.855,1325.693 988.184,1389.495 " fill="none" id="mastermind.models.Game-java.util.List" style="stroke: #A80036; stroke-width: 1.0;"/><polygon fill="#A80036" points="984.883,1402.349,990.9963,1394.6271,986.1269,1397.5062,983.2479,1392.6368,984.883,1402.349" style="stroke: #A80036; stroke-width: 1.0;"/><line style="stroke: #A80036; stroke-width: 1.0;" x1="986.1269" x2="988.117" y1="1397.5062" y2="1389.758"/><polygon fill="#A80036" points="730.622,944.396,735.104,950.0451,742.0423,948.0806,737.5604,942.4315,730.622,944.396" style="stroke: #A80036; stroke-width: 1.0;"/><!--link mastermind.models.Game to mastermind.models.SecretCombination--><path d="M513.121,1052.55 C494.008,1085.672 474.853,1118.866 459.968,1144.661 " fill="none" id="mastermind.models.Game-mastermind.models.SecretCombination" style="stroke: #A80036; stroke-width: 1.0;"/><polygon fill="#A80036" points="453.444,1155.966,461.4066,1150.1697,455.9429,1151.6352,454.4774,1146.1715,453.444,1155.966" style="stroke: #A80036; stroke-width: 1.0;"/><line style="stroke: #A80036; stroke-width: 1.0;" x1="455.9429" x2="459.942" y1="1151.6352" y2="1144.706"/><polygon fill="#A80036" points="519.64,1041.253,513.1767,1044.4508,513.6426,1051.6468,520.1059,1048.449,519.64,1041.253" style="stroke: #A80036; stroke-width: 1.0;"/><!--link mastermind.models.Game to mastermind.models.Result--><path d="M588.962,1054.205 C586.35,1143.254 583.045,1255.967 580.765,1333.72 " fill="none" id="mastermind.models.Game-mastermind.models.Result" style="stroke: #A80036; stroke-width: 1.0;"/><polygon fill="#A80036" points="580.38,1346.852,584.6423,1337.9732,580.5267,1341.8542,576.6458,1337.7385,580.38,1346.852" style="stroke: #A80036; stroke-width: 1.0;"/><line style="stroke: #A80036; stroke-width: 1.0;" x1="580.5267" x2="580.761" y1="1341.8542" y2="1333.8575"/><polygon fill="#A80036" points="589.346,1041.095,585.1717,1046.9751,588.9939,1053.0898,593.1682,1047.2098,589.346,1041.095" style="stroke: #A80036; stroke-width: 1.0;"/><!--link mastermind.models.Game to mastermind.models.ProposedCombination--><path d="M455.395,1029.747 C449.625,1033.657 443.838,1037.425 438.073,1041 C382.963,1075.177 341.836,1047.58 305.073,1101 C279.168,1138.643 278.435,1258.518 281.392,1341.522 " fill="none" id="mastermind.models.Game-mastermind.models.ProposedCombination" style="stroke: #A80036; stroke-width: 1.0;"/><polygon fill="#A80036" points="281.592,1346.934,285.2575,1337.7927,281.4077,1341.9374,277.2629,1338.0876,281.592,1346.934" style="stroke: #A80036; stroke-width: 1.0;"/><!--link mastermind.models.Game to mastermind.models.Memento--><path d="M665.594,1041.253 C677.472,1062.097 689.56,1083.308 700.786,1103.006 " fill="none" id="mastermind.models.Game-mastermind.models.Memento" style="stroke: #A80036; stroke-width: 1.0; stroke-dasharray: 7.0,7.0;"/><polygon fill="#A80036" points="703.318,1107.448,702.3372,1097.6481,700.8424,1103.1039,695.3866,1101.6091,703.318,1107.448" style="stroke: #A80036; stroke-width: 1.0;"/><!--link mastermind.models.Memento to java.util.List--><path d="M849.854,1290.063 C868.68,1308.772 888.118,1328.375 906.073,1347 C920.222,1361.677 935.538,1378.271 948.39,1392.409 " fill="none" id="mastermind.models.Memento-java.util.List" style="stroke: #A80036; stroke-width: 1.0;"/><polygon fill="#A80036" points="957.262,1402.207,954.1858,1392.8509,953.9058,1398.5008,948.2559,1398.2208,957.262,1402.207" style="stroke: #A80036; stroke-width: 1.0;"/><line style="stroke: #A80036; stroke-width: 1.0;" x1="953.9058" x2="948.5365" y1="1398.5008" y2="1392.57"/><polygon fill="#A80036" points="840.375,1280.667,841.8205,1287.7317,848.8978,1289.1146,847.4523,1282.0499,840.375,1280.667" style="stroke: #A80036; stroke-width: 1.0;"/><!--link mastermind.models.Memento to mastermind.models.Result--><path d="M687.529,1280.502 C672.115,1300.921 655.691,1322.678 640.38,1342.961 " fill="none" id="mastermind.models.Memento-mastermind.models.Result" style="stroke: #A80036; stroke-width: 1.0;"/><polygon fill="#A80036" points="637.334,1346.997,645.9488,1342.2236,640.3463,1343.0063,639.5636,1337.4038,637.334,1346.997" style="stroke: #A80036; stroke-width: 1.0;"/><!--link mastermind.models.Memento to mastermind.models.ProposedCombination--><path d="M614.464,1263.066 C546.046,1296.908 464.365,1337.311 399.581,1369.355 " fill="none" id="mastermind.models.Memento-mastermind.models.ProposedCombination" style="stroke: #A80036; stroke-width: 1.0;"/><polygon fill="#A80036" points="394.946,1371.648,404.7865,1371.2423,399.4275,1369.4308,401.239,1364.0718,394.946,1371.648" style="stroke: #A80036; stroke-width: 1.0;"/><!--link mastermind.models.Combination to mastermind.models.ProposedCombination--><path d="M130.929,982.952 C94.4589,1060.704 50.8848,1189.046 100.0732,1287 C117.056,1320.82 146.645,1348.477 177.293,1369.937 " fill="none" id="mastermind.models.Combination-mastermind.models.ProposedCombination" style="stroke: #A80036; stroke-width: 1.0;"/><polygon fill="none" points="124.714,979.728,139.75,964.797,137.306,985.845,124.714,979.728" style="stroke: #A80036; stroke-width: 1.0;"/><!--link mastermind.models.ProposedCombination to mastermind.models.Error--><path d="M286.073,1506.091 C286.073,1524.14 286.073,1543.104 286.073,1560.399 " fill="none" id="mastermind.models.ProposedCombination-mastermind.models.Error" style="stroke: #A80036; stroke-width: 1.0; stroke-dasharray: 7.0,7.0;"/><polygon fill="#A80036" points="286.073,1565.71,290.073,1556.71,286.073,1560.71,282.073,1556.71,286.073,1565.71" style="stroke: #A80036; stroke-width: 1.0;"/><!--link mastermind.models.Registry to mastermind.models.Memento--><path d="M746.847,738.127 C747.32,753.837 747.75,769.842 748.073,785 C750.327,890.601 751.313,1011.605 751.742,1094.241 " fill="none" id="mastermind.models.Registry-mastermind.models.Memento" style="stroke: #A80036; stroke-width: 1.0;"/><polygon fill="#A80036" points="751.808,1107.421,755.7634,1098.4013,751.7833,1102.4211,747.7635,1098.4409,751.808,1107.421" style="stroke: #A80036; stroke-width: 1.0;"/><line style="stroke: #A80036; stroke-width: 1.0;" x1="751.7833" x2="751.743" y1="1102.4211" y2="1094.4215"/><polygon fill="#A80036" points="746.442,725.025,742.6292,731.1457,746.8125,737.0193,750.6254,730.8986,746.442,725.025" style="stroke: #A80036; stroke-width: 1.0;"/><!--link mastermind.models.Registry to java.util.ArrayList--><path d="M816.143,736.173 C877.743,827.861 963.685,967.653 1014.07,1101 C1052.04,1201.473 1069.22,1328.244 1075.72,1389.33 " fill="none" id="mastermind.models.Registry-java.util.ArrayList" style="stroke: #A80036; stroke-width: 1.0;"/><polygon fill="#A80036" points="1077.05,1402.366,1080.1152,1393.0063,1076.5421,1397.3919,1072.1565,1393.8188,1077.05,1402.366" style="stroke: #A80036; stroke-width: 1.0;"/><line style="stroke: #A80036; stroke-width: 1.0;" x1="1076.5421" x2="1075.735" y1="1397.3919" y2="1389.433"/><polygon fill="#A80036" points="808.756,725.233,808.7993,732.444,815.4722,735.1775,815.4289,727.9665,808.756,725.233" style="stroke: #A80036; stroke-width: 1.0;"/><!--link mastermind.models.Registry to mastermind.models.Game--><path d="M693.542,725.128 C684.062,742.76 673.967,761.538 663.969,780.134 " fill="none" id="mastermind.models.Registry-mastermind.models.Game" style="stroke: #A80036; stroke-width: 1.0;"/><polygon fill="#A80036" points="661.429,784.857,669.2131,778.8231,663.7961,780.4528,662.1664,775.0358,661.429,784.857" style="stroke: #A80036; stroke-width: 1.0;"/><!--link mastermind.models.Combination to mastermind.models.SecretCombination--><path d="M202.911,982.139 C214.649,1002.106 228.71,1023.308 244.073,1041 C283.014,1085.843 336.344,1127.551 376.259,1155.891 " fill="none" id="mastermind.models.Combination-mastermind.models.SecretCombination" style="stroke: #A80036; stroke-width: 1.0;"/><polygon fill="none" points="196.777,985.513,193.018,964.659,208.961,978.617,196.777,985.513" style="stroke: #A80036; stroke-width: 1.0;"/><!--link mastermind.models.SecretCombination to mastermind.models.Result--><path d="M455.531,1232.034 C474.276,1261.628 501.272,1304.249 525.158,1341.959 " fill="none" id="mastermind.models.SecretCombination-mastermind.models.Result" style="stroke: #A80036; stroke-width: 1.0; stroke-dasharray: 7.0,7.0;"/><polygon fill="#A80036" points="528.055,1346.533,526.6183,1336.7895,525.3795,1342.3091,519.8599,1341.0703,528.055,1346.533" style="stroke: #A80036; stroke-width: 1.0;"/><!--link mastermind.models.SecretCombination to mastermind.models.ProposedCombination--><path d="M408.616,1232.034 C389.871,1261.628 362.874,1304.249 338.988,1341.959 " fill="none" id="mastermind.models.SecretCombination-mastermind.models.ProposedCombination" style="stroke: #A80036; stroke-width: 1.0; stroke-dasharray: 7.0,7.0;"/><polygon fill="#A80036" points="336.091,1346.533,344.2869,1341.0716,338.7671,1342.3095,337.5292,1336.7897,336.091,1346.533" style="stroke: #A80036; stroke-width: 1.0;"/><!--link mastermind.models.Session to mastermind.models.StateValue--><path d="M392.039,136.01 C379.252,153.09 365.951,174.36 359.073,196 C286.906,423.04 312.679,711.29 330.214,841.958 " fill="none" id="mastermind.models.Session-mastermind.models.StateValue" style="stroke: #A80036; stroke-width: 1.0; stroke-dasharray: 7.0,7.0;"/><polygon fill="#A80036" points="330.939,847.3,333.6914,837.8436,330.2661,842.3455,325.7642,838.9202,330.939,847.3" style="stroke: #A80036; stroke-width: 1.0;"/><!--link mastermind.models.Session to mastermind.models.SessionImplementation--><path d="M443.955,155.21 C448.388,167.75 453.282,181.58 458.33,195.86 " fill="none" id="mastermind.models.Session-mastermind.models.SessionImplementation" style="stroke: #A80036; stroke-width: 1.0;"/><polygon fill="none" points="437.268,157.3,437.198,136.11,450.466,152.63,437.268,157.3" style="stroke: #A80036; stroke-width: 1.0;"/><!--link mastermind.models.SessionImplementation to mastermind.models.Registry--><path d="M629.47,489.6 C639.969,502.67 650.428,515.69 660.509,528.23 " fill="none" id="mastermind.models.SessionImplementation-mastermind.models.Registry" style="stroke: #A80036; stroke-width: 1.0;"/><polygon fill="#A80036" points="668.88,538.65,666.361,529.1287,665.7482,534.7523,660.1247,534.1396,668.88,538.65" style="stroke: #A80036; stroke-width: 1.0;"/><line style="stroke: #A80036; stroke-width: 1.0;" x1="665.7482" x2="660.738" y1="534.7523" y2="528.52"/><polygon fill="#A80036" points="621.099,479.18,621.739,486.3626,628.6153,488.5345,627.9753,481.3518,621.099,479.18" style="stroke: #A80036; stroke-width: 1.0;"/><!--link mastermind.models.SessionImplementation to mastermind.models.State--><path d="M486.544,492.09 C483.188,516.04 479.868,539.72 476.946,560.56 " fill="none" id="mastermind.models.SessionImplementation-mastermind.models.State" style="stroke: #A80036; stroke-width: 1.0;"/><polygon fill="#A80036" points="475.135,573.49,480.3428,565.1306,475.8274,568.5382,472.4199,564.0228,475.135,573.49" style="stroke: #A80036; stroke-width: 1.0;"/><line style="stroke: #A80036; stroke-width: 1.0;" x1="475.8274" x2="476.9395" y1="568.5382" y2="560.61"/><polygon fill="#A80036" points="488.354,479.18,483.5559,484.5631,486.6795,491.0626,491.4776,485.6795,488.354,479.18" style="stroke: #A80036; stroke-width: 1.0;"/><!--link mastermind.models.SessionImplementation to mastermind.models.Game--><path d="M555.078,491.89 C558.9,507.7 562.337,523.61 565.073,539 C578.609,615.13 585.611,701.14 589.228,771.366 " fill="none" id="mastermind.models.SessionImplementation-mastermind.models.Game" style="stroke: #A80036; stroke-width: 1.0;"/><polygon fill="#A80036" points="589.886,784.741,593.4391,775.5554,589.6404,779.747,585.4487,775.9483,589.886,784.741" style="stroke: #A80036; stroke-width: 1.0;"/><line style="stroke: #A80036; stroke-width: 1.0;" x1="589.6404" x2="589.2475" y1="779.747" y2="771.7565"/><polygon fill="#A80036" points="551.937,479.24,549.5059,486.0289,554.8375,490.8842,557.2686,484.0953,551.937,479.24" style="stroke: #A80036; stroke-width: 1.0;"/><!--link mastermind.models.SessionImplementation to mastermind.models.ProposedCombination--><path d="M376.918,436.96 C279.498,518.41 153.319,643.39 92.0732,785 C3.4291,989.958 -35.8404,1090.951 71.0732,1287 C93.2882,1327.736 133.193,1358.293 172.644,1380.194 " fill="none" id="mastermind.models.SessionImplementation-mastermind.models.ProposedCombination" style="stroke: #A80036; stroke-width: 1.0; stroke-dasharray: 7.0,7.0;"/><polygon fill="#A80036" points="177.451,1382.822,171.4711,1374.9964,173.0633,1380.4245,167.6351,1382.0167,177.451,1382.822" style="stroke: #A80036; stroke-width: 1.0;"/><!--link mastermind.models.State to mastermind.models.StateValue--><path d="M440.966,690.81 C421.035,734.942 393.497,795.918 372.382,842.673 " fill="none" id="mastermind.models.State-mastermind.models.StateValue" style="stroke: #A80036; stroke-width: 1.0;"/><polygon fill="#A80036" points="370.23,847.439,377.5804,840.8837,372.2884,842.8823,370.2897,837.5903,370.23,847.439" style="stroke: #A80036; stroke-width: 1.0;"/><!--
@startuml

class  mastermind.models.Color{
+ {static} RED: Color
+ {static} BLUE: Color
+ {static} YELLOW: Color
+ {static} GREEN: Color
+ {static} ORANGE: Color
+ {static} PURPLE: Color
- Color()
+ {static} valueOf(String): Color
~ {static} length(): int
~ {static} getInstance(int): Color
}

class  mastermind.models.Combination{
- {static} WIDTH: int
# colors: List<Color>
# Combination()
+ {static} getWidth(): int
}
mastermind.models.Combination *-down-> java.util.List
mastermind.models.Combination *-down-> mastermind.models.Color

class  mastermind.models.Error{
+ {static} DUPLICATED: Error
+ {static} WRONG_CHARACTERS: Error
+ {static} WRONG_LENGTH: Error
- Error()
+ {static} valueOf(String): Error
}

class  mastermind.models.Game{
- {static} MAX_LONG: int
- secretCombination: SecretCombination
- proposedCombinations: List<ProposedCombination>
- results: List<Result>
- turn: int
+ Game()
+ clear(): void
+ set(Memento): void
+ getCodes(): int[][][]
+ isLooser(): boolean
+ isWinner(): boolean
+ getTurn(): int
+ getWidth(): int
+ proposeCombination(ProposedCombination): void
+ createMemento(): Memento
}
mastermind.models.Game *-down-> java.util.List
mastermind.models.Game *-down-> mastermind.models.SecretCombination
mastermind.models.Game *-down-> mastermind.models.Result
mastermind.models.Game - -> mastermind.models.ProposedCombination
mastermind.models.Game ..> mastermind.models.Memento

class  mastermind.models.Memento{
- proposedCombinations: List<ProposedCombination>
- results: List<Result>
- turn: int
~ Memento(int)
~ set(Result, ProposedCombination): void
~ getSize(): int
~ getResult(int): Result
~ getTurn(): int
~ getProposedCombination(int): ProposedCombination
}
mastermind.models.Memento *-down-> java.util.List
mastermind.models.Memento - -> mastermind.models.Result
mastermind.models.Memento - -> mastermind.models.ProposedCombination

class  mastermind.models.ProposedCombination{
+ ProposedCombination()
~ contains(int, Color): boolean
~ contains(Color): boolean
+ {static} getInstance(int[]): ProposedCombination
+ copy(): ProposedCombination
+ {static} isValid(int[]): Error
~ getCodes(): int[]
~ setCodes(int[]): void
}
mastermind.models.Combination <|-down- mastermind.models.ProposedCombination
mastermind.models.ProposedCombination ..> mastermind.models.Error

class  mastermind.models.Registry{
- mementoList: ArrayList<Memento>
- game: Game
- firstPrevious: int
~ Registry(Game)
+ reset(): void
~ redoable(): boolean
~ undo(Game): void
~ redo(Game): void
~ undoable(): boolean
~ registry(): void
}
mastermind.models.Registry *-down-> mastermind.models.Memento
mastermind.models.Registry *-down-> java.util.ArrayList
mastermind.models.Registry - -> mastermind.models.Game

class  mastermind.models.Result{
- blacks: int
- whites: int
~ Result(int, int)
+ copy(): Result
~ getCodes(): int[]
~ isWinner(): boolean
~ getWhites(): int
~ getBlacks(): int
}

class  mastermind.models.SecretCombination{
~ SecretCombination()
~ getResult(ProposedCombination): Result
}
mastermind.models.Combination <|-down- mastermind.models.SecretCombination
mastermind.models.SecretCombination ..> mastermind.models.Result
mastermind.models.SecretCombination ..> mastermind.models.ProposedCombination

class  mastermind.models.Session{
+ {abstract} getValueState(): StateValue
+ {abstract} getWidth(): int
}
mastermind.models.Session ..> mastermind.models.StateValue

class  mastermind.models.SessionImplementation{
- state: State
- game: Game
- registry: Registry
+ SessionImplementation()
+ next(): void
+ resume(): void
+ redoable(): boolean
+ getCodes(): int[][][]
+ isLooser(): boolean
+ isWinner(): boolean
+ undo(): void
+ redo(): void
+ getTurn(): int
+ undoable(): boolean
+ getValueState(): StateValue
+ getWidth(): int
+ proposeCombination(ProposedCombination): void
}
mastermind.models.Session <|-down- mastermind.models.SessionImplementation
mastermind.models.SessionImplementation *-down-> mastermind.models.Registry
mastermind.models.SessionImplementation *-down-> mastermind.models.State
mastermind.models.SessionImplementation *-down-> mastermind.models.Game
mastermind.models.SessionImplementation ..> mastermind.models.ProposedCombination

class  mastermind.models.State{
- stateValue: StateValue
+ State()
+ next(): void
+ reset(): void
+ getValueState(): StateValue
}
mastermind.models.State - -> mastermind.models.StateValue

class  mastermind.models.StateValue{
+ {static} INITIAL: StateValue
+ {static} IN_GAME: StateValue
+ {static} FINAL: StateValue
+ {static} EXIT: StateValue
- StateValue()
+ {static} valueOf(String): StateValue
}

@enduml

PlantUML version 1.2019.05(Sat Apr 20 18:45:36 CEST 2019)
(GPL source distribution)
Java Runtime: OpenJDK Runtime Environment
JVM: OpenJDK 64-Bit Server VM
Java Version: 1.8.0_222-b10
Operating System: Windows 10
OS Version: 10.0
Default Encoding: windows-1252
Language: es
Country: ES
--></g></svg>