<?xml version="1.0" encoding="UTF-8" standalone="no"?><svg xmlns="http://www.w3.org/2000/svg" xmlns:xlink="http://www.w3.org/1999/xlink" contentScriptType="application/ecmascript" contentStyleType="text/css" height="635px" preserveAspectRatio="none" style="width:1112px;height:635px;" version="1.1" viewBox="0 0 1112 635" width="1112px" zoomAndPan="magnify"><defs><filter height="300%" id="fejm1r78kfb9" width="300%" x="-1" y="-1"><feGaussianBlur result="blurOut" stdDeviation="2.0"/><feColorMatrix in="blurOut" result="blurOut2" type="matrix" values="0 0 0 0 0 0 0 0 0 0 0 0 0 0 0 0 0 0 .4 0"/><feOffset dx="4.0" dy="4.0" in="blurOut2" result="blurOut3"/><feBlend in="SourceGraphic" in2="blurOut3" mode="normal"/></filter></defs><g><!--cluster mastermind.views--><polygon fill="#FFFFFF" filter="url(#fejm1r78kfb9)" points="22,69,155,69,162,92.6094,582,92.6094,582,623,22,623,22,69" style="stroke: #000000; stroke-width: 1.5;"/><line style="stroke: #000000; stroke-width: 1.5;" x1="22" x2="162" y1="92.6094" y2="92.6094"/><text fill="#000000" font-family="sans-serif" font-size="14" font-weight="bold" lengthAdjust="spacingAndGlyphs" textLength="127" x="26" y="85.5332">mastermind.views</text><!--cluster mastermind.controllers--><polygon fill="#FFFFFF" filter="url(#fejm1r78kfb9)" points="606,440,775,440,782,463.6094,1090,463.6094,1090,540,606,540,606,440" style="stroke: #000000; stroke-width: 1.5;"/><line style="stroke: #000000; stroke-width: 1.5;" x1="606" x2="782" y1="463.6094" y2="463.6094"/><text fill="#000000" font-family="sans-serif" font-size="14" font-weight="bold" lengthAdjust="spacingAndGlyphs" textLength="163" x="610" y="456.5332">mastermind.controllers</text><!--class mastermind.views.Color--><rect fill="#FEFECE" filter="url(#fejm1r78kfb9)" height="227.8672" id="mastermind.views.Color" style="stroke: #A80036; stroke-width: 1.5;" width="143" x="38.5" y="105"/><ellipse cx="90.75" cy="121" fill="#ADD1B2" rx="11" ry="11" style="stroke: #A80036; stroke-width: 1.0;"/><path d="M93.5156,116.875 Q93.6719,116.6563 93.8594,116.5469 Q94.0469,116.4375 94.2656,116.4375 Q94.6406,116.4375 94.875,116.6953 Q95.1094,116.9531 95.1094,117.5625 L95.1094,119.0156 Q95.1094,119.625 94.875,119.8906 Q94.6406,120.1563 94.2656,120.1563 Q93.9219,120.1563 93.7188,119.9531 Q93.5156,119.7656 93.4063,119.25 Q93.3594,118.8906 93.1719,118.7031 Q92.8438,118.3281 92.2344,118.1094 Q91.625,117.8906 91,117.8906 Q90.2344,117.8906 89.6016,118.2188 Q88.9688,118.5469 88.4766,119.2969 Q87.9844,120.0469 87.9844,121.0781 L87.9844,122.1719 Q87.9844,123.4063 88.875,124.2266 Q89.7656,125.0469 91.3594,125.0469 Q92.2969,125.0469 92.9531,124.7969 Q93.3438,124.6406 93.7656,124.2031 Q94.0313,123.9375 94.1797,123.8594 Q94.3281,123.7813 94.5313,123.7813 Q94.8594,123.7813 95.1172,124.0391 Q95.375,124.2969 95.375,124.6406 Q95.375,124.9844 95.0313,125.3906 Q94.5313,125.9688 93.7344,126.2969 Q92.6563,126.75 91.3594,126.75 Q89.8438,126.75 88.6406,126.125 Q87.6563,125.625 86.9688,124.5547 Q86.2813,123.4844 86.2813,122.2031 L86.2813,121.0469 Q86.2813,119.7188 86.8984,118.5703 Q87.5156,117.4219 88.6094,116.8047 Q89.7031,116.1875 90.9375,116.1875 Q91.6719,116.1875 92.3203,116.3516 Q92.9688,116.5156 93.5156,116.875 Z "/><text fill="#000000" font-family="sans-serif" font-size="12" lengthAdjust="spacingAndGlyphs" textLength="30" x="111.25" y="125.9102">Color</text><line style="stroke: #A80036; stroke-width: 1.5;" x1="39.5" x2="180.5" y1="137" y2="137"/><ellipse cx="49.5" cy="149.418" fill="none" rx="3" ry="3" style="stroke: #038048; stroke-width: 1.0;"/><text fill="#000000" font-family="sans-serif" font-size="11" lengthAdjust="spacingAndGlyphs" text-decoration="underline" textLength="51" x="58.5" y="152.4189">RED: Color</text><ellipse cx="49.5" cy="163.2539" fill="none" rx="3" ry="3" style="stroke: #038048; stroke-width: 1.0;"/><text fill="#000000" font-family="sans-serif" font-size="11" lengthAdjust="spacingAndGlyphs" text-decoration="underline" textLength="57" x="58.5" y="166.2549">BLUE: Color</text><ellipse cx="49.5" cy="177.0898" fill="none" rx="3" ry="3" style="stroke: #038048; stroke-width: 1.0;"/><text fill="#000000" font-family="sans-serif" font-size="11" lengthAdjust="spacingAndGlyphs" text-decoration="underline" textLength="75" x="58.5" y="180.0908">YELLOW: Color</text><ellipse cx="49.5" cy="190.9258" fill="none" rx="3" ry="3" style="stroke: #038048; stroke-width: 1.0;"/><text fill="#000000" font-family="sans-serif" font-size="11" lengthAdjust="spacingAndGlyphs" text-decoration="underline" textLength="65" x="58.5" y="193.9268">GREEN: Color</text><ellipse cx="49.5" cy="204.7617" fill="none" rx="3" ry="3" style="stroke: #038048; stroke-width: 1.0;"/><text fill="#000000" font-family="sans-serif" font-size="11" lengthAdjust="spacingAndGlyphs" text-decoration="underline" textLength="75" x="58.5" y="207.7627">ORANGE: Color</text><ellipse cx="49.5" cy="218.5977" fill="none" rx="3" ry="3" style="stroke: #038048; stroke-width: 1.0;"/><text fill="#000000" font-family="sans-serif" font-size="11" lengthAdjust="spacingAndGlyphs" text-decoration="underline" textLength="69" x="58.5" y="221.5986">PURPLE: Color</text><rect fill="none" height="6" style="stroke: #C82930; stroke-width: 1.0;" width="6" x="46.5" y="229.4336"/><text fill="#000000" font-family="sans-serif" font-size="11" lengthAdjust="spacingAndGlyphs" textLength="51" x="58.5" y="235.4346">initial: char</text><line style="stroke: #A80036; stroke-width: 1.5;" x1="39.5" x2="180.5" y1="241.8516" y2="241.8516"/><rect fill="#F24D5C" height="6" style="stroke: #C82930; stroke-width: 1.0;" width="6" x="46.5" y="251.2695"/><text fill="#000000" font-family="sans-serif" font-size="11" lengthAdjust="spacingAndGlyphs" textLength="55" x="58.5" y="257.2705">Color(char)</text><ellipse cx="49.5" cy="268.1055" fill="#84BE84" rx="3" ry="3" style="stroke: #038048; stroke-width: 1.0;"/><text fill="#000000" font-family="sans-serif" font-size="11" lengthAdjust="spacingAndGlyphs" text-decoration="underline" textLength="105" x="58.5" y="271.1064">valueOf(String): Color</text><ellipse cx="49.5" cy="281.9414" fill="#84BE84" rx="3" ry="3" style="stroke: #038048; stroke-width: 1.0;"/><text fill="#000000" font-family="sans-serif" font-size="11" lengthAdjust="spacingAndGlyphs" text-decoration="underline" textLength="117" x="58.5" y="284.9424">getInstance(char): Color</text><ellipse cx="49.5" cy="295.7773" fill="#84BE84" rx="3" ry="3" style="stroke: #038048; stroke-width: 1.0;"/><text fill="#000000" font-family="sans-serif" font-size="11" lengthAdjust="spacingAndGlyphs" text-decoration="underline" textLength="106" x="58.5" y="298.7783">getInstance(int): Color</text><ellipse cx="49.5" cy="309.6133" fill="#84BE84" rx="3" ry="3" style="stroke: #038048; stroke-width: 1.0;"/><text fill="#000000" font-family="sans-serif" font-size="11" lengthAdjust="spacingAndGlyphs" textLength="74" x="58.5" y="312.6143">getInitial(): char</text><ellipse cx="49.5" cy="323.4492" fill="#84BE84" rx="3" ry="3" style="stroke: #038048; stroke-width: 1.0;"/><text fill="#000000" font-family="sans-serif" font-size="11" lengthAdjust="spacingAndGlyphs" text-decoration="underline" textLength="81" x="58.5" y="326.4502">allInitials(): String</text><!--class mastermind.views.Error--><rect fill="#FEFECE" filter="url(#fejm1r78kfb9)" height="144.8516" id="mastermind.views.Error" style="stroke: #A80036; stroke-width: 1.5;" width="172" x="394" y="146.5"/><ellipse cx="462.25" cy="162.5" fill="#ADD1B2" rx="11" ry="11" style="stroke: #A80036; stroke-width: 1.0;"/><path d="M465.0156,158.375 Q465.1719,158.1563 465.3594,158.0469 Q465.5469,157.9375 465.7656,157.9375 Q466.1406,157.9375 466.375,158.1953 Q466.6094,158.4531 466.6094,159.0625 L466.6094,160.5156 Q466.6094,161.125 466.375,161.3906 Q466.1406,161.6563 465.7656,161.6563 Q465.4219,161.6563 465.2188,161.4531 Q465.0156,161.2656 464.9063,160.75 Q464.8594,160.3906 464.6719,160.2031 Q464.3438,159.8281 463.7344,159.6094 Q463.125,159.3906 462.5,159.3906 Q461.7344,159.3906 461.1016,159.7188 Q460.4688,160.0469 459.9766,160.7969 Q459.4844,161.5469 459.4844,162.5781 L459.4844,163.6719 Q459.4844,164.9063 460.375,165.7266 Q461.2656,166.5469 462.8594,166.5469 Q463.7969,166.5469 464.4531,166.2969 Q464.8438,166.1406 465.2656,165.7031 Q465.5313,165.4375 465.6797,165.3594 Q465.8281,165.2813 466.0313,165.2813 Q466.3594,165.2813 466.6172,165.5391 Q466.875,165.7969 466.875,166.1406 Q466.875,166.4844 466.5313,166.8906 Q466.0313,167.4688 465.2344,167.7969 Q464.1563,168.25 462.8594,168.25 Q461.3438,168.25 460.1406,167.625 Q459.1563,167.125 458.4688,166.0547 Q457.7813,164.9844 457.7813,163.7031 L457.7813,162.5469 Q457.7813,161.2188 458.3984,160.0703 Q459.0156,158.9219 460.1094,158.3047 Q461.2031,157.6875 462.4375,157.6875 Q463.1719,157.6875 463.8203,157.8516 Q464.4688,158.0156 465.0156,158.375 Z "/><text fill="#000000" font-family="sans-serif" font-size="12" lengthAdjust="spacingAndGlyphs" textLength="27" x="482.75" y="167.4102">Error</text><line style="stroke: #A80036; stroke-width: 1.5;" x1="395" x2="565" y1="178.5" y2="178.5"/><ellipse cx="405" cy="190.918" fill="none" rx="3" ry="3" style="stroke: #038048; stroke-width: 1.0;"/><text fill="#000000" font-family="sans-serif" font-size="11" lengthAdjust="spacingAndGlyphs" text-decoration="underline" textLength="92" x="414" y="193.9189">DUPLICATED: Error</text><ellipse cx="405" cy="204.7539" fill="none" rx="3" ry="3" style="stroke: #038048; stroke-width: 1.0;"/><text fill="#000000" font-family="sans-serif" font-size="11" lengthAdjust="spacingAndGlyphs" text-decoration="underline" textLength="146" x="414" y="207.7549">WRONG_CHARACTERS: Error</text><ellipse cx="405" cy="218.5898" fill="none" rx="3" ry="3" style="stroke: #038048; stroke-width: 1.0;"/><text fill="#000000" font-family="sans-serif" font-size="11" lengthAdjust="spacingAndGlyphs" text-decoration="underline" textLength="116" x="414" y="221.5908">WRONG_LENGTH: Error</text><rect fill="none" height="6" style="stroke: #C82930; stroke-width: 1.0;" width="6" x="402" y="229.4258"/><text fill="#000000" font-family="sans-serif" font-size="11" lengthAdjust="spacingAndGlyphs" textLength="78" x="414" y="235.4268">message: String</text><line style="stroke: #A80036; stroke-width: 1.5;" x1="395" x2="565" y1="241.8438" y2="241.8438"/><rect fill="#F24D5C" height="6" style="stroke: #C82930; stroke-width: 1.0;" width="6" x="402" y="251.2617"/><text fill="#000000" font-family="sans-serif" font-size="11" lengthAdjust="spacingAndGlyphs" textLength="60" x="414" y="257.2627">Error(String)</text><ellipse cx="405" cy="268.0977" fill="#84BE84" rx="3" ry="3" style="stroke: #038048; stroke-width: 1.0;"/><text fill="#000000" font-family="sans-serif" font-size="11" lengthAdjust="spacingAndGlyphs" text-decoration="underline" textLength="104" x="414" y="271.0986">valueOf(String): Error</text><ellipse cx="405" cy="281.9336" fill="#84BE84" rx="3" ry="3" style="stroke: #038048; stroke-width: 1.0;"/><text fill="#000000" font-family="sans-serif" font-size="11" lengthAdjust="spacingAndGlyphs" textLength="101" x="414" y="284.9346">getMessage(): String</text><!--class mastermind.views.Message--><rect fill="#FEFECE" filter="url(#fejm1r78kfb9)" height="214.0313" id="mastermind.views.Message" style="stroke: #A80036; stroke-width: 1.5;" width="207" x="38.5" y="393"/><ellipse cx="112.25" cy="409" fill="#ADD1B2" rx="11" ry="11" style="stroke: #A80036; stroke-width: 1.0;"/><path d="M115.0156,404.875 Q115.1719,404.6563 115.3594,404.5469 Q115.5469,404.4375 115.7656,404.4375 Q116.1406,404.4375 116.375,404.6953 Q116.6094,404.9531 116.6094,405.5625 L116.6094,407.0156 Q116.6094,407.625 116.375,407.8906 Q116.1406,408.1563 115.7656,408.1563 Q115.4219,408.1563 115.2188,407.9531 Q115.0156,407.7656 114.9063,407.25 Q114.8594,406.8906 114.6719,406.7031 Q114.3438,406.3281 113.7344,406.1094 Q113.125,405.8906 112.5,405.8906 Q111.7344,405.8906 111.1016,406.2188 Q110.4688,406.5469 109.9766,407.2969 Q109.4844,408.0469 109.4844,409.0781 L109.4844,410.1719 Q109.4844,411.4063 110.375,412.2266 Q111.2656,413.0469 112.8594,413.0469 Q113.7969,413.0469 114.4531,412.7969 Q114.8438,412.6406 115.2656,412.2031 Q115.5313,411.9375 115.6797,411.8594 Q115.8281,411.7813 116.0313,411.7813 Q116.3594,411.7813 116.6172,412.0391 Q116.875,412.2969 116.875,412.6406 Q116.875,412.9844 116.5313,413.3906 Q116.0313,413.9688 115.2344,414.2969 Q114.1563,414.75 112.8594,414.75 Q111.3438,414.75 110.1406,414.125 Q109.1563,413.625 108.4688,412.5547 Q107.7813,411.4844 107.7813,410.2031 L107.7813,409.0469 Q107.7813,407.7188 108.3984,406.5703 Q109.0156,405.4219 110.1094,404.8047 Q111.2031,404.1875 112.4375,404.1875 Q113.1719,404.1875 113.8203,404.3516 Q114.4688,404.5156 115.0156,404.875 Z "/><text fill="#000000" font-family="sans-serif" font-size="12" lengthAdjust="spacingAndGlyphs" textLength="51" x="132.75" y="413.9102">Message</text><line style="stroke: #A80036; stroke-width: 1.5;" x1="39.5" x2="244.5" y1="425" y2="425"/><ellipse cx="49.5" cy="437.418" fill="none" rx="3" ry="3" style="stroke: #038048; stroke-width: 1.0;"/><text fill="#000000" font-family="sans-serif" font-size="11" lengthAdjust="spacingAndGlyphs" text-decoration="underline" textLength="77" x="58.5" y="440.4189">TURN: Message</text><ellipse cx="49.5" cy="451.2539" fill="none" rx="3" ry="3" style="stroke: #038048; stroke-width: 1.0;"/><text fill="#000000" font-family="sans-serif" font-size="11" lengthAdjust="spacingAndGlyphs" text-decoration="underline" textLength="89" x="58.5" y="454.2549">SECRET: Message</text><ellipse cx="49.5" cy="465.0898" fill="none" rx="3" ry="3" style="stroke: #038048; stroke-width: 1.0;"/><text fill="#000000" font-family="sans-serif" font-size="11" lengthAdjust="spacingAndGlyphs" text-decoration="underline" textLength="91" x="58.5" y="468.0908">RESUME: Message</text><ellipse cx="49.5" cy="478.9258" fill="none" rx="3" ry="3" style="stroke: #038048; stroke-width: 1.0;"/><text fill="#000000" font-family="sans-serif" font-size="11" lengthAdjust="spacingAndGlyphs" text-decoration="underline" textLength="89" x="58.5" y="481.9268">RESULT: Message</text><ellipse cx="49.5" cy="492.7617" fill="none" rx="3" ry="3" style="stroke: #038048; stroke-width: 1.0;"/><text fill="#000000" font-family="sans-serif" font-size="11" lengthAdjust="spacingAndGlyphs" text-decoration="underline" textLength="181" x="58.5" y="495.7627">PROPOSED_COMBINATION: Message</text><ellipse cx="49.5" cy="506.5977" fill="none" rx="3" ry="3" style="stroke: #038048; stroke-width: 1.0;"/><text fill="#000000" font-family="sans-serif" font-size="11" lengthAdjust="spacingAndGlyphs" text-decoration="underline" textLength="76" x="58.5" y="509.5986">TITLE: Message</text><ellipse cx="49.5" cy="520.4336" fill="none" rx="3" ry="3" style="stroke: #038048; stroke-width: 1.0;"/><text fill="#000000" font-family="sans-serif" font-size="11" lengthAdjust="spacingAndGlyphs" text-decoration="underline" textLength="89" x="58.5" y="523.4346">WINNER: Message</text><ellipse cx="49.5" cy="534.2695" fill="none" rx="3" ry="3" style="stroke: #038048; stroke-width: 1.0;"/><text fill="#000000" font-family="sans-serif" font-size="11" lengthAdjust="spacingAndGlyphs" text-decoration="underline" textLength="92" x="58.5" y="537.2705">LOOSER: Message</text><rect fill="none" height="6" style="stroke: #C82930; stroke-width: 1.0;" width="6" x="46.5" y="545.1055"/><text fill="#000000" font-family="sans-serif" font-size="11" lengthAdjust="spacingAndGlyphs" textLength="78" x="58.5" y="551.1064">message: String</text><line style="stroke: #A80036; stroke-width: 1.5;" x1="39.5" x2="244.5" y1="557.5234" y2="557.5234"/><rect fill="#F24D5C" height="6" style="stroke: #C82930; stroke-width: 1.0;" width="6" x="46.5" y="566.9414"/><text fill="#000000" font-family="sans-serif" font-size="11" lengthAdjust="spacingAndGlyphs" textLength="80" x="58.5" y="572.9424">Message(String)</text><ellipse cx="49.5" cy="583.7773" fill="#84BE84" rx="3" ry="3" style="stroke: #038048; stroke-width: 1.0;"/><text fill="#000000" font-family="sans-serif" font-size="11" lengthAdjust="spacingAndGlyphs" text-decoration="underline" textLength="124" x="58.5" y="586.7783">valueOf(String): Message</text><ellipse cx="49.5" cy="597.6133" fill="#84BE84" rx="3" ry="3" style="stroke: #038048; stroke-width: 1.0;"/><text fill="#000000" font-family="sans-serif" font-size="11" lengthAdjust="spacingAndGlyphs" textLength="101" x="58.5" y="600.6143">getMessage(): String</text><!--class mastermind.views.View--><rect fill="#FEFECE" filter="url(#fejm1r78kfb9)" height="75.6719" id="mastermind.views.View" style="stroke: #A80036; stroke-width: 1.5;" width="142" x="217" y="181"/><ellipse cx="270.75" cy="197" fill="#ADD1B2" rx="11" ry="11" style="stroke: #A80036; stroke-width: 1.0;"/><path d="M273.5156,192.875 Q273.6719,192.6563 273.8594,192.5469 Q274.0469,192.4375 274.2656,192.4375 Q274.6406,192.4375 274.875,192.6953 Q275.1094,192.9531 275.1094,193.5625 L275.1094,195.0156 Q275.1094,195.625 274.875,195.8906 Q274.6406,196.1563 274.2656,196.1563 Q273.9219,196.1563 273.7188,195.9531 Q273.5156,195.7656 273.4063,195.25 Q273.3594,194.8906 273.1719,194.7031 Q272.8438,194.3281 272.2344,194.1094 Q271.625,193.8906 271,193.8906 Q270.2344,193.8906 269.6016,194.2188 Q268.9688,194.5469 268.4766,195.2969 Q267.9844,196.0469 267.9844,197.0781 L267.9844,198.1719 Q267.9844,199.4063 268.875,200.2266 Q269.7656,201.0469 271.3594,201.0469 Q272.2969,201.0469 272.9531,200.7969 Q273.3438,200.6406 273.7656,200.2031 Q274.0313,199.9375 274.1797,199.8594 Q274.3281,199.7813 274.5313,199.7813 Q274.8594,199.7813 275.1172,200.0391 Q275.375,200.2969 275.375,200.6406 Q275.375,200.9844 275.0313,201.3906 Q274.5313,201.9688 273.7344,202.2969 Q272.6563,202.75 271.3594,202.75 Q269.8438,202.75 268.6406,202.125 Q267.6563,201.625 266.9688,200.5547 Q266.2813,199.4844 266.2813,198.2031 L266.2813,197.0469 Q266.2813,195.7188 266.8984,194.5703 Q267.5156,193.4219 268.6094,192.8047 Q269.7031,192.1875 270.9375,192.1875 Q271.6719,192.1875 272.3203,192.3516 Q272.9688,192.5156 273.5156,192.875 Z "/><text fill="#000000" font-family="sans-serif" font-size="12" lengthAdjust="spacingAndGlyphs" textLength="26" x="291.25" y="201.9102">View</text><line style="stroke: #A80036; stroke-width: 1.5;" x1="218" x2="358" y1="213" y2="213"/><line style="stroke: #A80036; stroke-width: 1.5;" x1="218" x2="358" y1="221" y2="221"/><ellipse cx="228" cy="233.418" fill="#84BE84" rx="3" ry="3" style="stroke: #038048; stroke-width: 1.0;"/><text fill="#000000" font-family="sans-serif" font-size="11" lengthAdjust="spacingAndGlyphs" textLength="34" x="237" y="236.4189">View()</text><ellipse cx="228" cy="247.2539" fill="#84BE84" rx="3" ry="3" style="stroke: #038048; stroke-width: 1.0;"/><text fill="#000000" font-family="sans-serif" font-size="11" lengthAdjust="spacingAndGlyphs" textLength="116" x="237" y="250.2549">interact(Controller): void</text><!--class mastermind.controllers.ResumeController--><rect fill="#FEFECE" filter="url(#fejm1r78kfb9)" height="48" id="mastermind.controllers.ResumeController" style="stroke: #A80036; stroke-width: 1.5;" width="134" x="940" y="476"/><ellipse cx="955" cy="492" fill="#ADD1B2" rx="11" ry="11" style="stroke: #A80036; stroke-width: 1.0;"/><path d="M957.7656,487.875 Q957.9219,487.6563 958.1094,487.5469 Q958.2969,487.4375 958.5156,487.4375 Q958.8906,487.4375 959.125,487.6953 Q959.3594,487.9531 959.3594,488.5625 L959.3594,490.0156 Q959.3594,490.625 959.125,490.8906 Q958.8906,491.1563 958.5156,491.1563 Q958.1719,491.1563 957.9688,490.9531 Q957.7656,490.7656 957.6563,490.25 Q957.6094,489.8906 957.4219,489.7031 Q957.0938,489.3281 956.4844,489.1094 Q955.875,488.8906 955.25,488.8906 Q954.4844,488.8906 953.8516,489.2188 Q953.2188,489.5469 952.7266,490.2969 Q952.2344,491.0469 952.2344,492.0781 L952.2344,493.1719 Q952.2344,494.4063 953.125,495.2266 Q954.0156,496.0469 955.6094,496.0469 Q956.5469,496.0469 957.2031,495.7969 Q957.5938,495.6406 958.0156,495.2031 Q958.2813,494.9375 958.4297,494.8594 Q958.5781,494.7813 958.7813,494.7813 Q959.1094,494.7813 959.3672,495.0391 Q959.625,495.2969 959.625,495.6406 Q959.625,495.9844 959.2813,496.3906 Q958.7813,496.9688 957.9844,497.2969 Q956.9063,497.75 955.6094,497.75 Q954.0938,497.75 952.8906,497.125 Q951.9063,496.625 951.2188,495.5547 Q950.5313,494.4844 950.5313,493.2031 L950.5313,492.0469 Q950.5313,490.7188 951.1484,489.5703 Q951.7656,488.4219 952.8594,487.8047 Q953.9531,487.1875 955.1875,487.1875 Q955.9219,487.1875 956.5703,487.3516 Q957.2188,487.5156 957.7656,487.875 Z "/><text fill="#000000" font-family="sans-serif" font-size="12" lengthAdjust="spacingAndGlyphs" textLength="102" x="969" y="496.9102">ResumeController</text><line style="stroke: #A80036; stroke-width: 1.5;" x1="941" x2="1073" y1="508" y2="508"/><line style="stroke: #A80036; stroke-width: 1.5;" x1="941" x2="1073" y1="516" y2="516"/><!--class mastermind.controllers.StartController--><rect fill="#FEFECE" filter="url(#fejm1r78kfb9)" height="48" id="mastermind.controllers.StartController" style="stroke: #A80036; stroke-width: 1.5;" width="111" x="793.5" y="476"/><ellipse cx="808.5" cy="492" fill="#ADD1B2" rx="11" ry="11" style="stroke: #A80036; stroke-width: 1.0;"/><path d="M811.2656,487.875 Q811.4219,487.6563 811.6094,487.5469 Q811.7969,487.4375 812.0156,487.4375 Q812.3906,487.4375 812.625,487.6953 Q812.8594,487.9531 812.8594,488.5625 L812.8594,490.0156 Q812.8594,490.625 812.625,490.8906 Q812.3906,491.1563 812.0156,491.1563 Q811.6719,491.1563 811.4688,490.9531 Q811.2656,490.7656 811.1563,490.25 Q811.1094,489.8906 810.9219,489.7031 Q810.5938,489.3281 809.9844,489.1094 Q809.375,488.8906 808.75,488.8906 Q807.9844,488.8906 807.3516,489.2188 Q806.7188,489.5469 806.2266,490.2969 Q805.7344,491.0469 805.7344,492.0781 L805.7344,493.1719 Q805.7344,494.4063 806.625,495.2266 Q807.5156,496.0469 809.1094,496.0469 Q810.0469,496.0469 810.7031,495.7969 Q811.0938,495.6406 811.5156,495.2031 Q811.7813,494.9375 811.9297,494.8594 Q812.0781,494.7813 812.2813,494.7813 Q812.6094,494.7813 812.8672,495.0391 Q813.125,495.2969 813.125,495.6406 Q813.125,495.9844 812.7813,496.3906 Q812.2813,496.9688 811.4844,497.2969 Q810.4063,497.75 809.1094,497.75 Q807.5938,497.75 806.3906,497.125 Q805.4063,496.625 804.7188,495.5547 Q804.0313,494.4844 804.0313,493.2031 L804.0313,492.0469 Q804.0313,490.7188 804.6484,489.5703 Q805.2656,488.4219 806.3594,487.8047 Q807.4531,487.1875 808.6875,487.1875 Q809.4219,487.1875 810.0703,487.3516 Q810.7188,487.5156 811.2656,487.875 Z "/><text fill="#000000" font-family="sans-serif" font-size="12" lengthAdjust="spacingAndGlyphs" textLength="79" x="822.5" y="496.9102">StartController</text><line style="stroke: #A80036; stroke-width: 1.5;" x1="794.5" x2="903.5" y1="508" y2="508"/><line style="stroke: #A80036; stroke-width: 1.5;" x1="794.5" x2="903.5" y1="516" y2="516"/><!--class mastermind.controllers.ProposalController--><rect fill="#FEFECE" filter="url(#fejm1r78kfb9)" height="48" id="mastermind.controllers.ProposalController" style="stroke: #A80036; stroke-width: 1.5;" width="136" x="622" y="476"/><ellipse cx="637" cy="492" fill="#ADD1B2" rx="11" ry="11" style="stroke: #A80036; stroke-width: 1.0;"/><path d="M639.7656,487.875 Q639.9219,487.6563 640.1094,487.5469 Q640.2969,487.4375 640.5156,487.4375 Q640.8906,487.4375 641.125,487.6953 Q641.3594,487.9531 641.3594,488.5625 L641.3594,490.0156 Q641.3594,490.625 641.125,490.8906 Q640.8906,491.1563 640.5156,491.1563 Q640.1719,491.1563 639.9688,490.9531 Q639.7656,490.7656 639.6563,490.25 Q639.6094,489.8906 639.4219,489.7031 Q639.0938,489.3281 638.4844,489.1094 Q637.875,488.8906 637.25,488.8906 Q636.4844,488.8906 635.8516,489.2188 Q635.2188,489.5469 634.7266,490.2969 Q634.2344,491.0469 634.2344,492.0781 L634.2344,493.1719 Q634.2344,494.4063 635.125,495.2266 Q636.0156,496.0469 637.6094,496.0469 Q638.5469,496.0469 639.2031,495.7969 Q639.5938,495.6406 640.0156,495.2031 Q640.2813,494.9375 640.4297,494.8594 Q640.5781,494.7813 640.7813,494.7813 Q641.1094,494.7813 641.3672,495.0391 Q641.625,495.2969 641.625,495.6406 Q641.625,495.9844 641.2813,496.3906 Q640.7813,496.9688 639.9844,497.2969 Q638.9063,497.75 637.6094,497.75 Q636.0938,497.75 634.8906,497.125 Q633.9063,496.625 633.2188,495.5547 Q632.5313,494.4844 632.5313,493.2031 L632.5313,492.0469 Q632.5313,490.7188 633.1484,489.5703 Q633.7656,488.4219 634.8594,487.8047 Q635.9531,487.1875 637.1875,487.1875 Q637.9219,487.1875 638.5703,487.3516 Q639.2188,487.5156 639.7656,487.875 Z "/><text fill="#000000" font-family="sans-serif" font-size="12" lengthAdjust="spacingAndGlyphs" textLength="104" x="651" y="496.9102">ProposalController</text><line style="stroke: #A80036; stroke-width: 1.5;" x1="623" x2="757" y1="508" y2="508"/><line style="stroke: #A80036; stroke-width: 1.5;" x1="623" x2="757" y1="516" y2="516"/><!--link mastermind.views.View to mastermind.controllers.ResumeController--><path d="M306.783,257.031 C322.002,282.907 345.994,315.793 377,333 C590.072,451.249 708.412,275.684 922,393 C954.31,410.747 978.848,446.327 993.062,471.354 " fill="none" id="mastermind.views.View-mastermind.controllers.ResumeController" style="stroke: #A80036; stroke-width: 1.0; stroke-dasharray: 7.0,7.0;"/><polygon fill="#A80036" points="995.596,475.898,994.708,466.0893,993.1616,471.5307,987.7202,469.9843,995.596,475.898" style="stroke: #A80036; stroke-width: 1.0;"/><!--link mastermind.views.View to mastermind.controllers.StartController--><path d="M307.314,257.211 C322.65,282.825 346.557,315.307 377,333 C532.045,423.107 623.92,297.974 776,393 C805.313,411.316 825.855,446.199 837.523,470.941 " fill="none" id="mastermind.views.View-mastermind.controllers.StartController" style="stroke: #A80036; stroke-width: 1.0; stroke-dasharray: 7.0,7.0;"/><polygon fill="#A80036" points="839.738,475.746,839.604,465.8981,837.6453,471.205,832.3384,469.2463,839.738,475.746" style="stroke: #A80036; stroke-width: 1.0;"/><!--link mastermind.views.View to mastermind.controllers.ProposalController--><path d="M308.755,257.057 C324.471,281.923 348.238,313.567 377,333 C455.662,386.148 500.11,344.976 582,393 C616.92,413.479 648.93,447.707 668.882,471.714 " fill="none" id="mastermind.views.View-mastermind.controllers.ProposalController" style="stroke: #A80036; stroke-width: 1.0; stroke-dasharray: 7.0,7.0;"/><polygon fill="#A80036" points="672.222,475.773,669.5925,466.2816,669.0452,471.9119,663.4149,471.3646,672.222,475.773" style="stroke: #A80036; stroke-width: 1.0;"/><!--link mastermind.views.Color to mastermind.views.Error--><!--link mastermind.views.Color to mastermind.views.Message--><!--
@startuml

class  mastermind.views.Color{
+ {static} RED: Color
+ {static} BLUE: Color
+ {static} YELLOW: Color
+ {static} GREEN: Color
+ {static} ORANGE: Color
+ {static} PURPLE: Color
- initial: char
- Color(char)
+ {static} valueOf(String): Color
+ {static} getInstance(char): Color
+ {static} getInstance(int): Color
+ getInitial(): char
+ {static} allInitials(): String
}

class  mastermind.views.Error{
+ {static} DUPLICATED: Error
+ {static} WRONG_CHARACTERS: Error
+ {static} WRONG_LENGTH: Error
- message: String
- Error(String)
+ {static} valueOf(String): Error
+ getMessage(): String
}

class  mastermind.views.Message{
+ {static} TURN: Message
+ {static} SECRET: Message
+ {static} RESUME: Message
+ {static} RESULT: Message
+ {static} PROPOSED_COMBINATION: Message
+ {static} TITLE: Message
+ {static} WINNER: Message
+ {static} LOOSER: Message
- message: String
- Message(String)
+ {static} valueOf(String): Message
+ getMessage(): String
}

class  mastermind.views.View{
+ View()
+ interact(Controller): void
}
mastermind.views.View ..> mastermind.controllers.ResumeController
mastermind.views.View ..> mastermind.controllers.StartController
mastermind.views.View ..> mastermind.controllers.ProposalController

@enduml

PlantUML version 1.2019.05(Sat Apr 20 18:45:36 CEST 2019)
(GPL source distribution)
Java Runtime: OpenJDK Runtime Environment
JVM: OpenJDK 64-Bit Server VM
Java Version: 1.8.0_222-b10
Operating System: Windows 10
OS Version: 10.0
Default Encoding: windows-1252
Language: es
Country: ES
--></g></svg>