<?xml version="1.0" encoding="UTF-8" standalone="no"?><svg xmlns="http://www.w3.org/2000/svg" xmlns:xlink="http://www.w3.org/1999/xlink" contentScriptType="application/ecmascript" contentStyleType="text/css" height="507px" preserveAspectRatio="none" style="width:769px;height:507px;" version="1.1" viewBox="0 0 769 507" width="769px" zoomAndPan="magnify"><defs><filter height="300%" id="f13hxvkfdokxyl" width="300%" x="-1" y="-1"><feGaussianBlur result="blurOut" stdDeviation="2.0"/><feColorMatrix in="blurOut" result="blurOut2" type="matrix" values="0 0 0 0 0 0 0 0 0 0 0 0 0 0 0 0 0 0 .4 0"/><feOffset dx="4.0" dy="4.0" in="blurOut2" result="blurOut3"/><feBlend in="SourceGraphic" in2="blurOut3" mode="normal"/></filter></defs><g><!--cluster mastermind.controllers--><polygon fill="#FFFFFF" filter="url(#f13hxvkfdokxyl)" points="22,24,191,24,198,47.6094,570,47.6094,570,495,22,495,22,24" style="stroke: #000000; stroke-width: 1.5;"/><line style="stroke: #000000; stroke-width: 1.5;" x1="22" x2="198" y1="47.6094" y2="47.6094"/><text fill="#000000" font-family="sans-serif" font-size="14" font-weight="bold" lengthAdjust="spacingAndGlyphs" textLength="163" x="26" y="40.5332">mastermind.controllers</text><!--cluster mastermind.models--><polygon fill="#FFFFFF" filter="url(#f13hxvkfdokxyl)" points="594,353.5,737,353.5,744,377.1094,747,377.1094,747,453.5,594,453.5,594,353.5" style="stroke: #000000; stroke-width: 1.5;"/><line style="stroke: #000000; stroke-width: 1.5;" x1="594" x2="744" y1="377.1094" y2="377.1094"/><text fill="#000000" font-family="sans-serif" font-size="14" font-weight="bold" lengthAdjust="spacingAndGlyphs" textLength="137" x="598" y="370.0332">mastermind.models</text><!--class mastermind.controllers.Controller--><rect fill="#FEFECE" filter="url(#f13hxvkfdokxyl)" height="75.6719" id="mastermind.controllers.Controller" style="stroke: #A80036; stroke-width: 1.5;" width="108" x="426" y="136"/><ellipse cx="450.9" cy="152" fill="#ADD1B2" rx="11" ry="11" style="stroke: #A80036; stroke-width: 1.0;"/><path d="M453.6656,147.875 Q453.8219,147.6563 454.0094,147.5469 Q454.1969,147.4375 454.4156,147.4375 Q454.7906,147.4375 455.025,147.6953 Q455.2594,147.9531 455.2594,148.5625 L455.2594,150.0156 Q455.2594,150.625 455.025,150.8906 Q454.7906,151.1563 454.4156,151.1563 Q454.0719,151.1563 453.8688,150.9531 Q453.6656,150.7656 453.5563,150.25 Q453.5094,149.8906 453.3219,149.7031 Q452.9938,149.3281 452.3844,149.1094 Q451.775,148.8906 451.15,148.8906 Q450.3844,148.8906 449.7516,149.2188 Q449.1188,149.5469 448.6266,150.2969 Q448.1344,151.0469 448.1344,152.0781 L448.1344,153.1719 Q448.1344,154.4063 449.025,155.2266 Q449.9156,156.0469 451.5094,156.0469 Q452.4469,156.0469 453.1031,155.7969 Q453.4938,155.6406 453.9156,155.2031 Q454.1813,154.9375 454.3297,154.8594 Q454.4781,154.7813 454.6813,154.7813 Q455.0094,154.7813 455.2672,155.0391 Q455.525,155.2969 455.525,155.6406 Q455.525,155.9844 455.1813,156.3906 Q454.6813,156.9688 453.8844,157.2969 Q452.8063,157.75 451.5094,157.75 Q449.9938,157.75 448.7906,157.125 Q447.8063,156.625 447.1188,155.5547 Q446.4313,154.4844 446.4313,153.2031 L446.4313,152.0469 Q446.4313,150.7188 447.0484,149.5703 Q447.6656,148.4219 448.7594,147.8047 Q449.8531,147.1875 451.0875,147.1875 Q451.8219,147.1875 452.4703,147.3516 Q453.1188,147.5156 453.6656,147.875 Z "/><text fill="#000000" font-family="sans-serif" font-size="12" lengthAdjust="spacingAndGlyphs" textLength="54" x="467.1" y="156.9102">Controller</text><line style="stroke: #A80036; stroke-width: 1.5;" x1="427" x2="533" y1="168" y2="168"/><polygon fill="none" points="437,175.418,441,179.418,437,183.418,433,179.418" style="stroke: #B38D22; stroke-width: 1.0;"/><text fill="#000000" font-family="sans-serif" font-size="11" lengthAdjust="spacingAndGlyphs" textLength="60" x="446" y="183.4189">game: Game</text><line style="stroke: #A80036; stroke-width: 1.5;" x1="427" x2="533" y1="189.8359" y2="189.8359"/><polygon fill="#4177AF" points="437,198.2539,433,204.2539,441,204.2539" style="stroke: #1963A0; stroke-width: 1.0;"/><text fill="#000000" font-family="sans-serif" font-size="11" lengthAdjust="spacingAndGlyphs" textLength="82" x="446" y="205.2549">Controller(Game)</text><!--class mastermind.controllers.Logic--><rect fill="#FEFECE" filter="url(#f13hxvkfdokxyl)" height="227.8672" id="mastermind.controllers.Logic" style="stroke: #A80036; stroke-width: 1.5;" width="208" x="183" y="60"/><ellipse cx="267.75" cy="76" fill="#ADD1B2" rx="11" ry="11" style="stroke: #A80036; stroke-width: 1.0;"/><path d="M270.5156,71.875 Q270.6719,71.6563 270.8594,71.5469 Q271.0469,71.4375 271.2656,71.4375 Q271.6406,71.4375 271.875,71.6953 Q272.1094,71.9531 272.1094,72.5625 L272.1094,74.0156 Q272.1094,74.625 271.875,74.8906 Q271.6406,75.1563 271.2656,75.1563 Q270.9219,75.1563 270.7188,74.9531 Q270.5156,74.7656 270.4063,74.25 Q270.3594,73.8906 270.1719,73.7031 Q269.8438,73.3281 269.2344,73.1094 Q268.625,72.8906 268,72.8906 Q267.2344,72.8906 266.6016,73.2188 Q265.9688,73.5469 265.4766,74.2969 Q264.9844,75.0469 264.9844,76.0781 L264.9844,77.1719 Q264.9844,78.4063 265.875,79.2266 Q266.7656,80.0469 268.3594,80.0469 Q269.2969,80.0469 269.9531,79.7969 Q270.3438,79.6406 270.7656,79.2031 Q271.0313,78.9375 271.1797,78.8594 Q271.3281,78.7813 271.5313,78.7813 Q271.8594,78.7813 272.1172,79.0391 Q272.375,79.2969 272.375,79.6406 Q272.375,79.9844 272.0313,80.3906 Q271.5313,80.9688 270.7344,81.2969 Q269.6563,81.75 268.3594,81.75 Q266.8438,81.75 265.6406,81.125 Q264.6563,80.625 263.9688,79.5547 Q263.2813,78.4844 263.2813,77.2031 L263.2813,76.0469 Q263.2813,74.7188 263.8984,73.5703 Q264.5156,72.4219 265.6094,71.8047 Q266.7031,71.1875 267.9375,71.1875 Q268.6719,71.1875 269.3203,71.3516 Q269.9688,71.5156 270.5156,71.875 Z "/><text fill="#000000" font-family="sans-serif" font-size="12" lengthAdjust="spacingAndGlyphs" textLength="30" x="288.25" y="80.9102">Logic</text><line style="stroke: #A80036; stroke-width: 1.5;" x1="184" x2="390" y1="92" y2="92"/><ellipse cx="194" cy="104.418" fill="none" rx="3" ry="3" style="stroke: #038048; stroke-width: 1.0;"/><text fill="#000000" font-family="sans-serif" font-size="11" lengthAdjust="spacingAndGlyphs" text-decoration="underline" textLength="73" x="203" y="107.4189">NO_ERROR: int</text><rect fill="none" height="6" style="stroke: #C82930; stroke-width: 1.0;" width="6" x="191" y="115.2539"/><text fill="#000000" font-family="sans-serif" font-size="11" lengthAdjust="spacingAndGlyphs" textLength="60" x="203" y="121.2549">game: Game</text><rect fill="none" height="6" style="stroke: #C82930; stroke-width: 1.0;" width="6" x="191" y="129.0898"/><text fill="#000000" font-family="sans-serif" font-size="11" lengthAdjust="spacingAndGlyphs" textLength="143" x="203" y="135.0908">startController: StartController</text><rect fill="none" height="6" style="stroke: #C82930; stroke-width: 1.0;" width="6" x="191" y="142.9258"/><text fill="#000000" font-family="sans-serif" font-size="11" lengthAdjust="spacingAndGlyphs" textLength="182" x="203" y="148.9268">proposalController: ProposalController</text><rect fill="none" height="6" style="stroke: #C82930; stroke-width: 1.0;" width="6" x="191" y="156.7617"/><text fill="#000000" font-family="sans-serif" font-size="11" lengthAdjust="spacingAndGlyphs" textLength="173" x="203" y="162.7627">resumeController: ResumeController</text><line style="stroke: #A80036; stroke-width: 1.5;" x1="184" x2="390" y1="169.1797" y2="169.1797"/><ellipse cx="194" cy="181.5977" fill="#84BE84" rx="3" ry="3" style="stroke: #038048; stroke-width: 1.0;"/><text fill="#000000" font-family="sans-serif" font-size="11" lengthAdjust="spacingAndGlyphs" textLength="34" x="203" y="184.5986">Logic()</text><ellipse cx="194" cy="195.4336" fill="#84BE84" rx="3" ry="3" style="stroke: #038048; stroke-width: 1.0;"/><text fill="#000000" font-family="sans-serif" font-size="11" lengthAdjust="spacingAndGlyphs" textLength="108" x="203" y="198.4346">resume(boolean): void</text><ellipse cx="194" cy="209.2695" fill="#84BE84" rx="3" ry="3" style="stroke: #038048; stroke-width: 1.0;"/><text fill="#000000" font-family="sans-serif" font-size="11" lengthAdjust="spacingAndGlyphs" textLength="140" x="203" y="212.2705">proposeCombination(int[]): int</text><ellipse cx="194" cy="223.1055" fill="#84BE84" rx="3" ry="3" style="stroke: #038048; stroke-width: 1.0;"/><text fill="#000000" font-family="sans-serif" font-size="11" lengthAdjust="spacingAndGlyphs" textLength="101" x="203" y="226.1064">getAllCodes(): int[][][]</text><ellipse cx="194" cy="236.9414" fill="#84BE84" rx="3" ry="3" style="stroke: #038048; stroke-width: 1.0;"/><text fill="#000000" font-family="sans-serif" font-size="11" lengthAdjust="spacingAndGlyphs" textLength="94" x="203" y="239.9424">isWinner(): boolean</text><ellipse cx="194" cy="250.7773" fill="#84BE84" rx="3" ry="3" style="stroke: #038048; stroke-width: 1.0;"/><text fill="#000000" font-family="sans-serif" font-size="11" lengthAdjust="spacingAndGlyphs" textLength="62" x="203" y="253.7783">getTurn(): int</text><ellipse cx="194" cy="264.6133" fill="#84BE84" rx="3" ry="3" style="stroke: #038048; stroke-width: 1.0;"/><text fill="#000000" font-family="sans-serif" font-size="11" lengthAdjust="spacingAndGlyphs" textLength="67" x="203" y="267.6143">getWidth(): int</text><ellipse cx="194" cy="278.4492" fill="#84BE84" rx="3" ry="3" style="stroke: #038048; stroke-width: 1.0;"/><text fill="#000000" font-family="sans-serif" font-size="11" lengthAdjust="spacingAndGlyphs" textLength="94" x="203" y="281.4502">isLooser(): boolean</text><!--class mastermind.controllers.ResumeController--><rect fill="#FEFECE" filter="url(#f13hxvkfdokxyl)" height="75.6719" id="mastermind.controllers.ResumeController" style="stroke: #A80036; stroke-width: 1.5;" width="147" x="406.5" y="375.5"/><ellipse cx="427.35" cy="391.5" fill="#ADD1B2" rx="11" ry="11" style="stroke: #A80036; stroke-width: 1.0;"/><path d="M430.1156,387.375 Q430.2719,387.1563 430.4594,387.0469 Q430.6469,386.9375 430.8656,386.9375 Q431.2406,386.9375 431.475,387.1953 Q431.7094,387.4531 431.7094,388.0625 L431.7094,389.5156 Q431.7094,390.125 431.475,390.3906 Q431.2406,390.6563 430.8656,390.6563 Q430.5219,390.6563 430.3188,390.4531 Q430.1156,390.2656 430.0063,389.75 Q429.9594,389.3906 429.7719,389.2031 Q429.4438,388.8281 428.8344,388.6094 Q428.225,388.3906 427.6,388.3906 Q426.8344,388.3906 426.2016,388.7188 Q425.5688,389.0469 425.0766,389.7969 Q424.5844,390.5469 424.5844,391.5781 L424.5844,392.6719 Q424.5844,393.9063 425.475,394.7266 Q426.3656,395.5469 427.9594,395.5469 Q428.8969,395.5469 429.5531,395.2969 Q429.9438,395.1406 430.3656,394.7031 Q430.6313,394.4375 430.7797,394.3594 Q430.9281,394.2813 431.1313,394.2813 Q431.4594,394.2813 431.7172,394.5391 Q431.975,394.7969 431.975,395.1406 Q431.975,395.4844 431.6313,395.8906 Q431.1313,396.4688 430.3344,396.7969 Q429.2563,397.25 427.9594,397.25 Q426.4438,397.25 425.2406,396.625 Q424.2563,396.125 423.5688,395.0547 Q422.8813,393.9844 422.8813,392.7031 L422.8813,391.5469 Q422.8813,390.2188 423.4984,389.0703 Q424.1156,387.9219 425.2094,387.3047 Q426.3031,386.6875 427.5375,386.6875 Q428.2719,386.6875 428.9203,386.8516 Q429.5688,387.0156 430.1156,387.375 Z "/><text fill="#000000" font-family="sans-serif" font-size="12" lengthAdjust="spacingAndGlyphs" textLength="102" x="442.65" y="396.4102">ResumeController</text><line style="stroke: #A80036; stroke-width: 1.5;" x1="407.5" x2="552.5" y1="407.5" y2="407.5"/><line style="stroke: #A80036; stroke-width: 1.5;" x1="407.5" x2="552.5" y1="415.5" y2="415.5"/><polygon fill="#4177AF" points="417.5,423.918,413.5,429.918,421.5,429.918" style="stroke: #1963A0; stroke-width: 1.0;"/><text fill="#000000" font-family="sans-serif" font-size="11" lengthAdjust="spacingAndGlyphs" textLength="121" x="426.5" y="430.9189">ResumeController(Game)</text><polygon fill="#4177AF" points="417.5,437.7539,413.5,443.7539,421.5,443.7539" style="stroke: #1963A0; stroke-width: 1.0;"/><text fill="#000000" font-family="sans-serif" font-size="11" lengthAdjust="spacingAndGlyphs" textLength="108" x="426.5" y="444.7549">resume(boolean): void</text><!--class mastermind.controllers.StartController--><rect fill="#FEFECE" filter="url(#f13hxvkfdokxyl)" height="75.6719" id="mastermind.controllers.StartController" style="stroke: #A80036; stroke-width: 1.5;" width="131" x="38.5" y="375.5"/><ellipse cx="62.5" cy="391.5" fill="#ADD1B2" rx="11" ry="11" style="stroke: #A80036; stroke-width: 1.0;"/><path d="M65.2656,387.375 Q65.4219,387.1563 65.6094,387.0469 Q65.7969,386.9375 66.0156,386.9375 Q66.3906,386.9375 66.625,387.1953 Q66.8594,387.4531 66.8594,388.0625 L66.8594,389.5156 Q66.8594,390.125 66.625,390.3906 Q66.3906,390.6563 66.0156,390.6563 Q65.6719,390.6563 65.4688,390.4531 Q65.2656,390.2656 65.1563,389.75 Q65.1094,389.3906 64.9219,389.2031 Q64.5938,388.8281 63.9844,388.6094 Q63.375,388.3906 62.75,388.3906 Q61.9844,388.3906 61.3516,388.7188 Q60.7188,389.0469 60.2266,389.7969 Q59.7344,390.5469 59.7344,391.5781 L59.7344,392.6719 Q59.7344,393.9063 60.625,394.7266 Q61.5156,395.5469 63.1094,395.5469 Q64.0469,395.5469 64.7031,395.2969 Q65.0938,395.1406 65.5156,394.7031 Q65.7813,394.4375 65.9297,394.3594 Q66.0781,394.2813 66.2813,394.2813 Q66.6094,394.2813 66.8672,394.5391 Q67.125,394.7969 67.125,395.1406 Q67.125,395.4844 66.7813,395.8906 Q66.2813,396.4688 65.4844,396.7969 Q64.4063,397.25 63.1094,397.25 Q61.5938,397.25 60.3906,396.625 Q59.4063,396.125 58.7188,395.0547 Q58.0313,393.9844 58.0313,392.7031 L58.0313,391.5469 Q58.0313,390.2188 58.6484,389.0703 Q59.2656,387.9219 60.3594,387.3047 Q61.4531,386.6875 62.6875,386.6875 Q63.4219,386.6875 64.0703,386.8516 Q64.7188,387.0156 65.2656,387.375 Z "/><text fill="#000000" font-family="sans-serif" font-size="12" lengthAdjust="spacingAndGlyphs" textLength="79" x="78.5" y="396.4102">StartController</text><line style="stroke: #A80036; stroke-width: 1.5;" x1="39.5" x2="168.5" y1="407.5" y2="407.5"/><line style="stroke: #A80036; stroke-width: 1.5;" x1="39.5" x2="168.5" y1="415.5" y2="415.5"/><ellipse cx="49.5" cy="427.918" fill="#84BE84" rx="3" ry="3" style="stroke: #038048; stroke-width: 1.0;"/><text fill="#000000" font-family="sans-serif" font-size="11" lengthAdjust="spacingAndGlyphs" textLength="105" x="58.5" y="430.9189">StartController(Game)</text><polygon fill="#4177AF" points="49.5,437.7539,45.5,443.7539,53.5,443.7539" style="stroke: #1963A0; stroke-width: 1.0;"/><text fill="#000000" font-family="sans-serif" font-size="11" lengthAdjust="spacingAndGlyphs" textLength="67" x="58.5" y="444.7549">getWidth(): int</text><!--class mastermind.controllers.ProposalController--><rect fill="#FEFECE" filter="url(#f13hxvkfdokxyl)" height="131.0156" id="mastermind.controllers.ProposalController" style="stroke: #A80036; stroke-width: 1.5;" width="166" x="205" y="348"/><ellipse cx="233.5" cy="364" fill="#ADD1B2" rx="11" ry="11" style="stroke: #A80036; stroke-width: 1.0;"/><path d="M236.2656,359.875 Q236.4219,359.6563 236.6094,359.5469 Q236.7969,359.4375 237.0156,359.4375 Q237.3906,359.4375 237.625,359.6953 Q237.8594,359.9531 237.8594,360.5625 L237.8594,362.0156 Q237.8594,362.625 237.625,362.8906 Q237.3906,363.1563 237.0156,363.1563 Q236.6719,363.1563 236.4688,362.9531 Q236.2656,362.7656 236.1563,362.25 Q236.1094,361.8906 235.9219,361.7031 Q235.5938,361.3281 234.9844,361.1094 Q234.375,360.8906 233.75,360.8906 Q232.9844,360.8906 232.3516,361.2188 Q231.7188,361.5469 231.2266,362.2969 Q230.7344,363.0469 230.7344,364.0781 L230.7344,365.1719 Q230.7344,366.4063 231.625,367.2266 Q232.5156,368.0469 234.1094,368.0469 Q235.0469,368.0469 235.7031,367.7969 Q236.0938,367.6406 236.5156,367.2031 Q236.7813,366.9375 236.9297,366.8594 Q237.0781,366.7813 237.2813,366.7813 Q237.6094,366.7813 237.8672,367.0391 Q238.125,367.2969 238.125,367.6406 Q238.125,367.9844 237.7813,368.3906 Q237.2813,368.9688 236.4844,369.2969 Q235.4063,369.75 234.1094,369.75 Q232.5938,369.75 231.3906,369.125 Q230.4063,368.625 229.7188,367.5547 Q229.0313,366.4844 229.0313,365.2031 L229.0313,364.0469 Q229.0313,362.7188 229.6484,361.5703 Q230.2656,360.4219 231.3594,359.8047 Q232.4531,359.1875 233.6875,359.1875 Q234.4219,359.1875 235.0703,359.3516 Q235.7188,359.5156 236.2656,359.875 Z "/><text fill="#000000" font-family="sans-serif" font-size="12" lengthAdjust="spacingAndGlyphs" textLength="104" x="250.5" y="368.9102">ProposalController</text><line style="stroke: #A80036; stroke-width: 1.5;" x1="206" x2="370" y1="380" y2="380"/><line style="stroke: #A80036; stroke-width: 1.5;" x1="206" x2="370" y1="388" y2="388"/><polygon fill="#4177AF" points="216,396.418,212,402.418,220,402.418" style="stroke: #1963A0; stroke-width: 1.0;"/><text fill="#000000" font-family="sans-serif" font-size="11" lengthAdjust="spacingAndGlyphs" textLength="124" x="225" y="403.4189">ProposalController(Game)</text><polygon fill="#4177AF" points="216,410.2539,212,416.2539,220,416.2539" style="stroke: #1963A0; stroke-width: 1.0;"/><text fill="#000000" font-family="sans-serif" font-size="11" lengthAdjust="spacingAndGlyphs" textLength="140" x="225" y="417.2549">proposeCombination(int[]): int</text><polygon fill="#4177AF" points="216,424.0898,212,430.0898,220,430.0898" style="stroke: #1963A0; stroke-width: 1.0;"/><text fill="#000000" font-family="sans-serif" font-size="11" lengthAdjust="spacingAndGlyphs" textLength="101" x="225" y="431.0908">getAllCodes(): int[][][]</text><polygon fill="#4177AF" points="216,437.9258,212,443.9258,220,443.9258" style="stroke: #1963A0; stroke-width: 1.0;"/><text fill="#000000" font-family="sans-serif" font-size="11" lengthAdjust="spacingAndGlyphs" textLength="94" x="225" y="444.9268">isWinner(): boolean</text><polygon fill="#4177AF" points="216,451.7617,212,457.7617,220,457.7617" style="stroke: #1963A0; stroke-width: 1.0;"/><text fill="#000000" font-family="sans-serif" font-size="11" lengthAdjust="spacingAndGlyphs" textLength="62" x="225" y="458.7627">getTurn(): int</text><polygon fill="#4177AF" points="216,465.5977,212,471.5977,220,471.5977" style="stroke: #1963A0; stroke-width: 1.0;"/><text fill="#000000" font-family="sans-serif" font-size="11" lengthAdjust="spacingAndGlyphs" textLength="94" x="225" y="472.5986">isLooser(): boolean</text><!--class mastermind.models.Game--><rect fill="#FEFECE" filter="url(#f13hxvkfdokxyl)" height="48" id="mastermind.models.Game" style="stroke: #A80036; stroke-width: 1.5;" width="66" x="610" y="389.5"/><ellipse cx="625" cy="405.5" fill="#ADD1B2" rx="11" ry="11" style="stroke: #A80036; stroke-width: 1.0;"/><path d="M627.7656,401.375 Q627.9219,401.1563 628.1094,401.0469 Q628.2969,400.9375 628.5156,400.9375 Q628.8906,400.9375 629.125,401.1953 Q629.3594,401.4531 629.3594,402.0625 L629.3594,403.5156 Q629.3594,404.125 629.125,404.3906 Q628.8906,404.6563 628.5156,404.6563 Q628.1719,404.6563 627.9688,404.4531 Q627.7656,404.2656 627.6563,403.75 Q627.6094,403.3906 627.4219,403.2031 Q627.0938,402.8281 626.4844,402.6094 Q625.875,402.3906 625.25,402.3906 Q624.4844,402.3906 623.8516,402.7188 Q623.2188,403.0469 622.7266,403.7969 Q622.2344,404.5469 622.2344,405.5781 L622.2344,406.6719 Q622.2344,407.9063 623.125,408.7266 Q624.0156,409.5469 625.6094,409.5469 Q626.5469,409.5469 627.2031,409.2969 Q627.5938,409.1406 628.0156,408.7031 Q628.2813,408.4375 628.4297,408.3594 Q628.5781,408.2813 628.7813,408.2813 Q629.1094,408.2813 629.3672,408.5391 Q629.625,408.7969 629.625,409.1406 Q629.625,409.4844 629.2813,409.8906 Q628.7813,410.4688 627.9844,410.7969 Q626.9063,411.25 625.6094,411.25 Q624.0938,411.25 622.8906,410.625 Q621.9063,410.125 621.2188,409.0547 Q620.5313,407.9844 620.5313,406.7031 L620.5313,405.5469 Q620.5313,404.2188 621.1484,403.0703 Q621.7656,401.9219 622.8594,401.3047 Q623.9531,400.6875 625.1875,400.6875 Q625.9219,400.6875 626.5703,400.8516 Q627.2188,401.0156 627.7656,401.375 Z "/><text fill="#000000" font-family="sans-serif" font-size="12" lengthAdjust="spacingAndGlyphs" textLength="34" x="639" y="410.4102">Game</text><line style="stroke: #A80036; stroke-width: 1.5;" x1="611" x2="675" y1="421.5" y2="421.5"/><line style="stroke: #A80036; stroke-width: 1.5;" x1="611" x2="675" y1="429.5" y2="429.5"/><!--link mastermind.controllers.Controller to mastermind.models.Game--><path d="M505.469,212.109 C538.364,260.039 594.862,342.361 624.154,385.041 " fill="none" id="mastermind.controllers.Controller-mastermind.models.Game" style="stroke: #A80036; stroke-width: 1.0;"/><polygon fill="#A80036" points="627.074,389.295,625.2785,379.6112,624.2444,385.1727,618.6829,384.1386,627.074,389.295" style="stroke: #A80036; stroke-width: 1.0;"/><!--link mastermind.controllers.Logic to mastermind.controllers.ResumeController--><path d="M387.394,298.542 C406.66,322.25 425.719,345.703 441.492,365.113 " fill="none" id="mastermind.controllers.Logic-mastermind.controllers.ResumeController" style="stroke: #A80036; stroke-width: 1.0;"/><polygon fill="#A80036" points="449.897,375.456,447.3252,365.9489,446.7437,371.5757,441.1168,370.9942,449.897,375.456" style="stroke: #A80036; stroke-width: 1.0;"/><line style="stroke: #A80036; stroke-width: 1.0;" x1="446.7437" x2="441.698" y1="371.5757" y2="365.3665"/><polygon fill="#A80036" points="378.978,288.185,379.6573,295.364,386.5454,297.4982,385.8661,290.3191,378.978,288.185" style="stroke: #A80036; stroke-width: 1.0;"/><!--link mastermind.controllers.Logic to mastermind.controllers.StartController--><path d="M191.808,298.542 C173.54,322.25 155.469,345.703 140.513,365.113 " fill="none" id="mastermind.controllers.Logic-mastermind.controllers.StartController" style="stroke: #A80036; stroke-width: 1.0;"/><polygon fill="#A80036" points="132.544,375.456,141.2057,370.7683,135.5958,371.4954,134.8687,365.8854,132.544,375.456" style="stroke: #A80036; stroke-width: 1.0;"/><line style="stroke: #A80036; stroke-width: 1.0;" x1="135.5958" x2="140.478" y1="371.4954" y2="365.158"/><polygon fill="#A80036" points="199.788,288.185,192.9573,290.4963,192.4637,297.6905,199.2944,295.3792,199.788,288.185" style="stroke: #A80036; stroke-width: 1.0;"/><!--link mastermind.controllers.Logic to mastermind.controllers.ProposalController--><path d="M287.533,301.599 C287.58,312.811 287.627,323.929 287.672,334.551 " fill="none" id="mastermind.controllers.Logic-mastermind.controllers.ProposalController" style="stroke: #A80036; stroke-width: 1.0;"/><polygon fill="#A80036" points="287.727,347.71,291.6894,338.6934,287.7061,342.71,283.6895,338.7268,287.727,347.71" style="stroke: #A80036; stroke-width: 1.0;"/><line style="stroke: #A80036; stroke-width: 1.0;" x1="287.7061" x2="287.672" y1="342.71" y2="334.71"/><polygon fill="#A80036" points="287.477,288.185,283.5021,294.2017,287.5271,300.1849,291.502,294.1682,287.477,288.185" style="stroke: #A80036; stroke-width: 1.0;"/><!--link mastermind.controllers.Logic to mastermind.models.Game--><path d="M401.934,283.556 C404.281,285.084 406.637,286.567 409,288 C473.972,327.395 504.939,306.253 570,345.5 C585.575,354.895 600.737,367.959 613.17,380.058 " fill="none" id="mastermind.controllers.Logic-mastermind.models.Game" style="stroke: #A80036; stroke-width: 1.0;"/><polygon fill="#A80036" points="622.513,389.466,619.0096,380.2613,618.9899,385.9181,613.333,385.8983,622.513,389.466" style="stroke: #A80036; stroke-width: 1.0;"/><line style="stroke: #A80036; stroke-width: 1.0;" x1="618.9899" x2="613.3525" y1="385.9181" y2="380.242"/><polygon fill="#A80036" points="391.024,276.096,393.7194,282.7844,400.93,282.8688,398.2346,276.1804,391.024,276.096" style="stroke: #A80036; stroke-width: 1.0;"/><!--link mastermind.controllers.Controller to mastermind.controllers.ProposalController--><path d="M449.044,229.354 C437.328,248.485 423.34,269.753 409,288 C392.89,308.499 373.853,329.36 355.705,347.997 " fill="none" id="mastermind.controllers.Controller-mastermind.controllers.ProposalController" style="stroke: #A80036; stroke-width: 1.0;"/><polygon fill="none" points="443.039,225.756,459.313,212.186,455.054,232.943,443.039,225.756" style="stroke: #A80036; stroke-width: 1.0;"/><!--link mastermind.controllers.Controller to mastermind.controllers.ResumeController--><path d="M480,232.168 C480,276.584 480,336.892 480,375.26 " fill="none" id="mastermind.controllers.Controller-mastermind.controllers.ResumeController" style="stroke: #A80036; stroke-width: 1.0;"/><polygon fill="none" points="473,232.109,480,212.109,487,232.109,473,232.109" style="stroke: #A80036; stroke-width: 1.0;"/><!--link mastermind.controllers.Controller to mastermind.controllers.StartController--><path d="M456.288,230.199 C444.797,251.075 429.073,273.314 409,288 C326.742,348.181 278.042,299.678 187,345.5 C171.451,353.326 156.13,364.438 142.966,375.368 " fill="none" id="mastermind.controllers.Controller-mastermind.controllers.StartController" style="stroke: #A80036; stroke-width: 1.0;"/><polygon fill="none" points="450.198,226.731,465.478,212.049,462.688,233.055,450.198,226.731" style="stroke: #A80036; stroke-width: 1.0;"/><!--
@startuml

class  mastermind.controllers.Controller{
# game: Game
~ Controller(Game)
}
mastermind.controllers.Controller -down-> mastermind.models.Game

class  mastermind.controllers.Logic{
+ {static} NO_ERROR: int
- game: Game
- startController: StartController
- proposalController: ProposalController
- resumeController: ResumeController
+ Logic()
+ resume(boolean): void
+ proposeCombination(int[]): int
+ getAllCodes(): int[][][]
+ isWinner(): boolean
+ getTurn(): int
+ getWidth(): int
+ isLooser(): boolean
}
mastermind.controllers.Logic *-down-> mastermind.controllers.ResumeController
mastermind.controllers.Logic *-down-> mastermind.controllers.StartController
mastermind.controllers.Logic *-down-> mastermind.controllers.ProposalController
mastermind.controllers.Logic *-down-> mastermind.models.Game

class  mastermind.controllers.ProposalController{
~ ProposalController(Game)
~ proposeCombination(int[]): int
~ getAllCodes(): int[][][]
~ isWinner(): boolean
~ getTurn(): int
~ isLooser(): boolean
}
mastermind.controllers.Controller <|-down- mastermind.controllers.ProposalController

class  mastermind.controllers.ResumeController{
~ ResumeController(Game)
~ resume(boolean): void
}
mastermind.controllers.Controller <|-down- mastermind.controllers.ResumeController

class  mastermind.controllers.StartController{
+ StartController(Game)
~ getWidth(): int
}
mastermind.controllers.Controller <|-down- mastermind.controllers.StartController

@enduml

PlantUML version 1.2019.05(Sat Apr 20 18:45:36 CEST 2019)
(GPL source distribution)
Java Runtime: OpenJDK Runtime Environment
JVM: OpenJDK 64-Bit Server VM
Java Version: 1.8.0_222-b10
Operating System: Windows 10
OS Version: 10.0
Default Encoding: windows-1252
Language: es
Country: ES
--></g></svg>