<?xml version="1.0" encoding="UTF-8" standalone="no"?><svg xmlns="http://www.w3.org/2000/svg" xmlns:xlink="http://www.w3.org/1999/xlink" contentScriptType="application/ecmascript" contentStyleType="text/css" height="755px" preserveAspectRatio="none" style="width:922px;height:755px;" version="1.1" viewBox="0 0 922 755" width="922px" zoomAndPan="magnify"><defs><filter height="300%" id="f1ktq9f52hjlyn" width="300%" x="-1" y="-1"><feGaussianBlur result="blurOut" stdDeviation="2.0"/><feColorMatrix in="blurOut" result="blurOut2" type="matrix" values="0 0 0 0 0 0 0 0 0 0 0 0 0 0 0 0 0 0 .4 0"/><feOffset dx="4.0" dy="4.0" in="blurOut2" result="blurOut3"/><feBlend in="SourceGraphic" in2="blurOut3" mode="normal"/></filter></defs><g><!--cluster mastermind.distributed--><polygon fill="#FFFFFF" filter="url(#f1ktq9f52hjlyn)" points="225,148,394,148,401,171.6094,900,171.6094,900,619,225,619,225,148" style="stroke: #000000; stroke-width: 1.5;"/><line style="stroke: #000000; stroke-width: 1.5;" x1="225" x2="401" y1="171.6094" y2="171.6094"/><text fill="#000000" font-family="sans-serif" font-size="14" font-weight="bold" lengthAdjust="spacingAndGlyphs" textLength="163" x="229" y="164.5332">mastermind.distributed</text><!--cluster mastermind.controllers--><polygon fill="#FFFFFF" filter="url(#f1ktq9f52hjlyn)" points="22,265.5,191,265.5,198,289.1094,201,289.1094,201,365.5,22,365.5,22,265.5" style="stroke: #000000; stroke-width: 1.5;"/><line style="stroke: #000000; stroke-width: 1.5;" x1="22" x2="198" y1="289.1094" y2="289.1094"/><text fill="#000000" font-family="sans-serif" font-size="14" font-weight="bold" lengthAdjust="spacingAndGlyphs" textLength="163" x="26" y="282.0332">mastermind.controllers</text><!--cluster mastermind.distributed.dispatchers--><polygon fill="#FFFFFF" filter="url(#f1ktq9f52hjlyn)" points="320,643,576,643,583,666.6094,586,666.6094,586,743,320,743,320,643" style="stroke: #000000; stroke-width: 1.5;"/><line style="stroke: #000000; stroke-width: 1.5;" x1="320" x2="583" y1="666.6094" y2="666.6094"/><text fill="#000000" font-family="sans-serif" font-size="14" font-weight="bold" lengthAdjust="spacingAndGlyphs" textLength="250" x="324" y="659.5332">mastermind.distributed.dispatchers</text><!--cluster mastermind--><polygon fill="#FFFFFF" filter="url(#f1ktq9f52hjlyn)" points="509,24,597,24,604,47.6094,639,47.6094,639,124,509,124,509,24" style="stroke: #000000; stroke-width: 1.5;"/><line style="stroke: #000000; stroke-width: 1.5;" x1="509" x2="604" y1="47.6094" y2="47.6094"/><text fill="#000000" font-family="sans-serif" font-size="14" font-weight="bold" lengthAdjust="spacingAndGlyphs" textLength="82" x="513" y="40.5332">mastermind</text><!--class mastermind.distributed.FrameType--><rect fill="#FEFECE" filter="url(#f1ktq9f52hjlyn)" height="283.2109" id="mastermind.distributed.FrameType" style="stroke: #A80036; stroke-width: 1.5;" width="204" x="680" y="184"/><ellipse cx="746.75" cy="200" fill="#ADD1B2" rx="11" ry="11" style="stroke: #A80036; stroke-width: 1.0;"/><path d="M749.5156,195.875 Q749.6719,195.6563 749.8594,195.5469 Q750.0469,195.4375 750.2656,195.4375 Q750.6406,195.4375 750.875,195.6953 Q751.1094,195.9531 751.1094,196.5625 L751.1094,198.0156 Q751.1094,198.625 750.875,198.8906 Q750.6406,199.1563 750.2656,199.1563 Q749.9219,199.1563 749.7188,198.9531 Q749.5156,198.7656 749.4063,198.25 Q749.3594,197.8906 749.1719,197.7031 Q748.8438,197.3281 748.2344,197.1094 Q747.625,196.8906 747,196.8906 Q746.2344,196.8906 745.6016,197.2188 Q744.9688,197.5469 744.4766,198.2969 Q743.9844,199.0469 743.9844,200.0781 L743.9844,201.1719 Q743.9844,202.4063 744.875,203.2266 Q745.7656,204.0469 747.3594,204.0469 Q748.2969,204.0469 748.9531,203.7969 Q749.3438,203.6406 749.7656,203.2031 Q750.0313,202.9375 750.1797,202.8594 Q750.3281,202.7813 750.5313,202.7813 Q750.8594,202.7813 751.1172,203.0391 Q751.375,203.2969 751.375,203.6406 Q751.375,203.9844 751.0313,204.3906 Q750.5313,204.9688 749.7344,205.2969 Q748.6563,205.75 747.3594,205.75 Q745.8438,205.75 744.6406,205.125 Q743.6563,204.625 742.9688,203.5547 Q742.2813,202.4844 742.2813,201.2031 L742.2813,200.0469 Q742.2813,198.7188 742.8984,197.5703 Q743.5156,196.4219 744.6094,195.8047 Q745.7031,195.1875 746.9375,195.1875 Q747.6719,195.1875 748.3203,195.3516 Q748.9688,195.5156 749.5156,195.875 Z "/><text fill="#000000" font-family="sans-serif" font-size="12" lengthAdjust="spacingAndGlyphs" textLength="62" x="767.25" y="204.9102">FrameType</text><line style="stroke: #A80036; stroke-width: 1.5;" x1="681" x2="883" y1="216" y2="216"/><ellipse cx="691" cy="228.418" fill="none" rx="3" ry="3" style="stroke: #038048; stroke-width: 1.0;"/><text fill="#000000" font-family="sans-serif" font-size="11" lengthAdjust="spacingAndGlyphs" text-decoration="underline" textLength="94" x="700" y="231.4189">START: FrameType</text><ellipse cx="691" cy="242.2539" fill="none" rx="3" ry="3" style="stroke: #038048; stroke-width: 1.0;"/><text fill="#000000" font-family="sans-serif" font-size="11" lengthAdjust="spacingAndGlyphs" text-decoration="underline" textLength="93" x="700" y="245.2549">STATE: FrameType</text><ellipse cx="691" cy="256.0898" fill="none" rx="3" ry="3" style="stroke: #038048; stroke-width: 1.0;"/><text fill="#000000" font-family="sans-serif" font-size="11" lengthAdjust="spacingAndGlyphs" text-decoration="underline" textLength="89" x="700" y="259.0908">UNDO: FrameType</text><ellipse cx="691" cy="269.9258" fill="none" rx="3" ry="3" style="stroke: #038048; stroke-width: 1.0;"/><text fill="#000000" font-family="sans-serif" font-size="11" lengthAdjust="spacingAndGlyphs" text-decoration="underline" textLength="88" x="700" y="272.9268">REDO: FrameType</text><ellipse cx="691" cy="283.7617" fill="none" rx="3" ry="3" style="stroke: #038048; stroke-width: 1.0;"/><text fill="#000000" font-family="sans-serif" font-size="11" lengthAdjust="spacingAndGlyphs" text-decoration="underline" textLength="116" x="700" y="286.7627">UNDOABLE: FrameType</text><ellipse cx="691" cy="297.5977" fill="none" rx="3" ry="3" style="stroke: #038048; stroke-width: 1.0;"/><text fill="#000000" font-family="sans-serif" font-size="11" lengthAdjust="spacingAndGlyphs" text-decoration="underline" textLength="115" x="700" y="300.5986">REDOABLE: FrameType</text><ellipse cx="691" cy="311.4336" fill="none" rx="3" ry="3" style="stroke: #038048; stroke-width: 1.0;"/><text fill="#000000" font-family="sans-serif" font-size="11" lengthAdjust="spacingAndGlyphs" text-decoration="underline" textLength="99" x="700" y="314.4346">WINNER: FrameType</text><ellipse cx="691" cy="325.2695" fill="none" rx="3" ry="3" style="stroke: #038048; stroke-width: 1.0;"/><text fill="#000000" font-family="sans-serif" font-size="11" lengthAdjust="spacingAndGlyphs" text-decoration="underline" textLength="102" x="700" y="328.2705">LOOSER: FrameType</text><ellipse cx="691" cy="339.1055" fill="none" rx="3" ry="3" style="stroke: #038048; stroke-width: 1.0;"/><text fill="#000000" font-family="sans-serif" font-size="11" lengthAdjust="spacingAndGlyphs" text-decoration="underline" textLength="87" x="700" y="342.1064">TURN: FrameType</text><ellipse cx="691" cy="352.9414" fill="none" rx="3" ry="3" style="stroke: #038048; stroke-width: 1.0;"/><text fill="#000000" font-family="sans-serif" font-size="11" lengthAdjust="spacingAndGlyphs" text-decoration="underline" textLength="115" x="700" y="355.9424">ALLCODES: FrameType</text><ellipse cx="691" cy="366.7773" fill="none" rx="3" ry="3" style="stroke: #038048; stroke-width: 1.0;"/><text fill="#000000" font-family="sans-serif" font-size="11" lengthAdjust="spacingAndGlyphs" text-decoration="underline" textLength="178" x="700" y="369.7783">PROPOSECOMBINATION: FrameType</text><ellipse cx="691" cy="380.6133" fill="none" rx="3" ry="3" style="stroke: #038048; stroke-width: 1.0;"/><text fill="#000000" font-family="sans-serif" font-size="11" lengthAdjust="spacingAndGlyphs" text-decoration="underline" textLength="92" x="700" y="383.6143">WIDTH: FrameType</text><ellipse cx="691" cy="394.4492" fill="none" rx="3" ry="3" style="stroke: #038048; stroke-width: 1.0;"/><text fill="#000000" font-family="sans-serif" font-size="11" lengthAdjust="spacingAndGlyphs" text-decoration="underline" textLength="101" x="700" y="397.4502">RESUME: FrameType</text><ellipse cx="691" cy="408.2852" fill="none" rx="3" ry="3" style="stroke: #038048; stroke-width: 1.0;"/><text fill="#000000" font-family="sans-serif" font-size="11" lengthAdjust="spacingAndGlyphs" text-decoration="underline" textLength="94" x="700" y="411.2861">CLOSE: FrameType</text><line style="stroke: #A80036; stroke-width: 1.5;" x1="681" x2="883" y1="417.7031" y2="417.7031"/><rect fill="#F24D5C" height="6" style="stroke: #C82930; stroke-width: 1.0;" width="6" x="688" y="427.1211"/><text fill="#000000" font-family="sans-serif" font-size="11" lengthAdjust="spacingAndGlyphs" textLength="62" x="700" y="433.1221">FrameType()</text><ellipse cx="691" cy="443.957" fill="#84BE84" rx="3" ry="3" style="stroke: #038048; stroke-width: 1.0;"/><text fill="#000000" font-family="sans-serif" font-size="11" lengthAdjust="spacingAndGlyphs" text-decoration="underline" textLength="134" x="700" y="446.958">valueOf(String): FrameType</text><ellipse cx="691" cy="457.793" fill="#84BE84" rx="3" ry="3" style="stroke: #038048; stroke-width: 1.0;"/><text fill="#000000" font-family="sans-serif" font-size="11" lengthAdjust="spacingAndGlyphs" text-decoration="underline" textLength="128" x="700" y="460.7939">parser(String): FrameType</text><!--class mastermind.distributed.LogicServer--><rect fill="#FEFECE" filter="url(#f1ktq9f52hjlyn)" height="75.6719" id="mastermind.distributed.LogicServer" style="stroke: #A80036; stroke-width: 1.5;" width="247" x="241.5" y="527"/><ellipse cx="328.25" cy="543" fill="#ADD1B2" rx="11" ry="11" style="stroke: #A80036; stroke-width: 1.0;"/><path d="M331.0156,538.875 Q331.1719,538.6563 331.3594,538.5469 Q331.5469,538.4375 331.7656,538.4375 Q332.1406,538.4375 332.375,538.6953 Q332.6094,538.9531 332.6094,539.5625 L332.6094,541.0156 Q332.6094,541.625 332.375,541.8906 Q332.1406,542.1563 331.7656,542.1563 Q331.4219,542.1563 331.2188,541.9531 Q331.0156,541.7656 330.9063,541.25 Q330.8594,540.8906 330.6719,540.7031 Q330.3438,540.3281 329.7344,540.1094 Q329.125,539.8906 328.5,539.8906 Q327.7344,539.8906 327.1016,540.2188 Q326.4688,540.5469 325.9766,541.2969 Q325.4844,542.0469 325.4844,543.0781 L325.4844,544.1719 Q325.4844,545.4063 326.375,546.2266 Q327.2656,547.0469 328.8594,547.0469 Q329.7969,547.0469 330.4531,546.7969 Q330.8438,546.6406 331.2656,546.2031 Q331.5313,545.9375 331.6797,545.8594 Q331.8281,545.7813 332.0313,545.7813 Q332.3594,545.7813 332.6172,546.0391 Q332.875,546.2969 332.875,546.6406 Q332.875,546.9844 332.5313,547.3906 Q332.0313,547.9688 331.2344,548.2969 Q330.1563,548.75 328.8594,548.75 Q327.3438,548.75 326.1406,548.125 Q325.1563,547.625 324.4688,546.5547 Q323.7813,545.4844 323.7813,544.2031 L323.7813,543.0469 Q323.7813,541.7188 324.3984,540.5703 Q325.0156,539.4219 326.1094,538.8047 Q327.2031,538.1875 328.4375,538.1875 Q329.1719,538.1875 329.8203,538.3516 Q330.4688,538.5156 331.0156,538.875 Z "/><text fill="#000000" font-family="sans-serif" font-size="12" lengthAdjust="spacingAndGlyphs" textLength="65" x="348.75" y="547.9102">LogicServer</text><line style="stroke: #A80036; stroke-width: 1.5;" x1="242.5" x2="487.5" y1="559" y2="559"/><line style="stroke: #A80036; stroke-width: 1.5;" x1="242.5" x2="487.5" y1="567" y2="567"/><ellipse cx="252.5" cy="579.418" fill="#84BE84" rx="3" ry="3" style="stroke: #038048; stroke-width: 1.0;"/><text fill="#000000" font-family="sans-serif" font-size="11" lengthAdjust="spacingAndGlyphs" textLength="106" x="261.5" y="582.4189">LogicServer(Boolean)</text><ellipse cx="252.5" cy="593.2539" fill="#84BE84" rx="3" ry="3" style="stroke: #038048; stroke-width: 1.0;"/><text fill="#000000" font-family="sans-serif" font-size="11" lengthAdjust="spacingAndGlyphs" textLength="221" x="261.5" y="596.2549">createDispatchers(DispatcherPrototype): void</text><!--class mastermind.distributed.MastermindClient--><rect fill="#FEFECE" filter="url(#f1ktq9f52hjlyn)" height="89.5078" id="mastermind.distributed.MastermindClient" style="stroke: #A80036; stroke-width: 1.5;" width="141" x="503.5" y="280.5"/><ellipse cx="523.9" cy="296.5" fill="#ADD1B2" rx="11" ry="11" style="stroke: #A80036; stroke-width: 1.0;"/><path d="M526.6656,292.375 Q526.8219,292.1563 527.0094,292.0469 Q527.1969,291.9375 527.4156,291.9375 Q527.7906,291.9375 528.025,292.1953 Q528.2594,292.4531 528.2594,293.0625 L528.2594,294.5156 Q528.2594,295.125 528.025,295.3906 Q527.7906,295.6563 527.4156,295.6563 Q527.0719,295.6563 526.8688,295.4531 Q526.6656,295.2656 526.5563,294.75 Q526.5094,294.3906 526.3219,294.2031 Q525.9938,293.8281 525.3844,293.6094 Q524.775,293.3906 524.15,293.3906 Q523.3844,293.3906 522.7516,293.7188 Q522.1188,294.0469 521.6266,294.7969 Q521.1344,295.5469 521.1344,296.5781 L521.1344,297.6719 Q521.1344,298.9063 522.025,299.7266 Q522.9156,300.5469 524.5094,300.5469 Q525.4469,300.5469 526.1031,300.2969 Q526.4938,300.1406 526.9156,299.7031 Q527.1813,299.4375 527.3297,299.3594 Q527.4781,299.2813 527.6813,299.2813 Q528.0094,299.2813 528.2672,299.5391 Q528.525,299.7969 528.525,300.1406 Q528.525,300.4844 528.1813,300.8906 Q527.6813,301.4688 526.8844,301.7969 Q525.8063,302.25 524.5094,302.25 Q522.9938,302.25 521.7906,301.625 Q520.8063,301.125 520.1188,300.0547 Q519.4313,298.9844 519.4313,297.7031 L519.4313,296.5469 Q519.4313,295.2188 520.0484,294.0703 Q520.6656,292.9219 521.7594,292.3047 Q522.8531,291.6875 524.0875,291.6875 Q524.8219,291.6875 525.4703,291.8516 Q526.1188,292.0156 526.6656,292.375 Z "/><text fill="#000000" font-family="sans-serif" font-size="12" lengthAdjust="spacingAndGlyphs" textLength="97" x="539.1" y="301.4102">MastermindClient</text><line style="stroke: #A80036; stroke-width: 1.5;" x1="504.5" x2="643.5" y1="312.5" y2="312.5"/><line style="stroke: #A80036; stroke-width: 1.5;" x1="504.5" x2="643.5" y1="320.5" y2="320.5"/><ellipse cx="514.5" cy="332.918" fill="#84BE84" rx="3" ry="3" style="stroke: #038048; stroke-width: 1.0;"/><text fill="#000000" font-family="sans-serif" font-size="11" lengthAdjust="spacingAndGlyphs" textLength="89" x="523.5" y="335.9189">MastermindClient()</text><ellipse cx="514.5" cy="346.7539" fill="#84BE84" rx="3" ry="3" style="stroke: #038048; stroke-width: 1.0;"/><text fill="#000000" font-family="sans-serif" font-size="11" lengthAdjust="spacingAndGlyphs" text-decoration="underline" textLength="90" x="523.5" y="349.7549">main(String[]): void</text><polygon fill="#FFFF44" points="514.5,355.5898,518.5,359.5898,514.5,363.5898,510.5,359.5898" style="stroke: #B38D22; stroke-width: 1.0;"/><text fill="#000000" font-family="sans-serif" font-size="11" lengthAdjust="spacingAndGlyphs" textLength="115" x="523.5" y="363.5908">isStandalone(): Boolean</text><!--class mastermind.distributed.MastermindServer--><rect fill="#FEFECE" filter="url(#f1ktq9f52hjlyn)" height="117.1797" id="mastermind.distributed.MastermindServer" style="stroke: #A80036; stroke-width: 1.5;" width="227" x="241.5" y="267"/><ellipse cx="300.75" cy="283" fill="#ADD1B2" rx="11" ry="11" style="stroke: #A80036; stroke-width: 1.0;"/><path d="M303.5156,278.875 Q303.6719,278.6563 303.8594,278.5469 Q304.0469,278.4375 304.2656,278.4375 Q304.6406,278.4375 304.875,278.6953 Q305.1094,278.9531 305.1094,279.5625 L305.1094,281.0156 Q305.1094,281.625 304.875,281.8906 Q304.6406,282.1563 304.2656,282.1563 Q303.9219,282.1563 303.7188,281.9531 Q303.5156,281.7656 303.4063,281.25 Q303.3594,280.8906 303.1719,280.7031 Q302.8438,280.3281 302.2344,280.1094 Q301.625,279.8906 301,279.8906 Q300.2344,279.8906 299.6016,280.2188 Q298.9688,280.5469 298.4766,281.2969 Q297.9844,282.0469 297.9844,283.0781 L297.9844,284.1719 Q297.9844,285.4063 298.875,286.2266 Q299.7656,287.0469 301.3594,287.0469 Q302.2969,287.0469 302.9531,286.7969 Q303.3438,286.6406 303.7656,286.2031 Q304.0313,285.9375 304.1797,285.8594 Q304.3281,285.7813 304.5313,285.7813 Q304.8594,285.7813 305.1172,286.0391 Q305.375,286.2969 305.375,286.6406 Q305.375,286.9844 305.0313,287.3906 Q304.5313,287.9688 303.7344,288.2969 Q302.6563,288.75 301.3594,288.75 Q299.8438,288.75 298.6406,288.125 Q297.6563,287.625 296.9688,286.5547 Q296.2813,285.4844 296.2813,284.2031 L296.2813,283.0469 Q296.2813,281.7188 296.8984,280.5703 Q297.5156,279.4219 298.6094,278.8047 Q299.7031,278.1875 300.9375,278.1875 Q301.6719,278.1875 302.3203,278.3516 Q302.9688,278.5156 303.5156,278.875 Z "/><text fill="#000000" font-family="sans-serif" font-size="12" lengthAdjust="spacingAndGlyphs" textLength="100" x="321.25" y="287.9102">MastermindServer</text><line style="stroke: #A80036; stroke-width: 1.5;" x1="242.5" x2="467.5" y1="299" y2="299"/><rect fill="none" height="6" style="stroke: #C82930; stroke-width: 1.0;" width="6" x="249.5" y="308.418"/><text fill="#000000" font-family="sans-serif" font-size="11" lengthAdjust="spacingAndGlyphs" textLength="201" x="261.5" y="314.4189">dispatcherPrototype: DispatcherPrototype</text><rect fill="none" height="6" style="stroke: #C82930; stroke-width: 1.0;" width="6" x="249.5" y="322.2539"/><text fill="#000000" font-family="sans-serif" font-size="11" lengthAdjust="spacingAndGlyphs" textLength="87" x="261.5" y="328.2549">logic: LogicServer</text><line style="stroke: #A80036; stroke-width: 1.5;" x1="242.5" x2="467.5" y1="334.6719" y2="334.6719"/><rect fill="#F24D5C" height="6" style="stroke: #C82930; stroke-width: 1.0;" width="6" x="249.5" y="344.0898"/><text fill="#000000" font-family="sans-serif" font-size="11" lengthAdjust="spacingAndGlyphs" textLength="96" x="261.5" y="350.0908">MastermindServer()</text><ellipse cx="252.5" cy="360.9258" fill="#84BE84" rx="3" ry="3" style="stroke: #038048; stroke-width: 1.0;"/><text fill="#000000" font-family="sans-serif" font-size="11" lengthAdjust="spacingAndGlyphs" text-decoration="underline" textLength="90" x="261.5" y="363.9268">main(String[]): void</text><rect fill="#F24D5C" height="6" style="stroke: #C82930; stroke-width: 1.0;" width="6" x="249.5" y="371.7617"/><text fill="#000000" font-family="sans-serif" font-size="11" lengthAdjust="spacingAndGlyphs" textLength="62" x="261.5" y="377.7627">serve(): void</text><!--class mastermind.controllers.Logic--><rect fill="#FEFECE" filter="url(#f1ktq9f52hjlyn)" height="48" id="mastermind.controllers.Logic" style="stroke: #A80036; stroke-width: 1.5;" width="62" x="123" y="301.5"/><ellipse cx="138" cy="317.5" fill="#ADD1B2" rx="11" ry="11" style="stroke: #A80036; stroke-width: 1.0;"/><path d="M140.7656,313.375 Q140.9219,313.1563 141.1094,313.0469 Q141.2969,312.9375 141.5156,312.9375 Q141.8906,312.9375 142.125,313.1953 Q142.3594,313.4531 142.3594,314.0625 L142.3594,315.5156 Q142.3594,316.125 142.125,316.3906 Q141.8906,316.6563 141.5156,316.6563 Q141.1719,316.6563 140.9688,316.4531 Q140.7656,316.2656 140.6563,315.75 Q140.6094,315.3906 140.4219,315.2031 Q140.0938,314.8281 139.4844,314.6094 Q138.875,314.3906 138.25,314.3906 Q137.4844,314.3906 136.8516,314.7188 Q136.2188,315.0469 135.7266,315.7969 Q135.2344,316.5469 135.2344,317.5781 L135.2344,318.6719 Q135.2344,319.9063 136.125,320.7266 Q137.0156,321.5469 138.6094,321.5469 Q139.5469,321.5469 140.2031,321.2969 Q140.5938,321.1406 141.0156,320.7031 Q141.2813,320.4375 141.4297,320.3594 Q141.5781,320.2813 141.7813,320.2813 Q142.1094,320.2813 142.3672,320.5391 Q142.625,320.7969 142.625,321.1406 Q142.625,321.4844 142.2813,321.8906 Q141.7813,322.4688 140.9844,322.7969 Q139.9063,323.25 138.6094,323.25 Q137.0938,323.25 135.8906,322.625 Q134.9063,322.125 134.2188,321.0547 Q133.5313,319.9844 133.5313,318.7031 L133.5313,317.5469 Q133.5313,316.2188 134.1484,315.0703 Q134.7656,313.9219 135.8594,313.3047 Q136.9531,312.6875 138.1875,312.6875 Q138.9219,312.6875 139.5703,312.8516 Q140.2188,313.0156 140.7656,313.375 Z "/><text fill="#000000" font-family="sans-serif" font-size="12" lengthAdjust="spacingAndGlyphs" textLength="30" x="152" y="322.4102">Logic</text><line style="stroke: #A80036; stroke-width: 1.5;" x1="124" x2="184" y1="333.5" y2="333.5"/><line style="stroke: #A80036; stroke-width: 1.5;" x1="124" x2="184" y1="341.5" y2="341.5"/><!--class mastermind.distributed.dispatchers.DispatcherPrototype--><rect fill="#FEFECE" filter="url(#f1ktq9f52hjlyn)" height="48" id="mastermind.distributed.dispatchers.DispatcherPrototype" style="stroke: #A80036; stroke-width: 1.5;" width="143" x="381.5" y="679"/><ellipse cx="396.5" cy="695" fill="#ADD1B2" rx="11" ry="11" style="stroke: #A80036; stroke-width: 1.0;"/><path d="M399.2656,690.875 Q399.4219,690.6563 399.6094,690.5469 Q399.7969,690.4375 400.0156,690.4375 Q400.3906,690.4375 400.625,690.6953 Q400.8594,690.9531 400.8594,691.5625 L400.8594,693.0156 Q400.8594,693.625 400.625,693.8906 Q400.3906,694.1563 400.0156,694.1563 Q399.6719,694.1563 399.4688,693.9531 Q399.2656,693.7656 399.1563,693.25 Q399.1094,692.8906 398.9219,692.7031 Q398.5938,692.3281 397.9844,692.1094 Q397.375,691.8906 396.75,691.8906 Q395.9844,691.8906 395.3516,692.2188 Q394.7188,692.5469 394.2266,693.2969 Q393.7344,694.0469 393.7344,695.0781 L393.7344,696.1719 Q393.7344,697.4063 394.625,698.2266 Q395.5156,699.0469 397.1094,699.0469 Q398.0469,699.0469 398.7031,698.7969 Q399.0938,698.6406 399.5156,698.2031 Q399.7813,697.9375 399.9297,697.8594 Q400.0781,697.7813 400.2813,697.7813 Q400.6094,697.7813 400.8672,698.0391 Q401.125,698.2969 401.125,698.6406 Q401.125,698.9844 400.7813,699.3906 Q400.2813,699.9688 399.4844,700.2969 Q398.4063,700.75 397.1094,700.75 Q395.5938,700.75 394.3906,700.125 Q393.4063,699.625 392.7188,698.5547 Q392.0313,697.4844 392.0313,696.2031 L392.0313,695.0469 Q392.0313,693.7188 392.6484,692.5703 Q393.2656,691.4219 394.3594,690.8047 Q395.4531,690.1875 396.6875,690.1875 Q397.4219,690.1875 398.0703,690.3516 Q398.7188,690.5156 399.2656,690.875 Z "/><text fill="#000000" font-family="sans-serif" font-size="12" lengthAdjust="spacingAndGlyphs" textLength="111" x="410.5" y="699.9102">DispatcherPrototype</text><line style="stroke: #A80036; stroke-width: 1.5;" x1="382.5" x2="523.5" y1="711" y2="711"/><line style="stroke: #A80036; stroke-width: 1.5;" x1="382.5" x2="523.5" y1="719" y2="719"/><!--class mastermind.Mastermind--><rect fill="#FEFECE" filter="url(#f1ktq9f52hjlyn)" height="48" id="mastermind.Mastermind" style="stroke: #A80036; stroke-width: 1.5;" width="97" x="525.5" y="60"/><ellipse cx="540.5" cy="76" fill="#ADD1B2" rx="11" ry="11" style="stroke: #A80036; stroke-width: 1.0;"/><path d="M543.2656,71.875 Q543.4219,71.6563 543.6094,71.5469 Q543.7969,71.4375 544.0156,71.4375 Q544.3906,71.4375 544.625,71.6953 Q544.8594,71.9531 544.8594,72.5625 L544.8594,74.0156 Q544.8594,74.625 544.625,74.8906 Q544.3906,75.1563 544.0156,75.1563 Q543.6719,75.1563 543.4688,74.9531 Q543.2656,74.7656 543.1563,74.25 Q543.1094,73.8906 542.9219,73.7031 Q542.5938,73.3281 541.9844,73.1094 Q541.375,72.8906 540.75,72.8906 Q539.9844,72.8906 539.3516,73.2188 Q538.7188,73.5469 538.2266,74.2969 Q537.7344,75.0469 537.7344,76.0781 L537.7344,77.1719 Q537.7344,78.4063 538.625,79.2266 Q539.5156,80.0469 541.1094,80.0469 Q542.0469,80.0469 542.7031,79.7969 Q543.0938,79.6406 543.5156,79.2031 Q543.7813,78.9375 543.9297,78.8594 Q544.0781,78.7813 544.2813,78.7813 Q544.6094,78.7813 544.8672,79.0391 Q545.125,79.2969 545.125,79.6406 Q545.125,79.9844 544.7813,80.3906 Q544.2813,80.9688 543.4844,81.2969 Q542.4063,81.75 541.1094,81.75 Q539.5938,81.75 538.3906,81.125 Q537.4063,80.625 536.7188,79.5547 Q536.0313,78.4844 536.0313,77.2031 L536.0313,76.0469 Q536.0313,74.7188 536.6484,73.5703 Q537.2656,72.4219 538.3594,71.8047 Q539.4531,71.1875 540.6875,71.1875 Q541.4219,71.1875 542.0703,71.3516 Q542.7188,71.5156 543.2656,71.875 Z "/><text fill="#000000" font-family="sans-serif" font-size="12" lengthAdjust="spacingAndGlyphs" textLength="65" x="554.5" y="80.9102">Mastermind</text><line style="stroke: #A80036; stroke-width: 1.5;" x1="526.5" x2="621.5" y1="92" y2="92"/><line style="stroke: #A80036; stroke-width: 1.5;" x1="526.5" x2="621.5" y1="100" y2="100"/><!--link mastermind.controllers.Logic to mastermind.distributed.LogicServer--><path d="M168.799,368.51 C180.735,398.285 199.701,437.944 225,467 C245.291,490.304 272.345,510.746 297.259,526.779 " fill="none" id="mastermind.controllers.Logic-mastermind.distributed.LogicServer" style="stroke: #A80036; stroke-width: 1.0;"/><polygon fill="none" points="162.223,370.911,161.667,349.728,175.311,365.941,162.223,370.911" style="stroke: #A80036; stroke-width: 1.0;"/><!--link mastermind.distributed.LogicServer to mastermind.distributed.dispatchers.DispatcherPrototype--><path d="M389.046,603.163 C403.679,625.777 422.048,654.165 435.341,674.7082 " fill="none" id="mastermind.distributed.LogicServer-mastermind.distributed.dispatchers.DispatcherPrototype" style="stroke: #A80036; stroke-width: 1.0; stroke-dasharray: 7.0,7.0;"/><polygon fill="#A80036" points="438.097,678.9679,436.5667,669.2387,435.3811,674.7698,429.8499,673.5842,438.097,678.9679" style="stroke: #A80036; stroke-width: 1.0;"/><!--link mastermind.Mastermind to mastermind.distributed.MastermindClient--><path d="M574,128.633 C574,171.684 574,237.153 574,280.374 " fill="none" id="mastermind.Mastermind-mastermind.distributed.MastermindClient" style="stroke: #A80036; stroke-width: 1.0;"/><polygon fill="none" points="567,128.4,574,108.4,581,128.4,567,128.4" style="stroke: #A80036; stroke-width: 1.0;"/><!--link mastermind.distributed.MastermindServer to mastermind.distributed.dispatchers.DispatcherPrototype--><path d="M423.369,393.968 C455.086,430.097 489.387,477.326 506,527 C520.097,569.15 519.456,584.642 506,627 C501.306,641.775 492.532,656.146 483.454,668.289 " fill="none" id="mastermind.distributed.MastermindServer-mastermind.distributed.dispatchers.DispatcherPrototype" style="stroke: #A80036; stroke-width: 1.0;"/><polygon fill="#A80036" points="475.14,678.7614,483.8688,674.1997,478.2489,674.8454,477.6032,669.2255,475.14,678.7614" style="stroke: #A80036; stroke-width: 1.0;"/><line style="stroke: #A80036; stroke-width: 1.0;" x1="478.2489" x2="483.2235" y1="674.8454" y2="668.5798"/><polygon fill="#A80036" points="414.508,384.079,415.5333,391.2168,422.5164,393.0158,421.4911,385.8779,414.508,384.079" style="stroke: #A80036; stroke-width: 1.0;"/><!--link mastermind.distributed.MastermindServer to mastermind.distributed.LogicServer--><path d="M357.986,397.424 C359.559,434.768 361.45,479.69 362.872,513.468 " fill="none" id="mastermind.distributed.MastermindServer-mastermind.distributed.LogicServer" style="stroke: #A80036; stroke-width: 1.0;"/><polygon fill="#A80036" points="363.431,526.746,367.0487,517.5856,363.2206,521.7504,359.0558,517.9223,363.431,526.746" style="stroke: #A80036; stroke-width: 1.0;"/><line style="stroke: #A80036; stroke-width: 1.0;" x1="363.2206" x2="362.884" y1="521.7504" y2="513.7575"/><polygon fill="#A80036" points="357.433,384.295,353.6891,390.458,357.9381,396.2844,361.682,390.1213,357.433,384.295" style="stroke: #A80036; stroke-width: 1.0;"/><!--
@startuml

class  mastermind.distributed.FrameType{
+ {static} START: FrameType
+ {static} STATE: FrameType
+ {static} UNDO: FrameType
+ {static} REDO: FrameType
+ {static} UNDOABLE: FrameType
+ {static} REDOABLE: FrameType
+ {static} WINNER: FrameType
+ {static} LOOSER: FrameType
+ {static} TURN: FrameType
+ {static} ALLCODES: FrameType
+ {static} PROPOSECOMBINATION: FrameType
+ {static} WIDTH: FrameType
+ {static} RESUME: FrameType
+ {static} CLOSE: FrameType
- FrameType()
+ {static} valueOf(String): FrameType
+ {static} parser(String): FrameType
}

class  mastermind.distributed.LogicServer{
+ LogicServer(Boolean)
+ createDispatchers(DispatcherPrototype): void
}
mastermind.controllers.Logic <|-down- mastermind.distributed.LogicServer
mastermind.distributed.LogicServer ..> mastermind.distributed.dispatchers.DispatcherPrototype

class  mastermind.distributed.MastermindClient{
+ MastermindClient()
+ {static} main(String[]): void
# isStandalone(): Boolean
}
mastermind.Mastermind <|-down- mastermind.distributed.MastermindClient

class  mastermind.distributed.MastermindServer{
- dispatcherPrototype: DispatcherPrototype
- logic: LogicServer
- MastermindServer()
+ {static} main(String[]): void
- serve(): void
}
mastermind.distributed.MastermindServer *-down-> mastermind.distributed.dispatchers.DispatcherPrototype
mastermind.distributed.MastermindServer *-down-> mastermind.distributed.LogicServer

@enduml

PlantUML version 1.2019.05(Sat Apr 20 18:45:36 CEST 2019)
(GPL source distribution)
Java Runtime: OpenJDK Runtime Environment
JVM: OpenJDK 64-Bit Server VM
Java Version: 1.8.0_222-b10
Operating System: Windows 10
OS Version: 10.0
Default Encoding: windows-1252
Language: es
Country: ES
--></g></svg>