<?xml version="1.0" encoding="UTF-8" standalone="no"?><svg xmlns="http://www.w3.org/2000/svg" xmlns:xlink="http://www.w3.org/1999/xlink" contentScriptType="application/ecmascript" contentStyleType="text/css" height="628px" preserveAspectRatio="none" style="width:763px;height:628px;" version="1.1" viewBox="0 0 763 628" width="763px" zoomAndPan="magnify"><defs><filter height="300%" id="fjt9gcsnufha7" width="300%" x="-1" y="-1"><feGaussianBlur result="blurOut" stdDeviation="2.0"/><feColorMatrix in="blurOut" result="blurOut2" type="matrix" values="0 0 0 0 0 0 0 0 0 0 0 0 0 0 0 0 0 0 .4 0"/><feOffset dx="4.0" dy="4.0" in="blurOut2" result="blurOut3"/><feBlend in="SourceGraphic" in2="blurOut3" mode="normal"/></filter></defs><g><!--cluster santaTecla.utils--><polygon fill="#FFFFFF" filter="url(#fjt9gcsnufha7)" points="22,24,137,24,144,47.6094,741,47.6094,741,616,22,616,22,24" style="stroke: #000000; stroke-width: 1.5;"/><line style="stroke: #000000; stroke-width: 1.5;" x1="22" x2="144" y1="47.6094" y2="47.6094"/><text fill="#000000" font-family="sans-serif" font-size="14" font-weight="bold" lengthAdjust="spacingAndGlyphs" textLength="109" x="26" y="40.5332">santaTecla.utils</text><!--class santaTecla.utils.ClosedInterval--><rect fill="#FEFECE" filter="url(#fjt9gcsnufha7)" height="103.3438" id="santaTecla.utils.ClosedInterval" style="stroke: #A80036; stroke-width: 1.5;" width="172" x="481" y="60"/><ellipse cx="523.45" cy="76" fill="#ADD1B2" rx="11" ry="11" style="stroke: #A80036; stroke-width: 1.0;"/><path d="M526.2156,71.875 Q526.3719,71.6563 526.5594,71.5469 Q526.7469,71.4375 526.9656,71.4375 Q527.3406,71.4375 527.575,71.6953 Q527.8094,71.9531 527.8094,72.5625 L527.8094,74.0156 Q527.8094,74.625 527.575,74.8906 Q527.3406,75.1563 526.9656,75.1563 Q526.6219,75.1563 526.4188,74.9531 Q526.2156,74.7656 526.1063,74.25 Q526.0594,73.8906 525.8719,73.7031 Q525.5438,73.3281 524.9344,73.1094 Q524.325,72.8906 523.7,72.8906 Q522.9344,72.8906 522.3016,73.2188 Q521.6688,73.5469 521.1766,74.2969 Q520.6844,75.0469 520.6844,76.0781 L520.6844,77.1719 Q520.6844,78.4063 521.575,79.2266 Q522.4656,80.0469 524.0594,80.0469 Q524.9969,80.0469 525.6531,79.7969 Q526.0438,79.6406 526.4656,79.2031 Q526.7313,78.9375 526.8797,78.8594 Q527.0281,78.7813 527.2313,78.7813 Q527.5594,78.7813 527.8172,79.0391 Q528.075,79.2969 528.075,79.6406 Q528.075,79.9844 527.7313,80.3906 Q527.2313,80.9688 526.4344,81.2969 Q525.3563,81.75 524.0594,81.75 Q522.5438,81.75 521.3406,81.125 Q520.3563,80.625 519.6688,79.5547 Q518.9813,78.4844 518.9813,77.2031 L518.9813,76.0469 Q518.9813,74.7188 519.5984,73.5703 Q520.2156,72.4219 521.3094,71.8047 Q522.4031,71.1875 523.6375,71.1875 Q524.3719,71.1875 525.0203,71.3516 Q525.6688,71.5156 526.2156,71.875 Z "/><text fill="#000000" font-family="sans-serif" font-size="12" lengthAdjust="spacingAndGlyphs" textLength="79" x="543.55" y="80.9102">ClosedInterval</text><line style="stroke: #A80036; stroke-width: 1.5;" x1="482" x2="652" y1="92" y2="92"/><rect fill="none" height="6" style="stroke: #C82930; stroke-width: 1.0;" width="6" x="489" y="101.418"/><text fill="#000000" font-family="sans-serif" font-size="11" lengthAdjust="spacingAndGlyphs" textLength="30" x="501" y="107.4189">int min</text><rect fill="none" height="6" style="stroke: #C82930; stroke-width: 1.0;" width="6" x="489" y="115.2539"/><text fill="#000000" font-family="sans-serif" font-size="11" lengthAdjust="spacingAndGlyphs" textLength="34" x="501" y="121.2549">int max</text><line style="stroke: #A80036; stroke-width: 1.5;" x1="482" x2="652" y1="127.6719" y2="127.6719"/><ellipse cx="492" cy="140.0898" fill="#84BE84" rx="3" ry="3" style="stroke: #038048; stroke-width: 1.0;"/><text fill="#000000" font-family="sans-serif" font-size="11" lengthAdjust="spacingAndGlyphs" textLength="146" x="501" y="143.0908">ClosedInterval(int min, int max)</text><ellipse cx="492" cy="153.9258" fill="#84BE84" rx="3" ry="3" style="stroke: #038048; stroke-width: 1.0;"/><text fill="#000000" font-family="sans-serif" font-size="11" lengthAdjust="spacingAndGlyphs" textLength="129" x="501" y="156.9268">boolean includes(int value)</text><!--class santaTecla.utils.Command--><rect fill="#FEFECE" filter="url(#fjt9gcsnufha7)" height="131.0156" id="santaTecla.utils.Command" style="stroke: #A80036; stroke-width: 1.5;" width="129" x="183.5" y="469"/><ellipse cx="215.6" cy="485" fill="#A9DCDF" rx="11" ry="11" style="stroke: #A80036; stroke-width: 1.0;"/><path d="M217.7875,486.7656 L213.6469,486.7656 L213.225,487.7969 L213.6469,487.7969 Q214.2563,487.7969 214.5219,488.0313 Q214.7875,488.2656 214.7875,488.6563 Q214.7875,489.0313 214.5219,489.2656 Q214.2563,489.5 213.6469,489.5 L211.35,489.5 Q210.7406,489.5 210.4828,489.2656 Q210.225,489.0313 210.225,488.6406 Q210.225,488.2656 210.4984,488.0234 Q210.7719,487.7813 211.3969,487.7969 L214.0688,481.1406 L212.9594,481.1406 Q212.35,481.1406 212.0844,480.9063 Q211.8188,480.6719 211.8188,480.2813 Q211.8188,479.9063 212.0844,479.6719 Q212.35,479.4375 212.9594,479.4375 L216.6313,479.4375 L220.0219,487.7969 Q220.6156,487.7969 220.8031,487.9375 Q221.1938,488.2031 221.1938,488.6563 Q221.1938,489.0313 220.9359,489.2656 Q220.6781,489.5 220.0688,489.5 L217.7719,489.5 Q217.1625,489.5 216.8969,489.2656 Q216.6313,489.0313 216.6313,488.6406 Q216.6313,488.2656 216.8969,488.0313 Q217.1625,487.7969 217.7719,487.7969 L218.1938,487.7969 L217.7875,486.7656 Z M217.0688,485.0625 L215.7094,481.6875 L214.3344,485.0625 L217.0688,485.0625 Z "/><text fill="#000000" font-family="sans-serif" font-size="12" font-style="italic" lengthAdjust="spacingAndGlyphs" textLength="59" x="233.4" y="489.9102">Command</text><line style="stroke: #A80036; stroke-width: 1.5;" x1="184.5" x2="311.5" y1="501" y2="501"/><polygon fill="none" points="194.5,508.418,198.5,512.418,194.5,516.418,190.5,512.418" style="stroke: #B38D22; stroke-width: 1.0;"/><text fill="#000000" font-family="sans-serif" font-size="11" lengthAdjust="spacingAndGlyphs" textLength="47" x="203.5" y="516.4189">String title</text><polygon fill="none" points="194.5,522.2539,198.5,526.2539,194.5,530.2539,190.5,526.2539" style="stroke: #B38D22; stroke-width: 1.0;"/><text fill="#000000" font-family="sans-serif" font-size="11" lengthAdjust="spacingAndGlyphs" textLength="80" x="203.5" y="530.2549">boolean isActive</text><line style="stroke: #A80036; stroke-width: 1.5;" x1="184.5" x2="311.5" y1="536.6719" y2="536.6719"/><polygon fill="#FFFF44" points="194.5,544.0898,198.5,548.0898,194.5,552.0898,190.5,548.0898" style="stroke: #B38D22; stroke-width: 1.0;"/><text fill="#000000" font-family="sans-serif" font-size="11" lengthAdjust="spacingAndGlyphs" textLength="102" x="203.5" y="552.0908">Command(String title)</text><ellipse cx="194.5" cy="562.9258" fill="#84BE84" rx="3" ry="3" style="stroke: #038048; stroke-width: 1.0;"/><text fill="#000000" font-family="sans-serif" font-size="11" font-style="italic" lengthAdjust="spacingAndGlyphs" textLength="103" x="203.5" y="565.9268">void updateIsActive()</text><polygon fill="#FFFF44" points="194.5,571.7617,198.5,575.7617,194.5,579.7617,190.5,575.7617" style="stroke: #B38D22; stroke-width: 1.0;"/><text fill="#000000" font-family="sans-serif" font-size="11" lengthAdjust="spacingAndGlyphs" textLength="88" x="203.5" y="579.7627">boolean isActive()</text><polygon fill="#4177AF" points="194.5,586.5977,190.5,592.5977,198.5,592.5977" style="stroke: #1963A0; stroke-width: 1.0;"/><text fill="#000000" font-family="sans-serif" font-size="11" lengthAdjust="spacingAndGlyphs" textLength="73" x="203.5" y="593.5986">String getTitle()</text><!--class santaTecla.utils.WithConsoleView--><rect fill="#FEFECE" filter="url(#fjt9gcsnufha7)" height="75.6719" id="santaTecla.utils.WithConsoleView" style="stroke: #A80036; stroke-width: 1.5;" width="128" x="175" y="73.5"/><ellipse cx="190" cy="89.5" fill="#A9DCDF" rx="11" ry="11" style="stroke: #A80036; stroke-width: 1.0;"/><path d="M192.1875,91.2656 L188.0469,91.2656 L187.625,92.2969 L188.0469,92.2969 Q188.6563,92.2969 188.9219,92.5313 Q189.1875,92.7656 189.1875,93.1563 Q189.1875,93.5313 188.9219,93.7656 Q188.6563,94 188.0469,94 L185.75,94 Q185.1406,94 184.8828,93.7656 Q184.625,93.5313 184.625,93.1406 Q184.625,92.7656 184.8984,92.5234 Q185.1719,92.2813 185.7969,92.2969 L188.4688,85.6406 L187.3594,85.6406 Q186.75,85.6406 186.4844,85.4063 Q186.2188,85.1719 186.2188,84.7813 Q186.2188,84.4063 186.4844,84.1719 Q186.75,83.9375 187.3594,83.9375 L191.0313,83.9375 L194.4219,92.2969 Q195.0156,92.2969 195.2031,92.4375 Q195.5938,92.7031 195.5938,93.1563 Q195.5938,93.5313 195.3359,93.7656 Q195.0781,94 194.4688,94 L192.1719,94 Q191.5625,94 191.2969,93.7656 Q191.0313,93.5313 191.0313,93.1406 Q191.0313,92.7656 191.2969,92.5313 Q191.5625,92.2969 192.1719,92.2969 L192.5938,92.2969 L192.1875,91.2656 Z M191.4688,89.5625 L190.1094,86.1875 L188.7344,89.5625 L191.4688,89.5625 Z "/><text fill="#000000" font-family="sans-serif" font-size="12" font-style="italic" lengthAdjust="spacingAndGlyphs" textLength="96" x="204" y="94.4102">WithConsoleView</text><line style="stroke: #A80036; stroke-width: 1.5;" x1="176" x2="302" y1="105.5" y2="105.5"/><polygon fill="none" points="186,112.918,190,116.918,186,120.918,182,116.918" style="stroke: #B38D22; stroke-width: 1.0;"/><text fill="#000000" font-family="sans-serif" font-size="11" lengthAdjust="spacingAndGlyphs" textLength="80" x="195" y="120.9189">Console console</text><line style="stroke: #A80036; stroke-width: 1.5;" x1="176" x2="302" y1="127.3359" y2="127.3359"/><polygon fill="#FFFF44" points="186,134.7539,190,138.7539,186,142.7539,182,138.7539" style="stroke: #B38D22; stroke-width: 1.0;"/><text fill="#000000" font-family="sans-serif" font-size="11" lengthAdjust="spacingAndGlyphs" textLength="94" x="195" y="142.7549">WithConsoleView()</text><!--class santaTecla.utils.Console--><rect fill="#FEFECE" filter="url(#fjt9gcsnufha7)" height="186.3594" id="santaTecla.utils.Console" style="stroke: #A80036; stroke-width: 1.5;" width="184" x="75" y="223"/><ellipse cx="139.25" cy="239" fill="#ADD1B2" rx="11" ry="11" style="stroke: #A80036; stroke-width: 1.0;"/><path d="M142.0156,234.875 Q142.1719,234.6563 142.3594,234.5469 Q142.5469,234.4375 142.7656,234.4375 Q143.1406,234.4375 143.375,234.6953 Q143.6094,234.9531 143.6094,235.5625 L143.6094,237.0156 Q143.6094,237.625 143.375,237.8906 Q143.1406,238.1563 142.7656,238.1563 Q142.4219,238.1563 142.2188,237.9531 Q142.0156,237.7656 141.9063,237.25 Q141.8594,236.8906 141.6719,236.7031 Q141.3438,236.3281 140.7344,236.1094 Q140.125,235.8906 139.5,235.8906 Q138.7344,235.8906 138.1016,236.2188 Q137.4688,236.5469 136.9766,237.2969 Q136.4844,238.0469 136.4844,239.0781 L136.4844,240.1719 Q136.4844,241.4063 137.375,242.2266 Q138.2656,243.0469 139.8594,243.0469 Q140.7969,243.0469 141.4531,242.7969 Q141.8438,242.6406 142.2656,242.2031 Q142.5313,241.9375 142.6797,241.8594 Q142.8281,241.7813 143.0313,241.7813 Q143.3594,241.7813 143.6172,242.0391 Q143.875,242.2969 143.875,242.6406 Q143.875,242.9844 143.5313,243.3906 Q143.0313,243.9688 142.2344,244.2969 Q141.1563,244.75 139.8594,244.75 Q138.3438,244.75 137.1406,244.125 Q136.1563,243.625 135.4688,242.5547 Q134.7813,241.4844 134.7813,240.2031 L134.7813,239.0469 Q134.7813,237.7188 135.3984,236.5703 Q136.0156,235.4219 137.1094,234.8047 Q138.2031,234.1875 139.4375,234.1875 Q140.1719,234.1875 140.8203,234.3516 Q141.4688,234.5156 142.0156,234.875 Z "/><text fill="#000000" font-family="sans-serif" font-size="12" lengthAdjust="spacingAndGlyphs" textLength="47" x="159.75" y="243.9102">Console</text><line style="stroke: #A80036; stroke-width: 1.5;" x1="76" x2="258" y1="255" y2="255"/><rect fill="none" height="6" style="stroke: #C82930; stroke-width: 1.0;" width="6" x="83" y="264.418"/><text fill="#000000" font-family="sans-serif" font-size="11" lengthAdjust="spacingAndGlyphs" textLength="158" x="95" y="270.4189">BufferedReader bufferedReader</text><line style="stroke: #A80036; stroke-width: 1.5;" x1="76" x2="258" y1="276.8359" y2="276.8359"/><ellipse cx="86" cy="289.2539" fill="#84BE84" rx="3" ry="3" style="stroke: #038048; stroke-width: 1.0;"/><text fill="#000000" font-family="sans-serif" font-size="11" lengthAdjust="spacingAndGlyphs" textLength="136" x="95" y="292.2549">String readString(String title)</text><ellipse cx="86" cy="303.0898" fill="#84BE84" rx="3" ry="3" style="stroke: #038048; stroke-width: 1.0;"/><text fill="#000000" font-family="sans-serif" font-size="11" lengthAdjust="spacingAndGlyphs" textLength="102" x="95" y="306.0908">int readInt(String title)</text><ellipse cx="86" cy="316.9258" fill="#84BE84" rx="3" ry="3" style="stroke: #038048; stroke-width: 1.0;"/><text fill="#000000" font-family="sans-serif" font-size="11" lengthAdjust="spacingAndGlyphs" textLength="125" x="95" y="319.9268">char readChar(String title)</text><ellipse cx="86" cy="330.7617" fill="#84BE84" rx="3" ry="3" style="stroke: #038048; stroke-width: 1.0;"/><text fill="#000000" font-family="sans-serif" font-size="11" lengthAdjust="spacingAndGlyphs" textLength="64" x="95" y="333.7627">void writeln()</text><ellipse cx="86" cy="344.5977" fill="#84BE84" rx="3" ry="3" style="stroke: #038048; stroke-width: 1.0;"/><text fill="#000000" font-family="sans-serif" font-size="11" lengthAdjust="spacingAndGlyphs" textLength="114" x="95" y="347.5986">void write(String string)</text><ellipse cx="86" cy="358.4336" fill="#84BE84" rx="3" ry="3" style="stroke: #038048; stroke-width: 1.0;"/><text fill="#000000" font-family="sans-serif" font-size="11" lengthAdjust="spacingAndGlyphs" textLength="122" x="95" y="361.4346">void writeln(String string)</text><ellipse cx="86" cy="372.2695" fill="#84BE84" rx="3" ry="3" style="stroke: #038048; stroke-width: 1.0;"/><text fill="#000000" font-family="sans-serif" font-size="11" lengthAdjust="spacingAndGlyphs" textLength="128" x="95" y="375.2705">void write(char character)</text><ellipse cx="86" cy="386.1055" fill="#84BE84" rx="3" ry="3" style="stroke: #038048; stroke-width: 1.0;"/><text fill="#000000" font-family="sans-serif" font-size="11" lengthAdjust="spacingAndGlyphs" textLength="111" x="95" y="389.1064">void writeln(int integer)</text><rect fill="#F24D5C" height="6" style="stroke: #C82930; stroke-width: 1.0;" width="6" x="83" y="396.9414"/><text fill="#000000" font-family="sans-serif" font-size="11" lengthAdjust="spacingAndGlyphs" textLength="142" x="95" y="402.9424">void writeError(String format)</text><!--class santaTecla.utils.Menu--><rect fill="#FEFECE" filter="url(#fjt9gcsnufha7)" height="103.3438" id="santaTecla.utils.Menu" style="stroke: #A80036; stroke-width: 1.5;" width="200" x="294" y="264.5"/><ellipse cx="374.75" cy="280.5" fill="#ADD1B2" rx="11" ry="11" style="stroke: #A80036; stroke-width: 1.0;"/><path d="M377.5156,276.375 Q377.6719,276.1563 377.8594,276.0469 Q378.0469,275.9375 378.2656,275.9375 Q378.6406,275.9375 378.875,276.1953 Q379.1094,276.4531 379.1094,277.0625 L379.1094,278.5156 Q379.1094,279.125 378.875,279.3906 Q378.6406,279.6563 378.2656,279.6563 Q377.9219,279.6563 377.7188,279.4531 Q377.5156,279.2656 377.4063,278.75 Q377.3594,278.3906 377.1719,278.2031 Q376.8438,277.8281 376.2344,277.6094 Q375.625,277.3906 375,277.3906 Q374.2344,277.3906 373.6016,277.7188 Q372.9688,278.0469 372.4766,278.7969 Q371.9844,279.5469 371.9844,280.5781 L371.9844,281.6719 Q371.9844,282.9063 372.875,283.7266 Q373.7656,284.5469 375.3594,284.5469 Q376.2969,284.5469 376.9531,284.2969 Q377.3438,284.1406 377.7656,283.7031 Q378.0313,283.4375 378.1797,283.3594 Q378.3281,283.2813 378.5313,283.2813 Q378.8594,283.2813 379.1172,283.5391 Q379.375,283.7969 379.375,284.1406 Q379.375,284.4844 379.0313,284.8906 Q378.5313,285.4688 377.7344,285.7969 Q376.6563,286.25 375.3594,286.25 Q373.8438,286.25 372.6406,285.625 Q371.6563,285.125 370.9688,284.0547 Q370.2813,282.9844 370.2813,281.7031 L370.2813,280.5469 Q370.2813,279.2188 370.8984,278.0703 Q371.5156,276.9219 372.6094,276.3047 Q373.7031,275.6875 374.9375,275.6875 Q375.6719,275.6875 376.3203,275.8516 Q376.9688,276.0156 377.5156,276.375 Z "/><text fill="#000000" font-family="sans-serif" font-size="12" lengthAdjust="spacingAndGlyphs" textLength="30" x="395.25" y="285.4102">Menu</text><line style="stroke: #A80036; stroke-width: 1.5;" x1="295" x2="493" y1="296.5" y2="296.5"/><rect fill="none" height="6" style="stroke: #C82930; stroke-width: 1.0;" width="6" x="302" y="305.918"/><text fill="#000000" font-family="sans-serif" font-size="11" lengthAdjust="spacingAndGlyphs" text-decoration="underline" textLength="68" x="314" y="311.9189">String OPTION</text><rect fill="none" height="6" style="stroke: #C82930; stroke-width: 1.0;" width="6" x="302" y="319.7539"/><text fill="#000000" font-family="sans-serif" font-size="11" lengthAdjust="spacingAndGlyphs" textLength="169" x="314" y="325.7549">ArrayList&lt;Command&gt; commandSet</text><line style="stroke: #A80036; stroke-width: 1.5;" x1="295" x2="493" y1="332.1719" y2="332.1719"/><ellipse cx="305" cy="344.5898" fill="#84BE84" rx="3" ry="3" style="stroke: #038048; stroke-width: 1.0;"/><text fill="#000000" font-family="sans-serif" font-size="11" lengthAdjust="spacingAndGlyphs" textLength="174" x="314" y="347.5908">Menu(Set&lt;Command&gt; commandSet)</text><ellipse cx="305" cy="358.4258" fill="#84BE84" rx="3" ry="3" style="stroke: #038048; stroke-width: 1.0;"/><text fill="#000000" font-family="sans-serif" font-size="11" lengthAdjust="spacingAndGlyphs" textLength="97" x="314" y="361.4268">Command execute()</text><!--class santaTecla.utils.YesNoDialog--><rect fill="#FEFECE" filter="url(#fjt9gcsnufha7)" height="144.8516" id="santaTecla.utils.YesNoDialog" style="stroke: #A80036; stroke-width: 1.5;" width="195" x="529.5" y="243.5"/><ellipse cx="586.25" cy="259.5" fill="#ADD1B2" rx="11" ry="11" style="stroke: #A80036; stroke-width: 1.0;"/><path d="M589.0156,255.375 Q589.1719,255.1563 589.3594,255.0469 Q589.5469,254.9375 589.7656,254.9375 Q590.1406,254.9375 590.375,255.1953 Q590.6094,255.4531 590.6094,256.0625 L590.6094,257.5156 Q590.6094,258.125 590.375,258.3906 Q590.1406,258.6563 589.7656,258.6563 Q589.4219,258.6563 589.2188,258.4531 Q589.0156,258.2656 588.9063,257.75 Q588.8594,257.3906 588.6719,257.2031 Q588.3438,256.8281 587.7344,256.6094 Q587.125,256.3906 586.5,256.3906 Q585.7344,256.3906 585.1016,256.7188 Q584.4688,257.0469 583.9766,257.7969 Q583.4844,258.5469 583.4844,259.5781 L583.4844,260.6719 Q583.4844,261.9063 584.375,262.7266 Q585.2656,263.5469 586.8594,263.5469 Q587.7969,263.5469 588.4531,263.2969 Q588.8438,263.1406 589.2656,262.7031 Q589.5313,262.4375 589.6797,262.3594 Q589.8281,262.2813 590.0313,262.2813 Q590.3594,262.2813 590.6172,262.5391 Q590.875,262.7969 590.875,263.1406 Q590.875,263.4844 590.5313,263.8906 Q590.0313,264.4688 589.2344,264.7969 Q588.1563,265.25 586.8594,265.25 Q585.3438,265.25 584.1406,264.625 Q583.1563,264.125 582.4688,263.0547 Q581.7813,261.9844 581.7813,260.7031 L581.7813,259.5469 Q581.7813,258.2188 582.3984,257.0703 Q583.0156,255.9219 584.1094,255.3047 Q585.2031,254.6875 586.4375,254.6875 Q587.1719,254.6875 587.8203,254.8516 Q588.4688,255.0156 589.0156,255.375 Z "/><text fill="#000000" font-family="sans-serif" font-size="12" lengthAdjust="spacingAndGlyphs" textLength="73" x="606.75" y="264.4102">YesNoDialog</text><line style="stroke: #A80036; stroke-width: 1.5;" x1="530.5" x2="723.5" y1="275.5" y2="275.5"/><rect fill="none" height="6" style="stroke: #C82930; stroke-width: 1.0;" width="6" x="537.5" y="284.918"/><text fill="#000000" font-family="sans-serif" font-size="11" lengthAdjust="spacingAndGlyphs" text-decoration="underline" textLength="86" x="549.5" y="290.9189">char AFIRMATIVE</text><rect fill="none" height="6" style="stroke: #C82930; stroke-width: 1.0;" width="6" x="537.5" y="298.7539"/><text fill="#000000" font-family="sans-serif" font-size="11" lengthAdjust="spacingAndGlyphs" text-decoration="underline" textLength="76" x="549.5" y="304.7549">char NEGATIVE</text><rect fill="none" height="6" style="stroke: #C82930; stroke-width: 1.0;" width="6" x="537.5" y="312.5898"/><text fill="#000000" font-family="sans-serif" font-size="11" lengthAdjust="spacingAndGlyphs" text-decoration="underline" textLength="82" x="549.5" y="318.5908">String QUESTION</text><rect fill="none" height="6" style="stroke: #C82930; stroke-width: 1.0;" width="6" x="537.5" y="326.4258"/><text fill="#000000" font-family="sans-serif" font-size="11" lengthAdjust="spacingAndGlyphs" text-decoration="underline" textLength="81" x="549.5" y="332.4268">String MESSAGE</text><line style="stroke: #A80036; stroke-width: 1.5;" x1="530.5" x2="723.5" y1="338.8438" y2="338.8438"/><ellipse cx="540.5" cy="351.2617" fill="#84BE84" rx="3" ry="3" style="stroke: #038048; stroke-width: 1.0;"/><text fill="#000000" font-family="sans-serif" font-size="11" lengthAdjust="spacingAndGlyphs" textLength="118" x="549.5" y="354.2627">boolean read(String title)</text><rect fill="#F24D5C" height="6" style="stroke: #C82930; stroke-width: 1.0;" width="6" x="537.5" y="362.0977"/><text fill="#000000" font-family="sans-serif" font-size="11" lengthAdjust="spacingAndGlyphs" text-decoration="underline" textLength="169" x="549.5" y="368.0986">boolean isAfirmative(char answer)</text><rect fill="#F24D5C" height="6" style="stroke: #C82930; stroke-width: 1.0;" width="6" x="537.5" y="375.9336"/><text fill="#000000" font-family="sans-serif" font-size="11" lengthAdjust="spacingAndGlyphs" text-decoration="underline" textLength="162" x="549.5" y="381.9346">boolean isNegative(char answer)</text><!--link santaTecla.utils.WithConsoleView to santaTecla.utils.Command--><path d="M156.058,141.049 C118.768,158.515 78.4014,184.969 57,223 C16.4587,295.043 17.6168,336.318 57,409 C83.5889,458.07 138.83,490.855 183.096,510.408 " fill="none" id="santaTecla.utils.WithConsoleView-santaTecla.utils.Command" style="stroke: #A80036; stroke-width: 1.0;"/><polygon fill="none" points="153.458,134.545,174.588,132.953,159.063,147.374,153.458,134.545" style="stroke: #A80036; stroke-width: 1.0;"/><!--link santaTecla.utils.WithConsoleView to santaTecla.utils.Menu--><path d="M279.73,165.712 C303.082,196.219 332.23,234.301 355.243,264.366 " fill="none" id="santaTecla.utils.WithConsoleView-santaTecla.utils.Menu" style="stroke: #A80036; stroke-width: 1.0;"/><polygon fill="none" points="274.027,169.778,267.429,149.642,285.144,161.269,274.027,169.778" style="stroke: #A80036; stroke-width: 1.0;"/><!--link santaTecla.utils.Menu to santaTecla.utils.Command--><path d="M352.412,378.67 C335.804,403.298 316.516,431.899 299.07,457.77 " fill="none" id="santaTecla.utils.Menu-santaTecla.utils.Command" style="stroke: #A80036; stroke-width: 1.0;"/><polygon fill="#A80036" points="291.719,468.67,300.0673,463.4445,294.5145,464.5245,293.4346,458.9717,291.719,468.67" style="stroke: #A80036; stroke-width: 1.0;"/><line style="stroke: #A80036; stroke-width: 1.0;" x1="294.5145" x2="298.9875" y1="464.5245" y2="457.892"/><polygon fill="#A80036" points="359.769,367.76,353.0978,370.4978,353.0591,377.7088,359.7303,374.971,359.769,367.76" style="stroke: #A80036; stroke-width: 1.0;"/><!--link santaTecla.utils.WithConsoleView to santaTecla.utils.Console--><path d="M221.355,162.126 C216.096,176.917 210.124,193.715 204.11,210.629 " fill="none" id="santaTecla.utils.WithConsoleView-santaTecla.utils.Console" style="stroke: #A80036; stroke-width: 1.0;"/><polygon fill="#A80036" points="199.733,222.939,206.5166,215.7987,201.4078,218.2278,198.9787,213.1191,199.733,222.939" style="stroke: #A80036; stroke-width: 1.0;"/><line style="stroke: #A80036; stroke-width: 1.0;" x1="201.4078" x2="204.088" y1="218.2278" y2="210.69"/><polygon fill="#A80036" points="225.794,149.642,220.0149,153.955,221.7733,160.9484,227.5525,156.6354,225.794,149.642" style="stroke: #A80036; stroke-width: 1.0;"/><!--link santaTecla.utils.WithConsoleView to santaTecla.utils.YesNoDialog--><path d="M322.472,139.175 C378.084,158.635 451.741,187.72 512,223 C522.37,229.072 532.809,236.015 542.942,243.305 " fill="none" id="santaTecla.utils.WithConsoleView-santaTecla.utils.YesNoDialog" style="stroke: #A80036; stroke-width: 1.0;"/><polygon fill="none" points="319.878,145.686,303.232,132.574,324.421,132.444,319.878,145.686" style="stroke: #A80036; stroke-width: 1.0;"/><!--
@startuml
class santaTecla.utils.ClosedInterval {
	-int min
	-int max
	+ClosedInterval(int min, int max)
	+boolean includes(int value)
}

abstract class santaTecla.utils.Command {
	#String title
	#boolean isActive
	#Command(String title)
	+{abstract}void updateIsActive()
	#boolean isActive()
	~String getTitle()
}
santaTecla.utils.WithConsoleView <|-down- santaTecla.utils.Command

class santaTecla.utils.Console {
	-BufferedReader bufferedReader
	+String readString(String title)
	+int readInt(String title)
	+char readChar(String title)
	+void writeln()
	+void write(String string)
	+void writeln(String string)
	+void write(char character)
	+void writeln(int integer)
	-void writeError(String format)
}

class santaTecla.utils.Menu {
	-{static}String OPTION
	-ArrayList<Command> commandSet
	+Menu(Set<Command> commandSet)
	+Command execute()
}
santaTecla.utils.WithConsoleView <|-down- santaTecla.utils.Menu
santaTecla.utils.Menu *-down-> santaTecla.utils.Command

abstract class santaTecla.utils.WithConsoleView {
	#Console console
	#WithConsoleView()
}
santaTecla.utils.WithConsoleView *-down-> santaTecla.utils.Console

class santaTecla.utils.YesNoDialog {
	-{static}char AFIRMATIVE
	-{static}char NEGATIVE
	-{static}String QUESTION
	-{static}String MESSAGE
	+boolean read(String title)
	-{static}boolean isAfirmative(char answer)
	-{static}boolean isNegative(char answer)
}
santaTecla.utils.WithConsoleView <|-down- santaTecla.utils.YesNoDialog

@enduml

PlantUML version 1.2019.05(Sat Apr 20 18:45:36 CEST 2019)
(GPL source distribution)
Java Runtime: OpenJDK Runtime Environment
JVM: OpenJDK 64-Bit Server VM
Java Version: 1.8.0_222-b10
Operating System: Windows 10
OS Version: 10.0
Default Encoding: windows-1252
Language: es
Country: ES
--></g></svg>