<?xml version="1.0" encoding="UTF-8" standalone="no"?><svg xmlns="http://www.w3.org/2000/svg" xmlns:xlink="http://www.w3.org/1999/xlink" contentScriptType="application/ecmascript" contentStyleType="text/css" height="329px" preserveAspectRatio="none" style="width:883px;height:329px;" version="1.1" viewBox="0 0 883 329" width="883px" zoomAndPan="magnify"><defs><filter height="300%" id="f1ko0zc24iyern" width="300%" x="-1" y="-1"><feGaussianBlur result="blurOut" stdDeviation="2.0"/><feColorMatrix in="blurOut" result="blurOut2" type="matrix" values="0 0 0 0 0 0 0 0 0 0 0 0 0 0 0 0 0 0 .4 0"/><feOffset dx="4.0" dy="4.0" in="blurOut2" result="blurOut3"/><feBlend in="SourceGraphic" in2="blurOut3" mode="normal"/></filter></defs><g><!--cluster mastermind--><polygon fill="#FFFFFF" filter="url(#f1ko0zc24iyern)" points="351,24,439,24,446,47.6094,597,47.6094,597,193,351,193,351,24" style="stroke: #000000; stroke-width: 1.5;"/><line style="stroke: #000000; stroke-width: 1.5;" x1="351" x2="446" y1="47.6094" y2="47.6094"/><text fill="#000000" font-family="sans-serif" font-size="14" font-weight="bold" lengthAdjust="spacingAndGlyphs" textLength="82" x="355" y="40.5332">mastermind</text><!--cluster mastermind.controllers--><polygon fill="#FFFFFF" filter="url(#f1ko0zc24iyern)" points="22,217,191,217,198,240.6094,600,240.6094,600,317,22,317,22,217" style="stroke: #000000; stroke-width: 1.5;"/><line style="stroke: #000000; stroke-width: 1.5;" x1="22" x2="198" y1="240.6094" y2="240.6094"/><text fill="#000000" font-family="sans-serif" font-size="14" font-weight="bold" lengthAdjust="spacingAndGlyphs" textLength="163" x="26" y="233.5332">mastermind.controllers</text><!--cluster mastermind.models--><polygon fill="#FFFFFF" filter="url(#f1ko0zc24iyern)" points="624,217,767,217,774,240.6094,861,240.6094,861,317,624,317,624,217" style="stroke: #000000; stroke-width: 1.5;"/><line style="stroke: #000000; stroke-width: 1.5;" x1="624" x2="774" y1="240.6094" y2="240.6094"/><text fill="#000000" font-family="sans-serif" font-size="14" font-weight="bold" lengthAdjust="spacingAndGlyphs" textLength="137" x="628" y="233.5332">mastermind.models</text><!--class mastermind.Mastermind--><rect fill="#FEFECE" filter="url(#f1ko0zc24iyern)" height="117.1797" id="mastermind.Mastermind" style="stroke: #A80036; stroke-width: 1.5;" width="214" x="367" y="60"/><ellipse cx="437.25" cy="76" fill="#ADD1B2" rx="11" ry="11" style="stroke: #A80036; stroke-width: 1.0;"/><path d="M440.0156,71.875 Q440.1719,71.6563 440.3594,71.5469 Q440.5469,71.4375 440.7656,71.4375 Q441.1406,71.4375 441.375,71.6953 Q441.6094,71.9531 441.6094,72.5625 L441.6094,74.0156 Q441.6094,74.625 441.375,74.8906 Q441.1406,75.1563 440.7656,75.1563 Q440.4219,75.1563 440.2188,74.9531 Q440.0156,74.7656 439.9063,74.25 Q439.8594,73.8906 439.6719,73.7031 Q439.3438,73.3281 438.7344,73.1094 Q438.125,72.8906 437.5,72.8906 Q436.7344,72.8906 436.1016,73.2188 Q435.4688,73.5469 434.9766,74.2969 Q434.4844,75.0469 434.4844,76.0781 L434.4844,77.1719 Q434.4844,78.4063 435.375,79.2266 Q436.2656,80.0469 437.8594,80.0469 Q438.7969,80.0469 439.4531,79.7969 Q439.8438,79.6406 440.2656,79.2031 Q440.5313,78.9375 440.6797,78.8594 Q440.8281,78.7813 441.0313,78.7813 Q441.3594,78.7813 441.6172,79.0391 Q441.875,79.2969 441.875,79.6406 Q441.875,79.9844 441.5313,80.3906 Q441.0313,80.9688 440.2344,81.2969 Q439.1563,81.75 437.8594,81.75 Q436.3438,81.75 435.1406,81.125 Q434.1563,80.625 433.4688,79.5547 Q432.7813,78.4844 432.7813,77.2031 L432.7813,76.0469 Q432.7813,74.7188 433.3984,73.5703 Q434.0156,72.4219 435.1094,71.8047 Q436.2031,71.1875 437.4375,71.1875 Q438.1719,71.1875 438.8203,71.3516 Q439.4688,71.5156 440.0156,71.875 Z "/><text fill="#000000" font-family="sans-serif" font-size="12" lengthAdjust="spacingAndGlyphs" textLength="65" x="457.75" y="80.9102">Mastermind</text><line style="stroke: #A80036; stroke-width: 1.5;" x1="368" x2="580" y1="92" y2="92"/><rect fill="none" height="6" style="stroke: #C82930; stroke-width: 1.0;" width="6" x="375" y="101.418"/><text fill="#000000" font-family="sans-serif" font-size="11" lengthAdjust="spacingAndGlyphs" textLength="80" x="387" y="107.4189">Session session</text><rect fill="none" height="6" style="stroke: #C82930; stroke-width: 1.0;" width="6" x="375" y="115.2539"/><text fill="#000000" font-family="sans-serif" font-size="11" lengthAdjust="spacingAndGlyphs" textLength="188" x="387" y="121.2549">Map&lt;StateValue,Controller&gt; controllers</text><line style="stroke: #A80036; stroke-width: 1.5;" x1="368" x2="580" y1="127.6719" y2="127.6719"/><rect fill="#F24D5C" height="6" style="stroke: #C82930; stroke-width: 1.0;" width="6" x="375" y="137.0898"/><text fill="#000000" font-family="sans-serif" font-size="11" lengthAdjust="spacingAndGlyphs" textLength="63" x="387" y="143.0908">Mastermind()</text><rect fill="#F24D5C" height="6" style="stroke: #C82930; stroke-width: 1.0;" width="6" x="375" y="150.9258"/><text fill="#000000" font-family="sans-serif" font-size="11" lengthAdjust="spacingAndGlyphs" textLength="51" x="387" y="156.9268">void play()</text><ellipse cx="378" cy="167.7617" fill="#84BE84" rx="3" ry="3" style="stroke: #038048; stroke-width: 1.0;"/><text fill="#000000" font-family="sans-serif" font-size="11" lengthAdjust="spacingAndGlyphs" text-decoration="underline" textLength="112" x="387" y="170.7627">void main(String[] args)</text><!--class mastermind.controllers.Controller--><rect fill="#FEFECE" filter="url(#f1ko0zc24iyern)" height="48" id="mastermind.controllers.Controller" style="stroke: #A80036; stroke-width: 1.5;" width="86" x="498" y="253"/><ellipse cx="513" cy="269" fill="#ADD1B2" rx="11" ry="11" style="stroke: #A80036; stroke-width: 1.0;"/><path d="M515.7656,264.875 Q515.9219,264.6563 516.1094,264.5469 Q516.2969,264.4375 516.5156,264.4375 Q516.8906,264.4375 517.125,264.6953 Q517.3594,264.9531 517.3594,265.5625 L517.3594,267.0156 Q517.3594,267.625 517.125,267.8906 Q516.8906,268.1563 516.5156,268.1563 Q516.1719,268.1563 515.9688,267.9531 Q515.7656,267.7656 515.6563,267.25 Q515.6094,266.8906 515.4219,266.7031 Q515.0938,266.3281 514.4844,266.1094 Q513.875,265.8906 513.25,265.8906 Q512.4844,265.8906 511.8516,266.2188 Q511.2188,266.5469 510.7266,267.2969 Q510.2344,268.0469 510.2344,269.0781 L510.2344,270.1719 Q510.2344,271.4063 511.125,272.2266 Q512.0156,273.0469 513.6094,273.0469 Q514.5469,273.0469 515.2031,272.7969 Q515.5938,272.6406 516.0156,272.2031 Q516.2813,271.9375 516.4297,271.8594 Q516.5781,271.7813 516.7813,271.7813 Q517.1094,271.7813 517.3672,272.0391 Q517.625,272.2969 517.625,272.6406 Q517.625,272.9844 517.2813,273.3906 Q516.7813,273.9688 515.9844,274.2969 Q514.9063,274.75 513.6094,274.75 Q512.0938,274.75 510.8906,274.125 Q509.9063,273.625 509.2188,272.5547 Q508.5313,271.4844 508.5313,270.2031 L508.5313,269.0469 Q508.5313,267.7188 509.1484,266.5703 Q509.7656,265.4219 510.8594,264.8047 Q511.9531,264.1875 513.1875,264.1875 Q513.9219,264.1875 514.5703,264.3516 Q515.2188,264.5156 515.7656,264.875 Z "/><text fill="#000000" font-family="sans-serif" font-size="12" lengthAdjust="spacingAndGlyphs" textLength="54" x="527" y="273.9102">Controller</text><line style="stroke: #A80036; stroke-width: 1.5;" x1="499" x2="583" y1="285" y2="285"/><line style="stroke: #A80036; stroke-width: 1.5;" x1="499" x2="583" y1="293" y2="293"/><!--class mastermind.controllers.StartController--><rect fill="#FEFECE" filter="url(#f1ko0zc24iyern)" height="48" id="mastermind.controllers.StartController" style="stroke: #A80036; stroke-width: 1.5;" width="111" x="351.5" y="253"/><ellipse cx="366.5" cy="269" fill="#ADD1B2" rx="11" ry="11" style="stroke: #A80036; stroke-width: 1.0;"/><path d="M369.2656,264.875 Q369.4219,264.6563 369.6094,264.5469 Q369.7969,264.4375 370.0156,264.4375 Q370.3906,264.4375 370.625,264.6953 Q370.8594,264.9531 370.8594,265.5625 L370.8594,267.0156 Q370.8594,267.625 370.625,267.8906 Q370.3906,268.1563 370.0156,268.1563 Q369.6719,268.1563 369.4688,267.9531 Q369.2656,267.7656 369.1563,267.25 Q369.1094,266.8906 368.9219,266.7031 Q368.5938,266.3281 367.9844,266.1094 Q367.375,265.8906 366.75,265.8906 Q365.9844,265.8906 365.3516,266.2188 Q364.7188,266.5469 364.2266,267.2969 Q363.7344,268.0469 363.7344,269.0781 L363.7344,270.1719 Q363.7344,271.4063 364.625,272.2266 Q365.5156,273.0469 367.1094,273.0469 Q368.0469,273.0469 368.7031,272.7969 Q369.0938,272.6406 369.5156,272.2031 Q369.7813,271.9375 369.9297,271.8594 Q370.0781,271.7813 370.2813,271.7813 Q370.6094,271.7813 370.8672,272.0391 Q371.125,272.2969 371.125,272.6406 Q371.125,272.9844 370.7813,273.3906 Q370.2813,273.9688 369.4844,274.2969 Q368.4063,274.75 367.1094,274.75 Q365.5938,274.75 364.3906,274.125 Q363.4063,273.625 362.7188,272.5547 Q362.0313,271.4844 362.0313,270.2031 L362.0313,269.0469 Q362.0313,267.7188 362.6484,266.5703 Q363.2656,265.4219 364.3594,264.8047 Q365.4531,264.1875 366.6875,264.1875 Q367.4219,264.1875 368.0703,264.3516 Q368.7188,264.5156 369.2656,264.875 Z "/><text fill="#000000" font-family="sans-serif" font-size="12" lengthAdjust="spacingAndGlyphs" textLength="79" x="380.5" y="273.9102">StartController</text><line style="stroke: #A80036; stroke-width: 1.5;" x1="352.5" x2="461.5" y1="285" y2="285"/><line style="stroke: #A80036; stroke-width: 1.5;" x1="352.5" x2="461.5" y1="293" y2="293"/><!--class mastermind.controllers.PlayController--><rect fill="#FEFECE" filter="url(#f1ko0zc24iyern)" height="48" id="mastermind.controllers.PlayController" style="stroke: #A80036; stroke-width: 1.5;" width="109" x="207.5" y="253"/><ellipse cx="222.5" cy="269" fill="#ADD1B2" rx="11" ry="11" style="stroke: #A80036; stroke-width: 1.0;"/><path d="M225.2656,264.875 Q225.4219,264.6563 225.6094,264.5469 Q225.7969,264.4375 226.0156,264.4375 Q226.3906,264.4375 226.625,264.6953 Q226.8594,264.9531 226.8594,265.5625 L226.8594,267.0156 Q226.8594,267.625 226.625,267.8906 Q226.3906,268.1563 226.0156,268.1563 Q225.6719,268.1563 225.4688,267.9531 Q225.2656,267.7656 225.1563,267.25 Q225.1094,266.8906 224.9219,266.7031 Q224.5938,266.3281 223.9844,266.1094 Q223.375,265.8906 222.75,265.8906 Q221.9844,265.8906 221.3516,266.2188 Q220.7188,266.5469 220.2266,267.2969 Q219.7344,268.0469 219.7344,269.0781 L219.7344,270.1719 Q219.7344,271.4063 220.625,272.2266 Q221.5156,273.0469 223.1094,273.0469 Q224.0469,273.0469 224.7031,272.7969 Q225.0938,272.6406 225.5156,272.2031 Q225.7813,271.9375 225.9297,271.8594 Q226.0781,271.7813 226.2813,271.7813 Q226.6094,271.7813 226.8672,272.0391 Q227.125,272.2969 227.125,272.6406 Q227.125,272.9844 226.7813,273.3906 Q226.2813,273.9688 225.4844,274.2969 Q224.4063,274.75 223.1094,274.75 Q221.5938,274.75 220.3906,274.125 Q219.4063,273.625 218.7188,272.5547 Q218.0313,271.4844 218.0313,270.2031 L218.0313,269.0469 Q218.0313,267.7188 218.6484,266.5703 Q219.2656,265.4219 220.3594,264.8047 Q221.4531,264.1875 222.6875,264.1875 Q223.4219,264.1875 224.0703,264.3516 Q224.7188,264.5156 225.2656,264.875 Z "/><text fill="#000000" font-family="sans-serif" font-size="12" lengthAdjust="spacingAndGlyphs" textLength="77" x="236.5" y="273.9102">PlayController</text><line style="stroke: #A80036; stroke-width: 1.5;" x1="208.5" x2="315.5" y1="285" y2="285"/><line style="stroke: #A80036; stroke-width: 1.5;" x1="208.5" x2="315.5" y1="293" y2="293"/><!--class mastermind.controllers.ResumeController--><rect fill="#FEFECE" filter="url(#f1ko0zc24iyern)" height="48" id="mastermind.controllers.ResumeController" style="stroke: #A80036; stroke-width: 1.5;" width="134" x="38" y="253"/><ellipse cx="53" cy="269" fill="#ADD1B2" rx="11" ry="11" style="stroke: #A80036; stroke-width: 1.0;"/><path d="M55.7656,264.875 Q55.9219,264.6563 56.1094,264.5469 Q56.2969,264.4375 56.5156,264.4375 Q56.8906,264.4375 57.125,264.6953 Q57.3594,264.9531 57.3594,265.5625 L57.3594,267.0156 Q57.3594,267.625 57.125,267.8906 Q56.8906,268.1563 56.5156,268.1563 Q56.1719,268.1563 55.9688,267.9531 Q55.7656,267.7656 55.6563,267.25 Q55.6094,266.8906 55.4219,266.7031 Q55.0938,266.3281 54.4844,266.1094 Q53.875,265.8906 53.25,265.8906 Q52.4844,265.8906 51.8516,266.2188 Q51.2188,266.5469 50.7266,267.2969 Q50.2344,268.0469 50.2344,269.0781 L50.2344,270.1719 Q50.2344,271.4063 51.125,272.2266 Q52.0156,273.0469 53.6094,273.0469 Q54.5469,273.0469 55.2031,272.7969 Q55.5938,272.6406 56.0156,272.2031 Q56.2813,271.9375 56.4297,271.8594 Q56.5781,271.7813 56.7813,271.7813 Q57.1094,271.7813 57.3672,272.0391 Q57.625,272.2969 57.625,272.6406 Q57.625,272.9844 57.2813,273.3906 Q56.7813,273.9688 55.9844,274.2969 Q54.9063,274.75 53.6094,274.75 Q52.0938,274.75 50.8906,274.125 Q49.9063,273.625 49.2188,272.5547 Q48.5313,271.4844 48.5313,270.2031 L48.5313,269.0469 Q48.5313,267.7188 49.1484,266.5703 Q49.7656,265.4219 50.8594,264.8047 Q51.9531,264.1875 53.1875,264.1875 Q53.9219,264.1875 54.5703,264.3516 Q55.2188,264.5156 55.7656,264.875 Z "/><text fill="#000000" font-family="sans-serif" font-size="12" lengthAdjust="spacingAndGlyphs" textLength="102" x="67" y="273.9102">ResumeController</text><line style="stroke: #A80036; stroke-width: 1.5;" x1="39" x2="171" y1="285" y2="285"/><line style="stroke: #A80036; stroke-width: 1.5;" x1="39" x2="171" y1="293" y2="293"/><!--class mastermind.models.Session--><rect fill="#FEFECE" filter="url(#f1ko0zc24iyern)" height="48" id="mastermind.models.Session" style="stroke: #A80036; stroke-width: 1.5;" width="78" x="767" y="253"/><ellipse cx="782" cy="269" fill="#ADD1B2" rx="11" ry="11" style="stroke: #A80036; stroke-width: 1.0;"/><path d="M784.7656,264.875 Q784.9219,264.6563 785.1094,264.5469 Q785.2969,264.4375 785.5156,264.4375 Q785.8906,264.4375 786.125,264.6953 Q786.3594,264.9531 786.3594,265.5625 L786.3594,267.0156 Q786.3594,267.625 786.125,267.8906 Q785.8906,268.1563 785.5156,268.1563 Q785.1719,268.1563 784.9688,267.9531 Q784.7656,267.7656 784.6563,267.25 Q784.6094,266.8906 784.4219,266.7031 Q784.0938,266.3281 783.4844,266.1094 Q782.875,265.8906 782.25,265.8906 Q781.4844,265.8906 780.8516,266.2188 Q780.2188,266.5469 779.7266,267.2969 Q779.2344,268.0469 779.2344,269.0781 L779.2344,270.1719 Q779.2344,271.4063 780.125,272.2266 Q781.0156,273.0469 782.6094,273.0469 Q783.5469,273.0469 784.2031,272.7969 Q784.5938,272.6406 785.0156,272.2031 Q785.2813,271.9375 785.4297,271.8594 Q785.5781,271.7813 785.7813,271.7813 Q786.1094,271.7813 786.3672,272.0391 Q786.625,272.2969 786.625,272.6406 Q786.625,272.9844 786.2813,273.3906 Q785.7813,273.9688 784.9844,274.2969 Q783.9063,274.75 782.6094,274.75 Q781.0938,274.75 779.8906,274.125 Q778.9063,273.625 778.2188,272.5547 Q777.5313,271.4844 777.5313,270.2031 L777.5313,269.0469 Q777.5313,267.7188 778.1484,266.5703 Q778.7656,265.4219 779.8594,264.8047 Q780.9531,264.1875 782.1875,264.1875 Q782.9219,264.1875 783.5703,264.3516 Q784.2188,264.5156 784.7656,264.875 Z "/><text fill="#000000" font-family="sans-serif" font-size="12" lengthAdjust="spacingAndGlyphs" textLength="46" x="796" y="273.9102">Session</text><line style="stroke: #A80036; stroke-width: 1.5;" x1="768" x2="844" y1="285" y2="285"/><line style="stroke: #A80036; stroke-width: 1.5;" x1="768" x2="844" y1="293" y2="293"/><!--class mastermind.models.StateValue--><rect fill="#FEFECE" filter="url(#f1ko0zc24iyern)" height="48" id="mastermind.models.StateValue" style="stroke: #A80036; stroke-width: 1.5;" width="91" x="640.5" y="253"/><ellipse cx="655.5" cy="269" fill="#ADD1B2" rx="11" ry="11" style="stroke: #A80036; stroke-width: 1.0;"/><path d="M658.2656,264.875 Q658.4219,264.6563 658.6094,264.5469 Q658.7969,264.4375 659.0156,264.4375 Q659.3906,264.4375 659.625,264.6953 Q659.8594,264.9531 659.8594,265.5625 L659.8594,267.0156 Q659.8594,267.625 659.625,267.8906 Q659.3906,268.1563 659.0156,268.1563 Q658.6719,268.1563 658.4688,267.9531 Q658.2656,267.7656 658.1563,267.25 Q658.1094,266.8906 657.9219,266.7031 Q657.5938,266.3281 656.9844,266.1094 Q656.375,265.8906 655.75,265.8906 Q654.9844,265.8906 654.3516,266.2188 Q653.7188,266.5469 653.2266,267.2969 Q652.7344,268.0469 652.7344,269.0781 L652.7344,270.1719 Q652.7344,271.4063 653.625,272.2266 Q654.5156,273.0469 656.1094,273.0469 Q657.0469,273.0469 657.7031,272.7969 Q658.0938,272.6406 658.5156,272.2031 Q658.7813,271.9375 658.9297,271.8594 Q659.0781,271.7813 659.2813,271.7813 Q659.6094,271.7813 659.8672,272.0391 Q660.125,272.2969 660.125,272.6406 Q660.125,272.9844 659.7813,273.3906 Q659.2813,273.9688 658.4844,274.2969 Q657.4063,274.75 656.1094,274.75 Q654.5938,274.75 653.3906,274.125 Q652.4063,273.625 651.7188,272.5547 Q651.0313,271.4844 651.0313,270.2031 L651.0313,269.0469 Q651.0313,267.7188 651.6484,266.5703 Q652.2656,265.4219 653.3594,264.8047 Q654.4531,264.1875 655.6875,264.1875 Q656.4219,264.1875 657.0703,264.3516 Q657.7188,264.5156 658.2656,264.875 Z "/><text fill="#000000" font-family="sans-serif" font-size="12" lengthAdjust="spacingAndGlyphs" textLength="59" x="669.5" y="273.9102">StateValue</text><line style="stroke: #A80036; stroke-width: 1.5;" x1="641.5" x2="730.5" y1="285" y2="285"/><line style="stroke: #A80036; stroke-width: 1.5;" x1="641.5" x2="730.5" y1="293" y2="293"/><!--link mastermind.Mastermind to mastermind.controllers.Controller--><path d="M503.947,189.451 C511.474,207.034 519.244,225.182 525.712,240.2905 " fill="none" id="mastermind.Mastermind-mastermind.controllers.Controller" style="stroke: #A80036; stroke-width: 1.0;"/><polygon fill="#A80036" points="531.023,252.6945,531.1582,242.8466,529.0552,248.098,523.8038,245.995,531.023,252.6945" style="stroke: #A80036; stroke-width: 1.0;"/><line style="stroke: #A80036; stroke-width: 1.0;" x1="529.0552" x2="525.906" y1="248.098" y2="240.7437"/><polygon fill="#A80036" points="498.758,177.33,497.4428,184.4201,503.4817,188.3612,504.7969,181.271,498.758,177.33" style="stroke: #A80036; stroke-width: 1.0;"/><!--link mastermind.Mastermind to mastermind.models.Session--><path d="M594.051,143.227 C644.759,157.003 702.663,177.958 749,209 C762.114,217.785 773.93,230.399 783.359,242.3163 " fill="none" id="mastermind.Mastermind-mastermind.models.Session" style="stroke: #A80036; stroke-width: 1.0;"/><polygon fill="#A80036" points="791.315,252.9359,789.1199,243.3348,788.3171,248.9344,782.7175,248.1315,791.315,252.9359" style="stroke: #A80036; stroke-width: 1.0;"/><line style="stroke: #A80036; stroke-width: 1.0;" x1="788.3171" x2="783.5205" y1="248.9344" y2="242.532"/><polygon fill="#A80036" points="581.326,139.878,586.1104,145.2734,592.9308,142.9322,588.1465,137.5368,581.326,139.878" style="stroke: #A80036; stroke-width: 1.0;"/><!--link mastermind.Mastermind to mastermind.models.StateValue--><path d="M567.054,184.897 C578.209,192.942 589.397,201.11 600,209 C615.246,220.345 631.762,233.0971 646.206,244.4077 " fill="none" id="mastermind.Mastermind-mastermind.models.StateValue" style="stroke: #A80036; stroke-width: 1.0;"/><polygon fill="#A80036" points="656.793,252.7287,652.1886,244.0224,652.8618,249.639,647.2452,250.3123,656.793,252.7287" style="stroke: #A80036; stroke-width: 1.0;"/><line style="stroke: #A80036; stroke-width: 1.0;" x1="652.8618" x2="646.5725" y1="249.639" y2="244.6953"/><polygon fill="#A80036" points="556.39,177.233,558.9279,183.9828,566.1345,184.2361,563.5966,177.4864,556.39,177.233" style="stroke: #A80036; stroke-width: 1.0;"/><!--link mastermind.Mastermind to mastermind.controllers.StartController--><path d="M449.242,177.33 C438.933,201.411 427.436,228.266 419.042,247.8722 " fill="none" id="mastermind.Mastermind-mastermind.controllers.StartController" style="stroke: #A80036; stroke-width: 1.0; stroke-dasharray: 7.0,7.0;"/><polygon fill="#A80036" points="416.977,252.6945,424.1967,245.9956,418.9451,248.0981,416.8426,242.8466,416.977,252.6945" style="stroke: #A80036; stroke-width: 1.0;"/><!--link mastermind.Mastermind to mastermind.controllers.PlayController--><path d="M378.645,177.17 C363.391,187.325 348.025,198.135 334,209 C318.084,221.33 301.554,236.5163 288.354,249.3113 " fill="none" id="mastermind.Mastermind-mastermind.controllers.PlayController" style="stroke: #A80036; stroke-width: 1.0; stroke-dasharray: 7.0,7.0;"/><polygon fill="#A80036" points="284.722,252.8523,293.9579,249.4322,288.3015,249.3613,288.3724,243.7049,284.722,252.8523" style="stroke: #A80036; stroke-width: 1.0;"/><!--link mastermind.Mastermind to mastermind.controllers.ResumeController--><path d="M366.835,143.432 C312.043,158.077 245.411,179.699 190,209 C169.48,219.85 148.972,235.8301 133.242,249.4623 " fill="none" id="mastermind.Mastermind-mastermind.controllers.ResumeController" style="stroke: #A80036; stroke-width: 1.0; stroke-dasharray: 7.0,7.0;"/><polygon fill="#A80036" points="129.348,252.873,138.7531,249.9499,133.1085,249.5777,133.4807,243.9331,129.348,252.873" style="stroke: #A80036; stroke-width: 1.0;"/><!--
@startuml
class mastermind.Mastermind {
	-Session session
	-Map<StateValue,Controller> controllers
	-Mastermind()
	-void play()
	+{static}void main(String[] args)
}
mastermind.Mastermind *-down-> mastermind.controllers.Controller
mastermind.Mastermind *-down-> mastermind.models.Session
mastermind.Mastermind *-down-> mastermind.models.StateValue
mastermind.Mastermind ..> mastermind.controllers.StartController
mastermind.Mastermind ..> mastermind.controllers.PlayController
mastermind.Mastermind ..> mastermind.controllers.ResumeController
@enduml

PlantUML version 1.2019.05(Sat Apr 20 18:45:36 CEST 2019)
(GPL source distribution)
Java Runtime: OpenJDK Runtime Environment
JVM: OpenJDK 64-Bit Server VM
Java Version: 1.8.0_222-b10
Operating System: Windows 10
OS Version: 10.0
Default Encoding: windows-1252
Language: es
Country: ES
--></g></svg>