<?xml version="1.0" encoding="UTF-8" standalone="no"?><svg xmlns="http://www.w3.org/2000/svg" xmlns:xlink="http://www.w3.org/1999/xlink" contentScriptType="application/ecmascript" contentStyleType="text/css" height="562px" preserveAspectRatio="none" style="width:1755px;height:562px;" version="1.1" viewBox="0 0 1755 562" width="1755px" zoomAndPan="magnify"><defs><filter height="300%" id="fmnwsbiqau1sj" width="300%" x="-1" y="-1"><feGaussianBlur result="blurOut" stdDeviation="2.0"/><feColorMatrix in="blurOut" result="blurOut2" type="matrix" values="0 0 0 0 0 0 0 0 0 0 0 0 0 0 0 0 0 0 .4 0"/><feOffset dx="4.0" dy="4.0" in="blurOut2" result="blurOut3"/><feBlend in="SourceGraphic" in2="blurOut3" mode="normal"/></filter></defs><g><!--cluster mastermind.menus--><polygon fill="#FFFFFF" filter="url(#fmnwsbiqau1sj)" points="22,148,161,148,168,171.6094,1607,171.6094,1607,426,22,426,22,148" style="stroke: #000000; stroke-width: 1.5;"/><line style="stroke: #000000; stroke-width: 1.5;" x1="22" x2="168" y1="171.6094" y2="171.6094"/><text fill="#000000" font-family="sans-serif" font-size="14" font-weight="bold" lengthAdjust="spacingAndGlyphs" textLength="133" x="26" y="164.5332">mastermind.menus</text><!--cluster mastermind.utils--><polygon fill="#FFFFFF" filter="url(#fmnwsbiqau1sj)" points="970,24,1092,24,1099,47.6094,1191,47.6094,1191,124,970,124,970,24" style="stroke: #000000; stroke-width: 1.5;"/><line style="stroke: #000000; stroke-width: 1.5;" x1="970" x2="1099" y1="47.6094" y2="47.6094"/><text fill="#000000" font-family="sans-serif" font-size="14" font-weight="bold" lengthAdjust="spacingAndGlyphs" textLength="116" x="974" y="40.5332">mastermind.utils</text><!--cluster mastermind.controllers--><polygon fill="#FFFFFF" filter="url(#fmnwsbiqau1sj)" points="996,450,1165,450,1172,473.6094,1452,473.6094,1452,550,996,550,996,450" style="stroke: #000000; stroke-width: 1.5;"/><line style="stroke: #000000; stroke-width: 1.5;" x1="996" x2="1172" y1="473.6094" y2="473.6094"/><text fill="#000000" font-family="sans-serif" font-size="14" font-weight="bold" lengthAdjust="spacingAndGlyphs" textLength="163" x="1000" y="466.5332">mastermind.controllers</text><!--class mastermind.menus.Command--><rect fill="#FEFECE" filter="url(#fmnwsbiqau1sj)" height="75.6719" id="mastermind.menus.Command" style="stroke: #A80036; stroke-width: 1.5;" width="212" x="868" y="184"/><ellipse cx="940.25" cy="200" fill="#ADD1B2" rx="11" ry="11" style="stroke: #A80036; stroke-width: 1.0;"/><path d="M943.0156,195.875 Q943.1719,195.6563 943.3594,195.5469 Q943.5469,195.4375 943.7656,195.4375 Q944.1406,195.4375 944.375,195.6953 Q944.6094,195.9531 944.6094,196.5625 L944.6094,198.0156 Q944.6094,198.625 944.375,198.8906 Q944.1406,199.1563 943.7656,199.1563 Q943.4219,199.1563 943.2188,198.9531 Q943.0156,198.7656 942.9063,198.25 Q942.8594,197.8906 942.6719,197.7031 Q942.3438,197.3281 941.7344,197.1094 Q941.125,196.8906 940.5,196.8906 Q939.7344,196.8906 939.1016,197.2188 Q938.4688,197.5469 937.9766,198.2969 Q937.4844,199.0469 937.4844,200.0781 L937.4844,201.1719 Q937.4844,202.4063 938.375,203.2266 Q939.2656,204.0469 940.8594,204.0469 Q941.7969,204.0469 942.4531,203.7969 Q942.8438,203.6406 943.2656,203.2031 Q943.5313,202.9375 943.6797,202.8594 Q943.8281,202.7813 944.0313,202.7813 Q944.3594,202.7813 944.6172,203.0391 Q944.875,203.2969 944.875,203.6406 Q944.875,203.9844 944.5313,204.3906 Q944.0313,204.9688 943.2344,205.2969 Q942.1563,205.75 940.8594,205.75 Q939.3438,205.75 938.1406,205.125 Q937.1563,204.625 936.4688,203.5547 Q935.7813,202.4844 935.7813,201.2031 L935.7813,200.0469 Q935.7813,198.7188 936.3984,197.5703 Q937.0156,196.4219 938.1094,195.8047 Q939.2031,195.1875 940.4375,195.1875 Q941.1719,195.1875 941.8203,195.3516 Q942.4688,195.5156 943.0156,195.875 Z "/><text fill="#000000" font-family="sans-serif" font-size="12" lengthAdjust="spacingAndGlyphs" textLength="59" x="960.75" y="204.9102">Command</text><line style="stroke: #A80036; stroke-width: 1.5;" x1="869" x2="1079" y1="216" y2="216"/><polygon fill="none" points="879,223.418,883,227.418,879,231.418,875,227.418" style="stroke: #B38D22; stroke-width: 1.0;"/><text fill="#000000" font-family="sans-serif" font-size="11" lengthAdjust="spacingAndGlyphs" textLength="186" x="888" y="231.4189">acceptorController: AcceptorController</text><line style="stroke: #A80036; stroke-width: 1.5;" x1="869" x2="1079" y1="237.8359" y2="237.8359"/><polygon fill="#FFFF44" points="879,245.2539,883,249.2539,879,253.2539,875,249.2539" style="stroke: #B38D22; stroke-width: 1.0;"/><text fill="#000000" font-family="sans-serif" font-size="11" lengthAdjust="spacingAndGlyphs" textLength="180" x="888" y="253.2549">Command(AcceptorController, String)</text><!--class mastermind.menus.ExitCommand--><rect fill="#FEFECE" filter="url(#fmnwsbiqau1sj)" height="89.5078" id="mastermind.menus.ExitCommand" style="stroke: #A80036; stroke-width: 1.5;" width="164" x="38" y="320"/><ellipse cx="77.3" cy="336" fill="#ADD1B2" rx="11" ry="11" style="stroke: #A80036; stroke-width: 1.0;"/><path d="M80.0656,331.875 Q80.2219,331.6563 80.4094,331.5469 Q80.5969,331.4375 80.8156,331.4375 Q81.1906,331.4375 81.425,331.6953 Q81.6594,331.9531 81.6594,332.5625 L81.6594,334.0156 Q81.6594,334.625 81.425,334.8906 Q81.1906,335.1563 80.8156,335.1563 Q80.4719,335.1563 80.2688,334.9531 Q80.0656,334.7656 79.9563,334.25 Q79.9094,333.8906 79.7219,333.7031 Q79.3938,333.3281 78.7844,333.1094 Q78.175,332.8906 77.55,332.8906 Q76.7844,332.8906 76.1516,333.2188 Q75.5188,333.5469 75.0266,334.2969 Q74.5344,335.0469 74.5344,336.0781 L74.5344,337.1719 Q74.5344,338.4063 75.425,339.2266 Q76.3156,340.0469 77.9094,340.0469 Q78.8469,340.0469 79.5031,339.7969 Q79.8938,339.6406 80.3156,339.2031 Q80.5813,338.9375 80.7297,338.8594 Q80.8781,338.7813 81.0813,338.7813 Q81.4094,338.7813 81.6672,339.0391 Q81.925,339.2969 81.925,339.6406 Q81.925,339.9844 81.5813,340.3906 Q81.0813,340.9688 80.2844,341.2969 Q79.2063,341.75 77.9094,341.75 Q76.3938,341.75 75.1906,341.125 Q74.2063,340.625 73.5188,339.5547 Q72.8313,338.4844 72.8313,337.2031 L72.8313,336.0469 Q72.8313,334.7188 73.4484,333.5703 Q74.0656,332.4219 75.1594,331.8047 Q76.2531,331.1875 77.4875,331.1875 Q78.2219,331.1875 78.8703,331.3516 Q79.5188,331.5156 80.0656,331.875 Z "/><text fill="#000000" font-family="sans-serif" font-size="12" lengthAdjust="spacingAndGlyphs" textLength="78" x="96.7" y="340.9102">ExitCommand</text><line style="stroke: #A80036; stroke-width: 1.5;" x1="39" x2="201" y1="352" y2="352"/><line style="stroke: #A80036; stroke-width: 1.5;" x1="39" x2="201" y1="360" y2="360"/><polygon fill="#FFFF44" points="49,367.418,53,371.418,49,375.418,45,371.418" style="stroke: #B38D22; stroke-width: 1.0;"/><text fill="#000000" font-family="sans-serif" font-size="11" lengthAdjust="spacingAndGlyphs" textLength="138" x="58" y="375.4189">ExitCommand(PlayController)</text><polygon fill="#FFFF44" points="49,381.2539,53,385.2539,49,389.2539,45,385.2539" style="stroke: #B38D22; stroke-width: 1.0;"/><text fill="#000000" font-family="sans-serif" font-size="11" lengthAdjust="spacingAndGlyphs" textLength="73" x="58" y="389.2549">execute(): void</text><polygon fill="#FFFF44" points="49,395.0898,53,399.0898,49,403.0898,45,399.0898" style="stroke: #B38D22; stroke-width: 1.0;"/><text fill="#000000" font-family="sans-serif" font-size="11" lengthAdjust="spacingAndGlyphs" textLength="91" x="58" y="403.0908">isActive(): boolean</text><!--class mastermind.menus.GameSelectCommand--><rect fill="#FEFECE" filter="url(#fmnwsbiqau1sj)" height="89.5078" id="mastermind.menus.GameSelectCommand" style="stroke: #A80036; stroke-width: 1.5;" width="242" x="1349" y="320"/><ellipse cx="1402.25" cy="336" fill="#ADD1B2" rx="11" ry="11" style="stroke: #A80036; stroke-width: 1.0;"/><path d="M1405.0156,331.875 Q1405.1719,331.6563 1405.3594,331.5469 Q1405.5469,331.4375 1405.7656,331.4375 Q1406.1406,331.4375 1406.375,331.6953 Q1406.6094,331.9531 1406.6094,332.5625 L1406.6094,334.0156 Q1406.6094,334.625 1406.375,334.8906 Q1406.1406,335.1563 1405.7656,335.1563 Q1405.4219,335.1563 1405.2188,334.9531 Q1405.0156,334.7656 1404.9063,334.25 Q1404.8594,333.8906 1404.6719,333.7031 Q1404.3438,333.3281 1403.7344,333.1094 Q1403.125,332.8906 1402.5,332.8906 Q1401.7344,332.8906 1401.1016,333.2188 Q1400.4688,333.5469 1399.9766,334.2969 Q1399.4844,335.0469 1399.4844,336.0781 L1399.4844,337.1719 Q1399.4844,338.4063 1400.375,339.2266 Q1401.2656,340.0469 1402.8594,340.0469 Q1403.7969,340.0469 1404.4531,339.7969 Q1404.8438,339.6406 1405.2656,339.2031 Q1405.5313,338.9375 1405.6797,338.8594 Q1405.8281,338.7813 1406.0313,338.7813 Q1406.3594,338.7813 1406.6172,339.0391 Q1406.875,339.2969 1406.875,339.6406 Q1406.875,339.9844 1406.5313,340.3906 Q1406.0313,340.9688 1405.2344,341.2969 Q1404.1563,341.75 1402.8594,341.75 Q1401.3438,341.75 1400.1406,341.125 Q1399.1563,340.625 1398.4688,339.5547 Q1397.7813,338.4844 1397.7813,337.2031 L1397.7813,336.0469 Q1397.7813,334.7188 1398.3984,333.5703 Q1399.0156,332.4219 1400.1094,331.8047 Q1401.2031,331.1875 1402.4375,331.1875 Q1403.1719,331.1875 1403.8203,331.3516 Q1404.4688,331.5156 1405.0156,331.875 Z "/><text fill="#000000" font-family="sans-serif" font-size="12" lengthAdjust="spacingAndGlyphs" textLength="127" x="1422.75" y="340.9102">GameSelectCommand</text><line style="stroke: #A80036; stroke-width: 1.5;" x1="1350" x2="1590" y1="352" y2="352"/><line style="stroke: #A80036; stroke-width: 1.5;" x1="1350" x2="1590" y1="360" y2="360"/><polygon fill="#FFFF44" points="1360,367.418,1364,371.418,1360,375.418,1356,371.418" style="stroke: #B38D22; stroke-width: 1.0;"/><text fill="#000000" font-family="sans-serif" font-size="11" lengthAdjust="spacingAndGlyphs" textLength="216" x="1369" y="375.4189">GameSelectCommand(StartController, String)</text><polygon fill="#FFFF44" points="1360,381.2539,1364,385.2539,1360,389.2539,1356,385.2539" style="stroke: #B38D22; stroke-width: 1.0;"/><text fill="#000000" font-family="sans-serif" font-size="11" lengthAdjust="spacingAndGlyphs" textLength="73" x="1369" y="389.2549">execute(): void</text><polygon fill="#FFFF44" points="1360,395.0898,1364,399.0898,1360,403.0898,1356,399.0898" style="stroke: #B38D22; stroke-width: 1.0;"/><text fill="#000000" font-family="sans-serif" font-size="11" lengthAdjust="spacingAndGlyphs" textLength="91" x="1369" y="403.0908">isActive(): boolean</text><!--class mastermind.menus.GameSelectMenu--><rect fill="#FEFECE" filter="url(#fmnwsbiqau1sj)" height="61.8359" id="mastermind.menus.GameSelectMenu" style="stroke: #A80036; stroke-width: 1.5;" width="187" x="1376.5" y="191"/><ellipse cx="1417.15" cy="207" fill="#ADD1B2" rx="11" ry="11" style="stroke: #A80036; stroke-width: 1.0;"/><path d="M1419.9156,202.875 Q1420.0719,202.6563 1420.2594,202.5469 Q1420.4469,202.4375 1420.6656,202.4375 Q1421.0406,202.4375 1421.275,202.6953 Q1421.5094,202.9531 1421.5094,203.5625 L1421.5094,205.0156 Q1421.5094,205.625 1421.275,205.8906 Q1421.0406,206.1563 1420.6656,206.1563 Q1420.3219,206.1563 1420.1188,205.9531 Q1419.9156,205.7656 1419.8063,205.25 Q1419.7594,204.8906 1419.5719,204.7031 Q1419.2438,204.3281 1418.6344,204.1094 Q1418.025,203.8906 1417.4,203.8906 Q1416.6344,203.8906 1416.0016,204.2188 Q1415.3688,204.5469 1414.8766,205.2969 Q1414.3844,206.0469 1414.3844,207.0781 L1414.3844,208.1719 Q1414.3844,209.4063 1415.275,210.2266 Q1416.1656,211.0469 1417.7594,211.0469 Q1418.6969,211.0469 1419.3531,210.7969 Q1419.7438,210.6406 1420.1656,210.2031 Q1420.4313,209.9375 1420.5797,209.8594 Q1420.7281,209.7813 1420.9313,209.7813 Q1421.2594,209.7813 1421.5172,210.0391 Q1421.775,210.2969 1421.775,210.6406 Q1421.775,210.9844 1421.4313,211.3906 Q1420.9313,211.9688 1420.1344,212.2969 Q1419.0563,212.75 1417.7594,212.75 Q1416.2438,212.75 1415.0406,212.125 Q1414.0563,211.625 1413.3688,210.5547 Q1412.6813,209.4844 1412.6813,208.2031 L1412.6813,207.0469 Q1412.6813,205.7188 1413.2984,204.5703 Q1413.9156,203.4219 1415.0094,202.8047 Q1416.1031,202.1875 1417.3375,202.1875 Q1418.0719,202.1875 1418.7203,202.3516 Q1419.3688,202.5156 1419.9156,202.875 Z "/><text fill="#000000" font-family="sans-serif" font-size="12" lengthAdjust="spacingAndGlyphs" textLength="98" x="1436.85" y="211.9102">GameSelectMenu</text><line style="stroke: #A80036; stroke-width: 1.5;" x1="1377.5" x2="1562.5" y1="223" y2="223"/><line style="stroke: #A80036; stroke-width: 1.5;" x1="1377.5" x2="1562.5" y1="231" y2="231"/><polygon fill="#4177AF" points="1387.5,239.418,1383.5,245.418,1391.5,245.418" style="stroke: #1963A0; stroke-width: 1.0;"/><text fill="#000000" font-family="sans-serif" font-size="11" lengthAdjust="spacingAndGlyphs" textLength="161" x="1396.5" y="246.4189">GameSelectMenu(StartController)</text><!--class mastermind.menus.NewGameCommand--><rect fill="#FEFECE" filter="url(#fmnwsbiqau1sj)" height="89.5078" id="mastermind.menus.NewGameCommand" style="stroke: #A80036; stroke-width: 1.5;" width="201" x="873.5" y="320"/><ellipse cx="911.45" cy="336" fill="#ADD1B2" rx="11" ry="11" style="stroke: #A80036; stroke-width: 1.0;"/><path d="M914.2156,331.875 Q914.3719,331.6563 914.5594,331.5469 Q914.7469,331.4375 914.9656,331.4375 Q915.3406,331.4375 915.575,331.6953 Q915.8094,331.9531 915.8094,332.5625 L915.8094,334.0156 Q915.8094,334.625 915.575,334.8906 Q915.3406,335.1563 914.9656,335.1563 Q914.6219,335.1563 914.4188,334.9531 Q914.2156,334.7656 914.1063,334.25 Q914.0594,333.8906 913.8719,333.7031 Q913.5438,333.3281 912.9344,333.1094 Q912.325,332.8906 911.7,332.8906 Q910.9344,332.8906 910.3016,333.2188 Q909.6688,333.5469 909.1766,334.2969 Q908.6844,335.0469 908.6844,336.0781 L908.6844,337.1719 Q908.6844,338.4063 909.575,339.2266 Q910.4656,340.0469 912.0594,340.0469 Q912.9969,340.0469 913.6531,339.7969 Q914.0438,339.6406 914.4656,339.2031 Q914.7313,338.9375 914.8797,338.8594 Q915.0281,338.7813 915.2313,338.7813 Q915.5594,338.7813 915.8172,339.0391 Q916.075,339.2969 916.075,339.6406 Q916.075,339.9844 915.7313,340.3906 Q915.2313,340.9688 914.4344,341.2969 Q913.3563,341.75 912.0594,341.75 Q910.5438,341.75 909.3406,341.125 Q908.3563,340.625 907.6688,339.5547 Q906.9813,338.4844 906.9813,337.2031 L906.9813,336.0469 Q906.9813,334.7188 907.5984,333.5703 Q908.2156,332.4219 909.3094,331.8047 Q910.4031,331.1875 911.6375,331.1875 Q912.3719,331.1875 913.0203,331.3516 Q913.6688,331.5156 914.2156,331.875 Z "/><text fill="#000000" font-family="sans-serif" font-size="12" lengthAdjust="spacingAndGlyphs" textLength="118" x="930.55" y="340.9102">NewGameCommand</text><line style="stroke: #A80036; stroke-width: 1.5;" x1="874.5" x2="1073.5" y1="352" y2="352"/><line style="stroke: #A80036; stroke-width: 1.5;" x1="874.5" x2="1073.5" y1="360" y2="360"/><polygon fill="#FFFF44" points="884.5,367.418,888.5,371.418,884.5,375.418,880.5,371.418" style="stroke: #B38D22; stroke-width: 1.0;"/><text fill="#000000" font-family="sans-serif" font-size="11" lengthAdjust="spacingAndGlyphs" textLength="175" x="893.5" y="375.4189">NewGameCommand(StartController)</text><polygon fill="#FFFF44" points="884.5,381.2539,888.5,385.2539,884.5,389.2539,880.5,385.2539" style="stroke: #B38D22; stroke-width: 1.0;"/><text fill="#000000" font-family="sans-serif" font-size="11" lengthAdjust="spacingAndGlyphs" textLength="73" x="893.5" y="389.2549">execute(): void</text><polygon fill="#FFFF44" points="884.5,395.0898,888.5,399.0898,884.5,403.0898,880.5,399.0898" style="stroke: #B38D22; stroke-width: 1.0;"/><text fill="#000000" font-family="sans-serif" font-size="11" lengthAdjust="spacingAndGlyphs" textLength="91" x="893.5" y="403.0908">isActive(): boolean</text><!--class mastermind.menus.OpenGameCommand--><rect fill="#FEFECE" filter="url(#fmnwsbiqau1sj)" height="89.5078" id="mastermind.menus.OpenGameCommand" style="stroke: #A80036; stroke-width: 1.5;" width="204" x="1110" y="320"/><ellipse cx="1147.05" cy="336" fill="#ADD1B2" rx="11" ry="11" style="stroke: #A80036; stroke-width: 1.0;"/><path d="M1149.8156,331.875 Q1149.9719,331.6563 1150.1594,331.5469 Q1150.3469,331.4375 1150.5656,331.4375 Q1150.9406,331.4375 1151.175,331.6953 Q1151.4094,331.9531 1151.4094,332.5625 L1151.4094,334.0156 Q1151.4094,334.625 1151.175,334.8906 Q1150.9406,335.1563 1150.5656,335.1563 Q1150.2219,335.1563 1150.0188,334.9531 Q1149.8156,334.7656 1149.7063,334.25 Q1149.6594,333.8906 1149.4719,333.7031 Q1149.1438,333.3281 1148.5344,333.1094 Q1147.925,332.8906 1147.3,332.8906 Q1146.5344,332.8906 1145.9016,333.2188 Q1145.2688,333.5469 1144.7766,334.2969 Q1144.2844,335.0469 1144.2844,336.0781 L1144.2844,337.1719 Q1144.2844,338.4063 1145.175,339.2266 Q1146.0656,340.0469 1147.6594,340.0469 Q1148.5969,340.0469 1149.2531,339.7969 Q1149.6438,339.6406 1150.0656,339.2031 Q1150.3313,338.9375 1150.4797,338.8594 Q1150.6281,338.7813 1150.8313,338.7813 Q1151.1594,338.7813 1151.4172,339.0391 Q1151.675,339.2969 1151.675,339.6406 Q1151.675,339.9844 1151.3313,340.3906 Q1150.8313,340.9688 1150.0344,341.2969 Q1148.9563,341.75 1147.6594,341.75 Q1146.1438,341.75 1144.9406,341.125 Q1143.9563,340.625 1143.2688,339.5547 Q1142.5813,338.4844 1142.5813,337.2031 L1142.5813,336.0469 Q1142.5813,334.7188 1143.1984,333.5703 Q1143.8156,332.4219 1144.9094,331.8047 Q1146.0031,331.1875 1147.2375,331.1875 Q1147.9719,331.1875 1148.6203,331.3516 Q1149.2688,331.5156 1149.8156,331.875 Z "/><text fill="#000000" font-family="sans-serif" font-size="12" lengthAdjust="spacingAndGlyphs" textLength="123" x="1165.95" y="340.9102">OpenGameCommand</text><line style="stroke: #A80036; stroke-width: 1.5;" x1="1111" x2="1313" y1="352" y2="352"/><line style="stroke: #A80036; stroke-width: 1.5;" x1="1111" x2="1313" y1="360" y2="360"/><polygon fill="#FFFF44" points="1121,367.418,1125,371.418,1121,375.418,1117,371.418" style="stroke: #B38D22; stroke-width: 1.0;"/><text fill="#000000" font-family="sans-serif" font-size="11" lengthAdjust="spacingAndGlyphs" textLength="178" x="1130" y="375.4189">OpenGameCommand(StartController)</text><polygon fill="#FFFF44" points="1121,381.2539,1125,385.2539,1121,389.2539,1117,385.2539" style="stroke: #B38D22; stroke-width: 1.0;"/><text fill="#000000" font-family="sans-serif" font-size="11" lengthAdjust="spacingAndGlyphs" textLength="73" x="1130" y="389.2549">execute(): void</text><polygon fill="#FFFF44" points="1121,395.0898,1125,399.0898,1121,403.0898,1117,399.0898" style="stroke: #B38D22; stroke-width: 1.0;"/><text fill="#000000" font-family="sans-serif" font-size="11" lengthAdjust="spacingAndGlyphs" textLength="91" x="1130" y="403.0908">isActive(): boolean</text><!--class mastermind.menus.PlayMenu--><rect fill="#FEFECE" filter="url(#fmnwsbiqau1sj)" height="61.8359" id="mastermind.menus.PlayMenu" style="stroke: #A80036; stroke-width: 1.5;" width="146" x="565" y="191"/><ellipse cx="607.45" cy="207" fill="#ADD1B2" rx="11" ry="11" style="stroke: #A80036; stroke-width: 1.0;"/><path d="M610.2156,202.875 Q610.3719,202.6563 610.5594,202.5469 Q610.7469,202.4375 610.9656,202.4375 Q611.3406,202.4375 611.575,202.6953 Q611.8094,202.9531 611.8094,203.5625 L611.8094,205.0156 Q611.8094,205.625 611.575,205.8906 Q611.3406,206.1563 610.9656,206.1563 Q610.6219,206.1563 610.4188,205.9531 Q610.2156,205.7656 610.1063,205.25 Q610.0594,204.8906 609.8719,204.7031 Q609.5438,204.3281 608.9344,204.1094 Q608.325,203.8906 607.7,203.8906 Q606.9344,203.8906 606.3016,204.2188 Q605.6688,204.5469 605.1766,205.2969 Q604.6844,206.0469 604.6844,207.0781 L604.6844,208.1719 Q604.6844,209.4063 605.575,210.2266 Q606.4656,211.0469 608.0594,211.0469 Q608.9969,211.0469 609.6531,210.7969 Q610.0438,210.6406 610.4656,210.2031 Q610.7313,209.9375 610.8797,209.8594 Q611.0281,209.7813 611.2313,209.7813 Q611.5594,209.7813 611.8172,210.0391 Q612.075,210.2969 612.075,210.6406 Q612.075,210.9844 611.7313,211.3906 Q611.2313,211.9688 610.4344,212.2969 Q609.3563,212.75 608.0594,212.75 Q606.5438,212.75 605.3406,212.125 Q604.3563,211.625 603.6688,210.5547 Q602.9813,209.4844 602.9813,208.2031 L602.9813,207.0469 Q602.9813,205.7188 603.5984,204.5703 Q604.2156,203.4219 605.3094,202.8047 Q606.4031,202.1875 607.6375,202.1875 Q608.3719,202.1875 609.0203,202.3516 Q609.6688,202.5156 610.2156,202.875 Z "/><text fill="#000000" font-family="sans-serif" font-size="12" lengthAdjust="spacingAndGlyphs" textLength="53" x="627.55" y="211.9102">PlayMenu</text><line style="stroke: #A80036; stroke-width: 1.5;" x1="566" x2="710" y1="223" y2="223"/><line style="stroke: #A80036; stroke-width: 1.5;" x1="566" x2="710" y1="231" y2="231"/><ellipse cx="576" cy="243.418" fill="#84BE84" rx="3" ry="3" style="stroke: #038048; stroke-width: 1.0;"/><text fill="#000000" font-family="sans-serif" font-size="11" lengthAdjust="spacingAndGlyphs" textLength="120" x="585" y="246.4189">PlayMenu(PlayController)</text><!--class mastermind.menus.RedoCommand--><rect fill="#FEFECE" filter="url(#fmnwsbiqau1sj)" height="89.5078" id="mastermind.menus.RedoCommand" style="stroke: #A80036; stroke-width: 1.5;" width="172" x="237" y="320"/><ellipse cx="274.95" cy="336" fill="#ADD1B2" rx="11" ry="11" style="stroke: #A80036; stroke-width: 1.0;"/><path d="M277.7156,331.875 Q277.8719,331.6563 278.0594,331.5469 Q278.2469,331.4375 278.4656,331.4375 Q278.8406,331.4375 279.075,331.6953 Q279.3094,331.9531 279.3094,332.5625 L279.3094,334.0156 Q279.3094,334.625 279.075,334.8906 Q278.8406,335.1563 278.4656,335.1563 Q278.1219,335.1563 277.9188,334.9531 Q277.7156,334.7656 277.6063,334.25 Q277.5594,333.8906 277.3719,333.7031 Q277.0438,333.3281 276.4344,333.1094 Q275.825,332.8906 275.2,332.8906 Q274.4344,332.8906 273.8016,333.2188 Q273.1688,333.5469 272.6766,334.2969 Q272.1844,335.0469 272.1844,336.0781 L272.1844,337.1719 Q272.1844,338.4063 273.075,339.2266 Q273.9656,340.0469 275.5594,340.0469 Q276.4969,340.0469 277.1531,339.7969 Q277.5438,339.6406 277.9656,339.2031 Q278.2313,338.9375 278.3797,338.8594 Q278.5281,338.7813 278.7313,338.7813 Q279.0594,338.7813 279.3172,339.0391 Q279.575,339.2969 279.575,339.6406 Q279.575,339.9844 279.2313,340.3906 Q278.7313,340.9688 277.9344,341.2969 Q276.8563,341.75 275.5594,341.75 Q274.0438,341.75 272.8406,341.125 Q271.8563,340.625 271.1688,339.5547 Q270.4813,338.4844 270.4813,337.2031 L270.4813,336.0469 Q270.4813,334.7188 271.0984,333.5703 Q271.7156,332.4219 272.8094,331.8047 Q273.9031,331.1875 275.1375,331.1875 Q275.8719,331.1875 276.5203,331.3516 Q277.1688,331.5156 277.7156,331.875 Z "/><text fill="#000000" font-family="sans-serif" font-size="12" lengthAdjust="spacingAndGlyphs" textLength="89" x="294.05" y="340.9102">RedoCommand</text><line style="stroke: #A80036; stroke-width: 1.5;" x1="238" x2="408" y1="352" y2="352"/><line style="stroke: #A80036; stroke-width: 1.5;" x1="238" x2="408" y1="360" y2="360"/><polygon fill="#4177AF" points="248,368.418,244,374.418,252,374.418" style="stroke: #1963A0; stroke-width: 1.0;"/><text fill="#000000" font-family="sans-serif" font-size="11" lengthAdjust="spacingAndGlyphs" textLength="146" x="257" y="375.4189">RedoCommand(PlayController)</text><polygon fill="#FFFF44" points="248,381.2539,252,385.2539,248,389.2539,244,385.2539" style="stroke: #B38D22; stroke-width: 1.0;"/><text fill="#000000" font-family="sans-serif" font-size="11" lengthAdjust="spacingAndGlyphs" textLength="73" x="257" y="389.2549">execute(): void</text><polygon fill="#FFFF44" points="248,395.0898,252,399.0898,248,403.0898,244,399.0898" style="stroke: #B38D22; stroke-width: 1.0;"/><text fill="#000000" font-family="sans-serif" font-size="11" lengthAdjust="spacingAndGlyphs" textLength="91" x="257" y="403.0908">isActive(): boolean</text><!--class mastermind.menus.UndoCommand--><rect fill="#FEFECE" filter="url(#fmnwsbiqau1sj)" height="89.5078" id="mastermind.menus.UndoCommand" style="stroke: #A80036; stroke-width: 1.5;" width="172" x="444" y="320"/><ellipse cx="481.95" cy="336" fill="#ADD1B2" rx="11" ry="11" style="stroke: #A80036; stroke-width: 1.0;"/><path d="M484.7156,331.875 Q484.8719,331.6563 485.0594,331.5469 Q485.2469,331.4375 485.4656,331.4375 Q485.8406,331.4375 486.075,331.6953 Q486.3094,331.9531 486.3094,332.5625 L486.3094,334.0156 Q486.3094,334.625 486.075,334.8906 Q485.8406,335.1563 485.4656,335.1563 Q485.1219,335.1563 484.9188,334.9531 Q484.7156,334.7656 484.6063,334.25 Q484.5594,333.8906 484.3719,333.7031 Q484.0438,333.3281 483.4344,333.1094 Q482.825,332.8906 482.2,332.8906 Q481.4344,332.8906 480.8016,333.2188 Q480.1688,333.5469 479.6766,334.2969 Q479.1844,335.0469 479.1844,336.0781 L479.1844,337.1719 Q479.1844,338.4063 480.075,339.2266 Q480.9656,340.0469 482.5594,340.0469 Q483.4969,340.0469 484.1531,339.7969 Q484.5438,339.6406 484.9656,339.2031 Q485.2313,338.9375 485.3797,338.8594 Q485.5281,338.7813 485.7313,338.7813 Q486.0594,338.7813 486.3172,339.0391 Q486.575,339.2969 486.575,339.6406 Q486.575,339.9844 486.2313,340.3906 Q485.7313,340.9688 484.9344,341.2969 Q483.8563,341.75 482.5594,341.75 Q481.0438,341.75 479.8406,341.125 Q478.8563,340.625 478.1688,339.5547 Q477.4813,338.4844 477.4813,337.2031 L477.4813,336.0469 Q477.4813,334.7188 478.0984,333.5703 Q478.7156,332.4219 479.8094,331.8047 Q480.9031,331.1875 482.1375,331.1875 Q482.8719,331.1875 483.5203,331.3516 Q484.1688,331.5156 484.7156,331.875 Z "/><text fill="#000000" font-family="sans-serif" font-size="12" lengthAdjust="spacingAndGlyphs" textLength="89" x="501.05" y="340.9102">UndoCommand</text><line style="stroke: #A80036; stroke-width: 1.5;" x1="445" x2="615" y1="352" y2="352"/><line style="stroke: #A80036; stroke-width: 1.5;" x1="445" x2="615" y1="360" y2="360"/><polygon fill="#4177AF" points="455,368.418,451,374.418,459,374.418" style="stroke: #1963A0; stroke-width: 1.0;"/><text fill="#000000" font-family="sans-serif" font-size="11" lengthAdjust="spacingAndGlyphs" textLength="146" x="464" y="375.4189">UndoCommand(PlayController)</text><polygon fill="#FFFF44" points="455,381.2539,459,385.2539,455,389.2539,451,385.2539" style="stroke: #B38D22; stroke-width: 1.0;"/><text fill="#000000" font-family="sans-serif" font-size="11" lengthAdjust="spacingAndGlyphs" textLength="73" x="464" y="389.2549">execute(): void</text><polygon fill="#FFFF44" points="455,395.0898,459,399.0898,455,403.0898,451,399.0898" style="stroke: #B38D22; stroke-width: 1.0;"/><text fill="#000000" font-family="sans-serif" font-size="11" lengthAdjust="spacingAndGlyphs" textLength="91" x="464" y="403.0908">isActive(): boolean</text><!--class mastermind.menus.ProposeCommand--><rect fill="#FEFECE" filter="url(#fmnwsbiqau1sj)" height="89.5078" id="mastermind.menus.ProposeCommand" style="stroke: #A80036; stroke-width: 1.5;" width="187" x="651.5" y="320"/><ellipse cx="688.55" cy="336" fill="#ADD1B2" rx="11" ry="11" style="stroke: #A80036; stroke-width: 1.0;"/><path d="M691.3156,331.875 Q691.4719,331.6563 691.6594,331.5469 Q691.8469,331.4375 692.0656,331.4375 Q692.4406,331.4375 692.675,331.6953 Q692.9094,331.9531 692.9094,332.5625 L692.9094,334.0156 Q692.9094,334.625 692.675,334.8906 Q692.4406,335.1563 692.0656,335.1563 Q691.7219,335.1563 691.5188,334.9531 Q691.3156,334.7656 691.2063,334.25 Q691.1594,333.8906 690.9719,333.7031 Q690.6438,333.3281 690.0344,333.1094 Q689.425,332.8906 688.8,332.8906 Q688.0344,332.8906 687.4016,333.2188 Q686.7688,333.5469 686.2766,334.2969 Q685.7844,335.0469 685.7844,336.0781 L685.7844,337.1719 Q685.7844,338.4063 686.675,339.2266 Q687.5656,340.0469 689.1594,340.0469 Q690.0969,340.0469 690.7531,339.7969 Q691.1438,339.6406 691.5656,339.2031 Q691.8313,338.9375 691.9797,338.8594 Q692.1281,338.7813 692.3313,338.7813 Q692.6594,338.7813 692.9172,339.0391 Q693.175,339.2969 693.175,339.6406 Q693.175,339.9844 692.8313,340.3906 Q692.3313,340.9688 691.5344,341.2969 Q690.4563,341.75 689.1594,341.75 Q687.6438,341.75 686.4406,341.125 Q685.4563,340.625 684.7688,339.5547 Q684.0813,338.4844 684.0813,337.2031 L684.0813,336.0469 Q684.0813,334.7188 684.6984,333.5703 Q685.3156,332.4219 686.4094,331.8047 Q687.5031,331.1875 688.7375,331.1875 Q689.4719,331.1875 690.1203,331.3516 Q690.7688,331.5156 691.3156,331.875 Z "/><text fill="#000000" font-family="sans-serif" font-size="12" lengthAdjust="spacingAndGlyphs" textLength="106" x="707.45" y="340.9102">ProposeCommand</text><line style="stroke: #A80036; stroke-width: 1.5;" x1="652.5" x2="837.5" y1="352" y2="352"/><line style="stroke: #A80036; stroke-width: 1.5;" x1="652.5" x2="837.5" y1="360" y2="360"/><polygon fill="#4177AF" points="662.5,368.418,658.5,374.418,666.5,374.418" style="stroke: #1963A0; stroke-width: 1.0;"/><text fill="#000000" font-family="sans-serif" font-size="11" lengthAdjust="spacingAndGlyphs" textLength="161" x="671.5" y="375.4189">ProposeCommand(PlayController)</text><polygon fill="#FFFF44" points="662.5,381.2539,666.5,385.2539,662.5,389.2539,658.5,385.2539" style="stroke: #B38D22; stroke-width: 1.0;"/><text fill="#000000" font-family="sans-serif" font-size="11" lengthAdjust="spacingAndGlyphs" textLength="73" x="671.5" y="389.2549">execute(): void</text><polygon fill="#FFFF44" points="662.5,395.0898,666.5,399.0898,662.5,403.0898,658.5,399.0898" style="stroke: #B38D22; stroke-width: 1.0;"/><text fill="#000000" font-family="sans-serif" font-size="11" lengthAdjust="spacingAndGlyphs" textLength="91" x="671.5" y="403.0908">isActive(): boolean</text><!--class mastermind.menus.StartMenu--><rect fill="#FEFECE" filter="url(#fmnwsbiqau1sj)" height="61.8359" id="mastermind.menus.StartMenu" style="stroke: #A80036; stroke-width: 1.5;" width="152" x="1126" y="191"/><ellipse cx="1170.25" cy="207" fill="#ADD1B2" rx="11" ry="11" style="stroke: #A80036; stroke-width: 1.0;"/><path d="M1173.0156,202.875 Q1173.1719,202.6563 1173.3594,202.5469 Q1173.5469,202.4375 1173.7656,202.4375 Q1174.1406,202.4375 1174.375,202.6953 Q1174.6094,202.9531 1174.6094,203.5625 L1174.6094,205.0156 Q1174.6094,205.625 1174.375,205.8906 Q1174.1406,206.1563 1173.7656,206.1563 Q1173.4219,206.1563 1173.2188,205.9531 Q1173.0156,205.7656 1172.9063,205.25 Q1172.8594,204.8906 1172.6719,204.7031 Q1172.3438,204.3281 1171.7344,204.1094 Q1171.125,203.8906 1170.5,203.8906 Q1169.7344,203.8906 1169.1016,204.2188 Q1168.4688,204.5469 1167.9766,205.2969 Q1167.4844,206.0469 1167.4844,207.0781 L1167.4844,208.1719 Q1167.4844,209.4063 1168.375,210.2266 Q1169.2656,211.0469 1170.8594,211.0469 Q1171.7969,211.0469 1172.4531,210.7969 Q1172.8438,210.6406 1173.2656,210.2031 Q1173.5313,209.9375 1173.6797,209.8594 Q1173.8281,209.7813 1174.0313,209.7813 Q1174.3594,209.7813 1174.6172,210.0391 Q1174.875,210.2969 1174.875,210.6406 Q1174.875,210.9844 1174.5313,211.3906 Q1174.0313,211.9688 1173.2344,212.2969 Q1172.1563,212.75 1170.8594,212.75 Q1169.3438,212.75 1168.1406,212.125 Q1167.1563,211.625 1166.4688,210.5547 Q1165.7813,209.4844 1165.7813,208.2031 L1165.7813,207.0469 Q1165.7813,205.7188 1166.3984,204.5703 Q1167.0156,203.4219 1168.1094,202.8047 Q1169.2031,202.1875 1170.4375,202.1875 Q1171.1719,202.1875 1171.8203,202.3516 Q1172.4688,202.5156 1173.0156,202.875 Z "/><text fill="#000000" font-family="sans-serif" font-size="12" lengthAdjust="spacingAndGlyphs" textLength="55" x="1190.75" y="211.9102">StartMenu</text><line style="stroke: #A80036; stroke-width: 1.5;" x1="1127" x2="1277" y1="223" y2="223"/><line style="stroke: #A80036; stroke-width: 1.5;" x1="1127" x2="1277" y1="231" y2="231"/><ellipse cx="1137" cy="243.418" fill="#84BE84" rx="3" ry="3" style="stroke: #038048; stroke-width: 1.0;"/><text fill="#000000" font-family="sans-serif" font-size="11" lengthAdjust="spacingAndGlyphs" textLength="126" x="1146" y="246.4189">StartMenu(StartController)</text><!--class mastermind.utils.Command--><rect fill="#FEFECE" filter="url(#fmnwsbiqau1sj)" height="48" id="mastermind.utils.Command" style="stroke: #A80036; stroke-width: 1.5;" width="91" x="986.5" y="60"/><ellipse cx="1001.5" cy="76" fill="#ADD1B2" rx="11" ry="11" style="stroke: #A80036; stroke-width: 1.0;"/><path d="M1004.2656,71.875 Q1004.4219,71.6563 1004.6094,71.5469 Q1004.7969,71.4375 1005.0156,71.4375 Q1005.3906,71.4375 1005.625,71.6953 Q1005.8594,71.9531 1005.8594,72.5625 L1005.8594,74.0156 Q1005.8594,74.625 1005.625,74.8906 Q1005.3906,75.1563 1005.0156,75.1563 Q1004.6719,75.1563 1004.4688,74.9531 Q1004.2656,74.7656 1004.1563,74.25 Q1004.1094,73.8906 1003.9219,73.7031 Q1003.5938,73.3281 1002.9844,73.1094 Q1002.375,72.8906 1001.75,72.8906 Q1000.9844,72.8906 1000.3516,73.2188 Q999.7188,73.5469 999.2266,74.2969 Q998.7344,75.0469 998.7344,76.0781 L998.7344,77.1719 Q998.7344,78.4063 999.625,79.2266 Q1000.5156,80.0469 1002.1094,80.0469 Q1003.0469,80.0469 1003.7031,79.7969 Q1004.0938,79.6406 1004.5156,79.2031 Q1004.7813,78.9375 1004.9297,78.8594 Q1005.0781,78.7813 1005.2813,78.7813 Q1005.6094,78.7813 1005.8672,79.0391 Q1006.125,79.2969 1006.125,79.6406 Q1006.125,79.9844 1005.7813,80.3906 Q1005.2813,80.9688 1004.4844,81.2969 Q1003.4063,81.75 1002.1094,81.75 Q1000.5938,81.75 999.3906,81.125 Q998.4063,80.625 997.7188,79.5547 Q997.0313,78.4844 997.0313,77.2031 L997.0313,76.0469 Q997.0313,74.7188 997.6484,73.5703 Q998.2656,72.4219 999.3594,71.8047 Q1000.4531,71.1875 1001.6875,71.1875 Q1002.4219,71.1875 1003.0703,71.3516 Q1003.7188,71.5156 1004.2656,71.875 Z "/><text fill="#000000" font-family="sans-serif" font-size="12" lengthAdjust="spacingAndGlyphs" textLength="59" x="1015.5" y="80.9102">Command</text><line style="stroke: #A80036; stroke-width: 1.5;" x1="987.5" x2="1076.5" y1="92" y2="92"/><line style="stroke: #A80036; stroke-width: 1.5;" x1="987.5" x2="1076.5" y1="100" y2="100"/><!--class mastermind.utils.Menu--><rect fill="#FEFECE" filter="url(#fmnwsbiqau1sj)" height="48" id="mastermind.utils.Menu" style="stroke: #A80036; stroke-width: 1.5;" width="62" x="1113" y="60"/><ellipse cx="1128" cy="76" fill="#ADD1B2" rx="11" ry="11" style="stroke: #A80036; stroke-width: 1.0;"/><path d="M1130.7656,71.875 Q1130.9219,71.6563 1131.1094,71.5469 Q1131.2969,71.4375 1131.5156,71.4375 Q1131.8906,71.4375 1132.125,71.6953 Q1132.3594,71.9531 1132.3594,72.5625 L1132.3594,74.0156 Q1132.3594,74.625 1132.125,74.8906 Q1131.8906,75.1563 1131.5156,75.1563 Q1131.1719,75.1563 1130.9688,74.9531 Q1130.7656,74.7656 1130.6563,74.25 Q1130.6094,73.8906 1130.4219,73.7031 Q1130.0938,73.3281 1129.4844,73.1094 Q1128.875,72.8906 1128.25,72.8906 Q1127.4844,72.8906 1126.8516,73.2188 Q1126.2188,73.5469 1125.7266,74.2969 Q1125.2344,75.0469 1125.2344,76.0781 L1125.2344,77.1719 Q1125.2344,78.4063 1126.125,79.2266 Q1127.0156,80.0469 1128.6094,80.0469 Q1129.5469,80.0469 1130.2031,79.7969 Q1130.5938,79.6406 1131.0156,79.2031 Q1131.2813,78.9375 1131.4297,78.8594 Q1131.5781,78.7813 1131.7813,78.7813 Q1132.1094,78.7813 1132.3672,79.0391 Q1132.625,79.2969 1132.625,79.6406 Q1132.625,79.9844 1132.2813,80.3906 Q1131.7813,80.9688 1130.9844,81.2969 Q1129.9063,81.75 1128.6094,81.75 Q1127.0938,81.75 1125.8906,81.125 Q1124.9063,80.625 1124.2188,79.5547 Q1123.5313,78.4844 1123.5313,77.2031 L1123.5313,76.0469 Q1123.5313,74.7188 1124.1484,73.5703 Q1124.7656,72.4219 1125.8594,71.8047 Q1126.9531,71.1875 1128.1875,71.1875 Q1128.9219,71.1875 1129.5703,71.3516 Q1130.2188,71.5156 1130.7656,71.875 Z "/><text fill="#000000" font-family="sans-serif" font-size="12" lengthAdjust="spacingAndGlyphs" textLength="30" x="1142" y="80.9102">Menu</text><line style="stroke: #A80036; stroke-width: 1.5;" x1="1114" x2="1174" y1="92" y2="92"/><line style="stroke: #A80036; stroke-width: 1.5;" x1="1114" x2="1174" y1="100" y2="100"/><!--class mastermind.controllers.AcceptorController--><rect fill="#FEFECE" filter="url(#fmnwsbiqau1sj)" height="48" id="mastermind.controllers.AcceptorController" style="stroke: #A80036; stroke-width: 1.5;" width="133" x="1302.5" y="486"/><ellipse cx="1317.5" cy="502" fill="#ADD1B2" rx="11" ry="11" style="stroke: #A80036; stroke-width: 1.0;"/><path d="M1320.2656,497.875 Q1320.4219,497.6563 1320.6094,497.5469 Q1320.7969,497.4375 1321.0156,497.4375 Q1321.3906,497.4375 1321.625,497.6953 Q1321.8594,497.9531 1321.8594,498.5625 L1321.8594,500.0156 Q1321.8594,500.625 1321.625,500.8906 Q1321.3906,501.1563 1321.0156,501.1563 Q1320.6719,501.1563 1320.4688,500.9531 Q1320.2656,500.7656 1320.1563,500.25 Q1320.1094,499.8906 1319.9219,499.7031 Q1319.5938,499.3281 1318.9844,499.1094 Q1318.375,498.8906 1317.75,498.8906 Q1316.9844,498.8906 1316.3516,499.2188 Q1315.7188,499.5469 1315.2266,500.2969 Q1314.7344,501.0469 1314.7344,502.0781 L1314.7344,503.1719 Q1314.7344,504.4063 1315.625,505.2266 Q1316.5156,506.0469 1318.1094,506.0469 Q1319.0469,506.0469 1319.7031,505.7969 Q1320.0938,505.6406 1320.5156,505.2031 Q1320.7813,504.9375 1320.9297,504.8594 Q1321.0781,504.7813 1321.2813,504.7813 Q1321.6094,504.7813 1321.8672,505.0391 Q1322.125,505.2969 1322.125,505.6406 Q1322.125,505.9844 1321.7813,506.3906 Q1321.2813,506.9688 1320.4844,507.2969 Q1319.4063,507.75 1318.1094,507.75 Q1316.5938,507.75 1315.3906,507.125 Q1314.4063,506.625 1313.7188,505.5547 Q1313.0313,504.4844 1313.0313,503.2031 L1313.0313,502.0469 Q1313.0313,500.7188 1313.6484,499.5703 Q1314.2656,498.4219 1315.3594,497.8047 Q1316.4531,497.1875 1317.6875,497.1875 Q1318.4219,497.1875 1319.0703,497.3516 Q1319.7188,497.5156 1320.2656,497.875 Z "/><text fill="#000000" font-family="sans-serif" font-size="12" lengthAdjust="spacingAndGlyphs" textLength="101" x="1331.5" y="506.9102">AcceptorController</text><line style="stroke: #A80036; stroke-width: 1.5;" x1="1303.5" x2="1434.5" y1="518" y2="518"/><line style="stroke: #A80036; stroke-width: 1.5;" x1="1303.5" x2="1434.5" y1="526" y2="526"/><!--class mastermind.controllers.PlayController--><rect fill="#FEFECE" filter="url(#fmnwsbiqau1sj)" height="48" id="mastermind.controllers.PlayController" style="stroke: #A80036; stroke-width: 1.5;" width="109" x="1012.5" y="486"/><ellipse cx="1027.5" cy="502" fill="#ADD1B2" rx="11" ry="11" style="stroke: #A80036; stroke-width: 1.0;"/><path d="M1030.2656,497.875 Q1030.4219,497.6563 1030.6094,497.5469 Q1030.7969,497.4375 1031.0156,497.4375 Q1031.3906,497.4375 1031.625,497.6953 Q1031.8594,497.9531 1031.8594,498.5625 L1031.8594,500.0156 Q1031.8594,500.625 1031.625,500.8906 Q1031.3906,501.1563 1031.0156,501.1563 Q1030.6719,501.1563 1030.4688,500.9531 Q1030.2656,500.7656 1030.1563,500.25 Q1030.1094,499.8906 1029.9219,499.7031 Q1029.5938,499.3281 1028.9844,499.1094 Q1028.375,498.8906 1027.75,498.8906 Q1026.9844,498.8906 1026.3516,499.2188 Q1025.7188,499.5469 1025.2266,500.2969 Q1024.7344,501.0469 1024.7344,502.0781 L1024.7344,503.1719 Q1024.7344,504.4063 1025.625,505.2266 Q1026.5156,506.0469 1028.1094,506.0469 Q1029.0469,506.0469 1029.7031,505.7969 Q1030.0938,505.6406 1030.5156,505.2031 Q1030.7813,504.9375 1030.9297,504.8594 Q1031.0781,504.7813 1031.2813,504.7813 Q1031.6094,504.7813 1031.8672,505.0391 Q1032.125,505.2969 1032.125,505.6406 Q1032.125,505.9844 1031.7813,506.3906 Q1031.2813,506.9688 1030.4844,507.2969 Q1029.4063,507.75 1028.1094,507.75 Q1026.5938,507.75 1025.3906,507.125 Q1024.4063,506.625 1023.7188,505.5547 Q1023.0313,504.4844 1023.0313,503.2031 L1023.0313,502.0469 Q1023.0313,500.7188 1023.6484,499.5703 Q1024.2656,498.4219 1025.3594,497.8047 Q1026.4531,497.1875 1027.6875,497.1875 Q1028.4219,497.1875 1029.0703,497.3516 Q1029.7188,497.5156 1030.2656,497.875 Z "/><text fill="#000000" font-family="sans-serif" font-size="12" lengthAdjust="spacingAndGlyphs" textLength="77" x="1041.5" y="506.9102">PlayController</text><line style="stroke: #A80036; stroke-width: 1.5;" x1="1013.5" x2="1120.5" y1="518" y2="518"/><line style="stroke: #A80036; stroke-width: 1.5;" x1="1013.5" x2="1120.5" y1="526" y2="526"/><!--class mastermind.controllers.StartController--><rect fill="#FEFECE" filter="url(#fmnwsbiqau1sj)" height="48" id="mastermind.controllers.StartController" style="stroke: #A80036; stroke-width: 1.5;" width="111" x="1156.5" y="486"/><ellipse cx="1171.5" cy="502" fill="#ADD1B2" rx="11" ry="11" style="stroke: #A80036; stroke-width: 1.0;"/><path d="M1174.2656,497.875 Q1174.4219,497.6563 1174.6094,497.5469 Q1174.7969,497.4375 1175.0156,497.4375 Q1175.3906,497.4375 1175.625,497.6953 Q1175.8594,497.9531 1175.8594,498.5625 L1175.8594,500.0156 Q1175.8594,500.625 1175.625,500.8906 Q1175.3906,501.1563 1175.0156,501.1563 Q1174.6719,501.1563 1174.4688,500.9531 Q1174.2656,500.7656 1174.1563,500.25 Q1174.1094,499.8906 1173.9219,499.7031 Q1173.5938,499.3281 1172.9844,499.1094 Q1172.375,498.8906 1171.75,498.8906 Q1170.9844,498.8906 1170.3516,499.2188 Q1169.7188,499.5469 1169.2266,500.2969 Q1168.7344,501.0469 1168.7344,502.0781 L1168.7344,503.1719 Q1168.7344,504.4063 1169.625,505.2266 Q1170.5156,506.0469 1172.1094,506.0469 Q1173.0469,506.0469 1173.7031,505.7969 Q1174.0938,505.6406 1174.5156,505.2031 Q1174.7813,504.9375 1174.9297,504.8594 Q1175.0781,504.7813 1175.2813,504.7813 Q1175.6094,504.7813 1175.8672,505.0391 Q1176.125,505.2969 1176.125,505.6406 Q1176.125,505.9844 1175.7813,506.3906 Q1175.2813,506.9688 1174.4844,507.2969 Q1173.4063,507.75 1172.1094,507.75 Q1170.5938,507.75 1169.3906,507.125 Q1168.4063,506.625 1167.7188,505.5547 Q1167.0313,504.4844 1167.0313,503.2031 L1167.0313,502.0469 Q1167.0313,500.7188 1167.6484,499.5703 Q1168.2656,498.4219 1169.3594,497.8047 Q1170.4531,497.1875 1171.6875,497.1875 Q1172.4219,497.1875 1173.0703,497.3516 Q1173.7188,497.5156 1174.2656,497.875 Z "/><text fill="#000000" font-family="sans-serif" font-size="12" lengthAdjust="spacingAndGlyphs" textLength="79" x="1185.5" y="506.9102">StartController</text><line style="stroke: #A80036; stroke-width: 1.5;" x1="1157.5" x2="1266.5" y1="518" y2="518"/><line style="stroke: #A80036; stroke-width: 1.5;" x1="1157.5" x2="1266.5" y1="526" y2="526"/><!--link mastermind.utils.Command to mastermind.menus.Command--><path d="M1014.2,126.737 C1006.41,144.999 997.351,166.247 989.804,183.941 " fill="none" id="mastermind.utils.Command-mastermind.menus.Command" style="stroke: #A80036; stroke-width: 1.0;"/><polygon fill="none" points="1007.88,123.721,1022.16,108.071,1020.75,129.213,1007.88,123.721" style="stroke: #A80036; stroke-width: 1.0;"/><!--link mastermind.menus.Command to mastermind.controllers.AcceptorController--><path d="M1092.85,256.7 C1098.29,257.888 1103.69,258.996 1109,260 C1232.19,283.312 1586.19,226.75 1670,320 C1703.87,357.684 1701.2,394.076 1670,434 C1642.99,468.5701 1528.43,489.5159 1448.71,500.1766 " fill="none" id="mastermind.menus.Command-mastermind.controllers.AcceptorController" style="stroke: #A80036; stroke-width: 1.0;"/><polygon fill="#A80036" points="1435.74,501.862,1445.1796,504.6716,1440.6985,501.2191,1444.151,496.738,1435.74,501.862" style="stroke: #A80036; stroke-width: 1.0;"/><line style="stroke: #A80036; stroke-width: 1.0;" x1="1440.6985" x2="1448.635" y1="501.2191" y2="500.1867"/><polygon fill="#A80036" points="1080.11,253.8,1085.0724,259.0321,1091.8106,256.4637,1086.8482,251.2317,1080.11,253.8" style="stroke: #A80036; stroke-width: 1.0;"/><!--link mastermind.menus.Command to mastermind.menus.ExitCommand--><path d="M847.852,242.765 C809.409,248.574 767.005,254.769 728,260 C502.233,290.277 438.67,259.729 219,320 C213.468,321.518 207.849,323.299 202.242,325.258 " fill="none" id="mastermind.menus.Command-mastermind.menus.ExitCommand" style="stroke: #A80036; stroke-width: 1.0;"/><polygon fill="none" points="847.028,235.81,867.853,239.723,849.132,249.65,847.028,235.81" style="stroke: #A80036; stroke-width: 1.0;"/><!--link mastermind.menus.ExitCommand to mastermind.controllers.PlayController--><path d="M173.518,410.052 C187.553,419.492 203.204,428.323 219,434 C364.504,486.296 838.61,503.2073 1006.99,507.6412 " fill="none" id="mastermind.menus.ExitCommand-mastermind.controllers.PlayController" style="stroke: #A80036; stroke-width: 1.0; stroke-dasharray: 7.0,7.0;"/><polygon fill="#A80036" points="1012.37,507.7813,1003.4758,503.5512,1007.3717,507.6527,1003.2701,511.5486,1012.37,507.7813" style="stroke: #A80036; stroke-width: 1.0;"/><!--link mastermind.menus.Command to mastermind.menus.GameSelectCommand--><path d="M1099.66,257.461 C1102.8,258.317 1105.92,259.164 1109,260 C1208.05,286.898 1233.53,291.07 1332,320 C1337.55,321.63 1343.22,323.323 1348.93,325.053 " fill="none" id="mastermind.menus.Command-mastermind.menus.GameSelectCommand" style="stroke: #A80036; stroke-width: 1.0;"/><polygon fill="none" points="1097.56,264.145,1080.11,252.131,1101.24,250.637,1097.56,264.145" style="stroke: #A80036; stroke-width: 1.0;"/><!--link mastermind.menus.GameSelectCommand to mastermind.controllers.StartController--><path d="M1390.27,410.127 C1371.58,419.099 1351.44,427.704 1332,434 C1311.84,440.529 1304.03,432.677 1285,442 C1265.66,451.478 1247.77,467.7155 1234.54,481.8314 " fill="none" id="mastermind.menus.GameSelectCommand-mastermind.controllers.StartController" style="stroke: #A80036; stroke-width: 1.0; stroke-dasharray: 7.0,7.0;"/><polygon fill="#A80036" points="1230.94,485.7491,1239.9816,481.844,1234.3294,482.0732,1234.1002,476.421,1230.94,485.7491" style="stroke: #A80036; stroke-width: 1.0;"/><!--link mastermind.utils.Menu to mastermind.menus.GameSelectMenu--><path d="M1194.27,101.935 C1224.09,112.29 1262.49,126.168 1296,140 C1334.04,155.7 1375.87,175.103 1408.98,190.983 " fill="none" id="mastermind.utils.Menu-mastermind.menus.GameSelectMenu" style="stroke: #A80036; stroke-width: 1.0;"/><polygon fill="none" points="1191.81,108.49,1175.17,95.373,1196.35,95.249,1191.81,108.49" style="stroke: #A80036; stroke-width: 1.0;"/><!--link mastermind.menus.GameSelectMenu to mastermind.controllers.StartController--><path d="M1563.59,235.592 C1615.47,247.881 1675.82,272.14 1708,320 C1736.27,362.048 1743.49,397.836 1708,434 C1691.54,450.776 1306.82,433.266 1285,442 C1264.56,450.18 1246.32,466.9243 1233.18,481.6261 " fill="none" id="mastermind.menus.GameSelectMenu-mastermind.controllers.StartController" style="stroke: #A80036; stroke-width: 1.0; stroke-dasharray: 7.0,7.0;"/><polygon fill="#A80036" points="1229.61,485.7097,1238.5404,481.5567,1232.8967,481.9417,1232.5117,476.298,1229.61,485.7097" style="stroke: #A80036; stroke-width: 1.0;"/><!--link mastermind.menus.GameSelectMenu to mastermind.menus.GameSelectCommand--><path d="M1470,266.262 C1470,279.021 1470,293.187 1470,306.685 " fill="none" id="mastermind.menus.GameSelectMenu-mastermind.menus.GameSelectCommand" style="stroke: #A80036; stroke-width: 1.0;"/><polygon fill="#A80036" points="1470,319.882,1474,310.882,1470,314.882,1466,310.882,1470,319.882" style="stroke: #A80036; stroke-width: 1.0;"/><line style="stroke: #A80036; stroke-width: 1.0;" x1="1470" x2="1470" y1="314.882" y2="306.882"/><polygon fill="#A80036" points="1470,253.248,1466,259.248,1470,265.248,1474,259.248,1470,253.248" style="stroke: #A80036; stroke-width: 1.0;"/><!--link mastermind.menus.Command to mastermind.menus.NewGameCommand--><path d="M974,280.09 C974,293.372 974,307.314 974,319.934 " fill="none" id="mastermind.menus.Command-mastermind.menus.NewGameCommand" style="stroke: #A80036; stroke-width: 1.0;"/><polygon fill="none" points="967,280.046,974,260.046,981,280.046,967,280.046" style="stroke: #A80036; stroke-width: 1.0;"/><!--link mastermind.menus.NewGameCommand to mastermind.controllers.StartController--><path d="M1041.9,410.14 C1058.13,419.167 1075.76,427.792 1093,434 C1112.52,441.031 1120.38,432.836 1139,442 C1158.33,451.513 1176.21,467.751 1189.44,481.8586 " fill="none" id="mastermind.menus.NewGameCommand-mastermind.controllers.StartController" style="stroke: #A80036; stroke-width: 1.0; stroke-dasharray: 7.0,7.0;"/><polygon fill="#A80036" points="1193.05,485.7738,1189.8875,476.4465,1189.6597,482.0988,1184.0074,481.871,1193.05,485.7738" style="stroke: #A80036; stroke-width: 1.0;"/><!--link mastermind.menus.Command to mastermind.menus.OpenGameCommand--><path d="M1053.81,270.283 C1080.88,286.319 1110.99,304.159 1137.62,319.934 " fill="none" id="mastermind.menus.Command-mastermind.menus.OpenGameCommand" style="stroke: #A80036; stroke-width: 1.0;"/><polygon fill="none" points="1050.17,276.263,1036.53,260.046,1057.31,264.218,1050.17,276.263" style="stroke: #A80036; stroke-width: 1.0;"/><!--link mastermind.menus.OpenGameCommand to mastermind.controllers.StartController--><path d="M1212,410.072 C1212,432.973 1212,460.298 1212,480.4224 " fill="none" id="mastermind.menus.OpenGameCommand-mastermind.controllers.StartController" style="stroke: #A80036; stroke-width: 1.0; stroke-dasharray: 7.0,7.0;"/><polygon fill="#A80036" points="1212,485.6365,1216,476.6365,1212,480.6365,1208,476.6365,1212,485.6365" style="stroke: #A80036; stroke-width: 1.0;"/><!--link mastermind.utils.Menu to mastermind.menus.PlayMenu--><path d="M1111.9,121.741 C1106.67,125.862 1100.99,129.478 1095,132 C1070,142.53 877.595,134.662 851,140 C798.635,150.511 742.265,172.461 700.677,190.863 " fill="none" id="mastermind.utils.Menu-mastermind.menus.PlayMenu" style="stroke: #A80036; stroke-width: 1.0;"/><polygon fill="none" points="1107.12,116.629,1126.48,108.019,1116.71,126.823,1107.12,116.629" style="stroke: #A80036; stroke-width: 1.0;"/><!--link mastermind.menus.PlayMenu to mastermind.controllers.PlayController--><path d="M711.187,237.446 C752.164,245.097 804.267,254.104 851,260 C934.821,270.574 1551.67,257.947 1609,320 C1643.38,357.213 1644.52,397.87 1609,434 C1599.85,443.311 1151.11,437.118 1139,442 C1118.73,450.17 1100.74,466.9141 1087.81,481.6185 " fill="none" id="mastermind.menus.PlayMenu-mastermind.controllers.PlayController" style="stroke: #A80036; stroke-width: 1.0; stroke-dasharray: 7.0,7.0;"/><polygon fill="#A80036" points="1084.3,485.7029,1093.2034,481.4922,1087.5623,481.9137,1087.1407,476.2726,1084.3,485.7029" style="stroke: #A80036; stroke-width: 1.0;"/><!--link mastermind.menus.PlayMenu to mastermind.menus.RedoCommand--><path d="M558.892,258.41 C517.149,277.095 465.546,300.194 421.258,320.018 " fill="none" id="mastermind.menus.PlayMenu-mastermind.menus.RedoCommand" style="stroke: #A80036; stroke-width: 1.0;"/><polygon fill="#A80036" points="409.274,325.382,419.1228,325.3558,413.8376,323.3392,415.8543,318.054,409.274,325.382" style="stroke: #A80036; stroke-width: 1.0;"/><line style="stroke: #A80036; stroke-width: 1.0;" x1="413.8376" x2="421.14" y1="323.3392" y2="320.071"/><polygon fill="#A80036" points="570.811,253.075,563.7004,251.8755,559.8582,257.9778,566.9689,259.1773,570.811,253.075" style="stroke: #A80036; stroke-width: 1.0;"/><!--link mastermind.menus.PlayMenu to mastermind.menus.UndoCommand--><path d="M606.784,263.754 C595.842,278.04 583.371,294.321 571.709,309.547 " fill="none" id="mastermind.menus.PlayMenu-mastermind.menus.UndoCommand" style="stroke: #A80036; stroke-width: 1.0;"/><polygon fill="#A80036" points="563.792,319.882,572.4402,315.1694,566.8324,315.9126,566.0891,310.3048,563.792,319.882" style="stroke: #A80036; stroke-width: 1.0;"/><line style="stroke: #A80036; stroke-width: 1.0;" x1="566.8324" x2="571.6975" y1="315.9126" y2="309.562"/><polygon fill="#A80036" points="614.831,253.248,608.0071,255.5791,607.5343,262.7747,614.3582,260.4436,614.831,253.248" style="stroke: #A80036; stroke-width: 1.0;"/><!--link mastermind.menus.PlayMenu to mastermind.menus.ProposeCommand--><path d="M668.927,263.754 C679.663,277.902 691.885,294.008 703.344,309.107 " fill="none" id="mastermind.menus.PlayMenu-mastermind.menus.ProposeCommand" style="stroke: #A80036; stroke-width: 1.0;"/><polygon fill="#A80036" points="711.521,319.882,709.2668,310.2946,708.4985,315.899,702.894,315.1307,711.521,319.882" style="stroke: #A80036; stroke-width: 1.0;"/><line style="stroke: #A80036; stroke-width: 1.0;" x1="708.4985" x2="703.6615" y1="315.899" y2="309.5265"/><polygon fill="#A80036" points="660.954,253.248,661.3947,260.4456,668.2081,262.8072,667.7674,255.6096,660.954,253.248" style="stroke: #A80036; stroke-width: 1.0;"/><!--link mastermind.menus.PlayMenu to mastermind.menus.ExitCommand--><path d="M552.13,237.904 C466.495,253.922 331.814,282.256 219,320 C217.531,320.491 216.055,320.997 214.572,321.515 " fill="none" id="mastermind.menus.PlayMenu-mastermind.menus.ExitCommand" style="stroke: #A80036; stroke-width: 1.0;"/><polygon fill="#A80036" points="202.182,326.066,212.0093,326.7172,206.8753,324.3419,209.2507,319.2079,202.182,326.066" style="stroke: #A80036; stroke-width: 1.0;"/><line style="stroke: #A80036; stroke-width: 1.0;" x1="206.8753" x2="214.385" y1="324.3419" y2="321.583"/><polygon fill="#A80036" points="564.921,235.535,558.293,232.6944,553.1216,237.72,559.7496,240.5606,564.921,235.535" style="stroke: #A80036; stroke-width: 1.0;"/><!--link mastermind.menus.Command to mastermind.menus.ProposeCommand--><path d="M896.461,270.742 C870.611,286.659 841.945,304.309 816.569,319.934 " fill="none" id="mastermind.menus.Command-mastermind.menus.ProposeCommand" style="stroke: #A80036; stroke-width: 1.0;"/><polygon fill="none" points="893.132,264.572,913.833,260.046,900.472,276.493,893.132,264.572" style="stroke: #A80036; stroke-width: 1.0;"/><!--link mastermind.menus.ProposeCommand to mastermind.controllers.PlayController--><path d="M811.843,410.02 C826.113,418.54 841.317,426.987 856,434 C905.487,457.636 964.503,477.9961 1007.52,491.514 " fill="none" id="mastermind.menus.ProposeCommand-mastermind.controllers.PlayController" style="stroke: #A80036; stroke-width: 1.0; stroke-dasharray: 7.0,7.0;"/><polygon fill="#A80036" points="1012.42,493.0462,1005.0159,486.5517,1007.646,491.5599,1002.6378,494.1901,1012.42,493.0462" style="stroke: #A80036; stroke-width: 1.0;"/><!--link mastermind.menus.Command to mastermind.menus.RedoCommand--><path d="M847.884,241.902 C711.429,262.961 503.036,297.057 426,320 C420.409,321.665 414.714,323.544 409.016,325.564 " fill="none" id="mastermind.menus.Command-mastermind.menus.RedoCommand" style="stroke: #A80036; stroke-width: 1.0;"/><polygon fill="none" points="847.055,234.947,867.887,238.829,849.182,248.785,847.055,234.947" style="stroke: #A80036; stroke-width: 1.0;"/><!--link mastermind.menus.RedoCommand to mastermind.controllers.PlayController--><path d="M379.55,410.07 C394.001,419.388 409.998,428.159 426,434 C532.123,472.737 868.8,496.984 1006.96,505.5326 " fill="none" id="mastermind.menus.RedoCommand-mastermind.controllers.PlayController" style="stroke: #A80036; stroke-width: 1.0; stroke-dasharray: 7.0,7.0;"/><polygon fill="#A80036" points="1012.19,505.8546,1003.4462,501.3218,1007.199,505.5546,1002.9662,509.3073,1012.19,505.8546" style="stroke: #A80036; stroke-width: 1.0;"/><!--link mastermind.utils.Menu to mastermind.menus.StartMenu--><path d="M1161.8,126.731 C1170.6,147.366 1181.02,171.815 1189.05,190.643 " fill="none" id="mastermind.utils.Menu-mastermind.menus.StartMenu" style="stroke: #A80036; stroke-width: 1.0;"/><polygon fill="none" points="1155.25,129.213,1153.84,108.071,1168.12,123.721,1155.25,129.213" style="stroke: #A80036; stroke-width: 1.0;"/><!--link mastermind.menus.StartMenu to mastermind.controllers.StartController--><path d="M1278.12,241.6 C1303.76,247.689 1332.58,254.34 1359,260 C1496.65,289.485 1580.38,211.44 1670,320 C1702.26,359.073 1705.45,397.803 1670,434 C1655.03,449.284 1304.85,434.032 1285,442 C1264.57,450.199 1246.32,466.9433 1233.18,481.6404 " fill="none" id="mastermind.menus.StartMenu-mastermind.controllers.StartController" style="stroke: #A80036; stroke-width: 1.0; stroke-dasharray: 7.0,7.0;"/><polygon fill="#A80036" points="1229.62,485.7226,1238.5589,481.5878,1232.9143,481.9613,1232.5408,476.3168,1229.62,485.7226" style="stroke: #A80036; stroke-width: 1.0;"/><!--link mastermind.menus.StartMenu to mastermind.menus.NewGameCommand--><path d="M1141.95,260.138 C1115.84,276.286 1084.81,295.47 1056.58,312.929 " fill="none" id="mastermind.menus.StartMenu-mastermind.menus.NewGameCommand" style="stroke: #A80036; stroke-width: 1.0;"/><polygon fill="#A80036" points="1045.51,319.78,1055.268,318.4452,1049.7617,317.1488,1051.0581,311.6425,1045.51,319.78" style="stroke: #A80036; stroke-width: 1.0;"/><line style="stroke: #A80036; stroke-width: 1.0;" x1="1049.7617" x2="1056.565" y1="317.1488" y2="312.942"/><polygon fill="#A80036" points="1153.37,253.075,1146.1633,252.8244,1143.1601,259.3804,1150.3668,259.631,1153.37,253.075" style="stroke: #A80036; stroke-width: 1.0;"/><!--link mastermind.menus.StartMenu to mastermind.menus.OpenGameCommand--><path d="M1205.07,266.262 C1205.97,279.021 1206.98,293.187 1207.94,306.685 " fill="none" id="mastermind.menus.StartMenu-mastermind.menus.OpenGameCommand" style="stroke: #A80036; stroke-width: 1.0;"/><polygon fill="#A80036" points="1208.87,319.882,1212.2233,310.6216,1208.5163,314.8945,1204.2433,311.1875,1208.87,319.882" style="stroke: #A80036; stroke-width: 1.0;"/><line style="stroke: #A80036; stroke-width: 1.0;" x1="1208.5163" x2="1207.95" y1="314.8945" y2="306.915"/><polygon fill="#A80036" points="1204.15,253.248,1200.5843,259.5158,1204.9986,265.218,1208.5643,258.9501,1204.15,253.248" style="stroke: #A80036; stroke-width: 1.0;"/><!--link mastermind.menus.Command to mastermind.menus.UndoCommand--><path d="M848.116,254.969 C783.513,272.366 703.904,295.345 634,320 C628.176,322.054 622.211,324.269 616.227,326.574 " fill="none" id="mastermind.menus.Command-mastermind.menus.UndoCommand" style="stroke: #A80036; stroke-width: 1.0;"/><polygon fill="none" points="846.528,248.148,867.657,249.753,850.138,261.674,846.528,248.148" style="stroke: #A80036; stroke-width: 1.0;"/><!--link mastermind.menus.UndoCommand to mastermind.controllers.PlayController--><path d="M588.489,410.139 C602.777,419.222 618.445,427.872 634,434 C761.014,484.0388 922.015,500.7683 1007.44,506.306 " fill="none" id="mastermind.menus.UndoCommand-mastermind.controllers.PlayController" style="stroke: #A80036; stroke-width: 1.0; stroke-dasharray: 7.0,7.0;"/><polygon fill="#A80036" points="1012.45,506.6237,1003.7192,502.0659,1007.4599,506.3094,1003.2164,510.0501,1012.45,506.6237" style="stroke: #A80036; stroke-width: 1.0;"/><!--
@startuml

class  mastermind.menus.Command{
# acceptorController: AcceptorController
# Command(AcceptorController, String)
}
mastermind.utils.Command <|-down- mastermind.menus.Command
mastermind.menus.Command *-down-> mastermind.controllers.AcceptorController

class  mastermind.menus.ExitCommand{
# ExitCommand(PlayController)
# execute(): void
# isActive(): boolean
}
mastermind.menus.Command <|-down- mastermind.menus.ExitCommand
mastermind.menus.ExitCommand ..> mastermind.controllers.PlayController

class  mastermind.menus.GameSelectCommand{
# GameSelectCommand(StartController, String)
# execute(): void
# isActive(): boolean
}
mastermind.menus.Command <|-down- mastermind.menus.GameSelectCommand
mastermind.menus.GameSelectCommand ..> mastermind.controllers.StartController

class  mastermind.menus.GameSelectMenu{
~ GameSelectMenu(StartController)
}
mastermind.utils.Menu <|-down- mastermind.menus.GameSelectMenu
mastermind.menus.GameSelectMenu ..> mastermind.controllers.StartController
mastermind.menus.GameSelectMenu *-down-> mastermind.menus.GameSelectCommand

class  mastermind.menus.NewGameCommand{
# NewGameCommand(StartController)
# execute(): void
# isActive(): boolean
}
mastermind.menus.Command <|-down- mastermind.menus.NewGameCommand
mastermind.menus.NewGameCommand ..> mastermind.controllers.StartController

class  mastermind.menus.OpenGameCommand{
# OpenGameCommand(StartController)
# execute(): void
# isActive(): boolean
}
mastermind.menus.Command <|-down- mastermind.menus.OpenGameCommand
mastermind.menus.OpenGameCommand ..> mastermind.controllers.StartController

class  mastermind.menus.PlayMenu{
+ PlayMenu(PlayController)
}
mastermind.utils.Menu <|-down- mastermind.menus.PlayMenu
mastermind.menus.PlayMenu ..> mastermind.controllers.PlayController
mastermind.menus.PlayMenu*-down-> mastermind.menus.RedoCommand
mastermind.menus.PlayMenu*-down-> mastermind.menus.UndoCommand
mastermind.menus.PlayMenu*-down-> mastermind.menus.ProposeCommand
mastermind.menus.PlayMenu*-down-> mastermind.menus.ExitCommand

class  mastermind.menus.ProposeCommand{
~ ProposeCommand(PlayController)
# execute(): void
# isActive(): boolean
}
mastermind.menus.Command <|-down- mastermind.menus.ProposeCommand
mastermind.menus.ProposeCommand ..> mastermind.controllers.PlayController

class  mastermind.menus.RedoCommand{
~ RedoCommand(PlayController)
# execute(): void
# isActive(): boolean
}
mastermind.menus.Command <|-down- mastermind.menus.RedoCommand
mastermind.menus.RedoCommand ..> mastermind.controllers.PlayController

class  mastermind.menus.StartMenu{
+ StartMenu(StartController)
}
mastermind.utils.Menu <|-down- mastermind.menus.StartMenu
mastermind.menus.StartMenu ..> mastermind.controllers.StartController
mastermind.menus.StartMenu*-down-> mastermind.menus.NewGameCommand
mastermind.menus.StartMenu*-down-> mastermind.menus.OpenGameCommand

class  mastermind.menus.UndoCommand{
~ UndoCommand(PlayController)
# execute(): void
# isActive(): boolean
}
mastermind.menus.Command <|-down- mastermind.menus.UndoCommand
mastermind.menus.UndoCommand ..> mastermind.controllers.PlayController

@enduml

PlantUML version 1.2019.05(Sat Apr 20 18:45:36 CEST 2019)
(GPL source distribution)
Java Runtime: OpenJDK Runtime Environment
JVM: OpenJDK 64-Bit Server VM
Java Version: 1.8.0_222-b10
Operating System: Windows 10
OS Version: 10.0
Default Encoding: windows-1252
Language: es
Country: ES
--></g></svg>