<?xml version="1.0" encoding="UTF-8" standalone="no"?><svg xmlns="http://www.w3.org/2000/svg" xmlns:xlink="http://www.w3.org/1999/xlink" contentScriptType="application/ecmascript" contentStyleType="text/css" height="355px" preserveAspectRatio="none" style="width:606px;height:355px;" version="1.1" viewBox="0 0 606 355" width="606px" zoomAndPan="magnify"><defs><filter height="300%" id="f1xefyrirp4cix" width="300%" x="-1" y="-1"><feGaussianBlur result="blurOut" stdDeviation="2.0"/><feColorMatrix in="blurOut" result="blurOut2" type="matrix" values="0 0 0 0 0 0 0 0 0 0 0 0 0 0 0 0 0 0 .4 0"/><feOffset dx="4.0" dy="4.0" in="blurOut2" result="blurOut3"/><feBlend in="SourceGraphic" in2="blurOut3" mode="normal"/></filter></defs><g><!--cluster mastermind--><polygon fill="#FFFFFF" filter="url(#f1xefyrirp4cix)" points="22,24,110,24,117,47.6094,214,47.6094,214,343,22,343,22,24" style="stroke: #000000; stroke-width: 1.5;"/><line style="stroke: #000000; stroke-width: 1.5;" x1="22" x2="117" y1="47.6094" y2="47.6094"/><text fill="#000000" font-family="sans-serif" font-size="14" font-weight="bold" lengthAdjust="spacingAndGlyphs" textLength="82" x="26" y="40.5332">mastermind</text><!--cluster mastermind.views--><polygon fill="#FFFFFF" filter="url(#f1xefyrirp4cix)" points="238,222,371,222,378,245.6094,381,245.6094,381,322,238,322,238,222" style="stroke: #000000; stroke-width: 1.5;"/><line style="stroke: #000000; stroke-width: 1.5;" x1="238" x2="378" y1="245.6094" y2="245.6094"/><text fill="#000000" font-family="sans-serif" font-size="14" font-weight="bold" lengthAdjust="spacingAndGlyphs" textLength="127" x="242" y="238.5332">mastermind.views</text><!--cluster mastermind.controllers--><polygon fill="#FFFFFF" filter="url(#f1xefyrirp4cix)" points="405,222,574,222,581,245.6094,584,245.6094,584,322,405,322,405,222" style="stroke: #000000; stroke-width: 1.5;"/><line style="stroke: #000000; stroke-width: 1.5;" x1="405" x2="581" y1="245.6094" y2="245.6094"/><text fill="#000000" font-family="sans-serif" font-size="14" font-weight="bold" lengthAdjust="spacingAndGlyphs" textLength="163" x="409" y="238.5332">mastermind.controllers</text><!--class mastermind.Mastermind--><rect fill="#FEFECE" filter="url(#f1xefyrirp4cix)" height="117.1797" id="mastermind.Mastermind" style="stroke: #A80036; stroke-width: 1.5;" width="125" x="72.5" y="60"/><ellipse cx="100.1" cy="76" fill="#ADD1B2" rx="11" ry="11" style="stroke: #A80036; stroke-width: 1.0;"/><path d="M102.8656,71.875 Q103.0219,71.6563 103.2094,71.5469 Q103.3969,71.4375 103.6156,71.4375 Q103.9906,71.4375 104.225,71.6953 Q104.4594,71.9531 104.4594,72.5625 L104.4594,74.0156 Q104.4594,74.625 104.225,74.8906 Q103.9906,75.1563 103.6156,75.1563 Q103.2719,75.1563 103.0688,74.9531 Q102.8656,74.7656 102.7563,74.25 Q102.7094,73.8906 102.5219,73.7031 Q102.1938,73.3281 101.5844,73.1094 Q100.975,72.8906 100.35,72.8906 Q99.5844,72.8906 98.9516,73.2188 Q98.3188,73.5469 97.8266,74.2969 Q97.3344,75.0469 97.3344,76.0781 L97.3344,77.1719 Q97.3344,78.4063 98.225,79.2266 Q99.1156,80.0469 100.7094,80.0469 Q101.6469,80.0469 102.3031,79.7969 Q102.6938,79.6406 103.1156,79.2031 Q103.3813,78.9375 103.5297,78.8594 Q103.6781,78.7813 103.8813,78.7813 Q104.2094,78.7813 104.4672,79.0391 Q104.725,79.2969 104.725,79.6406 Q104.725,79.9844 104.3813,80.3906 Q103.8813,80.9688 103.0844,81.2969 Q102.0063,81.75 100.7094,81.75 Q99.1938,81.75 97.9906,81.125 Q97.0063,80.625 96.3188,79.5547 Q95.6313,78.4844 95.6313,77.2031 L95.6313,76.0469 Q95.6313,74.7188 96.2484,73.5703 Q96.8656,72.4219 97.9594,71.8047 Q99.0531,71.1875 100.2875,71.1875 Q101.0219,71.1875 101.6703,71.3516 Q102.3188,71.5156 102.8656,71.875 Z "/><text fill="#000000" font-family="sans-serif" font-size="12" lengthAdjust="spacingAndGlyphs" textLength="65" x="116.9" y="80.9102">Mastermind</text><line style="stroke: #A80036; stroke-width: 1.5;" x1="73.5" x2="196.5" y1="92" y2="92"/><rect fill="none" height="6" style="stroke: #C82930; stroke-width: 1.0;" width="6" x="80.5" y="101.418"/><text fill="#000000" font-family="sans-serif" font-size="11" lengthAdjust="spacingAndGlyphs" textLength="54" x="92.5" y="107.4189">logic: Logic</text><rect fill="none" height="6" style="stroke: #C82930; stroke-width: 1.0;" width="6" x="80.5" y="115.2539"/><text fill="#000000" font-family="sans-serif" font-size="11" lengthAdjust="spacingAndGlyphs" textLength="56" x="92.5" y="121.2549">view: View</text><line style="stroke: #A80036; stroke-width: 1.5;" x1="73.5" x2="196.5" y1="127.6719" y2="127.6719"/><polygon fill="#FFFF44" points="83.5,135.0898,87.5,139.0898,83.5,143.0898,79.5,139.0898" style="stroke: #B38D22; stroke-width: 1.0;"/><text fill="#000000" font-family="sans-serif" font-size="11" lengthAdjust="spacingAndGlyphs" textLength="63" x="92.5" y="143.0908">Mastermind()</text><polygon fill="#FFFF44" points="83.5,148.9258,87.5,152.9258,83.5,156.9258,79.5,152.9258" style="stroke: #B38D22; stroke-width: 1.0;"/><text fill="#000000" font-family="sans-serif" font-size="11" font-style="italic" lengthAdjust="spacingAndGlyphs" textLength="99" x="92.5" y="156.9268">createLogic(): Logic</text><polygon fill="#FFFF44" points="83.5,162.7617,87.5,166.7617,83.5,170.7617,79.5,166.7617" style="stroke: #B38D22; stroke-width: 1.0;"/><text fill="#000000" font-family="sans-serif" font-size="11" lengthAdjust="spacingAndGlyphs" textLength="54" x="92.5" y="170.7627">play(): void</text><!--class mastermind.MastermindStandalone--><rect fill="#FEFECE" filter="url(#f1xefyrirp4cix)" height="89.5078" id="mastermind.MastermindStandalone" style="stroke: #A80036; stroke-width: 1.5;" width="160" x="38" y="237"/><ellipse cx="53" cy="253" fill="#ADD1B2" rx="11" ry="11" style="stroke: #A80036; stroke-width: 1.0;"/><path d="M55.7656,248.875 Q55.9219,248.6563 56.1094,248.5469 Q56.2969,248.4375 56.5156,248.4375 Q56.8906,248.4375 57.125,248.6953 Q57.3594,248.9531 57.3594,249.5625 L57.3594,251.0156 Q57.3594,251.625 57.125,251.8906 Q56.8906,252.1563 56.5156,252.1563 Q56.1719,252.1563 55.9688,251.9531 Q55.7656,251.7656 55.6563,251.25 Q55.6094,250.8906 55.4219,250.7031 Q55.0938,250.3281 54.4844,250.1094 Q53.875,249.8906 53.25,249.8906 Q52.4844,249.8906 51.8516,250.2188 Q51.2188,250.5469 50.7266,251.2969 Q50.2344,252.0469 50.2344,253.0781 L50.2344,254.1719 Q50.2344,255.4063 51.125,256.2266 Q52.0156,257.0469 53.6094,257.0469 Q54.5469,257.0469 55.2031,256.7969 Q55.5938,256.6406 56.0156,256.2031 Q56.2813,255.9375 56.4297,255.8594 Q56.5781,255.7813 56.7813,255.7813 Q57.1094,255.7813 57.3672,256.0391 Q57.625,256.2969 57.625,256.6406 Q57.625,256.9844 57.2813,257.3906 Q56.7813,257.9688 55.9844,258.2969 Q54.9063,258.75 53.6094,258.75 Q52.0938,258.75 50.8906,258.125 Q49.9063,257.625 49.2188,256.5547 Q48.5313,255.4844 48.5313,254.2031 L48.5313,253.0469 Q48.5313,251.7188 49.1484,250.5703 Q49.7656,249.4219 50.8594,248.8047 Q51.9531,248.1875 53.1875,248.1875 Q53.9219,248.1875 54.5703,248.3516 Q55.2188,248.5156 55.7656,248.875 Z "/><text fill="#000000" font-family="sans-serif" font-size="12" lengthAdjust="spacingAndGlyphs" textLength="128" x="67" y="257.9102">MastermindStandalone</text><line style="stroke: #A80036; stroke-width: 1.5;" x1="39" x2="197" y1="269" y2="269"/><line style="stroke: #A80036; stroke-width: 1.5;" x1="39" x2="197" y1="277" y2="277"/><ellipse cx="49" cy="289.418" fill="#84BE84" rx="3" ry="3" style="stroke: #038048; stroke-width: 1.0;"/><text fill="#000000" font-family="sans-serif" font-size="11" lengthAdjust="spacingAndGlyphs" textLength="117" x="58" y="292.4189">MastermindStandalone()</text><ellipse cx="49" cy="303.2539" fill="#84BE84" rx="3" ry="3" style="stroke: #038048; stroke-width: 1.0;"/><text fill="#000000" font-family="sans-serif" font-size="11" lengthAdjust="spacingAndGlyphs" text-decoration="underline" textLength="90" x="58" y="306.2549">main(String[]): void</text><polygon fill="#FFFF44" points="49,312.0898,53,316.0898,49,320.0898,45,316.0898" style="stroke: #B38D22; stroke-width: 1.0;"/><text fill="#000000" font-family="sans-serif" font-size="11" lengthAdjust="spacingAndGlyphs" textLength="97" x="58" y="320.0908">createLogic(): Logic</text><!--class mastermind.views.View--><rect fill="#FEFECE" filter="url(#f1xefyrirp4cix)" height="48" id="mastermind.views.View" style="stroke: #A80036; stroke-width: 1.5;" width="58" x="254" y="258"/><ellipse cx="269" cy="274" fill="#ADD1B2" rx="11" ry="11" style="stroke: #A80036; stroke-width: 1.0;"/><path d="M271.7656,269.875 Q271.9219,269.6563 272.1094,269.5469 Q272.2969,269.4375 272.5156,269.4375 Q272.8906,269.4375 273.125,269.6953 Q273.3594,269.9531 273.3594,270.5625 L273.3594,272.0156 Q273.3594,272.625 273.125,272.8906 Q272.8906,273.1563 272.5156,273.1563 Q272.1719,273.1563 271.9688,272.9531 Q271.7656,272.7656 271.6563,272.25 Q271.6094,271.8906 271.4219,271.7031 Q271.0938,271.3281 270.4844,271.1094 Q269.875,270.8906 269.25,270.8906 Q268.4844,270.8906 267.8516,271.2188 Q267.2188,271.5469 266.7266,272.2969 Q266.2344,273.0469 266.2344,274.0781 L266.2344,275.1719 Q266.2344,276.4063 267.125,277.2266 Q268.0156,278.0469 269.6094,278.0469 Q270.5469,278.0469 271.2031,277.7969 Q271.5938,277.6406 272.0156,277.2031 Q272.2813,276.9375 272.4297,276.8594 Q272.5781,276.7813 272.7813,276.7813 Q273.1094,276.7813 273.3672,277.0391 Q273.625,277.2969 273.625,277.6406 Q273.625,277.9844 273.2813,278.3906 Q272.7813,278.9688 271.9844,279.2969 Q270.9063,279.75 269.6094,279.75 Q268.0938,279.75 266.8906,279.125 Q265.9063,278.625 265.2188,277.5547 Q264.5313,276.4844 264.5313,275.2031 L264.5313,274.0469 Q264.5313,272.7188 265.1484,271.5703 Q265.7656,270.4219 266.8594,269.8047 Q267.9531,269.1875 269.1875,269.1875 Q269.9219,269.1875 270.5703,269.3516 Q271.2188,269.5156 271.7656,269.875 Z "/><text fill="#000000" font-family="sans-serif" font-size="12" lengthAdjust="spacingAndGlyphs" textLength="26" x="283" y="278.9102">View</text><line style="stroke: #A80036; stroke-width: 1.5;" x1="255" x2="311" y1="290" y2="290"/><line style="stroke: #A80036; stroke-width: 1.5;" x1="255" x2="311" y1="298" y2="298"/><!--class mastermind.controllers.Logic--><rect fill="#FEFECE" filter="url(#f1xefyrirp4cix)" height="48" id="mastermind.controllers.Logic" style="stroke: #A80036; stroke-width: 1.5;" width="62" x="421" y="258"/><ellipse cx="436" cy="274" fill="#ADD1B2" rx="11" ry="11" style="stroke: #A80036; stroke-width: 1.0;"/><path d="M438.7656,269.875 Q438.9219,269.6563 439.1094,269.5469 Q439.2969,269.4375 439.5156,269.4375 Q439.8906,269.4375 440.125,269.6953 Q440.3594,269.9531 440.3594,270.5625 L440.3594,272.0156 Q440.3594,272.625 440.125,272.8906 Q439.8906,273.1563 439.5156,273.1563 Q439.1719,273.1563 438.9688,272.9531 Q438.7656,272.7656 438.6563,272.25 Q438.6094,271.8906 438.4219,271.7031 Q438.0938,271.3281 437.4844,271.1094 Q436.875,270.8906 436.25,270.8906 Q435.4844,270.8906 434.8516,271.2188 Q434.2188,271.5469 433.7266,272.2969 Q433.2344,273.0469 433.2344,274.0781 L433.2344,275.1719 Q433.2344,276.4063 434.125,277.2266 Q435.0156,278.0469 436.6094,278.0469 Q437.5469,278.0469 438.2031,277.7969 Q438.5938,277.6406 439.0156,277.2031 Q439.2813,276.9375 439.4297,276.8594 Q439.5781,276.7813 439.7813,276.7813 Q440.1094,276.7813 440.3672,277.0391 Q440.625,277.2969 440.625,277.6406 Q440.625,277.9844 440.2813,278.3906 Q439.7813,278.9688 438.9844,279.2969 Q437.9063,279.75 436.6094,279.75 Q435.0938,279.75 433.8906,279.125 Q432.9063,278.625 432.2188,277.5547 Q431.5313,276.4844 431.5313,275.2031 L431.5313,274.0469 Q431.5313,272.7188 432.1484,271.5703 Q432.7656,270.4219 433.8594,269.8047 Q434.9531,269.1875 436.1875,269.1875 Q436.9219,269.1875 437.5703,269.3516 Q438.2188,269.5156 438.7656,269.875 Z "/><text fill="#000000" font-family="sans-serif" font-size="12" lengthAdjust="spacingAndGlyphs" textLength="30" x="450" y="278.9102">Logic</text><line style="stroke: #A80036; stroke-width: 1.5;" x1="422" x2="482" y1="290" y2="290"/><line style="stroke: #A80036; stroke-width: 1.5;" x1="422" x2="482" y1="298" y2="298"/><!--link mastermind.Mastermind to mastermind.views.View--><path d="M197.063,187.224 C216.279,208.193 236.598,230.365 252.651,247.883 " fill="none" id="mastermind.Mastermind-mastermind.views.View" style="stroke: #A80036; stroke-width: 1.0;"/><polygon fill="#A80036" points="261.57,257.615,258.4385,248.2772,258.1919,253.9287,252.5405,253.6821,261.57,257.615" style="stroke: #A80036; stroke-width: 1.0;"/><line style="stroke: #A80036; stroke-width: 1.0;" x1="258.1919" x2="252.7865" y1="253.9287" y2="248.031"/><polygon fill="#A80036" points="188.013,177.349,189.1176,184.475,196.1203,186.1961,195.0157,179.0701,188.013,177.349" style="stroke: #A80036; stroke-width: 1.0;"/><!--link mastermind.Mastermind to mastermind.controllers.Logic--><path d="M197.899,149.512 C235.781,167.781 284.877,191.804 328,214 C358.006,229.444 391.67,247.694 416.343,261.2432 " fill="none" id="mastermind.Mastermind-mastermind.controllers.Logic" style="stroke: #A80036; stroke-width: 1.0;"/><polygon fill="#A80036" points="420.842,263.7167,414.884,255.8743,416.461,261.3069,411.0284,262.8839,420.842,263.7167" style="stroke: #A80036; stroke-width: 1.0;"/><!--link mastermind.Mastermind to mastermind.MastermindStandalone--><path d="M126.778,197.613 C125.353,211.145 123.918,224.776 122.633,236.984 " fill="none" id="mastermind.Mastermind-mastermind.MastermindStandalone" style="stroke: #A80036; stroke-width: 1.0;"/><polygon fill="none" points="119.855,196.506,128.911,177.349,133.778,197.972,119.855,196.506" style="stroke: #A80036; stroke-width: 1.0;"/><!--
@startuml

class  mastermind.Mastermind{
- logic: Logic
- view: View
# Mastermind()
# {abstract} createLogic(): Logic
# play(): void
}
mastermind.Mastermind *-down-> mastermind.views.View
mastermind.Mastermind - -> mastermind.controllers.Logic

class  mastermind.MastermindStandalone{
+ MastermindStandalone()
+ {static} main(String[]): void
# createLogic(): Logic
}
mastermind.Mastermind <|-down- mastermind.MastermindStandalone

@enduml

PlantUML version 1.2019.05(Sat Apr 20 18:45:36 CEST 2019)
(GPL source distribution)
Java Runtime: OpenJDK Runtime Environment
JVM: OpenJDK 64-Bit Server VM
Java Version: 1.8.0_222-b10
Operating System: Windows 10
OS Version: 10.0
Default Encoding: windows-1252
Language: es
Country: ES
--></g></svg>