<?xml version="1.0" encoding="UTF-8" standalone="no"?><svg xmlns="http://www.w3.org/2000/svg" xmlns:xlink="http://www.w3.org/1999/xlink" contentScriptType="application/ecmascript" contentStyleType="text/css" height="477px" preserveAspectRatio="none" style="width:1119px;height:477px;" version="1.1" viewBox="0 0 1119 477" width="1119px" zoomAndPan="magnify"><defs><filter height="300%" id="f64ifma0k36fa" width="300%" x="-1" y="-1"><feGaussianBlur result="blurOut" stdDeviation="2.0"/><feColorMatrix in="blurOut" result="blurOut2" type="matrix" values="0 0 0 0 0 0 0 0 0 0 0 0 0 0 0 0 0 0 .4 0"/><feOffset dx="4.0" dy="4.0" in="blurOut2" result="blurOut3"/><feBlend in="SourceGraphic" in2="blurOut3" mode="normal"/></filter></defs><g><!--cluster mastermind--><polygon fill="#FFFFFF" filter="url(#f64ifma0k36fa)" points="22,24,110,24,117,47.6094,536,47.6094,536,465,22,465,22,24" style="stroke: #000000; stroke-width: 1.5;"/><line style="stroke: #000000; stroke-width: 1.5;" x1="22" x2="117" y1="47.6094" y2="47.6094"/><text fill="#000000" font-family="sans-serif" font-size="14" font-weight="bold" lengthAdjust="spacingAndGlyphs" textLength="82" x="26" y="40.5332">mastermind</text><!--cluster mastermind.controllers--><polygon fill="#FFFFFF" filter="url(#f64ifma0k36fa)" points="560,215,729,215,736,238.6094,823,238.6094,823,315,560,315,560,215" style="stroke: #000000; stroke-width: 1.5;"/><line style="stroke: #000000; stroke-width: 1.5;" x1="560" x2="736" y1="238.6094" y2="238.6094"/><text fill="#000000" font-family="sans-serif" font-size="14" font-weight="bold" lengthAdjust="spacingAndGlyphs" textLength="163" x="564" y="231.5332">mastermind.controllers</text><!--cluster mastermind.views--><polygon fill="#FFFFFF" filter="url(#f64ifma0k36fa)" points="847,215,980,215,987,238.6094,990,238.6094,990,315,847,315,847,215" style="stroke: #000000; stroke-width: 1.5;"/><line style="stroke: #000000; stroke-width: 1.5;" x1="847" x2="987" y1="238.6094" y2="238.6094"/><text fill="#000000" font-family="sans-serif" font-size="14" font-weight="bold" lengthAdjust="spacingAndGlyphs" textLength="127" x="851" y="231.5332">mastermind.views</text><!--cluster mastermind.controllers.implementation--><polygon fill="#FFFFFF" filter="url(#f64ifma0k36fa)" points="560,351,841,351,848,374.6094,851,374.6094,851,451,560,451,560,351" style="stroke: #000000; stroke-width: 1.5;"/><line style="stroke: #000000; stroke-width: 1.5;" x1="560" x2="848" y1="374.6094" y2="374.6094"/><text fill="#000000" font-family="sans-serif" font-size="14" font-weight="bold" lengthAdjust="spacingAndGlyphs" textLength="275" x="564" y="367.5332">mastermind.controllers.implementation</text><!--cluster mastermind.models.DAO--><polygon fill="#FFFFFF" filter="url(#f64ifma0k36fa)" points="875,351,1052,351,1059,374.6094,1097,374.6094,1097,451,875,451,875,351" style="stroke: #000000; stroke-width: 1.5;"/><line style="stroke: #000000; stroke-width: 1.5;" x1="875" x2="1059" y1="374.6094" y2="374.6094"/><text fill="#000000" font-family="sans-serif" font-size="14" font-weight="bold" lengthAdjust="spacingAndGlyphs" textLength="171" x="879" y="367.5332">mastermind.models.DAO</text><!--class mastermind.Mastermind--><rect fill="#FEFECE" filter="url(#f64ifma0k36fa)" height="117.1797" id="mastermind.Mastermind" style="stroke: #A80036; stroke-width: 1.5;" width="122" x="398" y="60"/><ellipse cx="424.7" cy="76" fill="#A9DCDF" rx="11" ry="11" style="stroke: #A80036; stroke-width: 1.0;"/><path d="M426.8875,77.7656 L422.7469,77.7656 L422.325,78.7969 L422.7469,78.7969 Q423.3563,78.7969 423.6219,79.0313 Q423.8875,79.2656 423.8875,79.6563 Q423.8875,80.0313 423.6219,80.2656 Q423.3563,80.5 422.7469,80.5 L420.45,80.5 Q419.8406,80.5 419.5828,80.2656 Q419.325,80.0313 419.325,79.6406 Q419.325,79.2656 419.5984,79.0234 Q419.8719,78.7813 420.4969,78.7969 L423.1688,72.1406 L422.0594,72.1406 Q421.45,72.1406 421.1844,71.9063 Q420.9188,71.6719 420.9188,71.2813 Q420.9188,70.9063 421.1844,70.6719 Q421.45,70.4375 422.0594,70.4375 L425.7313,70.4375 L429.1219,78.7969 Q429.7156,78.7969 429.9031,78.9375 Q430.2938,79.2031 430.2938,79.6563 Q430.2938,80.0313 430.0359,80.2656 Q429.7781,80.5 429.1688,80.5 L426.8719,80.5 Q426.2625,80.5 425.9969,80.2656 Q425.7313,80.0313 425.7313,79.6406 Q425.7313,79.2656 425.9969,79.0313 Q426.2625,78.7969 426.8719,78.7969 L427.2938,78.7969 L426.8875,77.7656 Z M426.1688,76.0625 L424.8094,72.6875 L423.4344,76.0625 L426.1688,76.0625 Z "/><text fill="#000000" font-family="sans-serif" font-size="12" font-style="italic" lengthAdjust="spacingAndGlyphs" textLength="64" x="441.3" y="80.9102">Mastermind</text><line style="stroke: #A80036; stroke-width: 1.5;" x1="399" x2="519" y1="92" y2="92"/><rect fill="none" height="6" style="stroke: #C82930; stroke-width: 1.0;" width="6" x="406" y="101.418"/><text fill="#000000" font-family="sans-serif" font-size="11" lengthAdjust="spacingAndGlyphs" textLength="51" x="418" y="107.4189">Logic logic</text><rect fill="none" height="6" style="stroke: #C82930; stroke-width: 1.0;" width="6" x="406" y="115.2539"/><text fill="#000000" font-family="sans-serif" font-size="11" lengthAdjust="spacingAndGlyphs" textLength="53" x="418" y="121.2549">View view</text><line style="stroke: #A80036; stroke-width: 1.5;" x1="399" x2="519" y1="127.6719" y2="127.6719"/><polygon fill="#FFFF44" points="409,135.0898,413,139.0898,409,143.0898,405,139.0898" style="stroke: #B38D22; stroke-width: 1.0;"/><text fill="#000000" font-family="sans-serif" font-size="11" lengthAdjust="spacingAndGlyphs" textLength="63" x="418" y="143.0908">Mastermind()</text><polygon fill="#FFFF44" points="409,148.9258,413,152.9258,409,156.9258,405,152.9258" style="stroke: #B38D22; stroke-width: 1.0;"/><text fill="#000000" font-family="sans-serif" font-size="11" font-style="italic" lengthAdjust="spacingAndGlyphs" textLength="96" x="418" y="156.9268">Logic createLogic()</text><polygon fill="#FFFF44" points="409,162.7617,413,166.7617,409,170.7617,405,166.7617" style="stroke: #B38D22; stroke-width: 1.0;"/><text fill="#000000" font-family="sans-serif" font-size="11" lengthAdjust="spacingAndGlyphs" textLength="51" x="418" y="170.7627">void play()</text><!--class mastermind.MastermindStandalone--><rect fill="#FEFECE" filter="url(#f64ifma0k36fa)" height="75.6719" id="mastermind.MastermindStandalone" style="stroke: #A80036; stroke-width: 1.5;" width="231" x="288.5" y="237"/><ellipse cx="336.25" cy="253" fill="#A9DCDF" rx="11" ry="11" style="stroke: #A80036; stroke-width: 1.0;"/><path d="M338.4375,254.7656 L334.2969,254.7656 L333.875,255.7969 L334.2969,255.7969 Q334.9063,255.7969 335.1719,256.0313 Q335.4375,256.2656 335.4375,256.6563 Q335.4375,257.0313 335.1719,257.2656 Q334.9063,257.5 334.2969,257.5 L332,257.5 Q331.3906,257.5 331.1328,257.2656 Q330.875,257.0313 330.875,256.6406 Q330.875,256.2656 331.1484,256.0234 Q331.4219,255.7813 332.0469,255.7969 L334.7188,249.1406 L333.6094,249.1406 Q333,249.1406 332.7344,248.9063 Q332.4688,248.6719 332.4688,248.2813 Q332.4688,247.9063 332.7344,247.6719 Q333,247.4375 333.6094,247.4375 L337.2813,247.4375 L340.6719,255.7969 Q341.2656,255.7969 341.4531,255.9375 Q341.8438,256.2031 341.8438,256.6563 Q341.8438,257.0313 341.5859,257.2656 Q341.3281,257.5 340.7188,257.5 L338.4219,257.5 Q337.8125,257.5 337.5469,257.2656 Q337.2813,257.0313 337.2813,256.6406 Q337.2813,256.2656 337.5469,256.0313 Q337.8125,255.7969 338.4219,255.7969 L338.8438,255.7969 L338.4375,254.7656 Z M337.7188,253.0625 L336.3594,249.6875 L334.9844,253.0625 L337.7188,253.0625 Z "/><text fill="#000000" font-family="sans-serif" font-size="12" font-style="italic" lengthAdjust="spacingAndGlyphs" textLength="127" x="356.75" y="257.9102">MastermindStandalone</text><line style="stroke: #A80036; stroke-width: 1.5;" x1="289.5" x2="518.5" y1="269" y2="269"/><line style="stroke: #A80036; stroke-width: 1.5;" x1="289.5" x2="518.5" y1="277" y2="277"/><polygon fill="#FFFF44" points="299.5,284.418,303.5,288.418,299.5,292.418,295.5,288.418" style="stroke: #B38D22; stroke-width: 1.0;"/><text fill="#000000" font-family="sans-serif" font-size="11" lengthAdjust="spacingAndGlyphs" textLength="94" x="308.5" y="292.4189">Logic createLogic()</text><polygon fill="#FFFF44" points="299.5,298.2539,303.5,302.2539,299.5,306.2539,295.5,302.2539" style="stroke: #B38D22; stroke-width: 1.0;"/><text fill="#000000" font-family="sans-serif" font-size="11" font-style="italic" lengthAdjust="spacingAndGlyphs" textLength="205" x="308.5" y="306.2549">SessionImplementationDAO createDAO()</text><!--class mastermind.MastermindStandaloneDB--><rect fill="#FEFECE" filter="url(#f64ifma0k36fa)" height="75.6719" id="mastermind.MastermindStandaloneDB" style="stroke: #A80036; stroke-width: 1.5;" width="223" x="38.5" y="373"/><ellipse cx="74.2" cy="389" fill="#ADD1B2" rx="11" ry="11" style="stroke: #A80036; stroke-width: 1.0;"/><path d="M76.9656,384.875 Q77.1219,384.6563 77.3094,384.5469 Q77.4969,384.4375 77.7156,384.4375 Q78.0906,384.4375 78.325,384.6953 Q78.5594,384.9531 78.5594,385.5625 L78.5594,387.0156 Q78.5594,387.625 78.325,387.8906 Q78.0906,388.1563 77.7156,388.1563 Q77.3719,388.1563 77.1688,387.9531 Q76.9656,387.7656 76.8563,387.25 Q76.8094,386.8906 76.6219,386.7031 Q76.2938,386.3281 75.6844,386.1094 Q75.075,385.8906 74.45,385.8906 Q73.6844,385.8906 73.0516,386.2188 Q72.4188,386.5469 71.9266,387.2969 Q71.4344,388.0469 71.4344,389.0781 L71.4344,390.1719 Q71.4344,391.4063 72.325,392.2266 Q73.2156,393.0469 74.8094,393.0469 Q75.7469,393.0469 76.4031,392.7969 Q76.7938,392.6406 77.2156,392.2031 Q77.4813,391.9375 77.6297,391.8594 Q77.7781,391.7813 77.9813,391.7813 Q78.3094,391.7813 78.5672,392.0391 Q78.825,392.2969 78.825,392.6406 Q78.825,392.9844 78.4813,393.3906 Q77.9813,393.9688 77.1844,394.2969 Q76.1063,394.75 74.8094,394.75 Q73.2938,394.75 72.0906,394.125 Q71.1063,393.625 70.4188,392.5547 Q69.7313,391.4844 69.7313,390.2031 L69.7313,389.0469 Q69.7313,387.7188 70.3484,386.5703 Q70.9656,385.4219 72.0594,384.8047 Q73.1531,384.1875 74.3875,384.1875 Q75.1219,384.1875 75.7703,384.3516 Q76.4188,384.5156 76.9656,384.875 Z "/><text fill="#000000" font-family="sans-serif" font-size="12" lengthAdjust="spacingAndGlyphs" textLength="145" x="92.8" y="393.9102">MastermindStandaloneDB</text><line style="stroke: #A80036; stroke-width: 1.5;" x1="39.5" x2="260.5" y1="405" y2="405"/><line style="stroke: #A80036; stroke-width: 1.5;" x1="39.5" x2="260.5" y1="413" y2="413"/><polygon fill="#FFFF44" points="49.5,420.418,53.5,424.418,49.5,428.418,45.5,424.418" style="stroke: #B38D22; stroke-width: 1.0;"/><text fill="#000000" font-family="sans-serif" font-size="11" lengthAdjust="spacingAndGlyphs" textLength="197" x="58.5" y="428.4189">SessionImplementationDAO createDAO()</text><ellipse cx="49.5" cy="439.2539" fill="#84BE84" rx="3" ry="3" style="stroke: #038048; stroke-width: 1.0;"/><text fill="#000000" font-family="sans-serif" font-size="11" lengthAdjust="spacingAndGlyphs" text-decoration="underline" textLength="112" x="58.5" y="442.2549">void main(String[] args)</text><!--class mastermind.MastermindStandaloneFile--><rect fill="#FEFECE" filter="url(#f64ifma0k36fa)" height="75.6719" id="mastermind.MastermindStandaloneFile" style="stroke: #A80036; stroke-width: 1.5;" width="223" x="296.5" y="373"/><ellipse cx="330.85" cy="389" fill="#ADD1B2" rx="11" ry="11" style="stroke: #A80036; stroke-width: 1.0;"/><path d="M333.6156,384.875 Q333.7719,384.6563 333.9594,384.5469 Q334.1469,384.4375 334.3656,384.4375 Q334.7406,384.4375 334.975,384.6953 Q335.2094,384.9531 335.2094,385.5625 L335.2094,387.0156 Q335.2094,387.625 334.975,387.8906 Q334.7406,388.1563 334.3656,388.1563 Q334.0219,388.1563 333.8188,387.9531 Q333.6156,387.7656 333.5063,387.25 Q333.4594,386.8906 333.2719,386.7031 Q332.9438,386.3281 332.3344,386.1094 Q331.725,385.8906 331.1,385.8906 Q330.3344,385.8906 329.7016,386.2188 Q329.0688,386.5469 328.5766,387.2969 Q328.0844,388.0469 328.0844,389.0781 L328.0844,390.1719 Q328.0844,391.4063 328.975,392.2266 Q329.8656,393.0469 331.4594,393.0469 Q332.3969,393.0469 333.0531,392.7969 Q333.4438,392.6406 333.8656,392.2031 Q334.1313,391.9375 334.2797,391.8594 Q334.4281,391.7813 334.6313,391.7813 Q334.9594,391.7813 335.2172,392.0391 Q335.475,392.2969 335.475,392.6406 Q335.475,392.9844 335.1313,393.3906 Q334.6313,393.9688 333.8344,394.2969 Q332.7563,394.75 331.4594,394.75 Q329.9438,394.75 328.7406,394.125 Q327.7563,393.625 327.0688,392.5547 Q326.3813,391.4844 326.3813,390.2031 L326.3813,389.0469 Q326.3813,387.7188 326.9984,386.5703 Q327.6156,385.4219 328.7094,384.8047 Q329.8031,384.1875 331.0375,384.1875 Q331.7719,384.1875 332.4203,384.3516 Q333.0688,384.5156 333.6156,384.875 Z "/><text fill="#000000" font-family="sans-serif" font-size="12" lengthAdjust="spacingAndGlyphs" textLength="148" x="349.15" y="393.9102">MastermindStandaloneFile</text><line style="stroke: #A80036; stroke-width: 1.5;" x1="297.5" x2="518.5" y1="405" y2="405"/><line style="stroke: #A80036; stroke-width: 1.5;" x1="297.5" x2="518.5" y1="413" y2="413"/><polygon fill="#FFFF44" points="307.5,420.418,311.5,424.418,307.5,428.418,303.5,424.418" style="stroke: #B38D22; stroke-width: 1.0;"/><text fill="#000000" font-family="sans-serif" font-size="11" lengthAdjust="spacingAndGlyphs" textLength="197" x="316.5" y="428.4189">SessionImplementationDAO createDAO()</text><ellipse cx="307.5" cy="439.2539" fill="#84BE84" rx="3" ry="3" style="stroke: #038048; stroke-width: 1.0;"/><text fill="#000000" font-family="sans-serif" font-size="11" lengthAdjust="spacingAndGlyphs" text-decoration="underline" textLength="112" x="316.5" y="442.2549">void main(String[] args)</text><!--class mastermind.controllers.Logic--><rect fill="#FEFECE" filter="url(#f64ifma0k36fa)" height="48" id="mastermind.controllers.Logic" style="stroke: #A80036; stroke-width: 1.5;" width="62" x="745" y="251"/><ellipse cx="760" cy="267" fill="#ADD1B2" rx="11" ry="11" style="stroke: #A80036; stroke-width: 1.0;"/><path d="M762.7656,262.875 Q762.9219,262.6563 763.1094,262.5469 Q763.2969,262.4375 763.5156,262.4375 Q763.8906,262.4375 764.125,262.6953 Q764.3594,262.9531 764.3594,263.5625 L764.3594,265.0156 Q764.3594,265.625 764.125,265.8906 Q763.8906,266.1563 763.5156,266.1563 Q763.1719,266.1563 762.9688,265.9531 Q762.7656,265.7656 762.6563,265.25 Q762.6094,264.8906 762.4219,264.7031 Q762.0938,264.3281 761.4844,264.1094 Q760.875,263.8906 760.25,263.8906 Q759.4844,263.8906 758.8516,264.2188 Q758.2188,264.5469 757.7266,265.2969 Q757.2344,266.0469 757.2344,267.0781 L757.2344,268.1719 Q757.2344,269.4063 758.125,270.2266 Q759.0156,271.0469 760.6094,271.0469 Q761.5469,271.0469 762.2031,270.7969 Q762.5938,270.6406 763.0156,270.2031 Q763.2813,269.9375 763.4297,269.8594 Q763.5781,269.7813 763.7813,269.7813 Q764.1094,269.7813 764.3672,270.0391 Q764.625,270.2969 764.625,270.6406 Q764.625,270.9844 764.2813,271.3906 Q763.7813,271.9688 762.9844,272.2969 Q761.9063,272.75 760.6094,272.75 Q759.0938,272.75 757.8906,272.125 Q756.9063,271.625 756.2188,270.5547 Q755.5313,269.4844 755.5313,268.2031 L755.5313,267.0469 Q755.5313,265.7188 756.1484,264.5703 Q756.7656,263.4219 757.8594,262.8047 Q758.9531,262.1875 760.1875,262.1875 Q760.9219,262.1875 761.5703,262.3516 Q762.2188,262.5156 762.7656,262.875 Z "/><text fill="#000000" font-family="sans-serif" font-size="12" lengthAdjust="spacingAndGlyphs" textLength="30" x="774" y="271.9102">Logic</text><line style="stroke: #A80036; stroke-width: 1.5;" x1="746" x2="806" y1="283" y2="283"/><line style="stroke: #A80036; stroke-width: 1.5;" x1="746" x2="806" y1="291" y2="291"/><!--class mastermind.controllers.AcceptorController--><rect fill="#FEFECE" filter="url(#f64ifma0k36fa)" height="48" id="mastermind.controllers.AcceptorController" style="stroke: #A80036; stroke-width: 1.5;" width="133" x="576.5" y="251"/><ellipse cx="591.5" cy="267" fill="#ADD1B2" rx="11" ry="11" style="stroke: #A80036; stroke-width: 1.0;"/><path d="M594.2656,262.875 Q594.4219,262.6563 594.6094,262.5469 Q594.7969,262.4375 595.0156,262.4375 Q595.3906,262.4375 595.625,262.6953 Q595.8594,262.9531 595.8594,263.5625 L595.8594,265.0156 Q595.8594,265.625 595.625,265.8906 Q595.3906,266.1563 595.0156,266.1563 Q594.6719,266.1563 594.4688,265.9531 Q594.2656,265.7656 594.1563,265.25 Q594.1094,264.8906 593.9219,264.7031 Q593.5938,264.3281 592.9844,264.1094 Q592.375,263.8906 591.75,263.8906 Q590.9844,263.8906 590.3516,264.2188 Q589.7188,264.5469 589.2266,265.2969 Q588.7344,266.0469 588.7344,267.0781 L588.7344,268.1719 Q588.7344,269.4063 589.625,270.2266 Q590.5156,271.0469 592.1094,271.0469 Q593.0469,271.0469 593.7031,270.7969 Q594.0938,270.6406 594.5156,270.2031 Q594.7813,269.9375 594.9297,269.8594 Q595.0781,269.7813 595.2813,269.7813 Q595.6094,269.7813 595.8672,270.0391 Q596.125,270.2969 596.125,270.6406 Q596.125,270.9844 595.7813,271.3906 Q595.2813,271.9688 594.4844,272.2969 Q593.4063,272.75 592.1094,272.75 Q590.5938,272.75 589.3906,272.125 Q588.4063,271.625 587.7188,270.5547 Q587.0313,269.4844 587.0313,268.2031 L587.0313,267.0469 Q587.0313,265.7188 587.6484,264.5703 Q588.2656,263.4219 589.3594,262.8047 Q590.4531,262.1875 591.6875,262.1875 Q592.4219,262.1875 593.0703,262.3516 Q593.7188,262.5156 594.2656,262.875 Z "/><text fill="#000000" font-family="sans-serif" font-size="12" lengthAdjust="spacingAndGlyphs" textLength="101" x="605.5" y="271.9102">AcceptorController</text><line style="stroke: #A80036; stroke-width: 1.5;" x1="577.5" x2="708.5" y1="283" y2="283"/><line style="stroke: #A80036; stroke-width: 1.5;" x1="577.5" x2="708.5" y1="291" y2="291"/><!--class mastermind.views.View--><rect fill="#FEFECE" filter="url(#f64ifma0k36fa)" height="48" id="mastermind.views.View" style="stroke: #A80036; stroke-width: 1.5;" width="58" x="863" y="251"/><ellipse cx="878" cy="267" fill="#ADD1B2" rx="11" ry="11" style="stroke: #A80036; stroke-width: 1.0;"/><path d="M880.7656,262.875 Q880.9219,262.6563 881.1094,262.5469 Q881.2969,262.4375 881.5156,262.4375 Q881.8906,262.4375 882.125,262.6953 Q882.3594,262.9531 882.3594,263.5625 L882.3594,265.0156 Q882.3594,265.625 882.125,265.8906 Q881.8906,266.1563 881.5156,266.1563 Q881.1719,266.1563 880.9688,265.9531 Q880.7656,265.7656 880.6563,265.25 Q880.6094,264.8906 880.4219,264.7031 Q880.0938,264.3281 879.4844,264.1094 Q878.875,263.8906 878.25,263.8906 Q877.4844,263.8906 876.8516,264.2188 Q876.2188,264.5469 875.7266,265.2969 Q875.2344,266.0469 875.2344,267.0781 L875.2344,268.1719 Q875.2344,269.4063 876.125,270.2266 Q877.0156,271.0469 878.6094,271.0469 Q879.5469,271.0469 880.2031,270.7969 Q880.5938,270.6406 881.0156,270.2031 Q881.2813,269.9375 881.4297,269.8594 Q881.5781,269.7813 881.7813,269.7813 Q882.1094,269.7813 882.3672,270.0391 Q882.625,270.2969 882.625,270.6406 Q882.625,270.9844 882.2813,271.3906 Q881.7813,271.9688 880.9844,272.2969 Q879.9063,272.75 878.6094,272.75 Q877.0938,272.75 875.8906,272.125 Q874.9063,271.625 874.2188,270.5547 Q873.5313,269.4844 873.5313,268.2031 L873.5313,267.0469 Q873.5313,265.7188 874.1484,264.5703 Q874.7656,263.4219 875.8594,262.8047 Q876.9531,262.1875 878.1875,262.1875 Q878.9219,262.1875 879.5703,262.3516 Q880.2188,262.5156 880.7656,262.875 Z "/><text fill="#000000" font-family="sans-serif" font-size="12" lengthAdjust="spacingAndGlyphs" textLength="26" x="892" y="271.9102">View</text><line style="stroke: #A80036; stroke-width: 1.5;" x1="864" x2="920" y1="283" y2="283"/><line style="stroke: #A80036; stroke-width: 1.5;" x1="864" x2="920" y1="291" y2="291"/><!--class mastermind.controllers.implementation.LogicImplementation--><rect fill="#FEFECE" filter="url(#f64ifma0k36fa)" height="48" id="mastermind.controllers.implementation.LogicImplementation" style="stroke: #A80036; stroke-width: 1.5;" width="148" x="576" y="387"/><ellipse cx="591" cy="403" fill="#ADD1B2" rx="11" ry="11" style="stroke: #A80036; stroke-width: 1.0;"/><path d="M593.7656,398.875 Q593.9219,398.6563 594.1094,398.5469 Q594.2969,398.4375 594.5156,398.4375 Q594.8906,398.4375 595.125,398.6953 Q595.3594,398.9531 595.3594,399.5625 L595.3594,401.0156 Q595.3594,401.625 595.125,401.8906 Q594.8906,402.1563 594.5156,402.1563 Q594.1719,402.1563 593.9688,401.9531 Q593.7656,401.7656 593.6563,401.25 Q593.6094,400.8906 593.4219,400.7031 Q593.0938,400.3281 592.4844,400.1094 Q591.875,399.8906 591.25,399.8906 Q590.4844,399.8906 589.8516,400.2188 Q589.2188,400.5469 588.7266,401.2969 Q588.2344,402.0469 588.2344,403.0781 L588.2344,404.1719 Q588.2344,405.4063 589.125,406.2266 Q590.0156,407.0469 591.6094,407.0469 Q592.5469,407.0469 593.2031,406.7969 Q593.5938,406.6406 594.0156,406.2031 Q594.2813,405.9375 594.4297,405.8594 Q594.5781,405.7813 594.7813,405.7813 Q595.1094,405.7813 595.3672,406.0391 Q595.625,406.2969 595.625,406.6406 Q595.625,406.9844 595.2813,407.3906 Q594.7813,407.9688 593.9844,408.2969 Q592.9063,408.75 591.6094,408.75 Q590.0938,408.75 588.8906,408.125 Q587.9063,407.625 587.2188,406.5547 Q586.5313,405.4844 586.5313,404.2031 L586.5313,403.0469 Q586.5313,401.7188 587.1484,400.5703 Q587.7656,399.4219 588.8594,398.8047 Q589.9531,398.1875 591.1875,398.1875 Q591.9219,398.1875 592.5703,398.3516 Q593.2188,398.5156 593.7656,398.875 Z "/><text fill="#000000" font-family="sans-serif" font-size="12" lengthAdjust="spacingAndGlyphs" textLength="116" x="605" y="407.9102">LogicImplementation</text><line style="stroke: #A80036; stroke-width: 1.5;" x1="577" x2="723" y1="419" y2="419"/><line style="stroke: #A80036; stroke-width: 1.5;" x1="577" x2="723" y1="427" y2="427"/><!--class mastermind.models.DAO.SessionImplementationDAO--><rect fill="#FEFECE" filter="url(#f64ifma0k36fa)" height="48" id="mastermind.models.DAO.SessionImplementationDAO" style="stroke: #A80036; stroke-width: 1.5;" width="189" x="891.5" y="387"/><ellipse cx="906.5" cy="403" fill="#ADD1B2" rx="11" ry="11" style="stroke: #A80036; stroke-width: 1.0;"/><path d="M909.2656,398.875 Q909.4219,398.6563 909.6094,398.5469 Q909.7969,398.4375 910.0156,398.4375 Q910.3906,398.4375 910.625,398.6953 Q910.8594,398.9531 910.8594,399.5625 L910.8594,401.0156 Q910.8594,401.625 910.625,401.8906 Q910.3906,402.1563 910.0156,402.1563 Q909.6719,402.1563 909.4688,401.9531 Q909.2656,401.7656 909.1563,401.25 Q909.1094,400.8906 908.9219,400.7031 Q908.5938,400.3281 907.9844,400.1094 Q907.375,399.8906 906.75,399.8906 Q905.9844,399.8906 905.3516,400.2188 Q904.7188,400.5469 904.2266,401.2969 Q903.7344,402.0469 903.7344,403.0781 L903.7344,404.1719 Q903.7344,405.4063 904.625,406.2266 Q905.5156,407.0469 907.1094,407.0469 Q908.0469,407.0469 908.7031,406.7969 Q909.0938,406.6406 909.5156,406.2031 Q909.7813,405.9375 909.9297,405.8594 Q910.0781,405.7813 910.2813,405.7813 Q910.6094,405.7813 910.8672,406.0391 Q911.125,406.2969 911.125,406.6406 Q911.125,406.9844 910.7813,407.3906 Q910.2813,407.9688 909.4844,408.2969 Q908.4063,408.75 907.1094,408.75 Q905.5938,408.75 904.3906,408.125 Q903.4063,407.625 902.7188,406.5547 Q902.0313,405.4844 902.0313,404.2031 L902.0313,403.0469 Q902.0313,401.7188 902.6484,400.5703 Q903.2656,399.4219 904.3594,398.8047 Q905.4531,398.1875 906.6875,398.1875 Q907.4219,398.1875 908.0703,398.3516 Q908.7188,398.5156 909.2656,398.875 Z "/><text fill="#000000" font-family="sans-serif" font-size="12" lengthAdjust="spacingAndGlyphs" textLength="157" x="920.5" y="407.9102">SessionImplementationDAO</text><line style="stroke: #A80036; stroke-width: 1.5;" x1="892.5" x2="1079.5" y1="419" y2="419"/><line style="stroke: #A80036; stroke-width: 1.5;" x1="892.5" x2="1079.5" y1="427" y2="427"/><!--link mastermind.Mastermind to mastermind.controllers.Logic--><path d="M533.013,130.872 C590.241,142.522 669.197,165.079 727,207 C738.812,215.566 748.945,227.837 756.88,239.542 " fill="none" id="mastermind.Mastermind-mastermind.controllers.Logic" style="stroke: #A80036; stroke-width: 1.0;"/><polygon fill="#A80036" points="764.063,250.9,762.6331,241.1555,761.3905,246.6742,755.8718,245.4315,764.063,250.9" style="stroke: #A80036; stroke-width: 1.0;"/><line style="stroke: #A80036; stroke-width: 1.0;" x1="761.3905" x2="757.1145" y1="246.6742" y2="239.913"/><polygon fill="#A80036" points="520.055,128.344,525.1784,133.4186,531.8331,130.6411,526.7097,125.5665,520.055,128.344" style="stroke: #A80036; stroke-width: 1.0;"/><!--link mastermind.Mastermind to mastermind.views.View--><path d="M533.522,125.762 C610.174,134.786 731.021,156.357 823,207 C838.696,215.642 853.358,228.812 865.094,241.196 " fill="none" id="mastermind.Mastermind-mastermind.views.View" style="stroke: #A80036; stroke-width: 1.0;"/><polygon fill="#A80036" points="873.843,250.856,870.7661,241.5001,870.4865,247.1501,864.8366,246.8705,873.843,250.856" style="stroke: #A80036; stroke-width: 1.0;"/><line style="stroke: #A80036; stroke-width: 1.0;" x1="870.4865" x2="865.1165" y1="247.1501" y2="241.2205"/><polygon fill="#A80036" points="520.209,124.269,525.726,128.9126,532.1343,125.606,526.6173,120.9624,520.209,124.269" style="stroke: #A80036; stroke-width: 1.0;"/><!--link mastermind.Mastermind to mastermind.controllers.AcceptorController--><path d="M520.014,170.732 C550.598,196.412 586.354,226.436 611.404,247.47 " fill="none" id="mastermind.Mastermind-mastermind.controllers.AcceptorController" style="stroke: #A80036; stroke-width: 1.0; stroke-dasharray: 7.0,7.0;"/><polygon fill="#A80036" points="615.33,250.767,611.0094,241.9164,611.5007,247.5519,605.8653,248.0432,615.33,250.767" style="stroke: #A80036; stroke-width: 1.0;"/><!--link mastermind.Mastermind to mastermind.MastermindStandalone--><path d="M431.745,196.062 C426.725,210.162 421.695,224.293 417.323,236.575 " fill="none" id="mastermind.Mastermind-mastermind.MastermindStandalone" style="stroke: #A80036; stroke-width: 1.0;"/><polygon fill="none" points="425.218,193.524,438.52,177.03,438.407,198.219,425.218,193.524" style="stroke: #A80036; stroke-width: 1.0;"/><!--link mastermind.MastermindStandalone to mastermind.controllers.implementation.LogicImplementation--><path d="M479.115,313.118 C497.816,322.635 517.737,333.01 536,343 C559.974,356.113 586.301,371.517 607.608,384.2467 " fill="none" id="mastermind.MastermindStandalone-mastermind.controllers.implementation.LogicImplementation" style="stroke: #A80036; stroke-width: 1.0; stroke-dasharray: 7.0,7.0;"/><polygon fill="#A80036" points="612.076,386.9206,606.4087,378.8657,607.786,384.3523,602.2994,385.7296,612.076,386.9206" style="stroke: #A80036; stroke-width: 1.0;"/><!--link mastermind.MastermindStandalone to mastermind.models.DAO.SessionImplementationDAO--><path d="M518.407,313.049 C532.325,316.789 546.421,320.224 560,323 C638.861,339.121 660.93,327.934 740,343 C797.067,353.873 860.276,371.207 908.332,385.5199 " fill="none" id="mastermind.MastermindStandalone-mastermind.models.DAO.SessionImplementationDAO" style="stroke: #A80036; stroke-width: 1.0; stroke-dasharray: 7.0,7.0;"/><polygon fill="#A80036" points="913.229,386.9834,905.7509,380.5742,908.4383,385.5519,903.4605,388.2393,913.229,386.9834" style="stroke: #A80036; stroke-width: 1.0;"/><!--link mastermind.MastermindStandalone to mastermind.MastermindStandaloneDB--><path d="M315.716,322.575 C284.586,338.998 250.024,357.232 220.553,372.779 " fill="none" id="mastermind.MastermindStandalone-mastermind.MastermindStandaloneDB" style="stroke: #A80036; stroke-width: 1.0;"/><polygon fill="none" points="312.629,316.289,333.584,313.149,319.161,328.672,312.629,316.289" style="stroke: #A80036; stroke-width: 1.0;"/><!--link mastermind.MastermindStandalone to mastermind.MastermindStandaloneFile--><path d="M405.717,333.535 C406.115,346.86 406.528,360.695 406.892,372.874 " fill="none" id="mastermind.MastermindStandalone-mastermind.MastermindStandaloneFile" style="stroke: #A80036; stroke-width: 1.0;"/><polygon fill="none" points="398.714,333.526,405.114,313.326,412.708,333.109,398.714,333.526" style="stroke: #A80036; stroke-width: 1.0;"/><!--
@startuml
abstract class mastermind.Mastermind {
	-Logic logic
	-View view
	#Mastermind()
	#{abstract}Logic createLogic()
	#void play()
}
mastermind.Mastermind *-down-> mastermind.controllers.Logic
mastermind.Mastermind *-down-> mastermind.views.View
mastermind.Mastermind ..> mastermind.controllers.AcceptorController

abstract class mastermind.MastermindStandalone {
	#Logic createLogic()
	#{abstract}SessionImplementationDAO createDAO()
}
mastermind.Mastermind <|-down- mastermind.MastermindStandalone
mastermind.MastermindStandalone ..> mastermind.controllers.implementation.LogicImplementation
mastermind.MastermindStandalone ..> mastermind.models.DAO.SessionImplementationDAO

class mastermind.MastermindStandaloneDB {
	#SessionImplementationDAO createDAO()
	+{static}void main(String[] args)
}
mastermind.MastermindStandalone <|- - mastermind.MastermindStandaloneDB

class mastermind.MastermindStandaloneFile {
	#SessionImplementationDAO createDAO()
	+{static}void main(String[] args)
}
mastermind.MastermindStandalone <|- - mastermind.MastermindStandaloneFile
@enduml

PlantUML version 1.2019.05(Sat Apr 20 18:45:36 CEST 2019)
(GPL source distribution)
Java Runtime: OpenJDK Runtime Environment
JVM: OpenJDK 64-Bit Server VM
Java Version: 1.8.0_222-b10
Operating System: Windows 10
OS Version: 10.0
Default Encoding: windows-1252
Language: es
Country: ES
--></g></svg>