<?xml version="1.0" encoding="UTF-8" standalone="no"?><svg xmlns="http://www.w3.org/2000/svg" xmlns:xlink="http://www.w3.org/1999/xlink" contentScriptType="application/ecmascript" contentStyleType="text/css" height="1002px" preserveAspectRatio="none" style="width:2540px;height:1002px;" version="1.1" viewBox="0 0 2540 1002" width="2540px" zoomAndPan="magnify"><defs><filter height="300%" id="ft3z516nhp6c6" width="300%" x="-1" y="-1"><feGaussianBlur result="blurOut" stdDeviation="2.0"/><feColorMatrix in="blurOut" result="blurOut2" type="matrix" values="0 0 0 0 0 0 0 0 0 0 0 0 0 0 0 0 0 0 .4 0"/><feOffset dx="4.0" dy="4.0" in="blurOut2" result="blurOut3"/><feBlend in="SourceGraphic" in2="blurOut3" mode="normal"/></filter></defs><g><!--cluster mastermind.views--><polygon fill="#FFFFFF" filter="url(#ft3z516nhp6c6)" points="230.895,24,363.895,24,370.895,47.6094,2092.89,47.6094,2092.89,866,230.895,866,230.895,24" style="stroke: #000000; stroke-width: 1.5;"/><line style="stroke: #000000; stroke-width: 1.5;" x1="230.895" x2="370.895" y1="47.6094" y2="47.6094"/><text fill="#000000" font-family="sans-serif" font-size="14" font-weight="bold" lengthAdjust="spacingAndGlyphs" textLength="127" x="234.895" y="40.5332">mastermind.views</text><!--cluster santaTecla.utils--><polygon fill="#FFFFFF" filter="url(#ft3z516nhp6c6)" points="2116.89,121,2231.89,121,2238.89,144.6094,2518.89,144.6094,2518.89,221,2116.89,221,2116.89,121" style="stroke: #000000; stroke-width: 1.5;"/><line style="stroke: #000000; stroke-width: 1.5;" x1="2116.89" x2="2238.89" y1="144.6094" y2="144.6094"/><text fill="#000000" font-family="sans-serif" font-size="14" font-weight="bold" lengthAdjust="spacingAndGlyphs" textLength="109" x="2120.89" y="137.5332">santaTecla.utils</text><!--cluster mastermind.types--><polygon fill="#FFFFFF" filter="url(#ft3z516nhp6c6)" points="872.895,890,1002.895,890,1009.895,913.6094,1061.89,913.6094,1061.89,990,872.895,990,872.895,890" style="stroke: #000000; stroke-width: 1.5;"/><line style="stroke: #000000; stroke-width: 1.5;" x1="872.895" x2="1009.895" y1="913.6094" y2="913.6094"/><text fill="#000000" font-family="sans-serif" font-size="14" font-weight="bold" lengthAdjust="spacingAndGlyphs" textLength="124" x="876.895" y="906.5332">mastermind.types</text><!--cluster santaTecla--><polygon fill="#FFFFFF" filter="url(#ft3z516nhp6c6)" points="68.8948,627.5,149.8948,627.5,156.8948,651.1094,206.895,651.1094,206.895,727.5,68.8948,727.5,68.8948,627.5" style="stroke: #000000; stroke-width: 1.5;"/><line style="stroke: #000000; stroke-width: 1.5;" x1="68.8948" x2="156.8948" y1="651.1094" y2="651.1094"/><text fill="#000000" font-family="sans-serif" font-size="14" font-weight="bold" lengthAdjust="spacingAndGlyphs" textLength="75" x="72.8948" y="644.0332">santaTecla</text><!--class mastermind.views.AttemptsView--><rect fill="#FEFECE" filter="url(#ft3z516nhp6c6)" height="61.8359" id="mastermind.views.AttemptsView" style="stroke: #A80036; stroke-width: 1.5;" width="145" x="661.395" y="382.5"/><ellipse cx="693.945" cy="398.5" fill="#ADD1B2" rx="11" ry="11" style="stroke: #A80036; stroke-width: 1.0;"/><path d="M696.7106,394.375 Q696.8669,394.1563 697.0544,394.0469 Q697.2419,393.9375 697.4606,393.9375 Q697.8356,393.9375 698.07,394.1953 Q698.3044,394.4531 698.3044,395.0625 L698.3044,396.5156 Q698.3044,397.125 698.07,397.3906 Q697.8356,397.6563 697.4606,397.6563 Q697.1169,397.6563 696.9137,397.4531 Q696.7106,397.2656 696.6012,396.75 Q696.5544,396.3906 696.3669,396.2031 Q696.0387,395.8281 695.4294,395.6094 Q694.82,395.3906 694.195,395.3906 Q693.4294,395.3906 692.7966,395.7188 Q692.1637,396.0469 691.6716,396.7969 Q691.1794,397.5469 691.1794,398.5781 L691.1794,399.6719 Q691.1794,400.9063 692.07,401.7266 Q692.9606,402.5469 694.5544,402.5469 Q695.4919,402.5469 696.1481,402.2969 Q696.5387,402.1406 696.9606,401.7031 Q697.2262,401.4375 697.3747,401.3594 Q697.5231,401.2813 697.7262,401.2813 Q698.0544,401.2813 698.3122,401.5391 Q698.57,401.7969 698.57,402.1406 Q698.57,402.4844 698.2262,402.8906 Q697.7262,403.4688 696.9294,403.7969 Q695.8512,404.25 694.5544,404.25 Q693.0387,404.25 691.8356,403.625 Q690.8512,403.125 690.1637,402.0547 Q689.4762,400.9844 689.4762,399.7031 L689.4762,398.5469 Q689.4762,397.2188 690.0934,396.0703 Q690.7106,394.9219 691.8044,394.3047 Q692.8981,393.6875 694.1325,393.6875 Q694.8669,393.6875 695.5153,393.8516 Q696.1637,394.0156 696.7106,394.375 Z "/><text fill="#000000" font-family="sans-serif" font-size="12" lengthAdjust="spacingAndGlyphs" textLength="74" x="711.845" y="403.4102">AttemptsView</text><line style="stroke: #A80036; stroke-width: 1.5;" x1="662.395" x2="805.395" y1="414.5" y2="414.5"/><line style="stroke: #A80036; stroke-width: 1.5;" x1="662.395" x2="805.395" y1="422.5" y2="422.5"/><polygon fill="#4177AF" points="672.395,430.918,668.395,436.918,676.395,436.918" style="stroke: #1963A0; stroke-width: 1.0;"/><text fill="#000000" font-family="sans-serif" font-size="11" lengthAdjust="spacingAndGlyphs" textLength="119" x="681.395" y="437.9189">void writeln(int attempts)</text><!--class mastermind.views.MessageView--><rect fill="#FEFECE" filter="url(#ft3z516nhp6c6)" height="324.7188" id="mastermind.views.MessageView" style="stroke: #A80036; stroke-width: 1.5;" width="188" x="1062.89" y="525"/><ellipse cx="1114.14" cy="541" fill="#EB937F" rx="11" ry="11" style="stroke: #A80036; stroke-width: 1.0;"/><path d="M1112.9994,541.7969 L1112.9994,544.2969 L1117.3275,544.2969 L1117.3275,543.375 Q1117.3275,542.7656 1117.5697,542.5 Q1117.8119,542.2344 1118.1869,542.2344 Q1118.5619,542.2344 1118.7963,542.5 Q1119.0306,542.7656 1119.0306,543.375 L1119.0306,546 L1111.0306,546 Q1110.4056,546 1110.1478,545.7656 Q1109.89,545.5313 1109.89,545.1406 Q1109.89,544.7656 1110.1556,544.5313 Q1110.4213,544.2969 1111.0306,544.2969 L1111.2963,544.2969 L1111.2963,537.6406 L1111.0306,537.6406 Q1110.4056,537.6406 1110.1478,537.4063 Q1109.89,537.1719 1109.89,536.7813 Q1109.89,536.4063 1110.1478,536.1719 Q1110.4056,535.9375 1111.0306,535.9375 L1118.6556,535.9375 L1118.6556,538.5313 Q1118.6556,539.1406 1118.4291,539.3984 Q1118.2025,539.6563 1117.8119,539.6563 Q1117.4369,539.6563 1117.2025,539.3984 Q1116.9681,539.1406 1116.9681,538.5313 L1116.9681,537.6406 L1112.9994,537.6406 L1112.9994,540.0938 L1114.4838,540.0938 Q1114.4838,539.4375 1114.6088,539.25 Q1114.8744,538.8438 1115.3431,538.8438 Q1115.7181,538.8438 1115.9525,539.1016 Q1116.1869,539.3594 1116.1869,539.9688 L1116.1869,541.9375 Q1116.1869,542.4844 1116.0619,542.6719 Q1115.7963,543.0625 1115.3431,543.0625 Q1114.8744,543.0625 1114.6088,542.6563 Q1114.4838,542.4688 1114.4838,541.7969 L1112.9994,541.7969 Z "/><text fill="#000000" font-family="sans-serif" font-size="12" lengthAdjust="spacingAndGlyphs" textLength="77" x="1134.64" y="545.9102">MessageView</text><line style="stroke: #A80036; stroke-width: 1.5;" x1="1063.89" x2="1249.89" y1="557" y2="557"/><text fill="#000000" font-family="sans-serif" font-size="11" lengthAdjust="spacingAndGlyphs" textLength="53" x="1068.89" y="572.4189">ATTEMPTS</text><text fill="#000000" font-family="sans-serif" font-size="11" lengthAdjust="spacingAndGlyphs" textLength="39" x="1068.89" y="586.2549">SECRET</text><text fill="#000000" font-family="sans-serif" font-size="11" lengthAdjust="spacingAndGlyphs" textLength="41" x="1068.89" y="600.0908">RESUME</text><text fill="#000000" font-family="sans-serif" font-size="11" lengthAdjust="spacingAndGlyphs" textLength="39" x="1068.89" y="613.9268">RESULT</text><text fill="#000000" font-family="sans-serif" font-size="11" lengthAdjust="spacingAndGlyphs" textLength="131" x="1068.89" y="627.7627">PROPOSED_COMBINATION</text><text fill="#000000" font-family="sans-serif" font-size="11" lengthAdjust="spacingAndGlyphs" textLength="26" x="1068.89" y="641.5986">TITLE</text><text fill="#000000" font-family="sans-serif" font-size="11" lengthAdjust="spacingAndGlyphs" textLength="39" x="1068.89" y="655.4346">WINNER</text><text fill="#000000" font-family="sans-serif" font-size="11" lengthAdjust="spacingAndGlyphs" textLength="42" x="1068.89" y="669.2705">LOOSER</text><text fill="#000000" font-family="sans-serif" font-size="11" lengthAdjust="spacingAndGlyphs" textLength="107" x="1068.89" y="683.1064">PROPOSE_COMMAND</text><text fill="#000000" font-family="sans-serif" font-size="11" lengthAdjust="spacingAndGlyphs" textLength="88" x="1068.89" y="696.9424">UNDO_COMMAND</text><text fill="#000000" font-family="sans-serif" font-size="11" lengthAdjust="spacingAndGlyphs" textLength="87" x="1068.89" y="710.7783">REDO_COMMAND</text><text fill="#000000" font-family="sans-serif" font-size="11" lengthAdjust="spacingAndGlyphs" textLength="50" x="1068.89" y="724.6143">NEW_LINE</text><text fill="#000000" font-family="sans-serif" font-size="11" lengthAdjust="spacingAndGlyphs" textLength="44" x="1068.89" y="738.4502">message</text><text fill="#000000" font-family="sans-serif" font-size="11" lengthAdjust="spacingAndGlyphs" textLength="38" x="1068.89" y="752.2861">console</text><line style="stroke: #A80036; stroke-width: 1.5;" x1="1063.89" x2="1249.89" y1="758.7031" y2="758.7031"/><rect fill="#F24D5C" height="6" style="stroke: #C82930; stroke-width: 1.0;" width="6" x="1070.89" y="768.1211"/><text fill="#000000" font-family="sans-serif" font-size="11" lengthAdjust="spacingAndGlyphs" textLength="153" x="1082.89" y="774.1221">MessageView(String message)</text><polygon fill="#4177AF" points="1073.89,780.957,1069.89,786.957,1077.89,786.957" style="stroke: #1963A0; stroke-width: 1.0;"/><text fill="#000000" font-family="sans-serif" font-size="11" lengthAdjust="spacingAndGlyphs" textLength="98" x="1082.89" y="787.958">String getMessage()</text><polygon fill="#4177AF" points="1073.89,794.793,1069.89,800.793,1077.89,800.793" style="stroke: #1963A0; stroke-width: 1.0;"/><text fill="#000000" font-family="sans-serif" font-size="11" lengthAdjust="spacingAndGlyphs" textLength="56" x="1082.89" y="801.7939">void write()</text><polygon fill="#4177AF" points="1073.89,808.6289,1069.89,814.6289,1077.89,814.6289" style="stroke: #1963A0; stroke-width: 1.0;"/><text fill="#000000" font-family="sans-serif" font-size="11" lengthAdjust="spacingAndGlyphs" textLength="64" x="1082.89" y="815.6299">void writeln()</text><polygon fill="#4177AF" points="1073.89,822.4648,1069.89,828.4648,1077.89,828.4648" style="stroke: #1963A0; stroke-width: 1.0;"/><text fill="#000000" font-family="sans-serif" font-size="11" lengthAdjust="spacingAndGlyphs" textLength="119" x="1082.89" y="829.4658">void writeln(int attempts)</text><polygon fill="#4177AF" points="1073.89,836.3008,1069.89,842.3008,1077.89,842.3008" style="stroke: #1963A0; stroke-width: 1.0;"/><text fill="#000000" font-family="sans-serif" font-size="11" lengthAdjust="spacingAndGlyphs" textLength="162" x="1082.89" y="843.3018">void writeln(int blacks, int whites)</text><!--class mastermind.views.ColorView--><rect fill="#FEFECE" filter="url(#ft3z516nhp6c6)" height="144.8516" id="mastermind.views.ColorView" style="stroke: #A80036; stroke-width: 1.5;" width="190" x="1585.89" y="615"/><ellipse cx="1648.64" cy="631" fill="#ADD1B2" rx="11" ry="11" style="stroke: #A80036; stroke-width: 1.0;"/><path d="M1651.4056,626.875 Q1651.5619,626.6563 1651.7494,626.5469 Q1651.9369,626.4375 1652.1556,626.4375 Q1652.5306,626.4375 1652.765,626.6953 Q1652.9994,626.9531 1652.9994,627.5625 L1652.9994,629.0156 Q1652.9994,629.625 1652.765,629.8906 Q1652.5306,630.1563 1652.1556,630.1563 Q1651.8119,630.1563 1651.6088,629.9531 Q1651.4056,629.7656 1651.2963,629.25 Q1651.2494,628.8906 1651.0619,628.7031 Q1650.7338,628.3281 1650.1244,628.1094 Q1649.515,627.8906 1648.89,627.8906 Q1648.1244,627.8906 1647.4916,628.2188 Q1646.8588,628.5469 1646.3666,629.2969 Q1645.8744,630.0469 1645.8744,631.0781 L1645.8744,632.1719 Q1645.8744,633.4063 1646.765,634.2266 Q1647.6556,635.0469 1649.2494,635.0469 Q1650.1869,635.0469 1650.8431,634.7969 Q1651.2338,634.6406 1651.6556,634.2031 Q1651.9213,633.9375 1652.0697,633.8594 Q1652.2181,633.7813 1652.4213,633.7813 Q1652.7494,633.7813 1653.0072,634.0391 Q1653.265,634.2969 1653.265,634.6406 Q1653.265,634.9844 1652.9213,635.3906 Q1652.4213,635.9688 1651.6244,636.2969 Q1650.5463,636.75 1649.2494,636.75 Q1647.7338,636.75 1646.5306,636.125 Q1645.5463,635.625 1644.8588,634.5547 Q1644.1713,633.4844 1644.1713,632.2031 L1644.1713,631.0469 Q1644.1713,629.7188 1644.7884,628.5703 Q1645.4056,627.4219 1646.4994,626.8047 Q1647.5931,626.1875 1648.8275,626.1875 Q1649.5619,626.1875 1650.2103,626.3516 Q1650.8588,626.5156 1651.4056,626.875 Z "/><text fill="#000000" font-family="sans-serif" font-size="12" lengthAdjust="spacingAndGlyphs" textLength="56" x="1669.14" y="635.9102">ColorView</text><line style="stroke: #A80036; stroke-width: 1.5;" x1="1586.89" x2="1774.89" y1="647" y2="647"/><polygon fill="none" points="1596.89,655.418,1592.89,661.418,1600.89,661.418" style="stroke: #1963A0; stroke-width: 1.0;"/><text fill="#000000" font-family="sans-serif" font-size="11" lengthAdjust="spacingAndGlyphs" text-decoration="underline" textLength="71" x="1605.89" y="662.4189">char[] INITIALS</text><polygon fill="none" points="1596.89,668.2539,1600.89,672.2539,1596.89,676.2539,1592.89,672.2539" style="stroke: #B38D22; stroke-width: 1.0;"/><text fill="#000000" font-family="sans-serif" font-size="11" lengthAdjust="spacingAndGlyphs" textLength="52" x="1605.89" y="676.2549">Color color</text><line style="stroke: #A80036; stroke-width: 1.5;" x1="1586.89" x2="1774.89" y1="682.6719" y2="682.6719"/><polygon fill="#4177AF" points="1596.89,691.0898,1592.89,697.0898,1600.89,697.0898" style="stroke: #1963A0; stroke-width: 1.0;"/><text fill="#000000" font-family="sans-serif" font-size="11" lengthAdjust="spacingAndGlyphs" textLength="111" x="1605.89" y="698.0908">ColorView(Color color)</text><polygon fill="#4177AF" points="1596.89,704.9258,1592.89,710.9258,1600.89,710.9258" style="stroke: #1963A0; stroke-width: 1.0;"/><text fill="#000000" font-family="sans-serif" font-size="11" lengthAdjust="spacingAndGlyphs" text-decoration="underline" textLength="78" x="1605.89" y="711.9268">String allInitials()</text><polygon fill="#4177AF" points="1596.89,718.7617,1592.89,724.7617,1600.89,724.7617" style="stroke: #1963A0; stroke-width: 1.0;"/><text fill="#000000" font-family="sans-serif" font-size="11" lengthAdjust="spacingAndGlyphs" textLength="71" x="1605.89" y="725.7627">char getInitial()</text><polygon fill="#4177AF" points="1596.89,732.5977,1592.89,738.5977,1600.89,738.5977" style="stroke: #1963A0; stroke-width: 1.0;"/><text fill="#000000" font-family="sans-serif" font-size="11" lengthAdjust="spacingAndGlyphs" text-decoration="underline" textLength="164" x="1605.89" y="739.5986">Color getInstance(char character)</text><polygon fill="#4177AF" points="1596.89,746.4336,1592.89,752.4336,1600.89,752.4336" style="stroke: #1963A0; stroke-width: 1.0;"/><text fill="#000000" font-family="sans-serif" font-size="11" lengthAdjust="spacingAndGlyphs" textLength="56" x="1605.89" y="753.4346">void write()</text><!--class mastermind.views.ErrorView--><rect fill="#FEFECE" filter="url(#ft3z516nhp6c6)" height="103.3438" id="mastermind.views.ErrorView" style="stroke: #A80036; stroke-width: 1.5;" width="135" x="1941.39" y="362"/><ellipse cx="1978.89" cy="378" fill="#ADD1B2" rx="11" ry="11" style="stroke: #A80036; stroke-width: 1.0;"/><path d="M1981.6556,373.875 Q1981.8119,373.6563 1981.9994,373.5469 Q1982.1869,373.4375 1982.4056,373.4375 Q1982.7806,373.4375 1983.015,373.6953 Q1983.2494,373.9531 1983.2494,374.5625 L1983.2494,376.0156 Q1983.2494,376.625 1983.015,376.8906 Q1982.7806,377.1563 1982.4056,377.1563 Q1982.0619,377.1563 1981.8588,376.9531 Q1981.6556,376.7656 1981.5463,376.25 Q1981.4994,375.8906 1981.3119,375.7031 Q1980.9838,375.3281 1980.3744,375.1094 Q1979.765,374.8906 1979.14,374.8906 Q1978.3744,374.8906 1977.7416,375.2188 Q1977.1088,375.5469 1976.6166,376.2969 Q1976.1244,377.0469 1976.1244,378.0781 L1976.1244,379.1719 Q1976.1244,380.4063 1977.015,381.2266 Q1977.9056,382.0469 1979.4994,382.0469 Q1980.4369,382.0469 1981.0931,381.7969 Q1981.4838,381.6406 1981.9056,381.2031 Q1982.1713,380.9375 1982.3197,380.8594 Q1982.4681,380.7813 1982.6713,380.7813 Q1982.9994,380.7813 1983.2572,381.0391 Q1983.515,381.2969 1983.515,381.6406 Q1983.515,381.9844 1983.1713,382.3906 Q1982.6713,382.9688 1981.8744,383.2969 Q1980.7963,383.75 1979.4994,383.75 Q1977.9838,383.75 1976.7806,383.125 Q1975.7963,382.625 1975.1088,381.5547 Q1974.4213,380.4844 1974.4213,379.2031 L1974.4213,378.0469 Q1974.4213,376.7188 1975.0384,375.5703 Q1975.6556,374.4219 1976.7494,373.8047 Q1977.8431,373.1875 1979.0775,373.1875 Q1979.8119,373.1875 1980.4603,373.3516 Q1981.1088,373.5156 1981.6556,373.875 Z "/><text fill="#000000" font-family="sans-serif" font-size="12" lengthAdjust="spacingAndGlyphs" textLength="53" x="1997.89" y="382.9102">ErrorView</text><line style="stroke: #A80036; stroke-width: 1.5;" x1="1942.39" x2="2075.39" y1="394" y2="394"/><polygon fill="none" points="1952.39,402.418,1948.39,408.418,1956.39,408.418" style="stroke: #1963A0; stroke-width: 1.0;"/><text fill="#000000" font-family="sans-serif" font-size="11" lengthAdjust="spacingAndGlyphs" text-decoration="underline" textLength="94" x="1961.39" y="409.4189">String[] MESSAGES</text><rect fill="none" height="6" style="stroke: #C82930; stroke-width: 1.0;" width="6" x="1949.39" y="417.2539"/><text fill="#000000" font-family="sans-serif" font-size="11" lengthAdjust="spacingAndGlyphs" textLength="51" x="1961.39" y="423.2549">Error error</text><line style="stroke: #A80036; stroke-width: 1.5;" x1="1942.39" x2="2075.39" y1="429.6719" y2="429.6719"/><polygon fill="#4177AF" points="1952.39,438.0898,1948.39,444.0898,1956.39,444.0898" style="stroke: #1963A0; stroke-width: 1.0;"/><text fill="#000000" font-family="sans-serif" font-size="11" lengthAdjust="spacingAndGlyphs" textLength="109" x="1961.39" y="445.0908">ErrorView(Error error)</text><polygon fill="#4177AF" points="1952.39,451.9258,1948.39,457.9258,1956.39,457.9258" style="stroke: #1963A0; stroke-width: 1.0;"/><text fill="#000000" font-family="sans-serif" font-size="11" lengthAdjust="spacingAndGlyphs" textLength="64" x="1961.39" y="458.9268">void writeln()</text><!--class mastermind.views.GameView--><rect fill="#FEFECE" filter="url(#ft3z516nhp6c6)" height="241.7031" id="mastermind.views.GameView" style="stroke: #A80036; stroke-width: 1.5;" width="218" x="569.895" y="60"/><ellipse cx="644.645" cy="76" fill="#ADD1B2" rx="11" ry="11" style="stroke: #A80036; stroke-width: 1.0;"/><path d="M647.4106,71.875 Q647.5669,71.6563 647.7544,71.5469 Q647.9419,71.4375 648.1606,71.4375 Q648.5356,71.4375 648.77,71.6953 Q649.0044,71.9531 649.0044,72.5625 L649.0044,74.0156 Q649.0044,74.625 648.77,74.8906 Q648.5356,75.1563 648.1606,75.1563 Q647.8169,75.1563 647.6138,74.9531 Q647.4106,74.7656 647.3013,74.25 Q647.2544,73.8906 647.0669,73.7031 Q646.7388,73.3281 646.1294,73.1094 Q645.52,72.8906 644.895,72.8906 Q644.1294,72.8906 643.4966,73.2188 Q642.8638,73.5469 642.3716,74.2969 Q641.8794,75.0469 641.8794,76.0781 L641.8794,77.1719 Q641.8794,78.4063 642.77,79.2266 Q643.6606,80.0469 645.2544,80.0469 Q646.1919,80.0469 646.8481,79.7969 Q647.2388,79.6406 647.6606,79.2031 Q647.9263,78.9375 648.0747,78.8594 Q648.2231,78.7813 648.4263,78.7813 Q648.7544,78.7813 649.0122,79.0391 Q649.27,79.2969 649.27,79.6406 Q649.27,79.9844 648.9263,80.3906 Q648.4263,80.9688 647.6294,81.2969 Q646.5513,81.75 645.2544,81.75 Q643.7388,81.75 642.5356,81.125 Q641.5513,80.625 640.8638,79.5547 Q640.1763,78.4844 640.1763,77.2031 L640.1763,76.0469 Q640.1763,74.7188 640.7934,73.5703 Q641.4106,72.4219 642.5044,71.8047 Q643.5981,71.1875 644.8325,71.1875 Q645.5669,71.1875 646.2153,71.3516 Q646.8638,71.5156 647.4106,71.875 Z "/><text fill="#000000" font-family="sans-serif" font-size="12" lengthAdjust="spacingAndGlyphs" textLength="60" x="665.145" y="80.9102">GameView</text><line style="stroke: #A80036; stroke-width: 1.5;" x1="570.895" x2="786.895" y1="92" y2="92"/><rect fill="none" height="6" style="stroke: #C82930; stroke-width: 1.0;" width="6" x="577.895" y="101.418"/><text fill="#000000" font-family="sans-serif" font-size="11" lengthAdjust="spacingAndGlyphs" textLength="55" x="589.895" y="107.4189">int attempts</text><rect fill="none" height="6" style="stroke: #C82930; stroke-width: 1.0;" width="6" x="577.895" y="115.2539"/><text fill="#000000" font-family="sans-serif" font-size="11" lengthAdjust="spacingAndGlyphs" textLength="41" x="589.895" y="121.2549">int width</text><rect fill="none" height="6" style="stroke: #C82930; stroke-width: 1.0;" width="6" x="577.895" y="129.0898"/><text fill="#000000" font-family="sans-serif" font-size="11" lengthAdjust="spacingAndGlyphs" textLength="127" x="589.895" y="135.0908">List&lt;List&lt;Color&gt;&gt; allColors</text><rect fill="none" height="6" style="stroke: #C82930; stroke-width: 1.0;" width="6" x="577.895" y="142.9258"/><text fill="#000000" font-family="sans-serif" font-size="11" lengthAdjust="spacingAndGlyphs" textLength="140" x="589.895" y="148.9268">List&lt;List&lt;Integer&gt;&gt; allResults</text><line style="stroke: #A80036; stroke-width: 1.5;" x1="570.895" x2="786.895" y1="155.3438" y2="155.3438"/><ellipse cx="580.895" cy="167.7617" fill="#84BE84" rx="3" ry="3" style="stroke: #038048; stroke-width: 1.0;"/><text fill="#000000" font-family="sans-serif" font-size="11" lengthAdjust="spacingAndGlyphs" textLength="62" x="589.895" y="170.7627">GameView()</text><ellipse cx="580.895" cy="181.5977" fill="#84BE84" rx="3" ry="3" style="stroke: #038048; stroke-width: 1.0;"/><text fill="#000000" font-family="sans-serif" font-size="11" lengthAdjust="spacingAndGlyphs" textLength="84" x="589.895" y="184.5986">void writeGame()</text><ellipse cx="580.895" cy="195.4336" fill="#84BE84" rx="3" ry="3" style="stroke: #038048; stroke-width: 1.0;"/><text fill="#000000" font-family="sans-serif" font-size="11" lengthAdjust="spacingAndGlyphs" textLength="90" x="589.895" y="198.4346">void writeLooser()</text><ellipse cx="580.895" cy="209.2695" fill="#84BE84" rx="3" ry="3" style="stroke: #038048; stroke-width: 1.0;"/><text fill="#000000" font-family="sans-serif" font-size="11" lengthAdjust="spacingAndGlyphs" textLength="90" x="589.895" y="212.2705">void writeWinner()</text><ellipse cx="580.895" cy="223.1055" fill="#84BE84" rx="3" ry="3" style="stroke: #038048; stroke-width: 1.0;"/><text fill="#000000" font-family="sans-serif" font-size="11" lengthAdjust="spacingAndGlyphs" textLength="144" x="589.895" y="226.1064">void setAttempts(int attempts)</text><ellipse cx="580.895" cy="236.9414" fill="#84BE84" rx="3" ry="3" style="stroke: #038048; stroke-width: 1.0;"/><text fill="#000000" font-family="sans-serif" font-size="11" lengthAdjust="spacingAndGlyphs" textLength="114" x="589.895" y="239.9424">void setWidth(int width)</text><ellipse cx="580.895" cy="250.7773" fill="#84BE84" rx="3" ry="3" style="stroke: #038048; stroke-width: 1.0;"/><text fill="#000000" font-family="sans-serif" font-size="11" lengthAdjust="spacingAndGlyphs" textLength="98" x="589.895" y="253.7783">void clearAllColors()</text><ellipse cx="580.895" cy="264.6133" fill="#84BE84" rx="3" ry="3" style="stroke: #038048; stroke-width: 1.0;"/><text fill="#000000" font-family="sans-serif" font-size="11" lengthAdjust="spacingAndGlyphs" textLength="103" x="589.895" y="267.6143">void clearAllResults()</text><ellipse cx="580.895" cy="278.4492" fill="#84BE84" rx="3" ry="3" style="stroke: #038048; stroke-width: 1.0;"/><text fill="#000000" font-family="sans-serif" font-size="11" lengthAdjust="spacingAndGlyphs" textLength="176" x="589.895" y="281.4502">void setAllColors(List&lt;Color&gt; colors)</text><ellipse cx="580.895" cy="292.2852" fill="#84BE84" rx="3" ry="3" style="stroke: #038048; stroke-width: 1.0;"/><text fill="#000000" font-family="sans-serif" font-size="11" lengthAdjust="spacingAndGlyphs" textLength="192" x="589.895" y="295.2861">void setAllResults(int blacks, int whites)</text><!--class mastermind.views.SecretCombinationView--><rect fill="#FEFECE" filter="url(#ft3z516nhp6c6)" height="75.6719" id="mastermind.views.SecretCombinationView" style="stroke: #A80036; stroke-width: 1.5;" width="164" x="424.895" y="375.5"/><ellipse cx="439.895" cy="391.5" fill="#ADD1B2" rx="11" ry="11" style="stroke: #A80036; stroke-width: 1.0;"/><path d="M442.6606,387.375 Q442.8169,387.1563 443.0044,387.0469 Q443.1919,386.9375 443.4106,386.9375 Q443.7856,386.9375 444.02,387.1953 Q444.2544,387.4531 444.2544,388.0625 L444.2544,389.5156 Q444.2544,390.125 444.02,390.3906 Q443.7856,390.6563 443.4106,390.6563 Q443.0669,390.6563 442.8638,390.4531 Q442.6606,390.2656 442.5513,389.75 Q442.5044,389.3906 442.3169,389.2031 Q441.9888,388.8281 441.3794,388.6094 Q440.77,388.3906 440.145,388.3906 Q439.3794,388.3906 438.7466,388.7188 Q438.1138,389.0469 437.6216,389.7969 Q437.1294,390.5469 437.1294,391.5781 L437.1294,392.6719 Q437.1294,393.9063 438.02,394.7266 Q438.9106,395.5469 440.5044,395.5469 Q441.4419,395.5469 442.0981,395.2969 Q442.4888,395.1406 442.9106,394.7031 Q443.1763,394.4375 443.3247,394.3594 Q443.4731,394.2813 443.6763,394.2813 Q444.0044,394.2813 444.2622,394.5391 Q444.52,394.7969 444.52,395.1406 Q444.52,395.4844 444.1763,395.8906 Q443.6763,396.4688 442.8794,396.7969 Q441.8013,397.25 440.5044,397.25 Q438.9888,397.25 437.7856,396.625 Q436.8013,396.125 436.1138,395.0547 Q435.4263,393.9844 435.4263,392.7031 L435.4263,391.5469 Q435.4263,390.2188 436.0434,389.0703 Q436.6606,387.9219 437.7544,387.3047 Q438.8481,386.6875 440.0825,386.6875 Q440.8169,386.6875 441.4653,386.8516 Q442.1138,387.0156 442.6606,387.375 Z "/><text fill="#000000" font-family="sans-serif" font-size="12" lengthAdjust="spacingAndGlyphs" textLength="132" x="453.895" y="396.4102">SecretCombinationView</text><line style="stroke: #A80036; stroke-width: 1.5;" x1="425.895" x2="587.895" y1="407.5" y2="407.5"/><line style="stroke: #A80036; stroke-width: 1.5;" x1="425.895" x2="587.895" y1="415.5" y2="415.5"/><polygon fill="#4177AF" points="435.895,423.918,431.895,429.918,439.895,429.918" style="stroke: #1963A0; stroke-width: 1.0;"/><text fill="#000000" font-family="sans-serif" font-size="11" lengthAdjust="spacingAndGlyphs" textLength="124" x="444.895" y="430.9189">SecretCombinationView()</text><polygon fill="#4177AF" points="435.895,437.7539,431.895,443.7539,439.895,443.7539" style="stroke: #1963A0; stroke-width: 1.0;"/><text fill="#000000" font-family="sans-serif" font-size="11" lengthAdjust="spacingAndGlyphs" textLength="107" x="444.895" y="444.7549">void writeln(int length)</text><!--class mastermind.views.ProposedCombinationView--><rect fill="#FEFECE" filter="url(#ft3z516nhp6c6)" height="75.6719" id="mastermind.views.ProposedCombinationView" style="stroke: #A80036; stroke-width: 1.5;" width="183" x="1065.39" y="375.5"/><ellipse cx="1080.39" cy="391.5" fill="#ADD1B2" rx="11" ry="11" style="stroke: #A80036; stroke-width: 1.0;"/><path d="M1083.1556,387.375 Q1083.3119,387.1563 1083.4994,387.0469 Q1083.6869,386.9375 1083.9056,386.9375 Q1084.2806,386.9375 1084.515,387.1953 Q1084.7494,387.4531 1084.7494,388.0625 L1084.7494,389.5156 Q1084.7494,390.125 1084.515,390.3906 Q1084.2806,390.6563 1083.9056,390.6563 Q1083.5619,390.6563 1083.3588,390.4531 Q1083.1556,390.2656 1083.0463,389.75 Q1082.9994,389.3906 1082.8119,389.2031 Q1082.4838,388.8281 1081.8744,388.6094 Q1081.265,388.3906 1080.64,388.3906 Q1079.8744,388.3906 1079.2416,388.7188 Q1078.6088,389.0469 1078.1166,389.7969 Q1077.6244,390.5469 1077.6244,391.5781 L1077.6244,392.6719 Q1077.6244,393.9063 1078.515,394.7266 Q1079.4056,395.5469 1080.9994,395.5469 Q1081.9369,395.5469 1082.5931,395.2969 Q1082.9838,395.1406 1083.4056,394.7031 Q1083.6713,394.4375 1083.8197,394.3594 Q1083.9681,394.2813 1084.1713,394.2813 Q1084.4994,394.2813 1084.7572,394.5391 Q1085.015,394.7969 1085.015,395.1406 Q1085.015,395.4844 1084.6713,395.8906 Q1084.1713,396.4688 1083.3744,396.7969 Q1082.2963,397.25 1080.9994,397.25 Q1079.4838,397.25 1078.2806,396.625 Q1077.2963,396.125 1076.6088,395.0547 Q1075.9213,393.9844 1075.9213,392.7031 L1075.9213,391.5469 Q1075.9213,390.2188 1076.5384,389.0703 Q1077.1556,387.9219 1078.2494,387.3047 Q1079.3431,386.6875 1080.5775,386.6875 Q1081.3119,386.6875 1081.9603,386.8516 Q1082.6088,387.0156 1083.1556,387.375 Z "/><text fill="#000000" font-family="sans-serif" font-size="12" lengthAdjust="spacingAndGlyphs" textLength="151" x="1094.39" y="396.4102">ProposedCombinationView</text><line style="stroke: #A80036; stroke-width: 1.5;" x1="1066.39" x2="1247.39" y1="407.5" y2="407.5"/><line style="stroke: #A80036; stroke-width: 1.5;" x1="1066.39" x2="1247.39" y1="415.5" y2="415.5"/><polygon fill="#4177AF" points="1076.39,423.918,1072.39,429.918,1080.39,429.918" style="stroke: #1963A0; stroke-width: 1.0;"/><text fill="#000000" font-family="sans-serif" font-size="11" lengthAdjust="spacingAndGlyphs" textLength="143" x="1085.39" y="430.9189">void write(List&lt;Color&gt; colors)</text><ellipse cx="1076.39" cy="441.7539" fill="#84BE84" rx="3" ry="3" style="stroke: #038048; stroke-width: 1.0;"/><text fill="#000000" font-family="sans-serif" font-size="11" lengthAdjust="spacingAndGlyphs" textLength="87" x="1085.39" y="444.7549">List&lt;Color&gt; read()</text><!--class mastermind.views.ResultView--><rect fill="#FEFECE" filter="url(#ft3z516nhp6c6)" height="61.8359" id="mastermind.views.ResultView" style="stroke: #A80036; stroke-width: 1.5;" width="188" x="841.895" y="382.5"/><ellipse cx="900.645" cy="398.5" fill="#ADD1B2" rx="11" ry="11" style="stroke: #A80036; stroke-width: 1.0;"/><path d="M903.4106,394.375 Q903.5669,394.1563 903.7544,394.0469 Q903.9419,393.9375 904.1606,393.9375 Q904.5356,393.9375 904.77,394.1953 Q905.0044,394.4531 905.0044,395.0625 L905.0044,396.5156 Q905.0044,397.125 904.77,397.3906 Q904.5356,397.6563 904.1606,397.6563 Q903.8169,397.6563 903.6138,397.4531 Q903.4106,397.2656 903.3013,396.75 Q903.2544,396.3906 903.0669,396.2031 Q902.7388,395.8281 902.1294,395.6094 Q901.52,395.3906 900.895,395.3906 Q900.1294,395.3906 899.4966,395.7188 Q898.8638,396.0469 898.3716,396.7969 Q897.8794,397.5469 897.8794,398.5781 L897.8794,399.6719 Q897.8794,400.9063 898.77,401.7266 Q899.6606,402.5469 901.2544,402.5469 Q902.1919,402.5469 902.8481,402.2969 Q903.2388,402.1406 903.6606,401.7031 Q903.9263,401.4375 904.0747,401.3594 Q904.2231,401.2813 904.4263,401.2813 Q904.7544,401.2813 905.0122,401.5391 Q905.27,401.7969 905.27,402.1406 Q905.27,402.4844 904.9263,402.8906 Q904.4263,403.4688 903.6294,403.7969 Q902.5513,404.25 901.2544,404.25 Q899.7388,404.25 898.5356,403.625 Q897.5513,403.125 896.8638,402.0547 Q896.1763,400.9844 896.1763,399.7031 L896.1763,398.5469 Q896.1763,397.2188 896.7934,396.0703 Q897.4106,394.9219 898.5044,394.3047 Q899.5981,393.6875 900.8325,393.6875 Q901.5669,393.6875 902.2153,393.8516 Q902.8638,394.0156 903.4106,394.375 Z "/><text fill="#000000" font-family="sans-serif" font-size="12" lengthAdjust="spacingAndGlyphs" textLength="62" x="921.145" y="403.4102">ResultView</text><line style="stroke: #A80036; stroke-width: 1.5;" x1="842.895" x2="1028.895" y1="414.5" y2="414.5"/><line style="stroke: #A80036; stroke-width: 1.5;" x1="842.895" x2="1028.895" y1="422.5" y2="422.5"/><polygon fill="#4177AF" points="852.895,430.918,848.895,436.918,856.895,436.918" style="stroke: #1963A0; stroke-width: 1.0;"/><text fill="#000000" font-family="sans-serif" font-size="11" lengthAdjust="spacingAndGlyphs" textLength="162" x="861.895" y="437.9189">void writeln(List&lt;Integer&gt; results)</text><!--class mastermind.views.ProposeCommand--><rect fill="#FEFECE" filter="url(#ft3z516nhp6c6)" height="75.6719" id="mastermind.views.ProposeCommand" style="stroke: #A80036; stroke-width: 1.5;" width="184" x="1721.89" y="375.5"/><ellipse cx="1757.59" cy="391.5" fill="#ADD1B2" rx="11" ry="11" style="stroke: #A80036; stroke-width: 1.0;"/><path d="M1760.3556,387.375 Q1760.5119,387.1563 1760.6994,387.0469 Q1760.8869,386.9375 1761.1056,386.9375 Q1761.4806,386.9375 1761.715,387.1953 Q1761.9494,387.4531 1761.9494,388.0625 L1761.9494,389.5156 Q1761.9494,390.125 1761.715,390.3906 Q1761.4806,390.6563 1761.1056,390.6563 Q1760.7619,390.6563 1760.5588,390.4531 Q1760.3556,390.2656 1760.2463,389.75 Q1760.1994,389.3906 1760.0119,389.2031 Q1759.6838,388.8281 1759.0744,388.6094 Q1758.465,388.3906 1757.84,388.3906 Q1757.0744,388.3906 1756.4416,388.7188 Q1755.8088,389.0469 1755.3166,389.7969 Q1754.8244,390.5469 1754.8244,391.5781 L1754.8244,392.6719 Q1754.8244,393.9063 1755.715,394.7266 Q1756.6056,395.5469 1758.1994,395.5469 Q1759.1369,395.5469 1759.7931,395.2969 Q1760.1838,395.1406 1760.6056,394.7031 Q1760.8713,394.4375 1761.0197,394.3594 Q1761.1681,394.2813 1761.3713,394.2813 Q1761.6994,394.2813 1761.9572,394.5391 Q1762.215,394.7969 1762.215,395.1406 Q1762.215,395.4844 1761.8713,395.8906 Q1761.3713,396.4688 1760.5744,396.7969 Q1759.4963,397.25 1758.1994,397.25 Q1756.6838,397.25 1755.4806,396.625 Q1754.4963,396.125 1753.8088,395.0547 Q1753.1213,393.9844 1753.1213,392.7031 L1753.1213,391.5469 Q1753.1213,390.2188 1753.7384,389.0703 Q1754.3556,387.9219 1755.4494,387.3047 Q1756.5431,386.6875 1757.7775,386.6875 Q1758.5119,386.6875 1759.1603,386.8516 Q1759.8088,387.0156 1760.3556,387.375 Z "/><text fill="#000000" font-family="sans-serif" font-size="12" lengthAdjust="spacingAndGlyphs" textLength="106" x="1776.19" y="396.4102">ProposeCommand</text><line style="stroke: #A80036; stroke-width: 1.5;" x1="1722.89" x2="1904.89" y1="407.5" y2="407.5"/><line style="stroke: #A80036; stroke-width: 1.5;" x1="1722.89" x2="1904.89" y1="415.5" y2="415.5"/><ellipse cx="1732.89" cy="427.918" fill="#84BE84" rx="3" ry="3" style="stroke: #038048; stroke-width: 1.0;"/><text fill="#000000" font-family="sans-serif" font-size="11" lengthAdjust="spacingAndGlyphs" textLength="95" x="1741.89" y="430.9189">ProposeCommand()</text><ellipse cx="1732.89" cy="441.7539" fill="#84BE84" rx="3" ry="3" style="stroke: #038048; stroke-width: 1.0;"/><text fill="#000000" font-family="sans-serif" font-size="11" lengthAdjust="spacingAndGlyphs" textLength="158" x="1741.89" y="444.7549">void setActive(Boolean isActive)</text><!--class mastermind.views.RedoCommand--><rect fill="#FEFECE" filter="url(#ft3z516nhp6c6)" height="75.6719" id="mastermind.views.RedoCommand" style="stroke: #A80036; stroke-width: 1.5;" width="184" x="1502.89" y="375.5"/><ellipse cx="1546.24" cy="391.5" fill="#ADD1B2" rx="11" ry="11" style="stroke: #A80036; stroke-width: 1.0;"/><path d="M1549.0056,387.375 Q1549.1619,387.1563 1549.3494,387.0469 Q1549.5369,386.9375 1549.7556,386.9375 Q1550.1306,386.9375 1550.365,387.1953 Q1550.5994,387.4531 1550.5994,388.0625 L1550.5994,389.5156 Q1550.5994,390.125 1550.365,390.3906 Q1550.1306,390.6563 1549.7556,390.6563 Q1549.4119,390.6563 1549.2088,390.4531 Q1549.0056,390.2656 1548.8963,389.75 Q1548.8494,389.3906 1548.6619,389.2031 Q1548.3338,388.8281 1547.7244,388.6094 Q1547.115,388.3906 1546.49,388.3906 Q1545.7244,388.3906 1545.0916,388.7188 Q1544.4588,389.0469 1543.9666,389.7969 Q1543.4744,390.5469 1543.4744,391.5781 L1543.4744,392.6719 Q1543.4744,393.9063 1544.365,394.7266 Q1545.2556,395.5469 1546.8494,395.5469 Q1547.7869,395.5469 1548.4431,395.2969 Q1548.8338,395.1406 1549.2556,394.7031 Q1549.5213,394.4375 1549.6697,394.3594 Q1549.8181,394.2813 1550.0213,394.2813 Q1550.3494,394.2813 1550.6072,394.5391 Q1550.865,394.7969 1550.865,395.1406 Q1550.865,395.4844 1550.5213,395.8906 Q1550.0213,396.4688 1549.2244,396.7969 Q1548.1463,397.25 1546.8494,397.25 Q1545.3338,397.25 1544.1306,396.625 Q1543.1463,396.125 1542.4588,395.0547 Q1541.7713,393.9844 1541.7713,392.7031 L1541.7713,391.5469 Q1541.7713,390.2188 1542.3884,389.0703 Q1543.0056,387.9219 1544.0994,387.3047 Q1545.1931,386.6875 1546.4275,386.6875 Q1547.1619,386.6875 1547.8103,386.8516 Q1548.4588,387.0156 1549.0056,387.375 Z "/><text fill="#000000" font-family="sans-serif" font-size="12" lengthAdjust="spacingAndGlyphs" textLength="89" x="1566.54" y="396.4102">RedoCommand</text><line style="stroke: #A80036; stroke-width: 1.5;" x1="1503.89" x2="1685.89" y1="407.5" y2="407.5"/><line style="stroke: #A80036; stroke-width: 1.5;" x1="1503.89" x2="1685.89" y1="415.5" y2="415.5"/><ellipse cx="1513.89" cy="427.918" fill="#84BE84" rx="3" ry="3" style="stroke: #038048; stroke-width: 1.0;"/><text fill="#000000" font-family="sans-serif" font-size="11" lengthAdjust="spacingAndGlyphs" textLength="80" x="1522.89" y="430.9189">RedoCommand()</text><ellipse cx="1513.89" cy="441.7539" fill="#84BE84" rx="3" ry="3" style="stroke: #038048; stroke-width: 1.0;"/><text fill="#000000" font-family="sans-serif" font-size="11" lengthAdjust="spacingAndGlyphs" textLength="158" x="1522.89" y="444.7549">void setActive(Boolean isActive)</text><!--class mastermind.views.ResumeView--><rect fill="#FEFECE" filter="url(#ft3z516nhp6c6)" height="61.8359" id="mastermind.views.ResumeView" style="stroke: #A80036; stroke-width: 1.5;" width="106" x="246.895" y="382.5"/><ellipse cx="261.895" cy="398.5" fill="#ADD1B2" rx="11" ry="11" style="stroke: #A80036; stroke-width: 1.0;"/><path d="M264.6606,394.375 Q264.8169,394.1563 265.0044,394.0469 Q265.1919,393.9375 265.4106,393.9375 Q265.7856,393.9375 266.02,394.1953 Q266.2544,394.4531 266.2544,395.0625 L266.2544,396.5156 Q266.2544,397.125 266.02,397.3906 Q265.7856,397.6563 265.4106,397.6563 Q265.0669,397.6563 264.8638,397.4531 Q264.6606,397.2656 264.5513,396.75 Q264.5044,396.3906 264.3169,396.2031 Q263.9888,395.8281 263.3794,395.6094 Q262.77,395.3906 262.145,395.3906 Q261.3794,395.3906 260.7466,395.7188 Q260.1138,396.0469 259.6216,396.7969 Q259.1294,397.5469 259.1294,398.5781 L259.1294,399.6719 Q259.1294,400.9063 260.02,401.7266 Q260.9106,402.5469 262.5044,402.5469 Q263.4419,402.5469 264.0981,402.2969 Q264.4888,402.1406 264.9106,401.7031 Q265.1763,401.4375 265.3247,401.3594 Q265.4731,401.2813 265.6763,401.2813 Q266.0044,401.2813 266.2622,401.5391 Q266.52,401.7969 266.52,402.1406 Q266.52,402.4844 266.1763,402.8906 Q265.6763,403.4688 264.8794,403.7969 Q263.8013,404.25 262.5044,404.25 Q260.9888,404.25 259.7856,403.625 Q258.8013,403.125 258.1138,402.0547 Q257.4263,400.9844 257.4263,399.7031 L257.4263,398.5469 Q257.4263,397.2188 258.0434,396.0703 Q258.6606,394.9219 259.7544,394.3047 Q260.8481,393.6875 262.0825,393.6875 Q262.8169,393.6875 263.4653,393.8516 Q264.1138,394.0156 264.6606,394.375 Z "/><text fill="#000000" font-family="sans-serif" font-size="12" lengthAdjust="spacingAndGlyphs" textLength="74" x="275.895" y="403.4102">ResumeView</text><line style="stroke: #A80036; stroke-width: 1.5;" x1="247.895" x2="351.895" y1="414.5" y2="414.5"/><line style="stroke: #A80036; stroke-width: 1.5;" x1="247.895" x2="351.895" y1="422.5" y2="422.5"/><ellipse cx="257.895" cy="434.918" fill="#84BE84" rx="3" ry="3" style="stroke: #038048; stroke-width: 1.0;"/><text fill="#000000" font-family="sans-serif" font-size="11" lengthAdjust="spacingAndGlyphs" textLength="75" x="266.895" y="437.9189">Boolean write()</text><!--class mastermind.views.StartView--><rect fill="#FEFECE" filter="url(#ft3z516nhp6c6)" height="61.8359" id="mastermind.views.StartView" style="stroke: #A80036; stroke-width: 1.5;" width="123" x="369.395" y="150"/><ellipse cx="402.395" cy="166" fill="#ADD1B2" rx="11" ry="11" style="stroke: #A80036; stroke-width: 1.0;"/><path d="M405.1606,161.875 Q405.3169,161.6563 405.5044,161.5469 Q405.6919,161.4375 405.9106,161.4375 Q406.2856,161.4375 406.52,161.6953 Q406.7544,161.9531 406.7544,162.5625 L406.7544,164.0156 Q406.7544,164.625 406.52,164.8906 Q406.2856,165.1563 405.9106,165.1563 Q405.5669,165.1563 405.3638,164.9531 Q405.1606,164.7656 405.0513,164.25 Q405.0044,163.8906 404.8169,163.7031 Q404.4888,163.3281 403.8794,163.1094 Q403.27,162.8906 402.645,162.8906 Q401.8794,162.8906 401.2466,163.2188 Q400.6138,163.5469 400.1216,164.2969 Q399.6294,165.0469 399.6294,166.0781 L399.6294,167.1719 Q399.6294,168.4063 400.52,169.2266 Q401.4106,170.0469 403.0044,170.0469 Q403.9419,170.0469 404.5981,169.7969 Q404.9888,169.6406 405.4106,169.2031 Q405.6763,168.9375 405.8247,168.8594 Q405.9731,168.7813 406.1763,168.7813 Q406.5044,168.7813 406.7622,169.0391 Q407.02,169.2969 407.02,169.6406 Q407.02,169.9844 406.6763,170.3906 Q406.1763,170.9688 405.3794,171.2969 Q404.3013,171.75 403.0044,171.75 Q401.4888,171.75 400.2856,171.125 Q399.3013,170.625 398.6138,169.5547 Q397.9263,168.4844 397.9263,167.2031 L397.9263,166.0469 Q397.9263,164.7188 398.5434,163.5703 Q399.1606,162.4219 400.2544,161.8047 Q401.3481,161.1875 402.5825,161.1875 Q403.3169,161.1875 403.9653,161.3516 Q404.6138,161.5156 405.1606,161.875 Z "/><text fill="#000000" font-family="sans-serif" font-size="12" lengthAdjust="spacingAndGlyphs" textLength="51" x="420.395" y="170.9102">StartView</text><line style="stroke: #A80036; stroke-width: 1.5;" x1="370.395" x2="491.395" y1="182" y2="182"/><line style="stroke: #A80036; stroke-width: 1.5;" x1="370.395" x2="491.395" y1="190" y2="190"/><ellipse cx="380.395" cy="202.418" fill="#84BE84" rx="3" ry="3" style="stroke: #038048; stroke-width: 1.0;"/><text fill="#000000" font-family="sans-serif" font-size="11" lengthAdjust="spacingAndGlyphs" textLength="97" x="389.395" y="205.4189">void write(int width)</text><!--class mastermind.views.UndoCommand--><rect fill="#FEFECE" filter="url(#ft3z516nhp6c6)" height="75.6719" id="mastermind.views.UndoCommand" style="stroke: #A80036; stroke-width: 1.5;" width="184" x="1283.89" y="375.5"/><ellipse cx="1327.24" cy="391.5" fill="#ADD1B2" rx="11" ry="11" style="stroke: #A80036; stroke-width: 1.0;"/><path d="M1330.0056,387.375 Q1330.1619,387.1563 1330.3494,387.0469 Q1330.5369,386.9375 1330.7556,386.9375 Q1331.1306,386.9375 1331.365,387.1953 Q1331.5994,387.4531 1331.5994,388.0625 L1331.5994,389.5156 Q1331.5994,390.125 1331.365,390.3906 Q1331.1306,390.6563 1330.7556,390.6563 Q1330.4119,390.6563 1330.2088,390.4531 Q1330.0056,390.2656 1329.8963,389.75 Q1329.8494,389.3906 1329.6619,389.2031 Q1329.3338,388.8281 1328.7244,388.6094 Q1328.115,388.3906 1327.49,388.3906 Q1326.7244,388.3906 1326.0916,388.7188 Q1325.4588,389.0469 1324.9666,389.7969 Q1324.4744,390.5469 1324.4744,391.5781 L1324.4744,392.6719 Q1324.4744,393.9063 1325.365,394.7266 Q1326.2556,395.5469 1327.8494,395.5469 Q1328.7869,395.5469 1329.4431,395.2969 Q1329.8338,395.1406 1330.2556,394.7031 Q1330.5213,394.4375 1330.6697,394.3594 Q1330.8181,394.2813 1331.0213,394.2813 Q1331.3494,394.2813 1331.6072,394.5391 Q1331.865,394.7969 1331.865,395.1406 Q1331.865,395.4844 1331.5213,395.8906 Q1331.0213,396.4688 1330.2244,396.7969 Q1329.1463,397.25 1327.8494,397.25 Q1326.3338,397.25 1325.1306,396.625 Q1324.1463,396.125 1323.4588,395.0547 Q1322.7713,393.9844 1322.7713,392.7031 L1322.7713,391.5469 Q1322.7713,390.2188 1323.3884,389.0703 Q1324.0056,387.9219 1325.0994,387.3047 Q1326.1931,386.6875 1327.4275,386.6875 Q1328.1619,386.6875 1328.8103,386.8516 Q1329.4588,387.0156 1330.0056,387.375 Z "/><text fill="#000000" font-family="sans-serif" font-size="12" lengthAdjust="spacingAndGlyphs" textLength="89" x="1347.54" y="396.4102">UndoCommand</text><line style="stroke: #A80036; stroke-width: 1.5;" x1="1284.89" x2="1466.89" y1="407.5" y2="407.5"/><line style="stroke: #A80036; stroke-width: 1.5;" x1="1284.89" x2="1466.89" y1="415.5" y2="415.5"/><ellipse cx="1294.89" cy="427.918" fill="#84BE84" rx="3" ry="3" style="stroke: #038048; stroke-width: 1.0;"/><text fill="#000000" font-family="sans-serif" font-size="11" lengthAdjust="spacingAndGlyphs" textLength="80" x="1303.89" y="430.9189">UndoCommand()</text><ellipse cx="1294.89" cy="441.7539" fill="#84BE84" rx="3" ry="3" style="stroke: #038048; stroke-width: 1.0;"/><text fill="#000000" font-family="sans-serif" font-size="11" lengthAdjust="spacingAndGlyphs" textLength="158" x="1303.89" y="444.7549">void setActive(Boolean isActive)</text><!--class santaTecla.utils.WithConsoleView--><rect fill="#FEFECE" filter="url(#ft3z516nhp6c6)" height="48" id="santaTecla.utils.WithConsoleView" style="stroke: #A80036; stroke-width: 1.5;" width="129" x="2259.39" y="157"/><ellipse cx="2274.39" cy="173" fill="#ADD1B2" rx="11" ry="11" style="stroke: #A80036; stroke-width: 1.0;"/><path d="M2277.1556,168.875 Q2277.3119,168.6563 2277.4994,168.5469 Q2277.6869,168.4375 2277.9056,168.4375 Q2278.2806,168.4375 2278.515,168.6953 Q2278.7494,168.9531 2278.7494,169.5625 L2278.7494,171.0156 Q2278.7494,171.625 2278.515,171.8906 Q2278.2806,172.1563 2277.9056,172.1563 Q2277.5619,172.1563 2277.3588,171.9531 Q2277.1556,171.7656 2277.0463,171.25 Q2276.9994,170.8906 2276.8119,170.7031 Q2276.4838,170.3281 2275.8744,170.1094 Q2275.265,169.8906 2274.64,169.8906 Q2273.8744,169.8906 2273.2416,170.2188 Q2272.6088,170.5469 2272.1166,171.2969 Q2271.6244,172.0469 2271.6244,173.0781 L2271.6244,174.1719 Q2271.6244,175.4063 2272.515,176.2266 Q2273.4056,177.0469 2274.9994,177.0469 Q2275.9369,177.0469 2276.5931,176.7969 Q2276.9838,176.6406 2277.4056,176.2031 Q2277.6713,175.9375 2277.8197,175.8594 Q2277.9681,175.7813 2278.1713,175.7813 Q2278.4994,175.7813 2278.7572,176.0391 Q2279.015,176.2969 2279.015,176.6406 Q2279.015,176.9844 2278.6713,177.3906 Q2278.1713,177.9688 2277.3744,178.2969 Q2276.2963,178.75 2274.9994,178.75 Q2273.4838,178.75 2272.2806,178.125 Q2271.2963,177.625 2270.6088,176.5547 Q2269.9213,175.4844 2269.9213,174.2031 L2269.9213,173.0469 Q2269.9213,171.7188 2270.5384,170.5703 Q2271.1556,169.4219 2272.2494,168.8047 Q2273.3431,168.1875 2274.5775,168.1875 Q2275.3119,168.1875 2275.9603,168.3516 Q2276.6088,168.5156 2277.1556,168.875 Z "/><text fill="#000000" font-family="sans-serif" font-size="12" lengthAdjust="spacingAndGlyphs" textLength="97" x="2288.39" y="177.9102">WithConsoleView</text><line style="stroke: #A80036; stroke-width: 1.5;" x1="2260.39" x2="2387.39" y1="189" y2="189"/><line style="stroke: #A80036; stroke-width: 1.5;" x1="2260.39" x2="2387.39" y1="197" y2="197"/><!--class santaTecla.utils.Console--><rect fill="#FEFECE" filter="url(#ft3z516nhp6c6)" height="48" id="santaTecla.utils.Console" style="stroke: #A80036; stroke-width: 1.5;" width="79" x="2423.39" y="157"/><ellipse cx="2438.39" cy="173" fill="#ADD1B2" rx="11" ry="11" style="stroke: #A80036; stroke-width: 1.0;"/><path d="M2441.1556,168.875 Q2441.3119,168.6563 2441.4994,168.5469 Q2441.6869,168.4375 2441.9056,168.4375 Q2442.2806,168.4375 2442.515,168.6953 Q2442.7494,168.9531 2442.7494,169.5625 L2442.7494,171.0156 Q2442.7494,171.625 2442.515,171.8906 Q2442.2806,172.1563 2441.9056,172.1563 Q2441.5619,172.1563 2441.3588,171.9531 Q2441.1556,171.7656 2441.0463,171.25 Q2440.9994,170.8906 2440.8119,170.7031 Q2440.4838,170.3281 2439.8744,170.1094 Q2439.265,169.8906 2438.64,169.8906 Q2437.8744,169.8906 2437.2416,170.2188 Q2436.6088,170.5469 2436.1166,171.2969 Q2435.6244,172.0469 2435.6244,173.0781 L2435.6244,174.1719 Q2435.6244,175.4063 2436.515,176.2266 Q2437.4056,177.0469 2438.9994,177.0469 Q2439.9369,177.0469 2440.5931,176.7969 Q2440.9838,176.6406 2441.4056,176.2031 Q2441.6713,175.9375 2441.8197,175.8594 Q2441.9681,175.7813 2442.1713,175.7813 Q2442.4994,175.7813 2442.7572,176.0391 Q2443.015,176.2969 2443.015,176.6406 Q2443.015,176.9844 2442.6713,177.3906 Q2442.1713,177.9688 2441.3744,178.2969 Q2440.2963,178.75 2438.9994,178.75 Q2437.4838,178.75 2436.2806,178.125 Q2435.2963,177.625 2434.6088,176.5547 Q2433.9213,175.4844 2433.9213,174.2031 L2433.9213,173.0469 Q2433.9213,171.7188 2434.5384,170.5703 Q2435.1556,169.4219 2436.2494,168.8047 Q2437.3431,168.1875 2438.5775,168.1875 Q2439.3119,168.1875 2439.9603,168.3516 Q2440.6088,168.5156 2441.1556,168.875 Z "/><text fill="#000000" font-family="sans-serif" font-size="12" lengthAdjust="spacingAndGlyphs" textLength="47" x="2452.39" y="177.9102">Console</text><line style="stroke: #A80036; stroke-width: 1.5;" x1="2424.39" x2="2501.39" y1="189" y2="189"/><line style="stroke: #A80036; stroke-width: 1.5;" x1="2424.39" x2="2501.39" y1="197" y2="197"/><!--class santaTecla.utils.Command--><rect fill="#FEFECE" filter="url(#ft3z516nhp6c6)" height="48" id="santaTecla.utils.Command" style="stroke: #A80036; stroke-width: 1.5;" width="91" x="2133.39" y="157"/><ellipse cx="2148.39" cy="173" fill="#ADD1B2" rx="11" ry="11" style="stroke: #A80036; stroke-width: 1.0;"/><path d="M2151.1556,168.875 Q2151.3119,168.6563 2151.4994,168.5469 Q2151.6869,168.4375 2151.9056,168.4375 Q2152.2806,168.4375 2152.515,168.6953 Q2152.7494,168.9531 2152.7494,169.5625 L2152.7494,171.0156 Q2152.7494,171.625 2152.515,171.8906 Q2152.2806,172.1563 2151.9056,172.1563 Q2151.5619,172.1563 2151.3588,171.9531 Q2151.1556,171.7656 2151.0463,171.25 Q2150.9994,170.8906 2150.8119,170.7031 Q2150.4838,170.3281 2149.8744,170.1094 Q2149.265,169.8906 2148.64,169.8906 Q2147.8744,169.8906 2147.2416,170.2188 Q2146.6088,170.5469 2146.1166,171.2969 Q2145.6244,172.0469 2145.6244,173.0781 L2145.6244,174.1719 Q2145.6244,175.4063 2146.515,176.2266 Q2147.4056,177.0469 2148.9994,177.0469 Q2149.9369,177.0469 2150.5931,176.7969 Q2150.9838,176.6406 2151.4056,176.2031 Q2151.6713,175.9375 2151.8197,175.8594 Q2151.9681,175.7813 2152.1713,175.7813 Q2152.4994,175.7813 2152.7572,176.0391 Q2153.015,176.2969 2153.015,176.6406 Q2153.015,176.9844 2152.6713,177.3906 Q2152.1713,177.9688 2151.3744,178.2969 Q2150.2963,178.75 2148.9994,178.75 Q2147.4838,178.75 2146.2806,178.125 Q2145.2963,177.625 2144.6088,176.5547 Q2143.9213,175.4844 2143.9213,174.2031 L2143.9213,173.0469 Q2143.9213,171.7188 2144.5384,170.5703 Q2145.1556,169.4219 2146.2494,168.8047 Q2147.3431,168.1875 2148.5775,168.1875 Q2149.3119,168.1875 2149.9603,168.3516 Q2150.6088,168.5156 2151.1556,168.875 Z "/><text fill="#000000" font-family="sans-serif" font-size="12" lengthAdjust="spacingAndGlyphs" textLength="59" x="2162.39" y="177.9102">Command</text><line style="stroke: #A80036; stroke-width: 1.5;" x1="2134.39" x2="2223.39" y1="189" y2="189"/><line style="stroke: #A80036; stroke-width: 1.5;" x1="2134.39" x2="2223.39" y1="197" y2="197"/><!--class mastermind.types.Color--><rect fill="#FEFECE" filter="url(#ft3z516nhp6c6)" height="48" id="mastermind.types.Color" style="stroke: #A80036; stroke-width: 1.5;" width="62" x="888.895" y="926"/><ellipse cx="903.895" cy="942" fill="#ADD1B2" rx="11" ry="11" style="stroke: #A80036; stroke-width: 1.0;"/><path d="M906.6606,937.875 Q906.8169,937.6563 907.0044,937.5469 Q907.1919,937.4375 907.4106,937.4375 Q907.7856,937.4375 908.02,937.6953 Q908.2544,937.9531 908.2544,938.5625 L908.2544,940.0156 Q908.2544,940.625 908.02,940.8906 Q907.7856,941.1563 907.4106,941.1563 Q907.0669,941.1563 906.8638,940.9531 Q906.6606,940.7656 906.5513,940.25 Q906.5044,939.8906 906.3169,939.7031 Q905.9888,939.3281 905.3794,939.1094 Q904.77,938.8906 904.145,938.8906 Q903.3794,938.8906 902.7466,939.2188 Q902.1138,939.5469 901.6216,940.2969 Q901.1294,941.0469 901.1294,942.0781 L901.1294,943.1719 Q901.1294,944.4063 902.02,945.2266 Q902.9106,946.0469 904.5044,946.0469 Q905.4419,946.0469 906.0981,945.7969 Q906.4888,945.6406 906.9106,945.2031 Q907.1763,944.9375 907.3247,944.8594 Q907.4731,944.7813 907.6763,944.7813 Q908.0044,944.7813 908.2622,945.0391 Q908.52,945.2969 908.52,945.6406 Q908.52,945.9844 908.1763,946.3906 Q907.6763,946.9688 906.8794,947.2969 Q905.8013,947.75 904.5044,947.75 Q902.9888,947.75 901.7856,947.125 Q900.8013,946.625 900.1138,945.5547 Q899.4263,944.4844 899.4263,943.2031 L899.4263,942.0469 Q899.4263,940.7188 900.0434,939.5703 Q900.6606,938.4219 901.7544,937.8047 Q902.8481,937.1875 904.0825,937.1875 Q904.8169,937.1875 905.4653,937.3516 Q906.1138,937.5156 906.6606,937.875 Z "/><text fill="#000000" font-family="sans-serif" font-size="12" lengthAdjust="spacingAndGlyphs" textLength="30" x="917.895" y="946.9102">Color</text><line style="stroke: #A80036; stroke-width: 1.5;" x1="889.895" x2="949.895" y1="958" y2="958"/><line style="stroke: #A80036; stroke-width: 1.5;" x1="889.895" x2="949.895" y1="966" y2="966"/><!--class mastermind.types.Error--><rect fill="#FEFECE" filter="url(#ft3z516nhp6c6)" height="48" id="mastermind.types.Error" style="stroke: #A80036; stroke-width: 1.5;" width="59" x="986.395" y="926"/><ellipse cx="1001.395" cy="942" fill="#ADD1B2" rx="11" ry="11" style="stroke: #A80036; stroke-width: 1.0;"/><path d="M1004.1606,937.875 Q1004.3169,937.6563 1004.5044,937.5469 Q1004.6919,937.4375 1004.9106,937.4375 Q1005.2856,937.4375 1005.52,937.6953 Q1005.7544,937.9531 1005.7544,938.5625 L1005.7544,940.0156 Q1005.7544,940.625 1005.52,940.8906 Q1005.2856,941.1563 1004.9106,941.1563 Q1004.5669,941.1563 1004.3638,940.9531 Q1004.1606,940.7656 1004.0513,940.25 Q1004.0044,939.8906 1003.8169,939.7031 Q1003.4888,939.3281 1002.8794,939.1094 Q1002.27,938.8906 1001.645,938.8906 Q1000.8794,938.8906 1000.2466,939.2188 Q999.6138,939.5469 999.1216,940.2969 Q998.6294,941.0469 998.6294,942.0781 L998.6294,943.1719 Q998.6294,944.4063 999.52,945.2266 Q1000.4106,946.0469 1002.0044,946.0469 Q1002.9419,946.0469 1003.5981,945.7969 Q1003.9888,945.6406 1004.4106,945.2031 Q1004.6763,944.9375 1004.8247,944.8594 Q1004.9731,944.7813 1005.1763,944.7813 Q1005.5044,944.7813 1005.7622,945.0391 Q1006.02,945.2969 1006.02,945.6406 Q1006.02,945.9844 1005.6763,946.3906 Q1005.1763,946.9688 1004.3794,947.2969 Q1003.3013,947.75 1002.0044,947.75 Q1000.4888,947.75 999.2856,947.125 Q998.3013,946.625 997.6138,945.5547 Q996.9263,944.4844 996.9263,943.2031 L996.9263,942.0469 Q996.9263,940.7188 997.5434,939.5703 Q998.1606,938.4219 999.2544,937.8047 Q1000.3481,937.1875 1001.5825,937.1875 Q1002.3169,937.1875 1002.9653,937.3516 Q1003.6138,937.5156 1004.1606,937.875 Z "/><text fill="#000000" font-family="sans-serif" font-size="12" lengthAdjust="spacingAndGlyphs" textLength="27" x="1015.395" y="946.9102">Error</text><line style="stroke: #A80036; stroke-width: 1.5;" x1="987.395" x2="1044.395" y1="958" y2="958"/><line style="stroke: #A80036; stroke-width: 1.5;" x1="987.395" x2="1044.395" y1="966" y2="966"/><!--class santaTecla.YesNoDialog--><rect fill="#FEFECE" filter="url(#ft3z516nhp6c6)" height="48" id="santaTecla.YesNoDialog" style="stroke: #A80036; stroke-width: 1.5;" width="105" x="85.3948" y="663.5"/><ellipse cx="100.3948" cy="679.5" fill="#ADD1B2" rx="11" ry="11" style="stroke: #A80036; stroke-width: 1.0;"/><path d="M103.1604,675.375 Q103.3167,675.1563 103.5042,675.0469 Q103.6917,674.9375 103.9104,674.9375 Q104.2854,674.9375 104.5198,675.1953 Q104.7542,675.4531 104.7542,676.0625 L104.7542,677.5156 Q104.7542,678.125 104.5198,678.3906 Q104.2854,678.6563 103.9104,678.6563 Q103.5667,678.6563 103.3636,678.4531 Q103.1604,678.2656 103.0511,677.75 Q103.0042,677.3906 102.8167,677.2031 Q102.4886,676.8281 101.8792,676.6094 Q101.2698,676.3906 100.6448,676.3906 Q99.8792,676.3906 99.2464,676.7188 Q98.6136,677.0469 98.1214,677.7969 Q97.6292,678.5469 97.6292,679.5781 L97.6292,680.6719 Q97.6292,681.9063 98.5198,682.7266 Q99.4104,683.5469 101.0042,683.5469 Q101.9417,683.5469 102.5979,683.2969 Q102.9886,683.1406 103.4104,682.7031 Q103.6761,682.4375 103.8245,682.3594 Q103.9729,682.2813 104.1761,682.2813 Q104.5042,682.2813 104.762,682.5391 Q105.0198,682.7969 105.0198,683.1406 Q105.0198,683.4844 104.6761,683.8906 Q104.1761,684.4688 103.3792,684.7969 Q102.3011,685.25 101.0042,685.25 Q99.4886,685.25 98.2854,684.625 Q97.3011,684.125 96.6136,683.0547 Q95.9261,681.9844 95.9261,680.7031 L95.9261,679.5469 Q95.9261,678.2188 96.5432,677.0703 Q97.1604,675.9219 98.2542,675.3047 Q99.3479,674.6875 100.5823,674.6875 Q101.3167,674.6875 101.9651,674.8516 Q102.6136,675.0156 103.1604,675.375 Z "/><text fill="#000000" font-family="sans-serif" font-size="12" lengthAdjust="spacingAndGlyphs" textLength="73" x="114.3948" y="684.4102">YesNoDialog</text><line style="stroke: #A80036; stroke-width: 1.5;" x1="86.3948" x2="189.3948" y1="695.5" y2="695.5"/><line style="stroke: #A80036; stroke-width: 1.5;" x1="86.3948" x2="189.3948" y1="703.5" y2="703.5"/><!--link mastermind.views.AttemptsView to mastermind.views.MessageView--><path d="M780.779,444.648 C847.412,487.495 971.094,567.025 1058.4,623.166 " fill="none" id="mastermind.views.AttemptsView-mastermind.views.MessageView" style="stroke: #A80036; stroke-width: 1.0; stroke-dasharray: 7.0,7.0;"/><polygon fill="#A80036" points="1062.79,625.989,1057.3773,617.7608,1058.5824,623.2878,1053.0554,624.4929,1062.79,625.989" style="stroke: #A80036; stroke-width: 1.0;"/><!--link santaTecla.utils.WithConsoleView to mastermind.views.ColorView--><path d="M2298.36,222.294 C2282.81,246.062 2262.11,276.402 2241.89,302 C2181.26,378.8 2171.02,404.779 2093.89,465 C1994.33,542.739 1863.64,607.651 1776.19,646.704 " fill="none" id="santaTecla.utils.WithConsoleView-mastermind.views.ColorView" style="stroke: #A80036; stroke-width: 1.0;"/><polygon fill="none" points="2292.65,218.228,2309.38,205.223,2304.41,225.822,2292.65,218.228" style="stroke: #A80036; stroke-width: 1.0;"/><!--link mastermind.views.ColorView to mastermind.types.Color--><path d="M1574.12,750.645 C1493.06,794.241 1377.27,849.03 1267.89,874 C1235.49,881.397 998.326,866.563 968.895,882 C955.216,889.175 944.401,902.087 936.451,914.6745 " fill="none" id="mastermind.views.ColorView-mastermind.types.Color" style="stroke: #A80036; stroke-width: 1.0;"/><polygon fill="#A80036" points="929.954,925.9693,937.9087,920.1622,932.447,921.6351,930.974,916.1734,929.954,925.9693" style="stroke: #A80036; stroke-width: 1.0;"/><line style="stroke: #A80036; stroke-width: 1.0;" x1="932.447" x2="936.436" y1="921.6351" y2="914.7004"/><polygon fill="#A80036" points="1585.82,744.299,1578.6393,743.6372,1575.2667,750.011,1582.4473,750.6728,1585.82,744.299" style="stroke: #A80036; stroke-width: 1.0;"/><!--link santaTecla.utils.WithConsoleView to mastermind.views.ErrorView--><path d="M2303.25,222.89 C2288.82,248.246 2267.58,280.055 2241.89,302 C2193.22,343.59 2126.22,373.195 2076.56,391.227 " fill="none" id="santaTecla.utils.WithConsoleView-mastermind.views.ErrorView" style="stroke: #A80036; stroke-width: 1.0;"/><polygon fill="none" points="2297.24,219.288,2312.91,205.028,2309.55,225.95,2297.24,219.288" style="stroke: #A80036; stroke-width: 1.0;"/><!--link mastermind.views.ErrorView to mastermind.types.Error--><path d="M1928.92,462.981 C1926.91,463.704 1924.9,464.38 1922.89,465 C1829.47,493.859 1114.04,455.859 1044.89,525 C939.995,629.893 981.98,831.557 1004.833,913.2872 " fill="none" id="mastermind.views.ErrorView-mastermind.types.Error" style="stroke: #A80036; stroke-width: 1.0;"/><polygon fill="#A80036" points="1008.44,925.7845,1009.7861,916.0281,1007.0528,920.9808,1002.1001,918.2475,1008.44,925.7845" style="stroke: #A80036; stroke-width: 1.0;"/><line style="stroke: #A80036; stroke-width: 1.0;" x1="1007.0528" x2="1004.837" y1="920.9808" y2="913.2952"/><polygon fill="#A80036" points="1941.2,457.989,1934.1364,456.538,1930.0802,462.5002,1937.1439,463.9512,1941.2,457.989" style="stroke: #A80036; stroke-width: 1.0;"/><!--link mastermind.views.ErrorView to mastermind.views.ColorView--><path d="M1947.97,465.024 C1898.31,506.208 1827.44,564.978 1771.18,611.63 " fill="none" id="mastermind.views.ErrorView-mastermind.views.ColorView" style="stroke: #A80036; stroke-width: 1.0; stroke-dasharray: 7.0,7.0;"/><polygon fill="#A80036" points="1767.15,614.968,1776.6335,612.3105,1771.0016,611.7798,1771.5323,606.1478,1767.15,614.968" style="stroke: #A80036; stroke-width: 1.0;"/><!--link mastermind.views.GameView to mastermind.types.Color--><path d="M558.229,276.298 C542.515,285.96 526.199,294.838 509.895,302 C392.974,353.361 340.811,300.493 228.895,362 C139.931,410.893 107.306,431.034 68.8948,525 C10.2024,668.578 -35.8603,759.607 68.8948,874 C123.758,933.9114 708.016,946.2082 875.348,948.5086 " fill="none" id="mastermind.views.GameView-mastermind.types.Color" style="stroke: #A80036; stroke-width: 1.0;"/><polygon fill="#A80036" points="888.451,948.6798,879.5036,944.5634,883.4514,948.615,879.3999,952.5628,888.451,948.6798" style="stroke: #A80036; stroke-width: 1.0;"/><line style="stroke: #A80036; stroke-width: 1.0;" x1="883.4514" x2="875.452" y1="948.615" y2="948.5099"/><polygon fill="#A80036" points="569.557,269.138,562.348,268.9633,559.414,275.5505,566.623,275.7252,569.557,269.138" style="stroke: #A80036; stroke-width: 1.0;"/><!--link mastermind.views.GameView to mastermind.views.MessageView--><path d="M630.184,302.039 C616.488,355.757 612.686,417.532 643.895,465 C735.752,604.715 936.466,656.703 1057.81,675.76 " fill="none" id="mastermind.views.GameView-mastermind.views.MessageView" style="stroke: #A80036; stroke-width: 1.0; stroke-dasharray: 7.0,7.0;"/><polygon fill="#A80036" points="1062.81,676.533,1054.5196,671.216,1057.8677,675.7757,1053.308,679.1238,1062.81,676.533" style="stroke: #A80036; stroke-width: 1.0;"/><!--link mastermind.views.GameView to mastermind.views.AttemptsView--><path d="M707.603,302.313 C714.134,329.685 720.574,356.674 725.446,377.091 " fill="none" id="mastermind.views.GameView-mastermind.views.AttemptsView" style="stroke: #A80036; stroke-width: 1.0; stroke-dasharray: 7.0,7.0;"/><polygon fill="#A80036" points="726.65,382.137,728.4525,372.4545,725.4898,377.2735,720.6709,374.3108,726.65,382.137" style="stroke: #A80036; stroke-width: 1.0;"/><!--link mastermind.views.GameView to mastermind.views.SecretCombinationView--><path d="M589.117,302.313 C570.639,327.075 552.395,351.524 537.804,371.078 " fill="none" id="mastermind.views.GameView-mastermind.views.SecretCombinationView" style="stroke: #A80036; stroke-width: 1.0; stroke-dasharray: 7.0,7.0;"/><polygon fill="#A80036" points="534.558,375.428,543.1462,370.6069,537.5482,371.4206,536.7344,365.8226,534.558,375.428" style="stroke: #A80036; stroke-width: 1.0;"/><!--link mastermind.views.GameView to mastermind.views.ProposedCombinationView--><path d="M787.958,234.592 C875.355,276.737 996.056,334.941 1075.26,373.133 " fill="none" id="mastermind.views.GameView-mastermind.views.ProposedCombinationView" style="stroke: #A80036; stroke-width: 1.0; stroke-dasharray: 7.0,7.0;"/><polygon fill="#A80036" points="1079.94,375.391,1073.5699,367.8796,1075.436,373.2197,1070.0959,375.0859,1079.94,375.391" style="stroke: #A80036; stroke-width: 1.0;"/><!--link mastermind.views.GameView to mastermind.views.ResultView--><path d="M788.259,280.087 C827.614,315.384 869.419,352.879 898.459,378.924 " fill="none" id="mastermind.views.GameView-mastermind.views.ResultView" style="stroke: #A80036; stroke-width: 1.0; stroke-dasharray: 7.0,7.0;"/><polygon fill="#A80036" points="902.292,382.362,898.2639,373.3745,898.5702,379.0231,892.9217,379.3294,902.292,382.362" style="stroke: #A80036; stroke-width: 1.0;"/><!--link mastermind.views.MessageView to santaTecla.utils.Console--><path d="M1262.93,635.954 C1344.48,599.286 1460.93,551.628 1567.89,525 C1796.22,468.158 1868.94,533.973 2093.89,465 C2243.47,419.139 2297.39,414.708 2405.89,302 C2428.64,278.371 2443.71,243.963 2452.6,218.044 " fill="none" id="mastermind.views.MessageView-santaTecla.utils.Console" style="stroke: #A80036; stroke-width: 1.0;"/><polygon fill="#A80036" points="2456.7,205.365,2450.1252,212.6979,2455.1618,210.1225,2457.7372,215.1591,2456.7,205.365" style="stroke: #A80036; stroke-width: 1.0;"/><line style="stroke: #A80036; stroke-width: 1.0;" x1="2455.1618" x2="2452.7" y1="210.1225" y2="217.735"/><polygon fill="#A80036" points="1250.91,641.395,1258.0252,642.5669,1261.8436,636.4497,1254.7284,635.2778,1250.91,641.395" style="stroke: #A80036; stroke-width: 1.0;"/><!--link santaTecla.utils.Command to mastermind.views.ProposeCommand--><path d="M2158.06,222.949 C2143.06,248.804 2120.61,281.145 2092.89,302 C2029.21,349.922 1997.74,332.01 1923.89,362 C1913.67,366.151 1903.02,370.723 1892.54,375.37 " fill="none" id="santaTecla.utils.Command-mastermind.views.ProposeCommand" style="stroke: #A80036; stroke-width: 1.0;"/><polygon fill="none" points="2152.08,219.297,2167.84,205.134,2164.35,226.034,2152.08,219.297" style="stroke: #A80036; stroke-width: 1.0;"/><!--link mastermind.views.ProposeCommand to mastermind.views.MessageView--><path d="M1734.18,451.614 C1724.02,456.192 1713.73,460.752 1703.89,465 C1548.65,532.028 1366.22,604.696 1256.18,647.871 " fill="none" id="mastermind.views.ProposeCommand-mastermind.views.MessageView" style="stroke: #A80036; stroke-width: 1.0; stroke-dasharray: 7.0,7.0;"/><polygon fill="#A80036" points="1251.32,649.777,1261.1594,650.2089,1255.9737,647.9486,1258.234,642.763,1251.32,649.777" style="stroke: #A80036; stroke-width: 1.0;"/><!--link santaTecla.utils.WithConsoleView to mastermind.views.ProposedCombinationView--><path d="M2307.11,223.784 C2293.76,251.083 2272.27,284.757 2241.89,302 C2052.93,409.286 1476.56,308.739 1265.89,362 C1252.95,365.272 1239.67,370.064 1227.03,375.412 " fill="none" id="santaTecla.utils.WithConsoleView-mastermind.views.ProposedCombinationView" style="stroke: #A80036; stroke-width: 1.0;"/><polygon fill="none" points="2300.81,220.73,2315.39,205.36,2313.58,226.471,2300.81,220.73" style="stroke: #A80036; stroke-width: 1.0;"/><!--link mastermind.views.ProposedCombinationView to mastermind.types.Color--><path d="M1086.27,451.702 C1044.39,475.201 996.999,504.827 983.895,525 C900.727,653.028 909.737,848.031 916.612,920.5423 " fill="none" id="mastermind.views.ProposedCombinationView-mastermind.types.Color" style="stroke: #A80036; stroke-width: 1.0; stroke-dasharray: 7.0,7.0;"/><polygon fill="#A80036" points="917.102,925.5488,920.2063,916.202,916.6149,920.5726,912.2443,916.9812,917.102,925.5488" style="stroke: #A80036; stroke-width: 1.0;"/><!--link mastermind.views.ProposedCombinationView to mastermind.views.ColorView--><path d="M1228.38,451.608 C1319.59,498.951 1477.84,581.097 1580.95,634.62 " fill="none" id="mastermind.views.ProposedCombinationView-mastermind.views.ColorView" style="stroke: #A80036; stroke-width: 1.0; stroke-dasharray: 7.0,7.0;"/><polygon fill="#A80036" points="1585.51,636.988,1579.3605,629.2949,1581.0709,634.687,1575.6789,636.3975,1585.51,636.988" style="stroke: #A80036; stroke-width: 1.0;"/><!--link mastermind.views.ProposedCombinationView to mastermind.views.MessageView--><path d="M1156.89,451.75 C1156.89,470.369 1156.89,494.346 1156.89,519.838 " fill="none" id="mastermind.views.ProposedCombinationView-mastermind.views.MessageView" style="stroke: #A80036; stroke-width: 1.0; stroke-dasharray: 7.0,7.0;"/><polygon fill="#A80036" points="1156.89,524.956,1160.89,515.956,1156.89,519.956,1152.89,515.956,1156.89,524.956" style="stroke: #A80036; stroke-width: 1.0;"/><!--link santaTecla.utils.Command to mastermind.views.RedoCommand--><path d="M2160.01,223.413 C2145.54,250.251 2122.94,283.535 2092.89,302 C1943.85,393.585 1871.35,311.4 1703.89,362 C1691.92,365.62 1679.56,370.317 1667.67,375.387 " fill="none" id="santaTecla.utils.Command-mastermind.views.RedoCommand" style="stroke: #A80036; stroke-width: 1.0;"/><polygon fill="none" points="2153.87,220.044,2169.1,205.314,2166.38,226.328,2153.87,220.044" style="stroke: #A80036; stroke-width: 1.0;"/><!--link mastermind.views.RedoCommand to mastermind.views.MessageView--><path d="M1534.91,451.75 C1462.91,496.463 1341.16,572.072 1255.31,625.381 " fill="none" id="mastermind.views.RedoCommand-mastermind.views.MessageView" style="stroke: #A80036; stroke-width: 1.0; stroke-dasharray: 7.0,7.0;"/><polygon fill="#A80036" points="1251,628.061,1260.7547,626.7022,1255.2452,625.4194,1256.528,619.9099,1251,628.061" style="stroke: #A80036; stroke-width: 1.0;"/><!--link mastermind.views.ResultView to mastermind.views.MessageView--><path d="M960.39,444.648 C984.499,474.321 1022.9,521.587 1059.39,566.494 " fill="none" id="mastermind.views.ResultView-mastermind.views.MessageView" style="stroke: #A80036; stroke-width: 1.0; stroke-dasharray: 7.0,7.0;"/><polygon fill="#A80036" points="1062.69,570.553,1060.1083,561.0485,1059.5326,566.676,1053.9051,566.1003,1062.69,570.553" style="stroke: #A80036; stroke-width: 1.0;"/><!--link mastermind.views.ResumeView to santaTecla.YesNoDialog--><path d="M280.564,444.806 C266.565,466.909 247.3,497.653 230.895,525 C202.974,571.543 171.712,626.435 153.477,658.749 " fill="none" id="mastermind.views.ResumeView-santaTecla.YesNoDialog" style="stroke: #A80036; stroke-width: 1.0; stroke-dasharray: 7.0,7.0;"/><polygon fill="#A80036" points="150.883,663.349,158.7874,657.4736,153.3386,658.9935,151.8187,653.5447,150.883,663.349" style="stroke: #A80036; stroke-width: 1.0;"/><!--link mastermind.views.ResumeView to mastermind.views.MessageView--><path d="M342.65,444.631 C354.356,451.997 367.299,459.369 379.895,465 C612.599,569.029 906.45,636.978 1057.38,667.652 " fill="none" id="mastermind.views.ResumeView-mastermind.views.MessageView" style="stroke: #A80036; stroke-width: 1.0; stroke-dasharray: 7.0,7.0;"/><polygon fill="#A80036" points="1062.69,668.727,1054.6713,663.0086,1057.7909,667.7275,1053.072,670.8471,1062.69,668.727" style="stroke: #A80036; stroke-width: 1.0;"/><!--link mastermind.views.SecretCombinationView to mastermind.views.MessageView--><path d="M585.884,451.606 C595.954,456.186 606.145,460.748 615.895,465 C768.978,531.76 948.79,604.213 1057.72,647.457 " fill="none" id="mastermind.views.SecretCombinationView-mastermind.views.MessageView" style="stroke: #A80036; stroke-width: 1.0; stroke-dasharray: 7.0,7.0;"/><polygon fill="#A80036" points="1062.53,649.366,1055.6376,642.3308,1057.8819,647.5233,1052.6893,649.7677,1062.53,649.366" style="stroke: #A80036; stroke-width: 1.0;"/><!--link mastermind.views.StartView to mastermind.views.MessageView--><path d="M416.518,212 C392.057,267.896 350.22,389.167 406.895,465 C485.355,569.982 872.048,642.598 1057.43,671.957 " fill="none" id="mastermind.views.StartView-mastermind.views.MessageView" style="stroke: #A80036; stroke-width: 1.0; stroke-dasharray: 7.0,7.0;"/><polygon fill="#A80036" points="1062.58,672.77,1054.3203,667.4056,1057.6421,671.9844,1053.0633,675.3062,1062.58,672.77" style="stroke: #A80036; stroke-width: 1.0;"/><!--link mastermind.views.StartView to mastermind.views.SecretCombinationView--><path d="M440.83,212.134 C454.185,252.637 477.988,324.828 493.08,370.602 " fill="none" id="mastermind.views.StartView-mastermind.views.SecretCombinationView" style="stroke: #A80036; stroke-width: 1.0; stroke-dasharray: 7.0,7.0;"/><polygon fill="#A80036" points="494.695,375.498,495.6756,365.6981,493.1293,370.7495,488.0779,368.2032,494.695,375.498" style="stroke: #A80036; stroke-width: 1.0;"/><!--link santaTecla.utils.Command to mastermind.views.UndoCommand--><path d="M2160.57,223.47 C2146.26,250.626 2123.62,284.26 2092.89,302 C1975.32,369.892 1615.88,326.295 1484.89,362 C1472.32,365.428 1459.39,370.192 1447.02,375.436 " fill="none" id="santaTecla.utils.Command-mastermind.views.UndoCommand" style="stroke: #A80036; stroke-width: 1.0;"/><polygon fill="none" points="2154.45,220.054,2169.52,205.16,2167.03,226.203,2154.45,220.054" style="stroke: #A80036; stroke-width: 1.0;"/><!--link mastermind.views.UndoCommand to mastermind.views.MessageView--><path d="M1345.9,451.75 C1322.07,481.349 1287.34,524.489 1254.13,565.735 " fill="none" id="mastermind.views.UndoCommand-mastermind.views.MessageView" style="stroke: #A80036; stroke-width: 1.0; stroke-dasharray: 7.0,7.0;"/><polygon fill="#A80036" points="1250.92,569.72,1259.6768,565.2124,1254.053,565.8233,1253.4421,560.1996,1250.92,569.72" style="stroke: #A80036; stroke-width: 1.0;"/><!--
@startuml
class mastermind.views.AttemptsView {
	~void writeln(int attempts)
}
mastermind.views.AttemptsView ..> mastermind.views.MessageView

class mastermind.views.ColorView {
	~{static}char[] INITIALS
	#Color color
	~ColorView(Color color)
	~{static}String allInitials()
	~char getInitial()
	~{static}Color getInstance(char character)
	~void write()
}
santaTecla.utils.WithConsoleView <|-down- mastermind.views.ColorView
mastermind.views.ColorView *-down-> mastermind.types.Color

class mastermind.views.ErrorView {
	~{static}String[] MESSAGES
	-Error error
	~ErrorView(Error error)
	~void writeln()
}
santaTecla.utils.WithConsoleView <|-down- mastermind.views.ErrorView
mastermind.views.ErrorView *-down-> mastermind.types.Error
mastermind.views.ErrorView ..> mastermind.views.ColorView

class mastermind.views.GameView {
	-int attempts
	-int width
	-List<List<Color>> allColors
	-List<List<Integer>> allResults
	+GameView()
	+void writeGame()
	+void writeLooser()
	+void writeWinner()
	+void setAttempts(int attempts)
	+void setWidth(int width)
	+void clearAllColors()
	+void clearAllResults()
	+void setAllColors(List<Color> colors)
	+void setAllResults(int blacks, int whites)
}
mastermind.views.GameView *-down-> mastermind.types.Color
mastermind.views.GameView ..> mastermind.views.MessageView
mastermind.views.GameView ..> mastermind.views.AttemptsView
mastermind.views.GameView ..> mastermind.views.SecretCombinationView
mastermind.views.GameView ..> mastermind.views.ProposedCombinationView
mastermind.views.GameView ..> mastermind.views.ResultView

enum mastermind.views.MessageView {
	ATTEMPTS
	SECRET
	RESUME
	RESULT
	PROPOSED_COMBINATION
	TITLE
	WINNER
	LOOSER
	PROPOSE_COMMAND
	UNDO_COMMAND
	REDO_COMMAND
	NEW_LINE
	message
	console
	-MessageView(String message)
	~String getMessage()
	~void write()
	~void writeln()
	~void writeln(int attempts)
	~void writeln(int blacks, int whites)
}
mastermind.views.MessageView *-down-> santaTecla.utils.Console

class mastermind.views.ProposeCommand {
	+ProposeCommand()
	+void setActive(Boolean isActive)
}
santaTecla.utils.Command <|-down- mastermind.views.ProposeCommand
mastermind.views.ProposeCommand ..> mastermind.views.MessageView

class mastermind.views.ProposedCombinationView {
	~void write(List<Color> colors)
	+List<Color> read()
}
santaTecla.utils.WithConsoleView <|-down- mastermind.views.ProposedCombinationView
mastermind.views.ProposedCombinationView ..> mastermind.types.Color
mastermind.views.ProposedCombinationView ..> mastermind.views.ColorView
mastermind.views.ProposedCombinationView ..> mastermind.views.MessageView

class mastermind.views.RedoCommand {
	+RedoCommand()
	+void setActive(Boolean isActive)
}
santaTecla.utils.Command <|-down- mastermind.views.RedoCommand
mastermind.views.RedoCommand ..> mastermind.views.MessageView

class mastermind.views.ResultView {
	~void writeln(List<Integer> results)
}
mastermind.views.ResultView ..> mastermind.views.MessageView

class mastermind.views.ResumeView {
	+Boolean write()
}
mastermind.views.ResumeView ..> santaTecla.YesNoDialog
mastermind.views.ResumeView ..> mastermind.views.MessageView

class mastermind.views.SecretCombinationView {
	~SecretCombinationView()
	~void writeln(int length)
}
mastermind.views.SecretCombinationView ..> mastermind.views.MessageView

class mastermind.views.StartView {
	+void write(int width)
}
mastermind.views.StartView ..> mastermind.views.MessageView
mastermind.views.StartView ..> mastermind.views.SecretCombinationView

class mastermind.views.UndoCommand {
	+UndoCommand()
	+void setActive(Boolean isActive)
}
santaTecla.utils.Command <|-down- mastermind.views.UndoCommand
mastermind.views.UndoCommand ..> mastermind.views.MessageView
@enduml

PlantUML version 1.2019.05(Sat Apr 20 18:45:36 CEST 2019)
(GPL source distribution)
Java Runtime: OpenJDK Runtime Environment
JVM: OpenJDK 64-Bit Server VM
Java Version: 1.8.0_222-b10
Operating System: Windows 10
OS Version: 10.0
Default Encoding: windows-1252
Language: es
Country: ES
--></g></svg>