<?xml version="1.0" encoding="UTF-8" standalone="no"?><svg xmlns="http://www.w3.org/2000/svg" xmlns:xlink="http://www.w3.org/1999/xlink" contentScriptType="application/ecmascript" contentStyleType="text/css" height="1164px" preserveAspectRatio="none" style="width:2315px;height:1164px;" version="1.1" viewBox="0 0 2315 1164" width="2315px" zoomAndPan="magnify"><defs><filter height="300%" id="f5lmeaf1ebedt" width="300%" x="-1" y="-1"><feGaussianBlur result="blurOut" stdDeviation="2.0"/><feColorMatrix in="blurOut" result="blurOut2" type="matrix" values="0 0 0 0 0 0 0 0 0 0 0 0 0 0 0 0 0 0 .4 0"/><feOffset dx="4.0" dy="4.0" in="blurOut2" result="blurOut3"/><feBlend in="SourceGraphic" in2="blurOut3" mode="normal"/></filter></defs><g><!--cluster mastermind.views--><polygon fill="#FFFFFF" filter="url(#f5lmeaf1ebedt)" points="1137,24,1270,24,1277,47.6094,2107,47.6094,2107,1152,1137,1152,1137,24" style="stroke: #000000; stroke-width: 1.5;"/><line style="stroke: #000000; stroke-width: 1.5;" x1="1137" x2="1277" y1="47.6094" y2="47.6094"/><text fill="#000000" font-family="sans-serif" font-size="14" font-weight="bold" lengthAdjust="spacingAndGlyphs" textLength="127" x="1141" y="40.5332">mastermind.views</text><!--cluster mastermind.utils--><polygon fill="#FFFFFF" filter="url(#f5lmeaf1ebedt)" points="2131,93,2253,93,2260,116.6094,2293,116.6094,2293,193,2131,193,2131,93" style="stroke: #000000; stroke-width: 1.5;"/><line style="stroke: #000000; stroke-width: 1.5;" x1="2131" x2="2260" y1="116.6094" y2="116.6094"/><text fill="#000000" font-family="sans-serif" font-size="14" font-weight="bold" lengthAdjust="spacingAndGlyphs" textLength="116" x="2135" y="109.5332">mastermind.utils</text><!--cluster mastermind.controllers--><polygon fill="#FFFFFF" filter="url(#f5lmeaf1ebedt)" points="22,604.5,191,604.5,198,628.1094,1113,628.1094,1113,704.5,22,704.5,22,604.5" style="stroke: #000000; stroke-width: 1.5;"/><line style="stroke: #000000; stroke-width: 1.5;" x1="22" x2="198" y1="628.1094" y2="628.1094"/><text fill="#000000" font-family="sans-serif" font-size="14" font-weight="bold" lengthAdjust="spacingAndGlyphs" textLength="163" x="26" y="621.0332">mastermind.controllers</text><!--class mastermind.views.Color--><rect fill="#FEFECE" filter="url(#f5lmeaf1ebedt)" height="227.8672" id="mastermind.views.Color" style="stroke: #A80036; stroke-width: 1.5;" width="143" x="1808.5" y="852.5"/><ellipse cx="1860.75" cy="868.5" fill="#ADD1B2" rx="11" ry="11" style="stroke: #A80036; stroke-width: 1.0;"/><path d="M1863.5156,864.375 Q1863.6719,864.1563 1863.8594,864.0469 Q1864.0469,863.9375 1864.2656,863.9375 Q1864.6406,863.9375 1864.875,864.1953 Q1865.1094,864.4531 1865.1094,865.0625 L1865.1094,866.5156 Q1865.1094,867.125 1864.875,867.3906 Q1864.6406,867.6563 1864.2656,867.6563 Q1863.9219,867.6563 1863.7188,867.4531 Q1863.5156,867.2656 1863.4063,866.75 Q1863.3594,866.3906 1863.1719,866.2031 Q1862.8438,865.8281 1862.2344,865.6094 Q1861.625,865.3906 1861,865.3906 Q1860.2344,865.3906 1859.6016,865.7188 Q1858.9688,866.0469 1858.4766,866.7969 Q1857.9844,867.5469 1857.9844,868.5781 L1857.9844,869.6719 Q1857.9844,870.9063 1858.875,871.7266 Q1859.7656,872.5469 1861.3594,872.5469 Q1862.2969,872.5469 1862.9531,872.2969 Q1863.3438,872.1406 1863.7656,871.7031 Q1864.0313,871.4375 1864.1797,871.3594 Q1864.3281,871.2813 1864.5313,871.2813 Q1864.8594,871.2813 1865.1172,871.5391 Q1865.375,871.7969 1865.375,872.1406 Q1865.375,872.4844 1865.0313,872.8906 Q1864.5313,873.4688 1863.7344,873.7969 Q1862.6563,874.25 1861.3594,874.25 Q1859.8438,874.25 1858.6406,873.625 Q1857.6563,873.125 1856.9688,872.0547 Q1856.2813,870.9844 1856.2813,869.7031 L1856.2813,868.5469 Q1856.2813,867.2188 1856.8984,866.0703 Q1857.5156,864.9219 1858.6094,864.3047 Q1859.7031,863.6875 1860.9375,863.6875 Q1861.6719,863.6875 1862.3203,863.8516 Q1862.9688,864.0156 1863.5156,864.375 Z "/><text fill="#000000" font-family="sans-serif" font-size="12" lengthAdjust="spacingAndGlyphs" textLength="30" x="1881.25" y="873.4102">Color</text><line style="stroke: #A80036; stroke-width: 1.5;" x1="1809.5" x2="1950.5" y1="884.5" y2="884.5"/><ellipse cx="1819.5" cy="896.918" fill="none" rx="3" ry="3" style="stroke: #038048; stroke-width: 1.0;"/><text fill="#000000" font-family="sans-serif" font-size="11" lengthAdjust="spacingAndGlyphs" text-decoration="underline" textLength="51" x="1828.5" y="899.9189">RED: Color</text><ellipse cx="1819.5" cy="910.7539" fill="none" rx="3" ry="3" style="stroke: #038048; stroke-width: 1.0;"/><text fill="#000000" font-family="sans-serif" font-size="11" lengthAdjust="spacingAndGlyphs" text-decoration="underline" textLength="57" x="1828.5" y="913.7549">BLUE: Color</text><ellipse cx="1819.5" cy="924.5898" fill="none" rx="3" ry="3" style="stroke: #038048; stroke-width: 1.0;"/><text fill="#000000" font-family="sans-serif" font-size="11" lengthAdjust="spacingAndGlyphs" text-decoration="underline" textLength="75" x="1828.5" y="927.5908">YELLOW: Color</text><ellipse cx="1819.5" cy="938.4258" fill="none" rx="3" ry="3" style="stroke: #038048; stroke-width: 1.0;"/><text fill="#000000" font-family="sans-serif" font-size="11" lengthAdjust="spacingAndGlyphs" text-decoration="underline" textLength="65" x="1828.5" y="941.4268">GREEN: Color</text><ellipse cx="1819.5" cy="952.2617" fill="none" rx="3" ry="3" style="stroke: #038048; stroke-width: 1.0;"/><text fill="#000000" font-family="sans-serif" font-size="11" lengthAdjust="spacingAndGlyphs" text-decoration="underline" textLength="75" x="1828.5" y="955.2627">ORANGE: Color</text><ellipse cx="1819.5" cy="966.0977" fill="none" rx="3" ry="3" style="stroke: #038048; stroke-width: 1.0;"/><text fill="#000000" font-family="sans-serif" font-size="11" lengthAdjust="spacingAndGlyphs" text-decoration="underline" textLength="69" x="1828.5" y="969.0986">PURPLE: Color</text><rect fill="none" height="6" style="stroke: #C82930; stroke-width: 1.0;" width="6" x="1816.5" y="976.9336"/><text fill="#000000" font-family="sans-serif" font-size="11" lengthAdjust="spacingAndGlyphs" textLength="51" x="1828.5" y="982.9346">initial: char</text><line style="stroke: #A80036; stroke-width: 1.5;" x1="1809.5" x2="1950.5" y1="989.3516" y2="989.3516"/><rect fill="#F24D5C" height="6" style="stroke: #C82930; stroke-width: 1.0;" width="6" x="1816.5" y="998.7695"/><text fill="#000000" font-family="sans-serif" font-size="11" lengthAdjust="spacingAndGlyphs" textLength="55" x="1828.5" y="1004.7705">Color(char)</text><ellipse cx="1819.5" cy="1015.6055" fill="#84BE84" rx="3" ry="3" style="stroke: #038048; stroke-width: 1.0;"/><text fill="#000000" font-family="sans-serif" font-size="11" lengthAdjust="spacingAndGlyphs" text-decoration="underline" textLength="105" x="1828.5" y="1018.6064">valueOf(String): Color</text><ellipse cx="1819.5" cy="1029.4414" fill="#84BE84" rx="3" ry="3" style="stroke: #038048; stroke-width: 1.0;"/><text fill="#000000" font-family="sans-serif" font-size="11" lengthAdjust="spacingAndGlyphs" text-decoration="underline" textLength="117" x="1828.5" y="1032.4424">getInstance(char): Color</text><ellipse cx="1819.5" cy="1043.2773" fill="#84BE84" rx="3" ry="3" style="stroke: #038048; stroke-width: 1.0;"/><text fill="#000000" font-family="sans-serif" font-size="11" lengthAdjust="spacingAndGlyphs" text-decoration="underline" textLength="106" x="1828.5" y="1046.2783">getInstance(int): Color</text><ellipse cx="1819.5" cy="1057.1133" fill="#84BE84" rx="3" ry="3" style="stroke: #038048; stroke-width: 1.0;"/><text fill="#000000" font-family="sans-serif" font-size="11" lengthAdjust="spacingAndGlyphs" text-decoration="underline" textLength="81" x="1828.5" y="1060.1143">allInitials(): String</text><polygon fill="#4177AF" points="1819.5,1066.9492,1815.5,1072.9492,1823.5,1072.9492" style="stroke: #1963A0; stroke-width: 1.0;"/><text fill="#000000" font-family="sans-serif" font-size="11" lengthAdjust="spacingAndGlyphs" textLength="74" x="1828.5" y="1073.9502">getInitial(): char</text><!--class mastermind.views.Error--><rect fill="#FEFECE" filter="url(#f5lmeaf1ebedt)" height="144.8516" id="mastermind.views.Error" style="stroke: #A80036; stroke-width: 1.5;" width="172" x="1901" y="592"/><ellipse cx="1969.25" cy="608" fill="#ADD1B2" rx="11" ry="11" style="stroke: #A80036; stroke-width: 1.0;"/><path d="M1972.0156,603.875 Q1972.1719,603.6563 1972.3594,603.5469 Q1972.5469,603.4375 1972.7656,603.4375 Q1973.1406,603.4375 1973.375,603.6953 Q1973.6094,603.9531 1973.6094,604.5625 L1973.6094,606.0156 Q1973.6094,606.625 1973.375,606.8906 Q1973.1406,607.1563 1972.7656,607.1563 Q1972.4219,607.1563 1972.2188,606.9531 Q1972.0156,606.7656 1971.9063,606.25 Q1971.8594,605.8906 1971.6719,605.7031 Q1971.3438,605.3281 1970.7344,605.1094 Q1970.125,604.8906 1969.5,604.8906 Q1968.7344,604.8906 1968.1016,605.2188 Q1967.4688,605.5469 1966.9766,606.2969 Q1966.4844,607.0469 1966.4844,608.0781 L1966.4844,609.1719 Q1966.4844,610.4063 1967.375,611.2266 Q1968.2656,612.0469 1969.8594,612.0469 Q1970.7969,612.0469 1971.4531,611.7969 Q1971.8438,611.6406 1972.2656,611.2031 Q1972.5313,610.9375 1972.6797,610.8594 Q1972.8281,610.7813 1973.0313,610.7813 Q1973.3594,610.7813 1973.6172,611.0391 Q1973.875,611.2969 1973.875,611.6406 Q1973.875,611.9844 1973.5313,612.3906 Q1973.0313,612.9688 1972.2344,613.2969 Q1971.1563,613.75 1969.8594,613.75 Q1968.3438,613.75 1967.1406,613.125 Q1966.1563,612.625 1965.4688,611.5547 Q1964.7813,610.4844 1964.7813,609.2031 L1964.7813,608.0469 Q1964.7813,606.7188 1965.3984,605.5703 Q1966.0156,604.4219 1967.1094,603.8047 Q1968.2031,603.1875 1969.4375,603.1875 Q1970.1719,603.1875 1970.8203,603.3516 Q1971.4688,603.5156 1972.0156,603.875 Z "/><text fill="#000000" font-family="sans-serif" font-size="12" lengthAdjust="spacingAndGlyphs" textLength="27" x="1989.75" y="612.9102">Error</text><line style="stroke: #A80036; stroke-width: 1.5;" x1="1902" x2="2072" y1="624" y2="624"/><ellipse cx="1912" cy="636.418" fill="none" rx="3" ry="3" style="stroke: #038048; stroke-width: 1.0;"/><text fill="#000000" font-family="sans-serif" font-size="11" lengthAdjust="spacingAndGlyphs" text-decoration="underline" textLength="92" x="1921" y="639.4189">DUPLICATED: Error</text><ellipse cx="1912" cy="650.2539" fill="none" rx="3" ry="3" style="stroke: #038048; stroke-width: 1.0;"/><text fill="#000000" font-family="sans-serif" font-size="11" lengthAdjust="spacingAndGlyphs" text-decoration="underline" textLength="146" x="1921" y="653.2549">WRONG_CHARACTERS: Error</text><ellipse cx="1912" cy="664.0898" fill="none" rx="3" ry="3" style="stroke: #038048; stroke-width: 1.0;"/><text fill="#000000" font-family="sans-serif" font-size="11" lengthAdjust="spacingAndGlyphs" text-decoration="underline" textLength="116" x="1921" y="667.0908">WRONG_LENGTH: Error</text><rect fill="none" height="6" style="stroke: #C82930; stroke-width: 1.0;" width="6" x="1909" y="674.9258"/><text fill="#000000" font-family="sans-serif" font-size="11" lengthAdjust="spacingAndGlyphs" textLength="78" x="1921" y="680.9268">message: String</text><line style="stroke: #A80036; stroke-width: 1.5;" x1="1902" x2="2072" y1="687.3438" y2="687.3438"/><rect fill="#F24D5C" height="6" style="stroke: #C82930; stroke-width: 1.0;" width="6" x="1909" y="696.7617"/><text fill="#000000" font-family="sans-serif" font-size="11" lengthAdjust="spacingAndGlyphs" textLength="60" x="1921" y="702.7627">Error(String)</text><ellipse cx="1912" cy="713.5977" fill="#84BE84" rx="3" ry="3" style="stroke: #038048; stroke-width: 1.0;"/><text fill="#000000" font-family="sans-serif" font-size="11" lengthAdjust="spacingAndGlyphs" text-decoration="underline" textLength="104" x="1921" y="716.5986">valueOf(String): Error</text><polygon fill="#4177AF" points="1912,723.4336,1908,729.4336,1916,729.4336" style="stroke: #1963A0; stroke-width: 1.0;"/><text fill="#000000" font-family="sans-serif" font-size="11" lengthAdjust="spacingAndGlyphs" textLength="101" x="1921" y="730.4346">getMessage(): String</text><!--class mastermind.views.GameView--><rect fill="#FEFECE" filter="url(#f5lmeaf1ebedt)" height="89.5078" id="mastermind.views.GameView" style="stroke: #A80036; stroke-width: 1.5;" width="178" x="1647" y="442"/><ellipse cx="1701.75" cy="458" fill="#ADD1B2" rx="11" ry="11" style="stroke: #A80036; stroke-width: 1.0;"/><path d="M1704.5156,453.875 Q1704.6719,453.6563 1704.8594,453.5469 Q1705.0469,453.4375 1705.2656,453.4375 Q1705.6406,453.4375 1705.875,453.6953 Q1706.1094,453.9531 1706.1094,454.5625 L1706.1094,456.0156 Q1706.1094,456.625 1705.875,456.8906 Q1705.6406,457.1563 1705.2656,457.1563 Q1704.9219,457.1563 1704.7188,456.9531 Q1704.5156,456.7656 1704.4063,456.25 Q1704.3594,455.8906 1704.1719,455.7031 Q1703.8438,455.3281 1703.2344,455.1094 Q1702.625,454.8906 1702,454.8906 Q1701.2344,454.8906 1700.6016,455.2188 Q1699.9688,455.5469 1699.4766,456.2969 Q1698.9844,457.0469 1698.9844,458.0781 L1698.9844,459.1719 Q1698.9844,460.4063 1699.875,461.2266 Q1700.7656,462.0469 1702.3594,462.0469 Q1703.2969,462.0469 1703.9531,461.7969 Q1704.3438,461.6406 1704.7656,461.2031 Q1705.0313,460.9375 1705.1797,460.8594 Q1705.3281,460.7813 1705.5313,460.7813 Q1705.8594,460.7813 1706.1172,461.0391 Q1706.375,461.2969 1706.375,461.6406 Q1706.375,461.9844 1706.0313,462.3906 Q1705.5313,462.9688 1704.7344,463.2969 Q1703.6563,463.75 1702.3594,463.75 Q1700.8438,463.75 1699.6406,463.125 Q1698.6563,462.625 1697.9688,461.5547 Q1697.2813,460.4844 1697.2813,459.2031 L1697.2813,458.0469 Q1697.2813,456.7188 1697.8984,455.5703 Q1698.5156,454.4219 1699.6094,453.8047 Q1700.7031,453.1875 1701.9375,453.1875 Q1702.6719,453.1875 1703.3203,453.3516 Q1703.9688,453.5156 1704.5156,453.875 Z "/><text fill="#000000" font-family="sans-serif" font-size="12" lengthAdjust="spacingAndGlyphs" textLength="60" x="1722.25" y="462.9102">GameView</text><line style="stroke: #A80036; stroke-width: 1.5;" x1="1648" x2="1824" y1="474" y2="474"/><polygon fill="none" points="1658,482.418,1654,488.418,1662,488.418" style="stroke: #1963A0; stroke-width: 1.0;"/><text fill="#000000" font-family="sans-serif" font-size="11" lengthAdjust="spacingAndGlyphs" textLength="152" x="1667" y="489.4189">gameController: GameController</text><line style="stroke: #A80036; stroke-width: 1.5;" x1="1648" x2="1824" y1="495.8359" y2="495.8359"/><polygon fill="#4177AF" points="1658,504.2539,1654,510.2539,1662,510.2539" style="stroke: #1963A0; stroke-width: 1.0;"/><text fill="#000000" font-family="sans-serif" font-size="11" lengthAdjust="spacingAndGlyphs" textLength="136" x="1667" y="511.2549">GameView(GameController)</text><polygon fill="#4177AF" points="1658,518.0898,1654,524.0898,1662,524.0898" style="stroke: #1963A0; stroke-width: 1.0;"/><text fill="#000000" font-family="sans-serif" font-size="11" lengthAdjust="spacingAndGlyphs" textLength="67" x="1667" y="525.0908">writeln(): void</text><!--class mastermind.views.SecretCombinationView--><rect fill="#FEFECE" filter="url(#f5lmeaf1ebedt)" height="75.6719" id="mastermind.views.SecretCombinationView" style="stroke: #A80036; stroke-width: 1.5;" width="164" x="1483" y="626.5"/><ellipse cx="1498" cy="642.5" fill="#ADD1B2" rx="11" ry="11" style="stroke: #A80036; stroke-width: 1.0;"/><path d="M1500.7656,638.375 Q1500.9219,638.1563 1501.1094,638.0469 Q1501.2969,637.9375 1501.5156,637.9375 Q1501.8906,637.9375 1502.125,638.1953 Q1502.3594,638.4531 1502.3594,639.0625 L1502.3594,640.5156 Q1502.3594,641.125 1502.125,641.3906 Q1501.8906,641.6563 1501.5156,641.6563 Q1501.1719,641.6563 1500.9688,641.4531 Q1500.7656,641.2656 1500.6563,640.75 Q1500.6094,640.3906 1500.4219,640.2031 Q1500.0938,639.8281 1499.4844,639.6094 Q1498.875,639.3906 1498.25,639.3906 Q1497.4844,639.3906 1496.8516,639.7188 Q1496.2188,640.0469 1495.7266,640.7969 Q1495.2344,641.5469 1495.2344,642.5781 L1495.2344,643.6719 Q1495.2344,644.9063 1496.125,645.7266 Q1497.0156,646.5469 1498.6094,646.5469 Q1499.5469,646.5469 1500.2031,646.2969 Q1500.5938,646.1406 1501.0156,645.7031 Q1501.2813,645.4375 1501.4297,645.3594 Q1501.5781,645.2813 1501.7813,645.2813 Q1502.1094,645.2813 1502.3672,645.5391 Q1502.625,645.7969 1502.625,646.1406 Q1502.625,646.4844 1502.2813,646.8906 Q1501.7813,647.4688 1500.9844,647.7969 Q1499.9063,648.25 1498.6094,648.25 Q1497.0938,648.25 1495.8906,647.625 Q1494.9063,647.125 1494.2188,646.0547 Q1493.5313,644.9844 1493.5313,643.7031 L1493.5313,642.5469 Q1493.5313,641.2188 1494.1484,640.0703 Q1494.7656,638.9219 1495.8594,638.3047 Q1496.9531,637.6875 1498.1875,637.6875 Q1498.9219,637.6875 1499.5703,637.8516 Q1500.2188,638.0156 1500.7656,638.375 Z "/><text fill="#000000" font-family="sans-serif" font-size="12" lengthAdjust="spacingAndGlyphs" textLength="132" x="1512" y="647.4102">SecretCombinationView</text><line style="stroke: #A80036; stroke-width: 1.5;" x1="1484" x2="1646" y1="658.5" y2="658.5"/><line style="stroke: #A80036; stroke-width: 1.5;" x1="1484" x2="1646" y1="666.5" y2="666.5"/><polygon fill="#4177AF" points="1494,674.918,1490,680.918,1498,680.918" style="stroke: #1963A0; stroke-width: 1.0;"/><text fill="#000000" font-family="sans-serif" font-size="11" lengthAdjust="spacingAndGlyphs" textLength="124" x="1503" y="681.9189">SecretCombinationView()</text><polygon fill="#4177AF" points="1494,688.7539,1490,694.7539,1498,694.7539" style="stroke: #1963A0; stroke-width: 1.0;"/><text fill="#000000" font-family="sans-serif" font-size="11" lengthAdjust="spacingAndGlyphs" textLength="78" x="1503" y="695.7549">writeln(int): void</text><!--class mastermind.views.ProposedCombinationView--><rect fill="#FEFECE" filter="url(#f5lmeaf1ebedt)" height="103.3438" id="mastermind.views.ProposedCombinationView" style="stroke: #A80036; stroke-width: 1.5;" width="183" x="1682.5" y="613"/><ellipse cx="1697.5" cy="629" fill="#ADD1B2" rx="11" ry="11" style="stroke: #A80036; stroke-width: 1.0;"/><path d="M1700.2656,624.875 Q1700.4219,624.6563 1700.6094,624.5469 Q1700.7969,624.4375 1701.0156,624.4375 Q1701.3906,624.4375 1701.625,624.6953 Q1701.8594,624.9531 1701.8594,625.5625 L1701.8594,627.0156 Q1701.8594,627.625 1701.625,627.8906 Q1701.3906,628.1563 1701.0156,628.1563 Q1700.6719,628.1563 1700.4688,627.9531 Q1700.2656,627.7656 1700.1563,627.25 Q1700.1094,626.8906 1699.9219,626.7031 Q1699.5938,626.3281 1698.9844,626.1094 Q1698.375,625.8906 1697.75,625.8906 Q1696.9844,625.8906 1696.3516,626.2188 Q1695.7188,626.5469 1695.2266,627.2969 Q1694.7344,628.0469 1694.7344,629.0781 L1694.7344,630.1719 Q1694.7344,631.4063 1695.625,632.2266 Q1696.5156,633.0469 1698.1094,633.0469 Q1699.0469,633.0469 1699.7031,632.7969 Q1700.0938,632.6406 1700.5156,632.2031 Q1700.7813,631.9375 1700.9297,631.8594 Q1701.0781,631.7813 1701.2813,631.7813 Q1701.6094,631.7813 1701.8672,632.0391 Q1702.125,632.2969 1702.125,632.6406 Q1702.125,632.9844 1701.7813,633.3906 Q1701.2813,633.9688 1700.4844,634.2969 Q1699.4063,634.75 1698.1094,634.75 Q1696.5938,634.75 1695.3906,634.125 Q1694.4063,633.625 1693.7188,632.5547 Q1693.0313,631.4844 1693.0313,630.2031 L1693.0313,629.0469 Q1693.0313,627.7188 1693.6484,626.5703 Q1694.2656,625.4219 1695.3594,624.8047 Q1696.4531,624.1875 1697.6875,624.1875 Q1698.4219,624.1875 1699.0703,624.3516 Q1699.7188,624.5156 1700.2656,624.875 Z "/><text fill="#000000" font-family="sans-serif" font-size="12" lengthAdjust="spacingAndGlyphs" textLength="151" x="1711.5" y="633.9102">ProposedCombinationView</text><line style="stroke: #A80036; stroke-width: 1.5;" x1="1683.5" x2="1864.5" y1="645" y2="645"/><rect fill="none" height="6" style="stroke: #C82930; stroke-width: 1.0;" width="6" x="1690.5" y="654.418"/><text fill="#000000" font-family="sans-serif" font-size="11" lengthAdjust="spacingAndGlyphs" text-decoration="underline" textLength="86" x="1702.5" y="660.4189">ERROR_CODE: int</text><line style="stroke: #A80036; stroke-width: 1.5;" x1="1683.5" x2="1864.5" y1="666.8359" y2="666.8359"/><polygon fill="#4177AF" points="1693.5,675.2539,1689.5,681.2539,1697.5,681.2539" style="stroke: #1963A0; stroke-width: 1.0;"/><text fill="#000000" font-family="sans-serif" font-size="11" lengthAdjust="spacingAndGlyphs" textLength="138" x="1702.5" y="682.2549">ProposedCombinationView()</text><polygon fill="#4177AF" points="1693.5,689.0898,1689.5,695.0898,1697.5,695.0898" style="stroke: #1963A0; stroke-width: 1.0;"/><text fill="#000000" font-family="sans-serif" font-size="11" lengthAdjust="spacingAndGlyphs" textLength="76" x="1702.5" y="696.0908">write(int[]): void</text><polygon fill="#4177AF" points="1693.5,702.9258,1689.5,708.9258,1697.5,708.9258" style="stroke: #1963A0; stroke-width: 1.0;"/><text fill="#000000" font-family="sans-serif" font-size="11" lengthAdjust="spacingAndGlyphs" textLength="53" x="1702.5" y="709.9268">read(): int[]</text><!--class mastermind.views.ResultView--><rect fill="#FEFECE" filter="url(#f5lmeaf1ebedt)" height="75.6719" id="mastermind.views.ResultView" style="stroke: #A80036; stroke-width: 1.5;" width="110" x="1338" y="626.5"/><ellipse cx="1360.2" cy="642.5" fill="#ADD1B2" rx="11" ry="11" style="stroke: #A80036; stroke-width: 1.0;"/><path d="M1362.9656,638.375 Q1363.1219,638.1563 1363.3094,638.0469 Q1363.4969,637.9375 1363.7156,637.9375 Q1364.0906,637.9375 1364.325,638.1953 Q1364.5594,638.4531 1364.5594,639.0625 L1364.5594,640.5156 Q1364.5594,641.125 1364.325,641.3906 Q1364.0906,641.6563 1363.7156,641.6563 Q1363.3719,641.6563 1363.1688,641.4531 Q1362.9656,641.2656 1362.8563,640.75 Q1362.8094,640.3906 1362.6219,640.2031 Q1362.2938,639.8281 1361.6844,639.6094 Q1361.075,639.3906 1360.45,639.3906 Q1359.6844,639.3906 1359.0516,639.7188 Q1358.4188,640.0469 1357.9266,640.7969 Q1357.4344,641.5469 1357.4344,642.5781 L1357.4344,643.6719 Q1357.4344,644.9063 1358.325,645.7266 Q1359.2156,646.5469 1360.8094,646.5469 Q1361.7469,646.5469 1362.4031,646.2969 Q1362.7938,646.1406 1363.2156,645.7031 Q1363.4813,645.4375 1363.6297,645.3594 Q1363.7781,645.2813 1363.9813,645.2813 Q1364.3094,645.2813 1364.5672,645.5391 Q1364.825,645.7969 1364.825,646.1406 Q1364.825,646.4844 1364.4813,646.8906 Q1363.9813,647.4688 1363.1844,647.7969 Q1362.1063,648.25 1360.8094,648.25 Q1359.2938,648.25 1358.0906,647.625 Q1357.1063,647.125 1356.4188,646.0547 Q1355.7313,644.9844 1355.7313,643.7031 L1355.7313,642.5469 Q1355.7313,641.2188 1356.3484,640.0703 Q1356.9656,638.9219 1358.0594,638.3047 Q1359.1531,637.6875 1360.3875,637.6875 Q1361.1219,637.6875 1361.7703,637.8516 Q1362.4188,638.0156 1362.9656,638.375 Z "/><text fill="#000000" font-family="sans-serif" font-size="12" lengthAdjust="spacingAndGlyphs" textLength="62" x="1375.8" y="647.4102">ResultView</text><line style="stroke: #A80036; stroke-width: 1.5;" x1="1339" x2="1447" y1="658.5" y2="658.5"/><line style="stroke: #A80036; stroke-width: 1.5;" x1="1339" x2="1447" y1="666.5" y2="666.5"/><polygon fill="#4177AF" points="1349,674.918,1345,680.918,1353,680.918" style="stroke: #1963A0; stroke-width: 1.0;"/><text fill="#000000" font-family="sans-serif" font-size="11" lengthAdjust="spacingAndGlyphs" textLength="64" x="1358" y="681.9189">ResultView()</text><polygon fill="#4177AF" points="1349,688.7539,1345,694.7539,1353,694.7539" style="stroke: #1963A0; stroke-width: 1.0;"/><text fill="#000000" font-family="sans-serif" font-size="11" lengthAdjust="spacingAndGlyphs" textLength="84" x="1358" y="695.7549">writeln(int[]): void</text><!--class mastermind.views.Message--><rect fill="#FEFECE" filter="url(#f5lmeaf1ebedt)" height="338.5547" id="mastermind.views.Message" style="stroke: #A80036; stroke-width: 1.5;" width="207" x="1179.5" y="797"/><ellipse cx="1253.25" cy="813" fill="#ADD1B2" rx="11" ry="11" style="stroke: #A80036; stroke-width: 1.0;"/><path d="M1256.0156,808.875 Q1256.1719,808.6563 1256.3594,808.5469 Q1256.5469,808.4375 1256.7656,808.4375 Q1257.1406,808.4375 1257.375,808.6953 Q1257.6094,808.9531 1257.6094,809.5625 L1257.6094,811.0156 Q1257.6094,811.625 1257.375,811.8906 Q1257.1406,812.1563 1256.7656,812.1563 Q1256.4219,812.1563 1256.2188,811.9531 Q1256.0156,811.7656 1255.9063,811.25 Q1255.8594,810.8906 1255.6719,810.7031 Q1255.3438,810.3281 1254.7344,810.1094 Q1254.125,809.8906 1253.5,809.8906 Q1252.7344,809.8906 1252.1016,810.2188 Q1251.4688,810.5469 1250.9766,811.2969 Q1250.4844,812.0469 1250.4844,813.0781 L1250.4844,814.1719 Q1250.4844,815.4063 1251.375,816.2266 Q1252.2656,817.0469 1253.8594,817.0469 Q1254.7969,817.0469 1255.4531,816.7969 Q1255.8438,816.6406 1256.2656,816.2031 Q1256.5313,815.9375 1256.6797,815.8594 Q1256.8281,815.7813 1257.0313,815.7813 Q1257.3594,815.7813 1257.6172,816.0391 Q1257.875,816.2969 1257.875,816.6406 Q1257.875,816.9844 1257.5313,817.3906 Q1257.0313,817.9688 1256.2344,818.2969 Q1255.1563,818.75 1253.8594,818.75 Q1252.3438,818.75 1251.1406,818.125 Q1250.1563,817.625 1249.4688,816.5547 Q1248.7813,815.4844 1248.7813,814.2031 L1248.7813,813.0469 Q1248.7813,811.7188 1249.3984,810.5703 Q1250.0156,809.4219 1251.1094,808.8047 Q1252.2031,808.1875 1253.4375,808.1875 Q1254.1719,808.1875 1254.8203,808.3516 Q1255.4688,808.5156 1256.0156,808.875 Z "/><text fill="#000000" font-family="sans-serif" font-size="12" lengthAdjust="spacingAndGlyphs" textLength="51" x="1273.75" y="817.9102">Message</text><line style="stroke: #A80036; stroke-width: 1.5;" x1="1180.5" x2="1385.5" y1="829" y2="829"/><ellipse cx="1190.5" cy="841.418" fill="none" rx="3" ry="3" style="stroke: #038048; stroke-width: 1.0;"/><text fill="#000000" font-family="sans-serif" font-size="11" lengthAdjust="spacingAndGlyphs" text-decoration="underline" textLength="77" x="1199.5" y="844.4189">TURN: Message</text><ellipse cx="1190.5" cy="855.2539" fill="none" rx="3" ry="3" style="stroke: #038048; stroke-width: 1.0;"/><text fill="#000000" font-family="sans-serif" font-size="11" lengthAdjust="spacingAndGlyphs" text-decoration="underline" textLength="89" x="1199.5" y="858.2549">SECRET: Message</text><ellipse cx="1190.5" cy="869.0898" fill="none" rx="3" ry="3" style="stroke: #038048; stroke-width: 1.0;"/><text fill="#000000" font-family="sans-serif" font-size="11" lengthAdjust="spacingAndGlyphs" text-decoration="underline" textLength="91" x="1199.5" y="872.0908">RESUME: Message</text><ellipse cx="1190.5" cy="882.9258" fill="none" rx="3" ry="3" style="stroke: #038048; stroke-width: 1.0;"/><text fill="#000000" font-family="sans-serif" font-size="11" lengthAdjust="spacingAndGlyphs" text-decoration="underline" textLength="79" x="1199.5" y="885.9268">SAVE: Message</text><ellipse cx="1190.5" cy="896.7617" fill="none" rx="3" ry="3" style="stroke: #038048; stroke-width: 1.0;"/><text fill="#000000" font-family="sans-serif" font-size="11" lengthAdjust="spacingAndGlyphs" text-decoration="underline" textLength="89" x="1199.5" y="899.7627">RESULT: Message</text><ellipse cx="1190.5" cy="910.5977" fill="none" rx="3" ry="3" style="stroke: #038048; stroke-width: 1.0;"/><text fill="#000000" font-family="sans-serif" font-size="11" lengthAdjust="spacingAndGlyphs" text-decoration="underline" textLength="181" x="1199.5" y="913.5986">PROPOSED_COMBINATION: Message</text><ellipse cx="1190.5" cy="924.4336" fill="none" rx="3" ry="3" style="stroke: #038048; stroke-width: 1.0;"/><text fill="#000000" font-family="sans-serif" font-size="11" lengthAdjust="spacingAndGlyphs" text-decoration="underline" textLength="76" x="1199.5" y="927.4346">TITLE: Message</text><ellipse cx="1190.5" cy="938.2695" fill="none" rx="3" ry="3" style="stroke: #038048; stroke-width: 1.0;"/><text fill="#000000" font-family="sans-serif" font-size="11" lengthAdjust="spacingAndGlyphs" text-decoration="underline" textLength="89" x="1199.5" y="941.2705">WINNER: Message</text><ellipse cx="1190.5" cy="952.1055" fill="none" rx="3" ry="3" style="stroke: #038048; stroke-width: 1.0;"/><text fill="#000000" font-family="sans-serif" font-size="11" lengthAdjust="spacingAndGlyphs" text-decoration="underline" textLength="92" x="1199.5" y="955.1064">LOOSER: Message</text><ellipse cx="1190.5" cy="965.9414" fill="none" rx="3" ry="3" style="stroke: #038048; stroke-width: 1.0;"/><text fill="#000000" font-family="sans-serif" font-size="11" lengthAdjust="spacingAndGlyphs" text-decoration="underline" textLength="87" x="1199.5" y="968.9424">OPTION: Message</text><ellipse cx="1190.5" cy="979.7773" fill="none" rx="3" ry="3" style="stroke: #038048; stroke-width: 1.0;"/><text fill="#000000" font-family="sans-serif" font-size="11" lengthAdjust="spacingAndGlyphs" text-decoration="underline" textLength="157" x="1199.5" y="982.7783">PROPOSE_COMMAND: Message</text><ellipse cx="1190.5" cy="993.6133" fill="none" rx="3" ry="3" style="stroke: #038048; stroke-width: 1.0;"/><text fill="#000000" font-family="sans-serif" font-size="11" lengthAdjust="spacingAndGlyphs" text-decoration="underline" textLength="138" x="1199.5" y="996.6143">UNDO_COMMAND: Message</text><ellipse cx="1190.5" cy="1007.4492" fill="none" rx="3" ry="3" style="stroke: #038048; stroke-width: 1.0;"/><text fill="#000000" font-family="sans-serif" font-size="11" lengthAdjust="spacingAndGlyphs" text-decoration="underline" textLength="137" x="1199.5" y="1010.4502">REDO_COMMAND: Message</text><ellipse cx="1190.5" cy="1021.2852" fill="none" rx="3" ry="3" style="stroke: #038048; stroke-width: 1.0;"/><text fill="#000000" font-family="sans-serif" font-size="11" lengthAdjust="spacingAndGlyphs" text-decoration="underline" textLength="162" x="1199.5" y="1024.2861">NEWGAME_COMMAND: Message</text><ellipse cx="1190.5" cy="1035.1211" fill="none" rx="3" ry="3" style="stroke: #038048; stroke-width: 1.0;"/><text fill="#000000" font-family="sans-serif" font-size="11" lengthAdjust="spacingAndGlyphs" text-decoration="underline" textLength="130" x="1199.5" y="1038.1221">EXIT_COMMAND: Message</text><ellipse cx="1190.5" cy="1048.957" fill="none" rx="3" ry="3" style="stroke: #038048; stroke-width: 1.0;"/><text fill="#000000" font-family="sans-serif" font-size="11" lengthAdjust="spacingAndGlyphs" text-decoration="underline" textLength="166" x="1199.5" y="1051.958">OPENGAME_COMMAND: Message</text><ellipse cx="1190.5" cy="1062.793" fill="none" rx="3" ry="3" style="stroke: #038048; stroke-width: 1.0;"/><text fill="#000000" font-family="sans-serif" font-size="11" lengthAdjust="spacingAndGlyphs" text-decoration="underline" textLength="79" x="1199.5" y="1065.7939">NAME: Message</text><rect fill="none" height="6" style="stroke: #C82930; stroke-width: 1.0;" width="6" x="1187.5" y="1073.6289"/><text fill="#000000" font-family="sans-serif" font-size="11" lengthAdjust="spacingAndGlyphs" textLength="78" x="1199.5" y="1079.6299">message: String</text><line style="stroke: #A80036; stroke-width: 1.5;" x1="1180.5" x2="1385.5" y1="1086.0469" y2="1086.0469"/><rect fill="#F24D5C" height="6" style="stroke: #C82930; stroke-width: 1.0;" width="6" x="1187.5" y="1095.4648"/><text fill="#000000" font-family="sans-serif" font-size="11" lengthAdjust="spacingAndGlyphs" textLength="80" x="1199.5" y="1101.4658">Message(String)</text><ellipse cx="1190.5" cy="1112.3008" fill="#84BE84" rx="3" ry="3" style="stroke: #038048; stroke-width: 1.0;"/><text fill="#000000" font-family="sans-serif" font-size="11" lengthAdjust="spacingAndGlyphs" text-decoration="underline" textLength="124" x="1199.5" y="1115.3018">valueOf(String): Message</text><ellipse cx="1190.5" cy="1126.1367" fill="#84BE84" rx="3" ry="3" style="stroke: #038048; stroke-width: 1.0;"/><text fill="#000000" font-family="sans-serif" font-size="11" lengthAdjust="spacingAndGlyphs" textLength="101" x="1199.5" y="1129.1377">getMessage(): String</text><!--class mastermind.views.PlayView--><rect fill="#FEFECE" filter="url(#f5lmeaf1ebedt)" height="75.6719" id="mastermind.views.PlayView" style="stroke: #A80036; stroke-width: 1.5;" width="162" x="1530" y="306"/><ellipse cx="1582.25" cy="322" fill="#ADD1B2" rx="11" ry="11" style="stroke: #A80036; stroke-width: 1.0;"/><path d="M1585.0156,317.875 Q1585.1719,317.6563 1585.3594,317.5469 Q1585.5469,317.4375 1585.7656,317.4375 Q1586.1406,317.4375 1586.375,317.6953 Q1586.6094,317.9531 1586.6094,318.5625 L1586.6094,320.0156 Q1586.6094,320.625 1586.375,320.8906 Q1586.1406,321.1563 1585.7656,321.1563 Q1585.4219,321.1563 1585.2188,320.9531 Q1585.0156,320.7656 1584.9063,320.25 Q1584.8594,319.8906 1584.6719,319.7031 Q1584.3438,319.3281 1583.7344,319.1094 Q1583.125,318.8906 1582.5,318.8906 Q1581.7344,318.8906 1581.1016,319.2188 Q1580.4688,319.5469 1579.9766,320.2969 Q1579.4844,321.0469 1579.4844,322.0781 L1579.4844,323.1719 Q1579.4844,324.4063 1580.375,325.2266 Q1581.2656,326.0469 1582.8594,326.0469 Q1583.7969,326.0469 1584.4531,325.7969 Q1584.8438,325.6406 1585.2656,325.2031 Q1585.5313,324.9375 1585.6797,324.8594 Q1585.8281,324.7813 1586.0313,324.7813 Q1586.3594,324.7813 1586.6172,325.0391 Q1586.875,325.2969 1586.875,325.6406 Q1586.875,325.9844 1586.5313,326.3906 Q1586.0313,326.9688 1585.2344,327.2969 Q1584.1563,327.75 1582.8594,327.75 Q1581.3438,327.75 1580.1406,327.125 Q1579.1563,326.625 1578.4688,325.5547 Q1577.7813,324.4844 1577.7813,323.2031 L1577.7813,322.0469 Q1577.7813,320.7188 1578.3984,319.5703 Q1579.0156,318.4219 1580.1094,317.8047 Q1581.2031,317.1875 1582.4375,317.1875 Q1583.1719,317.1875 1583.8203,317.3516 Q1584.4688,317.5156 1585.0156,317.875 Z "/><text fill="#000000" font-family="sans-serif" font-size="12" lengthAdjust="spacingAndGlyphs" textLength="49" x="1602.75" y="326.9102">PlayView</text><line style="stroke: #A80036; stroke-width: 1.5;" x1="1531" x2="1691" y1="338" y2="338"/><line style="stroke: #A80036; stroke-width: 1.5;" x1="1531" x2="1691" y1="346" y2="346"/><polygon fill="#4177AF" points="1541,354.418,1537,360.418,1545,360.418" style="stroke: #1963A0; stroke-width: 1.0;"/><text fill="#000000" font-family="sans-serif" font-size="11" lengthAdjust="spacingAndGlyphs" textLength="54" x="1550" y="361.4189">PlayView()</text><polygon fill="#4177AF" points="1541,368.2539,1537,374.2539,1545,374.2539" style="stroke: #1963A0; stroke-width: 1.0;"/><text fill="#000000" font-family="sans-serif" font-size="11" lengthAdjust="spacingAndGlyphs" textLength="136" x="1550" y="375.2549">interact(PlayController): void</text><!--class mastermind.views.ResumeView--><rect fill="#FEFECE" filter="url(#f5lmeaf1ebedt)" height="75.6719" id="mastermind.views.ResumeView" style="stroke: #A80036; stroke-width: 1.5;" width="181" x="1153.5" y="449"/><ellipse cx="1202.75" cy="465" fill="#ADD1B2" rx="11" ry="11" style="stroke: #A80036; stroke-width: 1.0;"/><path d="M1205.5156,460.875 Q1205.6719,460.6563 1205.8594,460.5469 Q1206.0469,460.4375 1206.2656,460.4375 Q1206.6406,460.4375 1206.875,460.6953 Q1207.1094,460.9531 1207.1094,461.5625 L1207.1094,463.0156 Q1207.1094,463.625 1206.875,463.8906 Q1206.6406,464.1563 1206.2656,464.1563 Q1205.9219,464.1563 1205.7188,463.9531 Q1205.5156,463.7656 1205.4063,463.25 Q1205.3594,462.8906 1205.1719,462.7031 Q1204.8438,462.3281 1204.2344,462.1094 Q1203.625,461.8906 1203,461.8906 Q1202.2344,461.8906 1201.6016,462.2188 Q1200.9688,462.5469 1200.4766,463.2969 Q1199.9844,464.0469 1199.9844,465.0781 L1199.9844,466.1719 Q1199.9844,467.4063 1200.875,468.2266 Q1201.7656,469.0469 1203.3594,469.0469 Q1204.2969,469.0469 1204.9531,468.7969 Q1205.3438,468.6406 1205.7656,468.2031 Q1206.0313,467.9375 1206.1797,467.8594 Q1206.3281,467.7813 1206.5313,467.7813 Q1206.8594,467.7813 1207.1172,468.0391 Q1207.375,468.2969 1207.375,468.6406 Q1207.375,468.9844 1207.0313,469.3906 Q1206.5313,469.9688 1205.7344,470.2969 Q1204.6563,470.75 1203.3594,470.75 Q1201.8438,470.75 1200.6406,470.125 Q1199.6563,469.625 1198.9688,468.5547 Q1198.2813,467.4844 1198.2813,466.2031 L1198.2813,465.0469 Q1198.2813,463.7188 1198.8984,462.5703 Q1199.5156,461.4219 1200.6094,460.8047 Q1201.7031,460.1875 1202.9375,460.1875 Q1203.6719,460.1875 1204.3203,460.3516 Q1204.9688,460.5156 1205.5156,460.875 Z "/><text fill="#000000" font-family="sans-serif" font-size="12" lengthAdjust="spacingAndGlyphs" textLength="74" x="1223.25" y="469.9102">ResumeView</text><line style="stroke: #A80036; stroke-width: 1.5;" x1="1154.5" x2="1333.5" y1="481" y2="481"/><line style="stroke: #A80036; stroke-width: 1.5;" x1="1154.5" x2="1333.5" y1="489" y2="489"/><polygon fill="#4177AF" points="1164.5,497.418,1160.5,503.418,1168.5,503.418" style="stroke: #1963A0; stroke-width: 1.0;"/><text fill="#000000" font-family="sans-serif" font-size="11" lengthAdjust="spacingAndGlyphs" textLength="73" x="1173.5" y="504.4189">ResumeView()</text><polygon fill="#4177AF" points="1164.5,511.2539,1160.5,517.2539,1168.5,517.2539" style="stroke: #1963A0; stroke-width: 1.0;"/><text fill="#000000" font-family="sans-serif" font-size="11" lengthAdjust="spacingAndGlyphs" textLength="155" x="1173.5" y="518.2549">interact(ResumeController): void</text><!--class mastermind.views.SaveView--><rect fill="#FEFECE" filter="url(#f5lmeaf1ebedt)" height="75.6719" id="mastermind.views.SaveView" style="stroke: #A80036; stroke-width: 1.5;" width="167" x="1407.5" y="449"/><ellipse cx="1460.25" cy="465" fill="#ADD1B2" rx="11" ry="11" style="stroke: #A80036; stroke-width: 1.0;"/><path d="M1463.0156,460.875 Q1463.1719,460.6563 1463.3594,460.5469 Q1463.5469,460.4375 1463.7656,460.4375 Q1464.1406,460.4375 1464.375,460.6953 Q1464.6094,460.9531 1464.6094,461.5625 L1464.6094,463.0156 Q1464.6094,463.625 1464.375,463.8906 Q1464.1406,464.1563 1463.7656,464.1563 Q1463.4219,464.1563 1463.2188,463.9531 Q1463.0156,463.7656 1462.9063,463.25 Q1462.8594,462.8906 1462.6719,462.7031 Q1462.3438,462.3281 1461.7344,462.1094 Q1461.125,461.8906 1460.5,461.8906 Q1459.7344,461.8906 1459.1016,462.2188 Q1458.4688,462.5469 1457.9766,463.2969 Q1457.4844,464.0469 1457.4844,465.0781 L1457.4844,466.1719 Q1457.4844,467.4063 1458.375,468.2266 Q1459.2656,469.0469 1460.8594,469.0469 Q1461.7969,469.0469 1462.4531,468.7969 Q1462.8438,468.6406 1463.2656,468.2031 Q1463.5313,467.9375 1463.6797,467.8594 Q1463.8281,467.7813 1464.0313,467.7813 Q1464.3594,467.7813 1464.6172,468.0391 Q1464.875,468.2969 1464.875,468.6406 Q1464.875,468.9844 1464.5313,469.3906 Q1464.0313,469.9688 1463.2344,470.2969 Q1462.1563,470.75 1460.8594,470.75 Q1459.3438,470.75 1458.1406,470.125 Q1457.1563,469.625 1456.4688,468.5547 Q1455.7813,467.4844 1455.7813,466.2031 L1455.7813,465.0469 Q1455.7813,463.7188 1456.3984,462.5703 Q1457.0156,461.4219 1458.1094,460.8047 Q1459.2031,460.1875 1460.4375,460.1875 Q1461.1719,460.1875 1461.8203,460.3516 Q1462.4688,460.5156 1463.0156,460.875 Z "/><text fill="#000000" font-family="sans-serif" font-size="12" lengthAdjust="spacingAndGlyphs" textLength="53" x="1480.75" y="469.9102">SaveView</text><line style="stroke: #A80036; stroke-width: 1.5;" x1="1408.5" x2="1573.5" y1="481" y2="481"/><line style="stroke: #A80036; stroke-width: 1.5;" x1="1408.5" x2="1573.5" y1="489" y2="489"/><polygon fill="#4177AF" points="1418.5,497.418,1414.5,503.418,1422.5,503.418" style="stroke: #1963A0; stroke-width: 1.0;"/><text fill="#000000" font-family="sans-serif" font-size="11" lengthAdjust="spacingAndGlyphs" textLength="59" x="1427.5" y="504.4189">SaveView()</text><polygon fill="#4177AF" points="1418.5,511.2539,1414.5,517.2539,1422.5,517.2539" style="stroke: #1963A0; stroke-width: 1.0;"/><text fill="#000000" font-family="sans-serif" font-size="11" lengthAdjust="spacingAndGlyphs" textLength="141" x="1427.5" y="518.2549">interact(SaveController): void</text><!--class mastermind.views.StartView--><rect fill="#FEFECE" filter="url(#f5lmeaf1ebedt)" height="75.6719" id="mastermind.views.StartView" style="stroke: #A80036; stroke-width: 1.5;" width="165" x="1286.5" y="306"/><ellipse cx="1339.25" cy="322" fill="#ADD1B2" rx="11" ry="11" style="stroke: #A80036; stroke-width: 1.0;"/><path d="M1342.0156,317.875 Q1342.1719,317.6563 1342.3594,317.5469 Q1342.5469,317.4375 1342.7656,317.4375 Q1343.1406,317.4375 1343.375,317.6953 Q1343.6094,317.9531 1343.6094,318.5625 L1343.6094,320.0156 Q1343.6094,320.625 1343.375,320.8906 Q1343.1406,321.1563 1342.7656,321.1563 Q1342.4219,321.1563 1342.2188,320.9531 Q1342.0156,320.7656 1341.9063,320.25 Q1341.8594,319.8906 1341.6719,319.7031 Q1341.3438,319.3281 1340.7344,319.1094 Q1340.125,318.8906 1339.5,318.8906 Q1338.7344,318.8906 1338.1016,319.2188 Q1337.4688,319.5469 1336.9766,320.2969 Q1336.4844,321.0469 1336.4844,322.0781 L1336.4844,323.1719 Q1336.4844,324.4063 1337.375,325.2266 Q1338.2656,326.0469 1339.8594,326.0469 Q1340.7969,326.0469 1341.4531,325.7969 Q1341.8438,325.6406 1342.2656,325.2031 Q1342.5313,324.9375 1342.6797,324.8594 Q1342.8281,324.7813 1343.0313,324.7813 Q1343.3594,324.7813 1343.6172,325.0391 Q1343.875,325.2969 1343.875,325.6406 Q1343.875,325.9844 1343.5313,326.3906 Q1343.0313,326.9688 1342.2344,327.2969 Q1341.1563,327.75 1339.8594,327.75 Q1338.3438,327.75 1337.1406,327.125 Q1336.1563,326.625 1335.4688,325.5547 Q1334.7813,324.4844 1334.7813,323.2031 L1334.7813,322.0469 Q1334.7813,320.7188 1335.3984,319.5703 Q1336.0156,318.4219 1337.1094,317.8047 Q1338.2031,317.1875 1339.4375,317.1875 Q1340.1719,317.1875 1340.8203,317.3516 Q1341.4688,317.5156 1342.0156,317.875 Z "/><text fill="#000000" font-family="sans-serif" font-size="12" lengthAdjust="spacingAndGlyphs" textLength="51" x="1359.75" y="326.9102">StartView</text><line style="stroke: #A80036; stroke-width: 1.5;" x1="1287.5" x2="1450.5" y1="338" y2="338"/><line style="stroke: #A80036; stroke-width: 1.5;" x1="1287.5" x2="1450.5" y1="346" y2="346"/><polygon fill="#4177AF" points="1297.5,354.418,1293.5,360.418,1301.5,360.418" style="stroke: #1963A0; stroke-width: 1.0;"/><text fill="#000000" font-family="sans-serif" font-size="11" lengthAdjust="spacingAndGlyphs" textLength="57" x="1306.5" y="361.4189">StartView()</text><polygon fill="#4177AF" points="1297.5,368.2539,1293.5,374.2539,1301.5,374.2539" style="stroke: #1963A0; stroke-width: 1.0;"/><text fill="#000000" font-family="sans-serif" font-size="11" lengthAdjust="spacingAndGlyphs" textLength="139" x="1306.5" y="375.2549">interact(StartController): void</text><!--class mastermind.views.View--><rect fill="#FEFECE" filter="url(#f5lmeaf1ebedt)" height="186.3594" id="mastermind.views.View" style="stroke: #A80036; stroke-width: 1.5;" width="187" x="1215.5" y="60"/><ellipse cx="1291.75" cy="76" fill="#ADD1B2" rx="11" ry="11" style="stroke: #A80036; stroke-width: 1.0;"/><path d="M1294.5156,71.875 Q1294.6719,71.6563 1294.8594,71.5469 Q1295.0469,71.4375 1295.2656,71.4375 Q1295.6406,71.4375 1295.875,71.6953 Q1296.1094,71.9531 1296.1094,72.5625 L1296.1094,74.0156 Q1296.1094,74.625 1295.875,74.8906 Q1295.6406,75.1563 1295.2656,75.1563 Q1294.9219,75.1563 1294.7188,74.9531 Q1294.5156,74.7656 1294.4063,74.25 Q1294.3594,73.8906 1294.1719,73.7031 Q1293.8438,73.3281 1293.2344,73.1094 Q1292.625,72.8906 1292,72.8906 Q1291.2344,72.8906 1290.6016,73.2188 Q1289.9688,73.5469 1289.4766,74.2969 Q1288.9844,75.0469 1288.9844,76.0781 L1288.9844,77.1719 Q1288.9844,78.4063 1289.875,79.2266 Q1290.7656,80.0469 1292.3594,80.0469 Q1293.2969,80.0469 1293.9531,79.7969 Q1294.3438,79.6406 1294.7656,79.2031 Q1295.0313,78.9375 1295.1797,78.8594 Q1295.3281,78.7813 1295.5313,78.7813 Q1295.8594,78.7813 1296.1172,79.0391 Q1296.375,79.2969 1296.375,79.6406 Q1296.375,79.9844 1296.0313,80.3906 Q1295.5313,80.9688 1294.7344,81.2969 Q1293.6563,81.75 1292.3594,81.75 Q1290.8438,81.75 1289.6406,81.125 Q1288.6563,80.625 1287.9688,79.5547 Q1287.2813,78.4844 1287.2813,77.2031 L1287.2813,76.0469 Q1287.2813,74.7188 1287.8984,73.5703 Q1288.5156,72.4219 1289.6094,71.8047 Q1290.7031,71.1875 1291.9375,71.1875 Q1292.6719,71.1875 1293.3203,71.3516 Q1293.9688,71.5156 1294.5156,71.875 Z "/><text fill="#000000" font-family="sans-serif" font-size="12" lengthAdjust="spacingAndGlyphs" textLength="26" x="1312.25" y="80.9102">View</text><line style="stroke: #A80036; stroke-width: 1.5;" x1="1216.5" x2="1401.5" y1="92" y2="92"/><rect fill="none" height="6" style="stroke: #C82930; stroke-width: 1.0;" width="6" x="1223.5" y="101.418"/><text fill="#000000" font-family="sans-serif" font-size="11" lengthAdjust="spacingAndGlyphs" textLength="103" x="1235.5" y="107.4189">startView: StartView</text><rect fill="none" height="6" style="stroke: #C82930; stroke-width: 1.0;" width="6" x="1223.5" y="115.2539"/><text fill="#000000" font-family="sans-serif" font-size="11" lengthAdjust="spacingAndGlyphs" textLength="98" x="1235.5" y="121.2549">playView: PlayView</text><rect fill="none" height="6" style="stroke: #C82930; stroke-width: 1.0;" width="6" x="1223.5" y="129.0898"/><text fill="#000000" font-family="sans-serif" font-size="11" lengthAdjust="spacingAndGlyphs" textLength="107" x="1235.5" y="135.0908">saveView: SaveView</text><rect fill="none" height="6" style="stroke: #C82930; stroke-width: 1.0;" width="6" x="1223.5" y="142.9258"/><text fill="#000000" font-family="sans-serif" font-size="11" lengthAdjust="spacingAndGlyphs" textLength="133" x="1235.5" y="148.9268">resumeView: ResumeView</text><line style="stroke: #A80036; stroke-width: 1.5;" x1="1216.5" x2="1401.5" y1="155.3438" y2="155.3438"/><ellipse cx="1226.5" cy="167.7617" fill="#84BE84" rx="3" ry="3" style="stroke: #038048; stroke-width: 1.0;"/><text fill="#000000" font-family="sans-serif" font-size="11" lengthAdjust="spacingAndGlyphs" textLength="34" x="1235.5" y="170.7627">View()</text><ellipse cx="1226.5" cy="181.5977" fill="#84BE84" rx="3" ry="3" style="stroke: #038048; stroke-width: 1.0;"/><text fill="#000000" font-family="sans-serif" font-size="11" lengthAdjust="spacingAndGlyphs" textLength="119" x="1235.5" y="184.5986">visit(PlayController): void</text><ellipse cx="1226.5" cy="195.4336" fill="#84BE84" rx="3" ry="3" style="stroke: #038048; stroke-width: 1.0;"/><text fill="#000000" font-family="sans-serif" font-size="11" lengthAdjust="spacingAndGlyphs" textLength="124" x="1235.5" y="198.4346">visit(SaveController): void</text><ellipse cx="1226.5" cy="209.2695" fill="#84BE84" rx="3" ry="3" style="stroke: #038048; stroke-width: 1.0;"/><text fill="#000000" font-family="sans-serif" font-size="11" lengthAdjust="spacingAndGlyphs" textLength="138" x="1235.5" y="212.2705">visit(ResumeController): void</text><ellipse cx="1226.5" cy="223.1055" fill="#84BE84" rx="3" ry="3" style="stroke: #038048; stroke-width: 1.0;"/><text fill="#000000" font-family="sans-serif" font-size="11" lengthAdjust="spacingAndGlyphs" textLength="122" x="1235.5" y="226.1064">visit(StartController): void</text><ellipse cx="1226.5" cy="236.9414" fill="#84BE84" rx="3" ry="3" style="stroke: #038048; stroke-width: 1.0;"/><text fill="#000000" font-family="sans-serif" font-size="11" lengthAdjust="spacingAndGlyphs" textLength="161" x="1235.5" y="239.9424">interact(AcceptorController): void</text><!--class mastermind.utils.WithConsoleView--><rect fill="#FEFECE" filter="url(#f5lmeaf1ebedt)" height="48" id="mastermind.utils.WithConsoleView" style="stroke: #A80036; stroke-width: 1.5;" width="129" x="2147.5" y="129"/><ellipse cx="2162.5" cy="145" fill="#ADD1B2" rx="11" ry="11" style="stroke: #A80036; stroke-width: 1.0;"/><path d="M2165.2656,140.875 Q2165.4219,140.6563 2165.6094,140.5469 Q2165.7969,140.4375 2166.0156,140.4375 Q2166.3906,140.4375 2166.625,140.6953 Q2166.8594,140.9531 2166.8594,141.5625 L2166.8594,143.0156 Q2166.8594,143.625 2166.625,143.8906 Q2166.3906,144.1563 2166.0156,144.1563 Q2165.6719,144.1563 2165.4688,143.9531 Q2165.2656,143.7656 2165.1563,143.25 Q2165.1094,142.8906 2164.9219,142.7031 Q2164.5938,142.3281 2163.9844,142.1094 Q2163.375,141.8906 2162.75,141.8906 Q2161.9844,141.8906 2161.3516,142.2188 Q2160.7188,142.5469 2160.2266,143.2969 Q2159.7344,144.0469 2159.7344,145.0781 L2159.7344,146.1719 Q2159.7344,147.4063 2160.625,148.2266 Q2161.5156,149.0469 2163.1094,149.0469 Q2164.0469,149.0469 2164.7031,148.7969 Q2165.0938,148.6406 2165.5156,148.2031 Q2165.7813,147.9375 2165.9297,147.8594 Q2166.0781,147.7813 2166.2813,147.7813 Q2166.6094,147.7813 2166.8672,148.0391 Q2167.125,148.2969 2167.125,148.6406 Q2167.125,148.9844 2166.7813,149.3906 Q2166.2813,149.9688 2165.4844,150.2969 Q2164.4063,150.75 2163.1094,150.75 Q2161.5938,150.75 2160.3906,150.125 Q2159.4063,149.625 2158.7188,148.5547 Q2158.0313,147.4844 2158.0313,146.2031 L2158.0313,145.0469 Q2158.0313,143.7188 2158.6484,142.5703 Q2159.2656,141.4219 2160.3594,140.8047 Q2161.4531,140.1875 2162.6875,140.1875 Q2163.4219,140.1875 2164.0703,140.3516 Q2164.7188,140.5156 2165.2656,140.875 Z "/><text fill="#000000" font-family="sans-serif" font-size="12" lengthAdjust="spacingAndGlyphs" textLength="97" x="2176.5" y="149.9102">WithConsoleView</text><line style="stroke: #A80036; stroke-width: 1.5;" x1="2148.5" x2="2275.5" y1="161" y2="161"/><line style="stroke: #A80036; stroke-width: 1.5;" x1="2148.5" x2="2275.5" y1="169" y2="169"/><!--class mastermind.controllers.GameController--><rect fill="#FEFECE" filter="url(#f5lmeaf1ebedt)" height="48" id="mastermind.controllers.GameController" style="stroke: #A80036; stroke-width: 1.5;" width="120" x="977" y="640.5"/><ellipse cx="992" cy="656.5" fill="#ADD1B2" rx="11" ry="11" style="stroke: #A80036; stroke-width: 1.0;"/><path d="M994.7656,652.375 Q994.9219,652.1563 995.1094,652.0469 Q995.2969,651.9375 995.5156,651.9375 Q995.8906,651.9375 996.125,652.1953 Q996.3594,652.4531 996.3594,653.0625 L996.3594,654.5156 Q996.3594,655.125 996.125,655.3906 Q995.8906,655.6563 995.5156,655.6563 Q995.1719,655.6563 994.9688,655.4531 Q994.7656,655.2656 994.6563,654.75 Q994.6094,654.3906 994.4219,654.2031 Q994.0938,653.8281 993.4844,653.6094 Q992.875,653.3906 992.25,653.3906 Q991.4844,653.3906 990.8516,653.7188 Q990.2188,654.0469 989.7266,654.7969 Q989.2344,655.5469 989.2344,656.5781 L989.2344,657.6719 Q989.2344,658.9063 990.125,659.7266 Q991.0156,660.5469 992.6094,660.5469 Q993.5469,660.5469 994.2031,660.2969 Q994.5938,660.1406 995.0156,659.7031 Q995.2813,659.4375 995.4297,659.3594 Q995.5781,659.2813 995.7813,659.2813 Q996.1094,659.2813 996.3672,659.5391 Q996.625,659.7969 996.625,660.1406 Q996.625,660.4844 996.2813,660.8906 Q995.7813,661.4688 994.9844,661.7969 Q993.9063,662.25 992.6094,662.25 Q991.0938,662.25 989.8906,661.625 Q988.9063,661.125 988.2188,660.0547 Q987.5313,658.9844 987.5313,657.7031 L987.5313,656.5469 Q987.5313,655.2188 988.1484,654.0703 Q988.7656,652.9219 989.8594,652.3047 Q990.9531,651.6875 992.1875,651.6875 Q992.9219,651.6875 993.5703,651.8516 Q994.2188,652.0156 994.7656,652.375 Z "/><text fill="#000000" font-family="sans-serif" font-size="12" lengthAdjust="spacingAndGlyphs" textLength="88" x="1006" y="661.4102">GameController</text><line style="stroke: #A80036; stroke-width: 1.5;" x1="978" x2="1096" y1="672.5" y2="672.5"/><line style="stroke: #A80036; stroke-width: 1.5;" x1="978" x2="1096" y1="680.5" y2="680.5"/><!--class mastermind.controllers.PlayController--><rect fill="#FEFECE" filter="url(#f5lmeaf1ebedt)" height="48" id="mastermind.controllers.PlayController" style="stroke: #A80036; stroke-width: 1.5;" width="109" x="514.5" y="640.5"/><ellipse cx="529.5" cy="656.5" fill="#ADD1B2" rx="11" ry="11" style="stroke: #A80036; stroke-width: 1.0;"/><path d="M532.2656,652.375 Q532.4219,652.1563 532.6094,652.0469 Q532.7969,651.9375 533.0156,651.9375 Q533.3906,651.9375 533.625,652.1953 Q533.8594,652.4531 533.8594,653.0625 L533.8594,654.5156 Q533.8594,655.125 533.625,655.3906 Q533.3906,655.6563 533.0156,655.6563 Q532.6719,655.6563 532.4688,655.4531 Q532.2656,655.2656 532.1563,654.75 Q532.1094,654.3906 531.9219,654.2031 Q531.5938,653.8281 530.9844,653.6094 Q530.375,653.3906 529.75,653.3906 Q528.9844,653.3906 528.3516,653.7188 Q527.7188,654.0469 527.2266,654.7969 Q526.7344,655.5469 526.7344,656.5781 L526.7344,657.6719 Q526.7344,658.9063 527.625,659.7266 Q528.5156,660.5469 530.1094,660.5469 Q531.0469,660.5469 531.7031,660.2969 Q532.0938,660.1406 532.5156,659.7031 Q532.7813,659.4375 532.9297,659.3594 Q533.0781,659.2813 533.2813,659.2813 Q533.6094,659.2813 533.8672,659.5391 Q534.125,659.7969 534.125,660.1406 Q534.125,660.4844 533.7813,660.8906 Q533.2813,661.4688 532.4844,661.7969 Q531.4063,662.25 530.1094,662.25 Q528.5938,662.25 527.3906,661.625 Q526.4063,661.125 525.7188,660.0547 Q525.0313,658.9844 525.0313,657.7031 L525.0313,656.5469 Q525.0313,655.2188 525.6484,654.0703 Q526.2656,652.9219 527.3594,652.3047 Q528.4531,651.6875 529.6875,651.6875 Q530.4219,651.6875 531.0703,651.8516 Q531.7188,652.0156 532.2656,652.375 Z "/><text fill="#000000" font-family="sans-serif" font-size="12" lengthAdjust="spacingAndGlyphs" textLength="77" x="543.5" y="661.4102">PlayController</text><line style="stroke: #A80036; stroke-width: 1.5;" x1="515.5" x2="622.5" y1="672.5" y2="672.5"/><line style="stroke: #A80036; stroke-width: 1.5;" x1="515.5" x2="622.5" y1="680.5" y2="680.5"/><!--class mastermind.controllers.ResumeController--><rect fill="#FEFECE" filter="url(#f5lmeaf1ebedt)" height="48" id="mastermind.controllers.ResumeController" style="stroke: #A80036; stroke-width: 1.5;" width="134" x="659" y="640.5"/><ellipse cx="674" cy="656.5" fill="#ADD1B2" rx="11" ry="11" style="stroke: #A80036; stroke-width: 1.0;"/><path d="M676.7656,652.375 Q676.9219,652.1563 677.1094,652.0469 Q677.2969,651.9375 677.5156,651.9375 Q677.8906,651.9375 678.125,652.1953 Q678.3594,652.4531 678.3594,653.0625 L678.3594,654.5156 Q678.3594,655.125 678.125,655.3906 Q677.8906,655.6563 677.5156,655.6563 Q677.1719,655.6563 676.9688,655.4531 Q676.7656,655.2656 676.6563,654.75 Q676.6094,654.3906 676.4219,654.2031 Q676.0938,653.8281 675.4844,653.6094 Q674.875,653.3906 674.25,653.3906 Q673.4844,653.3906 672.8516,653.7188 Q672.2188,654.0469 671.7266,654.7969 Q671.2344,655.5469 671.2344,656.5781 L671.2344,657.6719 Q671.2344,658.9063 672.125,659.7266 Q673.0156,660.5469 674.6094,660.5469 Q675.5469,660.5469 676.2031,660.2969 Q676.5938,660.1406 677.0156,659.7031 Q677.2813,659.4375 677.4297,659.3594 Q677.5781,659.2813 677.7813,659.2813 Q678.1094,659.2813 678.3672,659.5391 Q678.625,659.7969 678.625,660.1406 Q678.625,660.4844 678.2813,660.8906 Q677.7813,661.4688 676.9844,661.7969 Q675.9063,662.25 674.6094,662.25 Q673.0938,662.25 671.8906,661.625 Q670.9063,661.125 670.2188,660.0547 Q669.5313,658.9844 669.5313,657.7031 L669.5313,656.5469 Q669.5313,655.2188 670.1484,654.0703 Q670.7656,652.9219 671.8594,652.3047 Q672.9531,651.6875 674.1875,651.6875 Q674.9219,651.6875 675.5703,651.8516 Q676.2188,652.0156 676.7656,652.375 Z "/><text fill="#000000" font-family="sans-serif" font-size="12" lengthAdjust="spacingAndGlyphs" textLength="102" x="688" y="661.4102">ResumeController</text><line style="stroke: #A80036; stroke-width: 1.5;" x1="660" x2="792" y1="672.5" y2="672.5"/><line style="stroke: #A80036; stroke-width: 1.5;" x1="660" x2="792" y1="680.5" y2="680.5"/><!--class mastermind.controllers.SaveController--><rect fill="#FEFECE" filter="url(#f5lmeaf1ebedt)" height="48" id="mastermind.controllers.SaveController" style="stroke: #A80036; stroke-width: 1.5;" width="113" x="828.5" y="640.5"/><ellipse cx="843.5" cy="656.5" fill="#ADD1B2" rx="11" ry="11" style="stroke: #A80036; stroke-width: 1.0;"/><path d="M846.2656,652.375 Q846.4219,652.1563 846.6094,652.0469 Q846.7969,651.9375 847.0156,651.9375 Q847.3906,651.9375 847.625,652.1953 Q847.8594,652.4531 847.8594,653.0625 L847.8594,654.5156 Q847.8594,655.125 847.625,655.3906 Q847.3906,655.6563 847.0156,655.6563 Q846.6719,655.6563 846.4688,655.4531 Q846.2656,655.2656 846.1563,654.75 Q846.1094,654.3906 845.9219,654.2031 Q845.5938,653.8281 844.9844,653.6094 Q844.375,653.3906 843.75,653.3906 Q842.9844,653.3906 842.3516,653.7188 Q841.7188,654.0469 841.2266,654.7969 Q840.7344,655.5469 840.7344,656.5781 L840.7344,657.6719 Q840.7344,658.9063 841.625,659.7266 Q842.5156,660.5469 844.1094,660.5469 Q845.0469,660.5469 845.7031,660.2969 Q846.0938,660.1406 846.5156,659.7031 Q846.7813,659.4375 846.9297,659.3594 Q847.0781,659.2813 847.2813,659.2813 Q847.6094,659.2813 847.8672,659.5391 Q848.125,659.7969 848.125,660.1406 Q848.125,660.4844 847.7813,660.8906 Q847.2813,661.4688 846.4844,661.7969 Q845.4063,662.25 844.1094,662.25 Q842.5938,662.25 841.3906,661.625 Q840.4063,661.125 839.7188,660.0547 Q839.0313,658.9844 839.0313,657.7031 L839.0313,656.5469 Q839.0313,655.2188 839.6484,654.0703 Q840.2656,652.9219 841.3594,652.3047 Q842.4531,651.6875 843.6875,651.6875 Q844.4219,651.6875 845.0703,651.8516 Q845.7188,652.0156 846.2656,652.375 Z "/><text fill="#000000" font-family="sans-serif" font-size="12" lengthAdjust="spacingAndGlyphs" textLength="81" x="857.5" y="661.4102">SaveController</text><line style="stroke: #A80036; stroke-width: 1.5;" x1="829.5" x2="940.5" y1="672.5" y2="672.5"/><line style="stroke: #A80036; stroke-width: 1.5;" x1="829.5" x2="940.5" y1="680.5" y2="680.5"/><!--class mastermind.controllers.StartController--><rect fill="#FEFECE" filter="url(#f5lmeaf1ebedt)" height="48" id="mastermind.controllers.StartController" style="stroke: #A80036; stroke-width: 1.5;" width="111" x="368.5" y="640.5"/><ellipse cx="383.5" cy="656.5" fill="#ADD1B2" rx="11" ry="11" style="stroke: #A80036; stroke-width: 1.0;"/><path d="M386.2656,652.375 Q386.4219,652.1563 386.6094,652.0469 Q386.7969,651.9375 387.0156,651.9375 Q387.3906,651.9375 387.625,652.1953 Q387.8594,652.4531 387.8594,653.0625 L387.8594,654.5156 Q387.8594,655.125 387.625,655.3906 Q387.3906,655.6563 387.0156,655.6563 Q386.6719,655.6563 386.4688,655.4531 Q386.2656,655.2656 386.1563,654.75 Q386.1094,654.3906 385.9219,654.2031 Q385.5938,653.8281 384.9844,653.6094 Q384.375,653.3906 383.75,653.3906 Q382.9844,653.3906 382.3516,653.7188 Q381.7188,654.0469 381.2266,654.7969 Q380.7344,655.5469 380.7344,656.5781 L380.7344,657.6719 Q380.7344,658.9063 381.625,659.7266 Q382.5156,660.5469 384.1094,660.5469 Q385.0469,660.5469 385.7031,660.2969 Q386.0938,660.1406 386.5156,659.7031 Q386.7813,659.4375 386.9297,659.3594 Q387.0781,659.2813 387.2813,659.2813 Q387.6094,659.2813 387.8672,659.5391 Q388.125,659.7969 388.125,660.1406 Q388.125,660.4844 387.7813,660.8906 Q387.2813,661.4688 386.4844,661.7969 Q385.4063,662.25 384.1094,662.25 Q382.5938,662.25 381.3906,661.625 Q380.4063,661.125 379.7188,660.0547 Q379.0313,658.9844 379.0313,657.7031 L379.0313,656.5469 Q379.0313,655.2188 379.6484,654.0703 Q380.2656,652.9219 381.3594,652.3047 Q382.4531,651.6875 383.6875,651.6875 Q384.4219,651.6875 385.0703,651.8516 Q385.7188,652.0156 386.2656,652.375 Z "/><text fill="#000000" font-family="sans-serif" font-size="12" lengthAdjust="spacingAndGlyphs" textLength="79" x="397.5" y="661.4102">StartController</text><line style="stroke: #A80036; stroke-width: 1.5;" x1="369.5" x2="478.5" y1="672.5" y2="672.5"/><line style="stroke: #A80036; stroke-width: 1.5;" x1="369.5" x2="478.5" y1="680.5" y2="680.5"/><!--class mastermind.controllers.ControllersVisitor--><rect fill="#FEFECE" filter="url(#f5lmeaf1ebedt)" height="48" id="mastermind.controllers.ControllersVisitor" style="stroke: #A80036; stroke-width: 1.5;" width="127" x="206.5" y="640.5"/><ellipse cx="221.5" cy="656.5" fill="#ADD1B2" rx="11" ry="11" style="stroke: #A80036; stroke-width: 1.0;"/><path d="M224.2656,652.375 Q224.4219,652.1563 224.6094,652.0469 Q224.7969,651.9375 225.0156,651.9375 Q225.3906,651.9375 225.625,652.1953 Q225.8594,652.4531 225.8594,653.0625 L225.8594,654.5156 Q225.8594,655.125 225.625,655.3906 Q225.3906,655.6563 225.0156,655.6563 Q224.6719,655.6563 224.4688,655.4531 Q224.2656,655.2656 224.1563,654.75 Q224.1094,654.3906 223.9219,654.2031 Q223.5938,653.8281 222.9844,653.6094 Q222.375,653.3906 221.75,653.3906 Q220.9844,653.3906 220.3516,653.7188 Q219.7188,654.0469 219.2266,654.7969 Q218.7344,655.5469 218.7344,656.5781 L218.7344,657.6719 Q218.7344,658.9063 219.625,659.7266 Q220.5156,660.5469 222.1094,660.5469 Q223.0469,660.5469 223.7031,660.2969 Q224.0938,660.1406 224.5156,659.7031 Q224.7813,659.4375 224.9297,659.3594 Q225.0781,659.2813 225.2813,659.2813 Q225.6094,659.2813 225.8672,659.5391 Q226.125,659.7969 226.125,660.1406 Q226.125,660.4844 225.7813,660.8906 Q225.2813,661.4688 224.4844,661.7969 Q223.4063,662.25 222.1094,662.25 Q220.5938,662.25 219.3906,661.625 Q218.4063,661.125 217.7188,660.0547 Q217.0313,658.9844 217.0313,657.7031 L217.0313,656.5469 Q217.0313,655.2188 217.6484,654.0703 Q218.2656,652.9219 219.3594,652.3047 Q220.4531,651.6875 221.6875,651.6875 Q222.4219,651.6875 223.0703,651.8516 Q223.7188,652.0156 224.2656,652.375 Z "/><text fill="#000000" font-family="sans-serif" font-size="12" lengthAdjust="spacingAndGlyphs" textLength="95" x="235.5" y="661.4102">ControllersVisitor</text><line style="stroke: #A80036; stroke-width: 1.5;" x1="207.5" x2="332.5" y1="672.5" y2="672.5"/><line style="stroke: #A80036; stroke-width: 1.5;" x1="207.5" x2="332.5" y1="680.5" y2="680.5"/><!--class mastermind.controllers.AcceptorController--><rect fill="#FEFECE" filter="url(#f5lmeaf1ebedt)" height="48" id="mastermind.controllers.AcceptorController" style="stroke: #A80036; stroke-width: 1.5;" width="133" x="38.5" y="640.5"/><ellipse cx="53.5" cy="656.5" fill="#ADD1B2" rx="11" ry="11" style="stroke: #A80036; stroke-width: 1.0;"/><path d="M56.2656,652.375 Q56.4219,652.1563 56.6094,652.0469 Q56.7969,651.9375 57.0156,651.9375 Q57.3906,651.9375 57.625,652.1953 Q57.8594,652.4531 57.8594,653.0625 L57.8594,654.5156 Q57.8594,655.125 57.625,655.3906 Q57.3906,655.6563 57.0156,655.6563 Q56.6719,655.6563 56.4688,655.4531 Q56.2656,655.2656 56.1563,654.75 Q56.1094,654.3906 55.9219,654.2031 Q55.5938,653.8281 54.9844,653.6094 Q54.375,653.3906 53.75,653.3906 Q52.9844,653.3906 52.3516,653.7188 Q51.7188,654.0469 51.2266,654.7969 Q50.7344,655.5469 50.7344,656.5781 L50.7344,657.6719 Q50.7344,658.9063 51.625,659.7266 Q52.5156,660.5469 54.1094,660.5469 Q55.0469,660.5469 55.7031,660.2969 Q56.0938,660.1406 56.5156,659.7031 Q56.7813,659.4375 56.9297,659.3594 Q57.0781,659.2813 57.2813,659.2813 Q57.6094,659.2813 57.8672,659.5391 Q58.125,659.7969 58.125,660.1406 Q58.125,660.4844 57.7813,660.8906 Q57.2813,661.4688 56.4844,661.7969 Q55.4063,662.25 54.1094,662.25 Q52.5938,662.25 51.3906,661.625 Q50.4063,661.125 49.7188,660.0547 Q49.0313,658.9844 49.0313,657.7031 L49.0313,656.5469 Q49.0313,655.2188 49.6484,654.0703 Q50.2656,652.9219 51.3594,652.3047 Q52.4531,651.6875 53.6875,651.6875 Q54.4219,651.6875 55.0703,651.8516 Q55.7188,652.0156 56.2656,652.375 Z "/><text fill="#000000" font-family="sans-serif" font-size="12" lengthAdjust="spacingAndGlyphs" textLength="101" x="67.5" y="661.4102">AcceptorController</text><line style="stroke: #A80036; stroke-width: 1.5;" x1="39.5" x2="170.5" y1="672.5" y2="672.5"/><line style="stroke: #A80036; stroke-width: 1.5;" x1="39.5" x2="170.5" y1="680.5" y2="680.5"/><!--link mastermind.views.Color to mastermind.views.Color--><path d="M1951.68,910.221 C1971.42,912.939 1986.5,931.699 1986.5,966.5 C1986.5,998.31 1973.9,1016.718 1956.65,1021.723 " fill="none" id="mastermind.views.Color-mastermind.views.Color" style="stroke: #A80036; stroke-width: 1.0; stroke-dasharray: 7.0,7.0;"/><polygon fill="#A80036" points="1951.68,1022.779,1961.3162,1024.8144,1956.5701,1021.7364,1959.6481,1016.9903,1951.68,1022.779" style="stroke: #A80036; stroke-width: 1.0;"/><!--link mastermind.views.Error to mastermind.views.Error--><path d="M2073.19,632.189 C2093.24,634.909 2108,645.68 2108,664.5 C2108,681.703 2095.67,692.18 2078.24,695.931 " fill="none" id="mastermind.views.Error-mastermind.views.Error" style="stroke: #A80036; stroke-width: 1.0; stroke-dasharray: 7.0,7.0;"/><polygon fill="#A80036" points="2073.19,696.811,2082.7425,699.2088,2078.116,695.9538,2081.371,691.3273,2073.19,696.811" style="stroke: #A80036; stroke-width: 1.0;"/><!--link mastermind.views.Error to mastermind.views.Color--><path d="M1961.37,737.357 C1949.63,770.288 1935.39,810.189 1922.14,847.356 " fill="none" id="mastermind.views.Error-mastermind.views.Color" style="stroke: #A80036; stroke-width: 1.0; stroke-dasharray: 7.0,7.0;"/><polygon fill="#A80036" points="1920.36,852.344,1927.1491,845.209,1922.0384,847.6341,1919.6133,842.5235,1920.36,852.344" style="stroke: #A80036; stroke-width: 1.0;"/><!--link mastermind.utils.WithConsoleView to mastermind.views.GameView--><path d="M2172.47,191.065 C2153.26,208.434 2129.51,228.997 2107,246 C2053.28,286.569 1898.86,384.308 1807.05,441.765 " fill="none" id="mastermind.utils.WithConsoleView-mastermind.views.GameView" style="stroke: #A80036; stroke-width: 1.0;"/><polygon fill="none" points="2167.93,185.728,2187.41,177.375,2177.39,196.049,2167.93,185.728" style="stroke: #A80036; stroke-width: 1.0;"/><!--link mastermind.views.GameView to mastermind.controllers.GameController--><path d="M1633.97,521.447 C1619.96,525.37 1605.69,529.027 1592,532 C1392.67,575.284 1326.73,517.116 1137,592 C1113.44,601.301 1090.22,617.349 1072.1,631.888 " fill="none" id="mastermind.views.GameView-mastermind.controllers.GameController" style="stroke: #A80036; stroke-width: 1.0;"/><polygon fill="#A80036" points="1062.06,640.211,1071.5436,637.5536,1065.9117,637.0228,1066.4425,631.3909,1062.06,640.211" style="stroke: #A80036; stroke-width: 1.0;"/><line style="stroke: #A80036; stroke-width: 1.0;" x1="1065.9117" x2="1072.07" y1="637.0228" y2="631.9165"/><polygon fill="#A80036" points="1646.73,517.78,1639.8595,515.5901,1635.1955,521.0899,1642.066,523.2798,1646.73,517.78" style="stroke: #A80036; stroke-width: 1.0;"/><!--link mastermind.views.GameView to mastermind.views.SecretCombinationView--><path d="M1683.64,541.737 C1660.28,565.709 1633.02,593.689 1610.52,616.778 " fill="none" id="mastermind.views.GameView-mastermind.views.SecretCombinationView" style="stroke: #A80036; stroke-width: 1.0;"/><polygon fill="#A80036" points="1601.2,626.348,1610.3449,622.6914,1604.6885,622.7661,1604.6138,617.1097,1601.2,626.348" style="stroke: #A80036; stroke-width: 1.0;"/><line style="stroke: #A80036; stroke-width: 1.0;" x1="1604.6885" x2="1610.27" y1="622.7661" y2="617.037"/><polygon fill="#A80036" points="1692.85,532.286,1685.7982,533.7935,1684.4775,540.8826,1691.5293,539.3751,1692.85,532.286" style="stroke: #A80036; stroke-width: 1.0;"/><!--link mastermind.views.GameView to mastermind.views.ProposedCombinationView--><path d="M1748.36,545.076 C1752.15,562.608 1756.36,582.009 1760.24,599.946 " fill="none" id="mastermind.views.GameView-mastermind.views.ProposedCombinationView" style="stroke: #A80036; stroke-width: 1.0;"/><polygon fill="#A80036" points="1763,612.701,1765.0059,603.0586,1761.9425,607.8141,1757.1869,604.7506,1763,612.701" style="stroke: #A80036; stroke-width: 1.0;"/><line style="stroke: #A80036; stroke-width: 1.0;" x1="1761.9425" x2="1760.25" y1="607.8141" y2="599.996"/><polygon fill="#A80036" points="1745.59,532.286,1742.9495,538.9963,1748.1281,544.0145,1750.7686,537.3042,1745.59,532.286" style="stroke: #A80036; stroke-width: 1.0;"/><!--link mastermind.views.GameView to mastermind.views.ResultView--><path d="M1634.15,526.813 C1558.11,555.835 1466.97,590.728 1465,592 C1454.02,599.104 1443.35,608.102 1433.74,617.298 " fill="none" id="mastermind.views.GameView-mastermind.views.ResultView" style="stroke: #A80036; stroke-width: 1.0;"/><polygon fill="#A80036" points="1424.5,626.497,1433.6998,622.9808,1428.0429,622.9689,1428.0548,617.3121,1424.5,626.497" style="stroke: #A80036; stroke-width: 1.0;"/><line style="stroke: #A80036; stroke-width: 1.0;" x1="1428.0429" x2="1433.71" y1="622.9689" y2="617.3215"/><polygon fill="#A80036" points="1646.69,522.028,1639.6573,520.4338,1635.4809,526.3123,1642.5135,527.9065,1646.69,522.028" style="stroke: #A80036; stroke-width: 1.0;"/><!--link mastermind.views.GameView to mastermind.views.Message--><path d="M1646.89,523.487 C1637.87,526.568 1628.8,529.47 1620,532 C1489.32,569.573 1411.29,491.228 1320,592 C1293.14,621.652 1283.53,708.803 1280.81,791.466 " fill="none" id="mastermind.views.GameView-mastermind.views.Message" style="stroke: #A80036; stroke-width: 1.0; stroke-dasharray: 7.0,7.0;"/><polygon fill="#A80036" points="1280.64,796.903,1284.9182,788.0319,1280.7956,791.9054,1276.9221,787.7829,1280.64,796.903" style="stroke: #A80036; stroke-width: 1.0;"/><!--link mastermind.views.Message to mastermind.views.Message--><path d="M1386.59,912.302 C1406.99,918.499 1421.5,936.565 1421.5,966.5 C1421.5,993.862 1409.37,1011.308 1391.71,1018.837 " fill="none" id="mastermind.views.Message-mastermind.views.Message" style="stroke: #A80036; stroke-width: 1.0; stroke-dasharray: 7.0,7.0;"/><polygon fill="#A80036" points="1386.59,1020.698,1396.4158,1021.3719,1391.2873,1018.9847,1393.6745,1013.8562,1386.59,1020.698" style="stroke: #A80036; stroke-width: 1.0;"/><!--link mastermind.utils.WithConsoleView to mastermind.views.PlayView--><path d="M2178.5,191.647 C2159.41,210.8 2133.95,232.77 2107,246 C2097.67,250.579 1830.37,301.53 1692.13,327.691 " fill="none" id="mastermind.utils.WithConsoleView-mastermind.views.PlayView" style="stroke: #A80036; stroke-width: 1.0;"/><polygon fill="none" points="2173.49,186.757,2192.36,177.112,2183.63,196.418,2173.49,186.757" style="stroke: #A80036; stroke-width: 1.0;"/><!--link mastermind.views.PlayView to mastermind.controllers.PlayController--><path d="M1529.78,367.305 C1509.97,372.43 1488.78,377.648 1469,382 C1098.22,463.584 967.006,397.435 641,592 C621.78,603.471 603.903,621.167 590.77,636.084 " fill="none" id="mastermind.views.PlayView-mastermind.controllers.PlayController" style="stroke: #A80036; stroke-width: 1.0; stroke-dasharray: 7.0,7.0;"/><polygon fill="#A80036" points="587.195,640.211,596.1118,636.0289,590.4694,636.4323,590.0659,630.7899,587.195,640.211" style="stroke: #A80036; stroke-width: 1.0;"/><!--link mastermind.views.PlayView to mastermind.views.GameView--><path d="M1643.84,382.046 C1658.97,399.114 1677.12,419.587 1693.3,437.834 " fill="none" id="mastermind.views.PlayView-mastermind.views.GameView" style="stroke: #A80036; stroke-width: 1.0; stroke-dasharray: 7.0,7.0;"/><polygon fill="#A80036" points="1696.93,441.934,1693.9542,432.5455,1693.6137,438.1921,1687.9671,437.8516,1696.93,441.934" style="stroke: #A80036; stroke-width: 1.0;"/><!--link mastermind.views.PlayView to mastermind.views.Message--><path d="M1619,382.147 C1625.67,424.085 1628.93,491.707 1592,532 C1495.7,637.06 1367.86,482.201 1277,592 C1251.69,622.587 1251.96,709.351 1259.14,791.56 " fill="none" id="mastermind.views.PlayView-mastermind.views.Message" style="stroke: #A80036; stroke-width: 1.0; stroke-dasharray: 7.0,7.0;"/><polygon fill="#A80036" points="1259.62,796.968,1262.8054,787.6485,1259.1762,791.9877,1254.8369,788.3586,1259.62,796.968" style="stroke: #A80036; stroke-width: 1.0;"/><!--link mastermind.utils.WithConsoleView to mastermind.views.ProposedCombinationView--><path d="M2218.95,197.313 C2228.8,275.298 2236.98,439.776 2150,532 C2066.55,620.48 1994.99,544.547 1883,592 C1869.56,597.695 1855.97,605.06 1843.17,612.89 " fill="none" id="mastermind.utils.WithConsoleView-mastermind.views.ProposedCombinationView" style="stroke: #A80036; stroke-width: 1.0;"/><polygon fill="none" points="2211.99,198.1,2216.14,177.321,2225.86,196.152,2211.99,198.1" style="stroke: #A80036; stroke-width: 1.0;"/><!--link mastermind.views.ProposedCombinationView to mastermind.views.Color--><path d="M1791.86,716.052 C1804.56,751.981 1822.15,801.764 1838.28,847.413 " fill="none" id="mastermind.views.ProposedCombinationView-mastermind.views.Color" style="stroke: #A80036; stroke-width: 1.0; stroke-dasharray: 7.0,7.0;"/><polygon fill="#A80036" points="1840.03,852.386,1840.8032,842.5675,1838.3643,847.6716,1833.2602,845.2327,1840.03,852.386" style="stroke: #A80036; stroke-width: 1.0;"/><!--link mastermind.views.ProposedCombinationView to mastermind.views.Message--><path d="M1697,716.052 C1685.96,723.15 1674.72,730.303 1664,737 C1572.76,793.987 1467.85,856.703 1391.25,901.99 " fill="none" id="mastermind.views.ProposedCombinationView-mastermind.views.Message" style="stroke: #A80036; stroke-width: 1.0; stroke-dasharray: 7.0,7.0;"/><polygon fill="#A80036" points="1386.7,904.676,1396.4834,903.5421,1391.0049,902.1328,1392.4142,896.6543,1386.7,904.676" style="stroke: #A80036; stroke-width: 1.0;"/><!--link mastermind.utils.WithConsoleView to mastermind.views.ResultView--><path d="M2186.15,194.055 C2132.6,273.352 2001.15,449.757 1842,532 C1691.27,609.89 1616.28,515.181 1465,592 C1448.82,600.215 1434.01,613.395 1422.08,626.213 " fill="none" id="mastermind.utils.WithConsoleView-mastermind.views.ResultView" style="stroke: #A80036; stroke-width: 1.0;"/><polygon fill="none" points="2180.47,189.958,2197.37,177.168,2192.13,197.702,2180.47,189.958" style="stroke: #A80036; stroke-width: 1.0;"/><!--link mastermind.views.ResultView to mastermind.views.Message--><path d="M1379.4,702.587 C1370.83,725.971 1359.07,758.045 1346.7,791.761 " fill="none" id="mastermind.views.ResultView-mastermind.views.Message" style="stroke: #A80036; stroke-width: 1.0; stroke-dasharray: 7.0,7.0;"/><polygon fill="#A80036" points="1344.88,796.746,1351.7294,789.6688,1346.5983,792.0505,1344.2166,786.9195,1344.88,796.746" style="stroke: #A80036; stroke-width: 1.0;"/><!--link mastermind.views.ResumeView to mastermind.controllers.ResumeController--><path d="M1153.16,497.444 C1062.52,509.647 921.251,536.338 811,592 C788.783,603.217 767.363,621.296 751.584,636.468 " fill="none" id="mastermind.views.ResumeView-mastermind.controllers.ResumeController" style="stroke: #A80036; stroke-width: 1.0; stroke-dasharray: 7.0,7.0;"/><polygon fill="#A80036" points="747.696,640.257,756.934,636.8425,751.2777,636.7682,751.352,631.1118,747.696,640.257" style="stroke: #A80036; stroke-width: 1.0;"/><!--link mastermind.views.ResumeView to mastermind.views.Message--><path d="M1215.12,525.234 C1202.27,544.122 1188.59,568.086 1182,592 C1164.89,654.13 1168.69,673.946 1182,737 C1185.83,755.134 1191.19,773.581 1197.48,791.731 " fill="none" id="mastermind.views.ResumeView-mastermind.views.Message" style="stroke: #A80036; stroke-width: 1.0; stroke-dasharray: 7.0,7.0;"/><polygon fill="#A80036" points="1199.27,796.842,1200.059,787.0248,1197.6119,792.1249,1192.5117,789.6778,1199.27,796.842" style="stroke: #A80036; stroke-width: 1.0;"/><!--link mastermind.utils.WithConsoleView to mastermind.views.SaveView--><path d="M2177.03,191.768 C2157.92,210.435 2132.92,231.92 2107,246 C2020.95,292.745 1987.07,272.655 1895,306 C1777.32,348.62 1645.71,409.94 1565.62,448.868 " fill="none" id="mastermind.utils.WithConsoleView-mastermind.views.SaveView" style="stroke: #A80036; stroke-width: 1.0;"/><polygon fill="none" points="2172.26,186.631,2191.28,177.287,2182.24,196.451,2172.26,186.631" style="stroke: #A80036; stroke-width: 1.0;"/><!--link mastermind.views.SaveView to mastermind.controllers.SaveController--><path d="M1407.42,516.762 C1389.29,522.351 1370.12,527.776 1352,532 C1179.92,572.115 1117.34,513.581 959,592 C938.044,602.379 919.17,620.839 905.729,636.402 " fill="none" id="mastermind.views.SaveView-mastermind.controllers.SaveController" style="stroke: #A80036; stroke-width: 1.0; stroke-dasharray: 7.0,7.0;"/><polygon fill="#A80036" points="902.43,640.29,911.3031,636.0158,905.6651,636.4776,905.2033,630.8397,902.43,640.29" style="stroke: #A80036; stroke-width: 1.0;"/><!--link mastermind.views.SaveView to mastermind.views.Message--><path d="M1407.47,522.437 C1341.8,549.912 1260.6,584.931 1256,592 C1218.23,650.013 1216.55,724.381 1227.48,791.463 " fill="none" id="mastermind.views.SaveView-mastermind.views.Message" style="stroke: #A80036; stroke-width: 1.0; stroke-dasharray: 7.0,7.0;"/><polygon fill="#A80036" points="1228.35,796.69,1230.7999,787.1507,1227.5197,791.7594,1222.9109,788.4792,1228.35,796.69" style="stroke: #A80036; stroke-width: 1.0;"/><!--link mastermind.utils.WithConsoleView to mastermind.views.SecretCombinationView--><path d="M2209.81,197.25 C2203.28,277.135 2177.18,447.375 2073,532 C1930.74,647.563 1834.98,523.444 1665,592 C1644.61,600.222 1624.44,613.403 1607.62,626.221 " fill="none" id="mastermind.utils.WithConsoleView-mastermind.views.SecretCombinationView" style="stroke: #A80036; stroke-width: 1.0;"/><polygon fill="none" points="2202.83,196.733,2211.19,177.26,2216.8,197.693,2202.83,196.733" style="stroke: #A80036; stroke-width: 1.0;"/><!--link mastermind.views.SecretCombinationView to mastermind.views.Message--><path d="M1530.14,702.587 C1495.24,739.712 1439.75,798.741 1390.19,851.468 " fill="none" id="mastermind.views.SecretCombinationView-mastermind.views.Message" style="stroke: #A80036; stroke-width: 1.0; stroke-dasharray: 7.0,7.0;"/><polygon fill="#A80036" points="1386.63,855.253,1395.7095,851.4369,1390.0553,851.6106,1389.8816,845.9564,1386.63,855.253" style="stroke: #A80036; stroke-width: 1.0;"/><!--link mastermind.utils.WithConsoleView to mastermind.views.StartView--><path d="M2179.33,192.284 C2160.34,211.823 2134.71,233.955 2107,246 C1863.24,351.945 1773.64,259.242 1512,306 C1492.31,309.519 1471.34,314.328 1451.71,319.315 " fill="none" id="mastermind.utils.WithConsoleView-mastermind.views.StartView" style="stroke: #A80036; stroke-width: 1.0;"/><polygon fill="none" points="2174.35,187.361,2193.06,177.413,2184.64,196.857,2174.35,187.361" style="stroke: #A80036; stroke-width: 1.0;"/><!--link mastermind.views.StartView to mastermind.controllers.StartController--><path d="M1286.47,352.03 C1175.54,363.101 973.181,389.032 808,442 C661.87,488.859 622.588,503.81 497,592 C478.952,604.673 461.219,621.898 447.75,636.266 " fill="none" id="mastermind.views.StartView-mastermind.controllers.StartController" style="stroke: #A80036; stroke-width: 1.0; stroke-dasharray: 7.0,7.0;"/><polygon fill="#A80036" points="444.067,640.237,453.1193,636.3568,447.4665,636.5704,447.2528,630.9176,444.067,640.237" style="stroke: #A80036; stroke-width: 1.0;"/><!--link mastermind.views.StartView to mastermind.views.Message--><path d="M1375.97,382.191 C1381.44,422.925 1383.6,488.268 1352,532 C1312.83,586.211 1250.67,536.07 1214,592 C1178.66,645.894 1204.58,673.247 1214,737 C1216.64,754.893 1220.39,773.326 1224.79,791.596 " fill="none" id="mastermind.views.StartView-mastermind.views.Message" style="stroke: #A80036; stroke-width: 1.0; stroke-dasharray: 7.0,7.0;"/><polygon fill="#A80036" points="1226.05,796.744,1227.8015,787.0521,1224.8642,791.8866,1220.0297,788.9494,1226.05,796.744" style="stroke: #A80036; stroke-width: 1.0;"/><!--link mastermind.controllers.ControllersVisitor to mastermind.views.View--><path d="M309.563,626.441 C322.433,614.974 337.01,602.582 351,592 C449.225,517.703 474.479,498.332 584,442 C802.294,329.722 1074.9,232.064 1215.49,184.606 " fill="none" id="mastermind.controllers.ControllersVisitor-mastermind.views.View" style="stroke: #A80036; stroke-width: 1.0;"/><polygon fill="none" points="313.858,631.997,294.349,640.266,304.443,621.636,313.858,631.997" style="stroke: #A80036; stroke-width: 1.0;"/><!--link mastermind.views.View to mastermind.views.PlayView--><path d="M1414.17,219.817 C1455.97,245.975 1502.94,275.372 1540.51,298.887 " fill="none" id="mastermind.views.View-mastermind.views.PlayView" style="stroke: #A80036; stroke-width: 1.0;"/><polygon fill="#A80036" points="1551.86,305.985,1546.3547,297.8185,1547.6222,303.3315,1542.1091,304.5991,1551.86,305.985" style="stroke: #A80036; stroke-width: 1.0;"/><line style="stroke: #A80036; stroke-width: 1.0;" x1="1547.6222" x2="1540.835" y1="303.3315" y2="299.089"/><polygon fill="#A80036" points="1402.9,212.765,1405.8688,219.3366,1413.0767,219.1238,1410.108,212.5522,1402.9,212.765" style="stroke: #A80036; stroke-width: 1.0;"/><!--link mastermind.views.View to mastermind.views.StartView--><path d="M1342.15,258.427 C1345.99,270.509 1349.75,282.372 1353.19,293.214 " fill="none" id="mastermind.views.View-mastermind.views.StartView" style="stroke: #A80036; stroke-width: 1.0;"/><polygon fill="#A80036" points="1357.22,305.879,1358.3086,296.0905,1355.7068,301.1135,1350.6838,298.5116,1357.22,305.879" style="stroke: #A80036; stroke-width: 1.0;"/><line style="stroke: #A80036; stroke-width: 1.0;" x1="1355.7068" x2="1353.285" y1="301.1135" y2="293.4885"/><polygon fill="#A80036" points="1338.21,246.009,1336.2142,252.9384,1341.8429,257.4459,1343.8387,250.5165,1338.21,246.009" style="stroke: #A80036; stroke-width: 1.0;"/><!--link mastermind.views.View to mastermind.views.SaveView--><path d="M1412.3,231.874 C1434.39,253.471 1455.21,278.6 1469,306 C1489.3,346.323 1493.76,397.947 1493.76,435.561 " fill="none" id="mastermind.views.View-mastermind.views.SaveView" style="stroke: #A80036; stroke-width: 1.0;"/><polygon fill="#A80036" points="1493.57,448.738,1497.6932,439.7938,1493.6387,443.7385,1489.694,439.6839,1493.57,448.738" style="stroke: #A80036; stroke-width: 1.0;"/><line style="stroke: #A80036; stroke-width: 1.0;" x1="1493.6387" x2="1493.75" y1="443.7385" y2="435.7395"/><polygon fill="#A80036" points="1402.77,222.837,1404.3727,229.8677,1411.4791,231.0924,1409.8763,224.0617,1402.77,222.837" style="stroke: #A80036; stroke-width: 1.0;"/><!--link mastermind.views.View to mastermind.views.ResumeView--><path d="M1279.61,259.077 C1275.74,274.737 1272.06,290.741 1269,306 C1260.29,349.478 1253.61,399.47 1249.35,435.719 " fill="none" id="mastermind.views.View-mastermind.views.ResumeView" style="stroke: #A80036; stroke-width: 1.0;"/><polygon fill="#A80036" points="1247.84,448.896,1252.8386,440.4099,1248.4092,443.9285,1244.8906,439.4991,1247.84,448.896" style="stroke: #A80036; stroke-width: 1.0;"/><line style="stroke: #A80036; stroke-width: 1.0;" x1="1248.4092" x2="1249.325" y1="443.9285" y2="435.9815"/><polygon fill="#A80036" points="1282.9,246.027,1277.5539,250.8663,1279.9647,257.6625,1285.3109,252.8232,1282.9,246.027" style="stroke: #A80036; stroke-width: 1.0;"/><!--link mastermind.views.View to mastermind.controllers.AcceptorController--><path d="M1215.37,172.166 C1096.76,196.482 886.952,243.85 714,306 C580.408,354.006 549.373,373.568 425,442 C316.112,501.912 289.006,518.21 189,592 C170.106,605.941 150.042,622.93 134.262,636.848 " fill="none" id="mastermind.views.View-mastermind.controllers.AcceptorController" style="stroke: #A80036; stroke-width: 1.0; stroke-dasharray: 7.0,7.0;"/><polygon fill="#A80036" points="130.346,640.317,139.7358,637.3452,134.0893,637.0023,134.4322,631.3558,130.346,640.317" style="stroke: #A80036; stroke-width: 1.0;"/><!--
@startuml

class  mastermind.views.Color{
+ {static} RED: Color
+ {static} BLUE: Color
+ {static} YELLOW: Color
+ {static} GREEN: Color
+ {static} ORANGE: Color
+ {static} PURPLE: Color
- initial: char
- Color(char)
+ {static} valueOf(String): Color
+ {static} getInstance(char): Color
+ {static} getInstance(int): Color
+ {static} allInitials(): String
~ getInitial(): char
}
mastermind.views.Color ..> mastermind.views.Color

class  mastermind.views.Error{
+ {static} DUPLICATED: Error
+ {static} WRONG_CHARACTERS: Error
+ {static} WRONG_LENGTH: Error
- message: String
- Error(String)
+ {static} valueOf(String): Error
~ getMessage(): String
}
mastermind.views.Error ..> mastermind.views.Error
mastermind.views.Error ..> mastermind.views.Color

class  mastermind.views.GameView{
~ gameController: GameController
~ GameView(GameController)
~ writeln(): void
}
mastermind.utils.WithConsoleView <|-down- mastermind.views.GameView
mastermind.views.GameView *-down-> mastermind.controllers.GameController
mastermind.views.GameView *-down-> mastermind.views.SecretCombinationView
mastermind.views.GameView *-down-> mastermind.views.ProposedCombinationView
mastermind.views.GameView *-down-> mastermind.views.ResultView
mastermind.views.GameView ..> mastermind.views.Message

class  mastermind.views.Message{
+ {static} TURN: Message
+ {static} SECRET: Message
+ {static} RESUME: Message
+ {static} SAVE: Message
+ {static} RESULT: Message
+ {static} PROPOSED_COMBINATION: Message
+ {static} TITLE: Message
+ {static} WINNER: Message
+ {static} LOOSER: Message
+ {static} OPTION: Message
+ {static} PROPOSE_COMMAND: Message
+ {static} UNDO_COMMAND: Message
+ {static} REDO_COMMAND: Message
+ {static} NEWGAME_COMMAND: Message
+ {static} EXIT_COMMAND: Message
+ {static} OPENGAME_COMMAND: Message
+ {static} NAME: Message
- message: String
- Message(String)
+ {static} valueOf(String): Message
+ getMessage(): String
}
mastermind.views.Message ..> mastermind.views.Message

class  mastermind.views.PlayView{
~ PlayView()
~ interact(PlayController): void
}
mastermind.utils.WithConsoleView <|-down- mastermind.views.PlayView
mastermind.views.PlayView ..> mastermind.controllers.PlayController
mastermind.views.PlayView ..> mastermind.views.GameView
mastermind.views.PlayView..> mastermind.views.Message

class  mastermind.views.ProposedCombinationView{
- {static} ERROR_CODE: int
~ ProposedCombinationView()
~ write(int[]): void
~ read(): int[]
}
mastermind.utils.WithConsoleView <|-down- mastermind.views.ProposedCombinationView
mastermind.views.ProposedCombinationView..> mastermind.views.Color
mastermind.views.ProposedCombinationView..> mastermind.views.Message

class  mastermind.views.ResultView{
~ ResultView()
~ writeln(int[]): void
}
mastermind.utils.WithConsoleView <|-down- mastermind.views.ResultView
mastermind.views.ResultView..> mastermind.views.Message

class  mastermind.views.ResumeView{
~ ResumeView()
~ interact(ResumeController): void
}
mastermind.views.ResumeView ..> mastermind.controllers.ResumeController
mastermind.views.ResumeView..> mastermind.views.Message

class  mastermind.views.SaveView{
~ SaveView()
~ interact(SaveController): void
}
mastermind.utils.WithConsoleView <|-down- mastermind.views.SaveView
mastermind.views.SaveView ..> mastermind.controllers.SaveController
mastermind.views.SaveView..> mastermind.views.Message

class  mastermind.views.SecretCombinationView{
~ SecretCombinationView()
~ writeln(int): void
}
mastermind.utils.WithConsoleView <|-down- mastermind.views.SecretCombinationView
mastermind.views.SecretCombinationView..> mastermind.views.Message

class  mastermind.views.StartView{
~ StartView()
~ interact(StartController): void
}
mastermind.utils.WithConsoleView <|-down- mastermind.views.StartView
mastermind.views.StartView ..> mastermind.controllers.StartController
mastermind.views.StartView..> mastermind.views.Message

class  mastermind.views.View{
- startView: StartView
- playView: PlayView
- saveView: SaveView
- resumeView: ResumeView
+ View()
+ visit(PlayController): void
+ visit(SaveController): void
+ visit(ResumeController): void
+ visit(StartController): void
+ interact(AcceptorController): void
}
mastermind.controllers.ControllersVisitor <|-down- mastermind.views.View
mastermind.views.View *-down-> mastermind.views.PlayView
mastermind.views.View *-down-> mastermind.views.StartView
mastermind.views.View *-down-> mastermind.views.SaveView
mastermind.views.View *-down-> mastermind.views.ResumeView
mastermind.views.View ..> mastermind.controllers.AcceptorController

@enduml

PlantUML version 1.2019.05(Sat Apr 20 18:45:36 CEST 2019)
(GPL source distribution)
Java Runtime: OpenJDK Runtime Environment
JVM: OpenJDK 64-Bit Server VM
Java Version: 1.8.0_222-b10
Operating System: Windows 10
OS Version: 10.0
Default Encoding: windows-1252
Language: es
Country: ES
--></g></svg>