<?xml version="1.0" encoding="UTF-8" standalone="no"?><svg xmlns="http://www.w3.org/2000/svg" xmlns:xlink="http://www.w3.org/1999/xlink" contentScriptType="application/ecmascript" contentStyleType="text/css" height="1055px" preserveAspectRatio="none" style="width:1836px;height:1055px;" version="1.1" viewBox="0 0 1836 1055" width="1836px" zoomAndPan="magnify"><defs><filter height="300%" id="f1kkahqk14k2dd" width="300%" x="-1" y="-1"><feGaussianBlur result="blurOut" stdDeviation="2.0"/><feColorMatrix in="blurOut" result="blurOut2" type="matrix" values="0 0 0 0 0 0 0 0 0 0 0 0 0 0 0 0 0 0 .4 0"/><feOffset dx="4.0" dy="4.0" in="blurOut2" result="blurOut3"/><feBlend in="SourceGraphic" in2="blurOut3" mode="normal"/></filter></defs><g><!--cluster mastermind.controllers--><polygon fill="#FFFFFF" filter="url(#f1kkahqk14k2dd)" points="22,24,191,24,198,47.6094,1215,47.6094,1215,919,22,919,22,24" style="stroke: #000000; stroke-width: 1.5;"/><line style="stroke: #000000; stroke-width: 1.5;" x1="22" x2="198" y1="47.6094" y2="47.6094"/><text fill="#000000" font-family="sans-serif" font-size="14" font-weight="bold" lengthAdjust="spacingAndGlyphs" textLength="163" x="26" y="40.5332">mastermind.controllers</text><!--cluster mastermind.models--><polygon fill="#FFFFFF" filter="url(#f1kkahqk14k2dd)" points="1239,489.5,1382,489.5,1389,513.1094,1814,513.1094,1814,589.5,1239,589.5,1239,489.5" style="stroke: #000000; stroke-width: 1.5;"/><line style="stroke: #000000; stroke-width: 1.5;" x1="1239" x2="1389" y1="513.1094" y2="513.1094"/><text fill="#000000" font-family="sans-serif" font-size="14" font-weight="bold" lengthAdjust="spacingAndGlyphs" textLength="137" x="1243" y="506.0332">mastermind.models</text><!--cluster mastermind.types--><polygon fill="#FFFFFF" filter="url(#f1kkahqk14k2dd)" points="1145,943,1275,943,1282,966.6094,1334,966.6094,1334,1043,1145,1043,1145,943" style="stroke: #000000; stroke-width: 1.5;"/><line style="stroke: #000000; stroke-width: 1.5;" x1="1145" x2="1282" y1="966.6094" y2="966.6094"/><text fill="#000000" font-family="sans-serif" font-size="14" font-weight="bold" lengthAdjust="spacingAndGlyphs" textLength="124" x="1149" y="959.5332">mastermind.types</text><!--class mastermind.controllers.AcceptorController--><rect fill="#FEFECE" filter="url(#f1kkahqk14k2dd)" height="75.6719" id="mastermind.controllers.AcceptorController" style="stroke: #A80036; stroke-width: 1.5;" width="265" x="407.5" y="292.5"/><ellipse cx="484.75" cy="308.5" fill="#A9DCDF" rx="11" ry="11" style="stroke: #A80036; stroke-width: 1.0;"/><path d="M486.9375,310.2656 L482.7969,310.2656 L482.375,311.2969 L482.7969,311.2969 Q483.4063,311.2969 483.6719,311.5313 Q483.9375,311.7656 483.9375,312.1563 Q483.9375,312.5313 483.6719,312.7656 Q483.4063,313 482.7969,313 L480.5,313 Q479.8906,313 479.6328,312.7656 Q479.375,312.5313 479.375,312.1406 Q479.375,311.7656 479.6484,311.5234 Q479.9219,311.2813 480.5469,311.2969 L483.2188,304.6406 L482.1094,304.6406 Q481.5,304.6406 481.2344,304.4063 Q480.9688,304.1719 480.9688,303.7813 Q480.9688,303.4063 481.2344,303.1719 Q481.5,302.9375 482.1094,302.9375 L485.7813,302.9375 L489.1719,311.2969 Q489.7656,311.2969 489.9531,311.4375 Q490.3438,311.7031 490.3438,312.1563 Q490.3438,312.5313 490.0859,312.7656 Q489.8281,313 489.2188,313 L486.9219,313 Q486.3125,313 486.0469,312.7656 Q485.7813,312.5313 485.7813,312.1406 Q485.7813,311.7656 486.0469,311.5313 Q486.3125,311.2969 486.9219,311.2969 L487.3438,311.2969 L486.9375,310.2656 Z M486.2188,308.5625 L484.8594,305.1875 L483.4844,308.5625 L486.2188,308.5625 Z "/><text fill="#000000" font-family="sans-serif" font-size="12" font-style="italic" lengthAdjust="spacingAndGlyphs" textLength="102" x="505.25" y="313.4102">AcceptorController</text><line style="stroke: #A80036; stroke-width: 1.5;" x1="408.5" x2="671.5" y1="324.5" y2="324.5"/><line style="stroke: #A80036; stroke-width: 1.5;" x1="408.5" x2="671.5" y1="332.5" y2="332.5"/><polygon fill="#4177AF" points="418.5,340.918,414.5,346.918,422.5,346.918" style="stroke: #1963A0; stroke-width: 1.0;"/><text fill="#000000" font-family="sans-serif" font-size="11" lengthAdjust="spacingAndGlyphs" textLength="179" x="427.5" y="347.9189">AcceptorController(Session session)</text><ellipse cx="418.5" cy="358.7539" fill="#84BE84" rx="3" ry="3" style="stroke: #038048; stroke-width: 1.0;"/><text fill="#000000" font-family="sans-serif" font-size="11" font-style="italic" lengthAdjust="spacingAndGlyphs" textLength="239" x="427.5" y="361.7549">void accept(ControllersVisitor controllersVisitor)</text><!--class mastermind.controllers.Controller--><rect fill="#FEFECE" filter="url(#f1kkahqk14k2dd)" height="131.0156" id="mastermind.controllers.Controller" style="stroke: #A80036; stroke-width: 1.5;" width="160" x="488" y="60"/><ellipse cx="536.75" cy="76" fill="#A9DCDF" rx="11" ry="11" style="stroke: #A80036; stroke-width: 1.0;"/><path d="M538.9375,77.7656 L534.7969,77.7656 L534.375,78.7969 L534.7969,78.7969 Q535.4063,78.7969 535.6719,79.0313 Q535.9375,79.2656 535.9375,79.6563 Q535.9375,80.0313 535.6719,80.2656 Q535.4063,80.5 534.7969,80.5 L532.5,80.5 Q531.8906,80.5 531.6328,80.2656 Q531.375,80.0313 531.375,79.6406 Q531.375,79.2656 531.6484,79.0234 Q531.9219,78.7813 532.5469,78.7969 L535.2188,72.1406 L534.1094,72.1406 Q533.5,72.1406 533.2344,71.9063 Q532.9688,71.6719 532.9688,71.2813 Q532.9688,70.9063 533.2344,70.6719 Q533.5,70.4375 534.1094,70.4375 L537.7813,70.4375 L541.1719,78.7969 Q541.7656,78.7969 541.9531,78.9375 Q542.3438,79.2031 542.3438,79.6563 Q542.3438,80.0313 542.0859,80.2656 Q541.8281,80.5 541.2188,80.5 L538.9219,80.5 Q538.3125,80.5 538.0469,80.2656 Q537.7813,80.0313 537.7813,79.6406 Q537.7813,79.2656 538.0469,79.0313 Q538.3125,78.7969 538.9219,78.7969 L539.3438,78.7969 L538.9375,77.7656 Z M538.2188,76.0625 L536.8594,72.6875 L535.4844,76.0625 L538.2188,76.0625 Z "/><text fill="#000000" font-family="sans-serif" font-size="12" font-style="italic" lengthAdjust="spacingAndGlyphs" textLength="54" x="557.25" y="80.9102">Controller</text><line style="stroke: #A80036; stroke-width: 1.5;" x1="489" x2="647" y1="92" y2="92"/><polygon fill="none" points="499,99.418,503,103.418,499,107.418,495,103.418" style="stroke: #B38D22; stroke-width: 1.0;"/><text fill="#000000" font-family="sans-serif" font-size="11" lengthAdjust="spacingAndGlyphs" textLength="80" x="508" y="107.4189">Session session</text><line style="stroke: #A80036; stroke-width: 1.5;" x1="489" x2="647" y1="113.8359" y2="113.8359"/><polygon fill="#4177AF" points="499,122.2539,495,128.2539,503,128.2539" style="stroke: #1963A0; stroke-width: 1.0;"/><text fill="#000000" font-family="sans-serif" font-size="11" lengthAdjust="spacingAndGlyphs" textLength="134" x="508" y="129.2549">Controller(Session session)</text><ellipse cx="499" cy="140.0898" fill="#84BE84" rx="3" ry="3" style="stroke: #038048; stroke-width: 1.0;"/><text fill="#000000" font-family="sans-serif" font-size="11" lengthAdjust="spacingAndGlyphs" textLength="130" x="508" y="143.0908">void setName(String name)</text><ellipse cx="499" cy="153.9258" fill="#84BE84" rx="3" ry="3" style="stroke: #038048; stroke-width: 1.0;"/><text fill="#000000" font-family="sans-serif" font-size="11" lengthAdjust="spacingAndGlyphs" textLength="64" x="508" y="156.9268">int getWidth()</text><ellipse cx="499" cy="167.7617" fill="#84BE84" rx="3" ry="3" style="stroke: #038048; stroke-width: 1.0;"/><text fill="#000000" font-family="sans-serif" font-size="11" lengthAdjust="spacingAndGlyphs" textLength="132" x="508" y="170.7627">StateValue getValueState()</text><ellipse cx="499" cy="181.5977" fill="#84BE84" rx="3" ry="3" style="stroke: #038048; stroke-width: 1.0;"/><text fill="#000000" font-family="sans-serif" font-size="11" lengthAdjust="spacingAndGlyphs" textLength="81" x="508" y="184.5986">String getName()</text><!--class mastermind.controllers.ControllersVisitor--><rect fill="#FEFECE" filter="url(#f1kkahqk14k2dd)" height="103.3438" id="mastermind.controllers.ControllersVisitor" style="stroke: #A80036; stroke-width: 1.5;" width="232" x="496" y="498"/><ellipse cx="560.75" cy="514" fill="#B4A7E5" rx="11" ry="11" style="stroke: #A80036; stroke-width: 1.0;"/><path d="M561.7031,510.6406 L561.7031,517.2969 L563.4219,517.2969 Q564.0313,517.2969 564.2969,517.5313 Q564.5625,517.7656 564.5625,518.1563 Q564.5625,518.5313 564.2969,518.7656 Q564.0313,519 563.4219,519 L558.2813,519 Q557.6719,519 557.4063,518.7656 Q557.1406,518.5313 557.1406,518.1406 Q557.1406,517.7656 557.4063,517.5313 Q557.6719,517.2969 558.2813,517.2969 L560,517.2969 L560,510.6406 L558.2813,510.6406 Q557.6719,510.6406 557.4063,510.4063 Q557.1406,510.1719 557.1406,509.7813 Q557.1406,509.4063 557.4063,509.1719 Q557.6719,508.9375 558.2813,508.9375 L563.4219,508.9375 Q564.0313,508.9375 564.2969,509.1719 Q564.5625,509.4063 564.5625,509.7813 Q564.5625,510.1719 564.2969,510.4063 Q564.0313,510.6406 563.4219,510.6406 L561.7031,510.6406 Z "/><text fill="#000000" font-family="sans-serif" font-size="12" font-style="italic" lengthAdjust="spacingAndGlyphs" textLength="94" x="581.25" y="518.9102">ControllersVisitor</text><line style="stroke: #A80036; stroke-width: 1.5;" x1="497" x2="727" y1="530" y2="530"/><line style="stroke: #A80036; stroke-width: 1.5;" x1="497" x2="727" y1="538" y2="538"/><text fill="#000000" font-family="sans-serif" font-size="11" lengthAdjust="spacingAndGlyphs" textLength="190" x="502" y="553.4189">void visit(StartController startController)</text><text fill="#000000" font-family="sans-serif" font-size="11" lengthAdjust="spacingAndGlyphs" textLength="185" x="502" y="567.2549">void visit(PlayController playController)</text><text fill="#000000" font-family="sans-serif" font-size="11" lengthAdjust="spacingAndGlyphs" textLength="194" x="502" y="581.0908">void visit(SaveController saveController)</text><text fill="#000000" font-family="sans-serif" font-size="11" lengthAdjust="spacingAndGlyphs" textLength="220" x="502" y="594.9268">void visit(ResumeController resumeController)</text><!--class mastermind.controllers.StartController--><rect fill="#FEFECE" filter="url(#f1kkahqk14k2dd)" height="117.1797" id="mastermind.controllers.StartController" style="stroke: #A80036; stroke-width: 1.5;" width="258" x="624" y="737.5"/><ellipse cx="709.25" cy="753.5" fill="#A9DCDF" rx="11" ry="11" style="stroke: #A80036; stroke-width: 1.0;"/><path d="M711.4375,755.2656 L707.2969,755.2656 L706.875,756.2969 L707.2969,756.2969 Q707.9063,756.2969 708.1719,756.5313 Q708.4375,756.7656 708.4375,757.1563 Q708.4375,757.5313 708.1719,757.7656 Q707.9063,758 707.2969,758 L705,758 Q704.3906,758 704.1328,757.7656 Q703.875,757.5313 703.875,757.1406 Q703.875,756.7656 704.1484,756.5234 Q704.4219,756.2813 705.0469,756.2969 L707.7188,749.6406 L706.6094,749.6406 Q706,749.6406 705.7344,749.4063 Q705.4688,749.1719 705.4688,748.7813 Q705.4688,748.4063 705.7344,748.1719 Q706,747.9375 706.6094,747.9375 L710.2813,747.9375 L713.6719,756.2969 Q714.2656,756.2969 714.4531,756.4375 Q714.8438,756.7031 714.8438,757.1563 Q714.8438,757.5313 714.5859,757.7656 Q714.3281,758 713.7188,758 L711.4219,758 Q710.8125,758 710.5469,757.7656 Q710.2813,757.5313 710.2813,757.1406 Q710.2813,756.7656 710.5469,756.5313 Q710.8125,756.2969 711.4219,756.2969 L711.8438,756.2969 L711.4375,755.2656 Z M710.7188,753.5625 L709.3594,750.1875 L707.9844,753.5625 L710.7188,753.5625 Z "/><text fill="#000000" font-family="sans-serif" font-size="12" font-style="italic" lengthAdjust="spacingAndGlyphs" textLength="79" x="729.75" y="758.4102">StartController</text><line style="stroke: #A80036; stroke-width: 1.5;" x1="625" x2="881" y1="769.5" y2="769.5"/><line style="stroke: #A80036; stroke-width: 1.5;" x1="625" x2="881" y1="777.5" y2="777.5"/><ellipse cx="635" cy="789.918" fill="#84BE84" rx="3" ry="3" style="stroke: #038048; stroke-width: 1.0;"/><text fill="#000000" font-family="sans-serif" font-size="11" lengthAdjust="spacingAndGlyphs" textLength="157" x="644" y="792.9189">StartController(Session session)</text><ellipse cx="635" cy="803.7539" fill="#84BE84" rx="3" ry="3" style="stroke: #038048; stroke-width: 1.0;"/><text fill="#000000" font-family="sans-serif" font-size="11" font-style="italic" lengthAdjust="spacingAndGlyphs" textLength="53" x="644" y="806.7549">void start()</text><ellipse cx="635" cy="817.5898" fill="#84BE84" rx="3" ry="3" style="stroke: #038048; stroke-width: 1.0;"/><text fill="#000000" font-family="sans-serif" font-size="11" font-style="italic" lengthAdjust="spacingAndGlyphs" textLength="103" x="644" y="820.5908">void start(String title)</text><ellipse cx="635" cy="831.4258" fill="#84BE84" rx="3" ry="3" style="stroke: #038048; stroke-width: 1.0;"/><text fill="#000000" font-family="sans-serif" font-size="11" font-style="italic" lengthAdjust="spacingAndGlyphs" textLength="132" x="644" y="834.4268">String[] getGamesNames()</text><ellipse cx="635" cy="845.2617" fill="#84BE84" rx="3" ry="3" style="stroke: #038048; stroke-width: 1.0;"/><text fill="#000000" font-family="sans-serif" font-size="11" lengthAdjust="spacingAndGlyphs" textLength="232" x="644" y="848.2627">void accept(ControllersVisitor controllersVisitor)</text><!--class mastermind.controllers.PlayController--><rect fill="#FEFECE" filter="url(#f1kkahqk14k2dd)" height="214.0313" id="mastermind.controllers.PlayController" style="stroke: #A80036; stroke-width: 1.5;" width="281" x="917.5" y="689"/><ellipse cx="1014.75" cy="705" fill="#A9DCDF" rx="11" ry="11" style="stroke: #A80036; stroke-width: 1.0;"/><path d="M1016.9375,706.7656 L1012.7969,706.7656 L1012.375,707.7969 L1012.7969,707.7969 Q1013.4063,707.7969 1013.6719,708.0313 Q1013.9375,708.2656 1013.9375,708.6563 Q1013.9375,709.0313 1013.6719,709.2656 Q1013.4063,709.5 1012.7969,709.5 L1010.5,709.5 Q1009.8906,709.5 1009.6328,709.2656 Q1009.375,709.0313 1009.375,708.6406 Q1009.375,708.2656 1009.6484,708.0234 Q1009.9219,707.7813 1010.5469,707.7969 L1013.2188,701.1406 L1012.1094,701.1406 Q1011.5,701.1406 1011.2344,700.9063 Q1010.9688,700.6719 1010.9688,700.2813 Q1010.9688,699.9063 1011.2344,699.6719 Q1011.5,699.4375 1012.1094,699.4375 L1015.7813,699.4375 L1019.1719,707.7969 Q1019.7656,707.7969 1019.9531,707.9375 Q1020.3438,708.2031 1020.3438,708.6563 Q1020.3438,709.0313 1020.0859,709.2656 Q1019.8281,709.5 1019.2188,709.5 L1016.9219,709.5 Q1016.3125,709.5 1016.0469,709.2656 Q1015.7813,709.0313 1015.7813,708.6406 Q1015.7813,708.2656 1016.0469,708.0313 Q1016.3125,707.7969 1016.9219,707.7969 L1017.3438,707.7969 L1016.9375,706.7656 Z M1016.2188,705.0625 L1014.8594,701.6875 L1013.4844,705.0625 L1016.2188,705.0625 Z "/><text fill="#000000" font-family="sans-serif" font-size="12" font-style="italic" lengthAdjust="spacingAndGlyphs" textLength="78" x="1035.25" y="709.9102">PlayController</text><line style="stroke: #A80036; stroke-width: 1.5;" x1="918.5" x2="1197.5" y1="721" y2="721"/><line style="stroke: #A80036; stroke-width: 1.5;" x1="918.5" x2="1197.5" y1="729" y2="729"/><polygon fill="#FFFF44" points="928.5,736.418,932.5,740.418,928.5,744.418,924.5,740.418" style="stroke: #B38D22; stroke-width: 1.0;"/><text fill="#000000" font-family="sans-serif" font-size="11" lengthAdjust="spacingAndGlyphs" textLength="154" x="937.5" y="744.4189">PlayController(Session session)</text><ellipse cx="928.5" cy="755.2539" fill="#84BE84" rx="3" ry="3" style="stroke: #038048; stroke-width: 1.0;"/><text fill="#000000" font-family="sans-serif" font-size="11" font-style="italic" lengthAdjust="spacingAndGlyphs" textLength="255" x="937.5" y="758.2549">Error addProposedCombination(List&lt;Color&gt; colors)</text><ellipse cx="928.5" cy="769.0898" fill="#84BE84" rx="3" ry="3" style="stroke: #038048; stroke-width: 1.0;"/><text fill="#000000" font-family="sans-serif" font-size="11" font-style="italic" lengthAdjust="spacingAndGlyphs" textLength="55" x="937.5" y="772.0908">void undo()</text><ellipse cx="928.5" cy="782.9258" fill="#84BE84" rx="3" ry="3" style="stroke: #038048; stroke-width: 1.0;"/><text fill="#000000" font-family="sans-serif" font-size="11" font-style="italic" lengthAdjust="spacingAndGlyphs" textLength="53" x="937.5" y="785.9268">void redo()</text><ellipse cx="928.5" cy="796.7617" fill="#84BE84" rx="3" ry="3" style="stroke: #038048; stroke-width: 1.0;"/><text fill="#000000" font-family="sans-serif" font-size="11" font-style="italic" lengthAdjust="spacingAndGlyphs" textLength="52" x="937.5" y="799.7627">void next()</text><ellipse cx="928.5" cy="810.5977" fill="#84BE84" rx="3" ry="3" style="stroke: #038048; stroke-width: 1.0;"/><text fill="#000000" font-family="sans-serif" font-size="11" font-style="italic" lengthAdjust="spacingAndGlyphs" textLength="97" x="937.5" y="813.5986">boolean undoable()</text><ellipse cx="928.5" cy="824.4336" fill="#84BE84" rx="3" ry="3" style="stroke: #038048; stroke-width: 1.0;"/><text fill="#000000" font-family="sans-serif" font-size="11" font-style="italic" lengthAdjust="spacingAndGlyphs" textLength="95" x="937.5" y="827.4346">boolean redoable()</text><ellipse cx="928.5" cy="838.2695" fill="#84BE84" rx="3" ry="3" style="stroke: #038048; stroke-width: 1.0;"/><text fill="#000000" font-family="sans-serif" font-size="11" font-style="italic" lengthAdjust="spacingAndGlyphs" textLength="170" x="937.5" y="841.2705">List&lt;Color&gt; getColors(int position)</text><ellipse cx="928.5" cy="852.1055" fill="#84BE84" rx="3" ry="3" style="stroke: #038048; stroke-width: 1.0;"/><text fill="#000000" font-family="sans-serif" font-size="11" font-style="italic" lengthAdjust="spacingAndGlyphs" textLength="126" x="937.5" y="855.1064">int getBlacks(int position)</text><ellipse cx="928.5" cy="865.9414" fill="#84BE84" rx="3" ry="3" style="stroke: #038048; stroke-width: 1.0;"/><text fill="#000000" font-family="sans-serif" font-size="11" font-style="italic" lengthAdjust="spacingAndGlyphs" textLength="127" x="937.5" y="868.9424">int getWhites(int position)</text><ellipse cx="928.5" cy="879.7773" fill="#84BE84" rx="3" ry="3" style="stroke: #038048; stroke-width: 1.0;"/><text fill="#000000" font-family="sans-serif" font-size="11" font-style="italic" lengthAdjust="spacingAndGlyphs" textLength="81" x="937.5" y="882.7783">int getAttempts()</text><ellipse cx="928.5" cy="893.6133" fill="#84BE84" rx="3" ry="3" style="stroke: #038048; stroke-width: 1.0;"/><text fill="#000000" font-family="sans-serif" font-size="11" lengthAdjust="spacingAndGlyphs" textLength="232" x="937.5" y="896.6143">void accept(ControllersVisitor controllersVisitor)</text><!--class mastermind.controllers.SaveController--><rect fill="#FEFECE" filter="url(#f1kkahqk14k2dd)" height="144.8516" id="mastermind.controllers.SaveController" style="stroke: #A80036; stroke-width: 1.5;" width="258" x="38" y="723.5"/><ellipse cx="121.75" cy="739.5" fill="#A9DCDF" rx="11" ry="11" style="stroke: #A80036; stroke-width: 1.0;"/><path d="M123.9375,741.2656 L119.7969,741.2656 L119.375,742.2969 L119.7969,742.2969 Q120.4063,742.2969 120.6719,742.5313 Q120.9375,742.7656 120.9375,743.1563 Q120.9375,743.5313 120.6719,743.7656 Q120.4063,744 119.7969,744 L117.5,744 Q116.8906,744 116.6328,743.7656 Q116.375,743.5313 116.375,743.1406 Q116.375,742.7656 116.6484,742.5234 Q116.9219,742.2813 117.5469,742.2969 L120.2188,735.6406 L119.1094,735.6406 Q118.5,735.6406 118.2344,735.4063 Q117.9688,735.1719 117.9688,734.7813 Q117.9688,734.4063 118.2344,734.1719 Q118.5,733.9375 119.1094,733.9375 L122.7813,733.9375 L126.1719,742.2969 Q126.7656,742.2969 126.9531,742.4375 Q127.3438,742.7031 127.3438,743.1563 Q127.3438,743.5313 127.0859,743.7656 Q126.8281,744 126.2188,744 L123.9219,744 Q123.3125,744 123.0469,743.7656 Q122.7813,743.5313 122.7813,743.1406 Q122.7813,742.7656 123.0469,742.5313 Q123.3125,742.2969 123.9219,742.2969 L124.3438,742.2969 L123.9375,741.2656 Z M123.2188,739.5625 L121.8594,736.1875 L120.4844,739.5625 L123.2188,739.5625 Z "/><text fill="#000000" font-family="sans-serif" font-size="12" font-style="italic" lengthAdjust="spacingAndGlyphs" textLength="82" x="142.25" y="744.4102">SaveController</text><line style="stroke: #A80036; stroke-width: 1.5;" x1="39" x2="295" y1="755.5" y2="755.5"/><line style="stroke: #A80036; stroke-width: 1.5;" x1="39" x2="295" y1="763.5" y2="763.5"/><ellipse cx="49" cy="775.918" fill="#84BE84" rx="3" ry="3" style="stroke: #038048; stroke-width: 1.0;"/><text fill="#000000" font-family="sans-serif" font-size="11" lengthAdjust="spacingAndGlyphs" textLength="159" x="58" y="778.9189">SaveController(Session session)</text><ellipse cx="49" cy="789.7539" fill="#84BE84" rx="3" ry="3" style="stroke: #038048; stroke-width: 1.0;"/><text fill="#000000" font-family="sans-serif" font-size="11" font-style="italic" lengthAdjust="spacingAndGlyphs" textLength="113" x="58" y="792.7549">void save(String name)</text><ellipse cx="49" cy="803.5898" fill="#84BE84" rx="3" ry="3" style="stroke: #038048; stroke-width: 1.0;"/><text fill="#000000" font-family="sans-serif" font-size="11" font-style="italic" lengthAdjust="spacingAndGlyphs" textLength="54" x="58" y="806.5908">void save()</text><ellipse cx="49" cy="817.4258" fill="#84BE84" rx="3" ry="3" style="stroke: #038048; stroke-width: 1.0;"/><text fill="#000000" font-family="sans-serif" font-size="11" font-style="italic" lengthAdjust="spacingAndGlyphs" textLength="52" x="58" y="820.4268">void next()</text><ellipse cx="49" cy="831.2617" fill="#84BE84" rx="3" ry="3" style="stroke: #038048; stroke-width: 1.0;"/><text fill="#000000" font-family="sans-serif" font-size="11" font-style="italic" lengthAdjust="spacingAndGlyphs" textLength="98" x="58" y="834.2627">boolean hasName()</text><ellipse cx="49" cy="845.0977" fill="#84BE84" rx="3" ry="3" style="stroke: #038048; stroke-width: 1.0;"/><text fill="#000000" font-family="sans-serif" font-size="11" font-style="italic" lengthAdjust="spacingAndGlyphs" textLength="164" x="58" y="848.0986">boolean exists(String readString)</text><ellipse cx="49" cy="858.9336" fill="#84BE84" rx="3" ry="3" style="stroke: #038048; stroke-width: 1.0;"/><text fill="#000000" font-family="sans-serif" font-size="11" lengthAdjust="spacingAndGlyphs" textLength="232" x="58" y="861.9346">void accept(ControllersVisitor controllersVisitor)</text><!--class mastermind.controllers.ResumeController--><rect fill="#FEFECE" filter="url(#f1kkahqk14k2dd)" height="89.5078" id="mastermind.controllers.ResumeController" style="stroke: #A80036; stroke-width: 1.5;" width="258" x="331" y="751"/><ellipse cx="405.25" cy="767" fill="#A9DCDF" rx="11" ry="11" style="stroke: #A80036; stroke-width: 1.0;"/><path d="M407.4375,768.7656 L403.2969,768.7656 L402.875,769.7969 L403.2969,769.7969 Q403.9063,769.7969 404.1719,770.0313 Q404.4375,770.2656 404.4375,770.6563 Q404.4375,771.0313 404.1719,771.2656 Q403.9063,771.5 403.2969,771.5 L401,771.5 Q400.3906,771.5 400.1328,771.2656 Q399.875,771.0313 399.875,770.6406 Q399.875,770.2656 400.1484,770.0234 Q400.4219,769.7813 401.0469,769.7969 L403.7188,763.1406 L402.6094,763.1406 Q402,763.1406 401.7344,762.9063 Q401.4688,762.6719 401.4688,762.2813 Q401.4688,761.9063 401.7344,761.6719 Q402,761.4375 402.6094,761.4375 L406.2813,761.4375 L409.6719,769.7969 Q410.2656,769.7969 410.4531,769.9375 Q410.8438,770.2031 410.8438,770.6563 Q410.8438,771.0313 410.5859,771.2656 Q410.3281,771.5 409.7188,771.5 L407.4219,771.5 Q406.8125,771.5 406.5469,771.2656 Q406.2813,771.0313 406.2813,770.6406 Q406.2813,770.2656 406.5469,770.0313 Q406.8125,769.7969 407.4219,769.7969 L407.8438,769.7969 L407.4375,768.7656 Z M406.7188,767.0625 L405.3594,763.6875 L403.9844,767.0625 L406.7188,767.0625 Z "/><text fill="#000000" font-family="sans-serif" font-size="12" font-style="italic" lengthAdjust="spacingAndGlyphs" textLength="101" x="425.75" y="771.9102">ResumeController</text><line style="stroke: #A80036; stroke-width: 1.5;" x1="332" x2="588" y1="783" y2="783"/><line style="stroke: #A80036; stroke-width: 1.5;" x1="332" x2="588" y1="791" y2="791"/><ellipse cx="342" cy="803.418" fill="#84BE84" rx="3" ry="3" style="stroke: #038048; stroke-width: 1.0;"/><text fill="#000000" font-family="sans-serif" font-size="11" lengthAdjust="spacingAndGlyphs" textLength="173" x="351" y="806.4189">ResumeController(Session session)</text><ellipse cx="342" cy="817.2539" fill="#84BE84" rx="3" ry="3" style="stroke: #038048; stroke-width: 1.0;"/><text fill="#000000" font-family="sans-serif" font-size="11" font-style="italic" lengthAdjust="spacingAndGlyphs" textLength="183" x="351" y="820.2549">void isNewGame(boolean newGame)</text><ellipse cx="342" cy="831.0898" fill="#84BE84" rx="3" ry="3" style="stroke: #038048; stroke-width: 1.0;"/><text fill="#000000" font-family="sans-serif" font-size="11" lengthAdjust="spacingAndGlyphs" textLength="232" x="351" y="834.0908">void accept(ControllersVisitor controllersVisitor)</text><!--class mastermind.controllers.ExitController--><rect fill="#FEFECE" filter="url(#f1kkahqk14k2dd)" height="75.6719" id="mastermind.controllers.ExitController" style="stroke: #A80036; stroke-width: 1.5;" width="177" x="683.5" y="87.5"/><ellipse cx="731.25" cy="103.5" fill="#ADD1B2" rx="11" ry="11" style="stroke: #A80036; stroke-width: 1.0;"/><path d="M734.0156,99.375 Q734.1719,99.1563 734.3594,99.0469 Q734.5469,98.9375 734.7656,98.9375 Q735.1406,98.9375 735.375,99.1953 Q735.6094,99.4531 735.6094,100.0625 L735.6094,101.5156 Q735.6094,102.125 735.375,102.3906 Q735.1406,102.6563 734.7656,102.6563 Q734.4219,102.6563 734.2188,102.4531 Q734.0156,102.2656 733.9063,101.75 Q733.8594,101.3906 733.6719,101.2031 Q733.3438,100.8281 732.7344,100.6094 Q732.125,100.3906 731.5,100.3906 Q730.7344,100.3906 730.1016,100.7188 Q729.4688,101.0469 728.9766,101.7969 Q728.4844,102.5469 728.4844,103.5781 L728.4844,104.6719 Q728.4844,105.9063 729.375,106.7266 Q730.2656,107.5469 731.8594,107.5469 Q732.7969,107.5469 733.4531,107.2969 Q733.8438,107.1406 734.2656,106.7031 Q734.5313,106.4375 734.6797,106.3594 Q734.8281,106.2813 735.0313,106.2813 Q735.3594,106.2813 735.6172,106.5391 Q735.875,106.7969 735.875,107.1406 Q735.875,107.4844 735.5313,107.8906 Q735.0313,108.4688 734.2344,108.7969 Q733.1563,109.25 731.8594,109.25 Q730.3438,109.25 729.1406,108.625 Q728.1563,108.125 727.4688,107.0547 Q726.7813,105.9844 726.7813,104.7031 L726.7813,103.5469 Q726.7813,102.2188 727.3984,101.0703 Q728.0156,99.9219 729.1094,99.3047 Q730.2031,98.6875 731.4375,98.6875 Q732.1719,98.6875 732.8203,98.8516 Q733.4688,99.0156 734.0156,99.375 Z "/><text fill="#000000" font-family="sans-serif" font-size="12" lengthAdjust="spacingAndGlyphs" textLength="73" x="751.75" y="108.4102">ExitController</text><line style="stroke: #A80036; stroke-width: 1.5;" x1="684.5" x2="859.5" y1="119.5" y2="119.5"/><line style="stroke: #A80036; stroke-width: 1.5;" x1="684.5" x2="859.5" y1="127.5" y2="127.5"/><ellipse cx="694.5" cy="139.918" fill="#84BE84" rx="3" ry="3" style="stroke: #038048; stroke-width: 1.0;"/><text fill="#000000" font-family="sans-serif" font-size="11" lengthAdjust="spacingAndGlyphs" textLength="151" x="703.5" y="142.9189">ExitController(Session session)</text><ellipse cx="694.5" cy="153.7539" fill="#84BE84" rx="3" ry="3" style="stroke: #038048; stroke-width: 1.0;"/><text fill="#000000" font-family="sans-serif" font-size="11" lengthAdjust="spacingAndGlyphs" textLength="52" x="703.5" y="156.7549">void next()</text><!--class mastermind.controllers.GameController--><rect fill="#FEFECE" filter="url(#f1kkahqk14k2dd)" height="158.6875" id="mastermind.controllers.GameController" style="stroke: #A80036; stroke-width: 1.5;" width="265" x="788.5" y="470"/><ellipse cx="872.75" cy="486" fill="#A9DCDF" rx="11" ry="11" style="stroke: #A80036; stroke-width: 1.0;"/><path d="M874.9375,487.7656 L870.7969,487.7656 L870.375,488.7969 L870.7969,488.7969 Q871.4063,488.7969 871.6719,489.0313 Q871.9375,489.2656 871.9375,489.6563 Q871.9375,490.0313 871.6719,490.2656 Q871.4063,490.5 870.7969,490.5 L868.5,490.5 Q867.8906,490.5 867.6328,490.2656 Q867.375,490.0313 867.375,489.6406 Q867.375,489.2656 867.6484,489.0234 Q867.9219,488.7813 868.5469,488.7969 L871.2188,482.1406 L870.1094,482.1406 Q869.5,482.1406 869.2344,481.9063 Q868.9688,481.6719 868.9688,481.2813 Q868.9688,480.9063 869.2344,480.6719 Q869.5,480.4375 870.1094,480.4375 L873.7813,480.4375 L877.1719,488.7969 Q877.7656,488.7969 877.9531,488.9375 Q878.3438,489.2031 878.3438,489.6563 Q878.3438,490.0313 878.0859,490.2656 Q877.8281,490.5 877.2188,490.5 L874.9219,490.5 Q874.3125,490.5 874.0469,490.2656 Q873.7813,490.0313 873.7813,489.6406 Q873.7813,489.2656 874.0469,489.0313 Q874.3125,488.7969 874.9219,488.7969 L875.3438,488.7969 L874.9375,487.7656 Z M874.2188,486.0625 L872.8594,482.6875 L871.4844,486.0625 L874.2188,486.0625 Z "/><text fill="#000000" font-family="sans-serif" font-size="12" font-style="italic" lengthAdjust="spacingAndGlyphs" textLength="88" x="893.25" y="490.9102">GameController</text><line style="stroke: #A80036; stroke-width: 1.5;" x1="789.5" x2="1052.5" y1="502" y2="502"/><line style="stroke: #A80036; stroke-width: 1.5;" x1="789.5" x2="1052.5" y1="510" y2="510"/><polygon fill="#4177AF" points="799.5,518.418,795.5,524.418,803.5,524.418" style="stroke: #1963A0; stroke-width: 1.0;"/><text fill="#000000" font-family="sans-serif" font-size="11" lengthAdjust="spacingAndGlyphs" textLength="162" x="808.5" y="525.4189">GameController(Session session)</text><ellipse cx="799.5" cy="536.2539" fill="#84BE84" rx="3" ry="3" style="stroke: #038048; stroke-width: 1.0;"/><text fill="#000000" font-family="sans-serif" font-size="11" font-style="italic" lengthAdjust="spacingAndGlyphs" textLength="81" x="808.5" y="539.2549">int getAttempts()</text><ellipse cx="799.5" cy="550.0898" fill="#84BE84" rx="3" ry="3" style="stroke: #038048; stroke-width: 1.0;"/><text fill="#000000" font-family="sans-serif" font-size="11" font-style="italic" lengthAdjust="spacingAndGlyphs" textLength="170" x="808.5" y="553.0908">List&lt;Color&gt; getColors(int position)</text><ellipse cx="799.5" cy="563.9258" fill="#84BE84" rx="3" ry="3" style="stroke: #038048; stroke-width: 1.0;"/><text fill="#000000" font-family="sans-serif" font-size="11" font-style="italic" lengthAdjust="spacingAndGlyphs" textLength="126" x="808.5" y="566.9268">int getBlacks(int position)</text><ellipse cx="799.5" cy="577.7617" fill="#84BE84" rx="3" ry="3" style="stroke: #038048; stroke-width: 1.0;"/><text fill="#000000" font-family="sans-serif" font-size="11" font-style="italic" lengthAdjust="spacingAndGlyphs" textLength="127" x="808.5" y="580.7627">int getWhites(int position)</text><ellipse cx="799.5" cy="591.5977" fill="#84BE84" rx="3" ry="3" style="stroke: #038048; stroke-width: 1.0;"/><text fill="#000000" font-family="sans-serif" font-size="11" font-style="italic" lengthAdjust="spacingAndGlyphs" textLength="96" x="808.5" y="594.5986">boolean isWinner()</text><ellipse cx="799.5" cy="605.4336" fill="#84BE84" rx="3" ry="3" style="stroke: #038048; stroke-width: 1.0;"/><text fill="#000000" font-family="sans-serif" font-size="11" font-style="italic" lengthAdjust="spacingAndGlyphs" textLength="94" x="808.5" y="608.4346">boolean isLooser()</text><ellipse cx="799.5" cy="619.2695" fill="#84BE84" rx="3" ry="3" style="stroke: #038048; stroke-width: 1.0;"/><text fill="#000000" font-family="sans-serif" font-size="11" font-style="italic" lengthAdjust="spacingAndGlyphs" textLength="239" x="808.5" y="622.2705">void accept(ControllersVisitor controllersVisitor)</text><!--class mastermind.controllers.Logic--><rect fill="#FEFECE" filter="url(#f1kkahqk14k2dd)" height="103.3438" id="mastermind.controllers.Logic" style="stroke: #A80036; stroke-width: 1.5;" width="303" x="895.5" y="74"/><ellipse cx="1027.75" cy="90" fill="#ADD1B2" rx="11" ry="11" style="stroke: #A80036; stroke-width: 1.0;"/><path d="M1030.5156,85.875 Q1030.6719,85.6563 1030.8594,85.5469 Q1031.0469,85.4375 1031.2656,85.4375 Q1031.6406,85.4375 1031.875,85.6953 Q1032.1094,85.9531 1032.1094,86.5625 L1032.1094,88.0156 Q1032.1094,88.625 1031.875,88.8906 Q1031.6406,89.1563 1031.2656,89.1563 Q1030.9219,89.1563 1030.7188,88.9531 Q1030.5156,88.7656 1030.4063,88.25 Q1030.3594,87.8906 1030.1719,87.7031 Q1029.8438,87.3281 1029.2344,87.1094 Q1028.625,86.8906 1028,86.8906 Q1027.2344,86.8906 1026.6016,87.2188 Q1025.9688,87.5469 1025.4766,88.2969 Q1024.9844,89.0469 1024.9844,90.0781 L1024.9844,91.1719 Q1024.9844,92.4063 1025.875,93.2266 Q1026.7656,94.0469 1028.3594,94.0469 Q1029.2969,94.0469 1029.9531,93.7969 Q1030.3438,93.6406 1030.7656,93.2031 Q1031.0313,92.9375 1031.1797,92.8594 Q1031.3281,92.7813 1031.5313,92.7813 Q1031.8594,92.7813 1032.1172,93.0391 Q1032.375,93.2969 1032.375,93.6406 Q1032.375,93.9844 1032.0313,94.3906 Q1031.5313,94.9688 1030.7344,95.2969 Q1029.6563,95.75 1028.3594,95.75 Q1026.8438,95.75 1025.6406,95.125 Q1024.6563,94.625 1023.9688,93.5547 Q1023.2813,92.4844 1023.2813,91.2031 L1023.2813,90.0469 Q1023.2813,88.7188 1023.8984,87.5703 Q1024.5156,86.4219 1025.6094,85.8047 Q1026.7031,85.1875 1027.9375,85.1875 Q1028.6719,85.1875 1029.3203,85.3516 Q1029.9688,85.5156 1030.5156,85.875 Z "/><text fill="#000000" font-family="sans-serif" font-size="12" lengthAdjust="spacingAndGlyphs" textLength="30" x="1048.25" y="94.9102">Logic</text><line style="stroke: #A80036; stroke-width: 1.5;" x1="896.5" x2="1197.5" y1="106" y2="106"/><polygon fill="none" points="906.5,113.418,910.5,117.418,906.5,121.418,902.5,117.418" style="stroke: #B38D22; stroke-width: 1.0;"/><text fill="#000000" font-family="sans-serif" font-size="11" lengthAdjust="spacingAndGlyphs" textLength="80" x="915.5" y="121.4189">Session session</text><polygon fill="none" points="906.5,127.2539,910.5,131.2539,906.5,135.2539,902.5,131.2539" style="stroke: #B38D22; stroke-width: 1.0;"/><text fill="#000000" font-family="sans-serif" font-size="11" lengthAdjust="spacingAndGlyphs" textLength="277" x="915.5" y="135.2549">Map&lt;StateValue,AcceptorController&gt; acceptorControllers</text><line style="stroke: #A80036; stroke-width: 1.5;" x1="896.5" x2="1197.5" y1="141.6719" y2="141.6719"/><polygon fill="#FFFF44" points="906.5,149.0898,910.5,153.0898,906.5,157.0898,902.5,153.0898" style="stroke: #B38D22; stroke-width: 1.0;"/><text fill="#000000" font-family="sans-serif" font-size="11" lengthAdjust="spacingAndGlyphs" textLength="34" x="915.5" y="157.0908">Logic()</text><ellipse cx="906.5" cy="167.9258" fill="#84BE84" rx="3" ry="3" style="stroke: #038048; stroke-width: 1.0;"/><text fill="#000000" font-family="sans-serif" font-size="11" lengthAdjust="spacingAndGlyphs" textLength="163" x="915.5" y="170.9268">AcceptorController getController()</text><!--class mastermind.controllers.ProposalController--><rect fill="#FEFECE" filter="url(#f1kkahqk14k2dd)" height="158.6875" id="mastermind.controllers.ProposalController" style="stroke: #A80036; stroke-width: 1.5;" width="270" x="708" y="251"/><ellipse cx="786.75" cy="267" fill="#ADD1B2" rx="11" ry="11" style="stroke: #A80036; stroke-width: 1.0;"/><path d="M789.5156,262.875 Q789.6719,262.6563 789.8594,262.5469 Q790.0469,262.4375 790.2656,262.4375 Q790.6406,262.4375 790.875,262.6953 Q791.1094,262.9531 791.1094,263.5625 L791.1094,265.0156 Q791.1094,265.625 790.875,265.8906 Q790.6406,266.1563 790.2656,266.1563 Q789.9219,266.1563 789.7188,265.9531 Q789.5156,265.7656 789.4063,265.25 Q789.3594,264.8906 789.1719,264.7031 Q788.8438,264.3281 788.2344,264.1094 Q787.625,263.8906 787,263.8906 Q786.2344,263.8906 785.6016,264.2188 Q784.9688,264.5469 784.4766,265.2969 Q783.9844,266.0469 783.9844,267.0781 L783.9844,268.1719 Q783.9844,269.4063 784.875,270.2266 Q785.7656,271.0469 787.3594,271.0469 Q788.2969,271.0469 788.9531,270.7969 Q789.3438,270.6406 789.7656,270.2031 Q790.0313,269.9375 790.1797,269.8594 Q790.3281,269.7813 790.5313,269.7813 Q790.8594,269.7813 791.1172,270.0391 Q791.375,270.2969 791.375,270.6406 Q791.375,270.9844 791.0313,271.3906 Q790.5313,271.9688 789.7344,272.2969 Q788.6563,272.75 787.3594,272.75 Q785.8438,272.75 784.6406,272.125 Q783.6563,271.625 782.9688,270.5547 Q782.2813,269.4844 782.2813,268.2031 L782.2813,267.0469 Q782.2813,265.7188 782.8984,264.5703 Q783.5156,263.4219 784.6094,262.8047 Q785.7031,262.1875 786.9375,262.1875 Q787.6719,262.1875 788.3203,262.3516 Q788.9688,262.5156 789.5156,262.875 Z "/><text fill="#000000" font-family="sans-serif" font-size="12" lengthAdjust="spacingAndGlyphs" textLength="104" x="807.25" y="271.9102">ProposalController</text><line style="stroke: #A80036; stroke-width: 1.5;" x1="709" x2="977" y1="283" y2="283"/><line style="stroke: #A80036; stroke-width: 1.5;" x1="709" x2="977" y1="291" y2="291"/><ellipse cx="719" cy="303.418" fill="#84BE84" rx="3" ry="3" style="stroke: #038048; stroke-width: 1.0;"/><text fill="#000000" font-family="sans-serif" font-size="11" lengthAdjust="spacingAndGlyphs" textLength="176" x="728" y="306.4189">ProposalController(Session session)</text><ellipse cx="719" cy="317.2539" fill="#84BE84" rx="3" ry="3" style="stroke: #038048; stroke-width: 1.0;"/><text fill="#000000" font-family="sans-serif" font-size="11" lengthAdjust="spacingAndGlyphs" textLength="244" x="728" y="320.2549">Error addProposedCombination(List&lt;Color&gt; colors)</text><ellipse cx="719" cy="331.0898" fill="#84BE84" rx="3" ry="3" style="stroke: #038048; stroke-width: 1.0;"/><text fill="#000000" font-family="sans-serif" font-size="11" lengthAdjust="spacingAndGlyphs" textLength="91" x="728" y="334.0908">boolean isWinner()</text><ellipse cx="719" cy="344.9258" fill="#84BE84" rx="3" ry="3" style="stroke: #038048; stroke-width: 1.0;"/><text fill="#000000" font-family="sans-serif" font-size="11" lengthAdjust="spacingAndGlyphs" textLength="91" x="728" y="347.9268">boolean isLooser()</text><ellipse cx="719" cy="358.7617" fill="#84BE84" rx="3" ry="3" style="stroke: #038048; stroke-width: 1.0;"/><text fill="#000000" font-family="sans-serif" font-size="11" lengthAdjust="spacingAndGlyphs" textLength="80" x="728" y="361.7627">int getAttempts()</text><ellipse cx="719" cy="372.5977" fill="#84BE84" rx="3" ry="3" style="stroke: #038048; stroke-width: 1.0;"/><text fill="#000000" font-family="sans-serif" font-size="11" lengthAdjust="spacingAndGlyphs" textLength="162" x="728" y="375.5986">List&lt;Color&gt; getColors(int position)</text><ellipse cx="719" cy="386.4336" fill="#84BE84" rx="3" ry="3" style="stroke: #038048; stroke-width: 1.0;"/><text fill="#000000" font-family="sans-serif" font-size="11" lengthAdjust="spacingAndGlyphs" textLength="120" x="728" y="389.4346">int getBlacks(int position)</text><ellipse cx="719" cy="400.2695" fill="#84BE84" rx="3" ry="3" style="stroke: #038048; stroke-width: 1.0;"/><text fill="#000000" font-family="sans-serif" font-size="11" lengthAdjust="spacingAndGlyphs" textLength="121" x="728" y="403.2705">int getWhites(int position)</text><!--class mastermind.controllers.RedoController--><rect fill="#FEFECE" filter="url(#f1kkahqk14k2dd)" height="89.5078" id="mastermind.controllers.RedoController" style="stroke: #A80036; stroke-width: 1.5;" width="185" x="1013.5" y="285.5"/><ellipse cx="1059.75" cy="301.5" fill="#ADD1B2" rx="11" ry="11" style="stroke: #A80036; stroke-width: 1.0;"/><path d="M1062.5156,297.375 Q1062.6719,297.1563 1062.8594,297.0469 Q1063.0469,296.9375 1063.2656,296.9375 Q1063.6406,296.9375 1063.875,297.1953 Q1064.1094,297.4531 1064.1094,298.0625 L1064.1094,299.5156 Q1064.1094,300.125 1063.875,300.3906 Q1063.6406,300.6563 1063.2656,300.6563 Q1062.9219,300.6563 1062.7188,300.4531 Q1062.5156,300.2656 1062.4063,299.75 Q1062.3594,299.3906 1062.1719,299.2031 Q1061.8438,298.8281 1061.2344,298.6094 Q1060.625,298.3906 1060,298.3906 Q1059.2344,298.3906 1058.6016,298.7188 Q1057.9688,299.0469 1057.4766,299.7969 Q1056.9844,300.5469 1056.9844,301.5781 L1056.9844,302.6719 Q1056.9844,303.9063 1057.875,304.7266 Q1058.7656,305.5469 1060.3594,305.5469 Q1061.2969,305.5469 1061.9531,305.2969 Q1062.3438,305.1406 1062.7656,304.7031 Q1063.0313,304.4375 1063.1797,304.3594 Q1063.3281,304.2813 1063.5313,304.2813 Q1063.8594,304.2813 1064.1172,304.5391 Q1064.375,304.7969 1064.375,305.1406 Q1064.375,305.4844 1064.0313,305.8906 Q1063.5313,306.4688 1062.7344,306.7969 Q1061.6563,307.25 1060.3594,307.25 Q1058.8438,307.25 1057.6406,306.625 Q1056.6563,306.125 1055.9688,305.0547 Q1055.2813,303.9844 1055.2813,302.7031 L1055.2813,301.5469 Q1055.2813,300.2188 1055.8984,299.0703 Q1056.5156,297.9219 1057.6094,297.3047 Q1058.7031,296.6875 1059.9375,296.6875 Q1060.6719,296.6875 1061.3203,296.8516 Q1061.9688,297.0156 1062.5156,297.375 Z "/><text fill="#000000" font-family="sans-serif" font-size="12" lengthAdjust="spacingAndGlyphs" textLength="84" x="1080.25" y="306.4102">RedoController</text><line style="stroke: #A80036; stroke-width: 1.5;" x1="1014.5" x2="1197.5" y1="317.5" y2="317.5"/><line style="stroke: #A80036; stroke-width: 1.5;" x1="1014.5" x2="1197.5" y1="325.5" y2="325.5"/><ellipse cx="1024.5" cy="337.918" fill="#84BE84" rx="3" ry="3" style="stroke: #038048; stroke-width: 1.0;"/><text fill="#000000" font-family="sans-serif" font-size="11" lengthAdjust="spacingAndGlyphs" textLength="159" x="1033.5" y="340.9189">RedoController(Session session)</text><ellipse cx="1024.5" cy="351.7539" fill="#84BE84" rx="3" ry="3" style="stroke: #038048; stroke-width: 1.0;"/><text fill="#000000" font-family="sans-serif" font-size="11" lengthAdjust="spacingAndGlyphs" textLength="53" x="1033.5" y="354.7549">void redo()</text><ellipse cx="1024.5" cy="365.5898" fill="#84BE84" rx="3" ry="3" style="stroke: #038048; stroke-width: 1.0;"/><text fill="#000000" font-family="sans-serif" font-size="11" lengthAdjust="spacingAndGlyphs" textLength="91" x="1033.5" y="368.5908">boolean redoable()</text><!--class mastermind.controllers.UndoController--><rect fill="#FEFECE" filter="url(#f1kkahqk14k2dd)" height="89.5078" id="mastermind.controllers.UndoController" style="stroke: #A80036; stroke-width: 1.5;" width="185" x="187.5" y="285.5"/><ellipse cx="233.75" cy="301.5" fill="#ADD1B2" rx="11" ry="11" style="stroke: #A80036; stroke-width: 1.0;"/><path d="M236.5156,297.375 Q236.6719,297.1563 236.8594,297.0469 Q237.0469,296.9375 237.2656,296.9375 Q237.6406,296.9375 237.875,297.1953 Q238.1094,297.4531 238.1094,298.0625 L238.1094,299.5156 Q238.1094,300.125 237.875,300.3906 Q237.6406,300.6563 237.2656,300.6563 Q236.9219,300.6563 236.7188,300.4531 Q236.5156,300.2656 236.4063,299.75 Q236.3594,299.3906 236.1719,299.2031 Q235.8438,298.8281 235.2344,298.6094 Q234.625,298.3906 234,298.3906 Q233.2344,298.3906 232.6016,298.7188 Q231.9688,299.0469 231.4766,299.7969 Q230.9844,300.5469 230.9844,301.5781 L230.9844,302.6719 Q230.9844,303.9063 231.875,304.7266 Q232.7656,305.5469 234.3594,305.5469 Q235.2969,305.5469 235.9531,305.2969 Q236.3438,305.1406 236.7656,304.7031 Q237.0313,304.4375 237.1797,304.3594 Q237.3281,304.2813 237.5313,304.2813 Q237.8594,304.2813 238.1172,304.5391 Q238.375,304.7969 238.375,305.1406 Q238.375,305.4844 238.0313,305.8906 Q237.5313,306.4688 236.7344,306.7969 Q235.6563,307.25 234.3594,307.25 Q232.8438,307.25 231.6406,306.625 Q230.6563,306.125 229.9688,305.0547 Q229.2813,303.9844 229.2813,302.7031 L229.2813,301.5469 Q229.2813,300.2188 229.8984,299.0703 Q230.5156,297.9219 231.6094,297.3047 Q232.7031,296.6875 233.9375,296.6875 Q234.6719,296.6875 235.3203,296.8516 Q235.9688,297.0156 236.5156,297.375 Z "/><text fill="#000000" font-family="sans-serif" font-size="12" lengthAdjust="spacingAndGlyphs" textLength="84" x="254.25" y="306.4102">UndoController</text><line style="stroke: #A80036; stroke-width: 1.5;" x1="188.5" x2="371.5" y1="317.5" y2="317.5"/><line style="stroke: #A80036; stroke-width: 1.5;" x1="188.5" x2="371.5" y1="325.5" y2="325.5"/><ellipse cx="198.5" cy="337.918" fill="#84BE84" rx="3" ry="3" style="stroke: #038048; stroke-width: 1.0;"/><text fill="#000000" font-family="sans-serif" font-size="11" lengthAdjust="spacingAndGlyphs" textLength="159" x="207.5" y="340.9189">UndoController(Session session)</text><ellipse cx="198.5" cy="351.7539" fill="#84BE84" rx="3" ry="3" style="stroke: #038048; stroke-width: 1.0;"/><text fill="#000000" font-family="sans-serif" font-size="11" lengthAdjust="spacingAndGlyphs" textLength="55" x="207.5" y="354.7549">void undo()</text><ellipse cx="198.5" cy="365.5898" fill="#84BE84" rx="3" ry="3" style="stroke: #038048; stroke-width: 1.0;"/><text fill="#000000" font-family="sans-serif" font-size="11" lengthAdjust="spacingAndGlyphs" textLength="93" x="207.5" y="368.5908">boolean undoable()</text><!--class mastermind.models.Session--><rect fill="#FEFECE" filter="url(#f1kkahqk14k2dd)" height="48" id="mastermind.models.Session" style="stroke: #A80036; stroke-width: 1.5;" width="78" x="1593" y="525.5"/><ellipse cx="1608" cy="541.5" fill="#ADD1B2" rx="11" ry="11" style="stroke: #A80036; stroke-width: 1.0;"/><path d="M1610.7656,537.375 Q1610.9219,537.1563 1611.1094,537.0469 Q1611.2969,536.9375 1611.5156,536.9375 Q1611.8906,536.9375 1612.125,537.1953 Q1612.3594,537.4531 1612.3594,538.0625 L1612.3594,539.5156 Q1612.3594,540.125 1612.125,540.3906 Q1611.8906,540.6563 1611.5156,540.6563 Q1611.1719,540.6563 1610.9688,540.4531 Q1610.7656,540.2656 1610.6563,539.75 Q1610.6094,539.3906 1610.4219,539.2031 Q1610.0938,538.8281 1609.4844,538.6094 Q1608.875,538.3906 1608.25,538.3906 Q1607.4844,538.3906 1606.8516,538.7188 Q1606.2188,539.0469 1605.7266,539.7969 Q1605.2344,540.5469 1605.2344,541.5781 L1605.2344,542.6719 Q1605.2344,543.9063 1606.125,544.7266 Q1607.0156,545.5469 1608.6094,545.5469 Q1609.5469,545.5469 1610.2031,545.2969 Q1610.5938,545.1406 1611.0156,544.7031 Q1611.2813,544.4375 1611.4297,544.3594 Q1611.5781,544.2813 1611.7813,544.2813 Q1612.1094,544.2813 1612.3672,544.5391 Q1612.625,544.7969 1612.625,545.1406 Q1612.625,545.4844 1612.2813,545.8906 Q1611.7813,546.4688 1610.9844,546.7969 Q1609.9063,547.25 1608.6094,547.25 Q1607.0938,547.25 1605.8906,546.625 Q1604.9063,546.125 1604.2188,545.0547 Q1603.5313,543.9844 1603.5313,542.7031 L1603.5313,541.5469 Q1603.5313,540.2188 1604.1484,539.0703 Q1604.7656,537.9219 1605.8594,537.3047 Q1606.9531,536.6875 1608.1875,536.6875 Q1608.9219,536.6875 1609.5703,536.8516 Q1610.2188,537.0156 1610.7656,537.375 Z "/><text fill="#000000" font-family="sans-serif" font-size="12" lengthAdjust="spacingAndGlyphs" textLength="46" x="1622" y="546.4102">Session</text><line style="stroke: #A80036; stroke-width: 1.5;" x1="1594" x2="1670" y1="557.5" y2="557.5"/><line style="stroke: #A80036; stroke-width: 1.5;" x1="1594" x2="1670" y1="565.5" y2="565.5"/><!--class mastermind.models.StateValue--><rect fill="#FEFECE" filter="url(#f1kkahqk14k2dd)" height="48" id="mastermind.models.StateValue" style="stroke: #A80036; stroke-width: 1.5;" width="91" x="1706.5" y="525.5"/><ellipse cx="1721.5" cy="541.5" fill="#ADD1B2" rx="11" ry="11" style="stroke: #A80036; stroke-width: 1.0;"/><path d="M1724.2656,537.375 Q1724.4219,537.1563 1724.6094,537.0469 Q1724.7969,536.9375 1725.0156,536.9375 Q1725.3906,536.9375 1725.625,537.1953 Q1725.8594,537.4531 1725.8594,538.0625 L1725.8594,539.5156 Q1725.8594,540.125 1725.625,540.3906 Q1725.3906,540.6563 1725.0156,540.6563 Q1724.6719,540.6563 1724.4688,540.4531 Q1724.2656,540.2656 1724.1563,539.75 Q1724.1094,539.3906 1723.9219,539.2031 Q1723.5938,538.8281 1722.9844,538.6094 Q1722.375,538.3906 1721.75,538.3906 Q1720.9844,538.3906 1720.3516,538.7188 Q1719.7188,539.0469 1719.2266,539.7969 Q1718.7344,540.5469 1718.7344,541.5781 L1718.7344,542.6719 Q1718.7344,543.9063 1719.625,544.7266 Q1720.5156,545.5469 1722.1094,545.5469 Q1723.0469,545.5469 1723.7031,545.2969 Q1724.0938,545.1406 1724.5156,544.7031 Q1724.7813,544.4375 1724.9297,544.3594 Q1725.0781,544.2813 1725.2813,544.2813 Q1725.6094,544.2813 1725.8672,544.5391 Q1726.125,544.7969 1726.125,545.1406 Q1726.125,545.4844 1725.7813,545.8906 Q1725.2813,546.4688 1724.4844,546.7969 Q1723.4063,547.25 1722.1094,547.25 Q1720.5938,547.25 1719.3906,546.625 Q1718.4063,546.125 1717.7188,545.0547 Q1717.0313,543.9844 1717.0313,542.7031 L1717.0313,541.5469 Q1717.0313,540.2188 1717.6484,539.0703 Q1718.2656,537.9219 1719.3594,537.3047 Q1720.4531,536.6875 1721.6875,536.6875 Q1722.4219,536.6875 1723.0703,536.8516 Q1723.7188,537.0156 1724.2656,537.375 Z "/><text fill="#000000" font-family="sans-serif" font-size="12" lengthAdjust="spacingAndGlyphs" textLength="59" x="1735.5" y="546.4102">StateValue</text><line style="stroke: #A80036; stroke-width: 1.5;" x1="1707.5" x2="1796.5" y1="557.5" y2="557.5"/><line style="stroke: #A80036; stroke-width: 1.5;" x1="1707.5" x2="1796.5" y1="565.5" y2="565.5"/><!--class mastermind.models.SessionImplementation--><rect fill="#FEFECE" filter="url(#f1kkahqk14k2dd)" height="48" id="mastermind.models.SessionImplementation" style="stroke: #A80036; stroke-width: 1.5;" width="164" x="1394" y="525.5"/><ellipse cx="1409" cy="541.5" fill="#ADD1B2" rx="11" ry="11" style="stroke: #A80036; stroke-width: 1.0;"/><path d="M1411.7656,537.375 Q1411.9219,537.1563 1412.1094,537.0469 Q1412.2969,536.9375 1412.5156,536.9375 Q1412.8906,536.9375 1413.125,537.1953 Q1413.3594,537.4531 1413.3594,538.0625 L1413.3594,539.5156 Q1413.3594,540.125 1413.125,540.3906 Q1412.8906,540.6563 1412.5156,540.6563 Q1412.1719,540.6563 1411.9688,540.4531 Q1411.7656,540.2656 1411.6563,539.75 Q1411.6094,539.3906 1411.4219,539.2031 Q1411.0938,538.8281 1410.4844,538.6094 Q1409.875,538.3906 1409.25,538.3906 Q1408.4844,538.3906 1407.8516,538.7188 Q1407.2188,539.0469 1406.7266,539.7969 Q1406.2344,540.5469 1406.2344,541.5781 L1406.2344,542.6719 Q1406.2344,543.9063 1407.125,544.7266 Q1408.0156,545.5469 1409.6094,545.5469 Q1410.5469,545.5469 1411.2031,545.2969 Q1411.5938,545.1406 1412.0156,544.7031 Q1412.2813,544.4375 1412.4297,544.3594 Q1412.5781,544.2813 1412.7813,544.2813 Q1413.1094,544.2813 1413.3672,544.5391 Q1413.625,544.7969 1413.625,545.1406 Q1413.625,545.4844 1413.2813,545.8906 Q1412.7813,546.4688 1411.9844,546.7969 Q1410.9063,547.25 1409.6094,547.25 Q1408.0938,547.25 1406.8906,546.625 Q1405.9063,546.125 1405.2188,545.0547 Q1404.5313,543.9844 1404.5313,542.7031 L1404.5313,541.5469 Q1404.5313,540.2188 1405.1484,539.0703 Q1405.7656,537.9219 1406.8594,537.3047 Q1407.9531,536.6875 1409.1875,536.6875 Q1409.9219,536.6875 1410.5703,536.8516 Q1411.2188,537.0156 1411.7656,537.375 Z "/><text fill="#000000" font-family="sans-serif" font-size="12" lengthAdjust="spacingAndGlyphs" textLength="132" x="1423" y="546.4102">SessionImplementation</text><line style="stroke: #A80036; stroke-width: 1.5;" x1="1395" x2="1557" y1="557.5" y2="557.5"/><line style="stroke: #A80036; stroke-width: 1.5;" x1="1395" x2="1557" y1="565.5" y2="565.5"/><!--class mastermind.models.Combination--><rect fill="#FEFECE" filter="url(#f1kkahqk14k2dd)" height="48" id="mastermind.models.Combination" style="stroke: #A80036; stroke-width: 1.5;" width="103" x="1255.5" y="525.5"/><ellipse cx="1270.5" cy="541.5" fill="#ADD1B2" rx="11" ry="11" style="stroke: #A80036; stroke-width: 1.0;"/><path d="M1273.2656,537.375 Q1273.4219,537.1563 1273.6094,537.0469 Q1273.7969,536.9375 1274.0156,536.9375 Q1274.3906,536.9375 1274.625,537.1953 Q1274.8594,537.4531 1274.8594,538.0625 L1274.8594,539.5156 Q1274.8594,540.125 1274.625,540.3906 Q1274.3906,540.6563 1274.0156,540.6563 Q1273.6719,540.6563 1273.4688,540.4531 Q1273.2656,540.2656 1273.1563,539.75 Q1273.1094,539.3906 1272.9219,539.2031 Q1272.5938,538.8281 1271.9844,538.6094 Q1271.375,538.3906 1270.75,538.3906 Q1269.9844,538.3906 1269.3516,538.7188 Q1268.7188,539.0469 1268.2266,539.7969 Q1267.7344,540.5469 1267.7344,541.5781 L1267.7344,542.6719 Q1267.7344,543.9063 1268.625,544.7266 Q1269.5156,545.5469 1271.1094,545.5469 Q1272.0469,545.5469 1272.7031,545.2969 Q1273.0938,545.1406 1273.5156,544.7031 Q1273.7813,544.4375 1273.9297,544.3594 Q1274.0781,544.2813 1274.2813,544.2813 Q1274.6094,544.2813 1274.8672,544.5391 Q1275.125,544.7969 1275.125,545.1406 Q1275.125,545.4844 1274.7813,545.8906 Q1274.2813,546.4688 1273.4844,546.7969 Q1272.4063,547.25 1271.1094,547.25 Q1269.5938,547.25 1268.3906,546.625 Q1267.4063,546.125 1266.7188,545.0547 Q1266.0313,543.9844 1266.0313,542.7031 L1266.0313,541.5469 Q1266.0313,540.2188 1266.6484,539.0703 Q1267.2656,537.9219 1268.3594,537.3047 Q1269.4531,536.6875 1270.6875,536.6875 Q1271.4219,536.6875 1272.0703,536.8516 Q1272.7188,537.0156 1273.2656,537.375 Z "/><text fill="#000000" font-family="sans-serif" font-size="12" lengthAdjust="spacingAndGlyphs" textLength="71" x="1284.5" y="546.4102">Combination</text><line style="stroke: #A80036; stroke-width: 1.5;" x1="1256.5" x2="1357.5" y1="557.5" y2="557.5"/><line style="stroke: #A80036; stroke-width: 1.5;" x1="1256.5" x2="1357.5" y1="565.5" y2="565.5"/><!--class mastermind.types.Color--><rect fill="#FEFECE" filter="url(#f1kkahqk14k2dd)" height="48" id="mastermind.types.Color" style="stroke: #A80036; stroke-width: 1.5;" width="62" x="1256" y="979"/><ellipse cx="1271" cy="995" fill="#ADD1B2" rx="11" ry="11" style="stroke: #A80036; stroke-width: 1.0;"/><path d="M1273.7656,990.875 Q1273.9219,990.6563 1274.1094,990.5469 Q1274.2969,990.4375 1274.5156,990.4375 Q1274.8906,990.4375 1275.125,990.6953 Q1275.3594,990.9531 1275.3594,991.5625 L1275.3594,993.0156 Q1275.3594,993.625 1275.125,993.8906 Q1274.8906,994.1563 1274.5156,994.1563 Q1274.1719,994.1563 1273.9688,993.9531 Q1273.7656,993.7656 1273.6563,993.25 Q1273.6094,992.8906 1273.4219,992.7031 Q1273.0938,992.3281 1272.4844,992.1094 Q1271.875,991.8906 1271.25,991.8906 Q1270.4844,991.8906 1269.8516,992.2188 Q1269.2188,992.5469 1268.7266,993.2969 Q1268.2344,994.0469 1268.2344,995.0781 L1268.2344,996.1719 Q1268.2344,997.4063 1269.125,998.2266 Q1270.0156,999.0469 1271.6094,999.0469 Q1272.5469,999.0469 1273.2031,998.7969 Q1273.5938,998.6406 1274.0156,998.2031 Q1274.2813,997.9375 1274.4297,997.8594 Q1274.5781,997.7813 1274.7813,997.7813 Q1275.1094,997.7813 1275.3672,998.0391 Q1275.625,998.2969 1275.625,998.6406 Q1275.625,998.9844 1275.2813,999.3906 Q1274.7813,999.9688 1273.9844,1000.2969 Q1272.9063,1000.75 1271.6094,1000.75 Q1270.0938,1000.75 1268.8906,1000.125 Q1267.9063,999.625 1267.2188,998.5547 Q1266.5313,997.4844 1266.5313,996.2031 L1266.5313,995.0469 Q1266.5313,993.7188 1267.1484,992.5703 Q1267.7656,991.4219 1268.8594,990.8047 Q1269.9531,990.1875 1271.1875,990.1875 Q1271.9219,990.1875 1272.5703,990.3516 Q1273.2188,990.5156 1273.7656,990.875 Z "/><text fill="#000000" font-family="sans-serif" font-size="12" lengthAdjust="spacingAndGlyphs" textLength="30" x="1285" y="999.9102">Color</text><line style="stroke: #A80036; stroke-width: 1.5;" x1="1257" x2="1317" y1="1011" y2="1011"/><line style="stroke: #A80036; stroke-width: 1.5;" x1="1257" x2="1317" y1="1019" y2="1019"/><!--class mastermind.types.Error--><rect fill="#FEFECE" filter="url(#f1kkahqk14k2dd)" height="48" id="mastermind.types.Error" style="stroke: #A80036; stroke-width: 1.5;" width="59" x="1161.5" y="979"/><ellipse cx="1176.5" cy="995" fill="#ADD1B2" rx="11" ry="11" style="stroke: #A80036; stroke-width: 1.0;"/><path d="M1179.2656,990.875 Q1179.4219,990.6563 1179.6094,990.5469 Q1179.7969,990.4375 1180.0156,990.4375 Q1180.3906,990.4375 1180.625,990.6953 Q1180.8594,990.9531 1180.8594,991.5625 L1180.8594,993.0156 Q1180.8594,993.625 1180.625,993.8906 Q1180.3906,994.1563 1180.0156,994.1563 Q1179.6719,994.1563 1179.4688,993.9531 Q1179.2656,993.7656 1179.1563,993.25 Q1179.1094,992.8906 1178.9219,992.7031 Q1178.5938,992.3281 1177.9844,992.1094 Q1177.375,991.8906 1176.75,991.8906 Q1175.9844,991.8906 1175.3516,992.2188 Q1174.7188,992.5469 1174.2266,993.2969 Q1173.7344,994.0469 1173.7344,995.0781 L1173.7344,996.1719 Q1173.7344,997.4063 1174.625,998.2266 Q1175.5156,999.0469 1177.1094,999.0469 Q1178.0469,999.0469 1178.7031,998.7969 Q1179.0938,998.6406 1179.5156,998.2031 Q1179.7813,997.9375 1179.9297,997.8594 Q1180.0781,997.7813 1180.2813,997.7813 Q1180.6094,997.7813 1180.8672,998.0391 Q1181.125,998.2969 1181.125,998.6406 Q1181.125,998.9844 1180.7813,999.3906 Q1180.2813,999.9688 1179.4844,1000.2969 Q1178.4063,1000.75 1177.1094,1000.75 Q1175.5938,1000.75 1174.3906,1000.125 Q1173.4063,999.625 1172.7188,998.5547 Q1172.0313,997.4844 1172.0313,996.2031 L1172.0313,995.0469 Q1172.0313,993.7188 1172.6484,992.5703 Q1173.2656,991.4219 1174.3594,990.8047 Q1175.4531,990.1875 1176.6875,990.1875 Q1177.4219,990.1875 1178.0703,990.3516 Q1178.7188,990.5156 1179.2656,990.875 Z "/><text fill="#000000" font-family="sans-serif" font-size="12" lengthAdjust="spacingAndGlyphs" textLength="27" x="1190.5" y="999.9102">Error</text><line style="stroke: #A80036; stroke-width: 1.5;" x1="1162.5" x2="1219.5" y1="1011" y2="1011"/><line style="stroke: #A80036; stroke-width: 1.5;" x1="1162.5" x2="1219.5" y1="1019" y2="1019"/><!--link mastermind.controllers.Controller to mastermind.controllers.AcceptorController--><path d="M556.32,211.18 C552.414,239.496 548.261,269.609 545.121,292.37 " fill="none" id="mastermind.controllers.Controller-mastermind.controllers.AcceptorController" style="stroke: #A80036; stroke-width: 1.0;"/><polygon fill="none" points="549.435,209.865,559.102,191.009,563.304,211.778,549.435,209.865" style="stroke: #A80036; stroke-width: 1.0;"/><!--link mastermind.controllers.AcceptorController to mastermind.controllers.ControllersVisitor--><path d="M552.377,368.804 C563.69,402.899 580.575,453.789 593.492,492.718 " fill="none" id="mastermind.controllers.AcceptorController-mastermind.controllers.ControllersVisitor" style="stroke: #A80036; stroke-width: 1.0; stroke-dasharray: 7.0,7.0;"/><polygon fill="#A80036" points="595.207,497.886,596.1699,488.0843,593.6327,493.1403,588.5767,490.6032,595.207,497.886" style="stroke: #A80036; stroke-width: 1.0;"/><!--link mastermind.controllers.Controller to mastermind.models.Session--><path d="M660.155,188.762 C662.101,189.551 664.051,190.299 666,191 C897.374,274.248 997.355,138.491 1216,251 C1300.25,294.351 1277.49,360.058 1358,410 C1443.4,462.97 1493.62,412.443 1576,470 C1591.97,481.156 1604.99,498.385 1614.44,513.863 " fill="none" id="mastermind.controllers.Controller-mastermind.models.Session" style="stroke: #A80036; stroke-width: 1.0;"/><polygon fill="#A80036" points="1620.96,525.229,1619.9468,515.4324,1618.47,520.8931,1613.0093,519.4164,1620.96,525.229" style="stroke: #A80036; stroke-width: 1.0;"/><line style="stroke: #A80036; stroke-width: 1.0;" x1="1618.47" x2="1614.495" y1="520.8931" y2="513.9545"/><polygon fill="#A80036" points="648.268,183.438,652.1086,189.5412,659.2196,188.3435,655.3789,182.2402,648.268,183.438" style="stroke: #A80036; stroke-width: 1.0;"/><!--link mastermind.controllers.Controller to mastermind.models.StateValue--><path d="M648.229,183.549 C654.089,186.381 660.042,188.91 666,191 C938.518,286.567 1040.09,156.564 1313,251 C1436.03,293.571 1444.95,347.233 1559,410 C1614.75,440.681 1638.86,430.811 1689,470 C1707.12,484.165 1723.26,504.516 1734.67,520.947 " fill="none" id="mastermind.controllers.Controller-mastermind.models.StateValue" style="stroke: #A80036; stroke-width: 1.0; stroke-dasharray: 7.0,7.0;"/><polygon fill="#A80036" points="1737.76,525.47,1735.9868,515.7821,1734.9399,521.3412,1729.3807,520.2943,1737.76,525.47" style="stroke: #A80036; stroke-width: 1.0;"/><!--link mastermind.controllers.ControllersVisitor to mastermind.controllers.StartController--><path d="M641.215,601.161 C663.241,639.353 693.566,691.94 717.075,732.705 " fill="none" id="mastermind.controllers.ControllersVisitor-mastermind.controllers.StartController" style="stroke: #A80036; stroke-width: 1.0; stroke-dasharray: 7.0,7.0;"/><polygon fill="#A80036" points="719.617,737.113,718.5872,727.3181,717.1197,732.7813,711.6565,731.3138,719.617,737.113" style="stroke: #A80036; stroke-width: 1.0;"/><!--link mastermind.controllers.ControllersVisitor to mastermind.controllers.PlayController--><path d="M713.636,601.06 C732.665,610.418 752.414,620.057 771,629 C827.616,656.242 844.264,658.155 899,689 C903.647,691.619 908.338,694.327 913.048,697.102 " fill="none" id="mastermind.controllers.ControllersVisitor-mastermind.controllers.PlayController" style="stroke: #A80036; stroke-width: 1.0; stroke-dasharray: 7.0,7.0;"/><polygon fill="#A80036" points="917.378,699.67,911.676,691.6396,913.077,697.1202,907.5964,698.5213,917.378,699.67" style="stroke: #A80036; stroke-width: 1.0;"/><!--link mastermind.controllers.ControllersVisitor to mastermind.controllers.SaveController--><path d="M495.765,598.054 C439.289,622.726 371.214,654.822 313,689 C296.951,698.422 280.488,709.181 264.666,720.147 " fill="none" id="mastermind.controllers.ControllersVisitor-mastermind.controllers.SaveController" style="stroke: #A80036; stroke-width: 1.0; stroke-dasharray: 7.0,7.0;"/><polygon fill="#A80036" points="260.222,723.245,269.8931,721.382,264.3245,720.3867,265.3198,714.8181,260.222,723.245" style="stroke: #A80036; stroke-width: 1.0;"/><!--link mastermind.controllers.ControllersVisitor to mastermind.controllers.ResumeController--><path d="M580.506,601.161 C553.94,643.893 516.172,704.645 490.029,746.697 " fill="none" id="mastermind.controllers.ControllersVisitor-mastermind.controllers.ResumeController" style="stroke: #A80036; stroke-width: 1.0; stroke-dasharray: 7.0,7.0;"/><polygon fill="#A80036" points="487.378,750.962,495.5264,745.43,490.0176,746.7155,488.7321,741.2067,487.378,750.962" style="stroke: #A80036; stroke-width: 1.0;"/><!--link mastermind.controllers.ExitController to mastermind.models.SessionImplementation--><path d="M824.214,163.543 C840.761,173.809 859.561,184.035 878,191 C1020.73,244.913 1083.15,175.97 1216,251 C1334.75,318.067 1425.87,460.404 1460.65,520.642 " fill="none" id="mastermind.controllers.ExitController-mastermind.models.SessionImplementation" style="stroke: #A80036; stroke-width: 1.0; stroke-dasharray: 7.0,7.0;"/><polygon fill="#A80036" points="1463.26,525.18,1462.2559,515.3825,1460.7741,520.8418,1455.3148,519.3599,1463.26,525.18" style="stroke: #A80036; stroke-width: 1.0;"/><!--link mastermind.controllers.AcceptorController to mastermind.controllers.GameController--><path d="M622.551,378.517 C670.928,406.071 733.17,441.521 788.284,472.911 " fill="none" id="mastermind.controllers.AcceptorController-mastermind.controllers.GameController" style="stroke: #A80036; stroke-width: 1.0;"/><polygon fill="none" points="618.978,384.538,605.063,368.557,625.907,372.373,618.978,384.538" style="stroke: #A80036; stroke-width: 1.0;"/><!--link mastermind.controllers.GameController to mastermind.types.Color--><path d="M1053.76,606.446 C1126.53,638.222 1204.32,674.48 1216,689 C1284.82,774.552 1289.76,913.85 1288.39,973.4642 " fill="none" id="mastermind.controllers.GameController-mastermind.types.Color" style="stroke: #A80036; stroke-width: 1.0; stroke-dasharray: 7.0,7.0;"/><polygon fill="#A80036" points="1288.25,978.6404,1292.4922,969.752,1288.3854,973.6422,1284.4951,969.5354,1288.25,978.6404" style="stroke: #A80036; stroke-width: 1.0;"/><!--link mastermind.controllers.Logic to mastermind.models.Session--><path d="M1211.6,139.408 C1302.76,154.104 1413.06,185.247 1491,251 C1573.45,320.557 1610.96,449.244 1624.99,512.075 " fill="none" id="mastermind.controllers.Logic-mastermind.models.Session" style="stroke: #A80036; stroke-width: 1.0;"/><polygon fill="#A80036" points="1627.78,525.146,1629.8149,515.5097,1626.7372,520.256,1621.9909,517.1782,1627.78,525.146" style="stroke: #A80036; stroke-width: 1.0;"/><line style="stroke: #A80036; stroke-width: 1.0;" x1="1626.7372" x2="1625.06" y1="520.256" y2="512.432"/><polygon fill="#A80036" points="1198.59,137.4,1203.9086,142.2696,1210.4492,139.233,1205.1306,134.3634,1198.59,137.4" style="stroke: #A80036; stroke-width: 1.0;"/><!--link mastermind.controllers.Logic to mastermind.controllers.AcceptorController--><path d="M904.491,181.533 C895.546,184.788 886.661,187.968 878,191 C795.219,219.982 770.936,217.206 690,251 C665.521,261.221 639.659,273.992 616.431,286.244 " fill="none" id="mastermind.controllers.Logic-mastermind.controllers.AcceptorController" style="stroke: #A80036; stroke-width: 1.0;"/><polygon fill="#A80036" points="604.903,292.395,614.7264,291.6873,609.3143,290.0413,610.9604,284.6292,604.903,292.395" style="stroke: #A80036; stroke-width: 1.0;"/><line style="stroke: #A80036; stroke-width: 1.0;" x1="609.3143" x2="616.372" y1="290.0413" y2="286.2755"/><polygon fill="#A80036" points="916.712,177.055,909.7021,175.3635,905.4446,181.1835,912.4545,182.8751,916.712,177.055" style="stroke: #A80036; stroke-width: 1.0;"/><!--link mastermind.controllers.Logic to mastermind.models.StateValue--><path d="M1211.76,133.867 C1321.32,146.008 1463.53,176.392 1567,251 C1660.73,318.584 1717.23,449.707 1740.14,512.838 " fill="none" id="mastermind.controllers.Logic-mastermind.models.StateValue" style="stroke: #A80036; stroke-width: 1.0;"/><polygon fill="#A80036" points="1744.52,525.23,1745.2917,515.4114,1742.8536,520.5159,1737.7491,518.0777,1744.52,525.23" style="stroke: #A80036; stroke-width: 1.0;"/><line style="stroke: #A80036; stroke-width: 1.0;" x1="1742.8536" x2="1740.18" y1="520.5159" y2="512.9725"/><polygon fill="#A80036" points="1198.57,132.475,1204.1145,137.0857,1210.503,133.741,1204.9585,129.1303,1198.57,132.475" style="stroke: #A80036; stroke-width: 1.0;"/><!--link mastermind.controllers.GameController to mastermind.controllers.PlayController--><path d="M975.042,646.948 C982.742,660.69 990.698,674.888 998.495,688.803 " fill="none" id="mastermind.controllers.GameController-mastermind.controllers.PlayController" style="stroke: #A80036; stroke-width: 1.0;"/><polygon fill="none" points="968.772,650.077,965.102,629.207,980.985,643.233,968.772,650.077" style="stroke: #A80036; stroke-width: 1.0;"/><!--link mastermind.controllers.PlayController to mastermind.types.Error--><path d="M1126.84,903.103 C1143.9,929.402 1160.76,955.384 1172.91,974.1135 " fill="none" id="mastermind.controllers.PlayController-mastermind.types.Error" style="stroke: #A80036; stroke-width: 1.0; stroke-dasharray: 7.0,7.0;"/><polygon fill="#A80036" points="1175.89,978.7146,1174.3531,968.9864,1173.1712,974.5184,1167.6392,973.3365,1175.89,978.7146" style="stroke: #A80036; stroke-width: 1.0;"/><!--link mastermind.controllers.Controller to mastermind.controllers.ProposalController--><path d="M664.491,197.728 C687.784,214.923 712.806,233.393 736.527,250.904 " fill="none" id="mastermind.controllers.Controller-mastermind.controllers.ProposalController" style="stroke: #A80036; stroke-width: 1.0;"/><polygon fill="none" points="660.214,203.271,648.281,185.762,668.529,192.008,660.214,203.271" style="stroke: #A80036; stroke-width: 1.0;"/><!--link mastermind.controllers.ProposalController to mastermind.types.Error--><path d="M978.169,400.17 C1010.6,420.147 1043.71,443.754 1071,470 C1155.14,550.92 1182.35,577.221 1216,689 C1246.49,790.287 1232.94,822.588 1216,927 C1213.42,942.927 1207.93,960.0429 1202.76,973.8964 " fill="none" id="mastermind.controllers.ProposalController-mastermind.types.Error" style="stroke: #A80036; stroke-width: 1.0; stroke-dasharray: 7.0,7.0;"/><polygon fill="#A80036" points="1200.87,978.8445,1207.8139,971.8601,1202.6513,974.1726,1200.3389,969.01,1200.87,978.8445" style="stroke: #A80036; stroke-width: 1.0;"/><!--link mastermind.controllers.ProposalController to mastermind.types.Color--><path d="M978.154,405.405 C1009.73,424.869 1042.45,446.929 1071,470 C1123.08,512.093 1252.36,627.139 1278,689 C1318.54,786.785 1302.61,916.899 1292.67,973.5897 " fill="none" id="mastermind.controllers.ProposalController-mastermind.types.Color" style="stroke: #A80036; stroke-width: 1.0; stroke-dasharray: 7.0,7.0;"/><polygon fill="#A80036" points="1291.73,978.8431,1297.2577,970.6917,1292.6137,973.9218,1289.3836,969.2778,1291.73,978.8431" style="stroke: #A80036; stroke-width: 1.0;"/><!--link mastermind.controllers.ProposalController to mastermind.models.SessionImplementation--><path d="M978.012,403.587 C984.028,405.902 990.04,408.056 996,410 C1158.55,463.026 1219.26,401.678 1376,470 C1404.07,482.237 1431.09,504.269 1449.95,521.884 " fill="none" id="mastermind.controllers.ProposalController-mastermind.models.SessionImplementation" style="stroke: #A80036; stroke-width: 1.0; stroke-dasharray: 7.0,7.0;"/><polygon fill="#A80036" points="1453.61,525.344,1449.8083,516.2584,1449.973,521.9129,1444.3186,522.0776,1453.61,525.344" style="stroke: #A80036; stroke-width: 1.0;"/><!--link mastermind.controllers.ProposalController to mastermind.models.Combination--><path d="M978.308,402.76 C984.242,405.302 990.156,407.729 996,410 C1090.06,446.563 1125.81,422.781 1215,470 C1240.19,483.334 1264.53,504.597 1281.84,521.632 " fill="none" id="mastermind.controllers.ProposalController-mastermind.models.Combination" style="stroke: #A80036; stroke-width: 1.0; stroke-dasharray: 7.0,7.0;"/><polygon fill="#A80036" points="1285.65,525.419,1282.0941,516.2345,1282.1066,521.8913,1276.4498,521.9039,1285.65,525.419" style="stroke: #A80036; stroke-width: 1.0;"/><!--link mastermind.controllers.Controller to mastermind.controllers.RedoController--><path d="M666.842,190.045 C808.533,242.149 863.602,195.76 995,251 C1015.45,259.598 1035.85,272.466 1053.48,285.309 " fill="none" id="mastermind.controllers.Controller-mastermind.controllers.RedoController" style="stroke: #A80036; stroke-width: 1.0;"/><polygon fill="none" points="664.289,196.562,648.174,182.803,669.352,183.51,664.289,196.562" style="stroke: #A80036; stroke-width: 1.0;"/><!--link mastermind.controllers.RedoController to mastermind.models.SessionImplementation--><path d="M1196.46,375.582 C1261.77,407.844 1343.89,449.433 1376,470 C1400.36,485.607 1425.99,505.813 1445.21,521.817 " fill="none" id="mastermind.controllers.RedoController-mastermind.models.SessionImplementation" style="stroke: #A80036; stroke-width: 1.0; stroke-dasharray: 7.0,7.0;"/><polygon fill="#A80036" points="1449.46,525.372,1445.1132,516.5343,1445.6212,522.1683,1439.9872,522.6763,1449.46,525.372" style="stroke: #A80036; stroke-width: 1.0;"/><!--link mastermind.controllers.AcceptorController to mastermind.controllers.ResumeController--><path d="M509.633,386.84 C497.563,411.549 484.923,441.477 478,470 C454.174,568.162 454.845,687.693 457.419,750.894 " fill="none" id="mastermind.controllers.AcceptorController-mastermind.controllers.ResumeController" style="stroke: #A80036; stroke-width: 1.0;"/><polygon fill="none" points="503.561,383.336,518.858,368.673,516.044,389.675,503.561,383.336" style="stroke: #A80036; stroke-width: 1.0;"/><!--link mastermind.controllers.AcceptorController to mastermind.controllers.SaveController--><path d="M497.376,384.466 C430.304,467.811 300.021,629.705 224.652,723.36 " fill="none" id="mastermind.controllers.AcceptorController-mastermind.controllers.SaveController" style="stroke: #A80036; stroke-width: 1.0;"/><polygon fill="none" points="492.114,379.839,510.106,368.647,503.021,388.617,492.114,379.839" style="stroke: #A80036; stroke-width: 1.0;"/><!--link mastermind.controllers.GameController to mastermind.controllers.StartController--><path d="M855.346,646.049 C834.146,676.903 811.307,710.142 792.594,737.376 " fill="none" id="mastermind.controllers.GameController-mastermind.controllers.StartController" style="stroke: #A80036; stroke-width: 1.0;"/><polygon fill="none" points="849.823,641.727,866.919,629.207,861.362,649.655,849.823,641.727" style="stroke: #A80036; stroke-width: 1.0;"/><!--link mastermind.controllers.Controller to mastermind.controllers.UndoController--><path d="M471.167,193.981 C444.804,212.42 416.275,232.437 390,251 C374.288,262.101 357.355,274.145 341.596,285.388 " fill="none" id="mastermind.controllers.Controller-mastermind.controllers.UndoController" style="stroke: #A80036; stroke-width: 1.0;"/><polygon fill="none" points="467.293,188.148,487.696,182.427,475.314,199.623,467.293,188.148" style="stroke: #A80036; stroke-width: 1.0;"/><!--
@startuml
abstract class mastermind.controllers.AcceptorController {
	~AcceptorController(Session session)
	+{abstract}void accept(ControllersVisitor controllersVisitor)
}
mastermind.controllers.Controller <|-down- mastermind.controllers.AcceptorController
mastermind.controllers.AcceptorController ..> mastermind.controllers.ControllersVisitor

abstract class mastermind.controllers.Controller {
	#Session session
	~Controller(Session session)
	+void setName(String name)
	+int getWidth()
	+StateValue getValueState()
	+String getName()
}
mastermind.controllers.Controller *-down-> mastermind.models.Session
mastermind.controllers.Controller ..> mastermind.models.StateValue

interface mastermind.controllers.ControllersVisitor {
	void visit(StartController startController)
	void visit(PlayController playController)
	void visit(SaveController saveController)
	void visit(ResumeController resumeController)
}
mastermind.controllers.ControllersVisitor ..> mastermind.controllers.StartController
mastermind.controllers.ControllersVisitor ..> mastermind.controllers.PlayController
mastermind.controllers.ControllersVisitor ..> mastermind.controllers.SaveController
mastermind.controllers.ControllersVisitor ..> mastermind.controllers.ResumeController

class mastermind.controllers.ExitController {
	+ExitController(Session session)
	+void next()
}
mastermind.controllers.ExitController ..> mastermind.models.SessionImplementation

abstract class mastermind.controllers.GameController {
	~GameController(Session session)
	+{abstract}int getAttempts()
	+{abstract}List<Color> getColors(int position)
	+{abstract}int getBlacks(int position)
	+{abstract}int getWhites(int position)
	+{abstract}boolean isWinner()
	+{abstract}boolean isLooser()
	+{abstract}void accept(ControllersVisitor controllersVisitor)
}
mastermind.controllers.AcceptorController <|-down- mastermind.controllers.GameController
mastermind.controllers.GameController ..> mastermind.types.Color

class mastermind.controllers.Logic {
	#Session session
	#Map<StateValue,AcceptorController> acceptorControllers
	#Logic()
	+AcceptorController getController()
}
mastermind.controllers.Logic *-down-> mastermind.models.Session
mastermind.controllers.Logic *-down-> mastermind.controllers.AcceptorController
mastermind.controllers.Logic *-down-> mastermind.models.StateValue

abstract class mastermind.controllers.PlayController {
	#PlayController(Session session)
	+{abstract}Error addProposedCombination(List<Color> colors)
	+{abstract}void undo()
	+{abstract}void redo()
	+{abstract}void next()
	+{abstract}boolean undoable()
	+{abstract}boolean redoable()
	+{abstract}List<Color> getColors(int position)
	+{abstract}int getBlacks(int position)
	+{abstract}int getWhites(int position)
	+{abstract}int getAttempts()
	+void accept(ControllersVisitor controllersVisitor)
}
mastermind.controllers.GameController <|-down- mastermind.controllers.PlayController
mastermind.controllers.PlayController ..> mastermind.types.Error

class mastermind.controllers.ProposalController {
	+ProposalController(Session session)
	+Error addProposedCombination(List<Color> colors)
	+boolean isWinner()
	+boolean isLooser()
	+int getAttempts()
	+List<Color> getColors(int position)
	+int getBlacks(int position)
	+int getWhites(int position)
}
mastermind.controllers.Controller <|-down- mastermind.controllers.ProposalController
mastermind.controllers.ProposalController ..> mastermind.types.Error
mastermind.controllers.ProposalController ..> mastermind.types.Color
mastermind.controllers.ProposalController ..> mastermind.models.SessionImplementation
mastermind.controllers.ProposalController ..> mastermind.models.Combination

class mastermind.controllers.RedoController {
	+RedoController(Session session)
	+void redo()
	+boolean redoable()
}
mastermind.controllers.Controller <|-down- mastermind.controllers.RedoController
mastermind.controllers.RedoController ..> mastermind.models.SessionImplementation

abstract class mastermind.controllers.ResumeController {
	+ResumeController(Session session)
	+{abstract}void isNewGame(boolean newGame)
	+void accept(ControllersVisitor controllersVisitor)
}
mastermind.controllers.AcceptorController <|-down- mastermind.controllers.ResumeController

abstract class mastermind.controllers.SaveController {
	+SaveController(Session session)
	+{abstract}void save(String name)
	+{abstract}void save()
	+{abstract}void next()
	+{abstract}boolean hasName()
	+{abstract}boolean exists(String readString)
	+void accept(ControllersVisitor controllersVisitor)
}
mastermind.controllers.AcceptorController <|-down- mastermind.controllers.SaveController

abstract class mastermind.controllers.StartController {
	+StartController(Session session)
	+{abstract}void start()
	+{abstract}void start(String title)
	+{abstract}String[] getGamesNames()
	+void accept(ControllersVisitor controllersVisitor)
}
mastermind.controllers.GameController <|-down- mastermind.controllers.StartController

class mastermind.controllers.UndoController {
	+UndoController(Session session)
	+void undo()
	+boolean undoable()
}
mastermind.controllers.Controller <|-down- mastermind.controllers.UndoController
@enduml

PlantUML version 1.2019.05(Sat Apr 20 18:45:36 CEST 2019)
(GPL source distribution)
Java Runtime: OpenJDK Runtime Environment
JVM: OpenJDK 64-Bit Server VM
Java Version: 1.8.0_222-b10
Operating System: Windows 10
OS Version: 10.0
Default Encoding: windows-1252
Language: es
Country: ES
--></g></svg>