<?xml version="1.0" encoding="UTF-8" standalone="no"?><svg xmlns="http://www.w3.org/2000/svg" xmlns:xlink="http://www.w3.org/1999/xlink" contentScriptType="application/ecmascript" contentStyleType="text/css" height="1093px" preserveAspectRatio="none" style="width:1190px;height:1093px;" version="1.1" viewBox="0 0 1190 1093" width="1190px" zoomAndPan="magnify"><defs><filter height="300%" id="fuq7qam5lom5w" width="300%" x="-1" y="-1"><feGaussianBlur result="blurOut" stdDeviation="2.0"/><feColorMatrix in="blurOut" result="blurOut2" type="matrix" values="0 0 0 0 0 0 0 0 0 0 0 0 0 0 0 0 0 0 .4 0"/><feOffset dx="4.0" dy="4.0" in="blurOut2" result="blurOut3"/><feBlend in="SourceGraphic" in2="blurOut3" mode="normal"/></filter></defs><g><!--cluster mastermind.controllers--><polygon fill="#FFFFFF" filter="url(#fuq7qam5lom5w)" points="22,24,191,24,198,47.6094,793,47.6094,793,957,22,957,22,24" style="stroke: #000000; stroke-width: 1.5;"/><line style="stroke: #000000; stroke-width: 1.5;" x1="22" x2="198" y1="47.6094" y2="47.6094"/><text fill="#000000" font-family="sans-serif" font-size="14" font-weight="bold" lengthAdjust="spacingAndGlyphs" textLength="163" x="26" y="40.5332">mastermind.controllers</text><!--cluster mastermind.models--><polygon fill="#FFFFFF" filter="url(#fuq7qam5lom5w)" points="726,981,869,981,876,1004.6094,963,1004.6094,963,1081,726,1081,726,981" style="stroke: #000000; stroke-width: 1.5;"/><line style="stroke: #000000; stroke-width: 1.5;" x1="726" x2="876" y1="1004.6094" y2="1004.6094"/><text fill="#000000" font-family="sans-serif" font-size="14" font-weight="bold" lengthAdjust="spacingAndGlyphs" textLength="137" x="730" y="997.5332">mastermind.models</text><!--cluster java.util--><polygon fill="#FFFFFF" filter="url(#fuq7qam5lom5w)" points="1080,214.5,1141,214.5,1148,238.1094,1168,238.1094,1168,314.5,1080,314.5,1080,214.5" style="stroke: #000000; stroke-width: 1.5;"/><line style="stroke: #000000; stroke-width: 1.5;" x1="1080" x2="1148" y1="238.1094" y2="238.1094"/><text fill="#000000" font-family="sans-serif" font-size="14" font-weight="bold" lengthAdjust="spacingAndGlyphs" textLength="55" x="1084" y="231.0332">java.util</text><!--class mastermind.controllers.AcceptorController--><rect fill="#FEFECE" filter="url(#fuq7qam5lom5w)" height="75.6719" id="mastermind.controllers.AcceptorController" style="stroke: #A80036; stroke-width: 1.5;" width="180" x="38" y="420.5"/><ellipse cx="74.15" cy="436.5" fill="#ADD1B2" rx="11" ry="11" style="stroke: #A80036; stroke-width: 1.0;"/><path d="M76.9156,432.375 Q77.0719,432.1563 77.2594,432.0469 Q77.4469,431.9375 77.6656,431.9375 Q78.0406,431.9375 78.275,432.1953 Q78.5094,432.4531 78.5094,433.0625 L78.5094,434.5156 Q78.5094,435.125 78.275,435.3906 Q78.0406,435.6563 77.6656,435.6563 Q77.3219,435.6563 77.1188,435.4531 Q76.9156,435.2656 76.8063,434.75 Q76.7594,434.3906 76.5719,434.2031 Q76.2438,433.8281 75.6344,433.6094 Q75.025,433.3906 74.4,433.3906 Q73.6344,433.3906 73.0016,433.7188 Q72.3688,434.0469 71.8766,434.7969 Q71.3844,435.5469 71.3844,436.5781 L71.3844,437.6719 Q71.3844,438.9063 72.275,439.7266 Q73.1656,440.5469 74.7594,440.5469 Q75.6969,440.5469 76.3531,440.2969 Q76.7438,440.1406 77.1656,439.7031 Q77.4313,439.4375 77.5797,439.3594 Q77.7281,439.2813 77.9313,439.2813 Q78.2594,439.2813 78.5172,439.5391 Q78.775,439.7969 78.775,440.1406 Q78.775,440.4844 78.4313,440.8906 Q77.9313,441.4688 77.1344,441.7969 Q76.0563,442.25 74.7594,442.25 Q73.2438,442.25 72.0406,441.625 Q71.0563,441.125 70.3688,440.0547 Q69.6813,438.9844 69.6813,437.7031 L69.6813,436.5469 Q69.6813,435.2188 70.2984,434.0703 Q70.9156,432.9219 72.0094,432.3047 Q73.1031,431.6875 74.3375,431.6875 Q75.0719,431.6875 75.7203,431.8516 Q76.3688,432.0156 76.9156,432.375 Z "/><text fill="#000000" font-family="sans-serif" font-size="12" lengthAdjust="spacingAndGlyphs" textLength="101" x="92.85" y="441.4102">AcceptorController</text><line style="stroke: #A80036; stroke-width: 1.5;" x1="39" x2="217" y1="452.5" y2="452.5"/><line style="stroke: #A80036; stroke-width: 1.5;" x1="39" x2="217" y1="460.5" y2="460.5"/><polygon fill="#4177AF" points="49,468.918,45,474.918,53,474.918" style="stroke: #1963A0; stroke-width: 1.0;"/><text fill="#000000" font-family="sans-serif" font-size="11" lengthAdjust="spacingAndGlyphs" textLength="138" x="58" y="475.9189">AcceptorController(Session)</text><ellipse cx="49" cy="486.7539" fill="#84BE84" rx="3" ry="3" style="stroke: #038048; stroke-width: 1.0;"/><text fill="#000000" font-family="sans-serif" font-size="11" font-style="italic" lengthAdjust="spacingAndGlyphs" textLength="154" x="58" y="489.7549">accept(ControllersVisitor): void</text><!--class mastermind.controllers.Controller--><rect fill="#FEFECE" filter="url(#fuq7qam5lom5w)" height="103.3438" id="mastermind.controllers.Controller" style="stroke: #A80036; stroke-width: 1.5;" width="161" x="541.5" y="223"/><ellipse cx="590.75" cy="239" fill="#ADD1B2" rx="11" ry="11" style="stroke: #A80036; stroke-width: 1.0;"/><path d="M593.5156,234.875 Q593.6719,234.6563 593.8594,234.5469 Q594.0469,234.4375 594.2656,234.4375 Q594.6406,234.4375 594.875,234.6953 Q595.1094,234.9531 595.1094,235.5625 L595.1094,237.0156 Q595.1094,237.625 594.875,237.8906 Q594.6406,238.1563 594.2656,238.1563 Q593.9219,238.1563 593.7188,237.9531 Q593.5156,237.7656 593.4063,237.25 Q593.3594,236.8906 593.1719,236.7031 Q592.8438,236.3281 592.2344,236.1094 Q591.625,235.8906 591,235.8906 Q590.2344,235.8906 589.6016,236.2188 Q588.9688,236.5469 588.4766,237.2969 Q587.9844,238.0469 587.9844,239.0781 L587.9844,240.1719 Q587.9844,241.4063 588.875,242.2266 Q589.7656,243.0469 591.3594,243.0469 Q592.2969,243.0469 592.9531,242.7969 Q593.3438,242.6406 593.7656,242.2031 Q594.0313,241.9375 594.1797,241.8594 Q594.3281,241.7813 594.5313,241.7813 Q594.8594,241.7813 595.1172,242.0391 Q595.375,242.2969 595.375,242.6406 Q595.375,242.9844 595.0313,243.3906 Q594.5313,243.9688 593.7344,244.2969 Q592.6563,244.75 591.3594,244.75 Q589.8438,244.75 588.6406,244.125 Q587.6563,243.625 586.9688,242.5547 Q586.2813,241.4844 586.2813,240.2031 L586.2813,239.0469 Q586.2813,237.7188 586.8984,236.5703 Q587.5156,235.4219 588.6094,234.8047 Q589.7031,234.1875 590.9375,234.1875 Q591.6719,234.1875 592.3203,234.3516 Q592.9688,234.5156 593.5156,234.875 Z "/><text fill="#000000" font-family="sans-serif" font-size="12" lengthAdjust="spacingAndGlyphs" textLength="54" x="611.25" y="243.9102">Controller</text><line style="stroke: #A80036; stroke-width: 1.5;" x1="542.5" x2="701.5" y1="255" y2="255"/><polygon fill="none" points="552.5,262.418,556.5,266.418,552.5,270.418,548.5,266.418" style="stroke: #B38D22; stroke-width: 1.0;"/><text fill="#000000" font-family="sans-serif" font-size="11" lengthAdjust="spacingAndGlyphs" textLength="83" x="561.5" y="270.4189">session: Session</text><line style="stroke: #A80036; stroke-width: 1.5;" x1="542.5" x2="701.5" y1="276.8359" y2="276.8359"/><polygon fill="#4177AF" points="552.5,285.2539,548.5,291.2539,556.5,291.2539" style="stroke: #1963A0; stroke-width: 1.0;"/><text fill="#000000" font-family="sans-serif" font-size="11" lengthAdjust="spacingAndGlyphs" textLength="93" x="561.5" y="292.2549">Controller(Session)</text><ellipse cx="552.5" cy="303.0898" fill="#84BE84" rx="3" ry="3" style="stroke: #038048; stroke-width: 1.0;"/><text fill="#000000" font-family="sans-serif" font-size="11" lengthAdjust="spacingAndGlyphs" textLength="135" x="561.5" y="306.0908">getValueState(): StateValue</text><ellipse cx="552.5" cy="316.9258" fill="#84BE84" rx="3" ry="3" style="stroke: #038048; stroke-width: 1.0;"/><text fill="#000000" font-family="sans-serif" font-size="11" lengthAdjust="spacingAndGlyphs" textLength="67" x="561.5" y="319.9268">getWidth(): int</text><!--class mastermind.controllers.ControllersVisitor--><rect fill="#FEFECE" filter="url(#fuq7qam5lom5w)" height="89.5078" id="mastermind.controllers.ControllersVisitor" style="stroke: #A80036; stroke-width: 1.5;" width="170" x="164" y="591"/><ellipse cx="198.35" cy="607" fill="#ADD1B2" rx="11" ry="11" style="stroke: #A80036; stroke-width: 1.0;"/><path d="M201.1156,602.875 Q201.2719,602.6563 201.4594,602.5469 Q201.6469,602.4375 201.8656,602.4375 Q202.2406,602.4375 202.475,602.6953 Q202.7094,602.9531 202.7094,603.5625 L202.7094,605.0156 Q202.7094,605.625 202.475,605.8906 Q202.2406,606.1563 201.8656,606.1563 Q201.5219,606.1563 201.3188,605.9531 Q201.1156,605.7656 201.0063,605.25 Q200.9594,604.8906 200.7719,604.7031 Q200.4438,604.3281 199.8344,604.1094 Q199.225,603.8906 198.6,603.8906 Q197.8344,603.8906 197.2016,604.2188 Q196.5688,604.5469 196.0766,605.2969 Q195.5844,606.0469 195.5844,607.0781 L195.5844,608.1719 Q195.5844,609.4063 196.475,610.2266 Q197.3656,611.0469 198.9594,611.0469 Q199.8969,611.0469 200.5531,610.7969 Q200.9438,610.6406 201.3656,610.2031 Q201.6313,609.9375 201.7797,609.8594 Q201.9281,609.7813 202.1313,609.7813 Q202.4594,609.7813 202.7172,610.0391 Q202.975,610.2969 202.975,610.6406 Q202.975,610.9844 202.6313,611.3906 Q202.1313,611.9688 201.3344,612.2969 Q200.2563,612.75 198.9594,612.75 Q197.4438,612.75 196.2406,612.125 Q195.2563,611.625 194.5688,610.5547 Q193.8813,609.4844 193.8813,608.2031 L193.8813,607.0469 Q193.8813,605.7188 194.4984,604.5703 Q195.1156,603.4219 196.2094,602.8047 Q197.3031,602.1875 198.5375,602.1875 Q199.2719,602.1875 199.9203,602.3516 Q200.5688,602.5156 201.1156,602.875 Z "/><text fill="#000000" font-family="sans-serif" font-size="12" lengthAdjust="spacingAndGlyphs" textLength="95" x="216.65" y="611.9102">ControllersVisitor</text><line style="stroke: #A80036; stroke-width: 1.5;" x1="165" x2="333" y1="623" y2="623"/><line style="stroke: #A80036; stroke-width: 1.5;" x1="165" x2="333" y1="631" y2="631"/><ellipse cx="175" cy="643.418" fill="#84BE84" rx="3" ry="3" style="stroke: #038048; stroke-width: 1.0;"/><text fill="#000000" font-family="sans-serif" font-size="11" font-style="italic" lengthAdjust="spacingAndGlyphs" textLength="126" x="184" y="646.4189">visit(StartController): void</text><ellipse cx="175" cy="657.2539" fill="#84BE84" rx="3" ry="3" style="stroke: #038048; stroke-width: 1.0;"/><text fill="#000000" font-family="sans-serif" font-size="11" font-style="italic" lengthAdjust="spacingAndGlyphs" textLength="124" x="184" y="660.2549">visit(PlayController): void</text><ellipse cx="175" cy="671.0898" fill="#84BE84" rx="3" ry="3" style="stroke: #038048; stroke-width: 1.0;"/><text fill="#000000" font-family="sans-serif" font-size="11" font-style="italic" lengthAdjust="spacingAndGlyphs" textLength="144" x="184" y="674.0908">visit(ResumeController): void</text><!--class mastermind.controllers.ResumeController--><rect fill="#FEFECE" filter="url(#fuq7qam5lom5w)" height="89.5078" id="mastermind.controllers.ResumeController" style="stroke: #A80036; stroke-width: 1.5;" width="176" x="71" y="796"/><ellipse cx="104.9" cy="812" fill="#ADD1B2" rx="11" ry="11" style="stroke: #A80036; stroke-width: 1.0;"/><path d="M107.6656,807.875 Q107.8219,807.6563 108.0094,807.5469 Q108.1969,807.4375 108.4156,807.4375 Q108.7906,807.4375 109.025,807.6953 Q109.2594,807.9531 109.2594,808.5625 L109.2594,810.0156 Q109.2594,810.625 109.025,810.8906 Q108.7906,811.1563 108.4156,811.1563 Q108.0719,811.1563 107.8688,810.9531 Q107.6656,810.7656 107.5563,810.25 Q107.5094,809.8906 107.3219,809.7031 Q106.9938,809.3281 106.3844,809.1094 Q105.775,808.8906 105.15,808.8906 Q104.3844,808.8906 103.7516,809.2188 Q103.1188,809.5469 102.6266,810.2969 Q102.1344,811.0469 102.1344,812.0781 L102.1344,813.1719 Q102.1344,814.4063 103.025,815.2266 Q103.9156,816.0469 105.5094,816.0469 Q106.4469,816.0469 107.1031,815.7969 Q107.4938,815.6406 107.9156,815.2031 Q108.1813,814.9375 108.3297,814.8594 Q108.4781,814.7813 108.6813,814.7813 Q109.0094,814.7813 109.2672,815.0391 Q109.525,815.2969 109.525,815.6406 Q109.525,815.9844 109.1813,816.3906 Q108.6813,816.9688 107.8844,817.2969 Q106.8063,817.75 105.5094,817.75 Q103.9938,817.75 102.7906,817.125 Q101.8063,816.625 101.1188,815.5547 Q100.4313,814.4844 100.4313,813.2031 L100.4313,812.0469 Q100.4313,810.7188 101.0484,809.5703 Q101.6656,808.4219 102.7594,807.8047 Q103.8531,807.1875 105.0875,807.1875 Q105.8219,807.1875 106.4703,807.3516 Q107.1188,807.5156 107.6656,807.875 Z "/><text fill="#000000" font-family="sans-serif" font-size="12" lengthAdjust="spacingAndGlyphs" textLength="102" x="123.1" y="816.9102">ResumeController</text><line style="stroke: #A80036; stroke-width: 1.5;" x1="72" x2="246" y1="828" y2="828"/><line style="stroke: #A80036; stroke-width: 1.5;" x1="72" x2="246" y1="836" y2="836"/><ellipse cx="82" cy="848.418" fill="#84BE84" rx="3" ry="3" style="stroke: #038048; stroke-width: 1.0;"/><text fill="#000000" font-family="sans-serif" font-size="11" lengthAdjust="spacingAndGlyphs" textLength="132" x="91" y="851.4189">ResumeController(Session)</text><ellipse cx="82" cy="862.2539" fill="#84BE84" rx="3" ry="3" style="stroke: #038048; stroke-width: 1.0;"/><text fill="#000000" font-family="sans-serif" font-size="11" lengthAdjust="spacingAndGlyphs" textLength="150" x="91" y="865.2549">accept(ControllersVisitor): void</text><ellipse cx="82" cy="876.0898" fill="#84BE84" rx="3" ry="3" style="stroke: #038048; stroke-width: 1.0;"/><text fill="#000000" font-family="sans-serif" font-size="11" font-style="italic" lengthAdjust="spacingAndGlyphs" textLength="111" x="91" y="879.0908">resume(boolean): void</text><!--class mastermind.controllers.StartController--><rect fill="#FEFECE" filter="url(#fuq7qam5lom5w)" height="89.5078" id="mastermind.controllers.StartController" style="stroke: #A80036; stroke-width: 1.5;" width="176" x="282" y="796"/><ellipse cx="326.25" cy="812" fill="#ADD1B2" rx="11" ry="11" style="stroke: #A80036; stroke-width: 1.0;"/><path d="M329.0156,807.875 Q329.1719,807.6563 329.3594,807.5469 Q329.5469,807.4375 329.7656,807.4375 Q330.1406,807.4375 330.375,807.6953 Q330.6094,807.9531 330.6094,808.5625 L330.6094,810.0156 Q330.6094,810.625 330.375,810.8906 Q330.1406,811.1563 329.7656,811.1563 Q329.4219,811.1563 329.2188,810.9531 Q329.0156,810.7656 328.9063,810.25 Q328.8594,809.8906 328.6719,809.7031 Q328.3438,809.3281 327.7344,809.1094 Q327.125,808.8906 326.5,808.8906 Q325.7344,808.8906 325.1016,809.2188 Q324.4688,809.5469 323.9766,810.2969 Q323.4844,811.0469 323.4844,812.0781 L323.4844,813.1719 Q323.4844,814.4063 324.375,815.2266 Q325.2656,816.0469 326.8594,816.0469 Q327.7969,816.0469 328.4531,815.7969 Q328.8438,815.6406 329.2656,815.2031 Q329.5313,814.9375 329.6797,814.8594 Q329.8281,814.7813 330.0313,814.7813 Q330.3594,814.7813 330.6172,815.0391 Q330.875,815.2969 330.875,815.6406 Q330.875,815.9844 330.5313,816.3906 Q330.0313,816.9688 329.2344,817.2969 Q328.1563,817.75 326.8594,817.75 Q325.3438,817.75 324.1406,817.125 Q323.1563,816.625 322.4688,815.5547 Q321.7813,814.4844 321.7813,813.2031 L321.7813,812.0469 Q321.7813,810.7188 322.3984,809.5703 Q323.0156,808.4219 324.1094,807.8047 Q325.2031,807.1875 326.4375,807.1875 Q327.1719,807.1875 327.8203,807.3516 Q328.4688,807.5156 329.0156,807.875 Z "/><text fill="#000000" font-family="sans-serif" font-size="12" lengthAdjust="spacingAndGlyphs" textLength="79" x="346.75" y="816.9102">StartController</text><line style="stroke: #A80036; stroke-width: 1.5;" x1="283" x2="457" y1="828" y2="828"/><line style="stroke: #A80036; stroke-width: 1.5;" x1="283" x2="457" y1="836" y2="836"/><ellipse cx="293" cy="848.418" fill="#84BE84" rx="3" ry="3" style="stroke: #038048; stroke-width: 1.0;"/><text fill="#000000" font-family="sans-serif" font-size="11" lengthAdjust="spacingAndGlyphs" textLength="116" x="302" y="851.4189">StartController(Session)</text><ellipse cx="293" cy="862.2539" fill="#84BE84" rx="3" ry="3" style="stroke: #038048; stroke-width: 1.0;"/><text fill="#000000" font-family="sans-serif" font-size="11" lengthAdjust="spacingAndGlyphs" textLength="150" x="302" y="865.2549">accept(ControllersVisitor): void</text><ellipse cx="293" cy="876.0898" fill="#84BE84" rx="3" ry="3" style="stroke: #038048; stroke-width: 1.0;"/><text fill="#000000" font-family="sans-serif" font-size="11" font-style="italic" lengthAdjust="spacingAndGlyphs" textLength="56" x="302" y="879.0908">start(): void</text><!--class mastermind.controllers.PlayController--><rect fill="#FEFECE" filter="url(#fuq7qam5lom5w)" height="200.1953" id="mastermind.controllers.PlayController" style="stroke: #A80036; stroke-width: 1.5;" width="176" x="493" y="741"/><ellipse cx="538.25" cy="757" fill="#ADD1B2" rx="11" ry="11" style="stroke: #A80036; stroke-width: 1.0;"/><path d="M541.0156,752.875 Q541.1719,752.6563 541.3594,752.5469 Q541.5469,752.4375 541.7656,752.4375 Q542.1406,752.4375 542.375,752.6953 Q542.6094,752.9531 542.6094,753.5625 L542.6094,755.0156 Q542.6094,755.625 542.375,755.8906 Q542.1406,756.1563 541.7656,756.1563 Q541.4219,756.1563 541.2188,755.9531 Q541.0156,755.7656 540.9063,755.25 Q540.8594,754.8906 540.6719,754.7031 Q540.3438,754.3281 539.7344,754.1094 Q539.125,753.8906 538.5,753.8906 Q537.7344,753.8906 537.1016,754.2188 Q536.4688,754.5469 535.9766,755.2969 Q535.4844,756.0469 535.4844,757.0781 L535.4844,758.1719 Q535.4844,759.4063 536.375,760.2266 Q537.2656,761.0469 538.8594,761.0469 Q539.7969,761.0469 540.4531,760.7969 Q540.8438,760.6406 541.2656,760.2031 Q541.5313,759.9375 541.6797,759.8594 Q541.8281,759.7813 542.0313,759.7813 Q542.3594,759.7813 542.6172,760.0391 Q542.875,760.2969 542.875,760.6406 Q542.875,760.9844 542.5313,761.3906 Q542.0313,761.9688 541.2344,762.2969 Q540.1563,762.75 538.8594,762.75 Q537.3438,762.75 536.1406,762.125 Q535.1563,761.625 534.4688,760.5547 Q533.7813,759.4844 533.7813,758.2031 L533.7813,757.0469 Q533.7813,755.7188 534.3984,754.5703 Q535.0156,753.4219 536.1094,752.8047 Q537.2031,752.1875 538.4375,752.1875 Q539.1719,752.1875 539.8203,752.3516 Q540.4688,752.5156 541.0156,752.875 Z "/><text fill="#000000" font-family="sans-serif" font-size="12" lengthAdjust="spacingAndGlyphs" textLength="77" x="558.75" y="761.9102">PlayController</text><line style="stroke: #A80036; stroke-width: 1.5;" x1="494" x2="668" y1="773" y2="773"/><line style="stroke: #A80036; stroke-width: 1.5;" x1="494" x2="668" y1="781" y2="781"/><polygon fill="#FFFF44" points="504,788.418,508,792.418,504,796.418,500,792.418" style="stroke: #B38D22; stroke-width: 1.0;"/><text fill="#000000" font-family="sans-serif" font-size="11" lengthAdjust="spacingAndGlyphs" textLength="113" x="513" y="796.4189">PlayController(Session)</text><ellipse cx="504" cy="807.2539" fill="#84BE84" rx="3" ry="3" style="stroke: #038048; stroke-width: 1.0;"/><text fill="#000000" font-family="sans-serif" font-size="11" lengthAdjust="spacingAndGlyphs" textLength="150" x="513" y="810.2549">accept(ControllersVisitor): void</text><ellipse cx="504" cy="821.0898" fill="#84BE84" rx="3" ry="3" style="stroke: #038048; stroke-width: 1.0;"/><text fill="#000000" font-family="sans-serif" font-size="11" font-style="italic" lengthAdjust="spacingAndGlyphs" textLength="98" x="513" y="824.0908">redoable(): boolean</text><ellipse cx="504" cy="834.9258" fill="#84BE84" rx="3" ry="3" style="stroke: #038048; stroke-width: 1.0;"/><text fill="#000000" font-family="sans-serif" font-size="11" font-style="italic" lengthAdjust="spacingAndGlyphs" textLength="97" x="513" y="837.9268">isLooser(): boolean</text><ellipse cx="504" cy="848.7617" fill="#84BE84" rx="3" ry="3" style="stroke: #038048; stroke-width: 1.0;"/><text fill="#000000" font-family="sans-serif" font-size="11" font-style="italic" lengthAdjust="spacingAndGlyphs" textLength="99" x="513" y="851.7627">isWinner(): boolean</text><ellipse cx="504" cy="862.5977" fill="#84BE84" rx="3" ry="3" style="stroke: #038048; stroke-width: 1.0;"/><text fill="#000000" font-family="sans-serif" font-size="11" font-style="italic" lengthAdjust="spacingAndGlyphs" textLength="58" x="513" y="865.5986">undo(): void</text><ellipse cx="504" cy="876.4336" fill="#84BE84" rx="3" ry="3" style="stroke: #038048; stroke-width: 1.0;"/><text fill="#000000" font-family="sans-serif" font-size="11" font-style="italic" lengthAdjust="spacingAndGlyphs" textLength="56" x="513" y="879.4346">redo(): void</text><ellipse cx="504" cy="890.2695" fill="#84BE84" rx="3" ry="3" style="stroke: #038048; stroke-width: 1.0;"/><text fill="#000000" font-family="sans-serif" font-size="11" font-style="italic" lengthAdjust="spacingAndGlyphs" textLength="64" x="513" y="893.2705">getTurn(): int</text><ellipse cx="504" cy="904.1055" fill="#84BE84" rx="3" ry="3" style="stroke: #038048; stroke-width: 1.0;"/><text fill="#000000" font-family="sans-serif" font-size="11" font-style="italic" lengthAdjust="spacingAndGlyphs" textLength="104" x="513" y="907.1064">getAllCodes(): int[][][]</text><ellipse cx="504" cy="917.9414" fill="#84BE84" rx="3" ry="3" style="stroke: #038048; stroke-width: 1.0;"/><text fill="#000000" font-family="sans-serif" font-size="11" font-style="italic" lengthAdjust="spacingAndGlyphs" textLength="100" x="513" y="920.9424">undoable(): boolean</text><ellipse cx="504" cy="931.7773" fill="#84BE84" rx="3" ry="3" style="stroke: #038048; stroke-width: 1.0;"/><text fill="#000000" font-family="sans-serif" font-size="11" font-style="italic" lengthAdjust="spacingAndGlyphs" textLength="147" x="513" y="934.7783">proposeCombination(int[]): int</text><!--class mastermind.controllers.Logic--><rect fill="#FEFECE" filter="url(#fuq7qam5lom5w)" height="103.3438" id="mastermind.controllers.Logic" style="stroke: #A80036; stroke-width: 1.5;" width="309" x="467.5" y="60"/><ellipse cx="602.75" cy="76" fill="#ADD1B2" rx="11" ry="11" style="stroke: #A80036; stroke-width: 1.0;"/><path d="M605.5156,71.875 Q605.6719,71.6563 605.8594,71.5469 Q606.0469,71.4375 606.2656,71.4375 Q606.6406,71.4375 606.875,71.6953 Q607.1094,71.9531 607.1094,72.5625 L607.1094,74.0156 Q607.1094,74.625 606.875,74.8906 Q606.6406,75.1563 606.2656,75.1563 Q605.9219,75.1563 605.7188,74.9531 Q605.5156,74.7656 605.4063,74.25 Q605.3594,73.8906 605.1719,73.7031 Q604.8438,73.3281 604.2344,73.1094 Q603.625,72.8906 603,72.8906 Q602.2344,72.8906 601.6016,73.2188 Q600.9688,73.5469 600.4766,74.2969 Q599.9844,75.0469 599.9844,76.0781 L599.9844,77.1719 Q599.9844,78.4063 600.875,79.2266 Q601.7656,80.0469 603.3594,80.0469 Q604.2969,80.0469 604.9531,79.7969 Q605.3438,79.6406 605.7656,79.2031 Q606.0313,78.9375 606.1797,78.8594 Q606.3281,78.7813 606.5313,78.7813 Q606.8594,78.7813 607.1172,79.0391 Q607.375,79.2969 607.375,79.6406 Q607.375,79.9844 607.0313,80.3906 Q606.5313,80.9688 605.7344,81.2969 Q604.6563,81.75 603.3594,81.75 Q601.8438,81.75 600.6406,81.125 Q599.6563,80.625 598.9688,79.5547 Q598.2813,78.4844 598.2813,77.2031 L598.2813,76.0469 Q598.2813,74.7188 598.8984,73.5703 Q599.5156,72.4219 600.6094,71.8047 Q601.7031,71.1875 602.9375,71.1875 Q603.6719,71.1875 604.3203,71.3516 Q604.9688,71.5156 605.5156,71.875 Z "/><text fill="#000000" font-family="sans-serif" font-size="12" lengthAdjust="spacingAndGlyphs" textLength="30" x="623.25" y="80.9102">Logic</text><line style="stroke: #A80036; stroke-width: 1.5;" x1="468.5" x2="775.5" y1="92" y2="92"/><polygon fill="none" points="478.5,99.418,482.5,103.418,478.5,107.418,474.5,103.418" style="stroke: #B38D22; stroke-width: 1.0;"/><text fill="#000000" font-family="sans-serif" font-size="11" lengthAdjust="spacingAndGlyphs" textLength="83" x="487.5" y="107.4189">session: Session</text><polygon fill="none" points="478.5,113.2539,482.5,117.2539,478.5,121.2539,474.5,117.2539" style="stroke: #B38D22; stroke-width: 1.0;"/><text fill="#000000" font-family="sans-serif" font-size="11" lengthAdjust="spacingAndGlyphs" textLength="283" x="487.5" y="121.2549">acceptorControllers: Map&lt;StateValue, AcceptorController&gt;</text><line style="stroke: #A80036; stroke-width: 1.5;" x1="468.5" x2="775.5" y1="127.6719" y2="127.6719"/><polygon fill="#FFFF44" points="478.5,135.0898,482.5,139.0898,478.5,143.0898,474.5,139.0898" style="stroke: #B38D22; stroke-width: 1.0;"/><text fill="#000000" font-family="sans-serif" font-size="11" lengthAdjust="spacingAndGlyphs" textLength="34" x="487.5" y="143.0908">Logic()</text><ellipse cx="478.5" cy="153.9258" fill="#84BE84" rx="3" ry="3" style="stroke: #038048; stroke-width: 1.0;"/><text fill="#000000" font-family="sans-serif" font-size="11" lengthAdjust="spacingAndGlyphs" textLength="166" x="487.5" y="156.9268">getController(): AcceptorController</text><!--class mastermind.controllers.ProposalController--><rect fill="#FEFECE" filter="url(#fuq7qam5lom5w)" height="144.8516" id="mastermind.controllers.ProposalController" style="stroke: #A80036; stroke-width: 1.5;" width="166" x="253" y="386"/><ellipse cx="281.5" cy="402" fill="#ADD1B2" rx="11" ry="11" style="stroke: #A80036; stroke-width: 1.0;"/><path d="M284.2656,397.875 Q284.4219,397.6563 284.6094,397.5469 Q284.7969,397.4375 285.0156,397.4375 Q285.3906,397.4375 285.625,397.6953 Q285.8594,397.9531 285.8594,398.5625 L285.8594,400.0156 Q285.8594,400.625 285.625,400.8906 Q285.3906,401.1563 285.0156,401.1563 Q284.6719,401.1563 284.4688,400.9531 Q284.2656,400.7656 284.1563,400.25 Q284.1094,399.8906 283.9219,399.7031 Q283.5938,399.3281 282.9844,399.1094 Q282.375,398.8906 281.75,398.8906 Q280.9844,398.8906 280.3516,399.2188 Q279.7188,399.5469 279.2266,400.2969 Q278.7344,401.0469 278.7344,402.0781 L278.7344,403.1719 Q278.7344,404.4063 279.625,405.2266 Q280.5156,406.0469 282.1094,406.0469 Q283.0469,406.0469 283.7031,405.7969 Q284.0938,405.6406 284.5156,405.2031 Q284.7813,404.9375 284.9297,404.8594 Q285.0781,404.7813 285.2813,404.7813 Q285.6094,404.7813 285.8672,405.0391 Q286.125,405.2969 286.125,405.6406 Q286.125,405.9844 285.7813,406.3906 Q285.2813,406.9688 284.4844,407.2969 Q283.4063,407.75 282.1094,407.75 Q280.5938,407.75 279.3906,407.125 Q278.4063,406.625 277.7188,405.5547 Q277.0313,404.4844 277.0313,403.2031 L277.0313,402.0469 Q277.0313,400.7188 277.6484,399.5703 Q278.2656,398.4219 279.3594,397.8047 Q280.4531,397.1875 281.6875,397.1875 Q282.4219,397.1875 283.0703,397.3516 Q283.7188,397.5156 284.2656,397.875 Z "/><text fill="#000000" font-family="sans-serif" font-size="12" lengthAdjust="spacingAndGlyphs" textLength="104" x="298.5" y="406.9102">ProposalController</text><line style="stroke: #A80036; stroke-width: 1.5;" x1="254" x2="418" y1="418" y2="418"/><ellipse cx="264" cy="430.418" fill="none" rx="3" ry="3" style="stroke: #038048; stroke-width: 1.0;"/><text fill="#000000" font-family="sans-serif" font-size="11" lengthAdjust="spacingAndGlyphs" text-decoration="underline" textLength="73" x="273" y="433.4189">NO_ERROR: int</text><line style="stroke: #A80036; stroke-width: 1.5;" x1="254" x2="418" y1="439.8359" y2="439.8359"/><ellipse cx="264" cy="452.2539" fill="#84BE84" rx="3" ry="3" style="stroke: #038048; stroke-width: 1.0;"/><text fill="#000000" font-family="sans-serif" font-size="11" lengthAdjust="spacingAndGlyphs" textLength="135" x="273" y="455.2549">ProposalController(Session)</text><ellipse cx="264" cy="466.0898" fill="#84BE84" rx="3" ry="3" style="stroke: #038048; stroke-width: 1.0;"/><text fill="#000000" font-family="sans-serif" font-size="11" lengthAdjust="spacingAndGlyphs" textLength="94" x="273" y="469.0908">isLooser(): boolean</text><ellipse cx="264" cy="479.9258" fill="#84BE84" rx="3" ry="3" style="stroke: #038048; stroke-width: 1.0;"/><text fill="#000000" font-family="sans-serif" font-size="11" lengthAdjust="spacingAndGlyphs" textLength="94" x="273" y="482.9268">isWinner(): boolean</text><ellipse cx="264" cy="493.7617" fill="#84BE84" rx="3" ry="3" style="stroke: #038048; stroke-width: 1.0;"/><text fill="#000000" font-family="sans-serif" font-size="11" lengthAdjust="spacingAndGlyphs" textLength="62" x="273" y="496.7627">getTurn(): int</text><ellipse cx="264" cy="507.5977" fill="#84BE84" rx="3" ry="3" style="stroke: #038048; stroke-width: 1.0;"/><text fill="#000000" font-family="sans-serif" font-size="11" lengthAdjust="spacingAndGlyphs" textLength="101" x="273" y="510.5986">getAllCodes(): int[][][]</text><ellipse cx="264" cy="521.4336" fill="#84BE84" rx="3" ry="3" style="stroke: #038048; stroke-width: 1.0;"/><text fill="#000000" font-family="sans-serif" font-size="11" lengthAdjust="spacingAndGlyphs" textLength="140" x="273" y="524.4346">proposeCombination(int[]): int</text><!--class mastermind.controllers.RedoController--><rect fill="#FEFECE" filter="url(#fuq7qam5lom5w)" height="89.5078" id="mastermind.controllers.RedoController" style="stroke: #A80036; stroke-width: 1.5;" width="144" x="454" y="413.5"/><ellipse cx="481.6" cy="429.5" fill="#ADD1B2" rx="11" ry="11" style="stroke: #A80036; stroke-width: 1.0;"/><path d="M484.3656,425.375 Q484.5219,425.1563 484.7094,425.0469 Q484.8969,424.9375 485.1156,424.9375 Q485.4906,424.9375 485.725,425.1953 Q485.9594,425.4531 485.9594,426.0625 L485.9594,427.5156 Q485.9594,428.125 485.725,428.3906 Q485.4906,428.6563 485.1156,428.6563 Q484.7719,428.6563 484.5688,428.4531 Q484.3656,428.2656 484.2563,427.75 Q484.2094,427.3906 484.0219,427.2031 Q483.6938,426.8281 483.0844,426.6094 Q482.475,426.3906 481.85,426.3906 Q481.0844,426.3906 480.4516,426.7188 Q479.8188,427.0469 479.3266,427.7969 Q478.8344,428.5469 478.8344,429.5781 L478.8344,430.6719 Q478.8344,431.9063 479.725,432.7266 Q480.6156,433.5469 482.2094,433.5469 Q483.1469,433.5469 483.8031,433.2969 Q484.1938,433.1406 484.6156,432.7031 Q484.8813,432.4375 485.0297,432.3594 Q485.1781,432.2813 485.3813,432.2813 Q485.7094,432.2813 485.9672,432.5391 Q486.225,432.7969 486.225,433.1406 Q486.225,433.4844 485.8813,433.8906 Q485.3813,434.4688 484.5844,434.7969 Q483.5063,435.25 482.2094,435.25 Q480.6938,435.25 479.4906,434.625 Q478.5063,434.125 477.8188,433.0547 Q477.1313,431.9844 477.1313,430.7031 L477.1313,429.5469 Q477.1313,428.2188 477.7484,427.0703 Q478.3656,425.9219 479.4594,425.3047 Q480.5531,424.6875 481.7875,424.6875 Q482.5219,424.6875 483.1703,424.8516 Q483.8188,425.0156 484.3656,425.375 Z "/><text fill="#000000" font-family="sans-serif" font-size="12" lengthAdjust="spacingAndGlyphs" textLength="84" x="498.4" y="434.4102">RedoController</text><line style="stroke: #A80036; stroke-width: 1.5;" x1="455" x2="597" y1="445.5" y2="445.5"/><line style="stroke: #A80036; stroke-width: 1.5;" x1="455" x2="597" y1="453.5" y2="453.5"/><ellipse cx="465" cy="465.918" fill="#84BE84" rx="3" ry="3" style="stroke: #038048; stroke-width: 1.0;"/><text fill="#000000" font-family="sans-serif" font-size="11" lengthAdjust="spacingAndGlyphs" textLength="118" x="474" y="468.9189">RedoController(Session)</text><ellipse cx="465" cy="479.7539" fill="#84BE84" rx="3" ry="3" style="stroke: #038048; stroke-width: 1.0;"/><text fill="#000000" font-family="sans-serif" font-size="11" lengthAdjust="spacingAndGlyphs" textLength="94" x="474" y="482.7549">redoable(): boolean</text><ellipse cx="465" cy="493.5898" fill="#84BE84" rx="3" ry="3" style="stroke: #038048; stroke-width: 1.0;"/><text fill="#000000" font-family="sans-serif" font-size="11" lengthAdjust="spacingAndGlyphs" textLength="56" x="474" y="496.5908">redo(): void</text><!--class mastermind.controllers.UndoController--><rect fill="#FEFECE" filter="url(#fuq7qam5lom5w)" height="89.5078" id="mastermind.controllers.UndoController" style="stroke: #A80036; stroke-width: 1.5;" width="144" x="633" y="413.5"/><ellipse cx="660.6" cy="429.5" fill="#ADD1B2" rx="11" ry="11" style="stroke: #A80036; stroke-width: 1.0;"/><path d="M663.3656,425.375 Q663.5219,425.1563 663.7094,425.0469 Q663.8969,424.9375 664.1156,424.9375 Q664.4906,424.9375 664.725,425.1953 Q664.9594,425.4531 664.9594,426.0625 L664.9594,427.5156 Q664.9594,428.125 664.725,428.3906 Q664.4906,428.6563 664.1156,428.6563 Q663.7719,428.6563 663.5688,428.4531 Q663.3656,428.2656 663.2563,427.75 Q663.2094,427.3906 663.0219,427.2031 Q662.6938,426.8281 662.0844,426.6094 Q661.475,426.3906 660.85,426.3906 Q660.0844,426.3906 659.4516,426.7188 Q658.8188,427.0469 658.3266,427.7969 Q657.8344,428.5469 657.8344,429.5781 L657.8344,430.6719 Q657.8344,431.9063 658.725,432.7266 Q659.6156,433.5469 661.2094,433.5469 Q662.1469,433.5469 662.8031,433.2969 Q663.1938,433.1406 663.6156,432.7031 Q663.8813,432.4375 664.0297,432.3594 Q664.1781,432.2813 664.3813,432.2813 Q664.7094,432.2813 664.9672,432.5391 Q665.225,432.7969 665.225,433.1406 Q665.225,433.4844 664.8813,433.8906 Q664.3813,434.4688 663.5844,434.7969 Q662.5063,435.25 661.2094,435.25 Q659.6938,435.25 658.4906,434.625 Q657.5063,434.125 656.8188,433.0547 Q656.1313,431.9844 656.1313,430.7031 L656.1313,429.5469 Q656.1313,428.2188 656.7484,427.0703 Q657.3656,425.9219 658.4594,425.3047 Q659.5531,424.6875 660.7875,424.6875 Q661.5219,424.6875 662.1703,424.8516 Q662.8188,425.0156 663.3656,425.375 Z "/><text fill="#000000" font-family="sans-serif" font-size="12" lengthAdjust="spacingAndGlyphs" textLength="84" x="677.4" y="434.4102">UndoController</text><line style="stroke: #A80036; stroke-width: 1.5;" x1="634" x2="776" y1="445.5" y2="445.5"/><line style="stroke: #A80036; stroke-width: 1.5;" x1="634" x2="776" y1="453.5" y2="453.5"/><ellipse cx="644" cy="465.918" fill="#84BE84" rx="3" ry="3" style="stroke: #038048; stroke-width: 1.0;"/><text fill="#000000" font-family="sans-serif" font-size="11" lengthAdjust="spacingAndGlyphs" textLength="118" x="653" y="468.9189">UndoController(Session)</text><ellipse cx="644" cy="479.7539" fill="#84BE84" rx="3" ry="3" style="stroke: #038048; stroke-width: 1.0;"/><text fill="#000000" font-family="sans-serif" font-size="11" lengthAdjust="spacingAndGlyphs" textLength="58" x="653" y="482.7549">undo(): void</text><ellipse cx="644" cy="493.5898" fill="#84BE84" rx="3" ry="3" style="stroke: #038048; stroke-width: 1.0;"/><text fill="#000000" font-family="sans-serif" font-size="11" lengthAdjust="spacingAndGlyphs" textLength="96" x="653" y="496.5908">undoable(): boolean</text><!--class mastermind.models.Session--><rect fill="#FEFECE" filter="url(#fuq7qam5lom5w)" height="48" id="mastermind.models.Session" style="stroke: #A80036; stroke-width: 1.5;" width="78" x="742" y="1017"/><ellipse cx="757" cy="1033" fill="#ADD1B2" rx="11" ry="11" style="stroke: #A80036; stroke-width: 1.0;"/><path d="M759.7656,1028.875 Q759.9219,1028.6563 760.1094,1028.5469 Q760.2969,1028.4375 760.5156,1028.4375 Q760.8906,1028.4375 761.125,1028.6953 Q761.3594,1028.9531 761.3594,1029.5625 L761.3594,1031.0156 Q761.3594,1031.625 761.125,1031.8906 Q760.8906,1032.1563 760.5156,1032.1563 Q760.1719,1032.1563 759.9688,1031.9531 Q759.7656,1031.7656 759.6563,1031.25 Q759.6094,1030.8906 759.4219,1030.7031 Q759.0938,1030.3281 758.4844,1030.1094 Q757.875,1029.8906 757.25,1029.8906 Q756.4844,1029.8906 755.8516,1030.2188 Q755.2188,1030.5469 754.7266,1031.2969 Q754.2344,1032.0469 754.2344,1033.0781 L754.2344,1034.1719 Q754.2344,1035.4063 755.125,1036.2266 Q756.0156,1037.0469 757.6094,1037.0469 Q758.5469,1037.0469 759.2031,1036.7969 Q759.5938,1036.6406 760.0156,1036.2031 Q760.2813,1035.9375 760.4297,1035.8594 Q760.5781,1035.7813 760.7813,1035.7813 Q761.1094,1035.7813 761.3672,1036.0391 Q761.625,1036.2969 761.625,1036.6406 Q761.625,1036.9844 761.2813,1037.3906 Q760.7813,1037.9688 759.9844,1038.2969 Q758.9063,1038.75 757.6094,1038.75 Q756.0938,1038.75 754.8906,1038.125 Q753.9063,1037.625 753.2188,1036.5547 Q752.5313,1035.4844 752.5313,1034.2031 L752.5313,1033.0469 Q752.5313,1031.7188 753.1484,1030.5703 Q753.7656,1029.4219 754.8594,1028.8047 Q755.9531,1028.1875 757.1875,1028.1875 Q757.9219,1028.1875 758.5703,1028.3516 Q759.2188,1028.5156 759.7656,1028.875 Z "/><text fill="#000000" font-family="sans-serif" font-size="12" lengthAdjust="spacingAndGlyphs" textLength="46" x="771" y="1037.9102">Session</text><line style="stroke: #A80036; stroke-width: 1.5;" x1="743" x2="819" y1="1049" y2="1049"/><line style="stroke: #A80036; stroke-width: 1.5;" x1="743" x2="819" y1="1057" y2="1057"/><!--class mastermind.models.StateValue--><rect fill="#FEFECE" filter="url(#fuq7qam5lom5w)" height="48" id="mastermind.models.StateValue" style="stroke: #A80036; stroke-width: 1.5;" width="91" x="855.5" y="1017"/><ellipse cx="870.5" cy="1033" fill="#ADD1B2" rx="11" ry="11" style="stroke: #A80036; stroke-width: 1.0;"/><path d="M873.2656,1028.875 Q873.4219,1028.6563 873.6094,1028.5469 Q873.7969,1028.4375 874.0156,1028.4375 Q874.3906,1028.4375 874.625,1028.6953 Q874.8594,1028.9531 874.8594,1029.5625 L874.8594,1031.0156 Q874.8594,1031.625 874.625,1031.8906 Q874.3906,1032.1563 874.0156,1032.1563 Q873.6719,1032.1563 873.4688,1031.9531 Q873.2656,1031.7656 873.1563,1031.25 Q873.1094,1030.8906 872.9219,1030.7031 Q872.5938,1030.3281 871.9844,1030.1094 Q871.375,1029.8906 870.75,1029.8906 Q869.9844,1029.8906 869.3516,1030.2188 Q868.7188,1030.5469 868.2266,1031.2969 Q867.7344,1032.0469 867.7344,1033.0781 L867.7344,1034.1719 Q867.7344,1035.4063 868.625,1036.2266 Q869.5156,1037.0469 871.1094,1037.0469 Q872.0469,1037.0469 872.7031,1036.7969 Q873.0938,1036.6406 873.5156,1036.2031 Q873.7813,1035.9375 873.9297,1035.8594 Q874.0781,1035.7813 874.2813,1035.7813 Q874.6094,1035.7813 874.8672,1036.0391 Q875.125,1036.2969 875.125,1036.6406 Q875.125,1036.9844 874.7813,1037.3906 Q874.2813,1037.9688 873.4844,1038.2969 Q872.4063,1038.75 871.1094,1038.75 Q869.5938,1038.75 868.3906,1038.125 Q867.4063,1037.625 866.7188,1036.5547 Q866.0313,1035.4844 866.0313,1034.2031 L866.0313,1033.0469 Q866.0313,1031.7188 866.6484,1030.5703 Q867.2656,1029.4219 868.3594,1028.8047 Q869.4531,1028.1875 870.6875,1028.1875 Q871.4219,1028.1875 872.0703,1028.3516 Q872.7188,1028.5156 873.2656,1028.875 Z "/><text fill="#000000" font-family="sans-serif" font-size="12" lengthAdjust="spacingAndGlyphs" textLength="59" x="884.5" y="1037.9102">StateValue</text><line style="stroke: #A80036; stroke-width: 1.5;" x1="856.5" x2="945.5" y1="1049" y2="1049"/><line style="stroke: #A80036; stroke-width: 1.5;" x1="856.5" x2="945.5" y1="1057" y2="1057"/><!--class java.util.Map--><rect fill="#FEFECE" filter="url(#fuq7qam5lom5w)" height="48" id="java.util.Map" style="stroke: #A80036; stroke-width: 1.5;" width="55" x="1096.5" y="250.5"/><ellipse cx="1111.5" cy="266.5" fill="#ADD1B2" rx="11" ry="11" style="stroke: #A80036; stroke-width: 1.0;"/><path d="M1114.2656,262.375 Q1114.4219,262.1563 1114.6094,262.0469 Q1114.7969,261.9375 1115.0156,261.9375 Q1115.3906,261.9375 1115.625,262.1953 Q1115.8594,262.4531 1115.8594,263.0625 L1115.8594,264.5156 Q1115.8594,265.125 1115.625,265.3906 Q1115.3906,265.6563 1115.0156,265.6563 Q1114.6719,265.6563 1114.4688,265.4531 Q1114.2656,265.2656 1114.1563,264.75 Q1114.1094,264.3906 1113.9219,264.2031 Q1113.5938,263.8281 1112.9844,263.6094 Q1112.375,263.3906 1111.75,263.3906 Q1110.9844,263.3906 1110.3516,263.7188 Q1109.7188,264.0469 1109.2266,264.7969 Q1108.7344,265.5469 1108.7344,266.5781 L1108.7344,267.6719 Q1108.7344,268.9063 1109.625,269.7266 Q1110.5156,270.5469 1112.1094,270.5469 Q1113.0469,270.5469 1113.7031,270.2969 Q1114.0938,270.1406 1114.5156,269.7031 Q1114.7813,269.4375 1114.9297,269.3594 Q1115.0781,269.2813 1115.2813,269.2813 Q1115.6094,269.2813 1115.8672,269.5391 Q1116.125,269.7969 1116.125,270.1406 Q1116.125,270.4844 1115.7813,270.8906 Q1115.2813,271.4688 1114.4844,271.7969 Q1113.4063,272.25 1112.1094,272.25 Q1110.5938,272.25 1109.3906,271.625 Q1108.4063,271.125 1107.7188,270.0547 Q1107.0313,268.9844 1107.0313,267.7031 L1107.0313,266.5469 Q1107.0313,265.2188 1107.6484,264.0703 Q1108.2656,262.9219 1109.3594,262.3047 Q1110.4531,261.6875 1111.6875,261.6875 Q1112.4219,261.6875 1113.0703,261.8516 Q1113.7188,262.0156 1114.2656,262.375 Z "/><text fill="#000000" font-family="sans-serif" font-size="12" lengthAdjust="spacingAndGlyphs" textLength="23" x="1125.5" y="271.4102">Map</text><line style="stroke: #A80036; stroke-width: 1.5;" x1="1097.5" x2="1150.5" y1="282.5" y2="282.5"/><line style="stroke: #A80036; stroke-width: 1.5;" x1="1097.5" x2="1150.5" y1="290.5" y2="290.5"/><!--link mastermind.controllers.Controller to mastermind.controllers.AcceptorController--><path d="M521.648,295.138 C441.68,312.895 328.086,342.902 235,386 C214.827,395.34 194.171,408.221 176.455,420.479 " fill="none" id="mastermind.controllers.Controller-mastermind.controllers.AcceptorController" style="stroke: #A80036; stroke-width: 1.0;"/><polygon fill="none" points="520.191,288.291,541.221,290.887,523.162,301.972,520.191,288.291" style="stroke: #A80036; stroke-width: 1.0;"/><!--link mastermind.controllers.AcceptorController to mastermind.controllers.ControllersVisitor--><path d="M153.661,496.719 C171.712,522.9 196.039,558.185 215.602,586.558 " fill="none" id="mastermind.controllers.AcceptorController-mastermind.controllers.ControllersVisitor" style="stroke: #A80036; stroke-width: 1.0; stroke-dasharray: 7.0,7.0;"/><polygon fill="#A80036" points="218.452,590.693,216.6366,581.0129,215.6139,586.5765,210.0503,585.5539,218.452,590.693" style="stroke: #A80036; stroke-width: 1.0;"/><!--link mastermind.controllers.Controller to mastermind.models.Session--><path d="M714.627,312.647 C745.566,330.036 776.577,354.098 794,386 C908.333,595.347 826.298,901.429 793.16,1004.5778 " fill="none" id="mastermind.controllers.Controller-mastermind.models.Session" style="stroke: #A80036; stroke-width: 1.0;"/><polygon fill="#A80036" points="789.105,1016.9467,795.7098,1009.6408,790.6627,1012.1955,788.108,1007.1484,789.105,1016.9467" style="stroke: #A80036; stroke-width: 1.0;"/><line style="stroke: #A80036; stroke-width: 1.0;" x1="790.6627" x2="793.1555" y1="1012.1955" y2="1004.5936"/><polygon fill="#A80036" points="702.802,306.307,706.1998,312.6674,713.3778,311.9773,709.98,305.6169,702.802,306.307" style="stroke: #A80036; stroke-width: 1.0;"/><!--link mastermind.controllers.Controller to mastermind.models.StateValue--><path d="M702.727,295.481 C751.253,311.749 810.004,339.791 844,386 C989.975,584.419 930.095,913.965 907.904,1011.7936 " fill="none" id="mastermind.controllers.Controller-mastermind.models.StateValue" style="stroke: #A80036; stroke-width: 1.0; stroke-dasharray: 7.0,7.0;"/><polygon fill="#A80036" points="906.751,1016.8202,912.6625,1008.9427,907.8692,1011.9468,904.8651,1007.1536,906.751,1016.8202" style="stroke: #A80036; stroke-width: 1.0;"/><!--link mastermind.controllers.ControllersVisitor to mastermind.controllers.ResumeController--><path d="M229.471,681.048 C215.132,713.391 195.648,757.338 180.801,790.826 " fill="none" id="mastermind.controllers.ControllersVisitor-mastermind.controllers.ResumeController" style="stroke: #A80036; stroke-width: 1.0; stroke-dasharray: 7.0,7.0;"/><polygon fill="#A80036" points="178.646,795.688,185.9492,789.0802,180.6717,791.1167,178.6351,785.8391,178.646,795.688" style="stroke: #A80036; stroke-width: 1.0;"/><!--link mastermind.controllers.ControllersVisitor to mastermind.controllers.StartController--><path d="M275.255,681.048 C294.612,713.523 320.943,757.698 340.934,791.237 " fill="none" id="mastermind.controllers.ControllersVisitor-mastermind.controllers.StartController" style="stroke: #A80036; stroke-width: 1.0; stroke-dasharray: 7.0,7.0;"/><polygon fill="#A80036" points="343.587,795.688,342.4157,785.909,341.0273,791.3929,335.5435,790.0045,343.587,795.688" style="stroke: #A80036; stroke-width: 1.0;"/><!--link mastermind.controllers.ControllersVisitor to mastermind.controllers.PlayController--><path d="M334.251,668.622 C378.093,686.734 431.342,711.688 475,741 C479.562,744.063 484.116,747.323 488.631,750.724 " fill="none" id="mastermind.controllers.ControllersVisitor-mastermind.controllers.PlayController" style="stroke: #A80036; stroke-width: 1.0; stroke-dasharray: 7.0,7.0;"/><polygon fill="#A80036" points="492.765,753.885,488.0458,745.2404,488.7933,750.8476,483.186,751.5951,492.765,753.885" style="stroke: #A80036; stroke-width: 1.0;"/><!--link mastermind.controllers.Logic to mastermind.models.Session--><path d="M742.4,169.446 C843.651,226.641 972,325.23 972,457.5 C972,457.5 972,457.5 972,637 C972,791.924 956.88,849.167 854,965 C848.72,970.944 844.258,968.096 838,973 C825.852,982.521 814.413,994.966 805.015,1006.5434 " fill="none" id="mastermind.controllers.Logic-mastermind.models.Session" style="stroke: #A80036; stroke-width: 1.0;"/><polygon fill="#A80036" points="796.997,1016.8225,805.6865,1012.1864,800.0723,1012.8801,799.3786,1007.2659,796.997,1016.8225" style="stroke: #A80036; stroke-width: 1.0;"/><line style="stroke: #A80036; stroke-width: 1.0;" x1="800.0723" x2="804.9925" y1="1012.8801" y2="1006.5722"/><polygon fill="#A80036" points="730.824,163.018,734.1276,169.4279,741.315,168.8437,738.0114,162.4338,730.824,163.018" style="stroke: #A80036; stroke-width: 1.0;"/><!--link mastermind.controllers.Logic to mastermind.models.StateValue--><path d="M789.285,151.346 C824.966,164.839 860.685,182.777 890,206.5 C991.558,288.686 1043,326.853 1043,457.5 C1043,457.5 1043,457.5 1043,637 C1043,780.809 961.57,937.916 922.038,1005.713 " fill="none" id="mastermind.controllers.Logic-mastermind.models.StateValue" style="stroke: #A80036; stroke-width: 1.0;"/><polygon fill="#A80036" points="915.397,1016.9368,923.4225,1011.2279,917.943,1012.6336,916.5373,1007.1542,915.397,1016.9368" style="stroke: #A80036; stroke-width: 1.0;"/><line style="stroke: #A80036; stroke-width: 1.0;" x1="917.943" x2="922.017" y1="1012.6336" y2="1005.7485"/><polygon fill="#A80036" points="776.677,146.757,780.9467,152.5682,787.953,150.862,783.6834,145.0508,776.677,146.757" style="stroke: #A80036; stroke-width: 1.0;"/><!--link mastermind.controllers.Logic to java.util.Map--><path d="M789.902,121.139 C878.223,132.019 985.241,155.681 1069,206.5 C1082.5,214.688 1094.17,227.414 1103.24,239.585 " fill="none" id="mastermind.controllers.Logic-java.util.Map" style="stroke: #A80036; stroke-width: 1.0;"/><polygon fill="#A80036" points="1110.82,250.46,1108.9575,240.7888,1107.9619,246.3574,1102.3934,245.3618,1110.82,250.46" style="stroke: #A80036; stroke-width: 1.0;"/><line style="stroke: #A80036; stroke-width: 1.0;" x1="1107.9619" x2="1103.385" y1="246.3574" y2="239.796"/><polygon fill="#A80036" points="776.732,119.593,782.2247,124.2653,788.6502,120.9921,783.1574,116.3198,776.732,119.593" style="stroke: #A80036; stroke-width: 1.0;"/><!--link mastermind.controllers.Logic to mastermind.controllers.AcceptorController--><path d="M549.639,163.035 C450.843,232.033 275.729,354.329 185.415,417.402 " fill="none" id="mastermind.controllers.Logic-mastermind.controllers.AcceptorController" style="stroke: #A80036; stroke-width: 1.0;"/><polygon fill="#A80036" points="181.18,420.36,190.8488,418.4855,185.279,417.4968,186.2677,411.927,181.18,420.36" style="stroke: #A80036; stroke-width: 1.0;"/><!--link mastermind.controllers.Logic to mastermind.controllers.Controller--><path d="M622,176.673 C622,187.598 622,198.941 622,209.852 " fill="none" id="mastermind.controllers.Logic-mastermind.controllers.Controller" style="stroke: #A80036; stroke-width: 1.0;"/><polygon fill="#A80036" points="622,222.89,626,213.89,622,217.89,618,213.89,622,222.89" style="stroke: #A80036; stroke-width: 1.0;"/><line style="stroke: #A80036; stroke-width: 1.0;" x1="622" x2="622" y1="217.89" y2="209.89"/><polygon fill="#A80036" points="622,163.441,618,169.441,622,175.441,626,169.441,622,163.441" style="stroke: #A80036; stroke-width: 1.0;"/><!--link mastermind.controllers.AcceptorController to mastermind.controllers.PlayController--><path d="M196.095,507.731 C208.774,515.921 222.097,524.023 235,531 C294.907,563.394 321.462,550.21 376,591 C430.93,632.083 480.23,690.864 516.711,740.998 " fill="none" id="mastermind.controllers.AcceptorController-mastermind.controllers.PlayController" style="stroke: #A80036; stroke-width: 1.0;"/><polygon fill="none" points="192.111,513.489,179.306,496.606,199.845,501.818,192.111,513.489" style="stroke: #A80036; stroke-width: 1.0;"/><!--link mastermind.controllers.PlayController to mastermind.models.Session--><path d="M669.014,929.134 C699.725,959.538 731.967,991.457 753.926,1013.1967 " fill="none" id="mastermind.controllers.PlayController-mastermind.models.Session" style="stroke: #A80036; stroke-width: 1.0; stroke-dasharray: 7.0,7.0;"/><polygon fill="#A80036" points="757.632,1016.8652,754.0495,1007.691,754.0784,1013.3478,748.4217,1013.3767,757.632,1016.8652" style="stroke: #A80036; stroke-width: 1.0;"/><!--link mastermind.controllers.Controller to mastermind.controllers.ProposalController--><path d="M523.967,331.64 C495.306,348.616 464.129,367.635 436,386 C430.46,389.617 424.795,393.406 419.118,397.273 " fill="none" id="mastermind.controllers.Controller-mastermind.controllers.ProposalController" style="stroke: #A80036; stroke-width: 1.0;"/><polygon fill="none" points="520.652,325.469,541.439,321.358,527.752,337.535,520.652,325.469" style="stroke: #A80036; stroke-width: 1.0;"/><!--link mastermind.controllers.Controller to mastermind.controllers.RedoController--><path d="M585.768,344.191 C573.562,367.33 560.275,392.521 549.335,413.261 " fill="none" id="mastermind.controllers.Controller-mastermind.controllers.RedoController" style="stroke: #A80036; stroke-width: 1.0;"/><polygon fill="none" points="579.736,340.621,595.259,326.197,592.119,347.153,579.736,340.621" style="stroke: #A80036; stroke-width: 1.0;"/><!--link mastermind.controllers.AcceptorController to mastermind.controllers.ResumeController--><path d="M132.644,516.744 C136.274,561.469 141.451,625.19 146,681 C149.161,719.785 152.768,763.89 155.38,795.793 " fill="none" id="mastermind.controllers.AcceptorController-mastermind.controllers.ResumeController" style="stroke: #A80036; stroke-width: 1.0;"/><polygon fill="none" points="125.661,517.233,131.02,496.732,139.615,516.1,125.661,517.233" style="stroke: #A80036; stroke-width: 1.0;"/><!--link mastermind.controllers.ResumeController to mastermind.models.Session--><path d="M184.954,886.189 C203.427,913.487 230.812,946.691 264,965 C345.3,1009.8504 627.27,1030.9343 736.91,1037.5785 " fill="none" id="mastermind.controllers.ResumeController-mastermind.models.Session" style="stroke: #A80036; stroke-width: 1.0; stroke-dasharray: 7.0,7.0;"/><polygon fill="#A80036" points="741.999,1037.884,733.2552,1033.3512,737.008,1037.584,732.7752,1041.3368,741.999,1037.884" style="stroke: #A80036; stroke-width: 1.0;"/><!--link mastermind.controllers.AcceptorController to mastermind.controllers.StartController--><path d="M197.761,507.733 C210.022,515.743 222.772,523.783 235,531 C284.986,560.504 318.958,542.602 351,591 C391.807,652.636 386.685,742.622 378.713,795.854 " fill="none" id="mastermind.controllers.AcceptorController-mastermind.controllers.StartController" style="stroke: #A80036; stroke-width: 1.0;"/><polygon fill="none" points="193.655,513.409,180.86,496.518,201.396,501.743,193.655,513.409" style="stroke: #A80036; stroke-width: 1.0;"/><!--link mastermind.controllers.StartController to mastermind.models.Session--><path d="M397.198,886.031 C415.907,912.731 443.09,945.336 475,965 C558.112,1016.2164 674.075,1032.4732 736.682,1037.6224 " fill="none" id="mastermind.controllers.StartController-mastermind.models.Session" style="stroke: #A80036; stroke-width: 1.0; stroke-dasharray: 7.0,7.0;"/><polygon fill="#A80036" points="741.834,1038.0309,733.1788,1033.3312,736.8497,1037.6352,732.5457,1041.3061,741.834,1038.0309" style="stroke: #A80036; stroke-width: 1.0;"/><!--link mastermind.controllers.Controller to mastermind.controllers.UndoController--><path d="M653.483,344.535 C663.992,367.58 675.413,392.623 684.825,413.261 " fill="none" id="mastermind.controllers.Controller-mastermind.controllers.UndoController" style="stroke: #A80036; stroke-width: 1.0;"/><polygon fill="none" points="647.05,347.299,645.12,326.197,659.788,341.49,647.05,347.299" style="stroke: #A80036; stroke-width: 1.0;"/><!--
@startuml

class  mastermind.controllers.AcceptorController{
~ AcceptorController(Session)
+ {abstract} accept(ControllersVisitor): void
}
mastermind.controllers.Controller <|-down- mastermind.controllers.AcceptorController
mastermind.controllers.AcceptorController ..> mastermind.controllers.ControllersVisitor

class  mastermind.controllers.Controller{
# session: Session
~ Controller(Session)
+ getValueState(): StateValue
+ getWidth(): int
}
mastermind.controllers.Controller *-down-> mastermind.models.Session
mastermind.controllers.Controller ..> mastermind.models.StateValue

class  mastermind.controllers.ControllersVisitor{
+ {abstract} visit(StartController): void
+ {abstract} visit(PlayController): void
+ {abstract} visit(ResumeController): void
}
mastermind.controllers.ControllersVisitor ..> mastermind.controllers.ResumeController
mastermind.controllers.ControllersVisitor ..> mastermind.controllers.StartController
mastermind.controllers.ControllersVisitor ..> mastermind.controllers.PlayController

class  mastermind.controllers.Logic{
# session: Session
# acceptorControllers: Map<StateValue, AcceptorController>
# Logic()
+ getController(): AcceptorController
}
mastermind.controllers.Logic *-down-> mastermind.models.Session
mastermind.controllers.Logic *-down-> mastermind.models.StateValue
mastermind.controllers.Logic *-down-> java.util.Map
mastermind.controllers.Logic - -> mastermind.controllers.AcceptorController
mastermind.controllers.Logic *-down-> mastermind.controllers.Controller

class  mastermind.controllers.PlayController{
# PlayController(Session)
+ accept(ControllersVisitor): void
+ {abstract} redoable(): boolean
+ {abstract} isLooser(): boolean
+ {abstract} isWinner(): boolean
+ {abstract} undo(): void
+ {abstract} redo(): void
+ {abstract} getTurn(): int
+ {abstract} getAllCodes(): int[][][]
+ {abstract} undoable(): boolean
+ {abstract} proposeCombination(int[]): int
}
mastermind.controllers.AcceptorController <|-down- mastermind.controllers.PlayController
mastermind.controllers.PlayController ..> mastermind.models.Session

class  mastermind.controllers.ProposalController{
+ {static} NO_ERROR: int
+ ProposalController(Session)
+ isLooser(): boolean
+ isWinner(): boolean
+ getTurn(): int
+ getAllCodes(): int[][][]
+ proposeCombination(int[]): int
}
mastermind.controllers.Controller <|-down- mastermind.controllers.ProposalController

class  mastermind.controllers.RedoController{
+ RedoController(Session)
+ redoable(): boolean
+ redo(): void
}
mastermind.controllers.Controller <|-down- mastermind.controllers.RedoController

class  mastermind.controllers.ResumeController{
+ ResumeController(Session)
+ accept(ControllersVisitor): void
+ {abstract} resume(boolean): void
}
mastermind.controllers.AcceptorController <|-down- mastermind.controllers.ResumeController
mastermind.controllers.ResumeController ..> mastermind.models.Session

class  mastermind.controllers.StartController{
+ StartController(Session)
+ accept(ControllersVisitor): void
+ {abstract} start(): void
}
mastermind.controllers.AcceptorController <|-down- mastermind.controllers.StartController
mastermind.controllers.StartController ..> mastermind.models.Session

class  mastermind.controllers.UndoController{
+ UndoController(Session)
+ undo(): void
+ undoable(): boolean
}
mastermind.controllers.Controller <|-down- mastermind.controllers.UndoController

@enduml

PlantUML version 1.2019.05(Sat Apr 20 18:45:36 CEST 2019)
(GPL source distribution)
Java Runtime: OpenJDK Runtime Environment
JVM: OpenJDK 64-Bit Server VM
Java Version: 1.8.0_222-b10
Operating System: Windows 10
OS Version: 10.0
Default Encoding: windows-1252
Language: es
Country: ES
--></g></svg>