<?xml version="1.0" encoding="UTF-8" standalone="no"?><svg xmlns="http://www.w3.org/2000/svg" xmlns:xlink="http://www.w3.org/1999/xlink" contentScriptType="application/ecmascript" contentStyleType="text/css" height="822px" preserveAspectRatio="none" style="width:1616px;height:822px;" version="1.1" viewBox="0 0 1616 822" width="1616px" zoomAndPan="magnify"><defs><filter height="300%" id="f1cz472m04ezz" width="300%" x="-1" y="-1"><feGaussianBlur result="blurOut" stdDeviation="2.0"/><feColorMatrix in="blurOut" result="blurOut2" type="matrix" values="0 0 0 0 0 0 0 0 0 0 0 0 0 0 0 0 0 0 .4 0"/><feOffset dx="4.0" dy="4.0" in="blurOut2" result="blurOut3"/><feBlend in="SourceGraphic" in2="blurOut3" mode="normal"/></filter></defs><g><!--cluster mastermind.models.Files--><polygon fill="#FFFFFF" filter="url(#f1cz472m04ezz)" points="522,148,703,148,710,171.6094,1594,171.6094,1594,686,522,686,522,148" style="stroke: #000000; stroke-width: 1.5;"/><line style="stroke: #000000; stroke-width: 1.5;" x1="522" x2="710" y1="171.6094" y2="171.6094"/><text fill="#000000" font-family="sans-serif" font-size="14" font-weight="bold" lengthAdjust="spacingAndGlyphs" textLength="175" x="526" y="164.5332">mastermind.models.Files</text><!--cluster mastermind.models.DAO--><polygon fill="#FFFFFF" filter="url(#f1cz472m04ezz)" points="851,24,1028,24,1035,47.6094,1491,47.6094,1491,124,851,124,851,24" style="stroke: #000000; stroke-width: 1.5;"/><line style="stroke: #000000; stroke-width: 1.5;" x1="851" x2="1035" y1="47.6094" y2="47.6094"/><text fill="#000000" font-family="sans-serif" font-size="14" font-weight="bold" lengthAdjust="spacingAndGlyphs" textLength="171" x="855" y="40.5332">mastermind.models.DAO</text><!--cluster mastermind.models--><polygon fill="#FFFFFF" filter="url(#f1cz472m04ezz)" points="22,710,165,710,172,733.6094,580,733.6094,580,810,22,810,22,710" style="stroke: #000000; stroke-width: 1.5;"/><line style="stroke: #000000; stroke-width: 1.5;" x1="22" x2="172" y1="733.6094" y2="733.6094"/><text fill="#000000" font-family="sans-serif" font-size="14" font-weight="bold" lengthAdjust="spacingAndGlyphs" textLength="137" x="26" y="726.5332">mastermind.models</text><!--cluster mastermind.types--><polygon fill="#FFFFFF" filter="url(#f1cz472m04ezz)" points="311,565,441,565,448,588.6094,451,588.6094,451,665,311,665,311,565" style="stroke: #000000; stroke-width: 1.5;"/><line style="stroke: #000000; stroke-width: 1.5;" x1="311" x2="448" y1="588.6094" y2="588.6094"/><text fill="#000000" font-family="sans-serif" font-size="14" font-weight="bold" lengthAdjust="spacingAndGlyphs" textLength="124" x="315" y="581.5332">mastermind.types</text><!--class mastermind.models.Files.CombinationFileDAO--><rect fill="#FEFECE" filter="url(#f1cz472m04ezz)" height="89.5078" id="mastermind.models.Files.CombinationFileDAO" style="stroke: #A80036; stroke-width: 1.5;" width="249" x="584.5" y="423.5"/><ellipse cx="645.75" cy="439.5" fill="#A9DCDF" rx="11" ry="11" style="stroke: #A80036; stroke-width: 1.0;"/><path d="M647.9375,441.2656 L643.7969,441.2656 L643.375,442.2969 L643.7969,442.2969 Q644.4063,442.2969 644.6719,442.5313 Q644.9375,442.7656 644.9375,443.1563 Q644.9375,443.5313 644.6719,443.7656 Q644.4063,444 643.7969,444 L641.5,444 Q640.8906,444 640.6328,443.7656 Q640.375,443.5313 640.375,443.1406 Q640.375,442.7656 640.6484,442.5234 Q640.9219,442.2813 641.5469,442.2969 L644.2188,435.6406 L643.1094,435.6406 Q642.5,435.6406 642.2344,435.4063 Q641.9688,435.1719 641.9688,434.7813 Q641.9688,434.4063 642.2344,434.1719 Q642.5,433.9375 643.1094,433.9375 L646.7813,433.9375 L650.1719,442.2969 Q650.7656,442.2969 650.9531,442.4375 Q651.3438,442.7031 651.3438,443.1563 Q651.3438,443.5313 651.0859,443.7656 Q650.8281,444 650.2188,444 L647.9219,444 Q647.3125,444 647.0469,443.7656 Q646.7813,443.5313 646.7813,443.1406 Q646.7813,442.7656 647.0469,442.5313 Q647.3125,442.2969 647.9219,442.2969 L648.3438,442.2969 L647.9375,441.2656 Z M647.2188,439.5625 L645.8594,436.1875 L644.4844,439.5625 L647.2188,439.5625 Z "/><text fill="#000000" font-family="sans-serif" font-size="12" font-style="italic" lengthAdjust="spacingAndGlyphs" textLength="118" x="666.25" y="444.4102">CombinationFileDAO</text><line style="stroke: #A80036; stroke-width: 1.5;" x1="585.5" x2="832.5" y1="455.5" y2="455.5"/><line style="stroke: #A80036; stroke-width: 1.5;" x1="585.5" x2="832.5" y1="463.5" y2="463.5"/><polygon fill="#4177AF" points="595.5,471.918,591.5,477.918,599.5,477.918" style="stroke: #1963A0; stroke-width: 1.0;"/><text fill="#000000" font-family="sans-serif" font-size="11" lengthAdjust="spacingAndGlyphs" textLength="223" x="604.5" y="478.9189">CombinationFileDAO(Combination combination)</text><ellipse cx="595.5" cy="489.7539" fill="#84BE84" rx="3" ry="3" style="stroke: #038048; stroke-width: 1.0;"/><text fill="#000000" font-family="sans-serif" font-size="11" lengthAdjust="spacingAndGlyphs" textLength="146" x="604.5" y="492.7549">void save(FileWriter fileWriter)</text><ellipse cx="595.5" cy="503.5898" fill="#84BE84" rx="3" ry="3" style="stroke: #038048; stroke-width: 1.0;"/><text fill="#000000" font-family="sans-serif" font-size="11" lengthAdjust="spacingAndGlyphs" textLength="209" x="604.5" y="506.5908">void load(BufferedReader bufferedReader)</text><!--class mastermind.models.Files.FileDAO--><rect fill="#FEFECE" filter="url(#f1cz472m04ezz)" height="75.6719" id="mastermind.models.Files.FileDAO" style="stroke: #A80036; stroke-width: 1.5;" width="221" x="900.5" y="232.5"/><ellipse cx="983.75" cy="248.5" fill="#B4A7E5" rx="11" ry="11" style="stroke: #A80036; stroke-width: 1.0;"/><path d="M984.7031,245.1406 L984.7031,251.7969 L986.4219,251.7969 Q987.0313,251.7969 987.2969,252.0313 Q987.5625,252.2656 987.5625,252.6563 Q987.5625,253.0313 987.2969,253.2656 Q987.0313,253.5 986.4219,253.5 L981.2813,253.5 Q980.6719,253.5 980.4063,253.2656 Q980.1406,253.0313 980.1406,252.6406 Q980.1406,252.2656 980.4063,252.0313 Q980.6719,251.7969 981.2813,251.7969 L983,251.7969 L983,245.1406 L981.2813,245.1406 Q980.6719,245.1406 980.4063,244.9063 Q980.1406,244.6719 980.1406,244.2813 Q980.1406,243.9063 980.4063,243.6719 Q980.6719,243.4375 981.2813,243.4375 L986.4219,243.4375 Q987.0313,243.4375 987.2969,243.6719 Q987.5625,243.9063 987.5625,244.2813 Q987.5625,244.6719 987.2969,244.9063 Q987.0313,245.1406 986.4219,245.1406 L984.7031,245.1406 Z "/><text fill="#000000" font-family="sans-serif" font-size="12" font-style="italic" lengthAdjust="spacingAndGlyphs" textLength="46" x="1004.25" y="253.4102">FileDAO</text><line style="stroke: #A80036; stroke-width: 1.5;" x1="901.5" x2="1120.5" y1="264.5" y2="264.5"/><line style="stroke: #A80036; stroke-width: 1.5;" x1="901.5" x2="1120.5" y1="272.5" y2="272.5"/><text fill="#000000" font-family="sans-serif" font-size="11" lengthAdjust="spacingAndGlyphs" textLength="146" x="906.5" y="287.9189">void save(FileWriter fileWriter)</text><text fill="#000000" font-family="sans-serif" font-size="11" lengthAdjust="spacingAndGlyphs" textLength="209" x="906.5" y="301.7549">void load(BufferedReader bufferedReader)</text><!--class mastermind.models.Files.GameFileDAO--><rect fill="#FEFECE" filter="url(#f1cz472m04ezz)" height="103.3438" id="mastermind.models.Files.GameFileDAO" style="stroke: #A80036; stroke-width: 1.5;" width="286" x="869" y="417"/><ellipse cx="968.25" cy="433" fill="#ADD1B2" rx="11" ry="11" style="stroke: #A80036; stroke-width: 1.0;"/><path d="M971.0156,428.875 Q971.1719,428.6563 971.3594,428.5469 Q971.5469,428.4375 971.7656,428.4375 Q972.1406,428.4375 972.375,428.6953 Q972.6094,428.9531 972.6094,429.5625 L972.6094,431.0156 Q972.6094,431.625 972.375,431.8906 Q972.1406,432.1563 971.7656,432.1563 Q971.4219,432.1563 971.2188,431.9531 Q971.0156,431.7656 970.9063,431.25 Q970.8594,430.8906 970.6719,430.7031 Q970.3438,430.3281 969.7344,430.1094 Q969.125,429.8906 968.5,429.8906 Q967.7344,429.8906 967.1016,430.2188 Q966.4688,430.5469 965.9766,431.2969 Q965.4844,432.0469 965.4844,433.0781 L965.4844,434.1719 Q965.4844,435.4063 966.375,436.2266 Q967.2656,437.0469 968.8594,437.0469 Q969.7969,437.0469 970.4531,436.7969 Q970.8438,436.6406 971.2656,436.2031 Q971.5313,435.9375 971.6797,435.8594 Q971.8281,435.7813 972.0313,435.7813 Q972.3594,435.7813 972.6172,436.0391 Q972.875,436.2969 972.875,436.6406 Q972.875,436.9844 972.5313,437.3906 Q972.0313,437.9688 971.2344,438.2969 Q970.1563,438.75 968.8594,438.75 Q967.3438,438.75 966.1406,438.125 Q965.1563,437.625 964.4688,436.5547 Q963.7813,435.4844 963.7813,434.2031 L963.7813,433.0469 Q963.7813,431.7188 964.3984,430.5703 Q965.0156,429.4219 966.1094,428.8047 Q967.2031,428.1875 968.4375,428.1875 Q969.1719,428.1875 969.8203,428.3516 Q970.4688,428.5156 971.0156,428.875 Z "/><text fill="#000000" font-family="sans-serif" font-size="12" lengthAdjust="spacingAndGlyphs" textLength="79" x="988.75" y="437.9102">GameFileDAO</text><line style="stroke: #A80036; stroke-width: 1.5;" x1="870" x2="1154" y1="449" y2="449"/><rect fill="none" height="6" style="stroke: #C82930; stroke-width: 1.0;" width="6" x="877" y="458.418"/><text fill="#000000" font-family="sans-serif" font-size="11" lengthAdjust="spacingAndGlyphs" textLength="260" x="889" y="464.4189">SecretCombinationFileDAO secretCombinationFileDAO</text><line style="stroke: #A80036; stroke-width: 1.5;" x1="870" x2="1154" y1="470.8359" y2="470.8359"/><polygon fill="#4177AF" points="880,479.2539,876,485.2539,884,485.2539" style="stroke: #1963A0; stroke-width: 1.0;"/><text fill="#000000" font-family="sans-serif" font-size="11" lengthAdjust="spacingAndGlyphs" textLength="132" x="889" y="486.2549">GameFileDAO(Game game)</text><ellipse cx="880" cy="497.0898" fill="#84BE84" rx="3" ry="3" style="stroke: #038048; stroke-width: 1.0;"/><text fill="#000000" font-family="sans-serif" font-size="11" lengthAdjust="spacingAndGlyphs" textLength="146" x="889" y="500.0908">void save(FileWriter fileWriter)</text><ellipse cx="880" cy="510.9258" fill="#84BE84" rx="3" ry="3" style="stroke: #038048; stroke-width: 1.0;"/><text fill="#000000" font-family="sans-serif" font-size="11" lengthAdjust="spacingAndGlyphs" textLength="209" x="889" y="513.9268">void load(BufferedReader bufferedReader)</text><!--class mastermind.models.Files.SecretCombinationFileDAO--><rect fill="#FEFECE" filter="url(#f1cz472m04ezz)" height="75.6719" id="mastermind.models.Files.SecretCombinationFileDAO" style="stroke: #A80036; stroke-width: 1.5;" width="345" x="538.5" y="587"/><ellipse cx="631.25" cy="603" fill="#ADD1B2" rx="11" ry="11" style="stroke: #A80036; stroke-width: 1.0;"/><path d="M634.0156,598.875 Q634.1719,598.6563 634.3594,598.5469 Q634.5469,598.4375 634.7656,598.4375 Q635.1406,598.4375 635.375,598.6953 Q635.6094,598.9531 635.6094,599.5625 L635.6094,601.0156 Q635.6094,601.625 635.375,601.8906 Q635.1406,602.1563 634.7656,602.1563 Q634.4219,602.1563 634.2188,601.9531 Q634.0156,601.7656 633.9063,601.25 Q633.8594,600.8906 633.6719,600.7031 Q633.3438,600.3281 632.7344,600.1094 Q632.125,599.8906 631.5,599.8906 Q630.7344,599.8906 630.1016,600.2188 Q629.4688,600.5469 628.9766,601.2969 Q628.4844,602.0469 628.4844,603.0781 L628.4844,604.1719 Q628.4844,605.4063 629.375,606.2266 Q630.2656,607.0469 631.8594,607.0469 Q632.7969,607.0469 633.4531,606.7969 Q633.8438,606.6406 634.2656,606.2031 Q634.5313,605.9375 634.6797,605.8594 Q634.8281,605.7813 635.0313,605.7813 Q635.3594,605.7813 635.6172,606.0391 Q635.875,606.2969 635.875,606.6406 Q635.875,606.9844 635.5313,607.3906 Q635.0313,607.9688 634.2344,608.2969 Q633.1563,608.75 631.8594,608.75 Q630.3438,608.75 629.1406,608.125 Q628.1563,607.625 627.4688,606.5547 Q626.7813,605.4844 626.7813,604.2031 L626.7813,603.0469 Q626.7813,601.7188 627.3984,600.5703 Q628.0156,599.4219 629.1094,598.8047 Q630.2031,598.1875 631.4375,598.1875 Q632.1719,598.1875 632.8203,598.3516 Q633.4688,598.5156 634.0156,598.875 Z "/><text fill="#000000" font-family="sans-serif" font-size="12" lengthAdjust="spacingAndGlyphs" textLength="151" x="651.75" y="607.9102">SecretCombinationFileDAO</text><line style="stroke: #A80036; stroke-width: 1.5;" x1="539.5" x2="882.5" y1="619" y2="619"/><line style="stroke: #A80036; stroke-width: 1.5;" x1="539.5" x2="882.5" y1="627" y2="627"/><polygon fill="#4177AF" points="549.5,635.418,545.5,641.418,553.5,641.418" style="stroke: #1963A0; stroke-width: 1.0;"/><text fill="#000000" font-family="sans-serif" font-size="11" lengthAdjust="spacingAndGlyphs" textLength="319" x="558.5" y="642.4189">SecretCombinationFileDAO(SecretCombination secretCombination)</text><ellipse cx="549.5" cy="653.2539" fill="#84BE84" rx="3" ry="3" style="stroke: #038048; stroke-width: 1.0;"/><text fill="#000000" font-family="sans-serif" font-size="11" lengthAdjust="spacingAndGlyphs" textLength="209" x="558.5" y="656.2549">void load(BufferedReader bufferedReader)</text><!--class mastermind.models.Files.ProposedCombinationFileDAO--><rect fill="#FEFECE" filter="url(#f1cz472m04ezz)" height="75.6719" id="mastermind.models.Files.ProposedCombinationFileDAO" style="stroke: #A80036; stroke-width: 1.5;" width="388" x="919" y="587"/><ellipse cx="1023.75" cy="603" fill="#ADD1B2" rx="11" ry="11" style="stroke: #A80036; stroke-width: 1.0;"/><path d="M1026.5156,598.875 Q1026.6719,598.6563 1026.8594,598.5469 Q1027.0469,598.4375 1027.2656,598.4375 Q1027.6406,598.4375 1027.875,598.6953 Q1028.1094,598.9531 1028.1094,599.5625 L1028.1094,601.0156 Q1028.1094,601.625 1027.875,601.8906 Q1027.6406,602.1563 1027.2656,602.1563 Q1026.9219,602.1563 1026.7188,601.9531 Q1026.5156,601.7656 1026.4063,601.25 Q1026.3594,600.8906 1026.1719,600.7031 Q1025.8438,600.3281 1025.2344,600.1094 Q1024.625,599.8906 1024,599.8906 Q1023.2344,599.8906 1022.6016,600.2188 Q1021.9688,600.5469 1021.4766,601.2969 Q1020.9844,602.0469 1020.9844,603.0781 L1020.9844,604.1719 Q1020.9844,605.4063 1021.875,606.2266 Q1022.7656,607.0469 1024.3594,607.0469 Q1025.2969,607.0469 1025.9531,606.7969 Q1026.3438,606.6406 1026.7656,606.2031 Q1027.0313,605.9375 1027.1797,605.8594 Q1027.3281,605.7813 1027.5313,605.7813 Q1027.8594,605.7813 1028.1172,606.0391 Q1028.375,606.2969 1028.375,606.6406 Q1028.375,606.9844 1028.0313,607.3906 Q1027.5313,607.9688 1026.7344,608.2969 Q1025.6563,608.75 1024.3594,608.75 Q1022.8438,608.75 1021.6406,608.125 Q1020.6563,607.625 1019.9688,606.5547 Q1019.2813,605.4844 1019.2813,604.2031 L1019.2813,603.0469 Q1019.2813,601.7188 1019.8984,600.5703 Q1020.5156,599.4219 1021.6094,598.8047 Q1022.7031,598.1875 1023.9375,598.1875 Q1024.6719,598.1875 1025.3203,598.3516 Q1025.9688,598.5156 1026.5156,598.875 Z "/><text fill="#000000" font-family="sans-serif" font-size="12" lengthAdjust="spacingAndGlyphs" textLength="170" x="1044.25" y="607.9102">ProposedCombinationFileDAO</text><line style="stroke: #A80036; stroke-width: 1.5;" x1="920" x2="1306" y1="619" y2="619"/><line style="stroke: #A80036; stroke-width: 1.5;" x1="920" x2="1306" y1="627" y2="627"/><polygon fill="#4177AF" points="930,635.418,926,641.418,934,641.418" style="stroke: #1963A0; stroke-width: 1.0;"/><text fill="#000000" font-family="sans-serif" font-size="11" lengthAdjust="spacingAndGlyphs" textLength="362" x="939" y="642.4189">ProposedCombinationFileDAO(ProposedCombination proposedCombination)</text><ellipse cx="930" cy="653.2539" fill="#84BE84" rx="3" ry="3" style="stroke: #038048; stroke-width: 1.0;"/><text fill="#000000" font-family="sans-serif" font-size="11" lengthAdjust="spacingAndGlyphs" textLength="234" x="939" y="656.2549">ProposedCombination getProposedCombination()</text><!--class mastermind.models.Files.ResultFileDAO--><rect fill="#FEFECE" filter="url(#f1cz472m04ezz)" height="89.5078" id="mastermind.models.Files.ResultFileDAO" style="stroke: #A80036; stroke-width: 1.5;" width="235" x="1342.5" y="580"/><ellipse cx="1415.25" cy="596" fill="#ADD1B2" rx="11" ry="11" style="stroke: #A80036; stroke-width: 1.0;"/><path d="M1418.0156,591.875 Q1418.1719,591.6563 1418.3594,591.5469 Q1418.5469,591.4375 1418.7656,591.4375 Q1419.1406,591.4375 1419.375,591.6953 Q1419.6094,591.9531 1419.6094,592.5625 L1419.6094,594.0156 Q1419.6094,594.625 1419.375,594.8906 Q1419.1406,595.1563 1418.7656,595.1563 Q1418.4219,595.1563 1418.2188,594.9531 Q1418.0156,594.7656 1417.9063,594.25 Q1417.8594,593.8906 1417.6719,593.7031 Q1417.3438,593.3281 1416.7344,593.1094 Q1416.125,592.8906 1415.5,592.8906 Q1414.7344,592.8906 1414.1016,593.2188 Q1413.4688,593.5469 1412.9766,594.2969 Q1412.4844,595.0469 1412.4844,596.0781 L1412.4844,597.1719 Q1412.4844,598.4063 1413.375,599.2266 Q1414.2656,600.0469 1415.8594,600.0469 Q1416.7969,600.0469 1417.4531,599.7969 Q1417.8438,599.6406 1418.2656,599.2031 Q1418.5313,598.9375 1418.6797,598.8594 Q1418.8281,598.7813 1419.0313,598.7813 Q1419.3594,598.7813 1419.6172,599.0391 Q1419.875,599.2969 1419.875,599.6406 Q1419.875,599.9844 1419.5313,600.3906 Q1419.0313,600.9688 1418.2344,601.2969 Q1417.1563,601.75 1415.8594,601.75 Q1414.3438,601.75 1413.1406,601.125 Q1412.1563,600.625 1411.4688,599.5547 Q1410.7813,598.4844 1410.7813,597.2031 L1410.7813,596.0469 Q1410.7813,594.7188 1411.3984,593.5703 Q1412.0156,592.4219 1413.1094,591.8047 Q1414.2031,591.1875 1415.4375,591.1875 Q1416.1719,591.1875 1416.8203,591.3516 Q1417.4688,591.5156 1418.0156,591.875 Z "/><text fill="#000000" font-family="sans-serif" font-size="12" lengthAdjust="spacingAndGlyphs" textLength="81" x="1435.75" y="600.9102">ResultFileDAO</text><line style="stroke: #A80036; stroke-width: 1.5;" x1="1343.5" x2="1576.5" y1="612" y2="612"/><line style="stroke: #A80036; stroke-width: 1.5;" x1="1343.5" x2="1576.5" y1="620" y2="620"/><polygon fill="#4177AF" points="1353.5,628.418,1349.5,634.418,1357.5,634.418" style="stroke: #1963A0; stroke-width: 1.0;"/><text fill="#000000" font-family="sans-serif" font-size="11" lengthAdjust="spacingAndGlyphs" textLength="137" x="1362.5" y="635.4189">ResultFileDAO(Result result)</text><ellipse cx="1353.5" cy="646.2539" fill="#84BE84" rx="3" ry="3" style="stroke: #038048; stroke-width: 1.0;"/><text fill="#000000" font-family="sans-serif" font-size="11" lengthAdjust="spacingAndGlyphs" textLength="146" x="1362.5" y="649.2549">void save(FileWriter fileWriter)</text><ellipse cx="1353.5" cy="660.0898" fill="#84BE84" rx="3" ry="3" style="stroke: #038048; stroke-width: 1.0;"/><text fill="#000000" font-family="sans-serif" font-size="11" lengthAdjust="spacingAndGlyphs" textLength="209" x="1362.5" y="663.0908">void load(BufferedReader bufferedReader)</text><!--class mastermind.models.Files.SessionImplementationFileDAO--><rect fill="#FEFECE" filter="url(#f1cz472m04ezz)" height="172.5234" id="mastermind.models.Files.SessionImplementationFileDAO" style="stroke: #A80036; stroke-width: 1.5;" width="324" x="541" y="184"/><ellipse cx="610.25" cy="200" fill="#ADD1B2" rx="11" ry="11" style="stroke: #A80036; stroke-width: 1.0;"/><path d="M613.0156,195.875 Q613.1719,195.6563 613.3594,195.5469 Q613.5469,195.4375 613.7656,195.4375 Q614.1406,195.4375 614.375,195.6953 Q614.6094,195.9531 614.6094,196.5625 L614.6094,198.0156 Q614.6094,198.625 614.375,198.8906 Q614.1406,199.1563 613.7656,199.1563 Q613.4219,199.1563 613.2188,198.9531 Q613.0156,198.7656 612.9063,198.25 Q612.8594,197.8906 612.6719,197.7031 Q612.3438,197.3281 611.7344,197.1094 Q611.125,196.8906 610.5,196.8906 Q609.7344,196.8906 609.1016,197.2188 Q608.4688,197.5469 607.9766,198.2969 Q607.4844,199.0469 607.4844,200.0781 L607.4844,201.1719 Q607.4844,202.4063 608.375,203.2266 Q609.2656,204.0469 610.8594,204.0469 Q611.7969,204.0469 612.4531,203.7969 Q612.8438,203.6406 613.2656,203.2031 Q613.5313,202.9375 613.6797,202.8594 Q613.8281,202.7813 614.0313,202.7813 Q614.3594,202.7813 614.6172,203.0391 Q614.875,203.2969 614.875,203.6406 Q614.875,203.9844 614.5313,204.3906 Q614.0313,204.9688 613.2344,205.2969 Q612.1563,205.75 610.8594,205.75 Q609.3438,205.75 608.1406,205.125 Q607.1563,204.625 606.4688,203.5547 Q605.7813,202.4844 605.7813,201.2031 L605.7813,200.0469 Q605.7813,198.7188 606.3984,197.5703 Q607.0156,196.4219 608.1094,195.8047 Q609.2031,195.1875 610.4375,195.1875 Q611.1719,195.1875 611.8203,195.3516 Q612.4688,195.5156 613.0156,195.875 Z "/><text fill="#000000" font-family="sans-serif" font-size="12" lengthAdjust="spacingAndGlyphs" textLength="177" x="630.75" y="204.9102">SessionImplementationFileDAO</text><line style="stroke: #A80036; stroke-width: 1.5;" x1="542" x2="864" y1="216" y2="216"/><polygon fill="none" points="552,223.418,556,227.418,552,231.418,548,227.418" style="stroke: #B38D22; stroke-width: 1.0;"/><text fill="#000000" font-family="sans-serif" font-size="11" lengthAdjust="spacingAndGlyphs" text-decoration="underline" textLength="87" x="561" y="231.4189">String EXTENSION</text><polygon fill="none" points="552,237.2539,556,241.2539,552,245.2539,548,241.2539" style="stroke: #B38D22; stroke-width: 1.0;"/><text fill="#000000" font-family="sans-serif" font-size="11" lengthAdjust="spacingAndGlyphs" text-decoration="underline" textLength="89" x="561" y="245.2549">String DIRECTORY</text><polygon fill="none" points="552,251.0898,556,255.0898,552,259.0898,548,255.0898" style="stroke: #B38D22; stroke-width: 1.0;"/><text fill="#000000" font-family="sans-serif" font-size="11" lengthAdjust="spacingAndGlyphs" text-decoration="underline" textLength="62" x="561" y="259.0908">File directory</text><rect fill="none" height="6" style="stroke: #C82930; stroke-width: 1.0;" width="6" x="549" y="266.9258"/><text fill="#000000" font-family="sans-serif" font-size="11" lengthAdjust="spacingAndGlyphs" textLength="135" x="561" y="272.9268">GameFileDAO gameFileDAO</text><line style="stroke: #A80036; stroke-width: 1.5;" x1="542" x2="864" y1="279.3438" y2="279.3438"/><ellipse cx="552" cy="291.7617" fill="#84BE84" rx="3" ry="3" style="stroke: #038048; stroke-width: 1.0;"/><text fill="#000000" font-family="sans-serif" font-size="11" lengthAdjust="spacingAndGlyphs" textLength="298" x="561" y="294.7627">void associate(SessionImplementation sessionImplementation)</text><ellipse cx="552" cy="305.5977" fill="#84BE84" rx="3" ry="3" style="stroke: #038048; stroke-width: 1.0;"/><text fill="#000000" font-family="sans-serif" font-size="11" lengthAdjust="spacingAndGlyphs" textLength="108" x="561" y="308.5986">void load(String name)</text><ellipse cx="552" cy="319.4336" fill="#84BE84" rx="3" ry="3" style="stroke: #038048; stroke-width: 1.0;"/><text fill="#000000" font-family="sans-serif" font-size="11" lengthAdjust="spacingAndGlyphs" textLength="112" x="561" y="322.4346">void save(String name)</text><ellipse cx="552" cy="333.2695" fill="#84BE84" rx="3" ry="3" style="stroke: #038048; stroke-width: 1.0;"/><text fill="#000000" font-family="sans-serif" font-size="11" lengthAdjust="spacingAndGlyphs" textLength="135" x="561" y="336.2705">boolean exists(String name)</text><ellipse cx="552" cy="347.1055" fill="#84BE84" rx="3" ry="3" style="stroke: #038048; stroke-width: 1.0;"/><text fill="#000000" font-family="sans-serif" font-size="11" lengthAdjust="spacingAndGlyphs" textLength="127" x="561" y="350.1064">String[] getGamesNames()</text><!--class mastermind.models.DAO.CombinationDAO--><rect fill="#FEFECE" filter="url(#f1cz472m04ezz)" height="48" id="mastermind.models.DAO.CombinationDAO" style="stroke: #A80036; stroke-width: 1.5;" width="128" x="1092" y="60"/><ellipse cx="1107" cy="76" fill="#ADD1B2" rx="11" ry="11" style="stroke: #A80036; stroke-width: 1.0;"/><path d="M1109.7656,71.875 Q1109.9219,71.6563 1110.1094,71.5469 Q1110.2969,71.4375 1110.5156,71.4375 Q1110.8906,71.4375 1111.125,71.6953 Q1111.3594,71.9531 1111.3594,72.5625 L1111.3594,74.0156 Q1111.3594,74.625 1111.125,74.8906 Q1110.8906,75.1563 1110.5156,75.1563 Q1110.1719,75.1563 1109.9688,74.9531 Q1109.7656,74.7656 1109.6563,74.25 Q1109.6094,73.8906 1109.4219,73.7031 Q1109.0938,73.3281 1108.4844,73.1094 Q1107.875,72.8906 1107.25,72.8906 Q1106.4844,72.8906 1105.8516,73.2188 Q1105.2188,73.5469 1104.7266,74.2969 Q1104.2344,75.0469 1104.2344,76.0781 L1104.2344,77.1719 Q1104.2344,78.4063 1105.125,79.2266 Q1106.0156,80.0469 1107.6094,80.0469 Q1108.5469,80.0469 1109.2031,79.7969 Q1109.5938,79.6406 1110.0156,79.2031 Q1110.2813,78.9375 1110.4297,78.8594 Q1110.5781,78.7813 1110.7813,78.7813 Q1111.1094,78.7813 1111.3672,79.0391 Q1111.625,79.2969 1111.625,79.6406 Q1111.625,79.9844 1111.2813,80.3906 Q1110.7813,80.9688 1109.9844,81.2969 Q1108.9063,81.75 1107.6094,81.75 Q1106.0938,81.75 1104.8906,81.125 Q1103.9063,80.625 1103.2188,79.5547 Q1102.5313,78.4844 1102.5313,77.2031 L1102.5313,76.0469 Q1102.5313,74.7188 1103.1484,73.5703 Q1103.7656,72.4219 1104.8594,71.8047 Q1105.9531,71.1875 1107.1875,71.1875 Q1107.9219,71.1875 1108.5703,71.3516 Q1109.2188,71.5156 1109.7656,71.875 Z "/><text fill="#000000" font-family="sans-serif" font-size="12" lengthAdjust="spacingAndGlyphs" textLength="96" x="1121" y="80.9102">CombinationDAO</text><line style="stroke: #A80036; stroke-width: 1.5;" x1="1093" x2="1219" y1="92" y2="92"/><line style="stroke: #A80036; stroke-width: 1.5;" x1="1093" x2="1219" y1="100" y2="100"/><!--class mastermind.models.DAO.GameDAO--><rect fill="#FEFECE" filter="url(#f1cz472m04ezz)" height="48" id="mastermind.models.DAO.GameDAO" style="stroke: #A80036; stroke-width: 1.5;" width="91" x="1255.5" y="60"/><ellipse cx="1270.5" cy="76" fill="#ADD1B2" rx="11" ry="11" style="stroke: #A80036; stroke-width: 1.0;"/><path d="M1273.2656,71.875 Q1273.4219,71.6563 1273.6094,71.5469 Q1273.7969,71.4375 1274.0156,71.4375 Q1274.3906,71.4375 1274.625,71.6953 Q1274.8594,71.9531 1274.8594,72.5625 L1274.8594,74.0156 Q1274.8594,74.625 1274.625,74.8906 Q1274.3906,75.1563 1274.0156,75.1563 Q1273.6719,75.1563 1273.4688,74.9531 Q1273.2656,74.7656 1273.1563,74.25 Q1273.1094,73.8906 1272.9219,73.7031 Q1272.5938,73.3281 1271.9844,73.1094 Q1271.375,72.8906 1270.75,72.8906 Q1269.9844,72.8906 1269.3516,73.2188 Q1268.7188,73.5469 1268.2266,74.2969 Q1267.7344,75.0469 1267.7344,76.0781 L1267.7344,77.1719 Q1267.7344,78.4063 1268.625,79.2266 Q1269.5156,80.0469 1271.1094,80.0469 Q1272.0469,80.0469 1272.7031,79.7969 Q1273.0938,79.6406 1273.5156,79.2031 Q1273.7813,78.9375 1273.9297,78.8594 Q1274.0781,78.7813 1274.2813,78.7813 Q1274.6094,78.7813 1274.8672,79.0391 Q1275.125,79.2969 1275.125,79.6406 Q1275.125,79.9844 1274.7813,80.3906 Q1274.2813,80.9688 1273.4844,81.2969 Q1272.4063,81.75 1271.1094,81.75 Q1269.5938,81.75 1268.3906,81.125 Q1267.4063,80.625 1266.7188,79.5547 Q1266.0313,78.4844 1266.0313,77.2031 L1266.0313,76.0469 Q1266.0313,74.7188 1266.6484,73.5703 Q1267.2656,72.4219 1268.3594,71.8047 Q1269.4531,71.1875 1270.6875,71.1875 Q1271.4219,71.1875 1272.0703,71.3516 Q1272.7188,71.5156 1273.2656,71.875 Z "/><text fill="#000000" font-family="sans-serif" font-size="12" lengthAdjust="spacingAndGlyphs" textLength="59" x="1284.5" y="80.9102">GameDAO</text><line style="stroke: #A80036; stroke-width: 1.5;" x1="1256.5" x2="1345.5" y1="92" y2="92"/><line style="stroke: #A80036; stroke-width: 1.5;" x1="1256.5" x2="1345.5" y1="100" y2="100"/><!--class mastermind.models.DAO.ResultDAO--><rect fill="#FEFECE" filter="url(#f1cz472m04ezz)" height="48" id="mastermind.models.DAO.ResultDAO" style="stroke: #A80036; stroke-width: 1.5;" width="93" x="1381.5" y="60"/><ellipse cx="1396.5" cy="76" fill="#ADD1B2" rx="11" ry="11" style="stroke: #A80036; stroke-width: 1.0;"/><path d="M1399.2656,71.875 Q1399.4219,71.6563 1399.6094,71.5469 Q1399.7969,71.4375 1400.0156,71.4375 Q1400.3906,71.4375 1400.625,71.6953 Q1400.8594,71.9531 1400.8594,72.5625 L1400.8594,74.0156 Q1400.8594,74.625 1400.625,74.8906 Q1400.3906,75.1563 1400.0156,75.1563 Q1399.6719,75.1563 1399.4688,74.9531 Q1399.2656,74.7656 1399.1563,74.25 Q1399.1094,73.8906 1398.9219,73.7031 Q1398.5938,73.3281 1397.9844,73.1094 Q1397.375,72.8906 1396.75,72.8906 Q1395.9844,72.8906 1395.3516,73.2188 Q1394.7188,73.5469 1394.2266,74.2969 Q1393.7344,75.0469 1393.7344,76.0781 L1393.7344,77.1719 Q1393.7344,78.4063 1394.625,79.2266 Q1395.5156,80.0469 1397.1094,80.0469 Q1398.0469,80.0469 1398.7031,79.7969 Q1399.0938,79.6406 1399.5156,79.2031 Q1399.7813,78.9375 1399.9297,78.8594 Q1400.0781,78.7813 1400.2813,78.7813 Q1400.6094,78.7813 1400.8672,79.0391 Q1401.125,79.2969 1401.125,79.6406 Q1401.125,79.9844 1400.7813,80.3906 Q1400.2813,80.9688 1399.4844,81.2969 Q1398.4063,81.75 1397.1094,81.75 Q1395.5938,81.75 1394.3906,81.125 Q1393.4063,80.625 1392.7188,79.5547 Q1392.0313,78.4844 1392.0313,77.2031 L1392.0313,76.0469 Q1392.0313,74.7188 1392.6484,73.5703 Q1393.2656,72.4219 1394.3594,71.8047 Q1395.4531,71.1875 1396.6875,71.1875 Q1397.4219,71.1875 1398.0703,71.3516 Q1398.7188,71.5156 1399.2656,71.875 Z "/><text fill="#000000" font-family="sans-serif" font-size="12" lengthAdjust="spacingAndGlyphs" textLength="61" x="1410.5" y="80.9102">ResultDAO</text><line style="stroke: #A80036; stroke-width: 1.5;" x1="1382.5" x2="1473.5" y1="92" y2="92"/><line style="stroke: #A80036; stroke-width: 1.5;" x1="1382.5" x2="1473.5" y1="100" y2="100"/><!--class mastermind.models.DAO.SessionImplementationDAO--><rect fill="#FEFECE" filter="url(#f1cz472m04ezz)" height="48" id="mastermind.models.DAO.SessionImplementationDAO" style="stroke: #A80036; stroke-width: 1.5;" width="189" x="867.5" y="60"/><ellipse cx="882.5" cy="76" fill="#ADD1B2" rx="11" ry="11" style="stroke: #A80036; stroke-width: 1.0;"/><path d="M885.2656,71.875 Q885.4219,71.6563 885.6094,71.5469 Q885.7969,71.4375 886.0156,71.4375 Q886.3906,71.4375 886.625,71.6953 Q886.8594,71.9531 886.8594,72.5625 L886.8594,74.0156 Q886.8594,74.625 886.625,74.8906 Q886.3906,75.1563 886.0156,75.1563 Q885.6719,75.1563 885.4688,74.9531 Q885.2656,74.7656 885.1563,74.25 Q885.1094,73.8906 884.9219,73.7031 Q884.5938,73.3281 883.9844,73.1094 Q883.375,72.8906 882.75,72.8906 Q881.9844,72.8906 881.3516,73.2188 Q880.7188,73.5469 880.2266,74.2969 Q879.7344,75.0469 879.7344,76.0781 L879.7344,77.1719 Q879.7344,78.4063 880.625,79.2266 Q881.5156,80.0469 883.1094,80.0469 Q884.0469,80.0469 884.7031,79.7969 Q885.0938,79.6406 885.5156,79.2031 Q885.7813,78.9375 885.9297,78.8594 Q886.0781,78.7813 886.2813,78.7813 Q886.6094,78.7813 886.8672,79.0391 Q887.125,79.2969 887.125,79.6406 Q887.125,79.9844 886.7813,80.3906 Q886.2813,80.9688 885.4844,81.2969 Q884.4063,81.75 883.1094,81.75 Q881.5938,81.75 880.3906,81.125 Q879.4063,80.625 878.7188,79.5547 Q878.0313,78.4844 878.0313,77.2031 L878.0313,76.0469 Q878.0313,74.7188 878.6484,73.5703 Q879.2656,72.4219 880.3594,71.8047 Q881.4531,71.1875 882.6875,71.1875 Q883.4219,71.1875 884.0703,71.3516 Q884.7188,71.5156 885.2656,71.875 Z "/><text fill="#000000" font-family="sans-serif" font-size="12" lengthAdjust="spacingAndGlyphs" textLength="157" x="896.5" y="80.9102">SessionImplementationDAO</text><line style="stroke: #A80036; stroke-width: 1.5;" x1="868.5" x2="1055.5" y1="92" y2="92"/><line style="stroke: #A80036; stroke-width: 1.5;" x1="868.5" x2="1055.5" y1="100" y2="100"/><!--class mastermind.models.Combination--><rect fill="#FEFECE" filter="url(#f1cz472m04ezz)" height="48" id="mastermind.models.Combination" style="stroke: #A80036; stroke-width: 1.5;" width="103" x="164.5" y="746"/><ellipse cx="179.5" cy="762" fill="#ADD1B2" rx="11" ry="11" style="stroke: #A80036; stroke-width: 1.0;"/><path d="M182.2656,757.875 Q182.4219,757.6563 182.6094,757.5469 Q182.7969,757.4375 183.0156,757.4375 Q183.3906,757.4375 183.625,757.6953 Q183.8594,757.9531 183.8594,758.5625 L183.8594,760.0156 Q183.8594,760.625 183.625,760.8906 Q183.3906,761.1563 183.0156,761.1563 Q182.6719,761.1563 182.4688,760.9531 Q182.2656,760.7656 182.1563,760.25 Q182.1094,759.8906 181.9219,759.7031 Q181.5938,759.3281 180.9844,759.1094 Q180.375,758.8906 179.75,758.8906 Q178.9844,758.8906 178.3516,759.2188 Q177.7188,759.5469 177.2266,760.2969 Q176.7344,761.0469 176.7344,762.0781 L176.7344,763.1719 Q176.7344,764.4063 177.625,765.2266 Q178.5156,766.0469 180.1094,766.0469 Q181.0469,766.0469 181.7031,765.7969 Q182.0938,765.6406 182.5156,765.2031 Q182.7813,764.9375 182.9297,764.8594 Q183.0781,764.7813 183.2813,764.7813 Q183.6094,764.7813 183.8672,765.0391 Q184.125,765.2969 184.125,765.6406 Q184.125,765.9844 183.7813,766.3906 Q183.2813,766.9688 182.4844,767.2969 Q181.4063,767.75 180.1094,767.75 Q178.5938,767.75 177.3906,767.125 Q176.4063,766.625 175.7188,765.5547 Q175.0313,764.4844 175.0313,763.2031 L175.0313,762.0469 Q175.0313,760.7188 175.6484,759.5703 Q176.2656,758.4219 177.3594,757.8047 Q178.4531,757.1875 179.6875,757.1875 Q180.4219,757.1875 181.0703,757.3516 Q181.7188,757.5156 182.2656,757.875 Z "/><text fill="#000000" font-family="sans-serif" font-size="12" lengthAdjust="spacingAndGlyphs" textLength="71" x="193.5" y="766.9102">Combination</text><line style="stroke: #A80036; stroke-width: 1.5;" x1="165.5" x2="266.5" y1="778" y2="778"/><line style="stroke: #A80036; stroke-width: 1.5;" x1="165.5" x2="266.5" y1="786" y2="786"/><!--class mastermind.models.Result--><rect fill="#FEFECE" filter="url(#f1cz472m04ezz)" height="48" id="mastermind.models.Result" style="stroke: #A80036; stroke-width: 1.5;" width="68" x="303" y="746"/><ellipse cx="318" cy="762" fill="#ADD1B2" rx="11" ry="11" style="stroke: #A80036; stroke-width: 1.0;"/><path d="M320.7656,757.875 Q320.9219,757.6563 321.1094,757.5469 Q321.2969,757.4375 321.5156,757.4375 Q321.8906,757.4375 322.125,757.6953 Q322.3594,757.9531 322.3594,758.5625 L322.3594,760.0156 Q322.3594,760.625 322.125,760.8906 Q321.8906,761.1563 321.5156,761.1563 Q321.1719,761.1563 320.9688,760.9531 Q320.7656,760.7656 320.6563,760.25 Q320.6094,759.8906 320.4219,759.7031 Q320.0938,759.3281 319.4844,759.1094 Q318.875,758.8906 318.25,758.8906 Q317.4844,758.8906 316.8516,759.2188 Q316.2188,759.5469 315.7266,760.2969 Q315.2344,761.0469 315.2344,762.0781 L315.2344,763.1719 Q315.2344,764.4063 316.125,765.2266 Q317.0156,766.0469 318.6094,766.0469 Q319.5469,766.0469 320.2031,765.7969 Q320.5938,765.6406 321.0156,765.2031 Q321.2813,764.9375 321.4297,764.8594 Q321.5781,764.7813 321.7813,764.7813 Q322.1094,764.7813 322.3672,765.0391 Q322.625,765.2969 322.625,765.6406 Q322.625,765.9844 322.2813,766.3906 Q321.7813,766.9688 320.9844,767.2969 Q319.9063,767.75 318.6094,767.75 Q317.0938,767.75 315.8906,767.125 Q314.9063,766.625 314.2188,765.5547 Q313.5313,764.4844 313.5313,763.2031 L313.5313,762.0469 Q313.5313,760.7188 314.1484,759.5703 Q314.7656,758.4219 315.8594,757.8047 Q316.9531,757.1875 318.1875,757.1875 Q318.9219,757.1875 319.5703,757.3516 Q320.2188,757.5156 320.7656,757.875 Z "/><text fill="#000000" font-family="sans-serif" font-size="12" lengthAdjust="spacingAndGlyphs" textLength="36" x="332" y="766.9102">Result</text><line style="stroke: #A80036; stroke-width: 1.5;" x1="304" x2="370" y1="778" y2="778"/><line style="stroke: #A80036; stroke-width: 1.5;" x1="304" x2="370" y1="786" y2="786"/><!--class mastermind.models.ProposedCombination--><rect fill="#FEFECE" filter="url(#f1cz472m04ezz)" height="48" id="mastermind.models.ProposedCombination" style="stroke: #A80036; stroke-width: 1.5;" width="157" x="406.5" y="746"/><ellipse cx="421.5" cy="762" fill="#ADD1B2" rx="11" ry="11" style="stroke: #A80036; stroke-width: 1.0;"/><path d="M424.2656,757.875 Q424.4219,757.6563 424.6094,757.5469 Q424.7969,757.4375 425.0156,757.4375 Q425.3906,757.4375 425.625,757.6953 Q425.8594,757.9531 425.8594,758.5625 L425.8594,760.0156 Q425.8594,760.625 425.625,760.8906 Q425.3906,761.1563 425.0156,761.1563 Q424.6719,761.1563 424.4688,760.9531 Q424.2656,760.7656 424.1563,760.25 Q424.1094,759.8906 423.9219,759.7031 Q423.5938,759.3281 422.9844,759.1094 Q422.375,758.8906 421.75,758.8906 Q420.9844,758.8906 420.3516,759.2188 Q419.7188,759.5469 419.2266,760.2969 Q418.7344,761.0469 418.7344,762.0781 L418.7344,763.1719 Q418.7344,764.4063 419.625,765.2266 Q420.5156,766.0469 422.1094,766.0469 Q423.0469,766.0469 423.7031,765.7969 Q424.0938,765.6406 424.5156,765.2031 Q424.7813,764.9375 424.9297,764.8594 Q425.0781,764.7813 425.2813,764.7813 Q425.6094,764.7813 425.8672,765.0391 Q426.125,765.2969 426.125,765.6406 Q426.125,765.9844 425.7813,766.3906 Q425.2813,766.9688 424.4844,767.2969 Q423.4063,767.75 422.1094,767.75 Q420.5938,767.75 419.3906,767.125 Q418.4063,766.625 417.7188,765.5547 Q417.0313,764.4844 417.0313,763.2031 L417.0313,762.0469 Q417.0313,760.7188 417.6484,759.5703 Q418.2656,758.4219 419.3594,757.8047 Q420.4531,757.1875 421.6875,757.1875 Q422.4219,757.1875 423.0703,757.3516 Q423.7188,757.5156 424.2656,757.875 Z "/><text fill="#000000" font-family="sans-serif" font-size="12" lengthAdjust="spacingAndGlyphs" textLength="125" x="435.5" y="766.9102">ProposedCombination</text><line style="stroke: #A80036; stroke-width: 1.5;" x1="407.5" x2="562.5" y1="778" y2="778"/><line style="stroke: #A80036; stroke-width: 1.5;" x1="407.5" x2="562.5" y1="786" y2="786"/><!--class mastermind.models.StateValue--><rect fill="#FEFECE" filter="url(#f1cz472m04ezz)" height="48" id="mastermind.models.StateValue" style="stroke: #A80036; stroke-width: 1.5;" width="91" x="38.5" y="746"/><ellipse cx="53.5" cy="762" fill="#ADD1B2" rx="11" ry="11" style="stroke: #A80036; stroke-width: 1.0;"/><path d="M56.2656,757.875 Q56.4219,757.6563 56.6094,757.5469 Q56.7969,757.4375 57.0156,757.4375 Q57.3906,757.4375 57.625,757.6953 Q57.8594,757.9531 57.8594,758.5625 L57.8594,760.0156 Q57.8594,760.625 57.625,760.8906 Q57.3906,761.1563 57.0156,761.1563 Q56.6719,761.1563 56.4688,760.9531 Q56.2656,760.7656 56.1563,760.25 Q56.1094,759.8906 55.9219,759.7031 Q55.5938,759.3281 54.9844,759.1094 Q54.375,758.8906 53.75,758.8906 Q52.9844,758.8906 52.3516,759.2188 Q51.7188,759.5469 51.2266,760.2969 Q50.7344,761.0469 50.7344,762.0781 L50.7344,763.1719 Q50.7344,764.4063 51.625,765.2266 Q52.5156,766.0469 54.1094,766.0469 Q55.0469,766.0469 55.7031,765.7969 Q56.0938,765.6406 56.5156,765.2031 Q56.7813,764.9375 56.9297,764.8594 Q57.0781,764.7813 57.2813,764.7813 Q57.6094,764.7813 57.8672,765.0391 Q58.125,765.2969 58.125,765.6406 Q58.125,765.9844 57.7813,766.3906 Q57.2813,766.9688 56.4844,767.2969 Q55.4063,767.75 54.1094,767.75 Q52.5938,767.75 51.3906,767.125 Q50.4063,766.625 49.7188,765.5547 Q49.0313,764.4844 49.0313,763.2031 L49.0313,762.0469 Q49.0313,760.7188 49.6484,759.5703 Q50.2656,758.4219 51.3594,757.8047 Q52.4531,757.1875 53.6875,757.1875 Q54.4219,757.1875 55.0703,757.3516 Q55.7188,757.5156 56.2656,757.875 Z "/><text fill="#000000" font-family="sans-serif" font-size="12" lengthAdjust="spacingAndGlyphs" textLength="59" x="67.5" y="766.9102">StateValue</text><line style="stroke: #A80036; stroke-width: 1.5;" x1="39.5" x2="128.5" y1="778" y2="778"/><line style="stroke: #A80036; stroke-width: 1.5;" x1="39.5" x2="128.5" y1="786" y2="786"/><!--class mastermind.types.Color--><rect fill="#FEFECE" filter="url(#f1cz472m04ezz)" height="48" id="mastermind.types.Color" style="stroke: #A80036; stroke-width: 1.5;" width="62" x="370" y="601"/><ellipse cx="385" cy="617" fill="#ADD1B2" rx="11" ry="11" style="stroke: #A80036; stroke-width: 1.0;"/><path d="M387.7656,612.875 Q387.9219,612.6563 388.1094,612.5469 Q388.2969,612.4375 388.5156,612.4375 Q388.8906,612.4375 389.125,612.6953 Q389.3594,612.9531 389.3594,613.5625 L389.3594,615.0156 Q389.3594,615.625 389.125,615.8906 Q388.8906,616.1563 388.5156,616.1563 Q388.1719,616.1563 387.9688,615.9531 Q387.7656,615.7656 387.6563,615.25 Q387.6094,614.8906 387.4219,614.7031 Q387.0938,614.3281 386.4844,614.1094 Q385.875,613.8906 385.25,613.8906 Q384.4844,613.8906 383.8516,614.2188 Q383.2188,614.5469 382.7266,615.2969 Q382.2344,616.0469 382.2344,617.0781 L382.2344,618.1719 Q382.2344,619.4063 383.125,620.2266 Q384.0156,621.0469 385.6094,621.0469 Q386.5469,621.0469 387.2031,620.7969 Q387.5938,620.6406 388.0156,620.2031 Q388.2813,619.9375 388.4297,619.8594 Q388.5781,619.7813 388.7813,619.7813 Q389.1094,619.7813 389.3672,620.0391 Q389.625,620.2969 389.625,620.6406 Q389.625,620.9844 389.2813,621.3906 Q388.7813,621.9688 387.9844,622.2969 Q386.9063,622.75 385.6094,622.75 Q384.0938,622.75 382.8906,622.125 Q381.9063,621.625 381.2188,620.5547 Q380.5313,619.4844 380.5313,618.2031 L380.5313,617.0469 Q380.5313,615.7188 381.1484,614.5703 Q381.7656,613.4219 382.8594,612.8047 Q383.9531,612.1875 385.1875,612.1875 Q385.9219,612.1875 386.5703,612.3516 Q387.2188,612.5156 387.7656,612.875 Z "/><text fill="#000000" font-family="sans-serif" font-size="12" lengthAdjust="spacingAndGlyphs" textLength="30" x="399" y="621.9102">Color</text><line style="stroke: #A80036; stroke-width: 1.5;" x1="371" x2="431" y1="633" y2="633"/><line style="stroke: #A80036; stroke-width: 1.5;" x1="371" x2="431" y1="641" y2="641"/><!--link mastermind.models.DAO.CombinationDAO to mastermind.models.Files.CombinationFileDAO--><path d="M1167.64,127.903 C1180.86,187.028 1194.06,293.441 1139,357 C1053.39,455.821 976.887,381.679 851,417 C843.946,418.979 836.736,421.129 829.49,423.39 " fill="none" id="mastermind.models.DAO.CombinationDAO-mastermind.models.Files.CombinationFileDAO" style="stroke: #A80036; stroke-width: 1.0;"/><polygon fill="none" points="1160.75,129.175,1162.81,108.085,1174.35,125.857,1160.75,129.175" style="stroke: #A80036; stroke-width: 1.0;"/><!--link mastermind.models.Files.FileDAO to mastermind.models.Files.CombinationFileDAO--><path d="M938.743,319.701 C920.283,331.93 900.441,345.001 882,357 C848.096,379.061 810.249,403.281 778.62,423.409 " fill="none" id="mastermind.models.Files.FileDAO-mastermind.models.Files.CombinationFileDAO" style="stroke: #A80036; stroke-width: 1.0; stroke-dasharray: 7.0,7.0;"/><polygon fill="none" points="935.041,313.756,955.576,308.53,942.782,325.421,935.041,313.756" style="stroke: #A80036; stroke-width: 1.0;"/><!--link mastermind.models.Files.CombinationFileDAO to mastermind.models.Combination--><path d="M584.278,477.528 C464.865,487.905 296.355,510.489 251,557 C202.726,606.504 206.009,695.462 211.497,740.7879 " fill="none" id="mastermind.models.Files.CombinationFileDAO-mastermind.models.Combination" style="stroke: #A80036; stroke-width: 1.0; stroke-dasharray: 7.0,7.0;"/><polygon fill="#A80036" points="212.138,745.8293,214.9697,736.3963,211.5067,740.8693,207.0337,737.4063,212.138,745.8293" style="stroke: #A80036; stroke-width: 1.0;"/><!--link mastermind.models.Files.CombinationFileDAO to mastermind.types.Color--><path d="M584.41,499.091 C542.337,512.62 496.556,531.473 459,557 C443.548,567.503 429.705,583.118 419.421,596.631 " fill="none" id="mastermind.models.Files.CombinationFileDAO-mastermind.types.Color" style="stroke: #A80036; stroke-width: 1.0; stroke-dasharray: 7.0,7.0;"/><polygon fill="#A80036" points="416.346,600.75,424.9361,595.9323,419.3378,596.7438,418.5262,591.1455,416.346,600.75" style="stroke: #A80036; stroke-width: 1.0;"/><!--link mastermind.models.DAO.GameDAO to mastermind.models.Files.GameFileDAO--><path d="M1294.47,128.127 C1283.81,185.922 1257.87,289.077 1201,357 C1180.99,380.898 1154.41,400.823 1127.52,416.87 " fill="none" id="mastermind.models.DAO.GameDAO-mastermind.models.Files.GameFileDAO" style="stroke: #A80036; stroke-width: 1.0;"/><polygon fill="none" points="1287.64,126.573,1297.89,108.031,1301.44,128.923,1287.64,126.573" style="stroke: #A80036; stroke-width: 1.0;"/><!--link mastermind.models.Files.FileDAO to mastermind.models.Files.GameFileDAO--><path d="M1011.29,328.932 C1011.44,356.832 1011.6,390.059 1011.74,416.981 " fill="none" id="mastermind.models.Files.FileDAO-mastermind.models.Files.GameFileDAO" style="stroke: #A80036; stroke-width: 1.0; stroke-dasharray: 7.0,7.0;"/><polygon fill="none" points="1004.293,328.863,1011.19,308.827,1018.29,328.791,1004.293,328.863" style="stroke: #A80036; stroke-width: 1.0;"/><!--link mastermind.models.Files.GameFileDAO to mastermind.models.Files.SecretCombinationFileDAO--><path d="M901.633,526.15 C866.558,544.154 828.345,563.768 795.404,580.676 " fill="none" id="mastermind.models.Files.GameFileDAO-mastermind.models.Files.SecretCombinationFileDAO" style="stroke: #A80036; stroke-width: 1.0;"/><polygon fill="#A80036" points="783.522,586.775,793.3555,586.2243,787.9704,584.492,789.7027,579.1069,783.522,586.775" style="stroke: #A80036; stroke-width: 1.0;"/><line style="stroke: #A80036; stroke-width: 1.0;" x1="787.9704" x2="795.0875" y1="584.492" y2="580.839"/><polygon fill="#A80036" points="913.441,520.089,906.2765,519.2709,902.7657,525.5697,909.9303,526.3878,913.441,520.089" style="stroke: #A80036; stroke-width: 1.0;"/><!--link mastermind.models.Files.GameFileDAO to mastermind.models.Files.ProposedCombinationFileDAO--><path d="M1045.07,520.089 C1058.23,540.216 1073.19,563.095 1085.71,582.252 " fill="none" id="mastermind.models.Files.GameFileDAO-mastermind.models.Files.ProposedCombinationFileDAO" style="stroke: #A80036; stroke-width: 1.0; stroke-dasharray: 7.0,7.0;"/><polygon fill="#A80036" points="1088.51,586.532,1086.9321,576.8104,1085.7735,582.3473,1080.2366,581.1887,1088.51,586.532" style="stroke: #A80036; stroke-width: 1.0;"/><!--link mastermind.models.Files.GameFileDAO to mastermind.models.Files.ResultFileDAO--><path d="M1155.24,503.475 C1209.18,517.844 1270.61,536.116 1325,557 C1340.61,562.993 1356.83,570.167 1372.39,577.561 " fill="none" id="mastermind.models.Files.GameFileDAO-mastermind.models.Files.ResultFileDAO" style="stroke: #A80036; stroke-width: 1.0; stroke-dasharray: 7.0,7.0;"/><polygon fill="#A80036" points="1377.2,579.861,1370.8069,572.3691,1372.6894,577.7036,1367.355,579.5861,1377.2,579.861" style="stroke: #A80036; stroke-width: 1.0;"/><!--link mastermind.models.Files.GameFileDAO to mastermind.models.Result--><path d="M868.906,516.214 C862.884,517.599 856.898,518.871 851,520 C796.612,530.411 393.268,517.956 354,557 C305.341,605.382 318.37,695.238 329.166,740.8583 " fill="none" id="mastermind.models.Files.GameFileDAO-mastermind.models.Result" style="stroke: #A80036; stroke-width: 1.0; stroke-dasharray: 7.0,7.0;"/><polygon fill="#A80036" points="330.401,745.9308,332.1584,736.24,329.2182,741.0727,324.3855,738.1325,330.401,745.9308" style="stroke: #A80036; stroke-width: 1.0;"/><!--link mastermind.models.Files.GameFileDAO to mastermind.models.ProposedCombination--><path d="M868.85,515.935 C862.844,517.397 856.876,518.761 851,520 C778.795,535.224 574.634,506.317 521,557 C470.575,604.651 474.389,694.838 480.267,740.6937 " fill="none" id="mastermind.models.Files.GameFileDAO-mastermind.models.ProposedCombination" style="stroke: #A80036; stroke-width: 1.0; stroke-dasharray: 7.0,7.0;"/><polygon fill="#A80036" points="480.953,745.793,483.7176,736.3401,480.2865,740.8376,475.789,737.4065,480.953,745.793" style="stroke: #A80036; stroke-width: 1.0;"/><!--link mastermind.models.Files.CombinationFileDAO to mastermind.models.Files.ProposedCombinationFileDAO--><path d="M843.074,520.773 C899.638,542.405 964.245,567.112 1016.07,586.93 " fill="none" id="mastermind.models.Files.CombinationFileDAO-mastermind.models.Files.ProposedCombinationFileDAO" style="stroke: #A80036; stroke-width: 1.0;"/><polygon fill="none" points="840.41,527.249,824.23,513.567,845.411,514.173,840.41,527.249" style="stroke: #A80036; stroke-width: 1.0;"/><!--link mastermind.models.Files.ProposedCombinationFileDAO to mastermind.models.ProposedCombination--><path d="M1007.03,663.02 C973.394,673.95 935.879,685.302 901,694 C787.201,722.377 653.36,744.5534 568.852,757.2114 " fill="none" id="mastermind.models.Files.ProposedCombinationFileDAO-mastermind.models.ProposedCombination" style="stroke: #A80036; stroke-width: 1.0; stroke-dasharray: 7.0,7.0;"/><polygon fill="#A80036" points="563.861,757.9565,573.3531,760.5832,568.8062,757.2179,572.1714,752.671,563.861,757.9565" style="stroke: #A80036; stroke-width: 1.0;"/><!--link mastermind.models.DAO.ResultDAO to mastermind.models.Files.ResultFileDAO--><path d="M1430.57,128.346 C1436.55,229.093 1451.34,478.174 1457.37,579.777 " fill="none" id="mastermind.models.DAO.ResultDAO-mastermind.models.Files.ResultFileDAO" style="stroke: #A80036; stroke-width: 1.0;"/><polygon fill="none" points="1423.57,128.54,1429.38,108.16,1437.55,127.71,1423.57,128.54" style="stroke: #A80036; stroke-width: 1.0;"/><!--link mastermind.models.Files.FileDAO to mastermind.models.Files.ResultFileDAO--><path d="M1074.01,320.964 C1161.79,389.884 1319.57,513.751 1403.65,579.76 " fill="none" id="mastermind.models.Files.FileDAO-mastermind.models.Files.ResultFileDAO" style="stroke: #A80036; stroke-width: 1.0; stroke-dasharray: 7.0,7.0;"/><polygon fill="none" points="1069.61,326.414,1058.2,308.557,1078.26,315.402,1069.61,326.414" style="stroke: #A80036; stroke-width: 1.0;"/><!--link mastermind.models.Files.CombinationFileDAO to mastermind.models.Files.SecretCombinationFileDAO--><path d="M709.833,533.876 C710.067,551.905 710.313,570.897 710.518,586.773 " fill="none" id="mastermind.models.Files.CombinationFileDAO-mastermind.models.Files.SecretCombinationFileDAO" style="stroke: #A80036; stroke-width: 1.0;"/><polygon fill="none" points="702.833,533.862,709.573,513.773,716.832,533.681,702.833,533.862" style="stroke: #A80036; stroke-width: 1.0;"/><!--link mastermind.models.DAO.SessionImplementationDAO to mastermind.models.Files.SessionImplementationFileDAO--><path d="M911.821,119.761 C902.234,126.451 892.293,133.423 883,140 C863.046,154.122 841.917,169.207 821.422,183.906 " fill="none" id="mastermind.models.DAO.SessionImplementationDAO-mastermind.models.Files.SessionImplementationFileDAO" style="stroke: #A80036; stroke-width: 1.0;"/><polygon fill="none" points="908.063,113.848,928.477,108.169,916.061,125.339,908.063,113.848" style="stroke: #A80036; stroke-width: 1.0;"/><!--link mastermind.models.Files.SessionImplementationFileDAO to mastermind.models.Files.GameFileDAO--><path d="M849.425,364.378 C873.851,379.872 898.547,395.537 921.063,409.818 " fill="none" id="mastermind.models.Files.SessionImplementationFileDAO-mastermind.models.Files.GameFileDAO" style="stroke: #A80036; stroke-width: 1.0;"/><polygon fill="#A80036" points="932.276,416.931,926.818,408.7328,928.0536,414.2531,922.5333,415.4886,932.276,416.931" style="stroke: #A80036; stroke-width: 1.0;"/><line style="stroke: #A80036; stroke-width: 1.0;" x1="928.0536" x2="921.298" y1="414.2531" y2="409.9675"/><polygon fill="#A80036" points="838.082,357.183,841.0065,363.7744,848.2158,363.6101,845.2912,357.0186,838.082,357.183" style="stroke: #A80036; stroke-width: 1.0;"/><!--link mastermind.models.Files.SessionImplementationFileDAO to mastermind.models.StateValue--><path d="M540.986,335.855 C434.486,384.36 297.503,459.253 201,557 C146.682,612.019 110.024,697.401 93.6861,741.124 " fill="none" id="mastermind.models.Files.SessionImplementationFileDAO-mastermind.models.StateValue" style="stroke: #A80036; stroke-width: 1.0; stroke-dasharray: 7.0,7.0;"/><polygon fill="#A80036" points="91.8878,745.9895,98.7599,738.9344,93.6212,741.2996,91.256,736.1609,91.8878,745.9895" style="stroke: #A80036; stroke-width: 1.0;"/><!--
@startuml
abstract class mastermind.models.Files.CombinationFileDAO {
	~CombinationFileDAO(Combination combination)
	+void save(FileWriter fileWriter)
	+void load(BufferedReader bufferedReader)
}
mastermind.models.DAO.CombinationDAO <|-down- mastermind.models.Files.CombinationFileDAO
mastermind.models.Files.FileDAO <|.down. mastermind.models.Files.CombinationFileDAO
mastermind.models.Files.CombinationFileDAO ..> mastermind.models.Combination
mastermind.models.Files.CombinationFileDAO ..> mastermind.types.Color

interface mastermind.models.Files.FileDAO {
	void save(FileWriter fileWriter)
	void load(BufferedReader bufferedReader)
}

class mastermind.models.Files.GameFileDAO {
	-SecretCombinationFileDAO secretCombinationFileDAO
	~GameFileDAO(Game game)
	+void save(FileWriter fileWriter)
	+void load(BufferedReader bufferedReader)
}
mastermind.models.DAO.GameDAO <|-down- mastermind.models.Files.GameFileDAO
mastermind.models.Files.FileDAO <|.down. mastermind.models.Files.GameFileDAO
mastermind.models.Files.GameFileDAO *-down-> mastermind.models.Files.SecretCombinationFileDAO
mastermind.models.Files.GameFileDAO ..> mastermind.models.Files.ProposedCombinationFileDAO
mastermind.models.Files.GameFileDAO ..> mastermind.models.Files.ResultFileDAO
mastermind.models.Files.GameFileDAO ..> mastermind.models.Result
mastermind.models.Files.GameFileDAO ..> mastermind.models.ProposedCombination

class mastermind.models.Files.ProposedCombinationFileDAO {
	~ProposedCombinationFileDAO(ProposedCombination proposedCombination)
	+ProposedCombination getProposedCombination()
}
mastermind.models.Files.CombinationFileDAO <|-down- mastermind.models.Files.ProposedCombinationFileDAO
mastermind.models.Files.ProposedCombinationFileDAO ..> mastermind.models.ProposedCombination

class mastermind.models.Files.ResultFileDAO {
	~ResultFileDAO(Result result)
	+void save(FileWriter fileWriter)
	+void load(BufferedReader bufferedReader)
}
mastermind.models.DAO.ResultDAO <|-down- mastermind.models.Files.ResultFileDAO
mastermind.models.Files.FileDAO <|.down. mastermind.models.Files.ResultFileDAO

class mastermind.models.Files.SecretCombinationFileDAO {
	~SecretCombinationFileDAO(SecretCombination secretCombination)
	+void load(BufferedReader bufferedReader)
}
mastermind.models.Files.CombinationFileDAO <|-down- mastermind.models.Files.SecretCombinationFileDAO

class mastermind.models.Files.SessionImplementationFileDAO {
	#{static}String EXTENSION
	#{static}String DIRECTORY
	#{static}File directory
	-GameFileDAO gameFileDAO
	+void associate(SessionImplementation sessionImplementation)
	+void load(String name)
	+void save(String name)
	+boolean exists(String name)
	+String[] getGamesNames()
}
mastermind.models.DAO.SessionImplementationDAO <|-down- mastermind.models.Files.SessionImplementationFileDAO
mastermind.models.Files.SessionImplementationFileDAO *-down-> mastermind.models.Files.GameFileDAO
mastermind.models.Files.SessionImplementationFileDAO ..> mastermind.models.StateValue
@enduml

PlantUML version 1.2019.05(Sat Apr 20 18:45:36 CEST 2019)
(GPL source distribution)
Java Runtime: OpenJDK Runtime Environment
JVM: OpenJDK 64-Bit Server VM
Java Version: 1.8.0_222-b10
Operating System: Windows 10
OS Version: 10.0
Default Encoding: windows-1252
Language: es
Country: ES
--></g></svg>