<?xml version="1.0" encoding="UTF-8" standalone="no"?><svg xmlns="http://www.w3.org/2000/svg" xmlns:xlink="http://www.w3.org/1999/xlink" contentScriptType="application/ecmascript" contentStyleType="text/css" height="656px" preserveAspectRatio="none" style="width:3297px;height:656px;" version="1.1" viewBox="0 0 3297 656" width="3297px" zoomAndPan="magnify"><defs><filter height="300%" id="ff2uokbpamj8w" width="300%" x="-1" y="-1"><feGaussianBlur result="blurOut" stdDeviation="2.0"/><feColorMatrix in="blurOut" result="blurOut2" type="matrix" values="0 0 0 0 0 0 0 0 0 0 0 0 0 0 0 0 0 0 .4 0"/><feOffset dx="4.0" dy="4.0" in="blurOut2" result="blurOut3"/><feBlend in="SourceGraphic" in2="blurOut3" mode="normal"/></filter></defs><g><!--cluster mastermind.distributed.dispatchers--><polygon fill="#FFFFFF" filter="url(#ff2uokbpamj8w)" points="22,24,278,24,285,47.6094,2960,47.6094,2960,520,22,520,22,24" style="stroke: #000000; stroke-width: 1.5;"/><line style="stroke: #000000; stroke-width: 1.5;" x1="22" x2="285" y1="47.6094" y2="47.6094"/><text fill="#000000" font-family="sans-serif" font-size="14" font-weight="bold" lengthAdjust="spacingAndGlyphs" textLength="250" x="26" y="40.5332">mastermind.distributed.dispatchers</text><!--cluster mastermind.controllers--><polygon fill="#FFFFFF" filter="url(#ff2uokbpamj8w)" points="1249,544,1418,544,1425,567.6094,1874,567.6094,1874,644,1249,644,1249,544" style="stroke: #000000; stroke-width: 1.5;"/><line style="stroke: #000000; stroke-width: 1.5;" x1="1249" x2="1425" y1="567.6094" y2="567.6094"/><text fill="#000000" font-family="sans-serif" font-size="14" font-weight="bold" lengthAdjust="spacingAndGlyphs" textLength="163" x="1253" y="560.5332">mastermind.controllers</text><!--cluster mastermind.utils--><polygon fill="#FFFFFF" filter="url(#ff2uokbpamj8w)" points="3033,406,3155,406,3162,429.6094,3165,429.6094,3165,506,3033,506,3033,406" style="stroke: #000000; stroke-width: 1.5;"/><line style="stroke: #000000; stroke-width: 1.5;" x1="3033" x2="3162" y1="429.6094" y2="429.6094"/><text fill="#000000" font-family="sans-serif" font-size="14" font-weight="bold" lengthAdjust="spacingAndGlyphs" textLength="116" x="3037" y="422.5332">mastermind.utils</text><!--cluster java.util--><polygon fill="#FFFFFF" filter="url(#ff2uokbpamj8w)" points="2984,249.5,3045,249.5,3052,273.1094,3072,273.1094,3072,349.5,2984,349.5,2984,249.5" style="stroke: #000000; stroke-width: 1.5;"/><line style="stroke: #000000; stroke-width: 1.5;" x1="2984" x2="3052" y1="273.1094" y2="273.1094"/><text fill="#000000" font-family="sans-serif" font-size="14" font-weight="bold" lengthAdjust="spacingAndGlyphs" textLength="55" x="2988" y="266.0332">java.util</text><!--cluster mastermind.distributed--><polygon fill="#FFFFFF" filter="url(#ff2uokbpamj8w)" points="3096,249.5,3265,249.5,3272,273.1094,3275,273.1094,3275,349.5,3096,349.5,3096,249.5" style="stroke: #000000; stroke-width: 1.5;"/><line style="stroke: #000000; stroke-width: 1.5;" x1="3096" x2="3272" y1="273.1094" y2="273.1094"/><text fill="#000000" font-family="sans-serif" font-size="14" font-weight="bold" lengthAdjust="spacingAndGlyphs" textLength="163" x="3100" y="266.0332">mastermind.distributed</text><!--class mastermind.distributed.dispatchers.AllCodesDispatcher--><rect fill="#FEFECE" filter="url(#ff2uokbpamj8w)" height="75.6719" id="mastermind.distributed.dispatchers.AllCodesDispatcher" style="stroke: #A80036; stroke-width: 1.5;" width="195" x="2527.5" y="428"/><ellipse cx="2566.35" cy="444" fill="#ADD1B2" rx="11" ry="11" style="stroke: #A80036; stroke-width: 1.0;"/><path d="M2569.1156,439.875 Q2569.2719,439.6563 2569.4594,439.5469 Q2569.6469,439.4375 2569.8656,439.4375 Q2570.2406,439.4375 2570.475,439.6953 Q2570.7094,439.9531 2570.7094,440.5625 L2570.7094,442.0156 Q2570.7094,442.625 2570.475,442.8906 Q2570.2406,443.1563 2569.8656,443.1563 Q2569.5219,443.1563 2569.3188,442.9531 Q2569.1156,442.7656 2569.0063,442.25 Q2568.9594,441.8906 2568.7719,441.7031 Q2568.4438,441.3281 2567.8344,441.1094 Q2567.225,440.8906 2566.6,440.8906 Q2565.8344,440.8906 2565.2016,441.2188 Q2564.5688,441.5469 2564.0766,442.2969 Q2563.5844,443.0469 2563.5844,444.0781 L2563.5844,445.1719 Q2563.5844,446.4063 2564.475,447.2266 Q2565.3656,448.0469 2566.9594,448.0469 Q2567.8969,448.0469 2568.5531,447.7969 Q2568.9438,447.6406 2569.3656,447.2031 Q2569.6313,446.9375 2569.7797,446.8594 Q2569.9281,446.7813 2570.1313,446.7813 Q2570.4594,446.7813 2570.7172,447.0391 Q2570.975,447.2969 2570.975,447.6406 Q2570.975,447.9844 2570.6313,448.3906 Q2570.1313,448.9688 2569.3344,449.2969 Q2568.2563,449.75 2566.9594,449.75 Q2565.4438,449.75 2564.2406,449.125 Q2563.2563,448.625 2562.5688,447.5547 Q2561.8813,446.4844 2561.8813,445.2031 L2561.8813,444.0469 Q2561.8813,442.7188 2562.4984,441.5703 Q2563.1156,440.4219 2564.2094,439.8047 Q2565.3031,439.1875 2566.5375,439.1875 Q2567.2719,439.1875 2567.9203,439.3516 Q2568.5688,439.5156 2569.1156,439.875 Z "/><text fill="#000000" font-family="sans-serif" font-size="12" lengthAdjust="spacingAndGlyphs" textLength="110" x="2585.65" y="448.9102">AllCodesDispatcher</text><line style="stroke: #A80036; stroke-width: 1.5;" x1="2528.5" x2="2721.5" y1="460" y2="460"/><line style="stroke: #A80036; stroke-width: 1.5;" x1="2528.5" x2="2721.5" y1="468" y2="468"/><ellipse cx="2538.5" cy="480.418" fill="#84BE84" rx="3" ry="3" style="stroke: #038048; stroke-width: 1.0;"/><text fill="#000000" font-family="sans-serif" font-size="11" lengthAdjust="spacingAndGlyphs" textLength="169" x="2547.5" y="483.4189">AllCodesDispatcher(PlayController)</text><ellipse cx="2538.5" cy="494.2539" fill="#84BE84" rx="3" ry="3" style="stroke: #038048; stroke-width: 1.0;"/><text fill="#000000" font-family="sans-serif" font-size="11" lengthAdjust="spacingAndGlyphs" textLength="75" x="2547.5" y="497.2549">dispatch(): void</text><!--class mastermind.distributed.dispatchers.Dispatcher--><rect fill="#FEFECE" filter="url(#ff2uokbpamj8w)" height="117.1797" id="mastermind.distributed.dispatchers.Dispatcher" style="stroke: #A80036; stroke-width: 1.5;" width="212" x="1751" y="251"/><ellipse cx="1822.75" cy="267" fill="#ADD1B2" rx="11" ry="11" style="stroke: #A80036; stroke-width: 1.0;"/><path d="M1825.5156,262.875 Q1825.6719,262.6563 1825.8594,262.5469 Q1826.0469,262.4375 1826.2656,262.4375 Q1826.6406,262.4375 1826.875,262.6953 Q1827.1094,262.9531 1827.1094,263.5625 L1827.1094,265.0156 Q1827.1094,265.625 1826.875,265.8906 Q1826.6406,266.1563 1826.2656,266.1563 Q1825.9219,266.1563 1825.7188,265.9531 Q1825.5156,265.7656 1825.4063,265.25 Q1825.3594,264.8906 1825.1719,264.7031 Q1824.8438,264.3281 1824.2344,264.1094 Q1823.625,263.8906 1823,263.8906 Q1822.2344,263.8906 1821.6016,264.2188 Q1820.9688,264.5469 1820.4766,265.2969 Q1819.9844,266.0469 1819.9844,267.0781 L1819.9844,268.1719 Q1819.9844,269.4063 1820.875,270.2266 Q1821.7656,271.0469 1823.3594,271.0469 Q1824.2969,271.0469 1824.9531,270.7969 Q1825.3438,270.6406 1825.7656,270.2031 Q1826.0313,269.9375 1826.1797,269.8594 Q1826.3281,269.7813 1826.5313,269.7813 Q1826.8594,269.7813 1827.1172,270.0391 Q1827.375,270.2969 1827.375,270.6406 Q1827.375,270.9844 1827.0313,271.3906 Q1826.5313,271.9688 1825.7344,272.2969 Q1824.6563,272.75 1823.3594,272.75 Q1821.8438,272.75 1820.6406,272.125 Q1819.6563,271.625 1818.9688,270.5547 Q1818.2813,269.4844 1818.2813,268.2031 L1818.2813,267.0469 Q1818.2813,265.7188 1818.8984,264.5703 Q1819.5156,263.4219 1820.6094,262.8047 Q1821.7031,262.1875 1822.9375,262.1875 Q1823.6719,262.1875 1824.3203,262.3516 Q1824.9688,262.5156 1825.5156,262.875 Z "/><text fill="#000000" font-family="sans-serif" font-size="12" lengthAdjust="spacingAndGlyphs" textLength="60" x="1843.25" y="271.9102">Dispatcher</text><line style="stroke: #A80036; stroke-width: 1.5;" x1="1752" x2="1962" y1="283" y2="283"/><polygon fill="none" points="1762,290.418,1766,294.418,1762,298.418,1758,294.418" style="stroke: #B38D22; stroke-width: 1.0;"/><text fill="#000000" font-family="sans-serif" font-size="11" lengthAdjust="spacingAndGlyphs" textLength="186" x="1771" y="298.4189">acceptorController: AcceptorController</text><polygon fill="none" points="1762,304.2539,1766,308.2539,1762,312.2539,1758,308.2539" style="stroke: #B38D22; stroke-width: 1.0;"/><text fill="#000000" font-family="sans-serif" font-size="11" lengthAdjust="spacingAndGlyphs" textLength="56" x="1771" y="312.2549">tcpip: TCPIP</text><line style="stroke: #A80036; stroke-width: 1.5;" x1="1752" x2="1962" y1="318.6719" y2="318.6719"/><ellipse cx="1762" cy="331.0898" fill="#84BE84" rx="3" ry="3" style="stroke: #038048; stroke-width: 1.0;"/><text fill="#000000" font-family="sans-serif" font-size="11" lengthAdjust="spacingAndGlyphs" textLength="151" x="1771" y="334.0908">Dispatcher(AcceptorController)</text><ellipse cx="1762" cy="344.9258" fill="#84BE84" rx="3" ry="3" style="stroke: #038048; stroke-width: 1.0;"/><text fill="#000000" font-family="sans-serif" font-size="11" font-style="italic" lengthAdjust="spacingAndGlyphs" textLength="76" x="1771" y="347.9268">dispatch(): void</text><ellipse cx="1762" cy="358.7617" fill="#84BE84" rx="3" ry="3" style="stroke: #038048; stroke-width: 1.0;"/><text fill="#000000" font-family="sans-serif" font-size="11" lengthAdjust="spacingAndGlyphs" textLength="108" x="1771" y="361.7627">associate(TCPIP): void</text><!--class mastermind.distributed.dispatchers.DispatcherPrototype--><rect fill="#FEFECE" filter="url(#ff2uokbpamj8w)" height="131.0156" id="mastermind.distributed.dispatchers.DispatcherPrototype" style="stroke: #A80036; stroke-width: 1.5;" width="247" x="2696.5" y="60"/><ellipse cx="2760.25" cy="76" fill="#ADD1B2" rx="11" ry="11" style="stroke: #A80036; stroke-width: 1.0;"/><path d="M2763.0156,71.875 Q2763.1719,71.6563 2763.3594,71.5469 Q2763.5469,71.4375 2763.7656,71.4375 Q2764.1406,71.4375 2764.375,71.6953 Q2764.6094,71.9531 2764.6094,72.5625 L2764.6094,74.0156 Q2764.6094,74.625 2764.375,74.8906 Q2764.1406,75.1563 2763.7656,75.1563 Q2763.4219,75.1563 2763.2188,74.9531 Q2763.0156,74.7656 2762.9063,74.25 Q2762.8594,73.8906 2762.6719,73.7031 Q2762.3438,73.3281 2761.7344,73.1094 Q2761.125,72.8906 2760.5,72.8906 Q2759.7344,72.8906 2759.1016,73.2188 Q2758.4688,73.5469 2757.9766,74.2969 Q2757.4844,75.0469 2757.4844,76.0781 L2757.4844,77.1719 Q2757.4844,78.4063 2758.375,79.2266 Q2759.2656,80.0469 2760.8594,80.0469 Q2761.7969,80.0469 2762.4531,79.7969 Q2762.8438,79.6406 2763.2656,79.2031 Q2763.5313,78.9375 2763.6797,78.8594 Q2763.8281,78.7813 2764.0313,78.7813 Q2764.3594,78.7813 2764.6172,79.0391 Q2764.875,79.2969 2764.875,79.6406 Q2764.875,79.9844 2764.5313,80.3906 Q2764.0313,80.9688 2763.2344,81.2969 Q2762.1563,81.75 2760.8594,81.75 Q2759.3438,81.75 2758.1406,81.125 Q2757.1563,80.625 2756.4688,79.5547 Q2755.7813,78.4844 2755.7813,77.2031 L2755.7813,76.0469 Q2755.7813,74.7188 2756.3984,73.5703 Q2757.0156,72.4219 2758.1094,71.8047 Q2759.2031,71.1875 2760.4375,71.1875 Q2761.1719,71.1875 2761.8203,71.3516 Q2762.4688,71.5156 2763.0156,71.875 Z "/><text fill="#000000" font-family="sans-serif" font-size="12" lengthAdjust="spacingAndGlyphs" textLength="111" x="2780.75" y="80.9102">DispatcherPrototype</text><line style="stroke: #A80036; stroke-width: 1.5;" x1="2697.5" x2="2942.5" y1="92" y2="92"/><rect fill="none" height="6" style="stroke: #C82930; stroke-width: 1.0;" width="6" x="2704.5" y="101.418"/><text fill="#000000" font-family="sans-serif" font-size="11" lengthAdjust="spacingAndGlyphs" textLength="56" x="2716.5" y="107.4189">tcpip: TCPIP</text><rect fill="none" height="6" style="stroke: #C82930; stroke-width: 1.0;" width="6" x="2704.5" y="115.2539"/><text fill="#000000" font-family="sans-serif" font-size="11" lengthAdjust="spacingAndGlyphs" textLength="221" x="2716.5" y="121.2549">dispatcherMap: Map&lt;FrameType, Dispatcher&gt;</text><line style="stroke: #A80036; stroke-width: 1.5;" x1="2697.5" x2="2942.5" y1="127.6719" y2="127.6719"/><ellipse cx="2707.5" cy="140.0898" fill="#84BE84" rx="3" ry="3" style="stroke: #038048; stroke-width: 1.0;"/><text fill="#000000" font-family="sans-serif" font-size="11" lengthAdjust="spacingAndGlyphs" textLength="106" x="2716.5" y="143.0908">DispatcherPrototype()</text><ellipse cx="2707.5" cy="153.9258" fill="#84BE84" rx="3" ry="3" style="stroke: #038048; stroke-width: 1.0;"/><text fill="#000000" font-family="sans-serif" font-size="11" lengthAdjust="spacingAndGlyphs" textLength="164" x="2716.5" y="156.9268">add(FrameType, Dispatcher): void</text><ellipse cx="2707.5" cy="167.7617" fill="#84BE84" rx="3" ry="3" style="stroke: #038048; stroke-width: 1.0;"/><text fill="#000000" font-family="sans-serif" font-size="11" lengthAdjust="spacingAndGlyphs" textLength="129" x="2716.5" y="170.7627">dispatch(FrameType): void</text><ellipse cx="2707.5" cy="181.5977" fill="#84BE84" rx="3" ry="3" style="stroke: #038048; stroke-width: 1.0;"/><text fill="#000000" font-family="sans-serif" font-size="11" lengthAdjust="spacingAndGlyphs" textLength="62" x="2716.5" y="184.5986">serve(): void</text><!--class mastermind.distributed.dispatchers.LooserDispatcher--><rect fill="#FEFECE" filter="url(#ff2uokbpamj8w)" height="75.6719" id="mastermind.distributed.dispatchers.LooserDispatcher" style="stroke: #A80036; stroke-width: 1.5;" width="186" x="2758" y="428"/><ellipse cx="2797.75" cy="444" fill="#ADD1B2" rx="11" ry="11" style="stroke: #A80036; stroke-width: 1.0;"/><path d="M2800.5156,439.875 Q2800.6719,439.6563 2800.8594,439.5469 Q2801.0469,439.4375 2801.2656,439.4375 Q2801.6406,439.4375 2801.875,439.6953 Q2802.1094,439.9531 2802.1094,440.5625 L2802.1094,442.0156 Q2802.1094,442.625 2801.875,442.8906 Q2801.6406,443.1563 2801.2656,443.1563 Q2800.9219,443.1563 2800.7188,442.9531 Q2800.5156,442.7656 2800.4063,442.25 Q2800.3594,441.8906 2800.1719,441.7031 Q2799.8438,441.3281 2799.2344,441.1094 Q2798.625,440.8906 2798,440.8906 Q2797.2344,440.8906 2796.6016,441.2188 Q2795.9688,441.5469 2795.4766,442.2969 Q2794.9844,443.0469 2794.9844,444.0781 L2794.9844,445.1719 Q2794.9844,446.4063 2795.875,447.2266 Q2796.7656,448.0469 2798.3594,448.0469 Q2799.2969,448.0469 2799.9531,447.7969 Q2800.3438,447.6406 2800.7656,447.2031 Q2801.0313,446.9375 2801.1797,446.8594 Q2801.3281,446.7813 2801.5313,446.7813 Q2801.8594,446.7813 2802.1172,447.0391 Q2802.375,447.2969 2802.375,447.6406 Q2802.375,447.9844 2802.0313,448.3906 Q2801.5313,448.9688 2800.7344,449.2969 Q2799.6563,449.75 2798.3594,449.75 Q2796.8438,449.75 2795.6406,449.125 Q2794.6563,448.625 2793.9688,447.5547 Q2793.2813,446.4844 2793.2813,445.2031 L2793.2813,444.0469 Q2793.2813,442.7188 2793.8984,441.5703 Q2794.5156,440.4219 2795.6094,439.8047 Q2796.7031,439.1875 2797.9375,439.1875 Q2798.6719,439.1875 2799.3203,439.3516 Q2799.9688,439.5156 2800.5156,439.875 Z "/><text fill="#000000" font-family="sans-serif" font-size="12" lengthAdjust="spacingAndGlyphs" textLength="99" x="2817.25" y="448.9102">LooserDispatcher</text><line style="stroke: #A80036; stroke-width: 1.5;" x1="2759" x2="2943" y1="460" y2="460"/><line style="stroke: #A80036; stroke-width: 1.5;" x1="2759" x2="2943" y1="468" y2="468"/><ellipse cx="2769" cy="480.418" fill="#84BE84" rx="3" ry="3" style="stroke: #038048; stroke-width: 1.0;"/><text fill="#000000" font-family="sans-serif" font-size="11" lengthAdjust="spacingAndGlyphs" textLength="160" x="2778" y="483.4189">LooserDispatcher(PlayController)</text><ellipse cx="2769" cy="494.2539" fill="#84BE84" rx="3" ry="3" style="stroke: #038048; stroke-width: 1.0;"/><text fill="#000000" font-family="sans-serif" font-size="11" lengthAdjust="spacingAndGlyphs" textLength="75" x="2778" y="497.2549">dispatch(): void</text><!--class mastermind.distributed.dispatchers.ProposeCombinationDispatcher--><rect fill="#FEFECE" filter="url(#ff2uokbpamj8w)" height="75.6719" id="mastermind.distributed.dispatchers.ProposeCombinationDispatcher" style="stroke: #A80036; stroke-width: 1.5;" width="250" x="496" y="428"/><ellipse cx="529" cy="444" fill="#ADD1B2" rx="11" ry="11" style="stroke: #A80036; stroke-width: 1.0;"/><path d="M531.7656,439.875 Q531.9219,439.6563 532.1094,439.5469 Q532.2969,439.4375 532.5156,439.4375 Q532.8906,439.4375 533.125,439.6953 Q533.3594,439.9531 533.3594,440.5625 L533.3594,442.0156 Q533.3594,442.625 533.125,442.8906 Q532.8906,443.1563 532.5156,443.1563 Q532.1719,443.1563 531.9688,442.9531 Q531.7656,442.7656 531.6563,442.25 Q531.6094,441.8906 531.4219,441.7031 Q531.0938,441.3281 530.4844,441.1094 Q529.875,440.8906 529.25,440.8906 Q528.4844,440.8906 527.8516,441.2188 Q527.2188,441.5469 526.7266,442.2969 Q526.2344,443.0469 526.2344,444.0781 L526.2344,445.1719 Q526.2344,446.4063 527.125,447.2266 Q528.0156,448.0469 529.6094,448.0469 Q530.5469,448.0469 531.2031,447.7969 Q531.5938,447.6406 532.0156,447.2031 Q532.2813,446.9375 532.4297,446.8594 Q532.5781,446.7813 532.7813,446.7813 Q533.1094,446.7813 533.3672,447.0391 Q533.625,447.2969 533.625,447.6406 Q533.625,447.9844 533.2813,448.3906 Q532.7813,448.9688 531.9844,449.2969 Q530.9063,449.75 529.6094,449.75 Q528.0938,449.75 526.8906,449.125 Q525.9063,448.625 525.2188,447.5547 Q524.5313,446.4844 524.5313,445.2031 L524.5313,444.0469 Q524.5313,442.7188 525.1484,441.5703 Q525.7656,440.4219 526.8594,439.8047 Q527.9531,439.1875 529.1875,439.1875 Q529.9219,439.1875 530.5703,439.3516 Q531.2188,439.5156 531.7656,439.875 Z "/><text fill="#000000" font-family="sans-serif" font-size="12" lengthAdjust="spacingAndGlyphs" textLength="178" x="547" y="448.9102">ProposeCombinationDispatcher</text><line style="stroke: #A80036; stroke-width: 1.5;" x1="497" x2="745" y1="460" y2="460"/><line style="stroke: #A80036; stroke-width: 1.5;" x1="497" x2="745" y1="468" y2="468"/><ellipse cx="507" cy="480.418" fill="#84BE84" rx="3" ry="3" style="stroke: #038048; stroke-width: 1.0;"/><text fill="#000000" font-family="sans-serif" font-size="11" lengthAdjust="spacingAndGlyphs" textLength="224" x="516" y="483.4189">ProposeCombinationDispatcher(PlayController)</text><ellipse cx="507" cy="494.2539" fill="#84BE84" rx="3" ry="3" style="stroke: #038048; stroke-width: 1.0;"/><text fill="#000000" font-family="sans-serif" font-size="11" lengthAdjust="spacingAndGlyphs" textLength="75" x="516" y="497.2549">dispatch(): void</text><!--class mastermind.distributed.dispatchers.RedoableDispatcher--><rect fill="#FEFECE" filter="url(#ff2uokbpamj8w)" height="75.6719" id="mastermind.distributed.dispatchers.RedoableDispatcher" style="stroke: #A80036; stroke-width: 1.5;" width="197" x="781.5" y="428"/><ellipse cx="819.45" cy="444" fill="#ADD1B2" rx="11" ry="11" style="stroke: #A80036; stroke-width: 1.0;"/><path d="M822.2156,439.875 Q822.3719,439.6563 822.5594,439.5469 Q822.7469,439.4375 822.9656,439.4375 Q823.3406,439.4375 823.575,439.6953 Q823.8094,439.9531 823.8094,440.5625 L823.8094,442.0156 Q823.8094,442.625 823.575,442.8906 Q823.3406,443.1563 822.9656,443.1563 Q822.6219,443.1563 822.4188,442.9531 Q822.2156,442.7656 822.1063,442.25 Q822.0594,441.8906 821.8719,441.7031 Q821.5438,441.3281 820.9344,441.1094 Q820.325,440.8906 819.7,440.8906 Q818.9344,440.8906 818.3016,441.2188 Q817.6688,441.5469 817.1766,442.2969 Q816.6844,443.0469 816.6844,444.0781 L816.6844,445.1719 Q816.6844,446.4063 817.575,447.2266 Q818.4656,448.0469 820.0594,448.0469 Q820.9969,448.0469 821.6531,447.7969 Q822.0438,447.6406 822.4656,447.2031 Q822.7313,446.9375 822.8797,446.8594 Q823.0281,446.7813 823.2313,446.7813 Q823.5594,446.7813 823.8172,447.0391 Q824.075,447.2969 824.075,447.6406 Q824.075,447.9844 823.7313,448.3906 Q823.2313,448.9688 822.4344,449.2969 Q821.3563,449.75 820.0594,449.75 Q818.5438,449.75 817.3406,449.125 Q816.3563,448.625 815.6688,447.5547 Q814.9813,446.4844 814.9813,445.2031 L814.9813,444.0469 Q814.9813,442.7188 815.5984,441.5703 Q816.2156,440.4219 817.3094,439.8047 Q818.4031,439.1875 819.6375,439.1875 Q820.3719,439.1875 821.0203,439.3516 Q821.6688,439.5156 822.2156,439.875 Z "/><text fill="#000000" font-family="sans-serif" font-size="12" lengthAdjust="spacingAndGlyphs" textLength="114" x="838.55" y="448.9102">RedoableDispatcher</text><line style="stroke: #A80036; stroke-width: 1.5;" x1="782.5" x2="977.5" y1="460" y2="460"/><line style="stroke: #A80036; stroke-width: 1.5;" x1="782.5" x2="977.5" y1="468" y2="468"/><ellipse cx="792.5" cy="480.418" fill="#84BE84" rx="3" ry="3" style="stroke: #038048; stroke-width: 1.0;"/><text fill="#000000" font-family="sans-serif" font-size="11" lengthAdjust="spacingAndGlyphs" textLength="171" x="801.5" y="483.4189">RedoableDispatcher(PlayController)</text><ellipse cx="792.5" cy="494.2539" fill="#84BE84" rx="3" ry="3" style="stroke: #038048; stroke-width: 1.0;"/><text fill="#000000" font-family="sans-serif" font-size="11" lengthAdjust="spacingAndGlyphs" textLength="75" x="801.5" y="497.2549">dispatch(): void</text><!--class mastermind.distributed.dispatchers.RedoDispatcher--><rect fill="#FEFECE" filter="url(#ff2uokbpamj8w)" height="75.6719" id="mastermind.distributed.dispatchers.RedoDispatcher" style="stroke: #A80036; stroke-width: 1.5;" width="177" x="1013.5" y="428"/><ellipse cx="1053.25" cy="444" fill="#ADD1B2" rx="11" ry="11" style="stroke: #A80036; stroke-width: 1.0;"/><path d="M1056.0156,439.875 Q1056.1719,439.6563 1056.3594,439.5469 Q1056.5469,439.4375 1056.7656,439.4375 Q1057.1406,439.4375 1057.375,439.6953 Q1057.6094,439.9531 1057.6094,440.5625 L1057.6094,442.0156 Q1057.6094,442.625 1057.375,442.8906 Q1057.1406,443.1563 1056.7656,443.1563 Q1056.4219,443.1563 1056.2188,442.9531 Q1056.0156,442.7656 1055.9063,442.25 Q1055.8594,441.8906 1055.6719,441.7031 Q1055.3438,441.3281 1054.7344,441.1094 Q1054.125,440.8906 1053.5,440.8906 Q1052.7344,440.8906 1052.1016,441.2188 Q1051.4688,441.5469 1050.9766,442.2969 Q1050.4844,443.0469 1050.4844,444.0781 L1050.4844,445.1719 Q1050.4844,446.4063 1051.375,447.2266 Q1052.2656,448.0469 1053.8594,448.0469 Q1054.7969,448.0469 1055.4531,447.7969 Q1055.8438,447.6406 1056.2656,447.2031 Q1056.5313,446.9375 1056.6797,446.8594 Q1056.8281,446.7813 1057.0313,446.7813 Q1057.3594,446.7813 1057.6172,447.0391 Q1057.875,447.2969 1057.875,447.6406 Q1057.875,447.9844 1057.5313,448.3906 Q1057.0313,448.9688 1056.2344,449.2969 Q1055.1563,449.75 1053.8594,449.75 Q1052.3438,449.75 1051.1406,449.125 Q1050.1563,448.625 1049.4688,447.5547 Q1048.7813,446.4844 1048.7813,445.2031 L1048.7813,444.0469 Q1048.7813,442.7188 1049.3984,441.5703 Q1050.0156,440.4219 1051.1094,439.8047 Q1052.2031,439.1875 1053.4375,439.1875 Q1054.1719,439.1875 1054.8203,439.3516 Q1055.4688,439.5156 1056.0156,439.875 Z "/><text fill="#000000" font-family="sans-serif" font-size="12" lengthAdjust="spacingAndGlyphs" textLength="90" x="1072.75" y="448.9102">RedoDispatcher</text><line style="stroke: #A80036; stroke-width: 1.5;" x1="1014.5" x2="1189.5" y1="460" y2="460"/><line style="stroke: #A80036; stroke-width: 1.5;" x1="1014.5" x2="1189.5" y1="468" y2="468"/><ellipse cx="1024.5" cy="480.418" fill="#84BE84" rx="3" ry="3" style="stroke: #038048; stroke-width: 1.0;"/><text fill="#000000" font-family="sans-serif" font-size="11" lengthAdjust="spacingAndGlyphs" textLength="151" x="1033.5" y="483.4189">RedoDispatcher(PlayController)</text><ellipse cx="1024.5" cy="494.2539" fill="#84BE84" rx="3" ry="3" style="stroke: #038048; stroke-width: 1.0;"/><text fill="#000000" font-family="sans-serif" font-size="11" lengthAdjust="spacingAndGlyphs" textLength="75" x="1033.5" y="497.2549">dispatch(): void</text><!--class mastermind.distributed.dispatchers.ResumeDispatcher--><rect fill="#FEFECE" filter="url(#ff2uokbpamj8w)" height="75.6719" id="mastermind.distributed.dispatchers.ResumeDispatcher" style="stroke: #A80036; stroke-width: 1.5;" width="210" x="38" y="428"/><ellipse cx="84.75" cy="444" fill="#ADD1B2" rx="11" ry="11" style="stroke: #A80036; stroke-width: 1.0;"/><path d="M87.5156,439.875 Q87.6719,439.6563 87.8594,439.5469 Q88.0469,439.4375 88.2656,439.4375 Q88.6406,439.4375 88.875,439.6953 Q89.1094,439.9531 89.1094,440.5625 L89.1094,442.0156 Q89.1094,442.625 88.875,442.8906 Q88.6406,443.1563 88.2656,443.1563 Q87.9219,443.1563 87.7188,442.9531 Q87.5156,442.7656 87.4063,442.25 Q87.3594,441.8906 87.1719,441.7031 Q86.8438,441.3281 86.2344,441.1094 Q85.625,440.8906 85,440.8906 Q84.2344,440.8906 83.6016,441.2188 Q82.9688,441.5469 82.4766,442.2969 Q81.9844,443.0469 81.9844,444.0781 L81.9844,445.1719 Q81.9844,446.4063 82.875,447.2266 Q83.7656,448.0469 85.3594,448.0469 Q86.2969,448.0469 86.9531,447.7969 Q87.3438,447.6406 87.7656,447.2031 Q88.0313,446.9375 88.1797,446.8594 Q88.3281,446.7813 88.5313,446.7813 Q88.8594,446.7813 89.1172,447.0391 Q89.375,447.2969 89.375,447.6406 Q89.375,447.9844 89.0313,448.3906 Q88.5313,448.9688 87.7344,449.2969 Q86.6563,449.75 85.3594,449.75 Q83.8438,449.75 82.6406,449.125 Q81.6563,448.625 80.9688,447.5547 Q80.2813,446.4844 80.2813,445.2031 L80.2813,444.0469 Q80.2813,442.7188 80.8984,441.5703 Q81.5156,440.4219 82.6094,439.8047 Q83.7031,439.1875 84.9375,439.1875 Q85.6719,439.1875 86.3203,439.3516 Q86.9688,439.5156 87.5156,439.875 Z "/><text fill="#000000" font-family="sans-serif" font-size="12" lengthAdjust="spacingAndGlyphs" textLength="108" x="105.25" y="448.9102">ResumeDispatcher</text><line style="stroke: #A80036; stroke-width: 1.5;" x1="39" x2="247" y1="460" y2="460"/><line style="stroke: #A80036; stroke-width: 1.5;" x1="39" x2="247" y1="468" y2="468"/><ellipse cx="49" cy="480.418" fill="#84BE84" rx="3" ry="3" style="stroke: #038048; stroke-width: 1.0;"/><text fill="#000000" font-family="sans-serif" font-size="11" lengthAdjust="spacingAndGlyphs" textLength="184" x="58" y="483.4189">ResumeDispatcher(ResumeController)</text><ellipse cx="49" cy="494.2539" fill="#84BE84" rx="3" ry="3" style="stroke: #038048; stroke-width: 1.0;"/><text fill="#000000" font-family="sans-serif" font-size="11" lengthAdjust="spacingAndGlyphs" textLength="75" x="58" y="497.2549">dispatch(): void</text><!--class mastermind.distributed.dispatchers.StartDispatcher--><rect fill="#FEFECE" filter="url(#ff2uokbpamj8w)" height="75.6719" id="mastermind.distributed.dispatchers.StartDispatcher" style="stroke: #A80036; stroke-width: 1.5;" width="178" x="283" y="428"/><ellipse cx="325.45" cy="444" fill="#ADD1B2" rx="11" ry="11" style="stroke: #A80036; stroke-width: 1.0;"/><path d="M328.2156,439.875 Q328.3719,439.6563 328.5594,439.5469 Q328.7469,439.4375 328.9656,439.4375 Q329.3406,439.4375 329.575,439.6953 Q329.8094,439.9531 329.8094,440.5625 L329.8094,442.0156 Q329.8094,442.625 329.575,442.8906 Q329.3406,443.1563 328.9656,443.1563 Q328.6219,443.1563 328.4188,442.9531 Q328.2156,442.7656 328.1063,442.25 Q328.0594,441.8906 327.8719,441.7031 Q327.5438,441.3281 326.9344,441.1094 Q326.325,440.8906 325.7,440.8906 Q324.9344,440.8906 324.3016,441.2188 Q323.6688,441.5469 323.1766,442.2969 Q322.6844,443.0469 322.6844,444.0781 L322.6844,445.1719 Q322.6844,446.4063 323.575,447.2266 Q324.4656,448.0469 326.0594,448.0469 Q326.9969,448.0469 327.6531,447.7969 Q328.0438,447.6406 328.4656,447.2031 Q328.7313,446.9375 328.8797,446.8594 Q329.0281,446.7813 329.2313,446.7813 Q329.5594,446.7813 329.8172,447.0391 Q330.075,447.2969 330.075,447.6406 Q330.075,447.9844 329.7313,448.3906 Q329.2313,448.9688 328.4344,449.2969 Q327.3563,449.75 326.0594,449.75 Q324.5438,449.75 323.3406,449.125 Q322.3563,448.625 321.6688,447.5547 Q320.9813,446.4844 320.9813,445.2031 L320.9813,444.0469 Q320.9813,442.7188 321.5984,441.5703 Q322.2156,440.4219 323.3094,439.8047 Q324.4031,439.1875 325.6375,439.1875 Q326.3719,439.1875 327.0203,439.3516 Q327.6688,439.5156 328.2156,439.875 Z "/><text fill="#000000" font-family="sans-serif" font-size="12" lengthAdjust="spacingAndGlyphs" textLength="85" x="345.55" y="448.9102">StartDispatcher</text><line style="stroke: #A80036; stroke-width: 1.5;" x1="284" x2="460" y1="460" y2="460"/><line style="stroke: #A80036; stroke-width: 1.5;" x1="284" x2="460" y1="468" y2="468"/><ellipse cx="294" cy="480.418" fill="#84BE84" rx="3" ry="3" style="stroke: #038048; stroke-width: 1.0;"/><text fill="#000000" font-family="sans-serif" font-size="11" lengthAdjust="spacingAndGlyphs" textLength="152" x="303" y="483.4189">StartDispatcher(StartController)</text><ellipse cx="294" cy="494.2539" fill="#84BE84" rx="3" ry="3" style="stroke: #038048; stroke-width: 1.0;"/><text fill="#000000" font-family="sans-serif" font-size="11" lengthAdjust="spacingAndGlyphs" textLength="75" x="303" y="497.2549">dispatch(): void</text><!--class mastermind.distributed.dispatchers.StateDispatcher--><rect fill="#FEFECE" filter="url(#ff2uokbpamj8w)" height="75.6719" id="mastermind.distributed.dispatchers.StateDispatcher" style="stroke: #A80036; stroke-width: 1.5;" width="177" x="1225.5" y="428"/><ellipse cx="1266.15" cy="444" fill="#ADD1B2" rx="11" ry="11" style="stroke: #A80036; stroke-width: 1.0;"/><path d="M1268.9156,439.875 Q1269.0719,439.6563 1269.2594,439.5469 Q1269.4469,439.4375 1269.6656,439.4375 Q1270.0406,439.4375 1270.275,439.6953 Q1270.5094,439.9531 1270.5094,440.5625 L1270.5094,442.0156 Q1270.5094,442.625 1270.275,442.8906 Q1270.0406,443.1563 1269.6656,443.1563 Q1269.3219,443.1563 1269.1188,442.9531 Q1268.9156,442.7656 1268.8063,442.25 Q1268.7594,441.8906 1268.5719,441.7031 Q1268.2438,441.3281 1267.6344,441.1094 Q1267.025,440.8906 1266.4,440.8906 Q1265.6344,440.8906 1265.0016,441.2188 Q1264.3688,441.5469 1263.8766,442.2969 Q1263.3844,443.0469 1263.3844,444.0781 L1263.3844,445.1719 Q1263.3844,446.4063 1264.275,447.2266 Q1265.1656,448.0469 1266.7594,448.0469 Q1267.6969,448.0469 1268.3531,447.7969 Q1268.7438,447.6406 1269.1656,447.2031 Q1269.4313,446.9375 1269.5797,446.8594 Q1269.7281,446.7813 1269.9313,446.7813 Q1270.2594,446.7813 1270.5172,447.0391 Q1270.775,447.2969 1270.775,447.6406 Q1270.775,447.9844 1270.4313,448.3906 Q1269.9313,448.9688 1269.1344,449.2969 Q1268.0563,449.75 1266.7594,449.75 Q1265.2438,449.75 1264.0406,449.125 Q1263.0563,448.625 1262.3688,447.5547 Q1261.6813,446.4844 1261.6813,445.2031 L1261.6813,444.0469 Q1261.6813,442.7188 1262.2984,441.5703 Q1262.9156,440.4219 1264.0094,439.8047 Q1265.1031,439.1875 1266.3375,439.1875 Q1267.0719,439.1875 1267.7203,439.3516 Q1268.3688,439.5156 1268.9156,439.875 Z "/><text fill="#000000" font-family="sans-serif" font-size="12" lengthAdjust="spacingAndGlyphs" textLength="88" x="1285.85" y="448.9102">StateDispatcher</text><line style="stroke: #A80036; stroke-width: 1.5;" x1="1226.5" x2="1401.5" y1="460" y2="460"/><line style="stroke: #A80036; stroke-width: 1.5;" x1="1226.5" x2="1401.5" y1="468" y2="468"/><ellipse cx="1236.5" cy="480.418" fill="#84BE84" rx="3" ry="3" style="stroke: #038048; stroke-width: 1.0;"/><text fill="#000000" font-family="sans-serif" font-size="11" lengthAdjust="spacingAndGlyphs" textLength="151" x="1245.5" y="483.4189">StateDispatcher(PlayController)</text><ellipse cx="1236.5" cy="494.2539" fill="#84BE84" rx="3" ry="3" style="stroke: #038048; stroke-width: 1.0;"/><text fill="#000000" font-family="sans-serif" font-size="11" lengthAdjust="spacingAndGlyphs" textLength="75" x="1245.5" y="497.2549">dispatch(): void</text><!--class mastermind.distributed.dispatchers.TurnDispatcher--><rect fill="#FEFECE" filter="url(#ff2uokbpamj8w)" height="75.6719" id="mastermind.distributed.dispatchers.TurnDispatcher" style="stroke: #A80036; stroke-width: 1.5;" width="174" x="1438" y="428"/><ellipse cx="1478.65" cy="444" fill="#ADD1B2" rx="11" ry="11" style="stroke: #A80036; stroke-width: 1.0;"/><path d="M1481.4156,439.875 Q1481.5719,439.6563 1481.7594,439.5469 Q1481.9469,439.4375 1482.1656,439.4375 Q1482.5406,439.4375 1482.775,439.6953 Q1483.0094,439.9531 1483.0094,440.5625 L1483.0094,442.0156 Q1483.0094,442.625 1482.775,442.8906 Q1482.5406,443.1563 1482.1656,443.1563 Q1481.8219,443.1563 1481.6188,442.9531 Q1481.4156,442.7656 1481.3063,442.25 Q1481.2594,441.8906 1481.0719,441.7031 Q1480.7438,441.3281 1480.1344,441.1094 Q1479.525,440.8906 1478.9,440.8906 Q1478.1344,440.8906 1477.5016,441.2188 Q1476.8688,441.5469 1476.3766,442.2969 Q1475.8844,443.0469 1475.8844,444.0781 L1475.8844,445.1719 Q1475.8844,446.4063 1476.775,447.2266 Q1477.6656,448.0469 1479.2594,448.0469 Q1480.1969,448.0469 1480.8531,447.7969 Q1481.2438,447.6406 1481.6656,447.2031 Q1481.9313,446.9375 1482.0797,446.8594 Q1482.2281,446.7813 1482.4313,446.7813 Q1482.7594,446.7813 1483.0172,447.0391 Q1483.275,447.2969 1483.275,447.6406 Q1483.275,447.9844 1482.9313,448.3906 Q1482.4313,448.9688 1481.6344,449.2969 Q1480.5563,449.75 1479.2594,449.75 Q1477.7438,449.75 1476.5406,449.125 Q1475.5563,448.625 1474.8688,447.5547 Q1474.1813,446.4844 1474.1813,445.2031 L1474.1813,444.0469 Q1474.1813,442.7188 1474.7984,441.5703 Q1475.4156,440.4219 1476.5094,439.8047 Q1477.6031,439.1875 1478.8375,439.1875 Q1479.5719,439.1875 1480.2203,439.3516 Q1480.8688,439.5156 1481.4156,439.875 Z "/><text fill="#000000" font-family="sans-serif" font-size="12" lengthAdjust="spacingAndGlyphs" textLength="85" x="1498.35" y="448.9102">TurnDispatcher</text><line style="stroke: #A80036; stroke-width: 1.5;" x1="1439" x2="1611" y1="460" y2="460"/><line style="stroke: #A80036; stroke-width: 1.5;" x1="1439" x2="1611" y1="468" y2="468"/><ellipse cx="1449" cy="480.418" fill="#84BE84" rx="3" ry="3" style="stroke: #038048; stroke-width: 1.0;"/><text fill="#000000" font-family="sans-serif" font-size="11" lengthAdjust="spacingAndGlyphs" textLength="148" x="1458" y="483.4189">TurnDispatcher(PlayController)</text><ellipse cx="1449" cy="494.2539" fill="#84BE84" rx="3" ry="3" style="stroke: #038048; stroke-width: 1.0;"/><text fill="#000000" font-family="sans-serif" font-size="11" lengthAdjust="spacingAndGlyphs" textLength="75" x="1458" y="497.2549">dispatch(): void</text><!--class mastermind.distributed.dispatchers.UndoableDispatcher--><rect fill="#FEFECE" filter="url(#ff2uokbpamj8w)" height="75.6719" id="mastermind.distributed.dispatchers.UndoableDispatcher" style="stroke: #A80036; stroke-width: 1.5;" width="197" x="1647.5" y="428"/><ellipse cx="1685.45" cy="444" fill="#ADD1B2" rx="11" ry="11" style="stroke: #A80036; stroke-width: 1.0;"/><path d="M1688.2156,439.875 Q1688.3719,439.6563 1688.5594,439.5469 Q1688.7469,439.4375 1688.9656,439.4375 Q1689.3406,439.4375 1689.575,439.6953 Q1689.8094,439.9531 1689.8094,440.5625 L1689.8094,442.0156 Q1689.8094,442.625 1689.575,442.8906 Q1689.3406,443.1563 1688.9656,443.1563 Q1688.6219,443.1563 1688.4188,442.9531 Q1688.2156,442.7656 1688.1063,442.25 Q1688.0594,441.8906 1687.8719,441.7031 Q1687.5438,441.3281 1686.9344,441.1094 Q1686.325,440.8906 1685.7,440.8906 Q1684.9344,440.8906 1684.3016,441.2188 Q1683.6688,441.5469 1683.1766,442.2969 Q1682.6844,443.0469 1682.6844,444.0781 L1682.6844,445.1719 Q1682.6844,446.4063 1683.575,447.2266 Q1684.4656,448.0469 1686.0594,448.0469 Q1686.9969,448.0469 1687.6531,447.7969 Q1688.0438,447.6406 1688.4656,447.2031 Q1688.7313,446.9375 1688.8797,446.8594 Q1689.0281,446.7813 1689.2313,446.7813 Q1689.5594,446.7813 1689.8172,447.0391 Q1690.075,447.2969 1690.075,447.6406 Q1690.075,447.9844 1689.7313,448.3906 Q1689.2313,448.9688 1688.4344,449.2969 Q1687.3563,449.75 1686.0594,449.75 Q1684.5438,449.75 1683.3406,449.125 Q1682.3563,448.625 1681.6688,447.5547 Q1680.9813,446.4844 1680.9813,445.2031 L1680.9813,444.0469 Q1680.9813,442.7188 1681.5984,441.5703 Q1682.2156,440.4219 1683.3094,439.8047 Q1684.4031,439.1875 1685.6375,439.1875 Q1686.3719,439.1875 1687.0203,439.3516 Q1687.6688,439.5156 1688.2156,439.875 Z "/><text fill="#000000" font-family="sans-serif" font-size="12" lengthAdjust="spacingAndGlyphs" textLength="114" x="1704.55" y="448.9102">UndoableDispatcher</text><line style="stroke: #A80036; stroke-width: 1.5;" x1="1648.5" x2="1843.5" y1="460" y2="460"/><line style="stroke: #A80036; stroke-width: 1.5;" x1="1648.5" x2="1843.5" y1="468" y2="468"/><ellipse cx="1658.5" cy="480.418" fill="#84BE84" rx="3" ry="3" style="stroke: #038048; stroke-width: 1.0;"/><text fill="#000000" font-family="sans-serif" font-size="11" lengthAdjust="spacingAndGlyphs" textLength="171" x="1667.5" y="483.4189">UndoableDispatcher(PlayController)</text><ellipse cx="1658.5" cy="494.2539" fill="#84BE84" rx="3" ry="3" style="stroke: #038048; stroke-width: 1.0;"/><text fill="#000000" font-family="sans-serif" font-size="11" lengthAdjust="spacingAndGlyphs" textLength="75" x="1667.5" y="497.2549">dispatch(): void</text><!--class mastermind.distributed.dispatchers.UndoDispatcher--><rect fill="#FEFECE" filter="url(#ff2uokbpamj8w)" height="75.6719" id="mastermind.distributed.dispatchers.UndoDispatcher" style="stroke: #A80036; stroke-width: 1.5;" width="177" x="1879.5" y="428"/><ellipse cx="1919.25" cy="444" fill="#ADD1B2" rx="11" ry="11" style="stroke: #A80036; stroke-width: 1.0;"/><path d="M1922.0156,439.875 Q1922.1719,439.6563 1922.3594,439.5469 Q1922.5469,439.4375 1922.7656,439.4375 Q1923.1406,439.4375 1923.375,439.6953 Q1923.6094,439.9531 1923.6094,440.5625 L1923.6094,442.0156 Q1923.6094,442.625 1923.375,442.8906 Q1923.1406,443.1563 1922.7656,443.1563 Q1922.4219,443.1563 1922.2188,442.9531 Q1922.0156,442.7656 1921.9063,442.25 Q1921.8594,441.8906 1921.6719,441.7031 Q1921.3438,441.3281 1920.7344,441.1094 Q1920.125,440.8906 1919.5,440.8906 Q1918.7344,440.8906 1918.1016,441.2188 Q1917.4688,441.5469 1916.9766,442.2969 Q1916.4844,443.0469 1916.4844,444.0781 L1916.4844,445.1719 Q1916.4844,446.4063 1917.375,447.2266 Q1918.2656,448.0469 1919.8594,448.0469 Q1920.7969,448.0469 1921.4531,447.7969 Q1921.8438,447.6406 1922.2656,447.2031 Q1922.5313,446.9375 1922.6797,446.8594 Q1922.8281,446.7813 1923.0313,446.7813 Q1923.3594,446.7813 1923.6172,447.0391 Q1923.875,447.2969 1923.875,447.6406 Q1923.875,447.9844 1923.5313,448.3906 Q1923.0313,448.9688 1922.2344,449.2969 Q1921.1563,449.75 1919.8594,449.75 Q1918.3438,449.75 1917.1406,449.125 Q1916.1563,448.625 1915.4688,447.5547 Q1914.7813,446.4844 1914.7813,445.2031 L1914.7813,444.0469 Q1914.7813,442.7188 1915.3984,441.5703 Q1916.0156,440.4219 1917.1094,439.8047 Q1918.2031,439.1875 1919.4375,439.1875 Q1920.1719,439.1875 1920.8203,439.3516 Q1921.4688,439.5156 1922.0156,439.875 Z "/><text fill="#000000" font-family="sans-serif" font-size="12" lengthAdjust="spacingAndGlyphs" textLength="90" x="1938.75" y="448.9102">UndoDispatcher</text><line style="stroke: #A80036; stroke-width: 1.5;" x1="1880.5" x2="2055.5" y1="460" y2="460"/><line style="stroke: #A80036; stroke-width: 1.5;" x1="1880.5" x2="2055.5" y1="468" y2="468"/><ellipse cx="1890.5" cy="480.418" fill="#84BE84" rx="3" ry="3" style="stroke: #038048; stroke-width: 1.0;"/><text fill="#000000" font-family="sans-serif" font-size="11" lengthAdjust="spacingAndGlyphs" textLength="151" x="1899.5" y="483.4189">UndoDispatcher(PlayController)</text><ellipse cx="1890.5" cy="494.2539" fill="#84BE84" rx="3" ry="3" style="stroke: #038048; stroke-width: 1.0;"/><text fill="#000000" font-family="sans-serif" font-size="11" lengthAdjust="spacingAndGlyphs" textLength="75" x="1899.5" y="497.2549">dispatch(): void</text><!--class mastermind.distributed.dispatchers.WidthDispatcher--><rect fill="#FEFECE" filter="url(#ff2uokbpamj8w)" height="75.6719" id="mastermind.distributed.dispatchers.WidthDispatcher" style="stroke: #A80036; stroke-width: 1.5;" width="179" x="2091.5" y="428"/><ellipse cx="2131.7" cy="444" fill="#ADD1B2" rx="11" ry="11" style="stroke: #A80036; stroke-width: 1.0;"/><path d="M2134.4656,439.875 Q2134.6219,439.6563 2134.8094,439.5469 Q2134.9969,439.4375 2135.2156,439.4375 Q2135.5906,439.4375 2135.825,439.6953 Q2136.0594,439.9531 2136.0594,440.5625 L2136.0594,442.0156 Q2136.0594,442.625 2135.825,442.8906 Q2135.5906,443.1563 2135.2156,443.1563 Q2134.8719,443.1563 2134.6688,442.9531 Q2134.4656,442.7656 2134.3563,442.25 Q2134.3094,441.8906 2134.1219,441.7031 Q2133.7938,441.3281 2133.1844,441.1094 Q2132.575,440.8906 2131.95,440.8906 Q2131.1844,440.8906 2130.5516,441.2188 Q2129.9188,441.5469 2129.4266,442.2969 Q2128.9344,443.0469 2128.9344,444.0781 L2128.9344,445.1719 Q2128.9344,446.4063 2129.825,447.2266 Q2130.7156,448.0469 2132.3094,448.0469 Q2133.2469,448.0469 2133.9031,447.7969 Q2134.2938,447.6406 2134.7156,447.2031 Q2134.9813,446.9375 2135.1297,446.8594 Q2135.2781,446.7813 2135.4813,446.7813 Q2135.8094,446.7813 2136.0672,447.0391 Q2136.325,447.2969 2136.325,447.6406 Q2136.325,447.9844 2135.9813,448.3906 Q2135.4813,448.9688 2134.6844,449.2969 Q2133.6063,449.75 2132.3094,449.75 Q2130.7938,449.75 2129.5906,449.125 Q2128.6063,448.625 2127.9188,447.5547 Q2127.2313,446.4844 2127.2313,445.2031 L2127.2313,444.0469 Q2127.2313,442.7188 2127.8484,441.5703 Q2128.4656,440.4219 2129.5594,439.8047 Q2130.6531,439.1875 2131.8875,439.1875 Q2132.6219,439.1875 2133.2703,439.3516 Q2133.9188,439.5156 2134.4656,439.875 Z "/><text fill="#000000" font-family="sans-serif" font-size="12" lengthAdjust="spacingAndGlyphs" textLength="91" x="2151.3" y="448.9102">WidthDispatcher</text><line style="stroke: #A80036; stroke-width: 1.5;" x1="2092.5" x2="2269.5" y1="460" y2="460"/><line style="stroke: #A80036; stroke-width: 1.5;" x1="2092.5" x2="2269.5" y1="468" y2="468"/><ellipse cx="2102.5" cy="480.418" fill="#84BE84" rx="3" ry="3" style="stroke: #038048; stroke-width: 1.0;"/><text fill="#000000" font-family="sans-serif" font-size="11" lengthAdjust="spacingAndGlyphs" textLength="153" x="2111.5" y="483.4189">WidthDispatcher(PlayController)</text><ellipse cx="2102.5" cy="494.2539" fill="#84BE84" rx="3" ry="3" style="stroke: #038048; stroke-width: 1.0;"/><text fill="#000000" font-family="sans-serif" font-size="11" lengthAdjust="spacingAndGlyphs" textLength="75" x="2111.5" y="497.2549">dispatch(): void</text><!--class mastermind.distributed.dispatchers.WinnerDispatcher--><rect fill="#FEFECE" filter="url(#ff2uokbpamj8w)" height="75.6719" id="mastermind.distributed.dispatchers.WinnerDispatcher" style="stroke: #A80036; stroke-width: 1.5;" width="186" x="2306" y="428"/><ellipse cx="2345.75" cy="444" fill="#ADD1B2" rx="11" ry="11" style="stroke: #A80036; stroke-width: 1.0;"/><path d="M2348.5156,439.875 Q2348.6719,439.6563 2348.8594,439.5469 Q2349.0469,439.4375 2349.2656,439.4375 Q2349.6406,439.4375 2349.875,439.6953 Q2350.1094,439.9531 2350.1094,440.5625 L2350.1094,442.0156 Q2350.1094,442.625 2349.875,442.8906 Q2349.6406,443.1563 2349.2656,443.1563 Q2348.9219,443.1563 2348.7188,442.9531 Q2348.5156,442.7656 2348.4063,442.25 Q2348.3594,441.8906 2348.1719,441.7031 Q2347.8438,441.3281 2347.2344,441.1094 Q2346.625,440.8906 2346,440.8906 Q2345.2344,440.8906 2344.6016,441.2188 Q2343.9688,441.5469 2343.4766,442.2969 Q2342.9844,443.0469 2342.9844,444.0781 L2342.9844,445.1719 Q2342.9844,446.4063 2343.875,447.2266 Q2344.7656,448.0469 2346.3594,448.0469 Q2347.2969,448.0469 2347.9531,447.7969 Q2348.3438,447.6406 2348.7656,447.2031 Q2349.0313,446.9375 2349.1797,446.8594 Q2349.3281,446.7813 2349.5313,446.7813 Q2349.8594,446.7813 2350.1172,447.0391 Q2350.375,447.2969 2350.375,447.6406 Q2350.375,447.9844 2350.0313,448.3906 Q2349.5313,448.9688 2348.7344,449.2969 Q2347.6563,449.75 2346.3594,449.75 Q2344.8438,449.75 2343.6406,449.125 Q2342.6563,448.625 2341.9688,447.5547 Q2341.2813,446.4844 2341.2813,445.2031 L2341.2813,444.0469 Q2341.2813,442.7188 2341.8984,441.5703 Q2342.5156,440.4219 2343.6094,439.8047 Q2344.7031,439.1875 2345.9375,439.1875 Q2346.6719,439.1875 2347.3203,439.3516 Q2347.9688,439.5156 2348.5156,439.875 Z "/><text fill="#000000" font-family="sans-serif" font-size="12" lengthAdjust="spacingAndGlyphs" textLength="99" x="2365.25" y="448.9102">WinnerDispatcher</text><line style="stroke: #A80036; stroke-width: 1.5;" x1="2307" x2="2491" y1="460" y2="460"/><line style="stroke: #A80036; stroke-width: 1.5;" x1="2307" x2="2491" y1="468" y2="468"/><ellipse cx="2317" cy="480.418" fill="#84BE84" rx="3" ry="3" style="stroke: #038048; stroke-width: 1.0;"/><text fill="#000000" font-family="sans-serif" font-size="11" lengthAdjust="spacingAndGlyphs" textLength="160" x="2326" y="483.4189">WinnerDispatcher(PlayController)</text><ellipse cx="2317" cy="494.2539" fill="#84BE84" rx="3" ry="3" style="stroke: #038048; stroke-width: 1.0;"/><text fill="#000000" font-family="sans-serif" font-size="11" lengthAdjust="spacingAndGlyphs" textLength="75" x="2326" y="497.2549">dispatch(): void</text><!--class mastermind.controllers.PlayController--><rect fill="#FEFECE" filter="url(#ff2uokbpamj8w)" height="48" id="mastermind.controllers.PlayController" style="stroke: #A80036; stroke-width: 1.5;" width="109" x="1580.5" y="580"/><ellipse cx="1595.5" cy="596" fill="#ADD1B2" rx="11" ry="11" style="stroke: #A80036; stroke-width: 1.0;"/><path d="M1598.2656,591.875 Q1598.4219,591.6563 1598.6094,591.5469 Q1598.7969,591.4375 1599.0156,591.4375 Q1599.3906,591.4375 1599.625,591.6953 Q1599.8594,591.9531 1599.8594,592.5625 L1599.8594,594.0156 Q1599.8594,594.625 1599.625,594.8906 Q1599.3906,595.1563 1599.0156,595.1563 Q1598.6719,595.1563 1598.4688,594.9531 Q1598.2656,594.7656 1598.1563,594.25 Q1598.1094,593.8906 1597.9219,593.7031 Q1597.5938,593.3281 1596.9844,593.1094 Q1596.375,592.8906 1595.75,592.8906 Q1594.9844,592.8906 1594.3516,593.2188 Q1593.7188,593.5469 1593.2266,594.2969 Q1592.7344,595.0469 1592.7344,596.0781 L1592.7344,597.1719 Q1592.7344,598.4063 1593.625,599.2266 Q1594.5156,600.0469 1596.1094,600.0469 Q1597.0469,600.0469 1597.7031,599.7969 Q1598.0938,599.6406 1598.5156,599.2031 Q1598.7813,598.9375 1598.9297,598.8594 Q1599.0781,598.7813 1599.2813,598.7813 Q1599.6094,598.7813 1599.8672,599.0391 Q1600.125,599.2969 1600.125,599.6406 Q1600.125,599.9844 1599.7813,600.3906 Q1599.2813,600.9688 1598.4844,601.2969 Q1597.4063,601.75 1596.1094,601.75 Q1594.5938,601.75 1593.3906,601.125 Q1592.4063,600.625 1591.7188,599.5547 Q1591.0313,598.4844 1591.0313,597.2031 L1591.0313,596.0469 Q1591.0313,594.7188 1591.6484,593.5703 Q1592.2656,592.4219 1593.3594,591.8047 Q1594.4531,591.1875 1595.6875,591.1875 Q1596.4219,591.1875 1597.0703,591.3516 Q1597.7188,591.5156 1598.2656,591.875 Z "/><text fill="#000000" font-family="sans-serif" font-size="12" lengthAdjust="spacingAndGlyphs" textLength="77" x="1609.5" y="600.9102">PlayController</text><line style="stroke: #A80036; stroke-width: 1.5;" x1="1581.5" x2="1688.5" y1="612" y2="612"/><line style="stroke: #A80036; stroke-width: 1.5;" x1="1581.5" x2="1688.5" y1="620" y2="620"/><!--class mastermind.controllers.AcceptorController--><rect fill="#FEFECE" filter="url(#ff2uokbpamj8w)" height="48" id="mastermind.controllers.AcceptorController" style="stroke: #A80036; stroke-width: 1.5;" width="133" x="1724.5" y="580"/><ellipse cx="1739.5" cy="596" fill="#ADD1B2" rx="11" ry="11" style="stroke: #A80036; stroke-width: 1.0;"/><path d="M1742.2656,591.875 Q1742.4219,591.6563 1742.6094,591.5469 Q1742.7969,591.4375 1743.0156,591.4375 Q1743.3906,591.4375 1743.625,591.6953 Q1743.8594,591.9531 1743.8594,592.5625 L1743.8594,594.0156 Q1743.8594,594.625 1743.625,594.8906 Q1743.3906,595.1563 1743.0156,595.1563 Q1742.6719,595.1563 1742.4688,594.9531 Q1742.2656,594.7656 1742.1563,594.25 Q1742.1094,593.8906 1741.9219,593.7031 Q1741.5938,593.3281 1740.9844,593.1094 Q1740.375,592.8906 1739.75,592.8906 Q1738.9844,592.8906 1738.3516,593.2188 Q1737.7188,593.5469 1737.2266,594.2969 Q1736.7344,595.0469 1736.7344,596.0781 L1736.7344,597.1719 Q1736.7344,598.4063 1737.625,599.2266 Q1738.5156,600.0469 1740.1094,600.0469 Q1741.0469,600.0469 1741.7031,599.7969 Q1742.0938,599.6406 1742.5156,599.2031 Q1742.7813,598.9375 1742.9297,598.8594 Q1743.0781,598.7813 1743.2813,598.7813 Q1743.6094,598.7813 1743.8672,599.0391 Q1744.125,599.2969 1744.125,599.6406 Q1744.125,599.9844 1743.7813,600.3906 Q1743.2813,600.9688 1742.4844,601.2969 Q1741.4063,601.75 1740.1094,601.75 Q1738.5938,601.75 1737.3906,601.125 Q1736.4063,600.625 1735.7188,599.5547 Q1735.0313,598.4844 1735.0313,597.2031 L1735.0313,596.0469 Q1735.0313,594.7188 1735.6484,593.5703 Q1736.2656,592.4219 1737.3594,591.8047 Q1738.4531,591.1875 1739.6875,591.1875 Q1740.4219,591.1875 1741.0703,591.3516 Q1741.7188,591.5156 1742.2656,591.875 Z "/><text fill="#000000" font-family="sans-serif" font-size="12" lengthAdjust="spacingAndGlyphs" textLength="101" x="1753.5" y="600.9102">AcceptorController</text><line style="stroke: #A80036; stroke-width: 1.5;" x1="1725.5" x2="1856.5" y1="612" y2="612"/><line style="stroke: #A80036; stroke-width: 1.5;" x1="1725.5" x2="1856.5" y1="620" y2="620"/><!--class mastermind.controllers.ResumeController--><rect fill="#FEFECE" filter="url(#ff2uokbpamj8w)" height="48" id="mastermind.controllers.ResumeController" style="stroke: #A80036; stroke-width: 1.5;" width="134" x="1265" y="580"/><ellipse cx="1280" cy="596" fill="#ADD1B2" rx="11" ry="11" style="stroke: #A80036; stroke-width: 1.0;"/><path d="M1282.7656,591.875 Q1282.9219,591.6563 1283.1094,591.5469 Q1283.2969,591.4375 1283.5156,591.4375 Q1283.8906,591.4375 1284.125,591.6953 Q1284.3594,591.9531 1284.3594,592.5625 L1284.3594,594.0156 Q1284.3594,594.625 1284.125,594.8906 Q1283.8906,595.1563 1283.5156,595.1563 Q1283.1719,595.1563 1282.9688,594.9531 Q1282.7656,594.7656 1282.6563,594.25 Q1282.6094,593.8906 1282.4219,593.7031 Q1282.0938,593.3281 1281.4844,593.1094 Q1280.875,592.8906 1280.25,592.8906 Q1279.4844,592.8906 1278.8516,593.2188 Q1278.2188,593.5469 1277.7266,594.2969 Q1277.2344,595.0469 1277.2344,596.0781 L1277.2344,597.1719 Q1277.2344,598.4063 1278.125,599.2266 Q1279.0156,600.0469 1280.6094,600.0469 Q1281.5469,600.0469 1282.2031,599.7969 Q1282.5938,599.6406 1283.0156,599.2031 Q1283.2813,598.9375 1283.4297,598.8594 Q1283.5781,598.7813 1283.7813,598.7813 Q1284.1094,598.7813 1284.3672,599.0391 Q1284.625,599.2969 1284.625,599.6406 Q1284.625,599.9844 1284.2813,600.3906 Q1283.7813,600.9688 1282.9844,601.2969 Q1281.9063,601.75 1280.6094,601.75 Q1279.0938,601.75 1277.8906,601.125 Q1276.9063,600.625 1276.2188,599.5547 Q1275.5313,598.4844 1275.5313,597.2031 L1275.5313,596.0469 Q1275.5313,594.7188 1276.1484,593.5703 Q1276.7656,592.4219 1277.8594,591.8047 Q1278.9531,591.1875 1280.1875,591.1875 Q1280.9219,591.1875 1281.5703,591.3516 Q1282.2188,591.5156 1282.7656,591.875 Z "/><text fill="#000000" font-family="sans-serif" font-size="12" lengthAdjust="spacingAndGlyphs" textLength="102" x="1294" y="600.9102">ResumeController</text><line style="stroke: #A80036; stroke-width: 1.5;" x1="1266" x2="1398" y1="612" y2="612"/><line style="stroke: #A80036; stroke-width: 1.5;" x1="1266" x2="1398" y1="620" y2="620"/><!--class mastermind.controllers.StartController--><rect fill="#FEFECE" filter="url(#ff2uokbpamj8w)" height="48" id="mastermind.controllers.StartController" style="stroke: #A80036; stroke-width: 1.5;" width="111" x="1434.5" y="580"/><ellipse cx="1449.5" cy="596" fill="#ADD1B2" rx="11" ry="11" style="stroke: #A80036; stroke-width: 1.0;"/><path d="M1452.2656,591.875 Q1452.4219,591.6563 1452.6094,591.5469 Q1452.7969,591.4375 1453.0156,591.4375 Q1453.3906,591.4375 1453.625,591.6953 Q1453.8594,591.9531 1453.8594,592.5625 L1453.8594,594.0156 Q1453.8594,594.625 1453.625,594.8906 Q1453.3906,595.1563 1453.0156,595.1563 Q1452.6719,595.1563 1452.4688,594.9531 Q1452.2656,594.7656 1452.1563,594.25 Q1452.1094,593.8906 1451.9219,593.7031 Q1451.5938,593.3281 1450.9844,593.1094 Q1450.375,592.8906 1449.75,592.8906 Q1448.9844,592.8906 1448.3516,593.2188 Q1447.7188,593.5469 1447.2266,594.2969 Q1446.7344,595.0469 1446.7344,596.0781 L1446.7344,597.1719 Q1446.7344,598.4063 1447.625,599.2266 Q1448.5156,600.0469 1450.1094,600.0469 Q1451.0469,600.0469 1451.7031,599.7969 Q1452.0938,599.6406 1452.5156,599.2031 Q1452.7813,598.9375 1452.9297,598.8594 Q1453.0781,598.7813 1453.2813,598.7813 Q1453.6094,598.7813 1453.8672,599.0391 Q1454.125,599.2969 1454.125,599.6406 Q1454.125,599.9844 1453.7813,600.3906 Q1453.2813,600.9688 1452.4844,601.2969 Q1451.4063,601.75 1450.1094,601.75 Q1448.5938,601.75 1447.3906,601.125 Q1446.4063,600.625 1445.7188,599.5547 Q1445.0313,598.4844 1445.0313,597.2031 L1445.0313,596.0469 Q1445.0313,594.7188 1445.6484,593.5703 Q1446.2656,592.4219 1447.3594,591.8047 Q1448.4531,591.1875 1449.6875,591.1875 Q1450.4219,591.1875 1451.0703,591.3516 Q1451.7188,591.5156 1452.2656,591.875 Z "/><text fill="#000000" font-family="sans-serif" font-size="12" lengthAdjust="spacingAndGlyphs" textLength="79" x="1463.5" y="600.9102">StartController</text><line style="stroke: #A80036; stroke-width: 1.5;" x1="1435.5" x2="1544.5" y1="612" y2="612"/><line style="stroke: #A80036; stroke-width: 1.5;" x1="1435.5" x2="1544.5" y1="620" y2="620"/><!--class mastermind.utils.TCPIP--><rect fill="#FEFECE" filter="url(#ff2uokbpamj8w)" height="48" id="mastermind.utils.TCPIP" style="stroke: #A80036; stroke-width: 1.5;" width="67" x="3050.5" y="442"/><ellipse cx="3065.5" cy="458" fill="#ADD1B2" rx="11" ry="11" style="stroke: #A80036; stroke-width: 1.0;"/><path d="M3068.2656,453.875 Q3068.4219,453.6563 3068.6094,453.5469 Q3068.7969,453.4375 3069.0156,453.4375 Q3069.3906,453.4375 3069.625,453.6953 Q3069.8594,453.9531 3069.8594,454.5625 L3069.8594,456.0156 Q3069.8594,456.625 3069.625,456.8906 Q3069.3906,457.1563 3069.0156,457.1563 Q3068.6719,457.1563 3068.4688,456.9531 Q3068.2656,456.7656 3068.1563,456.25 Q3068.1094,455.8906 3067.9219,455.7031 Q3067.5938,455.3281 3066.9844,455.1094 Q3066.375,454.8906 3065.75,454.8906 Q3064.9844,454.8906 3064.3516,455.2188 Q3063.7188,455.5469 3063.2266,456.2969 Q3062.7344,457.0469 3062.7344,458.0781 L3062.7344,459.1719 Q3062.7344,460.4063 3063.625,461.2266 Q3064.5156,462.0469 3066.1094,462.0469 Q3067.0469,462.0469 3067.7031,461.7969 Q3068.0938,461.6406 3068.5156,461.2031 Q3068.7813,460.9375 3068.9297,460.8594 Q3069.0781,460.7813 3069.2813,460.7813 Q3069.6094,460.7813 3069.8672,461.0391 Q3070.125,461.2969 3070.125,461.6406 Q3070.125,461.9844 3069.7813,462.3906 Q3069.2813,462.9688 3068.4844,463.2969 Q3067.4063,463.75 3066.1094,463.75 Q3064.5938,463.75 3063.3906,463.125 Q3062.4063,462.625 3061.7188,461.5547 Q3061.0313,460.4844 3061.0313,459.2031 L3061.0313,458.0469 Q3061.0313,456.7188 3061.6484,455.5703 Q3062.2656,454.4219 3063.3594,453.8047 Q3064.4531,453.1875 3065.6875,453.1875 Q3066.4219,453.1875 3067.0703,453.3516 Q3067.7188,453.5156 3068.2656,453.875 Z "/><text fill="#000000" font-family="sans-serif" font-size="12" lengthAdjust="spacingAndGlyphs" textLength="35" x="3079.5" y="462.9102">TCPIP</text><line style="stroke: #A80036; stroke-width: 1.5;" x1="3051.5" x2="3116.5" y1="474" y2="474"/><line style="stroke: #A80036; stroke-width: 1.5;" x1="3051.5" x2="3116.5" y1="482" y2="482"/><!--class java.util.Map--><rect fill="#FEFECE" filter="url(#ff2uokbpamj8w)" height="48" id="java.util.Map" style="stroke: #A80036; stroke-width: 1.5;" width="55" x="3000.5" y="285.5"/><ellipse cx="3015.5" cy="301.5" fill="#ADD1B2" rx="11" ry="11" style="stroke: #A80036; stroke-width: 1.0;"/><path d="M3018.2656,297.375 Q3018.4219,297.1563 3018.6094,297.0469 Q3018.7969,296.9375 3019.0156,296.9375 Q3019.3906,296.9375 3019.625,297.1953 Q3019.8594,297.4531 3019.8594,298.0625 L3019.8594,299.5156 Q3019.8594,300.125 3019.625,300.3906 Q3019.3906,300.6563 3019.0156,300.6563 Q3018.6719,300.6563 3018.4688,300.4531 Q3018.2656,300.2656 3018.1563,299.75 Q3018.1094,299.3906 3017.9219,299.2031 Q3017.5938,298.8281 3016.9844,298.6094 Q3016.375,298.3906 3015.75,298.3906 Q3014.9844,298.3906 3014.3516,298.7188 Q3013.7188,299.0469 3013.2266,299.7969 Q3012.7344,300.5469 3012.7344,301.5781 L3012.7344,302.6719 Q3012.7344,303.9063 3013.625,304.7266 Q3014.5156,305.5469 3016.1094,305.5469 Q3017.0469,305.5469 3017.7031,305.2969 Q3018.0938,305.1406 3018.5156,304.7031 Q3018.7813,304.4375 3018.9297,304.3594 Q3019.0781,304.2813 3019.2813,304.2813 Q3019.6094,304.2813 3019.8672,304.5391 Q3020.125,304.7969 3020.125,305.1406 Q3020.125,305.4844 3019.7813,305.8906 Q3019.2813,306.4688 3018.4844,306.7969 Q3017.4063,307.25 3016.1094,307.25 Q3014.5938,307.25 3013.3906,306.625 Q3012.4063,306.125 3011.7188,305.0547 Q3011.0313,303.9844 3011.0313,302.7031 L3011.0313,301.5469 Q3011.0313,300.2188 3011.6484,299.0703 Q3012.2656,297.9219 3013.3594,297.3047 Q3014.4531,296.6875 3015.6875,296.6875 Q3016.4219,296.6875 3017.0703,296.8516 Q3017.7188,297.0156 3018.2656,297.375 Z "/><text fill="#000000" font-family="sans-serif" font-size="12" lengthAdjust="spacingAndGlyphs" textLength="23" x="3029.5" y="306.4102">Map</text><line style="stroke: #A80036; stroke-width: 1.5;" x1="3001.5" x2="3054.5" y1="317.5" y2="317.5"/><line style="stroke: #A80036; stroke-width: 1.5;" x1="3001.5" x2="3054.5" y1="325.5" y2="325.5"/><!--class mastermind.distributed.FrameType--><rect fill="#FEFECE" filter="url(#ff2uokbpamj8w)" height="48" id="mastermind.distributed.FrameType" style="stroke: #A80036; stroke-width: 1.5;" width="94" x="3112" y="285.5"/><ellipse cx="3127" cy="301.5" fill="#ADD1B2" rx="11" ry="11" style="stroke: #A80036; stroke-width: 1.0;"/><path d="M3129.7656,297.375 Q3129.9219,297.1563 3130.1094,297.0469 Q3130.2969,296.9375 3130.5156,296.9375 Q3130.8906,296.9375 3131.125,297.1953 Q3131.3594,297.4531 3131.3594,298.0625 L3131.3594,299.5156 Q3131.3594,300.125 3131.125,300.3906 Q3130.8906,300.6563 3130.5156,300.6563 Q3130.1719,300.6563 3129.9688,300.4531 Q3129.7656,300.2656 3129.6563,299.75 Q3129.6094,299.3906 3129.4219,299.2031 Q3129.0938,298.8281 3128.4844,298.6094 Q3127.875,298.3906 3127.25,298.3906 Q3126.4844,298.3906 3125.8516,298.7188 Q3125.2188,299.0469 3124.7266,299.7969 Q3124.2344,300.5469 3124.2344,301.5781 L3124.2344,302.6719 Q3124.2344,303.9063 3125.125,304.7266 Q3126.0156,305.5469 3127.6094,305.5469 Q3128.5469,305.5469 3129.2031,305.2969 Q3129.5938,305.1406 3130.0156,304.7031 Q3130.2813,304.4375 3130.4297,304.3594 Q3130.5781,304.2813 3130.7813,304.2813 Q3131.1094,304.2813 3131.3672,304.5391 Q3131.625,304.7969 3131.625,305.1406 Q3131.625,305.4844 3131.2813,305.8906 Q3130.7813,306.4688 3129.9844,306.7969 Q3128.9063,307.25 3127.6094,307.25 Q3126.0938,307.25 3124.8906,306.625 Q3123.9063,306.125 3123.2188,305.0547 Q3122.5313,303.9844 3122.5313,302.7031 L3122.5313,301.5469 Q3122.5313,300.2188 3123.1484,299.0703 Q3123.7656,297.9219 3124.8594,297.3047 Q3125.9531,296.6875 3127.1875,296.6875 Q3127.9219,296.6875 3128.5703,296.8516 Q3129.2188,297.0156 3129.7656,297.375 Z "/><text fill="#000000" font-family="sans-serif" font-size="12" lengthAdjust="spacingAndGlyphs" textLength="62" x="3141" y="306.4102">FrameType</text><line style="stroke: #A80036; stroke-width: 1.5;" x1="3113" x2="3205" y1="317.5" y2="317.5"/><line style="stroke: #A80036; stroke-width: 1.5;" x1="3113" x2="3205" y1="325.5" y2="325.5"/><!--link mastermind.distributed.dispatchers.Dispatcher to mastermind.distributed.dispatchers.AllCodesDispatcher--><path d="M1983.49,312.825 C2117.56,318.621 2333.81,337.579 2510,398 C2531.2,405.271 2552.85,416.651 2571.56,427.982 " fill="none" id="mastermind.distributed.dispatchers.Dispatcher-mastermind.distributed.dispatchers.AllCodesDispatcher" style="stroke: #A80036; stroke-width: 1.0;"/><polygon fill="none" points="1982.81,319.803,1963.11,312.018,1983.37,305.814,1982.81,319.803" style="stroke: #A80036; stroke-width: 1.0;"/><!--link mastermind.distributed.dispatchers.AllCodesDispatcher to mastermind.controllers.PlayController--><path d="M2568.1,504.044 C2550.23,513.763 2529.93,522.935 2510,528 C2466.76,538.987 1748.44,519.464 1707,536 C1686.56,544.157 1668.45,561.0822 1655.51,575.8799 " fill="none" id="mastermind.distributed.dispatchers.AllCodesDispatcher-mastermind.controllers.PlayController" style="stroke: #A80036; stroke-width: 1.0; stroke-dasharray: 7.0,7.0;"/><polygon fill="#A80036" points="1652,579.9882,1660.8887,575.7467,1655.2491,576.1878,1654.808,570.5481,1652,579.9882" style="stroke: #A80036; stroke-width: 1.0;"/><!--link mastermind.distributed.dispatchers.Dispatcher to mastermind.controllers.AcceptorController--><path d="M1976.53,315.646 C2255.58,328.236 2928.91,362.19 2962,398 C3001.21,440.437 3001.53,485.86 2962,528 C2924.67,567.7993 2129.33,593.5206 1871.15,600.8455 " fill="none" id="mastermind.distributed.dispatchers.Dispatcher-mastermind.controllers.AcceptorController" style="stroke: #A80036; stroke-width: 1.0;"/><polygon fill="#A80036" points="1857.82,601.221,1866.9306,604.9622,1862.818,601.0781,1866.702,596.9655,1857.82,601.221" style="stroke: #A80036; stroke-width: 1.0;"/><line style="stroke: #A80036; stroke-width: 1.0;" x1="1862.818" x2="1870.81" y1="601.0781" y2="600.855"/><polygon fill="#A80036" points="1963.14,315.044,1968.9584,319.3039,1975.1284,315.5715,1969.31,311.3116,1963.14,315.044" style="stroke: #A80036; stroke-width: 1.0;"/><!--link mastermind.distributed.dispatchers.Dispatcher to mastermind.utils.TCPIP--><path d="M1963.11,316.332 C2241.68,331.928 2975.76,374.97 3023,398 C3040.81,406.683 3055.86,423.043 3066.56,437.423 " fill="none" id="mastermind.distributed.dispatchers.Dispatcher-mastermind.utils.TCPIP" style="stroke: #A80036; stroke-width: 1.0;"/><polygon fill="#A80036" points="3069.74,441.812,3067.6929,432.1782,3066.804,437.7648,3061.2174,436.8758,3069.74,441.812" style="stroke: #A80036; stroke-width: 1.0;"/><!--link mastermind.distributed.dispatchers.DispatcherPrototype to java.util.Map--><path d="M2911.5,199.662 C2927.87,213.313 2944.61,227.647 2960,241.5 C2972.1,252.391 2984.93,264.788 2996.14,275.932 " fill="none" id="mastermind.distributed.dispatchers.DispatcherPrototype-java.util.Map" style="stroke: #A80036; stroke-width: 1.0;"/><polygon fill="#A80036" points="3005.52,285.334,3001.9938,276.138,3001.988,281.7949,2996.3312,281.7892,3005.52,285.334" style="stroke: #A80036; stroke-width: 1.0;"/><line style="stroke: #A80036; stroke-width: 1.0;" x1="3001.988" x2="2996.34" y1="281.7949" y2="276.1305"/><polygon fill="#A80036" points="2901.38,191.261,2903.4441,198.1704,2910.6159,198.9224,2908.5518,192.0131,2901.38,191.261" style="stroke: #A80036; stroke-width: 1.0;"/><!--link mastermind.distributed.dispatchers.DispatcherPrototype to mastermind.utils.TCPIP--><path d="M2865.8,202.257 C2896.81,251.328 2940,315.614 2984,368 C3003.34,391.027 3027.48,414.566 3047.2,432.689 " fill="none" id="mastermind.distributed.dispatchers.DispatcherPrototype-mastermind.utils.TCPIP" style="stroke: #A80036; stroke-width: 1.0;"/><polygon fill="#A80036" points="3057.06,441.641,3053.0879,432.6287,3053.3591,438.279,3047.7087,438.5502,3057.06,441.641" style="stroke: #A80036; stroke-width: 1.0;"/><line style="stroke: #A80036; stroke-width: 1.0;" x1="3053.3591" x2="3047.43" y1="438.279" y2="432.9015"/><polygon fill="#A80036" points="2858.78,191.079,2858.5823,198.2874,2865.1601,201.2424,2865.3578,194.034,2858.78,191.079" style="stroke: #A80036; stroke-width: 1.0;"/><!--link mastermind.distributed.dispatchers.DispatcherPrototype to mastermind.distributed.dispatchers.Dispatcher--><path d="M2696.08,149.921 C2506.97,185.66 2149.28,253.261 1968.13,287.498 " fill="none" id="mastermind.distributed.dispatchers.DispatcherPrototype-mastermind.distributed.dispatchers.Dispatcher" style="stroke: #A80036; stroke-width: 1.0;"/><polygon fill="#A80036" points="1963.08,288.451,1972.6663,290.7099,1967.993,287.5224,1971.1805,282.8491,1963.08,288.451" style="stroke: #A80036; stroke-width: 1.0;"/><!--link mastermind.distributed.dispatchers.DispatcherPrototype to mastermind.distributed.FrameType--><path d="M2943.67,176.196 C2985.48,194.744 3031.73,217.243 3072,241.5 C3091.72,253.38 3112.2,268.962 3128.33,282.109 " fill="none" id="mastermind.distributed.dispatchers.DispatcherPrototype-mastermind.distributed.FrameType" style="stroke: #A80036; stroke-width: 1.0;"/><polygon fill="#A80036" points="3132.33,285.395,3127.93,276.5836,3128.472,282.2145,3122.8412,282.7564,3132.33,285.395" style="stroke: #A80036; stroke-width: 1.0;"/><!--link mastermind.distributed.dispatchers.Dispatcher to mastermind.distributed.dispatchers.LooserDispatcher--><path d="M1983.37,316.156 C2192.95,326.68 2602.95,352.443 2740,398 C2760.93,404.958 2782.11,416.408 2800.27,427.89 " fill="none" id="mastermind.distributed.dispatchers.Dispatcher-mastermind.distributed.dispatchers.LooserDispatcher" style="stroke: #A80036; stroke-width: 1.0;"/><polygon fill="none" points="1982.75,323.134,1963.12,315.155,1983.44,309.151,1982.75,323.134" style="stroke: #A80036; stroke-width: 1.0;"/><!--link mastermind.distributed.dispatchers.LooserDispatcher to mastermind.controllers.PlayController--><path d="M2796.24,504.063 C2778.99,513.783 2759.36,522.95 2740,528 C2712.23,535.242 1733.66,525.394 1707,536 C1686.55,544.134 1668.44,561.0597 1655.5,575.8632 " fill="none" id="mastermind.distributed.dispatchers.LooserDispatcher-mastermind.controllers.PlayController" style="stroke: #A80036; stroke-width: 1.0; stroke-dasharray: 7.0,7.0;"/><polygon fill="#A80036" points="1651.99,579.9732,1660.878,575.7301,1655.2384,576.1722,1654.7964,570.5326,1651.99,579.9732" style="stroke: #A80036; stroke-width: 1.0;"/><!--link mastermind.distributed.dispatchers.Dispatcher to mastermind.distributed.dispatchers.ProposeCombinationDispatcher--><path d="M1730.56,314.954 C1483.1,324.603 943.318,350.486 764,398 C737.896,404.917 710.709,416.43 687.138,427.978 " fill="none" id="mastermind.distributed.dispatchers.Dispatcher-mastermind.distributed.dispatchers.ProposeCombinationDispatcher" style="stroke: #A80036; stroke-width: 1.0;"/><polygon fill="none" points="1730.47,307.953,1750.73,314.179,1731.01,321.943,1730.47,307.953" style="stroke: #A80036; stroke-width: 1.0;"/><!--link mastermind.distributed.dispatchers.ProposeCombinationDispatcher to mastermind.controllers.PlayController--><path d="M692.679,504.077 C714.943,513.797 739.961,522.961 764,528 C807.447,537.106 1521.77,519.546 1563,536 C1583.44,544.157 1601.55,561.0827 1614.49,575.8803 " fill="none" id="mastermind.distributed.dispatchers.ProposeCombinationDispatcher-mastermind.controllers.PlayController" style="stroke: #A80036; stroke-width: 1.0; stroke-dasharray: 7.0,7.0;"/><polygon fill="#A80036" points="1618,579.9885,1615.192,570.5484,1614.7509,576.1881,1609.1113,575.747,1618,579.9885" style="stroke: #A80036; stroke-width: 1.0;"/><!--link mastermind.distributed.dispatchers.Dispatcher to mastermind.distributed.dispatchers.RedoableDispatcher--><path d="M1730.77,316.809 C1525.63,328.152 1129.37,354.907 996,398 C974.312,405.008 952.23,416.469 933.234,427.946 " fill="none" id="mastermind.distributed.dispatchers.Dispatcher-mastermind.distributed.dispatchers.RedoableDispatcher" style="stroke: #A80036; stroke-width: 1.0;"/><polygon fill="none" points="1730.56,309.81,1750.91,315.711,1731.33,323.789,1730.56,309.81" style="stroke: #A80036; stroke-width: 1.0;"/><!--link mastermind.distributed.dispatchers.RedoableDispatcher to mastermind.controllers.PlayController--><path d="M937.737,504.154 C955.7,513.812 976.044,522.923 996,528 C1026.53,535.767 1533.76,524.263 1563,536 C1583.28,544.141 1601.27,560.8846 1614.2,575.5963 " fill="none" id="mastermind.distributed.dispatchers.RedoableDispatcher-mastermind.controllers.PlayController" style="stroke: #A80036; stroke-width: 1.0; stroke-dasharray: 7.0,7.0;"/><polygon fill="#A80036" points="1617.71,579.6831,1614.8717,570.2521,1614.4487,575.8931,1608.8077,575.4701,1617.71,579.6831" style="stroke: #A80036; stroke-width: 1.0;"/><!--link mastermind.distributed.dispatchers.Dispatcher to mastermind.distributed.dispatchers.RedoDispatcher--><path d="M1730.54,311.699 C1596.91,316.565 1381.86,334.764 1208,398 C1188.15,405.218 1168.13,416.586 1150.91,427.921 " fill="none" id="mastermind.distributed.dispatchers.Dispatcher-mastermind.distributed.dispatchers.RedoDispatcher" style="stroke: #A80036; stroke-width: 1.0;"/><polygon fill="none" points="1730.65,304.691,1750.87,311.039,1731.11,318.684,1730.65,304.691" style="stroke: #A80036; stroke-width: 1.0;"/><!--link mastermind.distributed.dispatchers.RedoDispatcher to mastermind.controllers.PlayController--><path d="M1154.42,504.039 C1170.82,513.693 1189.49,522.831 1208,528 C1246,538.613 1526.45,521.146 1563,536 C1583.24,544.226 1601.24,560.97 1614.18,575.6604 " fill="none" id="mastermind.distributed.dispatchers.RedoDispatcher-mastermind.controllers.PlayController" style="stroke: #A80036; stroke-width: 1.0; stroke-dasharray: 7.0,7.0;"/><polygon fill="#A80036" points="1617.69,579.7406,1614.8452,570.3115,1614.4261,575.9529,1608.7848,575.5338,1617.69,579.7406" style="stroke: #A80036; stroke-width: 1.0;"/><!--link mastermind.distributed.dispatchers.Dispatcher to mastermind.distributed.dispatchers.ResumeDispatcher--><path d="M1730.58,310.237 C1404.12,310.706 539.308,319.549 265,398 C241.883,404.611 218.306,416.205 198.119,427.909 " fill="none" id="mastermind.distributed.dispatchers.Dispatcher-mastermind.distributed.dispatchers.ResumeDispatcher" style="stroke: #A80036; stroke-width: 1.0;"/><polygon fill="none" points="1730.82,303.237,1750.83,310.218,1730.83,317.237,1730.82,303.237" style="stroke: #A80036; stroke-width: 1.0;"/><!--link mastermind.distributed.dispatchers.ResumeDispatcher to mastermind.controllers.ResumeController--><path d="M205.377,504.071 C223.966,513.477 244.785,522.472 265,528 C453.185,579.4565 1051.25,596.9698 1259.59,601.5947 " fill="none" id="mastermind.distributed.dispatchers.ResumeDispatcher-mastermind.controllers.ResumeController" style="stroke: #A80036; stroke-width: 1.0; stroke-dasharray: 7.0,7.0;"/><polygon fill="#A80036" points="1264.74,601.7081,1255.8338,597.5034,1259.7413,601.5938,1255.6509,605.5013,1264.74,601.7081" style="stroke: #A80036; stroke-width: 1.0;"/><!--link mastermind.distributed.dispatchers.Dispatcher to mastermind.distributed.dispatchers.StartDispatcher--><path d="M1730.94,310.556 C1436.06,311.962 708.834,323.161 478,398 C457.394,404.681 436.793,416.29 419.306,427.987 " fill="none" id="mastermind.distributed.dispatchers.Dispatcher-mastermind.distributed.dispatchers.StartDispatcher" style="stroke: #A80036; stroke-width: 1.0;"/><polygon fill="none" points="1730.96,303.556,1750.99,310.473,1731.02,317.556,1730.96,303.556" style="stroke: #A80036; stroke-width: 1.0;"/><!--link mastermind.distributed.dispatchers.StartDispatcher to mastermind.controllers.StartController--><path d="M424.104,504.041 C440.571,513.76 459.355,522.933 478,528 C528.343,541.681 1368.47,516.866 1417,536 C1437.63,544.132 1455.99,561.0576 1469.13,575.8616 " fill="none" id="mastermind.distributed.dispatchers.StartDispatcher-mastermind.controllers.StartController" style="stroke: #A80036; stroke-width: 1.0; stroke-dasharray: 7.0,7.0;"/><polygon fill="#A80036" points="1472.7,579.9717,1469.8332,570.5493,1469.4273,576.1916,1463.785,575.7857,1472.7,579.9717" style="stroke: #A80036; stroke-width: 1.0;"/><!--link mastermind.distributed.dispatchers.Dispatcher to mastermind.distributed.dispatchers.StateDispatcher--><path d="M1730.99,323.558 C1642.01,335.686 1521.26,358.1 1421,398 C1401.65,405.699 1381.93,416.911 1364.78,427.967 " fill="none" id="mastermind.distributed.dispatchers.Dispatcher-mastermind.distributed.dispatchers.StateDispatcher" style="stroke: #A80036; stroke-width: 1.0;"/><polygon fill="none" points="1730.15,316.608,1750.89,320.944,1731.97,330.489,1730.15,316.608" style="stroke: #A80036; stroke-width: 1.0;"/><!--link mastermind.distributed.dispatchers.StateDispatcher to mastermind.controllers.PlayController--><path d="M1367.89,504.126 C1384.26,513.594 1402.75,522.609 1421,528 C1451.31,536.953 1533.92,523.609 1563,536 C1583.1,544.567 1601.1,561.3104 1614.07,575.9158 " fill="none" id="mastermind.distributed.dispatchers.StateDispatcher-mastermind.controllers.PlayController" style="stroke: #A80036; stroke-width: 1.0; stroke-dasharray: 7.0,7.0;"/><polygon fill="#A80036" points="1617.59,579.9699,1614.7023,570.5539,1614.3089,576.197,1608.6657,575.8036,1617.59,579.9699" style="stroke: #A80036; stroke-width: 1.0;"/><!--link mastermind.distributed.dispatchers.Dispatcher to mastermind.distributed.dispatchers.TurnDispatcher--><path d="M1731.88,353.585 C1698.21,366.56 1662.21,381.721 1630,398 C1612.73,406.729 1594.7,417.544 1578.55,427.919 " fill="none" id="mastermind.distributed.dispatchers.Dispatcher-mastermind.distributed.dispatchers.TurnDispatcher" style="stroke: #A80036; stroke-width: 1.0;"/><polygon fill="none" points="1729.67,346.939,1750.85,346.408,1734.62,360.033,1729.67,346.939" style="stroke: #A80036; stroke-width: 1.0;"/><!--link mastermind.distributed.dispatchers.TurnDispatcher to mastermind.controllers.PlayController--><path d="M1555.06,504.163 C1573.43,526.872 1596.5,555.402 1613.13,575.9656 " fill="none" id="mastermind.distributed.dispatchers.TurnDispatcher-mastermind.controllers.PlayController" style="stroke: #A80036; stroke-width: 1.0; stroke-dasharray: 7.0,7.0;"/><polygon fill="#A80036" points="1616.37,579.9679,1613.8179,570.4554,1613.2247,576.0811,1607.599,575.4879,1616.37,579.9679" style="stroke: #A80036; stroke-width: 1.0;"/><!--link mastermind.distributed.dispatchers.Dispatcher to mastermind.distributed.dispatchers.UndoableDispatcher--><path d="M1803.72,384.659 C1793.02,399.551 1782.21,414.595 1772.89,427.575 " fill="none" id="mastermind.distributed.dispatchers.Dispatcher-mastermind.distributed.dispatchers.UndoableDispatcher" style="stroke: #A80036; stroke-width: 1.0;"/><polygon fill="none" points="1798.31,380.188,1815.67,368.03,1809.68,388.357,1798.31,380.188" style="stroke: #A80036; stroke-width: 1.0;"/><!--link mastermind.distributed.dispatchers.UndoableDispatcher to mastermind.controllers.PlayController--><path d="M1715.67,504.163 C1697.13,526.872 1673.85,555.402 1657.06,575.9656 " fill="none" id="mastermind.distributed.dispatchers.UndoableDispatcher-mastermind.controllers.PlayController" style="stroke: #A80036; stroke-width: 1.0; stroke-dasharray: 7.0,7.0;"/><polygon fill="#A80036" points="1653.8,579.9679,1662.5828,575.5113,1656.9556,576.0895,1656.3774,570.4623,1653.8,579.9679" style="stroke: #A80036; stroke-width: 1.0;"/><!--link mastermind.distributed.dispatchers.Dispatcher to mastermind.distributed.dispatchers.UndoDispatcher--><path d="M1910.28,384.659 C1920.98,399.551 1931.79,414.595 1941.11,427.575 " fill="none" id="mastermind.distributed.dispatchers.Dispatcher-mastermind.distributed.dispatchers.UndoDispatcher" style="stroke: #A80036; stroke-width: 1.0;"/><polygon fill="none" points="1904.32,388.357,1898.33,368.03,1915.69,380.188,1904.32,388.357" style="stroke: #A80036; stroke-width: 1.0;"/><!--link mastermind.distributed.dispatchers.UndoDispatcher to mastermind.controllers.PlayController--><path d="M1914.94,504.022 C1898.66,513.55 1880.23,522.623 1862,528 C1828.92,537.759 1738.76,522.553 1707,536 C1686.88,544.519 1668.88,561.2631 1655.91,575.8802 " fill="none" id="mastermind.distributed.dispatchers.UndoDispatcher-mastermind.controllers.PlayController" style="stroke: #A80036; stroke-width: 1.0; stroke-dasharray: 7.0,7.0;"/><polygon fill="#A80036" points="1652.39,579.938,1661.3127,575.7685,1655.6697,576.1639,1655.2742,570.5209,1652.39,579.938" style="stroke: #A80036; stroke-width: 1.0;"/><!--link mastermind.distributed.dispatchers.Dispatcher to mastermind.distributed.dispatchers.WidthDispatcher--><path d="M1982.01,356.533 C2012.57,368.976 2044.85,383.144 2074,398 C2091.38,406.858 2109.61,417.655 2125.99,427.972 " fill="none" id="mastermind.distributed.dispatchers.Dispatcher-mastermind.distributed.dispatchers.WidthDispatcher" style="stroke: #A80036; stroke-width: 1.0;"/><polygon fill="none" points="1979.21,362.952,1963.24,349.017,1984.41,349.956,1979.21,362.952" style="stroke: #A80036; stroke-width: 1.0;"/><!--link mastermind.distributed.dispatchers.WidthDispatcher to mastermind.controllers.PlayController--><path d="M2128.05,504.049 C2111.49,513.704 2092.65,522.839 2074,528 C2034.69,538.878 1744.79,520.659 1707,536 C1686.75,544.219 1668.76,560.9625 1655.82,575.6548 " fill="none" id="mastermind.distributed.dispatchers.WidthDispatcher-mastermind.controllers.PlayController" style="stroke: #A80036; stroke-width: 1.0; stroke-dasharray: 7.0,7.0;"/><polygon fill="#A80036" points="1652.31,579.7355,1661.2071,575.5115,1655.5666,575.9415,1655.1366,570.301,1652.31,579.7355" style="stroke: #A80036; stroke-width: 1.0;"/><!--link mastermind.distributed.dispatchers.Dispatcher to mastermind.distributed.dispatchers.WinnerDispatcher--><path d="M1982.96,324.49 C2070.67,336.995 2189.17,359.475 2288,398 C2307.82,405.725 2328.13,416.877 2345.87,427.873 " fill="none" id="mastermind.distributed.dispatchers.Dispatcher-mastermind.distributed.dispatchers.WinnerDispatcher" style="stroke: #A80036; stroke-width: 1.0;"/><polygon fill="none" points="1981.91,331.411,1963.05,321.747,1983.82,317.542,1981.91,331.411" style="stroke: #A80036; stroke-width: 1.0;"/><!--link mastermind.distributed.dispatchers.WinnerDispatcher to mastermind.controllers.PlayController--><path d="M2343.93,504.15 C2326.75,513.808 2307.24,522.92 2288,528 C2256.79,536.241 1736.96,523.978 1707,536 C1686.72,544.137 1668.73,560.8812 1655.8,575.5937 " fill="none" id="mastermind.distributed.dispatchers.WinnerDispatcher-mastermind.controllers.PlayController" style="stroke: #A80036; stroke-width: 1.0; stroke-dasharray: 7.0,7.0;"/><polygon fill="#A80036" points="1652.29,579.6807,1661.1923,575.4677,1655.5513,575.8907,1655.1283,570.2497,1652.29,579.6807" style="stroke: #A80036; stroke-width: 1.0;"/><!--
@startuml

class  mastermind.distributed.dispatchers.AllCodesDispatcher{
+ AllCodesDispatcher(PlayController)
+ dispatch(): void
}
mastermind.distributed.dispatchers.Dispatcher <|-down- mastermind.distributed.dispatchers.AllCodesDispatcher
mastermind.distributed.dispatchers.AllCodesDispatcher ..> mastermind.controllers.PlayController

class  mastermind.distributed.dispatchers.Dispatcher{
# acceptorController: AcceptorController
# tcpip: TCPIP
+ Dispatcher(AcceptorController)
+ {abstract} dispatch(): void
+ associate(TCPIP): void
}
mastermind.distributed.dispatchers.Dispatcher *-down-> mastermind.controllers.AcceptorController
mastermind.distributed.dispatchers.Dispatcher - -> mastermind.utils.TCPIP

class  mastermind.distributed.dispatchers.DispatcherPrototype{
- tcpip: TCPIP
- dispatcherMap: Map<FrameType, Dispatcher>
+ DispatcherPrototype()
+ add(FrameType, Dispatcher): void
+ dispatch(FrameType): void
+ serve(): void
}
mastermind.distributed.dispatchers.DispatcherPrototype *-down-> java.util.Map
mastermind.distributed.dispatchers.DispatcherPrototype *-down-> mastermind.utils.TCPIP
mastermind.distributed.dispatchers.DispatcherPrototype - -> mastermind.distributed.dispatchers.Dispatcher
mastermind.distributed.dispatchers.DispatcherPrototype - -> mastermind.distributed.FrameType

class  mastermind.distributed.dispatchers.LooserDispatcher{
+ LooserDispatcher(PlayController)
+ dispatch(): void
}
mastermind.distributed.dispatchers.Dispatcher <|-down- mastermind.distributed.dispatchers.LooserDispatcher
mastermind.distributed.dispatchers.LooserDispatcher ..> mastermind.controllers.PlayController

class  mastermind.distributed.dispatchers.ProposeCombinationDispatcher{
+ ProposeCombinationDispatcher(PlayController)
+ dispatch(): void
}
mastermind.distributed.dispatchers.Dispatcher <|-down- mastermind.distributed.dispatchers.ProposeCombinationDispatcher
mastermind.distributed.dispatchers.ProposeCombinationDispatcher ..> mastermind.controllers.PlayController

class  mastermind.distributed.dispatchers.RedoableDispatcher{
+ RedoableDispatcher(PlayController)
+ dispatch(): void
}
mastermind.distributed.dispatchers.Dispatcher <|-down- mastermind.distributed.dispatchers.RedoableDispatcher
mastermind.distributed.dispatchers.RedoableDispatcher ..> mastermind.controllers.PlayController

class  mastermind.distributed.dispatchers.RedoDispatcher{
+ RedoDispatcher(PlayController)
+ dispatch(): void
}
mastermind.distributed.dispatchers.Dispatcher <|-down- mastermind.distributed.dispatchers.RedoDispatcher
mastermind.distributed.dispatchers.RedoDispatcher ..> mastermind.controllers.PlayController

class  mastermind.distributed.dispatchers.ResumeDispatcher{
+ ResumeDispatcher(ResumeController)
+ dispatch(): void
}
mastermind.distributed.dispatchers.Dispatcher <|-down- mastermind.distributed.dispatchers.ResumeDispatcher
mastermind.distributed.dispatchers.ResumeDispatcher ..> mastermind.controllers.ResumeController

class  mastermind.distributed.dispatchers.StartDispatcher{
+ StartDispatcher(StartController)
+ dispatch(): void
}
mastermind.distributed.dispatchers.Dispatcher <|-down- mastermind.distributed.dispatchers.StartDispatcher
mastermind.distributed.dispatchers.StartDispatcher ..> mastermind.controllers.StartController

class  mastermind.distributed.dispatchers.StateDispatcher{
+ StateDispatcher(PlayController)
+ dispatch(): void
}
mastermind.distributed.dispatchers.Dispatcher <|-down- mastermind.distributed.dispatchers.StateDispatcher
mastermind.distributed.dispatchers.StateDispatcher ..> mastermind.controllers.PlayController

class  mastermind.distributed.dispatchers.TurnDispatcher{
+ TurnDispatcher(PlayController)
+ dispatch(): void
}
mastermind.distributed.dispatchers.Dispatcher <|-down- mastermind.distributed.dispatchers.TurnDispatcher
mastermind.distributed.dispatchers.TurnDispatcher ..> mastermind.controllers.PlayController

class  mastermind.distributed.dispatchers.UndoableDispatcher{
+ UndoableDispatcher(PlayController)
+ dispatch(): void
}
mastermind.distributed.dispatchers.Dispatcher <|-down- mastermind.distributed.dispatchers.UndoableDispatcher
mastermind.distributed.dispatchers.UndoableDispatcher ..> mastermind.controllers.PlayController

class  mastermind.distributed.dispatchers.UndoDispatcher{
+ UndoDispatcher(PlayController)
+ dispatch(): void
}
mastermind.distributed.dispatchers.Dispatcher <|-down- mastermind.distributed.dispatchers.UndoDispatcher
mastermind.distributed.dispatchers.UndoDispatcher ..> mastermind.controllers.PlayController

class  mastermind.distributed.dispatchers.WidthDispatcher{
+ WidthDispatcher(PlayController)
+ dispatch(): void
}
mastermind.distributed.dispatchers.Dispatcher <|-down- mastermind.distributed.dispatchers.WidthDispatcher
mastermind.distributed.dispatchers.WidthDispatcher ..> mastermind.controllers.PlayController

class  mastermind.distributed.dispatchers.WinnerDispatcher{
+ WinnerDispatcher(PlayController)
+ dispatch(): void
}
mastermind.distributed.dispatchers.Dispatcher <|-down- mastermind.distributed.dispatchers.WinnerDispatcher
mastermind.distributed.dispatchers.WinnerDispatcher ..> mastermind.controllers.PlayController

@enduml

PlantUML version 1.2019.05(Sat Apr 20 18:45:36 CEST 2019)
(GPL source distribution)
Java Runtime: OpenJDK Runtime Environment
JVM: OpenJDK 64-Bit Server VM
Java Version: 1.8.0_222-b10
Operating System: Windows 10
OS Version: 10.0
Default Encoding: windows-1252
Language: es
Country: ES
--></g></svg>