<?xml version="1.0" encoding="UTF-8" standalone="no"?><svg xmlns="http://www.w3.org/2000/svg" xmlns:xlink="http://www.w3.org/1999/xlink" contentScriptType="application/ecmascript" contentStyleType="text/css" height="1082px" preserveAspectRatio="none" style="width:3385px;height:1082px;" version="1.1" viewBox="0 0 3385 1082" width="3385px" zoomAndPan="magnify"><defs><filter height="300%" id="f1y1dc0m25ptrg" width="300%" x="-1" y="-1"><feGaussianBlur result="blurOut" stdDeviation="2.0"/><feColorMatrix in="blurOut" result="blurOut2" type="matrix" values="0 0 0 0 0 0 0 0 0 0 0 0 0 0 0 0 0 0 .4 0"/><feOffset dx="4.0" dy="4.0" in="blurOut2" result="blurOut3"/><feBlend in="SourceGraphic" in2="blurOut3" mode="normal"/></filter></defs><g><!--cluster mastermind.views--><polygon fill="#FFFFFF" filter="url(#f1y1dc0m25ptrg)" points="448,24,581,24,588,47.6094,2497,47.6094,2497,946,448,946,448,24" style="stroke: #000000; stroke-width: 1.5;"/><line style="stroke: #000000; stroke-width: 1.5;" x1="448" x2="588" y1="47.6094" y2="47.6094"/><text fill="#000000" font-family="sans-serif" font-size="14" font-weight="bold" lengthAdjust="spacingAndGlyphs" textLength="127" x="452" y="40.5332">mastermind.views</text><!--cluster mastermind.models--><polygon fill="#FFFFFF" filter="url(#f1y1dc0m25ptrg)" points="2683,502.5,2826,502.5,2833,526.1094,3363,526.1094,3363,602.5,2683,602.5,2683,502.5" style="stroke: #000000; stroke-width: 1.5;"/><line style="stroke: #000000; stroke-width: 1.5;" x1="2683" x2="2833" y1="526.1094" y2="526.1094"/><text fill="#000000" font-family="sans-serif" font-size="14" font-weight="bold" lengthAdjust="spacingAndGlyphs" textLength="137" x="2687" y="519.0332">mastermind.models</text><!--cluster santaTecla.utils--><polygon fill="#FFFFFF" filter="url(#f1y1dc0m25ptrg)" points="22,58.5,137,58.5,144,82.1094,424,82.1094,424,158.5,22,158.5,22,58.5" style="stroke: #000000; stroke-width: 1.5;"/><line style="stroke: #000000; stroke-width: 1.5;" x1="22" x2="144" y1="82.1094" y2="82.1094"/><text fill="#000000" font-family="sans-serif" font-size="14" font-weight="bold" lengthAdjust="spacingAndGlyphs" textLength="109" x="26" y="75.0332">santaTecla.utils</text><!--cluster mastermind.types--><polygon fill="#FFFFFF" filter="url(#f1y1dc0m25ptrg)" points="1201,970,1331,970,1338,993.6094,1390,993.6094,1390,1070,1201,1070,1201,970" style="stroke: #000000; stroke-width: 1.5;"/><line style="stroke: #000000; stroke-width: 1.5;" x1="1201" x2="1338" y1="993.6094" y2="993.6094"/><text fill="#000000" font-family="sans-serif" font-size="14" font-weight="bold" lengthAdjust="spacingAndGlyphs" textLength="124" x="1205" y="986.5332">mastermind.types</text><!--cluster santaTecla--><polygon fill="#FFFFFF" filter="url(#f1y1dc0m25ptrg)" points="2521,502.5,2602,502.5,2609,526.1094,2659,526.1094,2659,602.5,2521,602.5,2521,502.5" style="stroke: #000000; stroke-width: 1.5;"/><line style="stroke: #000000; stroke-width: 1.5;" x1="2521" x2="2609" y1="526.1094" y2="526.1094"/><text fill="#000000" font-family="sans-serif" font-size="14" font-weight="bold" lengthAdjust="spacingAndGlyphs" textLength="75" x="2525" y="519.0332">santaTecla</text><!--class mastermind.views.AttemptsView--><rect fill="#FEFECE" filter="url(#f1y1dc0m25ptrg)" height="89.5078" id="mastermind.views.AttemptsView" style="stroke: #A80036; stroke-width: 1.5;" width="160" x="1954" y="243.5"/><ellipse cx="1993.3" cy="259.5" fill="#ADD1B2" rx="11" ry="11" style="stroke: #A80036; stroke-width: 1.0;"/><path d="M1996.0656,255.375 Q1996.2219,255.1563 1996.4094,255.0469 Q1996.5969,254.9375 1996.8156,254.9375 Q1997.1906,254.9375 1997.425,255.1953 Q1997.6594,255.4531 1997.6594,256.0625 L1997.6594,257.5156 Q1997.6594,258.125 1997.425,258.3906 Q1997.1906,258.6563 1996.8156,258.6563 Q1996.4719,258.6563 1996.2688,258.4531 Q1996.0656,258.2656 1995.9563,257.75 Q1995.9094,257.3906 1995.7219,257.2031 Q1995.3938,256.8281 1994.7844,256.6094 Q1994.175,256.3906 1993.55,256.3906 Q1992.7844,256.3906 1992.1516,256.7188 Q1991.5188,257.0469 1991.0266,257.7969 Q1990.5344,258.5469 1990.5344,259.5781 L1990.5344,260.6719 Q1990.5344,261.9063 1991.425,262.7266 Q1992.3156,263.5469 1993.9094,263.5469 Q1994.8469,263.5469 1995.5031,263.2969 Q1995.8938,263.1406 1996.3156,262.7031 Q1996.5813,262.4375 1996.7297,262.3594 Q1996.8781,262.2813 1997.0813,262.2813 Q1997.4094,262.2813 1997.6672,262.5391 Q1997.925,262.7969 1997.925,263.1406 Q1997.925,263.4844 1997.5813,263.8906 Q1997.0813,264.4688 1996.2844,264.7969 Q1995.2063,265.25 1993.9094,265.25 Q1992.3938,265.25 1991.1906,264.625 Q1990.2063,264.125 1989.5188,263.0547 Q1988.8313,261.9844 1988.8313,260.7031 L1988.8313,259.5469 Q1988.8313,258.2188 1989.4484,257.0703 Q1990.0656,255.9219 1991.1594,255.3047 Q1992.2531,254.6875 1993.4875,254.6875 Q1994.2219,254.6875 1994.8703,254.8516 Q1995.5188,255.0156 1996.0656,255.375 Z "/><text fill="#000000" font-family="sans-serif" font-size="12" lengthAdjust="spacingAndGlyphs" textLength="74" x="2012.7" y="264.4102">AttemptsView</text><line style="stroke: #A80036; stroke-width: 1.5;" x1="1955" x2="2113" y1="275.5" y2="275.5"/><rect fill="none" height="6" style="stroke: #C82930; stroke-width: 1.0;" width="6" x="1962" y="284.918"/><text fill="#000000" font-family="sans-serif" font-size="11" lengthAdjust="spacingAndGlyphs" textLength="57" x="1974" y="290.9189">Game game</text><line style="stroke: #A80036; stroke-width: 1.5;" x1="1955" x2="2113" y1="297.3359" y2="297.3359"/><polygon fill="#4177AF" points="1965,305.7539,1961,311.7539,1969,311.7539" style="stroke: #1963A0; stroke-width: 1.0;"/><text fill="#000000" font-family="sans-serif" font-size="11" lengthAdjust="spacingAndGlyphs" textLength="134" x="1974" y="312.7549">AttemptsView(Game game)</text><polygon fill="#4177AF" points="1965,319.5898,1961,325.5898,1969,325.5898" style="stroke: #1963A0; stroke-width: 1.0;"/><text fill="#000000" font-family="sans-serif" font-size="11" lengthAdjust="spacingAndGlyphs" textLength="64" x="1974" y="326.5908">void writeln()</text><!--class mastermind.views.MessageView--><rect fill="#FEFECE" filter="url(#f1y1dc0m25ptrg)" height="324.7188" id="mastermind.views.MessageView" style="stroke: #A80036; stroke-width: 1.5;" width="188" x="1087" y="400"/><ellipse cx="1138.25" cy="416" fill="#EB937F" rx="11" ry="11" style="stroke: #A80036; stroke-width: 1.0;"/><path d="M1137.1094,416.7969 L1137.1094,419.2969 L1141.4375,419.2969 L1141.4375,418.375 Q1141.4375,417.7656 1141.6797,417.5 Q1141.9219,417.2344 1142.2969,417.2344 Q1142.6719,417.2344 1142.9063,417.5 Q1143.1406,417.7656 1143.1406,418.375 L1143.1406,421 L1135.1406,421 Q1134.5156,421 1134.2578,420.7656 Q1134,420.5313 1134,420.1406 Q1134,419.7656 1134.2656,419.5313 Q1134.5313,419.2969 1135.1406,419.2969 L1135.4063,419.2969 L1135.4063,412.6406 L1135.1406,412.6406 Q1134.5156,412.6406 1134.2578,412.4063 Q1134,412.1719 1134,411.7813 Q1134,411.4063 1134.2578,411.1719 Q1134.5156,410.9375 1135.1406,410.9375 L1142.7656,410.9375 L1142.7656,413.5313 Q1142.7656,414.1406 1142.5391,414.3984 Q1142.3125,414.6563 1141.9219,414.6563 Q1141.5469,414.6563 1141.3125,414.3984 Q1141.0781,414.1406 1141.0781,413.5313 L1141.0781,412.6406 L1137.1094,412.6406 L1137.1094,415.0938 L1138.5938,415.0938 Q1138.5938,414.4375 1138.7188,414.25 Q1138.9844,413.8438 1139.4531,413.8438 Q1139.8281,413.8438 1140.0625,414.1016 Q1140.2969,414.3594 1140.2969,414.9688 L1140.2969,416.9375 Q1140.2969,417.4844 1140.1719,417.6719 Q1139.9063,418.0625 1139.4531,418.0625 Q1138.9844,418.0625 1138.7188,417.6563 Q1138.5938,417.4688 1138.5938,416.7969 L1137.1094,416.7969 Z "/><text fill="#000000" font-family="sans-serif" font-size="12" lengthAdjust="spacingAndGlyphs" textLength="77" x="1158.75" y="420.9102">MessageView</text><line style="stroke: #A80036; stroke-width: 1.5;" x1="1088" x2="1274" y1="432" y2="432"/><text fill="#000000" font-family="sans-serif" font-size="11" lengthAdjust="spacingAndGlyphs" textLength="53" x="1093" y="447.4189">ATTEMPTS</text><text fill="#000000" font-family="sans-serif" font-size="11" lengthAdjust="spacingAndGlyphs" textLength="39" x="1093" y="461.2549">SECRET</text><text fill="#000000" font-family="sans-serif" font-size="11" lengthAdjust="spacingAndGlyphs" textLength="41" x="1093" y="475.0908">RESUME</text><text fill="#000000" font-family="sans-serif" font-size="11" lengthAdjust="spacingAndGlyphs" textLength="39" x="1093" y="488.9268">RESULT</text><text fill="#000000" font-family="sans-serif" font-size="11" lengthAdjust="spacingAndGlyphs" textLength="131" x="1093" y="502.7627">PROPOSED_COMBINATION</text><text fill="#000000" font-family="sans-serif" font-size="11" lengthAdjust="spacingAndGlyphs" textLength="26" x="1093" y="516.5986">TITLE</text><text fill="#000000" font-family="sans-serif" font-size="11" lengthAdjust="spacingAndGlyphs" textLength="39" x="1093" y="530.4346">WINNER</text><text fill="#000000" font-family="sans-serif" font-size="11" lengthAdjust="spacingAndGlyphs" textLength="42" x="1093" y="544.2705">LOOSER</text><text fill="#000000" font-family="sans-serif" font-size="11" lengthAdjust="spacingAndGlyphs" textLength="107" x="1093" y="558.1064">PROPOSE_COMMAND</text><text fill="#000000" font-family="sans-serif" font-size="11" lengthAdjust="spacingAndGlyphs" textLength="88" x="1093" y="571.9424">UNDO_COMMAND</text><text fill="#000000" font-family="sans-serif" font-size="11" lengthAdjust="spacingAndGlyphs" textLength="87" x="1093" y="585.7783">REDO_COMMAND</text><text fill="#000000" font-family="sans-serif" font-size="11" lengthAdjust="spacingAndGlyphs" textLength="50" x="1093" y="599.6143">NEW_LINE</text><text fill="#000000" font-family="sans-serif" font-size="11" lengthAdjust="spacingAndGlyphs" textLength="44" x="1093" y="613.4502">message</text><text fill="#000000" font-family="sans-serif" font-size="11" lengthAdjust="spacingAndGlyphs" textLength="38" x="1093" y="627.2861">console</text><line style="stroke: #A80036; stroke-width: 1.5;" x1="1088" x2="1274" y1="633.7031" y2="633.7031"/><rect fill="#F24D5C" height="6" style="stroke: #C82930; stroke-width: 1.0;" width="6" x="1095" y="643.1211"/><text fill="#000000" font-family="sans-serif" font-size="11" lengthAdjust="spacingAndGlyphs" textLength="153" x="1107" y="649.1221">MessageView(String message)</text><polygon fill="#4177AF" points="1098,655.957,1094,661.957,1102,661.957" style="stroke: #1963A0; stroke-width: 1.0;"/><text fill="#000000" font-family="sans-serif" font-size="11" lengthAdjust="spacingAndGlyphs" textLength="98" x="1107" y="662.958">String getMessage()</text><polygon fill="#4177AF" points="1098,669.793,1094,675.793,1102,675.793" style="stroke: #1963A0; stroke-width: 1.0;"/><text fill="#000000" font-family="sans-serif" font-size="11" lengthAdjust="spacingAndGlyphs" textLength="56" x="1107" y="676.7939">void write()</text><polygon fill="#4177AF" points="1098,683.6289,1094,689.6289,1102,689.6289" style="stroke: #1963A0; stroke-width: 1.0;"/><text fill="#000000" font-family="sans-serif" font-size="11" lengthAdjust="spacingAndGlyphs" textLength="64" x="1107" y="690.6299">void writeln()</text><polygon fill="#4177AF" points="1098,697.4648,1094,703.4648,1102,703.4648" style="stroke: #1963A0; stroke-width: 1.0;"/><text fill="#000000" font-family="sans-serif" font-size="11" lengthAdjust="spacingAndGlyphs" textLength="119" x="1107" y="704.4658">void writeln(int attempts)</text><polygon fill="#4177AF" points="1098,711.3008,1094,717.3008,1102,717.3008" style="stroke: #1963A0; stroke-width: 1.0;"/><text fill="#000000" font-family="sans-serif" font-size="11" lengthAdjust="spacingAndGlyphs" textLength="162" x="1107" y="718.3018">void writeln(int blacks, int whites)</text><!--class mastermind.views.ColorView--><rect fill="#FEFECE" filter="url(#f1y1dc0m25ptrg)" height="144.8516" id="mastermind.views.ColorView" style="stroke: #A80036; stroke-width: 1.5;" width="190" x="970" y="785"/><ellipse cx="1032.75" cy="801" fill="#ADD1B2" rx="11" ry="11" style="stroke: #A80036; stroke-width: 1.0;"/><path d="M1035.5156,796.875 Q1035.6719,796.6563 1035.8594,796.5469 Q1036.0469,796.4375 1036.2656,796.4375 Q1036.6406,796.4375 1036.875,796.6953 Q1037.1094,796.9531 1037.1094,797.5625 L1037.1094,799.0156 Q1037.1094,799.625 1036.875,799.8906 Q1036.6406,800.1563 1036.2656,800.1563 Q1035.9219,800.1563 1035.7188,799.9531 Q1035.5156,799.7656 1035.4063,799.25 Q1035.3594,798.8906 1035.1719,798.7031 Q1034.8438,798.3281 1034.2344,798.1094 Q1033.625,797.8906 1033,797.8906 Q1032.2344,797.8906 1031.6016,798.2188 Q1030.9688,798.5469 1030.4766,799.2969 Q1029.9844,800.0469 1029.9844,801.0781 L1029.9844,802.1719 Q1029.9844,803.4063 1030.875,804.2266 Q1031.7656,805.0469 1033.3594,805.0469 Q1034.2969,805.0469 1034.9531,804.7969 Q1035.3438,804.6406 1035.7656,804.2031 Q1036.0313,803.9375 1036.1797,803.8594 Q1036.3281,803.7813 1036.5313,803.7813 Q1036.8594,803.7813 1037.1172,804.0391 Q1037.375,804.2969 1037.375,804.6406 Q1037.375,804.9844 1037.0313,805.3906 Q1036.5313,805.9688 1035.7344,806.2969 Q1034.6563,806.75 1033.3594,806.75 Q1031.8438,806.75 1030.6406,806.125 Q1029.6563,805.625 1028.9688,804.5547 Q1028.2813,803.4844 1028.2813,802.2031 L1028.2813,801.0469 Q1028.2813,799.7188 1028.8984,798.5703 Q1029.5156,797.4219 1030.6094,796.8047 Q1031.7031,796.1875 1032.9375,796.1875 Q1033.6719,796.1875 1034.3203,796.3516 Q1034.9688,796.5156 1035.5156,796.875 Z "/><text fill="#000000" font-family="sans-serif" font-size="12" lengthAdjust="spacingAndGlyphs" textLength="56" x="1053.25" y="805.9102">ColorView</text><line style="stroke: #A80036; stroke-width: 1.5;" x1="971" x2="1159" y1="817" y2="817"/><polygon fill="none" points="981,825.418,977,831.418,985,831.418" style="stroke: #1963A0; stroke-width: 1.0;"/><text fill="#000000" font-family="sans-serif" font-size="11" lengthAdjust="spacingAndGlyphs" text-decoration="underline" textLength="71" x="990" y="832.4189">char[] INITIALS</text><polygon fill="none" points="981,838.2539,985,842.2539,981,846.2539,977,842.2539" style="stroke: #B38D22; stroke-width: 1.0;"/><text fill="#000000" font-family="sans-serif" font-size="11" lengthAdjust="spacingAndGlyphs" textLength="52" x="990" y="846.2549">Color color</text><line style="stroke: #A80036; stroke-width: 1.5;" x1="971" x2="1159" y1="852.6719" y2="852.6719"/><polygon fill="#4177AF" points="981,861.0898,977,867.0898,985,867.0898" style="stroke: #1963A0; stroke-width: 1.0;"/><text fill="#000000" font-family="sans-serif" font-size="11" lengthAdjust="spacingAndGlyphs" textLength="111" x="990" y="868.0908">ColorView(Color color)</text><polygon fill="#4177AF" points="981,874.9258,977,880.9258,985,880.9258" style="stroke: #1963A0; stroke-width: 1.0;"/><text fill="#000000" font-family="sans-serif" font-size="11" lengthAdjust="spacingAndGlyphs" text-decoration="underline" textLength="78" x="990" y="881.9268">String allInitials()</text><polygon fill="#4177AF" points="981,888.7617,977,894.7617,985,894.7617" style="stroke: #1963A0; stroke-width: 1.0;"/><text fill="#000000" font-family="sans-serif" font-size="11" lengthAdjust="spacingAndGlyphs" textLength="71" x="990" y="895.7627">char getInitial()</text><polygon fill="#4177AF" points="981,902.5977,977,908.5977,985,908.5977" style="stroke: #1963A0; stroke-width: 1.0;"/><text fill="#000000" font-family="sans-serif" font-size="11" lengthAdjust="spacingAndGlyphs" text-decoration="underline" textLength="164" x="990" y="909.5986">Color getInstance(char character)</text><polygon fill="#4177AF" points="981,916.4336,977,922.4336,985,922.4336" style="stroke: #1963A0; stroke-width: 1.0;"/><text fill="#000000" font-family="sans-serif" font-size="11" lengthAdjust="spacingAndGlyphs" textLength="56" x="990" y="923.4346">void write()</text><!--class mastermind.views.Command--><rect fill="#FEFECE" filter="url(#f1y1dc0m25ptrg)" height="89.5078" id="mastermind.views.Command" style="stroke: #A80036; stroke-width: 1.5;" width="214" x="671" y="73.5"/><ellipse cx="744.25" cy="89.5" fill="#A9DCDF" rx="11" ry="11" style="stroke: #A80036; stroke-width: 1.0;"/><path d="M746.4375,91.2656 L742.2969,91.2656 L741.875,92.2969 L742.2969,92.2969 Q742.9063,92.2969 743.1719,92.5313 Q743.4375,92.7656 743.4375,93.1563 Q743.4375,93.5313 743.1719,93.7656 Q742.9063,94 742.2969,94 L740,94 Q739.3906,94 739.1328,93.7656 Q738.875,93.5313 738.875,93.1406 Q738.875,92.7656 739.1484,92.5234 Q739.4219,92.2813 740.0469,92.2969 L742.7188,85.6406 L741.6094,85.6406 Q741,85.6406 740.7344,85.4063 Q740.4688,85.1719 740.4688,84.7813 Q740.4688,84.4063 740.7344,84.1719 Q741,83.9375 741.6094,83.9375 L745.2813,83.9375 L748.6719,92.2969 Q749.2656,92.2969 749.4531,92.4375 Q749.8438,92.7031 749.8438,93.1563 Q749.8438,93.5313 749.5859,93.7656 Q749.3281,94 748.7188,94 L746.4219,94 Q745.8125,94 745.5469,93.7656 Q745.2813,93.5313 745.2813,93.1406 Q745.2813,92.7656 745.5469,92.5313 Q745.8125,92.2969 746.4219,92.2969 L746.8438,92.2969 L746.4375,91.2656 Z M745.7188,89.5625 L744.3594,86.1875 L742.9844,89.5625 L745.7188,89.5625 Z "/><text fill="#000000" font-family="sans-serif" font-size="12" font-style="italic" lengthAdjust="spacingAndGlyphs" textLength="59" x="764.75" y="94.4102">Command</text><line style="stroke: #A80036; stroke-width: 1.5;" x1="672" x2="884" y1="105.5" y2="105.5"/><polygon fill="none" points="682,112.918,686,116.918,682,120.918,678,116.918" style="stroke: #B38D22; stroke-width: 1.0;"/><text fill="#000000" font-family="sans-serif" font-size="11" lengthAdjust="spacingAndGlyphs" textLength="80" x="691" y="120.9189">Session session</text><line style="stroke: #A80036; stroke-width: 1.5;" x1="672" x2="884" y1="127.3359" y2="127.3359"/><polygon fill="#FFFF44" points="682,134.7539,686,138.7539,682,142.7539,678,138.7539" style="stroke: #B38D22; stroke-width: 1.0;"/><text fill="#000000" font-family="sans-serif" font-size="11" lengthAdjust="spacingAndGlyphs" textLength="188" x="691" y="142.7549">Command(String title, Session session)</text><ellipse cx="682" cy="153.5898" fill="#84BE84" rx="3" ry="3" style="stroke: #038048; stroke-width: 1.0;"/><text fill="#000000" font-family="sans-serif" font-size="11" font-style="italic" lengthAdjust="spacingAndGlyphs" textLength="103" x="691" y="156.5908">void updateIsActive()</text><!--class mastermind.views.ErrorView--><rect fill="#FEFECE" filter="url(#f1y1dc0m25ptrg)" height="103.3438" id="mastermind.views.ErrorView" style="stroke: #A80036; stroke-width: 1.5;" width="135" x="916.5" y="511"/><ellipse cx="954" cy="527" fill="#ADD1B2" rx="11" ry="11" style="stroke: #A80036; stroke-width: 1.0;"/><path d="M956.7656,522.875 Q956.9219,522.6563 957.1094,522.5469 Q957.2969,522.4375 957.5156,522.4375 Q957.8906,522.4375 958.125,522.6953 Q958.3594,522.9531 958.3594,523.5625 L958.3594,525.0156 Q958.3594,525.625 958.125,525.8906 Q957.8906,526.1563 957.5156,526.1563 Q957.1719,526.1563 956.9688,525.9531 Q956.7656,525.7656 956.6563,525.25 Q956.6094,524.8906 956.4219,524.7031 Q956.0938,524.3281 955.4844,524.1094 Q954.875,523.8906 954.25,523.8906 Q953.4844,523.8906 952.8516,524.2188 Q952.2188,524.5469 951.7266,525.2969 Q951.2344,526.0469 951.2344,527.0781 L951.2344,528.1719 Q951.2344,529.4063 952.125,530.2266 Q953.0156,531.0469 954.6094,531.0469 Q955.5469,531.0469 956.2031,530.7969 Q956.5938,530.6406 957.0156,530.2031 Q957.2813,529.9375 957.4297,529.8594 Q957.5781,529.7813 957.7813,529.7813 Q958.1094,529.7813 958.3672,530.0391 Q958.625,530.2969 958.625,530.6406 Q958.625,530.9844 958.2813,531.3906 Q957.7813,531.9688 956.9844,532.2969 Q955.9063,532.75 954.6094,532.75 Q953.0938,532.75 951.8906,532.125 Q950.9063,531.625 950.2188,530.5547 Q949.5313,529.4844 949.5313,528.2031 L949.5313,527.0469 Q949.5313,525.7188 950.1484,524.5703 Q950.7656,523.4219 951.8594,522.8047 Q952.9531,522.1875 954.1875,522.1875 Q954.9219,522.1875 955.5703,522.3516 Q956.2188,522.5156 956.7656,522.875 Z "/><text fill="#000000" font-family="sans-serif" font-size="12" lengthAdjust="spacingAndGlyphs" textLength="53" x="973" y="531.9102">ErrorView</text><line style="stroke: #A80036; stroke-width: 1.5;" x1="917.5" x2="1050.5" y1="543" y2="543"/><polygon fill="none" points="927.5,551.418,923.5,557.418,931.5,557.418" style="stroke: #1963A0; stroke-width: 1.0;"/><text fill="#000000" font-family="sans-serif" font-size="11" lengthAdjust="spacingAndGlyphs" text-decoration="underline" textLength="94" x="936.5" y="558.4189">String[] MESSAGES</text><rect fill="none" height="6" style="stroke: #C82930; stroke-width: 1.0;" width="6" x="924.5" y="566.2539"/><text fill="#000000" font-family="sans-serif" font-size="11" lengthAdjust="spacingAndGlyphs" textLength="51" x="936.5" y="572.2549">Error error</text><line style="stroke: #A80036; stroke-width: 1.5;" x1="917.5" x2="1050.5" y1="578.6719" y2="578.6719"/><polygon fill="#4177AF" points="927.5,587.0898,923.5,593.0898,931.5,593.0898" style="stroke: #1963A0; stroke-width: 1.0;"/><text fill="#000000" font-family="sans-serif" font-size="11" lengthAdjust="spacingAndGlyphs" textLength="109" x="936.5" y="594.0908">ErrorView(Error error)</text><polygon fill="#4177AF" points="927.5,600.9258,923.5,606.9258,931.5,606.9258" style="stroke: #1963A0; stroke-width: 1.0;"/><text fill="#000000" font-family="sans-serif" font-size="11" lengthAdjust="spacingAndGlyphs" textLength="64" x="936.5" y="607.9268">void writeln()</text><!--class mastermind.views.GameView--><rect fill="#FEFECE" filter="url(#f1y1dc0m25ptrg)" height="117.1797" id="mastermind.views.GameView" style="stroke: #A80036; stroke-width: 1.5;" width="145" x="1866.5" y="60"/><ellipse cx="1905.35" cy="76" fill="#ADD1B2" rx="11" ry="11" style="stroke: #A80036; stroke-width: 1.0;"/><path d="M1908.1156,71.875 Q1908.2719,71.6563 1908.4594,71.5469 Q1908.6469,71.4375 1908.8656,71.4375 Q1909.2406,71.4375 1909.475,71.6953 Q1909.7094,71.9531 1909.7094,72.5625 L1909.7094,74.0156 Q1909.7094,74.625 1909.475,74.8906 Q1909.2406,75.1563 1908.8656,75.1563 Q1908.5219,75.1563 1908.3188,74.9531 Q1908.1156,74.7656 1908.0063,74.25 Q1907.9594,73.8906 1907.7719,73.7031 Q1907.4438,73.3281 1906.8344,73.1094 Q1906.225,72.8906 1905.6,72.8906 Q1904.8344,72.8906 1904.2016,73.2188 Q1903.5688,73.5469 1903.0766,74.2969 Q1902.5844,75.0469 1902.5844,76.0781 L1902.5844,77.1719 Q1902.5844,78.4063 1903.475,79.2266 Q1904.3656,80.0469 1905.9594,80.0469 Q1906.8969,80.0469 1907.5531,79.7969 Q1907.9438,79.6406 1908.3656,79.2031 Q1908.6313,78.9375 1908.7797,78.8594 Q1908.9281,78.7813 1909.1313,78.7813 Q1909.4594,78.7813 1909.7172,79.0391 Q1909.975,79.2969 1909.975,79.6406 Q1909.975,79.9844 1909.6313,80.3906 Q1909.1313,80.9688 1908.3344,81.2969 Q1907.2563,81.75 1905.9594,81.75 Q1904.4438,81.75 1903.2406,81.125 Q1902.2563,80.625 1901.5688,79.5547 Q1900.8813,78.4844 1900.8813,77.2031 L1900.8813,76.0469 Q1900.8813,74.7188 1901.4984,73.5703 Q1902.1156,72.4219 1903.2094,71.8047 Q1904.3031,71.1875 1905.5375,71.1875 Q1906.2719,71.1875 1906.9203,71.3516 Q1907.5688,71.5156 1908.1156,71.875 Z "/><text fill="#000000" font-family="sans-serif" font-size="12" lengthAdjust="spacingAndGlyphs" textLength="60" x="1924.65" y="80.9102">GameView</text><line style="stroke: #A80036; stroke-width: 1.5;" x1="1867.5" x2="2010.5" y1="92" y2="92"/><rect fill="none" height="6" style="stroke: #C82930; stroke-width: 1.0;" width="6" x="1874.5" y="101.418"/><text fill="#000000" font-family="sans-serif" font-size="11" lengthAdjust="spacingAndGlyphs" textLength="57" x="1886.5" y="107.4189">Game game</text><line style="stroke: #A80036; stroke-width: 1.5;" x1="1867.5" x2="2010.5" y1="113.8359" y2="113.8359"/><ellipse cx="1877.5" cy="126.2539" fill="#84BE84" rx="3" ry="3" style="stroke: #038048; stroke-width: 1.0;"/><text fill="#000000" font-family="sans-serif" font-size="11" lengthAdjust="spacingAndGlyphs" textLength="119" x="1886.5" y="129.2549">GameView(Game game)</text><ellipse cx="1877.5" cy="140.0898" fill="#84BE84" rx="3" ry="3" style="stroke: #038048; stroke-width: 1.0;"/><text fill="#000000" font-family="sans-serif" font-size="11" lengthAdjust="spacingAndGlyphs" textLength="84" x="1886.5" y="143.0908">void writeGame()</text><ellipse cx="1877.5" cy="153.9258" fill="#84BE84" rx="3" ry="3" style="stroke: #038048; stroke-width: 1.0;"/><text fill="#000000" font-family="sans-serif" font-size="11" lengthAdjust="spacingAndGlyphs" textLength="90" x="1886.5" y="156.9268">void writeLooser()</text><ellipse cx="1877.5" cy="167.7617" fill="#84BE84" rx="3" ry="3" style="stroke: #038048; stroke-width: 1.0;"/><text fill="#000000" font-family="sans-serif" font-size="11" lengthAdjust="spacingAndGlyphs" textLength="90" x="1886.5" y="170.7627">void writeWinner()</text><!--class mastermind.views.SecretCombinationView--><rect fill="#FEFECE" filter="url(#f1y1dc0m25ptrg)" height="89.5078" id="mastermind.views.SecretCombinationView" style="stroke: #A80036; stroke-width: 1.5;" width="332" x="2149" y="243.5"/><ellipse cx="2244.75" cy="259.5" fill="#ADD1B2" rx="11" ry="11" style="stroke: #A80036; stroke-width: 1.0;"/><path d="M2247.5156,255.375 Q2247.6719,255.1563 2247.8594,255.0469 Q2248.0469,254.9375 2248.2656,254.9375 Q2248.6406,254.9375 2248.875,255.1953 Q2249.1094,255.4531 2249.1094,256.0625 L2249.1094,257.5156 Q2249.1094,258.125 2248.875,258.3906 Q2248.6406,258.6563 2248.2656,258.6563 Q2247.9219,258.6563 2247.7188,258.4531 Q2247.5156,258.2656 2247.4063,257.75 Q2247.3594,257.3906 2247.1719,257.2031 Q2246.8438,256.8281 2246.2344,256.6094 Q2245.625,256.3906 2245,256.3906 Q2244.2344,256.3906 2243.6016,256.7188 Q2242.9688,257.0469 2242.4766,257.7969 Q2241.9844,258.5469 2241.9844,259.5781 L2241.9844,260.6719 Q2241.9844,261.9063 2242.875,262.7266 Q2243.7656,263.5469 2245.3594,263.5469 Q2246.2969,263.5469 2246.9531,263.2969 Q2247.3438,263.1406 2247.7656,262.7031 Q2248.0313,262.4375 2248.1797,262.3594 Q2248.3281,262.2813 2248.5313,262.2813 Q2248.8594,262.2813 2249.1172,262.5391 Q2249.375,262.7969 2249.375,263.1406 Q2249.375,263.4844 2249.0313,263.8906 Q2248.5313,264.4688 2247.7344,264.7969 Q2246.6563,265.25 2245.3594,265.25 Q2243.8438,265.25 2242.6406,264.625 Q2241.6563,264.125 2240.9688,263.0547 Q2240.2813,261.9844 2240.2813,260.7031 L2240.2813,259.5469 Q2240.2813,258.2188 2240.8984,257.0703 Q2241.5156,255.9219 2242.6094,255.3047 Q2243.7031,254.6875 2244.9375,254.6875 Q2245.6719,254.6875 2246.3203,254.8516 Q2246.9688,255.0156 2247.5156,255.375 Z "/><text fill="#000000" font-family="sans-serif" font-size="12" lengthAdjust="spacingAndGlyphs" textLength="132" x="2265.25" y="264.4102">SecretCombinationView</text><line style="stroke: #A80036; stroke-width: 1.5;" x1="2150" x2="2480" y1="275.5" y2="275.5"/><rect fill="none" height="6" style="stroke: #C82930; stroke-width: 1.0;" width="6" x="2157" y="284.918"/><text fill="#000000" font-family="sans-serif" font-size="11" lengthAdjust="spacingAndGlyphs" textLength="182" x="2169" y="290.9189">SecretCombination secretCombination</text><line style="stroke: #A80036; stroke-width: 1.5;" x1="2150" x2="2480" y1="297.3359" y2="297.3359"/><polygon fill="#4177AF" points="2160,305.7539,2156,311.7539,2164,311.7539" style="stroke: #1963A0; stroke-width: 1.0;"/><text fill="#000000" font-family="sans-serif" font-size="11" lengthAdjust="spacingAndGlyphs" textLength="306" x="2169" y="312.7549">SecretCombinationView(SecretCombination secretCombination)</text><polygon fill="#4177AF" points="2160,319.5898,2156,325.5898,2164,325.5898" style="stroke: #1963A0; stroke-width: 1.0;"/><text fill="#000000" font-family="sans-serif" font-size="11" lengthAdjust="spacingAndGlyphs" textLength="64" x="2169" y="326.5908">void writeln()</text><!--class mastermind.views.ProposedCombinationView--><rect fill="#FEFECE" filter="url(#f1y1dc0m25ptrg)" height="103.3438" id="mastermind.views.ProposedCombinationView" style="stroke: #A80036; stroke-width: 1.5;" width="375" x="1217.5" y="237"/><ellipse cx="1325.25" cy="253" fill="#ADD1B2" rx="11" ry="11" style="stroke: #A80036; stroke-width: 1.0;"/><path d="M1328.0156,248.875 Q1328.1719,248.6563 1328.3594,248.5469 Q1328.5469,248.4375 1328.7656,248.4375 Q1329.1406,248.4375 1329.375,248.6953 Q1329.6094,248.9531 1329.6094,249.5625 L1329.6094,251.0156 Q1329.6094,251.625 1329.375,251.8906 Q1329.1406,252.1563 1328.7656,252.1563 Q1328.4219,252.1563 1328.2188,251.9531 Q1328.0156,251.7656 1327.9063,251.25 Q1327.8594,250.8906 1327.6719,250.7031 Q1327.3438,250.3281 1326.7344,250.1094 Q1326.125,249.8906 1325.5,249.8906 Q1324.7344,249.8906 1324.1016,250.2188 Q1323.4688,250.5469 1322.9766,251.2969 Q1322.4844,252.0469 1322.4844,253.0781 L1322.4844,254.1719 Q1322.4844,255.4063 1323.375,256.2266 Q1324.2656,257.0469 1325.8594,257.0469 Q1326.7969,257.0469 1327.4531,256.7969 Q1327.8438,256.6406 1328.2656,256.2031 Q1328.5313,255.9375 1328.6797,255.8594 Q1328.8281,255.7813 1329.0313,255.7813 Q1329.3594,255.7813 1329.6172,256.0391 Q1329.875,256.2969 1329.875,256.6406 Q1329.875,256.9844 1329.5313,257.3906 Q1329.0313,257.9688 1328.2344,258.2969 Q1327.1563,258.75 1325.8594,258.75 Q1324.3438,258.75 1323.1406,258.125 Q1322.1563,257.625 1321.4688,256.5547 Q1320.7813,255.4844 1320.7813,254.2031 L1320.7813,253.0469 Q1320.7813,251.7188 1321.3984,250.5703 Q1322.0156,249.4219 1323.1094,248.8047 Q1324.2031,248.1875 1325.4375,248.1875 Q1326.1719,248.1875 1326.8203,248.3516 Q1327.4688,248.5156 1328.0156,248.875 Z "/><text fill="#000000" font-family="sans-serif" font-size="12" lengthAdjust="spacingAndGlyphs" textLength="151" x="1345.75" y="257.9102">ProposedCombinationView</text><line style="stroke: #A80036; stroke-width: 1.5;" x1="1218.5" x2="1591.5" y1="269" y2="269"/><rect fill="none" height="6" style="stroke: #C82930; stroke-width: 1.0;" width="6" x="1225.5" y="278.418"/><text fill="#000000" font-family="sans-serif" font-size="11" lengthAdjust="spacingAndGlyphs" textLength="211" x="1237.5" y="284.4189">ProposedCombination proposedCombination</text><line style="stroke: #A80036; stroke-width: 1.5;" x1="1218.5" x2="1591.5" y1="290.8359" y2="290.8359"/><ellipse cx="1228.5" cy="303.2539" fill="#84BE84" rx="3" ry="3" style="stroke: #038048; stroke-width: 1.0;"/><text fill="#000000" font-family="sans-serif" font-size="11" lengthAdjust="spacingAndGlyphs" textLength="349" x="1237.5" y="306.2549">ProposedCombinationView(ProposedCombination proposedCombination)</text><polygon fill="#4177AF" points="1228.5,313.0898,1224.5,319.0898,1232.5,319.0898" style="stroke: #1963A0; stroke-width: 1.0;"/><text fill="#000000" font-family="sans-serif" font-size="11" lengthAdjust="spacingAndGlyphs" textLength="56" x="1237.5" y="320.0908">void write()</text><ellipse cx="1228.5" cy="330.9258" fill="#84BE84" rx="3" ry="3" style="stroke: #038048; stroke-width: 1.0;"/><text fill="#000000" font-family="sans-serif" font-size="11" lengthAdjust="spacingAndGlyphs" textLength="53" x="1237.5" y="333.9268">void read()</text><!--class mastermind.views.ResultView--><rect fill="#FEFECE" filter="url(#f1y1dc0m25ptrg)" height="89.5078" id="mastermind.views.ResultView" style="stroke: #A80036; stroke-width: 1.5;" width="150" x="1769" y="243.5"/><ellipse cx="1809.2" cy="259.5" fill="#ADD1B2" rx="11" ry="11" style="stroke: #A80036; stroke-width: 1.0;"/><path d="M1811.9656,255.375 Q1812.1219,255.1563 1812.3094,255.0469 Q1812.4969,254.9375 1812.7156,254.9375 Q1813.0906,254.9375 1813.325,255.1953 Q1813.5594,255.4531 1813.5594,256.0625 L1813.5594,257.5156 Q1813.5594,258.125 1813.325,258.3906 Q1813.0906,258.6563 1812.7156,258.6563 Q1812.3719,258.6563 1812.1688,258.4531 Q1811.9656,258.2656 1811.8563,257.75 Q1811.8094,257.3906 1811.6219,257.2031 Q1811.2938,256.8281 1810.6844,256.6094 Q1810.075,256.3906 1809.45,256.3906 Q1808.6844,256.3906 1808.0516,256.7188 Q1807.4188,257.0469 1806.9266,257.7969 Q1806.4344,258.5469 1806.4344,259.5781 L1806.4344,260.6719 Q1806.4344,261.9063 1807.325,262.7266 Q1808.2156,263.5469 1809.8094,263.5469 Q1810.7469,263.5469 1811.4031,263.2969 Q1811.7938,263.1406 1812.2156,262.7031 Q1812.4813,262.4375 1812.6297,262.3594 Q1812.7781,262.2813 1812.9813,262.2813 Q1813.3094,262.2813 1813.5672,262.5391 Q1813.825,262.7969 1813.825,263.1406 Q1813.825,263.4844 1813.4813,263.8906 Q1812.9813,264.4688 1812.1844,264.7969 Q1811.1063,265.25 1809.8094,265.25 Q1808.2938,265.25 1807.0906,264.625 Q1806.1063,264.125 1805.4188,263.0547 Q1804.7313,261.9844 1804.7313,260.7031 L1804.7313,259.5469 Q1804.7313,258.2188 1805.3484,257.0703 Q1805.9656,255.9219 1807.0594,255.3047 Q1808.1531,254.6875 1809.3875,254.6875 Q1810.1219,254.6875 1810.7703,254.8516 Q1811.4188,255.0156 1811.9656,255.375 Z "/><text fill="#000000" font-family="sans-serif" font-size="12" lengthAdjust="spacingAndGlyphs" textLength="62" x="1828.8" y="264.4102">ResultView</text><line style="stroke: #A80036; stroke-width: 1.5;" x1="1770" x2="1918" y1="275.5" y2="275.5"/><rect fill="none" height="6" style="stroke: #C82930; stroke-width: 1.0;" width="6" x="1777" y="284.918"/><text fill="#000000" font-family="sans-serif" font-size="11" lengthAdjust="spacingAndGlyphs" textLength="60" x="1789" y="290.9189">Result result</text><line style="stroke: #A80036; stroke-width: 1.5;" x1="1770" x2="1918" y1="297.3359" y2="297.3359"/><polygon fill="#4177AF" points="1780,305.7539,1776,311.7539,1784,311.7539" style="stroke: #1963A0; stroke-width: 1.0;"/><text fill="#000000" font-family="sans-serif" font-size="11" lengthAdjust="spacingAndGlyphs" textLength="124" x="1789" y="312.7549">ResultView(Result result)</text><polygon fill="#4177AF" points="1780,319.5898,1776,325.5898,1784,325.5898" style="stroke: #1963A0; stroke-width: 1.0;"/><text fill="#000000" font-family="sans-serif" font-size="11" lengthAdjust="spacingAndGlyphs" textLength="64" x="1789" y="326.5908">void writeln()</text><!--class mastermind.views.ProposeCommand--><rect fill="#FEFECE" filter="url(#f1y1dc0m25ptrg)" height="75.6719" id="mastermind.views.ProposeCommand" style="stroke: #A80036; stroke-width: 1.5;" width="201" x="906.5" y="250.5"/><ellipse cx="949.85" cy="266.5" fill="#ADD1B2" rx="11" ry="11" style="stroke: #A80036; stroke-width: 1.0;"/><path d="M952.6156,262.375 Q952.7719,262.1563 952.9594,262.0469 Q953.1469,261.9375 953.3656,261.9375 Q953.7406,261.9375 953.975,262.1953 Q954.2094,262.4531 954.2094,263.0625 L954.2094,264.5156 Q954.2094,265.125 953.975,265.3906 Q953.7406,265.6563 953.3656,265.6563 Q953.0219,265.6563 952.8188,265.4531 Q952.6156,265.2656 952.5063,264.75 Q952.4594,264.3906 952.2719,264.2031 Q951.9438,263.8281 951.3344,263.6094 Q950.725,263.3906 950.1,263.3906 Q949.3344,263.3906 948.7016,263.7188 Q948.0688,264.0469 947.5766,264.7969 Q947.0844,265.5469 947.0844,266.5781 L947.0844,267.6719 Q947.0844,268.9063 947.975,269.7266 Q948.8656,270.5469 950.4594,270.5469 Q951.3969,270.5469 952.0531,270.2969 Q952.4438,270.1406 952.8656,269.7031 Q953.1313,269.4375 953.2797,269.3594 Q953.4281,269.2813 953.6313,269.2813 Q953.9594,269.2813 954.2172,269.5391 Q954.475,269.7969 954.475,270.1406 Q954.475,270.4844 954.1313,270.8906 Q953.6313,271.4688 952.8344,271.7969 Q951.7563,272.25 950.4594,272.25 Q948.9438,272.25 947.7406,271.625 Q946.7563,271.125 946.0688,270.0547 Q945.3813,268.9844 945.3813,267.7031 L945.3813,266.5469 Q945.3813,265.2188 945.9984,264.0703 Q946.6156,262.9219 947.7094,262.3047 Q948.8031,261.6875 950.0375,261.6875 Q950.7719,261.6875 951.4203,261.8516 Q952.0688,262.0156 952.6156,262.375 Z "/><text fill="#000000" font-family="sans-serif" font-size="12" lengthAdjust="spacingAndGlyphs" textLength="106" x="970.15" y="271.4102">ProposeCommand</text><line style="stroke: #A80036; stroke-width: 1.5;" x1="907.5" x2="1106.5" y1="282.5" y2="282.5"/><line style="stroke: #A80036; stroke-width: 1.5;" x1="907.5" x2="1106.5" y1="290.5" y2="290.5"/><ellipse cx="917.5" cy="302.918" fill="#84BE84" rx="3" ry="3" style="stroke: #038048; stroke-width: 1.0;"/><text fill="#000000" font-family="sans-serif" font-size="11" lengthAdjust="spacingAndGlyphs" textLength="175" x="926.5" y="305.9189">ProposeCommand(Session session)</text><ellipse cx="917.5" cy="316.7539" fill="#84BE84" rx="3" ry="3" style="stroke: #038048; stroke-width: 1.0;"/><text fill="#000000" font-family="sans-serif" font-size="11" lengthAdjust="spacingAndGlyphs" textLength="103" x="926.5" y="319.7549">void updateIsActive()</text><!--class mastermind.views.RedoCommand--><rect fill="#FEFECE" filter="url(#f1y1dc0m25ptrg)" height="75.6719" id="mastermind.views.RedoCommand" style="stroke: #A80036; stroke-width: 1.5;" width="186" x="464" y="250.5"/><ellipse cx="508.25" cy="266.5" fill="#ADD1B2" rx="11" ry="11" style="stroke: #A80036; stroke-width: 1.0;"/><path d="M511.0156,262.375 Q511.1719,262.1563 511.3594,262.0469 Q511.5469,261.9375 511.7656,261.9375 Q512.1406,261.9375 512.375,262.1953 Q512.6094,262.4531 512.6094,263.0625 L512.6094,264.5156 Q512.6094,265.125 512.375,265.3906 Q512.1406,265.6563 511.7656,265.6563 Q511.4219,265.6563 511.2188,265.4531 Q511.0156,265.2656 510.9063,264.75 Q510.8594,264.3906 510.6719,264.2031 Q510.3438,263.8281 509.7344,263.6094 Q509.125,263.3906 508.5,263.3906 Q507.7344,263.3906 507.1016,263.7188 Q506.4688,264.0469 505.9766,264.7969 Q505.4844,265.5469 505.4844,266.5781 L505.4844,267.6719 Q505.4844,268.9063 506.375,269.7266 Q507.2656,270.5469 508.8594,270.5469 Q509.7969,270.5469 510.4531,270.2969 Q510.8438,270.1406 511.2656,269.7031 Q511.5313,269.4375 511.6797,269.3594 Q511.8281,269.2813 512.0313,269.2813 Q512.3594,269.2813 512.6172,269.5391 Q512.875,269.7969 512.875,270.1406 Q512.875,270.4844 512.5313,270.8906 Q512.0313,271.4688 511.2344,271.7969 Q510.1563,272.25 508.8594,272.25 Q507.3438,272.25 506.1406,271.625 Q505.1563,271.125 504.4688,270.0547 Q503.7813,268.9844 503.7813,267.7031 L503.7813,266.5469 Q503.7813,265.2188 504.3984,264.0703 Q505.0156,262.9219 506.1094,262.3047 Q507.2031,261.6875 508.4375,261.6875 Q509.1719,261.6875 509.8203,261.8516 Q510.4688,262.0156 511.0156,262.375 Z "/><text fill="#000000" font-family="sans-serif" font-size="12" lengthAdjust="spacingAndGlyphs" textLength="89" x="528.75" y="271.4102">RedoCommand</text><line style="stroke: #A80036; stroke-width: 1.5;" x1="465" x2="649" y1="282.5" y2="282.5"/><line style="stroke: #A80036; stroke-width: 1.5;" x1="465" x2="649" y1="290.5" y2="290.5"/><ellipse cx="475" cy="302.918" fill="#84BE84" rx="3" ry="3" style="stroke: #038048; stroke-width: 1.0;"/><text fill="#000000" font-family="sans-serif" font-size="11" lengthAdjust="spacingAndGlyphs" textLength="160" x="484" y="305.9189">RedoCommand(Session session)</text><ellipse cx="475" cy="316.7539" fill="#84BE84" rx="3" ry="3" style="stroke: #038048; stroke-width: 1.0;"/><text fill="#000000" font-family="sans-serif" font-size="11" lengthAdjust="spacingAndGlyphs" textLength="103" x="484" y="319.7549">void updateIsActive()</text><!--class mastermind.views.ResumeView--><rect fill="#FEFECE" filter="url(#f1y1dc0m25ptrg)" height="61.8359" id="mastermind.views.ResumeView" style="stroke: #A80036; stroke-width: 1.5;" width="106" x="1628" y="257.5"/><ellipse cx="1643" cy="273.5" fill="#ADD1B2" rx="11" ry="11" style="stroke: #A80036; stroke-width: 1.0;"/><path d="M1645.7656,269.375 Q1645.9219,269.1563 1646.1094,269.0469 Q1646.2969,268.9375 1646.5156,268.9375 Q1646.8906,268.9375 1647.125,269.1953 Q1647.3594,269.4531 1647.3594,270.0625 L1647.3594,271.5156 Q1647.3594,272.125 1647.125,272.3906 Q1646.8906,272.6563 1646.5156,272.6563 Q1646.1719,272.6563 1645.9688,272.4531 Q1645.7656,272.2656 1645.6563,271.75 Q1645.6094,271.3906 1645.4219,271.2031 Q1645.0938,270.8281 1644.4844,270.6094 Q1643.875,270.3906 1643.25,270.3906 Q1642.4844,270.3906 1641.8516,270.7188 Q1641.2188,271.0469 1640.7266,271.7969 Q1640.2344,272.5469 1640.2344,273.5781 L1640.2344,274.6719 Q1640.2344,275.9063 1641.125,276.7266 Q1642.0156,277.5469 1643.6094,277.5469 Q1644.5469,277.5469 1645.2031,277.2969 Q1645.5938,277.1406 1646.0156,276.7031 Q1646.2813,276.4375 1646.4297,276.3594 Q1646.5781,276.2813 1646.7813,276.2813 Q1647.1094,276.2813 1647.3672,276.5391 Q1647.625,276.7969 1647.625,277.1406 Q1647.625,277.4844 1647.2813,277.8906 Q1646.7813,278.4688 1645.9844,278.7969 Q1644.9063,279.25 1643.6094,279.25 Q1642.0938,279.25 1640.8906,278.625 Q1639.9063,278.125 1639.2188,277.0547 Q1638.5313,275.9844 1638.5313,274.7031 L1638.5313,273.5469 Q1638.5313,272.2188 1639.1484,271.0703 Q1639.7656,269.9219 1640.8594,269.3047 Q1641.9531,268.6875 1643.1875,268.6875 Q1643.9219,268.6875 1644.5703,268.8516 Q1645.2188,269.0156 1645.7656,269.375 Z "/><text fill="#000000" font-family="sans-serif" font-size="12" lengthAdjust="spacingAndGlyphs" textLength="74" x="1657" y="278.4102">ResumeView</text><line style="stroke: #A80036; stroke-width: 1.5;" x1="1629" x2="1733" y1="289.5" y2="289.5"/><line style="stroke: #A80036; stroke-width: 1.5;" x1="1629" x2="1733" y1="297.5" y2="297.5"/><ellipse cx="1639" cy="309.918" fill="#84BE84" rx="3" ry="3" style="stroke: #038048; stroke-width: 1.0;"/><text fill="#000000" font-family="sans-serif" font-size="11" lengthAdjust="spacingAndGlyphs" textLength="75" x="1648" y="312.9189">Boolean write()</text><!--class mastermind.views.StartView--><rect fill="#FEFECE" filter="url(#f1y1dc0m25ptrg)" height="89.5078" id="mastermind.views.StartView" style="stroke: #A80036; stroke-width: 1.5;" width="140" x="2245" y="73.5"/><ellipse cx="2285.65" cy="89.5" fill="#ADD1B2" rx="11" ry="11" style="stroke: #A80036; stroke-width: 1.0;"/><path d="M2288.4156,85.375 Q2288.5719,85.1563 2288.7594,85.0469 Q2288.9469,84.9375 2289.1656,84.9375 Q2289.5406,84.9375 2289.775,85.1953 Q2290.0094,85.4531 2290.0094,86.0625 L2290.0094,87.5156 Q2290.0094,88.125 2289.775,88.3906 Q2289.5406,88.6563 2289.1656,88.6563 Q2288.8219,88.6563 2288.6188,88.4531 Q2288.4156,88.2656 2288.3063,87.75 Q2288.2594,87.3906 2288.0719,87.2031 Q2287.7438,86.8281 2287.1344,86.6094 Q2286.525,86.3906 2285.9,86.3906 Q2285.1344,86.3906 2284.5016,86.7188 Q2283.8688,87.0469 2283.3766,87.7969 Q2282.8844,88.5469 2282.8844,89.5781 L2282.8844,90.6719 Q2282.8844,91.9063 2283.775,92.7266 Q2284.6656,93.5469 2286.2594,93.5469 Q2287.1969,93.5469 2287.8531,93.2969 Q2288.2438,93.1406 2288.6656,92.7031 Q2288.9313,92.4375 2289.0797,92.3594 Q2289.2281,92.2813 2289.4313,92.2813 Q2289.7594,92.2813 2290.0172,92.5391 Q2290.275,92.7969 2290.275,93.1406 Q2290.275,93.4844 2289.9313,93.8906 Q2289.4313,94.4688 2288.6344,94.7969 Q2287.5563,95.25 2286.2594,95.25 Q2284.7438,95.25 2283.5406,94.625 Q2282.5563,94.125 2281.8688,93.0547 Q2281.1813,91.9844 2281.1813,90.7031 L2281.1813,89.5469 Q2281.1813,88.2188 2281.7984,87.0703 Q2282.4156,85.9219 2283.5094,85.3047 Q2284.6031,84.6875 2285.8375,84.6875 Q2286.5719,84.6875 2287.2203,84.8516 Q2287.8688,85.0156 2288.4156,85.375 Z "/><text fill="#000000" font-family="sans-serif" font-size="12" lengthAdjust="spacingAndGlyphs" textLength="51" x="2305.35" y="94.4102">StartView</text><line style="stroke: #A80036; stroke-width: 1.5;" x1="2246" x2="2384" y1="105.5" y2="105.5"/><rect fill="none" height="6" style="stroke: #C82930; stroke-width: 1.0;" width="6" x="2253" y="114.918"/><text fill="#000000" font-family="sans-serif" font-size="11" lengthAdjust="spacingAndGlyphs" textLength="57" x="2265" y="120.9189">Game game</text><line style="stroke: #A80036; stroke-width: 1.5;" x1="2246" x2="2384" y1="127.3359" y2="127.3359"/><ellipse cx="2256" cy="139.7539" fill="#84BE84" rx="3" ry="3" style="stroke: #038048; stroke-width: 1.0;"/><text fill="#000000" font-family="sans-serif" font-size="11" lengthAdjust="spacingAndGlyphs" textLength="114" x="2265" y="142.7549">StartView(Game game)</text><ellipse cx="2256" cy="153.5898" fill="#84BE84" rx="3" ry="3" style="stroke: #038048; stroke-width: 1.0;"/><text fill="#000000" font-family="sans-serif" font-size="11" lengthAdjust="spacingAndGlyphs" textLength="56" x="2265" y="156.5908">void write()</text><!--class mastermind.views.UndoCommand--><rect fill="#FEFECE" filter="url(#f1y1dc0m25ptrg)" height="75.6719" id="mastermind.views.UndoCommand" style="stroke: #A80036; stroke-width: 1.5;" width="186" x="685" y="250.5"/><ellipse cx="729.25" cy="266.5" fill="#ADD1B2" rx="11" ry="11" style="stroke: #A80036; stroke-width: 1.0;"/><path d="M732.0156,262.375 Q732.1719,262.1563 732.3594,262.0469 Q732.5469,261.9375 732.7656,261.9375 Q733.1406,261.9375 733.375,262.1953 Q733.6094,262.4531 733.6094,263.0625 L733.6094,264.5156 Q733.6094,265.125 733.375,265.3906 Q733.1406,265.6563 732.7656,265.6563 Q732.4219,265.6563 732.2188,265.4531 Q732.0156,265.2656 731.9063,264.75 Q731.8594,264.3906 731.6719,264.2031 Q731.3438,263.8281 730.7344,263.6094 Q730.125,263.3906 729.5,263.3906 Q728.7344,263.3906 728.1016,263.7188 Q727.4688,264.0469 726.9766,264.7969 Q726.4844,265.5469 726.4844,266.5781 L726.4844,267.6719 Q726.4844,268.9063 727.375,269.7266 Q728.2656,270.5469 729.8594,270.5469 Q730.7969,270.5469 731.4531,270.2969 Q731.8438,270.1406 732.2656,269.7031 Q732.5313,269.4375 732.6797,269.3594 Q732.8281,269.2813 733.0313,269.2813 Q733.3594,269.2813 733.6172,269.5391 Q733.875,269.7969 733.875,270.1406 Q733.875,270.4844 733.5313,270.8906 Q733.0313,271.4688 732.2344,271.7969 Q731.1563,272.25 729.8594,272.25 Q728.3438,272.25 727.1406,271.625 Q726.1563,271.125 725.4688,270.0547 Q724.7813,268.9844 724.7813,267.7031 L724.7813,266.5469 Q724.7813,265.2188 725.3984,264.0703 Q726.0156,262.9219 727.1094,262.3047 Q728.2031,261.6875 729.4375,261.6875 Q730.1719,261.6875 730.8203,261.8516 Q731.4688,262.0156 732.0156,262.375 Z "/><text fill="#000000" font-family="sans-serif" font-size="12" lengthAdjust="spacingAndGlyphs" textLength="89" x="749.75" y="271.4102">UndoCommand</text><line style="stroke: #A80036; stroke-width: 1.5;" x1="686" x2="870" y1="282.5" y2="282.5"/><line style="stroke: #A80036; stroke-width: 1.5;" x1="686" x2="870" y1="290.5" y2="290.5"/><ellipse cx="696" cy="302.918" fill="#84BE84" rx="3" ry="3" style="stroke: #038048; stroke-width: 1.0;"/><text fill="#000000" font-family="sans-serif" font-size="11" lengthAdjust="spacingAndGlyphs" textLength="160" x="705" y="305.9189">UndoCommand(Session session)</text><ellipse cx="696" cy="316.7539" fill="#84BE84" rx="3" ry="3" style="stroke: #038048; stroke-width: 1.0;"/><text fill="#000000" font-family="sans-serif" font-size="11" lengthAdjust="spacingAndGlyphs" textLength="103" x="705" y="319.7549">void updateIsActive()</text><!--class mastermind.models.Game--><rect fill="#FEFECE" filter="url(#f1y1dc0m25ptrg)" height="48" id="mastermind.models.Game" style="stroke: #A80036; stroke-width: 1.5;" width="66" x="3281" y="538.5"/><ellipse cx="3296" cy="554.5" fill="#ADD1B2" rx="11" ry="11" style="stroke: #A80036; stroke-width: 1.0;"/><path d="M3298.7656,550.375 Q3298.9219,550.1563 3299.1094,550.0469 Q3299.2969,549.9375 3299.5156,549.9375 Q3299.8906,549.9375 3300.125,550.1953 Q3300.3594,550.4531 3300.3594,551.0625 L3300.3594,552.5156 Q3300.3594,553.125 3300.125,553.3906 Q3299.8906,553.6563 3299.5156,553.6563 Q3299.1719,553.6563 3298.9688,553.4531 Q3298.7656,553.2656 3298.6563,552.75 Q3298.6094,552.3906 3298.4219,552.2031 Q3298.0938,551.8281 3297.4844,551.6094 Q3296.875,551.3906 3296.25,551.3906 Q3295.4844,551.3906 3294.8516,551.7188 Q3294.2188,552.0469 3293.7266,552.7969 Q3293.2344,553.5469 3293.2344,554.5781 L3293.2344,555.6719 Q3293.2344,556.9063 3294.125,557.7266 Q3295.0156,558.5469 3296.6094,558.5469 Q3297.5469,558.5469 3298.2031,558.2969 Q3298.5938,558.1406 3299.0156,557.7031 Q3299.2813,557.4375 3299.4297,557.3594 Q3299.5781,557.2813 3299.7813,557.2813 Q3300.1094,557.2813 3300.3672,557.5391 Q3300.625,557.7969 3300.625,558.1406 Q3300.625,558.4844 3300.2813,558.8906 Q3299.7813,559.4688 3298.9844,559.7969 Q3297.9063,560.25 3296.6094,560.25 Q3295.0938,560.25 3293.8906,559.625 Q3292.9063,559.125 3292.2188,558.0547 Q3291.5313,556.9844 3291.5313,555.7031 L3291.5313,554.5469 Q3291.5313,553.2188 3292.1484,552.0703 Q3292.7656,550.9219 3293.8594,550.3047 Q3294.9531,549.6875 3296.1875,549.6875 Q3296.9219,549.6875 3297.5703,549.8516 Q3298.2188,550.0156 3298.7656,550.375 Z "/><text fill="#000000" font-family="sans-serif" font-size="12" lengthAdjust="spacingAndGlyphs" textLength="34" x="3310" y="559.4102">Game</text><line style="stroke: #A80036; stroke-width: 1.5;" x1="3282" x2="3346" y1="570.5" y2="570.5"/><line style="stroke: #A80036; stroke-width: 1.5;" x1="3282" x2="3346" y1="578.5" y2="578.5"/><!--class mastermind.models.Session--><rect fill="#FEFECE" filter="url(#f1y1dc0m25ptrg)" height="48" id="mastermind.models.Session" style="stroke: #A80036; stroke-width: 1.5;" width="78" x="3168" y="538.5"/><ellipse cx="3183" cy="554.5" fill="#ADD1B2" rx="11" ry="11" style="stroke: #A80036; stroke-width: 1.0;"/><path d="M3185.7656,550.375 Q3185.9219,550.1563 3186.1094,550.0469 Q3186.2969,549.9375 3186.5156,549.9375 Q3186.8906,549.9375 3187.125,550.1953 Q3187.3594,550.4531 3187.3594,551.0625 L3187.3594,552.5156 Q3187.3594,553.125 3187.125,553.3906 Q3186.8906,553.6563 3186.5156,553.6563 Q3186.1719,553.6563 3185.9688,553.4531 Q3185.7656,553.2656 3185.6563,552.75 Q3185.6094,552.3906 3185.4219,552.2031 Q3185.0938,551.8281 3184.4844,551.6094 Q3183.875,551.3906 3183.25,551.3906 Q3182.4844,551.3906 3181.8516,551.7188 Q3181.2188,552.0469 3180.7266,552.7969 Q3180.2344,553.5469 3180.2344,554.5781 L3180.2344,555.6719 Q3180.2344,556.9063 3181.125,557.7266 Q3182.0156,558.5469 3183.6094,558.5469 Q3184.5469,558.5469 3185.2031,558.2969 Q3185.5938,558.1406 3186.0156,557.7031 Q3186.2813,557.4375 3186.4297,557.3594 Q3186.5781,557.2813 3186.7813,557.2813 Q3187.1094,557.2813 3187.3672,557.5391 Q3187.625,557.7969 3187.625,558.1406 Q3187.625,558.4844 3187.2813,558.8906 Q3186.7813,559.4688 3185.9844,559.7969 Q3184.9063,560.25 3183.6094,560.25 Q3182.0938,560.25 3180.8906,559.625 Q3179.9063,559.125 3179.2188,558.0547 Q3178.5313,556.9844 3178.5313,555.7031 L3178.5313,554.5469 Q3178.5313,553.2188 3179.1484,552.0703 Q3179.7656,550.9219 3180.8594,550.3047 Q3181.9531,549.6875 3183.1875,549.6875 Q3183.9219,549.6875 3184.5703,549.8516 Q3185.2188,550.0156 3185.7656,550.375 Z "/><text fill="#000000" font-family="sans-serif" font-size="12" lengthAdjust="spacingAndGlyphs" textLength="46" x="3197" y="559.4102">Session</text><line style="stroke: #A80036; stroke-width: 1.5;" x1="3169" x2="3245" y1="570.5" y2="570.5"/><line style="stroke: #A80036; stroke-width: 1.5;" x1="3169" x2="3245" y1="578.5" y2="578.5"/><!--class mastermind.models.ProposedCombination--><rect fill="#FEFECE" filter="url(#f1y1dc0m25ptrg)" height="48" id="mastermind.models.ProposedCombination" style="stroke: #A80036; stroke-width: 1.5;" width="157" x="2699.5" y="538.5"/><ellipse cx="2714.5" cy="554.5" fill="#ADD1B2" rx="11" ry="11" style="stroke: #A80036; stroke-width: 1.0;"/><path d="M2717.2656,550.375 Q2717.4219,550.1563 2717.6094,550.0469 Q2717.7969,549.9375 2718.0156,549.9375 Q2718.3906,549.9375 2718.625,550.1953 Q2718.8594,550.4531 2718.8594,551.0625 L2718.8594,552.5156 Q2718.8594,553.125 2718.625,553.3906 Q2718.3906,553.6563 2718.0156,553.6563 Q2717.6719,553.6563 2717.4688,553.4531 Q2717.2656,553.2656 2717.1563,552.75 Q2717.1094,552.3906 2716.9219,552.2031 Q2716.5938,551.8281 2715.9844,551.6094 Q2715.375,551.3906 2714.75,551.3906 Q2713.9844,551.3906 2713.3516,551.7188 Q2712.7188,552.0469 2712.2266,552.7969 Q2711.7344,553.5469 2711.7344,554.5781 L2711.7344,555.6719 Q2711.7344,556.9063 2712.625,557.7266 Q2713.5156,558.5469 2715.1094,558.5469 Q2716.0469,558.5469 2716.7031,558.2969 Q2717.0938,558.1406 2717.5156,557.7031 Q2717.7813,557.4375 2717.9297,557.3594 Q2718.0781,557.2813 2718.2813,557.2813 Q2718.6094,557.2813 2718.8672,557.5391 Q2719.125,557.7969 2719.125,558.1406 Q2719.125,558.4844 2718.7813,558.8906 Q2718.2813,559.4688 2717.4844,559.7969 Q2716.4063,560.25 2715.1094,560.25 Q2713.5938,560.25 2712.3906,559.625 Q2711.4063,559.125 2710.7188,558.0547 Q2710.0313,556.9844 2710.0313,555.7031 L2710.0313,554.5469 Q2710.0313,553.2188 2710.6484,552.0703 Q2711.2656,550.9219 2712.3594,550.3047 Q2713.4531,549.6875 2714.6875,549.6875 Q2715.4219,549.6875 2716.0703,549.8516 Q2716.7188,550.0156 2717.2656,550.375 Z "/><text fill="#000000" font-family="sans-serif" font-size="12" lengthAdjust="spacingAndGlyphs" textLength="125" x="2728.5" y="559.4102">ProposedCombination</text><line style="stroke: #A80036; stroke-width: 1.5;" x1="2700.5" x2="2855.5" y1="570.5" y2="570.5"/><line style="stroke: #A80036; stroke-width: 1.5;" x1="2700.5" x2="2855.5" y1="578.5" y2="578.5"/><!--class mastermind.models.Result--><rect fill="#FEFECE" filter="url(#f1y1dc0m25ptrg)" height="48" id="mastermind.models.Result" style="stroke: #A80036; stroke-width: 1.5;" width="68" x="2892" y="538.5"/><ellipse cx="2907" cy="554.5" fill="#ADD1B2" rx="11" ry="11" style="stroke: #A80036; stroke-width: 1.0;"/><path d="M2909.7656,550.375 Q2909.9219,550.1563 2910.1094,550.0469 Q2910.2969,549.9375 2910.5156,549.9375 Q2910.8906,549.9375 2911.125,550.1953 Q2911.3594,550.4531 2911.3594,551.0625 L2911.3594,552.5156 Q2911.3594,553.125 2911.125,553.3906 Q2910.8906,553.6563 2910.5156,553.6563 Q2910.1719,553.6563 2909.9688,553.4531 Q2909.7656,553.2656 2909.6563,552.75 Q2909.6094,552.3906 2909.4219,552.2031 Q2909.0938,551.8281 2908.4844,551.6094 Q2907.875,551.3906 2907.25,551.3906 Q2906.4844,551.3906 2905.8516,551.7188 Q2905.2188,552.0469 2904.7266,552.7969 Q2904.2344,553.5469 2904.2344,554.5781 L2904.2344,555.6719 Q2904.2344,556.9063 2905.125,557.7266 Q2906.0156,558.5469 2907.6094,558.5469 Q2908.5469,558.5469 2909.2031,558.2969 Q2909.5938,558.1406 2910.0156,557.7031 Q2910.2813,557.4375 2910.4297,557.3594 Q2910.5781,557.2813 2910.7813,557.2813 Q2911.1094,557.2813 2911.3672,557.5391 Q2911.625,557.7969 2911.625,558.1406 Q2911.625,558.4844 2911.2813,558.8906 Q2910.7813,559.4688 2909.9844,559.7969 Q2908.9063,560.25 2907.6094,560.25 Q2906.0938,560.25 2904.8906,559.625 Q2903.9063,559.125 2903.2188,558.0547 Q2902.5313,556.9844 2902.5313,555.7031 L2902.5313,554.5469 Q2902.5313,553.2188 2903.1484,552.0703 Q2903.7656,550.9219 2904.8594,550.3047 Q2905.9531,549.6875 2907.1875,549.6875 Q2907.9219,549.6875 2908.5703,549.8516 Q2909.2188,550.0156 2909.7656,550.375 Z "/><text fill="#000000" font-family="sans-serif" font-size="12" lengthAdjust="spacingAndGlyphs" textLength="36" x="2921" y="559.4102">Result</text><line style="stroke: #A80036; stroke-width: 1.5;" x1="2893" x2="2959" y1="570.5" y2="570.5"/><line style="stroke: #A80036; stroke-width: 1.5;" x1="2893" x2="2959" y1="578.5" y2="578.5"/><!--class mastermind.models.SecretCombination--><rect fill="#FEFECE" filter="url(#f1y1dc0m25ptrg)" height="48" id="mastermind.models.SecretCombination" style="stroke: #A80036; stroke-width: 1.5;" width="138" x="2995" y="538.5"/><ellipse cx="3010" cy="554.5" fill="#ADD1B2" rx="11" ry="11" style="stroke: #A80036; stroke-width: 1.0;"/><path d="M3012.7656,550.375 Q3012.9219,550.1563 3013.1094,550.0469 Q3013.2969,549.9375 3013.5156,549.9375 Q3013.8906,549.9375 3014.125,550.1953 Q3014.3594,550.4531 3014.3594,551.0625 L3014.3594,552.5156 Q3014.3594,553.125 3014.125,553.3906 Q3013.8906,553.6563 3013.5156,553.6563 Q3013.1719,553.6563 3012.9688,553.4531 Q3012.7656,553.2656 3012.6563,552.75 Q3012.6094,552.3906 3012.4219,552.2031 Q3012.0938,551.8281 3011.4844,551.6094 Q3010.875,551.3906 3010.25,551.3906 Q3009.4844,551.3906 3008.8516,551.7188 Q3008.2188,552.0469 3007.7266,552.7969 Q3007.2344,553.5469 3007.2344,554.5781 L3007.2344,555.6719 Q3007.2344,556.9063 3008.125,557.7266 Q3009.0156,558.5469 3010.6094,558.5469 Q3011.5469,558.5469 3012.2031,558.2969 Q3012.5938,558.1406 3013.0156,557.7031 Q3013.2813,557.4375 3013.4297,557.3594 Q3013.5781,557.2813 3013.7813,557.2813 Q3014.1094,557.2813 3014.3672,557.5391 Q3014.625,557.7969 3014.625,558.1406 Q3014.625,558.4844 3014.2813,558.8906 Q3013.7813,559.4688 3012.9844,559.7969 Q3011.9063,560.25 3010.6094,560.25 Q3009.0938,560.25 3007.8906,559.625 Q3006.9063,559.125 3006.2188,558.0547 Q3005.5313,556.9844 3005.5313,555.7031 L3005.5313,554.5469 Q3005.5313,553.2188 3006.1484,552.0703 Q3006.7656,550.9219 3007.8594,550.3047 Q3008.9531,549.6875 3010.1875,549.6875 Q3010.9219,549.6875 3011.5703,549.8516 Q3012.2188,550.0156 3012.7656,550.375 Z "/><text fill="#000000" font-family="sans-serif" font-size="12" lengthAdjust="spacingAndGlyphs" textLength="106" x="3024" y="559.4102">SecretCombination</text><line style="stroke: #A80036; stroke-width: 1.5;" x1="2996" x2="3132" y1="570.5" y2="570.5"/><line style="stroke: #A80036; stroke-width: 1.5;" x1="2996" x2="3132" y1="578.5" y2="578.5"/><!--class santaTecla.utils.WithConsoleView--><rect fill="#FEFECE" filter="url(#f1y1dc0m25ptrg)" height="48" id="santaTecla.utils.WithConsoleView" style="stroke: #A80036; stroke-width: 1.5;" width="129" x="38.5" y="94.5"/><ellipse cx="53.5" cy="110.5" fill="#ADD1B2" rx="11" ry="11" style="stroke: #A80036; stroke-width: 1.0;"/><path d="M56.2656,106.375 Q56.4219,106.1563 56.6094,106.0469 Q56.7969,105.9375 57.0156,105.9375 Q57.3906,105.9375 57.625,106.1953 Q57.8594,106.4531 57.8594,107.0625 L57.8594,108.5156 Q57.8594,109.125 57.625,109.3906 Q57.3906,109.6563 57.0156,109.6563 Q56.6719,109.6563 56.4688,109.4531 Q56.2656,109.2656 56.1563,108.75 Q56.1094,108.3906 55.9219,108.2031 Q55.5938,107.8281 54.9844,107.6094 Q54.375,107.3906 53.75,107.3906 Q52.9844,107.3906 52.3516,107.7188 Q51.7188,108.0469 51.2266,108.7969 Q50.7344,109.5469 50.7344,110.5781 L50.7344,111.6719 Q50.7344,112.9063 51.625,113.7266 Q52.5156,114.5469 54.1094,114.5469 Q55.0469,114.5469 55.7031,114.2969 Q56.0938,114.1406 56.5156,113.7031 Q56.7813,113.4375 56.9297,113.3594 Q57.0781,113.2813 57.2813,113.2813 Q57.6094,113.2813 57.8672,113.5391 Q58.125,113.7969 58.125,114.1406 Q58.125,114.4844 57.7813,114.8906 Q57.2813,115.4688 56.4844,115.7969 Q55.4063,116.25 54.1094,116.25 Q52.5938,116.25 51.3906,115.625 Q50.4063,115.125 49.7188,114.0547 Q49.0313,112.9844 49.0313,111.7031 L49.0313,110.5469 Q49.0313,109.2188 49.6484,108.0703 Q50.2656,106.9219 51.3594,106.3047 Q52.4531,105.6875 53.6875,105.6875 Q54.4219,105.6875 55.0703,105.8516 Q55.7188,106.0156 56.2656,106.375 Z "/><text fill="#000000" font-family="sans-serif" font-size="12" lengthAdjust="spacingAndGlyphs" textLength="97" x="67.5" y="115.4102">WithConsoleView</text><line style="stroke: #A80036; stroke-width: 1.5;" x1="39.5" x2="166.5" y1="126.5" y2="126.5"/><line style="stroke: #A80036; stroke-width: 1.5;" x1="39.5" x2="166.5" y1="134.5" y2="134.5"/><!--class santaTecla.utils.Command--><rect fill="#FEFECE" filter="url(#f1y1dc0m25ptrg)" height="48" id="santaTecla.utils.Command" style="stroke: #A80036; stroke-width: 1.5;" width="91" x="316.5" y="94.5"/><ellipse cx="331.5" cy="110.5" fill="#ADD1B2" rx="11" ry="11" style="stroke: #A80036; stroke-width: 1.0;"/><path d="M334.2656,106.375 Q334.4219,106.1563 334.6094,106.0469 Q334.7969,105.9375 335.0156,105.9375 Q335.3906,105.9375 335.625,106.1953 Q335.8594,106.4531 335.8594,107.0625 L335.8594,108.5156 Q335.8594,109.125 335.625,109.3906 Q335.3906,109.6563 335.0156,109.6563 Q334.6719,109.6563 334.4688,109.4531 Q334.2656,109.2656 334.1563,108.75 Q334.1094,108.3906 333.9219,108.2031 Q333.5938,107.8281 332.9844,107.6094 Q332.375,107.3906 331.75,107.3906 Q330.9844,107.3906 330.3516,107.7188 Q329.7188,108.0469 329.2266,108.7969 Q328.7344,109.5469 328.7344,110.5781 L328.7344,111.6719 Q328.7344,112.9063 329.625,113.7266 Q330.5156,114.5469 332.1094,114.5469 Q333.0469,114.5469 333.7031,114.2969 Q334.0938,114.1406 334.5156,113.7031 Q334.7813,113.4375 334.9297,113.3594 Q335.0781,113.2813 335.2813,113.2813 Q335.6094,113.2813 335.8672,113.5391 Q336.125,113.7969 336.125,114.1406 Q336.125,114.4844 335.7813,114.8906 Q335.2813,115.4688 334.4844,115.7969 Q333.4063,116.25 332.1094,116.25 Q330.5938,116.25 329.3906,115.625 Q328.4063,115.125 327.7188,114.0547 Q327.0313,112.9844 327.0313,111.7031 L327.0313,110.5469 Q327.0313,109.2188 327.6484,108.0703 Q328.2656,106.9219 329.3594,106.3047 Q330.4531,105.6875 331.6875,105.6875 Q332.4219,105.6875 333.0703,105.8516 Q333.7188,106.0156 334.2656,106.375 Z "/><text fill="#000000" font-family="sans-serif" font-size="12" lengthAdjust="spacingAndGlyphs" textLength="59" x="345.5" y="115.4102">Command</text><line style="stroke: #A80036; stroke-width: 1.5;" x1="317.5" x2="406.5" y1="126.5" y2="126.5"/><line style="stroke: #A80036; stroke-width: 1.5;" x1="317.5" x2="406.5" y1="134.5" y2="134.5"/><!--class santaTecla.utils.Console--><rect fill="#FEFECE" filter="url(#f1y1dc0m25ptrg)" height="48" id="santaTecla.utils.Console" style="stroke: #A80036; stroke-width: 1.5;" width="79" x="202.5" y="94.5"/><ellipse cx="217.5" cy="110.5" fill="#ADD1B2" rx="11" ry="11" style="stroke: #A80036; stroke-width: 1.0;"/><path d="M220.2656,106.375 Q220.4219,106.1563 220.6094,106.0469 Q220.7969,105.9375 221.0156,105.9375 Q221.3906,105.9375 221.625,106.1953 Q221.8594,106.4531 221.8594,107.0625 L221.8594,108.5156 Q221.8594,109.125 221.625,109.3906 Q221.3906,109.6563 221.0156,109.6563 Q220.6719,109.6563 220.4688,109.4531 Q220.2656,109.2656 220.1563,108.75 Q220.1094,108.3906 219.9219,108.2031 Q219.5938,107.8281 218.9844,107.6094 Q218.375,107.3906 217.75,107.3906 Q216.9844,107.3906 216.3516,107.7188 Q215.7188,108.0469 215.2266,108.7969 Q214.7344,109.5469 214.7344,110.5781 L214.7344,111.6719 Q214.7344,112.9063 215.625,113.7266 Q216.5156,114.5469 218.1094,114.5469 Q219.0469,114.5469 219.7031,114.2969 Q220.0938,114.1406 220.5156,113.7031 Q220.7813,113.4375 220.9297,113.3594 Q221.0781,113.2813 221.2813,113.2813 Q221.6094,113.2813 221.8672,113.5391 Q222.125,113.7969 222.125,114.1406 Q222.125,114.4844 221.7813,114.8906 Q221.2813,115.4688 220.4844,115.7969 Q219.4063,116.25 218.1094,116.25 Q216.5938,116.25 215.3906,115.625 Q214.4063,115.125 213.7188,114.0547 Q213.0313,112.9844 213.0313,111.7031 L213.0313,110.5469 Q213.0313,109.2188 213.6484,108.0703 Q214.2656,106.9219 215.3594,106.3047 Q216.4531,105.6875 217.6875,105.6875 Q218.4219,105.6875 219.0703,105.8516 Q219.7188,106.0156 220.2656,106.375 Z "/><text fill="#000000" font-family="sans-serif" font-size="12" lengthAdjust="spacingAndGlyphs" textLength="47" x="231.5" y="115.4102">Console</text><line style="stroke: #A80036; stroke-width: 1.5;" x1="203.5" x2="280.5" y1="126.5" y2="126.5"/><line style="stroke: #A80036; stroke-width: 1.5;" x1="203.5" x2="280.5" y1="134.5" y2="134.5"/><!--class mastermind.types.Color--><rect fill="#FEFECE" filter="url(#f1y1dc0m25ptrg)" height="48" id="mastermind.types.Color" style="stroke: #A80036; stroke-width: 1.5;" width="62" x="1217" y="1006"/><ellipse cx="1232" cy="1022" fill="#ADD1B2" rx="11" ry="11" style="stroke: #A80036; stroke-width: 1.0;"/><path d="M1234.7656,1017.875 Q1234.9219,1017.6563 1235.1094,1017.5469 Q1235.2969,1017.4375 1235.5156,1017.4375 Q1235.8906,1017.4375 1236.125,1017.6953 Q1236.3594,1017.9531 1236.3594,1018.5625 L1236.3594,1020.0156 Q1236.3594,1020.625 1236.125,1020.8906 Q1235.8906,1021.1563 1235.5156,1021.1563 Q1235.1719,1021.1563 1234.9688,1020.9531 Q1234.7656,1020.7656 1234.6563,1020.25 Q1234.6094,1019.8906 1234.4219,1019.7031 Q1234.0938,1019.3281 1233.4844,1019.1094 Q1232.875,1018.8906 1232.25,1018.8906 Q1231.4844,1018.8906 1230.8516,1019.2188 Q1230.2188,1019.5469 1229.7266,1020.2969 Q1229.2344,1021.0469 1229.2344,1022.0781 L1229.2344,1023.1719 Q1229.2344,1024.4063 1230.125,1025.2266 Q1231.0156,1026.0469 1232.6094,1026.0469 Q1233.5469,1026.0469 1234.2031,1025.7969 Q1234.5938,1025.6406 1235.0156,1025.2031 Q1235.2813,1024.9375 1235.4297,1024.8594 Q1235.5781,1024.7813 1235.7813,1024.7813 Q1236.1094,1024.7813 1236.3672,1025.0391 Q1236.625,1025.2969 1236.625,1025.6406 Q1236.625,1025.9844 1236.2813,1026.3906 Q1235.7813,1026.9688 1234.9844,1027.2969 Q1233.9063,1027.75 1232.6094,1027.75 Q1231.0938,1027.75 1229.8906,1027.125 Q1228.9063,1026.625 1228.2188,1025.5547 Q1227.5313,1024.4844 1227.5313,1023.2031 L1227.5313,1022.0469 Q1227.5313,1020.7188 1228.1484,1019.5703 Q1228.7656,1018.4219 1229.8594,1017.8047 Q1230.9531,1017.1875 1232.1875,1017.1875 Q1232.9219,1017.1875 1233.5703,1017.3516 Q1234.2188,1017.5156 1234.7656,1017.875 Z "/><text fill="#000000" font-family="sans-serif" font-size="12" lengthAdjust="spacingAndGlyphs" textLength="30" x="1246" y="1026.9102">Color</text><line style="stroke: #A80036; stroke-width: 1.5;" x1="1218" x2="1278" y1="1038" y2="1038"/><line style="stroke: #A80036; stroke-width: 1.5;" x1="1218" x2="1278" y1="1046" y2="1046"/><!--class mastermind.types.Error--><rect fill="#FEFECE" filter="url(#f1y1dc0m25ptrg)" height="48" id="mastermind.types.Error" style="stroke: #A80036; stroke-width: 1.5;" width="59" x="1314.5" y="1006"/><ellipse cx="1329.5" cy="1022" fill="#ADD1B2" rx="11" ry="11" style="stroke: #A80036; stroke-width: 1.0;"/><path d="M1332.2656,1017.875 Q1332.4219,1017.6563 1332.6094,1017.5469 Q1332.7969,1017.4375 1333.0156,1017.4375 Q1333.3906,1017.4375 1333.625,1017.6953 Q1333.8594,1017.9531 1333.8594,1018.5625 L1333.8594,1020.0156 Q1333.8594,1020.625 1333.625,1020.8906 Q1333.3906,1021.1563 1333.0156,1021.1563 Q1332.6719,1021.1563 1332.4688,1020.9531 Q1332.2656,1020.7656 1332.1563,1020.25 Q1332.1094,1019.8906 1331.9219,1019.7031 Q1331.5938,1019.3281 1330.9844,1019.1094 Q1330.375,1018.8906 1329.75,1018.8906 Q1328.9844,1018.8906 1328.3516,1019.2188 Q1327.7188,1019.5469 1327.2266,1020.2969 Q1326.7344,1021.0469 1326.7344,1022.0781 L1326.7344,1023.1719 Q1326.7344,1024.4063 1327.625,1025.2266 Q1328.5156,1026.0469 1330.1094,1026.0469 Q1331.0469,1026.0469 1331.7031,1025.7969 Q1332.0938,1025.6406 1332.5156,1025.2031 Q1332.7813,1024.9375 1332.9297,1024.8594 Q1333.0781,1024.7813 1333.2813,1024.7813 Q1333.6094,1024.7813 1333.8672,1025.0391 Q1334.125,1025.2969 1334.125,1025.6406 Q1334.125,1025.9844 1333.7813,1026.3906 Q1333.2813,1026.9688 1332.4844,1027.2969 Q1331.4063,1027.75 1330.1094,1027.75 Q1328.5938,1027.75 1327.3906,1027.125 Q1326.4063,1026.625 1325.7188,1025.5547 Q1325.0313,1024.4844 1325.0313,1023.2031 L1325.0313,1022.0469 Q1325.0313,1020.7188 1325.6484,1019.5703 Q1326.2656,1018.4219 1327.3594,1017.8047 Q1328.4531,1017.1875 1329.6875,1017.1875 Q1330.4219,1017.1875 1331.0703,1017.3516 Q1331.7188,1017.5156 1332.2656,1017.875 Z "/><text fill="#000000" font-family="sans-serif" font-size="12" lengthAdjust="spacingAndGlyphs" textLength="27" x="1343.5" y="1026.9102">Error</text><line style="stroke: #A80036; stroke-width: 1.5;" x1="1315.5" x2="1372.5" y1="1038" y2="1038"/><line style="stroke: #A80036; stroke-width: 1.5;" x1="1315.5" x2="1372.5" y1="1046" y2="1046"/><!--class santaTecla.YesNoDialog--><rect fill="#FEFECE" filter="url(#f1y1dc0m25ptrg)" height="48" id="santaTecla.YesNoDialog" style="stroke: #A80036; stroke-width: 1.5;" width="105" x="2537.5" y="538.5"/><ellipse cx="2552.5" cy="554.5" fill="#ADD1B2" rx="11" ry="11" style="stroke: #A80036; stroke-width: 1.0;"/><path d="M2555.2656,550.375 Q2555.4219,550.1563 2555.6094,550.0469 Q2555.7969,549.9375 2556.0156,549.9375 Q2556.3906,549.9375 2556.625,550.1953 Q2556.8594,550.4531 2556.8594,551.0625 L2556.8594,552.5156 Q2556.8594,553.125 2556.625,553.3906 Q2556.3906,553.6563 2556.0156,553.6563 Q2555.6719,553.6563 2555.4688,553.4531 Q2555.2656,553.2656 2555.1563,552.75 Q2555.1094,552.3906 2554.9219,552.2031 Q2554.5938,551.8281 2553.9844,551.6094 Q2553.375,551.3906 2552.75,551.3906 Q2551.9844,551.3906 2551.3516,551.7188 Q2550.7188,552.0469 2550.2266,552.7969 Q2549.7344,553.5469 2549.7344,554.5781 L2549.7344,555.6719 Q2549.7344,556.9063 2550.625,557.7266 Q2551.5156,558.5469 2553.1094,558.5469 Q2554.0469,558.5469 2554.7031,558.2969 Q2555.0938,558.1406 2555.5156,557.7031 Q2555.7813,557.4375 2555.9297,557.3594 Q2556.0781,557.2813 2556.2813,557.2813 Q2556.6094,557.2813 2556.8672,557.5391 Q2557.125,557.7969 2557.125,558.1406 Q2557.125,558.4844 2556.7813,558.8906 Q2556.2813,559.4688 2555.4844,559.7969 Q2554.4063,560.25 2553.1094,560.25 Q2551.5938,560.25 2550.3906,559.625 Q2549.4063,559.125 2548.7188,558.0547 Q2548.0313,556.9844 2548.0313,555.7031 L2548.0313,554.5469 Q2548.0313,553.2188 2548.6484,552.0703 Q2549.2656,550.9219 2550.3594,550.3047 Q2551.4531,549.6875 2552.6875,549.6875 Q2553.4219,549.6875 2554.0703,549.8516 Q2554.7188,550.0156 2555.2656,550.375 Z "/><text fill="#000000" font-family="sans-serif" font-size="12" lengthAdjust="spacingAndGlyphs" textLength="73" x="2566.5" y="559.4102">YesNoDialog</text><line style="stroke: #A80036; stroke-width: 1.5;" x1="2538.5" x2="2641.5" y1="570.5" y2="570.5"/><line style="stroke: #A80036; stroke-width: 1.5;" x1="2538.5" x2="2641.5" y1="578.5" y2="578.5"/><!--link mastermind.views.AttemptsView to mastermind.models.Game--><path d="M2124.07,337.941 C2126.38,338.682 2128.7,339.371 2131,340 C2252.62,373.195 3164.54,322.535 3264,400 C3301.86,429.491 3311.76,487.197 3313.96,525.043 " fill="none" id="mastermind.views.AttemptsView-mastermind.models.Game" style="stroke: #A80036; stroke-width: 1.0;"/><polygon fill="#A80036" points="3314.47,538.236,3318.1211,529.0889,3314.2778,533.2397,3310.1271,529.3964,3314.47,538.236" style="stroke: #A80036; stroke-width: 1.0;"/><line style="stroke: #A80036; stroke-width: 1.0;" x1="3314.2778" x2="3313.97" y1="533.2397" y2="525.246"/><polygon fill="#A80036" points="2111.72,333.514,2116.0187,339.3038,2123.0164,337.5626,2118.7177,331.7728,2111.72,333.514" style="stroke: #A80036; stroke-width: 1.0;"/><!--link mastermind.views.AttemptsView to mastermind.views.MessageView--><path d="M1953.81,332.358 C1947.85,335.073 1941.86,337.654 1936,340 C1707.41,431.459 1426.45,503.929 1280.18,538.814 " fill="none" id="mastermind.views.AttemptsView-mastermind.views.MessageView" style="stroke: #A80036; stroke-width: 1.0; stroke-dasharray: 7.0,7.0;"/><polygon fill="#A80036" points="1275.03,540.039,1284.7114,541.8476,1279.8943,538.8819,1282.86,534.0647,1275.03,540.039" style="stroke: #A80036; stroke-width: 1.0;"/><!--link santaTecla.utils.WithConsoleView to mastermind.views.ColorView--><path d="M117.742,161.587 C136.076,209.268 171.157,287.19 221,340 C444.884,577.215 800.958,746.681 969.969,818.401 " fill="none" id="santaTecla.utils.WithConsoleView-mastermind.views.ColorView" style="stroke: #A80036; stroke-width: 1.0;"/><polygon fill="none" points="111.086,163.772,110.709,142.586,124.216,158.913,111.086,163.772" style="stroke: #A80036; stroke-width: 1.0;"/><!--link mastermind.views.ColorView to mastermind.types.Color--><path d="M1151.43,939.031 C1173.36,959.457 1195.67,980.247 1213.32,996.6879 " fill="none" id="mastermind.views.ColorView-mastermind.types.Color" style="stroke: #A80036; stroke-width: 1.0;"/><polygon fill="#A80036" points="1223.13,1005.8303,1219.2694,996.7696,1219.4708,1002.4229,1213.8176,1002.6243,1223.13,1005.8303" style="stroke: #A80036; stroke-width: 1.0;"/><line style="stroke: #A80036; stroke-width: 1.0;" x1="1219.4708" x2="1213.62" y1="1002.4229" y2="996.9685"/><polygon fill="#A80036" points="1141.81,930.066,1143.4694,937.0836,1150.5854,938.2509,1148.926,931.2333,1141.81,930.066" style="stroke: #A80036; stroke-width: 1.0;"/><!--link santaTecla.utils.Command to mastermind.views.Command--><path d="M427.921,118.5 C508.833,118.5 589.746,118.5 670.658,118.5 " fill="none" id="santaTecla.utils.Command-mastermind.views.Command" style="stroke: #A80036; stroke-width: 1.0;"/><polygon fill="none" points="427.906,125.5,407.906,118.5,427.906,111.5,427.906,125.5" style="stroke: #A80036; stroke-width: 1.0;"/><!--link mastermind.views.Command to mastermind.models.Session--><path d="M898.439,126.339 C1263.37,147.254 2341.49,210.544 2498,237 C2669.27,265.951 2706.3,298.648 2875,340 C2996.92,369.886 3057.08,316.705 3151,400 C3187.03,431.953 3199.88,488.286 3204.46,525.254 " fill="none" id="mastermind.views.Command-mastermind.models.Session" style="stroke: #A80036; stroke-width: 1.0;"/><polygon fill="#A80036" points="3205.85,538.383,3208.8855,529.0136,3205.3264,533.4105,3200.9295,529.8514,3205.85,538.383" style="stroke: #A80036; stroke-width: 1.0;"/><line style="stroke: #A80036; stroke-width: 1.0;" x1="3205.3264" x2="3204.485" y1="533.4105" y2="525.4545"/><polygon fill="#A80036" points="885.24,125.583,891.0016,129.9193,897.2204,126.2687,891.4588,121.9324,885.24,125.583" style="stroke: #A80036; stroke-width: 1.0;"/><!--link santaTecla.utils.WithConsoleView to mastermind.views.ErrorView--><path d="M138.831,157.214 C186.347,205.363 274.663,288.575 364,340 C550.732,447.488 798.623,516.776 916.365,545.841 " fill="none" id="santaTecla.utils.WithConsoleView-mastermind.views.ErrorView" style="stroke: #A80036; stroke-width: 1.0;"/><polygon fill="none" points="133.551,161.825,124.613,142.612,143.581,152.058,133.551,161.825" style="stroke: #A80036; stroke-width: 1.0;"/><!--link mastermind.views.ErrorView to mastermind.types.Error--><path d="M1006.84,626.214 C1020.98,658.603 1041.7,697.075 1069,725 C1107.39,764.264 1136.41,748.022 1177,785 C1245.54,847.435 1300.49,943.221 1326.91,994.2234 " fill="none" id="mastermind.views.ErrorView-mastermind.types.Error" style="stroke: #A80036; stroke-width: 1.0;"/><polygon fill="#A80036" points="1332.86,1005.882,1332.3312,996.0473,1330.5869,1001.4286,1325.2057,999.6843,1332.86,1005.882" style="stroke: #A80036; stroke-width: 1.0;"/><line style="stroke: #A80036; stroke-width: 1.0;" x1="1330.5869" x2="1326.95" y1="1001.4286" y2="994.3011"/><polygon fill="#A80036" points="1001.742,614.132,1000.3899,621.2152,1006.4082,625.1876,1007.7603,618.1044,1001.742,614.132" style="stroke: #A80036; stroke-width: 1.0;"/><!--link mastermind.views.ErrorView to mastermind.views.ColorView--><path d="M998.017,614.202 C1010.63,659.82 1029.34,727.506 1043.78,779.753 " fill="none" id="mastermind.views.ErrorView-mastermind.views.ColorView" style="stroke: #A80036; stroke-width: 1.0; stroke-dasharray: 7.0,7.0;"/><polygon fill="#A80036" points="1045.17,784.759,1046.6263,775.0184,1043.8372,779.9399,1038.9157,777.1508,1045.17,784.759" style="stroke: #A80036; stroke-width: 1.0;"/><!--link mastermind.views.GameView to mastermind.models.Game--><path d="M2024.69,139.068 C2081.75,151.49 2158.54,167.044 2227,177 C2514.97,218.879 2597.76,162.274 2879,237 C2985.68,265.345 3003.08,297.601 3105,340 C3174.74,369.011 3212.23,344.998 3264,400 C3296.23,434.247 3307.7,488.891 3311.78,524.983 " fill="none" id="mastermind.views.GameView-mastermind.models.Game" style="stroke: #A80036; stroke-width: 1.0;"/><polygon fill="#A80036" points="3313.04,538.285,3316.1726,528.9476,3312.5681,533.3073,3308.2084,529.7027,3313.04,538.285" style="stroke: #A80036; stroke-width: 1.0;"/><line style="stroke: #A80036; stroke-width: 1.0;" x1="3312.5681" x2="3311.81" y1="533.3073" y2="525.3425"/><polygon fill="#A80036" points="2011.72,136.226,2016.7235,141.4188,2023.4413,138.7973,2018.4377,133.6046,2011.72,136.226" style="stroke: #A80036; stroke-width: 1.0;"/><!--link mastermind.views.GameView to mastermind.views.MessageView--><path d="M1866.4,119.178 C1692.76,120.11 1261.23,133.06 1172,237 C1135.21,279.859 1128.6,338.897 1134.19,394.876 " fill="none" id="mastermind.views.GameView-mastermind.views.MessageView" style="stroke: #A80036; stroke-width: 1.0; stroke-dasharray: 7.0,7.0;"/><polygon fill="#A80036" points="1134.73,399.936,1137.756,390.5635,1134.2014,394.964,1129.8009,391.4093,1134.73,399.936" style="stroke: #A80036; stroke-width: 1.0;"/><!--link mastermind.views.GameView to mastermind.views.AttemptsView--><path d="M1971.69,177.316 C1982.97,197.266 1995.49,219.405 2006.33,238.574 " fill="none" id="mastermind.views.GameView-mastermind.views.AttemptsView" style="stroke: #A80036; stroke-width: 1.0; stroke-dasharray: 7.0,7.0;"/><polygon fill="#A80036" points="2009.05,243.381,2008.0922,233.5788,2006.5846,239.0311,2001.1323,237.5235,2009.05,243.381" style="stroke: #A80036; stroke-width: 1.0;"/><!--link mastermind.views.GameView to mastermind.views.SecretCombinationView--><path d="M2011.94,152.091 C2068.66,177.433 2148.08,212.918 2211.39,241.205 " fill="none" id="mastermind.views.GameView-mastermind.views.SecretCombinationView" style="stroke: #A80036; stroke-width: 1.0; stroke-dasharray: 7.0,7.0;"/><polygon fill="#A80036" points="2216.3,243.401,2209.7185,236.0741,2211.736,241.3589,2206.4512,243.3764,2216.3,243.401" style="stroke: #A80036; stroke-width: 1.0;"/><!--link mastermind.views.GameView to mastermind.views.ProposedCombinationView--><path d="M1866.43,142.332 C1790.85,166.109 1669.88,204.167 1570.76,235.351 " fill="none" id="mastermind.views.GameView-mastermind.views.ProposedCombinationView" style="stroke: #A80036; stroke-width: 1.0; stroke-dasharray: 7.0,7.0;"/><polygon fill="#A80036" points="1565.76,236.924,1575.5454,238.0399,1570.5297,235.4241,1573.1456,230.4084,1565.76,236.924" style="stroke: #A80036; stroke-width: 1.0;"/><!--link mastermind.views.GameView to mastermind.views.ResultView--><path d="M1906.31,177.316 C1895.03,197.266 1882.51,219.405 1871.67,238.574 " fill="none" id="mastermind.views.GameView-mastermind.views.ResultView" style="stroke: #A80036; stroke-width: 1.0; stroke-dasharray: 7.0,7.0;"/><polygon fill="#A80036" points="1868.95,243.381,1876.8677,237.5235,1871.4154,239.0311,1869.9078,233.5788,1868.95,243.381" style="stroke: #A80036; stroke-width: 1.0;"/><!--link mastermind.views.MessageView to santaTecla.utils.Console--><path d="M1076.12,404.466 C1073.79,402.906 1071.41,401.416 1069,400 C829.025,259.321 695.239,463.525 446,340 C402.083,318.234 312.677,209.554 268.259,153.328 " fill="none" id="mastermind.views.MessageView-santaTecla.utils.Console" style="stroke: #A80036; stroke-width: 1.0;"/><polygon fill="#A80036" points="260.002,142.824,262.4188,152.3717,263.0918,146.7551,268.7085,147.4281,260.002,142.824" style="stroke: #A80036; stroke-width: 1.0;"/><line style="stroke: #A80036; stroke-width: 1.0;" x1="263.0918" x2="268.036" y1="146.7551" y2="153.0445"/><polygon fill="#A80036" points="1086.76,412.243,1084.2768,405.4729,1077.0724,405.1613,1079.5556,411.9313,1086.76,412.243" style="stroke: #A80036; stroke-width: 1.0;"/><!--link mastermind.views.Command to mastermind.views.ProposeCommand--><path d="M854.688,175.76 C888.235,200.371 926.661,228.561 956.524,250.469 " fill="none" id="mastermind.views.Command-mastermind.views.ProposeCommand" style="stroke: #A80036; stroke-width: 1.0;"/><polygon fill="none" points="850.152,181.114,838.167,163.64,858.434,169.826,850.152,181.114" style="stroke: #A80036; stroke-width: 1.0;"/><!--link mastermind.views.ProposeCommand to mastermind.views.MessageView--><path d="M1030.83,326.75 C1045.07,349.008 1064.2,378.921 1084.04,409.929 " fill="none" id="mastermind.views.ProposeCommand-mastermind.views.MessageView" style="stroke: #A80036; stroke-width: 1.0; stroke-dasharray: 7.0,7.0;"/><polygon fill="#A80036" points="1086.97,414.511,1085.4923,404.7736,1084.2768,410.2983,1078.752,409.0828,1086.97,414.511" style="stroke: #A80036; stroke-width: 1.0;"/><!--link santaTecla.utils.WithConsoleView to mastermind.views.ProposedCombinationView--><path d="M144.365,155.04 C156.685,163.743 170.727,171.989 185,177 C382.496,246.338 917.219,211.716 1125,237 C1154.91,240.64 1186.46,245.412 1217.18,250.571 " fill="none" id="santaTecla.utils.WithConsoleView-mastermind.views.ProposedCombinationView" style="stroke: #A80036; stroke-width: 1.0;"/><polygon fill="none" points="139.888,160.428,128.251,142.721,148.391,149.306,139.888,160.428" style="stroke: #A80036; stroke-width: 1.0;"/><!--link mastermind.views.ProposedCombinationView to mastermind.models.ProposedCombination--><path d="M1605.71,339.34 C1607.14,339.565 1608.57,339.785 1610,340 C1840.89,374.739 2453.7,288.786 2659,400 C2710.01,427.632 2745.02,487.68 2763.26,526.261 " fill="none" id="mastermind.views.ProposedCombinationView-mastermind.models.ProposedCombination" style="stroke: #A80036; stroke-width: 1.0;"/><polygon fill="#A80036" points="2768.69,538.205,2768.6064,528.3565,2766.6206,533.6533,2761.3238,531.6675,2768.69,538.205" style="stroke: #A80036; stroke-width: 1.0;"/><line style="stroke: #A80036; stroke-width: 1.0;" x1="2766.6206" x2="2763.305" y1="533.6533" y2="526.3725"/><polygon fill="#A80036" points="1592.68,337.181,1597.9441,342.1095,1604.518,339.1459,1599.254,334.2174,1592.68,337.181" style="stroke: #A80036; stroke-width: 1.0;"/><!--link mastermind.views.ProposedCombinationView to mastermind.types.Color--><path d="M1396.84,340.011 C1383.45,421.392 1355.24,586.431 1325,725 C1302.68,827.287 1270.44,947.436 1255.78,1000.8974 " fill="none" id="mastermind.views.ProposedCombinationView-mastermind.types.Color" style="stroke: #A80036; stroke-width: 1.0; stroke-dasharray: 7.0,7.0;"/><polygon fill="#A80036" points="1254.42,1005.8601,1260.6635,998.2431,1255.746,1001.0391,1252.95,996.1216,1254.42,1005.8601" style="stroke: #A80036; stroke-width: 1.0;"/><!--link mastermind.views.ProposedCombinationView to mastermind.views.ColorView--><path d="M1368.98,340.234 C1357.71,358.332 1346.32,379.362 1339,400 C1290.19,537.543 1373.77,604.108 1292,725 C1261.72,769.771 1210.73,801.292 1164.74,822.227 " fill="none" id="mastermind.views.ProposedCombinationView-mastermind.views.ColorView" style="stroke: #A80036; stroke-width: 1.0; stroke-dasharray: 7.0,7.0;"/><polygon fill="#A80036" points="1160.02,824.346,1169.8688,824.318,1164.5833,822.3023,1166.5989,817.0168,1160.02,824.346" style="stroke: #A80036; stroke-width: 1.0;"/><!--link mastermind.views.ProposedCombinationView to mastermind.types.Error--><path d="M1412.89,340.085 C1428.6,453.089 1456.92,733.437 1391,954 C1385.86,971.212 1375.61,988.3443 1365.99,1001.8805 " fill="none" id="mastermind.views.ProposedCombinationView-mastermind.types.Error" style="stroke: #A80036; stroke-width: 1.0; stroke-dasharray: 7.0,7.0;"/><polygon fill="#A80036" points="1363.03,1005.962,1371.5535,1001.0274,1365.9668,1001.9153,1365.0788,996.3286,1363.03,1005.962" style="stroke: #A80036; stroke-width: 1.0;"/><!--link mastermind.views.ProposedCombinationView to mastermind.views.ErrorView--><path d="M1217.18,323.749 C1164.95,340.193 1111.08,364.41 1069,400 C1036.37,427.595 1014.53,470.938 1001.168,505.777 " fill="none" id="mastermind.views.ProposedCombinationView-mastermind.views.ErrorView" style="stroke: #A80036; stroke-width: 1.0; stroke-dasharray: 7.0,7.0;"/><polygon fill="#A80036" points="999.257,510.853,1006.1709,503.8388,1001.0183,506.1735,998.6836,501.0208,999.257,510.853" style="stroke: #A80036; stroke-width: 1.0;"/><!--link mastermind.views.ProposedCombinationView to mastermind.views.MessageView--><path d="M1355.62,340.181 C1338.23,358.624 1318.83,379.885 1302,400 C1294.16,409.37 1286.21,419.185 1278.33,429.148 " fill="none" id="mastermind.views.ProposedCombinationView-mastermind.views.MessageView" style="stroke: #A80036; stroke-width: 1.0; stroke-dasharray: 7.0,7.0;"/><polygon fill="#A80036" points="1275.19,433.123,1283.9032,428.5317,1278.2855,429.1965,1277.6207,423.5788,1275.19,433.123" style="stroke: #A80036; stroke-width: 1.0;"/><!--link mastermind.views.Command to mastermind.views.RedoCommand--><path d="M703.991,175.76 C671.616,200.371 634.533,228.561 605.713,250.469 " fill="none" id="mastermind.views.Command-mastermind.views.RedoCommand" style="stroke: #A80036; stroke-width: 1.0;"/><polygon fill="none" points="699.777,170.171,719.935,163.64,708.249,181.316,699.777,170.171" style="stroke: #A80036; stroke-width: 1.0;"/><!--link mastermind.views.RedoCommand to mastermind.views.MessageView--><path d="M630.154,326.527 C642.246,331.641 654.815,336.373 667,340 C840.14,391.53 915.593,304.61 1069,400 C1073.77,402.966 1078.39,406.218 1082.86,409.707 " fill="none" id="mastermind.views.RedoCommand-mastermind.views.MessageView" style="stroke: #A80036; stroke-width: 1.0; stroke-dasharray: 7.0,7.0;"/><polygon fill="#A80036" points="1086.92,412.977,1082.4089,404.222,1083.0221,409.8455,1077.3986,410.4587,1086.92,412.977" style="stroke: #A80036; stroke-width: 1.0;"/><!--link mastermind.views.ResultView to mastermind.models.Result--><path d="M1930.05,338.134 C1932.03,338.8 1934.02,339.424 1936,340 C2036.28,369.157 2791.6,335.838 2874,400 C2912,429.591 2922.67,487.269 2925.42,525.082 " fill="none" id="mastermind.views.ResultView-mastermind.models.Result" style="stroke: #A80036; stroke-width: 1.0;"/><polygon fill="#A80036" points="2926.12,538.263,2929.6378,529.0638,2925.8552,533.27,2921.6491,529.4874,2926.12,538.263" style="stroke: #A80036; stroke-width: 1.0;"/><line style="stroke: #A80036; stroke-width: 1.0;" x1="2925.8552" x2="2925.435" y1="533.27" y2="525.281"/><polygon fill="#A80036" points="1917.88,333.554,1922.0838,339.413,1929.1089,337.7861,1924.9052,331.9271,1917.88,333.554" style="stroke: #A80036; stroke-width: 1.0;"/><!--link mastermind.views.ResultView to mastermind.views.MessageView--><path d="M1768.78,331.38 C1762.81,334.387 1756.83,337.296 1751,340 C1589.37,414.92 1394.74,486.789 1279.8,527.419 " fill="none" id="mastermind.views.ResultView-mastermind.views.MessageView" style="stroke: #A80036; stroke-width: 1.0; stroke-dasharray: 7.0,7.0;"/><polygon fill="#A80036" points="1275.07,529.09,1284.8893,529.8526,1279.7826,527.4192,1282.216,522.3125,1275.07,529.09" style="stroke: #A80036; stroke-width: 1.0;"/><!--link mastermind.views.ResumeView to santaTecla.YesNoDialog--><path d="M1714.8,319.524 C1725.66,327.548 1738.2,335.291 1751,340 C1907.08,397.436 2356.47,311.053 2497,400 C2545.27,430.554 2571.2,495.791 2582.64,533.331 " fill="none" id="mastermind.views.ResumeView-santaTecla.YesNoDialog" style="stroke: #A80036; stroke-width: 1.0; stroke-dasharray: 7.0,7.0;"/><polygon fill="#A80036" points="2584.09,538.214,2585.3512,528.4462,2582.6611,533.4225,2577.6849,530.7324,2584.09,538.214" style="stroke: #A80036; stroke-width: 1.0;"/><!--link mastermind.views.ResumeView to mastermind.views.MessageView--><path d="M1640.74,319.621 C1630.87,326.59 1620.2,333.78 1610,340 C1500.31,406.864 1368.2,473.055 1279.83,515.415 " fill="none" id="mastermind.views.ResumeView-mastermind.views.MessageView" style="stroke: #A80036; stroke-width: 1.0; stroke-dasharray: 7.0,7.0;"/><polygon fill="#A80036" points="1275.13,517.666,1284.9743,517.3658,1279.635,515.497,1281.5038,510.1577,1275.13,517.666" style="stroke: #A80036; stroke-width: 1.0;"/><!--link mastermind.views.SecretCombinationView to mastermind.models.SecretCombination--><path d="M2494.1,301.585 C2663.39,316.117 2902.39,345.646 2978,400 C3020.27,430.387 3043.66,488.049 3055.03,525.615 " fill="none" id="mastermind.views.SecretCombinationView-mastermind.models.SecretCombination" style="stroke: #A80036; stroke-width: 1.0;"/><polygon fill="#A80036" points="3058.68,538.458,3060.0629,528.7067,3057.311,533.6491,3052.3686,530.8972,3058.68,538.458" style="stroke: #A80036; stroke-width: 1.0;"/><line style="stroke: #A80036; stroke-width: 1.0;" x1="3057.311" x2="3055.125" y1="533.6491" y2="525.9545"/><polygon fill="#A80036" points="2481.01,300.479,2486.65,304.9724,2492.967,301.4944,2487.327,297.0011,2481.01,300.479" style="stroke: #A80036; stroke-width: 1.0;"/><!--link mastermind.views.SecretCombinationView to mastermind.views.MessageView--><path d="M2156.03,333.545 C2147.57,335.758 2139.19,337.923 2131,340 C1821.75,418.459 1453.18,501.396 1280.07,539.73 " fill="none" id="mastermind.views.SecretCombinationView-mastermind.views.MessageView" style="stroke: #A80036; stroke-width: 1.0; stroke-dasharray: 7.0,7.0;"/><polygon fill="#A80036" points="1275.01,540.852,1284.6638,542.8026,1279.8907,539.7664,1282.9269,534.9934,1275.01,540.852" style="stroke: #A80036; stroke-width: 1.0;"/><!--link mastermind.views.StartView to mastermind.models.Game--><path d="M2398.45,124.968 C2576.25,137.716 2986.21,173.272 3109,237 C3197.73,283.052 3213.44,313.758 3264,400 C3287.29,439.725 3300.81,491.413 3307.79,525.483 " fill="none" id="mastermind.views.StartView-mastermind.models.Game" style="stroke: #A80036; stroke-width: 1.0;"/><polygon fill="#A80036" points="3310.31,538.485,3312.5232,528.888,3309.358,533.5765,3304.6695,530.4113,3310.31,538.485" style="stroke: #A80036; stroke-width: 1.0;"/><line style="stroke: #A80036; stroke-width: 1.0;" x1="3309.358" x2="3307.835" y1="533.5765" y2="525.723"/><polygon fill="#A80036" points="2385.29,124.035,2390.9938,128.447,2397.2603,124.8789,2391.5564,120.4669,2385.29,124.035" style="stroke: #A80036; stroke-width: 1.0;"/><!--link mastermind.views.StartView to mastermind.views.MessageView--><path d="M2244.9,136.167 C2187.26,149.249 2103.27,166.887 2029,177 C1937.49,189.46 1264.85,171.249 1200,237 C1177.36,259.956 1171.14,327.076 1171.2,394.358 " fill="none" id="mastermind.views.StartView-mastermind.views.MessageView" style="stroke: #A80036; stroke-width: 1.0; stroke-dasharray: 7.0,7.0;"/><polygon fill="#A80036" points="1171.22,399.616,1175.1891,390.6023,1171.2029,394.616,1167.1892,390.6298,1171.22,399.616" style="stroke: #A80036; stroke-width: 1.0;"/><!--link mastermind.views.StartView to mastermind.views.SecretCombinationView--><path d="M2315,163.64 C2315,186.507 2315,214.504 2315,238.091 " fill="none" id="mastermind.views.StartView-mastermind.views.SecretCombinationView" style="stroke: #A80036; stroke-width: 1.0; stroke-dasharray: 7.0,7.0;"/><polygon fill="#A80036" points="2315,243.363,2319,234.363,2315,238.363,2311,234.363,2315,243.363" style="stroke: #A80036; stroke-width: 1.0;"/><!--link mastermind.views.Command to mastermind.views.UndoCommand--><path d="M778,183.967 C778,206.474 778,230.962 778,250.469 " fill="none" id="mastermind.views.Command-mastermind.views.UndoCommand" style="stroke: #A80036; stroke-width: 1.0;"/><polygon fill="none" points="771,183.64,778,163.64,785,183.64,771,183.64" style="stroke: #A80036; stroke-width: 1.0;"/><!--link mastermind.views.UndoCommand to mastermind.views.MessageView--><path d="M856.694,326.53 C867.474,331.242 878.458,335.858 889,340 C967.487,370.836 1001.518,349.431 1069,400 C1073.8,403.597 1078.47,407.461 1083,411.539 " fill="none" id="mastermind.views.UndoCommand-mastermind.views.MessageView" style="stroke: #A80036; stroke-width: 1.0; stroke-dasharray: 7.0,7.0;"/><polygon fill="#A80036" points="1086.78,415.014,1082.865,405.9767,1083.1004,411.6287,1077.4484,411.8641,1086.78,415.014" style="stroke: #A80036; stroke-width: 1.0;"/><!--
@startuml
class mastermind.views.AttemptsView {
	-Game game
	~AttemptsView(Game game)
	~void writeln()
}
mastermind.views.AttemptsView *-down-> mastermind.models.Game
mastermind.views.AttemptsView ..> mastermind.views.MessageView

class mastermind.views.ColorView {
	~{static}char[] INITIALS
	#Color color
	~ColorView(Color color)
	~{static}String allInitials()
	~char getInitial()
	~{static}Color getInstance(char character)
	~void write()
}
santaTecla.utils.WithConsoleView <|-down- mastermind.views.ColorView
mastermind.views.ColorView *-down-> mastermind.types.Color

abstract class mastermind.views.Command {
	#Session session
	#Command(String title, Session session)
	+{abstract}void updateIsActive()
}
santaTecla.utils.Command <|-down- mastermind.views.Command
mastermind.views.Command *-down-> mastermind.models.Session

class mastermind.views.ErrorView {
	~{static}String[] MESSAGES
	-Error error
	~ErrorView(Error error)
	~void writeln()
}
santaTecla.utils.WithConsoleView <|-down- mastermind.views.ErrorView
mastermind.views.ErrorView *-down-> mastermind.types.Error
mastermind.views.ErrorView ..> mastermind.views.ColorView

class mastermind.views.GameView {
	-Game game
	+GameView(Game game)
	+void writeGame()
	+void writeLooser()
	+void writeWinner()
}
mastermind.views.GameView *-down-> mastermind.models.Game
mastermind.views.GameView ..> mastermind.views.MessageView
mastermind.views.GameView ..> mastermind.views.AttemptsView
mastermind.views.GameView ..> mastermind.views.SecretCombinationView
mastermind.views.GameView ..> mastermind.views.ProposedCombinationView
mastermind.views.GameView ..> mastermind.views.ResultView

enum mastermind.views.MessageView {
	ATTEMPTS
	SECRET
	RESUME
	RESULT
	PROPOSED_COMBINATION
	TITLE
	WINNER
	LOOSER
	PROPOSE_COMMAND
	UNDO_COMMAND
	REDO_COMMAND
	NEW_LINE
	message
	console
	-MessageView(String message)
	~String getMessage()
	~void write()
	~void writeln()
	~void writeln(int attempts)
	~void writeln(int blacks, int whites)
}
mastermind.views.MessageView *-down-> santaTecla.utils.Console

class mastermind.views.ProposeCommand {
	+ProposeCommand(Session session)
	+void updateIsActive()
}
mastermind.views.Command <|-down- mastermind.views.ProposeCommand
mastermind.views.ProposeCommand ..> mastermind.views.MessageView

class mastermind.views.ProposedCombinationView {
	-ProposedCombination proposedCombination
	+ProposedCombinationView(ProposedCombination proposedCombination)
	~void write()
	+void read()
}
santaTecla.utils.WithConsoleView <|-down- mastermind.views.ProposedCombinationView
mastermind.views.ProposedCombinationView *-down-> mastermind.models.ProposedCombination
mastermind.views.ProposedCombinationView ..> mastermind.types.Color
mastermind.views.ProposedCombinationView ..> mastermind.views.ColorView
mastermind.views.ProposedCombinationView ..> mastermind.types.Error
mastermind.views.ProposedCombinationView ..> mastermind.views.ErrorView
mastermind.views.ProposedCombinationView ..> mastermind.views.MessageView

class mastermind.views.RedoCommand {
	+RedoCommand(Session session)
	+void updateIsActive()
}
mastermind.views.Command <|-down- mastermind.views.RedoCommand
mastermind.views.RedoCommand ..> mastermind.views.MessageView

class mastermind.views.ResultView {
	-Result result
	~ResultView(Result result)
	~void writeln()
}
mastermind.views.ResultView *-down-> mastermind.models.Result
mastermind.views.ResultView ..> mastermind.views.MessageView

class mastermind.views.ResumeView {
	+Boolean write()
}
mastermind.views.ResumeView ..> santaTecla.YesNoDialog
mastermind.views.ResumeView ..> mastermind.views.MessageView

class mastermind.views.SecretCombinationView {
	-SecretCombination secretCombination
	~SecretCombinationView(SecretCombination secretCombination)
	~void writeln()
}
mastermind.views.SecretCombinationView *-down-> mastermind.models.SecretCombination
mastermind.views.SecretCombinationView ..> mastermind.views.MessageView

class mastermind.views.StartView {
	-Game game
	+StartView(Game game)
	+void write()
}
mastermind.views.StartView *-down-> mastermind.models.Game
mastermind.views.StartView ..> mastermind.views.MessageView
mastermind.views.StartView ..> mastermind.views.SecretCombinationView

class mastermind.views.UndoCommand {
	+UndoCommand(Session session)
	+void updateIsActive()
}
mastermind.views.Command <|-down- mastermind.views.UndoCommand
mastermind.views.UndoCommand ..> mastermind.views.MessageView

@enduml

PlantUML version 1.2019.05(Sat Apr 20 18:45:36 CEST 2019)
(GPL source distribution)
Java Runtime: OpenJDK Runtime Environment
JVM: OpenJDK 64-Bit Server VM
Java Version: 1.8.0_222-b10
Operating System: Windows 10
OS Version: 10.0
Default Encoding: windows-1252
Language: es
Country: ES
--></g></svg>