<?xml version="1.0" encoding="UTF-8" standalone="no"?><svg xmlns="http://www.w3.org/2000/svg" xmlns:xlink="http://www.w3.org/1999/xlink" contentScriptType="application/ecmascript" contentStyleType="text/css" height="999px" preserveAspectRatio="none" style="width:2744px;height:999px;" version="1.1" viewBox="0 0 2744 999" width="2744px" zoomAndPan="magnify"><defs><filter height="300%" id="f3uk77y1tmy8l" width="300%" x="-1" y="-1"><feGaussianBlur result="blurOut" stdDeviation="2.0"/><feColorMatrix in="blurOut" result="blurOut2" type="matrix" values="0 0 0 0 0 0 0 0 0 0 0 0 0 0 0 0 0 0 .4 0"/><feOffset dx="4.0" dy="4.0" in="blurOut2" result="blurOut3"/><feBlend in="SourceGraphic" in2="blurOut3" mode="normal"/></filter></defs><g><!--cluster mastermind.views.graphics--><polygon fill="#FFFFFF" filter="url(#f3uk77y1tmy8l)" points="745,148,943,148,950,171.6094,1487,171.6094,1487,987,745,987,745,148" style="stroke: #000000; stroke-width: 1.5;"/><line style="stroke: #000000; stroke-width: 1.5;" x1="745" x2="950" y1="171.6094" y2="171.6094"/><text fill="#000000" font-family="sans-serif" font-size="14" font-weight="bold" lengthAdjust="spacingAndGlyphs" textLength="192" x="749" y="164.5332">mastermind.views.graphics</text><!--cluster java.awt--><polygon fill="#FFFFFF" filter="url(#f3uk77y1tmy8l)" points="2548,641,2611,641,2618,664.6094,2722,664.6094,2722,741,2548,741,2548,641" style="stroke: #000000; stroke-width: 1.5;"/><line style="stroke: #000000; stroke-width: 1.5;" x1="2548" x2="2618" y1="664.6094" y2="664.6094"/><text fill="#000000" font-family="sans-serif" font-size="14" font-weight="bold" lengthAdjust="spacingAndGlyphs" textLength="57" x="2552" y="657.5332">java.awt</text><!--cluster javax.swing--><polygon fill="#FFFFFF" filter="url(#f3uk77y1tmy8l)" points="1850,641,1938,641,1945,664.6094,2524,664.6094,2524,741,1850,741,1850,641" style="stroke: #000000; stroke-width: 1.5;"/><line style="stroke: #000000; stroke-width: 1.5;" x1="1850" x2="1945" y1="664.6094" y2="664.6094"/><text fill="#000000" font-family="sans-serif" font-size="14" font-weight="bold" lengthAdjust="spacingAndGlyphs" textLength="82" x="1854" y="657.5332">javax.swing</text><!--cluster mastermind.controllers--><polygon fill="#FFFFFF" filter="url(#f3uk77y1tmy8l)" points="1511,641,1680,641,1687,664.6094,1826,664.6094,1826,741,1511,741,1511,641" style="stroke: #000000; stroke-width: 1.5;"/><line style="stroke: #000000; stroke-width: 1.5;" x1="1511" x2="1687" y1="664.6094" y2="664.6094"/><text fill="#000000" font-family="sans-serif" font-size="14" font-weight="bold" lengthAdjust="spacingAndGlyphs" textLength="163" x="1515" y="657.5332">mastermind.controllers</text><!--cluster mastermind.views--><polygon fill="#FFFFFF" filter="url(#f3uk77y1tmy8l)" points="1206,24,1339,24,1346,47.6094,1349,47.6094,1349,124,1206,124,1206,24" style="stroke: #000000; stroke-width: 1.5;"/><line style="stroke: #000000; stroke-width: 1.5;" x1="1206" x2="1346" y1="47.6094" y2="47.6094"/><text fill="#000000" font-family="sans-serif" font-size="14" font-weight="bold" lengthAdjust="spacingAndGlyphs" textLength="127" x="1210" y="40.5332">mastermind.views</text><!--cluster java.awt.event--><polygon fill="#FFFFFF" filter="url(#f3uk77y1tmy8l)" points="199,859.5,307,859.5,314,883.1094,721,883.1094,721,959.5,199,959.5,199,859.5" style="stroke: #000000; stroke-width: 1.5;"/><line style="stroke: #000000; stroke-width: 1.5;" x1="199" x2="314" y1="883.1094" y2="883.1094"/><text fill="#000000" font-family="sans-serif" font-size="14" font-weight="bold" lengthAdjust="spacingAndGlyphs" textLength="102" x="203" y="876.0332">java.awt.event</text><!--cluster mastermind.models--><polygon fill="#FFFFFF" filter="url(#f3uk77y1tmy8l)" points="22,859.5,165,859.5,172,883.1094,175,883.1094,175,959.5,22,959.5,22,859.5" style="stroke: #000000; stroke-width: 1.5;"/><line style="stroke: #000000; stroke-width: 1.5;" x1="22" x2="172" y1="883.1094" y2="883.1094"/><text fill="#000000" font-family="sans-serif" font-size="14" font-weight="bold" lengthAdjust="spacingAndGlyphs" textLength="137" x="26" y="876.0332">mastermind.models</text><!--class mastermind.views.graphics.Constraints--><rect fill="#FEFECE" filter="url(#f3uk77y1tmy8l)" height="61.8359" id="mastermind.views.graphics.Constraints" style="stroke: #A80036; stroke-width: 1.5;" width="151" x="813.5" y="888.5"/><ellipse cx="853.25" cy="904.5" fill="#ADD1B2" rx="11" ry="11" style="stroke: #A80036; stroke-width: 1.0;"/><path d="M856.0156,900.375 Q856.1719,900.1563 856.3594,900.0469 Q856.5469,899.9375 856.7656,899.9375 Q857.1406,899.9375 857.375,900.1953 Q857.6094,900.4531 857.6094,901.0625 L857.6094,902.5156 Q857.6094,903.125 857.375,903.3906 Q857.1406,903.6563 856.7656,903.6563 Q856.4219,903.6563 856.2188,903.4531 Q856.0156,903.2656 855.9063,902.75 Q855.8594,902.3906 855.6719,902.2031 Q855.3438,901.8281 854.7344,901.6094 Q854.125,901.3906 853.5,901.3906 Q852.7344,901.3906 852.1016,901.7188 Q851.4688,902.0469 850.9766,902.7969 Q850.4844,903.5469 850.4844,904.5781 L850.4844,905.6719 Q850.4844,906.9063 851.375,907.7266 Q852.2656,908.5469 853.8594,908.5469 Q854.7969,908.5469 855.4531,908.2969 Q855.8438,908.1406 856.2656,907.7031 Q856.5313,907.4375 856.6797,907.3594 Q856.8281,907.2813 857.0313,907.2813 Q857.3594,907.2813 857.6172,907.5391 Q857.875,907.7969 857.875,908.1406 Q857.875,908.4844 857.5313,908.8906 Q857.0313,909.4688 856.2344,909.7969 Q855.1563,910.25 853.8594,910.25 Q852.3438,910.25 851.1406,909.625 Q850.1563,909.125 849.4688,908.0547 Q848.7813,906.9844 848.7813,905.7031 L848.7813,904.5469 Q848.7813,903.2188 849.3984,902.0703 Q850.0156,900.9219 851.1094,900.3047 Q852.2031,899.6875 853.4375,899.6875 Q854.1719,899.6875 854.8203,899.8516 Q855.4688,900.0156 856.0156,900.375 Z "/><text fill="#000000" font-family="sans-serif" font-size="12" lengthAdjust="spacingAndGlyphs" textLength="64" x="872.75" y="909.4102">Constraints</text><line style="stroke: #A80036; stroke-width: 1.5;" x1="814.5" x2="963.5" y1="920.5" y2="920.5"/><line style="stroke: #A80036; stroke-width: 1.5;" x1="814.5" x2="963.5" y1="928.5" y2="928.5"/><polygon fill="#4177AF" points="824.5,936.918,820.5,942.918,828.5,942.918" style="stroke: #1963A0; stroke-width: 1.0;"/><text fill="#000000" font-family="sans-serif" font-size="11" lengthAdjust="spacingAndGlyphs" textLength="125" x="833.5" y="943.9189">Constraints(int, int, int, int)</text><!--class mastermind.views.graphics.GameView--><rect fill="#FEFECE" filter="url(#f3uk77y1tmy8l)" height="172.5234" id="mastermind.views.graphics.GameView" style="stroke: #A80036; stroke-width: 1.5;" width="304" x="1000" y="361"/><ellipse cx="1117.75" cy="377" fill="#ADD1B2" rx="11" ry="11" style="stroke: #A80036; stroke-width: 1.0;"/><path d="M1120.5156,372.875 Q1120.6719,372.6563 1120.8594,372.5469 Q1121.0469,372.4375 1121.2656,372.4375 Q1121.6406,372.4375 1121.875,372.6953 Q1122.1094,372.9531 1122.1094,373.5625 L1122.1094,375.0156 Q1122.1094,375.625 1121.875,375.8906 Q1121.6406,376.1563 1121.2656,376.1563 Q1120.9219,376.1563 1120.7188,375.9531 Q1120.5156,375.7656 1120.4063,375.25 Q1120.3594,374.8906 1120.1719,374.7031 Q1119.8438,374.3281 1119.2344,374.1094 Q1118.625,373.8906 1118,373.8906 Q1117.2344,373.8906 1116.6016,374.2188 Q1115.9688,374.5469 1115.4766,375.2969 Q1114.9844,376.0469 1114.9844,377.0781 L1114.9844,378.1719 Q1114.9844,379.4063 1115.875,380.2266 Q1116.7656,381.0469 1118.3594,381.0469 Q1119.2969,381.0469 1119.9531,380.7969 Q1120.3438,380.6406 1120.7656,380.2031 Q1121.0313,379.9375 1121.1797,379.8594 Q1121.3281,379.7813 1121.5313,379.7813 Q1121.8594,379.7813 1122.1172,380.0391 Q1122.375,380.2969 1122.375,380.6406 Q1122.375,380.9844 1122.0313,381.3906 Q1121.5313,381.9688 1120.7344,382.2969 Q1119.6563,382.75 1118.3594,382.75 Q1116.8438,382.75 1115.6406,382.125 Q1114.6563,381.625 1113.9688,380.5547 Q1113.2813,379.4844 1113.2813,378.2031 L1113.2813,377.0469 Q1113.2813,375.7188 1113.8984,374.5703 Q1114.5156,373.4219 1115.6094,372.8047 Q1116.7031,372.1875 1117.9375,372.1875 Q1118.6719,372.1875 1119.3203,372.3516 Q1119.9688,372.5156 1120.5156,372.875 Z "/><text fill="#000000" font-family="sans-serif" font-size="12" lengthAdjust="spacingAndGlyphs" textLength="60" x="1138.25" y="381.9102">GameView</text><line style="stroke: #A80036; stroke-width: 1.5;" x1="1001" x2="1303" y1="393" y2="393"/><rect fill="none" height="6" style="stroke: #C82930; stroke-width: 1.0;" width="6" x="1008" y="402.418"/><text fill="#000000" font-family="sans-serif" font-size="11" lengthAdjust="spacingAndGlyphs" text-decoration="underline" textLength="99" x="1020" y="408.4189">GAME_OVER: String</text><rect fill="none" height="6" style="stroke: #C82930; stroke-width: 1.0;" width="6" x="1008" y="416.2539"/><text fill="#000000" font-family="sans-serif" font-size="11" lengthAdjust="spacingAndGlyphs" textLength="237" x="1020" y="422.2549">secretCombinationView: SecretCombinationView</text><rect fill="none" height="6" style="stroke: #C82930; stroke-width: 1.0;" width="6" x="1008" y="430.0898"/><text fill="#000000" font-family="sans-serif" font-size="11" lengthAdjust="spacingAndGlyphs" textLength="278" x="1020" y="436.0908">proposedCombinationsView: ProposedCombinationsView</text><rect fill="none" height="6" style="stroke: #C82930; stroke-width: 1.0;" width="6" x="1008" y="443.9258"/><text fill="#000000" font-family="sans-serif" font-size="11" lengthAdjust="spacingAndGlyphs" textLength="258" x="1020" y="449.9268">proposalCombinationView: ProposalCombinationView</text><line style="stroke: #A80036; stroke-width: 1.5;" x1="1001" x2="1303" y1="456.3438" y2="456.3438"/><polygon fill="#4177AF" points="1011,464.7617,1007,470.7617,1015,470.7617" style="stroke: #1963A0; stroke-width: 1.0;"/><text fill="#000000" font-family="sans-serif" font-size="11" lengthAdjust="spacingAndGlyphs" textLength="225" x="1020" y="471.7627">GameView(StartController, ProposalController)</text><rect fill="#F24D5C" height="6" style="stroke: #C82930; stroke-width: 1.0;" width="6" x="1008" y="479.5977"/><text fill="#000000" font-family="sans-serif" font-size="11" lengthAdjust="spacingAndGlyphs" textLength="58" x="1020" y="485.5986">clear(): void</text><polygon fill="#4177AF" points="1011,492.4336,1007,498.4336,1015,498.4336" style="stroke: #1963A0; stroke-width: 1.0;"/><text fill="#000000" font-family="sans-serif" font-size="11" lengthAdjust="spacingAndGlyphs" textLength="56" x="1020" y="499.4346">start(): void</text><polygon fill="#4177AF" points="1011,506.2695,1007,512.2695,1015,512.2695" style="stroke: #1963A0; stroke-width: 1.0;"/><text fill="#000000" font-family="sans-serif" font-size="11" lengthAdjust="spacingAndGlyphs" textLength="92" x="1020" y="513.2705">propose(): boolean</text><rect fill="#F24D5C" height="6" style="stroke: #C82930; stroke-width: 1.0;" width="6" x="1008" y="521.1055"/><text fill="#000000" font-family="sans-serif" font-size="11" lengthAdjust="spacingAndGlyphs" textLength="130" x="1020" y="527.1064">drawGameOver(): boolean</text><!--class mastermind.views.graphics.ProposedCombinationsView--><rect fill="#FEFECE" filter="url(#f3uk77y1tmy8l)" height="75.6719" id="mastermind.views.graphics.ProposedCombinationsView" style="stroke: #A80036; stroke-width: 1.5;" width="190" x="1244" y="663"/><ellipse cx="1259" cy="679" fill="#ADD1B2" rx="11" ry="11" style="stroke: #A80036; stroke-width: 1.0;"/><path d="M1261.7656,674.875 Q1261.9219,674.6563 1262.1094,674.5469 Q1262.2969,674.4375 1262.5156,674.4375 Q1262.8906,674.4375 1263.125,674.6953 Q1263.3594,674.9531 1263.3594,675.5625 L1263.3594,677.0156 Q1263.3594,677.625 1263.125,677.8906 Q1262.8906,678.1563 1262.5156,678.1563 Q1262.1719,678.1563 1261.9688,677.9531 Q1261.7656,677.7656 1261.6563,677.25 Q1261.6094,676.8906 1261.4219,676.7031 Q1261.0938,676.3281 1260.4844,676.1094 Q1259.875,675.8906 1259.25,675.8906 Q1258.4844,675.8906 1257.8516,676.2188 Q1257.2188,676.5469 1256.7266,677.2969 Q1256.2344,678.0469 1256.2344,679.0781 L1256.2344,680.1719 Q1256.2344,681.4063 1257.125,682.2266 Q1258.0156,683.0469 1259.6094,683.0469 Q1260.5469,683.0469 1261.2031,682.7969 Q1261.5938,682.6406 1262.0156,682.2031 Q1262.2813,681.9375 1262.4297,681.8594 Q1262.5781,681.7813 1262.7813,681.7813 Q1263.1094,681.7813 1263.3672,682.0391 Q1263.625,682.2969 1263.625,682.6406 Q1263.625,682.9844 1263.2813,683.3906 Q1262.7813,683.9688 1261.9844,684.2969 Q1260.9063,684.75 1259.6094,684.75 Q1258.0938,684.75 1256.8906,684.125 Q1255.9063,683.625 1255.2188,682.5547 Q1254.5313,681.4844 1254.5313,680.2031 L1254.5313,679.0469 Q1254.5313,677.7188 1255.1484,676.5703 Q1255.7656,675.4219 1256.8594,674.8047 Q1257.9531,674.1875 1259.1875,674.1875 Q1259.9219,674.1875 1260.5703,674.3516 Q1261.2188,674.5156 1261.7656,674.875 Z "/><text fill="#000000" font-family="sans-serif" font-size="12" lengthAdjust="spacingAndGlyphs" textLength="158" x="1273" y="683.9102">ProposedCombinationsView</text><line style="stroke: #A80036; stroke-width: 1.5;" x1="1245" x2="1433" y1="695" y2="695"/><line style="stroke: #A80036; stroke-width: 1.5;" x1="1245" x2="1433" y1="703" y2="703"/><polygon fill="#4177AF" points="1255,711.418,1251,717.418,1259,717.418" style="stroke: #1963A0; stroke-width: 1.0;"/><text fill="#000000" font-family="sans-serif" font-size="11" lengthAdjust="spacingAndGlyphs" textLength="144" x="1264" y="718.4189">ProposedCombinationsView()</text><polygon fill="#4177AF" points="1255,725.2539,1251,731.2539,1259,731.2539" style="stroke: #1963A0; stroke-width: 1.0;"/><text fill="#000000" font-family="sans-serif" font-size="11" lengthAdjust="spacingAndGlyphs" textLength="80" x="1264" y="732.2549">add(Game): void</text><!--class mastermind.views.graphics.SecretCombinationView--><rect fill="#FEFECE" filter="url(#f3uk77y1tmy8l)" height="103.3438" id="mastermind.views.graphics.SecretCombinationView" style="stroke: #A80036; stroke-width: 1.5;" width="164" x="1045" y="649.5"/><ellipse cx="1060" cy="665.5" fill="#ADD1B2" rx="11" ry="11" style="stroke: #A80036; stroke-width: 1.0;"/><path d="M1062.7656,661.375 Q1062.9219,661.1563 1063.1094,661.0469 Q1063.2969,660.9375 1063.5156,660.9375 Q1063.8906,660.9375 1064.125,661.1953 Q1064.3594,661.4531 1064.3594,662.0625 L1064.3594,663.5156 Q1064.3594,664.125 1064.125,664.3906 Q1063.8906,664.6563 1063.5156,664.6563 Q1063.1719,664.6563 1062.9688,664.4531 Q1062.7656,664.2656 1062.6563,663.75 Q1062.6094,663.3906 1062.4219,663.2031 Q1062.0938,662.8281 1061.4844,662.6094 Q1060.875,662.3906 1060.25,662.3906 Q1059.4844,662.3906 1058.8516,662.7188 Q1058.2188,663.0469 1057.7266,663.7969 Q1057.2344,664.5469 1057.2344,665.5781 L1057.2344,666.6719 Q1057.2344,667.9063 1058.125,668.7266 Q1059.0156,669.5469 1060.6094,669.5469 Q1061.5469,669.5469 1062.2031,669.2969 Q1062.5938,669.1406 1063.0156,668.7031 Q1063.2813,668.4375 1063.4297,668.3594 Q1063.5781,668.2813 1063.7813,668.2813 Q1064.1094,668.2813 1064.3672,668.5391 Q1064.625,668.7969 1064.625,669.1406 Q1064.625,669.4844 1064.2813,669.8906 Q1063.7813,670.4688 1062.9844,670.7969 Q1061.9063,671.25 1060.6094,671.25 Q1059.0938,671.25 1057.8906,670.625 Q1056.9063,670.125 1056.2188,669.0547 Q1055.5313,667.9844 1055.5313,666.7031 L1055.5313,665.5469 Q1055.5313,664.2188 1056.1484,663.0703 Q1056.7656,661.9219 1057.8594,661.3047 Q1058.9531,660.6875 1060.1875,660.6875 Q1060.9219,660.6875 1061.5703,660.8516 Q1062.2188,661.0156 1062.7656,661.375 Z "/><text fill="#000000" font-family="sans-serif" font-size="12" lengthAdjust="spacingAndGlyphs" textLength="132" x="1074" y="670.4102">SecretCombinationView</text><line style="stroke: #A80036; stroke-width: 1.5;" x1="1046" x2="1208" y1="681.5" y2="681.5"/><rect fill="none" height="6" style="stroke: #C82930; stroke-width: 1.0;" width="6" x="1053" y="690.918"/><text fill="#000000" font-family="sans-serif" font-size="11" lengthAdjust="spacingAndGlyphs" text-decoration="underline" textLength="60" x="1065" y="696.9189">TITLE: String</text><rect fill="none" height="6" style="stroke: #C82930; stroke-width: 1.0;" width="6" x="1053" y="704.7539"/><text fill="#000000" font-family="sans-serif" font-size="11" lengthAdjust="spacingAndGlyphs" textLength="53" x="1065" y="710.7549">title: JLabel</text><rect fill="none" height="6" style="stroke: #C82930; stroke-width: 1.0;" width="6" x="1053" y="718.5898"/><text fill="#000000" font-family="sans-serif" font-size="11" lengthAdjust="spacingAndGlyphs" textLength="126" x="1065" y="724.5908">secretCombination: JLabel</text><line style="stroke: #A80036; stroke-width: 1.5;" x1="1046" x2="1208" y1="731.0078" y2="731.0078"/><polygon fill="#4177AF" points="1056,739.4258,1052,745.4258,1060,745.4258" style="stroke: #1963A0; stroke-width: 1.0;"/><text fill="#000000" font-family="sans-serif" font-size="11" lengthAdjust="spacingAndGlyphs" textLength="135" x="1065" y="746.4268">SecretCombinationView(int)</text><!--class mastermind.views.graphics.ProposalCombinationView--><rect fill="#FEFECE" filter="url(#f3uk77y1tmy8l)" height="214.0313" id="mastermind.views.graphics.ProposalCombinationView" style="stroke: #A80036; stroke-width: 1.5;" width="211" x="761.5" y="594"/><ellipse cx="790.9" cy="610" fill="#ADD1B2" rx="11" ry="11" style="stroke: #A80036; stroke-width: 1.0;"/><path d="M793.6656,605.875 Q793.8219,605.6563 794.0094,605.5469 Q794.1969,605.4375 794.4156,605.4375 Q794.7906,605.4375 795.025,605.6953 Q795.2594,605.9531 795.2594,606.5625 L795.2594,608.0156 Q795.2594,608.625 795.025,608.8906 Q794.7906,609.1563 794.4156,609.1563 Q794.0719,609.1563 793.8688,608.9531 Q793.6656,608.7656 793.5563,608.25 Q793.5094,607.8906 793.3219,607.7031 Q792.9938,607.3281 792.3844,607.1094 Q791.775,606.8906 791.15,606.8906 Q790.3844,606.8906 789.7516,607.2188 Q789.1188,607.5469 788.6266,608.2969 Q788.1344,609.0469 788.1344,610.0781 L788.1344,611.1719 Q788.1344,612.4063 789.025,613.2266 Q789.9156,614.0469 791.5094,614.0469 Q792.4469,614.0469 793.1031,613.7969 Q793.4938,613.6406 793.9156,613.2031 Q794.1813,612.9375 794.3297,612.8594 Q794.4781,612.7813 794.6813,612.7813 Q795.0094,612.7813 795.2672,613.0391 Q795.525,613.2969 795.525,613.6406 Q795.525,613.9844 795.1813,614.3906 Q794.6813,614.9688 793.8844,615.2969 Q792.8063,615.75 791.5094,615.75 Q789.9938,615.75 788.7906,615.125 Q787.8063,614.625 787.1188,613.5547 Q786.4313,612.4844 786.4313,611.2031 L786.4313,610.0469 Q786.4313,608.7188 787.0484,607.5703 Q787.6656,606.4219 788.7594,605.8047 Q789.8531,605.1875 791.0875,605.1875 Q791.8219,605.1875 792.4703,605.3516 Q793.1188,605.5156 793.6656,605.875 Z "/><text fill="#000000" font-family="sans-serif" font-size="12" lengthAdjust="spacingAndGlyphs" textLength="147" x="808.1" y="614.9102">ProposalCombinationView</text><line style="stroke: #A80036; stroke-width: 1.5;" x1="762.5" x2="971.5" y1="626" y2="626"/><rect fill="none" height="6" style="stroke: #C82930; stroke-width: 1.0;" width="6" x="769.5" y="635.418"/><text fill="#000000" font-family="sans-serif" font-size="11" lengthAdjust="spacingAndGlyphs" text-decoration="underline" textLength="74" x="781.5" y="641.4189">ACCEPT: String</text><rect fill="none" height="6" style="stroke: #C82930; stroke-width: 1.0;" width="6" x="769.5" y="649.2539"/><text fill="#000000" font-family="sans-serif" font-size="11" lengthAdjust="spacingAndGlyphs" textLength="59" x="781.5" y="655.2549">label: JLabel</text><rect fill="none" height="6" style="stroke: #C82930; stroke-width: 1.0;" width="6" x="769.5" y="663.0898"/><text fill="#000000" font-family="sans-serif" font-size="11" lengthAdjust="spacingAndGlyphs" textLength="94" x="781.5" y="669.0908">textField: JTextField</text><rect fill="none" height="6" style="stroke: #C82930; stroke-width: 1.0;" width="6" x="769.5" y="676.9258"/><text fill="#000000" font-family="sans-serif" font-size="11" lengthAdjust="spacingAndGlyphs" textLength="72" x="781.5" y="682.9268">button: JButton</text><rect fill="none" height="6" style="stroke: #C82930; stroke-width: 1.0;" width="6" x="769.5" y="690.7617"/><text fill="#000000" font-family="sans-serif" font-size="11" lengthAdjust="spacingAndGlyphs" textLength="87" x="781.5" y="696.7627">characters: String</text><line style="stroke: #A80036; stroke-width: 1.5;" x1="762.5" x2="971.5" y1="703.1797" y2="703.1797"/><polygon fill="#4177AF" points="772.5,711.5977,768.5,717.5977,776.5,717.5977" style="stroke: #1963A0; stroke-width: 1.0;"/><text fill="#000000" font-family="sans-serif" font-size="11" lengthAdjust="spacingAndGlyphs" textLength="185" x="781.5" y="718.5986">ProposalCombinationView(JRootPane)</text><ellipse cx="772.5" cy="729.4336" fill="#84BE84" rx="3" ry="3" style="stroke: #038048; stroke-width: 1.0;"/><text fill="#000000" font-family="sans-serif" font-size="11" lengthAdjust="spacingAndGlyphs" textLength="137" x="781.5" y="732.4346">keyPressed(KeyEvent): void</text><ellipse cx="772.5" cy="743.2695" fill="#84BE84" rx="3" ry="3" style="stroke: #038048; stroke-width: 1.0;"/><text fill="#000000" font-family="sans-serif" font-size="11" lengthAdjust="spacingAndGlyphs" textLength="142" x="781.5" y="746.2705">keyReleased(KeyEvent): void</text><ellipse cx="772.5" cy="757.1055" fill="#84BE84" rx="3" ry="3" style="stroke: #038048; stroke-width: 1.0;"/><text fill="#000000" font-family="sans-serif" font-size="11" lengthAdjust="spacingAndGlyphs" textLength="127" x="781.5" y="760.1064">keyTyped(KeyEvent): void</text><polygon fill="#4177AF" points="772.5,766.9414,768.5,772.9414,776.5,772.9414" style="stroke: #1963A0; stroke-width: 1.0;"/><text fill="#000000" font-family="sans-serif" font-size="11" lengthAdjust="spacingAndGlyphs" textLength="113" x="781.5" y="773.9424">resetCharacters(): void</text><polygon fill="#4177AF" points="772.5,780.7773,768.5,786.7773,776.5,786.7773" style="stroke: #1963A0; stroke-width: 1.0;"/><text fill="#000000" font-family="sans-serif" font-size="11" lengthAdjust="spacingAndGlyphs" textLength="111" x="781.5" y="787.7783">getCharacters(): String</text><ellipse cx="772.5" cy="798.6133" fill="#84BE84" rx="3" ry="3" style="stroke: #038048; stroke-width: 1.0;"/><text fill="#000000" font-family="sans-serif" font-size="11" lengthAdjust="spacingAndGlyphs" textLength="171" x="781.5" y="801.6143">actionPerformed(ActionEvent): void</text><!--class mastermind.views.graphics.ProposedCombinationView--><rect fill="#FEFECE" filter="url(#f3uk77y1tmy8l)" height="103.3438" id="mastermind.views.graphics.ProposedCombinationView" style="stroke: #A80036; stroke-width: 1.5;" width="183" x="1141.5" y="868"/><ellipse cx="1156.5" cy="884" fill="#ADD1B2" rx="11" ry="11" style="stroke: #A80036; stroke-width: 1.0;"/><path d="M1159.2656,879.875 Q1159.4219,879.6563 1159.6094,879.5469 Q1159.7969,879.4375 1160.0156,879.4375 Q1160.3906,879.4375 1160.625,879.6953 Q1160.8594,879.9531 1160.8594,880.5625 L1160.8594,882.0156 Q1160.8594,882.625 1160.625,882.8906 Q1160.3906,883.1563 1160.0156,883.1563 Q1159.6719,883.1563 1159.4688,882.9531 Q1159.2656,882.7656 1159.1563,882.25 Q1159.1094,881.8906 1158.9219,881.7031 Q1158.5938,881.3281 1157.9844,881.1094 Q1157.375,880.8906 1156.75,880.8906 Q1155.9844,880.8906 1155.3516,881.2188 Q1154.7188,881.5469 1154.2266,882.2969 Q1153.7344,883.0469 1153.7344,884.0781 L1153.7344,885.1719 Q1153.7344,886.4063 1154.625,887.2266 Q1155.5156,888.0469 1157.1094,888.0469 Q1158.0469,888.0469 1158.7031,887.7969 Q1159.0938,887.6406 1159.5156,887.2031 Q1159.7813,886.9375 1159.9297,886.8594 Q1160.0781,886.7813 1160.2813,886.7813 Q1160.6094,886.7813 1160.8672,887.0391 Q1161.125,887.2969 1161.125,887.6406 Q1161.125,887.9844 1160.7813,888.3906 Q1160.2813,888.9688 1159.4844,889.2969 Q1158.4063,889.75 1157.1094,889.75 Q1155.5938,889.75 1154.3906,889.125 Q1153.4063,888.625 1152.7188,887.5547 Q1152.0313,886.4844 1152.0313,885.2031 L1152.0313,884.0469 Q1152.0313,882.7188 1152.6484,881.5703 Q1153.2656,880.4219 1154.3594,879.8047 Q1155.4531,879.1875 1156.6875,879.1875 Q1157.4219,879.1875 1158.0703,879.3516 Q1158.7188,879.5156 1159.2656,879.875 Z "/><text fill="#000000" font-family="sans-serif" font-size="12" lengthAdjust="spacingAndGlyphs" textLength="151" x="1170.5" y="888.9102">ProposedCombinationView</text><line style="stroke: #A80036; stroke-width: 1.5;" x1="1142.5" x2="1323.5" y1="900" y2="900"/><polygon fill="none" points="1152.5,908.418,1148.5,914.418,1156.5,914.418" style="stroke: #1963A0; stroke-width: 1.0;"/><text fill="#000000" font-family="sans-serif" font-size="11" lengthAdjust="spacingAndGlyphs" text-decoration="underline" textLength="86" x="1161.5" y="915.4189">ERROR_CODE: int</text><line style="stroke: #A80036; stroke-width: 1.5;" x1="1142.5" x2="1323.5" y1="921.8359" y2="921.8359"/><polygon fill="#4177AF" points="1152.5,930.2539,1148.5,936.2539,1156.5,936.2539" style="stroke: #1963A0; stroke-width: 1.0;"/><text fill="#000000" font-family="sans-serif" font-size="11" lengthAdjust="spacingAndGlyphs" textLength="155" x="1161.5" y="937.2549">ProposedCombinationView(int[])</text><polygon fill="#4177AF" points="1152.5,944.0898,1148.5,950.0898,1156.5,950.0898" style="stroke: #1963A0; stroke-width: 1.0;"/><text fill="#000000" font-family="sans-serif" font-size="11" lengthAdjust="spacingAndGlyphs" textLength="138" x="1161.5" y="951.0908">ProposedCombinationView()</text><polygon fill="#4177AF" points="1152.5,957.9258,1148.5,963.9258,1156.5,963.9258" style="stroke: #1963A0; stroke-width: 1.0;"/><text fill="#000000" font-family="sans-serif" font-size="11" lengthAdjust="spacingAndGlyphs" textLength="81" x="1161.5" y="964.9268">read(String): int[]</text><!--class mastermind.views.graphics.GraphicsView--><rect fill="#FEFECE" filter="url(#f3uk77y1tmy8l)" height="117.1797" id="mastermind.views.graphics.GraphicsView" style="stroke: #A80036; stroke-width: 1.5;" width="138" x="1208" y="184"/><ellipse cx="1236.5" cy="200" fill="#ADD1B2" rx="11" ry="11" style="stroke: #A80036; stroke-width: 1.0;"/><path d="M1239.2656,195.875 Q1239.4219,195.6563 1239.6094,195.5469 Q1239.7969,195.4375 1240.0156,195.4375 Q1240.3906,195.4375 1240.625,195.6953 Q1240.8594,195.9531 1240.8594,196.5625 L1240.8594,198.0156 Q1240.8594,198.625 1240.625,198.8906 Q1240.3906,199.1563 1240.0156,199.1563 Q1239.6719,199.1563 1239.4688,198.9531 Q1239.2656,198.7656 1239.1563,198.25 Q1239.1094,197.8906 1238.9219,197.7031 Q1238.5938,197.3281 1237.9844,197.1094 Q1237.375,196.8906 1236.75,196.8906 Q1235.9844,196.8906 1235.3516,197.2188 Q1234.7188,197.5469 1234.2266,198.2969 Q1233.7344,199.0469 1233.7344,200.0781 L1233.7344,201.1719 Q1233.7344,202.4063 1234.625,203.2266 Q1235.5156,204.0469 1237.1094,204.0469 Q1238.0469,204.0469 1238.7031,203.7969 Q1239.0938,203.6406 1239.5156,203.2031 Q1239.7813,202.9375 1239.9297,202.8594 Q1240.0781,202.7813 1240.2813,202.7813 Q1240.6094,202.7813 1240.8672,203.0391 Q1241.125,203.2969 1241.125,203.6406 Q1241.125,203.9844 1240.7813,204.3906 Q1240.2813,204.9688 1239.4844,205.2969 Q1238.4063,205.75 1237.1094,205.75 Q1235.5938,205.75 1234.3906,205.125 Q1233.4063,204.625 1232.7188,203.5547 Q1232.0313,202.4844 1232.0313,201.2031 L1232.0313,200.0469 Q1232.0313,198.7188 1232.6484,197.5703 Q1233.2656,196.4219 1234.3594,195.8047 Q1235.4531,195.1875 1236.6875,195.1875 Q1237.4219,195.1875 1238.0703,195.3516 Q1238.7188,195.5156 1239.2656,195.875 Z "/><text fill="#000000" font-family="sans-serif" font-size="12" lengthAdjust="spacingAndGlyphs" textLength="76" x="1253.5" y="204.9102">GraphicsView</text><line style="stroke: #A80036; stroke-width: 1.5;" x1="1209" x2="1345" y1="216" y2="216"/><rect fill="none" height="6" style="stroke: #C82930; stroke-width: 1.0;" width="6" x="1216" y="225.418"/><text fill="#000000" font-family="sans-serif" font-size="11" lengthAdjust="spacingAndGlyphs" textLength="112" x="1228" y="231.4189">gameView: GameView</text><line style="stroke: #A80036; stroke-width: 1.5;" x1="1209" x2="1345" y1="237.8359" y2="237.8359"/><ellipse cx="1219" cy="250.2539" fill="#84BE84" rx="3" ry="3" style="stroke: #038048; stroke-width: 1.0;"/><text fill="#000000" font-family="sans-serif" font-size="11" lengthAdjust="spacingAndGlyphs" textLength="106" x="1228" y="253.2549">GraphicsView(Game)</text><polygon fill="#FFFF44" points="1219,259.0898,1223,263.0898,1219,267.0898,1215,263.0898" style="stroke: #B38D22; stroke-width: 1.0;"/><text fill="#000000" font-family="sans-serif" font-size="11" lengthAdjust="spacingAndGlyphs" textLength="56" x="1228" y="267.0908">start(): void</text><polygon fill="#FFFF44" points="1219,272.9258,1223,276.9258,1219,280.9258,1215,276.9258" style="stroke: #B38D22; stroke-width: 1.0;"/><text fill="#000000" font-family="sans-serif" font-size="11" lengthAdjust="spacingAndGlyphs" textLength="88" x="1228" y="280.9268">resume(): boolean</text><polygon fill="#FFFF44" points="1219,286.7617,1223,290.7617,1219,294.7617,1215,290.7617" style="stroke: #B38D22; stroke-width: 1.0;"/><text fill="#000000" font-family="sans-serif" font-size="11" lengthAdjust="spacingAndGlyphs" textLength="92" x="1228" y="294.7627">propose(): boolean</text><!--class mastermind.views.graphics.ResumeDialog--><rect fill="#FEFECE" filter="url(#f3uk77y1tmy8l)" height="89.5078" id="mastermind.views.graphics.ResumeDialog" style="stroke: #A80036; stroke-width: 1.5;" width="131" x="1339.5" y="402.5"/><ellipse cx="1361.25" cy="418.5" fill="#ADD1B2" rx="11" ry="11" style="stroke: #A80036; stroke-width: 1.0;"/><path d="M1364.0156,414.375 Q1364.1719,414.1563 1364.3594,414.0469 Q1364.5469,413.9375 1364.7656,413.9375 Q1365.1406,413.9375 1365.375,414.1953 Q1365.6094,414.4531 1365.6094,415.0625 L1365.6094,416.5156 Q1365.6094,417.125 1365.375,417.3906 Q1365.1406,417.6563 1364.7656,417.6563 Q1364.4219,417.6563 1364.2188,417.4531 Q1364.0156,417.2656 1363.9063,416.75 Q1363.8594,416.3906 1363.6719,416.2031 Q1363.3438,415.8281 1362.7344,415.6094 Q1362.125,415.3906 1361.5,415.3906 Q1360.7344,415.3906 1360.1016,415.7188 Q1359.4688,416.0469 1358.9766,416.7969 Q1358.4844,417.5469 1358.4844,418.5781 L1358.4844,419.6719 Q1358.4844,420.9063 1359.375,421.7266 Q1360.2656,422.5469 1361.8594,422.5469 Q1362.7969,422.5469 1363.4531,422.2969 Q1363.8438,422.1406 1364.2656,421.7031 Q1364.5313,421.4375 1364.6797,421.3594 Q1364.8281,421.2813 1365.0313,421.2813 Q1365.3594,421.2813 1365.6172,421.5391 Q1365.875,421.7969 1365.875,422.1406 Q1365.875,422.4844 1365.5313,422.8906 Q1365.0313,423.4688 1364.2344,423.7969 Q1363.1563,424.25 1361.8594,424.25 Q1360.3438,424.25 1359.1406,423.625 Q1358.1563,423.125 1357.4688,422.0547 Q1356.7813,420.9844 1356.7813,419.7031 L1356.7813,418.5469 Q1356.7813,417.2188 1357.3984,416.0703 Q1358.0156,414.9219 1359.1094,414.3047 Q1360.2031,413.6875 1361.4375,413.6875 Q1362.1719,413.6875 1362.8203,413.8516 Q1363.4688,414.0156 1364.0156,414.375 Z "/><text fill="#000000" font-family="sans-serif" font-size="12" lengthAdjust="spacingAndGlyphs" textLength="84" x="1376.75" y="423.4102">ResumeDialog</text><line style="stroke: #A80036; stroke-width: 1.5;" x1="1340.5" x2="1469.5" y1="434.5" y2="434.5"/><rect fill="none" height="6" style="stroke: #C82930; stroke-width: 1.0;" width="6" x="1347.5" y="443.918"/><text fill="#000000" font-family="sans-serif" font-size="11" lengthAdjust="spacingAndGlyphs" textLength="80" x="1359.5" y="449.9189">resume: boolean</text><line style="stroke: #A80036; stroke-width: 1.5;" x1="1340.5" x2="1469.5" y1="456.3359" y2="456.3359"/><polygon fill="#4177AF" points="1350.5,464.7539,1346.5,470.7539,1354.5,470.7539" style="stroke: #1963A0; stroke-width: 1.0;"/><text fill="#000000" font-family="sans-serif" font-size="11" lengthAdjust="spacingAndGlyphs" textLength="76" x="1359.5" y="471.7549">ResumeDialog()</text><polygon fill="#4177AF" points="1350.5,478.5898,1346.5,484.5898,1354.5,484.5898" style="stroke: #1963A0; stroke-width: 1.0;"/><text fill="#000000" font-family="sans-serif" font-size="11" lengthAdjust="spacingAndGlyphs" textLength="105" x="1359.5" y="485.5908">isResumed(): boolean</text><!--class mastermind.views.graphics.TurnView--><rect fill="#FEFECE" filter="url(#f3uk77y1tmy8l)" height="61.8359" id="mastermind.views.graphics.TurnView" style="stroke: #A80036; stroke-width: 1.5;" width="93" x="1377.5" y="888.5"/><ellipse cx="1397" cy="904.5" fill="#ADD1B2" rx="11" ry="11" style="stroke: #A80036; stroke-width: 1.0;"/><path d="M1399.7656,900.375 Q1399.9219,900.1563 1400.1094,900.0469 Q1400.2969,899.9375 1400.5156,899.9375 Q1400.8906,899.9375 1401.125,900.1953 Q1401.3594,900.4531 1401.3594,901.0625 L1401.3594,902.5156 Q1401.3594,903.125 1401.125,903.3906 Q1400.8906,903.6563 1400.5156,903.6563 Q1400.1719,903.6563 1399.9688,903.4531 Q1399.7656,903.2656 1399.6563,902.75 Q1399.6094,902.3906 1399.4219,902.2031 Q1399.0938,901.8281 1398.4844,901.6094 Q1397.875,901.3906 1397.25,901.3906 Q1396.4844,901.3906 1395.8516,901.7188 Q1395.2188,902.0469 1394.7266,902.7969 Q1394.2344,903.5469 1394.2344,904.5781 L1394.2344,905.6719 Q1394.2344,906.9063 1395.125,907.7266 Q1396.0156,908.5469 1397.6094,908.5469 Q1398.5469,908.5469 1399.2031,908.2969 Q1399.5938,908.1406 1400.0156,907.7031 Q1400.2813,907.4375 1400.4297,907.3594 Q1400.5781,907.2813 1400.7813,907.2813 Q1401.1094,907.2813 1401.3672,907.5391 Q1401.625,907.7969 1401.625,908.1406 Q1401.625,908.4844 1401.2813,908.8906 Q1400.7813,909.4688 1399.9844,909.7969 Q1398.9063,910.25 1397.6094,910.25 Q1396.0938,910.25 1394.8906,909.625 Q1393.9063,909.125 1393.2188,908.0547 Q1392.5313,906.9844 1392.5313,905.7031 L1392.5313,904.5469 Q1392.5313,903.2188 1393.1484,902.0703 Q1393.7656,900.9219 1394.8594,900.3047 Q1395.9531,899.6875 1397.1875,899.6875 Q1397.9219,899.6875 1398.5703,899.8516 Q1399.2188,900.0156 1399.7656,900.375 Z "/><text fill="#000000" font-family="sans-serif" font-size="12" lengthAdjust="spacingAndGlyphs" textLength="51" x="1412" y="909.4102">TurnView</text><line style="stroke: #A80036; stroke-width: 1.5;" x1="1378.5" x2="1469.5" y1="920.5" y2="920.5"/><line style="stroke: #A80036; stroke-width: 1.5;" x1="1378.5" x2="1469.5" y1="928.5" y2="928.5"/><polygon fill="#4177AF" points="1388.5,936.918,1384.5,942.918,1392.5,942.918" style="stroke: #1963A0; stroke-width: 1.0;"/><text fill="#000000" font-family="sans-serif" font-size="11" lengthAdjust="spacingAndGlyphs" textLength="67" x="1397.5" y="943.9189">TurnView(int)</text><!--class mastermind.views.graphics.ResultView--><rect fill="#FEFECE" filter="url(#f3uk77y1tmy8l)" height="61.8359" id="mastermind.views.graphics.ResultView" style="stroke: #A80036; stroke-width: 1.5;" width="107" x="999.5" y="888.5"/><ellipse cx="1020.35" cy="904.5" fill="#ADD1B2" rx="11" ry="11" style="stroke: #A80036; stroke-width: 1.0;"/><path d="M1023.1156,900.375 Q1023.2719,900.1563 1023.4594,900.0469 Q1023.6469,899.9375 1023.8656,899.9375 Q1024.2406,899.9375 1024.475,900.1953 Q1024.7094,900.4531 1024.7094,901.0625 L1024.7094,902.5156 Q1024.7094,903.125 1024.475,903.3906 Q1024.2406,903.6563 1023.8656,903.6563 Q1023.5219,903.6563 1023.3188,903.4531 Q1023.1156,903.2656 1023.0063,902.75 Q1022.9594,902.3906 1022.7719,902.2031 Q1022.4438,901.8281 1021.8344,901.6094 Q1021.225,901.3906 1020.6,901.3906 Q1019.8344,901.3906 1019.2016,901.7188 Q1018.5688,902.0469 1018.0766,902.7969 Q1017.5844,903.5469 1017.5844,904.5781 L1017.5844,905.6719 Q1017.5844,906.9063 1018.475,907.7266 Q1019.3656,908.5469 1020.9594,908.5469 Q1021.8969,908.5469 1022.5531,908.2969 Q1022.9438,908.1406 1023.3656,907.7031 Q1023.6313,907.4375 1023.7797,907.3594 Q1023.9281,907.2813 1024.1313,907.2813 Q1024.4594,907.2813 1024.7172,907.5391 Q1024.975,907.7969 1024.975,908.1406 Q1024.975,908.4844 1024.6313,908.8906 Q1024.1313,909.4688 1023.3344,909.7969 Q1022.2563,910.25 1020.9594,910.25 Q1019.4438,910.25 1018.2406,909.625 Q1017.2563,909.125 1016.5688,908.0547 Q1015.8813,906.9844 1015.8813,905.7031 L1015.8813,904.5469 Q1015.8813,903.2188 1016.4984,902.0703 Q1017.1156,900.9219 1018.2094,900.3047 Q1019.3031,899.6875 1020.5375,899.6875 Q1021.2719,899.6875 1021.9203,899.8516 Q1022.5688,900.0156 1023.1156,900.375 Z "/><text fill="#000000" font-family="sans-serif" font-size="12" lengthAdjust="spacingAndGlyphs" textLength="62" x="1035.65" y="909.4102">ResultView</text><line style="stroke: #A80036; stroke-width: 1.5;" x1="1000.5" x2="1105.5" y1="920.5" y2="920.5"/><line style="stroke: #A80036; stroke-width: 1.5;" x1="1000.5" x2="1105.5" y1="928.5" y2="928.5"/><polygon fill="#4177AF" points="1010.5,936.918,1006.5,942.918,1014.5,942.918" style="stroke: #1963A0; stroke-width: 1.0;"/><text fill="#000000" font-family="sans-serif" font-size="11" lengthAdjust="spacingAndGlyphs" textLength="81" x="1019.5" y="943.9189">ResultView(int[])</text><!--class java.awt.GridBagConstraints--><rect fill="#FEFECE" filter="url(#f3uk77y1tmy8l)" height="48" id="java.awt.GridBagConstraints" style="stroke: #A80036; stroke-width: 1.5;" width="141" x="2564.5" y="677"/><ellipse cx="2579.5" cy="693" fill="#ADD1B2" rx="11" ry="11" style="stroke: #A80036; stroke-width: 1.0;"/><path d="M2582.2656,688.875 Q2582.4219,688.6563 2582.6094,688.5469 Q2582.7969,688.4375 2583.0156,688.4375 Q2583.3906,688.4375 2583.625,688.6953 Q2583.8594,688.9531 2583.8594,689.5625 L2583.8594,691.0156 Q2583.8594,691.625 2583.625,691.8906 Q2583.3906,692.1563 2583.0156,692.1563 Q2582.6719,692.1563 2582.4688,691.9531 Q2582.2656,691.7656 2582.1563,691.25 Q2582.1094,690.8906 2581.9219,690.7031 Q2581.5938,690.3281 2580.9844,690.1094 Q2580.375,689.8906 2579.75,689.8906 Q2578.9844,689.8906 2578.3516,690.2188 Q2577.7188,690.5469 2577.2266,691.2969 Q2576.7344,692.0469 2576.7344,693.0781 L2576.7344,694.1719 Q2576.7344,695.4063 2577.625,696.2266 Q2578.5156,697.0469 2580.1094,697.0469 Q2581.0469,697.0469 2581.7031,696.7969 Q2582.0938,696.6406 2582.5156,696.2031 Q2582.7813,695.9375 2582.9297,695.8594 Q2583.0781,695.7813 2583.2813,695.7813 Q2583.6094,695.7813 2583.8672,696.0391 Q2584.125,696.2969 2584.125,696.6406 Q2584.125,696.9844 2583.7813,697.3906 Q2583.2813,697.9688 2582.4844,698.2969 Q2581.4063,698.75 2580.1094,698.75 Q2578.5938,698.75 2577.3906,698.125 Q2576.4063,697.625 2575.7188,696.5547 Q2575.0313,695.4844 2575.0313,694.2031 L2575.0313,693.0469 Q2575.0313,691.7188 2575.6484,690.5703 Q2576.2656,689.4219 2577.3594,688.8047 Q2578.4531,688.1875 2579.6875,688.1875 Q2580.4219,688.1875 2581.0703,688.3516 Q2581.7188,688.5156 2582.2656,688.875 Z "/><text fill="#000000" font-family="sans-serif" font-size="12" lengthAdjust="spacingAndGlyphs" textLength="109" x="2593.5" y="697.9102">GridBagConstraints</text><line style="stroke: #A80036; stroke-width: 1.5;" x1="2565.5" x2="2704.5" y1="709" y2="709"/><line style="stroke: #A80036; stroke-width: 1.5;" x1="2565.5" x2="2704.5" y1="717" y2="717"/><!--class javax.swing.JFrame--><rect fill="#FEFECE" filter="url(#f3uk77y1tmy8l)" height="48" id="javax.swing.JFrame" style="stroke: #A80036; stroke-width: 1.5;" width="74" x="1866" y="677"/><ellipse cx="1881" cy="693" fill="#ADD1B2" rx="11" ry="11" style="stroke: #A80036; stroke-width: 1.0;"/><path d="M1883.7656,688.875 Q1883.9219,688.6563 1884.1094,688.5469 Q1884.2969,688.4375 1884.5156,688.4375 Q1884.8906,688.4375 1885.125,688.6953 Q1885.3594,688.9531 1885.3594,689.5625 L1885.3594,691.0156 Q1885.3594,691.625 1885.125,691.8906 Q1884.8906,692.1563 1884.5156,692.1563 Q1884.1719,692.1563 1883.9688,691.9531 Q1883.7656,691.7656 1883.6563,691.25 Q1883.6094,690.8906 1883.4219,690.7031 Q1883.0938,690.3281 1882.4844,690.1094 Q1881.875,689.8906 1881.25,689.8906 Q1880.4844,689.8906 1879.8516,690.2188 Q1879.2188,690.5469 1878.7266,691.2969 Q1878.2344,692.0469 1878.2344,693.0781 L1878.2344,694.1719 Q1878.2344,695.4063 1879.125,696.2266 Q1880.0156,697.0469 1881.6094,697.0469 Q1882.5469,697.0469 1883.2031,696.7969 Q1883.5938,696.6406 1884.0156,696.2031 Q1884.2813,695.9375 1884.4297,695.8594 Q1884.5781,695.7813 1884.7813,695.7813 Q1885.1094,695.7813 1885.3672,696.0391 Q1885.625,696.2969 1885.625,696.6406 Q1885.625,696.9844 1885.2813,697.3906 Q1884.7813,697.9688 1883.9844,698.2969 Q1882.9063,698.75 1881.6094,698.75 Q1880.0938,698.75 1878.8906,698.125 Q1877.9063,697.625 1877.2188,696.5547 Q1876.5313,695.4844 1876.5313,694.2031 L1876.5313,693.0469 Q1876.5313,691.7188 1877.1484,690.5703 Q1877.7656,689.4219 1878.8594,688.8047 Q1879.9531,688.1875 1881.1875,688.1875 Q1881.9219,688.1875 1882.5703,688.3516 Q1883.2188,688.5156 1883.7656,688.875 Z "/><text fill="#000000" font-family="sans-serif" font-size="12" lengthAdjust="spacingAndGlyphs" textLength="42" x="1895" y="697.9102">JFrame</text><line style="stroke: #A80036; stroke-width: 1.5;" x1="1867" x2="1939" y1="709" y2="709"/><line style="stroke: #A80036; stroke-width: 1.5;" x1="1867" x2="1939" y1="717" y2="717"/><!--class javax.swing.JPanel--><rect fill="#FEFECE" filter="url(#f3uk77y1tmy8l)" height="48" id="javax.swing.JPanel" style="stroke: #A80036; stroke-width: 1.5;" width="70" x="1975" y="677"/><ellipse cx="1990" cy="693" fill="#ADD1B2" rx="11" ry="11" style="stroke: #A80036; stroke-width: 1.0;"/><path d="M1992.7656,688.875 Q1992.9219,688.6563 1993.1094,688.5469 Q1993.2969,688.4375 1993.5156,688.4375 Q1993.8906,688.4375 1994.125,688.6953 Q1994.3594,688.9531 1994.3594,689.5625 L1994.3594,691.0156 Q1994.3594,691.625 1994.125,691.8906 Q1993.8906,692.1563 1993.5156,692.1563 Q1993.1719,692.1563 1992.9688,691.9531 Q1992.7656,691.7656 1992.6563,691.25 Q1992.6094,690.8906 1992.4219,690.7031 Q1992.0938,690.3281 1991.4844,690.1094 Q1990.875,689.8906 1990.25,689.8906 Q1989.4844,689.8906 1988.8516,690.2188 Q1988.2188,690.5469 1987.7266,691.2969 Q1987.2344,692.0469 1987.2344,693.0781 L1987.2344,694.1719 Q1987.2344,695.4063 1988.125,696.2266 Q1989.0156,697.0469 1990.6094,697.0469 Q1991.5469,697.0469 1992.2031,696.7969 Q1992.5938,696.6406 1993.0156,696.2031 Q1993.2813,695.9375 1993.4297,695.8594 Q1993.5781,695.7813 1993.7813,695.7813 Q1994.1094,695.7813 1994.3672,696.0391 Q1994.625,696.2969 1994.625,696.6406 Q1994.625,696.9844 1994.2813,697.3906 Q1993.7813,697.9688 1992.9844,698.2969 Q1991.9063,698.75 1990.6094,698.75 Q1989.0938,698.75 1987.8906,698.125 Q1986.9063,697.625 1986.2188,696.5547 Q1985.5313,695.4844 1985.5313,694.2031 L1985.5313,693.0469 Q1985.5313,691.7188 1986.1484,690.5703 Q1986.7656,689.4219 1987.8594,688.8047 Q1988.9531,688.1875 1990.1875,688.1875 Q1990.9219,688.1875 1991.5703,688.3516 Q1992.2188,688.5156 1992.7656,688.875 Z "/><text fill="#000000" font-family="sans-serif" font-size="12" lengthAdjust="spacingAndGlyphs" textLength="38" x="2004" y="697.9102">JPanel</text><line style="stroke: #A80036; stroke-width: 1.5;" x1="1976" x2="2044" y1="709" y2="709"/><line style="stroke: #A80036; stroke-width: 1.5;" x1="1976" x2="2044" y1="717" y2="717"/><!--class javax.swing.JButton--><rect fill="#FEFECE" filter="url(#f3uk77y1tmy8l)" height="48" id="javax.swing.JButton" style="stroke: #A80036; stroke-width: 1.5;" width="73" x="2080.5" y="677"/><ellipse cx="2095.5" cy="693" fill="#ADD1B2" rx="11" ry="11" style="stroke: #A80036; stroke-width: 1.0;"/><path d="M2098.2656,688.875 Q2098.4219,688.6563 2098.6094,688.5469 Q2098.7969,688.4375 2099.0156,688.4375 Q2099.3906,688.4375 2099.625,688.6953 Q2099.8594,688.9531 2099.8594,689.5625 L2099.8594,691.0156 Q2099.8594,691.625 2099.625,691.8906 Q2099.3906,692.1563 2099.0156,692.1563 Q2098.6719,692.1563 2098.4688,691.9531 Q2098.2656,691.7656 2098.1563,691.25 Q2098.1094,690.8906 2097.9219,690.7031 Q2097.5938,690.3281 2096.9844,690.1094 Q2096.375,689.8906 2095.75,689.8906 Q2094.9844,689.8906 2094.3516,690.2188 Q2093.7188,690.5469 2093.2266,691.2969 Q2092.7344,692.0469 2092.7344,693.0781 L2092.7344,694.1719 Q2092.7344,695.4063 2093.625,696.2266 Q2094.5156,697.0469 2096.1094,697.0469 Q2097.0469,697.0469 2097.7031,696.7969 Q2098.0938,696.6406 2098.5156,696.2031 Q2098.7813,695.9375 2098.9297,695.8594 Q2099.0781,695.7813 2099.2813,695.7813 Q2099.6094,695.7813 2099.8672,696.0391 Q2100.125,696.2969 2100.125,696.6406 Q2100.125,696.9844 2099.7813,697.3906 Q2099.2813,697.9688 2098.4844,698.2969 Q2097.4063,698.75 2096.1094,698.75 Q2094.5938,698.75 2093.3906,698.125 Q2092.4063,697.625 2091.7188,696.5547 Q2091.0313,695.4844 2091.0313,694.2031 L2091.0313,693.0469 Q2091.0313,691.7188 2091.6484,690.5703 Q2092.2656,689.4219 2093.3594,688.8047 Q2094.4531,688.1875 2095.6875,688.1875 Q2096.4219,688.1875 2097.0703,688.3516 Q2097.7188,688.5156 2098.2656,688.875 Z "/><text fill="#000000" font-family="sans-serif" font-size="12" lengthAdjust="spacingAndGlyphs" textLength="41" x="2109.5" y="697.9102">JButton</text><line style="stroke: #A80036; stroke-width: 1.5;" x1="2081.5" x2="2152.5" y1="709" y2="709"/><line style="stroke: #A80036; stroke-width: 1.5;" x1="2081.5" x2="2152.5" y1="717" y2="717"/><!--class javax.swing.JTextField--><rect fill="#FEFECE" filter="url(#f3uk77y1tmy8l)" height="48" id="javax.swing.JTextField" style="stroke: #A80036; stroke-width: 1.5;" width="87" x="2316.5" y="677"/><ellipse cx="2331.5" cy="693" fill="#ADD1B2" rx="11" ry="11" style="stroke: #A80036; stroke-width: 1.0;"/><path d="M2334.2656,688.875 Q2334.4219,688.6563 2334.6094,688.5469 Q2334.7969,688.4375 2335.0156,688.4375 Q2335.3906,688.4375 2335.625,688.6953 Q2335.8594,688.9531 2335.8594,689.5625 L2335.8594,691.0156 Q2335.8594,691.625 2335.625,691.8906 Q2335.3906,692.1563 2335.0156,692.1563 Q2334.6719,692.1563 2334.4688,691.9531 Q2334.2656,691.7656 2334.1563,691.25 Q2334.1094,690.8906 2333.9219,690.7031 Q2333.5938,690.3281 2332.9844,690.1094 Q2332.375,689.8906 2331.75,689.8906 Q2330.9844,689.8906 2330.3516,690.2188 Q2329.7188,690.5469 2329.2266,691.2969 Q2328.7344,692.0469 2328.7344,693.0781 L2328.7344,694.1719 Q2328.7344,695.4063 2329.625,696.2266 Q2330.5156,697.0469 2332.1094,697.0469 Q2333.0469,697.0469 2333.7031,696.7969 Q2334.0938,696.6406 2334.5156,696.2031 Q2334.7813,695.9375 2334.9297,695.8594 Q2335.0781,695.7813 2335.2813,695.7813 Q2335.6094,695.7813 2335.8672,696.0391 Q2336.125,696.2969 2336.125,696.6406 Q2336.125,696.9844 2335.7813,697.3906 Q2335.2813,697.9688 2334.4844,698.2969 Q2333.4063,698.75 2332.1094,698.75 Q2330.5938,698.75 2329.3906,698.125 Q2328.4063,697.625 2327.7188,696.5547 Q2327.0313,695.4844 2327.0313,694.2031 L2327.0313,693.0469 Q2327.0313,691.7188 2327.6484,690.5703 Q2328.2656,689.4219 2329.3594,688.8047 Q2330.4531,688.1875 2331.6875,688.1875 Q2332.4219,688.1875 2333.0703,688.3516 Q2333.7188,688.5156 2334.2656,688.875 Z "/><text fill="#000000" font-family="sans-serif" font-size="12" lengthAdjust="spacingAndGlyphs" textLength="55" x="2345.5" y="697.9102">JTextField</text><line style="stroke: #A80036; stroke-width: 1.5;" x1="2317.5" x2="2402.5" y1="709" y2="709"/><line style="stroke: #A80036; stroke-width: 1.5;" x1="2317.5" x2="2402.5" y1="717" y2="717"/><!--class javax.swing.JLabel--><rect fill="#FEFECE" filter="url(#f3uk77y1tmy8l)" height="48" id="javax.swing.JLabel" style="stroke: #A80036; stroke-width: 1.5;" width="69" x="2438.5" y="677"/><ellipse cx="2453.5" cy="693" fill="#ADD1B2" rx="11" ry="11" style="stroke: #A80036; stroke-width: 1.0;"/><path d="M2456.2656,688.875 Q2456.4219,688.6563 2456.6094,688.5469 Q2456.7969,688.4375 2457.0156,688.4375 Q2457.3906,688.4375 2457.625,688.6953 Q2457.8594,688.9531 2457.8594,689.5625 L2457.8594,691.0156 Q2457.8594,691.625 2457.625,691.8906 Q2457.3906,692.1563 2457.0156,692.1563 Q2456.6719,692.1563 2456.4688,691.9531 Q2456.2656,691.7656 2456.1563,691.25 Q2456.1094,690.8906 2455.9219,690.7031 Q2455.5938,690.3281 2454.9844,690.1094 Q2454.375,689.8906 2453.75,689.8906 Q2452.9844,689.8906 2452.3516,690.2188 Q2451.7188,690.5469 2451.2266,691.2969 Q2450.7344,692.0469 2450.7344,693.0781 L2450.7344,694.1719 Q2450.7344,695.4063 2451.625,696.2266 Q2452.5156,697.0469 2454.1094,697.0469 Q2455.0469,697.0469 2455.7031,696.7969 Q2456.0938,696.6406 2456.5156,696.2031 Q2456.7813,695.9375 2456.9297,695.8594 Q2457.0781,695.7813 2457.2813,695.7813 Q2457.6094,695.7813 2457.8672,696.0391 Q2458.125,696.2969 2458.125,696.6406 Q2458.125,696.9844 2457.7813,697.3906 Q2457.2813,697.9688 2456.4844,698.2969 Q2455.4063,698.75 2454.1094,698.75 Q2452.5938,698.75 2451.3906,698.125 Q2450.4063,697.625 2449.7188,696.5547 Q2449.0313,695.4844 2449.0313,694.2031 L2449.0313,693.0469 Q2449.0313,691.7188 2449.6484,690.5703 Q2450.2656,689.4219 2451.3594,688.8047 Q2452.4531,688.1875 2453.6875,688.1875 Q2454.4219,688.1875 2455.0703,688.3516 Q2455.7188,688.5156 2456.2656,688.875 Z "/><text fill="#000000" font-family="sans-serif" font-size="12" lengthAdjust="spacingAndGlyphs" textLength="37" x="2467.5" y="697.9102">JLabel</text><line style="stroke: #A80036; stroke-width: 1.5;" x1="2439.5" x2="2506.5" y1="709" y2="709"/><line style="stroke: #A80036; stroke-width: 1.5;" x1="2439.5" x2="2506.5" y1="717" y2="717"/><!--class javax.swing.JRootPane--><rect fill="#FEFECE" filter="url(#f3uk77y1tmy8l)" height="48" id="javax.swing.JRootPane" style="stroke: #A80036; stroke-width: 1.5;" width="93" x="2188.5" y="677"/><ellipse cx="2203.5" cy="693" fill="#ADD1B2" rx="11" ry="11" style="stroke: #A80036; stroke-width: 1.0;"/><path d="M2206.2656,688.875 Q2206.4219,688.6563 2206.6094,688.5469 Q2206.7969,688.4375 2207.0156,688.4375 Q2207.3906,688.4375 2207.625,688.6953 Q2207.8594,688.9531 2207.8594,689.5625 L2207.8594,691.0156 Q2207.8594,691.625 2207.625,691.8906 Q2207.3906,692.1563 2207.0156,692.1563 Q2206.6719,692.1563 2206.4688,691.9531 Q2206.2656,691.7656 2206.1563,691.25 Q2206.1094,690.8906 2205.9219,690.7031 Q2205.5938,690.3281 2204.9844,690.1094 Q2204.375,689.8906 2203.75,689.8906 Q2202.9844,689.8906 2202.3516,690.2188 Q2201.7188,690.5469 2201.2266,691.2969 Q2200.7344,692.0469 2200.7344,693.0781 L2200.7344,694.1719 Q2200.7344,695.4063 2201.625,696.2266 Q2202.5156,697.0469 2204.1094,697.0469 Q2205.0469,697.0469 2205.7031,696.7969 Q2206.0938,696.6406 2206.5156,696.2031 Q2206.7813,695.9375 2206.9297,695.8594 Q2207.0781,695.7813 2207.2813,695.7813 Q2207.6094,695.7813 2207.8672,696.0391 Q2208.125,696.2969 2208.125,696.6406 Q2208.125,696.9844 2207.7813,697.3906 Q2207.2813,697.9688 2206.4844,698.2969 Q2205.4063,698.75 2204.1094,698.75 Q2202.5938,698.75 2201.3906,698.125 Q2200.4063,697.625 2199.7188,696.5547 Q2199.0313,695.4844 2199.0313,694.2031 L2199.0313,693.0469 Q2199.0313,691.7188 2199.6484,690.5703 Q2200.2656,689.4219 2201.3594,688.8047 Q2202.4531,688.1875 2203.6875,688.1875 Q2204.4219,688.1875 2205.0703,688.3516 Q2205.7188,688.5156 2206.2656,688.875 Z "/><text fill="#000000" font-family="sans-serif" font-size="12" lengthAdjust="spacingAndGlyphs" textLength="61" x="2217.5" y="697.9102">JRootPane</text><line style="stroke: #A80036; stroke-width: 1.5;" x1="2189.5" x2="2280.5" y1="709" y2="709"/><line style="stroke: #A80036; stroke-width: 1.5;" x1="2189.5" x2="2280.5" y1="717" y2="717"/><!--class mastermind.controllers.ProposalController--><rect fill="#FEFECE" filter="url(#f3uk77y1tmy8l)" height="48" id="mastermind.controllers.ProposalController" style="stroke: #A80036; stroke-width: 1.5;" width="136" x="1674" y="677"/><ellipse cx="1689" cy="693" fill="#ADD1B2" rx="11" ry="11" style="stroke: #A80036; stroke-width: 1.0;"/><path d="M1691.7656,688.875 Q1691.9219,688.6563 1692.1094,688.5469 Q1692.2969,688.4375 1692.5156,688.4375 Q1692.8906,688.4375 1693.125,688.6953 Q1693.3594,688.9531 1693.3594,689.5625 L1693.3594,691.0156 Q1693.3594,691.625 1693.125,691.8906 Q1692.8906,692.1563 1692.5156,692.1563 Q1692.1719,692.1563 1691.9688,691.9531 Q1691.7656,691.7656 1691.6563,691.25 Q1691.6094,690.8906 1691.4219,690.7031 Q1691.0938,690.3281 1690.4844,690.1094 Q1689.875,689.8906 1689.25,689.8906 Q1688.4844,689.8906 1687.8516,690.2188 Q1687.2188,690.5469 1686.7266,691.2969 Q1686.2344,692.0469 1686.2344,693.0781 L1686.2344,694.1719 Q1686.2344,695.4063 1687.125,696.2266 Q1688.0156,697.0469 1689.6094,697.0469 Q1690.5469,697.0469 1691.2031,696.7969 Q1691.5938,696.6406 1692.0156,696.2031 Q1692.2813,695.9375 1692.4297,695.8594 Q1692.5781,695.7813 1692.7813,695.7813 Q1693.1094,695.7813 1693.3672,696.0391 Q1693.625,696.2969 1693.625,696.6406 Q1693.625,696.9844 1693.2813,697.3906 Q1692.7813,697.9688 1691.9844,698.2969 Q1690.9063,698.75 1689.6094,698.75 Q1688.0938,698.75 1686.8906,698.125 Q1685.9063,697.625 1685.2188,696.5547 Q1684.5313,695.4844 1684.5313,694.2031 L1684.5313,693.0469 Q1684.5313,691.7188 1685.1484,690.5703 Q1685.7656,689.4219 1686.8594,688.8047 Q1687.9531,688.1875 1689.1875,688.1875 Q1689.9219,688.1875 1690.5703,688.3516 Q1691.2188,688.5156 1691.7656,688.875 Z "/><text fill="#000000" font-family="sans-serif" font-size="12" lengthAdjust="spacingAndGlyphs" textLength="104" x="1703" y="697.9102">ProposalController</text><line style="stroke: #A80036; stroke-width: 1.5;" x1="1675" x2="1809" y1="709" y2="709"/><line style="stroke: #A80036; stroke-width: 1.5;" x1="1675" x2="1809" y1="717" y2="717"/><!--class mastermind.controllers.StartController--><rect fill="#FEFECE" filter="url(#f3uk77y1tmy8l)" height="48" id="mastermind.controllers.StartController" style="stroke: #A80036; stroke-width: 1.5;" width="111" x="1527.5" y="677"/><ellipse cx="1542.5" cy="693" fill="#ADD1B2" rx="11" ry="11" style="stroke: #A80036; stroke-width: 1.0;"/><path d="M1545.2656,688.875 Q1545.4219,688.6563 1545.6094,688.5469 Q1545.7969,688.4375 1546.0156,688.4375 Q1546.3906,688.4375 1546.625,688.6953 Q1546.8594,688.9531 1546.8594,689.5625 L1546.8594,691.0156 Q1546.8594,691.625 1546.625,691.8906 Q1546.3906,692.1563 1546.0156,692.1563 Q1545.6719,692.1563 1545.4688,691.9531 Q1545.2656,691.7656 1545.1563,691.25 Q1545.1094,690.8906 1544.9219,690.7031 Q1544.5938,690.3281 1543.9844,690.1094 Q1543.375,689.8906 1542.75,689.8906 Q1541.9844,689.8906 1541.3516,690.2188 Q1540.7188,690.5469 1540.2266,691.2969 Q1539.7344,692.0469 1539.7344,693.0781 L1539.7344,694.1719 Q1539.7344,695.4063 1540.625,696.2266 Q1541.5156,697.0469 1543.1094,697.0469 Q1544.0469,697.0469 1544.7031,696.7969 Q1545.0938,696.6406 1545.5156,696.2031 Q1545.7813,695.9375 1545.9297,695.8594 Q1546.0781,695.7813 1546.2813,695.7813 Q1546.6094,695.7813 1546.8672,696.0391 Q1547.125,696.2969 1547.125,696.6406 Q1547.125,696.9844 1546.7813,697.3906 Q1546.2813,697.9688 1545.4844,698.2969 Q1544.4063,698.75 1543.1094,698.75 Q1541.5938,698.75 1540.3906,698.125 Q1539.4063,697.625 1538.7188,696.5547 Q1538.0313,695.4844 1538.0313,694.2031 L1538.0313,693.0469 Q1538.0313,691.7188 1538.6484,690.5703 Q1539.2656,689.4219 1540.3594,688.8047 Q1541.4531,688.1875 1542.6875,688.1875 Q1543.4219,688.1875 1544.0703,688.3516 Q1544.7188,688.5156 1545.2656,688.875 Z "/><text fill="#000000" font-family="sans-serif" font-size="12" lengthAdjust="spacingAndGlyphs" textLength="79" x="1556.5" y="697.9102">StartController</text><line style="stroke: #A80036; stroke-width: 1.5;" x1="1528.5" x2="1637.5" y1="709" y2="709"/><line style="stroke: #A80036; stroke-width: 1.5;" x1="1528.5" x2="1637.5" y1="717" y2="717"/><!--class mastermind.views.View--><rect fill="#FEFECE" filter="url(#f3uk77y1tmy8l)" height="48" id="mastermind.views.View" style="stroke: #A80036; stroke-width: 1.5;" width="58" x="1248" y="60"/><ellipse cx="1263" cy="76" fill="#ADD1B2" rx="11" ry="11" style="stroke: #A80036; stroke-width: 1.0;"/><path d="M1265.7656,71.875 Q1265.9219,71.6563 1266.1094,71.5469 Q1266.2969,71.4375 1266.5156,71.4375 Q1266.8906,71.4375 1267.125,71.6953 Q1267.3594,71.9531 1267.3594,72.5625 L1267.3594,74.0156 Q1267.3594,74.625 1267.125,74.8906 Q1266.8906,75.1563 1266.5156,75.1563 Q1266.1719,75.1563 1265.9688,74.9531 Q1265.7656,74.7656 1265.6563,74.25 Q1265.6094,73.8906 1265.4219,73.7031 Q1265.0938,73.3281 1264.4844,73.1094 Q1263.875,72.8906 1263.25,72.8906 Q1262.4844,72.8906 1261.8516,73.2188 Q1261.2188,73.5469 1260.7266,74.2969 Q1260.2344,75.0469 1260.2344,76.0781 L1260.2344,77.1719 Q1260.2344,78.4063 1261.125,79.2266 Q1262.0156,80.0469 1263.6094,80.0469 Q1264.5469,80.0469 1265.2031,79.7969 Q1265.5938,79.6406 1266.0156,79.2031 Q1266.2813,78.9375 1266.4297,78.8594 Q1266.5781,78.7813 1266.7813,78.7813 Q1267.1094,78.7813 1267.3672,79.0391 Q1267.625,79.2969 1267.625,79.6406 Q1267.625,79.9844 1267.2813,80.3906 Q1266.7813,80.9688 1265.9844,81.2969 Q1264.9063,81.75 1263.6094,81.75 Q1262.0938,81.75 1260.8906,81.125 Q1259.9063,80.625 1259.2188,79.5547 Q1258.5313,78.4844 1258.5313,77.2031 L1258.5313,76.0469 Q1258.5313,74.7188 1259.1484,73.5703 Q1259.7656,72.4219 1260.8594,71.8047 Q1261.9531,71.1875 1263.1875,71.1875 Q1263.9219,71.1875 1264.5703,71.3516 Q1265.2188,71.5156 1265.7656,71.875 Z "/><text fill="#000000" font-family="sans-serif" font-size="12" lengthAdjust="spacingAndGlyphs" textLength="26" x="1277" y="80.9102">View</text><line style="stroke: #A80036; stroke-width: 1.5;" x1="1249" x2="1305" y1="92" y2="92"/><line style="stroke: #A80036; stroke-width: 1.5;" x1="1249" x2="1305" y1="100" y2="100"/><!--class java.awt.event.KeyListener--><rect fill="#FEFECE" filter="url(#f3uk77y1tmy8l)" height="48" id="java.awt.event.KeyListener" style="stroke: #A80036; stroke-width: 1.5;" width="97" x="360.5" y="895.5"/><ellipse cx="375.5" cy="911.5" fill="#ADD1B2" rx="11" ry="11" style="stroke: #A80036; stroke-width: 1.0;"/><path d="M378.2656,907.375 Q378.4219,907.1563 378.6094,907.0469 Q378.7969,906.9375 379.0156,906.9375 Q379.3906,906.9375 379.625,907.1953 Q379.8594,907.4531 379.8594,908.0625 L379.8594,909.5156 Q379.8594,910.125 379.625,910.3906 Q379.3906,910.6563 379.0156,910.6563 Q378.6719,910.6563 378.4688,910.4531 Q378.2656,910.2656 378.1563,909.75 Q378.1094,909.3906 377.9219,909.2031 Q377.5938,908.8281 376.9844,908.6094 Q376.375,908.3906 375.75,908.3906 Q374.9844,908.3906 374.3516,908.7188 Q373.7188,909.0469 373.2266,909.7969 Q372.7344,910.5469 372.7344,911.5781 L372.7344,912.6719 Q372.7344,913.9063 373.625,914.7266 Q374.5156,915.5469 376.1094,915.5469 Q377.0469,915.5469 377.7031,915.2969 Q378.0938,915.1406 378.5156,914.7031 Q378.7813,914.4375 378.9297,914.3594 Q379.0781,914.2813 379.2813,914.2813 Q379.6094,914.2813 379.8672,914.5391 Q380.125,914.7969 380.125,915.1406 Q380.125,915.4844 379.7813,915.8906 Q379.2813,916.4688 378.4844,916.7969 Q377.4063,917.25 376.1094,917.25 Q374.5938,917.25 373.3906,916.625 Q372.4063,916.125 371.7188,915.0547 Q371.0313,913.9844 371.0313,912.7031 L371.0313,911.5469 Q371.0313,910.2188 371.6484,909.0703 Q372.2656,907.9219 373.3594,907.3047 Q374.4531,906.6875 375.6875,906.6875 Q376.4219,906.6875 377.0703,906.8516 Q377.7188,907.0156 378.2656,907.375 Z "/><text fill="#000000" font-family="sans-serif" font-size="12" lengthAdjust="spacingAndGlyphs" textLength="65" x="389.5" y="916.4102">KeyListener</text><line style="stroke: #A80036; stroke-width: 1.5;" x1="361.5" x2="456.5" y1="927.5" y2="927.5"/><line style="stroke: #A80036; stroke-width: 1.5;" x1="361.5" x2="456.5" y1="935.5" y2="935.5"/><!--class java.awt.event.ActionListener--><rect fill="#FEFECE" filter="url(#f3uk77y1tmy8l)" height="48" id="java.awt.event.ActionListener" style="stroke: #A80036; stroke-width: 1.5;" width="110" x="215" y="895.5"/><ellipse cx="230" cy="911.5" fill="#ADD1B2" rx="11" ry="11" style="stroke: #A80036; stroke-width: 1.0;"/><path d="M232.7656,907.375 Q232.9219,907.1563 233.1094,907.0469 Q233.2969,906.9375 233.5156,906.9375 Q233.8906,906.9375 234.125,907.1953 Q234.3594,907.4531 234.3594,908.0625 L234.3594,909.5156 Q234.3594,910.125 234.125,910.3906 Q233.8906,910.6563 233.5156,910.6563 Q233.1719,910.6563 232.9688,910.4531 Q232.7656,910.2656 232.6563,909.75 Q232.6094,909.3906 232.4219,909.2031 Q232.0938,908.8281 231.4844,908.6094 Q230.875,908.3906 230.25,908.3906 Q229.4844,908.3906 228.8516,908.7188 Q228.2188,909.0469 227.7266,909.7969 Q227.2344,910.5469 227.2344,911.5781 L227.2344,912.6719 Q227.2344,913.9063 228.125,914.7266 Q229.0156,915.5469 230.6094,915.5469 Q231.5469,915.5469 232.2031,915.2969 Q232.5938,915.1406 233.0156,914.7031 Q233.2813,914.4375 233.4297,914.3594 Q233.5781,914.2813 233.7813,914.2813 Q234.1094,914.2813 234.3672,914.5391 Q234.625,914.7969 234.625,915.1406 Q234.625,915.4844 234.2813,915.8906 Q233.7813,916.4688 232.9844,916.7969 Q231.9063,917.25 230.6094,917.25 Q229.0938,917.25 227.8906,916.625 Q226.9063,916.125 226.2188,915.0547 Q225.5313,913.9844 225.5313,912.7031 L225.5313,911.5469 Q225.5313,910.2188 226.1484,909.0703 Q226.7656,907.9219 227.8594,907.3047 Q228.9531,906.6875 230.1875,906.6875 Q230.9219,906.6875 231.5703,906.8516 Q232.2188,907.0156 232.7656,907.375 Z "/><text fill="#000000" font-family="sans-serif" font-size="12" lengthAdjust="spacingAndGlyphs" textLength="78" x="244" y="916.4102">ActionListener</text><line style="stroke: #A80036; stroke-width: 1.5;" x1="216" x2="324" y1="927.5" y2="927.5"/><line style="stroke: #A80036; stroke-width: 1.5;" x1="216" x2="324" y1="935.5" y2="935.5"/><!--class java.awt.event.KeyEvent--><rect fill="#FEFECE" filter="url(#f3uk77y1tmy8l)" height="48" id="java.awt.event.KeyEvent" style="stroke: #A80036; stroke-width: 1.5;" width="82" x="623" y="895.5"/><ellipse cx="638" cy="911.5" fill="#ADD1B2" rx="11" ry="11" style="stroke: #A80036; stroke-width: 1.0;"/><path d="M640.7656,907.375 Q640.9219,907.1563 641.1094,907.0469 Q641.2969,906.9375 641.5156,906.9375 Q641.8906,906.9375 642.125,907.1953 Q642.3594,907.4531 642.3594,908.0625 L642.3594,909.5156 Q642.3594,910.125 642.125,910.3906 Q641.8906,910.6563 641.5156,910.6563 Q641.1719,910.6563 640.9688,910.4531 Q640.7656,910.2656 640.6563,909.75 Q640.6094,909.3906 640.4219,909.2031 Q640.0938,908.8281 639.4844,908.6094 Q638.875,908.3906 638.25,908.3906 Q637.4844,908.3906 636.8516,908.7188 Q636.2188,909.0469 635.7266,909.7969 Q635.2344,910.5469 635.2344,911.5781 L635.2344,912.6719 Q635.2344,913.9063 636.125,914.7266 Q637.0156,915.5469 638.6094,915.5469 Q639.5469,915.5469 640.2031,915.2969 Q640.5938,915.1406 641.0156,914.7031 Q641.2813,914.4375 641.4297,914.3594 Q641.5781,914.2813 641.7813,914.2813 Q642.1094,914.2813 642.3672,914.5391 Q642.625,914.7969 642.625,915.1406 Q642.625,915.4844 642.2813,915.8906 Q641.7813,916.4688 640.9844,916.7969 Q639.9063,917.25 638.6094,917.25 Q637.0938,917.25 635.8906,916.625 Q634.9063,916.125 634.2188,915.0547 Q633.5313,913.9844 633.5313,912.7031 L633.5313,911.5469 Q633.5313,910.2188 634.1484,909.0703 Q634.7656,907.9219 635.8594,907.3047 Q636.9531,906.6875 638.1875,906.6875 Q638.9219,906.6875 639.5703,906.8516 Q640.2188,907.0156 640.7656,907.375 Z "/><text fill="#000000" font-family="sans-serif" font-size="12" lengthAdjust="spacingAndGlyphs" textLength="50" x="652" y="916.4102">KeyEvent</text><line style="stroke: #A80036; stroke-width: 1.5;" x1="624" x2="704" y1="927.5" y2="927.5"/><line style="stroke: #A80036; stroke-width: 1.5;" x1="624" x2="704" y1="935.5" y2="935.5"/><!--class java.awt.event.ActionEvent--><rect fill="#FEFECE" filter="url(#f3uk77y1tmy8l)" height="48" id="java.awt.event.ActionEvent" style="stroke: #A80036; stroke-width: 1.5;" width="95" x="492.5" y="895.5"/><ellipse cx="507.5" cy="911.5" fill="#ADD1B2" rx="11" ry="11" style="stroke: #A80036; stroke-width: 1.0;"/><path d="M510.2656,907.375 Q510.4219,907.1563 510.6094,907.0469 Q510.7969,906.9375 511.0156,906.9375 Q511.3906,906.9375 511.625,907.1953 Q511.8594,907.4531 511.8594,908.0625 L511.8594,909.5156 Q511.8594,910.125 511.625,910.3906 Q511.3906,910.6563 511.0156,910.6563 Q510.6719,910.6563 510.4688,910.4531 Q510.2656,910.2656 510.1563,909.75 Q510.1094,909.3906 509.9219,909.2031 Q509.5938,908.8281 508.9844,908.6094 Q508.375,908.3906 507.75,908.3906 Q506.9844,908.3906 506.3516,908.7188 Q505.7188,909.0469 505.2266,909.7969 Q504.7344,910.5469 504.7344,911.5781 L504.7344,912.6719 Q504.7344,913.9063 505.625,914.7266 Q506.5156,915.5469 508.1094,915.5469 Q509.0469,915.5469 509.7031,915.2969 Q510.0938,915.1406 510.5156,914.7031 Q510.7813,914.4375 510.9297,914.3594 Q511.0781,914.2813 511.2813,914.2813 Q511.6094,914.2813 511.8672,914.5391 Q512.125,914.7969 512.125,915.1406 Q512.125,915.4844 511.7813,915.8906 Q511.2813,916.4688 510.4844,916.7969 Q509.4063,917.25 508.1094,917.25 Q506.5938,917.25 505.3906,916.625 Q504.4063,916.125 503.7188,915.0547 Q503.0313,913.9844 503.0313,912.7031 L503.0313,911.5469 Q503.0313,910.2188 503.6484,909.0703 Q504.2656,907.9219 505.3594,907.3047 Q506.4531,906.6875 507.6875,906.6875 Q508.4219,906.6875 509.0703,906.8516 Q509.7188,907.0156 510.2656,907.375 Z "/><text fill="#000000" font-family="sans-serif" font-size="12" lengthAdjust="spacingAndGlyphs" textLength="63" x="521.5" y="916.4102">ActionEvent</text><line style="stroke: #A80036; stroke-width: 1.5;" x1="493.5" x2="586.5" y1="927.5" y2="927.5"/><line style="stroke: #A80036; stroke-width: 1.5;" x1="493.5" x2="586.5" y1="935.5" y2="935.5"/><!--class mastermind.models.Game--><rect fill="#FEFECE" filter="url(#f3uk77y1tmy8l)" height="48" id="mastermind.models.Game" style="stroke: #A80036; stroke-width: 1.5;" width="66" x="93" y="895.5"/><ellipse cx="108" cy="911.5" fill="#ADD1B2" rx="11" ry="11" style="stroke: #A80036; stroke-width: 1.0;"/><path d="M110.7656,907.375 Q110.9219,907.1563 111.1094,907.0469 Q111.2969,906.9375 111.5156,906.9375 Q111.8906,906.9375 112.125,907.1953 Q112.3594,907.4531 112.3594,908.0625 L112.3594,909.5156 Q112.3594,910.125 112.125,910.3906 Q111.8906,910.6563 111.5156,910.6563 Q111.1719,910.6563 110.9688,910.4531 Q110.7656,910.2656 110.6563,909.75 Q110.6094,909.3906 110.4219,909.2031 Q110.0938,908.8281 109.4844,908.6094 Q108.875,908.3906 108.25,908.3906 Q107.4844,908.3906 106.8516,908.7188 Q106.2188,909.0469 105.7266,909.7969 Q105.2344,910.5469 105.2344,911.5781 L105.2344,912.6719 Q105.2344,913.9063 106.125,914.7266 Q107.0156,915.5469 108.6094,915.5469 Q109.5469,915.5469 110.2031,915.2969 Q110.5938,915.1406 111.0156,914.7031 Q111.2813,914.4375 111.4297,914.3594 Q111.5781,914.2813 111.7813,914.2813 Q112.1094,914.2813 112.3672,914.5391 Q112.625,914.7969 112.625,915.1406 Q112.625,915.4844 112.2813,915.8906 Q111.7813,916.4688 110.9844,916.7969 Q109.9063,917.25 108.6094,917.25 Q107.0938,917.25 105.8906,916.625 Q104.9063,916.125 104.2188,915.0547 Q103.5313,913.9844 103.5313,912.7031 L103.5313,911.5469 Q103.5313,910.2188 104.1484,909.0703 Q104.7656,907.9219 105.8594,907.3047 Q106.9531,906.6875 108.1875,906.6875 Q108.9219,906.6875 109.5703,906.8516 Q110.2188,907.0156 110.7656,907.375 Z "/><text fill="#000000" font-family="sans-serif" font-size="12" lengthAdjust="spacingAndGlyphs" textLength="34" x="122" y="916.4102">Game</text><line style="stroke: #A80036; stroke-width: 1.5;" x1="94" x2="158" y1="927.5" y2="927.5"/><line style="stroke: #A80036; stroke-width: 1.5;" x1="94" x2="158" y1="935.5" y2="935.5"/><!--link java.awt.GridBagConstraints to mastermind.views.graphics.Constraints--><path d="M2606.31,741.354 C2586.27,765.413 2557.21,794.145 2524,808 C2365.82,874.001 1144.36,796.566 982,851.5 C959.38,859.153 937.532,874.353 920.702,888.343 " fill="none" id="java.awt.GridBagConstraints-mastermind.views.graphics.Constraints" style="stroke: #A80036; stroke-width: 1.0;"/><polygon fill="none" points="2601.09,736.678,2618.97,725.314,2612.08,745.351,2601.09,736.678" style="stroke: #A80036; stroke-width: 1.0;"/><!--link javax.swing.JFrame to mastermind.views.graphics.GameView--><path d="M1883.84,658.949 C1870.87,635.932 1851.44,608.926 1826,594 C1631.43,479.859 1538.02,598.99 1322,534 C1316.15,532.239 1310.25,530.286 1304.35,528.178 " fill="none" id="javax.swing.JFrame-mastermind.views.graphics.GameView" style="stroke: #A80036; stroke-width: 1.0;"/><polygon fill="none" points="1890.21,656.017,1893.22,676.992,1877.79,662.471,1890.21,656.017" style="stroke: #A80036; stroke-width: 1.0;"/><!--link mastermind.views.graphics.GameView to mastermind.views.graphics.ProposedCombinationsView--><path d="M1223.75,545.004 C1251.06,581.73 1280.99,621.981 1303.5,652.258 " fill="none" id="mastermind.views.graphics.GameView-mastermind.views.graphics.ProposedCombinationsView" style="stroke: #A80036; stroke-width: 1.0;"/><polygon fill="#A80036" points="1311.44,662.937,1309.2851,653.3268,1308.4588,658.9229,1302.8627,658.0966,1311.44,662.937" style="stroke: #A80036; stroke-width: 1.0;"/><line style="stroke: #A80036; stroke-width: 1.0;" x1="1308.4588" x2="1303.685" y1="658.9229" y2="652.5045"/><polygon fill="#A80036" points="1215.83,534.349,1216.2015,541.5505,1222.992,543.9774,1222.6205,536.7759,1215.83,534.349" style="stroke: #A80036; stroke-width: 1.0;"/><!--link mastermind.views.graphics.GameView to mastermind.views.graphics.SecretCombinationView--><path d="M1142.15,547.545 C1139.19,577.369 1136.02,609.293 1133.34,636.182 " fill="none" id="mastermind.views.graphics.GameView-mastermind.views.graphics.SecretCombinationView" style="stroke: #A80036; stroke-width: 1.0;"/><polygon fill="#A80036" points="1132.04,649.345,1136.9101,640.7845,1132.5343,644.3695,1128.9493,639.9937,1132.04,649.345" style="stroke: #A80036; stroke-width: 1.0;"/><line style="stroke: #A80036; stroke-width: 1.0;" x1="1132.5343" x2="1133.32" y1="644.3695" y2="636.409"/><polygon fill="#A80036" points="1143.47,534.349,1138.8965,539.9242,1142.2838,546.2902,1146.8573,540.715,1143.47,534.349" style="stroke: #A80036; stroke-width: 1.0;"/><!--link mastermind.views.graphics.GameView to mastermind.views.graphics.ProposalCombinationView--><path d="M1044.7,543.189 C1024.43,561.078 1003.14,579.862 982.625,597.966 " fill="none" id="mastermind.views.graphics.GameView-mastermind.views.graphics.ProposalCombinationView" style="stroke: #A80036; stroke-width: 1.0;"/><polygon fill="#A80036" points="972.624,606.792,982.0186,603.8354,976.3727,603.4834,976.7248,597.8375,972.624,606.792" style="stroke: #A80036; stroke-width: 1.0;"/><line style="stroke: #A80036; stroke-width: 1.0;" x1="976.3727" x2="982.371" y1="603.4834" y2="598.1905"/><polygon fill="#A80036" points="1054.72,534.349,1047.5745,535.3192,1045.7218,542.2882,1052.8673,541.318,1054.72,534.349" style="stroke: #A80036; stroke-width: 1.0;"/><!--link mastermind.views.graphics.GameView to mastermind.controllers.ProposalController--><path d="M1304.02,527.551 C1310.04,529.852 1316.05,532.014 1322,534 C1465.08,581.711 1526.14,517.304 1656,594 C1687.7,612.719 1712.59,647.747 1727.27,672.401 " fill="none" id="mastermind.views.graphics.GameView-mastermind.controllers.ProposalController" style="stroke: #A80036; stroke-width: 1.0; stroke-dasharray: 7.0,7.0;"/><polygon fill="#A80036" points="1729.89,676.878,1728.795,667.0902,1727.3639,672.563,1721.8911,671.132,1729.89,676.878" style="stroke: #A80036; stroke-width: 1.0;"/><!--link mastermind.views.graphics.GameView to mastermind.controllers.StartController--><path d="M1304.05,526.052 C1310.08,528.788 1316.09,531.448 1322,534 C1393.65,564.917 1422.24,550.469 1487,594 C1518.43,615.124 1546.48,648.698 1564.02,672.392 " fill="none" id="mastermind.views.graphics.GameView-mastermind.controllers.StartController" style="stroke: #A80036; stroke-width: 1.0; stroke-dasharray: 7.0,7.0;"/><polygon fill="#A80036" points="1567.18,676.696,1565.0833,667.0729,1564.2232,672.664,1558.6321,671.8038,1567.18,676.696" style="stroke: #A80036; stroke-width: 1.0;"/><!--link mastermind.views.graphics.GameView to mastermind.views.graphics.ProposedCombinationView--><path d="M1304.33,525.425 C1310.29,528.335 1316.2,531.203 1322,534 C1379.32,561.633 1417.7,540.398 1452,594 C1503.26,674.115 1502.89,727.648 1452,808 C1427.8,846.211 1400.46,831.276 1360,851.5 C1349.95,856.523 1339.51,861.854 1329.11,867.228 " fill="none" id="mastermind.views.graphics.GameView-mastermind.views.graphics.ProposedCombinationView" style="stroke: #A80036; stroke-width: 1.0; stroke-dasharray: 7.0,7.0;"/><polygon fill="#A80036" points="1324.67,869.533,1334.5013,868.945,1329.1097,867.2332,1330.8216,861.8416,1324.67,869.533" style="stroke: #A80036; stroke-width: 1.0;"/><!--link mastermind.views.graphics.GameView to mastermind.views.graphics.Constraints--><path d="M1065.35,534.317 C1050.59,552.772 1036.87,573.064 1027,594 C985.845,681.309 1032.49,721.334 990,808 C975.507,837.56 950.627,864.922 929.189,885.023 " fill="none" id="mastermind.views.graphics.GameView-mastermind.views.graphics.Constraints" style="stroke: #A80036; stroke-width: 1.0; stroke-dasharray: 7.0,7.0;"/><polygon fill="#A80036" points="925.506,888.438,934.826,885.2542,929.1733,885.0393,929.3881,879.3865,925.506,888.438" style="stroke: #A80036; stroke-width: 1.0;"/><!--link mastermind.views.View to mastermind.views.graphics.GraphicsView--><path d="M1277,128.318 C1277,145.479 1277,165.46 1277,183.816 " fill="none" id="mastermind.views.View-mastermind.views.graphics.GraphicsView" style="stroke: #A80036; stroke-width: 1.0;"/><polygon fill="none" points="1270,128.092,1277,108.092,1284,128.092,1270,128.092" style="stroke: #A80036; stroke-width: 1.0;"/><!--link mastermind.views.graphics.GraphicsView to mastermind.views.graphics.GameView--><path d="M1234.68,312.232 C1227.34,324.147 1219.59,336.736 1211.89,349.24 " fill="none" id="mastermind.views.graphics.GraphicsView-mastermind.views.graphics.GameView" style="stroke: #A80036; stroke-width: 1.0;"/><polygon fill="#A80036" points="1204.85,360.676,1212.9744,355.1088,1207.4712,356.4181,1206.1619,350.9149,1204.85,360.676" style="stroke: #A80036; stroke-width: 1.0;"/><line style="stroke: #A80036; stroke-width: 1.0;" x1="1207.4712" x2="1211.665" y1="356.4181" y2="349.6065"/><polygon fill="#A80036" points="1241.51,301.129,1234.9583,304.1415,1235.2191,311.3479,1241.7709,308.3354,1241.51,301.129" style="stroke: #A80036; stroke-width: 1.0;"/><!--link mastermind.views.graphics.GraphicsView to mastermind.views.graphics.ResumeDialog--><path d="M1313.34,301.129 C1332.64,331.741 1356.1,368.946 1374.45,398.054 " fill="none" id="mastermind.views.graphics.GraphicsView-mastermind.views.graphics.ResumeDialog" style="stroke: #A80036; stroke-width: 1.0; stroke-dasharray: 7.0,7.0;"/><polygon fill="#A80036" points="1377.12,402.288,1375.7018,392.5418,1374.4526,398.059,1368.9354,396.8097,1377.12,402.288" style="stroke: #A80036; stroke-width: 1.0;"/><!--link java.awt.event.KeyListener to mastermind.views.graphics.ProposalCombinationView--><path d="M441.314,880.072 C451.328,869.806 462.927,859.386 475,851.5 C564.031,793.344 679.011,752.896 761.385,728.874 " fill="none" id="java.awt.event.KeyListener-mastermind.views.graphics.ProposalCombinationView" style="stroke: #A80036; stroke-width: 1.0;"/><polygon fill="none" points="446.145,885.162,427.476,895.187,435.819,875.708,446.145,885.162" style="stroke: #A80036; stroke-width: 1.0;"/><!--link java.awt.event.ActionListener to mastermind.views.graphics.ProposalCombinationView--><path d="M304.188,881.04 C315.642,870.248 329.068,859.298 343,851.5 C476.838,776.594 651.317,736.604 761.283,717.348 " fill="none" id="java.awt.event.ActionListener-mastermind.views.graphics.ProposalCombinationView" style="stroke: #A80036; stroke-width: 1.0;"/><polygon fill="none" points="309.004,886.124,289.927,895.347,299.088,876.24,309.004,886.124" style="stroke: #A80036; stroke-width: 1.0;"/><!--link javax.swing.JPanel to mastermind.views.graphics.ProposalCombinationView--><path d="M2001.16,657.333 C1992.03,625.001 1974.17,583.341 1940.5,564 C1897.34,539.208 1091.61,547.933 1044.5,564 C1019.26,572.607 994.822,586.417 972.559,602.029 " fill="none" id="javax.swing.JPanel-mastermind.views.graphics.ProposalCombinationView" style="stroke: #A80036; stroke-width: 1.0;"/><polygon fill="none" points="2007.99,655.812,2005.98,676.906,1994.4,659.161,2007.99,655.812" style="stroke: #A80036; stroke-width: 1.0;"/><!--link mastermind.views.graphics.ProposalCombinationView to javax.swing.JButton--><path d="M983.417,594.68 C1002.671,582.127 1023.3,571.229 1044.5,564 C1097.13,546.05 1997.28,536.302 2045.5,564 C2081.79,584.846 2100.41,631.162 2109.41,664.164 " fill="none" id="mastermind.views.graphics.ProposalCombinationView-javax.swing.JButton" style="stroke: #A80036; stroke-width: 1.0;"/><polygon fill="#A80036" points="2112.6,676.945,2114.2957,667.2432,2111.3863,672.0945,2106.535,669.1852,2112.6,676.945" style="stroke: #A80036; stroke-width: 1.0;"/><line style="stroke: #A80036; stroke-width: 1.0;" x1="2111.3863" x2="2109.45" y1="672.0945" y2="664.3335"/><polygon fill="#A80036" points="972.559,602.029,979.7699,601.9782,982.4965,595.3025,975.2856,595.3532,972.559,602.029" style="stroke: #A80036; stroke-width: 1.0;"/><!--link mastermind.views.graphics.ProposalCombinationView to javax.swing.JTextField--><path d="M983.417,594.68 C1002.671,582.127 1023.3,571.229 1044.5,564 C1109.54,541.818 2221.91,529.772 2281.5,564 C2318.48,585.24 2339.5,631.256 2350.31,664.094 " fill="none" id="mastermind.views.graphics.ProposalCombinationView-javax.swing.JTextField" style="stroke: #A80036; stroke-width: 1.0;"/><polygon fill="#A80036" points="2354.21,676.817,2355.3976,667.04,2352.7451,672.0364,2347.7486,669.3839,2354.21,676.817" style="stroke: #A80036; stroke-width: 1.0;"/><line style="stroke: #A80036; stroke-width: 1.0;" x1="2352.7451" x2="2350.4" y1="672.0364" y2="664.387"/><polygon fill="#A80036" points="972.559,602.029,979.7699,601.9782,982.4965,595.3025,975.2856,595.3532,972.559,602.029" style="stroke: #A80036; stroke-width: 1.0;"/><!--link mastermind.views.graphics.ProposalCombinationView to javax.swing.JLabel--><path d="M983.417,594.68 C1002.671,582.127 1023.3,571.229 1044.5,564 C1115.96,539.63 2338.03,526.396 2403.5,564 C2439.58,584.723 2457.5,631.066 2465.99,664.108 " fill="none" id="mastermind.views.graphics.ProposalCombinationView-javax.swing.JLabel" style="stroke: #A80036; stroke-width: 1.0;"/><polygon fill="#A80036" points="2468.98,676.906,2470.8234,667.2312,2467.8404,672.0376,2463.034,669.0546,2468.98,676.906" style="stroke: #A80036; stroke-width: 1.0;"/><line style="stroke: #A80036; stroke-width: 1.0;" x1="2467.8404" x2="2466.02" y1="672.0376" y2="664.248"/><polygon fill="#A80036" points="972.559,602.029,979.7699,601.9782,982.4965,595.3025,975.2856,595.3532,972.559,602.029" style="stroke: #A80036; stroke-width: 1.0;"/><!--link mastermind.views.graphics.ProposalCombinationView to javax.swing.JRootPane--><path d="M972.559,602.029 C994.822,586.417 1019.26,572.607 1044.5,564 C1102.81,544.113 2099.94,533.543 2153.5,564 C2193.92,586.985 2216.39,638.81 2227.06,671.719 " fill="none" id="mastermind.views.graphics.ProposalCombinationView-javax.swing.JRootPane" style="stroke: #A80036; stroke-width: 1.0; stroke-dasharray: 7.0,7.0;"/><polygon fill="#A80036" points="2228.67,676.831,2229.7788,667.0448,2227.1666,672.0624,2222.149,669.4502,2228.67,676.831" style="stroke: #A80036; stroke-width: 1.0;"/><!--link mastermind.views.graphics.ProposalCombinationView to java.awt.event.KeyEvent--><path d="M767.581,808.03 C738.643,838.893 709.478,869.998 689.503,891.301 " fill="none" id="mastermind.views.graphics.ProposalCombinationView-java.awt.event.KeyEvent" style="stroke: #A80036; stroke-width: 1.0; stroke-dasharray: 7.0,7.0;"/><polygon fill="#A80036" points="685.882,895.163,694.9553,891.3322,689.3014,891.515,689.1186,885.8611,685.882,895.163" style="stroke: #A80036; stroke-width: 1.0;"/><!--link mastermind.views.graphics.ProposalCombinationView to java.awt.event.ActionEvent--><path d="M761.345,753.493 C711.807,779.795 653.216,814.115 605,851.5 C589.795,863.289 574.714,878.553 562.911,891.534 " fill="none" id="mastermind.views.graphics.ProposalCombinationView-java.awt.event.ActionEvent" style="stroke: #A80036; stroke-width: 1.0; stroke-dasharray: 7.0,7.0;"/><polygon fill="#A80036" points="559.357,895.482,568.351,891.4686,562.702,891.7657,562.4049,886.1166,559.357,895.482" style="stroke: #A80036; stroke-width: 1.0;"/><!--link mastermind.views.graphics.ProposalCombinationView to mastermind.views.graphics.Constraints--><path d="M877.774,808.03 C880.524,835.093 883.293,862.34 885.393,883.003 " fill="none" id="mastermind.views.graphics.ProposalCombinationView-mastermind.views.graphics.Constraints" style="stroke: #A80036; stroke-width: 1.0; stroke-dasharray: 7.0,7.0;"/><polygon fill="#A80036" points="885.912,888.111,888.9812,878.7526,885.4063,883.1366,881.0222,879.5617,885.912,888.111" style="stroke: #A80036; stroke-width: 1.0;"/><!--link javax.swing.JPanel to mastermind.views.graphics.ProposedCombinationsView--><path d="M2001.16,657.333 C1992.03,625.001 1974.17,583.341 1940.5,564 C1861.11,518.4 1615.61,535.81 1528.5,564 C1468.63,583.374 1411.79,629.511 1376.26,662.9 " fill="none" id="javax.swing.JPanel-mastermind.views.graphics.ProposedCombinationsView" style="stroke: #A80036; stroke-width: 1.0;"/><polygon fill="none" points="2007.99,655.812,2005.98,676.906,1994.4,659.161,2007.99,655.812" style="stroke: #A80036; stroke-width: 1.0;"/><!--link mastermind.views.graphics.ProposedCombinationsView to mastermind.models.Game--><path d="M1311.36,739.107 C1290.82,763.507 1260.47,793.513 1226,808 C1015.42,896.509 410.061,764.138 199,851.5 C178.66,859.919 160.414,876.663 147.251,891.305 " fill="none" id="mastermind.views.graphics.ProposedCombinationsView-mastermind.models.Game" style="stroke: #A80036; stroke-width: 1.0; stroke-dasharray: 7.0,7.0;"/><polygon fill="#A80036" points="143.675,895.371,152.6222,891.2542,146.9769,891.6164,146.6147,885.9711,143.675,895.371" style="stroke: #A80036; stroke-width: 1.0;"/><!--link mastermind.views.graphics.ProposedCombinationsView to mastermind.views.graphics.Constraints--><path d="M1309.34,739.226 C1288.55,762.707 1258.7,791.598 1226,808 C1127.54,857.389 1083.44,808.567 982,851.5 C962.403,859.794 942.95,872.85 926.941,885.242 " fill="none" id="mastermind.views.graphics.ProposedCombinationsView-mastermind.views.graphics.Constraints" style="stroke: #A80036; stroke-width: 1.0; stroke-dasharray: 7.0,7.0;"/><polygon fill="#A80036" points="922.947,888.375,932.4972,885.9682,926.8813,885.2893,927.5601,879.6733,922.947,888.375" style="stroke: #A80036; stroke-width: 1.0;"/><!--link mastermind.views.graphics.ProposedCombinationsView to mastermind.views.graphics.TurnView--><path d="M1353.61,739.218 C1369.53,779.763 1394.79,844.113 1410.33,883.687 " fill="none" id="mastermind.views.graphics.ProposedCombinationsView-mastermind.views.graphics.TurnView" style="stroke: #A80036; stroke-width: 1.0; stroke-dasharray: 7.0,7.0;"/><polygon fill="#A80036" points="1412.18,888.387,1412.6166,878.5478,1410.3539,883.7324,1405.1693,881.4697,1412.18,888.387" style="stroke: #A80036; stroke-width: 1.0;"/><!--link mastermind.views.graphics.ProposedCombinationsView to mastermind.views.graphics.ProposedCombinationView--><path d="M1320.78,739.218 C1304.11,773.257 1279.23,824.075 1260.21,862.924 " fill="none" id="mastermind.views.graphics.ProposedCombinationsView-mastermind.views.graphics.ProposedCombinationView" style="stroke: #A80036; stroke-width: 1.0; stroke-dasharray: 7.0,7.0;"/><polygon fill="#A80036" points="1257.92,867.6,1265.4727,861.2789,1260.1205,863.1103,1258.2892,857.7581,1257.92,867.6" style="stroke: #A80036; stroke-width: 1.0;"/><!--link mastermind.views.graphics.ProposedCombinationsView to mastermind.views.graphics.ResultView--><path d="M1305.83,739.109 C1284.63,761.226 1255.62,788.666 1226,808 C1184.73,834.938 1165.23,824.501 1124,851.5 C1109.74,860.84 1095.72,873.185 1083.96,884.731 " fill="none" id="mastermind.views.graphics.ProposedCombinationsView-mastermind.views.graphics.ResultView" style="stroke: #A80036; stroke-width: 1.0; stroke-dasharray: 7.0,7.0;"/><polygon fill="#A80036" points="1080.38,888.284,1089.588,884.7894,1083.9312,884.7642,1083.9564,879.1074,1080.38,888.284" style="stroke: #A80036; stroke-width: 1.0;"/><!--link javax.swing.JLabel to mastermind.views.graphics.ProposedCombinationView--><path d="M2463.32,744.739 C2455.79,767.543 2442.82,793.77 2421,808 C2322.17,872.448 1473.92,820.801 1360,851.5 C1345.32,855.457 1330.42,861.332 1316.25,867.986 " fill="none" id="javax.swing.JLabel-mastermind.views.graphics.ProposedCombinationView" style="stroke: #A80036; stroke-width: 1.0;"/><polygon fill="none" points="2456.66,742.565,2468.81,725.2,2470.14,746.348,2456.66,742.565" style="stroke: #A80036; stroke-width: 1.0;"/><!--link mastermind.views.graphics.ProposedCombinationView to mastermind.views.graphics.ProposedCombinationView--><path d="M1324.54,879.725 C1344.77,883.462 1359.5,896.721 1359.5,919.5 C1359.5,940.3217 1347.19,953.1885 1329.63,958.1003 " fill="none" id="mastermind.views.graphics.ProposedCombinationView-mastermind.views.graphics.ProposedCombinationView" style="stroke: #A80036; stroke-width: 1.0; stroke-dasharray: 7.0,7.0;"/><polygon fill="#A80036" points="1324.54,959.2748,1334.2053,961.1675,1329.4141,958.16,1332.4216,953.3688,1324.54,959.2748" style="stroke: #A80036; stroke-width: 1.0;"/><!--link javax.swing.JLabel to mastermind.views.graphics.ResultView--><path d="M2463.36,744.801 C2455.85,767.625 2442.87,793.851 2421,808 C2299.93,886.311 1257.09,796.017 1124,851.5 C1105.23,859.326 1088.45,874.536 1075.93,888.489 " fill="none" id="javax.swing.JLabel-mastermind.views.graphics.ResultView" style="stroke: #A80036; stroke-width: 1.0;"/><polygon fill="none" points="2456.71,742.616,2468.83,725.24,2470.19,746.386,2456.71,742.616" style="stroke: #A80036; stroke-width: 1.0;"/><!--link javax.swing.JPanel to mastermind.views.graphics.SecretCombinationView--><path d="M2001.16,657.333 C1992.03,625.001 1974.17,583.341 1940.5,564 C1873.34,525.428 1313.8,531.501 1243.5,564 C1205.52,581.556 1175.39,618.27 1155.28,649.275 " fill="none" id="javax.swing.JPanel-mastermind.views.graphics.SecretCombinationView" style="stroke: #A80036; stroke-width: 1.0;"/><polygon fill="none" points="2007.99,655.812,2005.98,676.906,1994.4,659.161,2007.99,655.812" style="stroke: #A80036; stroke-width: 1.0;"/><!--link mastermind.views.graphics.SecretCombinationView to javax.swing.JLabel--><path d="M1162.76,638.179 C1182.56,609.928 1209.98,579.499 1243.5,564 C1302,536.957 2347.62,531.903 2403.5,564 C2439.58,584.723 2457.5,631.066 2465.99,664.108 " fill="none" id="mastermind.views.graphics.SecretCombinationView-javax.swing.JLabel" style="stroke: #A80036; stroke-width: 1.0;"/><polygon fill="#A80036" points="2468.98,676.906,2470.8234,667.2312,2467.8404,672.0376,2463.034,669.0546,2468.98,676.906" style="stroke: #A80036; stroke-width: 1.0;"/><line style="stroke: #A80036; stroke-width: 1.0;" x1="2467.8404" x2="2466.02" y1="672.0376" y2="664.248"/><polygon fill="#A80036" points="1155.28,649.275,1161.9514,646.5377,1161.9905,639.3267,1155.3191,642.064,1155.28,649.275" style="stroke: #A80036; stroke-width: 1.0;"/><!--link mastermind.views.graphics.SecretCombinationView to mastermind.views.graphics.Constraints--><path d="M1076.35,752.556 C1058.18,770.337 1037.4,790.293 1018,808 C988.954,834.515 955.161,863.393 929.451,884.976 " fill="none" id="mastermind.views.graphics.SecretCombinationView-mastermind.views.graphics.Constraints" style="stroke: #A80036; stroke-width: 1.0; stroke-dasharray: 7.0,7.0;"/><polygon fill="#A80036" points="925.396,888.376,934.863,885.6602,929.228,885.1641,929.724,879.5291,925.396,888.376" style="stroke: #A80036; stroke-width: 1.0;"/><!--link javax.swing.JLabel to mastermind.views.graphics.TurnView--><path d="M2462.8,744.579 C2455.13,767.105 2442.19,793.112 2421,808 C2264.98,917.6413 1646.27,920.5601 1470.68,919.1134 " fill="none" id="javax.swing.JLabel-mastermind.views.graphics.TurnView" style="stroke: #A80036; stroke-width: 1.0;"/><polygon fill="none" points="2456.11,742.514,2468.45,725.288,2469.54,746.449,2456.11,742.514" style="stroke: #A80036; stroke-width: 1.0;"/><!--
@startuml

class  mastermind.views.graphics.Constraints{
~ Constraints(int, int, int, int)
}
java.awt.GridBagConstraints <|-down- mastermind.views.graphics.Constraints

class  mastermind.views.graphics.GameView{
- {static} GAME_OVER: String
- secretCombinationView: SecretCombinationView
- proposedCombinationsView: ProposedCombinationsView
- proposalCombinationView: ProposalCombinationView
~ GameView(StartController, ProposalController)
- clear(): void
~ start(): void
~ propose(): boolean
- drawGameOver(): boolean
}
javax.swing.JFrame <|-down- mastermind.views.graphics.GameView
mastermind.views.graphics.GameView *-down-> mastermind.views.graphics.ProposedCombinationsView
mastermind.views.graphics.GameView *-down-> mastermind.views.graphics.SecretCombinationView
mastermind.views.graphics.GameView *-down-> mastermind.views.graphics.ProposalCombinationView
mastermind.views.graphics.GameView ..> mastermind.controllers.ProposalController
mastermind.views.graphics.GameView ..> mastermind.controllers.StartController
mastermind.views.graphics.GameView ..> mastermind.views.graphics.ProposedCombinationView
mastermind.views.graphics.GameView ..> mastermind.views.graphics.Constraints

class  mastermind.views.graphics.GraphicsView{
- gameView: GameView
+ GraphicsView(Game)
# start(): void
# resume(): boolean
# propose(): boolean
}
mastermind.views.View <|-down- mastermind.views.graphics.GraphicsView
mastermind.views.graphics.GraphicsView *-down-> mastermind.views.graphics.GameView
mastermind.views.graphics.GraphicsView ..> mastermind.views.graphics.ResumeDialog

class  mastermind.views.graphics.ProposalCombinationView{
- {static} ACCEPT: String
- label: JLabel
- textField: JTextField
- button: JButton
- characters: String
~ ProposalCombinationView(JRootPane)
+ keyPressed(KeyEvent): void
+ keyReleased(KeyEvent): void
+ keyTyped(KeyEvent): void
~ resetCharacters(): void
~ getCharacters(): String
+ actionPerformed(ActionEvent): void
}
java.awt.event.KeyListener <|-down- mastermind.views.graphics.ProposalCombinationView
java.awt.event.ActionListener <|-down- mastermind.views.graphics.ProposalCombinationView
javax.swing.JPanel <|-down- mastermind.views.graphics.ProposalCombinationView
mastermind.views.graphics.ProposalCombinationView *-down-> javax.swing.JButton
mastermind.views.graphics.ProposalCombinationView *-down-> javax.swing.JTextField
mastermind.views.graphics.ProposalCombinationView *-down-> javax.swing.JLabel
mastermind.views.graphics.ProposalCombinationView ..> javax.swing.JRootPane
mastermind.views.graphics.ProposalCombinationView ..> java.awt.event.KeyEvent
mastermind.views.graphics.ProposalCombinationView ..> java.awt.event.ActionEvent
mastermind.views.graphics.ProposalCombinationView..> mastermind.views.graphics.Constraints

class  mastermind.views.graphics.ProposedCombinationsView{
~ ProposedCombinationsView()
~ add(Game): void
}
javax.swing.JPanel <|-down- mastermind.views.graphics.ProposedCombinationsView
mastermind.views.graphics.ProposedCombinationsView ..> mastermind.models.Game
mastermind.views.graphics.ProposedCombinationsView..> mastermind.views.graphics.Constraints
mastermind.views.graphics.ProposedCombinationsView ..> mastermind.views.graphics.TurnView
mastermind.views.graphics.ProposedCombinationsView..> mastermind.views.graphics.ProposedCombinationView
mastermind.views.graphics.ProposedCombinationsView..> mastermind.views.graphics.ResultView

class  mastermind.views.graphics.ProposedCombinationView{
~ {static} ERROR_CODE: int
~ ProposedCombinationView(int[])
~ ProposedCombinationView()
~ read(String): int[]
}
javax.swing.JLabel <|-down- mastermind.views.graphics.ProposedCombinationView
mastermind.views.graphics.ProposedCombinationView..> mastermind.views.graphics.ProposedCombinationView

class  mastermind.views.graphics.ResultView{
~ ResultView(int[])
}
javax.swing.JLabel <|-down- mastermind.views.graphics.ResultView

class  mastermind.views.graphics.ResumeDialog{
- resume: boolean
~ ResumeDialog()
~ isResumed(): boolean
}

class  mastermind.views.graphics.SecretCombinationView{
- {static} TITLE: String
- title: JLabel
- secretCombination: JLabel
~ SecretCombinationView(int)
}
javax.swing.JPanel <|-down- mastermind.views.graphics.SecretCombinationView
mastermind.views.graphics.SecretCombinationView *-down-> javax.swing.JLabel
mastermind.views.graphics.SecretCombinationView..> mastermind.views.graphics.Constraints

class  mastermind.views.graphics.TurnView{
~ TurnView(int)
}
javax.swing.JLabel <|-down- mastermind.views.graphics.TurnView

@enduml

PlantUML version 1.2019.05(Sat Apr 20 18:45:36 CEST 2019)
(GPL source distribution)
Java Runtime: OpenJDK Runtime Environment
JVM: OpenJDK 64-Bit Server VM
Java Version: 1.8.0_222-b10
Operating System: Windows 10
OS Version: 10.0
Default Encoding: windows-1252
Language: es
Country: ES
--></g></svg>