<?xml version="1.0" encoding="UTF-8" standalone="no"?><svg xmlns="http://www.w3.org/2000/svg" xmlns:xlink="http://www.w3.org/1999/xlink" contentScriptType="application/ecmascript" contentStyleType="text/css" height="834px" preserveAspectRatio="none" style="width:2630px;height:834px;" version="1.1" viewBox="0 0 2630 834" width="2630px" zoomAndPan="magnify"><defs><filter height="300%" id="f1f0u96tmizkji" width="300%" x="-1" y="-1"><feGaussianBlur result="blurOut" stdDeviation="2.0"/><feColorMatrix in="blurOut" result="blurOut2" type="matrix" values="0 0 0 0 0 0 0 0 0 0 0 0 0 0 0 0 0 0 .4 0"/><feOffset dx="4.0" dy="4.0" in="blurOut2" result="blurOut3"/><feBlend in="SourceGraphic" in2="blurOut3" mode="normal"/></filter></defs><g><!--cluster mastermind.views.menus--><polygon fill="#FFFFFF" filter="url(#f1f0u96tmizkji)" points="1214,148,1398,148,1405,171.6094,2560,171.6094,2560,698,1214,698,1214,148" style="stroke: #000000; stroke-width: 1.5;"/><line style="stroke: #000000; stroke-width: 1.5;" x1="1214" x2="1405" y1="171.6094" y2="171.6094"/><text fill="#000000" font-family="sans-serif" font-size="14" font-weight="bold" lengthAdjust="spacingAndGlyphs" textLength="178" x="1218" y="164.5332">mastermind.views.menus</text><!--cluster santaTecla.utils--><polygon fill="#FFFFFF" filter="url(#f1f0u96tmizkji)" points="1940,24,2055,24,2062,47.6094,2161,47.6094,2161,124,1940,124,1940,24" style="stroke: #000000; stroke-width: 1.5;"/><line style="stroke: #000000; stroke-width: 1.5;" x1="1940" x2="2062" y1="47.6094" y2="47.6094"/><text fill="#000000" font-family="sans-serif" font-size="14" font-weight="bold" lengthAdjust="spacingAndGlyphs" textLength="109" x="1944" y="40.5332">santaTecla.utils</text><!--cluster mastermind.controllers--><polygon fill="#FFFFFF" filter="url(#f1f0u96tmizkji)" points="22,722,191,722,198,745.6094,478,745.6094,478,822,22,822,22,722" style="stroke: #000000; stroke-width: 1.5;"/><line style="stroke: #000000; stroke-width: 1.5;" x1="22" x2="198" y1="745.6094" y2="745.6094"/><text fill="#000000" font-family="sans-serif" font-size="14" font-weight="bold" lengthAdjust="spacingAndGlyphs" textLength="163" x="26" y="738.5332">mastermind.controllers</text><!--cluster mastermind.views.models--><polygon fill="#FFFFFF" filter="url(#f1f0u96tmizkji)" points="703,441,891,441,898,464.6094,1190,464.6094,1190,541,703,541,703,441" style="stroke: #000000; stroke-width: 1.5;"/><line style="stroke: #000000; stroke-width: 1.5;" x1="703" x2="898" y1="464.6094" y2="464.6094"/><text fill="#000000" font-family="sans-serif" font-size="14" font-weight="bold" lengthAdjust="spacingAndGlyphs" textLength="182" x="707" y="457.5332">mastermind.views.models</text><!--cluster mastermind.types--><polygon fill="#FFFFFF" filter="url(#f1f0u96tmizkji)" points="440,441,570,441,577,464.6094,629,464.6094,629,541,440,541,440,441" style="stroke: #000000; stroke-width: 1.5;"/><line style="stroke: #000000; stroke-width: 1.5;" x1="440" x2="577" y1="464.6094" y2="464.6094"/><text fill="#000000" font-family="sans-serif" font-size="14" font-weight="bold" lengthAdjust="spacingAndGlyphs" textLength="124" x="444" y="457.5332">mastermind.types</text><!--class mastermind.views.menus.Command--><rect fill="#FEFECE" filter="url(#f1f0u96tmizkji)" height="75.6719" id="mastermind.views.menus.Command" style="stroke: #A80036; stroke-width: 1.5;" width="212" x="1843" y="184"/><ellipse cx="1915.25" cy="200" fill="#ADD1B2" rx="11" ry="11" style="stroke: #A80036; stroke-width: 1.0;"/><path d="M1918.0156,195.875 Q1918.1719,195.6563 1918.3594,195.5469 Q1918.5469,195.4375 1918.7656,195.4375 Q1919.1406,195.4375 1919.375,195.6953 Q1919.6094,195.9531 1919.6094,196.5625 L1919.6094,198.0156 Q1919.6094,198.625 1919.375,198.8906 Q1919.1406,199.1563 1918.7656,199.1563 Q1918.4219,199.1563 1918.2188,198.9531 Q1918.0156,198.7656 1917.9063,198.25 Q1917.8594,197.8906 1917.6719,197.7031 Q1917.3438,197.3281 1916.7344,197.1094 Q1916.125,196.8906 1915.5,196.8906 Q1914.7344,196.8906 1914.1016,197.2188 Q1913.4688,197.5469 1912.9766,198.2969 Q1912.4844,199.0469 1912.4844,200.0781 L1912.4844,201.1719 Q1912.4844,202.4063 1913.375,203.2266 Q1914.2656,204.0469 1915.8594,204.0469 Q1916.7969,204.0469 1917.4531,203.7969 Q1917.8438,203.6406 1918.2656,203.2031 Q1918.5313,202.9375 1918.6797,202.8594 Q1918.8281,202.7813 1919.0313,202.7813 Q1919.3594,202.7813 1919.6172,203.0391 Q1919.875,203.2969 1919.875,203.6406 Q1919.875,203.9844 1919.5313,204.3906 Q1919.0313,204.9688 1918.2344,205.2969 Q1917.1563,205.75 1915.8594,205.75 Q1914.3438,205.75 1913.1406,205.125 Q1912.1563,204.625 1911.4688,203.5547 Q1910.7813,202.4844 1910.7813,201.2031 L1910.7813,200.0469 Q1910.7813,198.7188 1911.3984,197.5703 Q1912.0156,196.4219 1913.1094,195.8047 Q1914.2031,195.1875 1915.4375,195.1875 Q1916.1719,195.1875 1916.8203,195.3516 Q1917.4688,195.5156 1918.0156,195.875 Z "/><text fill="#000000" font-family="sans-serif" font-size="12" lengthAdjust="spacingAndGlyphs" textLength="59" x="1935.75" y="204.9102">Command</text><line style="stroke: #A80036; stroke-width: 1.5;" x1="1844" x2="2054" y1="216" y2="216"/><polygon fill="none" points="1854,223.418,1858,227.418,1854,231.418,1850,227.418" style="stroke: #B38D22; stroke-width: 1.0;"/><text fill="#000000" font-family="sans-serif" font-size="11" lengthAdjust="spacingAndGlyphs" textLength="186" x="1863" y="231.4189">acceptorController: AcceptorController</text><line style="stroke: #A80036; stroke-width: 1.5;" x1="1844" x2="2054" y1="237.8359" y2="237.8359"/><polygon fill="#FFFF44" points="1854,245.2539,1858,249.2539,1854,253.2539,1850,249.2539" style="stroke: #B38D22; stroke-width: 1.0;"/><text fill="#000000" font-family="sans-serif" font-size="11" lengthAdjust="spacingAndGlyphs" textLength="180" x="1863" y="253.2549">Command(AcceptorController, String)</text><!--class mastermind.views.menus.ExitCommand--><rect fill="#FEFECE" filter="url(#f1f0u96tmizkji)" height="89.5078" id="mastermind.views.menus.ExitCommand" style="stroke: #A80036; stroke-width: 1.5;" width="164" x="1867" y="320"/><ellipse cx="1906.3" cy="336" fill="#ADD1B2" rx="11" ry="11" style="stroke: #A80036; stroke-width: 1.0;"/><path d="M1909.0656,331.875 Q1909.2219,331.6563 1909.4094,331.5469 Q1909.5969,331.4375 1909.8156,331.4375 Q1910.1906,331.4375 1910.425,331.6953 Q1910.6594,331.9531 1910.6594,332.5625 L1910.6594,334.0156 Q1910.6594,334.625 1910.425,334.8906 Q1910.1906,335.1563 1909.8156,335.1563 Q1909.4719,335.1563 1909.2688,334.9531 Q1909.0656,334.7656 1908.9563,334.25 Q1908.9094,333.8906 1908.7219,333.7031 Q1908.3938,333.3281 1907.7844,333.1094 Q1907.175,332.8906 1906.55,332.8906 Q1905.7844,332.8906 1905.1516,333.2188 Q1904.5188,333.5469 1904.0266,334.2969 Q1903.5344,335.0469 1903.5344,336.0781 L1903.5344,337.1719 Q1903.5344,338.4063 1904.425,339.2266 Q1905.3156,340.0469 1906.9094,340.0469 Q1907.8469,340.0469 1908.5031,339.7969 Q1908.8938,339.6406 1909.3156,339.2031 Q1909.5813,338.9375 1909.7297,338.8594 Q1909.8781,338.7813 1910.0813,338.7813 Q1910.4094,338.7813 1910.6672,339.0391 Q1910.925,339.2969 1910.925,339.6406 Q1910.925,339.9844 1910.5813,340.3906 Q1910.0813,340.9688 1909.2844,341.2969 Q1908.2063,341.75 1906.9094,341.75 Q1905.3938,341.75 1904.1906,341.125 Q1903.2063,340.625 1902.5188,339.5547 Q1901.8313,338.4844 1901.8313,337.2031 L1901.8313,336.0469 Q1901.8313,334.7188 1902.4484,333.5703 Q1903.0656,332.4219 1904.1594,331.8047 Q1905.2531,331.1875 1906.4875,331.1875 Q1907.2219,331.1875 1907.8703,331.3516 Q1908.5188,331.5156 1909.0656,331.875 Z "/><text fill="#000000" font-family="sans-serif" font-size="12" lengthAdjust="spacingAndGlyphs" textLength="78" x="1925.7" y="340.9102">ExitCommand</text><line style="stroke: #A80036; stroke-width: 1.5;" x1="1868" x2="2030" y1="352" y2="352"/><line style="stroke: #A80036; stroke-width: 1.5;" x1="1868" x2="2030" y1="360" y2="360"/><polygon fill="#FFFF44" points="1878,367.418,1882,371.418,1878,375.418,1874,371.418" style="stroke: #B38D22; stroke-width: 1.0;"/><text fill="#000000" font-family="sans-serif" font-size="11" lengthAdjust="spacingAndGlyphs" textLength="138" x="1887" y="375.4189">ExitCommand(PlayController)</text><polygon fill="#FFFF44" points="1878,381.2539,1882,385.2539,1878,389.2539,1874,385.2539" style="stroke: #B38D22; stroke-width: 1.0;"/><text fill="#000000" font-family="sans-serif" font-size="11" lengthAdjust="spacingAndGlyphs" textLength="73" x="1887" y="389.2549">execute(): void</text><polygon fill="#FFFF44" points="1878,395.0898,1882,399.0898,1878,403.0898,1874,399.0898" style="stroke: #B38D22; stroke-width: 1.0;"/><text fill="#000000" font-family="sans-serif" font-size="11" lengthAdjust="spacingAndGlyphs" textLength="91" x="1887" y="403.0908">isActive(): boolean</text><!--class mastermind.views.menus.GameSelectCommand--><rect fill="#FEFECE" filter="url(#f1f0u96tmizkji)" height="89.5078" id="mastermind.views.menus.GameSelectCommand" style="stroke: #A80036; stroke-width: 1.5;" width="242" x="2047" y="592"/><ellipse cx="2100.25" cy="608" fill="#ADD1B2" rx="11" ry="11" style="stroke: #A80036; stroke-width: 1.0;"/><path d="M2103.0156,603.875 Q2103.1719,603.6563 2103.3594,603.5469 Q2103.5469,603.4375 2103.7656,603.4375 Q2104.1406,603.4375 2104.375,603.6953 Q2104.6094,603.9531 2104.6094,604.5625 L2104.6094,606.0156 Q2104.6094,606.625 2104.375,606.8906 Q2104.1406,607.1563 2103.7656,607.1563 Q2103.4219,607.1563 2103.2188,606.9531 Q2103.0156,606.7656 2102.9063,606.25 Q2102.8594,605.8906 2102.6719,605.7031 Q2102.3438,605.3281 2101.7344,605.1094 Q2101.125,604.8906 2100.5,604.8906 Q2099.7344,604.8906 2099.1016,605.2188 Q2098.4688,605.5469 2097.9766,606.2969 Q2097.4844,607.0469 2097.4844,608.0781 L2097.4844,609.1719 Q2097.4844,610.4063 2098.375,611.2266 Q2099.2656,612.0469 2100.8594,612.0469 Q2101.7969,612.0469 2102.4531,611.7969 Q2102.8438,611.6406 2103.2656,611.2031 Q2103.5313,610.9375 2103.6797,610.8594 Q2103.8281,610.7813 2104.0313,610.7813 Q2104.3594,610.7813 2104.6172,611.0391 Q2104.875,611.2969 2104.875,611.6406 Q2104.875,611.9844 2104.5313,612.3906 Q2104.0313,612.9688 2103.2344,613.2969 Q2102.1563,613.75 2100.8594,613.75 Q2099.3438,613.75 2098.1406,613.125 Q2097.1563,612.625 2096.4688,611.5547 Q2095.7813,610.4844 2095.7813,609.2031 L2095.7813,608.0469 Q2095.7813,606.7188 2096.3984,605.5703 Q2097.0156,604.4219 2098.1094,603.8047 Q2099.2031,603.1875 2100.4375,603.1875 Q2101.1719,603.1875 2101.8203,603.3516 Q2102.4688,603.5156 2103.0156,603.875 Z "/><text fill="#000000" font-family="sans-serif" font-size="12" lengthAdjust="spacingAndGlyphs" textLength="127" x="2120.75" y="612.9102">GameSelectCommand</text><line style="stroke: #A80036; stroke-width: 1.5;" x1="2048" x2="2288" y1="624" y2="624"/><line style="stroke: #A80036; stroke-width: 1.5;" x1="2048" x2="2288" y1="632" y2="632"/><polygon fill="#FFFF44" points="2058,639.418,2062,643.418,2058,647.418,2054,643.418" style="stroke: #B38D22; stroke-width: 1.0;"/><text fill="#000000" font-family="sans-serif" font-size="11" lengthAdjust="spacingAndGlyphs" textLength="216" x="2067" y="647.4189">GameSelectCommand(StartController, String)</text><polygon fill="#FFFF44" points="2058,653.2539,2062,657.2539,2058,661.2539,2054,657.2539" style="stroke: #B38D22; stroke-width: 1.0;"/><text fill="#000000" font-family="sans-serif" font-size="11" lengthAdjust="spacingAndGlyphs" textLength="73" x="2067" y="661.2549">execute(): void</text><polygon fill="#FFFF44" points="2058,667.0898,2062,671.0898,2058,675.0898,2054,671.0898" style="stroke: #B38D22; stroke-width: 1.0;"/><text fill="#000000" font-family="sans-serif" font-size="11" lengthAdjust="spacingAndGlyphs" textLength="91" x="2067" y="675.0908">isActive(): boolean</text><!--class mastermind.views.menus.GameSelectMenu--><rect fill="#FEFECE" filter="url(#f1f0u96tmizkji)" height="61.8359" id="mastermind.views.menus.GameSelectMenu" style="stroke: #A80036; stroke-width: 1.5;" width="187" x="2074.5" y="470"/><ellipse cx="2115.15" cy="486" fill="#ADD1B2" rx="11" ry="11" style="stroke: #A80036; stroke-width: 1.0;"/><path d="M2117.9156,481.875 Q2118.0719,481.6563 2118.2594,481.5469 Q2118.4469,481.4375 2118.6656,481.4375 Q2119.0406,481.4375 2119.275,481.6953 Q2119.5094,481.9531 2119.5094,482.5625 L2119.5094,484.0156 Q2119.5094,484.625 2119.275,484.8906 Q2119.0406,485.1563 2118.6656,485.1563 Q2118.3219,485.1563 2118.1188,484.9531 Q2117.9156,484.7656 2117.8063,484.25 Q2117.7594,483.8906 2117.5719,483.7031 Q2117.2438,483.3281 2116.6344,483.1094 Q2116.025,482.8906 2115.4,482.8906 Q2114.6344,482.8906 2114.0016,483.2188 Q2113.3688,483.5469 2112.8766,484.2969 Q2112.3844,485.0469 2112.3844,486.0781 L2112.3844,487.1719 Q2112.3844,488.4063 2113.275,489.2266 Q2114.1656,490.0469 2115.7594,490.0469 Q2116.6969,490.0469 2117.3531,489.7969 Q2117.7438,489.6406 2118.1656,489.2031 Q2118.4313,488.9375 2118.5797,488.8594 Q2118.7281,488.7813 2118.9313,488.7813 Q2119.2594,488.7813 2119.5172,489.0391 Q2119.775,489.2969 2119.775,489.6406 Q2119.775,489.9844 2119.4313,490.3906 Q2118.9313,490.9688 2118.1344,491.2969 Q2117.0563,491.75 2115.7594,491.75 Q2114.2438,491.75 2113.0406,491.125 Q2112.0563,490.625 2111.3688,489.5547 Q2110.6813,488.4844 2110.6813,487.2031 L2110.6813,486.0469 Q2110.6813,484.7188 2111.2984,483.5703 Q2111.9156,482.4219 2113.0094,481.8047 Q2114.1031,481.1875 2115.3375,481.1875 Q2116.0719,481.1875 2116.7203,481.3516 Q2117.3688,481.5156 2117.9156,481.875 Z "/><text fill="#000000" font-family="sans-serif" font-size="12" lengthAdjust="spacingAndGlyphs" textLength="98" x="2134.85" y="490.9102">GameSelectMenu</text><line style="stroke: #A80036; stroke-width: 1.5;" x1="2075.5" x2="2260.5" y1="502" y2="502"/><line style="stroke: #A80036; stroke-width: 1.5;" x1="2075.5" x2="2260.5" y1="510" y2="510"/><polygon fill="#4177AF" points="2085.5,518.418,2081.5,524.418,2089.5,524.418" style="stroke: #1963A0; stroke-width: 1.0;"/><text fill="#000000" font-family="sans-serif" font-size="11" lengthAdjust="spacingAndGlyphs" textLength="161" x="2094.5" y="525.4189">GameSelectMenu(StartController)</text><!--class mastermind.views.menus.NewGameCommand--><rect fill="#FEFECE" filter="url(#f1f0u96tmizkji)" height="89.5078" id="mastermind.views.menus.NewGameCommand" style="stroke: #A80036; stroke-width: 1.5;" width="201" x="2305.5" y="320"/><ellipse cx="2343.45" cy="336" fill="#ADD1B2" rx="11" ry="11" style="stroke: #A80036; stroke-width: 1.0;"/><path d="M2346.2156,331.875 Q2346.3719,331.6563 2346.5594,331.5469 Q2346.7469,331.4375 2346.9656,331.4375 Q2347.3406,331.4375 2347.575,331.6953 Q2347.8094,331.9531 2347.8094,332.5625 L2347.8094,334.0156 Q2347.8094,334.625 2347.575,334.8906 Q2347.3406,335.1563 2346.9656,335.1563 Q2346.6219,335.1563 2346.4188,334.9531 Q2346.2156,334.7656 2346.1063,334.25 Q2346.0594,333.8906 2345.8719,333.7031 Q2345.5438,333.3281 2344.9344,333.1094 Q2344.325,332.8906 2343.7,332.8906 Q2342.9344,332.8906 2342.3016,333.2188 Q2341.6688,333.5469 2341.1766,334.2969 Q2340.6844,335.0469 2340.6844,336.0781 L2340.6844,337.1719 Q2340.6844,338.4063 2341.575,339.2266 Q2342.4656,340.0469 2344.0594,340.0469 Q2344.9969,340.0469 2345.6531,339.7969 Q2346.0438,339.6406 2346.4656,339.2031 Q2346.7313,338.9375 2346.8797,338.8594 Q2347.0281,338.7813 2347.2313,338.7813 Q2347.5594,338.7813 2347.8172,339.0391 Q2348.075,339.2969 2348.075,339.6406 Q2348.075,339.9844 2347.7313,340.3906 Q2347.2313,340.9688 2346.4344,341.2969 Q2345.3563,341.75 2344.0594,341.75 Q2342.5438,341.75 2341.3406,341.125 Q2340.3563,340.625 2339.6688,339.5547 Q2338.9813,338.4844 2338.9813,337.2031 L2338.9813,336.0469 Q2338.9813,334.7188 2339.5984,333.5703 Q2340.2156,332.4219 2341.3094,331.8047 Q2342.4031,331.1875 2343.6375,331.1875 Q2344.3719,331.1875 2345.0203,331.3516 Q2345.6688,331.5156 2346.2156,331.875 Z "/><text fill="#000000" font-family="sans-serif" font-size="12" lengthAdjust="spacingAndGlyphs" textLength="118" x="2362.55" y="340.9102">NewGameCommand</text><line style="stroke: #A80036; stroke-width: 1.5;" x1="2306.5" x2="2505.5" y1="352" y2="352"/><line style="stroke: #A80036; stroke-width: 1.5;" x1="2306.5" x2="2505.5" y1="360" y2="360"/><polygon fill="#FFFF44" points="2316.5,367.418,2320.5,371.418,2316.5,375.418,2312.5,371.418" style="stroke: #B38D22; stroke-width: 1.0;"/><text fill="#000000" font-family="sans-serif" font-size="11" lengthAdjust="spacingAndGlyphs" textLength="175" x="2325.5" y="375.4189">NewGameCommand(StartController)</text><polygon fill="#FFFF44" points="2316.5,381.2539,2320.5,385.2539,2316.5,389.2539,2312.5,385.2539" style="stroke: #B38D22; stroke-width: 1.0;"/><text fill="#000000" font-family="sans-serif" font-size="11" lengthAdjust="spacingAndGlyphs" textLength="73" x="2325.5" y="389.2549">execute(): void</text><polygon fill="#FFFF44" points="2316.5,395.0898,2320.5,399.0898,2316.5,403.0898,2312.5,399.0898" style="stroke: #B38D22; stroke-width: 1.0;"/><text fill="#000000" font-family="sans-serif" font-size="11" lengthAdjust="spacingAndGlyphs" textLength="91" x="2325.5" y="403.0908">isActive(): boolean</text><!--class mastermind.views.menus.OpenGameCommand--><rect fill="#FEFECE" filter="url(#f1f0u96tmizkji)" height="89.5078" id="mastermind.views.menus.OpenGameCommand" style="stroke: #A80036; stroke-width: 1.5;" width="204" x="2066" y="320"/><ellipse cx="2103.05" cy="336" fill="#ADD1B2" rx="11" ry="11" style="stroke: #A80036; stroke-width: 1.0;"/><path d="M2105.8156,331.875 Q2105.9719,331.6563 2106.1594,331.5469 Q2106.3469,331.4375 2106.5656,331.4375 Q2106.9406,331.4375 2107.175,331.6953 Q2107.4094,331.9531 2107.4094,332.5625 L2107.4094,334.0156 Q2107.4094,334.625 2107.175,334.8906 Q2106.9406,335.1563 2106.5656,335.1563 Q2106.2219,335.1563 2106.0188,334.9531 Q2105.8156,334.7656 2105.7063,334.25 Q2105.6594,333.8906 2105.4719,333.7031 Q2105.1438,333.3281 2104.5344,333.1094 Q2103.925,332.8906 2103.3,332.8906 Q2102.5344,332.8906 2101.9016,333.2188 Q2101.2688,333.5469 2100.7766,334.2969 Q2100.2844,335.0469 2100.2844,336.0781 L2100.2844,337.1719 Q2100.2844,338.4063 2101.175,339.2266 Q2102.0656,340.0469 2103.6594,340.0469 Q2104.5969,340.0469 2105.2531,339.7969 Q2105.6438,339.6406 2106.0656,339.2031 Q2106.3313,338.9375 2106.4797,338.8594 Q2106.6281,338.7813 2106.8313,338.7813 Q2107.1594,338.7813 2107.4172,339.0391 Q2107.675,339.2969 2107.675,339.6406 Q2107.675,339.9844 2107.3313,340.3906 Q2106.8313,340.9688 2106.0344,341.2969 Q2104.9563,341.75 2103.6594,341.75 Q2102.1438,341.75 2100.9406,341.125 Q2099.9563,340.625 2099.2688,339.5547 Q2098.5813,338.4844 2098.5813,337.2031 L2098.5813,336.0469 Q2098.5813,334.7188 2099.1984,333.5703 Q2099.8156,332.4219 2100.9094,331.8047 Q2102.0031,331.1875 2103.2375,331.1875 Q2103.9719,331.1875 2104.6203,331.3516 Q2105.2688,331.5156 2105.8156,331.875 Z "/><text fill="#000000" font-family="sans-serif" font-size="12" lengthAdjust="spacingAndGlyphs" textLength="123" x="2121.95" y="340.9102">OpenGameCommand</text><line style="stroke: #A80036; stroke-width: 1.5;" x1="2067" x2="2269" y1="352" y2="352"/><line style="stroke: #A80036; stroke-width: 1.5;" x1="2067" x2="2269" y1="360" y2="360"/><polygon fill="#FFFF44" points="2077,367.418,2081,371.418,2077,375.418,2073,371.418" style="stroke: #B38D22; stroke-width: 1.0;"/><text fill="#000000" font-family="sans-serif" font-size="11" lengthAdjust="spacingAndGlyphs" textLength="178" x="2086" y="375.4189">OpenGameCommand(StartController)</text><polygon fill="#FFFF44" points="2077,381.2539,2081,385.2539,2077,389.2539,2073,385.2539" style="stroke: #B38D22; stroke-width: 1.0;"/><text fill="#000000" font-family="sans-serif" font-size="11" lengthAdjust="spacingAndGlyphs" textLength="73" x="2086" y="389.2549">execute(): void</text><polygon fill="#FFFF44" points="2077,395.0898,2081,399.0898,2077,403.0898,2073,399.0898" style="stroke: #B38D22; stroke-width: 1.0;"/><text fill="#000000" font-family="sans-serif" font-size="11" lengthAdjust="spacingAndGlyphs" textLength="91" x="2086" y="403.0908">isActive(): boolean</text><!--class mastermind.views.menus.PlayMenu--><rect fill="#FEFECE" filter="url(#f1f0u96tmizkji)" height="61.8359" id="mastermind.views.menus.PlayMenu" style="stroke: #A80036; stroke-width: 1.5;" width="146" x="1556" y="191"/><ellipse cx="1598.45" cy="207" fill="#ADD1B2" rx="11" ry="11" style="stroke: #A80036; stroke-width: 1.0;"/><path d="M1601.2156,202.875 Q1601.3719,202.6563 1601.5594,202.5469 Q1601.7469,202.4375 1601.9656,202.4375 Q1602.3406,202.4375 1602.575,202.6953 Q1602.8094,202.9531 1602.8094,203.5625 L1602.8094,205.0156 Q1602.8094,205.625 1602.575,205.8906 Q1602.3406,206.1563 1601.9656,206.1563 Q1601.6219,206.1563 1601.4188,205.9531 Q1601.2156,205.7656 1601.1063,205.25 Q1601.0594,204.8906 1600.8719,204.7031 Q1600.5438,204.3281 1599.9344,204.1094 Q1599.325,203.8906 1598.7,203.8906 Q1597.9344,203.8906 1597.3016,204.2188 Q1596.6688,204.5469 1596.1766,205.2969 Q1595.6844,206.0469 1595.6844,207.0781 L1595.6844,208.1719 Q1595.6844,209.4063 1596.575,210.2266 Q1597.4656,211.0469 1599.0594,211.0469 Q1599.9969,211.0469 1600.6531,210.7969 Q1601.0438,210.6406 1601.4656,210.2031 Q1601.7313,209.9375 1601.8797,209.8594 Q1602.0281,209.7813 1602.2313,209.7813 Q1602.5594,209.7813 1602.8172,210.0391 Q1603.075,210.2969 1603.075,210.6406 Q1603.075,210.9844 1602.7313,211.3906 Q1602.2313,211.9688 1601.4344,212.2969 Q1600.3563,212.75 1599.0594,212.75 Q1597.5438,212.75 1596.3406,212.125 Q1595.3563,211.625 1594.6688,210.5547 Q1593.9813,209.4844 1593.9813,208.2031 L1593.9813,207.0469 Q1593.9813,205.7188 1594.5984,204.5703 Q1595.2156,203.4219 1596.3094,202.8047 Q1597.4031,202.1875 1598.6375,202.1875 Q1599.3719,202.1875 1600.0203,202.3516 Q1600.6688,202.5156 1601.2156,202.875 Z "/><text fill="#000000" font-family="sans-serif" font-size="12" lengthAdjust="spacingAndGlyphs" textLength="53" x="1618.55" y="211.9102">PlayMenu</text><line style="stroke: #A80036; stroke-width: 1.5;" x1="1557" x2="1701" y1="223" y2="223"/><line style="stroke: #A80036; stroke-width: 1.5;" x1="1557" x2="1701" y1="231" y2="231"/><ellipse cx="1567" cy="243.418" fill="#84BE84" rx="3" ry="3" style="stroke: #038048; stroke-width: 1.0;"/><text fill="#000000" font-family="sans-serif" font-size="11" lengthAdjust="spacingAndGlyphs" textLength="120" x="1576" y="246.4189">PlayMenu(PlayController)</text><!--class mastermind.views.menus.RedoCommand--><rect fill="#FEFECE" filter="url(#f1f0u96tmizkji)" height="89.5078" id="mastermind.views.menus.RedoCommand" style="stroke: #A80036; stroke-width: 1.5;" width="172" x="1230" y="320"/><ellipse cx="1267.95" cy="336" fill="#ADD1B2" rx="11" ry="11" style="stroke: #A80036; stroke-width: 1.0;"/><path d="M1270.7156,331.875 Q1270.8719,331.6563 1271.0594,331.5469 Q1271.2469,331.4375 1271.4656,331.4375 Q1271.8406,331.4375 1272.075,331.6953 Q1272.3094,331.9531 1272.3094,332.5625 L1272.3094,334.0156 Q1272.3094,334.625 1272.075,334.8906 Q1271.8406,335.1563 1271.4656,335.1563 Q1271.1219,335.1563 1270.9188,334.9531 Q1270.7156,334.7656 1270.6063,334.25 Q1270.5594,333.8906 1270.3719,333.7031 Q1270.0438,333.3281 1269.4344,333.1094 Q1268.825,332.8906 1268.2,332.8906 Q1267.4344,332.8906 1266.8016,333.2188 Q1266.1688,333.5469 1265.6766,334.2969 Q1265.1844,335.0469 1265.1844,336.0781 L1265.1844,337.1719 Q1265.1844,338.4063 1266.075,339.2266 Q1266.9656,340.0469 1268.5594,340.0469 Q1269.4969,340.0469 1270.1531,339.7969 Q1270.5438,339.6406 1270.9656,339.2031 Q1271.2313,338.9375 1271.3797,338.8594 Q1271.5281,338.7813 1271.7313,338.7813 Q1272.0594,338.7813 1272.3172,339.0391 Q1272.575,339.2969 1272.575,339.6406 Q1272.575,339.9844 1272.2313,340.3906 Q1271.7313,340.9688 1270.9344,341.2969 Q1269.8563,341.75 1268.5594,341.75 Q1267.0438,341.75 1265.8406,341.125 Q1264.8563,340.625 1264.1688,339.5547 Q1263.4813,338.4844 1263.4813,337.2031 L1263.4813,336.0469 Q1263.4813,334.7188 1264.0984,333.5703 Q1264.7156,332.4219 1265.8094,331.8047 Q1266.9031,331.1875 1268.1375,331.1875 Q1268.8719,331.1875 1269.5203,331.3516 Q1270.1688,331.5156 1270.7156,331.875 Z "/><text fill="#000000" font-family="sans-serif" font-size="12" lengthAdjust="spacingAndGlyphs" textLength="89" x="1287.05" y="340.9102">RedoCommand</text><line style="stroke: #A80036; stroke-width: 1.5;" x1="1231" x2="1401" y1="352" y2="352"/><line style="stroke: #A80036; stroke-width: 1.5;" x1="1231" x2="1401" y1="360" y2="360"/><polygon fill="#4177AF" points="1241,368.418,1237,374.418,1245,374.418" style="stroke: #1963A0; stroke-width: 1.0;"/><text fill="#000000" font-family="sans-serif" font-size="11" lengthAdjust="spacingAndGlyphs" textLength="146" x="1250" y="375.4189">RedoCommand(PlayController)</text><polygon fill="#FFFF44" points="1241,381.2539,1245,385.2539,1241,389.2539,1237,385.2539" style="stroke: #B38D22; stroke-width: 1.0;"/><text fill="#000000" font-family="sans-serif" font-size="11" lengthAdjust="spacingAndGlyphs" textLength="73" x="1250" y="389.2549">execute(): void</text><polygon fill="#FFFF44" points="1241,395.0898,1245,399.0898,1241,403.0898,1237,399.0898" style="stroke: #B38D22; stroke-width: 1.0;"/><text fill="#000000" font-family="sans-serif" font-size="11" lengthAdjust="spacingAndGlyphs" textLength="91" x="1250" y="403.0908">isActive(): boolean</text><!--class mastermind.views.menus.UndoCommand--><rect fill="#FEFECE" filter="url(#f1f0u96tmizkji)" height="89.5078" id="mastermind.views.menus.UndoCommand" style="stroke: #A80036; stroke-width: 1.5;" width="172" x="1437" y="320"/><ellipse cx="1474.95" cy="336" fill="#ADD1B2" rx="11" ry="11" style="stroke: #A80036; stroke-width: 1.0;"/><path d="M1477.7156,331.875 Q1477.8719,331.6563 1478.0594,331.5469 Q1478.2469,331.4375 1478.4656,331.4375 Q1478.8406,331.4375 1479.075,331.6953 Q1479.3094,331.9531 1479.3094,332.5625 L1479.3094,334.0156 Q1479.3094,334.625 1479.075,334.8906 Q1478.8406,335.1563 1478.4656,335.1563 Q1478.1219,335.1563 1477.9188,334.9531 Q1477.7156,334.7656 1477.6063,334.25 Q1477.5594,333.8906 1477.3719,333.7031 Q1477.0438,333.3281 1476.4344,333.1094 Q1475.825,332.8906 1475.2,332.8906 Q1474.4344,332.8906 1473.8016,333.2188 Q1473.1688,333.5469 1472.6766,334.2969 Q1472.1844,335.0469 1472.1844,336.0781 L1472.1844,337.1719 Q1472.1844,338.4063 1473.075,339.2266 Q1473.9656,340.0469 1475.5594,340.0469 Q1476.4969,340.0469 1477.1531,339.7969 Q1477.5438,339.6406 1477.9656,339.2031 Q1478.2313,338.9375 1478.3797,338.8594 Q1478.5281,338.7813 1478.7313,338.7813 Q1479.0594,338.7813 1479.3172,339.0391 Q1479.575,339.2969 1479.575,339.6406 Q1479.575,339.9844 1479.2313,340.3906 Q1478.7313,340.9688 1477.9344,341.2969 Q1476.8563,341.75 1475.5594,341.75 Q1474.0438,341.75 1472.8406,341.125 Q1471.8563,340.625 1471.1688,339.5547 Q1470.4813,338.4844 1470.4813,337.2031 L1470.4813,336.0469 Q1470.4813,334.7188 1471.0984,333.5703 Q1471.7156,332.4219 1472.8094,331.8047 Q1473.9031,331.1875 1475.1375,331.1875 Q1475.8719,331.1875 1476.5203,331.3516 Q1477.1688,331.5156 1477.7156,331.875 Z "/><text fill="#000000" font-family="sans-serif" font-size="12" lengthAdjust="spacingAndGlyphs" textLength="89" x="1494.05" y="340.9102">UndoCommand</text><line style="stroke: #A80036; stroke-width: 1.5;" x1="1438" x2="1608" y1="352" y2="352"/><line style="stroke: #A80036; stroke-width: 1.5;" x1="1438" x2="1608" y1="360" y2="360"/><polygon fill="#4177AF" points="1448,368.418,1444,374.418,1452,374.418" style="stroke: #1963A0; stroke-width: 1.0;"/><text fill="#000000" font-family="sans-serif" font-size="11" lengthAdjust="spacingAndGlyphs" textLength="146" x="1457" y="375.4189">UndoCommand(PlayController)</text><polygon fill="#FFFF44" points="1448,381.2539,1452,385.2539,1448,389.2539,1444,385.2539" style="stroke: #B38D22; stroke-width: 1.0;"/><text fill="#000000" font-family="sans-serif" font-size="11" lengthAdjust="spacingAndGlyphs" textLength="73" x="1457" y="389.2549">execute(): void</text><polygon fill="#FFFF44" points="1448,395.0898,1452,399.0898,1448,403.0898,1444,399.0898" style="stroke: #B38D22; stroke-width: 1.0;"/><text fill="#000000" font-family="sans-serif" font-size="11" lengthAdjust="spacingAndGlyphs" textLength="91" x="1457" y="403.0908">isActive(): boolean</text><!--class mastermind.views.menus.ProposeCommand--><rect fill="#FEFECE" filter="url(#f1f0u96tmizkji)" height="89.5078" id="mastermind.views.menus.ProposeCommand" style="stroke: #A80036; stroke-width: 1.5;" width="187" x="1644.5" y="320"/><ellipse cx="1681.55" cy="336" fill="#ADD1B2" rx="11" ry="11" style="stroke: #A80036; stroke-width: 1.0;"/><path d="M1684.3156,331.875 Q1684.4719,331.6563 1684.6594,331.5469 Q1684.8469,331.4375 1685.0656,331.4375 Q1685.4406,331.4375 1685.675,331.6953 Q1685.9094,331.9531 1685.9094,332.5625 L1685.9094,334.0156 Q1685.9094,334.625 1685.675,334.8906 Q1685.4406,335.1563 1685.0656,335.1563 Q1684.7219,335.1563 1684.5188,334.9531 Q1684.3156,334.7656 1684.2063,334.25 Q1684.1594,333.8906 1683.9719,333.7031 Q1683.6438,333.3281 1683.0344,333.1094 Q1682.425,332.8906 1681.8,332.8906 Q1681.0344,332.8906 1680.4016,333.2188 Q1679.7688,333.5469 1679.2766,334.2969 Q1678.7844,335.0469 1678.7844,336.0781 L1678.7844,337.1719 Q1678.7844,338.4063 1679.675,339.2266 Q1680.5656,340.0469 1682.1594,340.0469 Q1683.0969,340.0469 1683.7531,339.7969 Q1684.1438,339.6406 1684.5656,339.2031 Q1684.8313,338.9375 1684.9797,338.8594 Q1685.1281,338.7813 1685.3313,338.7813 Q1685.6594,338.7813 1685.9172,339.0391 Q1686.175,339.2969 1686.175,339.6406 Q1686.175,339.9844 1685.8313,340.3906 Q1685.3313,340.9688 1684.5344,341.2969 Q1683.4563,341.75 1682.1594,341.75 Q1680.6438,341.75 1679.4406,341.125 Q1678.4563,340.625 1677.7688,339.5547 Q1677.0813,338.4844 1677.0813,337.2031 L1677.0813,336.0469 Q1677.0813,334.7188 1677.6984,333.5703 Q1678.3156,332.4219 1679.4094,331.8047 Q1680.5031,331.1875 1681.7375,331.1875 Q1682.4719,331.1875 1683.1203,331.3516 Q1683.7688,331.5156 1684.3156,331.875 Z "/><text fill="#000000" font-family="sans-serif" font-size="12" lengthAdjust="spacingAndGlyphs" textLength="106" x="1700.45" y="340.9102">ProposeCommand</text><line style="stroke: #A80036; stroke-width: 1.5;" x1="1645.5" x2="1830.5" y1="352" y2="352"/><line style="stroke: #A80036; stroke-width: 1.5;" x1="1645.5" x2="1830.5" y1="360" y2="360"/><polygon fill="#4177AF" points="1655.5,368.418,1651.5,374.418,1659.5,374.418" style="stroke: #1963A0; stroke-width: 1.0;"/><text fill="#000000" font-family="sans-serif" font-size="11" lengthAdjust="spacingAndGlyphs" textLength="161" x="1664.5" y="375.4189">ProposeCommand(PlayController)</text><polygon fill="#FFFF44" points="1655.5,381.2539,1659.5,385.2539,1655.5,389.2539,1651.5,385.2539" style="stroke: #B38D22; stroke-width: 1.0;"/><text fill="#000000" font-family="sans-serif" font-size="11" lengthAdjust="spacingAndGlyphs" textLength="73" x="1664.5" y="389.2549">execute(): void</text><polygon fill="#FFFF44" points="1655.5,395.0898,1659.5,399.0898,1655.5,403.0898,1651.5,399.0898" style="stroke: #B38D22; stroke-width: 1.0;"/><text fill="#000000" font-family="sans-serif" font-size="11" lengthAdjust="spacingAndGlyphs" textLength="91" x="1664.5" y="403.0908">isActive(): boolean</text><!--class mastermind.views.menus.StartMenu--><rect fill="#FEFECE" filter="url(#f1f0u96tmizkji)" height="61.8359" id="mastermind.views.menus.StartMenu" style="stroke: #A80036; stroke-width: 1.5;" width="152" x="2091" y="191"/><ellipse cx="2135.25" cy="207" fill="#ADD1B2" rx="11" ry="11" style="stroke: #A80036; stroke-width: 1.0;"/><path d="M2138.0156,202.875 Q2138.1719,202.6563 2138.3594,202.5469 Q2138.5469,202.4375 2138.7656,202.4375 Q2139.1406,202.4375 2139.375,202.6953 Q2139.6094,202.9531 2139.6094,203.5625 L2139.6094,205.0156 Q2139.6094,205.625 2139.375,205.8906 Q2139.1406,206.1563 2138.7656,206.1563 Q2138.4219,206.1563 2138.2188,205.9531 Q2138.0156,205.7656 2137.9063,205.25 Q2137.8594,204.8906 2137.6719,204.7031 Q2137.3438,204.3281 2136.7344,204.1094 Q2136.125,203.8906 2135.5,203.8906 Q2134.7344,203.8906 2134.1016,204.2188 Q2133.4688,204.5469 2132.9766,205.2969 Q2132.4844,206.0469 2132.4844,207.0781 L2132.4844,208.1719 Q2132.4844,209.4063 2133.375,210.2266 Q2134.2656,211.0469 2135.8594,211.0469 Q2136.7969,211.0469 2137.4531,210.7969 Q2137.8438,210.6406 2138.2656,210.2031 Q2138.5313,209.9375 2138.6797,209.8594 Q2138.8281,209.7813 2139.0313,209.7813 Q2139.3594,209.7813 2139.6172,210.0391 Q2139.875,210.2969 2139.875,210.6406 Q2139.875,210.9844 2139.5313,211.3906 Q2139.0313,211.9688 2138.2344,212.2969 Q2137.1563,212.75 2135.8594,212.75 Q2134.3438,212.75 2133.1406,212.125 Q2132.1563,211.625 2131.4688,210.5547 Q2130.7813,209.4844 2130.7813,208.2031 L2130.7813,207.0469 Q2130.7813,205.7188 2131.3984,204.5703 Q2132.0156,203.4219 2133.1094,202.8047 Q2134.2031,202.1875 2135.4375,202.1875 Q2136.1719,202.1875 2136.8203,202.3516 Q2137.4688,202.5156 2138.0156,202.875 Z "/><text fill="#000000" font-family="sans-serif" font-size="12" lengthAdjust="spacingAndGlyphs" textLength="55" x="2155.75" y="211.9102">StartMenu</text><line style="stroke: #A80036; stroke-width: 1.5;" x1="2092" x2="2242" y1="223" y2="223"/><line style="stroke: #A80036; stroke-width: 1.5;" x1="2092" x2="2242" y1="231" y2="231"/><ellipse cx="2102" cy="243.418" fill="#84BE84" rx="3" ry="3" style="stroke: #038048; stroke-width: 1.0;"/><text fill="#000000" font-family="sans-serif" font-size="11" lengthAdjust="spacingAndGlyphs" textLength="126" x="2111" y="246.4189">StartMenu(StartController)</text><!--class santaTecla.utils.Command--><rect fill="#FEFECE" filter="url(#f1f0u96tmizkji)" height="48" id="santaTecla.utils.Command" style="stroke: #A80036; stroke-width: 1.5;" width="91" x="1956.5" y="60"/><ellipse cx="1971.5" cy="76" fill="#ADD1B2" rx="11" ry="11" style="stroke: #A80036; stroke-width: 1.0;"/><path d="M1974.2656,71.875 Q1974.4219,71.6563 1974.6094,71.5469 Q1974.7969,71.4375 1975.0156,71.4375 Q1975.3906,71.4375 1975.625,71.6953 Q1975.8594,71.9531 1975.8594,72.5625 L1975.8594,74.0156 Q1975.8594,74.625 1975.625,74.8906 Q1975.3906,75.1563 1975.0156,75.1563 Q1974.6719,75.1563 1974.4688,74.9531 Q1974.2656,74.7656 1974.1563,74.25 Q1974.1094,73.8906 1973.9219,73.7031 Q1973.5938,73.3281 1972.9844,73.1094 Q1972.375,72.8906 1971.75,72.8906 Q1970.9844,72.8906 1970.3516,73.2188 Q1969.7188,73.5469 1969.2266,74.2969 Q1968.7344,75.0469 1968.7344,76.0781 L1968.7344,77.1719 Q1968.7344,78.4063 1969.625,79.2266 Q1970.5156,80.0469 1972.1094,80.0469 Q1973.0469,80.0469 1973.7031,79.7969 Q1974.0938,79.6406 1974.5156,79.2031 Q1974.7813,78.9375 1974.9297,78.8594 Q1975.0781,78.7813 1975.2813,78.7813 Q1975.6094,78.7813 1975.8672,79.0391 Q1976.125,79.2969 1976.125,79.6406 Q1976.125,79.9844 1975.7813,80.3906 Q1975.2813,80.9688 1974.4844,81.2969 Q1973.4063,81.75 1972.1094,81.75 Q1970.5938,81.75 1969.3906,81.125 Q1968.4063,80.625 1967.7188,79.5547 Q1967.0313,78.4844 1967.0313,77.2031 L1967.0313,76.0469 Q1967.0313,74.7188 1967.6484,73.5703 Q1968.2656,72.4219 1969.3594,71.8047 Q1970.4531,71.1875 1971.6875,71.1875 Q1972.4219,71.1875 1973.0703,71.3516 Q1973.7188,71.5156 1974.2656,71.875 Z "/><text fill="#000000" font-family="sans-serif" font-size="12" lengthAdjust="spacingAndGlyphs" textLength="59" x="1985.5" y="80.9102">Command</text><line style="stroke: #A80036; stroke-width: 1.5;" x1="1957.5" x2="2046.5" y1="92" y2="92"/><line style="stroke: #A80036; stroke-width: 1.5;" x1="1957.5" x2="2046.5" y1="100" y2="100"/><!--class santaTecla.utils.Menu--><rect fill="#FEFECE" filter="url(#f1f0u96tmizkji)" height="48" id="santaTecla.utils.Menu" style="stroke: #A80036; stroke-width: 1.5;" width="62" x="2083" y="60"/><ellipse cx="2098" cy="76" fill="#ADD1B2" rx="11" ry="11" style="stroke: #A80036; stroke-width: 1.0;"/><path d="M2100.7656,71.875 Q2100.9219,71.6563 2101.1094,71.5469 Q2101.2969,71.4375 2101.5156,71.4375 Q2101.8906,71.4375 2102.125,71.6953 Q2102.3594,71.9531 2102.3594,72.5625 L2102.3594,74.0156 Q2102.3594,74.625 2102.125,74.8906 Q2101.8906,75.1563 2101.5156,75.1563 Q2101.1719,75.1563 2100.9688,74.9531 Q2100.7656,74.7656 2100.6563,74.25 Q2100.6094,73.8906 2100.4219,73.7031 Q2100.0938,73.3281 2099.4844,73.1094 Q2098.875,72.8906 2098.25,72.8906 Q2097.4844,72.8906 2096.8516,73.2188 Q2096.2188,73.5469 2095.7266,74.2969 Q2095.2344,75.0469 2095.2344,76.0781 L2095.2344,77.1719 Q2095.2344,78.4063 2096.125,79.2266 Q2097.0156,80.0469 2098.6094,80.0469 Q2099.5469,80.0469 2100.2031,79.7969 Q2100.5938,79.6406 2101.0156,79.2031 Q2101.2813,78.9375 2101.4297,78.8594 Q2101.5781,78.7813 2101.7813,78.7813 Q2102.1094,78.7813 2102.3672,79.0391 Q2102.625,79.2969 2102.625,79.6406 Q2102.625,79.9844 2102.2813,80.3906 Q2101.7813,80.9688 2100.9844,81.2969 Q2099.9063,81.75 2098.6094,81.75 Q2097.0938,81.75 2095.8906,81.125 Q2094.9063,80.625 2094.2188,79.5547 Q2093.5313,78.4844 2093.5313,77.2031 L2093.5313,76.0469 Q2093.5313,74.7188 2094.1484,73.5703 Q2094.7656,72.4219 2095.8594,71.8047 Q2096.9531,71.1875 2098.1875,71.1875 Q2098.9219,71.1875 2099.5703,71.3516 Q2100.2188,71.5156 2100.7656,71.875 Z "/><text fill="#000000" font-family="sans-serif" font-size="12" lengthAdjust="spacingAndGlyphs" textLength="30" x="2112" y="80.9102">Menu</text><line style="stroke: #A80036; stroke-width: 1.5;" x1="2084" x2="2144" y1="92" y2="92"/><line style="stroke: #A80036; stroke-width: 1.5;" x1="2084" x2="2144" y1="100" y2="100"/><!--class mastermind.controllers.AcceptorController--><rect fill="#FEFECE" filter="url(#f1f0u96tmizkji)" height="48" id="mastermind.controllers.AcceptorController" style="stroke: #A80036; stroke-width: 1.5;" width="133" x="38.5" y="758"/><ellipse cx="53.5" cy="774" fill="#ADD1B2" rx="11" ry="11" style="stroke: #A80036; stroke-width: 1.0;"/><path d="M56.2656,769.875 Q56.4219,769.6563 56.6094,769.5469 Q56.7969,769.4375 57.0156,769.4375 Q57.3906,769.4375 57.625,769.6953 Q57.8594,769.9531 57.8594,770.5625 L57.8594,772.0156 Q57.8594,772.625 57.625,772.8906 Q57.3906,773.1563 57.0156,773.1563 Q56.6719,773.1563 56.4688,772.9531 Q56.2656,772.7656 56.1563,772.25 Q56.1094,771.8906 55.9219,771.7031 Q55.5938,771.3281 54.9844,771.1094 Q54.375,770.8906 53.75,770.8906 Q52.9844,770.8906 52.3516,771.2188 Q51.7188,771.5469 51.2266,772.2969 Q50.7344,773.0469 50.7344,774.0781 L50.7344,775.1719 Q50.7344,776.4063 51.625,777.2266 Q52.5156,778.0469 54.1094,778.0469 Q55.0469,778.0469 55.7031,777.7969 Q56.0938,777.6406 56.5156,777.2031 Q56.7813,776.9375 56.9297,776.8594 Q57.0781,776.7813 57.2813,776.7813 Q57.6094,776.7813 57.8672,777.0391 Q58.125,777.2969 58.125,777.6406 Q58.125,777.9844 57.7813,778.3906 Q57.2813,778.9688 56.4844,779.2969 Q55.4063,779.75 54.1094,779.75 Q52.5938,779.75 51.3906,779.125 Q50.4063,778.625 49.7188,777.5547 Q49.0313,776.4844 49.0313,775.2031 L49.0313,774.0469 Q49.0313,772.7188 49.6484,771.5703 Q50.2656,770.4219 51.3594,769.8047 Q52.4531,769.1875 53.6875,769.1875 Q54.4219,769.1875 55.0703,769.3516 Q55.7188,769.5156 56.2656,769.875 Z "/><text fill="#000000" font-family="sans-serif" font-size="12" lengthAdjust="spacingAndGlyphs" textLength="101" x="67.5" y="778.9102">AcceptorController</text><line style="stroke: #A80036; stroke-width: 1.5;" x1="39.5" x2="170.5" y1="790" y2="790"/><line style="stroke: #A80036; stroke-width: 1.5;" x1="39.5" x2="170.5" y1="798" y2="798"/><!--class mastermind.controllers.PlayController--><rect fill="#FEFECE" filter="url(#f1f0u96tmizkji)" height="48" id="mastermind.controllers.PlayController" style="stroke: #A80036; stroke-width: 1.5;" width="109" x="206.5" y="758"/><ellipse cx="221.5" cy="774" fill="#ADD1B2" rx="11" ry="11" style="stroke: #A80036; stroke-width: 1.0;"/><path d="M224.2656,769.875 Q224.4219,769.6563 224.6094,769.5469 Q224.7969,769.4375 225.0156,769.4375 Q225.3906,769.4375 225.625,769.6953 Q225.8594,769.9531 225.8594,770.5625 L225.8594,772.0156 Q225.8594,772.625 225.625,772.8906 Q225.3906,773.1563 225.0156,773.1563 Q224.6719,773.1563 224.4688,772.9531 Q224.2656,772.7656 224.1563,772.25 Q224.1094,771.8906 223.9219,771.7031 Q223.5938,771.3281 222.9844,771.1094 Q222.375,770.8906 221.75,770.8906 Q220.9844,770.8906 220.3516,771.2188 Q219.7188,771.5469 219.2266,772.2969 Q218.7344,773.0469 218.7344,774.0781 L218.7344,775.1719 Q218.7344,776.4063 219.625,777.2266 Q220.5156,778.0469 222.1094,778.0469 Q223.0469,778.0469 223.7031,777.7969 Q224.0938,777.6406 224.5156,777.2031 Q224.7813,776.9375 224.9297,776.8594 Q225.0781,776.7813 225.2813,776.7813 Q225.6094,776.7813 225.8672,777.0391 Q226.125,777.2969 226.125,777.6406 Q226.125,777.9844 225.7813,778.3906 Q225.2813,778.9688 224.4844,779.2969 Q223.4063,779.75 222.1094,779.75 Q220.5938,779.75 219.3906,779.125 Q218.4063,778.625 217.7188,777.5547 Q217.0313,776.4844 217.0313,775.2031 L217.0313,774.0469 Q217.0313,772.7188 217.6484,771.5703 Q218.2656,770.4219 219.3594,769.8047 Q220.4531,769.1875 221.6875,769.1875 Q222.4219,769.1875 223.0703,769.3516 Q223.7188,769.5156 224.2656,769.875 Z "/><text fill="#000000" font-family="sans-serif" font-size="12" lengthAdjust="spacingAndGlyphs" textLength="77" x="235.5" y="778.9102">PlayController</text><line style="stroke: #A80036; stroke-width: 1.5;" x1="207.5" x2="314.5" y1="790" y2="790"/><line style="stroke: #A80036; stroke-width: 1.5;" x1="207.5" x2="314.5" y1="798" y2="798"/><!--class mastermind.controllers.StartController--><rect fill="#FEFECE" filter="url(#f1f0u96tmizkji)" height="48" id="mastermind.controllers.StartController" style="stroke: #A80036; stroke-width: 1.5;" width="111" x="350.5" y="758"/><ellipse cx="365.5" cy="774" fill="#ADD1B2" rx="11" ry="11" style="stroke: #A80036; stroke-width: 1.0;"/><path d="M368.2656,769.875 Q368.4219,769.6563 368.6094,769.5469 Q368.7969,769.4375 369.0156,769.4375 Q369.3906,769.4375 369.625,769.6953 Q369.8594,769.9531 369.8594,770.5625 L369.8594,772.0156 Q369.8594,772.625 369.625,772.8906 Q369.3906,773.1563 369.0156,773.1563 Q368.6719,773.1563 368.4688,772.9531 Q368.2656,772.7656 368.1563,772.25 Q368.1094,771.8906 367.9219,771.7031 Q367.5938,771.3281 366.9844,771.1094 Q366.375,770.8906 365.75,770.8906 Q364.9844,770.8906 364.3516,771.2188 Q363.7188,771.5469 363.2266,772.2969 Q362.7344,773.0469 362.7344,774.0781 L362.7344,775.1719 Q362.7344,776.4063 363.625,777.2266 Q364.5156,778.0469 366.1094,778.0469 Q367.0469,778.0469 367.7031,777.7969 Q368.0938,777.6406 368.5156,777.2031 Q368.7813,776.9375 368.9297,776.8594 Q369.0781,776.7813 369.2813,776.7813 Q369.6094,776.7813 369.8672,777.0391 Q370.125,777.2969 370.125,777.6406 Q370.125,777.9844 369.7813,778.3906 Q369.2813,778.9688 368.4844,779.2969 Q367.4063,779.75 366.1094,779.75 Q364.5938,779.75 363.3906,779.125 Q362.4063,778.625 361.7188,777.5547 Q361.0313,776.4844 361.0313,775.2031 L361.0313,774.0469 Q361.0313,772.7188 361.6484,771.5703 Q362.2656,770.4219 363.3594,769.8047 Q364.4531,769.1875 365.6875,769.1875 Q366.4219,769.1875 367.0703,769.3516 Q367.7188,769.5156 368.2656,769.875 Z "/><text fill="#000000" font-family="sans-serif" font-size="12" lengthAdjust="spacingAndGlyphs" textLength="79" x="379.5" y="778.9102">StartController</text><line style="stroke: #A80036; stroke-width: 1.5;" x1="351.5" x2="460.5" y1="790" y2="790"/><line style="stroke: #A80036; stroke-width: 1.5;" x1="351.5" x2="460.5" y1="798" y2="798"/><!--class mastermind.views.models.MessageView--><rect fill="#FEFECE" filter="url(#f1f0u96tmizkji)" height="48" id="mastermind.views.models.MessageView" style="stroke: #A80036; stroke-width: 1.5;" width="109" x="1064.5" y="477"/><ellipse cx="1079.5" cy="493" fill="#ADD1B2" rx="11" ry="11" style="stroke: #A80036; stroke-width: 1.0;"/><path d="M1082.2656,488.875 Q1082.4219,488.6563 1082.6094,488.5469 Q1082.7969,488.4375 1083.0156,488.4375 Q1083.3906,488.4375 1083.625,488.6953 Q1083.8594,488.9531 1083.8594,489.5625 L1083.8594,491.0156 Q1083.8594,491.625 1083.625,491.8906 Q1083.3906,492.1563 1083.0156,492.1563 Q1082.6719,492.1563 1082.4688,491.9531 Q1082.2656,491.7656 1082.1563,491.25 Q1082.1094,490.8906 1081.9219,490.7031 Q1081.5938,490.3281 1080.9844,490.1094 Q1080.375,489.8906 1079.75,489.8906 Q1078.9844,489.8906 1078.3516,490.2188 Q1077.7188,490.5469 1077.2266,491.2969 Q1076.7344,492.0469 1076.7344,493.0781 L1076.7344,494.1719 Q1076.7344,495.4063 1077.625,496.2266 Q1078.5156,497.0469 1080.1094,497.0469 Q1081.0469,497.0469 1081.7031,496.7969 Q1082.0938,496.6406 1082.5156,496.2031 Q1082.7813,495.9375 1082.9297,495.8594 Q1083.0781,495.7813 1083.2813,495.7813 Q1083.6094,495.7813 1083.8672,496.0391 Q1084.125,496.2969 1084.125,496.6406 Q1084.125,496.9844 1083.7813,497.3906 Q1083.2813,497.9688 1082.4844,498.2969 Q1081.4063,498.75 1080.1094,498.75 Q1078.5938,498.75 1077.3906,498.125 Q1076.4063,497.625 1075.7188,496.5547 Q1075.0313,495.4844 1075.0313,494.2031 L1075.0313,493.0469 Q1075.0313,491.7188 1075.6484,490.5703 Q1076.2656,489.4219 1077.3594,488.8047 Q1078.4531,488.1875 1079.6875,488.1875 Q1080.4219,488.1875 1081.0703,488.3516 Q1081.7188,488.5156 1082.2656,488.875 Z "/><text fill="#000000" font-family="sans-serif" font-size="12" lengthAdjust="spacingAndGlyphs" textLength="77" x="1093.5" y="497.9102">MessageView</text><line style="stroke: #A80036; stroke-width: 1.5;" x1="1065.5" x2="1172.5" y1="509" y2="509"/><line style="stroke: #A80036; stroke-width: 1.5;" x1="1065.5" x2="1172.5" y1="517" y2="517"/><!--class mastermind.views.models.ProposedCombinationView--><rect fill="#FEFECE" filter="url(#f1f0u96tmizkji)" height="48" id="mastermind.views.models.ProposedCombinationView" style="stroke: #A80036; stroke-width: 1.5;" width="183" x="846.5" y="477"/><ellipse cx="861.5" cy="493" fill="#ADD1B2" rx="11" ry="11" style="stroke: #A80036; stroke-width: 1.0;"/><path d="M864.2656,488.875 Q864.4219,488.6563 864.6094,488.5469 Q864.7969,488.4375 865.0156,488.4375 Q865.3906,488.4375 865.625,488.6953 Q865.8594,488.9531 865.8594,489.5625 L865.8594,491.0156 Q865.8594,491.625 865.625,491.8906 Q865.3906,492.1563 865.0156,492.1563 Q864.6719,492.1563 864.4688,491.9531 Q864.2656,491.7656 864.1563,491.25 Q864.1094,490.8906 863.9219,490.7031 Q863.5938,490.3281 862.9844,490.1094 Q862.375,489.8906 861.75,489.8906 Q860.9844,489.8906 860.3516,490.2188 Q859.7188,490.5469 859.2266,491.2969 Q858.7344,492.0469 858.7344,493.0781 L858.7344,494.1719 Q858.7344,495.4063 859.625,496.2266 Q860.5156,497.0469 862.1094,497.0469 Q863.0469,497.0469 863.7031,496.7969 Q864.0938,496.6406 864.5156,496.2031 Q864.7813,495.9375 864.9297,495.8594 Q865.0781,495.7813 865.2813,495.7813 Q865.6094,495.7813 865.8672,496.0391 Q866.125,496.2969 866.125,496.6406 Q866.125,496.9844 865.7813,497.3906 Q865.2813,497.9688 864.4844,498.2969 Q863.4063,498.75 862.1094,498.75 Q860.5938,498.75 859.3906,498.125 Q858.4063,497.625 857.7188,496.5547 Q857.0313,495.4844 857.0313,494.2031 L857.0313,493.0469 Q857.0313,491.7188 857.6484,490.5703 Q858.2656,489.4219 859.3594,488.8047 Q860.4531,488.1875 861.6875,488.1875 Q862.4219,488.1875 863.0703,488.3516 Q863.7188,488.5156 864.2656,488.875 Z "/><text fill="#000000" font-family="sans-serif" font-size="12" lengthAdjust="spacingAndGlyphs" textLength="151" x="875.5" y="497.9102">ProposedCombinationView</text><line style="stroke: #A80036; stroke-width: 1.5;" x1="847.5" x2="1028.5" y1="509" y2="509"/><line style="stroke: #A80036; stroke-width: 1.5;" x1="847.5" x2="1028.5" y1="517" y2="517"/><!--class mastermind.views.models.GameView--><rect fill="#FEFECE" filter="url(#f1f0u96tmizkji)" height="48" id="mastermind.views.models.GameView" style="stroke: #A80036; stroke-width: 1.5;" width="92" x="719" y="477"/><ellipse cx="734" cy="493" fill="#ADD1B2" rx="11" ry="11" style="stroke: #A80036; stroke-width: 1.0;"/><path d="M736.7656,488.875 Q736.9219,488.6563 737.1094,488.5469 Q737.2969,488.4375 737.5156,488.4375 Q737.8906,488.4375 738.125,488.6953 Q738.3594,488.9531 738.3594,489.5625 L738.3594,491.0156 Q738.3594,491.625 738.125,491.8906 Q737.8906,492.1563 737.5156,492.1563 Q737.1719,492.1563 736.9688,491.9531 Q736.7656,491.7656 736.6563,491.25 Q736.6094,490.8906 736.4219,490.7031 Q736.0938,490.3281 735.4844,490.1094 Q734.875,489.8906 734.25,489.8906 Q733.4844,489.8906 732.8516,490.2188 Q732.2188,490.5469 731.7266,491.2969 Q731.2344,492.0469 731.2344,493.0781 L731.2344,494.1719 Q731.2344,495.4063 732.125,496.2266 Q733.0156,497.0469 734.6094,497.0469 Q735.5469,497.0469 736.2031,496.7969 Q736.5938,496.6406 737.0156,496.2031 Q737.2813,495.9375 737.4297,495.8594 Q737.5781,495.7813 737.7813,495.7813 Q738.1094,495.7813 738.3672,496.0391 Q738.625,496.2969 738.625,496.6406 Q738.625,496.9844 738.2813,497.3906 Q737.7813,497.9688 736.9844,498.2969 Q735.9063,498.75 734.6094,498.75 Q733.0938,498.75 731.8906,498.125 Q730.9063,497.625 730.2188,496.5547 Q729.5313,495.4844 729.5313,494.2031 L729.5313,493.0469 Q729.5313,491.7188 730.1484,490.5703 Q730.7656,489.4219 731.8594,488.8047 Q732.9531,488.1875 734.1875,488.1875 Q734.9219,488.1875 735.5703,488.3516 Q736.2188,488.5156 736.7656,488.875 Z "/><text fill="#000000" font-family="sans-serif" font-size="12" lengthAdjust="spacingAndGlyphs" textLength="60" x="748" y="497.9102">GameView</text><line style="stroke: #A80036; stroke-width: 1.5;" x1="720" x2="810" y1="509" y2="509"/><line style="stroke: #A80036; stroke-width: 1.5;" x1="720" x2="810" y1="517" y2="517"/><!--class mastermind.types.Color--><rect fill="#FEFECE" filter="url(#f1f0u96tmizkji)" height="48" id="mastermind.types.Color" style="stroke: #A80036; stroke-width: 1.5;" width="62" x="551" y="477"/><ellipse cx="566" cy="493" fill="#ADD1B2" rx="11" ry="11" style="stroke: #A80036; stroke-width: 1.0;"/><path d="M568.7656,488.875 Q568.9219,488.6563 569.1094,488.5469 Q569.2969,488.4375 569.5156,488.4375 Q569.8906,488.4375 570.125,488.6953 Q570.3594,488.9531 570.3594,489.5625 L570.3594,491.0156 Q570.3594,491.625 570.125,491.8906 Q569.8906,492.1563 569.5156,492.1563 Q569.1719,492.1563 568.9688,491.9531 Q568.7656,491.7656 568.6563,491.25 Q568.6094,490.8906 568.4219,490.7031 Q568.0938,490.3281 567.4844,490.1094 Q566.875,489.8906 566.25,489.8906 Q565.4844,489.8906 564.8516,490.2188 Q564.2188,490.5469 563.7266,491.2969 Q563.2344,492.0469 563.2344,493.0781 L563.2344,494.1719 Q563.2344,495.4063 564.125,496.2266 Q565.0156,497.0469 566.6094,497.0469 Q567.5469,497.0469 568.2031,496.7969 Q568.5938,496.6406 569.0156,496.2031 Q569.2813,495.9375 569.4297,495.8594 Q569.5781,495.7813 569.7813,495.7813 Q570.1094,495.7813 570.3672,496.0391 Q570.625,496.2969 570.625,496.6406 Q570.625,496.9844 570.2813,497.3906 Q569.7813,497.9688 568.9844,498.2969 Q567.9063,498.75 566.6094,498.75 Q565.0938,498.75 563.8906,498.125 Q562.9063,497.625 562.2188,496.5547 Q561.5313,495.4844 561.5313,494.2031 L561.5313,493.0469 Q561.5313,491.7188 562.1484,490.5703 Q562.7656,489.4219 563.8594,488.8047 Q564.9531,488.1875 566.1875,488.1875 Q566.9219,488.1875 567.5703,488.3516 Q568.2188,488.5156 568.7656,488.875 Z "/><text fill="#000000" font-family="sans-serif" font-size="12" lengthAdjust="spacingAndGlyphs" textLength="30" x="580" y="497.9102">Color</text><line style="stroke: #A80036; stroke-width: 1.5;" x1="552" x2="612" y1="509" y2="509"/><line style="stroke: #A80036; stroke-width: 1.5;" x1="552" x2="612" y1="517" y2="517"/><!--class mastermind.types.Error--><rect fill="#FEFECE" filter="url(#f1f0u96tmizkji)" height="48" id="mastermind.types.Error" style="stroke: #A80036; stroke-width: 1.5;" width="59" x="456.5" y="477"/><ellipse cx="471.5" cy="493" fill="#ADD1B2" rx="11" ry="11" style="stroke: #A80036; stroke-width: 1.0;"/><path d="M474.2656,488.875 Q474.4219,488.6563 474.6094,488.5469 Q474.7969,488.4375 475.0156,488.4375 Q475.3906,488.4375 475.625,488.6953 Q475.8594,488.9531 475.8594,489.5625 L475.8594,491.0156 Q475.8594,491.625 475.625,491.8906 Q475.3906,492.1563 475.0156,492.1563 Q474.6719,492.1563 474.4688,491.9531 Q474.2656,491.7656 474.1563,491.25 Q474.1094,490.8906 473.9219,490.7031 Q473.5938,490.3281 472.9844,490.1094 Q472.375,489.8906 471.75,489.8906 Q470.9844,489.8906 470.3516,490.2188 Q469.7188,490.5469 469.2266,491.2969 Q468.7344,492.0469 468.7344,493.0781 L468.7344,494.1719 Q468.7344,495.4063 469.625,496.2266 Q470.5156,497.0469 472.1094,497.0469 Q473.0469,497.0469 473.7031,496.7969 Q474.0938,496.6406 474.5156,496.2031 Q474.7813,495.9375 474.9297,495.8594 Q475.0781,495.7813 475.2813,495.7813 Q475.6094,495.7813 475.8672,496.0391 Q476.125,496.2969 476.125,496.6406 Q476.125,496.9844 475.7813,497.3906 Q475.2813,497.9688 474.4844,498.2969 Q473.4063,498.75 472.1094,498.75 Q470.5938,498.75 469.3906,498.125 Q468.4063,497.625 467.7188,496.5547 Q467.0313,495.4844 467.0313,494.2031 L467.0313,493.0469 Q467.0313,491.7188 467.6484,490.5703 Q468.2656,489.4219 469.3594,488.8047 Q470.4531,488.1875 471.6875,488.1875 Q472.4219,488.1875 473.0703,488.3516 Q473.7188,488.5156 474.2656,488.875 Z "/><text fill="#000000" font-family="sans-serif" font-size="12" lengthAdjust="spacingAndGlyphs" textLength="27" x="485.5" y="497.9102">Error</text><line style="stroke: #A80036; stroke-width: 1.5;" x1="457.5" x2="514.5" y1="509" y2="509"/><line style="stroke: #A80036; stroke-width: 1.5;" x1="457.5" x2="514.5" y1="517" y2="517"/><!--link santaTecla.utils.Command to mastermind.views.menus.Command--><path d="M1985.73,126.737 C1978.62,144.999 1970.34,166.247 1963.44,183.941 " fill="none" id="santaTecla.utils.Command-mastermind.views.menus.Command" style="stroke: #A80036; stroke-width: 1.0;"/><polygon fill="none" points="1979.22,124.164,1993.01,108.071,1992.27,129.247,1979.22,124.164" style="stroke: #A80036; stroke-width: 1.0;"/><!--link mastermind.views.menus.Command to mastermind.controllers.AcceptorController--><path d="M1829.91,244.772 C1794.34,250.567 1755.19,256.25 1719,260 C1154.73,318.477 1001.947,217.448 444,320 C285.31,349.168 193.684,302.354 99,433 C30.5189,527.491 68.776,677.466 91.6992,745.435 " fill="none" id="mastermind.views.menus.Command-mastermind.controllers.AcceptorController" style="stroke: #A80036; stroke-width: 1.0;"/><polygon fill="#A80036" points="96.0433,757.8947,96.8573,748.0795,94.3972,753.1734,89.3033,750.7133,96.0433,757.8947" style="stroke: #A80036; stroke-width: 1.0;"/><line style="stroke: #A80036; stroke-width: 1.0;" x1="94.3972" x2="91.7635" y1="753.1734" y2="745.6193"/><polygon fill="#A80036" points="1842.84,242.636,1836.2693,239.6651,1830.9998,244.5876,1837.5704,247.5586,1842.84,242.636" style="stroke: #A80036; stroke-width: 1.0;"/><!--link mastermind.views.menus.Command to mastermind.views.menus.ExitCommand--><path d="M1949,280.09 C1949,293.372 1949,307.314 1949,319.934 " fill="none" id="mastermind.views.menus.Command-mastermind.views.menus.ExitCommand" style="stroke: #A80036; stroke-width: 1.0;"/><polygon fill="none" points="1942,280.046,1949,260.046,1956,280.046,1942,280.046" style="stroke: #A80036; stroke-width: 1.0;"/><!--link mastermind.views.menus.ExitCommand to mastermind.controllers.PlayController--><path d="M1866.91,405.104 C1860.93,407.023 1854.93,408.692 1849,410 C1786.82,423.728 758.529,401.829 703,433 C649.674,462.934 673.505,507.06 629,549 C519.389,652.296 454.79,625.39 333,714 C316.593,725.937 299.905,741.2279 286.731,754.1872 " fill="none" id="mastermind.views.menus.ExitCommand-mastermind.controllers.PlayController" style="stroke: #A80036; stroke-width: 1.0; stroke-dasharray: 7.0,7.0;"/><polygon fill="#A80036" points="283.112,757.7759,292.3196,754.2801,286.6628,754.2557,286.6872,748.5989,283.112,757.7759" style="stroke: #A80036; stroke-width: 1.0;"/><!--link mastermind.views.menus.ExitCommand to mastermind.views.models.MessageView--><path d="M1866.89,404.994 C1860.92,406.939 1854.92,408.644 1849,410 C1711.37,441.552 1347.8,387.882 1214,433 C1189.11,441.393 1164.97,458.571 1147.25,473.431 " fill="none" id="mastermind.views.menus.ExitCommand-mastermind.views.models.MessageView" style="stroke: #A80036; stroke-width: 1.0; stroke-dasharray: 7.0,7.0;"/><polygon fill="#A80036" points="1143.35,476.758,1152.7952,473.9672,1147.1563,473.5158,1147.6077,467.877,1143.35,476.758" style="stroke: #A80036; stroke-width: 1.0;"/><!--link mastermind.views.menus.Command to mastermind.views.menus.GameSelectCommand--><path d="M2075.03,259.15 C2202.1,277.464 2461.05,248.099 2524,320 C2618.25,427.646 2422.21,534.216 2285.4,591.935 " fill="none" id="mastermind.views.menus.Command-mastermind.views.menus.GameSelectCommand" style="stroke: #A80036; stroke-width: 1.0;"/><polygon fill="none" points="2073.57,266,2055.09,255.623,2076.01,252.214,2073.57,266" style="stroke: #A80036; stroke-width: 1.0;"/><!--link mastermind.views.menus.GameSelectCommand to mastermind.controllers.StartController--><path d="M2046.83,668.265 C1986.8,682.06 1912.99,697.236 1846,706 C1314.86,775.4831 665.576,781.2097 466.729,781.2175 " fill="none" id="mastermind.views.menus.GameSelectCommand-mastermind.controllers.StartController" style="stroke: #A80036; stroke-width: 1.0; stroke-dasharray: 7.0,7.0;"/><polygon fill="#A80036" points="461.547,781.2164,470.547,785.2164,466.547,781.2164,470.547,777.2164,461.547,781.2164" style="stroke: #A80036; stroke-width: 1.0;"/><!--link santaTecla.utils.Menu to mastermind.views.menus.GameSelectMenu--><path d="M2164.9,95.743 C2257.49,118.421 2450.68,180.972 2524,320 C2542.66,355.381 2548.57,378.439 2524,410 C2492.03,451.057 2356.07,476.349 2261.74,489.287 " fill="none" id="santaTecla.utils.Menu-mastermind.views.menus.GameSelectMenu" style="stroke: #A80036; stroke-width: 1.0;"/><polygon fill="none" points="2163.08,102.508,2145.19,91.152,2166.26,88.874,2163.08,102.508" style="stroke: #A80036; stroke-width: 1.0;"/><!--link mastermind.views.menus.GameSelectMenu to mastermind.controllers.StartController--><path d="M2080.58,532.074 C1943.26,577.942 1667.78,664.423 1427,706 C1066.4,768.2659 625.419,778.8885 466.596,780.6613 " fill="none" id="mastermind.views.menus.GameSelectMenu-mastermind.controllers.StartController" style="stroke: #A80036; stroke-width: 1.0; stroke-dasharray: 7.0,7.0;"/><polygon fill="#A80036" points="461.523,780.7159,470.5648,784.6205,466.5227,780.663,470.4802,776.621,461.523,780.7159" style="stroke: #A80036; stroke-width: 1.0;"/><!--link mastermind.views.menus.GameSelectMenu to mastermind.views.menus.GameSelectCommand--><path d="M2168,532.072 C2168,548.154 2168,568.362 2168,586.674 " fill="none" id="mastermind.views.menus.GameSelectMenu-mastermind.views.menus.GameSelectCommand" style="stroke: #A80036; stroke-width: 1.0; stroke-dasharray: 7.0,7.0;"/><polygon fill="#A80036" points="2168,591.784,2172,582.784,2168,586.784,2164,582.784,2168,591.784" style="stroke: #A80036; stroke-width: 1.0;"/><!--link mastermind.views.menus.Command to mastermind.views.menus.NewGameCommand--><path d="M2074.46,260.051 C2172.16,287.696 2199.68,291.208 2288,320 C2293.72,321.864 2299.57,323.834 2305.46,325.868 " fill="none" id="mastermind.views.menus.Command-mastermind.views.menus.NewGameCommand" style="stroke: #A80036; stroke-width: 1.0;"/><polygon fill="none" points="2072.32,266.721,2055.01,254.495,2076.17,253.259,2072.32,266.721" style="stroke: #A80036; stroke-width: 1.0;"/><!--link mastermind.views.menus.NewGameCommand to mastermind.controllers.StartController--><path d="M2305.47,405.431 C2299.6,407.123 2293.75,408.665 2288,410 C2187.5,433.328 2158.96,417.226 2057,433 C1429.77,530.036 681.608,712.1 466.522,765.7526 " fill="none" id="mastermind.views.menus.NewGameCommand-mastermind.controllers.StartController" style="stroke: #A80036; stroke-width: 1.0; stroke-dasharray: 7.0,7.0;"/><polygon fill="#A80036" points="461.54,766.996,471.2405,768.699,466.3914,765.7859,469.3044,760.9368,461.54,766.996" style="stroke: #A80036; stroke-width: 1.0;"/><!--link mastermind.views.menus.NewGameCommand to mastermind.views.models.MessageView--><path d="M2305.25,406.056 C2299.47,407.575 2293.69,408.911 2288,410 C2170.77,432.444 1327.38,395.699 1214,433 C1188.87,441.268 1164.57,458.636 1146.83,473.617 " fill="none" id="mastermind.views.menus.NewGameCommand-mastermind.views.models.MessageView" style="stroke: #A80036; stroke-width: 1.0; stroke-dasharray: 7.0,7.0;"/><polygon fill="#A80036" points="1142.92,476.97,1152.3544,474.1429,1146.7139,473.7132,1147.1435,468.0727,1142.92,476.97" style="stroke: #A80036; stroke-width: 1.0;"/><!--link mastermind.views.menus.Command to mastermind.views.menus.OpenGameCommand--><path d="M2023.51,270.972 C2048.14,286.828 2075.4,304.384 2099.56,319.934 " fill="none" id="mastermind.views.menus.Command-mastermind.views.menus.OpenGameCommand" style="stroke: #A80036; stroke-width: 1.0;"/><polygon fill="none" points="2019.57,276.759,2006.54,260.046,2027.15,264.987,2019.57,276.759" style="stroke: #A80036; stroke-width: 1.0;"/><!--link mastermind.views.menus.OpenGameCommand to mastermind.controllers.StartController--><path d="M2065.74,406.275 C2060.12,407.711 2054.52,408.971 2049,410 C2005.06,418.188 472.015,401.806 440,433 C429.128,443.593 431.552,691.037 429,706 C426.308,721.783 421.238,738.8872 416.542,752.7701 " fill="none" id="mastermind.views.menus.OpenGameCommand-mastermind.controllers.StartController" style="stroke: #A80036; stroke-width: 1.0; stroke-dasharray: 7.0,7.0;"/><polygon fill="#A80036" points="414.834,757.7308,421.5459,750.5232,416.4617,753.0032,413.9817,747.9189,414.834,757.7308" style="stroke: #A80036; stroke-width: 1.0;"/><!--link mastermind.views.menus.OpenGameCommand to mastermind.views.models.MessageView--><path d="M2065.72,406.186 C2060.11,407.645 2054.51,408.935 2049,410 C1957.87,427.606 1302.08,403.725 1214,433 C1189.07,441.285 1164.94,458.465 1147.23,473.353 " fill="none" id="mastermind.views.menus.OpenGameCommand-mastermind.views.models.MessageView" style="stroke: #A80036; stroke-width: 1.0; stroke-dasharray: 7.0,7.0;"/><polygon fill="#A80036" points="1143.32,476.687,1152.7636,473.8909,1147.1245,473.4427,1147.5727,467.8036,1143.32,476.687" style="stroke: #A80036; stroke-width: 1.0;"/><!--link mastermind.views.menus.OpenGameCommand to mastermind.views.menus.GameSelectMenu--><path d="M2168,410.248 C2168,427.934 2168,448.02 2168,464.7 " fill="none" id="mastermind.views.menus.OpenGameCommand-mastermind.views.menus.GameSelectMenu" style="stroke: #A80036; stroke-width: 1.0; stroke-dasharray: 7.0,7.0;"/><polygon fill="#A80036" points="2168,469.761,2172,460.761,2168,464.761,2164,460.761,2168,469.761" style="stroke: #A80036; stroke-width: 1.0;"/><!--link santaTecla.utils.Menu to mastermind.views.menus.PlayMenu--><path d="M2081.9,121.738 C2076.67,125.86 2070.99,129.476 2065,132 C2040.41,142.364 1851.08,134.37 1825,140 C1776.41,150.488 1724.56,172.44 1686.41,190.848 " fill="none" id="santaTecla.utils.Menu-mastermind.views.menus.PlayMenu" style="stroke: #A80036; stroke-width: 1.0;"/><polygon fill="none" points="2077.12,116.626,2096.48,108.015,2086.71,126.82,2077.12,116.626" style="stroke: #A80036; stroke-width: 1.0;"/><!--link mastermind.views.menus.PlayMenu to mastermind.controllers.PlayController--><path d="M1555.92,224.293 C1314.34,229.201 543.352,250.091 306,320 C205.455,349.614 152.489,342.86 99,433 C86.0676,454.794 89.4784,692.535 102,706 C115.221,720.218 171.277,706.073 189,714 C208.804,722.857 226.685,739.4263 239.674,753.8704 " fill="none" id="mastermind.views.menus.PlayMenu-mastermind.controllers.PlayController" style="stroke: #A80036; stroke-width: 1.0; stroke-dasharray: 7.0,7.0;"/><polygon fill="#A80036" points="243.206,757.8799,240.2583,748.4825,239.9009,754.128,234.2554,753.7706,243.206,757.8799" style="stroke: #A80036; stroke-width: 1.0;"/><!--link mastermind.views.menus.PlayMenu to mastermind.views.menus.RedoCommand--><path d="M1562.24,253.075 C1516.93,273.486 1456.46,300.724 1406.79,323.101 " fill="none" id="mastermind.views.menus.PlayMenu-mastermind.views.menus.RedoCommand" style="stroke: #A80036; stroke-width: 1.0; stroke-dasharray: 7.0,7.0;"/><polygon fill="#A80036" points="1402.02,325.251,1411.8687,325.195,1406.5774,323.1944,1408.5781,317.9031,1402.02,325.251" style="stroke: #A80036; stroke-width: 1.0;"/><!--link mastermind.views.menus.PlayMenu to mastermind.views.menus.UndoCommand--><path d="M1606.26,253.248 C1592.57,271.455 1574.84,295.048 1559.25,315.777 " fill="none" id="mastermind.views.menus.PlayMenu-mastermind.views.menus.UndoCommand" style="stroke: #A80036; stroke-width: 1.0; stroke-dasharray: 7.0,7.0;"/><polygon fill="#A80036" points="1556.17,319.882,1564.7733,315.0879,1559.1727,315.8841,1558.3766,310.2835,1556.17,319.882" style="stroke: #A80036; stroke-width: 1.0;"/><!--link mastermind.views.menus.PlayMenu to mastermind.views.menus.ProposeCommand--><path d="M1652.38,253.248 C1666.46,271.455 1684.7,295.048 1700.72,315.777 " fill="none" id="mastermind.views.menus.PlayMenu-mastermind.views.menus.ProposeCommand" style="stroke: #A80036; stroke-width: 1.0; stroke-dasharray: 7.0,7.0;"/><polygon fill="#A80036" points="1703.89,319.882,1701.5509,310.3149,1700.8323,315.926,1695.2213,315.2073,1703.89,319.882" style="stroke: #A80036; stroke-width: 1.0;"/><!--link mastermind.views.menus.PlayMenu to mastermind.views.menus.ExitCommand--><path d="M1697.26,253.075 C1745.45,274.312 1810.43,302.941 1862.29,325.794 " fill="none" id="mastermind.views.menus.PlayMenu-mastermind.views.menus.ExitCommand" style="stroke: #A80036; stroke-width: 1.0; stroke-dasharray: 7.0,7.0;"/><polygon fill="#A80036" points="1866.95,327.847,1860.3244,320.5599,1862.3738,325.8325,1857.1012,327.8819,1866.95,327.847" style="stroke: #A80036; stroke-width: 1.0;"/><!--link mastermind.views.menus.Command to mastermind.views.menus.ProposeCommand--><path d="M1876.87,271.202 C1853.23,286.998 1827.1,304.459 1803.94,319.934 " fill="none" id="mastermind.views.menus.Command-mastermind.views.menus.ProposeCommand" style="stroke: #A80036; stroke-width: 1.0;"/><polygon fill="none" points="1873.04,265.338,1893.56,260.046,1880.82,276.978,1873.04,265.338" style="stroke: #A80036; stroke-width: 1.0;"/><!--link mastermind.views.menus.ProposeCommand to mastermind.controllers.PlayController--><path d="M1644.31,405.558 C1638.18,407.288 1632.04,408.798 1626,410 C1557.93,423.541 434.875,394.699 377,433 C268.822,504.591 259.354,682.575 260.001,752.3185 " fill="none" id="mastermind.views.menus.ProposeCommand-mastermind.controllers.PlayController" style="stroke: #A80036; stroke-width: 1.0; stroke-dasharray: 7.0,7.0;"/><polygon fill="#A80036" points="260.07,757.5452,263.9495,748.4926,260.0033,752.5456,255.9502,748.5994,260.07,757.5452" style="stroke: #A80036; stroke-width: 1.0;"/><!--link mastermind.views.menus.ProposeCommand to mastermind.views.models.ProposedCombinationView--><path d="M1644.28,405.407 C1638.16,407.174 1632.03,408.733 1626,410 C1499.98,436.467 1170.19,395.51 1047,433 C1019.22,441.453 991.398,458.739 970.813,473.636 " fill="none" id="mastermind.views.menus.ProposeCommand-mastermind.views.models.ProposedCombinationView" style="stroke: #A80036; stroke-width: 1.0; stroke-dasharray: 7.0,7.0;"/><polygon fill="#A80036" points="966.533,476.774,976.1562,474.6778,970.5652,473.8174,971.4256,468.2263,966.533,476.774" style="stroke: #A80036; stroke-width: 1.0;"/><!--link mastermind.views.menus.ProposeCommand to mastermind.views.models.GameView--><path d="M1644.3,405.484 C1638.17,407.232 1632.04,408.766 1626,410 C1539.2,427.739 909.944,396.991 829,433 C810.192,441.367 794.195,458.111 782.899,472.766 " fill="none" id="mastermind.views.menus.ProposeCommand-mastermind.views.models.GameView" style="stroke: #A80036; stroke-width: 1.0; stroke-dasharray: 7.0,7.0;"/><polygon fill="#A80036" points="779.839,476.835,788.445,472.0458,782.844,472.8388,782.0511,467.2378,779.839,476.835" style="stroke: #A80036; stroke-width: 1.0;"/><!--link mastermind.views.menus.ProposeCommand to mastermind.types.Color--><path d="M1644.31,405.523 C1638.18,407.262 1632.04,408.783 1626,410 C1518.57,431.645 739.134,386.294 640,433 C622.342,441.319 607.941,457.849 597.905,472.408 " fill="none" id="mastermind.views.menus.ProposeCommand-mastermind.types.Color" style="stroke: #A80036; stroke-width: 1.0; stroke-dasharray: 7.0,7.0;"/><polygon fill="#A80036" points="594.932,476.852,603.2608,471.5955,597.7121,472.6961,596.6115,467.1474,594.932,476.852" style="stroke: #A80036; stroke-width: 1.0;"/><!--link mastermind.views.menus.ProposeCommand to mastermind.types.Error--><path d="M1644.31,405.539 C1638.18,407.274 1632.04,408.79 1626,410 C1566.45,421.929 586.588,404.413 533,433 C517.232,441.412 505.612,457.732 497.871,472.158 " fill="none" id="mastermind.views.menus.ProposeCommand-mastermind.types.Error" style="stroke: #A80036; stroke-width: 1.0; stroke-dasharray: 7.0,7.0;"/><polygon fill="#A80036" points="495.394,476.964,503.0728,470.7967,497.6847,472.5196,495.9618,467.1315,495.394,476.964" style="stroke: #A80036; stroke-width: 1.0;"/><!--link mastermind.views.menus.ProposeCommand to mastermind.views.models.MessageView--><path d="M1644.26,405.293 C1638.14,407.089 1632.02,408.685 1626,410 C1536.41,429.568 1300.6,402.852 1214,433 C1189.19,441.636 1165.05,458.81 1147.32,473.607 " fill="none" id="mastermind.views.menus.ProposeCommand-mastermind.views.models.MessageView" style="stroke: #A80036; stroke-width: 1.0; stroke-dasharray: 7.0,7.0;"/><polygon fill="#A80036" points="1143.4,476.919,1152.8543,474.1592,1147.217,473.6894,1147.6869,468.052,1143.4,476.919" style="stroke: #A80036; stroke-width: 1.0;"/><!--link mastermind.views.menus.Command to mastermind.views.menus.RedoCommand--><path d="M1822.95,244.552 C1678.62,269.47 1457.1,308.533 1419,320 C1413.41,321.681 1407.72,323.573 1402.03,325.602 " fill="none" id="mastermind.views.menus.Command-mastermind.views.menus.RedoCommand" style="stroke: #A80036; stroke-width: 1.0;"/><polygon fill="none" points="1821.88,237.634,1842.78,241.134,1824.26,251.43,1821.88,237.634" style="stroke: #A80036; stroke-width: 1.0;"/><!--link mastermind.views.menus.RedoCommand to mastermind.controllers.PlayController--><path d="M1229.76,367.814 C968.363,373.73 200.477,394.34 164,433 C80.7323,521.251 92.4635,607.998 164,706 C170.878,715.423 178.932,708.107 189,714 C207.049,724.565 224.309,740.3579 237.403,753.9574 " fill="none" id="mastermind.views.menus.RedoCommand-mastermind.controllers.PlayController" style="stroke: #A80036; stroke-width: 1.0; stroke-dasharray: 7.0,7.0;"/><polygon fill="#A80036" points="240.983,757.7289,237.6871,748.4479,237.5404,754.1028,231.8854,753.9561,240.983,757.7289" style="stroke: #A80036; stroke-width: 1.0;"/><!--link mastermind.views.menus.RedoCommand to mastermind.views.models.MessageView--><path d="M1248.31,410.016 C1236.81,417.616 1225.03,425.488 1214,433 C1194.62,446.193 1173.27,461.207 1155.73,473.674 " fill="none" id="mastermind.views.menus.RedoCommand-mastermind.views.models.MessageView" style="stroke: #A80036; stroke-width: 1.0; stroke-dasharray: 7.0,7.0;"/><polygon fill="#A80036" points="1151.35,476.786,1161.0018,474.8258,1155.4235,473.8866,1156.3627,468.3082,1151.35,476.786" style="stroke: #A80036; stroke-width: 1.0;"/><!--link santaTecla.utils.Menu to mastermind.views.menus.StartMenu--><path d="M2130.26,126.731 C2138.3,147.366 2147.83,171.815 2155.17,190.643 " fill="none" id="santaTecla.utils.Menu-mastermind.views.menus.StartMenu" style="stroke: #A80036; stroke-width: 1.0;"/><polygon fill="none" points="2123.73,129.247,2122.99,108.071,2136.78,124.164,2123.73,129.247" style="stroke: #A80036; stroke-width: 1.0;"/><!--link mastermind.views.menus.StartMenu to mastermind.controllers.StartController--><path d="M2097.42,253.083 C2089.3,255.786 2081.04,258.183 2073,260 C1713.61,341.229 672.451,160.913 424,433 C341.701,523.128 377.937,687.326 396.993,752.877 " fill="none" id="mastermind.views.menus.StartMenu-mastermind.controllers.StartController" style="stroke: #A80036; stroke-width: 1.0; stroke-dasharray: 7.0,7.0;"/><polygon fill="#A80036" points="398.445,757.7963,399.7337,748.0321,397.0296,753.0008,392.061,750.2967,398.445,757.7963" style="stroke: #A80036; stroke-width: 1.0;"/><!--link mastermind.views.menus.StartMenu to mastermind.views.menus.NewGameCommand--><path d="M2217.98,253.075 C2249.6,271.728 2290.88,296.083 2326.7,317.219 " fill="none" id="mastermind.views.menus.StartMenu-mastermind.views.menus.NewGameCommand" style="stroke: #A80036; stroke-width: 1.0; stroke-dasharray: 7.0,7.0;"/><polygon fill="#A80036" points="2331.04,319.78,2325.3246,311.7591,2326.7347,317.2374,2321.2565,318.6475,2331.04,319.78" style="stroke: #A80036; stroke-width: 1.0;"/><!--link mastermind.views.menus.StartMenu to mastermind.views.menus.OpenGameCommand--><path d="M2167.21,253.248 C2167.34,271.151 2167.51,294.263 2167.65,314.738 " fill="none" id="mastermind.views.menus.StartMenu-mastermind.views.menus.OpenGameCommand" style="stroke: #A80036; stroke-width: 1.0; stroke-dasharray: 7.0,7.0;"/><polygon fill="#A80036" points="2167.69,319.882,2171.6256,310.8537,2167.6543,314.8821,2163.6258,310.9108,2167.69,319.882" style="stroke: #A80036; stroke-width: 1.0;"/><!--link mastermind.views.menus.Command to mastermind.views.menus.UndoCommand--><path d="M1823.51,257.401 C1763.53,274.704 1691.03,296.886 1627,320 C1621.19,322.097 1615.24,324.344 1609.26,326.672 " fill="none" id="mastermind.views.menus.Command-mastermind.views.menus.UndoCommand" style="stroke: #A80036; stroke-width: 1.0;"/><polygon fill="none" points="1821.77,250.618,1842.92,251.843,1825.62,264.077,1821.77,250.618" style="stroke: #A80036; stroke-width: 1.0;"/><!--link mastermind.views.menus.UndoCommand to mastermind.controllers.PlayController--><path d="M1436.98,405.287 C1430.97,407.13 1424.94,408.734 1419,410 C1386.83,416.852 258.033,409.515 235,433 C149.037,520.649 215.452,687.581 246.876,753.366 " fill="none" id="mastermind.views.menus.UndoCommand-mastermind.controllers.PlayController" style="stroke: #A80036; stroke-width: 1.0; stroke-dasharray: 7.0,7.0;"/><polygon fill="#A80036" points="249.076,757.9253,248.7676,748.0813,246.9032,753.4221,241.5625,751.5577,249.076,757.9253" style="stroke: #A80036; stroke-width: 1.0;"/><!--link mastermind.views.menus.UndoCommand to mastermind.views.models.MessageView--><path d="M1436.83,404.655 C1430.86,406.65 1424.88,408.461 1419,410 C1330.3,433.214 1299.71,400.446 1214,433 C1189.79,442.194 1165.99,459 1148.26,473.48 " fill="none" id="mastermind.views.menus.UndoCommand-mastermind.views.models.MessageView" style="stroke: #A80036; stroke-width: 1.0; stroke-dasharray: 7.0,7.0;"/><polygon fill="#A80036" points="1144.35,476.721,1153.8286,474.0461,1148.1958,473.5257,1148.7162,467.8928,1144.35,476.721" style="stroke: #A80036; stroke-width: 1.0;"/><!--
@startuml
class  mastermind.views.menus.Command{
# acceptorController: AcceptorController
# Command(AcceptorController, String)
}
santaTecla.utils.Command <|-down- mastermind.views.menus.Command
mastermind.views.menus.Command *-down-> mastermind.controllers.AcceptorController

class  mastermind.views.menus.ExitCommand{
# ExitCommand(PlayController)
# execute(): void
# isActive(): boolean
}
mastermind.views.menus.Command <|-down- mastermind.views.menus.ExitCommand
mastermind.views.menus.ExitCommand ..> mastermind.controllers.PlayController
mastermind.views.menus.ExitCommand ..> mastermind.views.models.MessageView

class  mastermind.views.menus.GameSelectCommand{
# GameSelectCommand(StartController, String)
# execute(): void
# isActive(): boolean
}
mastermind.views.menus.Command <|-down- mastermind.views.menus.GameSelectCommand
mastermind.views.menus.GameSelectCommand ..> mastermind.controllers.StartController

class  mastermind.views.menus.GameSelectMenu{
~ GameSelectMenu(StartController)
}
santaTecla.utils.Menu <|-down- mastermind.views.menus.GameSelectMenu
mastermind.views.menus.GameSelectMenu ..> mastermind.controllers.StartController
mastermind.views.menus.GameSelectMenu ..> mastermind.views.menus.GameSelectCommand

class  mastermind.views.menus.NewGameCommand{
# NewGameCommand(StartController)
# execute(): void
# isActive(): boolean
}
mastermind.views.menus.Command <|-down- mastermind.views.menus.NewGameCommand
mastermind.views.menus.NewGameCommand ..> mastermind.controllers.StartController
mastermind.views.menus.NewGameCommand ..> mastermind.views.models.MessageView

class  mastermind.views.menus.OpenGameCommand{
# OpenGameCommand(StartController)
# execute(): void
# isActive(): boolean
}
mastermind.views.menus.Command <|-down- mastermind.views.menus.OpenGameCommand
mastermind.views.menus.OpenGameCommand ..> mastermind.controllers.StartController
mastermind.views.menus.OpenGameCommand ..> mastermind.views.models.MessageView
mastermind.views.menus.OpenGameCommand ..> mastermind.views.menus.GameSelectMenu

class  mastermind.views.menus.PlayMenu{
+ PlayMenu(PlayController)
}
santaTecla.utils.Menu <|-down- mastermind.views.menus.PlayMenu
mastermind.views.menus.PlayMenu ..> mastermind.controllers.PlayController
mastermind.views.menus.PlayMenu ..> mastermind.views.menus.RedoCommand
mastermind.views.menus.PlayMenu ..> mastermind.views.menus.UndoCommand
mastermind.views.menus.PlayMenu ..> mastermind.views.menus.ProposeCommand
mastermind.views.menus.PlayMenu ..> mastermind.views.menus.ExitCommand

class  mastermind.views.menus.ProposeCommand{
~ ProposeCommand(PlayController)
# execute(): void
# isActive(): boolean
}
mastermind.views.menus.Command <|-down- mastermind.views.menus.ProposeCommand
mastermind.views.menus.ProposeCommand ..> mastermind.controllers.PlayController
mastermind.views.menus.ProposeCommand ..> mastermind.views.models.ProposedCombinationView
mastermind.views.menus.ProposeCommand ..> mastermind.views.models.GameView
mastermind.views.menus.ProposeCommand ..> mastermind.types.Color
mastermind.views.menus.ProposeCommand ..> mastermind.types.Error
mastermind.views.menus.ProposeCommand ..> mastermind.views.models.MessageView

class  mastermind.views.menus.RedoCommand{
~ RedoCommand(PlayController)
# execute(): void
# isActive(): boolean
}
mastermind.views.menus.Command <|-down- mastermind.views.menus.RedoCommand
mastermind.views.menus.RedoCommand ..> mastermind.controllers.PlayController
mastermind.views.menus.RedoCommand ..> mastermind.views.models.MessageView

class  mastermind.views.menus.StartMenu{
+ StartMenu(StartController)
}
santaTecla.utils.Menu <|-down- mastermind.views.menus.StartMenu
mastermind.views.menus.StartMenu ..> mastermind.controllers.StartController
mastermind.views.menus.StartMenu ..> mastermind.views.menus.NewGameCommand
mastermind.views.menus.StartMenu ..> mastermind.views.menus.OpenGameCommand

class  mastermind.views.menus.UndoCommand{
~ UndoCommand(PlayController)
# execute(): void
# isActive(): boolean
}
mastermind.views.menus.Command <|-down- mastermind.views.menus.UndoCommand
mastermind.views.menus.UndoCommand ..> mastermind.controllers.PlayController
mastermind.views.menus.UndoCommand ..> mastermind.views.models.MessageView
@enduml

PlantUML version 1.2019.05(Sat Apr 20 18:45:36 CEST 2019)
(GPL source distribution)
Java Runtime: OpenJDK Runtime Environment
JVM: OpenJDK 64-Bit Server VM
Java Version: 1.8.0_222-b10
Operating System: Windows 10
OS Version: 10.0
Default Encoding: windows-1252
Language: es
Country: ES
--></g></svg>