<?xml version="1.0" encoding="UTF-8" standalone="no"?><svg xmlns="http://www.w3.org/2000/svg" xmlns:xlink="http://www.w3.org/1999/xlink" contentScriptType="application/ecmascript" contentStyleType="text/css" height="357px" preserveAspectRatio="none" style="width:1029px;height:357px;" version="1.1" viewBox="0 0 1029 357" width="1029px" zoomAndPan="magnify"><defs><filter height="300%" id="fp7ibyf1pbz9z" width="300%" x="-1" y="-1"><feGaussianBlur result="blurOut" stdDeviation="2.0"/><feColorMatrix in="blurOut" result="blurOut2" type="matrix" values="0 0 0 0 0 0 0 0 0 0 0 0 0 0 0 0 0 0 .4 0"/><feOffset dx="4.0" dy="4.0" in="blurOut2" result="blurOut3"/><feBlend in="SourceGraphic" in2="blurOut3" mode="normal"/></filter></defs><g><!--cluster mastermind.models.DAO--><polygon fill="#FFFFFF" filter="url(#fp7ibyf1pbz9z)" points="22,24,199,24,206,47.6094,1007,47.6094,1007,221,22,221,22,24" style="stroke: #000000; stroke-width: 1.5;"/><line style="stroke: #000000; stroke-width: 1.5;" x1="22" x2="206" y1="47.6094" y2="47.6094"/><text fill="#000000" font-family="sans-serif" font-size="14" font-weight="bold" lengthAdjust="spacingAndGlyphs" textLength="171" x="26" y="40.5332">mastermind.models.DAO</text><!--cluster mastermind.models--><polygon fill="#FFFFFF" filter="url(#fp7ibyf1pbz9z)" points="261,245,404,245,411,268.6094,800,268.6094,800,345,261,345,261,245" style="stroke: #000000; stroke-width: 1.5;"/><line style="stroke: #000000; stroke-width: 1.5;" x1="261" x2="411" y1="268.6094" y2="268.6094"/><text fill="#000000" font-family="sans-serif" font-size="14" font-weight="bold" lengthAdjust="spacingAndGlyphs" textLength="137" x="265" y="261.5332">mastermind.models</text><!--class mastermind.models.DAO.CombinationDAO--><rect fill="#FEFECE" filter="url(#fp7ibyf1pbz9z)" height="75.6719" id="mastermind.models.DAO.CombinationDAO" style="stroke: #A80036; stroke-width: 1.5;" width="233" x="757.5" y="94.5"/><ellipse cx="821.75" cy="110.5" fill="#ADD1B2" rx="11" ry="11" style="stroke: #A80036; stroke-width: 1.0;"/><path d="M824.5156,106.375 Q824.6719,106.1563 824.8594,106.0469 Q825.0469,105.9375 825.2656,105.9375 Q825.6406,105.9375 825.875,106.1953 Q826.1094,106.4531 826.1094,107.0625 L826.1094,108.5156 Q826.1094,109.125 825.875,109.3906 Q825.6406,109.6563 825.2656,109.6563 Q824.9219,109.6563 824.7188,109.4531 Q824.5156,109.2656 824.4063,108.75 Q824.3594,108.3906 824.1719,108.2031 Q823.8438,107.8281 823.2344,107.6094 Q822.625,107.3906 822,107.3906 Q821.2344,107.3906 820.6016,107.7188 Q819.9688,108.0469 819.4766,108.7969 Q818.9844,109.5469 818.9844,110.5781 L818.9844,111.6719 Q818.9844,112.9063 819.875,113.7266 Q820.7656,114.5469 822.3594,114.5469 Q823.2969,114.5469 823.9531,114.2969 Q824.3438,114.1406 824.7656,113.7031 Q825.0313,113.4375 825.1797,113.3594 Q825.3281,113.2813 825.5313,113.2813 Q825.8594,113.2813 826.1172,113.5391 Q826.375,113.7969 826.375,114.1406 Q826.375,114.4844 826.0313,114.8906 Q825.5313,115.4688 824.7344,115.7969 Q823.6563,116.25 822.3594,116.25 Q820.8438,116.25 819.6406,115.625 Q818.6563,115.125 817.9688,114.0547 Q817.2813,112.9844 817.2813,111.7031 L817.2813,110.5469 Q817.2813,109.2188 817.8984,108.0703 Q818.5156,106.9219 819.6094,106.3047 Q820.7031,105.6875 821.9375,105.6875 Q822.6719,105.6875 823.3203,105.8516 Q823.9688,106.0156 824.5156,106.375 Z "/><text fill="#000000" font-family="sans-serif" font-size="12" lengthAdjust="spacingAndGlyphs" textLength="96" x="842.25" y="115.4102">CombinationDAO</text><line style="stroke: #A80036; stroke-width: 1.5;" x1="758.5" x2="989.5" y1="126.5" y2="126.5"/><polygon fill="none" points="768.5,133.918,772.5,137.918,768.5,141.918,764.5,137.918" style="stroke: #B38D22; stroke-width: 1.0;"/><text fill="#000000" font-family="sans-serif" font-size="11" lengthAdjust="spacingAndGlyphs" textLength="118" x="777.5" y="141.9189">Combination combination</text><line style="stroke: #A80036; stroke-width: 1.5;" x1="758.5" x2="989.5" y1="148.3359" y2="148.3359"/><ellipse cx="768.5" cy="160.7539" fill="#84BE84" rx="3" ry="3" style="stroke: #038048; stroke-width: 1.0;"/><text fill="#000000" font-family="sans-serif" font-size="11" lengthAdjust="spacingAndGlyphs" textLength="207" x="777.5" y="163.7549">CombinationDAO(Combination combination)</text><!--class mastermind.models.DAO.GameDAO--><rect fill="#FEFECE" filter="url(#fp7ibyf1pbz9z)" height="75.6719" id="mastermind.models.DAO.GameDAO" style="stroke: #A80036; stroke-width: 1.5;" width="142" x="580" y="94.5"/><ellipse cx="617.95" cy="110.5" fill="#ADD1B2" rx="11" ry="11" style="stroke: #A80036; stroke-width: 1.0;"/><path d="M620.7156,106.375 Q620.8719,106.1563 621.0594,106.0469 Q621.2469,105.9375 621.4656,105.9375 Q621.8406,105.9375 622.075,106.1953 Q622.3094,106.4531 622.3094,107.0625 L622.3094,108.5156 Q622.3094,109.125 622.075,109.3906 Q621.8406,109.6563 621.4656,109.6563 Q621.1219,109.6563 620.9188,109.4531 Q620.7156,109.2656 620.6063,108.75 Q620.5594,108.3906 620.3719,108.2031 Q620.0438,107.8281 619.4344,107.6094 Q618.825,107.3906 618.2,107.3906 Q617.4344,107.3906 616.8016,107.7188 Q616.1688,108.0469 615.6766,108.7969 Q615.1844,109.5469 615.1844,110.5781 L615.1844,111.6719 Q615.1844,112.9063 616.075,113.7266 Q616.9656,114.5469 618.5594,114.5469 Q619.4969,114.5469 620.1531,114.2969 Q620.5438,114.1406 620.9656,113.7031 Q621.2313,113.4375 621.3797,113.3594 Q621.5281,113.2813 621.7313,113.2813 Q622.0594,113.2813 622.3172,113.5391 Q622.575,113.7969 622.575,114.1406 Q622.575,114.4844 622.2313,114.8906 Q621.7313,115.4688 620.9344,115.7969 Q619.8563,116.25 618.5594,116.25 Q617.0438,116.25 615.8406,115.625 Q614.8563,115.125 614.1688,114.0547 Q613.4813,112.9844 613.4813,111.7031 L613.4813,110.5469 Q613.4813,109.2188 614.0984,108.0703 Q614.7156,106.9219 615.8094,106.3047 Q616.9031,105.6875 618.1375,105.6875 Q618.8719,105.6875 619.5203,105.8516 Q620.1688,106.0156 620.7156,106.375 Z "/><text fill="#000000" font-family="sans-serif" font-size="12" lengthAdjust="spacingAndGlyphs" textLength="59" x="637.05" y="115.4102">GameDAO</text><line style="stroke: #A80036; stroke-width: 1.5;" x1="581" x2="721" y1="126.5" y2="126.5"/><polygon fill="none" points="591,133.918,595,137.918,591,141.918,587,137.918" style="stroke: #B38D22; stroke-width: 1.0;"/><text fill="#000000" font-family="sans-serif" font-size="11" lengthAdjust="spacingAndGlyphs" textLength="57" x="600" y="141.9189">Game game</text><line style="stroke: #A80036; stroke-width: 1.5;" x1="581" x2="721" y1="148.3359" y2="148.3359"/><polygon fill="#FFFF44" points="591,155.7539,595,159.7539,591,163.7539,587,159.7539" style="stroke: #B38D22; stroke-width: 1.0;"/><text fill="#000000" font-family="sans-serif" font-size="11" lengthAdjust="spacingAndGlyphs" textLength="116" x="600" y="163.7549">GameDAO(Game game)</text><!--class mastermind.models.DAO.ResultDAO--><rect fill="#FEFECE" filter="url(#fp7ibyf1pbz9z)" height="89.5078" id="mastermind.models.DAO.ResultDAO" style="stroke: #A80036; stroke-width: 1.5;" width="147" x="397.5" y="87.5"/><ellipse cx="436.8" cy="103.5" fill="#ADD1B2" rx="11" ry="11" style="stroke: #A80036; stroke-width: 1.0;"/><path d="M439.5656,99.375 Q439.7219,99.1563 439.9094,99.0469 Q440.0969,98.9375 440.3156,98.9375 Q440.6906,98.9375 440.925,99.1953 Q441.1594,99.4531 441.1594,100.0625 L441.1594,101.5156 Q441.1594,102.125 440.925,102.3906 Q440.6906,102.6563 440.3156,102.6563 Q439.9719,102.6563 439.7688,102.4531 Q439.5656,102.2656 439.4563,101.75 Q439.4094,101.3906 439.2219,101.2031 Q438.8938,100.8281 438.2844,100.6094 Q437.675,100.3906 437.05,100.3906 Q436.2844,100.3906 435.6516,100.7188 Q435.0188,101.0469 434.5266,101.7969 Q434.0344,102.5469 434.0344,103.5781 L434.0344,104.6719 Q434.0344,105.9063 434.925,106.7266 Q435.8156,107.5469 437.4094,107.5469 Q438.3469,107.5469 439.0031,107.2969 Q439.3938,107.1406 439.8156,106.7031 Q440.0813,106.4375 440.2297,106.3594 Q440.3781,106.2813 440.5813,106.2813 Q440.9094,106.2813 441.1672,106.5391 Q441.425,106.7969 441.425,107.1406 Q441.425,107.4844 441.0813,107.8906 Q440.5813,108.4688 439.7844,108.7969 Q438.7063,109.25 437.4094,109.25 Q435.8938,109.25 434.6906,108.625 Q433.7063,108.125 433.0188,107.0547 Q432.3313,105.9844 432.3313,104.7031 L432.3313,103.5469 Q432.3313,102.2188 432.9484,101.0703 Q433.5656,99.9219 434.6594,99.3047 Q435.7531,98.6875 436.9875,98.6875 Q437.7219,98.6875 438.3703,98.8516 Q439.0188,99.0156 439.5656,99.375 Z "/><text fill="#000000" font-family="sans-serif" font-size="12" lengthAdjust="spacingAndGlyphs" textLength="61" x="456.2" y="108.4102">ResultDAO</text><line style="stroke: #A80036; stroke-width: 1.5;" x1="398.5" x2="543.5" y1="119.5" y2="119.5"/><polygon fill="none" points="408.5,126.918,412.5,130.918,408.5,134.918,404.5,130.918" style="stroke: #B38D22; stroke-width: 1.0;"/><text fill="#000000" font-family="sans-serif" font-size="11" lengthAdjust="spacingAndGlyphs" textLength="60" x="417.5" y="134.9189">Result result</text><line style="stroke: #A80036; stroke-width: 1.5;" x1="398.5" x2="543.5" y1="141.3359" y2="141.3359"/><polygon fill="#FFFF44" points="408.5,148.7539,412.5,152.7539,408.5,156.7539,404.5,152.7539" style="stroke: #B38D22; stroke-width: 1.0;"/><text fill="#000000" font-family="sans-serif" font-size="11" lengthAdjust="spacingAndGlyphs" textLength="121" x="417.5" y="156.7549">ResultDAO(Result result)</text><ellipse cx="408.5" cy="167.5898" fill="#84BE84" rx="3" ry="3" style="stroke: #038048; stroke-width: 1.0;"/><text fill="#000000" font-family="sans-serif" font-size="11" lengthAdjust="spacingAndGlyphs" textLength="86" x="417.5" y="170.5908">Result getResult()</text><!--class mastermind.models.DAO.SessionImplementationDAO--><rect fill="#FEFECE" filter="url(#fp7ibyf1pbz9z)" height="144.8516" id="mastermind.models.DAO.SessionImplementationDAO" style="stroke: #A80036; stroke-width: 1.5;" width="324" x="38" y="60"/><ellipse cx="117.25" cy="76" fill="#A9DCDF" rx="11" ry="11" style="stroke: #A80036; stroke-width: 1.0;"/><path d="M119.4375,77.7656 L115.2969,77.7656 L114.875,78.7969 L115.2969,78.7969 Q115.9063,78.7969 116.1719,79.0313 Q116.4375,79.2656 116.4375,79.6563 Q116.4375,80.0313 116.1719,80.2656 Q115.9063,80.5 115.2969,80.5 L113,80.5 Q112.3906,80.5 112.1328,80.2656 Q111.875,80.0313 111.875,79.6406 Q111.875,79.2656 112.1484,79.0234 Q112.4219,78.7813 113.0469,78.7969 L115.7188,72.1406 L114.6094,72.1406 Q114,72.1406 113.7344,71.9063 Q113.4688,71.6719 113.4688,71.2813 Q113.4688,70.9063 113.7344,70.6719 Q114,70.4375 114.6094,70.4375 L118.2813,70.4375 L121.6719,78.7969 Q122.2656,78.7969 122.4531,78.9375 Q122.8438,79.2031 122.8438,79.6563 Q122.8438,80.0313 122.5859,80.2656 Q122.3281,80.5 121.7188,80.5 L119.4219,80.5 Q118.8125,80.5 118.5469,80.2656 Q118.2813,80.0313 118.2813,79.6406 Q118.2813,79.2656 118.5469,79.0313 Q118.8125,78.7969 119.4219,78.7969 L119.8438,78.7969 L119.4375,77.7656 Z M118.7188,76.0625 L117.3594,72.6875 L115.9844,76.0625 L118.7188,76.0625 Z "/><text fill="#000000" font-family="sans-serif" font-size="12" font-style="italic" lengthAdjust="spacingAndGlyphs" textLength="157" x="137.75" y="80.9102">SessionImplementationDAO</text><line style="stroke: #A80036; stroke-width: 1.5;" x1="39" x2="361" y1="92" y2="92"/><polygon fill="none" points="49,99.418,53,103.418,49,107.418,45,103.418" style="stroke: #B38D22; stroke-width: 1.0;"/><text fill="#000000" font-family="sans-serif" font-size="11" lengthAdjust="spacingAndGlyphs" textLength="220" x="58" y="107.4189">SessionImplementation sessionImplementation</text><line style="stroke: #A80036; stroke-width: 1.5;" x1="39" x2="361" y1="113.8359" y2="113.8359"/><ellipse cx="49" cy="126.2539" fill="#84BE84" rx="3" ry="3" style="stroke: #038048; stroke-width: 1.0;"/><text fill="#000000" font-family="sans-serif" font-size="11" lengthAdjust="spacingAndGlyphs" textLength="298" x="58" y="129.2549">void associate(SessionImplementation sessionImplementation)</text><ellipse cx="49" cy="140.0898" fill="#84BE84" rx="3" ry="3" style="stroke: #038048; stroke-width: 1.0;"/><text fill="#000000" font-family="sans-serif" font-size="11" lengthAdjust="spacingAndGlyphs" textLength="55" x="58" y="143.0908">void save()</text><ellipse cx="49" cy="153.9258" fill="#84BE84" rx="3" ry="3" style="stroke: #038048; stroke-width: 1.0;"/><text fill="#000000" font-family="sans-serif" font-size="11" font-style="italic" lengthAdjust="spacingAndGlyphs" textLength="113" x="58" y="156.9268">void save(String name)</text><ellipse cx="49" cy="167.7617" fill="#84BE84" rx="3" ry="3" style="stroke: #038048; stroke-width: 1.0;"/><text fill="#000000" font-family="sans-serif" font-size="11" font-style="italic" lengthAdjust="spacingAndGlyphs" textLength="111" x="58" y="170.7627">void load(String name)</text><ellipse cx="49" cy="181.5977" fill="#84BE84" rx="3" ry="3" style="stroke: #038048; stroke-width: 1.0;"/><text fill="#000000" font-family="sans-serif" font-size="11" font-style="italic" lengthAdjust="spacingAndGlyphs" textLength="132" x="58" y="184.5986">String[] getGamesNames()</text><ellipse cx="49" cy="195.4336" fill="#84BE84" rx="3" ry="3" style="stroke: #038048; stroke-width: 1.0;"/><text fill="#000000" font-family="sans-serif" font-size="11" font-style="italic" lengthAdjust="spacingAndGlyphs" textLength="140" x="58" y="198.4346">boolean exists(String name)</text><!--class mastermind.models.Combination--><rect fill="#FEFECE" filter="url(#fp7ibyf1pbz9z)" height="48" id="mastermind.models.Combination" style="stroke: #A80036; stroke-width: 1.5;" width="103" x="680.5" y="281"/><ellipse cx="695.5" cy="297" fill="#ADD1B2" rx="11" ry="11" style="stroke: #A80036; stroke-width: 1.0;"/><path d="M698.2656,292.875 Q698.4219,292.6563 698.6094,292.5469 Q698.7969,292.4375 699.0156,292.4375 Q699.3906,292.4375 699.625,292.6953 Q699.8594,292.9531 699.8594,293.5625 L699.8594,295.0156 Q699.8594,295.625 699.625,295.8906 Q699.3906,296.1563 699.0156,296.1563 Q698.6719,296.1563 698.4688,295.9531 Q698.2656,295.7656 698.1563,295.25 Q698.1094,294.8906 697.9219,294.7031 Q697.5938,294.3281 696.9844,294.1094 Q696.375,293.8906 695.75,293.8906 Q694.9844,293.8906 694.3516,294.2188 Q693.7188,294.5469 693.2266,295.2969 Q692.7344,296.0469 692.7344,297.0781 L692.7344,298.1719 Q692.7344,299.4063 693.625,300.2266 Q694.5156,301.0469 696.1094,301.0469 Q697.0469,301.0469 697.7031,300.7969 Q698.0938,300.6406 698.5156,300.2031 Q698.7813,299.9375 698.9297,299.8594 Q699.0781,299.7813 699.2813,299.7813 Q699.6094,299.7813 699.8672,300.0391 Q700.125,300.2969 700.125,300.6406 Q700.125,300.9844 699.7813,301.3906 Q699.2813,301.9688 698.4844,302.2969 Q697.4063,302.75 696.1094,302.75 Q694.5938,302.75 693.3906,302.125 Q692.4063,301.625 691.7188,300.5547 Q691.0313,299.4844 691.0313,298.2031 L691.0313,297.0469 Q691.0313,295.7188 691.6484,294.5703 Q692.2656,293.4219 693.3594,292.8047 Q694.4531,292.1875 695.6875,292.1875 Q696.4219,292.1875 697.0703,292.3516 Q697.7188,292.5156 698.2656,292.875 Z "/><text fill="#000000" font-family="sans-serif" font-size="12" lengthAdjust="spacingAndGlyphs" textLength="71" x="709.5" y="301.9102">Combination</text><line style="stroke: #A80036; stroke-width: 1.5;" x1="681.5" x2="782.5" y1="313" y2="313"/><line style="stroke: #A80036; stroke-width: 1.5;" x1="681.5" x2="782.5" y1="321" y2="321"/><!--class mastermind.models.Game--><rect fill="#FEFECE" filter="url(#fp7ibyf1pbz9z)" height="48" id="mastermind.models.Game" style="stroke: #A80036; stroke-width: 1.5;" width="66" x="579" y="281"/><ellipse cx="594" cy="297" fill="#ADD1B2" rx="11" ry="11" style="stroke: #A80036; stroke-width: 1.0;"/><path d="M596.7656,292.875 Q596.9219,292.6563 597.1094,292.5469 Q597.2969,292.4375 597.5156,292.4375 Q597.8906,292.4375 598.125,292.6953 Q598.3594,292.9531 598.3594,293.5625 L598.3594,295.0156 Q598.3594,295.625 598.125,295.8906 Q597.8906,296.1563 597.5156,296.1563 Q597.1719,296.1563 596.9688,295.9531 Q596.7656,295.7656 596.6563,295.25 Q596.6094,294.8906 596.4219,294.7031 Q596.0938,294.3281 595.4844,294.1094 Q594.875,293.8906 594.25,293.8906 Q593.4844,293.8906 592.8516,294.2188 Q592.2188,294.5469 591.7266,295.2969 Q591.2344,296.0469 591.2344,297.0781 L591.2344,298.1719 Q591.2344,299.4063 592.125,300.2266 Q593.0156,301.0469 594.6094,301.0469 Q595.5469,301.0469 596.2031,300.7969 Q596.5938,300.6406 597.0156,300.2031 Q597.2813,299.9375 597.4297,299.8594 Q597.5781,299.7813 597.7813,299.7813 Q598.1094,299.7813 598.3672,300.0391 Q598.625,300.2969 598.625,300.6406 Q598.625,300.9844 598.2813,301.3906 Q597.7813,301.9688 596.9844,302.2969 Q595.9063,302.75 594.6094,302.75 Q593.0938,302.75 591.8906,302.125 Q590.9063,301.625 590.2188,300.5547 Q589.5313,299.4844 589.5313,298.2031 L589.5313,297.0469 Q589.5313,295.7188 590.1484,294.5703 Q590.7656,293.4219 591.8594,292.8047 Q592.9531,292.1875 594.1875,292.1875 Q594.9219,292.1875 595.5703,292.3516 Q596.2188,292.5156 596.7656,292.875 Z "/><text fill="#000000" font-family="sans-serif" font-size="12" lengthAdjust="spacingAndGlyphs" textLength="34" x="608" y="301.9102">Game</text><line style="stroke: #A80036; stroke-width: 1.5;" x1="580" x2="644" y1="313" y2="313"/><line style="stroke: #A80036; stroke-width: 1.5;" x1="580" x2="644" y1="321" y2="321"/><!--class mastermind.models.Result--><rect fill="#FEFECE" filter="url(#fp7ibyf1pbz9z)" height="48" id="mastermind.models.Result" style="stroke: #A80036; stroke-width: 1.5;" width="68" x="476" y="281"/><ellipse cx="491" cy="297" fill="#ADD1B2" rx="11" ry="11" style="stroke: #A80036; stroke-width: 1.0;"/><path d="M493.7656,292.875 Q493.9219,292.6563 494.1094,292.5469 Q494.2969,292.4375 494.5156,292.4375 Q494.8906,292.4375 495.125,292.6953 Q495.3594,292.9531 495.3594,293.5625 L495.3594,295.0156 Q495.3594,295.625 495.125,295.8906 Q494.8906,296.1563 494.5156,296.1563 Q494.1719,296.1563 493.9688,295.9531 Q493.7656,295.7656 493.6563,295.25 Q493.6094,294.8906 493.4219,294.7031 Q493.0938,294.3281 492.4844,294.1094 Q491.875,293.8906 491.25,293.8906 Q490.4844,293.8906 489.8516,294.2188 Q489.2188,294.5469 488.7266,295.2969 Q488.2344,296.0469 488.2344,297.0781 L488.2344,298.1719 Q488.2344,299.4063 489.125,300.2266 Q490.0156,301.0469 491.6094,301.0469 Q492.5469,301.0469 493.2031,300.7969 Q493.5938,300.6406 494.0156,300.2031 Q494.2813,299.9375 494.4297,299.8594 Q494.5781,299.7813 494.7813,299.7813 Q495.1094,299.7813 495.3672,300.0391 Q495.625,300.2969 495.625,300.6406 Q495.625,300.9844 495.2813,301.3906 Q494.7813,301.9688 493.9844,302.2969 Q492.9063,302.75 491.6094,302.75 Q490.0938,302.75 488.8906,302.125 Q487.9063,301.625 487.2188,300.5547 Q486.5313,299.4844 486.5313,298.2031 L486.5313,297.0469 Q486.5313,295.7188 487.1484,294.5703 Q487.7656,293.4219 488.8594,292.8047 Q489.9531,292.1875 491.1875,292.1875 Q491.9219,292.1875 492.5703,292.3516 Q493.2188,292.5156 493.7656,292.875 Z "/><text fill="#000000" font-family="sans-serif" font-size="12" lengthAdjust="spacingAndGlyphs" textLength="36" x="505" y="301.9102">Result</text><line style="stroke: #A80036; stroke-width: 1.5;" x1="477" x2="543" y1="313" y2="313"/><line style="stroke: #A80036; stroke-width: 1.5;" x1="477" x2="543" y1="321" y2="321"/><!--class mastermind.models.SessionImplementation--><rect fill="#FEFECE" filter="url(#fp7ibyf1pbz9z)" height="48" id="mastermind.models.SessionImplementation" style="stroke: #A80036; stroke-width: 1.5;" width="164" x="277" y="281"/><ellipse cx="292" cy="297" fill="#ADD1B2" rx="11" ry="11" style="stroke: #A80036; stroke-width: 1.0;"/><path d="M294.7656,292.875 Q294.9219,292.6563 295.1094,292.5469 Q295.2969,292.4375 295.5156,292.4375 Q295.8906,292.4375 296.125,292.6953 Q296.3594,292.9531 296.3594,293.5625 L296.3594,295.0156 Q296.3594,295.625 296.125,295.8906 Q295.8906,296.1563 295.5156,296.1563 Q295.1719,296.1563 294.9688,295.9531 Q294.7656,295.7656 294.6563,295.25 Q294.6094,294.8906 294.4219,294.7031 Q294.0938,294.3281 293.4844,294.1094 Q292.875,293.8906 292.25,293.8906 Q291.4844,293.8906 290.8516,294.2188 Q290.2188,294.5469 289.7266,295.2969 Q289.2344,296.0469 289.2344,297.0781 L289.2344,298.1719 Q289.2344,299.4063 290.125,300.2266 Q291.0156,301.0469 292.6094,301.0469 Q293.5469,301.0469 294.2031,300.7969 Q294.5938,300.6406 295.0156,300.2031 Q295.2813,299.9375 295.4297,299.8594 Q295.5781,299.7813 295.7813,299.7813 Q296.1094,299.7813 296.3672,300.0391 Q296.625,300.2969 296.625,300.6406 Q296.625,300.9844 296.2813,301.3906 Q295.7813,301.9688 294.9844,302.2969 Q293.9063,302.75 292.6094,302.75 Q291.0938,302.75 289.8906,302.125 Q288.9063,301.625 288.2188,300.5547 Q287.5313,299.4844 287.5313,298.2031 L287.5313,297.0469 Q287.5313,295.7188 288.1484,294.5703 Q288.7656,293.4219 289.8594,292.8047 Q290.9531,292.1875 292.1875,292.1875 Q292.9219,292.1875 293.5703,292.3516 Q294.2188,292.5156 294.7656,292.875 Z "/><text fill="#000000" font-family="sans-serif" font-size="12" lengthAdjust="spacingAndGlyphs" textLength="132" x="306" y="301.9102">SessionImplementation</text><line style="stroke: #A80036; stroke-width: 1.5;" x1="278" x2="440" y1="313" y2="313"/><line style="stroke: #A80036; stroke-width: 1.5;" x1="278" x2="440" y1="321" y2="321"/><!--link mastermind.models.DAO.CombinationDAO to mastermind.models.Combination--><path d="M834.337,181.124 C810.633,209.585 781.101,245.044 759.862,270.5456 " fill="none" id="mastermind.models.DAO.CombinationDAO-mastermind.models.Combination" style="stroke: #A80036; stroke-width: 1.0;"/><polygon fill="#A80036" points="751.309,280.8157,760.1421,276.4596,754.5087,276.9736,753.9947,271.3401,751.309,280.8157" style="stroke: #A80036; stroke-width: 1.0;"/><line style="stroke: #A80036; stroke-width: 1.0;" x1="754.5087" x2="759.6285" y1="276.9736" y2="270.8264"/><polygon fill="#A80036" points="842.837,170.917,835.9235,172.9671,835.1569,180.1374,842.0704,178.0872,842.837,170.917" style="stroke: #A80036; stroke-width: 1.0;"/><!--link mastermind.models.DAO.GameDAO to mastermind.models.Game--><path d="M639.523,183.677 C633.322,210.784 625.811,243.622 620.203,268.1398 " fill="none" id="mastermind.models.DAO.GameDAO-mastermind.models.Game" style="stroke: #A80036; stroke-width: 1.0;"/><polygon fill="#A80036" points="617.303,280.8157,623.2094,272.9344,618.418,275.9416,615.4108,271.1503,617.303,280.8157" style="stroke: #A80036; stroke-width: 1.0;"/><line style="stroke: #A80036; stroke-width: 1.0;" x1="618.418" x2="620.202" y1="275.9416" y2="268.143"/><polygon fill="#A80036" points="642.441,170.917,637.2039,175.8741,639.7654,182.6149,645.0025,177.6578,642.441,170.917" style="stroke: #A80036; stroke-width: 1.0;"/><!--link mastermind.models.DAO.ResultDAO to mastermind.models.Result--><path d="M484.074,190.656 C489.906,216.155 496.603,245.43 501.729,267.8392 " fill="none" id="mastermind.models.DAO.ResultDAO-mastermind.models.Result" style="stroke: #A80036; stroke-width: 1.0;"/><polygon fill="#A80036" points="504.696,280.8101,506.5884,271.1448,503.5811,275.936,498.7898,272.9286,504.696,280.8101" style="stroke: #A80036; stroke-width: 1.0;"/><line style="stroke: #A80036; stroke-width: 1.0;" x1="503.5811" x2="501.7965" y1="275.936" y2="268.1374"/><polygon fill="#A80036" points="481.145,177.852,478.5835,184.5928,483.8206,189.5499,486.3821,182.8091,481.145,177.852" style="stroke: #A80036; stroke-width: 1.0;"/><!--link mastermind.models.DAO.SessionImplementationDAO to mastermind.models.SessionImplementation--><path d="M275.915,214.906 C294.42,234.749 313.185,254.871 328.187,270.9586 " fill="none" id="mastermind.models.DAO.SessionImplementationDAO-mastermind.models.SessionImplementation" style="stroke: #A80036; stroke-width: 1.0;"/><polygon fill="#A80036" points="337.462,280.9045,334.2498,271.5942,334.0522,277.2476,328.3988,277.0499,337.462,280.9045" style="stroke: #A80036; stroke-width: 1.0;"/><line style="stroke: #A80036; stroke-width: 1.0;" x1="334.0522" x2="328.596" y1="277.2476" y2="271.3971"/><polygon fill="#A80036" points="266.969,205.313,268.1362,212.429,275.1538,214.0885,273.9866,206.9725,266.969,205.313" style="stroke: #A80036; stroke-width: 1.0;"/><!--
@startuml
class mastermind.models.DAO.CombinationDAO {
	#Combination combination
	+CombinationDAO(Combination combination)
}
mastermind.models.DAO.CombinationDAO *-down-> mastermind.models.Combination

class mastermind.models.DAO.GameDAO {
	#Game game
	#GameDAO(Game game)
}
mastermind.models.DAO.GameDAO *-down-> mastermind.models.Game

class mastermind.models.DAO.ResultDAO {
	#Result result
	#ResultDAO(Result result)
	+Result getResult()
}
mastermind.models.DAO.ResultDAO *-down-> mastermind.models.Result

abstract class mastermind.models.DAO.SessionImplementationDAO {
	#SessionImplementation sessionImplementation
	+void associate(SessionImplementation sessionImplementation)
	+void save()
	+{abstract}void save(String name)
	+{abstract}void load(String name)
	+{abstract}String[] getGamesNames()
	+{abstract}boolean exists(String name)
}
mastermind.models.DAO.SessionImplementationDAO *-down-> mastermind.models.SessionImplementation
@enduml

PlantUML version 1.2019.05(Sat Apr 20 18:45:36 CEST 2019)
(GPL source distribution)
Java Runtime: OpenJDK Runtime Environment
JVM: OpenJDK 64-Bit Server VM
Java Version: 1.8.0_222-b10
Operating System: Windows 10
OS Version: 10.0
Default Encoding: windows-1252
Language: es
Country: ES
--></g></svg>