<?xml version="1.0" encoding="UTF-8" standalone="no"?><svg xmlns="http://www.w3.org/2000/svg" xmlns:xlink="http://www.w3.org/1999/xlink" contentScriptType="application/ecmascript" contentStyleType="text/css" height="684px" preserveAspectRatio="none" style="width:2386px;height:684px;" version="1.1" viewBox="0 0 2386 684" width="2386px" zoomAndPan="magnify"><defs><filter height="300%" id="fb1yclto7kc2a" width="300%" x="-1" y="-1"><feGaussianBlur result="blurOut" stdDeviation="2.0"/><feColorMatrix in="blurOut" result="blurOut2" type="matrix" values="0 0 0 0 0 0 0 0 0 0 0 0 0 0 0 0 0 0 .4 0"/><feOffset dx="4.0" dy="4.0" in="blurOut2" result="blurOut3"/><feBlend in="SourceGraphic" in2="blurOut3" mode="normal"/></filter></defs><g><!--cluster mastermind.controllers.implementation--><polygon fill="#FFFFFF" filter="url(#fb1yclto7kc2a)" points="22,63,303,63,310,86.6094,1023,86.6094,1023,548,22,548,22,63" style="stroke: #000000; stroke-width: 1.5;"/><line style="stroke: #000000; stroke-width: 1.5;" x1="22" x2="310" y1="86.6094" y2="86.6094"/><text fill="#000000" font-family="sans-serif" font-size="14" font-weight="bold" lengthAdjust="spacingAndGlyphs" textLength="275" x="26" y="79.5332">mastermind.controllers.implementation</text><!--cluster mastermind.controllers--><polygon fill="#FFFFFF" filter="url(#fb1yclto7kc2a)" points="1047,97.5,1216,97.5,1223,121.1094,2364,121.1094,2364,197.5,1047,197.5,1047,97.5" style="stroke: #000000; stroke-width: 1.5;"/><line style="stroke: #000000; stroke-width: 1.5;" x1="1047" x2="1223" y1="121.1094" y2="121.1094"/><text fill="#000000" font-family="sans-serif" font-size="14" font-weight="bold" lengthAdjust="spacingAndGlyphs" textLength="163" x="1051" y="114.0332">mastermind.controllers</text><!--cluster mastermind.models--><polygon fill="#FFFFFF" filter="url(#fb1yclto7kc2a)" points="447,572,590,572,597,595.6094,600,595.6094,600,672,447,672,447,572" style="stroke: #000000; stroke-width: 1.5;"/><line style="stroke: #000000; stroke-width: 1.5;" x1="447" x2="597" y1="595.6094" y2="595.6094"/><text fill="#000000" font-family="sans-serif" font-size="14" font-weight="bold" lengthAdjust="spacingAndGlyphs" textLength="137" x="451" y="588.5332">mastermind.models</text><!--class mastermind.controllers.implementation.LogicImplementation--><rect fill="#FEFECE" filter="url(#fb1yclto7kc2a)" height="117.1797" id="mastermind.controllers.implementation.LogicImplementation" style="stroke: #A80036; stroke-width: 1.5;" width="339" x="485.5" y="99"/><ellipse cx="592.75" cy="115" fill="#ADD1B2" rx="11" ry="11" style="stroke: #A80036; stroke-width: 1.0;"/><path d="M595.5156,110.875 Q595.6719,110.6563 595.8594,110.5469 Q596.0469,110.4375 596.2656,110.4375 Q596.6406,110.4375 596.875,110.6953 Q597.1094,110.9531 597.1094,111.5625 L597.1094,113.0156 Q597.1094,113.625 596.875,113.8906 Q596.6406,114.1563 596.2656,114.1563 Q595.9219,114.1563 595.7188,113.9531 Q595.5156,113.7656 595.4063,113.25 Q595.3594,112.8906 595.1719,112.7031 Q594.8438,112.3281 594.2344,112.1094 Q593.625,111.8906 593,111.8906 Q592.2344,111.8906 591.6016,112.2188 Q590.9688,112.5469 590.4766,113.2969 Q589.9844,114.0469 589.9844,115.0781 L589.9844,116.1719 Q589.9844,117.4063 590.875,118.2266 Q591.7656,119.0469 593.3594,119.0469 Q594.2969,119.0469 594.9531,118.7969 Q595.3438,118.6406 595.7656,118.2031 Q596.0313,117.9375 596.1797,117.8594 Q596.3281,117.7813 596.5313,117.7813 Q596.8594,117.7813 597.1172,118.0391 Q597.375,118.2969 597.375,118.6406 Q597.375,118.9844 597.0313,119.3906 Q596.5313,119.9688 595.7344,120.2969 Q594.6563,120.75 593.3594,120.75 Q591.8438,120.75 590.6406,120.125 Q589.6563,119.625 588.9688,118.5547 Q588.2813,117.4844 588.2813,116.2031 L588.2813,115.0469 Q588.2813,113.7188 588.8984,112.5703 Q589.5156,111.4219 590.6094,110.8047 Q591.7031,110.1875 592.9375,110.1875 Q593.6719,110.1875 594.3203,110.3516 Q594.9688,110.5156 595.5156,110.875 Z "/><text fill="#000000" font-family="sans-serif" font-size="12" lengthAdjust="spacingAndGlyphs" textLength="116" x="613.25" y="119.9102">LogicImplementation</text><line style="stroke: #A80036; stroke-width: 1.5;" x1="486.5" x2="823.5" y1="131" y2="131"/><polygon fill="none" points="496.5,138.418,500.5,142.418,496.5,146.418,492.5,142.418" style="stroke: #B38D22; stroke-width: 1.0;"/><text fill="#000000" font-family="sans-serif" font-size="11" lengthAdjust="spacingAndGlyphs" textLength="283" x="505.5" y="146.4189">startControllerImplementation: StartControllerImplementation</text><polygon fill="none" points="496.5,152.2539,500.5,156.2539,496.5,160.2539,492.5,156.2539" style="stroke: #B38D22; stroke-width: 1.0;"/><text fill="#000000" font-family="sans-serif" font-size="11" lengthAdjust="spacingAndGlyphs" textLength="278" x="505.5" y="160.2549">playControllerImplementation: PlayControllerImplementation</text><polygon fill="none" points="496.5,166.0898,500.5,170.0898,496.5,174.0898,492.5,170.0898" style="stroke: #B38D22; stroke-width: 1.0;"/><text fill="#000000" font-family="sans-serif" font-size="11" lengthAdjust="spacingAndGlyphs" textLength="287" x="505.5" y="174.0908">saveControllerImplementation: SaveControllerImplementation</text><polygon fill="none" points="496.5,179.9258,500.5,183.9258,496.5,187.9258,492.5,183.9258" style="stroke: #B38D22; stroke-width: 1.0;"/><text fill="#000000" font-family="sans-serif" font-size="11" lengthAdjust="spacingAndGlyphs" textLength="313" x="505.5" y="187.9268">resumeControllerImplementation: ResumeControllerImplementation</text><line style="stroke: #A80036; stroke-width: 1.5;" x1="486.5" x2="823.5" y1="194.3438" y2="194.3438"/><ellipse cx="496.5" cy="206.7617" fill="#84BE84" rx="3" ry="3" style="stroke: #038048; stroke-width: 1.0;"/><text fill="#000000" font-family="sans-serif" font-size="11" lengthAdjust="spacingAndGlyphs" textLength="104" x="505.5" y="209.7627">LogicImplementation()</text><!--class mastermind.controllers.implementation.SaveControllerImplementation--><rect fill="#FEFECE" filter="url(#fb1yclto7kc2a)" height="131.0156" id="mastermind.controllers.implementation.SaveControllerImplementation" style="stroke: #A80036; stroke-width: 1.5;" width="214" x="548" y="338.5"/><ellipse cx="569.75" cy="354.5" fill="#ADD1B2" rx="11" ry="11" style="stroke: #A80036; stroke-width: 1.0;"/><path d="M572.5156,350.375 Q572.6719,350.1563 572.8594,350.0469 Q573.0469,349.9375 573.2656,349.9375 Q573.6406,349.9375 573.875,350.1953 Q574.1094,350.4531 574.1094,351.0625 L574.1094,352.5156 Q574.1094,353.125 573.875,353.3906 Q573.6406,353.6563 573.2656,353.6563 Q572.9219,353.6563 572.7188,353.4531 Q572.5156,353.2656 572.4063,352.75 Q572.3594,352.3906 572.1719,352.2031 Q571.8438,351.8281 571.2344,351.6094 Q570.625,351.3906 570,351.3906 Q569.2344,351.3906 568.6016,351.7188 Q567.9688,352.0469 567.4766,352.7969 Q566.9844,353.5469 566.9844,354.5781 L566.9844,355.6719 Q566.9844,356.9063 567.875,357.7266 Q568.7656,358.5469 570.3594,358.5469 Q571.2969,358.5469 571.9531,358.2969 Q572.3438,358.1406 572.7656,357.7031 Q573.0313,357.4375 573.1797,357.3594 Q573.3281,357.2813 573.5313,357.2813 Q573.8594,357.2813 574.1172,357.5391 Q574.375,357.7969 574.375,358.1406 Q574.375,358.4844 574.0313,358.8906 Q573.5313,359.4688 572.7344,359.7969 Q571.6563,360.25 570.3594,360.25 Q568.8438,360.25 567.6406,359.625 Q566.6563,359.125 565.9688,358.0547 Q565.2813,356.9844 565.2813,355.7031 L565.2813,354.5469 Q565.2813,353.2188 565.8984,352.0703 Q566.5156,350.9219 567.6094,350.3047 Q568.7031,349.6875 569.9375,349.6875 Q570.6719,349.6875 571.3203,349.8516 Q571.9688,350.0156 572.5156,350.375 Z "/><text fill="#000000" font-family="sans-serif" font-size="12" lengthAdjust="spacingAndGlyphs" textLength="167" x="585.25" y="359.4102">SaveControllerImplementation</text><line style="stroke: #A80036; stroke-width: 1.5;" x1="549" x2="761" y1="370.5" y2="370.5"/><line style="stroke: #A80036; stroke-width: 1.5;" x1="549" x2="761" y1="378.5" y2="378.5"/><polygon fill="#4177AF" points="559,386.918,555,392.918,563,392.918" style="stroke: #1963A0; stroke-width: 1.0;"/><text fill="#000000" font-family="sans-serif" font-size="11" lengthAdjust="spacingAndGlyphs" textLength="188" x="568" y="393.9189">SaveControllerImplementation(Session)</text><ellipse cx="559" cy="404.7539" fill="#84BE84" rx="3" ry="3" style="stroke: #038048; stroke-width: 1.0;"/><text fill="#000000" font-family="sans-serif" font-size="11" lengthAdjust="spacingAndGlyphs" textLength="55" x="568" y="407.7549">next(): void</text><ellipse cx="559" cy="418.5898" fill="#84BE84" rx="3" ry="3" style="stroke: #038048; stroke-width: 1.0;"/><text fill="#000000" font-family="sans-serif" font-size="11" lengthAdjust="spacingAndGlyphs" textLength="58" x="568" y="421.5908">save(): void</text><ellipse cx="559" cy="432.4258" fill="#84BE84" rx="3" ry="3" style="stroke: #038048; stroke-width: 1.0;"/><text fill="#000000" font-family="sans-serif" font-size="11" lengthAdjust="spacingAndGlyphs" textLength="86" x="568" y="435.4268">save(String): void</text><ellipse cx="559" cy="446.2617" fill="#84BE84" rx="3" ry="3" style="stroke: #038048; stroke-width: 1.0;"/><text fill="#000000" font-family="sans-serif" font-size="11" lengthAdjust="spacingAndGlyphs" textLength="109" x="568" y="449.2627">exists(String): boolean</text><ellipse cx="559" cy="460.0977" fill="#84BE84" rx="3" ry="3" style="stroke: #038048; stroke-width: 1.0;"/><text fill="#000000" font-family="sans-serif" font-size="11" lengthAdjust="spacingAndGlyphs" textLength="97" x="568" y="463.0986">hasName(): boolean</text><!--class mastermind.controllers.implementation.StartControllerImplementation--><rect fill="#FEFECE" filter="url(#fb1yclto7kc2a)" height="158.6875" id="mastermind.controllers.implementation.StartControllerImplementation" style="stroke: #A80036; stroke-width: 1.5;" width="212" x="38" y="324.5"/><ellipse cx="59.75" cy="340.5" fill="#ADD1B2" rx="11" ry="11" style="stroke: #A80036; stroke-width: 1.0;"/><path d="M62.5156,336.375 Q62.6719,336.1563 62.8594,336.0469 Q63.0469,335.9375 63.2656,335.9375 Q63.6406,335.9375 63.875,336.1953 Q64.1094,336.4531 64.1094,337.0625 L64.1094,338.5156 Q64.1094,339.125 63.875,339.3906 Q63.6406,339.6563 63.2656,339.6563 Q62.9219,339.6563 62.7188,339.4531 Q62.5156,339.2656 62.4063,338.75 Q62.3594,338.3906 62.1719,338.2031 Q61.8438,337.8281 61.2344,337.6094 Q60.625,337.3906 60,337.3906 Q59.2344,337.3906 58.6016,337.7188 Q57.9688,338.0469 57.4766,338.7969 Q56.9844,339.5469 56.9844,340.5781 L56.9844,341.6719 Q56.9844,342.9063 57.875,343.7266 Q58.7656,344.5469 60.3594,344.5469 Q61.2969,344.5469 61.9531,344.2969 Q62.3438,344.1406 62.7656,343.7031 Q63.0313,343.4375 63.1797,343.3594 Q63.3281,343.2813 63.5313,343.2813 Q63.8594,343.2813 64.1172,343.5391 Q64.375,343.7969 64.375,344.1406 Q64.375,344.4844 64.0313,344.8906 Q63.5313,345.4688 62.7344,345.7969 Q61.6563,346.25 60.3594,346.25 Q58.8438,346.25 57.6406,345.625 Q56.6563,345.125 55.9688,344.0547 Q55.2813,342.9844 55.2813,341.7031 L55.2813,340.5469 Q55.2813,339.2188 55.8984,338.0703 Q56.5156,336.9219 57.6094,336.3047 Q58.7031,335.6875 59.9375,335.6875 Q60.6719,335.6875 61.3203,335.8516 Q61.9688,336.0156 62.5156,336.375 Z "/><text fill="#000000" font-family="sans-serif" font-size="12" lengthAdjust="spacingAndGlyphs" textLength="165" x="75.25" y="345.4102">StartControllerImplementation</text><line style="stroke: #A80036; stroke-width: 1.5;" x1="39" x2="249" y1="356.5" y2="356.5"/><line style="stroke: #A80036; stroke-width: 1.5;" x1="39" x2="249" y1="364.5" y2="364.5"/><polygon fill="#4177AF" points="49,372.918,45,378.918,53,378.918" style="stroke: #1963A0; stroke-width: 1.0;"/><text fill="#000000" font-family="sans-serif" font-size="11" lengthAdjust="spacingAndGlyphs" textLength="186" x="58" y="379.9189">StartControllerImplementation(Session)</text><ellipse cx="49" cy="390.7539" fill="#84BE84" rx="3" ry="3" style="stroke: #038048; stroke-width: 1.0;"/><text fill="#000000" font-family="sans-serif" font-size="11" lengthAdjust="spacingAndGlyphs" textLength="84" x="58" y="393.7549">start(String): void</text><ellipse cx="49" cy="404.5898" fill="#84BE84" rx="3" ry="3" style="stroke: #038048; stroke-width: 1.0;"/><text fill="#000000" font-family="sans-serif" font-size="11" lengthAdjust="spacingAndGlyphs" textLength="56" x="58" y="407.5908">start(): void</text><ellipse cx="49" cy="418.4258" fill="#84BE84" rx="3" ry="3" style="stroke: #038048; stroke-width: 1.0;"/><text fill="#000000" font-family="sans-serif" font-size="11" lengthAdjust="spacingAndGlyphs" textLength="130" x="58" y="421.4268">getGamesNames(): String[]</text><ellipse cx="49" cy="432.2617" fill="#84BE84" rx="3" ry="3" style="stroke: #038048; stroke-width: 1.0;"/><text fill="#000000" font-family="sans-serif" font-size="11" lengthAdjust="spacingAndGlyphs" textLength="101" x="58" y="435.2627">getAllCodes(): int[][][]</text><ellipse cx="49" cy="446.0977" fill="#84BE84" rx="3" ry="3" style="stroke: #038048; stroke-width: 1.0;"/><text fill="#000000" font-family="sans-serif" font-size="11" lengthAdjust="spacingAndGlyphs" textLength="94" x="58" y="449.0986">isWinner(): boolean</text><ellipse cx="49" cy="459.9336" fill="#84BE84" rx="3" ry="3" style="stroke: #038048; stroke-width: 1.0;"/><text fill="#000000" font-family="sans-serif" font-size="11" lengthAdjust="spacingAndGlyphs" textLength="94" x="58" y="462.9346">isLooser(): boolean</text><ellipse cx="49" cy="473.7695" fill="#84BE84" rx="3" ry="3" style="stroke: #038048; stroke-width: 1.0;"/><text fill="#000000" font-family="sans-serif" font-size="11" lengthAdjust="spacingAndGlyphs" textLength="62" x="58" y="476.7705">getTurn(): int</text><!--class mastermind.controllers.implementation.ResumeControllerImplementation--><rect fill="#FEFECE" filter="url(#fb1yclto7kc2a)" height="75.6719" id="mastermind.controllers.implementation.ResumeControllerImplementation" style="stroke: #A80036; stroke-width: 1.5;" width="228" x="285" y="366"/><ellipse cx="303.6" cy="382" fill="#ADD1B2" rx="11" ry="11" style="stroke: #A80036; stroke-width: 1.0;"/><path d="M306.3656,377.875 Q306.5219,377.6563 306.7094,377.5469 Q306.8969,377.4375 307.1156,377.4375 Q307.4906,377.4375 307.725,377.6953 Q307.9594,377.9531 307.9594,378.5625 L307.9594,380.0156 Q307.9594,380.625 307.725,380.8906 Q307.4906,381.1563 307.1156,381.1563 Q306.7719,381.1563 306.5688,380.9531 Q306.3656,380.7656 306.2563,380.25 Q306.2094,379.8906 306.0219,379.7031 Q305.6938,379.3281 305.0844,379.1094 Q304.475,378.8906 303.85,378.8906 Q303.0844,378.8906 302.4516,379.2188 Q301.8188,379.5469 301.3266,380.2969 Q300.8344,381.0469 300.8344,382.0781 L300.8344,383.1719 Q300.8344,384.4063 301.725,385.2266 Q302.6156,386.0469 304.2094,386.0469 Q305.1469,386.0469 305.8031,385.7969 Q306.1938,385.6406 306.6156,385.2031 Q306.8813,384.9375 307.0297,384.8594 Q307.1781,384.7813 307.3813,384.7813 Q307.7094,384.7813 307.9672,385.0391 Q308.225,385.2969 308.225,385.6406 Q308.225,385.9844 307.8813,386.3906 Q307.3813,386.9688 306.5844,387.2969 Q305.5063,387.75 304.2094,387.75 Q302.6938,387.75 301.4906,387.125 Q300.5063,386.625 299.8188,385.5547 Q299.1313,384.4844 299.1313,383.2031 L299.1313,382.0469 Q299.1313,380.7188 299.7484,379.5703 Q300.3656,378.4219 301.4594,377.8047 Q302.5531,377.1875 303.7875,377.1875 Q304.5219,377.1875 305.1703,377.3516 Q305.8188,377.5156 306.3656,377.875 Z "/><text fill="#000000" font-family="sans-serif" font-size="12" lengthAdjust="spacingAndGlyphs" textLength="188" x="318.4" y="386.9102">ResumeControllerImplementation</text><line style="stroke: #A80036; stroke-width: 1.5;" x1="286" x2="512" y1="398" y2="398"/><line style="stroke: #A80036; stroke-width: 1.5;" x1="286" x2="512" y1="406" y2="406"/><polygon fill="#4177AF" points="296,414.418,292,420.418,300,420.418" style="stroke: #1963A0; stroke-width: 1.0;"/><text fill="#000000" font-family="sans-serif" font-size="11" lengthAdjust="spacingAndGlyphs" textLength="202" x="305" y="421.4189">ResumeControllerImplementation(Session)</text><ellipse cx="296" cy="432.2539" fill="#84BE84" rx="3" ry="3" style="stroke: #038048; stroke-width: 1.0;"/><text fill="#000000" font-family="sans-serif" font-size="11" lengthAdjust="spacingAndGlyphs" textLength="108" x="305" y="435.2549">resume(boolean): void</text><!--class mastermind.controllers.implementation.PlayControllerImplementation--><rect fill="#FEFECE" filter="url(#fb1yclto7kc2a)" height="255.5391" id="mastermind.controllers.implementation.PlayControllerImplementation" style="stroke: #A80036; stroke-width: 1.5;" width="209" x="797.5" y="276"/><ellipse cx="818.8" cy="292" fill="#ADD1B2" rx="11" ry="11" style="stroke: #A80036; stroke-width: 1.0;"/><path d="M821.5656,287.875 Q821.7219,287.6563 821.9094,287.5469 Q822.0969,287.4375 822.3156,287.4375 Q822.6906,287.4375 822.925,287.6953 Q823.1594,287.9531 823.1594,288.5625 L823.1594,290.0156 Q823.1594,290.625 822.925,290.8906 Q822.6906,291.1563 822.3156,291.1563 Q821.9719,291.1563 821.7688,290.9531 Q821.5656,290.7656 821.4563,290.25 Q821.4094,289.8906 821.2219,289.7031 Q820.8938,289.3281 820.2844,289.1094 Q819.675,288.8906 819.05,288.8906 Q818.2844,288.8906 817.6516,289.2188 Q817.0188,289.5469 816.5266,290.2969 Q816.0344,291.0469 816.0344,292.0781 L816.0344,293.1719 Q816.0344,294.4063 816.925,295.2266 Q817.8156,296.0469 819.4094,296.0469 Q820.3469,296.0469 821.0031,295.7969 Q821.3938,295.6406 821.8156,295.2031 Q822.0813,294.9375 822.2297,294.8594 Q822.3781,294.7813 822.5813,294.7813 Q822.9094,294.7813 823.1672,295.0391 Q823.425,295.2969 823.425,295.6406 Q823.425,295.9844 823.0813,296.3906 Q822.5813,296.9688 821.7844,297.2969 Q820.7063,297.75 819.4094,297.75 Q817.8938,297.75 816.6906,297.125 Q815.7063,296.625 815.0188,295.5547 Q814.3313,294.4844 814.3313,293.2031 L814.3313,292.0469 Q814.3313,290.7188 814.9484,289.5703 Q815.5656,288.4219 816.6594,287.8047 Q817.7531,287.1875 818.9875,287.1875 Q819.7219,287.1875 820.3703,287.3516 Q821.0188,287.5156 821.5656,287.875 Z "/><text fill="#000000" font-family="sans-serif" font-size="12" lengthAdjust="spacingAndGlyphs" textLength="163" x="834.2" y="296.9102">PlayControllerImplementation</text><line style="stroke: #A80036; stroke-width: 1.5;" x1="798.5" x2="1005.5" y1="308" y2="308"/><rect fill="none" height="6" style="stroke: #C82930; stroke-width: 1.0;" width="6" x="805.5" y="317.418"/><text fill="#000000" font-family="sans-serif" font-size="11" lengthAdjust="spacingAndGlyphs" textLength="182" x="817.5" y="323.4189">proposalController: ProposalController</text><rect fill="none" height="6" style="stroke: #C82930; stroke-width: 1.0;" width="6" x="805.5" y="331.2539"/><text fill="#000000" font-family="sans-serif" font-size="11" lengthAdjust="spacingAndGlyphs" textLength="147" x="817.5" y="337.2549">undoController: UndoController</text><rect fill="none" height="6" style="stroke: #C82930; stroke-width: 1.0;" width="6" x="805.5" y="345.0898"/><text fill="#000000" font-family="sans-serif" font-size="11" lengthAdjust="spacingAndGlyphs" textLength="145" x="817.5" y="351.0908">redoController: RedoController</text><rect fill="none" height="6" style="stroke: #C82930; stroke-width: 1.0;" width="6" x="805.5" y="358.9258"/><text fill="#000000" font-family="sans-serif" font-size="11" lengthAdjust="spacingAndGlyphs" textLength="132" x="817.5" y="364.9268">exitController: ExitController</text><line style="stroke: #A80036; stroke-width: 1.5;" x1="798.5" x2="1005.5" y1="371.3438" y2="371.3438"/><polygon fill="#4177AF" points="808.5,379.7617,804.5,385.7617,812.5,385.7617" style="stroke: #1963A0; stroke-width: 1.0;"/><text fill="#000000" font-family="sans-serif" font-size="11" lengthAdjust="spacingAndGlyphs" textLength="183" x="817.5" y="386.7627">PlayControllerImplementation(Session)</text><ellipse cx="808.5" cy="397.5977" fill="#84BE84" rx="3" ry="3" style="stroke: #038048; stroke-width: 1.0;"/><text fill="#000000" font-family="sans-serif" font-size="11" lengthAdjust="spacingAndGlyphs" textLength="55" x="817.5" y="400.5986">next(): void</text><ellipse cx="808.5" cy="411.4336" fill="#84BE84" rx="3" ry="3" style="stroke: #038048; stroke-width: 1.0;"/><text fill="#000000" font-family="sans-serif" font-size="11" lengthAdjust="spacingAndGlyphs" textLength="140" x="817.5" y="414.4346">proposeCombination(int[]): int</text><ellipse cx="808.5" cy="425.2695" fill="#84BE84" rx="3" ry="3" style="stroke: #038048; stroke-width: 1.0;"/><text fill="#000000" font-family="sans-serif" font-size="11" lengthAdjust="spacingAndGlyphs" textLength="56" x="817.5" y="428.2705">redo(): void</text><ellipse cx="808.5" cy="439.1055" fill="#84BE84" rx="3" ry="3" style="stroke: #038048; stroke-width: 1.0;"/><text fill="#000000" font-family="sans-serif" font-size="11" lengthAdjust="spacingAndGlyphs" textLength="101" x="817.5" y="442.1064">getAllCodes(): int[][][]</text><ellipse cx="808.5" cy="452.9414" fill="#84BE84" rx="3" ry="3" style="stroke: #038048; stroke-width: 1.0;"/><text fill="#000000" font-family="sans-serif" font-size="11" lengthAdjust="spacingAndGlyphs" textLength="96" x="817.5" y="455.9424">undoable(): boolean</text><ellipse cx="808.5" cy="466.7773" fill="#84BE84" rx="3" ry="3" style="stroke: #038048; stroke-width: 1.0;"/><text fill="#000000" font-family="sans-serif" font-size="11" lengthAdjust="spacingAndGlyphs" textLength="94" x="817.5" y="469.7783">isWinner(): boolean</text><ellipse cx="808.5" cy="480.6133" fill="#84BE84" rx="3" ry="3" style="stroke: #038048; stroke-width: 1.0;"/><text fill="#000000" font-family="sans-serif" font-size="11" lengthAdjust="spacingAndGlyphs" textLength="94" x="817.5" y="483.6143">redoable(): boolean</text><ellipse cx="808.5" cy="494.4492" fill="#84BE84" rx="3" ry="3" style="stroke: #038048; stroke-width: 1.0;"/><text fill="#000000" font-family="sans-serif" font-size="11" lengthAdjust="spacingAndGlyphs" textLength="94" x="817.5" y="497.4502">isLooser(): boolean</text><ellipse cx="808.5" cy="508.2852" fill="#84BE84" rx="3" ry="3" style="stroke: #038048; stroke-width: 1.0;"/><text fill="#000000" font-family="sans-serif" font-size="11" lengthAdjust="spacingAndGlyphs" textLength="62" x="817.5" y="511.2861">getTurn(): int</text><ellipse cx="808.5" cy="522.1211" fill="#84BE84" rx="3" ry="3" style="stroke: #038048; stroke-width: 1.0;"/><text fill="#000000" font-family="sans-serif" font-size="11" lengthAdjust="spacingAndGlyphs" textLength="58" x="817.5" y="525.1221">undo(): void</text><!--class mastermind.controllers.Logic--><rect fill="#FEFECE" filter="url(#fb1yclto7kc2a)" height="48" id="mastermind.controllers.Logic" style="stroke: #A80036; stroke-width: 1.5;" width="62" x="1379" y="133.5"/><ellipse cx="1394" cy="149.5" fill="#ADD1B2" rx="11" ry="11" style="stroke: #A80036; stroke-width: 1.0;"/><path d="M1396.7656,145.375 Q1396.9219,145.1563 1397.1094,145.0469 Q1397.2969,144.9375 1397.5156,144.9375 Q1397.8906,144.9375 1398.125,145.1953 Q1398.3594,145.4531 1398.3594,146.0625 L1398.3594,147.5156 Q1398.3594,148.125 1398.125,148.3906 Q1397.8906,148.6563 1397.5156,148.6563 Q1397.1719,148.6563 1396.9688,148.4531 Q1396.7656,148.2656 1396.6563,147.75 Q1396.6094,147.3906 1396.4219,147.2031 Q1396.0938,146.8281 1395.4844,146.6094 Q1394.875,146.3906 1394.25,146.3906 Q1393.4844,146.3906 1392.8516,146.7188 Q1392.2188,147.0469 1391.7266,147.7969 Q1391.2344,148.5469 1391.2344,149.5781 L1391.2344,150.6719 Q1391.2344,151.9063 1392.125,152.7266 Q1393.0156,153.5469 1394.6094,153.5469 Q1395.5469,153.5469 1396.2031,153.2969 Q1396.5938,153.1406 1397.0156,152.7031 Q1397.2813,152.4375 1397.4297,152.3594 Q1397.5781,152.2813 1397.7813,152.2813 Q1398.1094,152.2813 1398.3672,152.5391 Q1398.625,152.7969 1398.625,153.1406 Q1398.625,153.4844 1398.2813,153.8906 Q1397.7813,154.4688 1396.9844,154.7969 Q1395.9063,155.25 1394.6094,155.25 Q1393.0938,155.25 1391.8906,154.625 Q1390.9063,154.125 1390.2188,153.0547 Q1389.5313,151.9844 1389.5313,150.7031 L1389.5313,149.5469 Q1389.5313,148.2188 1390.1484,147.0703 Q1390.7656,145.9219 1391.8594,145.3047 Q1392.9531,144.6875 1394.1875,144.6875 Q1394.9219,144.6875 1395.5703,144.8516 Q1396.2188,145.0156 1396.7656,145.375 Z "/><text fill="#000000" font-family="sans-serif" font-size="12" lengthAdjust="spacingAndGlyphs" textLength="30" x="1408" y="154.4102">Logic</text><line style="stroke: #A80036; stroke-width: 1.5;" x1="1380" x2="1440" y1="165.5" y2="165.5"/><line style="stroke: #A80036; stroke-width: 1.5;" x1="1380" x2="1440" y1="173.5" y2="173.5"/><!--class mastermind.controllers.PlayController--><rect fill="#FEFECE" filter="url(#fb1yclto7kc2a)" height="48" id="mastermind.controllers.PlayController" style="stroke: #A80036; stroke-width: 1.5;" width="109" x="1927.5" y="133.5"/><ellipse cx="1942.5" cy="149.5" fill="#ADD1B2" rx="11" ry="11" style="stroke: #A80036; stroke-width: 1.0;"/><path d="M1945.2656,145.375 Q1945.4219,145.1563 1945.6094,145.0469 Q1945.7969,144.9375 1946.0156,144.9375 Q1946.3906,144.9375 1946.625,145.1953 Q1946.8594,145.4531 1946.8594,146.0625 L1946.8594,147.5156 Q1946.8594,148.125 1946.625,148.3906 Q1946.3906,148.6563 1946.0156,148.6563 Q1945.6719,148.6563 1945.4688,148.4531 Q1945.2656,148.2656 1945.1563,147.75 Q1945.1094,147.3906 1944.9219,147.2031 Q1944.5938,146.8281 1943.9844,146.6094 Q1943.375,146.3906 1942.75,146.3906 Q1941.9844,146.3906 1941.3516,146.7188 Q1940.7188,147.0469 1940.2266,147.7969 Q1939.7344,148.5469 1939.7344,149.5781 L1939.7344,150.6719 Q1939.7344,151.9063 1940.625,152.7266 Q1941.5156,153.5469 1943.1094,153.5469 Q1944.0469,153.5469 1944.7031,153.2969 Q1945.0938,153.1406 1945.5156,152.7031 Q1945.7813,152.4375 1945.9297,152.3594 Q1946.0781,152.2813 1946.2813,152.2813 Q1946.6094,152.2813 1946.8672,152.5391 Q1947.125,152.7969 1947.125,153.1406 Q1947.125,153.4844 1946.7813,153.8906 Q1946.2813,154.4688 1945.4844,154.7969 Q1944.4063,155.25 1943.1094,155.25 Q1941.5938,155.25 1940.3906,154.625 Q1939.4063,154.125 1938.7188,153.0547 Q1938.0313,151.9844 1938.0313,150.7031 L1938.0313,149.5469 Q1938.0313,148.2188 1938.6484,147.0703 Q1939.2656,145.9219 1940.3594,145.3047 Q1941.4531,144.6875 1942.6875,144.6875 Q1943.4219,144.6875 1944.0703,144.8516 Q1944.7188,145.0156 1945.2656,145.375 Z "/><text fill="#000000" font-family="sans-serif" font-size="12" lengthAdjust="spacingAndGlyphs" textLength="77" x="1956.5" y="154.4102">PlayController</text><line style="stroke: #A80036; stroke-width: 1.5;" x1="1928.5" x2="2035.5" y1="165.5" y2="165.5"/><line style="stroke: #A80036; stroke-width: 1.5;" x1="1928.5" x2="2035.5" y1="173.5" y2="173.5"/><!--class mastermind.controllers.RedoController--><rect fill="#FEFECE" filter="url(#fb1yclto7kc2a)" height="48" id="mastermind.controllers.RedoController" style="stroke: #A80036; stroke-width: 1.5;" width="116" x="1776" y="133.5"/><ellipse cx="1791" cy="149.5" fill="#ADD1B2" rx="11" ry="11" style="stroke: #A80036; stroke-width: 1.0;"/><path d="M1793.7656,145.375 Q1793.9219,145.1563 1794.1094,145.0469 Q1794.2969,144.9375 1794.5156,144.9375 Q1794.8906,144.9375 1795.125,145.1953 Q1795.3594,145.4531 1795.3594,146.0625 L1795.3594,147.5156 Q1795.3594,148.125 1795.125,148.3906 Q1794.8906,148.6563 1794.5156,148.6563 Q1794.1719,148.6563 1793.9688,148.4531 Q1793.7656,148.2656 1793.6563,147.75 Q1793.6094,147.3906 1793.4219,147.2031 Q1793.0938,146.8281 1792.4844,146.6094 Q1791.875,146.3906 1791.25,146.3906 Q1790.4844,146.3906 1789.8516,146.7188 Q1789.2188,147.0469 1788.7266,147.7969 Q1788.2344,148.5469 1788.2344,149.5781 L1788.2344,150.6719 Q1788.2344,151.9063 1789.125,152.7266 Q1790.0156,153.5469 1791.6094,153.5469 Q1792.5469,153.5469 1793.2031,153.2969 Q1793.5938,153.1406 1794.0156,152.7031 Q1794.2813,152.4375 1794.4297,152.3594 Q1794.5781,152.2813 1794.7813,152.2813 Q1795.1094,152.2813 1795.3672,152.5391 Q1795.625,152.7969 1795.625,153.1406 Q1795.625,153.4844 1795.2813,153.8906 Q1794.7813,154.4688 1793.9844,154.7969 Q1792.9063,155.25 1791.6094,155.25 Q1790.0938,155.25 1788.8906,154.625 Q1787.9063,154.125 1787.2188,153.0547 Q1786.5313,151.9844 1786.5313,150.7031 L1786.5313,149.5469 Q1786.5313,148.2188 1787.1484,147.0703 Q1787.7656,145.9219 1788.8594,145.3047 Q1789.9531,144.6875 1791.1875,144.6875 Q1791.9219,144.6875 1792.5703,144.8516 Q1793.2188,145.0156 1793.7656,145.375 Z "/><text fill="#000000" font-family="sans-serif" font-size="12" lengthAdjust="spacingAndGlyphs" textLength="84" x="1805" y="154.4102">RedoController</text><line style="stroke: #A80036; stroke-width: 1.5;" x1="1777" x2="1891" y1="165.5" y2="165.5"/><line style="stroke: #A80036; stroke-width: 1.5;" x1="1777" x2="1891" y1="173.5" y2="173.5"/><!--class mastermind.controllers.UndoController--><rect fill="#FEFECE" filter="url(#fb1yclto7kc2a)" height="48" id="mastermind.controllers.UndoController" style="stroke: #A80036; stroke-width: 1.5;" width="116" x="1625" y="133.5"/><ellipse cx="1640" cy="149.5" fill="#ADD1B2" rx="11" ry="11" style="stroke: #A80036; stroke-width: 1.0;"/><path d="M1642.7656,145.375 Q1642.9219,145.1563 1643.1094,145.0469 Q1643.2969,144.9375 1643.5156,144.9375 Q1643.8906,144.9375 1644.125,145.1953 Q1644.3594,145.4531 1644.3594,146.0625 L1644.3594,147.5156 Q1644.3594,148.125 1644.125,148.3906 Q1643.8906,148.6563 1643.5156,148.6563 Q1643.1719,148.6563 1642.9688,148.4531 Q1642.7656,148.2656 1642.6563,147.75 Q1642.6094,147.3906 1642.4219,147.2031 Q1642.0938,146.8281 1641.4844,146.6094 Q1640.875,146.3906 1640.25,146.3906 Q1639.4844,146.3906 1638.8516,146.7188 Q1638.2188,147.0469 1637.7266,147.7969 Q1637.2344,148.5469 1637.2344,149.5781 L1637.2344,150.6719 Q1637.2344,151.9063 1638.125,152.7266 Q1639.0156,153.5469 1640.6094,153.5469 Q1641.5469,153.5469 1642.2031,153.2969 Q1642.5938,153.1406 1643.0156,152.7031 Q1643.2813,152.4375 1643.4297,152.3594 Q1643.5781,152.2813 1643.7813,152.2813 Q1644.1094,152.2813 1644.3672,152.5391 Q1644.625,152.7969 1644.625,153.1406 Q1644.625,153.4844 1644.2813,153.8906 Q1643.7813,154.4688 1642.9844,154.7969 Q1641.9063,155.25 1640.6094,155.25 Q1639.0938,155.25 1637.8906,154.625 Q1636.9063,154.125 1636.2188,153.0547 Q1635.5313,151.9844 1635.5313,150.7031 L1635.5313,149.5469 Q1635.5313,148.2188 1636.1484,147.0703 Q1636.7656,145.9219 1637.8594,145.3047 Q1638.9531,144.6875 1640.1875,144.6875 Q1640.9219,144.6875 1641.5703,144.8516 Q1642.2188,145.0156 1642.7656,145.375 Z "/><text fill="#000000" font-family="sans-serif" font-size="12" lengthAdjust="spacingAndGlyphs" textLength="84" x="1654" y="154.4102">UndoController</text><line style="stroke: #A80036; stroke-width: 1.5;" x1="1626" x2="1740" y1="165.5" y2="165.5"/><line style="stroke: #A80036; stroke-width: 1.5;" x1="1626" x2="1740" y1="173.5" y2="173.5"/><!--class mastermind.controllers.ProposalController--><rect fill="#FEFECE" filter="url(#fb1yclto7kc2a)" height="48" id="mastermind.controllers.ProposalController" style="stroke: #A80036; stroke-width: 1.5;" width="136" x="2212" y="133.5"/><ellipse cx="2227" cy="149.5" fill="#ADD1B2" rx="11" ry="11" style="stroke: #A80036; stroke-width: 1.0;"/><path d="M2229.7656,145.375 Q2229.9219,145.1563 2230.1094,145.0469 Q2230.2969,144.9375 2230.5156,144.9375 Q2230.8906,144.9375 2231.125,145.1953 Q2231.3594,145.4531 2231.3594,146.0625 L2231.3594,147.5156 Q2231.3594,148.125 2231.125,148.3906 Q2230.8906,148.6563 2230.5156,148.6563 Q2230.1719,148.6563 2229.9688,148.4531 Q2229.7656,148.2656 2229.6563,147.75 Q2229.6094,147.3906 2229.4219,147.2031 Q2229.0938,146.8281 2228.4844,146.6094 Q2227.875,146.3906 2227.25,146.3906 Q2226.4844,146.3906 2225.8516,146.7188 Q2225.2188,147.0469 2224.7266,147.7969 Q2224.2344,148.5469 2224.2344,149.5781 L2224.2344,150.6719 Q2224.2344,151.9063 2225.125,152.7266 Q2226.0156,153.5469 2227.6094,153.5469 Q2228.5469,153.5469 2229.2031,153.2969 Q2229.5938,153.1406 2230.0156,152.7031 Q2230.2813,152.4375 2230.4297,152.3594 Q2230.5781,152.2813 2230.7813,152.2813 Q2231.1094,152.2813 2231.3672,152.5391 Q2231.625,152.7969 2231.625,153.1406 Q2231.625,153.4844 2231.2813,153.8906 Q2230.7813,154.4688 2229.9844,154.7969 Q2228.9063,155.25 2227.6094,155.25 Q2226.0938,155.25 2224.8906,154.625 Q2223.9063,154.125 2223.2188,153.0547 Q2222.5313,151.9844 2222.5313,150.7031 L2222.5313,149.5469 Q2222.5313,148.2188 2223.1484,147.0703 Q2223.7656,145.9219 2224.8594,145.3047 Q2225.9531,144.6875 2227.1875,144.6875 Q2227.9219,144.6875 2228.5703,144.8516 Q2229.2188,145.0156 2229.7656,145.375 Z "/><text fill="#000000" font-family="sans-serif" font-size="12" lengthAdjust="spacingAndGlyphs" textLength="104" x="2241" y="154.4102">ProposalController</text><line style="stroke: #A80036; stroke-width: 1.5;" x1="2213" x2="2347" y1="165.5" y2="165.5"/><line style="stroke: #A80036; stroke-width: 1.5;" x1="2213" x2="2347" y1="173.5" y2="173.5"/><!--class mastermind.controllers.ExitController--><rect fill="#FEFECE" filter="url(#fb1yclto7kc2a)" height="48" id="mastermind.controllers.ExitController" style="stroke: #A80036; stroke-width: 1.5;" width="105" x="2071.5" y="133.5"/><ellipse cx="2086.5" cy="149.5" fill="#ADD1B2" rx="11" ry="11" style="stroke: #A80036; stroke-width: 1.0;"/><path d="M2089.2656,145.375 Q2089.4219,145.1563 2089.6094,145.0469 Q2089.7969,144.9375 2090.0156,144.9375 Q2090.3906,144.9375 2090.625,145.1953 Q2090.8594,145.4531 2090.8594,146.0625 L2090.8594,147.5156 Q2090.8594,148.125 2090.625,148.3906 Q2090.3906,148.6563 2090.0156,148.6563 Q2089.6719,148.6563 2089.4688,148.4531 Q2089.2656,148.2656 2089.1563,147.75 Q2089.1094,147.3906 2088.9219,147.2031 Q2088.5938,146.8281 2087.9844,146.6094 Q2087.375,146.3906 2086.75,146.3906 Q2085.9844,146.3906 2085.3516,146.7188 Q2084.7188,147.0469 2084.2266,147.7969 Q2083.7344,148.5469 2083.7344,149.5781 L2083.7344,150.6719 Q2083.7344,151.9063 2084.625,152.7266 Q2085.5156,153.5469 2087.1094,153.5469 Q2088.0469,153.5469 2088.7031,153.2969 Q2089.0938,153.1406 2089.5156,152.7031 Q2089.7813,152.4375 2089.9297,152.3594 Q2090.0781,152.2813 2090.2813,152.2813 Q2090.6094,152.2813 2090.8672,152.5391 Q2091.125,152.7969 2091.125,153.1406 Q2091.125,153.4844 2090.7813,153.8906 Q2090.2813,154.4688 2089.4844,154.7969 Q2088.4063,155.25 2087.1094,155.25 Q2085.5938,155.25 2084.3906,154.625 Q2083.4063,154.125 2082.7188,153.0547 Q2082.0313,151.9844 2082.0313,150.7031 L2082.0313,149.5469 Q2082.0313,148.2188 2082.6484,147.0703 Q2083.2656,145.9219 2084.3594,145.3047 Q2085.4531,144.6875 2086.6875,144.6875 Q2087.4219,144.6875 2088.0703,144.8516 Q2088.7188,145.0156 2089.2656,145.375 Z "/><text fill="#000000" font-family="sans-serif" font-size="12" lengthAdjust="spacingAndGlyphs" textLength="73" x="2100.5" y="154.4102">ExitController</text><line style="stroke: #A80036; stroke-width: 1.5;" x1="2072.5" x2="2175.5" y1="165.5" y2="165.5"/><line style="stroke: #A80036; stroke-width: 1.5;" x1="2072.5" x2="2175.5" y1="173.5" y2="173.5"/><!--class mastermind.controllers.ResumeController--><rect fill="#FEFECE" filter="url(#fb1yclto7kc2a)" height="48" id="mastermind.controllers.ResumeController" style="stroke: #A80036; stroke-width: 1.5;" width="134" x="1210" y="133.5"/><ellipse cx="1225" cy="149.5" fill="#ADD1B2" rx="11" ry="11" style="stroke: #A80036; stroke-width: 1.0;"/><path d="M1227.7656,145.375 Q1227.9219,145.1563 1228.1094,145.0469 Q1228.2969,144.9375 1228.5156,144.9375 Q1228.8906,144.9375 1229.125,145.1953 Q1229.3594,145.4531 1229.3594,146.0625 L1229.3594,147.5156 Q1229.3594,148.125 1229.125,148.3906 Q1228.8906,148.6563 1228.5156,148.6563 Q1228.1719,148.6563 1227.9688,148.4531 Q1227.7656,148.2656 1227.6563,147.75 Q1227.6094,147.3906 1227.4219,147.2031 Q1227.0938,146.8281 1226.4844,146.6094 Q1225.875,146.3906 1225.25,146.3906 Q1224.4844,146.3906 1223.8516,146.7188 Q1223.2188,147.0469 1222.7266,147.7969 Q1222.2344,148.5469 1222.2344,149.5781 L1222.2344,150.6719 Q1222.2344,151.9063 1223.125,152.7266 Q1224.0156,153.5469 1225.6094,153.5469 Q1226.5469,153.5469 1227.2031,153.2969 Q1227.5938,153.1406 1228.0156,152.7031 Q1228.2813,152.4375 1228.4297,152.3594 Q1228.5781,152.2813 1228.7813,152.2813 Q1229.1094,152.2813 1229.3672,152.5391 Q1229.625,152.7969 1229.625,153.1406 Q1229.625,153.4844 1229.2813,153.8906 Q1228.7813,154.4688 1227.9844,154.7969 Q1226.9063,155.25 1225.6094,155.25 Q1224.0938,155.25 1222.8906,154.625 Q1221.9063,154.125 1221.2188,153.0547 Q1220.5313,151.9844 1220.5313,150.7031 L1220.5313,149.5469 Q1220.5313,148.2188 1221.1484,147.0703 Q1221.7656,145.9219 1222.8594,145.3047 Q1223.9531,144.6875 1225.1875,144.6875 Q1225.9219,144.6875 1226.5703,144.8516 Q1227.2188,145.0156 1227.7656,145.375 Z "/><text fill="#000000" font-family="sans-serif" font-size="12" lengthAdjust="spacingAndGlyphs" textLength="102" x="1239" y="154.4102">ResumeController</text><line style="stroke: #A80036; stroke-width: 1.5;" x1="1211" x2="1343" y1="165.5" y2="165.5"/><line style="stroke: #A80036; stroke-width: 1.5;" x1="1211" x2="1343" y1="173.5" y2="173.5"/><!--class mastermind.controllers.SaveController--><rect fill="#FEFECE" filter="url(#fb1yclto7kc2a)" height="48" id="mastermind.controllers.SaveController" style="stroke: #A80036; stroke-width: 1.5;" width="113" x="1476.5" y="133.5"/><ellipse cx="1491.5" cy="149.5" fill="#ADD1B2" rx="11" ry="11" style="stroke: #A80036; stroke-width: 1.0;"/><path d="M1494.2656,145.375 Q1494.4219,145.1563 1494.6094,145.0469 Q1494.7969,144.9375 1495.0156,144.9375 Q1495.3906,144.9375 1495.625,145.1953 Q1495.8594,145.4531 1495.8594,146.0625 L1495.8594,147.5156 Q1495.8594,148.125 1495.625,148.3906 Q1495.3906,148.6563 1495.0156,148.6563 Q1494.6719,148.6563 1494.4688,148.4531 Q1494.2656,148.2656 1494.1563,147.75 Q1494.1094,147.3906 1493.9219,147.2031 Q1493.5938,146.8281 1492.9844,146.6094 Q1492.375,146.3906 1491.75,146.3906 Q1490.9844,146.3906 1490.3516,146.7188 Q1489.7188,147.0469 1489.2266,147.7969 Q1488.7344,148.5469 1488.7344,149.5781 L1488.7344,150.6719 Q1488.7344,151.9063 1489.625,152.7266 Q1490.5156,153.5469 1492.1094,153.5469 Q1493.0469,153.5469 1493.7031,153.2969 Q1494.0938,153.1406 1494.5156,152.7031 Q1494.7813,152.4375 1494.9297,152.3594 Q1495.0781,152.2813 1495.2813,152.2813 Q1495.6094,152.2813 1495.8672,152.5391 Q1496.125,152.7969 1496.125,153.1406 Q1496.125,153.4844 1495.7813,153.8906 Q1495.2813,154.4688 1494.4844,154.7969 Q1493.4063,155.25 1492.1094,155.25 Q1490.5938,155.25 1489.3906,154.625 Q1488.4063,154.125 1487.7188,153.0547 Q1487.0313,151.9844 1487.0313,150.7031 L1487.0313,149.5469 Q1487.0313,148.2188 1487.6484,147.0703 Q1488.2656,145.9219 1489.3594,145.3047 Q1490.4531,144.6875 1491.6875,144.6875 Q1492.4219,144.6875 1493.0703,144.8516 Q1493.7188,145.0156 1494.2656,145.375 Z "/><text fill="#000000" font-family="sans-serif" font-size="12" lengthAdjust="spacingAndGlyphs" textLength="81" x="1505.5" y="154.4102">SaveController</text><line style="stroke: #A80036; stroke-width: 1.5;" x1="1477.5" x2="1588.5" y1="165.5" y2="165.5"/><line style="stroke: #A80036; stroke-width: 1.5;" x1="1477.5" x2="1588.5" y1="173.5" y2="173.5"/><!--class mastermind.controllers.StartController--><rect fill="#FEFECE" filter="url(#fb1yclto7kc2a)" height="48" id="mastermind.controllers.StartController" style="stroke: #A80036; stroke-width: 1.5;" width="111" x="1063.5" y="133.5"/><ellipse cx="1078.5" cy="149.5" fill="#ADD1B2" rx="11" ry="11" style="stroke: #A80036; stroke-width: 1.0;"/><path d="M1081.2656,145.375 Q1081.4219,145.1563 1081.6094,145.0469 Q1081.7969,144.9375 1082.0156,144.9375 Q1082.3906,144.9375 1082.625,145.1953 Q1082.8594,145.4531 1082.8594,146.0625 L1082.8594,147.5156 Q1082.8594,148.125 1082.625,148.3906 Q1082.3906,148.6563 1082.0156,148.6563 Q1081.6719,148.6563 1081.4688,148.4531 Q1081.2656,148.2656 1081.1563,147.75 Q1081.1094,147.3906 1080.9219,147.2031 Q1080.5938,146.8281 1079.9844,146.6094 Q1079.375,146.3906 1078.75,146.3906 Q1077.9844,146.3906 1077.3516,146.7188 Q1076.7188,147.0469 1076.2266,147.7969 Q1075.7344,148.5469 1075.7344,149.5781 L1075.7344,150.6719 Q1075.7344,151.9063 1076.625,152.7266 Q1077.5156,153.5469 1079.1094,153.5469 Q1080.0469,153.5469 1080.7031,153.2969 Q1081.0938,153.1406 1081.5156,152.7031 Q1081.7813,152.4375 1081.9297,152.3594 Q1082.0781,152.2813 1082.2813,152.2813 Q1082.6094,152.2813 1082.8672,152.5391 Q1083.125,152.7969 1083.125,153.1406 Q1083.125,153.4844 1082.7813,153.8906 Q1082.2813,154.4688 1081.4844,154.7969 Q1080.4063,155.25 1079.1094,155.25 Q1077.5938,155.25 1076.3906,154.625 Q1075.4063,154.125 1074.7188,153.0547 Q1074.0313,151.9844 1074.0313,150.7031 L1074.0313,149.5469 Q1074.0313,148.2188 1074.6484,147.0703 Q1075.2656,145.9219 1076.3594,145.3047 Q1077.4531,144.6875 1078.6875,144.6875 Q1079.4219,144.6875 1080.0703,144.8516 Q1080.7188,145.0156 1081.2656,145.375 Z "/><text fill="#000000" font-family="sans-serif" font-size="12" lengthAdjust="spacingAndGlyphs" textLength="79" x="1092.5" y="154.4102">StartController</text><line style="stroke: #A80036; stroke-width: 1.5;" x1="1064.5" x2="1173.5" y1="165.5" y2="165.5"/><line style="stroke: #A80036; stroke-width: 1.5;" x1="1064.5" x2="1173.5" y1="173.5" y2="173.5"/><!--class mastermind.models.Session--><rect fill="#FEFECE" filter="url(#fb1yclto7kc2a)" height="48" id="mastermind.models.Session" style="stroke: #A80036; stroke-width: 1.5;" width="78" x="484" y="608"/><ellipse cx="499" cy="624" fill="#ADD1B2" rx="11" ry="11" style="stroke: #A80036; stroke-width: 1.0;"/><path d="M501.7656,619.875 Q501.9219,619.6563 502.1094,619.5469 Q502.2969,619.4375 502.5156,619.4375 Q502.8906,619.4375 503.125,619.6953 Q503.3594,619.9531 503.3594,620.5625 L503.3594,622.0156 Q503.3594,622.625 503.125,622.8906 Q502.8906,623.1563 502.5156,623.1563 Q502.1719,623.1563 501.9688,622.9531 Q501.7656,622.7656 501.6563,622.25 Q501.6094,621.8906 501.4219,621.7031 Q501.0938,621.3281 500.4844,621.1094 Q499.875,620.8906 499.25,620.8906 Q498.4844,620.8906 497.8516,621.2188 Q497.2188,621.5469 496.7266,622.2969 Q496.2344,623.0469 496.2344,624.0781 L496.2344,625.1719 Q496.2344,626.4063 497.125,627.2266 Q498.0156,628.0469 499.6094,628.0469 Q500.5469,628.0469 501.2031,627.7969 Q501.5938,627.6406 502.0156,627.2031 Q502.2813,626.9375 502.4297,626.8594 Q502.5781,626.7813 502.7813,626.7813 Q503.1094,626.7813 503.3672,627.0391 Q503.625,627.2969 503.625,627.6406 Q503.625,627.9844 503.2813,628.3906 Q502.7813,628.9688 501.9844,629.2969 Q500.9063,629.75 499.6094,629.75 Q498.0938,629.75 496.8906,629.125 Q495.9063,628.625 495.2188,627.5547 Q494.5313,626.4844 494.5313,625.2031 L494.5313,624.0469 Q494.5313,622.7188 495.1484,621.5703 Q495.7656,620.4219 496.8594,619.8047 Q497.9531,619.1875 499.1875,619.1875 Q499.9219,619.1875 500.5703,619.3516 Q501.2188,619.5156 501.7656,619.875 Z "/><text fill="#000000" font-family="sans-serif" font-size="12" lengthAdjust="spacingAndGlyphs" textLength="46" x="513" y="628.9102">Session</text><line style="stroke: #A80036; stroke-width: 1.5;" x1="485" x2="561" y1="640" y2="640"/><line style="stroke: #A80036; stroke-width: 1.5;" x1="485" x2="561" y1="648" y2="648"/><!--link mastermind.controllers.Logic to mastermind.controllers.implementation.LogicImplementation--><path d="M1401.58,113.525 C1393.03,82.478 1376.32,43.276 1344.5,25 C1290.54,-5.99 1125.96,15.304 1064.5,25 C973.714,39.322 875.634,70.469 798.228,98.967 " fill="none" id="mastermind.controllers.Logic-mastermind.controllers.implementation.LogicImplementation" style="stroke: #A80036; stroke-width: 1.0;"/><polygon fill="none" points="1408.48,112.283,1406.28,133.359,1394.86,115.513,1408.48,112.283" style="stroke: #A80036; stroke-width: 1.0;"/><!--link mastermind.controllers.implementation.LogicImplementation to mastermind.controllers.implementation.SaveControllerImplementation--><path d="M655,229.455 C655,259.432 655,294.436 655,325.123 " fill="none" id="mastermind.controllers.implementation.LogicImplementation-mastermind.controllers.implementation.SaveControllerImplementation" style="stroke: #A80036; stroke-width: 1.0;"/><polygon fill="#A80036" points="655,338.433,659,329.433,655,333.433,651,329.433,655,338.433" style="stroke: #A80036; stroke-width: 1.0;"/><line style="stroke: #A80036; stroke-width: 1.0;" x1="655" x2="655" y1="333.433" y2="325.433"/><polygon fill="#A80036" points="655,216.133,651,222.133,655,228.133,659,222.133,655,216.133" style="stroke: #A80036; stroke-width: 1.0;"/><!--link mastermind.controllers.implementation.LogicImplementation to mastermind.controllers.implementation.StartControllerImplementation--><path d="M472.333,193.488 C404.622,211.561 329.234,238.038 267,276 C249.423,286.722 232.612,300.544 217.373,315.106 " fill="none" id="mastermind.controllers.implementation.LogicImplementation-mastermind.controllers.implementation.StartControllerImplementation" style="stroke: #A80036; stroke-width: 1.0;"/><polygon fill="#A80036" points="208.095,324.248,217.3132,320.7804,211.6565,320.7387,211.6983,315.082,208.095,324.248" style="stroke: #A80036; stroke-width: 1.0;"/><line style="stroke: #A80036; stroke-width: 1.0;" x1="211.6565" x2="217.3555" y1="320.7387" y2="315.124"/><polygon fill="#A80036" points="485.324,190.098,478.5084,187.7426,473.7128,193.128,480.5284,195.4834,485.324,190.098" style="stroke: #A80036; stroke-width: 1.0;"/><!--link mastermind.controllers.implementation.LogicImplementation to mastermind.controllers.implementation.ResumeControllerImplementation--><path d="M583.533,225.322 C565.978,241.834 547.268,259.515 530,276 C502.187,302.551 471.297,332.476 446.501,356.607 " fill="none" id="mastermind.controllers.implementation.LogicImplementation-mastermind.controllers.implementation.ResumeControllerImplementation" style="stroke: #A80036; stroke-width: 1.0;"/><polygon fill="#A80036" points="436.97,365.889,446.2083,362.4752,440.5519,362.4005,440.6267,356.7441,436.97,365.889" style="stroke: #A80036; stroke-width: 1.0;"/><line style="stroke: #A80036; stroke-width: 1.0;" x1="440.5519" x2="446.2835" y1="362.4005" y2="356.8185"/><polygon fill="#A80036" points="593.15,216.284,586.0385,217.4783,584.4057,224.5021,591.5172,223.3078,593.15,216.284" style="stroke: #A80036; stroke-width: 1.0;"/><!--link mastermind.controllers.implementation.LogicImplementation to mastermind.controllers.implementation.PlayControllerImplementation--><path d="M726.495,225.253 C743.819,241.701 762.188,259.37 779,276 C782.001,278.968 785.034,281.984 788.087,285.033 " fill="none" id="mastermind.controllers.implementation.LogicImplementation-mastermind.controllers.implementation.PlayControllerImplementation" style="stroke: #A80036; stroke-width: 1.0;"/><polygon fill="#A80036" points="797.296,294.269,793.774,285.0714,793.7657,290.7283,788.1088,290.7199,797.296,294.269" style="stroke: #A80036; stroke-width: 1.0;"/><line style="stroke: #A80036; stroke-width: 1.0;" x1="793.7657" x2="788.117" y1="290.7283" y2="285.0635"/><polygon fill="#A80036" points="716.994,216.255,718.5994,223.2851,725.7063,224.5071,724.1008,217.4769,716.994,216.255" style="stroke: #A80036; stroke-width: 1.0;"/><!--link mastermind.controllers.PlayController to mastermind.controllers.implementation.PlayControllerImplementation--><path d="M1943.61,194.807 C1933.34,202.87 1921.79,210.611 1910,216 C1602.22,356.656 1195.62,391.531 1006.75,400.166 " fill="none" id="mastermind.controllers.PlayController-mastermind.controllers.implementation.PlayControllerImplementation" style="stroke: #A80036; stroke-width: 1.0;"/><polygon fill="none" points="1939.24,189.329,1959.02,181.731,1948.3,200.006,1939.24,189.329" style="stroke: #A80036; stroke-width: 1.0;"/><!--link mastermind.controllers.implementation.PlayControllerImplementation to mastermind.controllers.RedoController--><path d="M1019.56,393.693 C1189.65,376.678 1511.11,331.027 1759,216 C1773.27,209.377 1787.38,199.646 1799.44,190.065 " fill="none" id="mastermind.controllers.implementation.PlayControllerImplementation-mastermind.controllers.RedoController" style="stroke: #A80036; stroke-width: 1.0;"/><polygon fill="#A80036" points="1809.46,181.767,1799.9759,184.4224,1805.6077,184.9544,1805.0757,190.5862,1809.46,181.767" style="stroke: #A80036; stroke-width: 1.0;"/><line style="stroke: #A80036; stroke-width: 1.0;" x1="1805.6077" x2="1799.45" y1="184.9544" y2="190.057"/><polygon fill="#A80036" points="1006.58,394.966,1012.9387,398.367,1018.5238,393.8055,1012.165,390.4045,1006.58,394.966" style="stroke: #A80036; stroke-width: 1.0;"/><!--link mastermind.controllers.implementation.PlayControllerImplementation to mastermind.controllers.UndoController--><path d="M1019.7,386.131 C1163.79,362.307 1412.59,310.75 1607,216 C1621.15,209.104 1635.28,199.393 1647.45,189.911 " fill="none" id="mastermind.controllers.implementation.PlayControllerImplementation-mastermind.controllers.UndoController" style="stroke: #A80036; stroke-width: 1.0;"/><polygon fill="#A80036" points="1657.59,181.714,1648.076,184.2605,1653.7014,184.857,1653.1048,190.4823,1657.59,181.714" style="stroke: #A80036; stroke-width: 1.0;"/><line style="stroke: #A80036; stroke-width: 1.0;" x1="1653.7014" x2="1647.48" y1="184.857" y2="189.8865"/><polygon fill="#A80036" points="1006.52,388.282,1013.0841,391.2674,1018.3645,386.3565,1011.8004,383.3711,1006.52,388.282" style="stroke: #A80036; stroke-width: 1.0;"/><!--link mastermind.controllers.implementation.PlayControllerImplementation to mastermind.controllers.ProposalController--><path d="M1020.02,403.141 C1252.62,399.746 1783.29,373.665 2194,216 C2210.67,209.6 2227.36,199.499 2241.55,189.536 " fill="none" id="mastermind.controllers.implementation.PlayControllerImplementation-mastermind.controllers.ProposalController" style="stroke: #A80036; stroke-width: 1.0;"/><polygon fill="#A80036" points="2252.34,181.649,2242.7136,183.7305,2248.3033,184.5995,2247.4343,190.1892,2252.34,181.649" style="stroke: #A80036; stroke-width: 1.0;"/><line style="stroke: #A80036; stroke-width: 1.0;" x1="2248.3033" x2="2241.845" y1="184.5995" y2="189.3215"/><polygon fill="#A80036" points="1006.82,403.314,1012.8722,407.2345,1018.819,403.1558,1012.7667,399.2352,1006.82,403.314" style="stroke: #A80036; stroke-width: 1.0;"/><!--link mastermind.controllers.implementation.PlayControllerImplementation to mastermind.controllers.ExitController--><path d="M1019.95,391.723 C1275.1,366.066 1870.12,299.064 2054,216 C2067.83,209.754 2081.17,200.05 2092.44,190.382 " fill="none" id="mastermind.controllers.implementation.PlayControllerImplementation-mastermind.controllers.ExitController" style="stroke: #A80036; stroke-width: 1.0;"/><polygon fill="#A80036" points="2102.15,181.613,2092.7898,184.6769,2098.4394,184.9643,2098.1519,190.6139,2102.15,181.613" style="stroke: #A80036; stroke-width: 1.0;"/><line style="stroke: #A80036; stroke-width: 1.0;" x1="2098.4394" x2="2092.5" y1="184.9643" y2="190.324"/><polygon fill="#A80036" points="1006.96,393.024,1013.3262,396.4109,1018.9011,391.837,1012.5349,388.4501,1006.96,393.024" style="stroke: #A80036; stroke-width: 1.0;"/><!--link mastermind.controllers.implementation.PlayControllerImplementation to mastermind.models.Session--><path d="M808.848,532.257 C799.401,541.006 789.422,549.08 779,556 C713.029,599.8006 620.982,618.5493 567.12,626.1712 " fill="none" id="mastermind.controllers.implementation.PlayControllerImplementation-mastermind.models.Session" style="stroke: #A80036; stroke-width: 1.0; stroke-dasharray: 7.0,7.0;"/><polygon fill="#A80036" points="562.029,626.8746,571.4917,629.6053,566.982,626.1903,570.3969,621.6805,562.029,626.8746" style="stroke: #A80036; stroke-width: 1.0;"/><!--link mastermind.controllers.ResumeController to mastermind.controllers.implementation.ResumeControllerImplementation--><path d="M1234.31,193.484 C1221.43,202.293 1206.77,210.733 1192,216 C913.738,315.238 798.517,152.807 530,276 C486.814,295.813 449.261,336.01 425.567,365.901 " fill="none" id="mastermind.controllers.ResumeController-mastermind.controllers.implementation.ResumeControllerImplementation" style="stroke: #A80036; stroke-width: 1.0;"/><polygon fill="none" points="1230.35,187.705,1250.61,181.505,1238.64,198.988,1230.35,187.705" style="stroke: #A80036; stroke-width: 1.0;"/><!--link mastermind.controllers.SaveController to mastermind.controllers.implementation.SaveControllerImplementation--><path d="M1494.9,194.722 C1484.06,203.094 1471.72,211.003 1459,216 C1177.03,326.782 1054,146.759 780,276 C750.061,290.122 723.312,314.625 702.316,338.365 " fill="none" id="mastermind.controllers.SaveController-mastermind.controllers.implementation.SaveControllerImplementation" style="stroke: #A80036; stroke-width: 1.0;"/><polygon fill="none" points="1490.73,189.078,1510.54,181.539,1499.76,199.782,1490.73,189.078" style="stroke: #A80036; stroke-width: 1.0;"/><!--link mastermind.controllers.StartController to mastermind.controllers.implementation.StartControllerImplementation--><path d="M1071.75,192.659 C1056.84,201.795 1039.84,210.617 1023,216 C701.951,318.638 571.91,132.343 267,276 C243.121,287.251 221.404,305.275 203.092,324.252 " fill="none" id="mastermind.controllers.StartController-mastermind.controllers.implementation.StartControllerImplementation" style="stroke: #A80036; stroke-width: 1.0;"/><polygon fill="none" points="1068.19,186.628,1088.76,181.571,1075.83,198.356,1068.19,186.628" style="stroke: #A80036; stroke-width: 1.0;"/><!--link mastermind.controllers.implementation.StartControllerImplementation to mastermind.models.Session--><path d="M193.679,483.652 C213.652,509.894 238.691,537.204 267,556 C332.971,599.8006 425.018,618.5493 478.88,626.1712 " fill="none" id="mastermind.controllers.implementation.StartControllerImplementation-mastermind.models.Session" style="stroke: #A80036; stroke-width: 1.0; stroke-dasharray: 7.0,7.0;"/><polygon fill="#A80036" points="483.971,626.8746,475.6031,621.6805,479.018,626.1903,474.5083,629.6053,483.971,626.8746" style="stroke: #A80036; stroke-width: 1.0;"/><!--
@startuml

class  mastermind.controllers.implementation.LogicImplementation{
# startControllerImplementation: StartControllerImplementation
# playControllerImplementation: PlayControllerImplementation
# saveControllerImplementation: SaveControllerImplementation
# resumeControllerImplementation: ResumeControllerImplementation
+ LogicImplementation()
}
mastermind.controllers.Logic <|-down- mastermind.controllers.implementation.LogicImplementation
mastermind.controllers.implementation.LogicImplementation *-down-> mastermind.controllers.implementation.SaveControllerImplementation
mastermind.controllers.implementation.LogicImplementation *-down-> mastermind.controllers.implementation.StartControllerImplementation
mastermind.controllers.implementation.LogicImplementation *-down-> mastermind.controllers.implementation.ResumeControllerImplementation
mastermind.controllers.implementation.LogicImplementation *-down-> mastermind.controllers.implementation.PlayControllerImplementation

class  mastermind.controllers.implementation.PlayControllerImplementation{
- proposalController: ProposalController
- undoController: UndoController
- redoController: RedoController
- exitController: ExitController
~ PlayControllerImplementation(Session)
+ next(): void
+ proposeCombination(int[]): int
+ redo(): void
+ getAllCodes(): int[][][]
+ undoable(): boolean
+ isWinner(): boolean
+ redoable(): boolean
+ isLooser(): boolean
+ getTurn(): int
+ undo(): void
}
mastermind.controllers.PlayController <|-down- mastermind.controllers.implementation.PlayControllerImplementation
mastermind.controllers.implementation.PlayControllerImplementation *-down-> mastermind.controllers.RedoController
mastermind.controllers.implementation.PlayControllerImplementation *-down-> mastermind.controllers.UndoController
mastermind.controllers.implementation.PlayControllerImplementation *-down-> mastermind.controllers.ProposalController
mastermind.controllers.implementation.PlayControllerImplementation *-down-> mastermind.controllers.ExitController
mastermind.controllers.implementation.PlayControllerImplementation ..> mastermind.models.Session

class  mastermind.controllers.implementation.ResumeControllerImplementation{
~ ResumeControllerImplementation(Session)
+ resume(boolean): void
}
mastermind.controllers.ResumeController <|-down- mastermind.controllers.implementation.ResumeControllerImplementation

class  mastermind.controllers.implementation.SaveControllerImplementation{
~ SaveControllerImplementation(Session)
+ next(): void
+ save(): void
+ save(String): void
+ exists(String): boolean
+ hasName(): boolean
}
mastermind.controllers.SaveController <|-down- mastermind.controllers.implementation.SaveControllerImplementation

class  mastermind.controllers.implementation.StartControllerImplementation{
~ StartControllerImplementation(Session)
+ start(String): void
+ start(): void
+ getGamesNames(): String[]
+ getAllCodes(): int[][][]
+ isWinner(): boolean
+ isLooser(): boolean
+ getTurn(): int
}
mastermind.controllers.StartController <|-down- mastermind.controllers.implementation.StartControllerImplementation
mastermind.controllers.implementation.StartControllerImplementation ..> mastermind.models.Session

@enduml

PlantUML version 1.2019.05(Sat Apr 20 18:45:36 CEST 2019)
(GPL source distribution)
Java Runtime: OpenJDK Runtime Environment
JVM: OpenJDK 64-Bit Server VM
Java Version: 1.8.0_222-b10
Operating System: Windows 10
OS Version: 10.0
Default Encoding: windows-1252
Language: es
Country: ES
--></g></svg>