<?xml version="1.0" encoding="UTF-8" standalone="no"?><svg xmlns="http://www.w3.org/2000/svg" xmlns:xlink="http://www.w3.org/1999/xlink" contentScriptType="application/ecmascript" contentStyleType="text/css" height="684px" preserveAspectRatio="none" style="width:1365px;height:684px;" version="1.1" viewBox="0 0 1365 684" width="1365px" zoomAndPan="magnify"><defs><filter height="300%" id="f1b6qk25hfly3o" width="300%" x="-1" y="-1"><feGaussianBlur result="blurOut" stdDeviation="2.0"/><feColorMatrix in="blurOut" result="blurOut2" type="matrix" values="0 0 0 0 0 0 0 0 0 0 0 0 0 0 0 0 0 0 .4 0"/><feOffset dx="4.0" dy="4.0" in="blurOut2" result="blurOut3"/><feBlend in="SourceGraphic" in2="blurOut3" mode="normal"/></filter></defs><g><!--cluster mastermind.controllers--><polygon fill="#FFFFFF" filter="url(#f1b6qk25hfly3o)" points="156,24,325,24,332,47.6094,1080,47.6094,1080,548,156,548,156,24" style="stroke: #000000; stroke-width: 1.5;"/><line style="stroke: #000000; stroke-width: 1.5;" x1="156" x2="332" y1="47.6094" y2="47.6094"/><text fill="#000000" font-family="sans-serif" font-size="14" font-weight="bold" lengthAdjust="spacingAndGlyphs" textLength="163" x="160" y="40.5332">mastermind.controllers</text><!--cluster mastermind.models--><polygon fill="#FFFFFF" filter="url(#f1b6qk25hfly3o)" points="948,572,1091,572,1098,595.6094,1251,595.6094,1251,672,948,672,948,572" style="stroke: #000000; stroke-width: 1.5;"/><line style="stroke: #000000; stroke-width: 1.5;" x1="948" x2="1098" y1="595.6094" y2="595.6094"/><text fill="#000000" font-family="sans-serif" font-size="14" font-weight="bold" lengthAdjust="spacingAndGlyphs" textLength="137" x="952" y="588.5332">mastermind.models</text><!--cluster mastermind.views--><polygon fill="#FFFFFF" filter="url(#f1b6qk25hfly3o)" points="22,572,155,572,162,595.6094,851,595.6094,851,672,22,672,22,572" style="stroke: #000000; stroke-width: 1.5;"/><line style="stroke: #000000; stroke-width: 1.5;" x1="22" x2="162" y1="595.6094" y2="595.6094"/><text fill="#000000" font-family="sans-serif" font-size="14" font-weight="bold" lengthAdjust="spacingAndGlyphs" textLength="127" x="26" y="588.5332">mastermind.views</text><!--cluster santaTecla.utils--><polygon fill="#FFFFFF" filter="url(#f1b6qk25hfly3o)" points="1104,434,1219,434,1226,457.6094,1325,457.6094,1325,534,1104,534,1104,434" style="stroke: #000000; stroke-width: 1.5;"/><line style="stroke: #000000; stroke-width: 1.5;" x1="1104" x2="1226" y1="457.6094" y2="457.6094"/><text fill="#000000" font-family="sans-serif" font-size="14" font-weight="bold" lengthAdjust="spacingAndGlyphs" textLength="109" x="1108" y="450.5332">santaTecla.utils</text><!--class mastermind.controllers.Controller--><rect fill="#FEFECE" filter="url(#f1b6qk25hfly3o)" height="89.5078" id="mastermind.controllers.Controller" style="stroke: #A80036; stroke-width: 1.5;" width="160" x="761" y="60"/><ellipse cx="809.75" cy="76" fill="#A9DCDF" rx="11" ry="11" style="stroke: #A80036; stroke-width: 1.0;"/><path d="M811.9375,77.7656 L807.7969,77.7656 L807.375,78.7969 L807.7969,78.7969 Q808.4063,78.7969 808.6719,79.0313 Q808.9375,79.2656 808.9375,79.6563 Q808.9375,80.0313 808.6719,80.2656 Q808.4063,80.5 807.7969,80.5 L805.5,80.5 Q804.8906,80.5 804.6328,80.2656 Q804.375,80.0313 804.375,79.6406 Q804.375,79.2656 804.6484,79.0234 Q804.9219,78.7813 805.5469,78.7969 L808.2188,72.1406 L807.1094,72.1406 Q806.5,72.1406 806.2344,71.9063 Q805.9688,71.6719 805.9688,71.2813 Q805.9688,70.9063 806.2344,70.6719 Q806.5,70.4375 807.1094,70.4375 L810.7813,70.4375 L814.1719,78.7969 Q814.7656,78.7969 814.9531,78.9375 Q815.3438,79.2031 815.3438,79.6563 Q815.3438,80.0313 815.0859,80.2656 Q814.8281,80.5 814.2188,80.5 L811.9219,80.5 Q811.3125,80.5 811.0469,80.2656 Q810.7813,80.0313 810.7813,79.6406 Q810.7813,79.2656 811.0469,79.0313 Q811.3125,78.7969 811.9219,78.7969 L812.3438,78.7969 L811.9375,77.7656 Z M811.2188,76.0625 L809.8594,72.6875 L808.4844,76.0625 L811.2188,76.0625 Z "/><text fill="#000000" font-family="sans-serif" font-size="12" font-style="italic" lengthAdjust="spacingAndGlyphs" textLength="54" x="830.25" y="80.9102">Controller</text><line style="stroke: #A80036; stroke-width: 1.5;" x1="762" x2="920" y1="92" y2="92"/><polygon fill="none" points="772,99.418,776,103.418,772,107.418,768,103.418" style="stroke: #B38D22; stroke-width: 1.0;"/><text fill="#000000" font-family="sans-serif" font-size="11" lengthAdjust="spacingAndGlyphs" textLength="80" x="781" y="107.4189">Session session</text><line style="stroke: #A80036; stroke-width: 1.5;" x1="762" x2="920" y1="113.8359" y2="113.8359"/><polygon fill="#4177AF" points="772,122.2539,768,128.2539,776,128.2539" style="stroke: #1963A0; stroke-width: 1.0;"/><text fill="#000000" font-family="sans-serif" font-size="11" lengthAdjust="spacingAndGlyphs" textLength="134" x="781" y="129.2549">Controller(Session session)</text><ellipse cx="772" cy="140.0898" fill="#84BE84" rx="3" ry="3" style="stroke: #038048; stroke-width: 1.0;"/><text fill="#000000" font-family="sans-serif" font-size="11" font-style="italic" lengthAdjust="spacingAndGlyphs" textLength="65" x="781" y="143.0908">void control()</text><!--class mastermind.controllers.InGameController--><rect fill="#FEFECE" filter="url(#f1b6qk25hfly3o)" height="103.3438" id="mastermind.controllers.InGameController" style="stroke: #A80036; stroke-width: 1.5;" width="196" x="625" y="251.5"/><ellipse cx="669.25" cy="267.5" fill="#A9DCDF" rx="11" ry="11" style="stroke: #A80036; stroke-width: 1.0;"/><path d="M671.4375,269.2656 L667.2969,269.2656 L666.875,270.2969 L667.2969,270.2969 Q667.9063,270.2969 668.1719,270.5313 Q668.4375,270.7656 668.4375,271.1563 Q668.4375,271.5313 668.1719,271.7656 Q667.9063,272 667.2969,272 L665,272 Q664.3906,272 664.1328,271.7656 Q663.875,271.5313 663.875,271.1406 Q663.875,270.7656 664.1484,270.5234 Q664.4219,270.2813 665.0469,270.2969 L667.7188,263.6406 L666.6094,263.6406 Q666,263.6406 665.7344,263.4063 Q665.4688,263.1719 665.4688,262.7813 Q665.4688,262.4063 665.7344,262.1719 Q666,261.9375 666.6094,261.9375 L670.2813,261.9375 L673.6719,270.2969 Q674.2656,270.2969 674.4531,270.4375 Q674.8438,270.7031 674.8438,271.1563 Q674.8438,271.5313 674.5859,271.7656 Q674.3281,272 673.7188,272 L671.4219,272 Q670.8125,272 670.5469,271.7656 Q670.2813,271.5313 670.2813,271.1406 Q670.2813,270.7656 670.5469,270.5313 Q670.8125,270.2969 671.4219,270.2969 L671.8438,270.2969 L671.4375,269.2656 Z M670.7188,267.5625 L669.3594,264.1875 L667.9844,267.5625 L670.7188,267.5625 Z "/><text fill="#000000" font-family="sans-serif" font-size="12" font-style="italic" lengthAdjust="spacingAndGlyphs" textLength="99" x="689.75" y="272.4102">InGameController</text><line style="stroke: #A80036; stroke-width: 1.5;" x1="626" x2="820" y1="283.5" y2="283.5"/><rect fill="none" height="6" style="stroke: #C82930; stroke-width: 1.0;" width="6" x="633" y="292.918"/><text fill="#000000" font-family="sans-serif" font-size="11" lengthAdjust="spacingAndGlyphs" textLength="109" x="645" y="298.9189">GameView gameView</text><line style="stroke: #A80036; stroke-width: 1.5;" x1="626" x2="820" y1="305.3359" y2="305.3359"/><polygon fill="#4177AF" points="636,313.7539,632,319.7539,640,319.7539" style="stroke: #1963A0; stroke-width: 1.0;"/><text fill="#000000" font-family="sans-serif" font-size="11" lengthAdjust="spacingAndGlyphs" textLength="170" x="645" y="320.7549">InGameController(Session session)</text><ellipse cx="636" cy="331.5898" fill="#84BE84" rx="3" ry="3" style="stroke: #038048; stroke-width: 1.0;"/><text fill="#000000" font-family="sans-serif" font-size="11" lengthAdjust="spacingAndGlyphs" textLength="64" x="645" y="334.5908">void control()</text><polygon fill="#FFFF44" points="636,340.4258,640,344.4258,636,348.4258,632,344.4258" style="stroke: #B38D22; stroke-width: 1.0;"/><text fill="#000000" font-family="sans-serif" font-size="11" font-style="italic" lengthAdjust="spacingAndGlyphs" textLength="106" x="645" y="348.4268">void inGameControl()</text><!--class mastermind.controllers.PlayController--><rect fill="#FEFECE" filter="url(#f1b6qk25hfly3o)" height="186.3594" id="mastermind.controllers.PlayController" style="stroke: #A80036; stroke-width: 1.5;" width="208" x="856" y="210"/><ellipse cx="917.25" cy="226" fill="#ADD1B2" rx="11" ry="11" style="stroke: #A80036; stroke-width: 1.0;"/><path d="M920.0156,221.875 Q920.1719,221.6563 920.3594,221.5469 Q920.5469,221.4375 920.7656,221.4375 Q921.1406,221.4375 921.375,221.6953 Q921.6094,221.9531 921.6094,222.5625 L921.6094,224.0156 Q921.6094,224.625 921.375,224.8906 Q921.1406,225.1563 920.7656,225.1563 Q920.4219,225.1563 920.2188,224.9531 Q920.0156,224.7656 919.9063,224.25 Q919.8594,223.8906 919.6719,223.7031 Q919.3438,223.3281 918.7344,223.1094 Q918.125,222.8906 917.5,222.8906 Q916.7344,222.8906 916.1016,223.2188 Q915.4688,223.5469 914.9766,224.2969 Q914.4844,225.0469 914.4844,226.0781 L914.4844,227.1719 Q914.4844,228.4063 915.375,229.2266 Q916.2656,230.0469 917.8594,230.0469 Q918.7969,230.0469 919.4531,229.7969 Q919.8438,229.6406 920.2656,229.2031 Q920.5313,228.9375 920.6797,228.8594 Q920.8281,228.7813 921.0313,228.7813 Q921.3594,228.7813 921.6172,229.0391 Q921.875,229.2969 921.875,229.6406 Q921.875,229.9844 921.5313,230.3906 Q921.0313,230.9688 920.2344,231.2969 Q919.1563,231.75 917.8594,231.75 Q916.3438,231.75 915.1406,231.125 Q914.1563,230.625 913.4688,229.5547 Q912.7813,228.4844 912.7813,227.2031 L912.7813,226.0469 Q912.7813,224.7188 913.3984,223.5703 Q914.0156,222.4219 915.1094,221.8047 Q916.2031,221.1875 917.4375,221.1875 Q918.1719,221.1875 918.8203,221.3516 Q919.4688,221.5156 920.0156,221.875 Z "/><text fill="#000000" font-family="sans-serif" font-size="12" lengthAdjust="spacingAndGlyphs" textLength="77" x="937.75" y="230.9102">PlayController</text><line style="stroke: #A80036; stroke-width: 1.5;" x1="857" x2="1063" y1="242" y2="242"/><rect fill="none" height="6" style="stroke: #C82930; stroke-width: 1.0;" width="6" x="864" y="251.418"/><text fill="#000000" font-family="sans-serif" font-size="11" lengthAdjust="spacingAndGlyphs" textLength="182" x="876" y="257.4189">Map&lt;Command,Controller&gt; controllers</text><rect fill="none" height="6" style="stroke: #C82930; stroke-width: 1.0;" width="6" x="864" y="265.2539"/><text fill="#000000" font-family="sans-serif" font-size="11" lengthAdjust="spacingAndGlyphs" textLength="177" x="876" y="271.2549">ProposeCommand proposeCommand</text><rect fill="none" height="6" style="stroke: #C82930; stroke-width: 1.0;" width="6" x="864" y="279.0898"/><text fill="#000000" font-family="sans-serif" font-size="11" lengthAdjust="spacingAndGlyphs" textLength="179" x="876" y="285.0908">ProposalController proposalController</text><rect fill="none" height="6" style="stroke: #C82930; stroke-width: 1.0;" width="6" x="864" y="292.9258"/><text fill="#000000" font-family="sans-serif" font-size="11" lengthAdjust="spacingAndGlyphs" textLength="146" x="876" y="298.9268">UndoCommand undoCommand</text><rect fill="none" height="6" style="stroke: #C82930; stroke-width: 1.0;" width="6" x="864" y="306.7617"/><text fill="#000000" font-family="sans-serif" font-size="11" lengthAdjust="spacingAndGlyphs" textLength="144" x="876" y="312.7627">UndoController undoController</text><rect fill="none" height="6" style="stroke: #C82930; stroke-width: 1.0;" width="6" x="864" y="320.5977"/><text fill="#000000" font-family="sans-serif" font-size="11" lengthAdjust="spacingAndGlyphs" textLength="144" x="876" y="326.5986">RedoCommand redoCommand</text><rect fill="none" height="6" style="stroke: #C82930; stroke-width: 1.0;" width="6" x="864" y="334.4336"/><text fill="#000000" font-family="sans-serif" font-size="11" lengthAdjust="spacingAndGlyphs" textLength="142" x="876" y="340.4346">RedoController redoController</text><rect fill="none" height="6" style="stroke: #C82930; stroke-width: 1.0;" width="6" x="864" y="348.2695"/><text fill="#000000" font-family="sans-serif" font-size="11" lengthAdjust="spacingAndGlyphs" textLength="55" x="876" y="354.2705">Menu menu</text><line style="stroke: #A80036; stroke-width: 1.5;" x1="857" x2="1063" y1="360.6875" y2="360.6875"/><ellipse cx="867" cy="373.1055" fill="#84BE84" rx="3" ry="3" style="stroke: #038048; stroke-width: 1.0;"/><text fill="#000000" font-family="sans-serif" font-size="11" lengthAdjust="spacingAndGlyphs" textLength="154" x="876" y="376.1064">PlayController(Session session)</text><ellipse cx="867" cy="386.9414" fill="#84BE84" rx="3" ry="3" style="stroke: #038048; stroke-width: 1.0;"/><text fill="#000000" font-family="sans-serif" font-size="11" lengthAdjust="spacingAndGlyphs" textLength="64" x="876" y="389.9424">void control()</text><!--class mastermind.controllers.ProposalController--><rect fill="#FEFECE" filter="url(#f1b6qk25hfly3o)" height="75.6719" id="mastermind.controllers.ProposalController" style="stroke: #A80036; stroke-width: 1.5;" width="202" x="862" y="456"/><ellipse cx="906.75" cy="472" fill="#ADD1B2" rx="11" ry="11" style="stroke: #A80036; stroke-width: 1.0;"/><path d="M909.5156,467.875 Q909.6719,467.6563 909.8594,467.5469 Q910.0469,467.4375 910.2656,467.4375 Q910.6406,467.4375 910.875,467.6953 Q911.1094,467.9531 911.1094,468.5625 L911.1094,470.0156 Q911.1094,470.625 910.875,470.8906 Q910.6406,471.1563 910.2656,471.1563 Q909.9219,471.1563 909.7188,470.9531 Q909.5156,470.7656 909.4063,470.25 Q909.3594,469.8906 909.1719,469.7031 Q908.8438,469.3281 908.2344,469.1094 Q907.625,468.8906 907,468.8906 Q906.2344,468.8906 905.6016,469.2188 Q904.9688,469.5469 904.4766,470.2969 Q903.9844,471.0469 903.9844,472.0781 L903.9844,473.1719 Q903.9844,474.4063 904.875,475.2266 Q905.7656,476.0469 907.3594,476.0469 Q908.2969,476.0469 908.9531,475.7969 Q909.3438,475.6406 909.7656,475.2031 Q910.0313,474.9375 910.1797,474.8594 Q910.3281,474.7813 910.5313,474.7813 Q910.8594,474.7813 911.1172,475.0391 Q911.375,475.2969 911.375,475.6406 Q911.375,475.9844 911.0313,476.3906 Q910.5313,476.9688 909.7344,477.2969 Q908.6563,477.75 907.3594,477.75 Q905.8438,477.75 904.6406,477.125 Q903.6563,476.625 902.9688,475.5547 Q902.2813,474.4844 902.2813,473.2031 L902.2813,472.0469 Q902.2813,470.7188 902.8984,469.5703 Q903.5156,468.4219 904.6094,467.8047 Q905.7031,467.1875 906.9375,467.1875 Q907.6719,467.1875 908.3203,467.3516 Q908.9688,467.5156 909.5156,467.875 Z "/><text fill="#000000" font-family="sans-serif" font-size="12" lengthAdjust="spacingAndGlyphs" textLength="104" x="927.25" y="476.9102">ProposalController</text><line style="stroke: #A80036; stroke-width: 1.5;" x1="863" x2="1063" y1="488" y2="488"/><line style="stroke: #A80036; stroke-width: 1.5;" x1="863" x2="1063" y1="496" y2="496"/><polygon fill="#4177AF" points="873,504.418,869,510.418,877,510.418" style="stroke: #1963A0; stroke-width: 1.0;"/><text fill="#000000" font-family="sans-serif" font-size="11" lengthAdjust="spacingAndGlyphs" textLength="176" x="882" y="511.4189">ProposalController(Session session)</text><ellipse cx="873" cy="522.2539" fill="#84BE84" rx="3" ry="3" style="stroke: #038048; stroke-width: 1.0;"/><text fill="#000000" font-family="sans-serif" font-size="11" lengthAdjust="spacingAndGlyphs" textLength="101" x="882" y="525.2549">void inGameControl()</text><!--class mastermind.controllers.UndoController--><rect fill="#FEFECE" filter="url(#f1b6qk25hfly3o)" height="75.6719" id="mastermind.controllers.UndoController" style="stroke: #A80036; stroke-width: 1.5;" width="185" x="421.5" y="456"/><ellipse cx="467.75" cy="472" fill="#ADD1B2" rx="11" ry="11" style="stroke: #A80036; stroke-width: 1.0;"/><path d="M470.5156,467.875 Q470.6719,467.6563 470.8594,467.5469 Q471.0469,467.4375 471.2656,467.4375 Q471.6406,467.4375 471.875,467.6953 Q472.1094,467.9531 472.1094,468.5625 L472.1094,470.0156 Q472.1094,470.625 471.875,470.8906 Q471.6406,471.1563 471.2656,471.1563 Q470.9219,471.1563 470.7188,470.9531 Q470.5156,470.7656 470.4063,470.25 Q470.3594,469.8906 470.1719,469.7031 Q469.8438,469.3281 469.2344,469.1094 Q468.625,468.8906 468,468.8906 Q467.2344,468.8906 466.6016,469.2188 Q465.9688,469.5469 465.4766,470.2969 Q464.9844,471.0469 464.9844,472.0781 L464.9844,473.1719 Q464.9844,474.4063 465.875,475.2266 Q466.7656,476.0469 468.3594,476.0469 Q469.2969,476.0469 469.9531,475.7969 Q470.3438,475.6406 470.7656,475.2031 Q471.0313,474.9375 471.1797,474.8594 Q471.3281,474.7813 471.5313,474.7813 Q471.8594,474.7813 472.1172,475.0391 Q472.375,475.2969 472.375,475.6406 Q472.375,475.9844 472.0313,476.3906 Q471.5313,476.9688 470.7344,477.2969 Q469.6563,477.75 468.3594,477.75 Q466.8438,477.75 465.6406,477.125 Q464.6563,476.625 463.9688,475.5547 Q463.2813,474.4844 463.2813,473.2031 L463.2813,472.0469 Q463.2813,470.7188 463.8984,469.5703 Q464.5156,468.4219 465.6094,467.8047 Q466.7031,467.1875 467.9375,467.1875 Q468.6719,467.1875 469.3203,467.3516 Q469.9688,467.5156 470.5156,467.875 Z "/><text fill="#000000" font-family="sans-serif" font-size="12" lengthAdjust="spacingAndGlyphs" textLength="84" x="488.25" y="476.9102">UndoController</text><line style="stroke: #A80036; stroke-width: 1.5;" x1="422.5" x2="605.5" y1="488" y2="488"/><line style="stroke: #A80036; stroke-width: 1.5;" x1="422.5" x2="605.5" y1="496" y2="496"/><polygon fill="#4177AF" points="432.5,504.418,428.5,510.418,436.5,510.418" style="stroke: #1963A0; stroke-width: 1.0;"/><text fill="#000000" font-family="sans-serif" font-size="11" lengthAdjust="spacingAndGlyphs" textLength="159" x="441.5" y="511.4189">UndoController(Session session)</text><ellipse cx="432.5" cy="522.2539" fill="#84BE84" rx="3" ry="3" style="stroke: #038048; stroke-width: 1.0;"/><text fill="#000000" font-family="sans-serif" font-size="11" lengthAdjust="spacingAndGlyphs" textLength="101" x="441.5" y="525.2549">void inGameControl()</text><!--class mastermind.controllers.RedoController--><rect fill="#FEFECE" filter="url(#f1b6qk25hfly3o)" height="75.6719" id="mastermind.controllers.RedoController" style="stroke: #A80036; stroke-width: 1.5;" width="185" x="641.5" y="456"/><ellipse cx="687.75" cy="472" fill="#ADD1B2" rx="11" ry="11" style="stroke: #A80036; stroke-width: 1.0;"/><path d="M690.5156,467.875 Q690.6719,467.6563 690.8594,467.5469 Q691.0469,467.4375 691.2656,467.4375 Q691.6406,467.4375 691.875,467.6953 Q692.1094,467.9531 692.1094,468.5625 L692.1094,470.0156 Q692.1094,470.625 691.875,470.8906 Q691.6406,471.1563 691.2656,471.1563 Q690.9219,471.1563 690.7188,470.9531 Q690.5156,470.7656 690.4063,470.25 Q690.3594,469.8906 690.1719,469.7031 Q689.8438,469.3281 689.2344,469.1094 Q688.625,468.8906 688,468.8906 Q687.2344,468.8906 686.6016,469.2188 Q685.9688,469.5469 685.4766,470.2969 Q684.9844,471.0469 684.9844,472.0781 L684.9844,473.1719 Q684.9844,474.4063 685.875,475.2266 Q686.7656,476.0469 688.3594,476.0469 Q689.2969,476.0469 689.9531,475.7969 Q690.3438,475.6406 690.7656,475.2031 Q691.0313,474.9375 691.1797,474.8594 Q691.3281,474.7813 691.5313,474.7813 Q691.8594,474.7813 692.1172,475.0391 Q692.375,475.2969 692.375,475.6406 Q692.375,475.9844 692.0313,476.3906 Q691.5313,476.9688 690.7344,477.2969 Q689.6563,477.75 688.3594,477.75 Q686.8438,477.75 685.6406,477.125 Q684.6563,476.625 683.9688,475.5547 Q683.2813,474.4844 683.2813,473.2031 L683.2813,472.0469 Q683.2813,470.7188 683.8984,469.5703 Q684.5156,468.4219 685.6094,467.8047 Q686.7031,467.1875 687.9375,467.1875 Q688.6719,467.1875 689.3203,467.3516 Q689.9688,467.5156 690.5156,467.875 Z "/><text fill="#000000" font-family="sans-serif" font-size="12" lengthAdjust="spacingAndGlyphs" textLength="84" x="708.25" y="476.9102">RedoController</text><line style="stroke: #A80036; stroke-width: 1.5;" x1="642.5" x2="825.5" y1="488" y2="488"/><line style="stroke: #A80036; stroke-width: 1.5;" x1="642.5" x2="825.5" y1="496" y2="496"/><polygon fill="#4177AF" points="652.5,504.418,648.5,510.418,656.5,510.418" style="stroke: #1963A0; stroke-width: 1.0;"/><text fill="#000000" font-family="sans-serif" font-size="11" lengthAdjust="spacingAndGlyphs" textLength="159" x="661.5" y="511.4189">RedoController(Session session)</text><ellipse cx="652.5" cy="522.2539" fill="#84BE84" rx="3" ry="3" style="stroke: #038048; stroke-width: 1.0;"/><text fill="#000000" font-family="sans-serif" font-size="11" lengthAdjust="spacingAndGlyphs" textLength="101" x="661.5" y="525.2549">void inGameControl()</text><!--class mastermind.controllers.ResumeController--><rect fill="#FEFECE" filter="url(#f1b6qk25hfly3o)" height="75.6719" id="mastermind.controllers.ResumeController" style="stroke: #A80036; stroke-width: 1.5;" width="199" x="172.5" y="265"/><ellipse cx="216.75" cy="281" fill="#ADD1B2" rx="11" ry="11" style="stroke: #A80036; stroke-width: 1.0;"/><path d="M219.5156,276.875 Q219.6719,276.6563 219.8594,276.5469 Q220.0469,276.4375 220.2656,276.4375 Q220.6406,276.4375 220.875,276.6953 Q221.1094,276.9531 221.1094,277.5625 L221.1094,279.0156 Q221.1094,279.625 220.875,279.8906 Q220.6406,280.1563 220.2656,280.1563 Q219.9219,280.1563 219.7188,279.9531 Q219.5156,279.7656 219.4063,279.25 Q219.3594,278.8906 219.1719,278.7031 Q218.8438,278.3281 218.2344,278.1094 Q217.625,277.8906 217,277.8906 Q216.2344,277.8906 215.6016,278.2188 Q214.9688,278.5469 214.4766,279.2969 Q213.9844,280.0469 213.9844,281.0781 L213.9844,282.1719 Q213.9844,283.4063 214.875,284.2266 Q215.7656,285.0469 217.3594,285.0469 Q218.2969,285.0469 218.9531,284.7969 Q219.3438,284.6406 219.7656,284.2031 Q220.0313,283.9375 220.1797,283.8594 Q220.3281,283.7813 220.5313,283.7813 Q220.8594,283.7813 221.1172,284.0391 Q221.375,284.2969 221.375,284.6406 Q221.375,284.9844 221.0313,285.3906 Q220.5313,285.9688 219.7344,286.2969 Q218.6563,286.75 217.3594,286.75 Q215.8438,286.75 214.6406,286.125 Q213.6563,285.625 212.9688,284.5547 Q212.2813,283.4844 212.2813,282.2031 L212.2813,281.0469 Q212.2813,279.7188 212.8984,278.5703 Q213.5156,277.4219 214.6094,276.8047 Q215.7031,276.1875 216.9375,276.1875 Q217.6719,276.1875 218.3203,276.3516 Q218.9688,276.5156 219.5156,276.875 Z "/><text fill="#000000" font-family="sans-serif" font-size="12" lengthAdjust="spacingAndGlyphs" textLength="102" x="237.25" y="285.9102">ResumeController</text><line style="stroke: #A80036; stroke-width: 1.5;" x1="173.5" x2="370.5" y1="297" y2="297"/><line style="stroke: #A80036; stroke-width: 1.5;" x1="173.5" x2="370.5" y1="305" y2="305"/><ellipse cx="183.5" cy="317.418" fill="#84BE84" rx="3" ry="3" style="stroke: #038048; stroke-width: 1.0;"/><text fill="#000000" font-family="sans-serif" font-size="11" lengthAdjust="spacingAndGlyphs" textLength="173" x="192.5" y="320.4189">ResumeController(Session session)</text><ellipse cx="183.5" cy="331.2539" fill="#84BE84" rx="3" ry="3" style="stroke: #038048; stroke-width: 1.0;"/><text fill="#000000" font-family="sans-serif" font-size="11" lengthAdjust="spacingAndGlyphs" textLength="64" x="192.5" y="334.2549">void control()</text><!--class mastermind.controllers.StartController--><rect fill="#FEFECE" filter="url(#f1b6qk25hfly3o)" height="75.6719" id="mastermind.controllers.StartController" style="stroke: #A80036; stroke-width: 1.5;" width="183" x="406.5" y="265"/><ellipse cx="454.25" cy="281" fill="#ADD1B2" rx="11" ry="11" style="stroke: #A80036; stroke-width: 1.0;"/><path d="M457.0156,276.875 Q457.1719,276.6563 457.3594,276.5469 Q457.5469,276.4375 457.7656,276.4375 Q458.1406,276.4375 458.375,276.6953 Q458.6094,276.9531 458.6094,277.5625 L458.6094,279.0156 Q458.6094,279.625 458.375,279.8906 Q458.1406,280.1563 457.7656,280.1563 Q457.4219,280.1563 457.2188,279.9531 Q457.0156,279.7656 456.9063,279.25 Q456.8594,278.8906 456.6719,278.7031 Q456.3438,278.3281 455.7344,278.1094 Q455.125,277.8906 454.5,277.8906 Q453.7344,277.8906 453.1016,278.2188 Q452.4688,278.5469 451.9766,279.2969 Q451.4844,280.0469 451.4844,281.0781 L451.4844,282.1719 Q451.4844,283.4063 452.375,284.2266 Q453.2656,285.0469 454.8594,285.0469 Q455.7969,285.0469 456.4531,284.7969 Q456.8438,284.6406 457.2656,284.2031 Q457.5313,283.9375 457.6797,283.8594 Q457.8281,283.7813 458.0313,283.7813 Q458.3594,283.7813 458.6172,284.0391 Q458.875,284.2969 458.875,284.6406 Q458.875,284.9844 458.5313,285.3906 Q458.0313,285.9688 457.2344,286.2969 Q456.1563,286.75 454.8594,286.75 Q453.3438,286.75 452.1406,286.125 Q451.1563,285.625 450.4688,284.5547 Q449.7813,283.4844 449.7813,282.2031 L449.7813,281.0469 Q449.7813,279.7188 450.3984,278.5703 Q451.0156,277.4219 452.1094,276.8047 Q453.2031,276.1875 454.4375,276.1875 Q455.1719,276.1875 455.8203,276.3516 Q456.4688,276.5156 457.0156,276.875 Z "/><text fill="#000000" font-family="sans-serif" font-size="12" lengthAdjust="spacingAndGlyphs" textLength="79" x="474.75" y="285.9102">StartController</text><line style="stroke: #A80036; stroke-width: 1.5;" x1="407.5" x2="588.5" y1="297" y2="297"/><line style="stroke: #A80036; stroke-width: 1.5;" x1="407.5" x2="588.5" y1="305" y2="305"/><ellipse cx="417.5" cy="317.418" fill="#84BE84" rx="3" ry="3" style="stroke: #038048; stroke-width: 1.0;"/><text fill="#000000" font-family="sans-serif" font-size="11" lengthAdjust="spacingAndGlyphs" textLength="157" x="426.5" y="320.4189">StartController(Session session)</text><ellipse cx="417.5" cy="331.2539" fill="#84BE84" rx="3" ry="3" style="stroke: #038048; stroke-width: 1.0;"/><text fill="#000000" font-family="sans-serif" font-size="11" lengthAdjust="spacingAndGlyphs" textLength="64" x="426.5" y="334.2549">void control()</text><!--class mastermind.models.Session--><rect fill="#FEFECE" filter="url(#f1b6qk25hfly3o)" height="48" id="mastermind.models.Session" style="stroke: #A80036; stroke-width: 1.5;" width="78" x="1157" y="608"/><ellipse cx="1172" cy="624" fill="#ADD1B2" rx="11" ry="11" style="stroke: #A80036; stroke-width: 1.0;"/><path d="M1174.7656,619.875 Q1174.9219,619.6563 1175.1094,619.5469 Q1175.2969,619.4375 1175.5156,619.4375 Q1175.8906,619.4375 1176.125,619.6953 Q1176.3594,619.9531 1176.3594,620.5625 L1176.3594,622.0156 Q1176.3594,622.625 1176.125,622.8906 Q1175.8906,623.1563 1175.5156,623.1563 Q1175.1719,623.1563 1174.9688,622.9531 Q1174.7656,622.7656 1174.6563,622.25 Q1174.6094,621.8906 1174.4219,621.7031 Q1174.0938,621.3281 1173.4844,621.1094 Q1172.875,620.8906 1172.25,620.8906 Q1171.4844,620.8906 1170.8516,621.2188 Q1170.2188,621.5469 1169.7266,622.2969 Q1169.2344,623.0469 1169.2344,624.0781 L1169.2344,625.1719 Q1169.2344,626.4063 1170.125,627.2266 Q1171.0156,628.0469 1172.6094,628.0469 Q1173.5469,628.0469 1174.2031,627.7969 Q1174.5938,627.6406 1175.0156,627.2031 Q1175.2813,626.9375 1175.4297,626.8594 Q1175.5781,626.7813 1175.7813,626.7813 Q1176.1094,626.7813 1176.3672,627.0391 Q1176.625,627.2969 1176.625,627.6406 Q1176.625,627.9844 1176.2813,628.3906 Q1175.7813,628.9688 1174.9844,629.2969 Q1173.9063,629.75 1172.6094,629.75 Q1171.0938,629.75 1169.8906,629.125 Q1168.9063,628.625 1168.2188,627.5547 Q1167.5313,626.4844 1167.5313,625.2031 L1167.5313,624.0469 Q1167.5313,622.7188 1168.1484,621.5703 Q1168.7656,620.4219 1169.8594,619.8047 Q1170.9531,619.1875 1172.1875,619.1875 Q1172.9219,619.1875 1173.5703,619.3516 Q1174.2188,619.5156 1174.7656,619.875 Z "/><text fill="#000000" font-family="sans-serif" font-size="12" lengthAdjust="spacingAndGlyphs" textLength="46" x="1186" y="628.9102">Session</text><line style="stroke: #A80036; stroke-width: 1.5;" x1="1158" x2="1234" y1="640" y2="640"/><line style="stroke: #A80036; stroke-width: 1.5;" x1="1158" x2="1234" y1="648" y2="648"/><!--class mastermind.models.ProposedCombination--><rect fill="#FEFECE" filter="url(#f1b6qk25hfly3o)" height="48" id="mastermind.models.ProposedCombination" style="stroke: #A80036; stroke-width: 1.5;" width="157" x="964.5" y="608"/><ellipse cx="979.5" cy="624" fill="#ADD1B2" rx="11" ry="11" style="stroke: #A80036; stroke-width: 1.0;"/><path d="M982.2656,619.875 Q982.4219,619.6563 982.6094,619.5469 Q982.7969,619.4375 983.0156,619.4375 Q983.3906,619.4375 983.625,619.6953 Q983.8594,619.9531 983.8594,620.5625 L983.8594,622.0156 Q983.8594,622.625 983.625,622.8906 Q983.3906,623.1563 983.0156,623.1563 Q982.6719,623.1563 982.4688,622.9531 Q982.2656,622.7656 982.1563,622.25 Q982.1094,621.8906 981.9219,621.7031 Q981.5938,621.3281 980.9844,621.1094 Q980.375,620.8906 979.75,620.8906 Q978.9844,620.8906 978.3516,621.2188 Q977.7188,621.5469 977.2266,622.2969 Q976.7344,623.0469 976.7344,624.0781 L976.7344,625.1719 Q976.7344,626.4063 977.625,627.2266 Q978.5156,628.0469 980.1094,628.0469 Q981.0469,628.0469 981.7031,627.7969 Q982.0938,627.6406 982.5156,627.2031 Q982.7813,626.9375 982.9297,626.8594 Q983.0781,626.7813 983.2813,626.7813 Q983.6094,626.7813 983.8672,627.0391 Q984.125,627.2969 984.125,627.6406 Q984.125,627.9844 983.7813,628.3906 Q983.2813,628.9688 982.4844,629.2969 Q981.4063,629.75 980.1094,629.75 Q978.5938,629.75 977.3906,629.125 Q976.4063,628.625 975.7188,627.5547 Q975.0313,626.4844 975.0313,625.2031 L975.0313,624.0469 Q975.0313,622.7188 975.6484,621.5703 Q976.2656,620.4219 977.3594,619.8047 Q978.4531,619.1875 979.6875,619.1875 Q980.4219,619.1875 981.0703,619.3516 Q981.7188,619.5156 982.2656,619.875 Z "/><text fill="#000000" font-family="sans-serif" font-size="12" lengthAdjust="spacingAndGlyphs" textLength="125" x="993.5" y="628.9102">ProposedCombination</text><line style="stroke: #A80036; stroke-width: 1.5;" x1="965.5" x2="1120.5" y1="640" y2="640"/><line style="stroke: #A80036; stroke-width: 1.5;" x1="965.5" x2="1120.5" y1="648" y2="648"/><!--class mastermind.views.GameView--><rect fill="#FEFECE" filter="url(#f1b6qk25hfly3o)" height="48" id="mastermind.views.GameView" style="stroke: #A80036; stroke-width: 1.5;" width="92" x="38" y="608"/><ellipse cx="53" cy="624" fill="#ADD1B2" rx="11" ry="11" style="stroke: #A80036; stroke-width: 1.0;"/><path d="M55.7656,619.875 Q55.9219,619.6563 56.1094,619.5469 Q56.2969,619.4375 56.5156,619.4375 Q56.8906,619.4375 57.125,619.6953 Q57.3594,619.9531 57.3594,620.5625 L57.3594,622.0156 Q57.3594,622.625 57.125,622.8906 Q56.8906,623.1563 56.5156,623.1563 Q56.1719,623.1563 55.9688,622.9531 Q55.7656,622.7656 55.6563,622.25 Q55.6094,621.8906 55.4219,621.7031 Q55.0938,621.3281 54.4844,621.1094 Q53.875,620.8906 53.25,620.8906 Q52.4844,620.8906 51.8516,621.2188 Q51.2188,621.5469 50.7266,622.2969 Q50.2344,623.0469 50.2344,624.0781 L50.2344,625.1719 Q50.2344,626.4063 51.125,627.2266 Q52.0156,628.0469 53.6094,628.0469 Q54.5469,628.0469 55.2031,627.7969 Q55.5938,627.6406 56.0156,627.2031 Q56.2813,626.9375 56.4297,626.8594 Q56.5781,626.7813 56.7813,626.7813 Q57.1094,626.7813 57.3672,627.0391 Q57.625,627.2969 57.625,627.6406 Q57.625,627.9844 57.2813,628.3906 Q56.7813,628.9688 55.9844,629.2969 Q54.9063,629.75 53.6094,629.75 Q52.0938,629.75 50.8906,629.125 Q49.9063,628.625 49.2188,627.5547 Q48.5313,626.4844 48.5313,625.2031 L48.5313,624.0469 Q48.5313,622.7188 49.1484,621.5703 Q49.7656,620.4219 50.8594,619.8047 Q51.9531,619.1875 53.1875,619.1875 Q53.9219,619.1875 54.5703,619.3516 Q55.2188,619.5156 55.7656,619.875 Z "/><text fill="#000000" font-family="sans-serif" font-size="12" lengthAdjust="spacingAndGlyphs" textLength="60" x="67" y="628.9102">GameView</text><line style="stroke: #A80036; stroke-width: 1.5;" x1="39" x2="129" y1="640" y2="640"/><line style="stroke: #A80036; stroke-width: 1.5;" x1="39" x2="129" y1="648" y2="648"/><!--class mastermind.views.ProposeCommand--><rect fill="#FEFECE" filter="url(#f1b6qk25hfly3o)" height="48" id="mastermind.views.ProposeCommand" style="stroke: #A80036; stroke-width: 1.5;" width="138" x="478" y="608"/><ellipse cx="493" cy="624" fill="#ADD1B2" rx="11" ry="11" style="stroke: #A80036; stroke-width: 1.0;"/><path d="M495.7656,619.875 Q495.9219,619.6563 496.1094,619.5469 Q496.2969,619.4375 496.5156,619.4375 Q496.8906,619.4375 497.125,619.6953 Q497.3594,619.9531 497.3594,620.5625 L497.3594,622.0156 Q497.3594,622.625 497.125,622.8906 Q496.8906,623.1563 496.5156,623.1563 Q496.1719,623.1563 495.9688,622.9531 Q495.7656,622.7656 495.6563,622.25 Q495.6094,621.8906 495.4219,621.7031 Q495.0938,621.3281 494.4844,621.1094 Q493.875,620.8906 493.25,620.8906 Q492.4844,620.8906 491.8516,621.2188 Q491.2188,621.5469 490.7266,622.2969 Q490.2344,623.0469 490.2344,624.0781 L490.2344,625.1719 Q490.2344,626.4063 491.125,627.2266 Q492.0156,628.0469 493.6094,628.0469 Q494.5469,628.0469 495.2031,627.7969 Q495.5938,627.6406 496.0156,627.2031 Q496.2813,626.9375 496.4297,626.8594 Q496.5781,626.7813 496.7813,626.7813 Q497.1094,626.7813 497.3672,627.0391 Q497.625,627.2969 497.625,627.6406 Q497.625,627.9844 497.2813,628.3906 Q496.7813,628.9688 495.9844,629.2969 Q494.9063,629.75 493.6094,629.75 Q492.0938,629.75 490.8906,629.125 Q489.9063,628.625 489.2188,627.5547 Q488.5313,626.4844 488.5313,625.2031 L488.5313,624.0469 Q488.5313,622.7188 489.1484,621.5703 Q489.7656,620.4219 490.8594,619.8047 Q491.9531,619.1875 493.1875,619.1875 Q493.9219,619.1875 494.5703,619.3516 Q495.2188,619.5156 495.7656,619.875 Z "/><text fill="#000000" font-family="sans-serif" font-size="12" lengthAdjust="spacingAndGlyphs" textLength="106" x="507" y="628.9102">ProposeCommand</text><line style="stroke: #A80036; stroke-width: 1.5;" x1="479" x2="615" y1="640" y2="640"/><line style="stroke: #A80036; stroke-width: 1.5;" x1="479" x2="615" y1="648" y2="648"/><!--class mastermind.views.UndoCommand--><rect fill="#FEFECE" filter="url(#f1b6qk25hfly3o)" height="48" id="mastermind.views.UndoCommand" style="stroke: #A80036; stroke-width: 1.5;" width="121" x="165.5" y="608"/><ellipse cx="180.5" cy="624" fill="#ADD1B2" rx="11" ry="11" style="stroke: #A80036; stroke-width: 1.0;"/><path d="M183.2656,619.875 Q183.4219,619.6563 183.6094,619.5469 Q183.7969,619.4375 184.0156,619.4375 Q184.3906,619.4375 184.625,619.6953 Q184.8594,619.9531 184.8594,620.5625 L184.8594,622.0156 Q184.8594,622.625 184.625,622.8906 Q184.3906,623.1563 184.0156,623.1563 Q183.6719,623.1563 183.4688,622.9531 Q183.2656,622.7656 183.1563,622.25 Q183.1094,621.8906 182.9219,621.7031 Q182.5938,621.3281 181.9844,621.1094 Q181.375,620.8906 180.75,620.8906 Q179.9844,620.8906 179.3516,621.2188 Q178.7188,621.5469 178.2266,622.2969 Q177.7344,623.0469 177.7344,624.0781 L177.7344,625.1719 Q177.7344,626.4063 178.625,627.2266 Q179.5156,628.0469 181.1094,628.0469 Q182.0469,628.0469 182.7031,627.7969 Q183.0938,627.6406 183.5156,627.2031 Q183.7813,626.9375 183.9297,626.8594 Q184.0781,626.7813 184.2813,626.7813 Q184.6094,626.7813 184.8672,627.0391 Q185.125,627.2969 185.125,627.6406 Q185.125,627.9844 184.7813,628.3906 Q184.2813,628.9688 183.4844,629.2969 Q182.4063,629.75 181.1094,629.75 Q179.5938,629.75 178.3906,629.125 Q177.4063,628.625 176.7188,627.5547 Q176.0313,626.4844 176.0313,625.2031 L176.0313,624.0469 Q176.0313,622.7188 176.6484,621.5703 Q177.2656,620.4219 178.3594,619.8047 Q179.4531,619.1875 180.6875,619.1875 Q181.4219,619.1875 182.0703,619.3516 Q182.7188,619.5156 183.2656,619.875 Z "/><text fill="#000000" font-family="sans-serif" font-size="12" lengthAdjust="spacingAndGlyphs" textLength="89" x="194.5" y="628.9102">UndoCommand</text><line style="stroke: #A80036; stroke-width: 1.5;" x1="166.5" x2="285.5" y1="640" y2="640"/><line style="stroke: #A80036; stroke-width: 1.5;" x1="166.5" x2="285.5" y1="648" y2="648"/><!--class mastermind.views.RedoCommand--><rect fill="#FEFECE" filter="url(#f1b6qk25hfly3o)" height="48" id="mastermind.views.RedoCommand" style="stroke: #A80036; stroke-width: 1.5;" width="121" x="321.5" y="608"/><ellipse cx="336.5" cy="624" fill="#ADD1B2" rx="11" ry="11" style="stroke: #A80036; stroke-width: 1.0;"/><path d="M339.2656,619.875 Q339.4219,619.6563 339.6094,619.5469 Q339.7969,619.4375 340.0156,619.4375 Q340.3906,619.4375 340.625,619.6953 Q340.8594,619.9531 340.8594,620.5625 L340.8594,622.0156 Q340.8594,622.625 340.625,622.8906 Q340.3906,623.1563 340.0156,623.1563 Q339.6719,623.1563 339.4688,622.9531 Q339.2656,622.7656 339.1563,622.25 Q339.1094,621.8906 338.9219,621.7031 Q338.5938,621.3281 337.9844,621.1094 Q337.375,620.8906 336.75,620.8906 Q335.9844,620.8906 335.3516,621.2188 Q334.7188,621.5469 334.2266,622.2969 Q333.7344,623.0469 333.7344,624.0781 L333.7344,625.1719 Q333.7344,626.4063 334.625,627.2266 Q335.5156,628.0469 337.1094,628.0469 Q338.0469,628.0469 338.7031,627.7969 Q339.0938,627.6406 339.5156,627.2031 Q339.7813,626.9375 339.9297,626.8594 Q340.0781,626.7813 340.2813,626.7813 Q340.6094,626.7813 340.8672,627.0391 Q341.125,627.2969 341.125,627.6406 Q341.125,627.9844 340.7813,628.3906 Q340.2813,628.9688 339.4844,629.2969 Q338.4063,629.75 337.1094,629.75 Q335.5938,629.75 334.3906,629.125 Q333.4063,628.625 332.7188,627.5547 Q332.0313,626.4844 332.0313,625.2031 L332.0313,624.0469 Q332.0313,622.7188 332.6484,621.5703 Q333.2656,620.4219 334.3594,619.8047 Q335.4531,619.1875 336.6875,619.1875 Q337.4219,619.1875 338.0703,619.3516 Q338.7188,619.5156 339.2656,619.875 Z "/><text fill="#000000" font-family="sans-serif" font-size="12" lengthAdjust="spacingAndGlyphs" textLength="89" x="350.5" y="628.9102">RedoCommand</text><line style="stroke: #A80036; stroke-width: 1.5;" x1="322.5" x2="441.5" y1="640" y2="640"/><line style="stroke: #A80036; stroke-width: 1.5;" x1="322.5" x2="441.5" y1="648" y2="648"/><!--class mastermind.views.ProposedCombinationView--><rect fill="#FEFECE" filter="url(#f1b6qk25hfly3o)" height="48" id="mastermind.views.ProposedCombinationView" style="stroke: #A80036; stroke-width: 1.5;" width="183" x="651.5" y="608"/><ellipse cx="666.5" cy="624" fill="#ADD1B2" rx="11" ry="11" style="stroke: #A80036; stroke-width: 1.0;"/><path d="M669.2656,619.875 Q669.4219,619.6563 669.6094,619.5469 Q669.7969,619.4375 670.0156,619.4375 Q670.3906,619.4375 670.625,619.6953 Q670.8594,619.9531 670.8594,620.5625 L670.8594,622.0156 Q670.8594,622.625 670.625,622.8906 Q670.3906,623.1563 670.0156,623.1563 Q669.6719,623.1563 669.4688,622.9531 Q669.2656,622.7656 669.1563,622.25 Q669.1094,621.8906 668.9219,621.7031 Q668.5938,621.3281 667.9844,621.1094 Q667.375,620.8906 666.75,620.8906 Q665.9844,620.8906 665.3516,621.2188 Q664.7188,621.5469 664.2266,622.2969 Q663.7344,623.0469 663.7344,624.0781 L663.7344,625.1719 Q663.7344,626.4063 664.625,627.2266 Q665.5156,628.0469 667.1094,628.0469 Q668.0469,628.0469 668.7031,627.7969 Q669.0938,627.6406 669.5156,627.2031 Q669.7813,626.9375 669.9297,626.8594 Q670.0781,626.7813 670.2813,626.7813 Q670.6094,626.7813 670.8672,627.0391 Q671.125,627.2969 671.125,627.6406 Q671.125,627.9844 670.7813,628.3906 Q670.2813,628.9688 669.4844,629.2969 Q668.4063,629.75 667.1094,629.75 Q665.5938,629.75 664.3906,629.125 Q663.4063,628.625 662.7188,627.5547 Q662.0313,626.4844 662.0313,625.2031 L662.0313,624.0469 Q662.0313,622.7188 662.6484,621.5703 Q663.2656,620.4219 664.3594,619.8047 Q665.4531,619.1875 666.6875,619.1875 Q667.4219,619.1875 668.0703,619.3516 Q668.7188,619.5156 669.2656,619.875 Z "/><text fill="#000000" font-family="sans-serif" font-size="12" lengthAdjust="spacingAndGlyphs" textLength="151" x="680.5" y="628.9102">ProposedCombinationView</text><line style="stroke: #A80036; stroke-width: 1.5;" x1="652.5" x2="833.5" y1="640" y2="640"/><line style="stroke: #A80036; stroke-width: 1.5;" x1="652.5" x2="833.5" y1="648" y2="648"/><!--class santaTecla.utils.Command--><rect fill="#FEFECE" filter="url(#f1b6qk25hfly3o)" height="48" id="santaTecla.utils.Command" style="stroke: #A80036; stroke-width: 1.5;" width="91" x="1217.5" y="470"/><ellipse cx="1232.5" cy="486" fill="#ADD1B2" rx="11" ry="11" style="stroke: #A80036; stroke-width: 1.0;"/><path d="M1235.2656,481.875 Q1235.4219,481.6563 1235.6094,481.5469 Q1235.7969,481.4375 1236.0156,481.4375 Q1236.3906,481.4375 1236.625,481.6953 Q1236.8594,481.9531 1236.8594,482.5625 L1236.8594,484.0156 Q1236.8594,484.625 1236.625,484.8906 Q1236.3906,485.1563 1236.0156,485.1563 Q1235.6719,485.1563 1235.4688,484.9531 Q1235.2656,484.7656 1235.1563,484.25 Q1235.1094,483.8906 1234.9219,483.7031 Q1234.5938,483.3281 1233.9844,483.1094 Q1233.375,482.8906 1232.75,482.8906 Q1231.9844,482.8906 1231.3516,483.2188 Q1230.7188,483.5469 1230.2266,484.2969 Q1229.7344,485.0469 1229.7344,486.0781 L1229.7344,487.1719 Q1229.7344,488.4063 1230.625,489.2266 Q1231.5156,490.0469 1233.1094,490.0469 Q1234.0469,490.0469 1234.7031,489.7969 Q1235.0938,489.6406 1235.5156,489.2031 Q1235.7813,488.9375 1235.9297,488.8594 Q1236.0781,488.7813 1236.2813,488.7813 Q1236.6094,488.7813 1236.8672,489.0391 Q1237.125,489.2969 1237.125,489.6406 Q1237.125,489.9844 1236.7813,490.3906 Q1236.2813,490.9688 1235.4844,491.2969 Q1234.4063,491.75 1233.1094,491.75 Q1231.5938,491.75 1230.3906,491.125 Q1229.4063,490.625 1228.7188,489.5547 Q1228.0313,488.4844 1228.0313,487.2031 L1228.0313,486.0469 Q1228.0313,484.7188 1228.6484,483.5703 Q1229.2656,482.4219 1230.3594,481.8047 Q1231.4531,481.1875 1232.6875,481.1875 Q1233.4219,481.1875 1234.0703,481.3516 Q1234.7188,481.5156 1235.2656,481.875 Z "/><text fill="#000000" font-family="sans-serif" font-size="12" lengthAdjust="spacingAndGlyphs" textLength="59" x="1246.5" y="490.9102">Command</text><line style="stroke: #A80036; stroke-width: 1.5;" x1="1218.5" x2="1307.5" y1="502" y2="502"/><line style="stroke: #A80036; stroke-width: 1.5;" x1="1218.5" x2="1307.5" y1="510" y2="510"/><!--class santaTecla.utils.Menu--><rect fill="#FEFECE" filter="url(#f1b6qk25hfly3o)" height="48" id="santaTecla.utils.Menu" style="stroke: #A80036; stroke-width: 1.5;" width="62" x="1120" y="470"/><ellipse cx="1135" cy="486" fill="#ADD1B2" rx="11" ry="11" style="stroke: #A80036; stroke-width: 1.0;"/><path d="M1137.7656,481.875 Q1137.9219,481.6563 1138.1094,481.5469 Q1138.2969,481.4375 1138.5156,481.4375 Q1138.8906,481.4375 1139.125,481.6953 Q1139.3594,481.9531 1139.3594,482.5625 L1139.3594,484.0156 Q1139.3594,484.625 1139.125,484.8906 Q1138.8906,485.1563 1138.5156,485.1563 Q1138.1719,485.1563 1137.9688,484.9531 Q1137.7656,484.7656 1137.6563,484.25 Q1137.6094,483.8906 1137.4219,483.7031 Q1137.0938,483.3281 1136.4844,483.1094 Q1135.875,482.8906 1135.25,482.8906 Q1134.4844,482.8906 1133.8516,483.2188 Q1133.2188,483.5469 1132.7266,484.2969 Q1132.2344,485.0469 1132.2344,486.0781 L1132.2344,487.1719 Q1132.2344,488.4063 1133.125,489.2266 Q1134.0156,490.0469 1135.6094,490.0469 Q1136.5469,490.0469 1137.2031,489.7969 Q1137.5938,489.6406 1138.0156,489.2031 Q1138.2813,488.9375 1138.4297,488.8594 Q1138.5781,488.7813 1138.7813,488.7813 Q1139.1094,488.7813 1139.3672,489.0391 Q1139.625,489.2969 1139.625,489.6406 Q1139.625,489.9844 1139.2813,490.3906 Q1138.7813,490.9688 1137.9844,491.2969 Q1136.9063,491.75 1135.6094,491.75 Q1134.0938,491.75 1132.8906,491.125 Q1131.9063,490.625 1131.2188,489.5547 Q1130.5313,488.4844 1130.5313,487.2031 L1130.5313,486.0469 Q1130.5313,484.7188 1131.1484,483.5703 Q1131.7656,482.4219 1132.8594,481.8047 Q1133.9531,481.1875 1135.1875,481.1875 Q1135.9219,481.1875 1136.5703,481.3516 Q1137.2188,481.5156 1137.7656,481.875 Z "/><text fill="#000000" font-family="sans-serif" font-size="12" lengthAdjust="spacingAndGlyphs" textLength="30" x="1149" y="490.9102">Menu</text><line style="stroke: #A80036; stroke-width: 1.5;" x1="1121" x2="1181" y1="502" y2="502"/><line style="stroke: #A80036; stroke-width: 1.5;" x1="1121" x2="1181" y1="510" y2="510"/><!--link mastermind.controllers.Controller to mastermind.models.Session--><path d="M933.359,133.351 C1052.35,174.44 1252.5,264.99 1325,426 C1348.72,478.683 1353.81,505.919 1325,556 C1308.34,584.949 1275.75,603.7616 1247.49,615.3053 " fill="none" id="mastermind.controllers.Controller-mastermind.models.Session" style="stroke: #A80036; stroke-width: 1.0;"/><polygon fill="#A80036" points="1235.3,619.9618,1245.1345,620.4943,1239.9722,618.1811,1242.2854,613.0189,1235.3,619.9618" style="stroke: #A80036; stroke-width: 1.0;"/><line style="stroke: #A80036; stroke-width: 1.0;" x1="1239.9722" x2="1247.44" y1="618.1811" y2="615.3241"/><polygon fill="#A80036" points="921.04,129.173,925.4373,134.8883,932.4041,133.0274,928.0069,127.3122,921.04,129.173" style="stroke: #A80036; stroke-width: 1.0;"/><!--link mastermind.controllers.Controller to mastermind.controllers.InGameController--><path d="M803.74,167.889 C787.527,194.819 768.768,225.979 753.414,251.481 " fill="none" id="mastermind.controllers.Controller-mastermind.controllers.InGameController" style="stroke: #A80036; stroke-width: 1.0;"/><polygon fill="none" points="797.911,163.999,814.224,150.475,809.905,171.22,797.911,163.999" style="stroke: #A80036; stroke-width: 1.0;"/><!--link mastermind.controllers.InGameController to mastermind.views.GameView--><path d="M662.536,362.92 C645.777,376.027 626.731,388.301 607,396 C522.515,428.968 276.609,377.465 200,426 C139.032,464.626 106.994,547.431 92.9746,595.1389 " fill="none" id="mastermind.controllers.InGameController-mastermind.views.GameView" style="stroke: #A80036; stroke-width: 1.0;"/><polygon fill="#A80036" points="89.414,607.8818,95.6885,600.2903,90.7596,603.0663,87.9837,598.1374,89.414,607.8818" style="stroke: #A80036; stroke-width: 1.0;"/><line style="stroke: #A80036; stroke-width: 1.0;" x1="90.7596" x2="92.9126" y1="603.0663" y2="595.3614"/><polygon fill="#A80036" points="672.661,354.686,665.4823,355.3686,663.3513,362.2577,670.5301,361.5751,672.661,354.686" style="stroke: #A80036; stroke-width: 1.0;"/><!--link mastermind.controllers.Controller to mastermind.controllers.PlayController--><path d="M866.865,168.311 C874.258,181.481 882.604,195.647 891.205,209.659 " fill="none" id="mastermind.controllers.Controller-mastermind.controllers.PlayController" style="stroke: #A80036; stroke-width: 1.0;"/><polygon fill="none" points="860.567,171.383,857.121,150.475,872.853,164.671,860.567,171.383" style="stroke: #A80036; stroke-width: 1.0;"/><!--link mastermind.controllers.PlayController to mastermind.controllers.Controller--><path d="M910.631,198.482 C902.829,185.776 894.798,173.194 887.061,161.594 " fill="none" id="mastermind.controllers.PlayController-mastermind.controllers.Controller" style="stroke: #A80036; stroke-width: 1.0;"/><polygon fill="#A80036" points="879.525,150.475,881.2627,160.1693,882.33,154.6141,887.8853,155.6814,879.525,150.475" style="stroke: #A80036; stroke-width: 1.0;"/><line style="stroke: #A80036; stroke-width: 1.0;" x1="882.33" x2="886.8185" y1="154.6141" y2="161.2365"/><polygon fill="#A80036" points="917.416,209.659,917.7219,202.4544,911.1892,199.401,910.8833,206.6056,917.416,209.659" style="stroke: #A80036; stroke-width: 1.0;"/><!--link mastermind.controllers.PlayController to santaTecla.utils.Command--><path d="M1076.04,353.493 C1116.69,373.301 1161.51,398.078 1199,426 C1212.17,435.809 1225.02,448.451 1235.7,460.105 " fill="none" id="mastermind.controllers.PlayController-santaTecla.utils.Command" style="stroke: #A80036; stroke-width: 1.0;"/><polygon fill="#A80036" points="1244.49,469.997,1241.5015,460.6125,1241.1686,466.2596,1235.5216,465.9267,1244.49,469.997" style="stroke: #A80036; stroke-width: 1.0;"/><line style="stroke: #A80036; stroke-width: 1.0;" x1="1241.1686" x2="1235.85" y1="466.2596" y2="460.2775"/><polygon fill="#A80036" points="1064.14,347.774,1067.8163,353.9776,1074.9567,352.97,1071.2804,346.7664,1064.14,347.774" style="stroke: #A80036; stroke-width: 1.0;"/><!--link mastermind.controllers.PlayController to mastermind.controllers.ProposalController--><path d="M961.673,409.417 C961.857,420.991 962.037,432.345 962.203,442.769 " fill="none" id="mastermind.controllers.PlayController-mastermind.controllers.ProposalController" style="stroke: #A80036; stroke-width: 1.0;"/><polygon fill="#A80036" points="962.411,455.879,966.2671,446.8164,962.3313,450.8796,958.2681,446.9439,962.411,455.879" style="stroke: #A80036; stroke-width: 1.0;"/><line style="stroke: #A80036; stroke-width: 1.0;" x1="962.3313" x2="962.2045" y1="450.8796" y2="442.8805"/><polygon fill="#A80036" points="961.46,396.009,957.5554,402.0715,961.6499,408.0075,965.5544,401.945,961.46,396.009" style="stroke: #A80036; stroke-width: 1.0;"/><!--link mastermind.controllers.PlayController to mastermind.controllers.UndoController--><path d="M844.179,393.309 C842.124,394.247 840.064,395.145 838,396 C749.27,432.753 714.441,393.684 624,426 C607.808,431.786 591.418,440.141 576.41,449 " fill="none" id="mastermind.controllers.PlayController-mastermind.controllers.UndoController" style="stroke: #A80036; stroke-width: 1.0;"/><polygon fill="#A80036" points="565.229,455.839,574.9939,454.5555,569.4944,453.2302,570.8197,447.7308,565.229,455.839" style="stroke: #A80036; stroke-width: 1.0;"/><line style="stroke: #A80036; stroke-width: 1.0;" x1="569.4944" x2="576.319" y1="453.2302" y2="449.0555"/><polygon fill="#A80036" points="855.869,387.532,848.7178,386.6045,845.1112,392.8489,852.2624,393.7764,855.869,387.532" style="stroke: #A80036; stroke-width: 1.0;"/><!--link mastermind.controllers.PlayController to mastermind.controllers.RedoController--><path d="M845.657,399.623 C825.792,416.235 805.983,432.802 788.685,447.268 " fill="none" id="mastermind.controllers.PlayController-mastermind.controllers.RedoController" style="stroke: #A80036; stroke-width: 1.0;"/><polygon fill="#A80036" points="778.261,455.985,787.7311,453.2798,782.0966,452.7774,782.599,447.1429,778.261,455.985" style="stroke: #A80036; stroke-width: 1.0;"/><line style="stroke: #A80036; stroke-width: 1.0;" x1="782.0966" x2="788.233" y1="452.7774" y2="447.6455"/><polygon fill="#A80036" points="855.93,391.032,848.7613,391.8126,846.7247,398.7302,853.8934,397.9495,855.93,391.032" style="stroke: #A80036; stroke-width: 1.0;"/><!--link mastermind.controllers.PlayController to mastermind.views.ProposeCommand--><path d="M843.854,393.684 C841.909,394.496 839.957,395.269 838,396 C792.72,412.918 436.98,390.662 404,426 C364.579,468.24 366.144,512.352 404,556 C412.236,565.497 448.417,559.115 460,564 C479.696,572.306 498.828,586.189 514.112,599.1701 " fill="none" id="mastermind.controllers.PlayController-mastermind.views.ProposeCommand" style="stroke: #A80036; stroke-width: 1.0;"/><polygon fill="#A80036" points="524.038,607.9335,519.938,598.9786,520.2896,604.6245,514.6436,604.9761,524.038,607.9335" style="stroke: #A80036; stroke-width: 1.0;"/><line style="stroke: #A80036; stroke-width: 1.0;" x1="520.2896" x2="514.293" y1="604.6245" y2="599.3296"/><polygon fill="#A80036" points="855.71,388.236,848.5879,387.1068,844.8062,393.2468,851.9284,394.376,855.71,388.236" style="stroke: #A80036; stroke-width: 1.0;"/><!--link mastermind.controllers.PlayController to mastermind.views.UndoCommand--><path d="M843.864,393.709 C841.915,394.513 839.96,395.278 838,396 C733.133,434.625 430.147,365.788 336,426 C275.946,464.408 246.414,547.295 233.862,595.0759 " fill="none" id="mastermind.controllers.PlayController-mastermind.views.UndoCommand" style="stroke: #A80036; stroke-width: 1.0;"/><polygon fill="#A80036" points="230.695,607.8391,236.7451,600.0676,231.8994,602.9863,228.9806,598.1406,230.695,607.8391" style="stroke: #A80036; stroke-width: 1.0;"/><line style="stroke: #A80036; stroke-width: 1.0;" x1="231.8994" x2="233.826" y1="602.9863" y2="595.2219"/><polygon fill="#A80036" points="855.736,388.304,848.6178,387.1499,844.8148,393.2767,851.933,394.4307,855.736,388.304" style="stroke: #A80036; stroke-width: 1.0;"/><!--link mastermind.controllers.PlayController to mastermind.views.RedoCommand--><path d="M843.86,393.698 C841.913,394.506 839.959,395.274 838,396 C788.933,414.186 403.804,387.838 368,426 C325.478,471.323 347.314,549.896 365.606,595.4758 " fill="none" id="mastermind.controllers.PlayController-mastermind.views.RedoCommand" style="stroke: #A80036; stroke-width: 1.0;"/><polygon fill="#A80036" points="370.734,607.6735,370.9331,597.8267,368.7961,603.0643,363.5584,600.9273,370.734,607.6735" style="stroke: #A80036; stroke-width: 1.0;"/><line style="stroke: #A80036; stroke-width: 1.0;" x1="368.7961" x2="365.6955" y1="603.0643" y2="595.6897"/><polygon fill="#A80036" points="855.725,388.274,848.6052,387.1304,844.8111,393.2628,851.931,394.4063,855.725,388.274" style="stroke: #A80036; stroke-width: 1.0;"/><!--link mastermind.controllers.PlayController to santaTecla.utils.Menu--><path d="M1062.39,405.322 C1082.7,425.411 1102.58,445.086 1118.35,460.692 " fill="none" id="mastermind.controllers.PlayController-santaTecla.utils.Menu" style="stroke: #A80036; stroke-width: 1.0;"/><polygon fill="#A80036" points="1127.61,469.85,1124.0259,460.6764,1124.0558,466.3332,1118.3991,466.3631,1127.61,469.85" style="stroke: #A80036; stroke-width: 1.0;"/><line style="stroke: #A80036; stroke-width: 1.0;" x1="1124.0558" x2="1118.36" y1="466.3332" y2="460.706"/><polygon fill="#A80036" points="1052.98,396.009,1054.4321,403.0724,1061.5107,404.4487,1060.0585,397.3853,1052.98,396.009" style="stroke: #A80036; stroke-width: 1.0;"/><!--link mastermind.controllers.InGameController to mastermind.controllers.ProposalController--><path d="M801.593,367.128 C813.76,376.827 826.2,386.703 838,396 C863.244,415.891 891.523,437.861 914.79,455.856 " fill="none" id="mastermind.controllers.InGameController-mastermind.controllers.ProposalController" style="stroke: #A80036; stroke-width: 1.0;"/><polygon fill="none" points="797.095,372.494,785.835,354.544,805.831,361.554,797.095,372.494" style="stroke: #A80036; stroke-width: 1.0;"/><!--link mastermind.controllers.ProposalController to mastermind.models.ProposedCombination--><path d="M984.86,532.163 C998.107,554.683 1014.72,582.927 1026.79,603.4499 " fill="none" id="mastermind.controllers.ProposalController-mastermind.models.ProposedCombination" style="stroke: #A80036; stroke-width: 1.0; stroke-dasharray: 7.0,7.0;"/><polygon fill="#A80036" points="1029.45,607.9679,1028.3246,598.1835,1026.9105,603.6608,1021.4333,602.2467,1029.45,607.9679" style="stroke: #A80036; stroke-width: 1.0;"/><!--link mastermind.controllers.ProposalController to mastermind.views.ProposedCombinationView--><path d="M902.884,532.163 C865.383,555.345 818.069,584.594 784.67,605.2403 " fill="none" id="mastermind.controllers.ProposalController-mastermind.views.ProposedCombinationView" style="stroke: #A80036; stroke-width: 1.0; stroke-dasharray: 7.0,7.0;"/><polygon fill="#A80036" points="780.258,607.9679,790.0168,606.6388,784.5112,605.3392,785.8108,599.8336,780.258,607.9679" style="stroke: #A80036; stroke-width: 1.0;"/><!--link mastermind.controllers.InGameController to mastermind.controllers.RedoController--><path d="M727.128,374.926 C728.726,402.384 730.489,432.679 731.83,455.707 " fill="none" id="mastermind.controllers.InGameController-mastermind.controllers.RedoController" style="stroke: #A80036; stroke-width: 1.0;"/><polygon fill="none" points="720.122,375.021,725.948,354.649,734.098,374.208,720.122,375.021" style="stroke: #A80036; stroke-width: 1.0;"/><!--link mastermind.controllers.Controller to mastermind.controllers.ResumeController--><path d="M740.78,116.268 C646.317,128.85 502.689,155.607 389,210 C360.096,223.829 331.742,245.846 310.187,264.874 " fill="none" id="mastermind.controllers.Controller-mastermind.controllers.ResumeController" style="stroke: #A80036; stroke-width: 1.0;"/><polygon fill="none" points="740.023,109.308,760.748,113.722,741.794,123.195,740.023,109.308" style="stroke: #A80036; stroke-width: 1.0;"/><!--link mastermind.controllers.Controller to mastermind.controllers.StartController--><path d="M742.406,142.536 C699.397,160.294 649.254,183.531 607,210 C581.922,225.709 556.506,246.799 536.531,264.824 " fill="none" id="mastermind.controllers.Controller-mastermind.controllers.StartController" style="stroke: #A80036; stroke-width: 1.0;"/><polygon fill="none" points="739.818,136.032,760.983,135.02,745.069,149.01,739.818,136.032" style="stroke: #A80036; stroke-width: 1.0;"/><!--link mastermind.controllers.InGameController to mastermind.controllers.UndoController--><path d="M652.088,368.126 C619.844,397.285 582.826,430.76 555.239,455.707 " fill="none" id="mastermind.controllers.InGameController-mastermind.controllers.UndoController" style="stroke: #A80036; stroke-width: 1.0;"/><polygon fill="none" points="647.463,362.871,666.992,354.649,656.853,373.255,647.463,362.871" style="stroke: #A80036; stroke-width: 1.0;"/><!--
@startuml
abstract class mastermind.controllers.Controller {
	#Session session
	~Controller(Session session)
	+{abstract}void control()
}
mastermind.controllers.Controller *-down-> mastermind.models.Session

abstract class mastermind.controllers.InGameController {
	-GameView gameView
	~InGameController(Session session)
	+void control()
	#{abstract}void inGameControl()
}
mastermind.controllers.Controller <|-down- mastermind.controllers.InGameController
mastermind.controllers.InGameController *-down-> mastermind.views.GameView

class mastermind.controllers.PlayController {
	-Map<Command,Controller> controllers
	-ProposeCommand proposeCommand
	-ProposalController proposalController
	-UndoCommand undoCommand
	-UndoController undoController
	-RedoCommand redoCommand
	-RedoController redoController
	-Menu menu
	+PlayController(Session session)
	+void control()
}
mastermind.controllers.Controller <|-down- mastermind.controllers.PlayController
mastermind.controllers.PlayController *-down-> santaTecla.utils.Command
mastermind.controllers.PlayController *-down-> mastermind.controllers.Controller
mastermind.controllers.PlayController *-down-> mastermind.controllers.ProposalController
mastermind.controllers.PlayController *-down-> mastermind.controllers.UndoController
mastermind.controllers.PlayController *-down-> mastermind.controllers.RedoController
mastermind.controllers.PlayController *-down-> mastermind.views.ProposeCommand
mastermind.controllers.PlayController *-down-> mastermind.views.UndoCommand
mastermind.controllers.PlayController *-down-> mastermind.views.RedoCommand
mastermind.controllers.PlayController *-down-> santaTecla.utils.Menu

class mastermind.controllers.ProposalController {
	~ProposalController(Session session)
	+void inGameControl()
}
mastermind.controllers.InGameController <|-down- mastermind.controllers.ProposalController
mastermind.controllers.ProposalController ..> mastermind.models.ProposedCombination
mastermind.controllers.ProposalController ..> mastermind.views.ProposedCombinationView

class mastermind.controllers.RedoController {
	~RedoController(Session session)
	+void inGameControl()
}
mastermind.controllers.InGameController <|-down- mastermind.controllers.RedoController

class mastermind.controllers.ResumeController {
	+ResumeController(Session session)
	+void control()
}
mastermind.controllers.Controller <|-down- mastermind.controllers.ResumeController

class mastermind.controllers.StartController {
	+StartController(Session session)
	+void control()
}
mastermind.controllers.Controller <|-down- mastermind.controllers.StartController

class mastermind.controllers.UndoController {
	~UndoController(Session session)
	+void inGameControl()
}
mastermind.controllers.InGameController <|-down- mastermind.controllers.UndoController

@enduml

PlantUML version 1.2019.05(Sat Apr 20 18:45:36 CEST 2019)
(GPL source distribution)
Java Runtime: OpenJDK Runtime Environment
JVM: OpenJDK 64-Bit Server VM
Java Version: 1.8.0_222-b10
Operating System: Windows 10
OS Version: 10.0
Default Encoding: windows-1252
Language: es
Country: ES
--></g></svg>