<?xml version="1.0" encoding="UTF-8" standalone="no"?><svg xmlns="http://www.w3.org/2000/svg" xmlns:xlink="http://www.w3.org/1999/xlink" contentScriptType="application/ecmascript" contentStyleType="text/css" height="1589px" preserveAspectRatio="none" style="width:1157px;height:1589px;" version="1.1" viewBox="0 0 1157 1589" width="1157px" zoomAndPan="magnify"><defs><filter height="300%" id="fy9ayrdlwkl0e" width="300%" x="-1" y="-1"><feGaussianBlur result="blurOut" stdDeviation="2.0"/><feColorMatrix in="blurOut" result="blurOut2" type="matrix" values="0 0 0 0 0 0 0 0 0 0 0 0 0 0 0 0 0 0 .4 0"/><feOffset dx="4.0" dy="4.0" in="blurOut2" result="blurOut3"/><feBlend in="SourceGraphic" in2="blurOut3" mode="normal"/></filter></defs><g><!--cluster mastermind.models--><polygon fill="#FFFFFF" filter="url(#fy9ayrdlwkl0e)" points="28.7198,24,171.7198,24,178.7198,47.6094,906.72,47.6094,906.72,1577,28.7198,1577,28.7198,24" style="stroke: #000000; stroke-width: 1.5;"/><line style="stroke: #000000; stroke-width: 1.5;" x1="28.7198" x2="178.7198" y1="47.6094" y2="47.6094"/><text fill="#000000" font-family="sans-serif" font-size="14" font-weight="bold" lengthAdjust="spacingAndGlyphs" textLength="137" x="32.7198" y="40.5332">mastermind.models</text><!--cluster java.util--><polygon fill="#FFFFFF" filter="url(#fy9ayrdlwkl0e)" points="936.72,1244.5,997.72,1244.5,1004.72,1268.1094,1135.72,1268.1094,1135.72,1344.5,936.72,1344.5,936.72,1244.5" style="stroke: #000000; stroke-width: 1.5;"/><line style="stroke: #000000; stroke-width: 1.5;" x1="936.72" x2="1004.72" y1="1268.1094" y2="1268.1094"/><text fill="#000000" font-family="sans-serif" font-size="14" font-weight="bold" lengthAdjust="spacingAndGlyphs" textLength="55" x="940.72" y="1261.0332">java.util</text><!--cluster mastermind.utils--><polygon fill="#FFFFFF" filter="url(#fy9ayrdlwkl0e)" points="930.72,450,1052.72,450,1059.72,473.6094,1062.72,473.6094,1062.72,550,930.72,550,930.72,450" style="stroke: #000000; stroke-width: 1.5;"/><line style="stroke: #000000; stroke-width: 1.5;" x1="930.72" x2="1059.72" y1="473.6094" y2="473.6094"/><text fill="#000000" font-family="sans-serif" font-size="14" font-weight="bold" lengthAdjust="spacingAndGlyphs" textLength="116" x="934.72" y="466.5332">mastermind.utils</text><!--class mastermind.models.Color--><rect fill="#FEFECE" filter="url(#fy9ayrdlwkl0e)" height="186.3594" id="mastermind.models.Color" style="stroke: #A80036; stroke-width: 1.5;" width="132" x="118.72" y="979"/><ellipse cx="165.47" cy="995" fill="#ADD1B2" rx="11" ry="11" style="stroke: #A80036; stroke-width: 1.0;"/><path d="M168.2356,990.875 Q168.3919,990.6563 168.5794,990.5469 Q168.7669,990.4375 168.9856,990.4375 Q169.3606,990.4375 169.595,990.6953 Q169.8294,990.9531 169.8294,991.5625 L169.8294,993.0156 Q169.8294,993.625 169.595,993.8906 Q169.3606,994.1563 168.9856,994.1563 Q168.6419,994.1563 168.4388,993.9531 Q168.2356,993.7656 168.1263,993.25 Q168.0794,992.8906 167.8919,992.7031 Q167.5638,992.3281 166.9544,992.1094 Q166.345,991.8906 165.72,991.8906 Q164.9544,991.8906 164.3216,992.2188 Q163.6888,992.5469 163.1966,993.2969 Q162.7044,994.0469 162.7044,995.0781 L162.7044,996.1719 Q162.7044,997.4063 163.595,998.2266 Q164.4856,999.0469 166.0794,999.0469 Q167.0169,999.0469 167.6731,998.7969 Q168.0638,998.6406 168.4856,998.2031 Q168.7513,997.9375 168.8997,997.8594 Q169.0481,997.7813 169.2513,997.7813 Q169.5794,997.7813 169.8372,998.0391 Q170.095,998.2969 170.095,998.6406 Q170.095,998.9844 169.7513,999.3906 Q169.2513,999.9688 168.4544,1000.2969 Q167.3763,1000.75 166.0794,1000.75 Q164.5638,1000.75 163.3606,1000.125 Q162.3763,999.625 161.6888,998.5547 Q161.0013,997.4844 161.0013,996.2031 L161.0013,995.0469 Q161.0013,993.7188 161.6184,992.5703 Q162.2356,991.4219 163.3294,990.8047 Q164.4231,990.1875 165.6575,990.1875 Q166.3919,990.1875 167.0403,990.3516 Q167.6888,990.5156 168.2356,990.875 Z "/><text fill="#000000" font-family="sans-serif" font-size="12" lengthAdjust="spacingAndGlyphs" textLength="30" x="185.97" y="999.9102">Color</text><line style="stroke: #A80036; stroke-width: 1.5;" x1="119.72" x2="249.72" y1="1011" y2="1011"/><ellipse cx="129.72" cy="1023.418" fill="none" rx="3" ry="3" style="stroke: #038048; stroke-width: 1.0;"/><text fill="#000000" font-family="sans-serif" font-size="11" lengthAdjust="spacingAndGlyphs" text-decoration="underline" textLength="51" x="138.72" y="1026.4189">RED: Color</text><ellipse cx="129.72" cy="1037.2539" fill="none" rx="3" ry="3" style="stroke: #038048; stroke-width: 1.0;"/><text fill="#000000" font-family="sans-serif" font-size="11" lengthAdjust="spacingAndGlyphs" text-decoration="underline" textLength="57" x="138.72" y="1040.2549">BLUE: Color</text><ellipse cx="129.72" cy="1051.0898" fill="none" rx="3" ry="3" style="stroke: #038048; stroke-width: 1.0;"/><text fill="#000000" font-family="sans-serif" font-size="11" lengthAdjust="spacingAndGlyphs" text-decoration="underline" textLength="75" x="138.72" y="1054.0908">YELLOW: Color</text><ellipse cx="129.72" cy="1064.9258" fill="none" rx="3" ry="3" style="stroke: #038048; stroke-width: 1.0;"/><text fill="#000000" font-family="sans-serif" font-size="11" lengthAdjust="spacingAndGlyphs" text-decoration="underline" textLength="65" x="138.72" y="1067.9268">GREEN: Color</text><ellipse cx="129.72" cy="1078.7617" fill="none" rx="3" ry="3" style="stroke: #038048; stroke-width: 1.0;"/><text fill="#000000" font-family="sans-serif" font-size="11" lengthAdjust="spacingAndGlyphs" text-decoration="underline" textLength="75" x="138.72" y="1081.7627">ORANGE: Color</text><ellipse cx="129.72" cy="1092.5977" fill="none" rx="3" ry="3" style="stroke: #038048; stroke-width: 1.0;"/><text fill="#000000" font-family="sans-serif" font-size="11" lengthAdjust="spacingAndGlyphs" text-decoration="underline" textLength="69" x="138.72" y="1095.5986">PURPLE: Color</text><line style="stroke: #A80036; stroke-width: 1.5;" x1="119.72" x2="249.72" y1="1102.0156" y2="1102.0156"/><rect fill="#F24D5C" height="6" style="stroke: #C82930; stroke-width: 1.0;" width="6" x="126.72" y="1111.4336"/><text fill="#000000" font-family="sans-serif" font-size="11" lengthAdjust="spacingAndGlyphs" textLength="33" x="138.72" y="1117.4346">Color()</text><ellipse cx="129.72" cy="1128.2695" fill="#84BE84" rx="3" ry="3" style="stroke: #038048; stroke-width: 1.0;"/><text fill="#000000" font-family="sans-serif" font-size="11" lengthAdjust="spacingAndGlyphs" text-decoration="underline" textLength="105" x="138.72" y="1131.2705">valueOf(String): Color</text><polygon fill="#4177AF" points="129.72,1138.1055,125.72,1144.1055,133.72,1144.1055" style="stroke: #1963A0; stroke-width: 1.0;"/><text fill="#000000" font-family="sans-serif" font-size="11" lengthAdjust="spacingAndGlyphs" text-decoration="underline" textLength="54" x="138.72" y="1145.1064">length(): int</text><polygon fill="#4177AF" points="129.72,1151.9414,125.72,1157.9414,133.72,1157.9414" style="stroke: #1963A0; stroke-width: 1.0;"/><text fill="#000000" font-family="sans-serif" font-size="11" lengthAdjust="spacingAndGlyphs" text-decoration="underline" textLength="106" x="138.72" y="1158.9424">getInstance(int): Color</text><!--class mastermind.models.Combination--><rect fill="#FEFECE" filter="url(#fy9ayrdlwkl0e)" height="103.3438" id="mastermind.models.Combination" style="stroke: #A80036; stroke-width: 1.5;" width="116" x="126.72" y="739.5"/><ellipse cx="147.57" cy="755.5" fill="#ADD1B2" rx="11" ry="11" style="stroke: #A80036; stroke-width: 1.0;"/><path d="M150.3356,751.375 Q150.4919,751.1563 150.6794,751.0469 Q150.8669,750.9375 151.0856,750.9375 Q151.4606,750.9375 151.695,751.1953 Q151.9294,751.4531 151.9294,752.0625 L151.9294,753.5156 Q151.9294,754.125 151.695,754.3906 Q151.4606,754.6563 151.0856,754.6563 Q150.7419,754.6563 150.5388,754.4531 Q150.3356,754.2656 150.2263,753.75 Q150.1794,753.3906 149.9919,753.2031 Q149.6638,752.8281 149.0544,752.6094 Q148.445,752.3906 147.82,752.3906 Q147.0544,752.3906 146.4216,752.7188 Q145.7888,753.0469 145.2966,753.7969 Q144.8044,754.5469 144.8044,755.5781 L144.8044,756.6719 Q144.8044,757.9063 145.695,758.7266 Q146.5856,759.5469 148.1794,759.5469 Q149.1169,759.5469 149.7731,759.2969 Q150.1638,759.1406 150.5856,758.7031 Q150.8513,758.4375 150.9997,758.3594 Q151.1481,758.2813 151.3513,758.2813 Q151.6794,758.2813 151.9372,758.5391 Q152.195,758.7969 152.195,759.1406 Q152.195,759.4844 151.8513,759.8906 Q151.3513,760.4688 150.5544,760.7969 Q149.4763,761.25 148.1794,761.25 Q146.6638,761.25 145.4606,760.625 Q144.4763,760.125 143.7888,759.0547 Q143.1013,757.9844 143.1013,756.7031 L143.1013,755.5469 Q143.1013,754.2188 143.7184,753.0703 Q144.3356,751.9219 145.4294,751.3047 Q146.5231,750.6875 147.7575,750.6875 Q148.4919,750.6875 149.1403,750.8516 Q149.7888,751.0156 150.3356,751.375 Z "/><text fill="#000000" font-family="sans-serif" font-size="12" lengthAdjust="spacingAndGlyphs" textLength="71" x="162.87" y="760.4102">Combination</text><line style="stroke: #A80036; stroke-width: 1.5;" x1="127.72" x2="241.72" y1="771.5" y2="771.5"/><rect fill="none" height="6" style="stroke: #C82930; stroke-width: 1.0;" width="6" x="134.72" y="780.918"/><text fill="#000000" font-family="sans-serif" font-size="11" lengthAdjust="spacingAndGlyphs" text-decoration="underline" textLength="49" x="146.72" y="786.9189">WIDTH: int</text><polygon fill="none" points="137.72,792.7539,141.72,796.7539,137.72,800.7539,133.72,796.7539" style="stroke: #B38D22; stroke-width: 1.0;"/><text fill="#000000" font-family="sans-serif" font-size="11" lengthAdjust="spacingAndGlyphs" textLength="90" x="146.72" y="800.7549">colors: List&lt;Color&gt;</text><line style="stroke: #A80036; stroke-width: 1.5;" x1="127.72" x2="241.72" y1="807.1719" y2="807.1719"/><polygon fill="#FFFF44" points="137.72,814.5898,141.72,818.5898,137.72,822.5898,133.72,818.5898" style="stroke: #B38D22; stroke-width: 1.0;"/><text fill="#000000" font-family="sans-serif" font-size="11" lengthAdjust="spacingAndGlyphs" textLength="66" x="146.72" y="822.5908">Combination()</text><ellipse cx="137.72" cy="833.4258" fill="#84BE84" rx="3" ry="3" style="stroke: #038048; stroke-width: 1.0;"/><text fill="#000000" font-family="sans-serif" font-size="11" lengthAdjust="spacingAndGlyphs" text-decoration="underline" textLength="67" x="146.72" y="836.4268">getWidth(): int</text><!--class mastermind.models.Error--><rect fill="#FEFECE" filter="url(#fy9ayrdlwkl0e)" height="117.1797" id="mastermind.models.Error" style="stroke: #A80036; stroke-width: 1.5;" width="172" x="298.72" y="1444"/><ellipse cx="366.97" cy="1460" fill="#ADD1B2" rx="11" ry="11" style="stroke: #A80036; stroke-width: 1.0;"/><path d="M369.7356,1455.875 Q369.8919,1455.6563 370.0794,1455.5469 Q370.2669,1455.4375 370.4856,1455.4375 Q370.8606,1455.4375 371.095,1455.6953 Q371.3294,1455.9531 371.3294,1456.5625 L371.3294,1458.0156 Q371.3294,1458.625 371.095,1458.8906 Q370.8606,1459.1563 370.4856,1459.1563 Q370.1419,1459.1563 369.9388,1458.9531 Q369.7356,1458.7656 369.6263,1458.25 Q369.5794,1457.8906 369.3919,1457.7031 Q369.0638,1457.3281 368.4544,1457.1094 Q367.845,1456.8906 367.22,1456.8906 Q366.4544,1456.8906 365.8216,1457.2188 Q365.1888,1457.5469 364.6966,1458.2969 Q364.2044,1459.0469 364.2044,1460.0781 L364.2044,1461.1719 Q364.2044,1462.4063 365.095,1463.2266 Q365.9856,1464.0469 367.5794,1464.0469 Q368.5169,1464.0469 369.1731,1463.7969 Q369.5638,1463.6406 369.9856,1463.2031 Q370.2513,1462.9375 370.3997,1462.8594 Q370.5481,1462.7813 370.7513,1462.7813 Q371.0794,1462.7813 371.3372,1463.0391 Q371.595,1463.2969 371.595,1463.6406 Q371.595,1463.9844 371.2513,1464.3906 Q370.7513,1464.9688 369.9544,1465.2969 Q368.8763,1465.75 367.5794,1465.75 Q366.0638,1465.75 364.8606,1465.125 Q363.8763,1464.625 363.1888,1463.5547 Q362.5013,1462.4844 362.5013,1461.2031 L362.5013,1460.0469 Q362.5013,1458.7188 363.1184,1457.5703 Q363.7356,1456.4219 364.8294,1455.8047 Q365.9231,1455.1875 367.1575,1455.1875 Q367.8919,1455.1875 368.5403,1455.3516 Q369.1888,1455.5156 369.7356,1455.875 Z "/><text fill="#000000" font-family="sans-serif" font-size="12" lengthAdjust="spacingAndGlyphs" textLength="27" x="387.47" y="1464.9102">Error</text><line style="stroke: #A80036; stroke-width: 1.5;" x1="299.72" x2="469.72" y1="1476" y2="1476"/><ellipse cx="309.72" cy="1488.418" fill="none" rx="3" ry="3" style="stroke: #038048; stroke-width: 1.0;"/><text fill="#000000" font-family="sans-serif" font-size="11" lengthAdjust="spacingAndGlyphs" text-decoration="underline" textLength="92" x="318.72" y="1491.4189">DUPLICATED: Error</text><ellipse cx="309.72" cy="1502.2539" fill="none" rx="3" ry="3" style="stroke: #038048; stroke-width: 1.0;"/><text fill="#000000" font-family="sans-serif" font-size="11" lengthAdjust="spacingAndGlyphs" text-decoration="underline" textLength="146" x="318.72" y="1505.2549">WRONG_CHARACTERS: Error</text><ellipse cx="309.72" cy="1516.0898" fill="none" rx="3" ry="3" style="stroke: #038048; stroke-width: 1.0;"/><text fill="#000000" font-family="sans-serif" font-size="11" lengthAdjust="spacingAndGlyphs" text-decoration="underline" textLength="116" x="318.72" y="1519.0908">WRONG_LENGTH: Error</text><line style="stroke: #A80036; stroke-width: 1.5;" x1="299.72" x2="469.72" y1="1525.5078" y2="1525.5078"/><rect fill="#F24D5C" height="6" style="stroke: #C82930; stroke-width: 1.0;" width="6" x="306.72" y="1534.9258"/><text fill="#000000" font-family="sans-serif" font-size="11" lengthAdjust="spacingAndGlyphs" textLength="32" x="318.72" y="1540.9268">Error()</text><ellipse cx="309.72" cy="1551.7617" fill="#84BE84" rx="3" ry="3" style="stroke: #038048; stroke-width: 1.0;"/><text fill="#000000" font-family="sans-serif" font-size="11" lengthAdjust="spacingAndGlyphs" text-decoration="underline" textLength="104" x="318.72" y="1554.7627">valueOf(String): Error</text><!--class mastermind.models.Game--><rect fill="#FEFECE" filter="url(#fy9ayrdlwkl0e)" height="255.5391" id="mastermind.models.Game" style="stroke: #A80036; stroke-width: 1.5;" width="275" x="472.22" y="663"/><ellipse cx="588.47" cy="679" fill="#ADD1B2" rx="11" ry="11" style="stroke: #A80036; stroke-width: 1.0;"/><path d="M591.2356,674.875 Q591.3919,674.6563 591.5794,674.5469 Q591.7669,674.4375 591.9856,674.4375 Q592.3606,674.4375 592.595,674.6953 Q592.8294,674.9531 592.8294,675.5625 L592.8294,677.0156 Q592.8294,677.625 592.595,677.8906 Q592.3606,678.1563 591.9856,678.1563 Q591.6419,678.1563 591.4388,677.9531 Q591.2356,677.7656 591.1263,677.25 Q591.0794,676.8906 590.8919,676.7031 Q590.5638,676.3281 589.9544,676.1094 Q589.345,675.8906 588.72,675.8906 Q587.9544,675.8906 587.3216,676.2188 Q586.6888,676.5469 586.1966,677.2969 Q585.7044,678.0469 585.7044,679.0781 L585.7044,680.1719 Q585.7044,681.4063 586.595,682.2266 Q587.4856,683.0469 589.0794,683.0469 Q590.0169,683.0469 590.6731,682.7969 Q591.0638,682.6406 591.4856,682.2031 Q591.7513,681.9375 591.8997,681.8594 Q592.0481,681.7813 592.2513,681.7813 Q592.5794,681.7813 592.8372,682.0391 Q593.095,682.2969 593.095,682.6406 Q593.095,682.9844 592.7513,683.3906 Q592.2513,683.9688 591.4544,684.2969 Q590.3763,684.75 589.0794,684.75 Q587.5638,684.75 586.3606,684.125 Q585.3763,683.625 584.6888,682.5547 Q584.0013,681.4844 584.0013,680.2031 L584.0013,679.0469 Q584.0013,677.7188 584.6184,676.5703 Q585.2356,675.4219 586.3294,674.8047 Q587.4231,674.1875 588.6575,674.1875 Q589.3919,674.1875 590.0403,674.3516 Q590.6888,674.5156 591.2356,674.875 Z "/><text fill="#000000" font-family="sans-serif" font-size="12" lengthAdjust="spacingAndGlyphs" textLength="34" x="608.97" y="683.9102">Game</text><line style="stroke: #A80036; stroke-width: 1.5;" x1="473.22" x2="746.22" y1="695" y2="695"/><rect fill="none" height="6" style="stroke: #C82930; stroke-width: 1.0;" width="6" x="480.22" y="704.418"/><text fill="#000000" font-family="sans-serif" font-size="11" lengthAdjust="spacingAndGlyphs" text-decoration="underline" textLength="75" x="492.22" y="710.4189">MAX_LONG: int</text><rect fill="none" height="6" style="stroke: #C82930; stroke-width: 1.0;" width="6" x="480.22" y="718.2539"/><text fill="#000000" font-family="sans-serif" font-size="11" lengthAdjust="spacingAndGlyphs" textLength="185" x="492.22" y="724.2549">secretCombination: SecretCombination</text><rect fill="none" height="6" style="stroke: #C82930; stroke-width: 1.0;" width="6" x="480.22" y="732.0898"/><text fill="#000000" font-family="sans-serif" font-size="11" lengthAdjust="spacingAndGlyphs" textLength="249" x="492.22" y="738.0908">proposedCombinations: List&lt;ProposedCombination&gt;</text><rect fill="none" height="6" style="stroke: #C82930; stroke-width: 1.0;" width="6" x="480.22" y="745.9258"/><text fill="#000000" font-family="sans-serif" font-size="11" lengthAdjust="spacingAndGlyphs" textLength="98" x="492.22" y="751.9268">results: List&lt;Result&gt;</text><rect fill="none" height="6" style="stroke: #C82930; stroke-width: 1.0;" width="6" x="480.22" y="759.7617"/><text fill="#000000" font-family="sans-serif" font-size="11" lengthAdjust="spacingAndGlyphs" textLength="36" x="492.22" y="765.7627">turn: int</text><line style="stroke: #A80036; stroke-width: 1.5;" x1="473.22" x2="746.22" y1="772.1797" y2="772.1797"/><ellipse cx="483.22" cy="784.5977" fill="#84BE84" rx="3" ry="3" style="stroke: #038048; stroke-width: 1.0;"/><text fill="#000000" font-family="sans-serif" font-size="11" lengthAdjust="spacingAndGlyphs" textLength="36" x="492.22" y="787.5986">Game()</text><ellipse cx="483.22" cy="798.4336" fill="#84BE84" rx="3" ry="3" style="stroke: #038048; stroke-width: 1.0;"/><text fill="#000000" font-family="sans-serif" font-size="11" lengthAdjust="spacingAndGlyphs" textLength="58" x="492.22" y="801.4346">clear(): void</text><ellipse cx="483.22" cy="812.2695" fill="#84BE84" rx="3" ry="3" style="stroke: #038048; stroke-width: 1.0;"/><text fill="#000000" font-family="sans-serif" font-size="11" lengthAdjust="spacingAndGlyphs" textLength="92" x="492.22" y="815.2705">set(Memento): void</text><ellipse cx="483.22" cy="826.1055" fill="#84BE84" rx="3" ry="3" style="stroke: #038048; stroke-width: 1.0;"/><text fill="#000000" font-family="sans-serif" font-size="11" lengthAdjust="spacingAndGlyphs" textLength="236" x="492.22" y="829.1064">proposeCombination(ProposedCombination): void</text><ellipse cx="483.22" cy="839.9414" fill="#84BE84" rx="3" ry="3" style="stroke: #038048; stroke-width: 1.0;"/><text fill="#000000" font-family="sans-serif" font-size="11" lengthAdjust="spacingAndGlyphs" textLength="67" x="492.22" y="842.9424">getWidth(): int</text><ellipse cx="483.22" cy="853.7773" fill="#84BE84" rx="3" ry="3" style="stroke: #038048; stroke-width: 1.0;"/><text fill="#000000" font-family="sans-serif" font-size="11" lengthAdjust="spacingAndGlyphs" textLength="94" x="492.22" y="856.7783">isWinner(): boolean</text><ellipse cx="483.22" cy="867.6133" fill="#84BE84" rx="3" ry="3" style="stroke: #038048; stroke-width: 1.0;"/><text fill="#000000" font-family="sans-serif" font-size="11" lengthAdjust="spacingAndGlyphs" textLength="62" x="492.22" y="870.6143">getTurn(): int</text><ellipse cx="483.22" cy="881.4492" fill="#84BE84" rx="3" ry="3" style="stroke: #038048; stroke-width: 1.0;"/><text fill="#000000" font-family="sans-serif" font-size="11" lengthAdjust="spacingAndGlyphs" textLength="89" x="492.22" y="884.4502">getCodes(): int[][][]</text><ellipse cx="483.22" cy="895.2852" fill="#84BE84" rx="3" ry="3" style="stroke: #038048; stroke-width: 1.0;"/><text fill="#000000" font-family="sans-serif" font-size="11" lengthAdjust="spacingAndGlyphs" textLength="94" x="492.22" y="898.2861">isLooser(): boolean</text><ellipse cx="483.22" cy="909.1211" fill="#84BE84" rx="3" ry="3" style="stroke: #038048; stroke-width: 1.0;"/><text fill="#000000" font-family="sans-serif" font-size="11" lengthAdjust="spacingAndGlyphs" textLength="131" x="492.22" y="912.1221">createMemento(): Memento</text><!--class mastermind.models.SecretCombination--><rect fill="#FEFECE" filter="url(#fy9ayrdlwkl0e)" height="75.6719" id="mastermind.models.SecretCombination" style="stroke: #A80036; stroke-width: 1.5;" width="219" x="286.22" y="1034"/><ellipse cx="338.47" cy="1050" fill="#ADD1B2" rx="11" ry="11" style="stroke: #A80036; stroke-width: 1.0;"/><path d="M341.2356,1045.875 Q341.3919,1045.6563 341.5794,1045.5469 Q341.7669,1045.4375 341.9856,1045.4375 Q342.3606,1045.4375 342.595,1045.6953 Q342.8294,1045.9531 342.8294,1046.5625 L342.8294,1048.0156 Q342.8294,1048.625 342.595,1048.8906 Q342.3606,1049.1563 341.9856,1049.1563 Q341.6419,1049.1563 341.4388,1048.9531 Q341.2356,1048.7656 341.1263,1048.25 Q341.0794,1047.8906 340.8919,1047.7031 Q340.5638,1047.3281 339.9544,1047.1094 Q339.345,1046.8906 338.72,1046.8906 Q337.9544,1046.8906 337.3216,1047.2188 Q336.6888,1047.5469 336.1966,1048.2969 Q335.7044,1049.0469 335.7044,1050.0781 L335.7044,1051.1719 Q335.7044,1052.4063 336.595,1053.2266 Q337.4856,1054.0469 339.0794,1054.0469 Q340.0169,1054.0469 340.6731,1053.7969 Q341.0638,1053.6406 341.4856,1053.2031 Q341.7513,1052.9375 341.8997,1052.8594 Q342.0481,1052.7813 342.2513,1052.7813 Q342.5794,1052.7813 342.8372,1053.0391 Q343.095,1053.2969 343.095,1053.6406 Q343.095,1053.9844 342.7513,1054.3906 Q342.2513,1054.9688 341.4544,1055.2969 Q340.3763,1055.75 339.0794,1055.75 Q337.5638,1055.75 336.3606,1055.125 Q335.3763,1054.625 334.6888,1053.5547 Q334.0013,1052.4844 334.0013,1051.2031 L334.0013,1050.0469 Q334.0013,1048.7188 334.6184,1047.5703 Q335.2356,1046.4219 336.3294,1045.8047 Q337.4231,1045.1875 338.6575,1045.1875 Q339.3919,1045.1875 340.0403,1045.3516 Q340.6888,1045.5156 341.2356,1045.875 Z "/><text fill="#000000" font-family="sans-serif" font-size="12" lengthAdjust="spacingAndGlyphs" textLength="106" x="358.97" y="1054.9102">SecretCombination</text><line style="stroke: #A80036; stroke-width: 1.5;" x1="287.22" x2="504.22" y1="1066" y2="1066"/><line style="stroke: #A80036; stroke-width: 1.5;" x1="287.22" x2="504.22" y1="1074" y2="1074"/><polygon fill="#4177AF" points="297.22,1082.418,293.22,1088.418,301.22,1088.418" style="stroke: #1963A0; stroke-width: 1.0;"/><text fill="#000000" font-family="sans-serif" font-size="11" lengthAdjust="spacingAndGlyphs" textLength="98" x="306.22" y="1089.4189">SecretCombination()</text><polygon fill="#4177AF" points="297.22,1096.2539,293.22,1102.2539,301.22,1102.2539" style="stroke: #1963A0; stroke-width: 1.0;"/><text fill="#000000" font-family="sans-serif" font-size="11" lengthAdjust="spacingAndGlyphs" textLength="193" x="306.22" y="1103.2549">getResult(ProposedCombination): Result</text><!--class mastermind.models.Result--><rect fill="#FEFECE" filter="url(#fy9ayrdlwkl0e)" height="158.6875" id="mastermind.models.Result" style="stroke: #A80036; stroke-width: 1.5;" width="120" x="528.72" y="1225"/><ellipse cx="567.12" cy="1241" fill="#ADD1B2" rx="11" ry="11" style="stroke: #A80036; stroke-width: 1.0;"/><path d="M569.8856,1236.875 Q570.0419,1236.6563 570.2294,1236.5469 Q570.4169,1236.4375 570.6356,1236.4375 Q571.0106,1236.4375 571.245,1236.6953 Q571.4794,1236.9531 571.4794,1237.5625 L571.4794,1239.0156 Q571.4794,1239.625 571.245,1239.8906 Q571.0106,1240.1563 570.6356,1240.1563 Q570.2919,1240.1563 570.0888,1239.9531 Q569.8856,1239.7656 569.7763,1239.25 Q569.7294,1238.8906 569.5419,1238.7031 Q569.2138,1238.3281 568.6044,1238.1094 Q567.995,1237.8906 567.37,1237.8906 Q566.6044,1237.8906 565.9716,1238.2188 Q565.3388,1238.5469 564.8466,1239.2969 Q564.3544,1240.0469 564.3544,1241.0781 L564.3544,1242.1719 Q564.3544,1243.4063 565.245,1244.2266 Q566.1356,1245.0469 567.7294,1245.0469 Q568.6669,1245.0469 569.3231,1244.7969 Q569.7138,1244.6406 570.1356,1244.2031 Q570.4013,1243.9375 570.5497,1243.8594 Q570.6981,1243.7813 570.9013,1243.7813 Q571.2294,1243.7813 571.4872,1244.0391 Q571.745,1244.2969 571.745,1244.6406 Q571.745,1244.9844 571.4013,1245.3906 Q570.9013,1245.9688 570.1044,1246.2969 Q569.0263,1246.75 567.7294,1246.75 Q566.2138,1246.75 565.0106,1246.125 Q564.0263,1245.625 563.3388,1244.5547 Q562.6513,1243.4844 562.6513,1242.2031 L562.6513,1241.0469 Q562.6513,1239.7188 563.2684,1238.5703 Q563.8856,1237.4219 564.9794,1236.8047 Q566.0731,1236.1875 567.3075,1236.1875 Q568.0419,1236.1875 568.6903,1236.3516 Q569.3388,1236.5156 569.8856,1236.875 Z "/><text fill="#000000" font-family="sans-serif" font-size="12" lengthAdjust="spacingAndGlyphs" textLength="36" x="586.32" y="1245.9102">Result</text><line style="stroke: #A80036; stroke-width: 1.5;" x1="529.72" x2="647.72" y1="1257" y2="1257"/><rect fill="none" height="6" style="stroke: #C82930; stroke-width: 1.0;" width="6" x="536.72" y="1266.418"/><text fill="#000000" font-family="sans-serif" font-size="11" lengthAdjust="spacingAndGlyphs" textLength="48" x="548.72" y="1272.4189">blacks: int</text><rect fill="none" height="6" style="stroke: #C82930; stroke-width: 1.0;" width="6" x="536.72" y="1280.2539"/><text fill="#000000" font-family="sans-serif" font-size="11" lengthAdjust="spacingAndGlyphs" textLength="50" x="548.72" y="1286.2549">whites: int</text><line style="stroke: #A80036; stroke-width: 1.5;" x1="529.72" x2="647.72" y1="1292.6719" y2="1292.6719"/><polygon fill="#4177AF" points="539.72,1301.0898,535.72,1307.0898,543.72,1307.0898" style="stroke: #1963A0; stroke-width: 1.0;"/><text fill="#000000" font-family="sans-serif" font-size="11" lengthAdjust="spacingAndGlyphs" textLength="66" x="548.72" y="1308.0908">Result(int, int)</text><ellipse cx="539.72" cy="1318.9258" fill="#84BE84" rx="3" ry="3" style="stroke: #038048; stroke-width: 1.0;"/><text fill="#000000" font-family="sans-serif" font-size="11" lengthAdjust="spacingAndGlyphs" textLength="68" x="548.72" y="1321.9268">copy(): Result</text><polygon fill="#4177AF" points="539.72,1328.7617,535.72,1334.7617,543.72,1334.7617" style="stroke: #1963A0; stroke-width: 1.0;"/><text fill="#000000" font-family="sans-serif" font-size="11" lengthAdjust="spacingAndGlyphs" textLength="94" x="548.72" y="1335.7627">isWinner(): boolean</text><polygon fill="#4177AF" points="539.72,1342.5977,535.72,1348.5977,543.72,1348.5977" style="stroke: #1963A0; stroke-width: 1.0;"/><text fill="#000000" font-family="sans-serif" font-size="11" lengthAdjust="spacingAndGlyphs" textLength="77" x="548.72" y="1349.5986">getCodes(): int[]</text><polygon fill="#4177AF" points="539.72,1356.4336,535.72,1362.4336,543.72,1362.4336" style="stroke: #1963A0; stroke-width: 1.0;"/><text fill="#000000" font-family="sans-serif" font-size="11" lengthAdjust="spacingAndGlyphs" textLength="72" x="548.72" y="1363.4346">getBlacks(): int</text><polygon fill="#4177AF" points="539.72,1370.2695,535.72,1376.2695,543.72,1376.2695" style="stroke: #1963A0; stroke-width: 1.0;"/><text fill="#000000" font-family="sans-serif" font-size="11" lengthAdjust="spacingAndGlyphs" textLength="73" x="548.72" y="1377.2705">getWhites(): int</text><!--class mastermind.models.ProposedCombination--><rect fill="#FEFECE" filter="url(#fy9ayrdlwkl0e)" height="158.6875" id="mastermind.models.ProposedCombination" style="stroke: #A80036; stroke-width: 1.5;" width="217" x="276.22" y="1225"/><ellipse cx="318.22" cy="1241" fill="#ADD1B2" rx="11" ry="11" style="stroke: #A80036; stroke-width: 1.0;"/><path d="M320.9856,1236.875 Q321.1419,1236.6563 321.3294,1236.5469 Q321.5169,1236.4375 321.7356,1236.4375 Q322.1106,1236.4375 322.345,1236.6953 Q322.5794,1236.9531 322.5794,1237.5625 L322.5794,1239.0156 Q322.5794,1239.625 322.345,1239.8906 Q322.1106,1240.1563 321.7356,1240.1563 Q321.3919,1240.1563 321.1888,1239.9531 Q320.9856,1239.7656 320.8763,1239.25 Q320.8294,1238.8906 320.6419,1238.7031 Q320.3138,1238.3281 319.7044,1238.1094 Q319.095,1237.8906 318.47,1237.8906 Q317.7044,1237.8906 317.0716,1238.2188 Q316.4388,1238.5469 315.9466,1239.2969 Q315.4544,1240.0469 315.4544,1241.0781 L315.4544,1242.1719 Q315.4544,1243.4063 316.345,1244.2266 Q317.2356,1245.0469 318.8294,1245.0469 Q319.7669,1245.0469 320.4231,1244.7969 Q320.8138,1244.6406 321.2356,1244.2031 Q321.5013,1243.9375 321.6497,1243.8594 Q321.7981,1243.7813 322.0013,1243.7813 Q322.3294,1243.7813 322.5872,1244.0391 Q322.845,1244.2969 322.845,1244.6406 Q322.845,1244.9844 322.5013,1245.3906 Q322.0013,1245.9688 321.2044,1246.2969 Q320.1263,1246.75 318.8294,1246.75 Q317.3138,1246.75 316.1106,1246.125 Q315.1263,1245.625 314.4388,1244.5547 Q313.7513,1243.4844 313.7513,1242.2031 L313.7513,1241.0469 Q313.7513,1239.7188 314.3684,1238.5703 Q314.9856,1237.4219 316.0794,1236.8047 Q317.1731,1236.1875 318.4075,1236.1875 Q319.1419,1236.1875 319.7903,1236.3516 Q320.4388,1236.5156 320.9856,1236.875 Z "/><text fill="#000000" font-family="sans-serif" font-size="12" lengthAdjust="spacingAndGlyphs" textLength="125" x="338.22" y="1245.9102">ProposedCombination</text><line style="stroke: #A80036; stroke-width: 1.5;" x1="277.22" x2="492.22" y1="1257" y2="1257"/><line style="stroke: #A80036; stroke-width: 1.5;" x1="277.22" x2="492.22" y1="1265" y2="1265"/><ellipse cx="287.22" cy="1277.418" fill="#84BE84" rx="3" ry="3" style="stroke: #038048; stroke-width: 1.0;"/><text fill="#000000" font-family="sans-serif" font-size="11" lengthAdjust="spacingAndGlyphs" textLength="112" x="296.22" y="1280.4189">ProposedCombination()</text><polygon fill="#4177AF" points="287.22,1287.2539,283.22,1293.2539,291.22,1293.2539" style="stroke: #1963A0; stroke-width: 1.0;"/><text fill="#000000" font-family="sans-serif" font-size="11" lengthAdjust="spacingAndGlyphs" textLength="135" x="296.22" y="1294.2549">contains(Color, int): boolean</text><polygon fill="#4177AF" points="287.22,1301.0898,283.22,1307.0898,291.22,1307.0898" style="stroke: #1963A0; stroke-width: 1.0;"/><text fill="#000000" font-family="sans-serif" font-size="11" lengthAdjust="spacingAndGlyphs" textLength="118" x="296.22" y="1308.0908">contains(Color): boolean</text><ellipse cx="287.22" cy="1318.9258" fill="#84BE84" rx="3" ry="3" style="stroke: #038048; stroke-width: 1.0;"/><text fill="#000000" font-family="sans-serif" font-size="11" lengthAdjust="spacingAndGlyphs" text-decoration="underline" textLength="191" x="296.22" y="1321.9268">getInstance(int[]): ProposedCombination</text><ellipse cx="287.22" cy="1332.7617" fill="#84BE84" rx="3" ry="3" style="stroke: #038048; stroke-width: 1.0;"/><text fill="#000000" font-family="sans-serif" font-size="11" lengthAdjust="spacingAndGlyphs" textLength="142" x="296.22" y="1335.7627">copy(): ProposedCombination</text><ellipse cx="287.22" cy="1346.5977" fill="#84BE84" rx="3" ry="3" style="stroke: #038048; stroke-width: 1.0;"/><text fill="#000000" font-family="sans-serif" font-size="11" lengthAdjust="spacingAndGlyphs" text-decoration="underline" textLength="87" x="296.22" y="1349.5986">isValid(int[]): Error</text><polygon fill="#4177AF" points="287.22,1356.4336,283.22,1362.4336,291.22,1362.4336" style="stroke: #1963A0; stroke-width: 1.0;"/><text fill="#000000" font-family="sans-serif" font-size="11" lengthAdjust="spacingAndGlyphs" textLength="77" x="296.22" y="1363.4346">getCodes(): int[]</text><polygon fill="#4177AF" points="287.22,1370.2695,283.22,1376.2695,291.22,1376.2695" style="stroke: #1963A0; stroke-width: 1.0;"/><text fill="#000000" font-family="sans-serif" font-size="11" lengthAdjust="spacingAndGlyphs" textLength="97" x="296.22" y="1377.2705">setCodes(int[]): void</text><!--class mastermind.models.Memento--><rect fill="#FEFECE" filter="url(#fy9ayrdlwkl0e)" height="172.5234" id="mastermind.models.Memento" style="stroke: #A80036; stroke-width: 1.5;" width="275" x="615.22" y="985.5"/><ellipse cx="722.97" cy="1001.5" fill="#ADD1B2" rx="11" ry="11" style="stroke: #A80036; stroke-width: 1.0;"/><path d="M725.7356,997.375 Q725.8919,997.1563 726.0794,997.0469 Q726.2669,996.9375 726.4856,996.9375 Q726.8606,996.9375 727.095,997.1953 Q727.3294,997.4531 727.3294,998.0625 L727.3294,999.5156 Q727.3294,1000.125 727.095,1000.3906 Q726.8606,1000.6563 726.4856,1000.6563 Q726.1419,1000.6563 725.9388,1000.4531 Q725.7356,1000.2656 725.6263,999.75 Q725.5794,999.3906 725.3919,999.2031 Q725.0638,998.8281 724.4544,998.6094 Q723.845,998.3906 723.22,998.3906 Q722.4544,998.3906 721.8216,998.7188 Q721.1888,999.0469 720.6966,999.7969 Q720.2044,1000.5469 720.2044,1001.5781 L720.2044,1002.6719 Q720.2044,1003.9063 721.095,1004.7266 Q721.9856,1005.5469 723.5794,1005.5469 Q724.5169,1005.5469 725.1731,1005.2969 Q725.5638,1005.1406 725.9856,1004.7031 Q726.2513,1004.4375 726.3997,1004.3594 Q726.5481,1004.2813 726.7513,1004.2813 Q727.0794,1004.2813 727.3372,1004.5391 Q727.595,1004.7969 727.595,1005.1406 Q727.595,1005.4844 727.2513,1005.8906 Q726.7513,1006.4688 725.9544,1006.7969 Q724.8763,1007.25 723.5794,1007.25 Q722.0638,1007.25 720.8606,1006.625 Q719.8763,1006.125 719.1888,1005.0547 Q718.5013,1003.9844 718.5013,1002.7031 L718.5013,1001.5469 Q718.5013,1000.2188 719.1184,999.0703 Q719.7356,997.9219 720.8294,997.3047 Q721.9231,996.6875 723.1575,996.6875 Q723.8919,996.6875 724.5403,996.8516 Q725.1888,997.0156 725.7356,997.375 Z "/><text fill="#000000" font-family="sans-serif" font-size="12" lengthAdjust="spacingAndGlyphs" textLength="51" x="743.47" y="1006.4102">Memento</text><line style="stroke: #A80036; stroke-width: 1.5;" x1="616.22" x2="889.22" y1="1017.5" y2="1017.5"/><rect fill="none" height="6" style="stroke: #C82930; stroke-width: 1.0;" width="6" x="623.22" y="1026.918"/><text fill="#000000" font-family="sans-serif" font-size="11" lengthAdjust="spacingAndGlyphs" textLength="249" x="635.22" y="1032.9189">proposedCombinations: List&lt;ProposedCombination&gt;</text><rect fill="none" height="6" style="stroke: #C82930; stroke-width: 1.0;" width="6" x="623.22" y="1040.7539"/><text fill="#000000" font-family="sans-serif" font-size="11" lengthAdjust="spacingAndGlyphs" textLength="98" x="635.22" y="1046.7549">results: List&lt;Result&gt;</text><rect fill="none" height="6" style="stroke: #C82930; stroke-width: 1.0;" width="6" x="623.22" y="1054.5898"/><text fill="#000000" font-family="sans-serif" font-size="11" lengthAdjust="spacingAndGlyphs" textLength="36" x="635.22" y="1060.5908">turn: int</text><line style="stroke: #A80036; stroke-width: 1.5;" x1="616.22" x2="889.22" y1="1067.0078" y2="1067.0078"/><polygon fill="#4177AF" points="626.22,1075.4258,622.22,1081.4258,630.22,1081.4258" style="stroke: #1963A0; stroke-width: 1.0;"/><text fill="#000000" font-family="sans-serif" font-size="11" lengthAdjust="spacingAndGlyphs" textLength="62" x="635.22" y="1082.4268">Memento(int)</text><polygon fill="#4177AF" points="626.22,1089.2617,622.22,1095.2617,630.22,1095.2617" style="stroke: #1963A0; stroke-width: 1.0;"/><text fill="#000000" font-family="sans-serif" font-size="11" lengthAdjust="spacingAndGlyphs" textLength="189" x="635.22" y="1096.2627">set(ProposedCombination, Result): void</text><polygon fill="#4177AF" points="626.22,1103.0977,622.22,1109.0977,630.22,1109.0977" style="stroke: #1963A0; stroke-width: 1.0;"/><text fill="#000000" font-family="sans-serif" font-size="11" lengthAdjust="spacingAndGlyphs" textLength="61" x="635.22" y="1110.0986">getSize(): int</text><polygon fill="#4177AF" points="626.22,1116.9336,622.22,1122.9336,630.22,1122.9336" style="stroke: #1963A0; stroke-width: 1.0;"/><text fill="#000000" font-family="sans-serif" font-size="11" lengthAdjust="spacingAndGlyphs" textLength="100" x="635.22" y="1123.9346">getResult(int): Result</text><polygon fill="#4177AF" points="626.22,1130.7695,622.22,1136.7695,630.22,1136.7695" style="stroke: #1963A0; stroke-width: 1.0;"/><text fill="#000000" font-family="sans-serif" font-size="11" lengthAdjust="spacingAndGlyphs" textLength="62" x="635.22" y="1137.7705">getTurn(): int</text><polygon fill="#4177AF" points="626.22,1144.6055,622.22,1150.6055,630.22,1150.6055" style="stroke: #1963A0; stroke-width: 1.0;"/><text fill="#000000" font-family="sans-serif" font-size="11" lengthAdjust="spacingAndGlyphs" textLength="248" x="635.22" y="1151.6064">getProposedCombination(int): ProposedCombination</text><!--class mastermind.models.Registry--><rect fill="#FEFECE" filter="url(#fy9ayrdlwkl0e)" height="186.3594" id="mastermind.models.Registry" style="stroke: #A80036; stroke-width: 1.5;" width="192" x="665.72" y="417"/><ellipse cx="734.97" cy="433" fill="#ADD1B2" rx="11" ry="11" style="stroke: #A80036; stroke-width: 1.0;"/><path d="M737.7356,428.875 Q737.8919,428.6563 738.0794,428.5469 Q738.2669,428.4375 738.4856,428.4375 Q738.8606,428.4375 739.095,428.6953 Q739.3294,428.9531 739.3294,429.5625 L739.3294,431.0156 Q739.3294,431.625 739.095,431.8906 Q738.8606,432.1563 738.4856,432.1563 Q738.1419,432.1563 737.9388,431.9531 Q737.7356,431.7656 737.6263,431.25 Q737.5794,430.8906 737.3919,430.7031 Q737.0638,430.3281 736.4544,430.1094 Q735.845,429.8906 735.22,429.8906 Q734.4544,429.8906 733.8216,430.2188 Q733.1888,430.5469 732.6966,431.2969 Q732.2044,432.0469 732.2044,433.0781 L732.2044,434.1719 Q732.2044,435.4063 733.095,436.2266 Q733.9856,437.0469 735.5794,437.0469 Q736.5169,437.0469 737.1731,436.7969 Q737.5638,436.6406 737.9856,436.2031 Q738.2513,435.9375 738.3997,435.8594 Q738.5481,435.7813 738.7513,435.7813 Q739.0794,435.7813 739.3372,436.0391 Q739.595,436.2969 739.595,436.6406 Q739.595,436.9844 739.2513,437.3906 Q738.7513,437.9688 737.9544,438.2969 Q736.8763,438.75 735.5794,438.75 Q734.0638,438.75 732.8606,438.125 Q731.8763,437.625 731.1888,436.5547 Q730.5013,435.4844 730.5013,434.2031 L730.5013,433.0469 Q730.5013,431.7188 731.1184,430.5703 Q731.7356,429.4219 732.8294,428.8047 Q733.9231,428.1875 735.1575,428.1875 Q735.8919,428.1875 736.5403,428.3516 Q737.1888,428.5156 737.7356,428.875 Z "/><text fill="#000000" font-family="sans-serif" font-size="12" lengthAdjust="spacingAndGlyphs" textLength="45" x="755.47" y="437.9102">Registry</text><line style="stroke: #A80036; stroke-width: 1.5;" x1="666.72" x2="856.72" y1="449" y2="449"/><rect fill="none" height="6" style="stroke: #C82930; stroke-width: 1.0;" width="6" x="673.72" y="458.418"/><text fill="#000000" font-family="sans-serif" font-size="11" lengthAdjust="spacingAndGlyphs" textLength="166" x="685.72" y="464.4189">mementoList: ArrayList&lt;Memento&gt;</text><rect fill="none" height="6" style="stroke: #C82930; stroke-width: 1.0;" width="6" x="673.72" y="472.2539"/><text fill="#000000" font-family="sans-serif" font-size="11" lengthAdjust="spacingAndGlyphs" textLength="60" x="685.72" y="478.2549">game: Game</text><rect fill="none" height="6" style="stroke: #C82930; stroke-width: 1.0;" width="6" x="673.72" y="486.0898"/><text fill="#000000" font-family="sans-serif" font-size="11" lengthAdjust="spacingAndGlyphs" textLength="78" x="685.72" y="492.0908">firstPrevious: int</text><line style="stroke: #A80036; stroke-width: 1.5;" x1="666.72" x2="856.72" y1="498.5078" y2="498.5078"/><polygon fill="#4177AF" points="676.72,506.9258,672.72,512.9258,680.72,512.9258" style="stroke: #1963A0; stroke-width: 1.0;"/><text fill="#000000" font-family="sans-serif" font-size="11" lengthAdjust="spacingAndGlyphs" textLength="76" x="685.72" y="513.9268">Registry(Game)</text><ellipse cx="676.72" cy="524.7617" fill="#84BE84" rx="3" ry="3" style="stroke: #038048; stroke-width: 1.0;"/><text fill="#000000" font-family="sans-serif" font-size="11" lengthAdjust="spacingAndGlyphs" textLength="59" x="685.72" y="527.7627">reset(): void</text><polygon fill="#4177AF" points="676.72,534.5977,672.72,540.5977,680.72,540.5977" style="stroke: #1963A0; stroke-width: 1.0;"/><text fill="#000000" font-family="sans-serif" font-size="11" lengthAdjust="spacingAndGlyphs" textLength="71" x="685.72" y="541.5986">registry(): void</text><polygon fill="#4177AF" points="676.72,548.4336,672.72,554.4336,680.72,554.4336" style="stroke: #1963A0; stroke-width: 1.0;"/><text fill="#000000" font-family="sans-serif" font-size="11" lengthAdjust="spacingAndGlyphs" textLength="96" x="685.72" y="555.4346">undoable(): boolean</text><polygon fill="#4177AF" points="676.72,562.2695,672.72,568.2695,680.72,568.2695" style="stroke: #1963A0; stroke-width: 1.0;"/><text fill="#000000" font-family="sans-serif" font-size="11" lengthAdjust="spacingAndGlyphs" textLength="94" x="685.72" y="569.2705">redoable(): boolean</text><polygon fill="#4177AF" points="676.72,576.1055,672.72,582.1055,680.72,582.1055" style="stroke: #1963A0; stroke-width: 1.0;"/><text fill="#000000" font-family="sans-serif" font-size="11" lengthAdjust="spacingAndGlyphs" textLength="86" x="685.72" y="583.1064">undo(Game): void</text><polygon fill="#4177AF" points="676.72,589.9414,672.72,595.9414,680.72,595.9414" style="stroke: #1963A0; stroke-width: 1.0;"/><text fill="#000000" font-family="sans-serif" font-size="11" lengthAdjust="spacingAndGlyphs" textLength="84" x="685.72" y="596.9424">redo(Game): void</text><!--class mastermind.models.Session--><rect fill="#FEFECE" filter="url(#fy9ayrdlwkl0e)" height="297.0469" id="mastermind.models.Session" style="stroke: #A80036; stroke-width: 1.5;" width="262" x="434.72" y="60"/><ellipse cx="538.47" cy="76" fill="#ADD1B2" rx="11" ry="11" style="stroke: #A80036; stroke-width: 1.0;"/><path d="M541.2356,71.875 Q541.3919,71.6563 541.5794,71.5469 Q541.7669,71.4375 541.9856,71.4375 Q542.3606,71.4375 542.595,71.6953 Q542.8294,71.9531 542.8294,72.5625 L542.8294,74.0156 Q542.8294,74.625 542.595,74.8906 Q542.3606,75.1563 541.9856,75.1563 Q541.6419,75.1563 541.4388,74.9531 Q541.2356,74.7656 541.1263,74.25 Q541.0794,73.8906 540.8919,73.7031 Q540.5638,73.3281 539.9544,73.1094 Q539.345,72.8906 538.72,72.8906 Q537.9544,72.8906 537.3216,73.2188 Q536.6888,73.5469 536.1966,74.2969 Q535.7044,75.0469 535.7044,76.0781 L535.7044,77.1719 Q535.7044,78.4063 536.595,79.2266 Q537.4856,80.0469 539.0794,80.0469 Q540.0169,80.0469 540.6731,79.7969 Q541.0638,79.6406 541.4856,79.2031 Q541.7513,78.9375 541.8997,78.8594 Q542.0481,78.7813 542.2513,78.7813 Q542.5794,78.7813 542.8372,79.0391 Q543.095,79.2969 543.095,79.6406 Q543.095,79.9844 542.7513,80.3906 Q542.2513,80.9688 541.4544,81.2969 Q540.3763,81.75 539.0794,81.75 Q537.5638,81.75 536.3606,81.125 Q535.3763,80.625 534.6888,79.5547 Q534.0013,78.4844 534.0013,77.2031 L534.0013,76.0469 Q534.0013,74.7188 534.6184,73.5703 Q535.2356,72.4219 536.3294,71.8047 Q537.4231,71.1875 538.6575,71.1875 Q539.3919,71.1875 540.0403,71.3516 Q540.6888,71.5156 541.2356,71.875 Z "/><text fill="#000000" font-family="sans-serif" font-size="12" lengthAdjust="spacingAndGlyphs" textLength="46" x="558.97" y="80.9102">Session</text><line style="stroke: #A80036; stroke-width: 1.5;" x1="435.72" x2="695.72" y1="92" y2="92"/><rect fill="none" height="6" style="stroke: #C82930; stroke-width: 1.0;" width="6" x="442.72" y="101.418"/><text fill="#000000" font-family="sans-serif" font-size="11" lengthAdjust="spacingAndGlyphs" textLength="55" x="454.72" y="107.4189">state: State</text><rect fill="none" height="6" style="stroke: #C82930; stroke-width: 1.0;" width="6" x="442.72" y="115.2539"/><text fill="#000000" font-family="sans-serif" font-size="11" lengthAdjust="spacingAndGlyphs" textLength="60" x="454.72" y="121.2549">game: Game</text><rect fill="none" height="6" style="stroke: #C82930; stroke-width: 1.0;" width="6" x="442.72" y="129.0898"/><text fill="#000000" font-family="sans-serif" font-size="11" lengthAdjust="spacingAndGlyphs" textLength="83" x="454.72" y="135.0908">registry: Registry</text><rect fill="none" height="6" style="stroke: #C82930; stroke-width: 1.0;" width="6" x="442.72" y="142.9258"/><text fill="#000000" font-family="sans-serif" font-size="11" lengthAdjust="spacingAndGlyphs" textLength="56" x="454.72" y="148.9268">tcpip: TCPIP</text><line style="stroke: #A80036; stroke-width: 1.5;" x1="435.72" x2="695.72" y1="155.3438" y2="155.3438"/><ellipse cx="445.72" cy="167.7617" fill="#84BE84" rx="3" ry="3" style="stroke: #038048; stroke-width: 1.0;"/><text fill="#000000" font-family="sans-serif" font-size="11" lengthAdjust="spacingAndGlyphs" textLength="74" x="454.72" y="170.7627">Session(TCPIP)</text><ellipse cx="445.72" cy="181.5977" fill="#84BE84" rx="3" ry="3" style="stroke: #038048; stroke-width: 1.0;"/><text fill="#000000" font-family="sans-serif" font-size="11" lengthAdjust="spacingAndGlyphs" textLength="55" x="454.72" y="184.5986">next(): void</text><ellipse cx="445.72" cy="195.4336" fill="#84BE84" rx="3" ry="3" style="stroke: #038048; stroke-width: 1.0;"/><text fill="#000000" font-family="sans-serif" font-size="11" lengthAdjust="spacingAndGlyphs" textLength="70" x="454.72" y="198.4346">resume(): void</text><ellipse cx="445.72" cy="209.2695" fill="#84BE84" rx="3" ry="3" style="stroke: #038048; stroke-width: 1.0;"/><text fill="#000000" font-family="sans-serif" font-size="11" lengthAdjust="spacingAndGlyphs" textLength="236" x="454.72" y="212.2705">proposeCombination(ProposedCombination): void</text><ellipse cx="445.72" cy="223.1055" fill="#84BE84" rx="3" ry="3" style="stroke: #038048; stroke-width: 1.0;"/><text fill="#000000" font-family="sans-serif" font-size="11" lengthAdjust="spacingAndGlyphs" textLength="96" x="454.72" y="226.1064">undoable(): boolean</text><ellipse cx="445.72" cy="236.9414" fill="#84BE84" rx="3" ry="3" style="stroke: #038048; stroke-width: 1.0;"/><text fill="#000000" font-family="sans-serif" font-size="11" lengthAdjust="spacingAndGlyphs" textLength="94" x="454.72" y="239.9424">redoable(): boolean</text><ellipse cx="445.72" cy="250.7773" fill="#84BE84" rx="3" ry="3" style="stroke: #038048; stroke-width: 1.0;"/><text fill="#000000" font-family="sans-serif" font-size="11" lengthAdjust="spacingAndGlyphs" textLength="67" x="454.72" y="253.7783">getWidth(): int</text><ellipse cx="445.72" cy="264.6133" fill="#84BE84" rx="3" ry="3" style="stroke: #038048; stroke-width: 1.0;"/><text fill="#000000" font-family="sans-serif" font-size="11" lengthAdjust="spacingAndGlyphs" textLength="58" x="454.72" y="267.6143">undo(): void</text><ellipse cx="445.72" cy="278.4492" fill="#84BE84" rx="3" ry="3" style="stroke: #038048; stroke-width: 1.0;"/><text fill="#000000" font-family="sans-serif" font-size="11" lengthAdjust="spacingAndGlyphs" textLength="135" x="454.72" y="281.4502">getValueState(): StateValue</text><ellipse cx="445.72" cy="292.2852" fill="#84BE84" rx="3" ry="3" style="stroke: #038048; stroke-width: 1.0;"/><text fill="#000000" font-family="sans-serif" font-size="11" lengthAdjust="spacingAndGlyphs" textLength="94" x="454.72" y="295.2861">isWinner(): boolean</text><ellipse cx="445.72" cy="306.1211" fill="#84BE84" rx="3" ry="3" style="stroke: #038048; stroke-width: 1.0;"/><text fill="#000000" font-family="sans-serif" font-size="11" lengthAdjust="spacingAndGlyphs" textLength="62" x="454.72" y="309.1221">getTurn(): int</text><ellipse cx="445.72" cy="319.957" fill="#84BE84" rx="3" ry="3" style="stroke: #038048; stroke-width: 1.0;"/><text fill="#000000" font-family="sans-serif" font-size="11" lengthAdjust="spacingAndGlyphs" textLength="56" x="454.72" y="322.958">redo(): void</text><ellipse cx="445.72" cy="333.793" fill="#84BE84" rx="3" ry="3" style="stroke: #038048; stroke-width: 1.0;"/><text fill="#000000" font-family="sans-serif" font-size="11" lengthAdjust="spacingAndGlyphs" textLength="89" x="454.72" y="336.7939">getCodes(): int[][][]</text><ellipse cx="445.72" cy="347.6289" fill="#84BE84" rx="3" ry="3" style="stroke: #038048; stroke-width: 1.0;"/><text fill="#000000" font-family="sans-serif" font-size="11" lengthAdjust="spacingAndGlyphs" textLength="94" x="454.72" y="350.6299">isLooser(): boolean</text><!--class mastermind.models.State--><rect fill="#FEFECE" filter="url(#fy9ayrdlwkl0e)" height="117.1797" id="mastermind.models.State" style="stroke: #A80036; stroke-width: 1.5;" width="161" x="289.22" y="451.5"/><ellipse cx="351.47" cy="467.5" fill="#ADD1B2" rx="11" ry="11" style="stroke: #A80036; stroke-width: 1.0;"/><path d="M354.2356,463.375 Q354.3919,463.1563 354.5794,463.0469 Q354.7669,462.9375 354.9856,462.9375 Q355.3606,462.9375 355.595,463.1953 Q355.8294,463.4531 355.8294,464.0625 L355.8294,465.5156 Q355.8294,466.125 355.595,466.3906 Q355.3606,466.6563 354.9856,466.6563 Q354.6419,466.6563 354.4388,466.4531 Q354.2356,466.2656 354.1263,465.75 Q354.0794,465.3906 353.8919,465.2031 Q353.5638,464.8281 352.9544,464.6094 Q352.345,464.3906 351.72,464.3906 Q350.9544,464.3906 350.3216,464.7188 Q349.6888,465.0469 349.1966,465.7969 Q348.7044,466.5469 348.7044,467.5781 L348.7044,468.6719 Q348.7044,469.9063 349.595,470.7266 Q350.4856,471.5469 352.0794,471.5469 Q353.0169,471.5469 353.6731,471.2969 Q354.0638,471.1406 354.4856,470.7031 Q354.7513,470.4375 354.8997,470.3594 Q355.0481,470.2813 355.2513,470.2813 Q355.5794,470.2813 355.8372,470.5391 Q356.095,470.7969 356.095,471.1406 Q356.095,471.4844 355.7513,471.8906 Q355.2513,472.4688 354.4544,472.7969 Q353.3763,473.25 352.0794,473.25 Q350.5638,473.25 349.3606,472.625 Q348.3763,472.125 347.6888,471.0547 Q347.0013,469.9844 347.0013,468.7031 L347.0013,467.5469 Q347.0013,466.2188 347.6184,465.0703 Q348.2356,463.9219 349.3294,463.3047 Q350.4231,462.6875 351.6575,462.6875 Q352.3919,462.6875 353.0403,462.8516 Q353.6888,463.0156 354.2356,463.375 Z "/><text fill="#000000" font-family="sans-serif" font-size="12" lengthAdjust="spacingAndGlyphs" textLength="28" x="371.97" y="472.4102">State</text><line style="stroke: #A80036; stroke-width: 1.5;" x1="290.22" x2="449.22" y1="483.5" y2="483.5"/><rect fill="none" height="6" style="stroke: #C82930; stroke-width: 1.0;" width="6" x="297.22" y="492.918"/><text fill="#000000" font-family="sans-serif" font-size="11" lengthAdjust="spacingAndGlyphs" textLength="111" x="309.22" y="498.9189">stateValue: StateValue</text><line style="stroke: #A80036; stroke-width: 1.5;" x1="290.22" x2="449.22" y1="505.3359" y2="505.3359"/><ellipse cx="300.22" cy="517.7539" fill="#84BE84" rx="3" ry="3" style="stroke: #038048; stroke-width: 1.0;"/><text fill="#000000" font-family="sans-serif" font-size="11" lengthAdjust="spacingAndGlyphs" textLength="33" x="309.22" y="520.7549">State()</text><ellipse cx="300.22" cy="531.5898" fill="#84BE84" rx="3" ry="3" style="stroke: #038048; stroke-width: 1.0;"/><text fill="#000000" font-family="sans-serif" font-size="11" lengthAdjust="spacingAndGlyphs" textLength="55" x="309.22" y="534.5908">next(): void</text><ellipse cx="300.22" cy="545.4258" fill="#84BE84" rx="3" ry="3" style="stroke: #038048; stroke-width: 1.0;"/><text fill="#000000" font-family="sans-serif" font-size="11" lengthAdjust="spacingAndGlyphs" textLength="59" x="309.22" y="548.4268">reset(): void</text><ellipse cx="300.22" cy="559.2617" fill="#84BE84" rx="3" ry="3" style="stroke: #038048; stroke-width: 1.0;"/><text fill="#000000" font-family="sans-serif" font-size="11" lengthAdjust="spacingAndGlyphs" textLength="135" x="309.22" y="562.2627">getValueState(): StateValue</text><!--class mastermind.models.StateValue--><rect fill="#FEFECE" filter="url(#fy9ayrdlwkl0e)" height="131.0156" id="mastermind.models.StateValue" style="stroke: #A80036; stroke-width: 1.5;" width="159" x="278.22" y="725.5"/><ellipse cx="323.97" cy="741.5" fill="#ADD1B2" rx="11" ry="11" style="stroke: #A80036; stroke-width: 1.0;"/><path d="M326.7356,737.375 Q326.8919,737.1563 327.0794,737.0469 Q327.2669,736.9375 327.4856,736.9375 Q327.8606,736.9375 328.095,737.1953 Q328.3294,737.4531 328.3294,738.0625 L328.3294,739.5156 Q328.3294,740.125 328.095,740.3906 Q327.8606,740.6563 327.4856,740.6563 Q327.1419,740.6563 326.9388,740.4531 Q326.7356,740.2656 326.6263,739.75 Q326.5794,739.3906 326.3919,739.2031 Q326.0638,738.8281 325.4544,738.6094 Q324.845,738.3906 324.22,738.3906 Q323.4544,738.3906 322.8216,738.7188 Q322.1888,739.0469 321.6966,739.7969 Q321.2044,740.5469 321.2044,741.5781 L321.2044,742.6719 Q321.2044,743.9063 322.095,744.7266 Q322.9856,745.5469 324.5794,745.5469 Q325.5169,745.5469 326.1731,745.2969 Q326.5638,745.1406 326.9856,744.7031 Q327.2513,744.4375 327.3997,744.3594 Q327.5481,744.2813 327.7513,744.2813 Q328.0794,744.2813 328.3372,744.5391 Q328.595,744.7969 328.595,745.1406 Q328.595,745.4844 328.2513,745.8906 Q327.7513,746.4688 326.9544,746.7969 Q325.8763,747.25 324.5794,747.25 Q323.0638,747.25 321.8606,746.625 Q320.8763,746.125 320.1888,745.0547 Q319.5013,743.9844 319.5013,742.7031 L319.5013,741.5469 Q319.5013,740.2188 320.1184,739.0703 Q320.7356,737.9219 321.8294,737.3047 Q322.9231,736.6875 324.1575,736.6875 Q324.8919,736.6875 325.5403,736.8516 Q326.1888,737.0156 326.7356,737.375 Z "/><text fill="#000000" font-family="sans-serif" font-size="12" lengthAdjust="spacingAndGlyphs" textLength="59" x="344.47" y="746.4102">StateValue</text><line style="stroke: #A80036; stroke-width: 1.5;" x1="279.22" x2="436.22" y1="757.5" y2="757.5"/><ellipse cx="289.22" cy="769.918" fill="none" rx="3" ry="3" style="stroke: #038048; stroke-width: 1.0;"/><text fill="#000000" font-family="sans-serif" font-size="11" lengthAdjust="spacingAndGlyphs" text-decoration="underline" textLength="92" x="298.22" y="772.9189">INITIAL: StateValue</text><ellipse cx="289.22" cy="783.7539" fill="none" rx="3" ry="3" style="stroke: #038048; stroke-width: 1.0;"/><text fill="#000000" font-family="sans-serif" font-size="11" lengthAdjust="spacingAndGlyphs" text-decoration="underline" textLength="104" x="298.22" y="786.7549">IN_GAME: StateValue</text><ellipse cx="289.22" cy="797.5898" fill="none" rx="3" ry="3" style="stroke: #038048; stroke-width: 1.0;"/><text fill="#000000" font-family="sans-serif" font-size="11" lengthAdjust="spacingAndGlyphs" text-decoration="underline" textLength="88" x="298.22" y="800.5908">FINAL: StateValue</text><ellipse cx="289.22" cy="811.4258" fill="none" rx="3" ry="3" style="stroke: #038048; stroke-width: 1.0;"/><text fill="#000000" font-family="sans-serif" font-size="11" lengthAdjust="spacingAndGlyphs" text-decoration="underline" textLength="80" x="298.22" y="814.4268">EXIT: StateValue</text><line style="stroke: #A80036; stroke-width: 1.5;" x1="279.22" x2="436.22" y1="820.8438" y2="820.8438"/><rect fill="#F24D5C" height="6" style="stroke: #C82930; stroke-width: 1.0;" width="6" x="286.22" y="830.2617"/><text fill="#000000" font-family="sans-serif" font-size="11" lengthAdjust="spacingAndGlyphs" textLength="61" x="298.22" y="836.2627">StateValue()</text><ellipse cx="289.22" cy="847.0977" fill="#84BE84" rx="3" ry="3" style="stroke: #038048; stroke-width: 1.0;"/><text fill="#000000" font-family="sans-serif" font-size="11" lengthAdjust="spacingAndGlyphs" text-decoration="underline" textLength="133" x="298.22" y="850.0986">valueOf(String): StateValue</text><!--class java.util.List--><rect fill="#FEFECE" filter="url(#fy9ayrdlwkl0e)" height="48" id="java.util.List" style="stroke: #A80036; stroke-width: 1.5;" width="52" x="952.72" y="1280.5"/><ellipse cx="967.72" cy="1296.5" fill="#ADD1B2" rx="11" ry="11" style="stroke: #A80036; stroke-width: 1.0;"/><path d="M970.4856,1292.375 Q970.6419,1292.1563 970.8294,1292.0469 Q971.0169,1291.9375 971.2356,1291.9375 Q971.6106,1291.9375 971.845,1292.1953 Q972.0794,1292.4531 972.0794,1293.0625 L972.0794,1294.5156 Q972.0794,1295.125 971.845,1295.3906 Q971.6106,1295.6563 971.2356,1295.6563 Q970.8919,1295.6563 970.6888,1295.4531 Q970.4856,1295.2656 970.3763,1294.75 Q970.3294,1294.3906 970.1419,1294.2031 Q969.8138,1293.8281 969.2044,1293.6094 Q968.595,1293.3906 967.97,1293.3906 Q967.2044,1293.3906 966.5716,1293.7188 Q965.9388,1294.0469 965.4466,1294.7969 Q964.9544,1295.5469 964.9544,1296.5781 L964.9544,1297.6719 Q964.9544,1298.9063 965.845,1299.7266 Q966.7356,1300.5469 968.3294,1300.5469 Q969.2669,1300.5469 969.9231,1300.2969 Q970.3138,1300.1406 970.7356,1299.7031 Q971.0013,1299.4375 971.1497,1299.3594 Q971.2981,1299.2813 971.5013,1299.2813 Q971.8294,1299.2813 972.0872,1299.5391 Q972.345,1299.7969 972.345,1300.1406 Q972.345,1300.4844 972.0013,1300.8906 Q971.5013,1301.4688 970.7044,1301.7969 Q969.6263,1302.25 968.3294,1302.25 Q966.8138,1302.25 965.6106,1301.625 Q964.6263,1301.125 963.9388,1300.0547 Q963.2513,1298.9844 963.2513,1297.7031 L963.2513,1296.5469 Q963.2513,1295.2188 963.8684,1294.0703 Q964.4856,1292.9219 965.5794,1292.3047 Q966.6731,1291.6875 967.9075,1291.6875 Q968.6419,1291.6875 969.2903,1291.8516 Q969.9388,1292.0156 970.4856,1292.375 Z "/><text fill="#000000" font-family="sans-serif" font-size="12" lengthAdjust="spacingAndGlyphs" textLength="20" x="981.72" y="1301.4102">List</text><line style="stroke: #A80036; stroke-width: 1.5;" x1="953.72" x2="1003.72" y1="1312.5" y2="1312.5"/><line style="stroke: #A80036; stroke-width: 1.5;" x1="953.72" x2="1003.72" y1="1320.5" y2="1320.5"/><!--class java.util.ArrayList--><rect fill="#FEFECE" filter="url(#fy9ayrdlwkl0e)" height="48" id="java.util.ArrayList" style="stroke: #A80036; stroke-width: 1.5;" width="79" x="1040.22" y="1280.5"/><ellipse cx="1055.22" cy="1296.5" fill="#ADD1B2" rx="11" ry="11" style="stroke: #A80036; stroke-width: 1.0;"/><path d="M1057.9856,1292.375 Q1058.1419,1292.1563 1058.3294,1292.0469 Q1058.5169,1291.9375 1058.7356,1291.9375 Q1059.1106,1291.9375 1059.345,1292.1953 Q1059.5794,1292.4531 1059.5794,1293.0625 L1059.5794,1294.5156 Q1059.5794,1295.125 1059.345,1295.3906 Q1059.1106,1295.6563 1058.7356,1295.6563 Q1058.3919,1295.6563 1058.1888,1295.4531 Q1057.9856,1295.2656 1057.8763,1294.75 Q1057.8294,1294.3906 1057.6419,1294.2031 Q1057.3138,1293.8281 1056.7044,1293.6094 Q1056.095,1293.3906 1055.47,1293.3906 Q1054.7044,1293.3906 1054.0716,1293.7188 Q1053.4388,1294.0469 1052.9466,1294.7969 Q1052.4544,1295.5469 1052.4544,1296.5781 L1052.4544,1297.6719 Q1052.4544,1298.9063 1053.345,1299.7266 Q1054.2356,1300.5469 1055.8294,1300.5469 Q1056.7669,1300.5469 1057.4231,1300.2969 Q1057.8138,1300.1406 1058.2356,1299.7031 Q1058.5013,1299.4375 1058.6497,1299.3594 Q1058.7981,1299.2813 1059.0013,1299.2813 Q1059.3294,1299.2813 1059.5872,1299.5391 Q1059.845,1299.7969 1059.845,1300.1406 Q1059.845,1300.4844 1059.5013,1300.8906 Q1059.0013,1301.4688 1058.2044,1301.7969 Q1057.1263,1302.25 1055.8294,1302.25 Q1054.3138,1302.25 1053.1106,1301.625 Q1052.1263,1301.125 1051.4388,1300.0547 Q1050.7513,1298.9844 1050.7513,1297.7031 L1050.7513,1296.5469 Q1050.7513,1295.2188 1051.3684,1294.0703 Q1051.9856,1292.9219 1053.0794,1292.3047 Q1054.1731,1291.6875 1055.4075,1291.6875 Q1056.1419,1291.6875 1056.7903,1291.8516 Q1057.4388,1292.0156 1057.9856,1292.375 Z "/><text fill="#000000" font-family="sans-serif" font-size="12" lengthAdjust="spacingAndGlyphs" textLength="47" x="1069.22" y="1301.4102">ArrayList</text><line style="stroke: #A80036; stroke-width: 1.5;" x1="1041.22" x2="1118.22" y1="1312.5" y2="1312.5"/><line style="stroke: #A80036; stroke-width: 1.5;" x1="1041.22" x2="1118.22" y1="1320.5" y2="1320.5"/><!--class mastermind.utils.TCPIP--><rect fill="#FEFECE" filter="url(#fy9ayrdlwkl0e)" height="48" id="mastermind.utils.TCPIP" style="stroke: #A80036; stroke-width: 1.5;" width="67" x="947.22" y="486"/><ellipse cx="962.22" cy="502" fill="#ADD1B2" rx="11" ry="11" style="stroke: #A80036; stroke-width: 1.0;"/><path d="M964.9856,497.875 Q965.1419,497.6563 965.3294,497.5469 Q965.5169,497.4375 965.7356,497.4375 Q966.1106,497.4375 966.345,497.6953 Q966.5794,497.9531 966.5794,498.5625 L966.5794,500.0156 Q966.5794,500.625 966.345,500.8906 Q966.1106,501.1563 965.7356,501.1563 Q965.3919,501.1563 965.1888,500.9531 Q964.9856,500.7656 964.8763,500.25 Q964.8294,499.8906 964.6419,499.7031 Q964.3138,499.3281 963.7044,499.1094 Q963.095,498.8906 962.47,498.8906 Q961.7044,498.8906 961.0716,499.2188 Q960.4388,499.5469 959.9466,500.2969 Q959.4544,501.0469 959.4544,502.0781 L959.4544,503.1719 Q959.4544,504.4063 960.345,505.2266 Q961.2356,506.0469 962.8294,506.0469 Q963.7669,506.0469 964.4231,505.7969 Q964.8138,505.6406 965.2356,505.2031 Q965.5013,504.9375 965.6497,504.8594 Q965.7981,504.7813 966.0013,504.7813 Q966.3294,504.7813 966.5872,505.0391 Q966.845,505.2969 966.845,505.6406 Q966.845,505.9844 966.5013,506.3906 Q966.0013,506.9688 965.2044,507.2969 Q964.1263,507.75 962.8294,507.75 Q961.3138,507.75 960.1106,507.125 Q959.1263,506.625 958.4388,505.5547 Q957.7513,504.4844 957.7513,503.2031 L957.7513,502.0469 Q957.7513,500.7188 958.3684,499.5703 Q958.9856,498.4219 960.0794,497.8047 Q961.1731,497.1875 962.4075,497.1875 Q963.1419,497.1875 963.7903,497.3516 Q964.4388,497.5156 964.9856,497.875 Z "/><text fill="#000000" font-family="sans-serif" font-size="12" lengthAdjust="spacingAndGlyphs" textLength="35" x="976.22" y="506.9102">TCPIP</text><line style="stroke: #A80036; stroke-width: 1.5;" x1="948.22" x2="1013.22" y1="518" y2="518"/><line style="stroke: #A80036; stroke-width: 1.5;" x1="948.22" x2="1013.22" y1="526" y2="526"/><!--link mastermind.models.Combination to java.util.List--><path d="M207.651,854.724 C219.701,878.803 237.004,904.065 260.72,919 C382.905,995.945 799.538,883.362 907.72,979 C950.53,1016.846 969.607,1190.543 976.041,1267.093 " fill="none" id="mastermind.models.Combination-java.util.List" style="stroke: #A80036; stroke-width: 1.0;"/><polygon fill="#A80036" points="977.098,1280.201,980.3621,1270.9087,976.6963,1275.2172,972.3879,1271.5514,977.098,1280.201" style="stroke: #A80036; stroke-width: 1.0;"/><line style="stroke: #A80036; stroke-width: 1.0;" x1="976.6963" x2="976.053" y1="1275.2172" y2="1267.2435"/><polygon fill="#A80036" points="201.988,842.676,200.9205,849.8076,207.0929,853.536,208.1605,846.4044,201.988,842.676" style="stroke: #A80036; stroke-width: 1.0;"/><!--link mastermind.models.Combination to mastermind.models.Color--><path d="M184.72,855.959 C184.72,888.373 184.72,928.578 184.72,965.421 " fill="none" id="mastermind.models.Combination-mastermind.models.Color" style="stroke: #A80036; stroke-width: 1.0;"/><polygon fill="#A80036" points="184.72,978.823,188.72,969.823,184.72,973.823,180.72,969.823,184.72,978.823" style="stroke: #A80036; stroke-width: 1.0;"/><line style="stroke: #A80036; stroke-width: 1.0;" x1="184.72" x2="184.72" y1="973.823" y2="965.823"/><polygon fill="#A80036" points="184.72,842.525,180.72,848.525,184.72,854.525,188.72,848.525,184.72,842.525" style="stroke: #A80036; stroke-width: 1.0;"/><!--link mastermind.models.Game to java.util.List--><path d="M760.128,830.473 C836.655,858.388 923.139,904.657 969.72,979 C1026.45,1069.545 1004.09,1203.953 988.671,1267.596 " fill="none" id="mastermind.models.Game-java.util.List" style="stroke: #A80036; stroke-width: 1.0;"/><polygon fill="#A80036" points="985.423,1280.417,991.511,1272.6751,986.6511,1275.5702,983.756,1270.7102,985.423,1280.417" style="stroke: #A80036; stroke-width: 1.0;"/><line style="stroke: #A80036; stroke-width: 1.0;" x1="986.6511" x2="988.6155" y1="1275.5702" y2="1267.8155"/><polygon fill="#A80036" points="747.448,825.98,751.7678,831.754,758.7591,829.9873,754.4393,824.2133,747.448,825.98" style="stroke: #A80036; stroke-width: 1.0;"/><!--link mastermind.models.Game to mastermind.models.SecretCombination--><path d="M503.825,930.059 C478.082,963.622 452.253,997.296 432.3,1023.309 " fill="none" id="mastermind.models.Game-mastermind.models.SecretCombination" style="stroke: #A80036; stroke-width: 1.0;"/><polygon fill="#A80036" points="424.126,1033.966,432.7778,1029.26,427.1694,1029.9989,426.4305,1024.3906,424.126,1033.966" style="stroke: #A80036; stroke-width: 1.0;"/><line style="stroke: #A80036; stroke-width: 1.0;" x1="427.1694" x2="432.038" y1="1029.9989" y2="1023.6505"/><polygon fill="#A80036" points="512.113,919.253,505.2874,921.5792,504.8094,928.7744,511.635,926.4482,512.113,919.253" style="stroke: #A80036; stroke-width: 1.0;"/><!--link mastermind.models.Game to mastermind.models.Result--><path d="M600.158,932.387 C599.251,948.108 598.414,963.894 597.72,979 C594.115,1057.479 591.767,1146.706 590.377,1211.706 " fill="none" id="mastermind.models.Game-mastermind.models.Result" style="stroke: #A80036; stroke-width: 1.0;"/><polygon fill="#A80036" points="590.103,1224.784,594.291,1215.8699,590.2079,1219.7851,586.2928,1215.702,590.103,1224.784" style="stroke: #A80036; stroke-width: 1.0;"/><line style="stroke: #A80036; stroke-width: 1.0;" x1="590.2079" x2="590.375" y1="1219.7851" y2="1211.7875"/><polygon fill="#A80036" points="600.933,919.213,596.5872,924.9674,600.2275,931.1922,604.5733,925.4378,600.933,919.213" style="stroke: #A80036; stroke-width: 1.0;"/><!--link mastermind.models.Game to mastermind.models.ProposedCombination--><path d="M587.756,919.2 C570.65,1009.954 545.98,1123.059 522.72,1165 C511.7,1184.87 497.008,1203.818 481.318,1220.968 " fill="none" id="mastermind.models.Game-mastermind.models.ProposedCombination" style="stroke: #A80036; stroke-width: 1.0;"/><polygon fill="#A80036" points="477.742,1224.827,486.7927,1220.9431,481.14,1221.1591,480.924,1215.5063,477.742,1224.827" style="stroke: #A80036; stroke-width: 1.0;"/><!--link mastermind.models.Game to mastermind.models.Memento--><path d="M674.943,919.253 C685.536,939.922 696.315,960.951 706.339,980.509 " fill="none" id="mastermind.models.Game-mastermind.models.Memento" style="stroke: #A80036; stroke-width: 1.0; stroke-dasharray: 7.0,7.0;"/><polygon fill="#A80036" points="708.871,985.448,708.3232,975.6144,706.5893,980.999,701.2048,979.2651,708.871,985.448" style="stroke: #A80036; stroke-width: 1.0;"/><!--link mastermind.models.Memento to java.util.List--><path d="M850.501,1168.063 C869.326,1186.772 888.765,1206.375 906.72,1225 C920.869,1239.677 936.184,1256.271 949.037,1270.409 " fill="none" id="mastermind.models.Memento-java.util.List" style="stroke: #A80036; stroke-width: 1.0;"/><polygon fill="#A80036" points="957.909,1280.207,954.8335,1270.8506,954.5531,1276.5005,948.9032,1276.2201,957.909,1280.207" style="stroke: #A80036; stroke-width: 1.0;"/><line style="stroke: #A80036; stroke-width: 1.0;" x1="954.5531" x2="949.183" y1="1276.5005" y2="1270.57"/><polygon fill="#A80036" points="841.022,1158.667,842.467,1165.7318,849.5441,1167.1153,848.0992,1160.0504,841.022,1158.667" style="stroke: #A80036; stroke-width: 1.0;"/><!--link mastermind.models.Memento to mastermind.models.Result--><path d="M691.885,1158.502 C677.418,1178.836 662.006,1200.497 647.627,1220.707 " fill="none" id="mastermind.models.Memento-mastermind.models.Result" style="stroke: #A80036; stroke-width: 1.0;"/><polygon fill="#A80036" points="644.574,1224.997,653.0506,1219.9823,647.4725,1220.9228,646.5319,1215.3447,644.574,1224.997" style="stroke: #A80036; stroke-width: 1.0;"/><!--link mastermind.models.Memento to mastermind.models.ProposedCombination--><path d="M616.213,1158.502 C577.295,1182.879 535.333,1209.162 497.964,1232.568 " fill="none" id="mastermind.models.Memento-mastermind.models.ProposedCombination" style="stroke: #A80036; stroke-width: 1.0;"/><polygon fill="#A80036" points="493.431,1235.408,503.1816,1234.02,497.6683,1232.7536,498.9346,1227.2403,493.431,1235.408" style="stroke: #A80036; stroke-width: 1.0;"/><!--link mastermind.models.Combination to mastermind.models.ProposedCombination--><path d="M140.938,860.186 C96.3654,939.109 41.5696,1070.345 100.7198,1165 C139.02,1226.29 213.119,1261.178 276.025,1280.606 " fill="none" id="mastermind.models.Combination-mastermind.models.ProposedCombination" style="stroke: #A80036; stroke-width: 1.0;"/><polygon fill="none" points="134.989,856.49,151.109,842.737,147.085,863.541,134.989,856.49" style="stroke: #A80036; stroke-width: 1.0;"/><!--link mastermind.models.ProposedCombination to mastermind.models.Error--><path d="M384.72,1384.091 C384.72,1402.14 384.72,1421.104 384.72,1438.399 " fill="none" id="mastermind.models.ProposedCombination-mastermind.models.Error" style="stroke: #A80036; stroke-width: 1.0; stroke-dasharray: 7.0,7.0;"/><polygon fill="#A80036" points="384.72,1443.71,388.72,1434.71,384.72,1438.71,380.72,1434.71,384.72,1443.71" style="stroke: #A80036; stroke-width: 1.0;"/><!--link mastermind.models.Registry to mastermind.models.Memento--><path d="M765.201,616.575 C767.263,698.975 768.767,816.311 764.72,919 C764.039,936.263 762.926,954.602 761.645,972.348 " fill="none" id="mastermind.models.Registry-mastermind.models.Memento" style="stroke: #A80036; stroke-width: 1.0;"/><polygon fill="#A80036" points="760.661,985.456,765.3233,976.7806,761.0352,980.47,757.3458,976.1819,760.661,985.456" style="stroke: #A80036; stroke-width: 1.0;"/><line style="stroke: #A80036; stroke-width: 1.0;" x1="761.0352" x2="761.634" y1="980.47" y2="972.4925"/><polygon fill="#A80036" points="764.859,603.402,761.0159,609.5037,765.1702,615.398,769.0133,609.2962,764.859,603.402" style="stroke: #A80036; stroke-width: 1.0;"/><!--link mastermind.models.Registry to java.util.ArrayList--><path d="M829.269,614.304 C886.611,706.445 966.975,846.826 1014.72,979 C1051.21,1080.018 1069.07,1206.538 1076.05,1267.449 " fill="none" id="mastermind.models.Registry-java.util.ArrayList" style="stroke: #A80036; stroke-width: 1.0;"/><polygon fill="#A80036" points="1077.48,1280.446,1080.4684,1271.0615,1076.9314,1275.4762,1072.5167,1271.9392,1077.48,1280.446" style="stroke: #A80036; stroke-width: 1.0;"/><line style="stroke: #A80036; stroke-width: 1.0;" x1="1076.9314" x2="1076.055" y1="1275.4762" y2="1267.5245"/><polygon fill="#A80036" points="822.218,603.03,822.0088,610.2381,828.5819,613.2035,828.7911,605.9955,822.218,603.03" style="stroke: #A80036; stroke-width: 1.0;"/><!--link mastermind.models.Registry to mastermind.models.Game--><path d="M711.528,603.128 C701.922,620.76 691.692,639.538 681.561,658.134 " fill="none" id="mastermind.models.Registry-mastermind.models.Game" style="stroke: #A80036; stroke-width: 1.0;"/><polygon fill="#A80036" points="678.988,662.857,686.8075,656.869,681.381,658.4668,679.7832,653.0403,678.988,662.857" style="stroke: #A80036; stroke-width: 1.0;"/><!--link mastermind.models.Result to mastermind.models.Result--><path d="M649.02,1267.384 C668.377,1267.765 683.72,1280.137 683.72,1304.5 C683.72,1326.579 671.119,1338.81 654.349,1341.193 " fill="none" id="mastermind.models.Result-mastermind.models.Result" style="stroke: #A80036; stroke-width: 1.0; stroke-dasharray: 7.0,7.0;"/><polygon fill="#A80036" points="649.02,1341.616,658.3083,1344.8914,654.0043,1341.2204,657.6753,1336.9165,649.02,1341.616" style="stroke: #A80036; stroke-width: 1.0;"/><!--link mastermind.models.Combination to mastermind.models.SecretCombination--><path d="M222.208,859.952 C233.832,879.498 247.167,900.518 260.72,919 C291.193,960.554 330.817,1004.149 359.243,1033.942 " fill="none" id="mastermind.models.Combination-mastermind.models.SecretCombination" style="stroke: #A80036; stroke-width: 1.0;"/><polygon fill="none" points="216.078,863.335,212.058,842.531,228.175,856.287,216.078,863.335" style="stroke: #A80036; stroke-width: 1.0;"/><!--link mastermind.models.SecretCombination to mastermind.models.Result--><path d="M426.729,1110.034 C453.151,1141.59 491.976,1187.958 524.992,1227.39 " fill="none" id="mastermind.models.SecretCombination-mastermind.models.Result" style="stroke: #A80036; stroke-width: 1.0; stroke-dasharray: 7.0,7.0;"/><polygon fill="#A80036" points="528.577,1231.672,525.865,1222.2039,525.3667,1227.8388,519.7318,1227.3404,528.577,1231.672" style="stroke: #A80036; stroke-width: 1.0;"/><!--link mastermind.models.SecretCombination to mastermind.models.ProposedCombination--><path d="M393.952,1110.034 C392.546,1139.507 390.523,1181.903 388.729,1219.499 " fill="none" id="mastermind.models.SecretCombination-mastermind.models.ProposedCombination" style="stroke: #A80036; stroke-width: 1.0; stroke-dasharray: 7.0,7.0;"/><polygon fill="#A80036" points="388.488,1224.533,392.9129,1215.7341,388.7266,1219.5387,384.922,1215.3524,388.488,1224.533" style="stroke: #A80036; stroke-width: 1.0;"/><!--link mastermind.models.Session to mastermind.models.Registry--><path d="M669.47,368.04 C677.833,380.82 686.14,393.51 694.146,405.74 " fill="none" id="mastermind.models.Session-mastermind.models.Registry" style="stroke: #A80036; stroke-width: 1.0;"/><polygon fill="#A80036" points="701.407,416.84,699.8288,407.1184,698.6704,412.6554,693.1334,411.497,701.407,416.84" style="stroke: #A80036; stroke-width: 1.0;"/><line style="stroke: #A80036; stroke-width: 1.0;" x1="698.6704" x2="694.2885" y1="412.6554" y2="405.96"/><polygon fill="#A80036" points="662.284,357.06,662.2273,364.2709,668.8617,367.0966,668.9184,359.8857,662.284,357.06" style="stroke: #A80036; stroke-width: 1.0;"/><!--link mastermind.models.Session to mastermind.models.State--><path d="M461.96,368.05 C445.349,393.43 428.958,418.48 414.707,440.26 " fill="none" id="mastermind.models.Session-mastermind.models.State" style="stroke: #A80036; stroke-width: 1.0;"/><polygon fill="#A80036" points="407.46,451.33,415.7339,445.9875,410.1969,447.1456,409.0388,441.6085,407.46,451.33" style="stroke: #A80036; stroke-width: 1.0;"/><line style="stroke: #A80036; stroke-width: 1.0;" x1="410.1969" x2="414.579" y1="447.1456" y2="440.45"/><polygon fill="#A80036" points="469.155,357.06,462.5208,359.8861,462.5779,367.097,469.2121,364.2709,469.155,357.06" style="stroke: #A80036; stroke-width: 1.0;"/><!--link mastermind.models.Session to mastermind.utils.TCPIP--><path d="M708.22,281.53 C772.405,317.55 847.005,364.62 906.72,417 C926.209,434.09 944.502,456.75 958.024,475.3 " fill="none" id="mastermind.models.Session-mastermind.utils.TCPIP" style="stroke: #A80036; stroke-width: 1.0;"/><polygon fill="#A80036" points="965.601,485.96,963.6482,476.3067,962.7047,481.8843,957.1271,480.9408,965.601,485.96" style="stroke: #A80036; stroke-width: 1.0;"/><line style="stroke: #A80036; stroke-width: 1.0;" x1="962.7047" x2="958.067" y1="481.8843" y2="475.365"/><polygon fill="#A80036" points="696.776,275.17,700.0732,281.5831,707.2612,281.0061,703.964,274.593,696.776,275.17" style="stroke: #A80036; stroke-width: 1.0;"/><!--link mastermind.models.Session to mastermind.models.Game--><path d="M577.906,370.27 C584.552,457.96 592.702,565.48 599.089,649.749 " fill="none" id="mastermind.models.Session-mastermind.models.Game" style="stroke: #A80036; stroke-width: 1.0;"/><polygon fill="#A80036" points="600.079,662.801,603.3871,653.5243,599.701,657.8153,595.41,654.1292,600.079,662.801" style="stroke: #A80036; stroke-width: 1.0;"/><line style="stroke: #A80036; stroke-width: 1.0;" x1="599.701" x2="599.096" y1="657.8153" y2="649.838"/><polygon fill="#A80036" points="576.908,357.11,573.3744,363.396,577.8179,369.0755,581.3514,362.7894,576.908,357.11" style="stroke: #A80036; stroke-width: 1.0;"/><!--link mastermind.models.Session to mastermind.models.StateValue--><path d="M539.487,357.05 C523.5,432.3 499.875,524.3 467.72,603 C451.017,643.877 426.543,686.533 404.919,720.765 " fill="none" id="mastermind.models.Session-mastermind.models.StateValue" style="stroke: #A80036; stroke-width: 1.0; stroke-dasharray: 7.0,7.0;"/><polygon fill="#A80036" points="402.024,725.324,410.2247,719.8697,404.7038,721.1028,403.4708,715.582,402.024,725.324" style="stroke: #A80036; stroke-width: 1.0;"/><!--link mastermind.models.Session to mastermind.models.ProposedCombination--><path d="M434.63,286.88 C380.607,322.45 319.593,367.7 271.72,417 C180.352,511.1 154.567,540.12 108.72,663 C30.4688,872.732 -54.8529,977.686 67.7198,1165 C112.52,1233.462 199.408,1268.281 270.904,1285.876 " fill="none" id="mastermind.models.Session-mastermind.models.ProposedCombination" style="stroke: #A80036; stroke-width: 1.0; stroke-dasharray: 7.0,7.0;"/><polygon fill="#A80036" points="276.024,1287.113,268.2152,1281.1111,271.1639,1285.9387,266.3363,1288.8873,276.024,1287.113" style="stroke: #A80036; stroke-width: 1.0;"/><!--link mastermind.models.State to mastermind.models.StateValue--><path d="M367.233,568.81 C365.339,612.853 362.723,673.671 360.714,720.389 " fill="none" id="mastermind.models.State-mastermind.models.StateValue" style="stroke: #A80036; stroke-width: 1.0;"/><polygon fill="#A80036" points="360.497,725.439,364.879,716.6187,360.7113,720.4436,356.8864,716.2759,360.497,725.439" style="stroke: #A80036; stroke-width: 1.0;"/><!--
@startuml

class  mastermind.models.Color{
+ {static} RED: Color
+ {static} BLUE: Color
+ {static} YELLOW: Color
+ {static} GREEN: Color
+ {static} ORANGE: Color
+ {static} PURPLE: Color
- Color()
+ {static} valueOf(String): Color
~ {static} length(): int
~ {static} getInstance(int): Color
}

class  mastermind.models.Combination{
- {static} WIDTH: int
# colors: List<Color>
# Combination()
+ {static} getWidth(): int
}
mastermind.models.Combination *-down-> java.util.List
mastermind.models.Combination *-down-> mastermind.models.Color

class  mastermind.models.Error{
+ {static} DUPLICATED: Error
+ {static} WRONG_CHARACTERS: Error
+ {static} WRONG_LENGTH: Error
- Error()
+ {static} valueOf(String): Error
}

class  mastermind.models.Game{
- {static} MAX_LONG: int
- secretCombination: SecretCombination
- proposedCombinations: List<ProposedCombination>
- results: List<Result>
- turn: int
+ Game()
+ clear(): void
+ set(Memento): void
+ proposeCombination(ProposedCombination): void
+ getWidth(): int
+ isWinner(): boolean
+ getTurn(): int
+ getCodes(): int[][][]
+ isLooser(): boolean
+ createMemento(): Memento
}
mastermind.models.Game *-down-> java.util.List
mastermind.models.Game *-down-> mastermind.models.SecretCombination
mastermind.models.Game *-down-> mastermind.models.Result
mastermind.models.Game - -> mastermind.models.ProposedCombination
mastermind.models.Game ..> mastermind.models.Memento

class  mastermind.models.Memento{
- proposedCombinations: List<ProposedCombination>
- results: List<Result>
- turn: int
~ Memento(int)
~ set(ProposedCombination, Result): void
~ getSize(): int
~ getResult(int): Result
~ getTurn(): int
~ getProposedCombination(int): ProposedCombination
}
mastermind.models.Memento *-down-> java.util.List
mastermind.models.Memento - -> mastermind.models.Result
mastermind.models.Memento - -> mastermind.models.ProposedCombination

class  mastermind.models.ProposedCombination{
+ ProposedCombination()
~ contains(Color, int): boolean
~ contains(Color): boolean
+ {static} getInstance(int[]): ProposedCombination
+ copy(): ProposedCombination
+ {static} isValid(int[]): Error
~ getCodes(): int[]
~ setCodes(int[]): void
}
mastermind.models.Combination <|-down- mastermind.models.ProposedCombination
mastermind.models.ProposedCombination ..> mastermind.models.Error

class  mastermind.models.Registry{
- mementoList: ArrayList<Memento>
- game: Game
- firstPrevious: int
~ Registry(Game)
+ reset(): void
~ registry(): void
~ undoable(): boolean
~ redoable(): boolean
~ undo(Game): void
~ redo(Game): void
}
mastermind.models.Registry *-down-> mastermind.models.Memento
mastermind.models.Registry *-down-> java.util.ArrayList
mastermind.models.Registry - -> mastermind.models.Game

class  mastermind.models.Result{
- blacks: int
- whites: int
~ Result(int, int)
+ copy(): Result
~ isWinner(): boolean
~ getCodes(): int[]
~ getBlacks(): int
~ getWhites(): int
}
mastermind.models.Result ..> mastermind.models.Result

class  mastermind.models.SecretCombination{
~ SecretCombination()
~ getResult(ProposedCombination): Result
}
mastermind.models.Combination <|-down- mastermind.models.SecretCombination
mastermind.models.SecretCombination ..> mastermind.models.Result
mastermind.models.SecretCombination ..> mastermind.models.ProposedCombination

class  mastermind.models.Session{
- state: State
- game: Game
- registry: Registry
- tcpip: TCPIP
+ Session(TCPIP)
+ next(): void
+ resume(): void
+ proposeCombination(ProposedCombination): void
+ undoable(): boolean
+ redoable(): boolean
+ getWidth(): int
+ undo(): void
+ getValueState(): StateValue
+ isWinner(): boolean
+ getTurn(): int
+ redo(): void
+ getCodes(): int[][][]
+ isLooser(): boolean
}
mastermind.models.Session *-down-> mastermind.models.Registry
mastermind.models.Session *-down-> mastermind.models.State
mastermind.models.Session *-down-> mastermind.utils.TCPIP
mastermind.models.Session *-down-> mastermind.models.Game
mastermind.models.Session ..> mastermind.models.StateValue
mastermind.models.Session ..> mastermind.models.ProposedCombination

class  mastermind.models.State{
- stateValue: StateValue
+ State()
+ next(): void
+ reset(): void
+ getValueState(): StateValue
}
mastermind.models.State - -> mastermind.models.StateValue

class  mastermind.models.StateValue{
+ {static} INITIAL: StateValue
+ {static} IN_GAME: StateValue
+ {static} FINAL: StateValue
+ {static} EXIT: StateValue
- StateValue()
+ {static} valueOf(String): StateValue
}

@enduml

PlantUML version 1.2019.05(Sat Apr 20 18:45:36 CEST 2019)
(GPL source distribution)
Java Runtime: OpenJDK Runtime Environment
JVM: OpenJDK 64-Bit Server VM
Java Version: 1.8.0_222-b10
Operating System: Windows 10
OS Version: 10.0
Default Encoding: windows-1252
Language: es
Country: ES
--></g></svg>