<?xml version="1.0" encoding="UTF-8" standalone="no"?><svg xmlns="http://www.w3.org/2000/svg" xmlns:xlink="http://www.w3.org/1999/xlink" contentScriptType="application/ecmascript" contentStyleType="text/css" height="656px" preserveAspectRatio="none" style="width:993px;height:656px;" version="1.1" viewBox="0 0 993 656" width="993px" zoomAndPan="magnify"><defs><filter height="300%" id="fw68ma2ljbcf2" width="300%" x="-1" y="-1"><feGaussianBlur result="blurOut" stdDeviation="2.0"/><feColorMatrix in="blurOut" result="blurOut2" type="matrix" values="0 0 0 0 0 0 0 0 0 0 0 0 0 0 0 0 0 0 .4 0"/><feOffset dx="4.0" dy="4.0" in="blurOut2" result="blurOut3"/><feBlend in="SourceGraphic" in2="blurOut3" mode="normal"/></filter></defs><g><!--cluster mastermind.views.console--><polygon fill="#FFFFFF" filter="url(#fw68ma2ljbcf2)" points="225,148,418,148,425,171.6094,785,171.6094,785,644,225,644,225,148" style="stroke: #000000; stroke-width: 1.5;"/><line style="stroke: #000000; stroke-width: 1.5;" x1="225" x2="425" y1="171.6094" y2="171.6094"/><text fill="#000000" font-family="sans-serif" font-size="14" font-weight="bold" lengthAdjust="spacingAndGlyphs" textLength="187" x="229" y="164.5332">mastermind.views.console</text><!--cluster mastermind.views--><polygon fill="#FFFFFF" filter="url(#fw68ma2ljbcf2)" points="406,24,539,24,546,47.6094,549,47.6094,549,124,406,124,406,24" style="stroke: #000000; stroke-width: 1.5;"/><line style="stroke: #000000; stroke-width: 1.5;" x1="406" x2="546" y1="47.6094" y2="47.6094"/><text fill="#000000" font-family="sans-serif" font-size="14" font-weight="bold" lengthAdjust="spacingAndGlyphs" textLength="127" x="410" y="40.5332">mastermind.views</text><!--cluster mastermind.utils--><polygon fill="#FFFFFF" filter="url(#fw68ma2ljbcf2)" points="809,196.5,931,196.5,938,220.1094,971,220.1094,971,296.5,809,296.5,809,196.5" style="stroke: #000000; stroke-width: 1.5;"/><line style="stroke: #000000; stroke-width: 1.5;" x1="809" x2="938" y1="220.1094" y2="220.1094"/><text fill="#000000" font-family="sans-serif" font-size="14" font-weight="bold" lengthAdjust="spacingAndGlyphs" textLength="116" x="813" y="213.0332">mastermind.utils</text><!--cluster mastermind.controllers--><polygon fill="#FFFFFF" filter="url(#fw68ma2ljbcf2)" points="22,516.5,191,516.5,198,540.1094,201,540.1094,201,616.5,22,616.5,22,516.5" style="stroke: #000000; stroke-width: 1.5;"/><line style="stroke: #000000; stroke-width: 1.5;" x1="22" x2="198" y1="540.1094" y2="540.1094"/><text fill="#000000" font-family="sans-serif" font-size="14" font-weight="bold" lengthAdjust="spacingAndGlyphs" textLength="163" x="26" y="533.0332">mastermind.controllers</text><!--class mastermind.views.console.ConsoleView--><rect fill="#FEFECE" filter="url(#fw68ma2ljbcf2)" height="144.8516" id="mastermind.views.console.ConsoleView" style="stroke: #A80036; stroke-width: 1.5;" width="168" x="393" y="184"/><ellipse cx="436.35" cy="200" fill="#ADD1B2" rx="11" ry="11" style="stroke: #A80036; stroke-width: 1.0;"/><path d="M439.1156,195.875 Q439.2719,195.6563 439.4594,195.5469 Q439.6469,195.4375 439.8656,195.4375 Q440.2406,195.4375 440.475,195.6953 Q440.7094,195.9531 440.7094,196.5625 L440.7094,198.0156 Q440.7094,198.625 440.475,198.8906 Q440.2406,199.1563 439.8656,199.1563 Q439.5219,199.1563 439.3188,198.9531 Q439.1156,198.7656 439.0063,198.25 Q438.9594,197.8906 438.7719,197.7031 Q438.4438,197.3281 437.8344,197.1094 Q437.225,196.8906 436.6,196.8906 Q435.8344,196.8906 435.2016,197.2188 Q434.5688,197.5469 434.0766,198.2969 Q433.5844,199.0469 433.5844,200.0781 L433.5844,201.1719 Q433.5844,202.4063 434.475,203.2266 Q435.3656,204.0469 436.9594,204.0469 Q437.8969,204.0469 438.5531,203.7969 Q438.9438,203.6406 439.3656,203.2031 Q439.6313,202.9375 439.7797,202.8594 Q439.9281,202.7813 440.1313,202.7813 Q440.4594,202.7813 440.7172,203.0391 Q440.975,203.2969 440.975,203.6406 Q440.975,203.9844 440.6313,204.3906 Q440.1313,204.9688 439.3344,205.2969 Q438.2563,205.75 436.9594,205.75 Q435.4438,205.75 434.2406,205.125 Q433.2563,204.625 432.5688,203.5547 Q431.8813,202.4844 431.8813,201.2031 L431.8813,200.0469 Q431.8813,198.7188 432.4984,197.5703 Q433.1156,196.4219 434.2094,195.8047 Q435.3031,195.1875 436.5375,195.1875 Q437.2719,195.1875 437.9203,195.3516 Q438.5688,195.5156 439.1156,195.875 Z "/><text fill="#000000" font-family="sans-serif" font-size="12" lengthAdjust="spacingAndGlyphs" textLength="73" x="456.65" y="204.9102">ConsoleView</text><line style="stroke: #A80036; stroke-width: 1.5;" x1="394" x2="560" y1="216" y2="216"/><rect fill="none" height="6" style="stroke: #C82930; stroke-width: 1.0;" width="6" x="401" y="225.418"/><text fill="#000000" font-family="sans-serif" font-size="11" lengthAdjust="spacingAndGlyphs" textLength="103" x="413" y="231.4189">startView: StartView</text><rect fill="none" height="6" style="stroke: #C82930; stroke-width: 1.0;" width="6" x="401" y="239.2539"/><text fill="#000000" font-family="sans-serif" font-size="11" lengthAdjust="spacingAndGlyphs" textLength="142" x="413" y="245.2549">proposalView: ProposalView</text><rect fill="none" height="6" style="stroke: #C82930; stroke-width: 1.0;" width="6" x="401" y="253.0898"/><text fill="#000000" font-family="sans-serif" font-size="11" lengthAdjust="spacingAndGlyphs" textLength="133" x="413" y="259.0908">resumeView: ResumeView</text><line style="stroke: #A80036; stroke-width: 1.5;" x1="394" x2="560" y1="265.5078" y2="265.5078"/><ellipse cx="404" cy="277.9258" fill="#84BE84" rx="3" ry="3" style="stroke: #038048; stroke-width: 1.0;"/><text fill="#000000" font-family="sans-serif" font-size="11" lengthAdjust="spacingAndGlyphs" textLength="99" x="413" y="280.9268">ConsoleView(Logic)</text><polygon fill="#FFFF44" points="404,286.7617,408,290.7617,404,294.7617,400,290.7617" style="stroke: #B38D22; stroke-width: 1.0;"/><text fill="#000000" font-family="sans-serif" font-size="11" lengthAdjust="spacingAndGlyphs" textLength="56" x="413" y="294.7627">start(): void</text><polygon fill="#FFFF44" points="404,300.5977,408,304.5977,404,308.5977,400,304.5977" style="stroke: #B38D22; stroke-width: 1.0;"/><text fill="#000000" font-family="sans-serif" font-size="11" lengthAdjust="spacingAndGlyphs" textLength="88" x="413" y="308.5986">resume(): boolean</text><polygon fill="#FFFF44" points="404,314.4336,408,318.4336,404,322.4336,400,318.4336" style="stroke: #B38D22; stroke-width: 1.0;"/><text fill="#000000" font-family="sans-serif" font-size="11" lengthAdjust="spacingAndGlyphs" textLength="92" x="413" y="322.4346">propose(): boolean</text><!--class mastermind.views.console.ProposalView--><rect fill="#FEFECE" filter="url(#fw68ma2ljbcf2)" height="75.6719" id="mastermind.views.console.ProposalView" style="stroke: #A80036; stroke-width: 1.5;" width="140" x="573" y="389"/><ellipse cx="602.4" cy="405" fill="#ADD1B2" rx="11" ry="11" style="stroke: #A80036; stroke-width: 1.0;"/><path d="M605.1656,400.875 Q605.3219,400.6563 605.5094,400.5469 Q605.6969,400.4375 605.9156,400.4375 Q606.2906,400.4375 606.525,400.6953 Q606.7594,400.9531 606.7594,401.5625 L606.7594,403.0156 Q606.7594,403.625 606.525,403.8906 Q606.2906,404.1563 605.9156,404.1563 Q605.5719,404.1563 605.3688,403.9531 Q605.1656,403.7656 605.0563,403.25 Q605.0094,402.8906 604.8219,402.7031 Q604.4938,402.3281 603.8844,402.1094 Q603.275,401.8906 602.65,401.8906 Q601.8844,401.8906 601.2516,402.2188 Q600.6188,402.5469 600.1266,403.2969 Q599.6344,404.0469 599.6344,405.0781 L599.6344,406.1719 Q599.6344,407.4063 600.525,408.2266 Q601.4156,409.0469 603.0094,409.0469 Q603.9469,409.0469 604.6031,408.7969 Q604.9938,408.6406 605.4156,408.2031 Q605.6813,407.9375 605.8297,407.8594 Q605.9781,407.7813 606.1813,407.7813 Q606.5094,407.7813 606.7672,408.0391 Q607.025,408.2969 607.025,408.6406 Q607.025,408.9844 606.6813,409.3906 Q606.1813,409.9688 605.3844,410.2969 Q604.3063,410.75 603.0094,410.75 Q601.4938,410.75 600.2906,410.125 Q599.3063,409.625 598.6188,408.5547 Q597.9313,407.4844 597.9313,406.2031 L597.9313,405.0469 Q597.9313,403.7188 598.5484,402.5703 Q599.1656,401.4219 600.2594,400.8047 Q601.3531,400.1875 602.5875,400.1875 Q603.3219,400.1875 603.9703,400.3516 Q604.6188,400.5156 605.1656,400.875 Z "/><text fill="#000000" font-family="sans-serif" font-size="12" lengthAdjust="spacingAndGlyphs" textLength="76" x="619.6" y="409.9102">ProposalView</text><line style="stroke: #A80036; stroke-width: 1.5;" x1="574" x2="712" y1="421" y2="421"/><line style="stroke: #A80036; stroke-width: 1.5;" x1="574" x2="712" y1="429" y2="429"/><polygon fill="#4177AF" points="584,437.418,580,443.418,588,443.418" style="stroke: #1963A0; stroke-width: 1.0;"/><text fill="#000000" font-family="sans-serif" font-size="11" lengthAdjust="spacingAndGlyphs" textLength="76" x="593" y="444.4189">ProposalView()</text><polygon fill="#4177AF" points="584,451.2539,580,457.2539,588,457.2539" style="stroke: #1963A0; stroke-width: 1.0;"/><text fill="#000000" font-family="sans-serif" font-size="11" lengthAdjust="spacingAndGlyphs" textLength="114" x="593" y="458.2549">interact(Logic): boolean</text><!--class mastermind.views.console.ResumeView--><rect fill="#FEFECE" filter="url(#fw68ma2ljbcf2)" height="75.6719" id="mastermind.views.console.ResumeView" style="stroke: #A80036; stroke-width: 1.5;" width="140" x="241" y="389"/><ellipse cx="271.3" cy="405" fill="#ADD1B2" rx="11" ry="11" style="stroke: #A80036; stroke-width: 1.0;"/><path d="M274.0656,400.875 Q274.2219,400.6563 274.4094,400.5469 Q274.5969,400.4375 274.8156,400.4375 Q275.1906,400.4375 275.425,400.6953 Q275.6594,400.9531 275.6594,401.5625 L275.6594,403.0156 Q275.6594,403.625 275.425,403.8906 Q275.1906,404.1563 274.8156,404.1563 Q274.4719,404.1563 274.2688,403.9531 Q274.0656,403.7656 273.9563,403.25 Q273.9094,402.8906 273.7219,402.7031 Q273.3938,402.3281 272.7844,402.1094 Q272.175,401.8906 271.55,401.8906 Q270.7844,401.8906 270.1516,402.2188 Q269.5188,402.5469 269.0266,403.2969 Q268.5344,404.0469 268.5344,405.0781 L268.5344,406.1719 Q268.5344,407.4063 269.425,408.2266 Q270.3156,409.0469 271.9094,409.0469 Q272.8469,409.0469 273.5031,408.7969 Q273.8938,408.6406 274.3156,408.2031 Q274.5813,407.9375 274.7297,407.8594 Q274.8781,407.7813 275.0813,407.7813 Q275.4094,407.7813 275.6672,408.0391 Q275.925,408.2969 275.925,408.6406 Q275.925,408.9844 275.5813,409.3906 Q275.0813,409.9688 274.2844,410.2969 Q273.2063,410.75 271.9094,410.75 Q270.3938,410.75 269.1906,410.125 Q268.2063,409.625 267.5188,408.5547 Q266.8313,407.4844 266.8313,406.2031 L266.8313,405.0469 Q266.8313,403.7188 267.4484,402.5703 Q268.0656,401.4219 269.1594,400.8047 Q270.2531,400.1875 271.4875,400.1875 Q272.2219,400.1875 272.8703,400.3516 Q273.5188,400.5156 274.0656,400.875 Z "/><text fill="#000000" font-family="sans-serif" font-size="12" lengthAdjust="spacingAndGlyphs" textLength="74" x="288.7" y="409.9102">ResumeView</text><line style="stroke: #A80036; stroke-width: 1.5;" x1="242" x2="380" y1="421" y2="421"/><line style="stroke: #A80036; stroke-width: 1.5;" x1="242" x2="380" y1="429" y2="429"/><polygon fill="#4177AF" points="252,437.418,248,443.418,256,443.418" style="stroke: #1963A0; stroke-width: 1.0;"/><text fill="#000000" font-family="sans-serif" font-size="11" lengthAdjust="spacingAndGlyphs" textLength="73" x="261" y="444.4189">ResumeView()</text><polygon fill="#4177AF" points="252,451.2539,248,457.2539,256,457.2539" style="stroke: #1963A0; stroke-width: 1.0;"/><text fill="#000000" font-family="sans-serif" font-size="11" lengthAdjust="spacingAndGlyphs" textLength="114" x="261" y="458.2549">interact(Logic): boolean</text><!--class mastermind.views.console.StartView--><rect fill="#FEFECE" filter="url(#fw68ma2ljbcf2)" height="75.6719" id="mastermind.views.console.StartView" style="stroke: #A80036; stroke-width: 1.5;" width="122" x="416" y="389"/><ellipse cx="448.55" cy="405" fill="#ADD1B2" rx="11" ry="11" style="stroke: #A80036; stroke-width: 1.0;"/><path d="M451.3156,400.875 Q451.4719,400.6563 451.6594,400.5469 Q451.8469,400.4375 452.0656,400.4375 Q452.4406,400.4375 452.675,400.6953 Q452.9094,400.9531 452.9094,401.5625 L452.9094,403.0156 Q452.9094,403.625 452.675,403.8906 Q452.4406,404.1563 452.0656,404.1563 Q451.7219,404.1563 451.5188,403.9531 Q451.3156,403.7656 451.2063,403.25 Q451.1594,402.8906 450.9719,402.7031 Q450.6438,402.3281 450.0344,402.1094 Q449.425,401.8906 448.8,401.8906 Q448.0344,401.8906 447.4016,402.2188 Q446.7688,402.5469 446.2766,403.2969 Q445.7844,404.0469 445.7844,405.0781 L445.7844,406.1719 Q445.7844,407.4063 446.675,408.2266 Q447.5656,409.0469 449.1594,409.0469 Q450.0969,409.0469 450.7531,408.7969 Q451.1438,408.6406 451.5656,408.2031 Q451.8313,407.9375 451.9797,407.8594 Q452.1281,407.7813 452.3313,407.7813 Q452.6594,407.7813 452.9172,408.0391 Q453.175,408.2969 453.175,408.6406 Q453.175,408.9844 452.8313,409.3906 Q452.3313,409.9688 451.5344,410.2969 Q450.4563,410.75 449.1594,410.75 Q447.6438,410.75 446.4406,410.125 Q445.4563,409.625 444.7688,408.5547 Q444.0813,407.4844 444.0813,406.2031 L444.0813,405.0469 Q444.0813,403.7188 444.6984,402.5703 Q445.3156,401.4219 446.4094,400.8047 Q447.5031,400.1875 448.7375,400.1875 Q449.4719,400.1875 450.1203,400.3516 Q450.7688,400.5156 451.3156,400.875 Z "/><text fill="#000000" font-family="sans-serif" font-size="12" lengthAdjust="spacingAndGlyphs" textLength="51" x="466.45" y="409.9102">StartView</text><line style="stroke: #A80036; stroke-width: 1.5;" x1="417" x2="537" y1="421" y2="421"/><line style="stroke: #A80036; stroke-width: 1.5;" x1="417" x2="537" y1="429" y2="429"/><polygon fill="#4177AF" points="427,437.418,423,443.418,431,443.418" style="stroke: #1963A0; stroke-width: 1.0;"/><text fill="#000000" font-family="sans-serif" font-size="11" lengthAdjust="spacingAndGlyphs" textLength="57" x="436" y="444.4189">StartView()</text><polygon fill="#4177AF" points="427,451.2539,423,457.2539,431,457.2539" style="stroke: #1963A0; stroke-width: 1.0;"/><text fill="#000000" font-family="sans-serif" font-size="11" lengthAdjust="spacingAndGlyphs" textLength="96" x="436" y="458.2549">interact(Logic): void</text><!--class mastermind.views.console.SecretCombinationView--><rect fill="#FEFECE" filter="url(#fw68ma2ljbcf2)" height="75.6719" id="mastermind.views.console.SecretCombinationView" style="stroke: #A80036; stroke-width: 1.5;" width="164" x="241" y="538.5"/><ellipse cx="256" cy="554.5" fill="#ADD1B2" rx="11" ry="11" style="stroke: #A80036; stroke-width: 1.0;"/><path d="M258.7656,550.375 Q258.9219,550.1563 259.1094,550.0469 Q259.2969,549.9375 259.5156,549.9375 Q259.8906,549.9375 260.125,550.1953 Q260.3594,550.4531 260.3594,551.0625 L260.3594,552.5156 Q260.3594,553.125 260.125,553.3906 Q259.8906,553.6563 259.5156,553.6563 Q259.1719,553.6563 258.9688,553.4531 Q258.7656,553.2656 258.6563,552.75 Q258.6094,552.3906 258.4219,552.2031 Q258.0938,551.8281 257.4844,551.6094 Q256.875,551.3906 256.25,551.3906 Q255.4844,551.3906 254.8516,551.7188 Q254.2188,552.0469 253.7266,552.7969 Q253.2344,553.5469 253.2344,554.5781 L253.2344,555.6719 Q253.2344,556.9063 254.125,557.7266 Q255.0156,558.5469 256.6094,558.5469 Q257.5469,558.5469 258.2031,558.2969 Q258.5938,558.1406 259.0156,557.7031 Q259.2813,557.4375 259.4297,557.3594 Q259.5781,557.2813 259.7813,557.2813 Q260.1094,557.2813 260.3672,557.5391 Q260.625,557.7969 260.625,558.1406 Q260.625,558.4844 260.2813,558.8906 Q259.7813,559.4688 258.9844,559.7969 Q257.9063,560.25 256.6094,560.25 Q255.0938,560.25 253.8906,559.625 Q252.9063,559.125 252.2188,558.0547 Q251.5313,556.9844 251.5313,555.7031 L251.5313,554.5469 Q251.5313,553.2188 252.1484,552.0703 Q252.7656,550.9219 253.8594,550.3047 Q254.9531,549.6875 256.1875,549.6875 Q256.9219,549.6875 257.5703,549.8516 Q258.2188,550.0156 258.7656,550.375 Z "/><text fill="#000000" font-family="sans-serif" font-size="12" lengthAdjust="spacingAndGlyphs" textLength="132" x="270" y="559.4102">SecretCombinationView</text><line style="stroke: #A80036; stroke-width: 1.5;" x1="242" x2="404" y1="570.5" y2="570.5"/><line style="stroke: #A80036; stroke-width: 1.5;" x1="242" x2="404" y1="578.5" y2="578.5"/><polygon fill="#4177AF" points="252,586.918,248,592.918,256,592.918" style="stroke: #1963A0; stroke-width: 1.0;"/><text fill="#000000" font-family="sans-serif" font-size="11" lengthAdjust="spacingAndGlyphs" textLength="124" x="261" y="593.9189">SecretCombinationView()</text><polygon fill="#4177AF" points="252,600.7539,248,606.7539,256,606.7539" style="stroke: #1963A0; stroke-width: 1.0;"/><text fill="#000000" font-family="sans-serif" font-size="11" lengthAdjust="spacingAndGlyphs" textLength="78" x="261" y="607.7549">writeln(int): void</text><!--class mastermind.views.console.ProposedCombinationView--><rect fill="#FEFECE" filter="url(#fw68ma2ljbcf2)" height="103.3438" id="mastermind.views.console.ProposedCombinationView" style="stroke: #A80036; stroke-width: 1.5;" width="183" x="440.5" y="525"/><ellipse cx="455.5" cy="541" fill="#ADD1B2" rx="11" ry="11" style="stroke: #A80036; stroke-width: 1.0;"/><path d="M458.2656,536.875 Q458.4219,536.6563 458.6094,536.5469 Q458.7969,536.4375 459.0156,536.4375 Q459.3906,536.4375 459.625,536.6953 Q459.8594,536.9531 459.8594,537.5625 L459.8594,539.0156 Q459.8594,539.625 459.625,539.8906 Q459.3906,540.1563 459.0156,540.1563 Q458.6719,540.1563 458.4688,539.9531 Q458.2656,539.7656 458.1563,539.25 Q458.1094,538.8906 457.9219,538.7031 Q457.5938,538.3281 456.9844,538.1094 Q456.375,537.8906 455.75,537.8906 Q454.9844,537.8906 454.3516,538.2188 Q453.7188,538.5469 453.2266,539.2969 Q452.7344,540.0469 452.7344,541.0781 L452.7344,542.1719 Q452.7344,543.4063 453.625,544.2266 Q454.5156,545.0469 456.1094,545.0469 Q457.0469,545.0469 457.7031,544.7969 Q458.0938,544.6406 458.5156,544.2031 Q458.7813,543.9375 458.9297,543.8594 Q459.0781,543.7813 459.2813,543.7813 Q459.6094,543.7813 459.8672,544.0391 Q460.125,544.2969 460.125,544.6406 Q460.125,544.9844 459.7813,545.3906 Q459.2813,545.9688 458.4844,546.2969 Q457.4063,546.75 456.1094,546.75 Q454.5938,546.75 453.3906,546.125 Q452.4063,545.625 451.7188,544.5547 Q451.0313,543.4844 451.0313,542.2031 L451.0313,541.0469 Q451.0313,539.7188 451.6484,538.5703 Q452.2656,537.4219 453.3594,536.8047 Q454.4531,536.1875 455.6875,536.1875 Q456.4219,536.1875 457.0703,536.3516 Q457.7188,536.5156 458.2656,536.875 Z "/><text fill="#000000" font-family="sans-serif" font-size="12" lengthAdjust="spacingAndGlyphs" textLength="151" x="469.5" y="545.9102">ProposedCombinationView</text><line style="stroke: #A80036; stroke-width: 1.5;" x1="441.5" x2="622.5" y1="557" y2="557"/><rect fill="none" height="6" style="stroke: #C82930; stroke-width: 1.0;" width="6" x="448.5" y="566.418"/><text fill="#000000" font-family="sans-serif" font-size="11" lengthAdjust="spacingAndGlyphs" text-decoration="underline" textLength="86" x="460.5" y="572.4189">ERROR_CODE: int</text><line style="stroke: #A80036; stroke-width: 1.5;" x1="441.5" x2="622.5" y1="578.8359" y2="578.8359"/><polygon fill="#4177AF" points="451.5,587.2539,447.5,593.2539,455.5,593.2539" style="stroke: #1963A0; stroke-width: 1.0;"/><text fill="#000000" font-family="sans-serif" font-size="11" lengthAdjust="spacingAndGlyphs" textLength="138" x="460.5" y="594.2549">ProposedCombinationView()</text><polygon fill="#4177AF" points="451.5,601.0898,447.5,607.0898,455.5,607.0898" style="stroke: #1963A0; stroke-width: 1.0;"/><text fill="#000000" font-family="sans-serif" font-size="11" lengthAdjust="spacingAndGlyphs" textLength="76" x="460.5" y="608.0908">write(int[]): void</text><polygon fill="#4177AF" points="451.5,614.9258,447.5,620.9258,455.5,620.9258" style="stroke: #1963A0; stroke-width: 1.0;"/><text fill="#000000" font-family="sans-serif" font-size="11" lengthAdjust="spacingAndGlyphs" textLength="53" x="460.5" y="621.9268">read(): int[]</text><!--class mastermind.views.console.ResultView--><rect fill="#FEFECE" filter="url(#fw68ma2ljbcf2)" height="75.6719" id="mastermind.views.console.ResultView" style="stroke: #A80036; stroke-width: 1.5;" width="110" x="659" y="538.5"/><ellipse cx="681.2" cy="554.5" fill="#ADD1B2" rx="11" ry="11" style="stroke: #A80036; stroke-width: 1.0;"/><path d="M683.9656,550.375 Q684.1219,550.1563 684.3094,550.0469 Q684.4969,549.9375 684.7156,549.9375 Q685.0906,549.9375 685.325,550.1953 Q685.5594,550.4531 685.5594,551.0625 L685.5594,552.5156 Q685.5594,553.125 685.325,553.3906 Q685.0906,553.6563 684.7156,553.6563 Q684.3719,553.6563 684.1688,553.4531 Q683.9656,553.2656 683.8563,552.75 Q683.8094,552.3906 683.6219,552.2031 Q683.2938,551.8281 682.6844,551.6094 Q682.075,551.3906 681.45,551.3906 Q680.6844,551.3906 680.0516,551.7188 Q679.4188,552.0469 678.9266,552.7969 Q678.4344,553.5469 678.4344,554.5781 L678.4344,555.6719 Q678.4344,556.9063 679.325,557.7266 Q680.2156,558.5469 681.8094,558.5469 Q682.7469,558.5469 683.4031,558.2969 Q683.7938,558.1406 684.2156,557.7031 Q684.4813,557.4375 684.6297,557.3594 Q684.7781,557.2813 684.9813,557.2813 Q685.3094,557.2813 685.5672,557.5391 Q685.825,557.7969 685.825,558.1406 Q685.825,558.4844 685.4813,558.8906 Q684.9813,559.4688 684.1844,559.7969 Q683.1063,560.25 681.8094,560.25 Q680.2938,560.25 679.0906,559.625 Q678.1063,559.125 677.4188,558.0547 Q676.7313,556.9844 676.7313,555.7031 L676.7313,554.5469 Q676.7313,553.2188 677.3484,552.0703 Q677.9656,550.9219 679.0594,550.3047 Q680.1531,549.6875 681.3875,549.6875 Q682.1219,549.6875 682.7703,549.8516 Q683.4188,550.0156 683.9656,550.375 Z "/><text fill="#000000" font-family="sans-serif" font-size="12" lengthAdjust="spacingAndGlyphs" textLength="62" x="696.8" y="559.4102">ResultView</text><line style="stroke: #A80036; stroke-width: 1.5;" x1="660" x2="768" y1="570.5" y2="570.5"/><line style="stroke: #A80036; stroke-width: 1.5;" x1="660" x2="768" y1="578.5" y2="578.5"/><polygon fill="#4177AF" points="670,586.918,666,592.918,674,592.918" style="stroke: #1963A0; stroke-width: 1.0;"/><text fill="#000000" font-family="sans-serif" font-size="11" lengthAdjust="spacingAndGlyphs" textLength="64" x="679" y="593.9189">ResultView()</text><polygon fill="#4177AF" points="670,600.7539,666,606.7539,674,606.7539" style="stroke: #1963A0; stroke-width: 1.0;"/><text fill="#000000" font-family="sans-serif" font-size="11" lengthAdjust="spacingAndGlyphs" textLength="84" x="679" y="607.7549">writeln(int[]): void</text><!--class mastermind.views.View--><rect fill="#FEFECE" filter="url(#fw68ma2ljbcf2)" height="48" id="mastermind.views.View" style="stroke: #A80036; stroke-width: 1.5;" width="58" x="448" y="60"/><ellipse cx="463" cy="76" fill="#ADD1B2" rx="11" ry="11" style="stroke: #A80036; stroke-width: 1.0;"/><path d="M465.7656,71.875 Q465.9219,71.6563 466.1094,71.5469 Q466.2969,71.4375 466.5156,71.4375 Q466.8906,71.4375 467.125,71.6953 Q467.3594,71.9531 467.3594,72.5625 L467.3594,74.0156 Q467.3594,74.625 467.125,74.8906 Q466.8906,75.1563 466.5156,75.1563 Q466.1719,75.1563 465.9688,74.9531 Q465.7656,74.7656 465.6563,74.25 Q465.6094,73.8906 465.4219,73.7031 Q465.0938,73.3281 464.4844,73.1094 Q463.875,72.8906 463.25,72.8906 Q462.4844,72.8906 461.8516,73.2188 Q461.2188,73.5469 460.7266,74.2969 Q460.2344,75.0469 460.2344,76.0781 L460.2344,77.1719 Q460.2344,78.4063 461.125,79.2266 Q462.0156,80.0469 463.6094,80.0469 Q464.5469,80.0469 465.2031,79.7969 Q465.5938,79.6406 466.0156,79.2031 Q466.2813,78.9375 466.4297,78.8594 Q466.5781,78.7813 466.7813,78.7813 Q467.1094,78.7813 467.3672,79.0391 Q467.625,79.2969 467.625,79.6406 Q467.625,79.9844 467.2813,80.3906 Q466.7813,80.9688 465.9844,81.2969 Q464.9063,81.75 463.6094,81.75 Q462.0938,81.75 460.8906,81.125 Q459.9063,80.625 459.2188,79.5547 Q458.5313,78.4844 458.5313,77.2031 L458.5313,76.0469 Q458.5313,74.7188 459.1484,73.5703 Q459.7656,72.4219 460.8594,71.8047 Q461.9531,71.1875 463.1875,71.1875 Q463.9219,71.1875 464.5703,71.3516 Q465.2188,71.5156 465.7656,71.875 Z "/><text fill="#000000" font-family="sans-serif" font-size="12" lengthAdjust="spacingAndGlyphs" textLength="26" x="477" y="80.9102">View</text><line style="stroke: #A80036; stroke-width: 1.5;" x1="449" x2="505" y1="92" y2="92"/><line style="stroke: #A80036; stroke-width: 1.5;" x1="449" x2="505" y1="100" y2="100"/><!--class mastermind.utils.WithConsoleView--><rect fill="#FEFECE" filter="url(#fw68ma2ljbcf2)" height="48" id="mastermind.utils.WithConsoleView" style="stroke: #A80036; stroke-width: 1.5;" width="129" x="825.5" y="232.5"/><ellipse cx="840.5" cy="248.5" fill="#ADD1B2" rx="11" ry="11" style="stroke: #A80036; stroke-width: 1.0;"/><path d="M843.2656,244.375 Q843.4219,244.1563 843.6094,244.0469 Q843.7969,243.9375 844.0156,243.9375 Q844.3906,243.9375 844.625,244.1953 Q844.8594,244.4531 844.8594,245.0625 L844.8594,246.5156 Q844.8594,247.125 844.625,247.3906 Q844.3906,247.6563 844.0156,247.6563 Q843.6719,247.6563 843.4688,247.4531 Q843.2656,247.2656 843.1563,246.75 Q843.1094,246.3906 842.9219,246.2031 Q842.5938,245.8281 841.9844,245.6094 Q841.375,245.3906 840.75,245.3906 Q839.9844,245.3906 839.3516,245.7188 Q838.7188,246.0469 838.2266,246.7969 Q837.7344,247.5469 837.7344,248.5781 L837.7344,249.6719 Q837.7344,250.9063 838.625,251.7266 Q839.5156,252.5469 841.1094,252.5469 Q842.0469,252.5469 842.7031,252.2969 Q843.0938,252.1406 843.5156,251.7031 Q843.7813,251.4375 843.9297,251.3594 Q844.0781,251.2813 844.2813,251.2813 Q844.6094,251.2813 844.8672,251.5391 Q845.125,251.7969 845.125,252.1406 Q845.125,252.4844 844.7813,252.8906 Q844.2813,253.4688 843.4844,253.7969 Q842.4063,254.25 841.1094,254.25 Q839.5938,254.25 838.3906,253.625 Q837.4063,253.125 836.7188,252.0547 Q836.0313,250.9844 836.0313,249.7031 L836.0313,248.5469 Q836.0313,247.2188 836.6484,246.0703 Q837.2656,244.9219 838.3594,244.3047 Q839.4531,243.6875 840.6875,243.6875 Q841.4219,243.6875 842.0703,243.8516 Q842.7188,244.0156 843.2656,244.375 Z "/><text fill="#000000" font-family="sans-serif" font-size="12" lengthAdjust="spacingAndGlyphs" textLength="97" x="854.5" y="253.4102">WithConsoleView</text><line style="stroke: #A80036; stroke-width: 1.5;" x1="826.5" x2="953.5" y1="264.5" y2="264.5"/><line style="stroke: #A80036; stroke-width: 1.5;" x1="826.5" x2="953.5" y1="272.5" y2="272.5"/><!--class mastermind.controllers.Logic--><rect fill="#FEFECE" filter="url(#fw68ma2ljbcf2)" height="48" id="mastermind.controllers.Logic" style="stroke: #A80036; stroke-width: 1.5;" width="62" x="123" y="552.5"/><ellipse cx="138" cy="568.5" fill="#ADD1B2" rx="11" ry="11" style="stroke: #A80036; stroke-width: 1.0;"/><path d="M140.7656,564.375 Q140.9219,564.1563 141.1094,564.0469 Q141.2969,563.9375 141.5156,563.9375 Q141.8906,563.9375 142.125,564.1953 Q142.3594,564.4531 142.3594,565.0625 L142.3594,566.5156 Q142.3594,567.125 142.125,567.3906 Q141.8906,567.6563 141.5156,567.6563 Q141.1719,567.6563 140.9688,567.4531 Q140.7656,567.2656 140.6563,566.75 Q140.6094,566.3906 140.4219,566.2031 Q140.0938,565.8281 139.4844,565.6094 Q138.875,565.3906 138.25,565.3906 Q137.4844,565.3906 136.8516,565.7188 Q136.2188,566.0469 135.7266,566.7969 Q135.2344,567.5469 135.2344,568.5781 L135.2344,569.6719 Q135.2344,570.9063 136.125,571.7266 Q137.0156,572.5469 138.6094,572.5469 Q139.5469,572.5469 140.2031,572.2969 Q140.5938,572.1406 141.0156,571.7031 Q141.2813,571.4375 141.4297,571.3594 Q141.5781,571.2813 141.7813,571.2813 Q142.1094,571.2813 142.3672,571.5391 Q142.625,571.7969 142.625,572.1406 Q142.625,572.4844 142.2813,572.8906 Q141.7813,573.4688 140.9844,573.7969 Q139.9063,574.25 138.6094,574.25 Q137.0938,574.25 135.8906,573.625 Q134.9063,573.125 134.2188,572.0547 Q133.5313,570.9844 133.5313,569.7031 L133.5313,568.5469 Q133.5313,567.2188 134.1484,566.0703 Q134.7656,564.9219 135.8594,564.3047 Q136.9531,563.6875 138.1875,563.6875 Q138.9219,563.6875 139.5703,563.8516 Q140.2188,564.0156 140.7656,564.375 Z "/><text fill="#000000" font-family="sans-serif" font-size="12" lengthAdjust="spacingAndGlyphs" textLength="30" x="152" y="573.4102">Logic</text><line style="stroke: #A80036; stroke-width: 1.5;" x1="124" x2="184" y1="584.5" y2="584.5"/><line style="stroke: #A80036; stroke-width: 1.5;" x1="124" x2="184" y1="592.5" y2="592.5"/><!--link mastermind.views.View to mastermind.views.console.ConsoleView--><path d="M477,128.487 C477,145.31 477,165.015 477,183.816 " fill="none" id="mastermind.views.View-mastermind.views.console.ConsoleView" style="stroke: #A80036; stroke-width: 1.0;"/><polygon fill="none" points="470,128.35,477,108.35,484,128.35,470,128.35" style="stroke: #A80036; stroke-width: 1.0;"/><!--link mastermind.views.console.ConsoleView to mastermind.views.console.ProposalView--><path d="M557.351,339.061 C570.984,352.899 584.712,366.834 597.062,379.371 " fill="none" id="mastermind.views.console.ConsoleView-mastermind.views.console.ProposalView" style="stroke: #A80036; stroke-width: 1.0;"/><polygon fill="#A80036" points="606.214,388.66,602.7479,379.4412,602.7052,385.0979,597.0485,385.0553,606.214,388.66" style="stroke: #A80036; stroke-width: 1.0;"/><line style="stroke: #A80036; stroke-width: 1.0;" x1="602.7052" x2="597.0905" y1="385.0979" y2="379.399"/><polygon fill="#A80036" points="547.88,329.448,549.2414,336.5294,556.3017,337.9963,554.9403,330.9149,547.88,329.448" style="stroke: #A80036; stroke-width: 1.0;"/><!--link mastermind.views.console.ConsoleView to mastermind.views.console.ResumeView--><path d="M396.649,339.061 C383.016,352.899 369.288,366.834 356.938,379.371 " fill="none" id="mastermind.views.console.ConsoleView-mastermind.views.console.ResumeView" style="stroke: #A80036; stroke-width: 1.0;"/><polygon fill="#A80036" points="347.786,388.66,356.9515,385.0553,351.2948,385.0979,351.2521,379.4412,347.786,388.66" style="stroke: #A80036; stroke-width: 1.0;"/><line style="stroke: #A80036; stroke-width: 1.0;" x1="351.2948" x2="356.9095" y1="385.0979" y2="379.399"/><polygon fill="#A80036" points="406.12,329.448,399.0597,330.9149,397.6983,337.9963,404.7586,336.5294,406.12,329.448" style="stroke: #A80036; stroke-width: 1.0;"/><!--link mastermind.views.console.ConsoleView to mastermind.views.console.StartView--><path d="M477,342.921 C477,354.105 477,365.262 477,375.603 " fill="none" id="mastermind.views.console.ConsoleView-mastermind.views.console.StartView" style="stroke: #A80036; stroke-width: 1.0;"/><polygon fill="#A80036" points="477,388.66,481,379.66,477,383.66,473,379.66,477,388.66" style="stroke: #A80036; stroke-width: 1.0;"/><line style="stroke: #A80036; stroke-width: 1.0;" x1="477" x2="477" y1="383.66" y2="375.66"/><polygon fill="#A80036" points="477,329.448,473,335.448,477,341.448,481,335.448,477,329.448" style="stroke: #A80036; stroke-width: 1.0;"/><!--link mastermind.utils.WithConsoleView to mastermind.views.console.ProposalView--><path d="M839.63,291.862 C798.374,320.006 740.099,359.76 697.706,388.68 " fill="none" id="mastermind.utils.WithConsoleView-mastermind.views.console.ProposalView" style="stroke: #A80036; stroke-width: 1.0;"/><polygon fill="none" points="835.707,286.064,856.174,280.576,843.597,297.629,835.707,286.064" style="stroke: #A80036; stroke-width: 1.0;"/><!--link mastermind.views.console.ProposalView to mastermind.controllers.Logic--><path d="M572.978,459.385 C566.965,461.484 560.919,463.397 555,465 C412.211,503.68 358.608,444.988 225,508.5 C205.692,517.678 188.173,534.079 175.369,548.355 " fill="none" id="mastermind.views.console.ProposalView-mastermind.controllers.Logic" style="stroke: #A80036; stroke-width: 1.0; stroke-dasharray: 7.0,7.0;"/><polygon fill="#A80036" points="171.884,552.318,180.8319,548.2029,175.1866,548.564,174.8255,542.9187,171.884,552.318" style="stroke: #A80036; stroke-width: 1.0;"/><!--link mastermind.views.console.ProposalView to mastermind.views.console.SecretCombinationView--><path d="M572.592,458.185 C566.664,460.549 560.743,462.85 555,465 C497.15,486.655 478.504,481.392 423,508.5 C407.429,516.105 391.454,525.813 376.969,535.463 " fill="none" id="mastermind.views.console.ProposalView-mastermind.views.console.SecretCombinationView" style="stroke: #A80036; stroke-width: 1.0; stroke-dasharray: 7.0,7.0;"/><polygon fill="#A80036" points="372.524,538.454,382.224,536.7484,376.6723,535.6627,377.758,530.111,372.524,538.454" style="stroke: #A80036; stroke-width: 1.0;"/><!--link mastermind.views.console.ProposalView to mastermind.views.console.ProposedCombinationView--><path d="M614.99,465.22 C602.332,482.041 587.121,502.253 573.199,520.754 " fill="none" id="mastermind.views.console.ProposalView-mastermind.views.console.ProposedCombinationView" style="stroke: #A80036; stroke-width: 1.0; stroke-dasharray: 7.0,7.0;"/><polygon fill="#A80036" points="570.064,524.919,578.6719,520.1333,573.0706,520.924,572.2799,515.3227,570.064,524.919" style="stroke: #A80036; stroke-width: 1.0;"/><!--link mastermind.views.console.ProposalView to mastermind.views.console.ResultView--><path d="M660.916,465.22 C670.965,486.096 683.527,512.194 693.909,533.762 " fill="none" id="mastermind.views.console.ProposalView-mastermind.views.console.ResultView" style="stroke: #A80036; stroke-width: 1.0; stroke-dasharray: 7.0,7.0;"/><polygon fill="#A80036" points="696.089,538.291,695.7902,528.4467,693.9206,533.7857,688.5816,531.9161,696.089,538.291" style="stroke: #A80036; stroke-width: 1.0;"/><!--link mastermind.utils.WithConsoleView to mastermind.views.console.ProposedCombinationView--><path d="M880.965,300.09 C868.779,347.168 842.519,422.012 792,465 C738.81,510.26 704.889,480.289 641,508.5 C630.23,513.255 619.248,518.914 608.603,524.897 " fill="none" id="mastermind.utils.WithConsoleView-mastermind.views.console.ProposedCombinationView" style="stroke: #A80036; stroke-width: 1.0;"/><polygon fill="none" points="874.159,298.456,885.611,280.627,887.776,301.706,874.159,298.456" style="stroke: #A80036; stroke-width: 1.0;"/><!--link mastermind.utils.WithConsoleView to mastermind.views.console.ResultView--><path d="M893.819,300.618 C895.688,344.911 892.746,414.353 863,465 C841.308,501.934 801.938,530.317 769.114,549.064 " fill="none" id="mastermind.utils.WithConsoleView-mastermind.views.console.ResultView" style="stroke: #A80036; stroke-width: 1.0;"/><polygon fill="none" points="886.825,300.931,892.565,280.534,900.797,300.059,886.825,300.931" style="stroke: #A80036; stroke-width: 1.0;"/><!--link mastermind.views.console.ResumeView to mastermind.controllers.Logic--><path d="M271.149,465.239 C256.612,478.84 240.051,494.354 225,508.5 C211.01,521.649 195.499,536.28 182.552,548.507 " fill="none" id="mastermind.views.console.ResumeView-mastermind.controllers.Logic" style="stroke: #A80036; stroke-width: 1.0; stroke-dasharray: 7.0,7.0;"/><polygon fill="#A80036" points="178.621,552.22,187.9104,548.9478,182.2558,548.7866,182.417,543.1321,178.621,552.22" style="stroke: #A80036; stroke-width: 1.0;"/><!--link mastermind.utils.WithConsoleView to mastermind.views.console.SecretCombinationView--><path d="M859.356,296.84 C839.06,322.937 811.877,357.966 788,389 C762.09,422.676 766.664,443.525 730,465 C611.088,534.647 551.703,459.241 423,508.5 C404.069,515.746 385.127,527.12 368.9,538.453 " fill="none" id="mastermind.utils.WithConsoleView-mastermind.views.console.SecretCombinationView" style="stroke: #A80036; stroke-width: 1.0;"/><polygon fill="none" points="854.081,292.221,871.888,280.736,865.129,300.819,854.081,292.221" style="stroke: #A80036; stroke-width: 1.0;"/><!--link mastermind.utils.WithConsoleView to mastermind.views.console.StartView--><path d="M845.679,292.659 C827.672,305.582 806.15,319.39 785,329 C688.821,372.704 654.273,352.869 555,389 C549.507,390.999 543.878,393.248 538.281,395.624 " fill="none" id="mastermind.utils.WithConsoleView-mastermind.views.console.StartView" style="stroke: #A80036; stroke-width: 1.0;"/><polygon fill="none" points="841.516,287.032,861.74,280.706,849.875,298.263,841.516,287.032" style="stroke: #A80036; stroke-width: 1.0;"/><!--link mastermind.views.console.StartView to mastermind.controllers.Logic--><path d="M415.808,458.048 C409.852,460.551 403.849,462.916 398,465 C323.314,491.602 294.524,470.394 225,508.5 C206.524,518.626 189.25,534.717 176.367,548.591 " fill="none" id="mastermind.views.console.StartView-mastermind.controllers.Logic" style="stroke: #A80036; stroke-width: 1.0; stroke-dasharray: 7.0,7.0;"/><polygon fill="#A80036" points="172.852,552.439,181.875,548.4912,176.224,548.7471,175.968,543.0961,172.852,552.439" style="stroke: #A80036; stroke-width: 1.0;"/><!--
@startuml

class  mastermind.views.console.ConsoleView{
- startView: StartView
- proposalView: ProposalView
- resumeView: ResumeView
+ ConsoleView(Logic)
# start(): void
# resume(): boolean
# propose(): boolean
}
mastermind.views.View <|-down- mastermind.views.console.ConsoleView
mastermind.views.console.ConsoleView *-down-> mastermind.views.console.ProposalView
mastermind.views.console.ConsoleView *-down-> mastermind.views.console.ResumeView
mastermind.views.console.ConsoleView *-down-> mastermind.views.console.StartView

class  mastermind.views.console.ProposalView{
~ ProposalView()
~ interact(Logic): boolean
}
mastermind.utils.WithConsoleView <|-down- mastermind.views.console.ProposalView
mastermind.views.console.ProposalView ..> mastermind.controllers.Logic
mastermind.views.console.ProposalView ..> mastermind.views.console.SecretCombinationView
mastermind.views.console.ProposalView ..> mastermind.views.console.ProposedCombinationView
mastermind.views.console.ProposalView ..> mastermind.views.console.ResultView

class  mastermind.views.console.ProposedCombinationView{
- {static} ERROR_CODE: int
~ ProposedCombinationView()
~ write(int[]): void
~ read(): int[]
}
mastermind.utils.WithConsoleView <|-down- mastermind.views.console.ProposedCombinationView

class  mastermind.views.console.ResultView{
~ ResultView()
~ writeln(int[]): void
}
mastermind.utils.WithConsoleView <|-down- mastermind.views.console.ResultView

class  mastermind.views.console.ResumeView{
~ ResumeView()
~ interact(Logic): boolean
}
mastermind.views.console.ResumeView ..> mastermind.controllers.Logic

class  mastermind.views.console.SecretCombinationView{
~ SecretCombinationView()
~ writeln(int): void
}
mastermind.utils.WithConsoleView <|-down- mastermind.views.console.SecretCombinationView

class  mastermind.views.console.StartView{
~ StartView()
~ interact(Logic): void
}
mastermind.utils.WithConsoleView <|-down- mastermind.views.console.StartView
mastermind.views.console.StartView ..> mastermind.controllers.Logic

@enduml

PlantUML version 1.2019.05(Sat Apr 20 18:45:36 CEST 2019)
(GPL source distribution)
Java Runtime: OpenJDK Runtime Environment
JVM: OpenJDK 64-Bit Server VM
Java Version: 1.8.0_222-b10
Operating System: Windows 10
OS Version: 10.0
Default Encoding: windows-1252
Language: es
Country: ES
--></g></svg>