<?xml version="1.0" encoding="UTF-8" standalone="no"?><svg xmlns="http://www.w3.org/2000/svg" xmlns:xlink="http://www.w3.org/1999/xlink" contentScriptType="application/ecmascript" contentStyleType="text/css" height="764px" preserveAspectRatio="none" style="width:1079px;height:764px;" version="1.1" viewBox="0 0 1079 764" width="1079px" zoomAndPan="magnify"><defs><filter height="300%" id="f1pqgncqqqsr7d" width="300%" x="-1" y="-1"><feGaussianBlur result="blurOut" stdDeviation="2.0"/><feColorMatrix in="blurOut" result="blurOut2" type="matrix" values="0 0 0 0 0 0 0 0 0 0 0 0 0 0 0 0 0 0 .4 0"/><feOffset dx="4.0" dy="4.0" in="blurOut2" result="blurOut3"/><feBlend in="SourceGraphic" in2="blurOut3" mode="normal"/></filter></defs><g><!--cluster mastermind.controllers--><polygon fill="#FFFFFF" filter="url(#f1pqgncqqqsr7d)" points="22,24,191,24,198,47.6094,880,47.6094,880,752,22,752,22,24" style="stroke: #000000; stroke-width: 1.5;"/><line style="stroke: #000000; stroke-width: 1.5;" x1="22" x2="198" y1="47.6094" y2="47.6094"/><text fill="#000000" font-family="sans-serif" font-size="14" font-weight="bold" lengthAdjust="spacingAndGlyphs" textLength="163" x="26" y="40.5332">mastermind.controllers</text><!--cluster mastermind.models--><polygon fill="#FFFFFF" filter="url(#f1pqgncqqqsr7d)" points="904,412.5,1047,412.5,1054,436.1094,1057,436.1094,1057,512.5,904,512.5,904,412.5" style="stroke: #000000; stroke-width: 1.5;"/><line style="stroke: #000000; stroke-width: 1.5;" x1="904" x2="1054" y1="436.1094" y2="436.1094"/><text fill="#000000" font-family="sans-serif" font-size="14" font-weight="bold" lengthAdjust="spacingAndGlyphs" textLength="137" x="908" y="429.0332">mastermind.models</text><!--cluster java.util--><polygon fill="#FFFFFF" filter="url(#f1pqgncqqqsr7d)" points="904,228.5,965,228.5,972,252.1094,992,252.1094,992,328.5,904,328.5,904,228.5" style="stroke: #000000; stroke-width: 1.5;"/><line style="stroke: #000000; stroke-width: 1.5;" x1="904" x2="972" y1="252.1094" y2="252.1094"/><text fill="#000000" font-family="sans-serif" font-size="14" font-weight="bold" lengthAdjust="spacingAndGlyphs" textLength="55" x="908" y="245.0332">java.util</text><!--class mastermind.controllers.Controller--><rect fill="#FEFECE" filter="url(#f1pqgncqqqsr7d)" height="103.3438" id="mastermind.controllers.Controller" style="stroke: #A80036; stroke-width: 1.5;" width="139" x="490.5" y="237"/><ellipse cx="529.35" cy="253" fill="#ADD1B2" rx="11" ry="11" style="stroke: #A80036; stroke-width: 1.0;"/><path d="M532.1156,248.875 Q532.2719,248.6563 532.4594,248.5469 Q532.6469,248.4375 532.8656,248.4375 Q533.2406,248.4375 533.475,248.6953 Q533.7094,248.9531 533.7094,249.5625 L533.7094,251.0156 Q533.7094,251.625 533.475,251.8906 Q533.2406,252.1563 532.8656,252.1563 Q532.5219,252.1563 532.3188,251.9531 Q532.1156,251.7656 532.0063,251.25 Q531.9594,250.8906 531.7719,250.7031 Q531.4438,250.3281 530.8344,250.1094 Q530.225,249.8906 529.6,249.8906 Q528.8344,249.8906 528.2016,250.2188 Q527.5688,250.5469 527.0766,251.2969 Q526.5844,252.0469 526.5844,253.0781 L526.5844,254.1719 Q526.5844,255.4063 527.475,256.2266 Q528.3656,257.0469 529.9594,257.0469 Q530.8969,257.0469 531.5531,256.7969 Q531.9438,256.6406 532.3656,256.2031 Q532.6313,255.9375 532.7797,255.8594 Q532.9281,255.7813 533.1313,255.7813 Q533.4594,255.7813 533.7172,256.0391 Q533.975,256.2969 533.975,256.6406 Q533.975,256.9844 533.6313,257.3906 Q533.1313,257.9688 532.3344,258.2969 Q531.2563,258.75 529.9594,258.75 Q528.4438,258.75 527.2406,258.125 Q526.2563,257.625 525.5688,256.5547 Q524.8813,255.4844 524.8813,254.2031 L524.8813,253.0469 Q524.8813,251.7188 525.4984,250.5703 Q526.1156,249.4219 527.2094,248.8047 Q528.3031,248.1875 529.5375,248.1875 Q530.2719,248.1875 530.9203,248.3516 Q531.5688,248.5156 532.1156,248.875 Z "/><text fill="#000000" font-family="sans-serif" font-size="12" lengthAdjust="spacingAndGlyphs" textLength="54" x="548.65" y="257.9102">Controller</text><line style="stroke: #A80036; stroke-width: 1.5;" x1="491.5" x2="628.5" y1="269" y2="269"/><polygon fill="none" points="501.5,276.418,505.5,280.418,501.5,284.418,497.5,280.418" style="stroke: #B38D22; stroke-width: 1.0;"/><text fill="#000000" font-family="sans-serif" font-size="11" lengthAdjust="spacingAndGlyphs" textLength="60" x="510.5" y="284.4189">game: Game</text><polygon fill="none" points="501.5,290.2539,505.5,294.2539,501.5,298.2539,497.5,294.2539" style="stroke: #B38D22; stroke-width: 1.0;"/><text fill="#000000" font-family="sans-serif" font-size="11" lengthAdjust="spacingAndGlyphs" textLength="55" x="510.5" y="298.2549">state: State</text><line style="stroke: #A80036; stroke-width: 1.5;" x1="491.5" x2="628.5" y1="304.6719" y2="304.6719"/><polygon fill="#4177AF" points="501.5,313.0898,497.5,319.0898,505.5,319.0898" style="stroke: #1963A0; stroke-width: 1.0;"/><text fill="#000000" font-family="sans-serif" font-size="11" lengthAdjust="spacingAndGlyphs" textLength="113" x="510.5" y="320.0908">Controller(State, Game)</text><ellipse cx="501.5" cy="330.9258" fill="#84BE84" rx="3" ry="3" style="stroke: #038048; stroke-width: 1.0;"/><text fill="#000000" font-family="sans-serif" font-size="11" lengthAdjust="spacingAndGlyphs" textLength="67" x="510.5" y="333.9268">getWidth(): int</text><!--class mastermind.controllers.State--><rect fill="#FEFECE" filter="url(#f1pqgncqqqsr7d)" height="117.1797" id="mastermind.controllers.State" style="stroke: #A80036; stroke-width: 1.5;" width="161" x="75.5" y="414"/><ellipse cx="137.75" cy="430" fill="#ADD1B2" rx="11" ry="11" style="stroke: #A80036; stroke-width: 1.0;"/><path d="M140.5156,425.875 Q140.6719,425.6563 140.8594,425.5469 Q141.0469,425.4375 141.2656,425.4375 Q141.6406,425.4375 141.875,425.6953 Q142.1094,425.9531 142.1094,426.5625 L142.1094,428.0156 Q142.1094,428.625 141.875,428.8906 Q141.6406,429.1563 141.2656,429.1563 Q140.9219,429.1563 140.7188,428.9531 Q140.5156,428.7656 140.4063,428.25 Q140.3594,427.8906 140.1719,427.7031 Q139.8438,427.3281 139.2344,427.1094 Q138.625,426.8906 138,426.8906 Q137.2344,426.8906 136.6016,427.2188 Q135.9688,427.5469 135.4766,428.2969 Q134.9844,429.0469 134.9844,430.0781 L134.9844,431.1719 Q134.9844,432.4063 135.875,433.2266 Q136.7656,434.0469 138.3594,434.0469 Q139.2969,434.0469 139.9531,433.7969 Q140.3438,433.6406 140.7656,433.2031 Q141.0313,432.9375 141.1797,432.8594 Q141.3281,432.7813 141.5313,432.7813 Q141.8594,432.7813 142.1172,433.0391 Q142.375,433.2969 142.375,433.6406 Q142.375,433.9844 142.0313,434.3906 Q141.5313,434.9688 140.7344,435.2969 Q139.6563,435.75 138.3594,435.75 Q136.8438,435.75 135.6406,435.125 Q134.6563,434.625 133.9688,433.5547 Q133.2813,432.4844 133.2813,431.2031 L133.2813,430.0469 Q133.2813,428.7188 133.8984,427.5703 Q134.5156,426.4219 135.6094,425.8047 Q136.7031,425.1875 137.9375,425.1875 Q138.6719,425.1875 139.3203,425.3516 Q139.9688,425.5156 140.5156,425.875 Z "/><text fill="#000000" font-family="sans-serif" font-size="12" lengthAdjust="spacingAndGlyphs" textLength="28" x="158.25" y="434.9102">State</text><line style="stroke: #A80036; stroke-width: 1.5;" x1="76.5" x2="235.5" y1="446" y2="446"/><rect fill="none" height="6" style="stroke: #C82930; stroke-width: 1.0;" width="6" x="83.5" y="455.418"/><text fill="#000000" font-family="sans-serif" font-size="11" lengthAdjust="spacingAndGlyphs" textLength="111" x="95.5" y="461.4189">stateValue: StateValue</text><line style="stroke: #A80036; stroke-width: 1.5;" x1="76.5" x2="235.5" y1="467.8359" y2="467.8359"/><polygon fill="#4177AF" points="86.5,476.2539,82.5,482.2539,90.5,482.2539" style="stroke: #1963A0; stroke-width: 1.0;"/><text fill="#000000" font-family="sans-serif" font-size="11" lengthAdjust="spacingAndGlyphs" textLength="33" x="95.5" y="483.2549">State()</text><polygon fill="#4177AF" points="86.5,490.0898,82.5,496.0898,90.5,496.0898" style="stroke: #1963A0; stroke-width: 1.0;"/><text fill="#000000" font-family="sans-serif" font-size="11" lengthAdjust="spacingAndGlyphs" textLength="55" x="95.5" y="497.0908">next(): void</text><polygon fill="#4177AF" points="86.5,503.9258,82.5,509.9258,90.5,509.9258" style="stroke: #1963A0; stroke-width: 1.0;"/><text fill="#000000" font-family="sans-serif" font-size="11" lengthAdjust="spacingAndGlyphs" textLength="59" x="95.5" y="510.9268">reset(): void</text><polygon fill="#4177AF" points="86.5,517.7617,82.5,523.7617,90.5,523.7617" style="stroke: #1963A0; stroke-width: 1.0;"/><text fill="#000000" font-family="sans-serif" font-size="11" lengthAdjust="spacingAndGlyphs" textLength="135" x="95.5" y="524.7627">getValueState(): StateValue</text><!--class mastermind.controllers.Logic--><rect fill="#FEFECE" filter="url(#f1pqgncqqqsr7d)" height="117.1797" id="mastermind.controllers.Logic" style="stroke: #A80036; stroke-width: 1.5;" width="220" x="450" y="60"/><ellipse cx="540.75" cy="76" fill="#ADD1B2" rx="11" ry="11" style="stroke: #A80036; stroke-width: 1.0;"/><path d="M543.5156,71.875 Q543.6719,71.6563 543.8594,71.5469 Q544.0469,71.4375 544.2656,71.4375 Q544.6406,71.4375 544.875,71.6953 Q545.1094,71.9531 545.1094,72.5625 L545.1094,74.0156 Q545.1094,74.625 544.875,74.8906 Q544.6406,75.1563 544.2656,75.1563 Q543.9219,75.1563 543.7188,74.9531 Q543.5156,74.7656 543.4063,74.25 Q543.3594,73.8906 543.1719,73.7031 Q542.8438,73.3281 542.2344,73.1094 Q541.625,72.8906 541,72.8906 Q540.2344,72.8906 539.6016,73.2188 Q538.9688,73.5469 538.4766,74.2969 Q537.9844,75.0469 537.9844,76.0781 L537.9844,77.1719 Q537.9844,78.4063 538.875,79.2266 Q539.7656,80.0469 541.3594,80.0469 Q542.2969,80.0469 542.9531,79.7969 Q543.3438,79.6406 543.7656,79.2031 Q544.0313,78.9375 544.1797,78.8594 Q544.3281,78.7813 544.5313,78.7813 Q544.8594,78.7813 545.1172,79.0391 Q545.375,79.2969 545.375,79.6406 Q545.375,79.9844 545.0313,80.3906 Q544.5313,80.9688 543.7344,81.2969 Q542.6563,81.75 541.3594,81.75 Q539.8438,81.75 538.6406,81.125 Q537.6563,80.625 536.9688,79.5547 Q536.2813,78.4844 536.2813,77.2031 L536.2813,76.0469 Q536.2813,74.7188 536.8984,73.5703 Q537.5156,72.4219 538.6094,71.8047 Q539.7031,71.1875 540.9375,71.1875 Q541.6719,71.1875 542.3203,71.3516 Q542.9688,71.5156 543.5156,71.875 Z "/><text fill="#000000" font-family="sans-serif" font-size="12" lengthAdjust="spacingAndGlyphs" textLength="30" x="561.25" y="80.9102">Logic</text><line style="stroke: #A80036; stroke-width: 1.5;" x1="451" x2="669" y1="92" y2="92"/><rect fill="none" height="6" style="stroke: #C82930; stroke-width: 1.0;" width="6" x="458" y="101.418"/><text fill="#000000" font-family="sans-serif" font-size="11" lengthAdjust="spacingAndGlyphs" textLength="55" x="470" y="107.4189">state: State</text><rect fill="none" height="6" style="stroke: #C82930; stroke-width: 1.0;" width="6" x="458" y="115.2539"/><text fill="#000000" font-family="sans-serif" font-size="11" lengthAdjust="spacingAndGlyphs" textLength="60" x="470" y="121.2549">game: Game</text><rect fill="none" height="6" style="stroke: #C82930; stroke-width: 1.0;" width="6" x="458" y="129.0898"/><text fill="#000000" font-family="sans-serif" font-size="11" lengthAdjust="spacingAndGlyphs" textLength="194" x="470" y="135.0908">controllers: Map&lt;StateValue, Controller&gt;</text><line style="stroke: #A80036; stroke-width: 1.5;" x1="451" x2="669" y1="141.5078" y2="141.5078"/><ellipse cx="461" cy="153.9258" fill="#84BE84" rx="3" ry="3" style="stroke: #038048; stroke-width: 1.0;"/><text fill="#000000" font-family="sans-serif" font-size="11" lengthAdjust="spacingAndGlyphs" textLength="34" x="470" y="156.9268">Logic()</text><ellipse cx="461" cy="167.7617" fill="#84BE84" rx="3" ry="3" style="stroke: #038048; stroke-width: 1.0;"/><text fill="#000000" font-family="sans-serif" font-size="11" lengthAdjust="spacingAndGlyphs" textLength="121" x="470" y="170.7627">getController(): Controller</text><!--class mastermind.controllers.StateValue--><rect fill="#FEFECE" filter="url(#f1pqgncqqqsr7d)" height="131.0156" id="mastermind.controllers.StateValue" style="stroke: #A80036; stroke-width: 1.5;" width="159" x="57.5" y="605"/><ellipse cx="103.25" cy="621" fill="#ADD1B2" rx="11" ry="11" style="stroke: #A80036; stroke-width: 1.0;"/><path d="M106.0156,616.875 Q106.1719,616.6563 106.3594,616.5469 Q106.5469,616.4375 106.7656,616.4375 Q107.1406,616.4375 107.375,616.6953 Q107.6094,616.9531 107.6094,617.5625 L107.6094,619.0156 Q107.6094,619.625 107.375,619.8906 Q107.1406,620.1563 106.7656,620.1563 Q106.4219,620.1563 106.2188,619.9531 Q106.0156,619.7656 105.9063,619.25 Q105.8594,618.8906 105.6719,618.7031 Q105.3438,618.3281 104.7344,618.1094 Q104.125,617.8906 103.5,617.8906 Q102.7344,617.8906 102.1016,618.2188 Q101.4688,618.5469 100.9766,619.2969 Q100.4844,620.0469 100.4844,621.0781 L100.4844,622.1719 Q100.4844,623.4063 101.375,624.2266 Q102.2656,625.0469 103.8594,625.0469 Q104.7969,625.0469 105.4531,624.7969 Q105.8438,624.6406 106.2656,624.2031 Q106.5313,623.9375 106.6797,623.8594 Q106.8281,623.7813 107.0313,623.7813 Q107.3594,623.7813 107.6172,624.0391 Q107.875,624.2969 107.875,624.6406 Q107.875,624.9844 107.5313,625.3906 Q107.0313,625.9688 106.2344,626.2969 Q105.1563,626.75 103.8594,626.75 Q102.3438,626.75 101.1406,626.125 Q100.1563,625.625 99.4688,624.5547 Q98.7813,623.4844 98.7813,622.2031 L98.7813,621.0469 Q98.7813,619.7188 99.3984,618.5703 Q100.0156,617.4219 101.1094,616.8047 Q102.2031,616.1875 103.4375,616.1875 Q104.1719,616.1875 104.8203,616.3516 Q105.4688,616.5156 106.0156,616.875 Z "/><text fill="#000000" font-family="sans-serif" font-size="12" lengthAdjust="spacingAndGlyphs" textLength="59" x="123.75" y="625.9102">StateValue</text><line style="stroke: #A80036; stroke-width: 1.5;" x1="58.5" x2="215.5" y1="637" y2="637"/><ellipse cx="68.5" cy="649.418" fill="none" rx="3" ry="3" style="stroke: #038048; stroke-width: 1.0;"/><text fill="#000000" font-family="sans-serif" font-size="11" lengthAdjust="spacingAndGlyphs" text-decoration="underline" textLength="92" x="77.5" y="652.4189">INITIAL: StateValue</text><ellipse cx="68.5" cy="663.2539" fill="none" rx="3" ry="3" style="stroke: #038048; stroke-width: 1.0;"/><text fill="#000000" font-family="sans-serif" font-size="11" lengthAdjust="spacingAndGlyphs" text-decoration="underline" textLength="104" x="77.5" y="666.2549">IN_GAME: StateValue</text><ellipse cx="68.5" cy="677.0898" fill="none" rx="3" ry="3" style="stroke: #038048; stroke-width: 1.0;"/><text fill="#000000" font-family="sans-serif" font-size="11" lengthAdjust="spacingAndGlyphs" text-decoration="underline" textLength="88" x="77.5" y="680.0908">FINAL: StateValue</text><ellipse cx="68.5" cy="690.9258" fill="none" rx="3" ry="3" style="stroke: #038048; stroke-width: 1.0;"/><text fill="#000000" font-family="sans-serif" font-size="11" lengthAdjust="spacingAndGlyphs" text-decoration="underline" textLength="80" x="77.5" y="693.9268">EXIT: StateValue</text><line style="stroke: #A80036; stroke-width: 1.5;" x1="58.5" x2="215.5" y1="700.3438" y2="700.3438"/><rect fill="#F24D5C" height="6" style="stroke: #C82930; stroke-width: 1.0;" width="6" x="65.5" y="709.7617"/><text fill="#000000" font-family="sans-serif" font-size="11" lengthAdjust="spacingAndGlyphs" textLength="61" x="77.5" y="715.7627">StateValue()</text><ellipse cx="68.5" cy="726.5977" fill="#84BE84" rx="3" ry="3" style="stroke: #038048; stroke-width: 1.0;"/><text fill="#000000" font-family="sans-serif" font-size="11" lengthAdjust="spacingAndGlyphs" text-decoration="underline" textLength="133" x="77.5" y="729.5986">valueOf(String): StateValue</text><!--class mastermind.controllers.ProposalController--><rect fill="#FEFECE" filter="url(#f1pqgncqqqsr7d)" height="144.8516" id="mastermind.controllers.ProposalController" style="stroke: #A80036; stroke-width: 1.5;" width="181" x="469.5" y="400"/><ellipse cx="504.75" cy="416" fill="#ADD1B2" rx="11" ry="11" style="stroke: #A80036; stroke-width: 1.0;"/><path d="M507.5156,411.875 Q507.6719,411.6563 507.8594,411.5469 Q508.0469,411.4375 508.2656,411.4375 Q508.6406,411.4375 508.875,411.6953 Q509.1094,411.9531 509.1094,412.5625 L509.1094,414.0156 Q509.1094,414.625 508.875,414.8906 Q508.6406,415.1563 508.2656,415.1563 Q507.9219,415.1563 507.7188,414.9531 Q507.5156,414.7656 507.4063,414.25 Q507.3594,413.8906 507.1719,413.7031 Q506.8438,413.3281 506.2344,413.1094 Q505.625,412.8906 505,412.8906 Q504.2344,412.8906 503.6016,413.2188 Q502.9688,413.5469 502.4766,414.2969 Q501.9844,415.0469 501.9844,416.0781 L501.9844,417.1719 Q501.9844,418.4063 502.875,419.2266 Q503.7656,420.0469 505.3594,420.0469 Q506.2969,420.0469 506.9531,419.7969 Q507.3438,419.6406 507.7656,419.2031 Q508.0313,418.9375 508.1797,418.8594 Q508.3281,418.7813 508.5313,418.7813 Q508.8594,418.7813 509.1172,419.0391 Q509.375,419.2969 509.375,419.6406 Q509.375,419.9844 509.0313,420.3906 Q508.5313,420.9688 507.7344,421.2969 Q506.6563,421.75 505.3594,421.75 Q503.8438,421.75 502.6406,421.125 Q501.6563,420.625 500.9688,419.5547 Q500.2813,418.4844 500.2813,417.2031 L500.2813,416.0469 Q500.2813,414.7188 500.8984,413.5703 Q501.5156,412.4219 502.6094,411.8047 Q503.7031,411.1875 504.9375,411.1875 Q505.6719,411.1875 506.3203,411.3516 Q506.9688,411.5156 507.5156,411.875 Z "/><text fill="#000000" font-family="sans-serif" font-size="12" lengthAdjust="spacingAndGlyphs" textLength="104" x="523.25" y="420.9102">ProposalController</text><line style="stroke: #A80036; stroke-width: 1.5;" x1="470.5" x2="649.5" y1="432" y2="432"/><ellipse cx="480.5" cy="444.418" fill="none" rx="3" ry="3" style="stroke: #038048; stroke-width: 1.0;"/><text fill="#000000" font-family="sans-serif" font-size="11" lengthAdjust="spacingAndGlyphs" text-decoration="underline" textLength="73" x="489.5" y="447.4189">NO_ERROR: int</text><line style="stroke: #A80036; stroke-width: 1.5;" x1="470.5" x2="649.5" y1="453.8359" y2="453.8359"/><ellipse cx="480.5" cy="466.2539" fill="#84BE84" rx="3" ry="3" style="stroke: #038048; stroke-width: 1.0;"/><text fill="#000000" font-family="sans-serif" font-size="11" lengthAdjust="spacingAndGlyphs" textLength="155" x="489.5" y="469.2549">ProposalController(Game, State)</text><ellipse cx="480.5" cy="480.0898" fill="#84BE84" rx="3" ry="3" style="stroke: #038048; stroke-width: 1.0;"/><text fill="#000000" font-family="sans-serif" font-size="11" lengthAdjust="spacingAndGlyphs" textLength="140" x="489.5" y="483.0908">proposeCombination(int[]): int</text><ellipse cx="480.5" cy="493.9258" fill="#84BE84" rx="3" ry="3" style="stroke: #038048; stroke-width: 1.0;"/><text fill="#000000" font-family="sans-serif" font-size="11" lengthAdjust="spacingAndGlyphs" textLength="62" x="489.5" y="496.9268">getTurn(): int</text><ellipse cx="480.5" cy="507.7617" fill="#84BE84" rx="3" ry="3" style="stroke: #038048; stroke-width: 1.0;"/><text fill="#000000" font-family="sans-serif" font-size="11" lengthAdjust="spacingAndGlyphs" textLength="101" x="489.5" y="510.7627">getAllCodes(): int[][][]</text><ellipse cx="480.5" cy="521.5977" fill="#84BE84" rx="3" ry="3" style="stroke: #038048; stroke-width: 1.0;"/><text fill="#000000" font-family="sans-serif" font-size="11" lengthAdjust="spacingAndGlyphs" textLength="94" x="489.5" y="524.5986">isWinner(): boolean</text><ellipse cx="480.5" cy="535.4336" fill="#84BE84" rx="3" ry="3" style="stroke: #038048; stroke-width: 1.0;"/><text fill="#000000" font-family="sans-serif" font-size="11" lengthAdjust="spacingAndGlyphs" textLength="94" x="489.5" y="538.4346">isLooser(): boolean</text><!--class mastermind.controllers.ResumeController--><rect fill="#FEFECE" filter="url(#f1pqgncqqqsr7d)" height="75.6719" id="mastermind.controllers.ResumeController" style="stroke: #A80036; stroke-width: 1.5;" width="178" x="686" y="434.5"/><ellipse cx="720.8" cy="450.5" fill="#ADD1B2" rx="11" ry="11" style="stroke: #A80036; stroke-width: 1.0;"/><path d="M723.5656,446.375 Q723.7219,446.1563 723.9094,446.0469 Q724.0969,445.9375 724.3156,445.9375 Q724.6906,445.9375 724.925,446.1953 Q725.1594,446.4531 725.1594,447.0625 L725.1594,448.5156 Q725.1594,449.125 724.925,449.3906 Q724.6906,449.6563 724.3156,449.6563 Q723.9719,449.6563 723.7688,449.4531 Q723.5656,449.2656 723.4563,448.75 Q723.4094,448.3906 723.2219,448.2031 Q722.8938,447.8281 722.2844,447.6094 Q721.675,447.3906 721.05,447.3906 Q720.2844,447.3906 719.6516,447.7188 Q719.0188,448.0469 718.5266,448.7969 Q718.0344,449.5469 718.0344,450.5781 L718.0344,451.6719 Q718.0344,452.9063 718.925,453.7266 Q719.8156,454.5469 721.4094,454.5469 Q722.3469,454.5469 723.0031,454.2969 Q723.3938,454.1406 723.8156,453.7031 Q724.0813,453.4375 724.2297,453.3594 Q724.3781,453.2813 724.5813,453.2813 Q724.9094,453.2813 725.1672,453.5391 Q725.425,453.7969 725.425,454.1406 Q725.425,454.4844 725.0813,454.8906 Q724.5813,455.4688 723.7844,455.7969 Q722.7063,456.25 721.4094,456.25 Q719.8938,456.25 718.6906,455.625 Q717.7063,455.125 717.0188,454.0547 Q716.3313,452.9844 716.3313,451.7031 L716.3313,450.5469 Q716.3313,449.2188 716.9484,448.0703 Q717.5656,446.9219 718.6594,446.3047 Q719.7531,445.6875 720.9875,445.6875 Q721.7219,445.6875 722.3703,445.8516 Q723.0188,446.0156 723.5656,446.375 Z "/><text fill="#000000" font-family="sans-serif" font-size="12" lengthAdjust="spacingAndGlyphs" textLength="102" x="739.2" y="455.4102">ResumeController</text><line style="stroke: #A80036; stroke-width: 1.5;" x1="687" x2="863" y1="466.5" y2="466.5"/><line style="stroke: #A80036; stroke-width: 1.5;" x1="687" x2="863" y1="474.5" y2="474.5"/><ellipse cx="697" cy="486.918" fill="#84BE84" rx="3" ry="3" style="stroke: #038048; stroke-width: 1.0;"/><text fill="#000000" font-family="sans-serif" font-size="11" lengthAdjust="spacingAndGlyphs" textLength="152" x="706" y="489.9189">ResumeController(Game, State)</text><ellipse cx="697" cy="500.7539" fill="#84BE84" rx="3" ry="3" style="stroke: #038048; stroke-width: 1.0;"/><text fill="#000000" font-family="sans-serif" font-size="11" lengthAdjust="spacingAndGlyphs" textLength="108" x="706" y="503.7549">resume(boolean): void</text><!--class mastermind.controllers.StartController--><rect fill="#FEFECE" filter="url(#f1pqgncqqqsr7d)" height="75.6719" id="mastermind.controllers.StartController" style="stroke: #A80036; stroke-width: 1.5;" width="162" x="272" y="434.5"/><ellipse cx="309.95" cy="450.5" fill="#ADD1B2" rx="11" ry="11" style="stroke: #A80036; stroke-width: 1.0;"/><path d="M312.7156,446.375 Q312.8719,446.1563 313.0594,446.0469 Q313.2469,445.9375 313.4656,445.9375 Q313.8406,445.9375 314.075,446.1953 Q314.3094,446.4531 314.3094,447.0625 L314.3094,448.5156 Q314.3094,449.125 314.075,449.3906 Q313.8406,449.6563 313.4656,449.6563 Q313.1219,449.6563 312.9188,449.4531 Q312.7156,449.2656 312.6063,448.75 Q312.5594,448.3906 312.3719,448.2031 Q312.0438,447.8281 311.4344,447.6094 Q310.825,447.3906 310.2,447.3906 Q309.4344,447.3906 308.8016,447.7188 Q308.1688,448.0469 307.6766,448.7969 Q307.1844,449.5469 307.1844,450.5781 L307.1844,451.6719 Q307.1844,452.9063 308.075,453.7266 Q308.9656,454.5469 310.5594,454.5469 Q311.4969,454.5469 312.1531,454.2969 Q312.5438,454.1406 312.9656,453.7031 Q313.2313,453.4375 313.3797,453.3594 Q313.5281,453.2813 313.7313,453.2813 Q314.0594,453.2813 314.3172,453.5391 Q314.575,453.7969 314.575,454.1406 Q314.575,454.4844 314.2313,454.8906 Q313.7313,455.4688 312.9344,455.7969 Q311.8563,456.25 310.5594,456.25 Q309.0438,456.25 307.8406,455.625 Q306.8563,455.125 306.1688,454.0547 Q305.4813,452.9844 305.4813,451.7031 L305.4813,450.5469 Q305.4813,449.2188 306.0984,448.0703 Q306.7156,446.9219 307.8094,446.3047 Q308.9031,445.6875 310.1375,445.6875 Q310.8719,445.6875 311.5203,445.8516 Q312.1688,446.0156 312.7156,446.375 Z "/><text fill="#000000" font-family="sans-serif" font-size="12" lengthAdjust="spacingAndGlyphs" textLength="79" x="329.05" y="455.4102">StartController</text><line style="stroke: #A80036; stroke-width: 1.5;" x1="273" x2="433" y1="466.5" y2="466.5"/><line style="stroke: #A80036; stroke-width: 1.5;" x1="273" x2="433" y1="474.5" y2="474.5"/><ellipse cx="283" cy="486.918" fill="#84BE84" rx="3" ry="3" style="stroke: #038048; stroke-width: 1.0;"/><text fill="#000000" font-family="sans-serif" font-size="11" lengthAdjust="spacingAndGlyphs" textLength="136" x="292" y="489.9189">StartController(Game, State)</text><ellipse cx="283" cy="500.7539" fill="#84BE84" rx="3" ry="3" style="stroke: #038048; stroke-width: 1.0;"/><text fill="#000000" font-family="sans-serif" font-size="11" lengthAdjust="spacingAndGlyphs" textLength="56" x="292" y="503.7549">start(): void</text><!--class mastermind.models.Game--><rect fill="#FEFECE" filter="url(#f1pqgncqqqsr7d)" height="48" id="mastermind.models.Game" style="stroke: #A80036; stroke-width: 1.5;" width="66" x="920" y="448.5"/><ellipse cx="935" cy="464.5" fill="#ADD1B2" rx="11" ry="11" style="stroke: #A80036; stroke-width: 1.0;"/><path d="M937.7656,460.375 Q937.9219,460.1563 938.1094,460.0469 Q938.2969,459.9375 938.5156,459.9375 Q938.8906,459.9375 939.125,460.1953 Q939.3594,460.4531 939.3594,461.0625 L939.3594,462.5156 Q939.3594,463.125 939.125,463.3906 Q938.8906,463.6563 938.5156,463.6563 Q938.1719,463.6563 937.9688,463.4531 Q937.7656,463.2656 937.6563,462.75 Q937.6094,462.3906 937.4219,462.2031 Q937.0938,461.8281 936.4844,461.6094 Q935.875,461.3906 935.25,461.3906 Q934.4844,461.3906 933.8516,461.7188 Q933.2188,462.0469 932.7266,462.7969 Q932.2344,463.5469 932.2344,464.5781 L932.2344,465.6719 Q932.2344,466.9063 933.125,467.7266 Q934.0156,468.5469 935.6094,468.5469 Q936.5469,468.5469 937.2031,468.2969 Q937.5938,468.1406 938.0156,467.7031 Q938.2813,467.4375 938.4297,467.3594 Q938.5781,467.2813 938.7813,467.2813 Q939.1094,467.2813 939.3672,467.5391 Q939.625,467.7969 939.625,468.1406 Q939.625,468.4844 939.2813,468.8906 Q938.7813,469.4688 937.9844,469.7969 Q936.9063,470.25 935.6094,470.25 Q934.0938,470.25 932.8906,469.625 Q931.9063,469.125 931.2188,468.0547 Q930.5313,466.9844 930.5313,465.7031 L930.5313,464.5469 Q930.5313,463.2188 931.1484,462.0703 Q931.7656,460.9219 932.8594,460.3047 Q933.9531,459.6875 935.1875,459.6875 Q935.9219,459.6875 936.5703,459.8516 Q937.2188,460.0156 937.7656,460.375 Z "/><text fill="#000000" font-family="sans-serif" font-size="12" lengthAdjust="spacingAndGlyphs" textLength="34" x="949" y="469.4102">Game</text><line style="stroke: #A80036; stroke-width: 1.5;" x1="921" x2="985" y1="480.5" y2="480.5"/><line style="stroke: #A80036; stroke-width: 1.5;" x1="921" x2="985" y1="488.5" y2="488.5"/><!--class java.util.Map--><rect fill="#FEFECE" filter="url(#f1pqgncqqqsr7d)" height="48" id="java.util.Map" style="stroke: #A80036; stroke-width: 1.5;" width="55" x="920.5" y="264.5"/><ellipse cx="935.5" cy="280.5" fill="#ADD1B2" rx="11" ry="11" style="stroke: #A80036; stroke-width: 1.0;"/><path d="M938.2656,276.375 Q938.4219,276.1563 938.6094,276.0469 Q938.7969,275.9375 939.0156,275.9375 Q939.3906,275.9375 939.625,276.1953 Q939.8594,276.4531 939.8594,277.0625 L939.8594,278.5156 Q939.8594,279.125 939.625,279.3906 Q939.3906,279.6563 939.0156,279.6563 Q938.6719,279.6563 938.4688,279.4531 Q938.2656,279.2656 938.1563,278.75 Q938.1094,278.3906 937.9219,278.2031 Q937.5938,277.8281 936.9844,277.6094 Q936.375,277.3906 935.75,277.3906 Q934.9844,277.3906 934.3516,277.7188 Q933.7188,278.0469 933.2266,278.7969 Q932.7344,279.5469 932.7344,280.5781 L932.7344,281.6719 Q932.7344,282.9063 933.625,283.7266 Q934.5156,284.5469 936.1094,284.5469 Q937.0469,284.5469 937.7031,284.2969 Q938.0938,284.1406 938.5156,283.7031 Q938.7813,283.4375 938.9297,283.3594 Q939.0781,283.2813 939.2813,283.2813 Q939.6094,283.2813 939.8672,283.5391 Q940.125,283.7969 940.125,284.1406 Q940.125,284.4844 939.7813,284.8906 Q939.2813,285.4688 938.4844,285.7969 Q937.4063,286.25 936.1094,286.25 Q934.5938,286.25 933.3906,285.625 Q932.4063,285.125 931.7188,284.0547 Q931.0313,282.9844 931.0313,281.7031 L931.0313,280.5469 Q931.0313,279.2188 931.6484,278.0703 Q932.2656,276.9219 933.3594,276.3047 Q934.4531,275.6875 935.6875,275.6875 Q936.4219,275.6875 937.0703,275.8516 Q937.7188,276.0156 938.2656,276.375 Z "/><text fill="#000000" font-family="sans-serif" font-size="12" lengthAdjust="spacingAndGlyphs" textLength="23" x="949.5" y="285.4102">Map</text><line style="stroke: #A80036; stroke-width: 1.5;" x1="921.5" x2="974.5" y1="296.5" y2="296.5"/><line style="stroke: #A80036; stroke-width: 1.5;" x1="921.5" x2="974.5" y1="304.5" y2="304.5"/><!--link mastermind.controllers.Controller to mastermind.controllers.State--><path d="M490.486,308.435 C426.872,327.179 331.187,358.986 254,400 C247.653,403.372 241.257,407.116 234.938,411.072 " fill="none" id="mastermind.controllers.Controller-mastermind.controllers.State" style="stroke: #A80036; stroke-width: 1.0;"/><polygon fill="#A80036" points="230.577,413.843,240.3184,412.3924,234.7971,411.1615,236.028,405.6402,230.577,413.843" style="stroke: #A80036; stroke-width: 1.0;"/><!--link mastermind.controllers.Controller to mastermind.models.Game--><path d="M629.69,309.638 C710.337,333.62 837.508,373.728 880,400 C899.171,411.853 917.294,429.553 930.687,444.376 " fill="none" id="mastermind.controllers.Controller-mastermind.models.Game" style="stroke: #A80036; stroke-width: 1.0;"/><polygon fill="#A80036" points="934.336,448.473,931.3375,439.0917,931.0106,444.7391,925.3632,444.4123,934.336,448.473" style="stroke: #A80036; stroke-width: 1.0;"/><!--link mastermind.controllers.Logic to mastermind.controllers.State--><path d="M483.823,185.872 C411.786,248.637 304.272,342.313 232.22,405.09 " fill="none" id="mastermind.controllers.Logic-mastermind.controllers.State" style="stroke: #A80036; stroke-width: 1.0;"/><polygon fill="#A80036" points="222.296,413.737,231.7095,410.8412,226.066,410.4527,226.4546,404.8092,222.296,413.737" style="stroke: #A80036; stroke-width: 1.0;"/><line style="stroke: #A80036; stroke-width: 1.0;" x1="226.066" x2="232.098" y1="410.4527" y2="405.197"/><polygon fill="#A80036" points="493.74,177.231,486.5886,178.1567,484.6925,185.1141,491.844,184.1884,493.74,177.231" style="stroke: #A80036; stroke-width: 1.0;"/><!--link mastermind.controllers.Logic to mastermind.controllers.StateValue--><path d="M436.99,146.535 C313.38,181.288 131.026,255.268 58,400 C28.9699,457.536 40.0224,483.114 58,545 C62.8085,561.553 70.5531,578.012 79.3566,593.28 " fill="none" id="mastermind.controllers.Logic-mastermind.controllers.StateValue" style="stroke: #A80036; stroke-width: 1.0;"/><polygon fill="#A80036" points="86.2639,604.706,85.0308,594.9346,83.6771,600.4271,78.1846,599.0735,86.2639,604.706" style="stroke: #A80036; stroke-width: 1.0;"/><line style="stroke: #A80036; stroke-width: 1.0;" x1="83.6771" x2="79.5384" y1="600.4271" y2="593.581"/><polygon fill="#A80036" points="449.885,142.991,443.0397,140.7236,438.3138,146.1703,445.1592,148.4377,449.885,142.991" style="stroke: #A80036; stroke-width: 1.0;"/><!--link mastermind.controllers.Logic to java.util.Map--><path d="M682.851,143.84 C744.914,159.626 819.647,184.17 880,220.5 C894.976,229.515 909.154,242.474 920.649,254.597 " fill="none" id="mastermind.controllers.Logic-java.util.Map" style="stroke: #A80036; stroke-width: 1.0;"/><polygon fill="#A80036" points="929.633,264.479,926.5379,255.1291,926.2693,260.7796,920.6188,260.511,929.633,264.479" style="stroke: #A80036; stroke-width: 1.0;"/><line style="stroke: #A80036; stroke-width: 1.0;" x1="926.2693" x2="920.8885" y1="260.7796" y2="254.86"/><polygon fill="#A80036" points="670.213,140.702,675.0717,146.0305,681.859,143.595,677.0004,138.2665,670.213,140.702" style="stroke: #A80036; stroke-width: 1.0;"/><!--link mastermind.controllers.Logic to mastermind.models.Game--><path d="M638.315,186.033 C703.765,242.138 799.117,325.046 880,400 C893.45,412.464 907.94,426.52 920.438,438.85 " fill="none" id="mastermind.controllers.Logic-mastermind.models.Game" style="stroke: #A80036; stroke-width: 1.0;"/><polygon fill="#A80036" points="929.975,448.305,926.3995,439.1281,926.4241,444.7849,920.7673,444.8095,929.975,448.305" style="stroke: #A80036; stroke-width: 1.0;"/><line style="stroke: #A80036; stroke-width: 1.0;" x1="926.4241" x2="920.7425" y1="444.7849" y2="439.1525"/><polygon fill="#A80036" points="628.074,177.264,630.0301,184.2047,637.1893,185.0686,635.2332,178.1279,628.074,177.264" style="stroke: #A80036; stroke-width: 1.0;"/><!--link mastermind.controllers.Logic to mastermind.controllers.Controller--><path d="M560,190.739 C560,201.646 560,212.846 560,223.581 " fill="none" id="mastermind.controllers.Logic-mastermind.controllers.Controller" style="stroke: #A80036; stroke-width: 1.0;"/><polygon fill="#A80036" points="560,236.874,564,227.874,560,231.874,556,227.874,560,236.874" style="stroke: #A80036; stroke-width: 1.0;"/><line style="stroke: #A80036; stroke-width: 1.0;" x1="560" x2="560" y1="231.874" y2="223.874"/><polygon fill="#A80036" points="560,177.316,556,183.316,560,189.316,564,183.316,560,177.316" style="stroke: #A80036; stroke-width: 1.0;"/><!--link mastermind.controllers.Controller to mastermind.controllers.ProposalController--><path d="M560,360.577 C560,373.523 560,387.035 560,399.993 " fill="none" id="mastermind.controllers.Controller-mastermind.controllers.ProposalController" style="stroke: #A80036; stroke-width: 1.0;"/><polygon fill="none" points="553,360.197,560,340.197,567,360.197,553,360.197" style="stroke: #A80036; stroke-width: 1.0;"/><!--link mastermind.controllers.Controller to mastermind.controllers.ResumeController--><path d="M635.229,353.182 C667.281,380.314 703.551,411.018 731.111,434.347 " fill="none" id="mastermind.controllers.Controller-mastermind.controllers.ResumeController" style="stroke: #A80036; stroke-width: 1.0;"/><polygon fill="none" points="630.632,358.462,619.889,340.197,639.677,347.776,630.632,358.462" style="stroke: #A80036; stroke-width: 1.0;"/><!--link mastermind.controllers.Controller to mastermind.controllers.StartController--><path d="M487.15,353.552 C456.394,380.593 421.67,411.124 395.256,434.347 " fill="none" id="mastermind.controllers.Controller-mastermind.controllers.StartController" style="stroke: #A80036; stroke-width: 1.0;"/><polygon fill="none" points="482.697,348.146,502.339,340.197,491.941,358.66,482.697,348.146" style="stroke: #A80036; stroke-width: 1.0;"/><!--link mastermind.controllers.State to mastermind.controllers.StateValue--><path d="M150.402,531.246 C148.316,552.767 145.926,577.423 143.747,599.898 " fill="none" id="mastermind.controllers.State-mastermind.controllers.StateValue" style="stroke: #A80036; stroke-width: 1.0;"/><polygon fill="#A80036" points="143.257,604.957,148.1074,596.3853,143.7398,599.9804,140.1447,595.6128,143.257,604.957" style="stroke: #A80036; stroke-width: 1.0;"/><!--
@startuml

class  mastermind.controllers.Controller{
# game: Game
# state: State
~ Controller(State, Game)
+ getWidth(): int
}
mastermind.controllers.Controller -down-> mastermind.controllers.State
mastermind.controllers.Controller -down-> mastermind.models.Game

class  mastermind.controllers.Logic{
- state: State
- game: Game
- controllers: Map<StateValue, Controller>
+ Logic()
+ getController(): Controller
}
mastermind.controllers.Logic *-down-> mastermind.controllers.State
mastermind.controllers.Logic *-down-> mastermind.controllers.StateValue
mastermind.controllers.Logic *-down-> java.util.Map
mastermind.controllers.Logic *-down-> mastermind.models.Game
mastermind.controllers.Logic *- -> mastermind.controllers.Controller

class  mastermind.controllers.ProposalController{
+ {static} NO_ERROR: int
+ ProposalController(Game, State)
+ proposeCombination(int[]): int
+ getTurn(): int
+ getAllCodes(): int[][][]
+ isWinner(): boolean
+ isLooser(): boolean
}
mastermind.controllers.Controller <|-down- mastermind.controllers.ProposalController

class  mastermind.controllers.ResumeController{
+ ResumeController(Game, State)
+ resume(boolean): void
}
mastermind.controllers.Controller <|-down- mastermind.controllers.ResumeController

class  mastermind.controllers.StartController{
+ StartController(Game, State)
+ start(): void
}
mastermind.controllers.Controller <|-down- mastermind.controllers.StartController

class  mastermind.controllers.State{
- stateValue: StateValue
~ State()
~ next(): void
~ reset(): void
~ getValueState(): StateValue
}
mastermind.controllers.State - -> mastermind.controllers.StateValue

class  mastermind.controllers.StateValue{
+ {static} INITIAL: StateValue
+ {static} IN_GAME: StateValue
+ {static} FINAL: StateValue
+ {static} EXIT: StateValue
- StateValue()
+ {static} valueOf(String): StateValue
}

@enduml

PlantUML version 1.2019.05(Sat Apr 20 18:45:36 CEST 2019)
(GPL source distribution)
Java Runtime: OpenJDK Runtime Environment
JVM: OpenJDK 64-Bit Server VM
Java Version: 1.8.0_222-b10
Operating System: Windows 10
OS Version: 10.0
Default Encoding: windows-1252
Language: es
Country: ES
--></g></svg>