<?xml version="1.0" encoding="UTF-8" standalone="no"?><svg xmlns="http://www.w3.org/2000/svg" xmlns:xlink="http://www.w3.org/1999/xlink" contentScriptType="application/ecmascript" contentStyleType="text/css" height="632px" preserveAspectRatio="none" style="width:759px;height:632px;" version="1.1" viewBox="0 0 759 632" width="759px" zoomAndPan="magnify"><defs><filter height="300%" id="fopgygdhv2xa9" width="300%" x="-1" y="-1"><feGaussianBlur result="blurOut" stdDeviation="2.0"/><feColorMatrix in="blurOut" result="blurOut2" type="matrix" values="0 0 0 0 0 0 0 0 0 0 0 0 0 0 0 0 0 0 .4 0"/><feOffset dx="4.0" dy="4.0" in="blurOut2" result="blurOut3"/><feBlend in="SourceGraphic" in2="blurOut3" mode="normal"/></filter></defs><g><!--cluster mastermind.views--><polygon fill="#FFFFFF" filter="url(#fopgygdhv2xa9)" points="22,66,155,66,162,89.6094,560,89.6094,560,620,22,620,22,66" style="stroke: #000000; stroke-width: 1.5;"/><line style="stroke: #000000; stroke-width: 1.5;" x1="22" x2="162" y1="89.6094" y2="89.6094"/><text fill="#000000" font-family="sans-serif" font-size="14" font-weight="bold" lengthAdjust="spacingAndGlyphs" textLength="127" x="26" y="82.5332">mastermind.views</text><!--cluster mastermind.models--><polygon fill="#FFFFFF" filter="url(#fopgygdhv2xa9)" points="584,437,727,437,734,460.6094,737,460.6094,737,537,584,537,584,437" style="stroke: #000000; stroke-width: 1.5;"/><line style="stroke: #000000; stroke-width: 1.5;" x1="584" x2="734" y1="460.6094" y2="460.6094"/><text fill="#000000" font-family="sans-serif" font-size="14" font-weight="bold" lengthAdjust="spacingAndGlyphs" textLength="137" x="588" y="453.5332">mastermind.models</text><!--class mastermind.views.Color--><rect fill="#FEFECE" filter="url(#fopgygdhv2xa9)" height="227.8672" id="mastermind.views.Color" style="stroke: #A80036; stroke-width: 1.5;" width="143" x="38.5" y="102"/><ellipse cx="90.75" cy="118" fill="#ADD1B2" rx="11" ry="11" style="stroke: #A80036; stroke-width: 1.0;"/><path d="M93.5156,113.875 Q93.6719,113.6563 93.8594,113.5469 Q94.0469,113.4375 94.2656,113.4375 Q94.6406,113.4375 94.875,113.6953 Q95.1094,113.9531 95.1094,114.5625 L95.1094,116.0156 Q95.1094,116.625 94.875,116.8906 Q94.6406,117.1563 94.2656,117.1563 Q93.9219,117.1563 93.7188,116.9531 Q93.5156,116.7656 93.4063,116.25 Q93.3594,115.8906 93.1719,115.7031 Q92.8438,115.3281 92.2344,115.1094 Q91.625,114.8906 91,114.8906 Q90.2344,114.8906 89.6016,115.2188 Q88.9688,115.5469 88.4766,116.2969 Q87.9844,117.0469 87.9844,118.0781 L87.9844,119.1719 Q87.9844,120.4063 88.875,121.2266 Q89.7656,122.0469 91.3594,122.0469 Q92.2969,122.0469 92.9531,121.7969 Q93.3438,121.6406 93.7656,121.2031 Q94.0313,120.9375 94.1797,120.8594 Q94.3281,120.7813 94.5313,120.7813 Q94.8594,120.7813 95.1172,121.0391 Q95.375,121.2969 95.375,121.6406 Q95.375,121.9844 95.0313,122.3906 Q94.5313,122.9688 93.7344,123.2969 Q92.6563,123.75 91.3594,123.75 Q89.8438,123.75 88.6406,123.125 Q87.6563,122.625 86.9688,121.5547 Q86.2813,120.4844 86.2813,119.2031 L86.2813,118.0469 Q86.2813,116.7188 86.8984,115.5703 Q87.5156,114.4219 88.6094,113.8047 Q89.7031,113.1875 90.9375,113.1875 Q91.6719,113.1875 92.3203,113.3516 Q92.9688,113.5156 93.5156,113.875 Z "/><text fill="#000000" font-family="sans-serif" font-size="12" lengthAdjust="spacingAndGlyphs" textLength="30" x="111.25" y="122.9102">Color</text><line style="stroke: #A80036; stroke-width: 1.5;" x1="39.5" x2="180.5" y1="134" y2="134"/><ellipse cx="49.5" cy="146.418" fill="none" rx="3" ry="3" style="stroke: #038048; stroke-width: 1.0;"/><text fill="#000000" font-family="sans-serif" font-size="11" lengthAdjust="spacingAndGlyphs" text-decoration="underline" textLength="51" x="58.5" y="149.4189">RED: Color</text><ellipse cx="49.5" cy="160.2539" fill="none" rx="3" ry="3" style="stroke: #038048; stroke-width: 1.0;"/><text fill="#000000" font-family="sans-serif" font-size="11" lengthAdjust="spacingAndGlyphs" text-decoration="underline" textLength="57" x="58.5" y="163.2549">BLUE: Color</text><ellipse cx="49.5" cy="174.0898" fill="none" rx="3" ry="3" style="stroke: #038048; stroke-width: 1.0;"/><text fill="#000000" font-family="sans-serif" font-size="11" lengthAdjust="spacingAndGlyphs" text-decoration="underline" textLength="75" x="58.5" y="177.0908">YELLOW: Color</text><ellipse cx="49.5" cy="187.9258" fill="none" rx="3" ry="3" style="stroke: #038048; stroke-width: 1.0;"/><text fill="#000000" font-family="sans-serif" font-size="11" lengthAdjust="spacingAndGlyphs" text-decoration="underline" textLength="65" x="58.5" y="190.9268">GREEN: Color</text><ellipse cx="49.5" cy="201.7617" fill="none" rx="3" ry="3" style="stroke: #038048; stroke-width: 1.0;"/><text fill="#000000" font-family="sans-serif" font-size="11" lengthAdjust="spacingAndGlyphs" text-decoration="underline" textLength="75" x="58.5" y="204.7627">ORANGE: Color</text><ellipse cx="49.5" cy="215.5977" fill="none" rx="3" ry="3" style="stroke: #038048; stroke-width: 1.0;"/><text fill="#000000" font-family="sans-serif" font-size="11" lengthAdjust="spacingAndGlyphs" text-decoration="underline" textLength="69" x="58.5" y="218.5986">PURPLE: Color</text><rect fill="none" height="6" style="stroke: #C82930; stroke-width: 1.0;" width="6" x="46.5" y="226.4336"/><text fill="#000000" font-family="sans-serif" font-size="11" lengthAdjust="spacingAndGlyphs" textLength="51" x="58.5" y="232.4346">initial: char</text><line style="stroke: #A80036; stroke-width: 1.5;" x1="39.5" x2="180.5" y1="238.8516" y2="238.8516"/><rect fill="#F24D5C" height="6" style="stroke: #C82930; stroke-width: 1.0;" width="6" x="46.5" y="248.2695"/><text fill="#000000" font-family="sans-serif" font-size="11" lengthAdjust="spacingAndGlyphs" textLength="55" x="58.5" y="254.2705">Color(char)</text><ellipse cx="49.5" cy="265.1055" fill="#84BE84" rx="3" ry="3" style="stroke: #038048; stroke-width: 1.0;"/><text fill="#000000" font-family="sans-serif" font-size="11" lengthAdjust="spacingAndGlyphs" text-decoration="underline" textLength="105" x="58.5" y="268.1064">valueOf(String): Color</text><ellipse cx="49.5" cy="278.9414" fill="#84BE84" rx="3" ry="3" style="stroke: #038048; stroke-width: 1.0;"/><text fill="#000000" font-family="sans-serif" font-size="11" lengthAdjust="spacingAndGlyphs" text-decoration="underline" textLength="117" x="58.5" y="281.9424">getInstance(char): Color</text><ellipse cx="49.5" cy="292.7773" fill="#84BE84" rx="3" ry="3" style="stroke: #038048; stroke-width: 1.0;"/><text fill="#000000" font-family="sans-serif" font-size="11" lengthAdjust="spacingAndGlyphs" text-decoration="underline" textLength="106" x="58.5" y="295.7783">getInstance(int): Color</text><ellipse cx="49.5" cy="306.6133" fill="#84BE84" rx="3" ry="3" style="stroke: #038048; stroke-width: 1.0;"/><text fill="#000000" font-family="sans-serif" font-size="11" lengthAdjust="spacingAndGlyphs" textLength="74" x="58.5" y="309.6143">getInitial(): char</text><ellipse cx="49.5" cy="320.4492" fill="#84BE84" rx="3" ry="3" style="stroke: #038048; stroke-width: 1.0;"/><text fill="#000000" font-family="sans-serif" font-size="11" lengthAdjust="spacingAndGlyphs" text-decoration="underline" textLength="81" x="58.5" y="323.4502">allInitials(): String</text><!--class mastermind.views.Error--><rect fill="#FEFECE" filter="url(#fopgygdhv2xa9)" height="144.8516" id="mastermind.views.Error" style="stroke: #A80036; stroke-width: 1.5;" width="172" x="372" y="143.5"/><ellipse cx="440.25" cy="159.5" fill="#ADD1B2" rx="11" ry="11" style="stroke: #A80036; stroke-width: 1.0;"/><path d="M443.0156,155.375 Q443.1719,155.1563 443.3594,155.0469 Q443.5469,154.9375 443.7656,154.9375 Q444.1406,154.9375 444.375,155.1953 Q444.6094,155.4531 444.6094,156.0625 L444.6094,157.5156 Q444.6094,158.125 444.375,158.3906 Q444.1406,158.6563 443.7656,158.6563 Q443.4219,158.6563 443.2188,158.4531 Q443.0156,158.2656 442.9063,157.75 Q442.8594,157.3906 442.6719,157.2031 Q442.3438,156.8281 441.7344,156.6094 Q441.125,156.3906 440.5,156.3906 Q439.7344,156.3906 439.1016,156.7188 Q438.4688,157.0469 437.9766,157.7969 Q437.4844,158.5469 437.4844,159.5781 L437.4844,160.6719 Q437.4844,161.9063 438.375,162.7266 Q439.2656,163.5469 440.8594,163.5469 Q441.7969,163.5469 442.4531,163.2969 Q442.8438,163.1406 443.2656,162.7031 Q443.5313,162.4375 443.6797,162.3594 Q443.8281,162.2813 444.0313,162.2813 Q444.3594,162.2813 444.6172,162.5391 Q444.875,162.7969 444.875,163.1406 Q444.875,163.4844 444.5313,163.8906 Q444.0313,164.4688 443.2344,164.7969 Q442.1563,165.25 440.8594,165.25 Q439.3438,165.25 438.1406,164.625 Q437.1563,164.125 436.4688,163.0547 Q435.7813,161.9844 435.7813,160.7031 L435.7813,159.5469 Q435.7813,158.2188 436.3984,157.0703 Q437.0156,155.9219 438.1094,155.3047 Q439.2031,154.6875 440.4375,154.6875 Q441.1719,154.6875 441.8203,154.8516 Q442.4688,155.0156 443.0156,155.375 Z "/><text fill="#000000" font-family="sans-serif" font-size="12" lengthAdjust="spacingAndGlyphs" textLength="27" x="460.75" y="164.4102">Error</text><line style="stroke: #A80036; stroke-width: 1.5;" x1="373" x2="543" y1="175.5" y2="175.5"/><ellipse cx="383" cy="187.918" fill="none" rx="3" ry="3" style="stroke: #038048; stroke-width: 1.0;"/><text fill="#000000" font-family="sans-serif" font-size="11" lengthAdjust="spacingAndGlyphs" text-decoration="underline" textLength="92" x="392" y="190.9189">DUPLICATED: Error</text><ellipse cx="383" cy="201.7539" fill="none" rx="3" ry="3" style="stroke: #038048; stroke-width: 1.0;"/><text fill="#000000" font-family="sans-serif" font-size="11" lengthAdjust="spacingAndGlyphs" text-decoration="underline" textLength="146" x="392" y="204.7549">WRONG_CHARACTERS: Error</text><ellipse cx="383" cy="215.5898" fill="none" rx="3" ry="3" style="stroke: #038048; stroke-width: 1.0;"/><text fill="#000000" font-family="sans-serif" font-size="11" lengthAdjust="spacingAndGlyphs" text-decoration="underline" textLength="116" x="392" y="218.5908">WRONG_LENGTH: Error</text><rect fill="none" height="6" style="stroke: #C82930; stroke-width: 1.0;" width="6" x="380" y="226.4258"/><text fill="#000000" font-family="sans-serif" font-size="11" lengthAdjust="spacingAndGlyphs" textLength="78" x="392" y="232.4268">message: String</text><line style="stroke: #A80036; stroke-width: 1.5;" x1="373" x2="543" y1="238.8438" y2="238.8438"/><rect fill="#F24D5C" height="6" style="stroke: #C82930; stroke-width: 1.0;" width="6" x="380" y="248.2617"/><text fill="#000000" font-family="sans-serif" font-size="11" lengthAdjust="spacingAndGlyphs" textLength="60" x="392" y="254.2627">Error(String)</text><ellipse cx="383" cy="265.0977" fill="#84BE84" rx="3" ry="3" style="stroke: #038048; stroke-width: 1.0;"/><text fill="#000000" font-family="sans-serif" font-size="11" lengthAdjust="spacingAndGlyphs" text-decoration="underline" textLength="104" x="392" y="268.0986">valueOf(String): Error</text><ellipse cx="383" cy="278.9336" fill="#84BE84" rx="3" ry="3" style="stroke: #038048; stroke-width: 1.0;"/><text fill="#000000" font-family="sans-serif" font-size="11" lengthAdjust="spacingAndGlyphs" textLength="101" x="392" y="281.9346">getMessage(): String</text><!--class mastermind.views.Message--><rect fill="#FEFECE" filter="url(#fopgygdhv2xa9)" height="214.0313" id="mastermind.views.Message" style="stroke: #A80036; stroke-width: 1.5;" width="207" x="38.5" y="390"/><ellipse cx="112.25" cy="406" fill="#ADD1B2" rx="11" ry="11" style="stroke: #A80036; stroke-width: 1.0;"/><path d="M115.0156,401.875 Q115.1719,401.6563 115.3594,401.5469 Q115.5469,401.4375 115.7656,401.4375 Q116.1406,401.4375 116.375,401.6953 Q116.6094,401.9531 116.6094,402.5625 L116.6094,404.0156 Q116.6094,404.625 116.375,404.8906 Q116.1406,405.1563 115.7656,405.1563 Q115.4219,405.1563 115.2188,404.9531 Q115.0156,404.7656 114.9063,404.25 Q114.8594,403.8906 114.6719,403.7031 Q114.3438,403.3281 113.7344,403.1094 Q113.125,402.8906 112.5,402.8906 Q111.7344,402.8906 111.1016,403.2188 Q110.4688,403.5469 109.9766,404.2969 Q109.4844,405.0469 109.4844,406.0781 L109.4844,407.1719 Q109.4844,408.4063 110.375,409.2266 Q111.2656,410.0469 112.8594,410.0469 Q113.7969,410.0469 114.4531,409.7969 Q114.8438,409.6406 115.2656,409.2031 Q115.5313,408.9375 115.6797,408.8594 Q115.8281,408.7813 116.0313,408.7813 Q116.3594,408.7813 116.6172,409.0391 Q116.875,409.2969 116.875,409.6406 Q116.875,409.9844 116.5313,410.3906 Q116.0313,410.9688 115.2344,411.2969 Q114.1563,411.75 112.8594,411.75 Q111.3438,411.75 110.1406,411.125 Q109.1563,410.625 108.4688,409.5547 Q107.7813,408.4844 107.7813,407.2031 L107.7813,406.0469 Q107.7813,404.7188 108.3984,403.5703 Q109.0156,402.4219 110.1094,401.8047 Q111.2031,401.1875 112.4375,401.1875 Q113.1719,401.1875 113.8203,401.3516 Q114.4688,401.5156 115.0156,401.875 Z "/><text fill="#000000" font-family="sans-serif" font-size="12" lengthAdjust="spacingAndGlyphs" textLength="51" x="132.75" y="410.9102">Message</text><line style="stroke: #A80036; stroke-width: 1.5;" x1="39.5" x2="244.5" y1="422" y2="422"/><ellipse cx="49.5" cy="434.418" fill="none" rx="3" ry="3" style="stroke: #038048; stroke-width: 1.0;"/><text fill="#000000" font-family="sans-serif" font-size="11" lengthAdjust="spacingAndGlyphs" text-decoration="underline" textLength="77" x="58.5" y="437.4189">TURN: Message</text><ellipse cx="49.5" cy="448.2539" fill="none" rx="3" ry="3" style="stroke: #038048; stroke-width: 1.0;"/><text fill="#000000" font-family="sans-serif" font-size="11" lengthAdjust="spacingAndGlyphs" text-decoration="underline" textLength="89" x="58.5" y="451.2549">SECRET: Message</text><ellipse cx="49.5" cy="462.0898" fill="none" rx="3" ry="3" style="stroke: #038048; stroke-width: 1.0;"/><text fill="#000000" font-family="sans-serif" font-size="11" lengthAdjust="spacingAndGlyphs" text-decoration="underline" textLength="91" x="58.5" y="465.0908">RESUME: Message</text><ellipse cx="49.5" cy="475.9258" fill="none" rx="3" ry="3" style="stroke: #038048; stroke-width: 1.0;"/><text fill="#000000" font-family="sans-serif" font-size="11" lengthAdjust="spacingAndGlyphs" text-decoration="underline" textLength="89" x="58.5" y="478.9268">RESULT: Message</text><ellipse cx="49.5" cy="489.7617" fill="none" rx="3" ry="3" style="stroke: #038048; stroke-width: 1.0;"/><text fill="#000000" font-family="sans-serif" font-size="11" lengthAdjust="spacingAndGlyphs" text-decoration="underline" textLength="181" x="58.5" y="492.7627">PROPOSED_COMBINATION: Message</text><ellipse cx="49.5" cy="503.5977" fill="none" rx="3" ry="3" style="stroke: #038048; stroke-width: 1.0;"/><text fill="#000000" font-family="sans-serif" font-size="11" lengthAdjust="spacingAndGlyphs" text-decoration="underline" textLength="76" x="58.5" y="506.5986">TITLE: Message</text><ellipse cx="49.5" cy="517.4336" fill="none" rx="3" ry="3" style="stroke: #038048; stroke-width: 1.0;"/><text fill="#000000" font-family="sans-serif" font-size="11" lengthAdjust="spacingAndGlyphs" text-decoration="underline" textLength="89" x="58.5" y="520.4346">WINNER: Message</text><ellipse cx="49.5" cy="531.2695" fill="none" rx="3" ry="3" style="stroke: #038048; stroke-width: 1.0;"/><text fill="#000000" font-family="sans-serif" font-size="11" lengthAdjust="spacingAndGlyphs" text-decoration="underline" textLength="92" x="58.5" y="534.2705">LOOSER: Message</text><rect fill="none" height="6" style="stroke: #C82930; stroke-width: 1.0;" width="6" x="46.5" y="542.1055"/><text fill="#000000" font-family="sans-serif" font-size="11" lengthAdjust="spacingAndGlyphs" textLength="78" x="58.5" y="548.1064">message: String</text><line style="stroke: #A80036; stroke-width: 1.5;" x1="39.5" x2="244.5" y1="554.5234" y2="554.5234"/><rect fill="#F24D5C" height="6" style="stroke: #C82930; stroke-width: 1.0;" width="6" x="46.5" y="563.9414"/><text fill="#000000" font-family="sans-serif" font-size="11" lengthAdjust="spacingAndGlyphs" textLength="80" x="58.5" y="569.9424">Message(String)</text><ellipse cx="49.5" cy="580.7773" fill="#84BE84" rx="3" ry="3" style="stroke: #038048; stroke-width: 1.0;"/><text fill="#000000" font-family="sans-serif" font-size="11" lengthAdjust="spacingAndGlyphs" text-decoration="underline" textLength="124" x="58.5" y="583.7783">valueOf(String): Message</text><ellipse cx="49.5" cy="594.6133" fill="#84BE84" rx="3" ry="3" style="stroke: #038048; stroke-width: 1.0;"/><text fill="#000000" font-family="sans-serif" font-size="11" lengthAdjust="spacingAndGlyphs" textLength="101" x="58.5" y="597.6143">getMessage(): String</text><!--class mastermind.views.View--><rect fill="#FEFECE" filter="url(#fopgygdhv2xa9)" height="131.0156" id="mastermind.views.View" style="stroke: #A80036; stroke-width: 1.5;" width="120" x="217" y="150.5"/><ellipse cx="259.9" cy="166.5" fill="#ADD1B2" rx="11" ry="11" style="stroke: #A80036; stroke-width: 1.0;"/><path d="M262.6656,162.375 Q262.8219,162.1563 263.0094,162.0469 Q263.1969,161.9375 263.4156,161.9375 Q263.7906,161.9375 264.025,162.1953 Q264.2594,162.4531 264.2594,163.0625 L264.2594,164.5156 Q264.2594,165.125 264.025,165.3906 Q263.7906,165.6563 263.4156,165.6563 Q263.0719,165.6563 262.8688,165.4531 Q262.6656,165.2656 262.5563,164.75 Q262.5094,164.3906 262.3219,164.2031 Q261.9938,163.8281 261.3844,163.6094 Q260.775,163.3906 260.15,163.3906 Q259.3844,163.3906 258.7516,163.7188 Q258.1188,164.0469 257.6266,164.7969 Q257.1344,165.5469 257.1344,166.5781 L257.1344,167.6719 Q257.1344,168.9063 258.025,169.7266 Q258.9156,170.5469 260.5094,170.5469 Q261.4469,170.5469 262.1031,170.2969 Q262.4938,170.1406 262.9156,169.7031 Q263.1813,169.4375 263.3297,169.3594 Q263.4781,169.2813 263.6813,169.2813 Q264.0094,169.2813 264.2672,169.5391 Q264.525,169.7969 264.525,170.1406 Q264.525,170.4844 264.1813,170.8906 Q263.6813,171.4688 262.8844,171.7969 Q261.8063,172.25 260.5094,172.25 Q258.9938,172.25 257.7906,171.625 Q256.8063,171.125 256.1188,170.0547 Q255.4312,168.9844 255.4312,167.7031 L255.4312,166.5469 Q255.4312,165.2188 256.0484,164.0703 Q256.6656,162.9219 257.7594,162.3047 Q258.8531,161.6875 260.0875,161.6875 Q260.8219,161.6875 261.4703,161.8516 Q262.1188,162.0156 262.6656,162.375 Z "/><text fill="#000000" font-family="sans-serif" font-size="12" lengthAdjust="spacingAndGlyphs" textLength="26" x="280.1" y="171.4102">View</text><line style="stroke: #A80036; stroke-width: 1.5;" x1="218" x2="336" y1="182.5" y2="182.5"/><polygon fill="none" points="228,189.918,232,193.918,228,197.918,224,193.918" style="stroke: #B38D22; stroke-width: 1.0;"/><text fill="#000000" font-family="sans-serif" font-size="11" lengthAdjust="spacingAndGlyphs" textLength="60" x="237" y="197.9189">game: Game</text><line style="stroke: #A80036; stroke-width: 1.5;" x1="218" x2="336" y1="204.3359" y2="204.3359"/><ellipse cx="228" cy="216.7539" fill="#84BE84" rx="3" ry="3" style="stroke: #038048; stroke-width: 1.0;"/><text fill="#000000" font-family="sans-serif" font-size="11" lengthAdjust="spacingAndGlyphs" textLength="62" x="237" y="219.7549">View(Game)</text><polygon fill="#FFFF44" points="228,225.5898,232,229.5898,228,233.5898,224,229.5898" style="stroke: #B38D22; stroke-width: 1.0;"/><text fill="#000000" font-family="sans-serif" font-size="11" font-style="italic" lengthAdjust="spacingAndGlyphs" textLength="56" x="237" y="233.5908">start(): void</text><polygon fill="#FFFF44" points="228,239.4258,232,243.4258,228,247.4258,224,243.4258" style="stroke: #B38D22; stroke-width: 1.0;"/><text fill="#000000" font-family="sans-serif" font-size="11" font-style="italic" lengthAdjust="spacingAndGlyphs" textLength="91" x="237" y="247.4268">resume(): boolean</text><ellipse cx="228" cy="258.2617" fill="#84BE84" rx="3" ry="3" style="stroke: #038048; stroke-width: 1.0;"/><text fill="#000000" font-family="sans-serif" font-size="11" lengthAdjust="spacingAndGlyphs" textLength="70" x="237" y="261.2627">interact(): void</text><polygon fill="#FFFF44" points="228,267.0977,232,271.0977,228,275.0977,224,271.0977" style="stroke: #B38D22; stroke-width: 1.0;"/><text fill="#000000" font-family="sans-serif" font-size="11" font-style="italic" lengthAdjust="spacingAndGlyphs" textLength="94" x="237" y="275.0986">propose(): boolean</text><!--class mastermind.models.Game--><rect fill="#FEFECE" filter="url(#fopgygdhv2xa9)" height="48" id="mastermind.models.Game" style="stroke: #A80036; stroke-width: 1.5;" width="66" x="600" y="473"/><ellipse cx="615" cy="489" fill="#ADD1B2" rx="11" ry="11" style="stroke: #A80036; stroke-width: 1.0;"/><path d="M617.7656,484.875 Q617.9219,484.6563 618.1094,484.5469 Q618.2969,484.4375 618.5156,484.4375 Q618.8906,484.4375 619.125,484.6953 Q619.3594,484.9531 619.3594,485.5625 L619.3594,487.0156 Q619.3594,487.625 619.125,487.8906 Q618.8906,488.1563 618.5156,488.1563 Q618.1719,488.1563 617.9688,487.9531 Q617.7656,487.7656 617.6563,487.25 Q617.6094,486.8906 617.4219,486.7031 Q617.0938,486.3281 616.4844,486.1094 Q615.875,485.8906 615.25,485.8906 Q614.4844,485.8906 613.8516,486.2188 Q613.2188,486.5469 612.7266,487.2969 Q612.2344,488.0469 612.2344,489.0781 L612.2344,490.1719 Q612.2344,491.4063 613.125,492.2266 Q614.0156,493.0469 615.6094,493.0469 Q616.5469,493.0469 617.2031,492.7969 Q617.5938,492.6406 618.0156,492.2031 Q618.2813,491.9375 618.4297,491.8594 Q618.5781,491.7813 618.7813,491.7813 Q619.1094,491.7813 619.3672,492.0391 Q619.625,492.2969 619.625,492.6406 Q619.625,492.9844 619.2813,493.3906 Q618.7813,493.9688 617.9844,494.2969 Q616.9063,494.75 615.6094,494.75 Q614.0938,494.75 612.8906,494.125 Q611.9063,493.625 611.2188,492.5547 Q610.5313,491.4844 610.5313,490.2031 L610.5313,489.0469 Q610.5313,487.7188 611.1484,486.5703 Q611.7656,485.4219 612.8594,484.8047 Q613.9531,484.1875 615.1875,484.1875 Q615.9219,484.1875 616.5703,484.3516 Q617.2188,484.5156 617.7656,484.875 Z "/><text fill="#000000" font-family="sans-serif" font-size="12" lengthAdjust="spacingAndGlyphs" textLength="34" x="629" y="493.9102">Game</text><line style="stroke: #A80036; stroke-width: 1.5;" x1="601" x2="665" y1="505" y2="505"/><line style="stroke: #A80036; stroke-width: 1.5;" x1="601" x2="665" y1="513" y2="513"/><!--link mastermind.views.View to mastermind.models.Game--><path d="M318.349,292.566 C328.792,306.569 341.065,319.932 355,330 C431.95,385.598 483.08,334.361 560,390 C585.015,408.094 604.292,437.534 616.739,460.802 " fill="none" id="mastermind.views.View-mastermind.models.Game" style="stroke: #A80036; stroke-width: 1.0;"/><polygon fill="#A80036" points="622.781,472.648,622.2545,462.8132,620.509,468.194,615.1282,466.4485,622.781,472.648" style="stroke: #A80036; stroke-width: 1.0;"/><line style="stroke: #A80036; stroke-width: 1.0;" x1="620.509" x2="616.874" y1="468.194" y2="461.0675"/><polygon fill="#A80036" points="310.723,281.777,310.9201,288.9854,317.6499,291.5759,317.4527,284.3675,310.723,281.777" style="stroke: #A80036; stroke-width: 1.0;"/><!--link mastermind.views.Color to mastermind.views.Error--><!--link mastermind.views.Color to mastermind.views.Message--><!--
@startuml

class  mastermind.views.Color{
+ {static} RED: Color
+ {static} BLUE: Color
+ {static} YELLOW: Color
+ {static} GREEN: Color
+ {static} ORANGE: Color
+ {static} PURPLE: Color
- initial: char
- Color(char)
+ {static} valueOf(String): Color
+ {static} getInstance(char): Color
+ {static} getInstance(int): Color
+ getInitial(): char
+ {static} allInitials(): String
}

class  mastermind.views.Error{
+ {static} DUPLICATED: Error
+ {static} WRONG_CHARACTERS: Error
+ {static} WRONG_LENGTH: Error
- message: String
- Error(String)
+ {static} valueOf(String): Error
+ getMessage(): String
}

class  mastermind.views.Message{
+ {static} TURN: Message
+ {static} SECRET: Message
+ {static} RESUME: Message
+ {static} RESULT: Message
+ {static} PROPOSED_COMBINATION: Message
+ {static} TITLE: Message
+ {static} WINNER: Message
+ {static} LOOSER: Message
- message: String
- Message(String)
+ {static} valueOf(String): Message
+ getMessage(): String
}

class  mastermind.views.View{
# game: Game
+ View(Game)
# {abstract} start(): void
# {abstract} resume(): boolean
+ interact(): void
# {abstract} propose(): boolean
}
mastermind.views.View *-down-> mastermind.models.Game

@enduml

PlantUML version 1.2019.05(Sat Apr 20 18:45:36 CEST 2019)
(GPL source distribution)
Java Runtime: OpenJDK Runtime Environment
JVM: OpenJDK 64-Bit Server VM
Java Version: 1.8.0_222-b10
Operating System: Windows 10
OS Version: 10.0
Default Encoding: windows-1252
Language: es
Country: ES
--></g></svg>