<?xml version="1.0" encoding="UTF-8" standalone="no"?><svg xmlns="http://www.w3.org/2000/svg" xmlns:xlink="http://www.w3.org/1999/xlink" contentScriptType="application/ecmascript" contentStyleType="text/css" height="781px" preserveAspectRatio="none" style="width:1166px;height:781px;" version="1.1" viewBox="0 0 1166 781" width="1166px" zoomAndPan="magnify"><defs><filter height="300%" id="f7vj1ezb6dcb7" width="300%" x="-1" y="-1"><feGaussianBlur result="blurOut" stdDeviation="2.0"/><feColorMatrix in="blurOut" result="blurOut2" type="matrix" values="0 0 0 0 0 0 0 0 0 0 0 0 0 0 0 0 0 0 .4 0"/><feOffset dx="4.0" dy="4.0" in="blurOut2" result="blurOut3"/><feBlend in="SourceGraphic" in2="blurOut3" mode="normal"/></filter></defs><g><!--cluster mastermind.utils--><polygon fill="#FFFFFF" filter="url(#f7vj1ezb6dcb7)" points="22,24,144,24,151,47.6094,708,47.6094,708,769,22,769,22,24" style="stroke: #000000; stroke-width: 1.5;"/><line style="stroke: #000000; stroke-width: 1.5;" x1="22" x2="151" y1="47.6094" y2="47.6094"/><text fill="#000000" font-family="sans-serif" font-size="14" font-weight="bold" lengthAdjust="spacingAndGlyphs" textLength="116" x="26" y="40.5332">mastermind.utils</text><!--cluster java.io--><polygon fill="#FFFFFF" filter="url(#f7vj1ezb6dcb7)" points="868,634.5,920,634.5,927,658.1094,1144,658.1094,1144,734.5,868,734.5,868,634.5" style="stroke: #000000; stroke-width: 1.5;"/><line style="stroke: #000000; stroke-width: 1.5;" x1="868" x2="927" y1="658.1094" y2="658.1094"/><text fill="#000000" font-family="sans-serif" font-size="14" font-weight="bold" lengthAdjust="spacingAndGlyphs" textLength="46" x="872" y="651.0332">java.io</text><!--cluster java.util--><polygon fill="#FFFFFF" filter="url(#f7vj1ezb6dcb7)" points="732,634.5,793,634.5,800,658.1094,844,658.1094,844,734.5,732,734.5,732,634.5" style="stroke: #000000; stroke-width: 1.5;"/><line style="stroke: #000000; stroke-width: 1.5;" x1="732" x2="800" y1="658.1094" y2="658.1094"/><text fill="#000000" font-family="sans-serif" font-size="14" font-weight="bold" lengthAdjust="spacingAndGlyphs" textLength="55" x="736" y="651.0332">java.util</text><!--cluster java.net--><polygon fill="#FFFFFF" filter="url(#f7vj1ezb6dcb7)" points="850,416,912,416,919,439.6094,1091,439.6094,1091,516,850,516,850,416" style="stroke: #000000; stroke-width: 1.5;"/><line style="stroke: #000000; stroke-width: 1.5;" x1="850" x2="919" y1="439.6094" y2="439.6094"/><text fill="#000000" font-family="sans-serif" font-size="14" font-weight="bold" lengthAdjust="spacingAndGlyphs" textLength="56" x="854" y="432.5332">java.net</text><!--class mastermind.utils.ClosedInterval--><rect fill="#FEFECE" filter="url(#f7vj1ezb6dcb7)" height="103.3438" id="mastermind.utils.ClosedInterval" style="stroke: #A80036; stroke-width: 1.5;" width="130" x="562" y="136.5"/><ellipse cx="585.55" cy="152.5" fill="#ADD1B2" rx="11" ry="11" style="stroke: #A80036; stroke-width: 1.0;"/><path d="M588.3156,148.375 Q588.4719,148.1563 588.6594,148.0469 Q588.8469,147.9375 589.0656,147.9375 Q589.4406,147.9375 589.675,148.1953 Q589.9094,148.4531 589.9094,149.0625 L589.9094,150.5156 Q589.9094,151.125 589.675,151.3906 Q589.4406,151.6563 589.0656,151.6563 Q588.7219,151.6563 588.5188,151.4531 Q588.3156,151.2656 588.2063,150.75 Q588.1594,150.3906 587.9719,150.2031 Q587.6438,149.8281 587.0344,149.6094 Q586.425,149.3906 585.8,149.3906 Q585.0344,149.3906 584.4016,149.7188 Q583.7688,150.0469 583.2766,150.7969 Q582.7844,151.5469 582.7844,152.5781 L582.7844,153.6719 Q582.7844,154.9063 583.675,155.7266 Q584.5656,156.5469 586.1594,156.5469 Q587.0969,156.5469 587.7531,156.2969 Q588.1438,156.1406 588.5656,155.7031 Q588.8313,155.4375 588.9797,155.3594 Q589.1281,155.2813 589.3313,155.2813 Q589.6594,155.2813 589.9172,155.5391 Q590.175,155.7969 590.175,156.1406 Q590.175,156.4844 589.8313,156.8906 Q589.3313,157.4688 588.5344,157.7969 Q587.4563,158.25 586.1594,158.25 Q584.6438,158.25 583.4406,157.625 Q582.4563,157.125 581.7688,156.0547 Q581.0813,154.9844 581.0813,153.7031 L581.0813,152.5469 Q581.0813,151.2188 581.6984,150.0703 Q582.3156,148.9219 583.4094,148.3047 Q584.5031,147.6875 585.7375,147.6875 Q586.4719,147.6875 587.1203,147.8516 Q587.7688,148.0156 588.3156,148.375 Z "/><text fill="#000000" font-family="sans-serif" font-size="12" lengthAdjust="spacingAndGlyphs" textLength="79" x="601.45" y="157.4102">ClosedInterval</text><line style="stroke: #A80036; stroke-width: 1.5;" x1="563" x2="691" y1="168.5" y2="168.5"/><rect fill="none" height="6" style="stroke: #C82930; stroke-width: 1.0;" width="6" x="570" y="177.918"/><text fill="#000000" font-family="sans-serif" font-size="11" lengthAdjust="spacingAndGlyphs" textLength="33" x="582" y="183.9189">min: int</text><rect fill="none" height="6" style="stroke: #C82930; stroke-width: 1.0;" width="6" x="570" y="191.7539"/><text fill="#000000" font-family="sans-serif" font-size="11" lengthAdjust="spacingAndGlyphs" textLength="37" x="582" y="197.7549">max: int</text><line style="stroke: #A80036; stroke-width: 1.5;" x1="563" x2="691" y1="204.1719" y2="204.1719"/><ellipse cx="573" cy="216.5898" fill="#84BE84" rx="3" ry="3" style="stroke: #038048; stroke-width: 1.0;"/><text fill="#000000" font-family="sans-serif" font-size="11" lengthAdjust="spacingAndGlyphs" textLength="104" x="582" y="219.5908">ClosedInterval(int, int)</text><ellipse cx="573" cy="230.4258" fill="#84BE84" rx="3" ry="3" style="stroke: #038048; stroke-width: 1.0;"/><text fill="#000000" font-family="sans-serif" font-size="11" lengthAdjust="spacingAndGlyphs" textLength="103" x="582" y="233.4268">includes(int): boolean</text><!--class mastermind.utils.Command--><rect fill="#FEFECE" filter="url(#f7vj1ezb6dcb7)" height="117.1797" id="mastermind.utils.Command" style="stroke: #A80036; stroke-width: 1.5;" width="119" x="76.5" y="636"/><ellipse cx="104.1" cy="652" fill="#ADD1B2" rx="11" ry="11" style="stroke: #A80036; stroke-width: 1.0;"/><path d="M106.8656,647.875 Q107.0219,647.6563 107.2094,647.5469 Q107.3969,647.4375 107.6156,647.4375 Q107.9906,647.4375 108.225,647.6953 Q108.4594,647.9531 108.4594,648.5625 L108.4594,650.0156 Q108.4594,650.625 108.225,650.8906 Q107.9906,651.1563 107.6156,651.1563 Q107.2719,651.1563 107.0688,650.9531 Q106.8656,650.7656 106.7563,650.25 Q106.7094,649.8906 106.5219,649.7031 Q106.1938,649.3281 105.5844,649.1094 Q104.975,648.8906 104.35,648.8906 Q103.5844,648.8906 102.9516,649.2188 Q102.3188,649.5469 101.8266,650.2969 Q101.3344,651.0469 101.3344,652.0781 L101.3344,653.1719 Q101.3344,654.4063 102.225,655.2266 Q103.1156,656.0469 104.7094,656.0469 Q105.6469,656.0469 106.3031,655.7969 Q106.6938,655.6406 107.1156,655.2031 Q107.3813,654.9375 107.5297,654.8594 Q107.6781,654.7813 107.8813,654.7813 Q108.2094,654.7813 108.4672,655.0391 Q108.725,655.2969 108.725,655.6406 Q108.725,655.9844 108.3813,656.3906 Q107.8813,656.9688 107.0844,657.2969 Q106.0063,657.75 104.7094,657.75 Q103.1938,657.75 101.9906,657.125 Q101.0063,656.625 100.3188,655.5547 Q99.6313,654.4844 99.6313,653.2031 L99.6313,652.0469 Q99.6313,650.7188 100.2484,649.5703 Q100.8656,648.4219 101.9594,647.8047 Q103.0531,647.1875 104.2875,647.1875 Q105.0219,647.1875 105.6703,647.3516 Q106.3188,647.5156 106.8656,647.875 Z "/><text fill="#000000" font-family="sans-serif" font-size="12" lengthAdjust="spacingAndGlyphs" textLength="59" x="120.9" y="656.9102">Command</text><line style="stroke: #A80036; stroke-width: 1.5;" x1="77.5" x2="194.5" y1="668" y2="668"/><polygon fill="none" points="87.5,675.418,91.5,679.418,87.5,683.418,83.5,679.418" style="stroke: #B38D22; stroke-width: 1.0;"/><text fill="#000000" font-family="sans-serif" font-size="11" lengthAdjust="spacingAndGlyphs" textLength="50" x="96.5" y="683.4189">title: String</text><line style="stroke: #A80036; stroke-width: 1.5;" x1="77.5" x2="194.5" y1="689.8359" y2="689.8359"/><polygon fill="#FFFF44" points="87.5,697.2539,91.5,701.2539,87.5,705.2539,83.5,701.2539" style="stroke: #B38D22; stroke-width: 1.0;"/><text fill="#000000" font-family="sans-serif" font-size="11" lengthAdjust="spacingAndGlyphs" textLength="83" x="96.5" y="705.2549">Command(String)</text><polygon fill="#FFFF44" points="87.5,711.0898,91.5,715.0898,87.5,719.0898,83.5,715.0898" style="stroke: #B38D22; stroke-width: 1.0;"/><text fill="#000000" font-family="sans-serif" font-size="11" font-style="italic" lengthAdjust="spacingAndGlyphs" textLength="73" x="96.5" y="719.0908">execute(): void</text><polygon fill="#FFFF44" points="87.5,724.9258,91.5,728.9258,87.5,732.9258,83.5,728.9258" style="stroke: #B38D22; stroke-width: 1.0;"/><text fill="#000000" font-family="sans-serif" font-size="11" font-style="italic" lengthAdjust="spacingAndGlyphs" textLength="93" x="96.5" y="732.9268">isActive(): boolean</text><polygon fill="#4177AF" points="87.5,739.7617,83.5,745.7617,91.5,745.7617" style="stroke: #1963A0; stroke-width: 1.0;"/><text fill="#000000" font-family="sans-serif" font-size="11" lengthAdjust="spacingAndGlyphs" textLength="76" x="96.5" y="746.7627">getTitle(): String</text><!--class mastermind.utils.WithConsoleView--><rect fill="#FEFECE" filter="url(#f7vj1ezb6dcb7)" height="75.6719" id="mastermind.utils.WithConsoleView" style="stroke: #A80036; stroke-width: 1.5;" width="129" x="38.5" y="150"/><ellipse cx="53.5" cy="166" fill="#ADD1B2" rx="11" ry="11" style="stroke: #A80036; stroke-width: 1.0;"/><path d="M56.2656,161.875 Q56.4219,161.6563 56.6094,161.5469 Q56.7969,161.4375 57.0156,161.4375 Q57.3906,161.4375 57.625,161.6953 Q57.8594,161.9531 57.8594,162.5625 L57.8594,164.0156 Q57.8594,164.625 57.625,164.8906 Q57.3906,165.1563 57.0156,165.1563 Q56.6719,165.1563 56.4688,164.9531 Q56.2656,164.7656 56.1563,164.25 Q56.1094,163.8906 55.9219,163.7031 Q55.5938,163.3281 54.9844,163.1094 Q54.375,162.8906 53.75,162.8906 Q52.9844,162.8906 52.3516,163.2188 Q51.7188,163.5469 51.2266,164.2969 Q50.7344,165.0469 50.7344,166.0781 L50.7344,167.1719 Q50.7344,168.4063 51.625,169.2266 Q52.5156,170.0469 54.1094,170.0469 Q55.0469,170.0469 55.7031,169.7969 Q56.0938,169.6406 56.5156,169.2031 Q56.7813,168.9375 56.9297,168.8594 Q57.0781,168.7813 57.2813,168.7813 Q57.6094,168.7813 57.8672,169.0391 Q58.125,169.2969 58.125,169.6406 Q58.125,169.9844 57.7813,170.3906 Q57.2813,170.9688 56.4844,171.2969 Q55.4063,171.75 54.1094,171.75 Q52.5938,171.75 51.3906,171.125 Q50.4063,170.625 49.7188,169.5547 Q49.0313,168.4844 49.0313,167.2031 L49.0313,166.0469 Q49.0313,164.7188 49.6484,163.5703 Q50.2656,162.4219 51.3594,161.8047 Q52.4531,161.1875 53.6875,161.1875 Q54.4219,161.1875 55.0703,161.3516 Q55.7188,161.5156 56.2656,161.875 Z "/><text fill="#000000" font-family="sans-serif" font-size="12" lengthAdjust="spacingAndGlyphs" textLength="97" x="67.5" y="170.9102">WithConsoleView</text><line style="stroke: #A80036; stroke-width: 1.5;" x1="39.5" x2="166.5" y1="182" y2="182"/><polygon fill="none" points="49.5,189.418,53.5,193.418,49.5,197.418,45.5,193.418" style="stroke: #B38D22; stroke-width: 1.0;"/><text fill="#000000" font-family="sans-serif" font-size="11" lengthAdjust="spacingAndGlyphs" textLength="83" x="58.5" y="197.4189">console: Console</text><line style="stroke: #A80036; stroke-width: 1.5;" x1="39.5" x2="166.5" y1="203.8359" y2="203.8359"/><polygon fill="#FFFF44" points="49.5,211.2539,53.5,215.2539,49.5,219.2539,45.5,215.2539" style="stroke: #B38D22; stroke-width: 1.0;"/><text fill="#000000" font-family="sans-serif" font-size="11" lengthAdjust="spacingAndGlyphs" textLength="94" x="58.5" y="219.2549">WithConsoleView()</text><!--class mastermind.utils.Console--><rect fill="#FEFECE" filter="url(#f7vj1ezb6dcb7)" height="200.1953" id="mastermind.utils.Console" style="stroke: #A80036; stroke-width: 1.5;" width="187" x="309.5" y="376"/><ellipse cx="375.25" cy="392" fill="#ADD1B2" rx="11" ry="11" style="stroke: #A80036; stroke-width: 1.0;"/><path d="M378.0156,387.875 Q378.1719,387.6563 378.3594,387.5469 Q378.5469,387.4375 378.7656,387.4375 Q379.1406,387.4375 379.375,387.6953 Q379.6094,387.9531 379.6094,388.5625 L379.6094,390.0156 Q379.6094,390.625 379.375,390.8906 Q379.1406,391.1563 378.7656,391.1563 Q378.4219,391.1563 378.2188,390.9531 Q378.0156,390.7656 377.9063,390.25 Q377.8594,389.8906 377.6719,389.7031 Q377.3438,389.3281 376.7344,389.1094 Q376.125,388.8906 375.5,388.8906 Q374.7344,388.8906 374.1016,389.2188 Q373.4688,389.5469 372.9766,390.2969 Q372.4844,391.0469 372.4844,392.0781 L372.4844,393.1719 Q372.4844,394.4063 373.375,395.2266 Q374.2656,396.0469 375.8594,396.0469 Q376.7969,396.0469 377.4531,395.7969 Q377.8438,395.6406 378.2656,395.2031 Q378.5313,394.9375 378.6797,394.8594 Q378.8281,394.7813 379.0313,394.7813 Q379.3594,394.7813 379.6172,395.0391 Q379.875,395.2969 379.875,395.6406 Q379.875,395.9844 379.5313,396.3906 Q379.0313,396.9688 378.2344,397.2969 Q377.1563,397.75 375.8594,397.75 Q374.3438,397.75 373.1406,397.125 Q372.1563,396.625 371.4688,395.5547 Q370.7813,394.4844 370.7813,393.2031 L370.7813,392.0469 Q370.7813,390.7188 371.3984,389.5703 Q372.0156,388.4219 373.1094,387.8047 Q374.2031,387.1875 375.4375,387.1875 Q376.1719,387.1875 376.8203,387.3516 Q377.4688,387.5156 378.0156,387.875 Z "/><text fill="#000000" font-family="sans-serif" font-size="12" lengthAdjust="spacingAndGlyphs" textLength="47" x="395.75" y="396.9102">Console</text><line style="stroke: #A80036; stroke-width: 1.5;" x1="310.5" x2="495.5" y1="408" y2="408"/><rect fill="none" height="6" style="stroke: #C82930; stroke-width: 1.0;" width="6" x="317.5" y="417.418"/><text fill="#000000" font-family="sans-serif" font-size="11" lengthAdjust="spacingAndGlyphs" textLength="161" x="329.5" y="423.4189">bufferedReader: BufferedReader</text><line style="stroke: #A80036; stroke-width: 1.5;" x1="310.5" x2="495.5" y1="429.8359" y2="429.8359"/><ellipse cx="320.5" cy="442.2539" fill="#84BE84" rx="3" ry="3" style="stroke: #038048; stroke-width: 1.0;"/><text fill="#000000" font-family="sans-serif" font-size="11" lengthAdjust="spacingAndGlyphs" textLength="47" x="329.5" y="445.2549">Console()</text><ellipse cx="320.5" cy="456.0898" fill="#84BE84" rx="3" ry="3" style="stroke: #038048; stroke-width: 1.0;"/><text fill="#000000" font-family="sans-serif" font-size="11" lengthAdjust="spacingAndGlyphs" textLength="81" x="329.5" y="459.0908">write(char): void</text><ellipse cx="320.5" cy="469.9258" fill="#84BE84" rx="3" ry="3" style="stroke: #038048; stroke-width: 1.0;"/><text fill="#000000" font-family="sans-serif" font-size="11" lengthAdjust="spacingAndGlyphs" textLength="87" x="329.5" y="472.9268">write(String): void</text><ellipse cx="320.5" cy="483.7617" fill="#84BE84" rx="3" ry="3" style="stroke: #038048; stroke-width: 1.0;"/><text fill="#000000" font-family="sans-serif" font-size="11" lengthAdjust="spacingAndGlyphs" textLength="86" x="329.5" y="486.7627">readInt(String): int</text><ellipse cx="320.5" cy="497.5977" fill="#84BE84" rx="3" ry="3" style="stroke: #038048; stroke-width: 1.0;"/><text fill="#000000" font-family="sans-serif" font-size="11" lengthAdjust="spacingAndGlyphs" textLength="109" x="329.5" y="500.5986">readChar(String): char</text><rect fill="#F24D5C" height="6" style="stroke: #C82930; stroke-width: 1.0;" width="6" x="317.5" y="508.4336"/><text fill="#000000" font-family="sans-serif" font-size="11" lengthAdjust="spacingAndGlyphs" textLength="111" x="329.5" y="514.4346">writeError(String): void</text><ellipse cx="320.5" cy="525.2695" fill="#84BE84" rx="3" ry="3" style="stroke: #038048; stroke-width: 1.0;"/><text fill="#000000" font-family="sans-serif" font-size="11" lengthAdjust="spacingAndGlyphs" textLength="95" x="329.5" y="528.2705">writeln(String): void</text><ellipse cx="320.5" cy="539.1055" fill="#84BE84" rx="3" ry="3" style="stroke: #038048; stroke-width: 1.0;"/><text fill="#000000" font-family="sans-serif" font-size="11" lengthAdjust="spacingAndGlyphs" textLength="78" x="329.5" y="542.1064">writeln(int): void</text><ellipse cx="320.5" cy="552.9414" fill="#84BE84" rx="3" ry="3" style="stroke: #038048; stroke-width: 1.0;"/><text fill="#000000" font-family="sans-serif" font-size="11" lengthAdjust="spacingAndGlyphs" textLength="67" x="329.5" y="555.9424">writeln(): void</text><ellipse cx="320.5" cy="566.7773" fill="#84BE84" rx="3" ry="3" style="stroke: #038048; stroke-width: 1.0;"/><text fill="#000000" font-family="sans-serif" font-size="11" lengthAdjust="spacingAndGlyphs" textLength="120" x="329.5" y="569.7783">readString(String): String</text><!--class mastermind.utils.Menu--><rect fill="#FEFECE" filter="url(#f7vj1ezb6dcb7)" height="103.3438" id="mastermind.utils.Menu" style="stroke: #A80036; stroke-width: 1.5;" width="199" x="75.5" y="424.5"/><ellipse cx="155.75" cy="440.5" fill="#ADD1B2" rx="11" ry="11" style="stroke: #A80036; stroke-width: 1.0;"/><path d="M158.5156,436.375 Q158.6719,436.1563 158.8594,436.0469 Q159.0469,435.9375 159.2656,435.9375 Q159.6406,435.9375 159.875,436.1953 Q160.1094,436.4531 160.1094,437.0625 L160.1094,438.5156 Q160.1094,439.125 159.875,439.3906 Q159.6406,439.6563 159.2656,439.6563 Q158.9219,439.6563 158.7188,439.4531 Q158.5156,439.2656 158.4063,438.75 Q158.3594,438.3906 158.1719,438.2031 Q157.8438,437.8281 157.2344,437.6094 Q156.625,437.3906 156,437.3906 Q155.2344,437.3906 154.6016,437.7188 Q153.9688,438.0469 153.4766,438.7969 Q152.9844,439.5469 152.9844,440.5781 L152.9844,441.6719 Q152.9844,442.9063 153.875,443.7266 Q154.7656,444.5469 156.3594,444.5469 Q157.2969,444.5469 157.9531,444.2969 Q158.3438,444.1406 158.7656,443.7031 Q159.0313,443.4375 159.1797,443.3594 Q159.3281,443.2813 159.5313,443.2813 Q159.8594,443.2813 160.1172,443.5391 Q160.375,443.7969 160.375,444.1406 Q160.375,444.4844 160.0313,444.8906 Q159.5313,445.4688 158.7344,445.7969 Q157.6563,446.25 156.3594,446.25 Q154.8438,446.25 153.6406,445.625 Q152.6563,445.125 151.9688,444.0547 Q151.2813,442.9844 151.2813,441.7031 L151.2813,440.5469 Q151.2813,439.2188 151.8984,438.0703 Q152.5156,436.9219 153.6094,436.3047 Q154.7031,435.6875 155.9375,435.6875 Q156.6719,435.6875 157.3203,435.8516 Q157.9688,436.0156 158.5156,436.375 Z "/><text fill="#000000" font-family="sans-serif" font-size="12" lengthAdjust="spacingAndGlyphs" textLength="30" x="176.25" y="445.4102">Menu</text><line style="stroke: #A80036; stroke-width: 1.5;" x1="76.5" x2="273.5" y1="456.5" y2="456.5"/><rect fill="none" height="6" style="stroke: #C82930; stroke-width: 1.0;" width="6" x="83.5" y="465.918"/><text fill="#000000" font-family="sans-serif" font-size="11" lengthAdjust="spacingAndGlyphs" textLength="173" x="95.5" y="471.9189">commandList: ArrayList&lt;Command&gt;</text><line style="stroke: #A80036; stroke-width: 1.5;" x1="76.5" x2="273.5" y1="478.3359" y2="478.3359"/><ellipse cx="86.5" cy="490.7539" fill="#84BE84" rx="3" ry="3" style="stroke: #038048; stroke-width: 1.0;"/><text fill="#000000" font-family="sans-serif" font-size="11" lengthAdjust="spacingAndGlyphs" textLength="34" x="95.5" y="493.7549">Menu()</text><ellipse cx="86.5" cy="504.5898" fill="#84BE84" rx="3" ry="3" style="stroke: #038048; stroke-width: 1.0;"/><text fill="#000000" font-family="sans-serif" font-size="11" lengthAdjust="spacingAndGlyphs" textLength="73" x="95.5" y="507.5908">execute(): void</text><polygon fill="#FFFF44" points="86.5,513.4258,90.5,517.4258,86.5,521.4258,82.5,517.4258" style="stroke: #B38D22; stroke-width: 1.0;"/><text fill="#000000" font-family="sans-serif" font-size="11" lengthAdjust="spacingAndGlyphs" textLength="146" x="95.5" y="521.4268">addCommand(Command): void</text><!--class mastermind.utils.TCPIP--><rect fill="#FEFECE" filter="url(#f7vj1ezb6dcb7)" height="255.5391" id="mastermind.utils.TCPIP" style="stroke: #A80036; stroke-width: 1.5;" width="306" x="203" y="60"/><ellipse cx="334.25" cy="76" fill="#ADD1B2" rx="11" ry="11" style="stroke: #A80036; stroke-width: 1.0;"/><path d="M337.0156,71.875 Q337.1719,71.6563 337.3594,71.5469 Q337.5469,71.4375 337.7656,71.4375 Q338.1406,71.4375 338.375,71.6953 Q338.6094,71.9531 338.6094,72.5625 L338.6094,74.0156 Q338.6094,74.625 338.375,74.8906 Q338.1406,75.1563 337.7656,75.1563 Q337.4219,75.1563 337.2188,74.9531 Q337.0156,74.7656 336.9063,74.25 Q336.8594,73.8906 336.6719,73.7031 Q336.3438,73.3281 335.7344,73.1094 Q335.125,72.8906 334.5,72.8906 Q333.7344,72.8906 333.1016,73.2188 Q332.4688,73.5469 331.9766,74.2969 Q331.4844,75.0469 331.4844,76.0781 L331.4844,77.1719 Q331.4844,78.4063 332.375,79.2266 Q333.2656,80.0469 334.8594,80.0469 Q335.7969,80.0469 336.4531,79.7969 Q336.8438,79.6406 337.2656,79.2031 Q337.5313,78.9375 337.6797,78.8594 Q337.8281,78.7813 338.0313,78.7813 Q338.3594,78.7813 338.6172,79.0391 Q338.875,79.2969 338.875,79.6406 Q338.875,79.9844 338.5313,80.3906 Q338.0313,80.9688 337.2344,81.2969 Q336.1563,81.75 334.8594,81.75 Q333.3438,81.75 332.1406,81.125 Q331.1563,80.625 330.4688,79.5547 Q329.7813,78.4844 329.7813,77.2031 L329.7813,76.0469 Q329.7813,74.7188 330.3984,73.5703 Q331.0156,72.4219 332.1094,71.8047 Q333.2031,71.1875 334.4375,71.1875 Q335.1719,71.1875 335.8203,71.3516 Q336.4688,71.5156 337.0156,71.875 Z "/><text fill="#000000" font-family="sans-serif" font-size="12" lengthAdjust="spacingAndGlyphs" textLength="35" x="354.75" y="80.9102">TCPIP</text><line style="stroke: #A80036; stroke-width: 1.5;" x1="204" x2="508" y1="92" y2="92"/><rect fill="none" height="6" style="stroke: #C82930; stroke-width: 1.0;" width="6" x="211" y="101.418"/><text fill="#000000" font-family="sans-serif" font-size="11" lengthAdjust="spacingAndGlyphs" textLength="137" x="223" y="107.4189">serverSocket: ServerSocket</text><rect fill="none" height="6" style="stroke: #C82930; stroke-width: 1.0;" width="6" x="211" y="115.2539"/><text fill="#000000" font-family="sans-serif" font-size="11" lengthAdjust="spacingAndGlyphs" textLength="71" x="223" y="121.2549">socket: Socket</text><rect fill="none" height="6" style="stroke: #C82930; stroke-width: 1.0;" width="6" x="211" y="129.0898"/><text fill="#000000" font-family="sans-serif" font-size="11" lengthAdjust="spacingAndGlyphs" textLength="71" x="223" y="135.0908">out: PrintWriter</text><rect fill="none" height="6" style="stroke: #C82930; stroke-width: 1.0;" width="6" x="211" y="142.9258"/><text fill="#000000" font-family="sans-serif" font-size="11" lengthAdjust="spacingAndGlyphs" textLength="92" x="223" y="148.9268">in: BufferedReader</text><line style="stroke: #A80036; stroke-width: 1.5;" x1="204" x2="508" y1="155.3438" y2="155.3438"/><ellipse cx="214" cy="167.7617" fill="#84BE84" rx="3" ry="3" style="stroke: #038048; stroke-width: 1.0;"/><text fill="#000000" font-family="sans-serif" font-size="11" lengthAdjust="spacingAndGlyphs" textLength="208" x="223" y="170.7627">TCPIP(BufferedReader, PrintWriter, Socket)</text><ellipse cx="214" cy="181.5977" fill="#84BE84" rx="3" ry="3" style="stroke: #038048; stroke-width: 1.0;"/><text fill="#000000" font-family="sans-serif" font-size="11" lengthAdjust="spacingAndGlyphs" textLength="280" x="223" y="184.5986">TCPIP(ServerSocket, BufferedReader, PrintWriter, Socket)</text><ellipse cx="214" cy="195.4336" fill="#84BE84" rx="3" ry="3" style="stroke: #038048; stroke-width: 1.0;"/><text fill="#000000" font-family="sans-serif" font-size="11" lengthAdjust="spacingAndGlyphs" textLength="60" x="223" y="198.4346">close(): void</text><ellipse cx="214" cy="209.2695" fill="#84BE84" rx="3" ry="3" style="stroke: #038048; stroke-width: 1.0;"/><text fill="#000000" font-family="sans-serif" font-size="11" lengthAdjust="spacingAndGlyphs" textLength="69" x="223" y="212.2705">send(int): void</text><ellipse cx="214" cy="223.1055" fill="#84BE84" rx="3" ry="3" style="stroke: #038048; stroke-width: 1.0;"/><text fill="#000000" font-family="sans-serif" font-size="11" lengthAdjust="spacingAndGlyphs" textLength="86" x="223" y="226.1064">send(String): void</text><ellipse cx="214" cy="236.9414" fill="#84BE84" rx="3" ry="3" style="stroke: #038048; stroke-width: 1.0;"/><text fill="#000000" font-family="sans-serif" font-size="11" lengthAdjust="spacingAndGlyphs" textLength="96" x="223" y="239.9424">send(boolean): void</text><ellipse cx="214" cy="250.7773" fill="#84BE84" rx="3" ry="3" style="stroke: #038048; stroke-width: 1.0;"/><text fill="#000000" font-family="sans-serif" font-size="11" lengthAdjust="spacingAndGlyphs" text-decoration="underline" textLength="131" x="223" y="253.7783">createClientSocket(): TCPIP</text><ellipse cx="214" cy="264.6133" fill="#84BE84" rx="3" ry="3" style="stroke: #038048; stroke-width: 1.0;"/><text fill="#000000" font-family="sans-serif" font-size="11" lengthAdjust="spacingAndGlyphs" text-decoration="underline" textLength="138" x="223" y="267.6143">createServerSocket(): TCPIP</text><ellipse cx="214" cy="278.4492" fill="#84BE84" rx="3" ry="3" style="stroke: #038048; stroke-width: 1.0;"/><text fill="#000000" font-family="sans-serif" font-size="11" lengthAdjust="spacingAndGlyphs" textLength="98" x="223" y="281.4502">receiveLine(): String</text><ellipse cx="214" cy="292.2852" fill="#84BE84" rx="3" ry="3" style="stroke: #038048; stroke-width: 1.0;"/><text fill="#000000" font-family="sans-serif" font-size="11" lengthAdjust="spacingAndGlyphs" textLength="127" x="223" y="295.2861">receiveBoolean(): boolean</text><ellipse cx="214" cy="306.1211" fill="#84BE84" rx="3" ry="3" style="stroke: #038048; stroke-width: 1.0;"/><text fill="#000000" font-family="sans-serif" font-size="11" lengthAdjust="spacingAndGlyphs" textLength="72" x="223" y="309.1221">receiveInt(): int</text><!--class mastermind.utils.YesNoDialog--><rect fill="#FEFECE" filter="url(#f7vj1ezb6dcb7)" height="158.6875" id="mastermind.utils.YesNoDialog" style="stroke: #A80036; stroke-width: 1.5;" width="157" x="531.5" y="396.5"/><ellipse cx="569.9" cy="412.5" fill="#ADD1B2" rx="11" ry="11" style="stroke: #A80036; stroke-width: 1.0;"/><path d="M572.6656,408.375 Q572.8219,408.1563 573.0094,408.0469 Q573.1969,407.9375 573.4156,407.9375 Q573.7906,407.9375 574.025,408.1953 Q574.2594,408.4531 574.2594,409.0625 L574.2594,410.5156 Q574.2594,411.125 574.025,411.3906 Q573.7906,411.6563 573.4156,411.6563 Q573.0719,411.6563 572.8688,411.4531 Q572.6656,411.2656 572.5563,410.75 Q572.5094,410.3906 572.3219,410.2031 Q571.9938,409.8281 571.3844,409.6094 Q570.775,409.3906 570.15,409.3906 Q569.3844,409.3906 568.7516,409.7188 Q568.1188,410.0469 567.6266,410.7969 Q567.1344,411.5469 567.1344,412.5781 L567.1344,413.6719 Q567.1344,414.9063 568.025,415.7266 Q568.9156,416.5469 570.5094,416.5469 Q571.4469,416.5469 572.1031,416.2969 Q572.4938,416.1406 572.9156,415.7031 Q573.1813,415.4375 573.3297,415.3594 Q573.4781,415.2813 573.6813,415.2813 Q574.0094,415.2813 574.2672,415.5391 Q574.525,415.7969 574.525,416.1406 Q574.525,416.4844 574.1813,416.8906 Q573.6813,417.4688 572.8844,417.7969 Q571.8063,418.25 570.5094,418.25 Q568.9938,418.25 567.7906,417.625 Q566.8063,417.125 566.1188,416.0547 Q565.4313,414.9844 565.4313,413.7031 L565.4313,412.5469 Q565.4313,411.2188 566.0484,410.0703 Q566.6656,408.9219 567.7594,408.3047 Q568.8531,407.6875 570.0875,407.6875 Q570.8219,407.6875 571.4703,407.8516 Q572.1188,408.0156 572.6656,408.375 Z "/><text fill="#000000" font-family="sans-serif" font-size="12" lengthAdjust="spacingAndGlyphs" textLength="73" x="589.1" y="417.4102">YesNoDialog</text><line style="stroke: #A80036; stroke-width: 1.5;" x1="532.5" x2="687.5" y1="428.5" y2="428.5"/><rect fill="none" height="6" style="stroke: #C82930; stroke-width: 1.0;" width="6" x="539.5" y="437.918"/><text fill="#000000" font-family="sans-serif" font-size="11" lengthAdjust="spacingAndGlyphs" text-decoration="underline" textLength="89" x="551.5" y="443.9189">AFIRMATIVE: char</text><rect fill="none" height="6" style="stroke: #C82930; stroke-width: 1.0;" width="6" x="539.5" y="451.7539"/><text fill="#000000" font-family="sans-serif" font-size="11" lengthAdjust="spacingAndGlyphs" text-decoration="underline" textLength="79" x="551.5" y="457.7549">NEGATIVE: char</text><rect fill="none" height="6" style="stroke: #C82930; stroke-width: 1.0;" width="6" x="539.5" y="465.5898"/><text fill="#000000" font-family="sans-serif" font-size="11" lengthAdjust="spacingAndGlyphs" text-decoration="underline" textLength="85" x="551.5" y="471.5908">QUESTION: String</text><rect fill="none" height="6" style="stroke: #C82930; stroke-width: 1.0;" width="6" x="539.5" y="479.4258"/><text fill="#000000" font-family="sans-serif" font-size="11" lengthAdjust="spacingAndGlyphs" text-decoration="underline" textLength="84" x="551.5" y="485.4268">MESSAGE: String</text><line style="stroke: #A80036; stroke-width: 1.5;" x1="532.5" x2="687.5" y1="491.8438" y2="491.8438"/><ellipse cx="542.5" cy="504.2617" fill="#84BE84" rx="3" ry="3" style="stroke: #038048; stroke-width: 1.0;"/><text fill="#000000" font-family="sans-serif" font-size="11" lengthAdjust="spacingAndGlyphs" textLength="70" x="551.5" y="507.2627">YesNoDialog()</text><ellipse cx="542.5" cy="518.0977" fill="#84BE84" rx="3" ry="3" style="stroke: #038048; stroke-width: 1.0;"/><text fill="#000000" font-family="sans-serif" font-size="11" lengthAdjust="spacingAndGlyphs" textLength="102" x="551.5" y="521.0986">read(String): boolean</text><rect fill="#F24D5C" height="6" style="stroke: #C82930; stroke-width: 1.0;" width="6" x="539.5" y="528.9336"/><text fill="#000000" font-family="sans-serif" font-size="11" lengthAdjust="spacingAndGlyphs" text-decoration="underline" textLength="131" x="551.5" y="534.9346">isAfirmative(char): boolean</text><rect fill="#F24D5C" height="6" style="stroke: #C82930; stroke-width: 1.0;" width="6" x="539.5" y="542.7695"/><text fill="#000000" font-family="sans-serif" font-size="11" lengthAdjust="spacingAndGlyphs" text-decoration="underline" textLength="124" x="551.5" y="548.7705">isNegative(char): boolean</text><!--class java.io.BufferedReader--><rect fill="#FEFECE" filter="url(#f7vj1ezb6dcb7)" height="48" id="java.io.BufferedReader" style="stroke: #A80036; stroke-width: 1.5;" width="119" x="884.5" y="670.5"/><ellipse cx="899.5" cy="686.5" fill="#ADD1B2" rx="11" ry="11" style="stroke: #A80036; stroke-width: 1.0;"/><path d="M902.2656,682.375 Q902.4219,682.1563 902.6094,682.0469 Q902.7969,681.9375 903.0156,681.9375 Q903.3906,681.9375 903.625,682.1953 Q903.8594,682.4531 903.8594,683.0625 L903.8594,684.5156 Q903.8594,685.125 903.625,685.3906 Q903.3906,685.6563 903.0156,685.6563 Q902.6719,685.6563 902.4688,685.4531 Q902.2656,685.2656 902.1563,684.75 Q902.1094,684.3906 901.9219,684.2031 Q901.5938,683.8281 900.9844,683.6094 Q900.375,683.3906 899.75,683.3906 Q898.9844,683.3906 898.3516,683.7188 Q897.7188,684.0469 897.2266,684.7969 Q896.7344,685.5469 896.7344,686.5781 L896.7344,687.6719 Q896.7344,688.9063 897.625,689.7266 Q898.5156,690.5469 900.1094,690.5469 Q901.0469,690.5469 901.7031,690.2969 Q902.0938,690.1406 902.5156,689.7031 Q902.7813,689.4375 902.9297,689.3594 Q903.0781,689.2813 903.2813,689.2813 Q903.6094,689.2813 903.8672,689.5391 Q904.125,689.7969 904.125,690.1406 Q904.125,690.4844 903.7813,690.8906 Q903.2813,691.4688 902.4844,691.7969 Q901.4063,692.25 900.1094,692.25 Q898.5938,692.25 897.3906,691.625 Q896.4063,691.125 895.7188,690.0547 Q895.0313,688.9844 895.0313,687.7031 L895.0313,686.5469 Q895.0313,685.2188 895.6484,684.0703 Q896.2656,682.9219 897.3594,682.3047 Q898.4531,681.6875 899.6875,681.6875 Q900.4219,681.6875 901.0703,681.8516 Q901.7188,682.0156 902.2656,682.375 Z "/><text fill="#000000" font-family="sans-serif" font-size="12" lengthAdjust="spacingAndGlyphs" textLength="87" x="913.5" y="691.4102">BufferedReader</text><line style="stroke: #A80036; stroke-width: 1.5;" x1="885.5" x2="1002.5" y1="702.5" y2="702.5"/><line style="stroke: #A80036; stroke-width: 1.5;" x1="885.5" x2="1002.5" y1="710.5" y2="710.5"/><!--class java.io.PrintWriter--><rect fill="#FEFECE" filter="url(#f7vj1ezb6dcb7)" height="48" id="java.io.PrintWriter" style="stroke: #A80036; stroke-width: 1.5;" width="89" x="1038.5" y="670.5"/><ellipse cx="1053.5" cy="686.5" fill="#ADD1B2" rx="11" ry="11" style="stroke: #A80036; stroke-width: 1.0;"/><path d="M1056.2656,682.375 Q1056.4219,682.1563 1056.6094,682.0469 Q1056.7969,681.9375 1057.0156,681.9375 Q1057.3906,681.9375 1057.625,682.1953 Q1057.8594,682.4531 1057.8594,683.0625 L1057.8594,684.5156 Q1057.8594,685.125 1057.625,685.3906 Q1057.3906,685.6563 1057.0156,685.6563 Q1056.6719,685.6563 1056.4688,685.4531 Q1056.2656,685.2656 1056.1563,684.75 Q1056.1094,684.3906 1055.9219,684.2031 Q1055.5938,683.8281 1054.9844,683.6094 Q1054.375,683.3906 1053.75,683.3906 Q1052.9844,683.3906 1052.3516,683.7188 Q1051.7188,684.0469 1051.2266,684.7969 Q1050.7344,685.5469 1050.7344,686.5781 L1050.7344,687.6719 Q1050.7344,688.9063 1051.625,689.7266 Q1052.5156,690.5469 1054.1094,690.5469 Q1055.0469,690.5469 1055.7031,690.2969 Q1056.0938,690.1406 1056.5156,689.7031 Q1056.7813,689.4375 1056.9297,689.3594 Q1057.0781,689.2813 1057.2813,689.2813 Q1057.6094,689.2813 1057.8672,689.5391 Q1058.125,689.7969 1058.125,690.1406 Q1058.125,690.4844 1057.7813,690.8906 Q1057.2813,691.4688 1056.4844,691.7969 Q1055.4063,692.25 1054.1094,692.25 Q1052.5938,692.25 1051.3906,691.625 Q1050.4063,691.125 1049.7188,690.0547 Q1049.0313,688.9844 1049.0313,687.7031 L1049.0313,686.5469 Q1049.0313,685.2188 1049.6484,684.0703 Q1050.2656,682.9219 1051.3594,682.3047 Q1052.4531,681.6875 1053.6875,681.6875 Q1054.4219,681.6875 1055.0703,681.8516 Q1055.7188,682.0156 1056.2656,682.375 Z "/><text fill="#000000" font-family="sans-serif" font-size="12" lengthAdjust="spacingAndGlyphs" textLength="57" x="1067.5" y="691.4102">PrintWriter</text><line style="stroke: #A80036; stroke-width: 1.5;" x1="1039.5" x2="1126.5" y1="702.5" y2="702.5"/><line style="stroke: #A80036; stroke-width: 1.5;" x1="1039.5" x2="1126.5" y1="710.5" y2="710.5"/><!--class java.util.ArrayList--><rect fill="#FEFECE" filter="url(#f7vj1ezb6dcb7)" height="48" id="java.util.ArrayList" style="stroke: #A80036; stroke-width: 1.5;" width="79" x="748.5" y="670.5"/><ellipse cx="763.5" cy="686.5" fill="#ADD1B2" rx="11" ry="11" style="stroke: #A80036; stroke-width: 1.0;"/><path d="M766.2656,682.375 Q766.4219,682.1563 766.6094,682.0469 Q766.7969,681.9375 767.0156,681.9375 Q767.3906,681.9375 767.625,682.1953 Q767.8594,682.4531 767.8594,683.0625 L767.8594,684.5156 Q767.8594,685.125 767.625,685.3906 Q767.3906,685.6563 767.0156,685.6563 Q766.6719,685.6563 766.4688,685.4531 Q766.2656,685.2656 766.1563,684.75 Q766.1094,684.3906 765.9219,684.2031 Q765.5938,683.8281 764.9844,683.6094 Q764.375,683.3906 763.75,683.3906 Q762.9844,683.3906 762.3516,683.7188 Q761.7188,684.0469 761.2266,684.7969 Q760.7344,685.5469 760.7344,686.5781 L760.7344,687.6719 Q760.7344,688.9063 761.625,689.7266 Q762.5156,690.5469 764.1094,690.5469 Q765.0469,690.5469 765.7031,690.2969 Q766.0938,690.1406 766.5156,689.7031 Q766.7813,689.4375 766.9297,689.3594 Q767.0781,689.2813 767.2813,689.2813 Q767.6094,689.2813 767.8672,689.5391 Q768.125,689.7969 768.125,690.1406 Q768.125,690.4844 767.7813,690.8906 Q767.2813,691.4688 766.4844,691.7969 Q765.4063,692.25 764.1094,692.25 Q762.5938,692.25 761.3906,691.625 Q760.4063,691.125 759.7188,690.0547 Q759.0313,688.9844 759.0313,687.7031 L759.0313,686.5469 Q759.0313,685.2188 759.6484,684.0703 Q760.2656,682.9219 761.3594,682.3047 Q762.4531,681.6875 763.6875,681.6875 Q764.4219,681.6875 765.0703,681.8516 Q765.7188,682.0156 766.2656,682.375 Z "/><text fill="#000000" font-family="sans-serif" font-size="12" lengthAdjust="spacingAndGlyphs" textLength="47" x="777.5" y="691.4102">ArrayList</text><line style="stroke: #A80036; stroke-width: 1.5;" x1="749.5" x2="826.5" y1="702.5" y2="702.5"/><line style="stroke: #A80036; stroke-width: 1.5;" x1="749.5" x2="826.5" y1="710.5" y2="710.5"/><!--class java.net.ServerSocket--><rect fill="#FEFECE" filter="url(#f7vj1ezb6dcb7)" height="48" id="java.net.ServerSocket" style="stroke: #A80036; stroke-width: 1.5;" width="104" x="971" y="452"/><ellipse cx="986" cy="468" fill="#ADD1B2" rx="11" ry="11" style="stroke: #A80036; stroke-width: 1.0;"/><path d="M988.7656,463.875 Q988.9219,463.6563 989.1094,463.5469 Q989.2969,463.4375 989.5156,463.4375 Q989.8906,463.4375 990.125,463.6953 Q990.3594,463.9531 990.3594,464.5625 L990.3594,466.0156 Q990.3594,466.625 990.125,466.8906 Q989.8906,467.1563 989.5156,467.1563 Q989.1719,467.1563 988.9688,466.9531 Q988.7656,466.7656 988.6563,466.25 Q988.6094,465.8906 988.4219,465.7031 Q988.0938,465.3281 987.4844,465.1094 Q986.875,464.8906 986.25,464.8906 Q985.4844,464.8906 984.8516,465.2188 Q984.2188,465.5469 983.7266,466.2969 Q983.2344,467.0469 983.2344,468.0781 L983.2344,469.1719 Q983.2344,470.4063 984.125,471.2266 Q985.0156,472.0469 986.6094,472.0469 Q987.5469,472.0469 988.2031,471.7969 Q988.5938,471.6406 989.0156,471.2031 Q989.2813,470.9375 989.4297,470.8594 Q989.5781,470.7813 989.7813,470.7813 Q990.1094,470.7813 990.3672,471.0391 Q990.625,471.2969 990.625,471.6406 Q990.625,471.9844 990.2813,472.3906 Q989.7813,472.9688 988.9844,473.2969 Q987.9063,473.75 986.6094,473.75 Q985.0938,473.75 983.8906,473.125 Q982.9063,472.625 982.2188,471.5547 Q981.5313,470.4844 981.5313,469.2031 L981.5313,468.0469 Q981.5313,466.7188 982.1484,465.5703 Q982.7656,464.4219 983.8594,463.8047 Q984.9531,463.1875 986.1875,463.1875 Q986.9219,463.1875 987.5703,463.3516 Q988.2188,463.5156 988.7656,463.875 Z "/><text fill="#000000" font-family="sans-serif" font-size="12" lengthAdjust="spacingAndGlyphs" textLength="72" x="1000" y="472.9102">ServerSocket</text><line style="stroke: #A80036; stroke-width: 1.5;" x1="972" x2="1074" y1="484" y2="484"/><line style="stroke: #A80036; stroke-width: 1.5;" x1="972" x2="1074" y1="492" y2="492"/><!--class java.net.Socket--><rect fill="#FEFECE" filter="url(#f7vj1ezb6dcb7)" height="48" id="java.net.Socket" style="stroke: #A80036; stroke-width: 1.5;" width="69" x="866.5" y="452"/><ellipse cx="881.5" cy="468" fill="#ADD1B2" rx="11" ry="11" style="stroke: #A80036; stroke-width: 1.0;"/><path d="M884.2656,463.875 Q884.4219,463.6563 884.6094,463.5469 Q884.7969,463.4375 885.0156,463.4375 Q885.3906,463.4375 885.625,463.6953 Q885.8594,463.9531 885.8594,464.5625 L885.8594,466.0156 Q885.8594,466.625 885.625,466.8906 Q885.3906,467.1563 885.0156,467.1563 Q884.6719,467.1563 884.4688,466.9531 Q884.2656,466.7656 884.1563,466.25 Q884.1094,465.8906 883.9219,465.7031 Q883.5938,465.3281 882.9844,465.1094 Q882.375,464.8906 881.75,464.8906 Q880.9844,464.8906 880.3516,465.2188 Q879.7188,465.5469 879.2266,466.2969 Q878.7344,467.0469 878.7344,468.0781 L878.7344,469.1719 Q878.7344,470.4063 879.625,471.2266 Q880.5156,472.0469 882.1094,472.0469 Q883.0469,472.0469 883.7031,471.7969 Q884.0938,471.6406 884.5156,471.2031 Q884.7813,470.9375 884.9297,470.8594 Q885.0781,470.7813 885.2813,470.7813 Q885.6094,470.7813 885.8672,471.0391 Q886.125,471.2969 886.125,471.6406 Q886.125,471.9844 885.7813,472.3906 Q885.2813,472.9688 884.4844,473.2969 Q883.4063,473.75 882.1094,473.75 Q880.5938,473.75 879.3906,473.125 Q878.4063,472.625 877.7188,471.5547 Q877.0313,470.4844 877.0313,469.2031 L877.0313,468.0469 Q877.0313,466.7188 877.6484,465.5703 Q878.2656,464.4219 879.3594,463.8047 Q880.4531,463.1875 881.6875,463.1875 Q882.4219,463.1875 883.0703,463.3516 Q883.7188,463.5156 884.2656,463.875 Z "/><text fill="#000000" font-family="sans-serif" font-size="12" lengthAdjust="spacingAndGlyphs" textLength="37" x="895.5" y="472.9102">Socket</text><line style="stroke: #A80036; stroke-width: 1.5;" x1="867.5" x2="934.5" y1="484" y2="484"/><line style="stroke: #A80036; stroke-width: 1.5;" x1="867.5" x2="934.5" y1="492" y2="492"/><!--link mastermind.utils.WithConsoleView to mastermind.utils.Command--><path d="M82.4364,245.531 C57.7299,322.048 23.6386,462.108 58,576 C64.3651,597.097 75.8952,617.883 88.172,635.969 " fill="none" id="mastermind.utils.WithConsoleView-mastermind.utils.Command" style="stroke: #A80036; stroke-width: 1.0;"/><polygon fill="none" points="75.9383,242.892,88.9353,226.156,89.2114,247.344,75.9383,242.892" style="stroke: #A80036; stroke-width: 1.0;"/><!--link mastermind.utils.Console to java.io.BufferedReader--><path d="M508.279,573.165 C510.176,574.151 512.084,575.098 514,576 C648.236,639.21 705.725,572.696 844,626.5 C866.095,635.097 888.247,649.234 906.065,662.311 " fill="none" id="mastermind.utils.Console-java.io.BufferedReader" style="stroke: #A80036; stroke-width: 1.0;"/><polygon fill="#A80036" points="916.56,670.257,911.7992,661.6353,912.5737,667.2388,906.9701,668.0133,916.56,670.257" style="stroke: #A80036; stroke-width: 1.0;"/><line style="stroke: #A80036; stroke-width: 1.0;" x1="912.5737" x2="906.1965" y1="667.2388" y2="662.4095"/><polygon fill="#A80036" points="496.765,566.634,500.0111,573.0732,507.2034,572.5534,503.9573,566.1142,496.765,566.634" style="stroke: #A80036; stroke-width: 1.0;"/><!--link mastermind.utils.WithConsoleView to mastermind.utils.Menu--><path d="M117.295,245.784 C130.418,297.912 149.682,374.43 162.282,424.48 " fill="none" id="mastermind.utils.WithConsoleView-mastermind.utils.Menu" style="stroke: #A80036; stroke-width: 1.0;"/><polygon fill="none" points="110.433,247.2,112.339,226.096,124.01,243.782,110.433,247.2" style="stroke: #A80036; stroke-width: 1.0;"/><!--link mastermind.utils.Menu to java.util.ArrayList--><path d="M231.935,536.531 C249.724,551.805 270.391,566.569 292,576 C462.696,650.501 537.115,552.432 708,626.5 C726.458,634.501 743.956,648.167 757.853,661.079 " fill="none" id="mastermind.utils.Menu-java.util.ArrayList" style="stroke: #A80036; stroke-width: 1.0;"/><polygon fill="#A80036" points="767.299,670.255,763.631,661.1147,763.7127,666.7709,758.0565,666.8527,767.299,670.255" style="stroke: #A80036; stroke-width: 1.0;"/><line style="stroke: #A80036; stroke-width: 1.0;" x1="763.7127" x2="757.9745" y1="666.7709" y2="661.1965"/><polygon fill="#A80036" points="221.809,527.516,223.6302,534.4933,230.7713,535.4958,228.9501,528.5185,221.809,527.516" style="stroke: #A80036; stroke-width: 1.0;"/><!--link mastermind.utils.Menu to mastermind.utils.Command--><path d="M165.856,527.76 C160.321,558.486 153.218,597.919 147.329,630.612 " fill="none" id="mastermind.utils.Menu-mastermind.utils.Command" style="stroke: #A80036; stroke-width: 1.0;"/><polygon fill="#A80036" points="146.394,635.799,151.9272,627.6514,147.281,630.8783,144.0541,626.2321,146.394,635.799" style="stroke: #A80036; stroke-width: 1.0;"/><!--link mastermind.utils.TCPIP to java.net.ServerSocket--><path d="M521.096,306.102 C528.696,309.708 536.348,313.033 544,316 C715.298,382.418 796.419,279.892 953,376 C977.522,391.051 995.814,418.253 1007.54,440.34 " fill="none" id="mastermind.utils.TCPIP-java.net.ServerSocket" style="stroke: #A80036; stroke-width: 1.0;"/><polygon fill="#A80036" points="1013.37,451.974,1012.9097,442.1359,1011.128,447.5048,1005.7591,445.7231,1013.37,451.974" style="stroke: #A80036; stroke-width: 1.0;"/><line style="stroke: #A80036; stroke-width: 1.0;" x1="1011.128" x2="1007.5435" y1="447.5048" y2="440.354"/><polygon fill="#A80036" points="509.201,300.217,512.8051,306.4628,519.9567,305.5382,516.3526,299.2923,509.201,300.217" style="stroke: #A80036; stroke-width: 1.0;"/><!--link mastermind.utils.TCPIP to java.io.PrintWriter--><path d="M520.464,304.481 C528.299,308.586 536.165,312.452 544,316 C639.845,359.399 694.582,305.855 773,376 C843.992,439.502 779.998,511.408 850,576 C908.24,629.739 953.677,584.699 1021,626.5 C1035.06,635.229 1047.96,647.983 1058.32,660.027 " fill="none" id="mastermind.utils.TCPIP-java.io.PrintWriter" style="stroke: #A80036; stroke-width: 1.0;"/><polygon fill="#A80036" points="1066.72,670.309,1064.1233,660.8086,1063.5565,666.437,1057.9281,665.8702,1066.72,670.309" style="stroke: #A80036; stroke-width: 1.0;"/><line style="stroke: #A80036; stroke-width: 1.0;" x1="1063.5565" x2="1058.495" y1="666.437" y2="660.245"/><polygon fill="#A80036" points="509.014,298.305,512.3958,304.6739,519.5755,304.0018,516.1937,297.6329,509.014,298.305" style="stroke: #A80036; stroke-width: 1.0;"/><!--link mastermind.utils.TCPIP to java.net.Socket--><path d="M520.86,305.349 C528.55,309.184 536.282,312.761 544,316 C667.37,367.78 729.027,299.795 839,376 C861.434,391.545 877.416,418.108 887.529,439.807 " fill="none" id="mastermind.utils.TCPIP-java.net.Socket" style="stroke: #A80036; stroke-width: 1.0;"/><polygon fill="#A80036" points="892.81,451.901,892.8749,442.0524,890.8095,447.3187,885.5432,445.2532,892.81,451.901" style="stroke: #A80036; stroke-width: 1.0;"/><line style="stroke: #A80036; stroke-width: 1.0;" x1="890.8095" x2="887.608" y1="447.3187" y2="439.9875"/><polygon fill="#A80036" points="509.227,299.339,512.7213,305.6469,519.888,304.8475,516.3937,298.5396,509.227,299.339" style="stroke: #A80036; stroke-width: 1.0;"/><!--link mastermind.utils.TCPIP to java.io.BufferedReader--><path d="M520.57,303.322 C528.398,307.76 536.231,312.011 544,316 C612.3,351.074 650.898,322.532 706,376 C774.826,442.785 728.462,500.036 787,576 C803.146,596.952 857.536,635.761 897.794,663.028 " fill="none" id="mastermind.utils.TCPIP-java.io.BufferedReader" style="stroke: #A80036; stroke-width: 1.0;"/><polygon fill="#A80036" points="908.73,670.389,903.4972,662.0453,904.582,667.5971,899.0302,668.682,908.73,670.389" style="stroke: #A80036; stroke-width: 1.0;"/><line style="stroke: #A80036; stroke-width: 1.0;" x1="904.582" x2="897.9455" y1="667.5971" y2="663.1305"/><polygon fill="#A80036" points="509.112,296.696,512.3035,303.1624,519.4999,302.7035,516.3085,296.2371,509.112,296.696" style="stroke: #A80036; stroke-width: 1.0;"/><!--link mastermind.utils.TCPIP to mastermind.utils.TCPIP--><path d="M509.063,139.953 C530.02,147.938 544,163.953 544,188 C544,210.168 532.119,225.511 513.843,234.028 " fill="none" id="mastermind.utils.TCPIP-mastermind.utils.TCPIP" style="stroke: #A80036; stroke-width: 1.0; stroke-dasharray: 7.0,7.0;"/><polygon fill="#A80036" points="509.063,236.047,518.9102,236.2293,513.6689,234.1012,515.7969,228.8599,509.063,236.047" style="stroke: #A80036; stroke-width: 1.0;"/><!--link mastermind.utils.WithConsoleView to mastermind.utils.Console--><path d="M127.045,237.775 C141.341,263.281 161.306,293.737 185,316 C224.734,353.334 247.616,344.335 292,376 C294.258,377.611 296.522,379.261 298.788,380.944 " fill="none" id="mastermind.utils.WithConsoleView-mastermind.utils.Console" style="stroke: #A80036; stroke-width: 1.0;"/><polygon fill="#A80036" points="309.384,389.039,304.6598,380.3971,305.4105,386.004,299.8037,386.7547,309.384,389.039" style="stroke: #A80036; stroke-width: 1.0;"/><line style="stroke: #A80036; stroke-width: 1.0;" x1="305.4105" x2="299.053" y1="386.004" y2="381.147"/><polygon fill="#A80036" points="120.688,226.081,120.0399,233.2629,126.4201,236.6234,127.0682,229.4415,120.688,226.081" style="stroke: #A80036; stroke-width: 1.0;"/><!--link mastermind.utils.WithConsoleView to mastermind.utils.YesNoDialog--><path d="M125.972,244.22 C139.454,269.945 159.009,298.638 185,316 C308.594,398.562 382.896,305.972 514,376 C524.348,381.527 534.251,388.565 543.501,396.334 " fill="none" id="mastermind.utils.WithConsoleView-mastermind.utils.YesNoDialog" style="stroke: #A80036; stroke-width: 1.0;"/><polygon fill="none" points="119.67,247.266,117.223,226.218,132.261,241.146,119.67,247.266" style="stroke: #A80036; stroke-width: 1.0;"/><!--
@startuml

class  mastermind.utils.ClosedInterval{
- min: int
- max: int
+ ClosedInterval(int, int)
+ includes(int): boolean
}

class  mastermind.utils.Command{
# title: String
# Command(String)
# {abstract} execute(): void
# {abstract} isActive(): boolean
~ getTitle(): String
}
mastermind.utils.WithConsoleView <|-down- mastermind.utils.Command

class  mastermind.utils.Console{
- bufferedReader: BufferedReader
+ Console()
+ write(char): void
+ write(String): void
+ readInt(String): int
+ readChar(String): char
- writeError(String): void
+ writeln(String): void
+ writeln(int): void
+ writeln(): void
+ readString(String): String
}
mastermind.utils.Console *-down-> java.io.BufferedReader

class  mastermind.utils.Menu{
- commandList: ArrayList<Command>
+ Menu()
+ execute(): void
# addCommand(Command): void
}
mastermind.utils.WithConsoleView <|-down- mastermind.utils.Menu
mastermind.utils.Menu *-down-> java.util.ArrayList
mastermind.utils.Menu - -> mastermind.utils.Command

class  mastermind.utils.TCPIP{
- serverSocket: ServerSocket
- socket: Socket
- out: PrintWriter
- in: BufferedReader
+ TCPIP(BufferedReader, PrintWriter, Socket)
+ TCPIP(ServerSocket, BufferedReader, PrintWriter, Socket)
+ close(): void
+ send(int): void
+ send(String): void
+ send(boolean): void
+ {static} createClientSocket(): TCPIP
+ {static} createServerSocket(): TCPIP
+ receiveLine(): String
+ receiveBoolean(): boolean
+ receiveInt(): int
}
mastermind.utils.TCPIP *-down-> java.net.ServerSocket
mastermind.utils.TCPIP *-down-> java.io.PrintWriter
mastermind.utils.TCPIP *-down-> java.net.Socket
mastermind.utils.TCPIP *-down-> java.io.BufferedReader
mastermind.utils.TCPIP ..> mastermind.utils.TCPIP

class  mastermind.utils.WithConsoleView{
# console: Console
# WithConsoleView()
}
mastermind.utils.WithConsoleView *-down-> mastermind.utils.Console

class  mastermind.utils.YesNoDialog{
- {static} AFIRMATIVE: char
- {static} NEGATIVE: char
- {static} QUESTION: String
- {static} MESSAGE: String
+ YesNoDialog()
+ read(String): boolean
- {static} isAfirmative(char): boolean
- {static} isNegative(char): boolean
}
mastermind.utils.WithConsoleView <|-down- mastermind.utils.YesNoDialog

@enduml

PlantUML version 1.2019.05(Sat Apr 20 18:45:36 CEST 2019)
(GPL source distribution)
Java Runtime: OpenJDK Runtime Environment
JVM: OpenJDK 64-Bit Server VM
Java Version: 1.8.0_222-b10
Operating System: Windows 10
OS Version: 10.0
Default Encoding: windows-1252
Language: es
Country: ES
--></g></svg>