<?xml version="1.0" encoding="UTF-8" standalone="no"?><svg xmlns="http://www.w3.org/2000/svg" xmlns:xlink="http://www.w3.org/1999/xlink" contentScriptType="application/ecmascript" contentStyleType="text/css" height="411px" preserveAspectRatio="none" style="width:1718px;height:411px;" version="1.1" viewBox="0 0 1718 411" width="1718px" zoomAndPan="magnify"><defs><filter height="300%" id="f1tehof2w4b0fj" width="300%" x="-1" y="-1"><feGaussianBlur result="blurOut" stdDeviation="2.0"/><feColorMatrix in="blurOut" result="blurOut2" type="matrix" values="0 0 0 0 0 0 0 0 0 0 0 0 0 0 0 0 0 0 .4 0"/><feOffset dx="4.0" dy="4.0" in="blurOut2" result="blurOut3"/><feBlend in="SourceGraphic" in2="blurOut3" mode="normal"/></filter></defs><g><!--cluster mastermind--><polygon fill="#FFFFFF" filter="url(#f1tehof2w4b0fj)" points="22,24,110,24,117,47.6094,844,47.6094,844,399,22,399,22,24" style="stroke: #000000; stroke-width: 1.5;"/><line style="stroke: #000000; stroke-width: 1.5;" x1="22" x2="117" y1="47.6094" y2="47.6094"/><text fill="#000000" font-family="sans-serif" font-size="14" font-weight="bold" lengthAdjust="spacingAndGlyphs" textLength="82" x="26" y="40.5332">mastermind</text><!--cluster mastermind.models--><polygon fill="#FFFFFF" filter="url(#f1tehof2w4b0fj)" points="868,278,1011,278,1018,301.6094,1021,301.6094,1021,378,868,378,868,278" style="stroke: #000000; stroke-width: 1.5;"/><line style="stroke: #000000; stroke-width: 1.5;" x1="868" x2="1018" y1="301.6094" y2="301.6094"/><text fill="#000000" font-family="sans-serif" font-size="14" font-weight="bold" lengthAdjust="spacingAndGlyphs" textLength="137" x="872" y="294.5332">mastermind.models</text><!--cluster mastermind.controllers--><polygon fill="#FFFFFF" filter="url(#f1tehof2w4b0fj)" points="1045,278,1214,278,1221,301.6094,1529,301.6094,1529,378,1045,378,1045,278" style="stroke: #000000; stroke-width: 1.5;"/><line style="stroke: #000000; stroke-width: 1.5;" x1="1045" x2="1221" y1="301.6094" y2="301.6094"/><text fill="#000000" font-family="sans-serif" font-size="14" font-weight="bold" lengthAdjust="spacingAndGlyphs" textLength="163" x="1049" y="294.5332">mastermind.controllers</text><!--cluster mastermind.views--><polygon fill="#FFFFFF" filter="url(#f1tehof2w4b0fj)" points="1553,278,1686,278,1693,301.6094,1696,301.6094,1696,378,1553,378,1553,278" style="stroke: #000000; stroke-width: 1.5;"/><line style="stroke: #000000; stroke-width: 1.5;" x1="1553" x2="1693" y1="301.6094" y2="301.6094"/><text fill="#000000" font-family="sans-serif" font-size="14" font-weight="bold" lengthAdjust="spacingAndGlyphs" textLength="127" x="1557" y="294.5332">mastermind.views</text><!--class mastermind.ConsoleMastermind--><rect fill="#FEFECE" filter="url(#f1tehof2w4b0fj)" height="89.5078" id="mastermind.ConsoleMastermind" style="stroke: #A80036; stroke-width: 1.5;" width="377" x="38.5" y="293"/><ellipse cx="166.75" cy="309" fill="#ADD1B2" rx="11" ry="11" style="stroke: #A80036; stroke-width: 1.0;"/><path d="M169.5156,304.875 Q169.6719,304.6563 169.8594,304.5469 Q170.0469,304.4375 170.2656,304.4375 Q170.6406,304.4375 170.875,304.6953 Q171.1094,304.9531 171.1094,305.5625 L171.1094,307.0156 Q171.1094,307.625 170.875,307.8906 Q170.6406,308.1563 170.2656,308.1563 Q169.9219,308.1563 169.7188,307.9531 Q169.5156,307.7656 169.4063,307.25 Q169.3594,306.8906 169.1719,306.7031 Q168.8438,306.3281 168.2344,306.1094 Q167.625,305.8906 167,305.8906 Q166.2344,305.8906 165.6016,306.2188 Q164.9688,306.5469 164.4766,307.2969 Q163.9844,308.0469 163.9844,309.0781 L163.9844,310.1719 Q163.9844,311.4063 164.875,312.2266 Q165.7656,313.0469 167.3594,313.0469 Q168.2969,313.0469 168.9531,312.7969 Q169.3438,312.6406 169.7656,312.2031 Q170.0313,311.9375 170.1797,311.8594 Q170.3281,311.7813 170.5313,311.7813 Q170.8594,311.7813 171.1172,312.0391 Q171.375,312.2969 171.375,312.6406 Q171.375,312.9844 171.0313,313.3906 Q170.5313,313.9688 169.7344,314.2969 Q168.6563,314.75 167.3594,314.75 Q165.8438,314.75 164.6406,314.125 Q163.6563,313.625 162.9688,312.5547 Q162.2813,311.4844 162.2813,310.2031 L162.2813,309.0469 Q162.2813,307.7188 162.8984,306.5703 Q163.5156,305.4219 164.6094,304.8047 Q165.7031,304.1875 166.9375,304.1875 Q167.6719,304.1875 168.3203,304.3516 Q168.9688,304.5156 169.5156,304.875 Z "/><text fill="#000000" font-family="sans-serif" font-size="12" lengthAdjust="spacingAndGlyphs" textLength="112" x="187.25" y="313.9102">ConsoleMastermind</text><line style="stroke: #A80036; stroke-width: 1.5;" x1="39.5" x2="414.5" y1="325" y2="325"/><line style="stroke: #A80036; stroke-width: 1.5;" x1="39.5" x2="414.5" y1="333" y2="333"/><ellipse cx="49.5" cy="345.418" fill="#84BE84" rx="3" ry="3" style="stroke: #038048; stroke-width: 1.0;"/><text fill="#000000" font-family="sans-serif" font-size="11" lengthAdjust="spacingAndGlyphs" textLength="102" x="58.5" y="348.4189">ConsoleMastermind()</text><ellipse cx="49.5" cy="359.2539" fill="#84BE84" rx="3" ry="3" style="stroke: #038048; stroke-width: 1.0;"/><text fill="#000000" font-family="sans-serif" font-size="11" lengthAdjust="spacingAndGlyphs" text-decoration="underline" textLength="90" x="58.5" y="362.2549">main(String[]): void</text><polygon fill="#FFFF44" points="49.5,368.0898,53.5,372.0898,49.5,376.0898,45.5,372.0898" style="stroke: #B38D22; stroke-width: 1.0;"/><text fill="#000000" font-family="sans-serif" font-size="11" lengthAdjust="spacingAndGlyphs" textLength="351" x="58.5" y="376.0908">createView(StartController, ResumeController, ProposalController): View</text><!--class mastermind.Mastermind--><rect fill="#FEFECE" filter="url(#f1tehof2w4b0fj)" height="172.5234" id="mastermind.Mastermind" style="stroke: #A80036; stroke-width: 1.5;" width="384" x="444" y="60"/><ellipse cx="599.25" cy="76" fill="#ADD1B2" rx="11" ry="11" style="stroke: #A80036; stroke-width: 1.0;"/><path d="M602.0156,71.875 Q602.1719,71.6563 602.3594,71.5469 Q602.5469,71.4375 602.7656,71.4375 Q603.1406,71.4375 603.375,71.6953 Q603.6094,71.9531 603.6094,72.5625 L603.6094,74.0156 Q603.6094,74.625 603.375,74.8906 Q603.1406,75.1563 602.7656,75.1563 Q602.4219,75.1563 602.2188,74.9531 Q602.0156,74.7656 601.9063,74.25 Q601.8594,73.8906 601.6719,73.7031 Q601.3438,73.3281 600.7344,73.1094 Q600.125,72.8906 599.5,72.8906 Q598.7344,72.8906 598.1016,73.2188 Q597.4688,73.5469 596.9766,74.2969 Q596.4844,75.0469 596.4844,76.0781 L596.4844,77.1719 Q596.4844,78.4063 597.375,79.2266 Q598.2656,80.0469 599.8594,80.0469 Q600.7969,80.0469 601.4531,79.7969 Q601.8438,79.6406 602.2656,79.2031 Q602.5313,78.9375 602.6797,78.8594 Q602.8281,78.7813 603.0313,78.7813 Q603.3594,78.7813 603.6172,79.0391 Q603.875,79.2969 603.875,79.6406 Q603.875,79.9844 603.5313,80.3906 Q603.0313,80.9688 602.2344,81.2969 Q601.1563,81.75 599.8594,81.75 Q598.3438,81.75 597.1406,81.125 Q596.1563,80.625 595.4688,79.5547 Q594.7813,78.4844 594.7813,77.2031 L594.7813,76.0469 Q594.7813,74.7188 595.3984,73.5703 Q596.0156,72.4219 597.1094,71.8047 Q598.2031,71.1875 599.4375,71.1875 Q600.1719,71.1875 600.8203,71.3516 Q601.4688,71.5156 602.0156,71.875 Z "/><text fill="#000000" font-family="sans-serif" font-size="12" lengthAdjust="spacingAndGlyphs" textLength="65" x="619.75" y="80.9102">Mastermind</text><line style="stroke: #A80036; stroke-width: 1.5;" x1="445" x2="827" y1="92" y2="92"/><ellipse cx="455" cy="104.418" fill="none" rx="3" ry="3" style="stroke: #038048; stroke-width: 1.0;"/><text fill="#000000" font-family="sans-serif" font-size="11" lengthAdjust="spacingAndGlyphs" text-decoration="underline" textLength="73" x="464" y="107.4189">NO_ERROR: int</text><rect fill="none" height="6" style="stroke: #C82930; stroke-width: 1.0;" width="6" x="452" y="115.2539"/><text fill="#000000" font-family="sans-serif" font-size="11" lengthAdjust="spacingAndGlyphs" textLength="60" x="464" y="121.2549">game: Game</text><rect fill="none" height="6" style="stroke: #C82930; stroke-width: 1.0;" width="6" x="452" y="129.0898"/><text fill="#000000" font-family="sans-serif" font-size="11" lengthAdjust="spacingAndGlyphs" textLength="143" x="464" y="135.0908">startController: StartController</text><rect fill="none" height="6" style="stroke: #C82930; stroke-width: 1.0;" width="6" x="452" y="142.9258"/><text fill="#000000" font-family="sans-serif" font-size="11" lengthAdjust="spacingAndGlyphs" textLength="182" x="464" y="148.9268">proposalController: ProposalController</text><rect fill="none" height="6" style="stroke: #C82930; stroke-width: 1.0;" width="6" x="452" y="156.7617"/><text fill="#000000" font-family="sans-serif" font-size="11" lengthAdjust="spacingAndGlyphs" textLength="173" x="464" y="162.7627">resumeController: ResumeController</text><rect fill="none" height="6" style="stroke: #C82930; stroke-width: 1.0;" width="6" x="452" y="170.5977"/><text fill="#000000" font-family="sans-serif" font-size="11" lengthAdjust="spacingAndGlyphs" textLength="56" x="464" y="176.5986">view: View</text><line style="stroke: #A80036; stroke-width: 1.5;" x1="445" x2="827" y1="183.0156" y2="183.0156"/><polygon fill="#FFFF44" points="455,190.4336,459,194.4336,455,198.4336,451,194.4336" style="stroke: #B38D22; stroke-width: 1.0;"/><text fill="#000000" font-family="sans-serif" font-size="11" lengthAdjust="spacingAndGlyphs" textLength="63" x="464" y="198.4346">Mastermind()</text><polygon fill="#FFFF44" points="455,204.2695,459,208.2695,455,212.2695,451,208.2695" style="stroke: #B38D22; stroke-width: 1.0;"/><text fill="#000000" font-family="sans-serif" font-size="11" font-style="italic" lengthAdjust="spacingAndGlyphs" textLength="358" x="464" y="212.2705">createView(StartController, ProposalController, ResumeController): View</text><polygon fill="#FFFF44" points="455,218.1055,459,222.1055,455,226.1055,451,222.1055" style="stroke: #B38D22; stroke-width: 1.0;"/><text fill="#000000" font-family="sans-serif" font-size="11" lengthAdjust="spacingAndGlyphs" textLength="54" x="464" y="226.1064">play(): void</text><!--class mastermind.GraphicsMastermind--><rect fill="#FEFECE" filter="url(#f1tehof2w4b0fj)" height="89.5078" id="mastermind.GraphicsMastermind" style="stroke: #A80036; stroke-width: 1.5;" width="377" x="450.5" y="293"/><ellipse cx="577.25" cy="309" fill="#ADD1B2" rx="11" ry="11" style="stroke: #A80036; stroke-width: 1.0;"/><path d="M580.0156,304.875 Q580.1719,304.6563 580.3594,304.5469 Q580.5469,304.4375 580.7656,304.4375 Q581.1406,304.4375 581.375,304.6953 Q581.6094,304.9531 581.6094,305.5625 L581.6094,307.0156 Q581.6094,307.625 581.375,307.8906 Q581.1406,308.1563 580.7656,308.1563 Q580.4219,308.1563 580.2188,307.9531 Q580.0156,307.7656 579.9063,307.25 Q579.8594,306.8906 579.6719,306.7031 Q579.3438,306.3281 578.7344,306.1094 Q578.125,305.8906 577.5,305.8906 Q576.7344,305.8906 576.1016,306.2188 Q575.4688,306.5469 574.9766,307.2969 Q574.4844,308.0469 574.4844,309.0781 L574.4844,310.1719 Q574.4844,311.4063 575.375,312.2266 Q576.2656,313.0469 577.8594,313.0469 Q578.7969,313.0469 579.4531,312.7969 Q579.8438,312.6406 580.2656,312.2031 Q580.5313,311.9375 580.6797,311.8594 Q580.8281,311.7813 581.0313,311.7813 Q581.3594,311.7813 581.6172,312.0391 Q581.875,312.2969 581.875,312.6406 Q581.875,312.9844 581.5313,313.3906 Q581.0313,313.9688 580.2344,314.2969 Q579.1563,314.75 577.8594,314.75 Q576.3438,314.75 575.1406,314.125 Q574.1563,313.625 573.4688,312.5547 Q572.7813,311.4844 572.7813,310.2031 L572.7813,309.0469 Q572.7813,307.7188 573.3984,306.5703 Q574.0156,305.4219 575.1094,304.8047 Q576.2031,304.1875 577.4375,304.1875 Q578.1719,304.1875 578.8203,304.3516 Q579.4688,304.5156 580.0156,304.875 Z "/><text fill="#000000" font-family="sans-serif" font-size="12" lengthAdjust="spacingAndGlyphs" textLength="115" x="597.75" y="313.9102">GraphicsMastermind</text><line style="stroke: #A80036; stroke-width: 1.5;" x1="451.5" x2="826.5" y1="325" y2="325"/><line style="stroke: #A80036; stroke-width: 1.5;" x1="451.5" x2="826.5" y1="333" y2="333"/><ellipse cx="461.5" cy="345.418" fill="#84BE84" rx="3" ry="3" style="stroke: #038048; stroke-width: 1.0;"/><text fill="#000000" font-family="sans-serif" font-size="11" lengthAdjust="spacingAndGlyphs" textLength="107" x="470.5" y="348.4189">GraphicsMastermind()</text><ellipse cx="461.5" cy="359.2539" fill="#84BE84" rx="3" ry="3" style="stroke: #038048; stroke-width: 1.0;"/><text fill="#000000" font-family="sans-serif" font-size="11" lengthAdjust="spacingAndGlyphs" text-decoration="underline" textLength="90" x="470.5" y="362.2549">main(String[]): void</text><polygon fill="#FFFF44" points="461.5,368.0898,465.5,372.0898,461.5,376.0898,457.5,372.0898" style="stroke: #B38D22; stroke-width: 1.0;"/><text fill="#000000" font-family="sans-serif" font-size="11" lengthAdjust="spacingAndGlyphs" textLength="351" x="470.5" y="376.0908">createView(ProposalController, ResumeController, StartController): View</text><!--class mastermind.models.Game--><rect fill="#FEFECE" filter="url(#f1tehof2w4b0fj)" height="48" id="mastermind.models.Game" style="stroke: #A80036; stroke-width: 1.5;" width="66" x="884" y="314"/><ellipse cx="899" cy="330" fill="#ADD1B2" rx="11" ry="11" style="stroke: #A80036; stroke-width: 1.0;"/><path d="M901.7656,325.875 Q901.9219,325.6563 902.1094,325.5469 Q902.2969,325.4375 902.5156,325.4375 Q902.8906,325.4375 903.125,325.6953 Q903.3594,325.9531 903.3594,326.5625 L903.3594,328.0156 Q903.3594,328.625 903.125,328.8906 Q902.8906,329.1563 902.5156,329.1563 Q902.1719,329.1563 901.9688,328.9531 Q901.7656,328.7656 901.6563,328.25 Q901.6094,327.8906 901.4219,327.7031 Q901.0938,327.3281 900.4844,327.1094 Q899.875,326.8906 899.25,326.8906 Q898.4844,326.8906 897.8516,327.2188 Q897.2188,327.5469 896.7266,328.2969 Q896.2344,329.0469 896.2344,330.0781 L896.2344,331.1719 Q896.2344,332.4063 897.125,333.2266 Q898.0156,334.0469 899.6094,334.0469 Q900.5469,334.0469 901.2031,333.7969 Q901.5938,333.6406 902.0156,333.2031 Q902.2813,332.9375 902.4297,332.8594 Q902.5781,332.7813 902.7813,332.7813 Q903.1094,332.7813 903.3672,333.0391 Q903.625,333.2969 903.625,333.6406 Q903.625,333.9844 903.2813,334.3906 Q902.7813,334.9688 901.9844,335.2969 Q900.9063,335.75 899.6094,335.75 Q898.0938,335.75 896.8906,335.125 Q895.9063,334.625 895.2188,333.5547 Q894.5313,332.4844 894.5313,331.2031 L894.5313,330.0469 Q894.5313,328.7188 895.1484,327.5703 Q895.7656,326.4219 896.8594,325.8047 Q897.9531,325.1875 899.1875,325.1875 Q899.9219,325.1875 900.5703,325.3516 Q901.2188,325.5156 901.7656,325.875 Z "/><text fill="#000000" font-family="sans-serif" font-size="12" lengthAdjust="spacingAndGlyphs" textLength="34" x="913" y="334.9102">Game</text><line style="stroke: #A80036; stroke-width: 1.5;" x1="885" x2="949" y1="346" y2="346"/><line style="stroke: #A80036; stroke-width: 1.5;" x1="885" x2="949" y1="354" y2="354"/><!--class mastermind.controllers.ResumeController--><rect fill="#FEFECE" filter="url(#f1tehof2w4b0fj)" height="48" id="mastermind.controllers.ResumeController" style="stroke: #A80036; stroke-width: 1.5;" width="134" x="1379" y="314"/><ellipse cx="1394" cy="330" fill="#ADD1B2" rx="11" ry="11" style="stroke: #A80036; stroke-width: 1.0;"/><path d="M1396.7656,325.875 Q1396.9219,325.6563 1397.1094,325.5469 Q1397.2969,325.4375 1397.5156,325.4375 Q1397.8906,325.4375 1398.125,325.6953 Q1398.3594,325.9531 1398.3594,326.5625 L1398.3594,328.0156 Q1398.3594,328.625 1398.125,328.8906 Q1397.8906,329.1563 1397.5156,329.1563 Q1397.1719,329.1563 1396.9688,328.9531 Q1396.7656,328.7656 1396.6563,328.25 Q1396.6094,327.8906 1396.4219,327.7031 Q1396.0938,327.3281 1395.4844,327.1094 Q1394.875,326.8906 1394.25,326.8906 Q1393.4844,326.8906 1392.8516,327.2188 Q1392.2188,327.5469 1391.7266,328.2969 Q1391.2344,329.0469 1391.2344,330.0781 L1391.2344,331.1719 Q1391.2344,332.4063 1392.125,333.2266 Q1393.0156,334.0469 1394.6094,334.0469 Q1395.5469,334.0469 1396.2031,333.7969 Q1396.5938,333.6406 1397.0156,333.2031 Q1397.2813,332.9375 1397.4297,332.8594 Q1397.5781,332.7813 1397.7813,332.7813 Q1398.1094,332.7813 1398.3672,333.0391 Q1398.625,333.2969 1398.625,333.6406 Q1398.625,333.9844 1398.2813,334.3906 Q1397.7813,334.9688 1396.9844,335.2969 Q1395.9063,335.75 1394.6094,335.75 Q1393.0938,335.75 1391.8906,335.125 Q1390.9063,334.625 1390.2188,333.5547 Q1389.5313,332.4844 1389.5313,331.2031 L1389.5313,330.0469 Q1389.5313,328.7188 1390.1484,327.5703 Q1390.7656,326.4219 1391.8594,325.8047 Q1392.9531,325.1875 1394.1875,325.1875 Q1394.9219,325.1875 1395.5703,325.3516 Q1396.2188,325.5156 1396.7656,325.875 Z "/><text fill="#000000" font-family="sans-serif" font-size="12" lengthAdjust="spacingAndGlyphs" textLength="102" x="1408" y="334.9102">ResumeController</text><line style="stroke: #A80036; stroke-width: 1.5;" x1="1380" x2="1512" y1="346" y2="346"/><line style="stroke: #A80036; stroke-width: 1.5;" x1="1380" x2="1512" y1="354" y2="354"/><!--class mastermind.controllers.StartController--><rect fill="#FEFECE" filter="url(#f1tehof2w4b0fj)" height="48" id="mastermind.controllers.StartController" style="stroke: #A80036; stroke-width: 1.5;" width="111" x="1232.5" y="314"/><ellipse cx="1247.5" cy="330" fill="#ADD1B2" rx="11" ry="11" style="stroke: #A80036; stroke-width: 1.0;"/><path d="M1250.2656,325.875 Q1250.4219,325.6563 1250.6094,325.5469 Q1250.7969,325.4375 1251.0156,325.4375 Q1251.3906,325.4375 1251.625,325.6953 Q1251.8594,325.9531 1251.8594,326.5625 L1251.8594,328.0156 Q1251.8594,328.625 1251.625,328.8906 Q1251.3906,329.1563 1251.0156,329.1563 Q1250.6719,329.1563 1250.4688,328.9531 Q1250.2656,328.7656 1250.1563,328.25 Q1250.1094,327.8906 1249.9219,327.7031 Q1249.5938,327.3281 1248.9844,327.1094 Q1248.375,326.8906 1247.75,326.8906 Q1246.9844,326.8906 1246.3516,327.2188 Q1245.7188,327.5469 1245.2266,328.2969 Q1244.7344,329.0469 1244.7344,330.0781 L1244.7344,331.1719 Q1244.7344,332.4063 1245.625,333.2266 Q1246.5156,334.0469 1248.1094,334.0469 Q1249.0469,334.0469 1249.7031,333.7969 Q1250.0938,333.6406 1250.5156,333.2031 Q1250.7813,332.9375 1250.9297,332.8594 Q1251.0781,332.7813 1251.2813,332.7813 Q1251.6094,332.7813 1251.8672,333.0391 Q1252.125,333.2969 1252.125,333.6406 Q1252.125,333.9844 1251.7813,334.3906 Q1251.2813,334.9688 1250.4844,335.2969 Q1249.4063,335.75 1248.1094,335.75 Q1246.5938,335.75 1245.3906,335.125 Q1244.4063,334.625 1243.7188,333.5547 Q1243.0313,332.4844 1243.0313,331.2031 L1243.0313,330.0469 Q1243.0313,328.7188 1243.6484,327.5703 Q1244.2656,326.4219 1245.3594,325.8047 Q1246.4531,325.1875 1247.6875,325.1875 Q1248.4219,325.1875 1249.0703,325.3516 Q1249.7188,325.5156 1250.2656,325.875 Z "/><text fill="#000000" font-family="sans-serif" font-size="12" lengthAdjust="spacingAndGlyphs" textLength="79" x="1261.5" y="334.9102">StartController</text><line style="stroke: #A80036; stroke-width: 1.5;" x1="1233.5" x2="1342.5" y1="346" y2="346"/><line style="stroke: #A80036; stroke-width: 1.5;" x1="1233.5" x2="1342.5" y1="354" y2="354"/><!--class mastermind.controllers.ProposalController--><rect fill="#FEFECE" filter="url(#f1tehof2w4b0fj)" height="48" id="mastermind.controllers.ProposalController" style="stroke: #A80036; stroke-width: 1.5;" width="136" x="1061" y="314"/><ellipse cx="1076" cy="330" fill="#ADD1B2" rx="11" ry="11" style="stroke: #A80036; stroke-width: 1.0;"/><path d="M1078.7656,325.875 Q1078.9219,325.6563 1079.1094,325.5469 Q1079.2969,325.4375 1079.5156,325.4375 Q1079.8906,325.4375 1080.125,325.6953 Q1080.3594,325.9531 1080.3594,326.5625 L1080.3594,328.0156 Q1080.3594,328.625 1080.125,328.8906 Q1079.8906,329.1563 1079.5156,329.1563 Q1079.1719,329.1563 1078.9688,328.9531 Q1078.7656,328.7656 1078.6563,328.25 Q1078.6094,327.8906 1078.4219,327.7031 Q1078.0938,327.3281 1077.4844,327.1094 Q1076.875,326.8906 1076.25,326.8906 Q1075.4844,326.8906 1074.8516,327.2188 Q1074.2188,327.5469 1073.7266,328.2969 Q1073.2344,329.0469 1073.2344,330.0781 L1073.2344,331.1719 Q1073.2344,332.4063 1074.125,333.2266 Q1075.0156,334.0469 1076.6094,334.0469 Q1077.5469,334.0469 1078.2031,333.7969 Q1078.5938,333.6406 1079.0156,333.2031 Q1079.2813,332.9375 1079.4297,332.8594 Q1079.5781,332.7813 1079.7813,332.7813 Q1080.1094,332.7813 1080.3672,333.0391 Q1080.625,333.2969 1080.625,333.6406 Q1080.625,333.9844 1080.2813,334.3906 Q1079.7813,334.9688 1078.9844,335.2969 Q1077.9063,335.75 1076.6094,335.75 Q1075.0938,335.75 1073.8906,335.125 Q1072.9063,334.625 1072.2188,333.5547 Q1071.5313,332.4844 1071.5313,331.2031 L1071.5313,330.0469 Q1071.5313,328.7188 1072.1484,327.5703 Q1072.7656,326.4219 1073.8594,325.8047 Q1074.9531,325.1875 1076.1875,325.1875 Q1076.9219,325.1875 1077.5703,325.3516 Q1078.2188,325.5156 1078.7656,325.875 Z "/><text fill="#000000" font-family="sans-serif" font-size="12" lengthAdjust="spacingAndGlyphs" textLength="104" x="1090" y="334.9102">ProposalController</text><line style="stroke: #A80036; stroke-width: 1.5;" x1="1062" x2="1196" y1="346" y2="346"/><line style="stroke: #A80036; stroke-width: 1.5;" x1="1062" x2="1196" y1="354" y2="354"/><!--class mastermind.views.View--><rect fill="#FEFECE" filter="url(#f1tehof2w4b0fj)" height="48" id="mastermind.views.View" style="stroke: #A80036; stroke-width: 1.5;" width="58" x="1569" y="314"/><ellipse cx="1584" cy="330" fill="#ADD1B2" rx="11" ry="11" style="stroke: #A80036; stroke-width: 1.0;"/><path d="M1586.7656,325.875 Q1586.9219,325.6563 1587.1094,325.5469 Q1587.2969,325.4375 1587.5156,325.4375 Q1587.8906,325.4375 1588.125,325.6953 Q1588.3594,325.9531 1588.3594,326.5625 L1588.3594,328.0156 Q1588.3594,328.625 1588.125,328.8906 Q1587.8906,329.1563 1587.5156,329.1563 Q1587.1719,329.1563 1586.9688,328.9531 Q1586.7656,328.7656 1586.6563,328.25 Q1586.6094,327.8906 1586.4219,327.7031 Q1586.0938,327.3281 1585.4844,327.1094 Q1584.875,326.8906 1584.25,326.8906 Q1583.4844,326.8906 1582.8516,327.2188 Q1582.2188,327.5469 1581.7266,328.2969 Q1581.2344,329.0469 1581.2344,330.0781 L1581.2344,331.1719 Q1581.2344,332.4063 1582.125,333.2266 Q1583.0156,334.0469 1584.6094,334.0469 Q1585.5469,334.0469 1586.2031,333.7969 Q1586.5938,333.6406 1587.0156,333.2031 Q1587.2813,332.9375 1587.4297,332.8594 Q1587.5781,332.7813 1587.7813,332.7813 Q1588.1094,332.7813 1588.3672,333.0391 Q1588.625,333.2969 1588.625,333.6406 Q1588.625,333.9844 1588.2813,334.3906 Q1587.7813,334.9688 1586.9844,335.2969 Q1585.9063,335.75 1584.6094,335.75 Q1583.0938,335.75 1581.8906,335.125 Q1580.9063,334.625 1580.2188,333.5547 Q1579.5313,332.4844 1579.5313,331.2031 L1579.5313,330.0469 Q1579.5313,328.7188 1580.1484,327.5703 Q1580.7656,326.4219 1581.8594,325.8047 Q1582.9531,325.1875 1584.1875,325.1875 Q1584.9219,325.1875 1585.5703,325.3516 Q1586.2188,325.5156 1586.7656,325.875 Z "/><text fill="#000000" font-family="sans-serif" font-size="12" lengthAdjust="spacingAndGlyphs" textLength="26" x="1598" y="334.9102">View</text><line style="stroke: #A80036; stroke-width: 1.5;" x1="1570" x2="1626" y1="346" y2="346"/><line style="stroke: #A80036; stroke-width: 1.5;" x1="1570" x2="1626" y1="354" y2="354"/><!--link mastermind.Mastermind to mastermind.ConsoleMastermind--><path d="M432.874,241.613 C394.153,259.554 355.366,277.525 322.067,292.953 " fill="none" id="mastermind.Mastermind-mastermind.ConsoleMastermind" style="stroke: #A80036; stroke-width: 1.0;"/><polygon fill="none" points="430.154,235.159,451.244,233.102,436.04,247.862,430.154,235.159" style="stroke: #A80036; stroke-width: 1.0;"/><!--link mastermind.Mastermind to mastermind.GraphicsMastermind--><path d="M637.678,253.523 C637.898,267.398 638.113,280.945 638.303,292.953 " fill="none" id="mastermind.Mastermind-mastermind.GraphicsMastermind" style="stroke: #A80036; stroke-width: 1.0;"/><polygon fill="none" points="630.673,253.211,637.355,233.102,644.671,252.989,630.673,253.211" style="stroke: #A80036; stroke-width: 1.0;"/><!--link mastermind.Mastermind to mastermind.models.Game--><path d="M801.097,240.341 C815.872,249.957 830.38,259.914 844,270 C858.041,280.397 872.43,293.09 884.682,304.621 " fill="none" id="mastermind.Mastermind-mastermind.models.Game" style="stroke: #A80036; stroke-width: 1.0;"/><polygon fill="#A80036" points="894.416,313.957,890.6898,304.8402,890.8076,310.4959,885.152,310.6137,894.416,313.957" style="stroke: #A80036; stroke-width: 1.0;"/><line style="stroke: #A80036; stroke-width: 1.0;" x1="890.8076" x2="885.0345" y1="310.4959" y2="304.9585"/><polygon fill="#A80036" points="789.756,233.057,792.6433,239.6648,799.8534,239.5411,796.966,232.9333,789.756,233.057" style="stroke: #A80036; stroke-width: 1.0;"/><!--link mastermind.Mastermind to mastermind.controllers.ResumeController--><path d="M828.174,154.062 C978.78,165.22 1190.63,194.438 1361,270 C1382.69,279.622 1403.67,296.057 1419.36,310.241 " fill="none" id="mastermind.Mastermind-mastermind.controllers.ResumeController" style="stroke: #A80036; stroke-width: 1.0;"/><polygon fill="#A80036" points="1423.23,313.793,1419.3098,304.758,1419.5484,310.4098,1413.8966,310.6485,1423.23,313.793" style="stroke: #A80036; stroke-width: 1.0;"/><!--link mastermind.Mastermind to mastermind.controllers.StartController--><path d="M828.065,162.306 C945.106,177.455 1094.77,208.086 1215,270 C1234.01,279.79 1251.77,295.871 1265.02,309.825 " fill="none" id="mastermind.Mastermind-mastermind.controllers.StartController" style="stroke: #A80036; stroke-width: 1.0;"/><polygon fill="#A80036" points="1268.63,313.697,1265.4179,304.3867,1265.2202,310.0401,1259.5668,309.8424,1268.63,313.697" style="stroke: #A80036; stroke-width: 1.0;"/><!--link mastermind.Mastermind to mastermind.controllers.ProposalController--><path d="M828.374,217.638 C873.629,234.489 921.606,252.642 966,270 C1000.351,283.431 1038.5,299.07 1069.24,311.859 " fill="none" id="mastermind.Mastermind-mastermind.controllers.ProposalController" style="stroke: #A80036; stroke-width: 1.0;"/><polygon fill="#A80036" points="1074.11,313.886,1067.3478,306.7255,1069.4965,311.9584,1064.2636,314.107,1074.11,313.886" style="stroke: #A80036; stroke-width: 1.0;"/><!--link mastermind.Mastermind to mastermind.views.View--><path d="M828.165,159.807 C1052.78,176.621 1409.08,211.552 1529,270 C1547.93,279.228 1564.96,295.629 1577.36,309.894 " fill="none" id="mastermind.Mastermind-mastermind.views.View" style="stroke: #A80036; stroke-width: 1.0;"/><polygon fill="#A80036" points="1580.74,313.853,1577.9579,304.4053,1577.5013,310.0437,1571.8629,309.5871,1580.74,313.853" style="stroke: #A80036; stroke-width: 1.0;"/><!--
@startuml

class  mastermind.ConsoleMastermind{
+ ConsoleMastermind()
+ {static} main(String[]): void
# createView(StartController, ResumeController, ProposalController): View
}
mastermind.Mastermind <|-down- mastermind.ConsoleMastermind

class  mastermind.GraphicsMastermind{
+ GraphicsMastermind()
+ {static} main(String[]): void
# createView(ProposalController, ResumeController, StartController): View
}
mastermind.Mastermind <|-down- mastermind.GraphicsMastermind

class  mastermind.Mastermind{
+ {static} NO_ERROR: int
- game: Game
- startController: StartController
- proposalController: ProposalController
- resumeController: ResumeController
- view: View
# Mastermind()
# {abstract} createView(StartController, ProposalController, ResumeController): View
# play(): void
}
mastermind.Mastermind *-down-> mastermind.models.Game
mastermind.Mastermind - -> mastermind.controllers.ResumeController
mastermind.Mastermind - -> mastermind.controllers.StartController
mastermind.Mastermind - -> mastermind.controllers.ProposalController
mastermind.Mastermind - -> mastermind.views.View

@enduml

PlantUML version 1.2019.05(Sat Apr 20 18:45:36 CEST 2019)
(GPL source distribution)
Java Runtime: OpenJDK Runtime Environment
JVM: OpenJDK 64-Bit Server VM
Java Version: 1.8.0_222-b10
Operating System: Windows 10
OS Version: 10.0
Default Encoding: windows-1252
Language: es
Country: ES
--></g></svg>