<?xml version="1.0" encoding="UTF-8" standalone="no"?><svg xmlns="http://www.w3.org/2000/svg" xmlns:xlink="http://www.w3.org/1999/xlink" contentScriptType="application/ecmascript" contentStyleType="text/css" height="534px" preserveAspectRatio="none" style="width:1863px;height:534px;" version="1.1" viewBox="0 0 1863 534" width="1863px" zoomAndPan="magnify"><defs><filter height="300%" id="fodkkgkjzug94" width="300%" x="-1" y="-1"><feGaussianBlur result="blurOut" stdDeviation="2.0"/><feColorMatrix in="blurOut" result="blurOut2" type="matrix" values="0 0 0 0 0 0 0 0 0 0 0 0 0 0 0 0 0 0 .4 0"/><feOffset dx="4.0" dy="4.0" in="blurOut2" result="blurOut3"/><feBlend in="SourceGraphic" in2="blurOut3" mode="normal"/></filter></defs><g><!--cluster mastermind.views--><polygon fill="#FFFFFF" filter="url(#fodkkgkjzug94)" points="797,24,930,24,937,47.6094,1746,47.6094,1746,398,797,398,797,24" style="stroke: #000000; stroke-width: 1.5;"/><line style="stroke: #000000; stroke-width: 1.5;" x1="797" x2="937" y1="47.6094" y2="47.6094"/><text fill="#000000" font-family="sans-serif" font-size="14" font-weight="bold" lengthAdjust="spacingAndGlyphs" textLength="127" x="801" y="40.5332">mastermind.views</text><!--cluster mastermind.controllers--><polygon fill="#FFFFFF" filter="url(#fodkkgkjzug94)" points="22,422,191,422,198,445.6094,958,445.6094,958,522,22,522,22,422" style="stroke: #000000; stroke-width: 1.5;"/><line style="stroke: #000000; stroke-width: 1.5;" x1="22" x2="198" y1="445.6094" y2="445.6094"/><text fill="#000000" font-family="sans-serif" font-size="14" font-weight="bold" lengthAdjust="spacingAndGlyphs" textLength="163" x="26" y="438.5332">mastermind.controllers</text><!--cluster mastermind.views.menus--><polygon fill="#FFFFFF" filter="url(#fodkkgkjzug94)" points="982,422,1166,422,1173,445.6094,1222,445.6094,1222,522,982,522,982,422" style="stroke: #000000; stroke-width: 1.5;"/><line style="stroke: #000000; stroke-width: 1.5;" x1="982" x2="1173" y1="445.6094" y2="445.6094"/><text fill="#000000" font-family="sans-serif" font-size="14" font-weight="bold" lengthAdjust="spacingAndGlyphs" textLength="178" x="986" y="438.5332">mastermind.views.menus</text><!--cluster mastermind.views.models--><polygon fill="#FFFFFF" filter="url(#fodkkgkjzug94)" points="1246,422,1434,422,1441,445.6094,1515,445.6094,1515,522,1246,522,1246,422" style="stroke: #000000; stroke-width: 1.5;"/><line style="stroke: #000000; stroke-width: 1.5;" x1="1246" x2="1441" y1="445.6094" y2="445.6094"/><text fill="#000000" font-family="sans-serif" font-size="14" font-weight="bold" lengthAdjust="spacingAndGlyphs" textLength="182" x="1250" y="438.5332">mastermind.views.models</text><!--cluster santaTecla.utils--><polygon fill="#FFFFFF" filter="url(#fodkkgkjzug94)" points="1539,422,1654,422,1661,445.6094,1841,445.6094,1841,522,1539,522,1539,422" style="stroke: #000000; stroke-width: 1.5;"/><line style="stroke: #000000; stroke-width: 1.5;" x1="1539" x2="1661" y1="445.6094" y2="445.6094"/><text fill="#000000" font-family="sans-serif" font-size="14" font-weight="bold" lengthAdjust="spacingAndGlyphs" textLength="109" x="1543" y="438.5332">santaTecla.utils</text><!--class mastermind.views.PlayView--><rect fill="#FEFECE" filter="url(#fodkkgkjzug94)" height="61.8359" id="mastermind.views.PlayView" style="stroke: #A80036; stroke-width: 1.5;" width="228" x="813" y="313"/><ellipse cx="898.25" cy="329" fill="#ADD1B2" rx="11" ry="11" style="stroke: #A80036; stroke-width: 1.0;"/><path d="M901.0156,324.875 Q901.1719,324.6563 901.3594,324.5469 Q901.5469,324.4375 901.7656,324.4375 Q902.1406,324.4375 902.375,324.6953 Q902.6094,324.9531 902.6094,325.5625 L902.6094,327.0156 Q902.6094,327.625 902.375,327.8906 Q902.1406,328.1563 901.7656,328.1563 Q901.4219,328.1563 901.2188,327.9531 Q901.0156,327.7656 900.9063,327.25 Q900.8594,326.8906 900.6719,326.7031 Q900.3438,326.3281 899.7344,326.1094 Q899.125,325.8906 898.5,325.8906 Q897.7344,325.8906 897.1016,326.2188 Q896.4688,326.5469 895.9766,327.2969 Q895.4844,328.0469 895.4844,329.0781 L895.4844,330.1719 Q895.4844,331.4063 896.375,332.2266 Q897.2656,333.0469 898.8594,333.0469 Q899.7969,333.0469 900.4531,332.7969 Q900.8438,332.6406 901.2656,332.2031 Q901.5313,331.9375 901.6797,331.8594 Q901.8281,331.7813 902.0313,331.7813 Q902.3594,331.7813 902.6172,332.0391 Q902.875,332.2969 902.875,332.6406 Q902.875,332.9844 902.5313,333.3906 Q902.0313,333.9688 901.2344,334.2969 Q900.1563,334.75 898.8594,334.75 Q897.3438,334.75 896.1406,334.125 Q895.1563,333.625 894.4688,332.5547 Q893.7813,331.4844 893.7813,330.2031 L893.7813,329.0469 Q893.7813,327.7188 894.3984,326.5703 Q895.0156,325.4219 896.1094,324.8047 Q897.2031,324.1875 898.4375,324.1875 Q899.1719,324.1875 899.8203,324.3516 Q900.4688,324.5156 901.0156,324.875 Z "/><text fill="#000000" font-family="sans-serif" font-size="12" lengthAdjust="spacingAndGlyphs" textLength="49" x="918.75" y="333.9102">PlayView</text><line style="stroke: #A80036; stroke-width: 1.5;" x1="814" x2="1040" y1="345" y2="345"/><line style="stroke: #A80036; stroke-width: 1.5;" x1="814" x2="1040" y1="353" y2="353"/><polygon fill="#4177AF" points="824,361.418,820,367.418,828,367.418" style="stroke: #1963A0; stroke-width: 1.0;"/><text fill="#000000" font-family="sans-serif" font-size="11" lengthAdjust="spacingAndGlyphs" textLength="202" x="833" y="368.4189">void interact(PlayController playController)</text><!--class mastermind.views.ResumeView--><rect fill="#FEFECE" filter="url(#fodkkgkjzug94)" height="75.6719" id="mastermind.views.ResumeView" style="stroke: #A80036; stroke-width: 1.5;" width="181" x="1276.5" y="306"/><ellipse cx="1325.75" cy="322" fill="#ADD1B2" rx="11" ry="11" style="stroke: #A80036; stroke-width: 1.0;"/><path d="M1328.5156,317.875 Q1328.6719,317.6563 1328.8594,317.5469 Q1329.0469,317.4375 1329.2656,317.4375 Q1329.6406,317.4375 1329.875,317.6953 Q1330.1094,317.9531 1330.1094,318.5625 L1330.1094,320.0156 Q1330.1094,320.625 1329.875,320.8906 Q1329.6406,321.1563 1329.2656,321.1563 Q1328.9219,321.1563 1328.7188,320.9531 Q1328.5156,320.7656 1328.4063,320.25 Q1328.3594,319.8906 1328.1719,319.7031 Q1327.8438,319.3281 1327.2344,319.1094 Q1326.625,318.8906 1326,318.8906 Q1325.2344,318.8906 1324.6016,319.2188 Q1323.9688,319.5469 1323.4766,320.2969 Q1322.9844,321.0469 1322.9844,322.0781 L1322.9844,323.1719 Q1322.9844,324.4063 1323.875,325.2266 Q1324.7656,326.0469 1326.3594,326.0469 Q1327.2969,326.0469 1327.9531,325.7969 Q1328.3438,325.6406 1328.7656,325.2031 Q1329.0313,324.9375 1329.1797,324.8594 Q1329.3281,324.7813 1329.5313,324.7813 Q1329.8594,324.7813 1330.1172,325.0391 Q1330.375,325.2969 1330.375,325.6406 Q1330.375,325.9844 1330.0313,326.3906 Q1329.5313,326.9688 1328.7344,327.2969 Q1327.6563,327.75 1326.3594,327.75 Q1324.8438,327.75 1323.6406,327.125 Q1322.6563,326.625 1321.9688,325.5547 Q1321.2813,324.4844 1321.2813,323.2031 L1321.2813,322.0469 Q1321.2813,320.7188 1321.8984,319.5703 Q1322.5156,318.4219 1323.6094,317.8047 Q1324.7031,317.1875 1325.9375,317.1875 Q1326.6719,317.1875 1327.3203,317.3516 Q1327.9688,317.5156 1328.5156,317.875 Z "/><text fill="#000000" font-family="sans-serif" font-size="12" lengthAdjust="spacingAndGlyphs" textLength="74" x="1346.25" y="326.9102">ResumeView</text><line style="stroke: #A80036; stroke-width: 1.5;" x1="1277.5" x2="1456.5" y1="338" y2="338"/><line style="stroke: #A80036; stroke-width: 1.5;" x1="1277.5" x2="1456.5" y1="346" y2="346"/><polygon fill="#4177AF" points="1287.5,354.418,1283.5,360.418,1291.5,360.418" style="stroke: #1963A0; stroke-width: 1.0;"/><text fill="#000000" font-family="sans-serif" font-size="11" lengthAdjust="spacingAndGlyphs" textLength="73" x="1296.5" y="361.4189">ResumeView()</text><polygon fill="#4177AF" points="1287.5,368.2539,1283.5,374.2539,1291.5,374.2539" style="stroke: #1963A0; stroke-width: 1.0;"/><text fill="#000000" font-family="sans-serif" font-size="11" lengthAdjust="spacingAndGlyphs" textLength="155" x="1296.5" y="375.2549">interact(ResumeController): void</text><!--class mastermind.views.SaveView--><rect fill="#FEFECE" filter="url(#fodkkgkjzug94)" height="61.8359" id="mastermind.views.SaveView" style="stroke: #A80036; stroke-width: 1.5;" width="237" x="1492.5" y="313"/><ellipse cx="1580.25" cy="329" fill="#ADD1B2" rx="11" ry="11" style="stroke: #A80036; stroke-width: 1.0;"/><path d="M1583.0156,324.875 Q1583.1719,324.6563 1583.3594,324.5469 Q1583.5469,324.4375 1583.7656,324.4375 Q1584.1406,324.4375 1584.375,324.6953 Q1584.6094,324.9531 1584.6094,325.5625 L1584.6094,327.0156 Q1584.6094,327.625 1584.375,327.8906 Q1584.1406,328.1563 1583.7656,328.1563 Q1583.4219,328.1563 1583.2188,327.9531 Q1583.0156,327.7656 1582.9063,327.25 Q1582.8594,326.8906 1582.6719,326.7031 Q1582.3438,326.3281 1581.7344,326.1094 Q1581.125,325.8906 1580.5,325.8906 Q1579.7344,325.8906 1579.1016,326.2188 Q1578.4688,326.5469 1577.9766,327.2969 Q1577.4844,328.0469 1577.4844,329.0781 L1577.4844,330.1719 Q1577.4844,331.4063 1578.375,332.2266 Q1579.2656,333.0469 1580.8594,333.0469 Q1581.7969,333.0469 1582.4531,332.7969 Q1582.8438,332.6406 1583.2656,332.2031 Q1583.5313,331.9375 1583.6797,331.8594 Q1583.8281,331.7813 1584.0313,331.7813 Q1584.3594,331.7813 1584.6172,332.0391 Q1584.875,332.2969 1584.875,332.6406 Q1584.875,332.9844 1584.5313,333.3906 Q1584.0313,333.9688 1583.2344,334.2969 Q1582.1563,334.75 1580.8594,334.75 Q1579.3438,334.75 1578.1406,334.125 Q1577.1563,333.625 1576.4688,332.5547 Q1575.7813,331.4844 1575.7813,330.2031 L1575.7813,329.0469 Q1575.7813,327.7188 1576.3984,326.5703 Q1577.0156,325.4219 1578.1094,324.8047 Q1579.2031,324.1875 1580.4375,324.1875 Q1581.1719,324.1875 1581.8203,324.3516 Q1582.4688,324.5156 1583.0156,324.875 Z "/><text fill="#000000" font-family="sans-serif" font-size="12" lengthAdjust="spacingAndGlyphs" textLength="53" x="1600.75" y="333.9102">SaveView</text><line style="stroke: #A80036; stroke-width: 1.5;" x1="1493.5" x2="1728.5" y1="345" y2="345"/><line style="stroke: #A80036; stroke-width: 1.5;" x1="1493.5" x2="1728.5" y1="353" y2="353"/><polygon fill="#4177AF" points="1503.5,361.418,1499.5,367.418,1507.5,367.418" style="stroke: #1963A0; stroke-width: 1.0;"/><text fill="#000000" font-family="sans-serif" font-size="11" lengthAdjust="spacingAndGlyphs" textLength="211" x="1512.5" y="368.4189">void interact(SaveController saveController)</text><!--class mastermind.views.StartView--><rect fill="#FEFECE" filter="url(#fodkkgkjzug94)" height="75.6719" id="mastermind.views.StartView" style="stroke: #A80036; stroke-width: 1.5;" width="165" x="1076.5" y="306"/><ellipse cx="1129.25" cy="322" fill="#ADD1B2" rx="11" ry="11" style="stroke: #A80036; stroke-width: 1.0;"/><path d="M1132.0156,317.875 Q1132.1719,317.6563 1132.3594,317.5469 Q1132.5469,317.4375 1132.7656,317.4375 Q1133.1406,317.4375 1133.375,317.6953 Q1133.6094,317.9531 1133.6094,318.5625 L1133.6094,320.0156 Q1133.6094,320.625 1133.375,320.8906 Q1133.1406,321.1563 1132.7656,321.1563 Q1132.4219,321.1563 1132.2188,320.9531 Q1132.0156,320.7656 1131.9063,320.25 Q1131.8594,319.8906 1131.6719,319.7031 Q1131.3438,319.3281 1130.7344,319.1094 Q1130.125,318.8906 1129.5,318.8906 Q1128.7344,318.8906 1128.1016,319.2188 Q1127.4688,319.5469 1126.9766,320.2969 Q1126.4844,321.0469 1126.4844,322.0781 L1126.4844,323.1719 Q1126.4844,324.4063 1127.375,325.2266 Q1128.2656,326.0469 1129.8594,326.0469 Q1130.7969,326.0469 1131.4531,325.7969 Q1131.8438,325.6406 1132.2656,325.2031 Q1132.5313,324.9375 1132.6797,324.8594 Q1132.8281,324.7813 1133.0313,324.7813 Q1133.3594,324.7813 1133.6172,325.0391 Q1133.875,325.2969 1133.875,325.6406 Q1133.875,325.9844 1133.5313,326.3906 Q1133.0313,326.9688 1132.2344,327.2969 Q1131.1563,327.75 1129.8594,327.75 Q1128.3438,327.75 1127.1406,327.125 Q1126.1563,326.625 1125.4688,325.5547 Q1124.7813,324.4844 1124.7813,323.2031 L1124.7813,322.0469 Q1124.7813,320.7188 1125.3984,319.5703 Q1126.0156,318.4219 1127.1094,317.8047 Q1128.2031,317.1875 1129.4375,317.1875 Q1130.1719,317.1875 1130.8203,317.3516 Q1131.4688,317.5156 1132.0156,317.875 Z "/><text fill="#000000" font-family="sans-serif" font-size="12" lengthAdjust="spacingAndGlyphs" textLength="51" x="1149.75" y="326.9102">StartView</text><line style="stroke: #A80036; stroke-width: 1.5;" x1="1077.5" x2="1240.5" y1="338" y2="338"/><line style="stroke: #A80036; stroke-width: 1.5;" x1="1077.5" x2="1240.5" y1="346" y2="346"/><polygon fill="#4177AF" points="1087.5,354.418,1083.5,360.418,1091.5,360.418" style="stroke: #1963A0; stroke-width: 1.0;"/><text fill="#000000" font-family="sans-serif" font-size="11" lengthAdjust="spacingAndGlyphs" textLength="57" x="1096.5" y="361.4189">StartView()</text><polygon fill="#4177AF" points="1087.5,368.2539,1083.5,374.2539,1091.5,374.2539" style="stroke: #1963A0; stroke-width: 1.0;"/><text fill="#000000" font-family="sans-serif" font-size="11" lengthAdjust="spacingAndGlyphs" textLength="139" x="1096.5" y="375.2549">interact(StartController): void</text><!--class mastermind.views.View--><rect fill="#FEFECE" filter="url(#fodkkgkjzug94)" height="186.3594" id="mastermind.views.View" style="stroke: #A80036; stroke-width: 1.5;" width="276" x="917" y="60"/><ellipse cx="1037.75" cy="76" fill="#ADD1B2" rx="11" ry="11" style="stroke: #A80036; stroke-width: 1.0;"/><path d="M1040.5156,71.875 Q1040.6719,71.6563 1040.8594,71.5469 Q1041.0469,71.4375 1041.2656,71.4375 Q1041.6406,71.4375 1041.875,71.6953 Q1042.1094,71.9531 1042.1094,72.5625 L1042.1094,74.0156 Q1042.1094,74.625 1041.875,74.8906 Q1041.6406,75.1563 1041.2656,75.1563 Q1040.9219,75.1563 1040.7188,74.9531 Q1040.5156,74.7656 1040.4063,74.25 Q1040.3594,73.8906 1040.1719,73.7031 Q1039.8438,73.3281 1039.2344,73.1094 Q1038.625,72.8906 1038,72.8906 Q1037.2344,72.8906 1036.6016,73.2188 Q1035.9688,73.5469 1035.4766,74.2969 Q1034.9844,75.0469 1034.9844,76.0781 L1034.9844,77.1719 Q1034.9844,78.4063 1035.875,79.2266 Q1036.7656,80.0469 1038.3594,80.0469 Q1039.2969,80.0469 1039.9531,79.7969 Q1040.3438,79.6406 1040.7656,79.2031 Q1041.0313,78.9375 1041.1797,78.8594 Q1041.3281,78.7813 1041.5313,78.7813 Q1041.8594,78.7813 1042.1172,79.0391 Q1042.375,79.2969 1042.375,79.6406 Q1042.375,79.9844 1042.0313,80.3906 Q1041.5313,80.9688 1040.7344,81.2969 Q1039.6563,81.75 1038.3594,81.75 Q1036.8438,81.75 1035.6406,81.125 Q1034.6563,80.625 1033.9688,79.5547 Q1033.2813,78.4844 1033.2813,77.2031 L1033.2813,76.0469 Q1033.2813,74.7188 1033.8984,73.5703 Q1034.5156,72.4219 1035.6094,71.8047 Q1036.7031,71.1875 1037.9375,71.1875 Q1038.6719,71.1875 1039.3203,71.3516 Q1039.9688,71.5156 1040.5156,71.875 Z "/><text fill="#000000" font-family="sans-serif" font-size="12" lengthAdjust="spacingAndGlyphs" textLength="26" x="1058.25" y="80.9102">View</text><line style="stroke: #A80036; stroke-width: 1.5;" x1="918" x2="1192" y1="92" y2="92"/><rect fill="none" height="6" style="stroke: #C82930; stroke-width: 1.0;" width="6" x="925" y="101.418"/><text fill="#000000" font-family="sans-serif" font-size="11" lengthAdjust="spacingAndGlyphs" textLength="100" x="937" y="107.4189">StartView startView</text><rect fill="none" height="6" style="stroke: #C82930; stroke-width: 1.0;" width="6" x="925" y="115.2539"/><text fill="#000000" font-family="sans-serif" font-size="11" lengthAdjust="spacingAndGlyphs" textLength="95" x="937" y="121.2549">PlayView playView</text><rect fill="none" height="6" style="stroke: #C82930; stroke-width: 1.0;" width="6" x="925" y="129.0898"/><text fill="#000000" font-family="sans-serif" font-size="11" lengthAdjust="spacingAndGlyphs" textLength="104" x="937" y="135.0908">SaveView saveView</text><rect fill="none" height="6" style="stroke: #C82930; stroke-width: 1.0;" width="6" x="925" y="142.9258"/><text fill="#000000" font-family="sans-serif" font-size="11" lengthAdjust="spacingAndGlyphs" textLength="130" x="937" y="148.9268">ResumeView resumeView</text><line style="stroke: #A80036; stroke-width: 1.5;" x1="918" x2="1192" y1="155.3438" y2="155.3438"/><ellipse cx="928" cy="167.7617" fill="#84BE84" rx="3" ry="3" style="stroke: #038048; stroke-width: 1.0;"/><text fill="#000000" font-family="sans-serif" font-size="11" lengthAdjust="spacingAndGlyphs" textLength="34" x="937" y="170.7627">View()</text><ellipse cx="928" cy="181.5977" fill="#84BE84" rx="3" ry="3" style="stroke: #038048; stroke-width: 1.0;"/><text fill="#000000" font-family="sans-serif" font-size="11" lengthAdjust="spacingAndGlyphs" textLength="250" x="937" y="184.5986">void interact(AcceptorController acceptorController)</text><ellipse cx="928" cy="195.4336" fill="#84BE84" rx="3" ry="3" style="stroke: #038048; stroke-width: 1.0;"/><text fill="#000000" font-family="sans-serif" font-size="11" lengthAdjust="spacingAndGlyphs" textLength="190" x="937" y="198.4346">void visit(StartController startController)</text><ellipse cx="928" cy="209.2695" fill="#84BE84" rx="3" ry="3" style="stroke: #038048; stroke-width: 1.0;"/><text fill="#000000" font-family="sans-serif" font-size="11" lengthAdjust="spacingAndGlyphs" textLength="185" x="937" y="212.2705">void visit(PlayController playController)</text><ellipse cx="928" cy="223.1055" fill="#84BE84" rx="3" ry="3" style="stroke: #038048; stroke-width: 1.0;"/><text fill="#000000" font-family="sans-serif" font-size="11" lengthAdjust="spacingAndGlyphs" textLength="194" x="937" y="226.1064">void visit(SaveController saveController)</text><ellipse cx="928" cy="236.9414" fill="#84BE84" rx="3" ry="3" style="stroke: #038048; stroke-width: 1.0;"/><text fill="#000000" font-family="sans-serif" font-size="11" lengthAdjust="spacingAndGlyphs" textLength="220" x="937" y="239.9424">void visit(ResumeController resumeController)</text><!--class mastermind.controllers.PlayController--><rect fill="#FEFECE" filter="url(#fodkkgkjzug94)" height="48" id="mastermind.controllers.PlayController" style="stroke: #A80036; stroke-width: 1.5;" width="109" x="368.5" y="458"/><ellipse cx="383.5" cy="474" fill="#ADD1B2" rx="11" ry="11" style="stroke: #A80036; stroke-width: 1.0;"/><path d="M386.2656,469.875 Q386.4219,469.6563 386.6094,469.5469 Q386.7969,469.4375 387.0156,469.4375 Q387.3906,469.4375 387.625,469.6953 Q387.8594,469.9531 387.8594,470.5625 L387.8594,472.0156 Q387.8594,472.625 387.625,472.8906 Q387.3906,473.1563 387.0156,473.1563 Q386.6719,473.1563 386.4688,472.9531 Q386.2656,472.7656 386.1563,472.25 Q386.1094,471.8906 385.9219,471.7031 Q385.5938,471.3281 384.9844,471.1094 Q384.375,470.8906 383.75,470.8906 Q382.9844,470.8906 382.3516,471.2188 Q381.7188,471.5469 381.2266,472.2969 Q380.7344,473.0469 380.7344,474.0781 L380.7344,475.1719 Q380.7344,476.4063 381.625,477.2266 Q382.5156,478.0469 384.1094,478.0469 Q385.0469,478.0469 385.7031,477.7969 Q386.0938,477.6406 386.5156,477.2031 Q386.7813,476.9375 386.9297,476.8594 Q387.0781,476.7813 387.2813,476.7813 Q387.6094,476.7813 387.8672,477.0391 Q388.125,477.2969 388.125,477.6406 Q388.125,477.9844 387.7813,478.3906 Q387.2813,478.9688 386.4844,479.2969 Q385.4063,479.75 384.1094,479.75 Q382.5938,479.75 381.3906,479.125 Q380.4063,478.625 379.7188,477.5547 Q379.0313,476.4844 379.0313,475.2031 L379.0313,474.0469 Q379.0313,472.7188 379.6484,471.5703 Q380.2656,470.4219 381.3594,469.8047 Q382.4531,469.1875 383.6875,469.1875 Q384.4219,469.1875 385.0703,469.3516 Q385.7188,469.5156 386.2656,469.875 Z "/><text fill="#000000" font-family="sans-serif" font-size="12" lengthAdjust="spacingAndGlyphs" textLength="77" x="397.5" y="478.9102">PlayController</text><line style="stroke: #A80036; stroke-width: 1.5;" x1="369.5" x2="476.5" y1="490" y2="490"/><line style="stroke: #A80036; stroke-width: 1.5;" x1="369.5" x2="476.5" y1="498" y2="498"/><!--class mastermind.controllers.ResumeController--><rect fill="#FEFECE" filter="url(#fodkkgkjzug94)" height="48" id="mastermind.controllers.ResumeController" style="stroke: #A80036; stroke-width: 1.5;" width="134" x="659" y="458"/><ellipse cx="674" cy="474" fill="#ADD1B2" rx="11" ry="11" style="stroke: #A80036; stroke-width: 1.0;"/><path d="M676.7656,469.875 Q676.9219,469.6563 677.1094,469.5469 Q677.2969,469.4375 677.5156,469.4375 Q677.8906,469.4375 678.125,469.6953 Q678.3594,469.9531 678.3594,470.5625 L678.3594,472.0156 Q678.3594,472.625 678.125,472.8906 Q677.8906,473.1563 677.5156,473.1563 Q677.1719,473.1563 676.9688,472.9531 Q676.7656,472.7656 676.6563,472.25 Q676.6094,471.8906 676.4219,471.7031 Q676.0938,471.3281 675.4844,471.1094 Q674.875,470.8906 674.25,470.8906 Q673.4844,470.8906 672.8516,471.2188 Q672.2188,471.5469 671.7266,472.2969 Q671.2344,473.0469 671.2344,474.0781 L671.2344,475.1719 Q671.2344,476.4063 672.125,477.2266 Q673.0156,478.0469 674.6094,478.0469 Q675.5469,478.0469 676.2031,477.7969 Q676.5938,477.6406 677.0156,477.2031 Q677.2813,476.9375 677.4297,476.8594 Q677.5781,476.7813 677.7813,476.7813 Q678.1094,476.7813 678.3672,477.0391 Q678.625,477.2969 678.625,477.6406 Q678.625,477.9844 678.2813,478.3906 Q677.7813,478.9688 676.9844,479.2969 Q675.9063,479.75 674.6094,479.75 Q673.0938,479.75 671.8906,479.125 Q670.9063,478.625 670.2188,477.5547 Q669.5313,476.4844 669.5313,475.2031 L669.5313,474.0469 Q669.5313,472.7188 670.1484,471.5703 Q670.7656,470.4219 671.8594,469.8047 Q672.9531,469.1875 674.1875,469.1875 Q674.9219,469.1875 675.5703,469.3516 Q676.2188,469.5156 676.7656,469.875 Z "/><text fill="#000000" font-family="sans-serif" font-size="12" lengthAdjust="spacingAndGlyphs" textLength="102" x="688" y="478.9102">ResumeController</text><line style="stroke: #A80036; stroke-width: 1.5;" x1="660" x2="792" y1="490" y2="490"/><line style="stroke: #A80036; stroke-width: 1.5;" x1="660" x2="792" y1="498" y2="498"/><!--class mastermind.controllers.SaveController--><rect fill="#FEFECE" filter="url(#fodkkgkjzug94)" height="48" id="mastermind.controllers.SaveController" style="stroke: #A80036; stroke-width: 1.5;" width="113" x="828.5" y="458"/><ellipse cx="843.5" cy="474" fill="#ADD1B2" rx="11" ry="11" style="stroke: #A80036; stroke-width: 1.0;"/><path d="M846.2656,469.875 Q846.4219,469.6563 846.6094,469.5469 Q846.7969,469.4375 847.0156,469.4375 Q847.3906,469.4375 847.625,469.6953 Q847.8594,469.9531 847.8594,470.5625 L847.8594,472.0156 Q847.8594,472.625 847.625,472.8906 Q847.3906,473.1563 847.0156,473.1563 Q846.6719,473.1563 846.4688,472.9531 Q846.2656,472.7656 846.1563,472.25 Q846.1094,471.8906 845.9219,471.7031 Q845.5938,471.3281 844.9844,471.1094 Q844.375,470.8906 843.75,470.8906 Q842.9844,470.8906 842.3516,471.2188 Q841.7188,471.5469 841.2266,472.2969 Q840.7344,473.0469 840.7344,474.0781 L840.7344,475.1719 Q840.7344,476.4063 841.625,477.2266 Q842.5156,478.0469 844.1094,478.0469 Q845.0469,478.0469 845.7031,477.7969 Q846.0938,477.6406 846.5156,477.2031 Q846.7813,476.9375 846.9297,476.8594 Q847.0781,476.7813 847.2813,476.7813 Q847.6094,476.7813 847.8672,477.0391 Q848.125,477.2969 848.125,477.6406 Q848.125,477.9844 847.7813,478.3906 Q847.2813,478.9688 846.4844,479.2969 Q845.4063,479.75 844.1094,479.75 Q842.5938,479.75 841.3906,479.125 Q840.4063,478.625 839.7188,477.5547 Q839.0313,476.4844 839.0313,475.2031 L839.0313,474.0469 Q839.0313,472.7188 839.6484,471.5703 Q840.2656,470.4219 841.3594,469.8047 Q842.4531,469.1875 843.6875,469.1875 Q844.4219,469.1875 845.0703,469.3516 Q845.7188,469.5156 846.2656,469.875 Z "/><text fill="#000000" font-family="sans-serif" font-size="12" lengthAdjust="spacingAndGlyphs" textLength="81" x="857.5" y="478.9102">SaveController</text><line style="stroke: #A80036; stroke-width: 1.5;" x1="829.5" x2="940.5" y1="490" y2="490"/><line style="stroke: #A80036; stroke-width: 1.5;" x1="829.5" x2="940.5" y1="498" y2="498"/><!--class mastermind.controllers.StartController--><rect fill="#FEFECE" filter="url(#fodkkgkjzug94)" height="48" id="mastermind.controllers.StartController" style="stroke: #A80036; stroke-width: 1.5;" width="111" x="512.5" y="458"/><ellipse cx="527.5" cy="474" fill="#ADD1B2" rx="11" ry="11" style="stroke: #A80036; stroke-width: 1.0;"/><path d="M530.2656,469.875 Q530.4219,469.6563 530.6094,469.5469 Q530.7969,469.4375 531.0156,469.4375 Q531.3906,469.4375 531.625,469.6953 Q531.8594,469.9531 531.8594,470.5625 L531.8594,472.0156 Q531.8594,472.625 531.625,472.8906 Q531.3906,473.1563 531.0156,473.1563 Q530.6719,473.1563 530.4688,472.9531 Q530.2656,472.7656 530.1563,472.25 Q530.1094,471.8906 529.9219,471.7031 Q529.5938,471.3281 528.9844,471.1094 Q528.375,470.8906 527.75,470.8906 Q526.9844,470.8906 526.3516,471.2188 Q525.7188,471.5469 525.2266,472.2969 Q524.7344,473.0469 524.7344,474.0781 L524.7344,475.1719 Q524.7344,476.4063 525.625,477.2266 Q526.5156,478.0469 528.1094,478.0469 Q529.0469,478.0469 529.7031,477.7969 Q530.0938,477.6406 530.5156,477.2031 Q530.7813,476.9375 530.9297,476.8594 Q531.0781,476.7813 531.2813,476.7813 Q531.6094,476.7813 531.8672,477.0391 Q532.125,477.2969 532.125,477.6406 Q532.125,477.9844 531.7813,478.3906 Q531.2813,478.9688 530.4844,479.2969 Q529.4063,479.75 528.1094,479.75 Q526.5938,479.75 525.3906,479.125 Q524.4063,478.625 523.7188,477.5547 Q523.0313,476.4844 523.0313,475.2031 L523.0313,474.0469 Q523.0313,472.7188 523.6484,471.5703 Q524.2656,470.4219 525.3594,469.8047 Q526.4531,469.1875 527.6875,469.1875 Q528.4219,469.1875 529.0703,469.3516 Q529.7188,469.5156 530.2656,469.875 Z "/><text fill="#000000" font-family="sans-serif" font-size="12" lengthAdjust="spacingAndGlyphs" textLength="79" x="541.5" y="478.9102">StartController</text><line style="stroke: #A80036; stroke-width: 1.5;" x1="513.5" x2="622.5" y1="490" y2="490"/><line style="stroke: #A80036; stroke-width: 1.5;" x1="513.5" x2="622.5" y1="498" y2="498"/><!--class mastermind.controllers.ControllersVisitor--><rect fill="#FEFECE" filter="url(#fodkkgkjzug94)" height="48" id="mastermind.controllers.ControllersVisitor" style="stroke: #A80036; stroke-width: 1.5;" width="127" x="206.5" y="458"/><ellipse cx="221.5" cy="474" fill="#ADD1B2" rx="11" ry="11" style="stroke: #A80036; stroke-width: 1.0;"/><path d="M224.2656,469.875 Q224.4219,469.6563 224.6094,469.5469 Q224.7969,469.4375 225.0156,469.4375 Q225.3906,469.4375 225.625,469.6953 Q225.8594,469.9531 225.8594,470.5625 L225.8594,472.0156 Q225.8594,472.625 225.625,472.8906 Q225.3906,473.1563 225.0156,473.1563 Q224.6719,473.1563 224.4688,472.9531 Q224.2656,472.7656 224.1563,472.25 Q224.1094,471.8906 223.9219,471.7031 Q223.5938,471.3281 222.9844,471.1094 Q222.375,470.8906 221.75,470.8906 Q220.9844,470.8906 220.3516,471.2188 Q219.7188,471.5469 219.2266,472.2969 Q218.7344,473.0469 218.7344,474.0781 L218.7344,475.1719 Q218.7344,476.4063 219.625,477.2266 Q220.5156,478.0469 222.1094,478.0469 Q223.0469,478.0469 223.7031,477.7969 Q224.0938,477.6406 224.5156,477.2031 Q224.7813,476.9375 224.9297,476.8594 Q225.0781,476.7813 225.2813,476.7813 Q225.6094,476.7813 225.8672,477.0391 Q226.125,477.2969 226.125,477.6406 Q226.125,477.9844 225.7813,478.3906 Q225.2813,478.9688 224.4844,479.2969 Q223.4063,479.75 222.1094,479.75 Q220.5938,479.75 219.3906,479.125 Q218.4063,478.625 217.7188,477.5547 Q217.0313,476.4844 217.0313,475.2031 L217.0313,474.0469 Q217.0313,472.7188 217.6484,471.5703 Q218.2656,470.4219 219.3594,469.8047 Q220.4531,469.1875 221.6875,469.1875 Q222.4219,469.1875 223.0703,469.3516 Q223.7188,469.5156 224.2656,469.875 Z "/><text fill="#000000" font-family="sans-serif" font-size="12" lengthAdjust="spacingAndGlyphs" textLength="95" x="235.5" y="478.9102">ControllersVisitor</text><line style="stroke: #A80036; stroke-width: 1.5;" x1="207.5" x2="332.5" y1="490" y2="490"/><line style="stroke: #A80036; stroke-width: 1.5;" x1="207.5" x2="332.5" y1="498" y2="498"/><!--class mastermind.controllers.AcceptorController--><rect fill="#FEFECE" filter="url(#fodkkgkjzug94)" height="48" id="mastermind.controllers.AcceptorController" style="stroke: #A80036; stroke-width: 1.5;" width="133" x="38.5" y="458"/><ellipse cx="53.5" cy="474" fill="#ADD1B2" rx="11" ry="11" style="stroke: #A80036; stroke-width: 1.0;"/><path d="M56.2656,469.875 Q56.4219,469.6563 56.6094,469.5469 Q56.7969,469.4375 57.0156,469.4375 Q57.3906,469.4375 57.625,469.6953 Q57.8594,469.9531 57.8594,470.5625 L57.8594,472.0156 Q57.8594,472.625 57.625,472.8906 Q57.3906,473.1563 57.0156,473.1563 Q56.6719,473.1563 56.4688,472.9531 Q56.2656,472.7656 56.1563,472.25 Q56.1094,471.8906 55.9219,471.7031 Q55.5938,471.3281 54.9844,471.1094 Q54.375,470.8906 53.75,470.8906 Q52.9844,470.8906 52.3516,471.2188 Q51.7188,471.5469 51.2266,472.2969 Q50.7344,473.0469 50.7344,474.0781 L50.7344,475.1719 Q50.7344,476.4063 51.625,477.2266 Q52.5156,478.0469 54.1094,478.0469 Q55.0469,478.0469 55.7031,477.7969 Q56.0938,477.6406 56.5156,477.2031 Q56.7813,476.9375 56.9297,476.8594 Q57.0781,476.7813 57.2813,476.7813 Q57.6094,476.7813 57.8672,477.0391 Q58.125,477.2969 58.125,477.6406 Q58.125,477.9844 57.7813,478.3906 Q57.2813,478.9688 56.4844,479.2969 Q55.4063,479.75 54.1094,479.75 Q52.5938,479.75 51.3906,479.125 Q50.4063,478.625 49.7188,477.5547 Q49.0313,476.4844 49.0313,475.2031 L49.0313,474.0469 Q49.0313,472.7188 49.6484,471.5703 Q50.2656,470.4219 51.3594,469.8047 Q52.4531,469.1875 53.6875,469.1875 Q54.4219,469.1875 55.0703,469.3516 Q55.7188,469.5156 56.2656,469.875 Z "/><text fill="#000000" font-family="sans-serif" font-size="12" lengthAdjust="spacingAndGlyphs" textLength="101" x="67.5" y="478.9102">AcceptorController</text><line style="stroke: #A80036; stroke-width: 1.5;" x1="39.5" x2="170.5" y1="490" y2="490"/><line style="stroke: #A80036; stroke-width: 1.5;" x1="39.5" x2="170.5" y1="498" y2="498"/><!--class mastermind.views.menus.PlayMenu--><rect fill="#FEFECE" filter="url(#fodkkgkjzug94)" height="48" id="mastermind.views.menus.PlayMenu" style="stroke: #A80036; stroke-width: 1.5;" width="85" x="998.5" y="458"/><ellipse cx="1013.5" cy="474" fill="#ADD1B2" rx="11" ry="11" style="stroke: #A80036; stroke-width: 1.0;"/><path d="M1016.2656,469.875 Q1016.4219,469.6563 1016.6094,469.5469 Q1016.7969,469.4375 1017.0156,469.4375 Q1017.3906,469.4375 1017.625,469.6953 Q1017.8594,469.9531 1017.8594,470.5625 L1017.8594,472.0156 Q1017.8594,472.625 1017.625,472.8906 Q1017.3906,473.1563 1017.0156,473.1563 Q1016.6719,473.1563 1016.4688,472.9531 Q1016.2656,472.7656 1016.1563,472.25 Q1016.1094,471.8906 1015.9219,471.7031 Q1015.5938,471.3281 1014.9844,471.1094 Q1014.375,470.8906 1013.75,470.8906 Q1012.9844,470.8906 1012.3516,471.2188 Q1011.7188,471.5469 1011.2266,472.2969 Q1010.7344,473.0469 1010.7344,474.0781 L1010.7344,475.1719 Q1010.7344,476.4063 1011.625,477.2266 Q1012.5156,478.0469 1014.1094,478.0469 Q1015.0469,478.0469 1015.7031,477.7969 Q1016.0938,477.6406 1016.5156,477.2031 Q1016.7813,476.9375 1016.9297,476.8594 Q1017.0781,476.7813 1017.2813,476.7813 Q1017.6094,476.7813 1017.8672,477.0391 Q1018.125,477.2969 1018.125,477.6406 Q1018.125,477.9844 1017.7813,478.3906 Q1017.2813,478.9688 1016.4844,479.2969 Q1015.4063,479.75 1014.1094,479.75 Q1012.5938,479.75 1011.3906,479.125 Q1010.4063,478.625 1009.7188,477.5547 Q1009.0313,476.4844 1009.0313,475.2031 L1009.0313,474.0469 Q1009.0313,472.7188 1009.6484,471.5703 Q1010.2656,470.4219 1011.3594,469.8047 Q1012.4531,469.1875 1013.6875,469.1875 Q1014.4219,469.1875 1015.0703,469.3516 Q1015.7188,469.5156 1016.2656,469.875 Z "/><text fill="#000000" font-family="sans-serif" font-size="12" lengthAdjust="spacingAndGlyphs" textLength="53" x="1027.5" y="478.9102">PlayMenu</text><line style="stroke: #A80036; stroke-width: 1.5;" x1="999.5" x2="1082.5" y1="490" y2="490"/><line style="stroke: #A80036; stroke-width: 1.5;" x1="999.5" x2="1082.5" y1="498" y2="498"/><!--class mastermind.views.menus.StartMenu--><rect fill="#FEFECE" filter="url(#fodkkgkjzug94)" height="48" id="mastermind.views.menus.StartMenu" style="stroke: #A80036; stroke-width: 1.5;" width="87" x="1118.5" y="458"/><ellipse cx="1133.5" cy="474" fill="#ADD1B2" rx="11" ry="11" style="stroke: #A80036; stroke-width: 1.0;"/><path d="M1136.2656,469.875 Q1136.4219,469.6563 1136.6094,469.5469 Q1136.7969,469.4375 1137.0156,469.4375 Q1137.3906,469.4375 1137.625,469.6953 Q1137.8594,469.9531 1137.8594,470.5625 L1137.8594,472.0156 Q1137.8594,472.625 1137.625,472.8906 Q1137.3906,473.1563 1137.0156,473.1563 Q1136.6719,473.1563 1136.4688,472.9531 Q1136.2656,472.7656 1136.1563,472.25 Q1136.1094,471.8906 1135.9219,471.7031 Q1135.5938,471.3281 1134.9844,471.1094 Q1134.375,470.8906 1133.75,470.8906 Q1132.9844,470.8906 1132.3516,471.2188 Q1131.7188,471.5469 1131.2266,472.2969 Q1130.7344,473.0469 1130.7344,474.0781 L1130.7344,475.1719 Q1130.7344,476.4063 1131.625,477.2266 Q1132.5156,478.0469 1134.1094,478.0469 Q1135.0469,478.0469 1135.7031,477.7969 Q1136.0938,477.6406 1136.5156,477.2031 Q1136.7813,476.9375 1136.9297,476.8594 Q1137.0781,476.7813 1137.2813,476.7813 Q1137.6094,476.7813 1137.8672,477.0391 Q1138.125,477.2969 1138.125,477.6406 Q1138.125,477.9844 1137.7813,478.3906 Q1137.2813,478.9688 1136.4844,479.2969 Q1135.4063,479.75 1134.1094,479.75 Q1132.5938,479.75 1131.3906,479.125 Q1130.4063,478.625 1129.7188,477.5547 Q1129.0313,476.4844 1129.0313,475.2031 L1129.0313,474.0469 Q1129.0313,472.7188 1129.6484,471.5703 Q1130.2656,470.4219 1131.3594,469.8047 Q1132.4531,469.1875 1133.6875,469.1875 Q1134.4219,469.1875 1135.0703,469.3516 Q1135.7188,469.5156 1136.2656,469.875 Z "/><text fill="#000000" font-family="sans-serif" font-size="12" lengthAdjust="spacingAndGlyphs" textLength="55" x="1147.5" y="478.9102">StartMenu</text><line style="stroke: #A80036; stroke-width: 1.5;" x1="1119.5" x2="1204.5" y1="490" y2="490"/><line style="stroke: #A80036; stroke-width: 1.5;" x1="1119.5" x2="1204.5" y1="498" y2="498"/><!--class mastermind.views.models.GameView--><rect fill="#FEFECE" filter="url(#fodkkgkjzug94)" height="48" id="mastermind.views.models.GameView" style="stroke: #A80036; stroke-width: 1.5;" width="92" x="1262" y="458"/><ellipse cx="1277" cy="474" fill="#ADD1B2" rx="11" ry="11" style="stroke: #A80036; stroke-width: 1.0;"/><path d="M1279.7656,469.875 Q1279.9219,469.6563 1280.1094,469.5469 Q1280.2969,469.4375 1280.5156,469.4375 Q1280.8906,469.4375 1281.125,469.6953 Q1281.3594,469.9531 1281.3594,470.5625 L1281.3594,472.0156 Q1281.3594,472.625 1281.125,472.8906 Q1280.8906,473.1563 1280.5156,473.1563 Q1280.1719,473.1563 1279.9688,472.9531 Q1279.7656,472.7656 1279.6563,472.25 Q1279.6094,471.8906 1279.4219,471.7031 Q1279.0938,471.3281 1278.4844,471.1094 Q1277.875,470.8906 1277.25,470.8906 Q1276.4844,470.8906 1275.8516,471.2188 Q1275.2188,471.5469 1274.7266,472.2969 Q1274.2344,473.0469 1274.2344,474.0781 L1274.2344,475.1719 Q1274.2344,476.4063 1275.125,477.2266 Q1276.0156,478.0469 1277.6094,478.0469 Q1278.5469,478.0469 1279.2031,477.7969 Q1279.5938,477.6406 1280.0156,477.2031 Q1280.2813,476.9375 1280.4297,476.8594 Q1280.5781,476.7813 1280.7813,476.7813 Q1281.1094,476.7813 1281.3672,477.0391 Q1281.625,477.2969 1281.625,477.6406 Q1281.625,477.9844 1281.2813,478.3906 Q1280.7813,478.9688 1279.9844,479.2969 Q1278.9063,479.75 1277.6094,479.75 Q1276.0938,479.75 1274.8906,479.125 Q1273.9063,478.625 1273.2188,477.5547 Q1272.5313,476.4844 1272.5313,475.2031 L1272.5313,474.0469 Q1272.5313,472.7188 1273.1484,471.5703 Q1273.7656,470.4219 1274.8594,469.8047 Q1275.9531,469.1875 1277.1875,469.1875 Q1277.9219,469.1875 1278.5703,469.3516 Q1279.2188,469.5156 1279.7656,469.875 Z "/><text fill="#000000" font-family="sans-serif" font-size="12" lengthAdjust="spacingAndGlyphs" textLength="60" x="1291" y="478.9102">GameView</text><line style="stroke: #A80036; stroke-width: 1.5;" x1="1263" x2="1353" y1="490" y2="490"/><line style="stroke: #A80036; stroke-width: 1.5;" x1="1263" x2="1353" y1="498" y2="498"/><!--class mastermind.views.models.MessageView--><rect fill="#FEFECE" filter="url(#fodkkgkjzug94)" height="48" id="mastermind.views.models.MessageView" style="stroke: #A80036; stroke-width: 1.5;" width="109" x="1389.5" y="458"/><ellipse cx="1404.5" cy="474" fill="#ADD1B2" rx="11" ry="11" style="stroke: #A80036; stroke-width: 1.0;"/><path d="M1407.2656,469.875 Q1407.4219,469.6563 1407.6094,469.5469 Q1407.7969,469.4375 1408.0156,469.4375 Q1408.3906,469.4375 1408.625,469.6953 Q1408.8594,469.9531 1408.8594,470.5625 L1408.8594,472.0156 Q1408.8594,472.625 1408.625,472.8906 Q1408.3906,473.1563 1408.0156,473.1563 Q1407.6719,473.1563 1407.4688,472.9531 Q1407.2656,472.7656 1407.1563,472.25 Q1407.1094,471.8906 1406.9219,471.7031 Q1406.5938,471.3281 1405.9844,471.1094 Q1405.375,470.8906 1404.75,470.8906 Q1403.9844,470.8906 1403.3516,471.2188 Q1402.7188,471.5469 1402.2266,472.2969 Q1401.7344,473.0469 1401.7344,474.0781 L1401.7344,475.1719 Q1401.7344,476.4063 1402.625,477.2266 Q1403.5156,478.0469 1405.1094,478.0469 Q1406.0469,478.0469 1406.7031,477.7969 Q1407.0938,477.6406 1407.5156,477.2031 Q1407.7813,476.9375 1407.9297,476.8594 Q1408.0781,476.7813 1408.2813,476.7813 Q1408.6094,476.7813 1408.8672,477.0391 Q1409.125,477.2969 1409.125,477.6406 Q1409.125,477.9844 1408.7813,478.3906 Q1408.2813,478.9688 1407.4844,479.2969 Q1406.4063,479.75 1405.1094,479.75 Q1403.5938,479.75 1402.3906,479.125 Q1401.4063,478.625 1400.7188,477.5547 Q1400.0313,476.4844 1400.0313,475.2031 L1400.0313,474.0469 Q1400.0313,472.7188 1400.6484,471.5703 Q1401.2656,470.4219 1402.3594,469.8047 Q1403.4531,469.1875 1404.6875,469.1875 Q1405.4219,469.1875 1406.0703,469.3516 Q1406.7188,469.5156 1407.2656,469.875 Z "/><text fill="#000000" font-family="sans-serif" font-size="12" lengthAdjust="spacingAndGlyphs" textLength="77" x="1418.5" y="478.9102">MessageView</text><line style="stroke: #A80036; stroke-width: 1.5;" x1="1390.5" x2="1497.5" y1="490" y2="490"/><line style="stroke: #A80036; stroke-width: 1.5;" x1="1390.5" x2="1497.5" y1="498" y2="498"/><!--class santaTecla.utils.YesNoDialog--><rect fill="#FEFECE" filter="url(#fodkkgkjzug94)" height="48" id="santaTecla.utils.YesNoDialog" style="stroke: #A80036; stroke-width: 1.5;" width="105" x="1555.5" y="458"/><ellipse cx="1570.5" cy="474" fill="#ADD1B2" rx="11" ry="11" style="stroke: #A80036; stroke-width: 1.0;"/><path d="M1573.2656,469.875 Q1573.4219,469.6563 1573.6094,469.5469 Q1573.7969,469.4375 1574.0156,469.4375 Q1574.3906,469.4375 1574.625,469.6953 Q1574.8594,469.9531 1574.8594,470.5625 L1574.8594,472.0156 Q1574.8594,472.625 1574.625,472.8906 Q1574.3906,473.1563 1574.0156,473.1563 Q1573.6719,473.1563 1573.4688,472.9531 Q1573.2656,472.7656 1573.1563,472.25 Q1573.1094,471.8906 1572.9219,471.7031 Q1572.5938,471.3281 1571.9844,471.1094 Q1571.375,470.8906 1570.75,470.8906 Q1569.9844,470.8906 1569.3516,471.2188 Q1568.7188,471.5469 1568.2266,472.2969 Q1567.7344,473.0469 1567.7344,474.0781 L1567.7344,475.1719 Q1567.7344,476.4063 1568.625,477.2266 Q1569.5156,478.0469 1571.1094,478.0469 Q1572.0469,478.0469 1572.7031,477.7969 Q1573.0938,477.6406 1573.5156,477.2031 Q1573.7813,476.9375 1573.9297,476.8594 Q1574.0781,476.7813 1574.2813,476.7813 Q1574.6094,476.7813 1574.8672,477.0391 Q1575.125,477.2969 1575.125,477.6406 Q1575.125,477.9844 1574.7813,478.3906 Q1574.2813,478.9688 1573.4844,479.2969 Q1572.4063,479.75 1571.1094,479.75 Q1569.5938,479.75 1568.3906,479.125 Q1567.4063,478.625 1566.7188,477.5547 Q1566.0313,476.4844 1566.0313,475.2031 L1566.0313,474.0469 Q1566.0313,472.7188 1566.6484,471.5703 Q1567.2656,470.4219 1568.3594,469.8047 Q1569.4531,469.1875 1570.6875,469.1875 Q1571.4219,469.1875 1572.0703,469.3516 Q1572.7188,469.5156 1573.2656,469.875 Z "/><text fill="#000000" font-family="sans-serif" font-size="12" lengthAdjust="spacingAndGlyphs" textLength="73" x="1584.5" y="478.9102">YesNoDialog</text><line style="stroke: #A80036; stroke-width: 1.5;" x1="1556.5" x2="1659.5" y1="490" y2="490"/><line style="stroke: #A80036; stroke-width: 1.5;" x1="1556.5" x2="1659.5" y1="498" y2="498"/><!--class santaTecla.utils.WithConsoleView--><rect fill="#FEFECE" filter="url(#fodkkgkjzug94)" height="48" id="santaTecla.utils.WithConsoleView" style="stroke: #A80036; stroke-width: 1.5;" width="129" x="1695.5" y="458"/><ellipse cx="1710.5" cy="474" fill="#ADD1B2" rx="11" ry="11" style="stroke: #A80036; stroke-width: 1.0;"/><path d="M1713.2656,469.875 Q1713.4219,469.6563 1713.6094,469.5469 Q1713.7969,469.4375 1714.0156,469.4375 Q1714.3906,469.4375 1714.625,469.6953 Q1714.8594,469.9531 1714.8594,470.5625 L1714.8594,472.0156 Q1714.8594,472.625 1714.625,472.8906 Q1714.3906,473.1563 1714.0156,473.1563 Q1713.6719,473.1563 1713.4688,472.9531 Q1713.2656,472.7656 1713.1563,472.25 Q1713.1094,471.8906 1712.9219,471.7031 Q1712.5938,471.3281 1711.9844,471.1094 Q1711.375,470.8906 1710.75,470.8906 Q1709.9844,470.8906 1709.3516,471.2188 Q1708.7188,471.5469 1708.2266,472.2969 Q1707.7344,473.0469 1707.7344,474.0781 L1707.7344,475.1719 Q1707.7344,476.4063 1708.625,477.2266 Q1709.5156,478.0469 1711.1094,478.0469 Q1712.0469,478.0469 1712.7031,477.7969 Q1713.0938,477.6406 1713.5156,477.2031 Q1713.7813,476.9375 1713.9297,476.8594 Q1714.0781,476.7813 1714.2813,476.7813 Q1714.6094,476.7813 1714.8672,477.0391 Q1715.125,477.2969 1715.125,477.6406 Q1715.125,477.9844 1714.7813,478.3906 Q1714.2813,478.9688 1713.4844,479.2969 Q1712.4063,479.75 1711.1094,479.75 Q1709.5938,479.75 1708.3906,479.125 Q1707.4063,478.625 1706.7188,477.5547 Q1706.0313,476.4844 1706.0313,475.2031 L1706.0313,474.0469 Q1706.0313,472.7188 1706.6484,471.5703 Q1707.2656,470.4219 1708.3594,469.8047 Q1709.4531,469.1875 1710.6875,469.1875 Q1711.4219,469.1875 1712.0703,469.3516 Q1712.7188,469.5156 1713.2656,469.875 Z "/><text fill="#000000" font-family="sans-serif" font-size="12" lengthAdjust="spacingAndGlyphs" textLength="97" x="1724.5" y="478.9102">WithConsoleView</text><line style="stroke: #A80036; stroke-width: 1.5;" x1="1696.5" x2="1823.5" y1="490" y2="490"/><line style="stroke: #A80036; stroke-width: 1.5;" x1="1696.5" x2="1823.5" y1="498" y2="498"/><!--link mastermind.views.PlayView to mastermind.controllers.PlayController--><path d="M812.985,363.007 C685.606,383.155 496.808,413.118 495,414 C475.783,423.376 458.138,439.611 445.126,453.7513 " fill="none" id="mastermind.views.PlayView-mastermind.controllers.PlayController" style="stroke: #A80036; stroke-width: 1.0; stroke-dasharray: 7.0,7.0;"/><polygon fill="#A80036" points="441.581,457.6766,450.5813,453.6773,444.9318,453.9655,444.6436,448.316,441.581,457.6766" style="stroke: #A80036; stroke-width: 1.0;"/><!--link mastermind.views.PlayView to mastermind.views.menus.PlayMenu--><path d="M952.3,375.183 C972.019,398.707 999.16,431.085 1018.21,453.8109 " fill="none" id="mastermind.views.PlayView-mastermind.views.menus.PlayMenu" style="stroke: #A80036; stroke-width: 1.0; stroke-dasharray: 7.0,7.0;"/><polygon fill="#A80036" points="1021.43,457.6546,1018.7099,448.1888,1018.2164,453.8241,1012.5811,453.3306,1021.43,457.6546" style="stroke: #A80036; stroke-width: 1.0;"/><!--link mastermind.views.PlayView to mastermind.views.models.GameView--><path d="M979.88,375.104 C1003.357,386.956 1031.79,399.313 1059,406 C1094.22,414.654 1188,401.379 1222,414 C1244.9,422.501 1266.57,439.4596 1282.43,454.1874 " fill="none" id="mastermind.views.PlayView-mastermind.views.models.GameView" style="stroke: #A80036; stroke-width: 1.0; stroke-dasharray: 7.0,7.0;"/><polygon fill="#A80036" points="1286.33,457.8772,1282.5479,448.7835,1282.7004,454.4383,1277.0456,454.5908,1286.33,457.8772" style="stroke: #A80036; stroke-width: 1.0;"/><!--link mastermind.views.ResumeView to mastermind.controllers.ResumeController--><path d="M1313.52,382.097 C1296.81,391.753 1277.8,400.877 1259,406 C1210.97,419.087 857.891,397.271 811,414 C787.996,422.207 766.439,439.3532 750.79,454.2449 " fill="none" id="mastermind.views.ResumeView-mastermind.controllers.ResumeController" style="stroke: #A80036; stroke-width: 1.0; stroke-dasharray: 7.0,7.0;"/><polygon fill="#A80036" points="746.941,457.9755,756.1873,454.5836,750.5312,454.4955,750.6193,448.8393,746.941,457.9755" style="stroke: #A80036; stroke-width: 1.0;"/><!--link mastermind.views.ResumeView to mastermind.views.models.MessageView--><path d="M1388.04,382.163 C1400.79,404.683 1416.78,432.927 1428.4,453.4499 " fill="none" id="mastermind.views.ResumeView-mastermind.views.models.MessageView" style="stroke: #A80036; stroke-width: 1.0; stroke-dasharray: 7.0,7.0;"/><polygon fill="#A80036" points="1430.96,457.9679,1430.0125,448.1647,1428.4992,453.6154,1423.0485,452.102,1430.96,457.9679" style="stroke: #A80036; stroke-width: 1.0;"/><!--link mastermind.views.ResumeView to santaTecla.utils.YesNoDialog--><path d="M1424.78,382.075 C1440.59,390.966 1458.04,399.699 1475,406 C1491.99,412.315 1498.38,406.759 1515,414 C1537.87,423.964 1560.65,440.2387 1577.94,454.2526 " fill="none" id="mastermind.views.ResumeView-santaTecla.utils.YesNoDialog" style="stroke: #A80036; stroke-width: 1.0; stroke-dasharray: 7.0,7.0;"/><polygon fill="#A80036" points="1582.21,457.7615,1577.7904,448.9599,1578.3449,454.5895,1572.7153,455.144,1582.21,457.7615" style="stroke: #A80036; stroke-width: 1.0;"/><!--link santaTecla.utils.WithConsoleView to mastermind.views.SaveView--><path d="M1719.49,444.0225 C1695.82,422.419 1666.33,395.499 1644.07,375.183 " fill="none" id="santaTecla.utils.WithConsoleView-mastermind.views.SaveView" style="stroke: #A80036; stroke-width: 1.0;"/><polygon fill="none" points="1724.37,439.0014,1734.42,457.6546,1714.93,449.3417,1724.37,439.0014" style="stroke: #A80036; stroke-width: 1.0;"/><!--link mastermind.views.SaveView to mastermind.controllers.SaveController--><path d="M1557.5,375.053 C1533.12,387.131 1503.42,399.677 1475,406 C1421.52,417.898 1034.17,397.269 982,414 C956.452,422.193 931.635,439.5633 913.498,454.5636 " fill="none" id="mastermind.views.SaveView-mastermind.controllers.SaveController" style="stroke: #A80036; stroke-width: 1.0; stroke-dasharray: 7.0,7.0;"/><polygon fill="#A80036" points="909.501,457.9214,918.9653,455.1961,913.3297,454.7057,913.8201,449.0701,909.501,457.9214" style="stroke: #A80036; stroke-width: 1.0;"/><!--link mastermind.views.SaveView to mastermind.views.models.MessageView--><path d="M1573.94,375.183 C1544.72,398.976 1504.38,431.827 1476.43,454.5867 " fill="none" id="mastermind.views.SaveView-mastermind.views.models.MessageView" style="stroke: #A80036; stroke-width: 1.0; stroke-dasharray: 7.0,7.0;"/><polygon fill="#A80036" points="1472.4,457.8693,1481.9046,455.2881,1476.2772,454.7121,1476.8532,449.0847,1472.4,457.8693" style="stroke: #A80036; stroke-width: 1.0;"/><!--link mastermind.views.SaveView to santaTecla.utils.YesNoDialog--><path d="M1610.33,375.183 C1609.83,398.221 1609.13,429.751 1608.63,452.3901 " fill="none" id="mastermind.views.SaveView-santaTecla.utils.YesNoDialog" style="stroke: #A80036; stroke-width: 1.0; stroke-dasharray: 7.0,7.0;"/><polygon fill="#A80036" points="1608.51,457.6546,1612.7081,448.7453,1608.6206,452.6558,1604.71,448.5683,1608.51,457.6546" style="stroke: #A80036; stroke-width: 1.0;"/><!--link mastermind.views.StartView to mastermind.controllers.StartController--><path d="M1109.81,382.067 C1094.34,391.722 1076.67,400.853 1059,406 C1014.4,418.991 684.125,396.733 641,414 C620.564,422.183 602.318,438.9266 589.179,453.6278 " fill="none" id="mastermind.views.StartView-mastermind.controllers.StartController" style="stroke: #A80036; stroke-width: 1.0; stroke-dasharray: 7.0,7.0;"/><polygon fill="#A80036" points="585.611,457.7113,594.5454,453.5669,588.9013,453.9465,588.5217,448.3024,585.611,457.7113" style="stroke: #A80036; stroke-width: 1.0;"/><!--link mastermind.views.StartView to mastermind.views.models.MessageView--><path d="M1209.39,382.136 C1224.61,391.543 1241.86,400.523 1259,406 C1306.96,421.321 1325.83,393.928 1372,414 C1391.9,422.649 1409.78,439.2162 1422.74,453.7117 " fill="none" id="mastermind.views.StartView-mastermind.views.models.MessageView" style="stroke: #A80036; stroke-width: 1.0; stroke-dasharray: 7.0,7.0;"/><polygon fill="#A80036" points="1426.27,457.7369,1423.345,448.3324,1422.974,453.9771,1417.3293,453.6061,1426.27,457.7369" style="stroke: #A80036; stroke-width: 1.0;"/><!--link mastermind.views.StartView to mastermind.views.models.GameView--><path d="M1199.71,382.163 C1224.8,405.061 1256.37,433.878 1278.94,454.478 " fill="none" id="mastermind.views.StartView-mastermind.views.models.GameView" style="stroke: #A80036; stroke-width: 1.0; stroke-dasharray: 7.0,7.0;"/><polygon fill="#A80036" points="1282.77,457.9679,1278.8201,448.9458,1279.0774,454.5968,1273.4264,454.854,1282.77,457.9679" style="stroke: #A80036; stroke-width: 1.0;"/><!--link mastermind.views.StartView to mastermind.views.menus.StartMenu--><path d="M1159.82,382.163 C1160.31,404.493 1160.93,432.453 1161.38,452.9309 " fill="none" id="mastermind.views.StartView-mastermind.views.menus.StartMenu" style="stroke: #A80036; stroke-width: 1.0; stroke-dasharray: 7.0,7.0;"/><polygon fill="#A80036" points="1161.49,457.9679,1165.2903,448.8818,1161.3796,452.9691,1157.2923,449.0584,1161.49,457.9679" style="stroke: #A80036; stroke-width: 1.0;"/><!--link mastermind.controllers.ControllersVisitor to mastermind.views.View--><path d="M308.596,444.5817 C321.417,433.751 336.21,422.516 351,414 C535.187,307.946 770.49,231.48 916.981,189.956 " fill="none" id="mastermind.controllers.ControllersVisitor-mastermind.views.View" style="stroke: #A80036; stroke-width: 1.0;"/><polygon fill="none" points="313.188,449.8652,293.561,457.8498,303.925,439.3679,313.188,449.8652" style="stroke: #A80036; stroke-width: 1.0;"/><!--link mastermind.views.View to mastermind.views.PlayView--><path d="M985.387,256.788 C974.508,272.851 963.847,288.593 954.675,302.137 " fill="none" id="mastermind.views.View-mastermind.views.PlayView" style="stroke: #A80036; stroke-width: 1.0;"/><polygon fill="#A80036" points="947.348,312.955,955.7067,307.7461,950.1517,308.8151,949.0828,303.2601,947.348,312.955" style="stroke: #A80036; stroke-width: 1.0;"/><line style="stroke: #A80036; stroke-width: 1.0;" x1="950.1517" x2="954.6375" y1="308.8151" y2="302.1915"/><polygon fill="#A80036" points="992.687,246.009,986.0106,248.7339,985.958,255.9449,992.6345,253.2199,992.687,246.009" style="stroke: #A80036; stroke-width: 1.0;"/><!--link mastermind.views.View to mastermind.views.StartView--><path d="M1111.92,257.437 C1119,270.307 1125.96,282.953 1132.26,294.41 " fill="none" id="mastermind.views.View-mastermind.views.StartView" style="stroke: #A80036; stroke-width: 1.0;"/><polygon fill="#A80036" points="1138.57,305.879,1137.7343,296.0657,1136.1589,301.4987,1130.7259,299.9234,1138.57,305.879" style="stroke: #A80036; stroke-width: 1.0;"/><line style="stroke: #A80036; stroke-width: 1.0;" x1="1136.1589" x2="1132.305" y1="301.4987" y2="294.4895"/><polygon fill="#A80036" points="1105.63,246.009,1105.0191,253.1942,1111.4166,256.5216,1112.0275,249.3365,1105.63,246.009" style="stroke: #A80036; stroke-width: 1.0;"/><!--link mastermind.views.View to mastermind.views.SaveView--><path d="M1205.7,205.226 C1302.33,238.073 1425.13,279.818 1510.11,308.703 " fill="none" id="mastermind.views.View-mastermind.views.SaveView" style="stroke: #A80036; stroke-width: 1.0;"/><polygon fill="#A80036" points="1522.62,312.958,1515.387,306.2734,1517.8862,311.3482,1512.8114,313.8474,1522.62,312.958" style="stroke: #A80036; stroke-width: 1.0;"/><line style="stroke: #A80036; stroke-width: 1.0;" x1="1517.8862" x2="1510.315" y1="311.3482" y2="308.774"/><polygon fill="#A80036" points="1193.15,200.962,1197.5427,206.6808,1204.511,204.8255,1200.1184,199.1067,1193.15,200.962" style="stroke: #A80036; stroke-width: 1.0;"/><!--link mastermind.views.View to mastermind.views.ResumeView--><path d="M1204.34,244.463 C1235.77,263.506 1267.57,282.768 1294.61,299.148 " fill="none" id="mastermind.views.View-mastermind.views.ResumeView" style="stroke: #A80036; stroke-width: 1.0;"/><polygon fill="#A80036" points="1305.89,305.983,1300.2611,297.9012,1301.6123,303.3943,1296.1192,304.7455,1305.89,305.983" style="stroke: #A80036; stroke-width: 1.0;"/><line style="stroke: #A80036; stroke-width: 1.0;" x1="1301.6123" x2="1294.775" y1="303.3943" y2="299.2475"/><polygon fill="#A80036" points="1193.21,237.724,1196.2665,244.2553,1203.471,243.946,1200.4145,237.4147,1193.21,237.724" style="stroke: #A80036; stroke-width: 1.0;"/><!--link mastermind.views.View to mastermind.controllers.AcceptorController--><path d="M916.82,169.98 C773.677,189.783 545.522,230.55 361,306 C270.787,342.888 180.142,415.12 134.792,454.2597 " fill="none" id="mastermind.views.View-mastermind.controllers.AcceptorController" style="stroke: #A80036; stroke-width: 1.0; stroke-dasharray: 7.0,7.0;"/><polygon fill="#A80036" points="130.81,457.7113,140.2302,454.8374,134.5877,454.4358,134.9894,448.7932,130.81,457.7113" style="stroke: #A80036; stroke-width: 1.0;"/><!--
@startuml
class  mastermind.views.PlayView{
~void interact(PlayController playController)
}
mastermind.views.PlayView ..> mastermind.controllers.PlayController
mastermind.views.PlayView ..> mastermind.views.menus.PlayMenu
mastermind.views.PlayView ..> mastermind.views.models.GameView

class  mastermind.views.ResumeView{
~ ResumeView()
~ interact(ResumeController): void
}
mastermind.views.ResumeView ..> mastermind.controllers.ResumeController
mastermind.views.ResumeView ..> mastermind.views.models.MessageView
mastermind.views.ResumeView ..> santaTecla.utils.YesNoDialog

class mastermind.views.SaveView {
~void interact(SaveController saveController)
}
santaTecla.utils.WithConsoleView <|-down- mastermind.views.SaveView
mastermind.views.SaveView ..> mastermind.controllers.SaveController
mastermind.views.SaveView ..> mastermind.views.models.MessageView
mastermind.views.SaveView ..> santaTecla.utils.YesNoDialog

class  mastermind.views.StartView{
~ StartView()
~ interact(StartController): void
}
mastermind.views.StartView ..> mastermind.controllers.StartController
mastermind.views.StartView..> mastermind.views.models.MessageView
mastermind.views.StartView..> mastermind.views.models.GameView
mastermind.views.StartView..> mastermind.views.menus.StartMenu

class  mastermind.views.View{
-StartView startView
-PlayView playView
-SaveView saveView
-ResumeView resumeView
+View()
+void interact(AcceptorController acceptorController)
+void visit(StartController startController)
+void visit(PlayController playController)
+void visit(SaveController saveController)
+void visit(ResumeController resumeController)
}
mastermind.controllers.ControllersVisitor <|-down- mastermind.views.View
mastermind.views.View *-down-> mastermind.views.PlayView
mastermind.views.View *-down-> mastermind.views.StartView
mastermind.views.View *-down-> mastermind.views.SaveView
mastermind.views.View *-down-> mastermind.views.ResumeView
mastermind.views.View ..> mastermind.controllers.AcceptorController
@enduml

PlantUML version 1.2019.05(Sat Apr 20 18:45:36 CEST 2019)
(GPL source distribution)
Java Runtime: OpenJDK Runtime Environment
JVM: OpenJDK 64-Bit Server VM
Java Version: 1.8.0_222-b10
Operating System: Windows 10
OS Version: 10.0
Default Encoding: windows-1252
Language: es
Country: ES
--></g></svg>