<?xml version="1.0" encoding="UTF-8" standalone="no"?><svg xmlns="http://www.w3.org/2000/svg" xmlns:xlink="http://www.w3.org/1999/xlink" contentScriptType="application/ecmascript" contentStyleType="text/css" height="355px" preserveAspectRatio="none" style="width:758px;height:355px;" version="1.1" viewBox="0 0 758 355" width="758px" zoomAndPan="magnify"><defs><filter height="300%" id="f1pu3vycmtb7bq" width="300%" x="-1" y="-1"><feGaussianBlur result="blurOut" stdDeviation="2.0"/><feColorMatrix in="blurOut" result="blurOut2" type="matrix" values="0 0 0 0 0 0 0 0 0 0 0 0 0 0 0 0 0 0 .4 0"/><feOffset dx="4.0" dy="4.0" in="blurOut2" result="blurOut3"/><feBlend in="SourceGraphic" in2="blurOut3" mode="normal"/></filter></defs><g><!--cluster mastermind--><polygon fill="#FFFFFF" filter="url(#f1pu3vycmtb7bq)" points="22,24,110,24,117,47.6094,392,47.6094,392,343,22,343,22,24" style="stroke: #000000; stroke-width: 1.5;"/><line style="stroke: #000000; stroke-width: 1.5;" x1="22" x2="117" y1="47.6094" y2="47.6094"/><text fill="#000000" font-family="sans-serif" font-size="14" font-weight="bold" lengthAdjust="spacingAndGlyphs" textLength="82" x="26" y="40.5332">mastermind</text><!--cluster mastermind.views--><polygon fill="#FFFFFF" filter="url(#f1pu3vycmtb7bq)" points="416,222,549,222,556,245.6094,559,245.6094,559,322,416,322,416,222" style="stroke: #000000; stroke-width: 1.5;"/><line style="stroke: #000000; stroke-width: 1.5;" x1="416" x2="556" y1="245.6094" y2="245.6094"/><text fill="#000000" font-family="sans-serif" font-size="14" font-weight="bold" lengthAdjust="spacingAndGlyphs" textLength="127" x="420" y="238.5332">mastermind.views</text><!--cluster mastermind.models--><polygon fill="#FFFFFF" filter="url(#f1pu3vycmtb7bq)" points="583,222,726,222,733,245.6094,736,245.6094,736,322,583,322,583,222" style="stroke: #000000; stroke-width: 1.5;"/><line style="stroke: #000000; stroke-width: 1.5;" x1="583" x2="733" y1="245.6094" y2="245.6094"/><text fill="#000000" font-family="sans-serif" font-size="14" font-weight="bold" lengthAdjust="spacingAndGlyphs" textLength="137" x="587" y="238.5332">mastermind.models</text><!--class mastermind.ConsoleMastermind--><rect fill="#FEFECE" filter="url(#f1pu3vycmtb7bq)" height="89.5078" id="mastermind.ConsoleMastermind" style="stroke: #A80036; stroke-width: 1.5;" width="151" x="38.5" y="237"/><ellipse cx="56.65" cy="253" fill="#ADD1B2" rx="11" ry="11" style="stroke: #A80036; stroke-width: 1.0;"/><path d="M59.4156,248.875 Q59.5719,248.6563 59.7594,248.5469 Q59.9469,248.4375 60.1656,248.4375 Q60.5406,248.4375 60.775,248.6953 Q61.0094,248.9531 61.0094,249.5625 L61.0094,251.0156 Q61.0094,251.625 60.775,251.8906 Q60.5406,252.1563 60.1656,252.1563 Q59.8219,252.1563 59.6188,251.9531 Q59.4156,251.7656 59.3063,251.25 Q59.2594,250.8906 59.0719,250.7031 Q58.7438,250.3281 58.1344,250.1094 Q57.525,249.8906 56.9,249.8906 Q56.1344,249.8906 55.5016,250.2188 Q54.8688,250.5469 54.3766,251.2969 Q53.8844,252.0469 53.8844,253.0781 L53.8844,254.1719 Q53.8844,255.4063 54.775,256.2266 Q55.6656,257.0469 57.2594,257.0469 Q58.1969,257.0469 58.8531,256.7969 Q59.2438,256.6406 59.6656,256.2031 Q59.9313,255.9375 60.0797,255.8594 Q60.2281,255.7813 60.4313,255.7813 Q60.7594,255.7813 61.0172,256.0391 Q61.275,256.2969 61.275,256.6406 Q61.275,256.9844 60.9313,257.3906 Q60.4313,257.9688 59.6344,258.2969 Q58.5563,258.75 57.2594,258.75 Q55.7438,258.75 54.5406,258.125 Q53.5563,257.625 52.8688,256.5547 Q52.1813,255.4844 52.1813,254.2031 L52.1813,253.0469 Q52.1813,251.7188 52.7984,250.5703 Q53.4156,249.4219 54.5094,248.8047 Q55.6031,248.1875 56.8375,248.1875 Q57.5719,248.1875 58.2203,248.3516 Q58.8688,248.5156 59.4156,248.875 Z "/><text fill="#000000" font-family="sans-serif" font-size="12" lengthAdjust="spacingAndGlyphs" textLength="112" x="71.35" y="257.9102">ConsoleMastermind</text><line style="stroke: #A80036; stroke-width: 1.5;" x1="39.5" x2="188.5" y1="269" y2="269"/><line style="stroke: #A80036; stroke-width: 1.5;" x1="39.5" x2="188.5" y1="277" y2="277"/><ellipse cx="49.5" cy="289.418" fill="#84BE84" rx="3" ry="3" style="stroke: #038048; stroke-width: 1.0;"/><text fill="#000000" font-family="sans-serif" font-size="11" lengthAdjust="spacingAndGlyphs" textLength="102" x="58.5" y="292.4189">ConsoleMastermind()</text><ellipse cx="49.5" cy="303.2539" fill="#84BE84" rx="3" ry="3" style="stroke: #038048; stroke-width: 1.0;"/><text fill="#000000" font-family="sans-serif" font-size="11" lengthAdjust="spacingAndGlyphs" text-decoration="underline" textLength="90" x="58.5" y="306.2549">main(String[]): void</text><polygon fill="#FFFF44" points="49.5,312.0898,53.5,316.0898,49.5,320.0898,45.5,316.0898" style="stroke: #B38D22; stroke-width: 1.0;"/><text fill="#000000" font-family="sans-serif" font-size="11" lengthAdjust="spacingAndGlyphs" textLength="125" x="58.5" y="320.0908">createView(Game): View</text><!--class mastermind.Mastermind--><rect fill="#FEFECE" filter="url(#f1pu3vycmtb7bq)" height="117.1797" id="mastermind.Mastermind" style="stroke: #A80036; stroke-width: 1.5;" width="147" x="227.5" y="60"/><ellipse cx="265" cy="76" fill="#ADD1B2" rx="11" ry="11" style="stroke: #A80036; stroke-width: 1.0;"/><path d="M267.7656,71.875 Q267.9219,71.6563 268.1094,71.5469 Q268.2969,71.4375 268.5156,71.4375 Q268.8906,71.4375 269.125,71.6953 Q269.3594,71.9531 269.3594,72.5625 L269.3594,74.0156 Q269.3594,74.625 269.125,74.8906 Q268.8906,75.1563 268.5156,75.1563 Q268.1719,75.1563 267.9688,74.9531 Q267.7656,74.7656 267.6563,74.25 Q267.6094,73.8906 267.4219,73.7031 Q267.0938,73.3281 266.4844,73.1094 Q265.875,72.8906 265.25,72.8906 Q264.4844,72.8906 263.8516,73.2188 Q263.2188,73.5469 262.7266,74.2969 Q262.2344,75.0469 262.2344,76.0781 L262.2344,77.1719 Q262.2344,78.4063 263.125,79.2266 Q264.0156,80.0469 265.6094,80.0469 Q266.5469,80.0469 267.2031,79.7969 Q267.5938,79.6406 268.0156,79.2031 Q268.2813,78.9375 268.4297,78.8594 Q268.5781,78.7813 268.7813,78.7813 Q269.1094,78.7813 269.3672,79.0391 Q269.625,79.2969 269.625,79.6406 Q269.625,79.9844 269.2813,80.3906 Q268.7813,80.9688 267.9844,81.2969 Q266.9063,81.75 265.6094,81.75 Q264.0938,81.75 262.8906,81.125 Q261.9063,80.625 261.2188,79.5547 Q260.5313,78.4844 260.5313,77.2031 L260.5313,76.0469 Q260.5313,74.7188 261.1484,73.5703 Q261.7656,72.4219 262.8594,71.8047 Q263.9531,71.1875 265.1875,71.1875 Q265.9219,71.1875 266.5703,71.3516 Q267.2188,71.5156 267.7656,71.875 Z "/><text fill="#000000" font-family="sans-serif" font-size="12" lengthAdjust="spacingAndGlyphs" textLength="65" x="284" y="80.9102">Mastermind</text><line style="stroke: #A80036; stroke-width: 1.5;" x1="228.5" x2="373.5" y1="92" y2="92"/><rect fill="none" height="6" style="stroke: #C82930; stroke-width: 1.0;" width="6" x="235.5" y="101.418"/><text fill="#000000" font-family="sans-serif" font-size="11" lengthAdjust="spacingAndGlyphs" textLength="60" x="247.5" y="107.4189">game: Game</text><rect fill="none" height="6" style="stroke: #C82930; stroke-width: 1.0;" width="6" x="235.5" y="115.2539"/><text fill="#000000" font-family="sans-serif" font-size="11" lengthAdjust="spacingAndGlyphs" textLength="56" x="247.5" y="121.2549">view: View</text><line style="stroke: #A80036; stroke-width: 1.5;" x1="228.5" x2="373.5" y1="127.6719" y2="127.6719"/><polygon fill="#FFFF44" points="238.5,135.0898,242.5,139.0898,238.5,143.0898,234.5,139.0898" style="stroke: #B38D22; stroke-width: 1.0;"/><text fill="#000000" font-family="sans-serif" font-size="11" lengthAdjust="spacingAndGlyphs" textLength="63" x="247.5" y="143.0908">Mastermind()</text><polygon fill="#FFFF44" points="238.5,148.9258,242.5,152.9258,238.5,156.9258,234.5,152.9258" style="stroke: #B38D22; stroke-width: 1.0;"/><text fill="#000000" font-family="sans-serif" font-size="11" font-style="italic" lengthAdjust="spacingAndGlyphs" textLength="121" x="247.5" y="156.9268">createView(Game): View</text><polygon fill="#FFFF44" points="238.5,162.7617,242.5,166.7617,238.5,170.7617,234.5,166.7617" style="stroke: #B38D22; stroke-width: 1.0;"/><text fill="#000000" font-family="sans-serif" font-size="11" lengthAdjust="spacingAndGlyphs" textLength="54" x="247.5" y="170.7627">play(): void</text><!--class mastermind.GraphicsMastermind--><rect fill="#FEFECE" filter="url(#f1pu3vycmtb7bq)" height="89.5078" id="mastermind.GraphicsMastermind" style="stroke: #A80036; stroke-width: 1.5;" width="151" x="224.5" y="237"/><ellipse cx="241.3" cy="253" fill="#ADD1B2" rx="11" ry="11" style="stroke: #A80036; stroke-width: 1.0;"/><path d="M244.0656,248.875 Q244.2219,248.6563 244.4094,248.5469 Q244.5969,248.4375 244.8156,248.4375 Q245.1906,248.4375 245.425,248.6953 Q245.6594,248.9531 245.6594,249.5625 L245.6594,251.0156 Q245.6594,251.625 245.425,251.8906 Q245.1906,252.1563 244.8156,252.1563 Q244.4719,252.1563 244.2688,251.9531 Q244.0656,251.7656 243.9563,251.25 Q243.9094,250.8906 243.7219,250.7031 Q243.3938,250.3281 242.7844,250.1094 Q242.175,249.8906 241.55,249.8906 Q240.7844,249.8906 240.1516,250.2188 Q239.5188,250.5469 239.0266,251.2969 Q238.5344,252.0469 238.5344,253.0781 L238.5344,254.1719 Q238.5344,255.4063 239.425,256.2266 Q240.3156,257.0469 241.9094,257.0469 Q242.8469,257.0469 243.5031,256.7969 Q243.8938,256.6406 244.3156,256.2031 Q244.5813,255.9375 244.7297,255.8594 Q244.8781,255.7813 245.0813,255.7813 Q245.4094,255.7813 245.6672,256.0391 Q245.925,256.2969 245.925,256.6406 Q245.925,256.9844 245.5813,257.3906 Q245.0813,257.9688 244.2844,258.2969 Q243.2063,258.75 241.9094,258.75 Q240.3938,258.75 239.1906,258.125 Q238.2063,257.625 237.5188,256.5547 Q236.8313,255.4844 236.8313,254.2031 L236.8313,253.0469 Q236.8313,251.7188 237.4484,250.5703 Q238.0656,249.4219 239.1594,248.8047 Q240.2531,248.1875 241.4875,248.1875 Q242.2219,248.1875 242.8703,248.3516 Q243.5188,248.5156 244.0656,248.875 Z "/><text fill="#000000" font-family="sans-serif" font-size="12" lengthAdjust="spacingAndGlyphs" textLength="115" x="255.7" y="257.9102">GraphicsMastermind</text><line style="stroke: #A80036; stroke-width: 1.5;" x1="225.5" x2="374.5" y1="269" y2="269"/><line style="stroke: #A80036; stroke-width: 1.5;" x1="225.5" x2="374.5" y1="277" y2="277"/><ellipse cx="235.5" cy="289.418" fill="#84BE84" rx="3" ry="3" style="stroke: #038048; stroke-width: 1.0;"/><text fill="#000000" font-family="sans-serif" font-size="11" lengthAdjust="spacingAndGlyphs" textLength="107" x="244.5" y="292.4189">GraphicsMastermind()</text><ellipse cx="235.5" cy="303.2539" fill="#84BE84" rx="3" ry="3" style="stroke: #038048; stroke-width: 1.0;"/><text fill="#000000" font-family="sans-serif" font-size="11" lengthAdjust="spacingAndGlyphs" text-decoration="underline" textLength="90" x="244.5" y="306.2549">main(String[]): void</text><polygon fill="#FFFF44" points="235.5,312.0898,239.5,316.0898,235.5,320.0898,231.5,316.0898" style="stroke: #B38D22; stroke-width: 1.0;"/><text fill="#000000" font-family="sans-serif" font-size="11" lengthAdjust="spacingAndGlyphs" textLength="125" x="244.5" y="320.0908">createView(Game): View</text><!--class mastermind.views.View--><rect fill="#FEFECE" filter="url(#f1pu3vycmtb7bq)" height="48" id="mastermind.views.View" style="stroke: #A80036; stroke-width: 1.5;" width="58" x="432" y="258"/><ellipse cx="447" cy="274" fill="#ADD1B2" rx="11" ry="11" style="stroke: #A80036; stroke-width: 1.0;"/><path d="M449.7656,269.875 Q449.9219,269.6563 450.1094,269.5469 Q450.2969,269.4375 450.5156,269.4375 Q450.8906,269.4375 451.125,269.6953 Q451.3594,269.9531 451.3594,270.5625 L451.3594,272.0156 Q451.3594,272.625 451.125,272.8906 Q450.8906,273.1563 450.5156,273.1563 Q450.1719,273.1563 449.9688,272.9531 Q449.7656,272.7656 449.6563,272.25 Q449.6094,271.8906 449.4219,271.7031 Q449.0938,271.3281 448.4844,271.1094 Q447.875,270.8906 447.25,270.8906 Q446.4844,270.8906 445.8516,271.2188 Q445.2188,271.5469 444.7266,272.2969 Q444.2344,273.0469 444.2344,274.0781 L444.2344,275.1719 Q444.2344,276.4063 445.125,277.2266 Q446.0156,278.0469 447.6094,278.0469 Q448.5469,278.0469 449.2031,277.7969 Q449.5938,277.6406 450.0156,277.2031 Q450.2813,276.9375 450.4297,276.8594 Q450.5781,276.7813 450.7813,276.7813 Q451.1094,276.7813 451.3672,277.0391 Q451.625,277.2969 451.625,277.6406 Q451.625,277.9844 451.2813,278.3906 Q450.7813,278.9688 449.9844,279.2969 Q448.9063,279.75 447.6094,279.75 Q446.0938,279.75 444.8906,279.125 Q443.9063,278.625 443.2188,277.5547 Q442.5313,276.4844 442.5313,275.2031 L442.5313,274.0469 Q442.5313,272.7188 443.1484,271.5703 Q443.7656,270.4219 444.8594,269.8047 Q445.9531,269.1875 447.1875,269.1875 Q447.9219,269.1875 448.5703,269.3516 Q449.2188,269.5156 449.7656,269.875 Z "/><text fill="#000000" font-family="sans-serif" font-size="12" lengthAdjust="spacingAndGlyphs" textLength="26" x="461" y="278.9102">View</text><line style="stroke: #A80036; stroke-width: 1.5;" x1="433" x2="489" y1="290" y2="290"/><line style="stroke: #A80036; stroke-width: 1.5;" x1="433" x2="489" y1="298" y2="298"/><!--class mastermind.models.Game--><rect fill="#FEFECE" filter="url(#f1pu3vycmtb7bq)" height="48" id="mastermind.models.Game" style="stroke: #A80036; stroke-width: 1.5;" width="66" x="599" y="258"/><ellipse cx="614" cy="274" fill="#ADD1B2" rx="11" ry="11" style="stroke: #A80036; stroke-width: 1.0;"/><path d="M616.7656,269.875 Q616.9219,269.6563 617.1094,269.5469 Q617.2969,269.4375 617.5156,269.4375 Q617.8906,269.4375 618.125,269.6953 Q618.3594,269.9531 618.3594,270.5625 L618.3594,272.0156 Q618.3594,272.625 618.125,272.8906 Q617.8906,273.1563 617.5156,273.1563 Q617.1719,273.1563 616.9688,272.9531 Q616.7656,272.7656 616.6563,272.25 Q616.6094,271.8906 616.4219,271.7031 Q616.0938,271.3281 615.4844,271.1094 Q614.875,270.8906 614.25,270.8906 Q613.4844,270.8906 612.8516,271.2188 Q612.2188,271.5469 611.7266,272.2969 Q611.2344,273.0469 611.2344,274.0781 L611.2344,275.1719 Q611.2344,276.4063 612.125,277.2266 Q613.0156,278.0469 614.6094,278.0469 Q615.5469,278.0469 616.2031,277.7969 Q616.5938,277.6406 617.0156,277.2031 Q617.2813,276.9375 617.4297,276.8594 Q617.5781,276.7813 617.7813,276.7813 Q618.1094,276.7813 618.3672,277.0391 Q618.625,277.2969 618.625,277.6406 Q618.625,277.9844 618.2813,278.3906 Q617.7813,278.9688 616.9844,279.2969 Q615.9063,279.75 614.6094,279.75 Q613.0938,279.75 611.8906,279.125 Q610.9063,278.625 610.2188,277.5547 Q609.5313,276.4844 609.5313,275.2031 L609.5313,274.0469 Q609.5313,272.7188 610.1484,271.5703 Q610.7656,270.4219 611.8594,269.8047 Q612.9531,269.1875 614.1875,269.1875 Q614.9219,269.1875 615.5703,269.3516 Q616.2188,269.5156 616.7656,269.875 Z "/><text fill="#000000" font-family="sans-serif" font-size="12" lengthAdjust="spacingAndGlyphs" textLength="34" x="628" y="278.9102">Game</text><line style="stroke: #A80036; stroke-width: 1.5;" x1="600" x2="664" y1="290" y2="290"/><line style="stroke: #A80036; stroke-width: 1.5;" x1="600" x2="664" y1="298" y2="298"/><!--link mastermind.Mastermind to mastermind.ConsoleMastermind--><path d="M219.075,190.253 C200.729,206.098 181.778,222.464 165.109,236.861 " fill="none" id="mastermind.Mastermind-mastermind.ConsoleMastermind" style="stroke: #A80036; stroke-width: 1.0;"/><polygon fill="none" points="214.569,184.896,234.281,177.121,223.72,195.491,214.569,184.896" style="stroke: #A80036; stroke-width: 1.0;"/><!--link mastermind.Mastermind to mastermind.GraphicsMastermind--><path d="M300.516,197.613 C300.433,211.145 300.348,224.776 300.273,236.984 " fill="none" id="mastermind.Mastermind-mastermind.GraphicsMastermind" style="stroke: #A80036; stroke-width: 1.0;"/><polygon fill="none" points="293.518,197.305,300.642,177.349,307.518,197.392,293.518,197.305" style="stroke: #A80036; stroke-width: 1.0;"/><!--link mastermind.Mastermind to mastermind.views.View--><path d="M358.312,177.349 C384.143,203.422 413.414,232.968 434.077,253.824 " fill="none" id="mastermind.Mastermind-mastermind.views.View" style="stroke: #A80036; stroke-width: 1.0;"/><polygon fill="#A80036" points="437.832,257.615,434.3374,248.407,434.3122,254.0638,428.6554,254.0386,437.832,257.615" style="stroke: #A80036; stroke-width: 1.0;"/><!--link mastermind.Mastermind to mastermind.models.Game--><path d="M374.534,152.177 C413.803,169.934 462.814,192.586 506,214 C535.985,228.869 569.411,246.702 594.297,260.2313 " fill="none" id="mastermind.Mastermind-mastermind.models.Game" style="stroke: #A80036; stroke-width: 1.0;"/><polygon fill="#A80036" points="598.841,262.7056,592.8504,254.8881,594.45,260.3141,589.024,261.9137,598.841,262.7056" style="stroke: #A80036; stroke-width: 1.0;"/><!--
@startuml

class  mastermind.ConsoleMastermind{
+ ConsoleMastermind()
+ {static} main(String[]): void
# createView(Game): View
}
mastermind.Mastermind <|-down- mastermind.ConsoleMastermind

class  mastermind.GraphicsMastermind{
+ GraphicsMastermind()
+ {static} main(String[]): void
# createView(Game): View
}
mastermind.Mastermind <|-down- mastermind.GraphicsMastermind

class  mastermind.Mastermind{
- game: Game
- view: View
# Mastermind()
# {abstract} createView(Game): View
# play(): void
}
mastermind.Mastermind - -> mastermind.views.View
mastermind.Mastermind - -> mastermind.models.Game

@enduml

PlantUML version 1.2019.05(Sat Apr 20 18:45:36 CEST 2019)
(GPL source distribution)
Java Runtime: OpenJDK Runtime Environment
JVM: OpenJDK 64-Bit Server VM
Java Version: 1.8.0_222-b10
Operating System: Windows 10
OS Version: 10.0
Default Encoding: windows-1252
Language: es
Country: ES
--></g></svg>