<?xml version="1.0" encoding="UTF-8" standalone="no"?><svg xmlns="http://www.w3.org/2000/svg" xmlns:xlink="http://www.w3.org/1999/xlink" contentScriptType="application/ecmascript" contentStyleType="text/css" height="958px" preserveAspectRatio="none" style="width:1361px;height:958px;" version="1.1" viewBox="0 0 1361 958" width="1361px" zoomAndPan="magnify"><defs><filter height="300%" id="f2424n9acw2ac" width="300%" x="-1" y="-1"><feGaussianBlur result="blurOut" stdDeviation="2.0"/><feColorMatrix in="blurOut" result="blurOut2" type="matrix" values="0 0 0 0 0 0 0 0 0 0 0 0 0 0 0 0 0 0 .4 0"/><feOffset dx="4.0" dy="4.0" in="blurOut2" result="blurOut3"/><feBlend in="SourceGraphic" in2="blurOut3" mode="normal"/></filter></defs><g><!--cluster mastermind.controllers--><polygon fill="#FFFFFF" filter="url(#f2424n9acw2ac)" points="22,24,191,24,198,47.6094,964,47.6094,964,822,22,822,22,24" style="stroke: #000000; stroke-width: 1.5;"/><line style="stroke: #000000; stroke-width: 1.5;" x1="22" x2="198" y1="47.6094" y2="47.6094"/><text fill="#000000" font-family="sans-serif" font-size="14" font-weight="bold" lengthAdjust="spacingAndGlyphs" textLength="163" x="26" y="40.5332">mastermind.controllers</text><!--cluster mastermind.models--><polygon fill="#FFFFFF" filter="url(#f2424n9acw2ac)" points="897,846,1040,846,1047,869.6094,1134,869.6094,1134,946,897,946,897,846" style="stroke: #000000; stroke-width: 1.5;"/><line style="stroke: #000000; stroke-width: 1.5;" x1="897" x2="1047" y1="869.6094" y2="869.6094"/><text fill="#000000" font-family="sans-serif" font-size="14" font-weight="bold" lengthAdjust="spacingAndGlyphs" textLength="137" x="901" y="862.5332">mastermind.models</text><!--cluster java.util--><polygon fill="#FFFFFF" filter="url(#f2424n9acw2ac)" points="1251,263.5,1312,263.5,1319,287.1094,1339,287.1094,1339,363.5,1251,363.5,1251,263.5" style="stroke: #000000; stroke-width: 1.5;"/><line style="stroke: #000000; stroke-width: 1.5;" x1="1251" x2="1319" y1="287.1094" y2="287.1094"/><text fill="#000000" font-family="sans-serif" font-size="14" font-weight="bold" lengthAdjust="spacingAndGlyphs" textLength="55" x="1255" y="280.0332">java.util</text><!--class mastermind.controllers.AcceptorController--><rect fill="#FEFECE" filter="url(#f2424n9acw2ac)" height="75.6719" id="mastermind.controllers.AcceptorController" style="stroke: #A80036; stroke-width: 1.5;" width="180" x="768" y="285.5"/><ellipse cx="804.15" cy="301.5" fill="#ADD1B2" rx="11" ry="11" style="stroke: #A80036; stroke-width: 1.0;"/><path d="M806.9156,297.375 Q807.0719,297.1563 807.2594,297.0469 Q807.4469,296.9375 807.6656,296.9375 Q808.0406,296.9375 808.275,297.1953 Q808.5094,297.4531 808.5094,298.0625 L808.5094,299.5156 Q808.5094,300.125 808.275,300.3906 Q808.0406,300.6563 807.6656,300.6563 Q807.3219,300.6563 807.1188,300.4531 Q806.9156,300.2656 806.8063,299.75 Q806.7594,299.3906 806.5719,299.2031 Q806.2438,298.8281 805.6344,298.6094 Q805.025,298.3906 804.4,298.3906 Q803.6344,298.3906 803.0016,298.7188 Q802.3688,299.0469 801.8766,299.7969 Q801.3844,300.5469 801.3844,301.5781 L801.3844,302.6719 Q801.3844,303.9063 802.275,304.7266 Q803.1656,305.5469 804.7594,305.5469 Q805.6969,305.5469 806.3531,305.2969 Q806.7438,305.1406 807.1656,304.7031 Q807.4313,304.4375 807.5797,304.3594 Q807.7281,304.2813 807.9313,304.2813 Q808.2594,304.2813 808.5172,304.5391 Q808.775,304.7969 808.775,305.1406 Q808.775,305.4844 808.4313,305.8906 Q807.9313,306.4688 807.1344,306.7969 Q806.0563,307.25 804.7594,307.25 Q803.2438,307.25 802.0406,306.625 Q801.0563,306.125 800.3688,305.0547 Q799.6813,303.9844 799.6813,302.7031 L799.6813,301.5469 Q799.6813,300.2188 800.2984,299.0703 Q800.9156,297.9219 802.0094,297.3047 Q803.1031,296.6875 804.3375,296.6875 Q805.0719,296.6875 805.7203,296.8516 Q806.3688,297.0156 806.9156,297.375 Z "/><text fill="#000000" font-family="sans-serif" font-size="12" lengthAdjust="spacingAndGlyphs" textLength="101" x="822.85" y="306.4102">AcceptorController</text><line style="stroke: #A80036; stroke-width: 1.5;" x1="769" x2="947" y1="317.5" y2="317.5"/><line style="stroke: #A80036; stroke-width: 1.5;" x1="769" x2="947" y1="325.5" y2="325.5"/><polygon fill="#4177AF" points="779,333.918,775,339.918,783,339.918" style="stroke: #1963A0; stroke-width: 1.0;"/><text fill="#000000" font-family="sans-serif" font-size="11" lengthAdjust="spacingAndGlyphs" textLength="138" x="788" y="340.9189">AcceptorController(Session)</text><ellipse cx="779" cy="351.7539" fill="#84BE84" rx="3" ry="3" style="stroke: #038048; stroke-width: 1.0;"/><text fill="#000000" font-family="sans-serif" font-size="11" font-style="italic" lengthAdjust="spacingAndGlyphs" textLength="154" x="788" y="354.7549">accept(ControllersVisitor): void</text><!--class mastermind.controllers.Controller--><rect fill="#FEFECE" filter="url(#f2424n9acw2ac)" height="131.0156" id="mastermind.controllers.Controller" style="stroke: #A80036; stroke-width: 1.5;" width="161" x="442.5" y="60"/><ellipse cx="491.75" cy="76" fill="#ADD1B2" rx="11" ry="11" style="stroke: #A80036; stroke-width: 1.0;"/><path d="M494.5156,71.875 Q494.6719,71.6563 494.8594,71.5469 Q495.0469,71.4375 495.2656,71.4375 Q495.6406,71.4375 495.875,71.6953 Q496.1094,71.9531 496.1094,72.5625 L496.1094,74.0156 Q496.1094,74.625 495.875,74.8906 Q495.6406,75.1563 495.2656,75.1563 Q494.9219,75.1563 494.7188,74.9531 Q494.5156,74.7656 494.4063,74.25 Q494.3594,73.8906 494.1719,73.7031 Q493.8438,73.3281 493.2344,73.1094 Q492.625,72.8906 492,72.8906 Q491.2344,72.8906 490.6016,73.2188 Q489.9688,73.5469 489.4766,74.2969 Q488.9844,75.0469 488.9844,76.0781 L488.9844,77.1719 Q488.9844,78.4063 489.875,79.2266 Q490.7656,80.0469 492.3594,80.0469 Q493.2969,80.0469 493.9531,79.7969 Q494.3438,79.6406 494.7656,79.2031 Q495.0313,78.9375 495.1797,78.8594 Q495.3281,78.7813 495.5313,78.7813 Q495.8594,78.7813 496.1172,79.0391 Q496.375,79.2969 496.375,79.6406 Q496.375,79.9844 496.0313,80.3906 Q495.5313,80.9688 494.7344,81.2969 Q493.6563,81.75 492.3594,81.75 Q490.8438,81.75 489.6406,81.125 Q488.6563,80.625 487.9688,79.5547 Q487.2813,78.4844 487.2813,77.2031 L487.2813,76.0469 Q487.2813,74.7188 487.8984,73.5703 Q488.5156,72.4219 489.6094,71.8047 Q490.7031,71.1875 491.9375,71.1875 Q492.6719,71.1875 493.3203,71.3516 Q493.9688,71.5156 494.5156,71.875 Z "/><text fill="#000000" font-family="sans-serif" font-size="12" lengthAdjust="spacingAndGlyphs" textLength="54" x="512.25" y="80.9102">Controller</text><line style="stroke: #A80036; stroke-width: 1.5;" x1="443.5" x2="602.5" y1="92" y2="92"/><polygon fill="none" points="453.5,99.418,457.5,103.418,453.5,107.418,449.5,103.418" style="stroke: #B38D22; stroke-width: 1.0;"/><text fill="#000000" font-family="sans-serif" font-size="11" lengthAdjust="spacingAndGlyphs" textLength="83" x="462.5" y="107.4189">session: Session</text><line style="stroke: #A80036; stroke-width: 1.5;" x1="443.5" x2="602.5" y1="113.8359" y2="113.8359"/><polygon fill="#4177AF" points="453.5,122.2539,449.5,128.2539,457.5,128.2539" style="stroke: #1963A0; stroke-width: 1.0;"/><text fill="#000000" font-family="sans-serif" font-size="11" lengthAdjust="spacingAndGlyphs" textLength="93" x="462.5" y="129.2549">Controller(Session)</text><ellipse cx="453.5" cy="140.0898" fill="#84BE84" rx="3" ry="3" style="stroke: #038048; stroke-width: 1.0;"/><text fill="#000000" font-family="sans-serif" font-size="11" lengthAdjust="spacingAndGlyphs" textLength="84" x="462.5" y="143.0908">getName(): String</text><ellipse cx="453.5" cy="153.9258" fill="#84BE84" rx="3" ry="3" style="stroke: #038048; stroke-width: 1.0;"/><text fill="#000000" font-family="sans-serif" font-size="11" lengthAdjust="spacingAndGlyphs" textLength="104" x="462.5" y="156.9268">setName(String): void</text><ellipse cx="453.5" cy="167.7617" fill="#84BE84" rx="3" ry="3" style="stroke: #038048; stroke-width: 1.0;"/><text fill="#000000" font-family="sans-serif" font-size="11" lengthAdjust="spacingAndGlyphs" textLength="67" x="462.5" y="170.7627">getWidth(): int</text><ellipse cx="453.5" cy="181.5977" fill="#84BE84" rx="3" ry="3" style="stroke: #038048; stroke-width: 1.0;"/><text fill="#000000" font-family="sans-serif" font-size="11" lengthAdjust="spacingAndGlyphs" textLength="135" x="462.5" y="184.5986">getValueState(): StateValue</text><!--class mastermind.controllers.ControllersVisitor--><rect fill="#FEFECE" filter="url(#f2424n9acw2ac)" height="103.3438" id="mastermind.controllers.ControllersVisitor" style="stroke: #A80036; stroke-width: 1.5;" width="170" x="493" y="470"/><ellipse cx="527.35" cy="486" fill="#ADD1B2" rx="11" ry="11" style="stroke: #A80036; stroke-width: 1.0;"/><path d="M530.1156,481.875 Q530.2719,481.6563 530.4594,481.5469 Q530.6469,481.4375 530.8656,481.4375 Q531.2406,481.4375 531.475,481.6953 Q531.7094,481.9531 531.7094,482.5625 L531.7094,484.0156 Q531.7094,484.625 531.475,484.8906 Q531.2406,485.1563 530.8656,485.1563 Q530.5219,485.1563 530.3188,484.9531 Q530.1156,484.7656 530.0063,484.25 Q529.9594,483.8906 529.7719,483.7031 Q529.4438,483.3281 528.8344,483.1094 Q528.225,482.8906 527.6,482.8906 Q526.8344,482.8906 526.2016,483.2188 Q525.5688,483.5469 525.0766,484.2969 Q524.5844,485.0469 524.5844,486.0781 L524.5844,487.1719 Q524.5844,488.4063 525.475,489.2266 Q526.3656,490.0469 527.9594,490.0469 Q528.8969,490.0469 529.5531,489.7969 Q529.9438,489.6406 530.3656,489.2031 Q530.6313,488.9375 530.7797,488.8594 Q530.9281,488.7813 531.1313,488.7813 Q531.4594,488.7813 531.7172,489.0391 Q531.975,489.2969 531.975,489.6406 Q531.975,489.9844 531.6313,490.3906 Q531.1313,490.9688 530.3344,491.2969 Q529.2563,491.75 527.9594,491.75 Q526.4438,491.75 525.2406,491.125 Q524.2563,490.625 523.5688,489.5547 Q522.8813,488.4844 522.8813,487.2031 L522.8813,486.0469 Q522.8813,484.7188 523.4984,483.5703 Q524.1156,482.4219 525.2094,481.8047 Q526.3031,481.1875 527.5375,481.1875 Q528.2719,481.1875 528.9203,481.3516 Q529.5688,481.5156 530.1156,481.875 Z "/><text fill="#000000" font-family="sans-serif" font-size="12" lengthAdjust="spacingAndGlyphs" textLength="95" x="545.65" y="490.9102">ControllersVisitor</text><line style="stroke: #A80036; stroke-width: 1.5;" x1="494" x2="662" y1="502" y2="502"/><line style="stroke: #A80036; stroke-width: 1.5;" x1="494" x2="662" y1="510" y2="510"/><ellipse cx="504" cy="522.418" fill="#84BE84" rx="3" ry="3" style="stroke: #038048; stroke-width: 1.0;"/><text fill="#000000" font-family="sans-serif" font-size="11" font-style="italic" lengthAdjust="spacingAndGlyphs" textLength="144" x="513" y="525.4189">visit(ResumeController): void</text><ellipse cx="504" cy="536.2539" fill="#84BE84" rx="3" ry="3" style="stroke: #038048; stroke-width: 1.0;"/><text fill="#000000" font-family="sans-serif" font-size="11" font-style="italic" lengthAdjust="spacingAndGlyphs" textLength="127" x="513" y="539.2549">visit(SaveController): void</text><ellipse cx="504" cy="550.0898" fill="#84BE84" rx="3" ry="3" style="stroke: #038048; stroke-width: 1.0;"/><text fill="#000000" font-family="sans-serif" font-size="11" font-style="italic" lengthAdjust="spacingAndGlyphs" textLength="124" x="513" y="553.0908">visit(PlayController): void</text><ellipse cx="504" cy="563.9258" fill="#84BE84" rx="3" ry="3" style="stroke: #038048; stroke-width: 1.0;"/><text fill="#000000" font-family="sans-serif" font-size="11" font-style="italic" lengthAdjust="spacingAndGlyphs" textLength="126" x="513" y="566.9268">visit(StartController): void</text><!--class mastermind.controllers.ResumeController--><rect fill="#FEFECE" filter="url(#f2424n9acw2ac)" height="89.5078" id="mastermind.controllers.ResumeController" style="stroke: #A80036; stroke-width: 1.5;" width="176" x="68" y="681.5"/><ellipse cx="101.9" cy="697.5" fill="#ADD1B2" rx="11" ry="11" style="stroke: #A80036; stroke-width: 1.0;"/><path d="M104.6656,693.375 Q104.8219,693.1563 105.0094,693.0469 Q105.1969,692.9375 105.4156,692.9375 Q105.7906,692.9375 106.025,693.1953 Q106.2594,693.4531 106.2594,694.0625 L106.2594,695.5156 Q106.2594,696.125 106.025,696.3906 Q105.7906,696.6563 105.4156,696.6563 Q105.0719,696.6563 104.8688,696.4531 Q104.6656,696.2656 104.5563,695.75 Q104.5094,695.3906 104.3219,695.2031 Q103.9938,694.8281 103.3844,694.6094 Q102.775,694.3906 102.15,694.3906 Q101.3844,694.3906 100.7516,694.7188 Q100.1188,695.0469 99.6266,695.7969 Q99.1344,696.5469 99.1344,697.5781 L99.1344,698.6719 Q99.1344,699.9063 100.025,700.7266 Q100.9156,701.5469 102.5094,701.5469 Q103.4469,701.5469 104.1031,701.2969 Q104.4938,701.1406 104.9156,700.7031 Q105.1813,700.4375 105.3297,700.3594 Q105.4781,700.2813 105.6813,700.2813 Q106.0094,700.2813 106.2672,700.5391 Q106.525,700.7969 106.525,701.1406 Q106.525,701.4844 106.1813,701.8906 Q105.6813,702.4688 104.8844,702.7969 Q103.8063,703.25 102.5094,703.25 Q100.9938,703.25 99.7906,702.625 Q98.8063,702.125 98.1188,701.0547 Q97.4313,699.9844 97.4313,698.7031 L97.4313,697.5469 Q97.4313,696.2188 98.0484,695.0703 Q98.6656,693.9219 99.7594,693.3047 Q100.8531,692.6875 102.0875,692.6875 Q102.8219,692.6875 103.4703,692.8516 Q104.1188,693.0156 104.6656,693.375 Z "/><text fill="#000000" font-family="sans-serif" font-size="12" lengthAdjust="spacingAndGlyphs" textLength="102" x="120.1" y="702.4102">ResumeController</text><line style="stroke: #A80036; stroke-width: 1.5;" x1="69" x2="243" y1="713.5" y2="713.5"/><line style="stroke: #A80036; stroke-width: 1.5;" x1="69" x2="243" y1="721.5" y2="721.5"/><ellipse cx="79" cy="733.918" fill="#84BE84" rx="3" ry="3" style="stroke: #038048; stroke-width: 1.0;"/><text fill="#000000" font-family="sans-serif" font-size="11" lengthAdjust="spacingAndGlyphs" textLength="132" x="88" y="736.9189">ResumeController(Session)</text><ellipse cx="79" cy="747.7539" fill="#84BE84" rx="3" ry="3" style="stroke: #038048; stroke-width: 1.0;"/><text fill="#000000" font-family="sans-serif" font-size="11" lengthAdjust="spacingAndGlyphs" textLength="150" x="88" y="750.7549">accept(ControllersVisitor): void</text><ellipse cx="79" cy="761.5898" fill="#84BE84" rx="3" ry="3" style="stroke: #038048; stroke-width: 1.0;"/><text fill="#000000" font-family="sans-serif" font-size="11" font-style="italic" lengthAdjust="spacingAndGlyphs" textLength="111" x="88" y="764.5908">resume(boolean): void</text><!--class mastermind.controllers.SaveController--><rect fill="#FEFECE" filter="url(#f2424n9acw2ac)" height="144.8516" id="mastermind.controllers.SaveController" style="stroke: #A80036; stroke-width: 1.5;" width="176" x="279" y="654"/><ellipse cx="322.35" cy="670" fill="#ADD1B2" rx="11" ry="11" style="stroke: #A80036; stroke-width: 1.0;"/><path d="M325.1156,665.875 Q325.2719,665.6563 325.4594,665.5469 Q325.6469,665.4375 325.8656,665.4375 Q326.2406,665.4375 326.475,665.6953 Q326.7094,665.9531 326.7094,666.5625 L326.7094,668.0156 Q326.7094,668.625 326.475,668.8906 Q326.2406,669.1563 325.8656,669.1563 Q325.5219,669.1563 325.3188,668.9531 Q325.1156,668.7656 325.0063,668.25 Q324.9594,667.8906 324.7719,667.7031 Q324.4438,667.3281 323.8344,667.1094 Q323.225,666.8906 322.6,666.8906 Q321.8344,666.8906 321.2016,667.2188 Q320.5688,667.5469 320.0766,668.2969 Q319.5844,669.0469 319.5844,670.0781 L319.5844,671.1719 Q319.5844,672.4063 320.475,673.2266 Q321.3656,674.0469 322.9594,674.0469 Q323.8969,674.0469 324.5531,673.7969 Q324.9438,673.6406 325.3656,673.2031 Q325.6313,672.9375 325.7797,672.8594 Q325.9281,672.7813 326.1313,672.7813 Q326.4594,672.7813 326.7172,673.0391 Q326.975,673.2969 326.975,673.6406 Q326.975,673.9844 326.6313,674.3906 Q326.1313,674.9688 325.3344,675.2969 Q324.2563,675.75 322.9594,675.75 Q321.4438,675.75 320.2406,675.125 Q319.2563,674.625 318.5688,673.5547 Q317.8813,672.4844 317.8813,671.2031 L317.8813,670.0469 Q317.8813,668.7188 318.4984,667.5703 Q319.1156,666.4219 320.2094,665.8047 Q321.3031,665.1875 322.5375,665.1875 Q323.2719,665.1875 323.9203,665.3516 Q324.5688,665.5156 325.1156,665.875 Z "/><text fill="#000000" font-family="sans-serif" font-size="12" lengthAdjust="spacingAndGlyphs" textLength="81" x="342.65" y="674.9102">SaveController</text><line style="stroke: #A80036; stroke-width: 1.5;" x1="280" x2="454" y1="686" y2="686"/><line style="stroke: #A80036; stroke-width: 1.5;" x1="280" x2="454" y1="694" y2="694"/><ellipse cx="290" cy="706.418" fill="#84BE84" rx="3" ry="3" style="stroke: #038048; stroke-width: 1.0;"/><text fill="#000000" font-family="sans-serif" font-size="11" lengthAdjust="spacingAndGlyphs" textLength="118" x="299" y="709.4189">SaveController(Session)</text><ellipse cx="290" cy="720.2539" fill="#84BE84" rx="3" ry="3" style="stroke: #038048; stroke-width: 1.0;"/><text fill="#000000" font-family="sans-serif" font-size="11" font-style="italic" lengthAdjust="spacingAndGlyphs" textLength="55" x="299" y="723.2549">next(): void</text><ellipse cx="290" cy="734.0898" fill="#84BE84" rx="3" ry="3" style="stroke: #038048; stroke-width: 1.0;"/><text fill="#000000" font-family="sans-serif" font-size="11" lengthAdjust="spacingAndGlyphs" textLength="150" x="299" y="737.0908">accept(ControllersVisitor): void</text><ellipse cx="290" cy="747.9258" fill="#84BE84" rx="3" ry="3" style="stroke: #038048; stroke-width: 1.0;"/><text fill="#000000" font-family="sans-serif" font-size="11" font-style="italic" lengthAdjust="spacingAndGlyphs" textLength="57" x="299" y="750.9268">save(): void</text><ellipse cx="290" cy="761.7617" fill="#84BE84" rx="3" ry="3" style="stroke: #038048; stroke-width: 1.0;"/><text fill="#000000" font-family="sans-serif" font-size="11" font-style="italic" lengthAdjust="spacingAndGlyphs" textLength="86" x="299" y="764.7627">save(String): void</text><ellipse cx="290" cy="775.5977" fill="#84BE84" rx="3" ry="3" style="stroke: #038048; stroke-width: 1.0;"/><text fill="#000000" font-family="sans-serif" font-size="11" font-style="italic" lengthAdjust="spacingAndGlyphs" textLength="113" x="299" y="778.5986">exists(String): boolean</text><ellipse cx="290" cy="789.4336" fill="#84BE84" rx="3" ry="3" style="stroke: #038048; stroke-width: 1.0;"/><text fill="#000000" font-family="sans-serif" font-size="11" font-style="italic" lengthAdjust="spacingAndGlyphs" textLength="101" x="299" y="792.4346">hasName(): boolean</text><!--class mastermind.controllers.StartController--><rect fill="#FEFECE" filter="url(#f2424n9acw2ac)" height="117.1797" id="mastermind.controllers.StartController" style="stroke: #A80036; stroke-width: 1.5;" width="176" x="490" y="668"/><ellipse cx="534.25" cy="684" fill="#ADD1B2" rx="11" ry="11" style="stroke: #A80036; stroke-width: 1.0;"/><path d="M537.0156,679.875 Q537.1719,679.6563 537.3594,679.5469 Q537.5469,679.4375 537.7656,679.4375 Q538.1406,679.4375 538.375,679.6953 Q538.6094,679.9531 538.6094,680.5625 L538.6094,682.0156 Q538.6094,682.625 538.375,682.8906 Q538.1406,683.1563 537.7656,683.1563 Q537.4219,683.1563 537.2188,682.9531 Q537.0156,682.7656 536.9063,682.25 Q536.8594,681.8906 536.6719,681.7031 Q536.3438,681.3281 535.7344,681.1094 Q535.125,680.8906 534.5,680.8906 Q533.7344,680.8906 533.1016,681.2188 Q532.4688,681.5469 531.9766,682.2969 Q531.4844,683.0469 531.4844,684.0781 L531.4844,685.1719 Q531.4844,686.4063 532.375,687.2266 Q533.2656,688.0469 534.8594,688.0469 Q535.7969,688.0469 536.4531,687.7969 Q536.8438,687.6406 537.2656,687.2031 Q537.5313,686.9375 537.6797,686.8594 Q537.8281,686.7813 538.0313,686.7813 Q538.3594,686.7813 538.6172,687.0391 Q538.875,687.2969 538.875,687.6406 Q538.875,687.9844 538.5313,688.3906 Q538.0313,688.9688 537.2344,689.2969 Q536.1563,689.75 534.8594,689.75 Q533.3438,689.75 532.1406,689.125 Q531.1563,688.625 530.4688,687.5547 Q529.7813,686.4844 529.7813,685.2031 L529.7813,684.0469 Q529.7813,682.7188 530.3984,681.5703 Q531.0156,680.4219 532.1094,679.8047 Q533.2031,679.1875 534.4375,679.1875 Q535.1719,679.1875 535.8203,679.3516 Q536.4688,679.5156 537.0156,679.875 Z "/><text fill="#000000" font-family="sans-serif" font-size="12" lengthAdjust="spacingAndGlyphs" textLength="79" x="554.75" y="688.9102">StartController</text><line style="stroke: #A80036; stroke-width: 1.5;" x1="491" x2="665" y1="700" y2="700"/><line style="stroke: #A80036; stroke-width: 1.5;" x1="491" x2="665" y1="708" y2="708"/><ellipse cx="501" cy="720.418" fill="#84BE84" rx="3" ry="3" style="stroke: #038048; stroke-width: 1.0;"/><text fill="#000000" font-family="sans-serif" font-size="11" lengthAdjust="spacingAndGlyphs" textLength="116" x="510" y="723.4189">StartController(Session)</text><ellipse cx="501" cy="734.2539" fill="#84BE84" rx="3" ry="3" style="stroke: #038048; stroke-width: 1.0;"/><text fill="#000000" font-family="sans-serif" font-size="11" lengthAdjust="spacingAndGlyphs" textLength="150" x="510" y="737.2549">accept(ControllersVisitor): void</text><ellipse cx="501" cy="748.0898" fill="#84BE84" rx="3" ry="3" style="stroke: #038048; stroke-width: 1.0;"/><text fill="#000000" font-family="sans-serif" font-size="11" font-style="italic" lengthAdjust="spacingAndGlyphs" textLength="56" x="510" y="751.0908">start(): void</text><ellipse cx="501" cy="761.9258" fill="#84BE84" rx="3" ry="3" style="stroke: #038048; stroke-width: 1.0;"/><text fill="#000000" font-family="sans-serif" font-size="11" font-style="italic" lengthAdjust="spacingAndGlyphs" textLength="85" x="510" y="764.9268">start(String): void</text><ellipse cx="501" cy="775.7617" fill="#84BE84" rx="3" ry="3" style="stroke: #038048; stroke-width: 1.0;"/><text fill="#000000" font-family="sans-serif" font-size="11" font-style="italic" lengthAdjust="spacingAndGlyphs" textLength="135" x="510" y="778.7627">getGamesNames(): String[]</text><!--class mastermind.controllers.PlayController--><rect fill="#FEFECE" filter="url(#f2424n9acw2ac)" height="158.6875" id="mastermind.controllers.PlayController" style="stroke: #A80036; stroke-width: 1.5;" width="176" x="701" y="647"/><ellipse cx="746.25" cy="663" fill="#ADD1B2" rx="11" ry="11" style="stroke: #A80036; stroke-width: 1.0;"/><path d="M749.0156,658.875 Q749.1719,658.6563 749.3594,658.5469 Q749.5469,658.4375 749.7656,658.4375 Q750.1406,658.4375 750.375,658.6953 Q750.6094,658.9531 750.6094,659.5625 L750.6094,661.0156 Q750.6094,661.625 750.375,661.8906 Q750.1406,662.1563 749.7656,662.1563 Q749.4219,662.1563 749.2188,661.9531 Q749.0156,661.7656 748.9063,661.25 Q748.8594,660.8906 748.6719,660.7031 Q748.3438,660.3281 747.7344,660.1094 Q747.125,659.8906 746.5,659.8906 Q745.7344,659.8906 745.1016,660.2188 Q744.4688,660.5469 743.9766,661.2969 Q743.4844,662.0469 743.4844,663.0781 L743.4844,664.1719 Q743.4844,665.4063 744.375,666.2266 Q745.2656,667.0469 746.8594,667.0469 Q747.7969,667.0469 748.4531,666.7969 Q748.8438,666.6406 749.2656,666.2031 Q749.5313,665.9375 749.6797,665.8594 Q749.8281,665.7813 750.0313,665.7813 Q750.3594,665.7813 750.6172,666.0391 Q750.875,666.2969 750.875,666.6406 Q750.875,666.9844 750.5313,667.3906 Q750.0313,667.9688 749.2344,668.2969 Q748.1563,668.75 746.8594,668.75 Q745.3438,668.75 744.1406,668.125 Q743.1563,667.625 742.4688,666.5547 Q741.7813,665.4844 741.7813,664.2031 L741.7813,663.0469 Q741.7813,661.7188 742.3984,660.5703 Q743.0156,659.4219 744.1094,658.8047 Q745.2031,658.1875 746.4375,658.1875 Q747.1719,658.1875 747.8203,658.3516 Q748.4688,658.5156 749.0156,658.875 Z "/><text fill="#000000" font-family="sans-serif" font-size="12" lengthAdjust="spacingAndGlyphs" textLength="77" x="766.75" y="667.9102">PlayController</text><line style="stroke: #A80036; stroke-width: 1.5;" x1="702" x2="876" y1="679" y2="679"/><line style="stroke: #A80036; stroke-width: 1.5;" x1="702" x2="876" y1="687" y2="687"/><polygon fill="#FFFF44" points="712,694.418,716,698.418,712,702.418,708,698.418" style="stroke: #B38D22; stroke-width: 1.0;"/><text fill="#000000" font-family="sans-serif" font-size="11" lengthAdjust="spacingAndGlyphs" textLength="113" x="721" y="702.4189">PlayController(Session)</text><ellipse cx="712" cy="713.2539" fill="#84BE84" rx="3" ry="3" style="stroke: #038048; stroke-width: 1.0;"/><text fill="#000000" font-family="sans-serif" font-size="11" font-style="italic" lengthAdjust="spacingAndGlyphs" textLength="55" x="721" y="716.2549">next(): void</text><ellipse cx="712" cy="727.0898" fill="#84BE84" rx="3" ry="3" style="stroke: #038048; stroke-width: 1.0;"/><text fill="#000000" font-family="sans-serif" font-size="11" lengthAdjust="spacingAndGlyphs" textLength="150" x="721" y="730.0908">accept(ControllersVisitor): void</text><ellipse cx="712" cy="740.9258" fill="#84BE84" rx="3" ry="3" style="stroke: #038048; stroke-width: 1.0;"/><text fill="#000000" font-family="sans-serif" font-size="11" font-style="italic" lengthAdjust="spacingAndGlyphs" textLength="147" x="721" y="743.9268">proposeCombination(int[]): int</text><ellipse cx="712" cy="754.7617" fill="#84BE84" rx="3" ry="3" style="stroke: #038048; stroke-width: 1.0;"/><text fill="#000000" font-family="sans-serif" font-size="11" font-style="italic" lengthAdjust="spacingAndGlyphs" textLength="56" x="721" y="757.7627">redo(): void</text><ellipse cx="712" cy="768.5977" fill="#84BE84" rx="3" ry="3" style="stroke: #038048; stroke-width: 1.0;"/><text fill="#000000" font-family="sans-serif" font-size="11" font-style="italic" lengthAdjust="spacingAndGlyphs" textLength="100" x="721" y="771.5986">undoable(): boolean</text><ellipse cx="712" cy="782.4336" fill="#84BE84" rx="3" ry="3" style="stroke: #038048; stroke-width: 1.0;"/><text fill="#000000" font-family="sans-serif" font-size="11" font-style="italic" lengthAdjust="spacingAndGlyphs" textLength="98" x="721" y="785.4346">redoable(): boolean</text><ellipse cx="712" cy="796.2695" fill="#84BE84" rx="3" ry="3" style="stroke: #038048; stroke-width: 1.0;"/><text fill="#000000" font-family="sans-serif" font-size="11" font-style="italic" lengthAdjust="spacingAndGlyphs" textLength="58" x="721" y="799.2705">undo(): void</text><!--class mastermind.controllers.ExitController--><rect fill="#FEFECE" filter="url(#f2424n9acw2ac)" height="75.6719" id="mastermind.controllers.ExitController" style="stroke: #A80036; stroke-width: 1.5;" width="136" x="217" y="285.5"/><ellipse cx="245.95" cy="301.5" fill="#ADD1B2" rx="11" ry="11" style="stroke: #A80036; stroke-width: 1.0;"/><path d="M248.7156,297.375 Q248.8719,297.1563 249.0594,297.0469 Q249.2469,296.9375 249.4656,296.9375 Q249.8406,296.9375 250.075,297.1953 Q250.3094,297.4531 250.3094,298.0625 L250.3094,299.5156 Q250.3094,300.125 250.075,300.3906 Q249.8406,300.6563 249.4656,300.6563 Q249.1219,300.6563 248.9188,300.4531 Q248.7156,300.2656 248.6063,299.75 Q248.5594,299.3906 248.3719,299.2031 Q248.0438,298.8281 247.4344,298.6094 Q246.825,298.3906 246.2,298.3906 Q245.4344,298.3906 244.8016,298.7188 Q244.1688,299.0469 243.6766,299.7969 Q243.1844,300.5469 243.1844,301.5781 L243.1844,302.6719 Q243.1844,303.9063 244.075,304.7266 Q244.9656,305.5469 246.5594,305.5469 Q247.4969,305.5469 248.1531,305.2969 Q248.5438,305.1406 248.9656,304.7031 Q249.2313,304.4375 249.3797,304.3594 Q249.5281,304.2813 249.7313,304.2813 Q250.0594,304.2813 250.3172,304.5391 Q250.575,304.7969 250.575,305.1406 Q250.575,305.4844 250.2313,305.8906 Q249.7313,306.4688 248.9344,306.7969 Q247.8563,307.25 246.5594,307.25 Q245.0438,307.25 243.8406,306.625 Q242.8563,306.125 242.1688,305.0547 Q241.4813,303.9844 241.4813,302.7031 L241.4813,301.5469 Q241.4813,300.2188 242.0984,299.0703 Q242.7156,297.9219 243.8094,297.3047 Q244.9031,296.6875 246.1375,296.6875 Q246.8719,296.6875 247.5203,296.8516 Q248.1688,297.0156 248.7156,297.375 Z "/><text fill="#000000" font-family="sans-serif" font-size="12" lengthAdjust="spacingAndGlyphs" textLength="73" x="263.05" y="306.4102">ExitController</text><line style="stroke: #A80036; stroke-width: 1.5;" x1="218" x2="352" y1="317.5" y2="317.5"/><line style="stroke: #A80036; stroke-width: 1.5;" x1="218" x2="352" y1="325.5" y2="325.5"/><ellipse cx="228" cy="337.918" fill="#84BE84" rx="3" ry="3" style="stroke: #038048; stroke-width: 1.0;"/><text fill="#000000" font-family="sans-serif" font-size="11" lengthAdjust="spacingAndGlyphs" textLength="110" x="237" y="340.9189">ExitController(Session)</text><ellipse cx="228" cy="351.7539" fill="#84BE84" rx="3" ry="3" style="stroke: #038048; stroke-width: 1.0;"/><text fill="#000000" font-family="sans-serif" font-size="11" lengthAdjust="spacingAndGlyphs" textLength="55" x="237" y="354.7549">next(): void</text><!--class mastermind.controllers.GameController--><rect fill="#FEFECE" filter="url(#f2424n9acw2ac)" height="131.0156" id="mastermind.controllers.GameController" style="stroke: #A80036; stroke-width: 1.5;" width="180" x="733" y="456"/><ellipse cx="775" cy="472" fill="#ADD1B2" rx="11" ry="11" style="stroke: #A80036; stroke-width: 1.0;"/><path d="M777.7656,467.875 Q777.9219,467.6563 778.1094,467.5469 Q778.2969,467.4375 778.5156,467.4375 Q778.8906,467.4375 779.125,467.6953 Q779.3594,467.9531 779.3594,468.5625 L779.3594,470.0156 Q779.3594,470.625 779.125,470.8906 Q778.8906,471.1563 778.5156,471.1563 Q778.1719,471.1563 777.9688,470.9531 Q777.7656,470.7656 777.6563,470.25 Q777.6094,469.8906 777.4219,469.7031 Q777.0938,469.3281 776.4844,469.1094 Q775.875,468.8906 775.25,468.8906 Q774.4844,468.8906 773.8516,469.2188 Q773.2188,469.5469 772.7266,470.2969 Q772.2344,471.0469 772.2344,472.0781 L772.2344,473.1719 Q772.2344,474.4063 773.125,475.2266 Q774.0156,476.0469 775.6094,476.0469 Q776.5469,476.0469 777.2031,475.7969 Q777.5938,475.6406 778.0156,475.2031 Q778.2813,474.9375 778.4297,474.8594 Q778.5781,474.7813 778.7813,474.7813 Q779.1094,474.7813 779.3672,475.0391 Q779.625,475.2969 779.625,475.6406 Q779.625,475.9844 779.2813,476.3906 Q778.7813,476.9688 777.9844,477.2969 Q776.9063,477.75 775.6094,477.75 Q774.0938,477.75 772.8906,477.125 Q771.9063,476.625 771.2188,475.5547 Q770.5313,474.4844 770.5313,473.2031 L770.5313,472.0469 Q770.5313,470.7188 771.1484,469.5703 Q771.7656,468.4219 772.8594,467.8047 Q773.9531,467.1875 775.1875,467.1875 Q775.9219,467.1875 776.5703,467.3516 Q777.2188,467.5156 777.7656,467.875 Z "/><text fill="#000000" font-family="sans-serif" font-size="12" lengthAdjust="spacingAndGlyphs" textLength="88" x="795" y="476.9102">GameController</text><line style="stroke: #A80036; stroke-width: 1.5;" x1="734" x2="912" y1="488" y2="488"/><line style="stroke: #A80036; stroke-width: 1.5;" x1="734" x2="912" y1="496" y2="496"/><polygon fill="#4177AF" points="744,504.418,740,510.418,748,510.418" style="stroke: #1963A0; stroke-width: 1.0;"/><text fill="#000000" font-family="sans-serif" font-size="11" lengthAdjust="spacingAndGlyphs" textLength="121" x="753" y="511.4189">GameController(Session)</text><ellipse cx="744" cy="522.2539" fill="#84BE84" rx="3" ry="3" style="stroke: #038048; stroke-width: 1.0;"/><text fill="#000000" font-family="sans-serif" font-size="11" font-style="italic" lengthAdjust="spacingAndGlyphs" textLength="154" x="753" y="525.2549">accept(ControllersVisitor): void</text><ellipse cx="744" cy="536.0898" fill="#84BE84" rx="3" ry="3" style="stroke: #038048; stroke-width: 1.0;"/><text fill="#000000" font-family="sans-serif" font-size="11" font-style="italic" lengthAdjust="spacingAndGlyphs" textLength="104" x="753" y="539.0908">getAllCodes(): int[][][]</text><ellipse cx="744" cy="549.9258" fill="#84BE84" rx="3" ry="3" style="stroke: #038048; stroke-width: 1.0;"/><text fill="#000000" font-family="sans-serif" font-size="11" font-style="italic" lengthAdjust="spacingAndGlyphs" textLength="99" x="753" y="552.9268">isWinner(): boolean</text><ellipse cx="744" cy="563.7617" fill="#84BE84" rx="3" ry="3" style="stroke: #038048; stroke-width: 1.0;"/><text fill="#000000" font-family="sans-serif" font-size="11" font-style="italic" lengthAdjust="spacingAndGlyphs" textLength="97" x="753" y="566.7627">isLooser(): boolean</text><ellipse cx="744" cy="577.5977" fill="#84BE84" rx="3" ry="3" style="stroke: #038048; stroke-width: 1.0;"/><text fill="#000000" font-family="sans-serif" font-size="11" font-style="italic" lengthAdjust="spacingAndGlyphs" textLength="64" x="753" y="580.5986">getTurn(): int</text><!--class mastermind.controllers.Logic--><rect fill="#FEFECE" filter="url(#f2424n9acw2ac)" height="103.3438" id="mastermind.controllers.Logic" style="stroke: #A80036; stroke-width: 1.5;" width="309" x="638.5" y="74"/><ellipse cx="773.75" cy="90" fill="#ADD1B2" rx="11" ry="11" style="stroke: #A80036; stroke-width: 1.0;"/><path d="M776.5156,85.875 Q776.6719,85.6563 776.8594,85.5469 Q777.0469,85.4375 777.2656,85.4375 Q777.6406,85.4375 777.875,85.6953 Q778.1094,85.9531 778.1094,86.5625 L778.1094,88.0156 Q778.1094,88.625 777.875,88.8906 Q777.6406,89.1563 777.2656,89.1563 Q776.9219,89.1563 776.7188,88.9531 Q776.5156,88.7656 776.4063,88.25 Q776.3594,87.8906 776.1719,87.7031 Q775.8438,87.3281 775.2344,87.1094 Q774.625,86.8906 774,86.8906 Q773.2344,86.8906 772.6016,87.2188 Q771.9688,87.5469 771.4766,88.2969 Q770.9844,89.0469 770.9844,90.0781 L770.9844,91.1719 Q770.9844,92.4063 771.875,93.2266 Q772.7656,94.0469 774.3594,94.0469 Q775.2969,94.0469 775.9531,93.7969 Q776.3438,93.6406 776.7656,93.2031 Q777.0313,92.9375 777.1797,92.8594 Q777.3281,92.7813 777.5313,92.7813 Q777.8594,92.7813 778.1172,93.0391 Q778.375,93.2969 778.375,93.6406 Q778.375,93.9844 778.0313,94.3906 Q777.5313,94.9688 776.7344,95.2969 Q775.6563,95.75 774.3594,95.75 Q772.8438,95.75 771.6406,95.125 Q770.6563,94.625 769.9688,93.5547 Q769.2813,92.4844 769.2813,91.2031 L769.2813,90.0469 Q769.2813,88.7188 769.8984,87.5703 Q770.5156,86.4219 771.6094,85.8047 Q772.7031,85.1875 773.9375,85.1875 Q774.6719,85.1875 775.3203,85.3516 Q775.9688,85.5156 776.5156,85.875 Z "/><text fill="#000000" font-family="sans-serif" font-size="12" lengthAdjust="spacingAndGlyphs" textLength="30" x="794.25" y="94.9102">Logic</text><line style="stroke: #A80036; stroke-width: 1.5;" x1="639.5" x2="946.5" y1="106" y2="106"/><polygon fill="none" points="649.5,113.418,653.5,117.418,649.5,121.418,645.5,117.418" style="stroke: #B38D22; stroke-width: 1.0;"/><text fill="#000000" font-family="sans-serif" font-size="11" lengthAdjust="spacingAndGlyphs" textLength="83" x="658.5" y="121.4189">session: Session</text><polygon fill="none" points="649.5,127.2539,653.5,131.2539,649.5,135.2539,645.5,131.2539" style="stroke: #B38D22; stroke-width: 1.0;"/><text fill="#000000" font-family="sans-serif" font-size="11" lengthAdjust="spacingAndGlyphs" textLength="283" x="658.5" y="135.2549">acceptorControllers: Map&lt;StateValue, AcceptorController&gt;</text><line style="stroke: #A80036; stroke-width: 1.5;" x1="639.5" x2="946.5" y1="141.6719" y2="141.6719"/><polygon fill="#FFFF44" points="649.5,149.0898,653.5,153.0898,649.5,157.0898,645.5,153.0898" style="stroke: #B38D22; stroke-width: 1.0;"/><text fill="#000000" font-family="sans-serif" font-size="11" lengthAdjust="spacingAndGlyphs" textLength="34" x="658.5" y="157.0908">Logic()</text><ellipse cx="649.5" cy="167.9258" fill="#84BE84" rx="3" ry="3" style="stroke: #038048; stroke-width: 1.0;"/><text fill="#000000" font-family="sans-serif" font-size="11" lengthAdjust="spacingAndGlyphs" textLength="166" x="658.5" y="170.9268">getController(): AcceptorController</text><!--class mastermind.controllers.ProposalController--><rect fill="#FEFECE" filter="url(#f2424n9acw2ac)" height="144.8516" id="mastermind.controllers.ProposalController" style="stroke: #A80036; stroke-width: 1.5;" width="166" x="388" y="251"/><ellipse cx="416.5" cy="267" fill="#ADD1B2" rx="11" ry="11" style="stroke: #A80036; stroke-width: 1.0;"/><path d="M419.2656,262.875 Q419.4219,262.6563 419.6094,262.5469 Q419.7969,262.4375 420.0156,262.4375 Q420.3906,262.4375 420.625,262.6953 Q420.8594,262.9531 420.8594,263.5625 L420.8594,265.0156 Q420.8594,265.625 420.625,265.8906 Q420.3906,266.1563 420.0156,266.1563 Q419.6719,266.1563 419.4688,265.9531 Q419.2656,265.7656 419.1563,265.25 Q419.1094,264.8906 418.9219,264.7031 Q418.5938,264.3281 417.9844,264.1094 Q417.375,263.8906 416.75,263.8906 Q415.9844,263.8906 415.3516,264.2188 Q414.7188,264.5469 414.2266,265.2969 Q413.7344,266.0469 413.7344,267.0781 L413.7344,268.1719 Q413.7344,269.4063 414.625,270.2266 Q415.5156,271.0469 417.1094,271.0469 Q418.0469,271.0469 418.7031,270.7969 Q419.0938,270.6406 419.5156,270.2031 Q419.7813,269.9375 419.9297,269.8594 Q420.0781,269.7813 420.2813,269.7813 Q420.6094,269.7813 420.8672,270.0391 Q421.125,270.2969 421.125,270.6406 Q421.125,270.9844 420.7813,271.3906 Q420.2813,271.9688 419.4844,272.2969 Q418.4063,272.75 417.1094,272.75 Q415.5938,272.75 414.3906,272.125 Q413.4063,271.625 412.7188,270.5547 Q412.0313,269.4844 412.0313,268.2031 L412.0313,267.0469 Q412.0313,265.7188 412.6484,264.5703 Q413.2656,263.4219 414.3594,262.8047 Q415.4531,262.1875 416.6875,262.1875 Q417.4219,262.1875 418.0703,262.3516 Q418.7188,262.5156 419.2656,262.875 Z "/><text fill="#000000" font-family="sans-serif" font-size="12" lengthAdjust="spacingAndGlyphs" textLength="104" x="433.5" y="271.9102">ProposalController</text><line style="stroke: #A80036; stroke-width: 1.5;" x1="389" x2="553" y1="283" y2="283"/><ellipse cx="399" cy="295.418" fill="none" rx="3" ry="3" style="stroke: #038048; stroke-width: 1.0;"/><text fill="#000000" font-family="sans-serif" font-size="11" lengthAdjust="spacingAndGlyphs" text-decoration="underline" textLength="73" x="408" y="298.4189">NO_ERROR: int</text><line style="stroke: #A80036; stroke-width: 1.5;" x1="389" x2="553" y1="304.8359" y2="304.8359"/><ellipse cx="399" cy="317.2539" fill="#84BE84" rx="3" ry="3" style="stroke: #038048; stroke-width: 1.0;"/><text fill="#000000" font-family="sans-serif" font-size="11" lengthAdjust="spacingAndGlyphs" textLength="135" x="408" y="320.2549">ProposalController(Session)</text><ellipse cx="399" cy="331.0898" fill="#84BE84" rx="3" ry="3" style="stroke: #038048; stroke-width: 1.0;"/><text fill="#000000" font-family="sans-serif" font-size="11" lengthAdjust="spacingAndGlyphs" textLength="140" x="408" y="334.0908">proposeCombination(int[]): int</text><ellipse cx="399" cy="344.9258" fill="#84BE84" rx="3" ry="3" style="stroke: #038048; stroke-width: 1.0;"/><text fill="#000000" font-family="sans-serif" font-size="11" lengthAdjust="spacingAndGlyphs" textLength="101" x="408" y="347.9268">getAllCodes(): int[][][]</text><ellipse cx="399" cy="358.7617" fill="#84BE84" rx="3" ry="3" style="stroke: #038048; stroke-width: 1.0;"/><text fill="#000000" font-family="sans-serif" font-size="11" lengthAdjust="spacingAndGlyphs" textLength="94" x="408" y="361.7627">isWinner(): boolean</text><ellipse cx="399" cy="372.5977" fill="#84BE84" rx="3" ry="3" style="stroke: #038048; stroke-width: 1.0;"/><text fill="#000000" font-family="sans-serif" font-size="11" lengthAdjust="spacingAndGlyphs" textLength="94" x="408" y="375.5986">isLooser(): boolean</text><ellipse cx="399" cy="386.4336" fill="#84BE84" rx="3" ry="3" style="stroke: #038048; stroke-width: 1.0;"/><text fill="#000000" font-family="sans-serif" font-size="11" lengthAdjust="spacingAndGlyphs" textLength="62" x="408" y="389.4346">getTurn(): int</text><!--class mastermind.controllers.RedoController--><rect fill="#FEFECE" filter="url(#f2424n9acw2ac)" height="89.5078" id="mastermind.controllers.RedoController" style="stroke: #A80036; stroke-width: 1.5;" width="144" x="589" y="278.5"/><ellipse cx="616.6" cy="294.5" fill="#ADD1B2" rx="11" ry="11" style="stroke: #A80036; stroke-width: 1.0;"/><path d="M619.3656,290.375 Q619.5219,290.1563 619.7094,290.0469 Q619.8969,289.9375 620.1156,289.9375 Q620.4906,289.9375 620.725,290.1953 Q620.9594,290.4531 620.9594,291.0625 L620.9594,292.5156 Q620.9594,293.125 620.725,293.3906 Q620.4906,293.6563 620.1156,293.6563 Q619.7719,293.6563 619.5688,293.4531 Q619.3656,293.2656 619.2563,292.75 Q619.2094,292.3906 619.0219,292.2031 Q618.6938,291.8281 618.0844,291.6094 Q617.475,291.3906 616.85,291.3906 Q616.0844,291.3906 615.4516,291.7188 Q614.8188,292.0469 614.3266,292.7969 Q613.8344,293.5469 613.8344,294.5781 L613.8344,295.6719 Q613.8344,296.9063 614.725,297.7266 Q615.6156,298.5469 617.2094,298.5469 Q618.1469,298.5469 618.8031,298.2969 Q619.1938,298.1406 619.6156,297.7031 Q619.8813,297.4375 620.0297,297.3594 Q620.1781,297.2813 620.3813,297.2813 Q620.7094,297.2813 620.9672,297.5391 Q621.225,297.7969 621.225,298.1406 Q621.225,298.4844 620.8813,298.8906 Q620.3813,299.4688 619.5844,299.7969 Q618.5063,300.25 617.2094,300.25 Q615.6938,300.25 614.4906,299.625 Q613.5063,299.125 612.8188,298.0547 Q612.1313,296.9844 612.1313,295.7031 L612.1313,294.5469 Q612.1313,293.2188 612.7484,292.0703 Q613.3656,290.9219 614.4594,290.3047 Q615.5531,289.6875 616.7875,289.6875 Q617.5219,289.6875 618.1703,289.8516 Q618.8188,290.0156 619.3656,290.375 Z "/><text fill="#000000" font-family="sans-serif" font-size="12" lengthAdjust="spacingAndGlyphs" textLength="84" x="633.4" y="299.4102">RedoController</text><line style="stroke: #A80036; stroke-width: 1.5;" x1="590" x2="732" y1="310.5" y2="310.5"/><line style="stroke: #A80036; stroke-width: 1.5;" x1="590" x2="732" y1="318.5" y2="318.5"/><ellipse cx="600" cy="330.918" fill="#84BE84" rx="3" ry="3" style="stroke: #038048; stroke-width: 1.0;"/><text fill="#000000" font-family="sans-serif" font-size="11" lengthAdjust="spacingAndGlyphs" textLength="118" x="609" y="333.9189">RedoController(Session)</text><ellipse cx="600" cy="344.7539" fill="#84BE84" rx="3" ry="3" style="stroke: #038048; stroke-width: 1.0;"/><text fill="#000000" font-family="sans-serif" font-size="11" lengthAdjust="spacingAndGlyphs" textLength="56" x="609" y="347.7549">redo(): void</text><ellipse cx="600" cy="358.5898" fill="#84BE84" rx="3" ry="3" style="stroke: #038048; stroke-width: 1.0;"/><text fill="#000000" font-family="sans-serif" font-size="11" lengthAdjust="spacingAndGlyphs" textLength="94" x="609" y="361.5908">redoable(): boolean</text><!--class mastermind.controllers.UndoController--><rect fill="#FEFECE" filter="url(#f2424n9acw2ac)" height="89.5078" id="mastermind.controllers.UndoController" style="stroke: #A80036; stroke-width: 1.5;" width="144" x="38" y="278.5"/><ellipse cx="65.6" cy="294.5" fill="#ADD1B2" rx="11" ry="11" style="stroke: #A80036; stroke-width: 1.0;"/><path d="M68.3656,290.375 Q68.5219,290.1563 68.7094,290.0469 Q68.8969,289.9375 69.1156,289.9375 Q69.4906,289.9375 69.725,290.1953 Q69.9594,290.4531 69.9594,291.0625 L69.9594,292.5156 Q69.9594,293.125 69.725,293.3906 Q69.4906,293.6563 69.1156,293.6563 Q68.7719,293.6563 68.5688,293.4531 Q68.3656,293.2656 68.2563,292.75 Q68.2094,292.3906 68.0219,292.2031 Q67.6938,291.8281 67.0844,291.6094 Q66.475,291.3906 65.85,291.3906 Q65.0844,291.3906 64.4516,291.7188 Q63.8187,292.0469 63.3266,292.7969 Q62.8344,293.5469 62.8344,294.5781 L62.8344,295.6719 Q62.8344,296.9063 63.725,297.7266 Q64.6156,298.5469 66.2094,298.5469 Q67.1469,298.5469 67.8031,298.2969 Q68.1938,298.1406 68.6156,297.7031 Q68.8813,297.4375 69.0297,297.3594 Q69.1781,297.2813 69.3813,297.2813 Q69.7094,297.2813 69.9672,297.5391 Q70.225,297.7969 70.225,298.1406 Q70.225,298.4844 69.8813,298.8906 Q69.3813,299.4688 68.5844,299.7969 Q67.5063,300.25 66.2094,300.25 Q64.6938,300.25 63.4906,299.625 Q62.5062,299.125 61.8187,298.0547 Q61.1312,296.9844 61.1312,295.7031 L61.1312,294.5469 Q61.1312,293.2188 61.7484,292.0703 Q62.3656,290.9219 63.4594,290.3047 Q64.5531,289.6875 65.7875,289.6875 Q66.5219,289.6875 67.1703,289.8516 Q67.8188,290.0156 68.3656,290.375 Z "/><text fill="#000000" font-family="sans-serif" font-size="12" lengthAdjust="spacingAndGlyphs" textLength="84" x="82.4" y="299.4102">UndoController</text><line style="stroke: #A80036; stroke-width: 1.5;" x1="39" x2="181" y1="310.5" y2="310.5"/><line style="stroke: #A80036; stroke-width: 1.5;" x1="39" x2="181" y1="318.5" y2="318.5"/><ellipse cx="49" cy="330.918" fill="#84BE84" rx="3" ry="3" style="stroke: #038048; stroke-width: 1.0;"/><text fill="#000000" font-family="sans-serif" font-size="11" lengthAdjust="spacingAndGlyphs" textLength="118" x="58" y="333.9189">UndoController(Session)</text><ellipse cx="49" cy="344.7539" fill="#84BE84" rx="3" ry="3" style="stroke: #038048; stroke-width: 1.0;"/><text fill="#000000" font-family="sans-serif" font-size="11" lengthAdjust="spacingAndGlyphs" textLength="96" x="58" y="347.7549">undoable(): boolean</text><ellipse cx="49" cy="358.5898" fill="#84BE84" rx="3" ry="3" style="stroke: #038048; stroke-width: 1.0;"/><text fill="#000000" font-family="sans-serif" font-size="11" lengthAdjust="spacingAndGlyphs" textLength="58" x="58" y="361.5908">undo(): void</text><!--class mastermind.models.Session--><rect fill="#FEFECE" filter="url(#f2424n9acw2ac)" height="48" id="mastermind.models.Session" style="stroke: #A80036; stroke-width: 1.5;" width="78" x="913" y="882"/><ellipse cx="928" cy="898" fill="#ADD1B2" rx="11" ry="11" style="stroke: #A80036; stroke-width: 1.0;"/><path d="M930.7656,893.875 Q930.9219,893.6563 931.1094,893.5469 Q931.2969,893.4375 931.5156,893.4375 Q931.8906,893.4375 932.125,893.6953 Q932.3594,893.9531 932.3594,894.5625 L932.3594,896.0156 Q932.3594,896.625 932.125,896.8906 Q931.8906,897.1563 931.5156,897.1563 Q931.1719,897.1563 930.9688,896.9531 Q930.7656,896.7656 930.6563,896.25 Q930.6094,895.8906 930.4219,895.7031 Q930.0938,895.3281 929.4844,895.1094 Q928.875,894.8906 928.25,894.8906 Q927.4844,894.8906 926.8516,895.2188 Q926.2188,895.5469 925.7266,896.2969 Q925.2344,897.0469 925.2344,898.0781 L925.2344,899.1719 Q925.2344,900.4063 926.125,901.2266 Q927.0156,902.0469 928.6094,902.0469 Q929.5469,902.0469 930.2031,901.7969 Q930.5938,901.6406 931.0156,901.2031 Q931.2813,900.9375 931.4297,900.8594 Q931.5781,900.7813 931.7813,900.7813 Q932.1094,900.7813 932.3672,901.0391 Q932.625,901.2969 932.625,901.6406 Q932.625,901.9844 932.2813,902.3906 Q931.7813,902.9688 930.9844,903.2969 Q929.9063,903.75 928.6094,903.75 Q927.0938,903.75 925.8906,903.125 Q924.9063,902.625 924.2188,901.5547 Q923.5313,900.4844 923.5313,899.2031 L923.5313,898.0469 Q923.5313,896.7188 924.1484,895.5703 Q924.7656,894.4219 925.8594,893.8047 Q926.9531,893.1875 928.1875,893.1875 Q928.9219,893.1875 929.5703,893.3516 Q930.2188,893.5156 930.7656,893.875 Z "/><text fill="#000000" font-family="sans-serif" font-size="12" lengthAdjust="spacingAndGlyphs" textLength="46" x="942" y="902.9102">Session</text><line style="stroke: #A80036; stroke-width: 1.5;" x1="914" x2="990" y1="914" y2="914"/><line style="stroke: #A80036; stroke-width: 1.5;" x1="914" x2="990" y1="922" y2="922"/><!--class mastermind.models.StateValue--><rect fill="#FEFECE" filter="url(#f2424n9acw2ac)" height="48" id="mastermind.models.StateValue" style="stroke: #A80036; stroke-width: 1.5;" width="91" x="1026.5" y="882"/><ellipse cx="1041.5" cy="898" fill="#ADD1B2" rx="11" ry="11" style="stroke: #A80036; stroke-width: 1.0;"/><path d="M1044.2656,893.875 Q1044.4219,893.6563 1044.6094,893.5469 Q1044.7969,893.4375 1045.0156,893.4375 Q1045.3906,893.4375 1045.625,893.6953 Q1045.8594,893.9531 1045.8594,894.5625 L1045.8594,896.0156 Q1045.8594,896.625 1045.625,896.8906 Q1045.3906,897.1563 1045.0156,897.1563 Q1044.6719,897.1563 1044.4688,896.9531 Q1044.2656,896.7656 1044.1563,896.25 Q1044.1094,895.8906 1043.9219,895.7031 Q1043.5938,895.3281 1042.9844,895.1094 Q1042.375,894.8906 1041.75,894.8906 Q1040.9844,894.8906 1040.3516,895.2188 Q1039.7188,895.5469 1039.2266,896.2969 Q1038.7344,897.0469 1038.7344,898.0781 L1038.7344,899.1719 Q1038.7344,900.4063 1039.625,901.2266 Q1040.5156,902.0469 1042.1094,902.0469 Q1043.0469,902.0469 1043.7031,901.7969 Q1044.0938,901.6406 1044.5156,901.2031 Q1044.7813,900.9375 1044.9297,900.8594 Q1045.0781,900.7813 1045.2813,900.7813 Q1045.6094,900.7813 1045.8672,901.0391 Q1046.125,901.2969 1046.125,901.6406 Q1046.125,901.9844 1045.7813,902.3906 Q1045.2813,902.9688 1044.4844,903.2969 Q1043.4063,903.75 1042.1094,903.75 Q1040.5938,903.75 1039.3906,903.125 Q1038.4063,902.625 1037.7188,901.5547 Q1037.0313,900.4844 1037.0313,899.2031 L1037.0313,898.0469 Q1037.0313,896.7188 1037.6484,895.5703 Q1038.2656,894.4219 1039.3594,893.8047 Q1040.4531,893.1875 1041.6875,893.1875 Q1042.4219,893.1875 1043.0703,893.3516 Q1043.7188,893.5156 1044.2656,893.875 Z "/><text fill="#000000" font-family="sans-serif" font-size="12" lengthAdjust="spacingAndGlyphs" textLength="59" x="1055.5" y="902.9102">StateValue</text><line style="stroke: #A80036; stroke-width: 1.5;" x1="1027.5" x2="1116.5" y1="914" y2="914"/><line style="stroke: #A80036; stroke-width: 1.5;" x1="1027.5" x2="1116.5" y1="922" y2="922"/><!--class java.util.Map--><rect fill="#FEFECE" filter="url(#f2424n9acw2ac)" height="48" id="java.util.Map" style="stroke: #A80036; stroke-width: 1.5;" width="55" x="1267.5" y="299.5"/><ellipse cx="1282.5" cy="315.5" fill="#ADD1B2" rx="11" ry="11" style="stroke: #A80036; stroke-width: 1.0;"/><path d="M1285.2656,311.375 Q1285.4219,311.1563 1285.6094,311.0469 Q1285.7969,310.9375 1286.0156,310.9375 Q1286.3906,310.9375 1286.625,311.1953 Q1286.8594,311.4531 1286.8594,312.0625 L1286.8594,313.5156 Q1286.8594,314.125 1286.625,314.3906 Q1286.3906,314.6563 1286.0156,314.6563 Q1285.6719,314.6563 1285.4688,314.4531 Q1285.2656,314.2656 1285.1563,313.75 Q1285.1094,313.3906 1284.9219,313.2031 Q1284.5938,312.8281 1283.9844,312.6094 Q1283.375,312.3906 1282.75,312.3906 Q1281.9844,312.3906 1281.3516,312.7188 Q1280.7188,313.0469 1280.2266,313.7969 Q1279.7344,314.5469 1279.7344,315.5781 L1279.7344,316.6719 Q1279.7344,317.9063 1280.625,318.7266 Q1281.5156,319.5469 1283.1094,319.5469 Q1284.0469,319.5469 1284.7031,319.2969 Q1285.0938,319.1406 1285.5156,318.7031 Q1285.7813,318.4375 1285.9297,318.3594 Q1286.0781,318.2813 1286.2813,318.2813 Q1286.6094,318.2813 1286.8672,318.5391 Q1287.125,318.7969 1287.125,319.1406 Q1287.125,319.4844 1286.7813,319.8906 Q1286.2813,320.4688 1285.4844,320.7969 Q1284.4063,321.25 1283.1094,321.25 Q1281.5938,321.25 1280.3906,320.625 Q1279.4063,320.125 1278.7188,319.0547 Q1278.0313,317.9844 1278.0313,316.7031 L1278.0313,315.5469 Q1278.0313,314.2188 1278.6484,313.0703 Q1279.2656,311.9219 1280.3594,311.3047 Q1281.4531,310.6875 1282.6875,310.6875 Q1283.4219,310.6875 1284.0703,310.8516 Q1284.7188,311.0156 1285.2656,311.375 Z "/><text fill="#000000" font-family="sans-serif" font-size="12" lengthAdjust="spacingAndGlyphs" textLength="23" x="1296.5" y="320.4102">Map</text><line style="stroke: #A80036; stroke-width: 1.5;" x1="1268.5" x2="1321.5" y1="331.5" y2="331.5"/><line style="stroke: #A80036; stroke-width: 1.5;" x1="1268.5" x2="1321.5" y1="339.5" y2="339.5"/><!--link mastermind.controllers.Controller to mastermind.controllers.AcceptorController--><path d="M620.733,190.851 C620.822,190.901 620.911,190.95 621,191 C676.224,221.798 694.817,220.128 750,251 C768.545,261.375 788.115,273.833 805.427,285.423 " fill="none" id="mastermind.controllers.Controller-mastermind.controllers.AcceptorController" style="stroke: #A80036; stroke-width: 1.0;"/><polygon fill="none" points="617.472,197.053,603.714,180.937,624.519,184.956,617.472,197.053" style="stroke: #A80036; stroke-width: 1.0;"/><!--link mastermind.controllers.AcceptorController to mastermind.controllers.ControllersVisitor--><path d="M805.005,361.597 C762.529,391.33 702.349,433.456 654.624,466.863 " fill="none" id="mastermind.controllers.AcceptorController-mastermind.controllers.ControllersVisitor" style="stroke: #A80036; stroke-width: 1.0; stroke-dasharray: 7.0,7.0;"/><polygon fill="#A80036" points="650.337,469.864,660.0039,467.9795,654.4331,466.9966,655.416,461.4258,650.337,469.864" style="stroke: #A80036; stroke-width: 1.0;"/><!--link mastermind.controllers.Controller to mastermind.models.Session--><path d="M615.584,188.75 C617.389,189.534 619.195,190.285 621,191 C765.697,248.315 865.82,131.894 966,251 C1120.74,434.969 1010.02,761.829 967.033,869.511 " fill="none" id="mastermind.controllers.Controller-mastermind.models.Session" style="stroke: #A80036; stroke-width: 1.0;"/><polygon fill="#A80036" points="962.032,881.8147,969.1265,874.9832,963.9147,877.1827,961.7152,871.9709,962.032,881.8147" style="stroke: #A80036; stroke-width: 1.0;"/><line style="stroke: #A80036; stroke-width: 1.0;" x1="963.9147" x2="966.927" y1="877.1827" y2="869.7714"/><polygon fill="#A80036" points="603.714,183.146,607.432,189.3247,614.5655,188.2691,610.8474,182.0904,603.714,183.146" style="stroke: #A80036; stroke-width: 1.0;"/><!--link mastermind.controllers.Controller to mastermind.models.StateValue--><path d="M603.648,183.315 C609.384,186.182 615.196,188.785 621,191 C791.004,255.882 899.311,120.382 1026,251 C1113.56,341.28 1084.23,763.053 1074.57,876.7196 " fill="none" id="mastermind.controllers.Controller-mastermind.models.StateValue" style="stroke: #A80036; stroke-width: 1.0; stroke-dasharray: 7.0,7.0;"/><polygon fill="#A80036" points="1074.12,881.8968,1078.877,873.2729,1074.5487,876.9152,1070.9064,872.587,1074.12,881.8968" style="stroke: #A80036; stroke-width: 1.0;"/><!--link mastermind.controllers.ControllersVisitor to mastermind.controllers.ResumeController--><path d="M492.798,549.01 C427.338,571.005 335.774,605.36 261,647 C244.823,656.008 228.324,667.219 213.342,678.322 " fill="none" id="mastermind.controllers.ControllersVisitor-mastermind.controllers.ResumeController" style="stroke: #A80036; stroke-width: 1.0; stroke-dasharray: 7.0,7.0;"/><polygon fill="#A80036" points="209.158,681.449,218.7611,679.2627,213.1623,678.4547,213.9703,672.8559,209.158,681.449" style="stroke: #A80036; stroke-width: 1.0;"/><!--link mastermind.controllers.ControllersVisitor to mastermind.controllers.SaveController--><path d="M525.3,573.202 C501.217,596.372 472.189,624.3 445.602,649.878 " fill="none" id="mastermind.controllers.ControllersVisitor-mastermind.controllers.SaveController" style="stroke: #A80036; stroke-width: 1.0; stroke-dasharray: 7.0,7.0;"/><polygon fill="#A80036" points="441.698,653.634,450.9572,650.2774,445.3014,650.1677,445.4111,644.5119,441.698,653.634" style="stroke: #A80036; stroke-width: 1.0;"/><!--link mastermind.controllers.ControllersVisitor to mastermind.controllers.StartController--><path d="M566.791,573.202 C564.997,600.288 564.769,633.876 566.108,662.612 " fill="none" id="mastermind.controllers.ControllersVisitor-mastermind.controllers.StartController" style="stroke: #A80036; stroke-width: 1.0; stroke-dasharray: 7.0,7.0;"/><polygon fill="#A80036" points="566.376,667.919,569.9158,658.7283,566.1232,662.9254,561.926,659.1328,566.376,667.919" style="stroke: #A80036; stroke-width: 1.0;"/><!--link mastermind.controllers.StartController to mastermind.controllers.ControllersVisitor--><path d="M590.307,667.919 C591.931,639.831 591.897,606.184 590.204,578.332 " fill="none" id="mastermind.controllers.StartController-mastermind.controllers.ControllersVisitor" style="stroke: #A80036; stroke-width: 1.0; stroke-dasharray: 7.0,7.0;"/><polygon fill="#A80036" points="589.868,573.202,586.4627,582.4434,590.1937,578.1914,594.4457,581.9223,589.868,573.202" style="stroke: #A80036; stroke-width: 1.0;"/><!--link mastermind.controllers.ControllersVisitor to mastermind.controllers.PlayController--><path d="M619.491,573.202 C641.712,596.036 669.85,623.491 696.834,648.765 " fill="none" id="mastermind.controllers.ControllersVisitor-mastermind.controllers.PlayController" style="stroke: #A80036; stroke-width: 1.0; stroke-dasharray: 7.0,7.0;"/><polygon fill="#A80036" points="700.806,652.477,696.9623,643.4091,697.1532,649.0628,691.4996,649.2536,700.806,652.477" style="stroke: #A80036; stroke-width: 1.0;"/><!--link mastermind.controllers.PlayController to mastermind.controllers.ControllersVisitor--><path d="M720.228,646.639 C696.515,623.212 670.036,598.09 646.346,576.616 " fill="none" id="mastermind.controllers.PlayController-mastermind.controllers.ControllersVisitor" style="stroke: #A80036; stroke-width: 1.0; stroke-dasharray: 7.0,7.0;"/><polygon fill="#A80036" points="642.568,573.202,646.5633,582.2041,646.2776,576.5545,651.9272,576.2688,642.568,573.202" style="stroke: #A80036; stroke-width: 1.0;"/><!--link mastermind.controllers.Controller to mastermind.controllers.ExitController--><path d="M427.249,204.016 C408.234,219.522 388.449,235.736 370,251 C356.628,262.063 342.153,274.185 329.002,285.253 " fill="none" id="mastermind.controllers.Controller-mastermind.controllers.ExitController" style="stroke: #A80036; stroke-width: 1.0;"/><polygon fill="none" points="423.066,198.395,442.994,191.194,431.906,209.251,423.066,198.395" style="stroke: #A80036; stroke-width: 1.0;"/><!--link mastermind.controllers.AcceptorController to mastermind.controllers.GameController--><path d="M847.811,381.559 C843.652,404.85 838.821,431.902 834.533,455.914 " fill="none" id="mastermind.controllers.AcceptorController-mastermind.controllers.GameController" style="stroke: #A80036; stroke-width: 1.0;"/><polygon fill="none" points="840.927,380.285,851.334,361.827,854.709,382.747,840.927,380.285" style="stroke: #A80036; stroke-width: 1.0;"/><!--link mastermind.controllers.GameController to mastermind.models.Session--><path d="M865.412,587.166 C876.289,605.89 887.127,626.754 895,647 C926.2,727.231 942.287,828.476 948.653,876.8123 " fill="none" id="mastermind.controllers.GameController-mastermind.models.Session" style="stroke: #A80036; stroke-width: 1.0; stroke-dasharray: 7.0,7.0;"/><polygon fill="#A80036" points="949.31,881.8817,952.1194,872.442,948.667,876.9232,944.1858,873.4708,949.31,881.8817" style="stroke: #A80036; stroke-width: 1.0;"/><!--link mastermind.controllers.Logic to mastermind.models.Session--><path d="M960.009,156.239 C1013.12,174.44 1066.26,203.765 1098,251 C1177.71,369.634 1163.68,652.923 1027,830 C1021.65,836.93 1016.01,832.757 1009,838 C996.546,847.313 984.981,859.817 975.568,871.5012 " fill="none" id="mastermind.controllers.Logic-mastermind.models.Session" style="stroke: #A80036; stroke-width: 1.0;"/><polygon fill="#A80036" points="967.565,881.8856,976.2271,877.1985,970.6171,877.9252,969.8904,872.3152,967.565,881.8856" style="stroke: #A80036; stroke-width: 1.0;"/><line style="stroke: #A80036; stroke-width: 1.0;" x1="970.6171" x2="975.501" y1="877.9252" y2="871.5886"/><polygon fill="#A80036" points="947.608,152.185,952.0678,157.8516,959.0138,155.9144,954.554,150.2478,947.608,152.185" style="stroke: #A80036; stroke-width: 1.0;"/><!--link mastermind.controllers.Logic to mastermind.models.StateValue--><path d="M960.621,146.172 C1028.52,162.955 1101.29,193.928 1146,251 C1295.28,441.578 1146.8,764.639 1091.15,870.3754 " fill="none" id="mastermind.controllers.Logic-mastermind.models.StateValue" style="stroke: #A80036; stroke-width: 1.0;"/><polygon fill="#A80036" points="1085.01,881.8911,1092.7798,875.8388,1087.3667,877.4813,1085.7241,872.0682,1085.01,881.8911" style="stroke: #A80036; stroke-width: 1.0;"/><line style="stroke: #A80036; stroke-width: 1.0;" x1="1087.3667" x2="1091.13" y1="877.4813" y2="870.4232"/><polygon fill="#A80036" points="947.564,143.1,952.489,148.3673,959.2454,145.8469,954.3203,140.5797,947.564,143.1" style="stroke: #A80036; stroke-width: 1.0;"/><!--link mastermind.controllers.Logic to java.util.Map--><path d="M960.608,147.057 C1049.47,164.117 1157.09,195.08 1240,251 C1254.06,260.482 1266.06,274.735 1275.24,288.026 " fill="none" id="mastermind.controllers.Logic-java.util.Map" style="stroke: #A80036; stroke-width: 1.0;"/><polygon fill="#A80036" points="1282.55,299.314,1281.0092,289.5864,1279.8295,295.1189,1274.297,293.9392,1282.55,299.314" style="stroke: #A80036; stroke-width: 1.0;"/><line style="stroke: #A80036; stroke-width: 1.0;" x1="1279.8295" x2="1275.485" y1="295.1189" y2="288.404"/><polygon fill="#A80036" points="947.638,144.639,952.8032,149.671,959.4347,146.8385,954.2695,141.8065,947.638,144.639" style="stroke: #A80036; stroke-width: 1.0;"/><!--link mastermind.controllers.Logic to mastermind.controllers.AcceptorController--><path d="M809.824,177.23 C820.464,209.314 834.052,250.288 844.083,280.535 " fill="none" id="mastermind.controllers.Logic-mastermind.controllers.AcceptorController" style="stroke: #A80036; stroke-width: 1.0;"/><polygon fill="#A80036" points="845.661,285.294,846.6274,275.4927,844.0884,280.5477,839.0334,278.0088,845.661,285.294" style="stroke: #A80036; stroke-width: 1.0;"/><!--link mastermind.controllers.GameController to mastermind.controllers.PlayController--><path d="M808.888,606.756 C806.661,620.054 804.365,633.759 802.161,646.922 " fill="none" id="mastermind.controllers.GameController-mastermind.controllers.PlayController" style="stroke: #A80036; stroke-width: 1.0;"/><polygon fill="none" points="801.988,605.578,812.195,587.009,815.795,607.891,801.988,605.578" style="stroke: #A80036; stroke-width: 1.0;"/><!--link mastermind.controllers.Controller to mastermind.controllers.ProposalController--><path d="M500.594,210.954 C497.076,224.212 493.47,237.807 490.037,250.744 " fill="none" id="mastermind.controllers.Controller-mastermind.controllers.ProposalController" style="stroke: #A80036; stroke-width: 1.0;"/><polygon fill="none" points="493.934,208.757,505.829,191.221,507.466,212.347,493.934,208.757" style="stroke: #A80036; stroke-width: 1.0;"/><!--link mastermind.controllers.Controller to mastermind.controllers.RedoController--><path d="M580.139,207.653 C597.156,231.823 615.165,257.402 629.858,278.269 " fill="none" id="mastermind.controllers.Controller-mastermind.controllers.RedoController" style="stroke: #A80036; stroke-width: 1.0;"/><polygon fill="none" points="574.359,211.604,568.569,191.221,585.806,203.544,574.359,211.604" style="stroke: #A80036; stroke-width: 1.0;"/><!--link mastermind.controllers.AcceptorController to mastermind.controllers.ResumeController--><path d="M794.424,372.885 C780.383,381.738 765.158,390.046 750,396 C597.799,455.787 529.474,375.746 387,456 C291.026,510.061 216.456,620.019 180.191,681.458 " fill="none" id="mastermind.controllers.AcceptorController-mastermind.controllers.ResumeController" style="stroke: #A80036; stroke-width: 1.0;"/><polygon fill="none" points="790.957,366.783,811.482,361.516,798.722,378.433,790.957,366.783" style="stroke: #A80036; stroke-width: 1.0;"/><!--link mastermind.controllers.ResumeController to mastermind.models.Session--><path d="M189.313,771.716 C207.933,793.037 233.006,816.796 261,830 C376.565,884.5093 773.811,900.1587 907.609,903.9388 " fill="none" id="mastermind.controllers.ResumeController-mastermind.models.Session" style="stroke: #A80036; stroke-width: 1.0; stroke-dasharray: 7.0,7.0;"/><polygon fill="#A80036" points="912.638,904.0788,903.7523,899.8309,907.6399,903.9402,903.5306,907.8278,912.638,904.0788" style="stroke: #A80036; stroke-width: 1.0;"/><!--link mastermind.controllers.AcceptorController to mastermind.controllers.SaveController--><path d="M793.364,372.81 C779.569,381.515 764.71,389.784 750,396 C634.768,444.693 570.5,375.197 475,456 C416.126,505.814 389.048,592.348 376.789,653.917 " fill="none" id="mastermind.controllers.AcceptorController-mastermind.controllers.SaveController" style="stroke: #A80036; stroke-width: 1.0;"/><polygon fill="none" points="789.636,366.882,810.175,361.672,797.369,378.553,789.636,366.882" style="stroke: #A80036; stroke-width: 1.0;"/><!--link mastermind.controllers.SaveController to mastermind.models.Session--><path d="M428.068,799.078 C441.409,811.057 456.282,822.131 472,830 C548.3,868.2004 803.837,892.8672 907.621,901.5303 " fill="none" id="mastermind.controllers.SaveController-mastermind.models.Session" style="stroke: #A80036; stroke-width: 1.0; stroke-dasharray: 7.0,7.0;"/><polygon fill="#A80036" points="912.746,901.9554,904.107,897.2259,907.7631,901.5425,903.4464,905.1986,912.746,901.9554" style="stroke: #A80036; stroke-width: 1.0;"/><!--link mastermind.controllers.GameController to mastermind.controllers.StartController--><path d="M729.446,600.016 C702.316,622.495 673.177,646.639 647.776,667.685 " fill="none" id="mastermind.controllers.GameController-mastermind.controllers.StartController" style="stroke: #A80036; stroke-width: 1.0;"/><polygon fill="none" points="725.277,594.38,745.144,587.009,734.21,605.16,725.277,594.38" style="stroke: #A80036; stroke-width: 1.0;"/><!--link mastermind.controllers.Controller to mastermind.controllers.UndoController--><path d="M423.005,155.992 C357.052,177.563 270.048,210.148 199,251 C185.426,258.805 171.754,268.602 159.338,278.418 " fill="none" id="mastermind.controllers.Controller-mastermind.controllers.UndoController" style="stroke: #A80036; stroke-width: 1.0;"/><polygon fill="none" points="421.138,149.239,442.32,149.791,425.417,162.569,421.138,149.239" style="stroke: #A80036; stroke-width: 1.0;"/><!--
@startuml

class  mastermind.controllers.AcceptorController{
~ AcceptorController(Session)
+ {abstract} accept(ControllersVisitor): void
}
mastermind.controllers.Controller <|-down- mastermind.controllers.AcceptorController
mastermind.controllers.AcceptorController ..> mastermind.controllers.ControllersVisitor

class  mastermind.controllers.Controller{
# session: Session
~ Controller(Session)
+ getName(): String
+ setName(String): void
+ getWidth(): int
+ getValueState(): StateValue
}
mastermind.controllers.Controller *-down-> mastermind.models.Session
mastermind.controllers.Controller ..> mastermind.models.StateValue

class  mastermind.controllers.ControllersVisitor{
+ {abstract} visit(ResumeController): void
+ {abstract} visit(SaveController): void
+ {abstract} visit(PlayController): void
+ {abstract} visit(StartController): void
}
mastermind.controllers.ControllersVisitor ..> mastermind.controllers.ResumeController
mastermind.controllers.ControllersVisitor ..> mastermind.controllers.SaveController
mastermind.controllers.ControllersVisitor ..> mastermind.controllers.StartController
mastermind.controllers.ControllersVisitor ..> mastermind.controllers.PlayController

class  mastermind.controllers.ExitController{
+ ExitController(Session)
+ next(): void
}
mastermind.controllers.Controller <|-down- mastermind.controllers.ExitController

class  mastermind.controllers.GameController{
~ GameController(Session)
+ {abstract} accept(ControllersVisitor): void
+ {abstract} getAllCodes(): int[][][]
+ {abstract} isWinner(): boolean
+ {abstract} isLooser(): boolean
+ {abstract} getTurn(): int
}
mastermind.controllers.AcceptorController <|-down- mastermind.controllers.GameController
mastermind.controllers.GameController ..> mastermind.models.Session

class  mastermind.controllers.Logic{
# session: Session
# acceptorControllers: Map<StateValue, AcceptorController>
# Logic()
+ getController(): AcceptorController
}
mastermind.controllers.Logic *-down-> mastermind.models.Session
mastermind.controllers.Logic *-down-> mastermind.models.StateValue
mastermind.controllers.Logic *-down-> java.util.Map
mastermind.controllers.Logic - -> mastermind.controllers.AcceptorController

class  mastermind.controllers.PlayController{
# PlayController(Session)
+ {abstract} next(): void
+ accept(ControllersVisitor): void
+ {abstract} proposeCombination(int[]): int
+ {abstract} redo(): void
+ {abstract} undoable(): boolean
+ {abstract} redoable(): boolean
+ {abstract} undo(): void
}
mastermind.controllers.GameController <|-down- mastermind.controllers.PlayController
mastermind.controllers.PlayController ..> mastermind.controllers.ControllersVisitor

class  mastermind.controllers.ProposalController{
+ {static} NO_ERROR: int
+ ProposalController(Session)
+ proposeCombination(int[]): int
+ getAllCodes(): int[][][]
+ isWinner(): boolean
+ isLooser(): boolean
+ getTurn(): int
}
mastermind.controllers.Controller <|-down- mastermind.controllers.ProposalController

class  mastermind.controllers.RedoController{
+ RedoController(Session)
+ redo(): void
+ redoable(): boolean
}
mastermind.controllers.Controller <|-down- mastermind.controllers.RedoController

class  mastermind.controllers.ResumeController{
+ ResumeController(Session)
+ accept(ControllersVisitor): void
+ {abstract} resume(boolean): void
}
mastermind.controllers.AcceptorController <|-down- mastermind.controllers.ResumeController
mastermind.controllers.ResumeController ..> mastermind.models.Session

class  mastermind.controllers.SaveController{
+ SaveController(Session)
+ {abstract} next(): void
+ accept(ControllersVisitor): void
+ {abstract} save(): void
+ {abstract} save(String): void
+ {abstract} exists(String): boolean
+ {abstract} hasName(): boolean
}
mastermind.controllers.AcceptorController <|-down- mastermind.controllers.SaveController
mastermind.controllers.SaveController ..> mastermind.models.Session

class  mastermind.controllers.StartController{
+ StartController(Session)
+ accept(ControllersVisitor): void
+ {abstract} start(): void
+ {abstract} start(String): void
+ {abstract} getGamesNames(): String[]
}
mastermind.controllers.GameController <|-down- mastermind.controllers.StartController
mastermind.controllers.StartController ..> mastermind.controllers.ControllersVisitor

class  mastermind.controllers.UndoController{
+ UndoController(Session)
+ undoable(): boolean
+ undo(): void
}
mastermind.controllers.Controller <|-down- mastermind.controllers.UndoController

@enduml

PlantUML version 1.2019.05(Sat Apr 20 18:45:36 CEST 2019)
(GPL source distribution)
Java Runtime: OpenJDK Runtime Environment
JVM: OpenJDK 64-Bit Server VM
Java Version: 1.8.0_222-b10
Operating System: Windows 10
OS Version: 10.0
Default Encoding: windows-1252
Language: es
Country: ES
--></g></svg>