<?xml version="1.0" encoding="UTF-8" standalone="no"?><svg xmlns="http://www.w3.org/2000/svg" xmlns:xlink="http://www.w3.org/1999/xlink" contentScriptType="application/ecmascript" contentStyleType="text/css" height="720px" preserveAspectRatio="none" style="width:3254px;height:720px;" version="1.1" viewBox="0 0 3254 720" width="3254px" zoomAndPan="magnify"><defs><filter height="300%" id="f1ejxufs1u4uq9" width="300%" x="-1" y="-1"><feGaussianBlur result="blurOut" stdDeviation="2.0"/><feColorMatrix in="blurOut" result="blurOut2" type="matrix" values="0 0 0 0 0 0 0 0 0 0 0 0 0 0 0 0 0 0 .4 0"/><feOffset dx="4.0" dy="4.0" in="blurOut2" result="blurOut3"/><feBlend in="SourceGraphic" in2="blurOut3" mode="normal"/></filter></defs><g><!--cluster mastermind.controllers.implementation--><polygon fill="#FFFFFF" filter="url(#f1ejxufs1u4uq9)" points="1363,58,1644,58,1651,81.6094,3092,81.6094,3092,584,1363,584,1363,58" style="stroke: #000000; stroke-width: 1.5;"/><line style="stroke: #000000; stroke-width: 1.5;" x1="1363" x2="1651" y1="81.6094" y2="81.6094"/><text fill="#000000" font-family="sans-serif" font-size="14" font-weight="bold" lengthAdjust="spacingAndGlyphs" textLength="275" x="1367" y="74.5332">mastermind.controllers.implementation</text><!--cluster mastermind.controllers--><polygon fill="#FFFFFF" filter="url(#f1ejxufs1u4uq9)" points="22,99.5,191,99.5,198,123.1094,1339,123.1094,1339,199.5,22,199.5,22,99.5" style="stroke: #000000; stroke-width: 1.5;"/><line style="stroke: #000000; stroke-width: 1.5;" x1="22" x2="198" y1="123.1094" y2="123.1094"/><text fill="#000000" font-family="sans-serif" font-size="14" font-weight="bold" lengthAdjust="spacingAndGlyphs" textLength="163" x="26" y="116.0332">mastermind.controllers</text><!--cluster mastermind.models.DAO--><polygon fill="#FFFFFF" filter="url(#f1ejxufs1u4uq9)" points="2701,608,2878,608,2885,631.6094,2923,631.6094,2923,708,2701,708,2701,608" style="stroke: #000000; stroke-width: 1.5;"/><line style="stroke: #000000; stroke-width: 1.5;" x1="2701" x2="2885" y1="631.6094" y2="631.6094"/><text fill="#000000" font-family="sans-serif" font-size="14" font-weight="bold" lengthAdjust="spacingAndGlyphs" textLength="171" x="2705" y="624.5332">mastermind.models.DAO</text><!--cluster mastermind.models--><polygon fill="#FFFFFF" filter="url(#f1ejxufs1u4uq9)" points="2153,608,2296,608,2303,631.6094,2349,631.6094,2349,708,2153,708,2153,608" style="stroke: #000000; stroke-width: 1.5;"/><line style="stroke: #000000; stroke-width: 1.5;" x1="2153" x2="2303" y1="631.6094" y2="631.6094"/><text fill="#000000" font-family="sans-serif" font-size="14" font-weight="bold" lengthAdjust="spacingAndGlyphs" textLength="137" x="2157" y="624.5332">mastermind.models</text><!--class mastermind.controllers.implementation.LogicImplementation--><rect fill="#FEFECE" filter="url(#f1ejxufs1u4uq9)" height="131.0156" id="mastermind.controllers.implementation.LogicImplementation" style="stroke: #A80036; stroke-width: 1.5;" width="396" x="2053" y="94"/><ellipse cx="2188.75" cy="110" fill="#ADD1B2" rx="11" ry="11" style="stroke: #A80036; stroke-width: 1.0;"/><path d="M2191.5156,105.875 Q2191.6719,105.6563 2191.8594,105.5469 Q2192.0469,105.4375 2192.2656,105.4375 Q2192.6406,105.4375 2192.875,105.6953 Q2193.1094,105.9531 2193.1094,106.5625 L2193.1094,108.0156 Q2193.1094,108.625 2192.875,108.8906 Q2192.6406,109.1563 2192.2656,109.1563 Q2191.9219,109.1563 2191.7188,108.9531 Q2191.5156,108.7656 2191.4063,108.25 Q2191.3594,107.8906 2191.1719,107.7031 Q2190.8438,107.3281 2190.2344,107.1094 Q2189.625,106.8906 2189,106.8906 Q2188.2344,106.8906 2187.6016,107.2188 Q2186.9688,107.5469 2186.4766,108.2969 Q2185.9844,109.0469 2185.9844,110.0781 L2185.9844,111.1719 Q2185.9844,112.4063 2186.875,113.2266 Q2187.7656,114.0469 2189.3594,114.0469 Q2190.2969,114.0469 2190.9531,113.7969 Q2191.3438,113.6406 2191.7656,113.2031 Q2192.0313,112.9375 2192.1797,112.8594 Q2192.3281,112.7813 2192.5313,112.7813 Q2192.8594,112.7813 2193.1172,113.0391 Q2193.375,113.2969 2193.375,113.6406 Q2193.375,113.9844 2193.0313,114.3906 Q2192.5313,114.9688 2191.7344,115.2969 Q2190.6563,115.75 2189.3594,115.75 Q2187.8438,115.75 2186.6406,115.125 Q2185.6563,114.625 2184.9688,113.5547 Q2184.2813,112.4844 2184.2813,111.2031 L2184.2813,110.0469 Q2184.2813,108.7188 2184.8984,107.5703 Q2185.5156,106.4219 2186.6094,105.8047 Q2187.7031,105.1875 2188.9375,105.1875 Q2189.6719,105.1875 2190.3203,105.3516 Q2190.9688,105.5156 2191.5156,105.875 Z "/><text fill="#000000" font-family="sans-serif" font-size="12" lengthAdjust="spacingAndGlyphs" textLength="116" x="2209.25" y="114.9102">LogicImplementation</text><line style="stroke: #A80036; stroke-width: 1.5;" x1="2054" x2="2448" y1="126" y2="126"/><polygon fill="none" points="2064,133.418,2068,137.418,2064,141.418,2060,137.418" style="stroke: #B38D22; stroke-width: 1.0;"/><text fill="#000000" font-family="sans-serif" font-size="11" lengthAdjust="spacingAndGlyphs" textLength="266" x="2073" y="141.4189">SessionImplementationDAO sessionImplementationDAO</text><polygon fill="none" points="2064,147.2539,2068,151.2539,2064,155.2539,2060,151.2539" style="stroke: #B38D22; stroke-width: 1.0;"/><text fill="#000000" font-family="sans-serif" font-size="11" lengthAdjust="spacingAndGlyphs" textLength="280" x="2073" y="155.2549">StartControllerImplementation startControllerImplementation</text><polygon fill="none" points="2064,161.0898,2068,165.0898,2064,169.0898,2060,165.0898" style="stroke: #B38D22; stroke-width: 1.0;"/><text fill="#000000" font-family="sans-serif" font-size="11" lengthAdjust="spacingAndGlyphs" textLength="275" x="2073" y="169.0908">PlayControllerImplementation playControllerImplementation</text><polygon fill="none" points="2064,174.9258,2068,178.9258,2064,182.9258,2060,178.9258" style="stroke: #B38D22; stroke-width: 1.0;"/><text fill="#000000" font-family="sans-serif" font-size="11" lengthAdjust="spacingAndGlyphs" textLength="284" x="2073" y="182.9268">SaveControllerImplementation saveControllerImplementation</text><polygon fill="none" points="2064,188.7617,2068,192.7617,2064,196.7617,2060,192.7617" style="stroke: #B38D22; stroke-width: 1.0;"/><text fill="#000000" font-family="sans-serif" font-size="11" lengthAdjust="spacingAndGlyphs" textLength="310" x="2073" y="196.7627">ResumeControllerImplementation resumeControllerImplementation</text><line style="stroke: #A80036; stroke-width: 1.5;" x1="2054" x2="2448" y1="203.1797" y2="203.1797"/><ellipse cx="2064" cy="215.5977" fill="#84BE84" rx="3" ry="3" style="stroke: #038048; stroke-width: 1.0;"/><text fill="#000000" font-family="sans-serif" font-size="11" lengthAdjust="spacingAndGlyphs" textLength="370" x="2073" y="218.5986">LogicImplementation(SessionImplementationDAO sessionImplementationDAO)</text><!--class mastermind.controllers.implementation.StartControllerImplementation--><rect fill="#FEFECE" filter="url(#f1ejxufs1u4uq9)" height="200.1953" id="mastermind.controllers.implementation.StartControllerImplementation" style="stroke: #A80036; stroke-width: 1.5;" width="525" x="1988.5" y="326.5"/><ellipse cx="2164.25" cy="342.5" fill="#ADD1B2" rx="11" ry="11" style="stroke: #A80036; stroke-width: 1.0;"/><path d="M2167.0156,338.375 Q2167.1719,338.1563 2167.3594,338.0469 Q2167.5469,337.9375 2167.7656,337.9375 Q2168.1406,337.9375 2168.375,338.1953 Q2168.6094,338.4531 2168.6094,339.0625 L2168.6094,340.5156 Q2168.6094,341.125 2168.375,341.3906 Q2168.1406,341.6563 2167.7656,341.6563 Q2167.4219,341.6563 2167.2188,341.4531 Q2167.0156,341.2656 2166.9063,340.75 Q2166.8594,340.3906 2166.6719,340.2031 Q2166.3438,339.8281 2165.7344,339.6094 Q2165.125,339.3906 2164.5,339.3906 Q2163.7344,339.3906 2163.1016,339.7188 Q2162.4688,340.0469 2161.9766,340.7969 Q2161.4844,341.5469 2161.4844,342.5781 L2161.4844,343.6719 Q2161.4844,344.9063 2162.375,345.7266 Q2163.2656,346.5469 2164.8594,346.5469 Q2165.7969,346.5469 2166.4531,346.2969 Q2166.8438,346.1406 2167.2656,345.7031 Q2167.5313,345.4375 2167.6797,345.3594 Q2167.8281,345.2813 2168.0313,345.2813 Q2168.3594,345.2813 2168.6172,345.5391 Q2168.875,345.7969 2168.875,346.1406 Q2168.875,346.4844 2168.5313,346.8906 Q2168.0313,347.4688 2167.2344,347.7969 Q2166.1563,348.25 2164.8594,348.25 Q2163.3438,348.25 2162.1406,347.625 Q2161.1563,347.125 2160.4688,346.0547 Q2159.7813,344.9844 2159.7813,343.7031 L2159.7813,342.5469 Q2159.7813,341.2188 2160.3984,340.0703 Q2161.0156,338.9219 2162.1094,338.3047 Q2163.2031,337.6875 2164.4375,337.6875 Q2165.1719,337.6875 2165.8203,337.8516 Q2166.4688,338.0156 2167.0156,338.375 Z "/><text fill="#000000" font-family="sans-serif" font-size="12" lengthAdjust="spacingAndGlyphs" textLength="165" x="2184.75" y="347.4102">StartControllerImplementation</text><line style="stroke: #A80036; stroke-width: 1.5;" x1="1989.5" x2="2512.5" y1="358.5" y2="358.5"/><rect fill="none" height="6" style="stroke: #C82930; stroke-width: 1.0;" width="6" x="1996.5" y="367.918"/><text fill="#000000" font-family="sans-serif" font-size="11" lengthAdjust="spacingAndGlyphs" textLength="266" x="2008.5" y="373.9189">SessionImplementationDAO sessionImplementationDAO</text><line style="stroke: #A80036; stroke-width: 1.5;" x1="1989.5" x2="2512.5" y1="380.3359" y2="380.3359"/><polygon fill="#4177AF" points="1999.5,388.7539,1995.5,394.7539,2003.5,394.7539" style="stroke: #1963A0; stroke-width: 1.0;"/><text fill="#000000" font-family="sans-serif" font-size="11" lengthAdjust="spacingAndGlyphs" textLength="499" x="2008.5" y="395.7549">StartControllerImplementation(Session session, SessionImplementationDAO sessionImplementationDAO)</text><ellipse cx="1999.5" cy="406.5898" fill="#84BE84" rx="3" ry="3" style="stroke: #038048; stroke-width: 1.0;"/><text fill="#000000" font-family="sans-serif" font-size="11" lengthAdjust="spacingAndGlyphs" textLength="53" x="2008.5" y="409.5908">void start()</text><ellipse cx="1999.5" cy="420.4258" fill="#84BE84" rx="3" ry="3" style="stroke: #038048; stroke-width: 1.0;"/><text fill="#000000" font-family="sans-serif" font-size="11" lengthAdjust="spacingAndGlyphs" textLength="110" x="2008.5" y="423.4268">void start(String name)</text><ellipse cx="1999.5" cy="434.2617" fill="#84BE84" rx="3" ry="3" style="stroke: #038048; stroke-width: 1.0;"/><text fill="#000000" font-family="sans-serif" font-size="11" lengthAdjust="spacingAndGlyphs" textLength="127" x="2008.5" y="437.2627">String[] getGamesNames()</text><ellipse cx="1999.5" cy="448.0977" fill="#84BE84" rx="3" ry="3" style="stroke: #038048; stroke-width: 1.0;"/><text fill="#000000" font-family="sans-serif" font-size="11" lengthAdjust="spacingAndGlyphs" textLength="80" x="2008.5" y="451.0986">int getAttempts()</text><ellipse cx="1999.5" cy="461.9336" fill="#84BE84" rx="3" ry="3" style="stroke: #038048; stroke-width: 1.0;"/><text fill="#000000" font-family="sans-serif" font-size="11" lengthAdjust="spacingAndGlyphs" textLength="162" x="2008.5" y="464.9346">List&lt;Color&gt; getColors(int position)</text><ellipse cx="1999.5" cy="475.7695" fill="#84BE84" rx="3" ry="3" style="stroke: #038048; stroke-width: 1.0;"/><text fill="#000000" font-family="sans-serif" font-size="11" lengthAdjust="spacingAndGlyphs" textLength="120" x="2008.5" y="478.7705">int getBlacks(int position)</text><ellipse cx="1999.5" cy="489.6055" fill="#84BE84" rx="3" ry="3" style="stroke: #038048; stroke-width: 1.0;"/><text fill="#000000" font-family="sans-serif" font-size="11" lengthAdjust="spacingAndGlyphs" textLength="121" x="2008.5" y="492.6064">int getWhites(int position)</text><ellipse cx="1999.5" cy="503.4414" fill="#84BE84" rx="3" ry="3" style="stroke: #038048; stroke-width: 1.0;"/><text fill="#000000" font-family="sans-serif" font-size="11" lengthAdjust="spacingAndGlyphs" textLength="91" x="2008.5" y="506.4424">boolean isWinner()</text><ellipse cx="1999.5" cy="517.2773" fill="#84BE84" rx="3" ry="3" style="stroke: #038048; stroke-width: 1.0;"/><text fill="#000000" font-family="sans-serif" font-size="11" lengthAdjust="spacingAndGlyphs" textLength="91" x="2008.5" y="520.2783">boolean isLooser()</text><!--class mastermind.controllers.implementation.PlayControllerImplementation--><rect fill="#FEFECE" filter="url(#f1ejxufs1u4uq9)" height="283.2109" id="mastermind.controllers.implementation.PlayControllerImplementation" style="stroke: #A80036; stroke-width: 1.5;" width="270" x="1379" y="285"/><ellipse cx="1428.25" cy="301" fill="#ADD1B2" rx="11" ry="11" style="stroke: #A80036; stroke-width: 1.0;"/><path d="M1431.0156,296.875 Q1431.1719,296.6563 1431.3594,296.5469 Q1431.5469,296.4375 1431.7656,296.4375 Q1432.1406,296.4375 1432.375,296.6953 Q1432.6094,296.9531 1432.6094,297.5625 L1432.6094,299.0156 Q1432.6094,299.625 1432.375,299.8906 Q1432.1406,300.1563 1431.7656,300.1563 Q1431.4219,300.1563 1431.2188,299.9531 Q1431.0156,299.7656 1430.9063,299.25 Q1430.8594,298.8906 1430.6719,298.7031 Q1430.3438,298.3281 1429.7344,298.1094 Q1429.125,297.8906 1428.5,297.8906 Q1427.7344,297.8906 1427.1016,298.2188 Q1426.4688,298.5469 1425.9766,299.2969 Q1425.4844,300.0469 1425.4844,301.0781 L1425.4844,302.1719 Q1425.4844,303.4063 1426.375,304.2266 Q1427.2656,305.0469 1428.8594,305.0469 Q1429.7969,305.0469 1430.4531,304.7969 Q1430.8438,304.6406 1431.2656,304.2031 Q1431.5313,303.9375 1431.6797,303.8594 Q1431.8281,303.7813 1432.0313,303.7813 Q1432.3594,303.7813 1432.6172,304.0391 Q1432.875,304.2969 1432.875,304.6406 Q1432.875,304.9844 1432.5313,305.3906 Q1432.0313,305.9688 1431.2344,306.2969 Q1430.1563,306.75 1428.8594,306.75 Q1427.3438,306.75 1426.1406,306.125 Q1425.1563,305.625 1424.4688,304.5547 Q1423.7813,303.4844 1423.7813,302.2031 L1423.7813,301.0469 Q1423.7813,299.7188 1424.3984,298.5703 Q1425.0156,297.4219 1426.1094,296.8047 Q1427.2031,296.1875 1428.4375,296.1875 Q1429.1719,296.1875 1429.8203,296.3516 Q1430.4688,296.5156 1431.0156,296.875 Z "/><text fill="#000000" font-family="sans-serif" font-size="12" lengthAdjust="spacingAndGlyphs" textLength="163" x="1448.75" y="305.9102">PlayControllerImplementation</text><line style="stroke: #A80036; stroke-width: 1.5;" x1="1380" x2="1648" y1="317" y2="317"/><rect fill="none" height="6" style="stroke: #C82930; stroke-width: 1.0;" width="6" x="1387" y="326.418"/><text fill="#000000" font-family="sans-serif" font-size="11" lengthAdjust="spacingAndGlyphs" textLength="179" x="1399" y="332.4189">ProposalController proposalController</text><rect fill="none" height="6" style="stroke: #C82930; stroke-width: 1.0;" width="6" x="1387" y="340.2539"/><text fill="#000000" font-family="sans-serif" font-size="11" lengthAdjust="spacingAndGlyphs" textLength="144" x="1399" y="346.2549">UndoController undoController</text><rect fill="none" height="6" style="stroke: #C82930; stroke-width: 1.0;" width="6" x="1387" y="354.0898"/><text fill="#000000" font-family="sans-serif" font-size="11" lengthAdjust="spacingAndGlyphs" textLength="142" x="1399" y="360.0908">RedoController redoController</text><rect fill="none" height="6" style="stroke: #C82930; stroke-width: 1.0;" width="6" x="1387" y="367.9258"/><text fill="#000000" font-family="sans-serif" font-size="11" lengthAdjust="spacingAndGlyphs" textLength="129" x="1399" y="373.9268">ExitController exitController</text><line style="stroke: #A80036; stroke-width: 1.5;" x1="1380" x2="1648" y1="380.3438" y2="380.3438"/><polygon fill="#4177AF" points="1390,388.7617,1386,394.7617,1394,394.7617" style="stroke: #1963A0; stroke-width: 1.0;"/><text fill="#000000" font-family="sans-serif" font-size="11" lengthAdjust="spacingAndGlyphs" textLength="224" x="1399" y="395.7627">PlayControllerImplementation(Session session)</text><ellipse cx="1390" cy="406.5977" fill="#84BE84" rx="3" ry="3" style="stroke: #038048; stroke-width: 1.0;"/><text fill="#000000" font-family="sans-serif" font-size="11" lengthAdjust="spacingAndGlyphs" textLength="244" x="1399" y="409.5986">Error addProposedCombination(List&lt;Color&gt; colors)</text><ellipse cx="1390" cy="420.4336" fill="#84BE84" rx="3" ry="3" style="stroke: #038048; stroke-width: 1.0;"/><text fill="#000000" font-family="sans-serif" font-size="11" lengthAdjust="spacingAndGlyphs" textLength="55" x="1399" y="423.4346">void undo()</text><ellipse cx="1390" cy="434.2695" fill="#84BE84" rx="3" ry="3" style="stroke: #038048; stroke-width: 1.0;"/><text fill="#000000" font-family="sans-serif" font-size="11" lengthAdjust="spacingAndGlyphs" textLength="53" x="1399" y="437.2705">void redo()</text><ellipse cx="1390" cy="448.1055" fill="#84BE84" rx="3" ry="3" style="stroke: #038048; stroke-width: 1.0;"/><text fill="#000000" font-family="sans-serif" font-size="11" lengthAdjust="spacingAndGlyphs" textLength="52" x="1399" y="451.1064">void next()</text><ellipse cx="1390" cy="461.9414" fill="#84BE84" rx="3" ry="3" style="stroke: #038048; stroke-width: 1.0;"/><text fill="#000000" font-family="sans-serif" font-size="11" lengthAdjust="spacingAndGlyphs" textLength="93" x="1399" y="464.9424">boolean undoable()</text><ellipse cx="1390" cy="475.7773" fill="#84BE84" rx="3" ry="3" style="stroke: #038048; stroke-width: 1.0;"/><text fill="#000000" font-family="sans-serif" font-size="11" lengthAdjust="spacingAndGlyphs" textLength="91" x="1399" y="478.7783">boolean redoable()</text><ellipse cx="1390" cy="489.6133" fill="#84BE84" rx="3" ry="3" style="stroke: #038048; stroke-width: 1.0;"/><text fill="#000000" font-family="sans-serif" font-size="11" lengthAdjust="spacingAndGlyphs" textLength="91" x="1399" y="492.6143">boolean isWinner()</text><ellipse cx="1390" cy="503.4492" fill="#84BE84" rx="3" ry="3" style="stroke: #038048; stroke-width: 1.0;"/><text fill="#000000" font-family="sans-serif" font-size="11" lengthAdjust="spacingAndGlyphs" textLength="91" x="1399" y="506.4502">boolean isLooser()</text><ellipse cx="1390" cy="517.2852" fill="#84BE84" rx="3" ry="3" style="stroke: #038048; stroke-width: 1.0;"/><text fill="#000000" font-family="sans-serif" font-size="11" lengthAdjust="spacingAndGlyphs" textLength="162" x="1399" y="520.2861">List&lt;Color&gt; getColors(int position)</text><ellipse cx="1390" cy="531.1211" fill="#84BE84" rx="3" ry="3" style="stroke: #038048; stroke-width: 1.0;"/><text fill="#000000" font-family="sans-serif" font-size="11" lengthAdjust="spacingAndGlyphs" textLength="120" x="1399" y="534.1221">int getBlacks(int position)</text><ellipse cx="1390" cy="544.957" fill="#84BE84" rx="3" ry="3" style="stroke: #038048; stroke-width: 1.0;"/><text fill="#000000" font-family="sans-serif" font-size="11" lengthAdjust="spacingAndGlyphs" textLength="121" x="1399" y="547.958">int getWhites(int position)</text><ellipse cx="1390" cy="558.793" fill="#84BE84" rx="3" ry="3" style="stroke: #038048; stroke-width: 1.0;"/><text fill="#000000" font-family="sans-serif" font-size="11" lengthAdjust="spacingAndGlyphs" textLength="80" x="1399" y="561.7939">int getAttempts()</text><!--class mastermind.controllers.implementation.SaveControllerImplementation--><rect fill="#FEFECE" filter="url(#f1ejxufs1u4uq9)" height="144.8516" id="mastermind.controllers.implementation.SaveControllerImplementation" style="stroke: #A80036; stroke-width: 1.5;" width="527" x="2548.5" y="354"/><ellipse cx="2724.25" cy="370" fill="#ADD1B2" rx="11" ry="11" style="stroke: #A80036; stroke-width: 1.0;"/><path d="M2727.0156,365.875 Q2727.1719,365.6563 2727.3594,365.5469 Q2727.5469,365.4375 2727.7656,365.4375 Q2728.1406,365.4375 2728.375,365.6953 Q2728.6094,365.9531 2728.6094,366.5625 L2728.6094,368.0156 Q2728.6094,368.625 2728.375,368.8906 Q2728.1406,369.1563 2727.7656,369.1563 Q2727.4219,369.1563 2727.2188,368.9531 Q2727.0156,368.7656 2726.9063,368.25 Q2726.8594,367.8906 2726.6719,367.7031 Q2726.3438,367.3281 2725.7344,367.1094 Q2725.125,366.8906 2724.5,366.8906 Q2723.7344,366.8906 2723.1016,367.2188 Q2722.4688,367.5469 2721.9766,368.2969 Q2721.4844,369.0469 2721.4844,370.0781 L2721.4844,371.1719 Q2721.4844,372.4063 2722.375,373.2266 Q2723.2656,374.0469 2724.8594,374.0469 Q2725.7969,374.0469 2726.4531,373.7969 Q2726.8438,373.6406 2727.2656,373.2031 Q2727.5313,372.9375 2727.6797,372.8594 Q2727.8281,372.7813 2728.0313,372.7813 Q2728.3594,372.7813 2728.6172,373.0391 Q2728.875,373.2969 2728.875,373.6406 Q2728.875,373.9844 2728.5313,374.3906 Q2728.0313,374.9688 2727.2344,375.2969 Q2726.1563,375.75 2724.8594,375.75 Q2723.3438,375.75 2722.1406,375.125 Q2721.1563,374.625 2720.4688,373.5547 Q2719.7813,372.4844 2719.7813,371.2031 L2719.7813,370.0469 Q2719.7813,368.7188 2720.3984,367.5703 Q2721.0156,366.4219 2722.1094,365.8047 Q2723.2031,365.1875 2724.4375,365.1875 Q2725.1719,365.1875 2725.8203,365.3516 Q2726.4688,365.5156 2727.0156,365.875 Z "/><text fill="#000000" font-family="sans-serif" font-size="12" lengthAdjust="spacingAndGlyphs" textLength="167" x="2744.75" y="374.9102">SaveControllerImplementation</text><line style="stroke: #A80036; stroke-width: 1.5;" x1="2549.5" x2="3074.5" y1="386" y2="386"/><rect fill="none" height="6" style="stroke: #C82930; stroke-width: 1.0;" width="6" x="2556.5" y="395.418"/><text fill="#000000" font-family="sans-serif" font-size="11" lengthAdjust="spacingAndGlyphs" textLength="266" x="2568.5" y="401.4189">SessionImplementationDAO sessionImplementationDAO</text><line style="stroke: #A80036; stroke-width: 1.5;" x1="2549.5" x2="3074.5" y1="407.8359" y2="407.8359"/><polygon fill="#4177AF" points="2559.5,416.2539,2555.5,422.2539,2563.5,422.2539" style="stroke: #1963A0; stroke-width: 1.0;"/><text fill="#000000" font-family="sans-serif" font-size="11" lengthAdjust="spacingAndGlyphs" textLength="501" x="2568.5" y="423.2549">SaveControllerImplementation(Session session, SessionImplementationDAO sessionImplementationDAO)</text><ellipse cx="2559.5" cy="434.0898" fill="#84BE84" rx="3" ry="3" style="stroke: #038048; stroke-width: 1.0;"/><text fill="#000000" font-family="sans-serif" font-size="11" lengthAdjust="spacingAndGlyphs" textLength="112" x="2568.5" y="437.0908">void save(String name)</text><ellipse cx="2559.5" cy="447.9258" fill="#84BE84" rx="3" ry="3" style="stroke: #038048; stroke-width: 1.0;"/><text fill="#000000" font-family="sans-serif" font-size="11" lengthAdjust="spacingAndGlyphs" textLength="55" x="2568.5" y="450.9268">void save()</text><ellipse cx="2559.5" cy="461.7617" fill="#84BE84" rx="3" ry="3" style="stroke: #038048; stroke-width: 1.0;"/><text fill="#000000" font-family="sans-serif" font-size="11" lengthAdjust="spacingAndGlyphs" textLength="52" x="2568.5" y="464.7627">void next()</text><ellipse cx="2559.5" cy="475.5977" fill="#84BE84" rx="3" ry="3" style="stroke: #038048; stroke-width: 1.0;"/><text fill="#000000" font-family="sans-serif" font-size="11" lengthAdjust="spacingAndGlyphs" textLength="94" x="2568.5" y="478.5986">boolean hasName()</text><ellipse cx="2559.5" cy="489.4336" fill="#84BE84" rx="3" ry="3" style="stroke: #038048; stroke-width: 1.0;"/><text fill="#000000" font-family="sans-serif" font-size="11" lengthAdjust="spacingAndGlyphs" textLength="135" x="2568.5" y="492.4346">boolean exists(String name)</text><!--class mastermind.controllers.implementation.ResumeControllerImplementation--><rect fill="#FEFECE" filter="url(#f1ejxufs1u4uq9)" height="75.6719" id="mastermind.controllers.implementation.ResumeControllerImplementation" style="stroke: #A80036; stroke-width: 1.5;" width="269" x="1684.5" y="388.5"/><ellipse cx="1721.55" cy="404.5" fill="#ADD1B2" rx="11" ry="11" style="stroke: #A80036; stroke-width: 1.0;"/><path d="M1724.3156,400.375 Q1724.4719,400.1563 1724.6594,400.0469 Q1724.8469,399.9375 1725.0656,399.9375 Q1725.4406,399.9375 1725.675,400.1953 Q1725.9094,400.4531 1725.9094,401.0625 L1725.9094,402.5156 Q1725.9094,403.125 1725.675,403.3906 Q1725.4406,403.6563 1725.0656,403.6563 Q1724.7219,403.6563 1724.5188,403.4531 Q1724.3156,403.2656 1724.2063,402.75 Q1724.1594,402.3906 1723.9719,402.2031 Q1723.6438,401.8281 1723.0344,401.6094 Q1722.425,401.3906 1721.8,401.3906 Q1721.0344,401.3906 1720.4016,401.7188 Q1719.7688,402.0469 1719.2766,402.7969 Q1718.7844,403.5469 1718.7844,404.5781 L1718.7844,405.6719 Q1718.7844,406.9063 1719.675,407.7266 Q1720.5656,408.5469 1722.1594,408.5469 Q1723.0969,408.5469 1723.7531,408.2969 Q1724.1438,408.1406 1724.5656,407.7031 Q1724.8313,407.4375 1724.9797,407.3594 Q1725.1281,407.2813 1725.3313,407.2813 Q1725.6594,407.2813 1725.9172,407.5391 Q1726.175,407.7969 1726.175,408.1406 Q1726.175,408.4844 1725.8313,408.8906 Q1725.3313,409.4688 1724.5344,409.7969 Q1723.4563,410.25 1722.1594,410.25 Q1720.6438,410.25 1719.4406,409.625 Q1718.4563,409.125 1717.7688,408.0547 Q1717.0813,406.9844 1717.0813,405.7031 L1717.0813,404.5469 Q1717.0813,403.2188 1717.6984,402.0703 Q1718.3156,400.9219 1719.4094,400.3047 Q1720.5031,399.6875 1721.7375,399.6875 Q1722.4719,399.6875 1723.1203,399.8516 Q1723.7688,400.0156 1724.3156,400.375 Z "/><text fill="#000000" font-family="sans-serif" font-size="12" lengthAdjust="spacingAndGlyphs" textLength="188" x="1740.45" y="409.4102">ResumeControllerImplementation</text><line style="stroke: #A80036; stroke-width: 1.5;" x1="1685.5" x2="1952.5" y1="420.5" y2="420.5"/><line style="stroke: #A80036; stroke-width: 1.5;" x1="1685.5" x2="1952.5" y1="428.5" y2="428.5"/><polygon fill="#4177AF" points="1695.5,436.918,1691.5,442.918,1699.5,442.918" style="stroke: #1963A0; stroke-width: 1.0;"/><text fill="#000000" font-family="sans-serif" font-size="11" lengthAdjust="spacingAndGlyphs" textLength="243" x="1704.5" y="443.9189">ResumeControllerImplementation(Session session)</text><ellipse cx="1695.5" cy="454.7539" fill="#84BE84" rx="3" ry="3" style="stroke: #038048; stroke-width: 1.0;"/><text fill="#000000" font-family="sans-serif" font-size="11" lengthAdjust="spacingAndGlyphs" textLength="181" x="1704.5" y="457.7549">void isNewGame(boolean newGame)</text><!--class mastermind.controllers.Logic--><rect fill="#FEFECE" filter="url(#f1ejxufs1u4uq9)" height="48" id="mastermind.controllers.Logic" style="stroke: #A80036; stroke-width: 1.5;" width="62" x="1112" y="135.5"/><ellipse cx="1127" cy="151.5" fill="#ADD1B2" rx="11" ry="11" style="stroke: #A80036; stroke-width: 1.0;"/><path d="M1129.7656,147.375 Q1129.9219,147.1563 1130.1094,147.0469 Q1130.2969,146.9375 1130.5156,146.9375 Q1130.8906,146.9375 1131.125,147.1953 Q1131.3594,147.4531 1131.3594,148.0625 L1131.3594,149.5156 Q1131.3594,150.125 1131.125,150.3906 Q1130.8906,150.6563 1130.5156,150.6563 Q1130.1719,150.6563 1129.9688,150.4531 Q1129.7656,150.2656 1129.6563,149.75 Q1129.6094,149.3906 1129.4219,149.2031 Q1129.0938,148.8281 1128.4844,148.6094 Q1127.875,148.3906 1127.25,148.3906 Q1126.4844,148.3906 1125.8516,148.7188 Q1125.2188,149.0469 1124.7266,149.7969 Q1124.2344,150.5469 1124.2344,151.5781 L1124.2344,152.6719 Q1124.2344,153.9063 1125.125,154.7266 Q1126.0156,155.5469 1127.6094,155.5469 Q1128.5469,155.5469 1129.2031,155.2969 Q1129.5938,155.1406 1130.0156,154.7031 Q1130.2813,154.4375 1130.4297,154.3594 Q1130.5781,154.2813 1130.7813,154.2813 Q1131.1094,154.2813 1131.3672,154.5391 Q1131.625,154.7969 1131.625,155.1406 Q1131.625,155.4844 1131.2813,155.8906 Q1130.7813,156.4688 1129.9844,156.7969 Q1128.9063,157.25 1127.6094,157.25 Q1126.0938,157.25 1124.8906,156.625 Q1123.9063,156.125 1123.2188,155.0547 Q1122.5313,153.9844 1122.5313,152.7031 L1122.5313,151.5469 Q1122.5313,150.2188 1123.1484,149.0703 Q1123.7656,147.9219 1124.8594,147.3047 Q1125.9531,146.6875 1127.1875,146.6875 Q1127.9219,146.6875 1128.5703,146.8516 Q1129.2188,147.0156 1129.7656,147.375 Z "/><text fill="#000000" font-family="sans-serif" font-size="12" lengthAdjust="spacingAndGlyphs" textLength="30" x="1141" y="156.4102">Logic</text><line style="stroke: #A80036; stroke-width: 1.5;" x1="1113" x2="1173" y1="167.5" y2="167.5"/><line style="stroke: #A80036; stroke-width: 1.5;" x1="1113" x2="1173" y1="175.5" y2="175.5"/><!--class mastermind.controllers.PlayController--><rect fill="#FEFECE" filter="url(#f1ejxufs1u4uq9)" height="48" id="mastermind.controllers.PlayController" style="stroke: #A80036; stroke-width: 1.5;" width="109" x="38.5" y="135.5"/><ellipse cx="53.5" cy="151.5" fill="#ADD1B2" rx="11" ry="11" style="stroke: #A80036; stroke-width: 1.0;"/><path d="M56.2656,147.375 Q56.4219,147.1563 56.6094,147.0469 Q56.7969,146.9375 57.0156,146.9375 Q57.3906,146.9375 57.625,147.1953 Q57.8594,147.4531 57.8594,148.0625 L57.8594,149.5156 Q57.8594,150.125 57.625,150.3906 Q57.3906,150.6563 57.0156,150.6563 Q56.6719,150.6563 56.4688,150.4531 Q56.2656,150.2656 56.1563,149.75 Q56.1094,149.3906 55.9219,149.2031 Q55.5938,148.8281 54.9844,148.6094 Q54.375,148.3906 53.75,148.3906 Q52.9844,148.3906 52.3516,148.7188 Q51.7188,149.0469 51.2266,149.7969 Q50.7344,150.5469 50.7344,151.5781 L50.7344,152.6719 Q50.7344,153.9063 51.625,154.7266 Q52.5156,155.5469 54.1094,155.5469 Q55.0469,155.5469 55.7031,155.2969 Q56.0938,155.1406 56.5156,154.7031 Q56.7813,154.4375 56.9297,154.3594 Q57.0781,154.2813 57.2813,154.2813 Q57.6094,154.2813 57.8672,154.5391 Q58.125,154.7969 58.125,155.1406 Q58.125,155.4844 57.7813,155.8906 Q57.2813,156.4688 56.4844,156.7969 Q55.4063,157.25 54.1094,157.25 Q52.5938,157.25 51.3906,156.625 Q50.4063,156.125 49.7188,155.0547 Q49.0313,153.9844 49.0313,152.7031 L49.0313,151.5469 Q49.0313,150.2188 49.6484,149.0703 Q50.2656,147.9219 51.3594,147.3047 Q52.4531,146.6875 53.6875,146.6875 Q54.4219,146.6875 55.0703,146.8516 Q55.7188,147.0156 56.2656,147.375 Z "/><text fill="#000000" font-family="sans-serif" font-size="12" lengthAdjust="spacingAndGlyphs" textLength="77" x="67.5" y="156.4102">PlayController</text><line style="stroke: #A80036; stroke-width: 1.5;" x1="39.5" x2="146.5" y1="167.5" y2="167.5"/><line style="stroke: #A80036; stroke-width: 1.5;" x1="39.5" x2="146.5" y1="175.5" y2="175.5"/><!--class mastermind.controllers.ProposalController--><rect fill="#FEFECE" filter="url(#f1ejxufs1u4uq9)" height="48" id="mastermind.controllers.ProposalController" style="stroke: #A80036; stroke-width: 1.5;" width="136" x="625" y="135.5"/><ellipse cx="640" cy="151.5" fill="#ADD1B2" rx="11" ry="11" style="stroke: #A80036; stroke-width: 1.0;"/><path d="M642.7656,147.375 Q642.9219,147.1563 643.1094,147.0469 Q643.2969,146.9375 643.5156,146.9375 Q643.8906,146.9375 644.125,147.1953 Q644.3594,147.4531 644.3594,148.0625 L644.3594,149.5156 Q644.3594,150.125 644.125,150.3906 Q643.8906,150.6563 643.5156,150.6563 Q643.1719,150.6563 642.9688,150.4531 Q642.7656,150.2656 642.6563,149.75 Q642.6094,149.3906 642.4219,149.2031 Q642.0938,148.8281 641.4844,148.6094 Q640.875,148.3906 640.25,148.3906 Q639.4844,148.3906 638.8516,148.7188 Q638.2188,149.0469 637.7266,149.7969 Q637.2344,150.5469 637.2344,151.5781 L637.2344,152.6719 Q637.2344,153.9063 638.125,154.7266 Q639.0156,155.5469 640.6094,155.5469 Q641.5469,155.5469 642.2031,155.2969 Q642.5938,155.1406 643.0156,154.7031 Q643.2813,154.4375 643.4297,154.3594 Q643.5781,154.2813 643.7813,154.2813 Q644.1094,154.2813 644.3672,154.5391 Q644.625,154.7969 644.625,155.1406 Q644.625,155.4844 644.2813,155.8906 Q643.7813,156.4688 642.9844,156.7969 Q641.9063,157.25 640.6094,157.25 Q639.0938,157.25 637.8906,156.625 Q636.9063,156.125 636.2188,155.0547 Q635.5313,153.9844 635.5313,152.7031 L635.5313,151.5469 Q635.5313,150.2188 636.1484,149.0703 Q636.7656,147.9219 637.8594,147.3047 Q638.9531,146.6875 640.1875,146.6875 Q640.9219,146.6875 641.5703,146.8516 Q642.2188,147.0156 642.7656,147.375 Z "/><text fill="#000000" font-family="sans-serif" font-size="12" lengthAdjust="spacingAndGlyphs" textLength="104" x="654" y="156.4102">ProposalController</text><line style="stroke: #A80036; stroke-width: 1.5;" x1="626" x2="760" y1="167.5" y2="167.5"/><line style="stroke: #A80036; stroke-width: 1.5;" x1="626" x2="760" y1="175.5" y2="175.5"/><!--class mastermind.controllers.UndoController--><rect fill="#FEFECE" filter="url(#f1ejxufs1u4uq9)" height="48" id="mastermind.controllers.UndoController" style="stroke: #A80036; stroke-width: 1.5;" width="116" x="474" y="135.5"/><ellipse cx="489" cy="151.5" fill="#ADD1B2" rx="11" ry="11" style="stroke: #A80036; stroke-width: 1.0;"/><path d="M491.7656,147.375 Q491.9219,147.1563 492.1094,147.0469 Q492.2969,146.9375 492.5156,146.9375 Q492.8906,146.9375 493.125,147.1953 Q493.3594,147.4531 493.3594,148.0625 L493.3594,149.5156 Q493.3594,150.125 493.125,150.3906 Q492.8906,150.6563 492.5156,150.6563 Q492.1719,150.6563 491.9688,150.4531 Q491.7656,150.2656 491.6563,149.75 Q491.6094,149.3906 491.4219,149.2031 Q491.0938,148.8281 490.4844,148.6094 Q489.875,148.3906 489.25,148.3906 Q488.4844,148.3906 487.8516,148.7188 Q487.2188,149.0469 486.7266,149.7969 Q486.2344,150.5469 486.2344,151.5781 L486.2344,152.6719 Q486.2344,153.9063 487.125,154.7266 Q488.0156,155.5469 489.6094,155.5469 Q490.5469,155.5469 491.2031,155.2969 Q491.5938,155.1406 492.0156,154.7031 Q492.2813,154.4375 492.4297,154.3594 Q492.5781,154.2813 492.7813,154.2813 Q493.1094,154.2813 493.3672,154.5391 Q493.625,154.7969 493.625,155.1406 Q493.625,155.4844 493.2813,155.8906 Q492.7813,156.4688 491.9844,156.7969 Q490.9063,157.25 489.6094,157.25 Q488.0938,157.25 486.8906,156.625 Q485.9063,156.125 485.2188,155.0547 Q484.5313,153.9844 484.5313,152.7031 L484.5313,151.5469 Q484.5313,150.2188 485.1484,149.0703 Q485.7656,147.9219 486.8594,147.3047 Q487.9531,146.6875 489.1875,146.6875 Q489.9219,146.6875 490.5703,146.8516 Q491.2188,147.0156 491.7656,147.375 Z "/><text fill="#000000" font-family="sans-serif" font-size="12" lengthAdjust="spacingAndGlyphs" textLength="84" x="503" y="156.4102">UndoController</text><line style="stroke: #A80036; stroke-width: 1.5;" x1="475" x2="589" y1="167.5" y2="167.5"/><line style="stroke: #A80036; stroke-width: 1.5;" x1="475" x2="589" y1="175.5" y2="175.5"/><!--class mastermind.controllers.RedoController--><rect fill="#FEFECE" filter="url(#f1ejxufs1u4uq9)" height="48" id="mastermind.controllers.RedoController" style="stroke: #A80036; stroke-width: 1.5;" width="116" x="323" y="135.5"/><ellipse cx="338" cy="151.5" fill="#ADD1B2" rx="11" ry="11" style="stroke: #A80036; stroke-width: 1.0;"/><path d="M340.7656,147.375 Q340.9219,147.1563 341.1094,147.0469 Q341.2969,146.9375 341.5156,146.9375 Q341.8906,146.9375 342.125,147.1953 Q342.3594,147.4531 342.3594,148.0625 L342.3594,149.5156 Q342.3594,150.125 342.125,150.3906 Q341.8906,150.6563 341.5156,150.6563 Q341.1719,150.6563 340.9688,150.4531 Q340.7656,150.2656 340.6563,149.75 Q340.6094,149.3906 340.4219,149.2031 Q340.0938,148.8281 339.4844,148.6094 Q338.875,148.3906 338.25,148.3906 Q337.4844,148.3906 336.8516,148.7188 Q336.2188,149.0469 335.7266,149.7969 Q335.2344,150.5469 335.2344,151.5781 L335.2344,152.6719 Q335.2344,153.9063 336.125,154.7266 Q337.0156,155.5469 338.6094,155.5469 Q339.5469,155.5469 340.2031,155.2969 Q340.5938,155.1406 341.0156,154.7031 Q341.2813,154.4375 341.4297,154.3594 Q341.5781,154.2813 341.7813,154.2813 Q342.1094,154.2813 342.3672,154.5391 Q342.625,154.7969 342.625,155.1406 Q342.625,155.4844 342.2813,155.8906 Q341.7813,156.4688 340.9844,156.7969 Q339.9063,157.25 338.6094,157.25 Q337.0938,157.25 335.8906,156.625 Q334.9063,156.125 334.2188,155.0547 Q333.5313,153.9844 333.5313,152.7031 L333.5313,151.5469 Q333.5313,150.2188 334.1484,149.0703 Q334.7656,147.9219 335.8594,147.3047 Q336.9531,146.6875 338.1875,146.6875 Q338.9219,146.6875 339.5703,146.8516 Q340.2188,147.0156 340.7656,147.375 Z "/><text fill="#000000" font-family="sans-serif" font-size="12" lengthAdjust="spacingAndGlyphs" textLength="84" x="352" y="156.4102">RedoController</text><line style="stroke: #A80036; stroke-width: 1.5;" x1="324" x2="438" y1="167.5" y2="167.5"/><line style="stroke: #A80036; stroke-width: 1.5;" x1="324" x2="438" y1="175.5" y2="175.5"/><!--class mastermind.controllers.ExitController--><rect fill="#FEFECE" filter="url(#f1ejxufs1u4uq9)" height="48" id="mastermind.controllers.ExitController" style="stroke: #A80036; stroke-width: 1.5;" width="105" x="182.5" y="135.5"/><ellipse cx="197.5" cy="151.5" fill="#ADD1B2" rx="11" ry="11" style="stroke: #A80036; stroke-width: 1.0;"/><path d="M200.2656,147.375 Q200.4219,147.1563 200.6094,147.0469 Q200.7969,146.9375 201.0156,146.9375 Q201.3906,146.9375 201.625,147.1953 Q201.8594,147.4531 201.8594,148.0625 L201.8594,149.5156 Q201.8594,150.125 201.625,150.3906 Q201.3906,150.6563 201.0156,150.6563 Q200.6719,150.6563 200.4688,150.4531 Q200.2656,150.2656 200.1563,149.75 Q200.1094,149.3906 199.9219,149.2031 Q199.5938,148.8281 198.9844,148.6094 Q198.375,148.3906 197.75,148.3906 Q196.9844,148.3906 196.3516,148.7188 Q195.7188,149.0469 195.2266,149.7969 Q194.7344,150.5469 194.7344,151.5781 L194.7344,152.6719 Q194.7344,153.9063 195.625,154.7266 Q196.5156,155.5469 198.1094,155.5469 Q199.0469,155.5469 199.7031,155.2969 Q200.0938,155.1406 200.5156,154.7031 Q200.7813,154.4375 200.9297,154.3594 Q201.0781,154.2813 201.2813,154.2813 Q201.6094,154.2813 201.8672,154.5391 Q202.125,154.7969 202.125,155.1406 Q202.125,155.4844 201.7813,155.8906 Q201.2813,156.4688 200.4844,156.7969 Q199.4063,157.25 198.1094,157.25 Q196.5938,157.25 195.3906,156.625 Q194.4063,156.125 193.7188,155.0547 Q193.0313,153.9844 193.0313,152.7031 L193.0313,151.5469 Q193.0313,150.2188 193.6484,149.0703 Q194.2656,147.9219 195.3594,147.3047 Q196.4531,146.6875 197.6875,146.6875 Q198.4219,146.6875 199.0703,146.8516 Q199.7188,147.0156 200.2656,147.375 Z "/><text fill="#000000" font-family="sans-serif" font-size="12" lengthAdjust="spacingAndGlyphs" textLength="73" x="211.5" y="156.4102">ExitController</text><line style="stroke: #A80036; stroke-width: 1.5;" x1="183.5" x2="286.5" y1="167.5" y2="167.5"/><line style="stroke: #A80036; stroke-width: 1.5;" x1="183.5" x2="286.5" y1="175.5" y2="175.5"/><!--class mastermind.controllers.ResumeController--><rect fill="#FEFECE" filter="url(#f1ejxufs1u4uq9)" height="48" id="mastermind.controllers.ResumeController" style="stroke: #A80036; stroke-width: 1.5;" width="134" x="796" y="135.5"/><ellipse cx="811" cy="151.5" fill="#ADD1B2" rx="11" ry="11" style="stroke: #A80036; stroke-width: 1.0;"/><path d="M813.7656,147.375 Q813.9219,147.1563 814.1094,147.0469 Q814.2969,146.9375 814.5156,146.9375 Q814.8906,146.9375 815.125,147.1953 Q815.3594,147.4531 815.3594,148.0625 L815.3594,149.5156 Q815.3594,150.125 815.125,150.3906 Q814.8906,150.6563 814.5156,150.6563 Q814.1719,150.6563 813.9688,150.4531 Q813.7656,150.2656 813.6563,149.75 Q813.6094,149.3906 813.4219,149.2031 Q813.0938,148.8281 812.4844,148.6094 Q811.875,148.3906 811.25,148.3906 Q810.4844,148.3906 809.8516,148.7188 Q809.2188,149.0469 808.7266,149.7969 Q808.2344,150.5469 808.2344,151.5781 L808.2344,152.6719 Q808.2344,153.9063 809.125,154.7266 Q810.0156,155.5469 811.6094,155.5469 Q812.5469,155.5469 813.2031,155.2969 Q813.5938,155.1406 814.0156,154.7031 Q814.2813,154.4375 814.4297,154.3594 Q814.5781,154.2813 814.7813,154.2813 Q815.1094,154.2813 815.3672,154.5391 Q815.625,154.7969 815.625,155.1406 Q815.625,155.4844 815.2813,155.8906 Q814.7813,156.4688 813.9844,156.7969 Q812.9063,157.25 811.6094,157.25 Q810.0938,157.25 808.8906,156.625 Q807.9063,156.125 807.2188,155.0547 Q806.5313,153.9844 806.5313,152.7031 L806.5313,151.5469 Q806.5313,150.2188 807.1484,149.0703 Q807.7656,147.9219 808.8594,147.3047 Q809.9531,146.6875 811.1875,146.6875 Q811.9219,146.6875 812.5703,146.8516 Q813.2188,147.0156 813.7656,147.375 Z "/><text fill="#000000" font-family="sans-serif" font-size="12" lengthAdjust="spacingAndGlyphs" textLength="102" x="825" y="156.4102">ResumeController</text><line style="stroke: #A80036; stroke-width: 1.5;" x1="797" x2="929" y1="167.5" y2="167.5"/><line style="stroke: #A80036; stroke-width: 1.5;" x1="797" x2="929" y1="175.5" y2="175.5"/><!--class mastermind.controllers.SaveController--><rect fill="#FEFECE" filter="url(#f1ejxufs1u4uq9)" height="48" id="mastermind.controllers.SaveController" style="stroke: #A80036; stroke-width: 1.5;" width="113" x="1209.5" y="135.5"/><ellipse cx="1224.5" cy="151.5" fill="#ADD1B2" rx="11" ry="11" style="stroke: #A80036; stroke-width: 1.0;"/><path d="M1227.2656,147.375 Q1227.4219,147.1563 1227.6094,147.0469 Q1227.7969,146.9375 1228.0156,146.9375 Q1228.3906,146.9375 1228.625,147.1953 Q1228.8594,147.4531 1228.8594,148.0625 L1228.8594,149.5156 Q1228.8594,150.125 1228.625,150.3906 Q1228.3906,150.6563 1228.0156,150.6563 Q1227.6719,150.6563 1227.4688,150.4531 Q1227.2656,150.2656 1227.1563,149.75 Q1227.1094,149.3906 1226.9219,149.2031 Q1226.5938,148.8281 1225.9844,148.6094 Q1225.375,148.3906 1224.75,148.3906 Q1223.9844,148.3906 1223.3516,148.7188 Q1222.7188,149.0469 1222.2266,149.7969 Q1221.7344,150.5469 1221.7344,151.5781 L1221.7344,152.6719 Q1221.7344,153.9063 1222.625,154.7266 Q1223.5156,155.5469 1225.1094,155.5469 Q1226.0469,155.5469 1226.7031,155.2969 Q1227.0938,155.1406 1227.5156,154.7031 Q1227.7813,154.4375 1227.9297,154.3594 Q1228.0781,154.2813 1228.2813,154.2813 Q1228.6094,154.2813 1228.8672,154.5391 Q1229.125,154.7969 1229.125,155.1406 Q1229.125,155.4844 1228.7813,155.8906 Q1228.2813,156.4688 1227.4844,156.7969 Q1226.4063,157.25 1225.1094,157.25 Q1223.5938,157.25 1222.3906,156.625 Q1221.4063,156.125 1220.7188,155.0547 Q1220.0313,153.9844 1220.0313,152.7031 L1220.0313,151.5469 Q1220.0313,150.2188 1220.6484,149.0703 Q1221.2656,147.9219 1222.3594,147.3047 Q1223.4531,146.6875 1224.6875,146.6875 Q1225.4219,146.6875 1226.0703,146.8516 Q1226.7188,147.0156 1227.2656,147.375 Z "/><text fill="#000000" font-family="sans-serif" font-size="12" lengthAdjust="spacingAndGlyphs" textLength="81" x="1238.5" y="156.4102">SaveController</text><line style="stroke: #A80036; stroke-width: 1.5;" x1="1210.5" x2="1321.5" y1="167.5" y2="167.5"/><line style="stroke: #A80036; stroke-width: 1.5;" x1="1210.5" x2="1321.5" y1="175.5" y2="175.5"/><!--class mastermind.controllers.StartController--><rect fill="#FEFECE" filter="url(#f1ejxufs1u4uq9)" height="48" id="mastermind.controllers.StartController" style="stroke: #A80036; stroke-width: 1.5;" width="111" x="965.5" y="135.5"/><ellipse cx="980.5" cy="151.5" fill="#ADD1B2" rx="11" ry="11" style="stroke: #A80036; stroke-width: 1.0;"/><path d="M983.2656,147.375 Q983.4219,147.1563 983.6094,147.0469 Q983.7969,146.9375 984.0156,146.9375 Q984.3906,146.9375 984.625,147.1953 Q984.8594,147.4531 984.8594,148.0625 L984.8594,149.5156 Q984.8594,150.125 984.625,150.3906 Q984.3906,150.6563 984.0156,150.6563 Q983.6719,150.6563 983.4688,150.4531 Q983.2656,150.2656 983.1563,149.75 Q983.1094,149.3906 982.9219,149.2031 Q982.5938,148.8281 981.9844,148.6094 Q981.375,148.3906 980.75,148.3906 Q979.9844,148.3906 979.3516,148.7188 Q978.7188,149.0469 978.2266,149.7969 Q977.7344,150.5469 977.7344,151.5781 L977.7344,152.6719 Q977.7344,153.9063 978.625,154.7266 Q979.5156,155.5469 981.1094,155.5469 Q982.0469,155.5469 982.7031,155.2969 Q983.0938,155.1406 983.5156,154.7031 Q983.7813,154.4375 983.9297,154.3594 Q984.0781,154.2813 984.2813,154.2813 Q984.6094,154.2813 984.8672,154.5391 Q985.125,154.7969 985.125,155.1406 Q985.125,155.4844 984.7813,155.8906 Q984.2813,156.4688 983.4844,156.7969 Q982.4063,157.25 981.1094,157.25 Q979.5938,157.25 978.3906,156.625 Q977.4063,156.125 976.7188,155.0547 Q976.0313,153.9844 976.0313,152.7031 L976.0313,151.5469 Q976.0313,150.2188 976.6484,149.0703 Q977.2656,147.9219 978.3594,147.3047 Q979.4531,146.6875 980.6875,146.6875 Q981.4219,146.6875 982.0703,146.8516 Q982.7188,147.0156 983.2656,147.375 Z "/><text fill="#000000" font-family="sans-serif" font-size="12" lengthAdjust="spacingAndGlyphs" textLength="79" x="994.5" y="156.4102">StartController</text><line style="stroke: #A80036; stroke-width: 1.5;" x1="966.5" x2="1075.5" y1="167.5" y2="167.5"/><line style="stroke: #A80036; stroke-width: 1.5;" x1="966.5" x2="1075.5" y1="175.5" y2="175.5"/><!--class mastermind.models.DAO.SessionImplementationDAO--><rect fill="#FEFECE" filter="url(#f1ejxufs1u4uq9)" height="48" id="mastermind.models.DAO.SessionImplementationDAO" style="stroke: #A80036; stroke-width: 1.5;" width="189" x="2717.5" y="644"/><ellipse cx="2732.5" cy="660" fill="#ADD1B2" rx="11" ry="11" style="stroke: #A80036; stroke-width: 1.0;"/><path d="M2735.2656,655.875 Q2735.4219,655.6563 2735.6094,655.5469 Q2735.7969,655.4375 2736.0156,655.4375 Q2736.3906,655.4375 2736.625,655.6953 Q2736.8594,655.9531 2736.8594,656.5625 L2736.8594,658.0156 Q2736.8594,658.625 2736.625,658.8906 Q2736.3906,659.1563 2736.0156,659.1563 Q2735.6719,659.1563 2735.4688,658.9531 Q2735.2656,658.7656 2735.1563,658.25 Q2735.1094,657.8906 2734.9219,657.7031 Q2734.5938,657.3281 2733.9844,657.1094 Q2733.375,656.8906 2732.75,656.8906 Q2731.9844,656.8906 2731.3516,657.2188 Q2730.7188,657.5469 2730.2266,658.2969 Q2729.7344,659.0469 2729.7344,660.0781 L2729.7344,661.1719 Q2729.7344,662.4063 2730.625,663.2266 Q2731.5156,664.0469 2733.1094,664.0469 Q2734.0469,664.0469 2734.7031,663.7969 Q2735.0938,663.6406 2735.5156,663.2031 Q2735.7813,662.9375 2735.9297,662.8594 Q2736.0781,662.7813 2736.2813,662.7813 Q2736.6094,662.7813 2736.8672,663.0391 Q2737.125,663.2969 2737.125,663.6406 Q2737.125,663.9844 2736.7813,664.3906 Q2736.2813,664.9688 2735.4844,665.2969 Q2734.4063,665.75 2733.1094,665.75 Q2731.5938,665.75 2730.3906,665.125 Q2729.4063,664.625 2728.7188,663.5547 Q2728.0313,662.4844 2728.0313,661.2031 L2728.0313,660.0469 Q2728.0313,658.7188 2728.6484,657.5703 Q2729.2656,656.4219 2730.3594,655.8047 Q2731.4531,655.1875 2732.6875,655.1875 Q2733.4219,655.1875 2734.0703,655.3516 Q2734.7188,655.5156 2735.2656,655.875 Z "/><text fill="#000000" font-family="sans-serif" font-size="12" lengthAdjust="spacingAndGlyphs" textLength="157" x="2746.5" y="664.9102">SessionImplementationDAO</text><line style="stroke: #A80036; stroke-width: 1.5;" x1="2718.5" x2="2905.5" y1="676" y2="676"/><line style="stroke: #A80036; stroke-width: 1.5;" x1="2718.5" x2="2905.5" y1="684" y2="684"/><!--class mastermind.models.SessionImplementation--><rect fill="#FEFECE" filter="url(#f1ejxufs1u4uq9)" height="48" id="mastermind.models.SessionImplementation" style="stroke: #A80036; stroke-width: 1.5;" width="164" x="2169" y="644"/><ellipse cx="2184" cy="660" fill="#ADD1B2" rx="11" ry="11" style="stroke: #A80036; stroke-width: 1.0;"/><path d="M2186.7656,655.875 Q2186.9219,655.6563 2187.1094,655.5469 Q2187.2969,655.4375 2187.5156,655.4375 Q2187.8906,655.4375 2188.125,655.6953 Q2188.3594,655.9531 2188.3594,656.5625 L2188.3594,658.0156 Q2188.3594,658.625 2188.125,658.8906 Q2187.8906,659.1563 2187.5156,659.1563 Q2187.1719,659.1563 2186.9688,658.9531 Q2186.7656,658.7656 2186.6563,658.25 Q2186.6094,657.8906 2186.4219,657.7031 Q2186.0938,657.3281 2185.4844,657.1094 Q2184.875,656.8906 2184.25,656.8906 Q2183.4844,656.8906 2182.8516,657.2188 Q2182.2188,657.5469 2181.7266,658.2969 Q2181.2344,659.0469 2181.2344,660.0781 L2181.2344,661.1719 Q2181.2344,662.4063 2182.125,663.2266 Q2183.0156,664.0469 2184.6094,664.0469 Q2185.5469,664.0469 2186.2031,663.7969 Q2186.5938,663.6406 2187.0156,663.2031 Q2187.2813,662.9375 2187.4297,662.8594 Q2187.5781,662.7813 2187.7813,662.7813 Q2188.1094,662.7813 2188.3672,663.0391 Q2188.625,663.2969 2188.625,663.6406 Q2188.625,663.9844 2188.2813,664.3906 Q2187.7813,664.9688 2186.9844,665.2969 Q2185.9063,665.75 2184.6094,665.75 Q2183.0938,665.75 2181.8906,665.125 Q2180.9063,664.625 2180.2188,663.5547 Q2179.5313,662.4844 2179.5313,661.2031 L2179.5313,660.0469 Q2179.5313,658.7188 2180.1484,657.5703 Q2180.7656,656.4219 2181.8594,655.8047 Q2182.9531,655.1875 2184.1875,655.1875 Q2184.9219,655.1875 2185.5703,655.3516 Q2186.2188,655.5156 2186.7656,655.875 Z "/><text fill="#000000" font-family="sans-serif" font-size="12" lengthAdjust="spacingAndGlyphs" textLength="132" x="2198" y="664.9102">SessionImplementation</text><line style="stroke: #A80036; stroke-width: 1.5;" x1="2170" x2="2332" y1="676" y2="676"/><line style="stroke: #A80036; stroke-width: 1.5;" x1="2170" x2="2332" y1="684" y2="684"/><!--link mastermind.controllers.Logic to mastermind.controllers.implementation.LogicImplementation--><path d="M1150.4,115.461 C1158.58,82.388 1175.43,39.567 1209.5,20 C1252.66,-4.792 1271.86,16.296 1321.5,20 C1575.56,38.958 1865.45,86.677 2052.97,121.026 " fill="none" id="mastermind.controllers.Logic-mastermind.controllers.implementation.LogicImplementation" style="stroke: #A80036; stroke-width: 1.0;"/><polygon fill="none" points="1157.16,117.323,1146.18,135.444,1143.46,114.429,1157.16,117.323" style="stroke: #A80036; stroke-width: 1.0;"/><!--link mastermind.controllers.implementation.LogicImplementation to mastermind.models.DAO.SessionImplementationDAO--><path d="M2462.26,175.213 C2714.51,194.971 3108.23,233.623 3153,285 C3242.64,387.865 3238.49,485.661 3153,592 C3124.02,628.0414 3008.45,647.763 2919.8,657.8154 " fill="none" id="mastermind.controllers.implementation.LogicImplementation-mastermind.models.DAO.SessionImplementationDAO" style="stroke: #A80036; stroke-width: 1.0;"/><polygon fill="#A80036" points="2906.65,659.2585,2916.0318,662.2556,2911.6203,658.7145,2915.1614,654.3031,2906.65,659.2585" style="stroke: #A80036; stroke-width: 1.0;"/><line style="stroke: #A80036; stroke-width: 1.0;" x1="2911.6203" x2="2919.575" y1="658.7145" y2="657.84"/><polygon fill="#A80036" points="2449.23,174.199,2454.9045,178.6487,2461.1944,175.1221,2455.5199,170.6724,2449.23,174.199" style="stroke: #A80036; stroke-width: 1.0;"/><!--link mastermind.controllers.implementation.LogicImplementation to mastermind.controllers.implementation.StartControllerImplementation--><path d="M2251,238.517 C2251,261.975 2251,288.192 2251,313.4 " fill="none" id="mastermind.controllers.implementation.LogicImplementation-mastermind.controllers.implementation.StartControllerImplementation" style="stroke: #A80036; stroke-width: 1.0;"/><polygon fill="#A80036" points="2251,326.47,2255,317.47,2251,321.47,2247,317.47,2251,326.47" style="stroke: #A80036; stroke-width: 1.0;"/><line style="stroke: #A80036; stroke-width: 1.0;" x1="2251" x2="2251" y1="321.47" y2="313.47"/><polygon fill="#A80036" points="2251,225.326,2247,231.326,2251,237.326,2255,231.326,2251,225.326" style="stroke: #A80036; stroke-width: 1.0;"/><!--link mastermind.controllers.implementation.LogicImplementation to mastermind.controllers.implementation.PlayControllerImplementation--><path d="M2039.68,178.184 C1924.49,194.407 1782.31,225.487 1667,285 C1664.87,286.1 1662.75,287.237 1660.63,288.409 " fill="none" id="mastermind.controllers.implementation.LogicImplementation-mastermind.controllers.implementation.PlayControllerImplementation" style="stroke: #A80036; stroke-width: 1.0;"/><polygon fill="#A80036" points="1649.41,294.996,1659.1972,293.8958,1653.7236,292.4676,1655.1518,286.994,1649.41,294.996" style="stroke: #A80036; stroke-width: 1.0;"/><line style="stroke: #A80036; stroke-width: 1.0;" x1="1653.7236" x2="1660.62" y1="292.4676" y2="288.415"/><polygon fill="#A80036" points="2052.88,176.374,2046.3909,173.2289,2040.9919,178.0092,2047.481,181.1543,2052.88,176.374" style="stroke: #A80036; stroke-width: 1.0;"/><!--link mastermind.controllers.implementation.LogicImplementation to mastermind.controllers.implementation.SaveControllerImplementation--><path d="M2411.85,230.528 C2451,247.98 2492.63,266.89 2531,285 C2573.15,304.898 2618.48,327.17 2660.16,348.012 " fill="none" id="mastermind.controllers.implementation.LogicImplementation-mastermind.controllers.implementation.SaveControllerImplementation" style="stroke: #A80036; stroke-width: 1.0;"/><polygon fill="#A80036" points="2671.82,353.85,2665.5601,346.2464,2667.3482,351.6133,2661.9814,353.4013,2671.82,353.85" style="stroke: #A80036; stroke-width: 1.0;"/><line style="stroke: #A80036; stroke-width: 1.0;" x1="2667.3482" x2="2660.195" y1="351.6133" y2="348.0275"/><polygon fill="#A80036" points="2399.79,225.161,2403.6453,231.255,2410.7533,230.04,2406.898,223.9461,2399.79,225.161" style="stroke: #A80036; stroke-width: 1.0;"/><!--link mastermind.controllers.implementation.LogicImplementation to mastermind.controllers.implementation.ResumeControllerImplementation--><path d="M2069.63,230.67 C2035.79,246.649 2001.51,264.915 1971,285 C1930.55,311.631 1890.57,349.16 1861.77,378.732 " fill="none" id="mastermind.controllers.implementation.LogicImplementation-mastermind.controllers.implementation.ResumeControllerImplementation" style="stroke: #A80036; stroke-width: 1.0;"/><polygon fill="#A80036" points="1852.44,388.429,1861.5611,384.7134,1855.9053,384.8246,1855.7941,379.1689,1852.44,388.429" style="stroke: #A80036; stroke-width: 1.0;"/><line style="stroke: #A80036; stroke-width: 1.0;" x1="1855.9053" x2="1861.45" y1="384.8246" y2="379.0575"/><polygon fill="#A80036" points="2081.57,225.114,2074.4425,224.0192,2070.6905,230.1773,2077.818,231.2721,2081.57,225.114" style="stroke: #A80036; stroke-width: 1.0;"/><!--link mastermind.controllers.implementation.LogicImplementation to mastermind.models.SessionImplementation--><path d="M2449.36,161.135 C2671.61,166.562 3011.54,190.609 3093,285 C3182.15,388.296 3188.49,494.54 3093,592 C3085.38,599.779 2711.85,599.085 2701,600 C2574.12,610.696 2428.6,634.4884 2338.22,650.6423 " fill="none" id="mastermind.controllers.implementation.LogicImplementation-mastermind.models.SessionImplementation" style="stroke: #A80036; stroke-width: 1.0; stroke-dasharray: 7.0,7.0;"/><polygon fill="#A80036" points="2333.16,651.5502,2342.7262,653.8929,2338.0809,650.6646,2341.3092,646.0194,2333.16,651.5502" style="stroke: #A80036; stroke-width: 1.0;"/><!--link mastermind.controllers.PlayController to mastermind.controllers.implementation.PlayControllerImplementation--><path d="M126.669,197.998 C137.865,208.315 151.061,218.454 165,225 C379.186,325.58 1081.25,391.325 1378.79,415.318 " fill="none" id="mastermind.controllers.PlayController-mastermind.controllers.implementation.PlayControllerImplementation" style="stroke: #A80036; stroke-width: 1.0;"/><polygon fill="none" points="121.51,202.739,112.305,183.653,131.403,192.833,121.51,202.739" style="stroke: #A80036; stroke-width: 1.0;"/><!--link mastermind.controllers.implementation.PlayControllerImplementation to mastermind.controllers.ProposalController--><path d="M1365.73,402.352 C1212.7,374.578 969.931,319.506 778,225 C760.347,216.308 742.71,203.725 728.115,191.976 " fill="none" id="mastermind.controllers.implementation.PlayControllerImplementation-mastermind.controllers.ProposalController" style="stroke: #A80036; stroke-width: 1.0;"/><polygon fill="#A80036" points="718.068,183.636,722.4377,192.4624,721.915,186.8298,727.5477,186.3072,718.068,183.636" style="stroke: #A80036; stroke-width: 1.0;"/><line style="stroke: #A80036; stroke-width: 1.0;" x1="721.915" x2="728.0705" y1="186.8298" y2="191.939"/><polygon fill="#A80036" points="1378.88,404.712,1373.6769,399.7192,1367.067,402.6018,1372.2701,407.5946,1378.88,404.712" style="stroke: #A80036; stroke-width: 1.0;"/><!--link mastermind.controllers.implementation.PlayControllerImplementation to mastermind.controllers.UndoController--><path d="M1365.64,415.031 C1179.67,397.025 855.234,349.2 607,225 C590.882,216.936 575.375,204.644 562.687,192.946 " fill="none" id="mastermind.controllers.implementation.PlayControllerImplementation-mastermind.controllers.UndoController" style="stroke: #A80036; stroke-width: 1.0;"/><polygon fill="#A80036" points="553.157,183.783,556.8719,192.9044,556.7611,187.2486,562.4169,187.1378,553.157,183.783" style="stroke: #A80036; stroke-width: 1.0;"/><line style="stroke: #A80036; stroke-width: 1.0;" x1="556.7611" x2="562.5285" y1="187.2486" y2="192.7935"/><polygon fill="#A80036" points="1378.78,416.277,1373.1849,411.7279,1366.8337,415.1429,1372.4288,419.692,1378.78,416.277" style="stroke: #A80036; stroke-width: 1.0;"/><!--link mastermind.controllers.implementation.PlayControllerImplementation to mastermind.controllers.RedoController--><path d="M1365.83,421.378 C1154.1,410.312 757.301,370.091 456,225 C439.64,217.122 424,204.748 411.276,192.937 " fill="none" id="mastermind.controllers.implementation.PlayControllerImplementation-mastermind.controllers.RedoController" style="stroke: #A80036; stroke-width: 1.0;"/><polygon fill="#A80036" points="401.738,183.681,405.411,192.8193,405.3262,187.1631,410.9824,187.0783,401.738,183.681" style="stroke: #A80036; stroke-width: 1.0;"/><line style="stroke: #A80036; stroke-width: 1.0;" x1="405.3262" x2="411.0675" y1="187.1631" y2="192.735"/><polygon fill="#A80036" points="1378.89,422.035,1373.0999,417.7368,1366.9053,421.4284,1372.6955,425.7266,1378.89,422.035" style="stroke: #A80036; stroke-width: 1.0;"/><!--link mastermind.controllers.implementation.PlayControllerImplementation to mastermind.controllers.ExitController--><path d="M1365.77,411.61 C1085.61,383.621 489.889,315.325 305,225 C289.34,217.349 274.702,205.055 262.902,193.242 " fill="none" id="mastermind.controllers.implementation.PlayControllerImplementation-mastermind.controllers.ExitController" style="stroke: #A80036; stroke-width: 1.0;"/><polygon fill="#A80036" points="253.697,183.544,256.9913,192.8256,257.139,187.1706,262.7939,187.3183,253.697,183.544" style="stroke: #A80036; stroke-width: 1.0;"/><line style="stroke: #A80036; stroke-width: 1.0;" x1="257.139" x2="262.647" y1="187.1706" y2="192.973"/><polygon fill="#A80036" points="1378.87,412.912,1373.295,408.3382,1366.9288,411.7253,1372.5038,416.299,1378.87,412.912" style="stroke: #A80036; stroke-width: 1.0;"/><!--link mastermind.controllers.ResumeController to mastermind.controllers.implementation.ResumeControllerImplementation--><path d="M901.354,196.897 C915.061,207.817 931.277,218.587 948,225 C1247.41,339.818 1373.51,155.805 1667,285 C1718.31,307.586 1763.53,354.818 1791.03,388.272 " fill="none" id="mastermind.controllers.ResumeController-mastermind.controllers.implementation.ResumeControllerImplementation" style="stroke: #A80036; stroke-width: 1.0;"/><polygon fill="none" points="896.669,202.101,886.015,183.784,905.766,191.459,896.669,202.101" style="stroke: #A80036; stroke-width: 1.0;"/><!--link mastermind.controllers.implementation.ResumeControllerImplementation to mastermind.models.SessionImplementation--><path d="M1843.62,464.578 C1870.53,502.211 1917.08,559.435 1971,592 C2029.86,627.5444 2105.64,646.5114 2163.52,656.4713 " fill="none" id="mastermind.controllers.implementation.ResumeControllerImplementation-mastermind.models.SessionImplementation" style="stroke: #A80036; stroke-width: 1.0; stroke-dasharray: 7.0,7.0;"/><polygon fill="#A80036" points="2168.72,657.3488,2160.5228,651.8894,2163.7915,656.5062,2159.1746,659.775,2168.72,657.3488" style="stroke: #A80036; stroke-width: 1.0;"/><!--link mastermind.controllers.SaveController to mastermind.controllers.implementation.SaveControllerImplementation--><path d="M1308.48,195.889 C1324.56,207.29 1343.68,218.618 1363,225 C1609.78,306.525 2279.67,218.817 2531,285 C2587.96,300.001 2646.88,327.35 2695.96,353.96 " fill="none" id="mastermind.controllers.SaveController-mastermind.controllers.implementation.SaveControllerImplementation" style="stroke: #A80036; stroke-width: 1.0;"/><polygon fill="none" points="1304.09,201.352,1292.34,183.72,1312.52,190.174,1304.09,201.352" style="stroke: #A80036; stroke-width: 1.0;"/><!--link mastermind.controllers.implementation.SaveControllerImplementation to mastermind.models.DAO.SessionImplementationDAO--><path d="M2812,512.32 C2812,552.914 2812,599.378 2812,630.6977 " fill="none" id="mastermind.controllers.implementation.SaveControllerImplementation-mastermind.models.DAO.SessionImplementationDAO" style="stroke: #A80036; stroke-width: 1.0;"/><polygon fill="#A80036" points="2812,643.9466,2816,634.9466,2812,638.9466,2808,634.9466,2812,643.9466" style="stroke: #A80036; stroke-width: 1.0;"/><line style="stroke: #A80036; stroke-width: 1.0;" x1="2812" x2="2812" y1="638.9466" y2="630.9466"/><polygon fill="#A80036" points="2812,499.033,2808,505.033,2812,511.033,2816,505.033,2812,499.033" style="stroke: #A80036; stroke-width: 1.0;"/><!--link mastermind.controllers.StartController to mastermind.controllers.implementation.StartControllerImplementation--><path d="M1054.01,197.867 C1065.54,208.502 1079.3,218.856 1094,225 C1454.46,375.695 1594.12,182.037 1971,285 C2007.59,294.998 2045.03,309.977 2080.14,326.482 " fill="none" id="mastermind.controllers.StartController-mastermind.controllers.implementation.StartControllerImplementation" style="stroke: #A80036; stroke-width: 1.0;"/><polygon fill="none" points="1048.93,202.683,1039.8,183.561,1058.86,192.817,1048.93,202.683" style="stroke: #A80036; stroke-width: 1.0;"/><!--link mastermind.controllers.implementation.StartControllerImplementation to mastermind.models.DAO.SessionImplementationDAO--><path d="M2414.15,533.268 C2451.57,554.695 2491.87,575.642 2531,592 C2586.41,615.166 2650.99,632.9956 2704.26,645.4467 " fill="none" id="mastermind.controllers.implementation.StartControllerImplementation-mastermind.models.DAO.SessionImplementationDAO" style="stroke: #A80036; stroke-width: 1.0;"/><polygon fill="#A80036" points="2717.19,648.4169,2709.3157,642.5013,2712.3172,647.2961,2707.5224,650.2977,2717.19,648.4169" style="stroke: #A80036; stroke-width: 1.0;"/><line style="stroke: #A80036; stroke-width: 1.0;" x1="2712.3172" x2="2704.52" y1="647.2961" y2="645.5073"/><polygon fill="#A80036" points="2402.64,526.607,2405.8286,533.0748,2413.0253,532.6191,2409.8367,526.1513,2402.64,526.607" style="stroke: #A80036; stroke-width: 1.0;"/><!--link mastermind.controllers.implementation.StartControllerImplementation to mastermind.models.SessionImplementation--><path d="M2251,526.643 C2251,567.179 2251,610.964 2251,638.6564 " fill="none" id="mastermind.controllers.implementation.StartControllerImplementation-mastermind.models.SessionImplementation" style="stroke: #A80036; stroke-width: 1.0; stroke-dasharray: 7.0,7.0;"/><polygon fill="#A80036" points="2251,643.9746,2255,634.9746,2251,638.9746,2247,634.9746,2251,643.9746" style="stroke: #A80036; stroke-width: 1.0;"/><!--
@startuml
class mastermind.controllers.implementation.LogicImplementation {
	#SessionImplementationDAO sessionImplementationDAO
	#StartControllerImplementation startControllerImplementation
	#PlayControllerImplementation playControllerImplementation
	#SaveControllerImplementation saveControllerImplementation
	#ResumeControllerImplementation resumeControllerImplementation
	+LogicImplementation(SessionImplementationDAO sessionImplementationDAO)
}
mastermind.controllers.Logic <|-down- mastermind.controllers.implementation.LogicImplementation
mastermind.controllers.implementation.LogicImplementation *-down-> mastermind.models.DAO.SessionImplementationDAO
mastermind.controllers.implementation.LogicImplementation *-down-> mastermind.controllers.implementation.StartControllerImplementation
mastermind.controllers.implementation.LogicImplementation *-down-> mastermind.controllers.implementation.PlayControllerImplementation
mastermind.controllers.implementation.LogicImplementation *-down-> mastermind.controllers.implementation.SaveControllerImplementation
mastermind.controllers.implementation.LogicImplementation *-down-> mastermind.controllers.implementation.ResumeControllerImplementation
mastermind.controllers.implementation.LogicImplementation ..> mastermind.models.SessionImplementation

class mastermind.controllers.implementation.PlayControllerImplementation {
	-ProposalController proposalController
	-UndoController undoController
	-RedoController redoController
	-ExitController exitController
	~PlayControllerImplementation(Session session)
	+Error addProposedCombination(List<Color> colors)
	+void undo()
	+void redo()
	+void next()
	+boolean undoable()
	+boolean redoable()
	+boolean isWinner()
	+boolean isLooser()
	+List<Color> getColors(int position)
	+int getBlacks(int position)
	+int getWhites(int position)
	+int getAttempts()
}
mastermind.controllers.PlayController <|-down- mastermind.controllers.implementation.PlayControllerImplementation
mastermind.controllers.implementation.PlayControllerImplementation *-down-> mastermind.controllers.ProposalController
mastermind.controllers.implementation.PlayControllerImplementation *-down-> mastermind.controllers.UndoController
mastermind.controllers.implementation.PlayControllerImplementation *-down-> mastermind.controllers.RedoController
mastermind.controllers.implementation.PlayControllerImplementation *-down-> mastermind.controllers.ExitController

class mastermind.controllers.implementation.ResumeControllerImplementation {
	~ResumeControllerImplementation(Session session)
	+void isNewGame(boolean newGame)
}
mastermind.controllers.ResumeController <|-down- mastermind.controllers.implementation.ResumeControllerImplementation
mastermind.controllers.implementation.ResumeControllerImplementation ..> mastermind.models.SessionImplementation

class mastermind.controllers.implementation.SaveControllerImplementation {
	-SessionImplementationDAO sessionImplementationDAO
	~SaveControllerImplementation(Session session, SessionImplementationDAO sessionImplementationDAO)
	+void save(String name)
	+void save()
	+void next()
	+boolean hasName()
	+boolean exists(String name)
}
mastermind.controllers.SaveController <|-down- mastermind.controllers.implementation.SaveControllerImplementation
mastermind.controllers.implementation.SaveControllerImplementation *-down-> mastermind.models.DAO.SessionImplementationDAO

class mastermind.controllers.implementation.StartControllerImplementation {
	-SessionImplementationDAO sessionImplementationDAO
	~StartControllerImplementation(Session session, SessionImplementationDAO sessionImplementationDAO)
	+void start()
	+void start(String name)
	+String[] getGamesNames()
	+int getAttempts()
	+List<Color> getColors(int position)
	+int getBlacks(int position)
	+int getWhites(int position)
	+boolean isWinner()
	+boolean isLooser()
}
mastermind.controllers.StartController <|-down- mastermind.controllers.implementation.StartControllerImplementation
mastermind.controllers.implementation.StartControllerImplementation *-down-> mastermind.models.DAO.SessionImplementationDAO
mastermind.controllers.implementation.StartControllerImplementation ..> mastermind.models.SessionImplementation
@enduml

PlantUML version 1.2019.05(Sat Apr 20 18:45:36 CEST 2019)
(GPL source distribution)
Java Runtime: OpenJDK Runtime Environment
JVM: OpenJDK 64-Bit Server VM
Java Version: 1.8.0_222-b10
Operating System: Windows 10
OS Version: 10.0
Default Encoding: windows-1252
Language: es
Country: ES
--></g></svg>