<?xml version="1.0" encoding="UTF-8" standalone="no"?><svg xmlns="http://www.w3.org/2000/svg" xmlns:xlink="http://www.w3.org/1999/xlink" contentScriptType="application/ecmascript" contentStyleType="text/css" height="355px" preserveAspectRatio="none" style="width:780px;height:355px;" version="1.1" viewBox="0 0 780 355" width="780px" zoomAndPan="magnify"><defs><filter height="300%" id="f2j4xqadeue0x" width="300%" x="-1" y="-1"><feGaussianBlur result="blurOut" stdDeviation="2.0"/><feColorMatrix in="blurOut" result="blurOut2" type="matrix" values="0 0 0 0 0 0 0 0 0 0 0 0 0 0 0 0 0 0 .4 0"/><feOffset dx="4.0" dy="4.0" in="blurOut2" result="blurOut3"/><feBlend in="SourceGraphic" in2="blurOut3" mode="normal"/></filter></defs><g><!--cluster mastermind--><polygon fill="#FFFFFF" filter="url(#f2j4xqadeue0x)" points="22,24,110,24,117,47.6094,388,47.6094,388,343,22,343,22,24" style="stroke: #000000; stroke-width: 1.5;"/><line style="stroke: #000000; stroke-width: 1.5;" x1="22" x2="117" y1="47.6094" y2="47.6094"/><text fill="#000000" font-family="sans-serif" font-size="14" font-weight="bold" lengthAdjust="spacingAndGlyphs" textLength="82" x="26" y="40.5332">mastermind</text><!--cluster mastermind.controllers--><polygon fill="#FFFFFF" filter="url(#f2j4xqadeue0x)" points="412,222,581,222,588,245.6094,591,245.6094,591,322,412,322,412,222" style="stroke: #000000; stroke-width: 1.5;"/><line style="stroke: #000000; stroke-width: 1.5;" x1="412" x2="588" y1="245.6094" y2="245.6094"/><text fill="#000000" font-family="sans-serif" font-size="14" font-weight="bold" lengthAdjust="spacingAndGlyphs" textLength="163" x="416" y="238.5332">mastermind.controllers</text><!--cluster mastermind.views--><polygon fill="#FFFFFF" filter="url(#f2j4xqadeue0x)" points="615,222,748,222,755,245.6094,758,245.6094,758,322,615,322,615,222" style="stroke: #000000; stroke-width: 1.5;"/><line style="stroke: #000000; stroke-width: 1.5;" x1="615" x2="755" y1="245.6094" y2="245.6094"/><text fill="#000000" font-family="sans-serif" font-size="14" font-weight="bold" lengthAdjust="spacingAndGlyphs" textLength="127" x="619" y="238.5332">mastermind.views</text><!--class mastermind.ConsoleMastermind--><rect fill="#FEFECE" filter="url(#f2j4xqadeue0x)" height="89.5078" id="mastermind.ConsoleMastermind" style="stroke: #A80036; stroke-width: 1.5;" width="149" x="38.5" y="237"/><ellipse cx="55.75" cy="253" fill="#ADD1B2" rx="11" ry="11" style="stroke: #A80036; stroke-width: 1.0;"/><path d="M58.5156,248.875 Q58.6719,248.6563 58.8594,248.5469 Q59.0469,248.4375 59.2656,248.4375 Q59.6406,248.4375 59.875,248.6953 Q60.1094,248.9531 60.1094,249.5625 L60.1094,251.0156 Q60.1094,251.625 59.875,251.8906 Q59.6406,252.1563 59.2656,252.1563 Q58.9219,252.1563 58.7188,251.9531 Q58.5156,251.7656 58.4063,251.25 Q58.3594,250.8906 58.1719,250.7031 Q57.8438,250.3281 57.2344,250.1094 Q56.625,249.8906 56,249.8906 Q55.2344,249.8906 54.6016,250.2188 Q53.9688,250.5469 53.4766,251.2969 Q52.9844,252.0469 52.9844,253.0781 L52.9844,254.1719 Q52.9844,255.4063 53.875,256.2266 Q54.7656,257.0469 56.3594,257.0469 Q57.2969,257.0469 57.9531,256.7969 Q58.3438,256.6406 58.7656,256.2031 Q59.0313,255.9375 59.1797,255.8594 Q59.3281,255.7813 59.5313,255.7813 Q59.8594,255.7813 60.1172,256.0391 Q60.375,256.2969 60.375,256.6406 Q60.375,256.9844 60.0313,257.3906 Q59.5313,257.9688 58.7344,258.2969 Q57.6563,258.75 56.3594,258.75 Q54.8438,258.75 53.6406,258.125 Q52.6563,257.625 51.9688,256.5547 Q51.2813,255.4844 51.2813,254.2031 L51.2813,253.0469 Q51.2813,251.7188 51.8984,250.5703 Q52.5156,249.4219 53.6094,248.8047 Q54.7031,248.1875 55.9375,248.1875 Q56.6719,248.1875 57.3203,248.3516 Q57.9688,248.5156 58.5156,248.875 Z "/><text fill="#000000" font-family="sans-serif" font-size="12" lengthAdjust="spacingAndGlyphs" textLength="112" x="70.25" y="257.9102">ConsoleMastermind</text><line style="stroke: #A80036; stroke-width: 1.5;" x1="39.5" x2="186.5" y1="269" y2="269"/><line style="stroke: #A80036; stroke-width: 1.5;" x1="39.5" x2="186.5" y1="277" y2="277"/><ellipse cx="49.5" cy="289.418" fill="#84BE84" rx="3" ry="3" style="stroke: #038048; stroke-width: 1.0;"/><text fill="#000000" font-family="sans-serif" font-size="11" lengthAdjust="spacingAndGlyphs" textLength="102" x="58.5" y="292.4189">ConsoleMastermind()</text><ellipse cx="49.5" cy="303.2539" fill="#84BE84" rx="3" ry="3" style="stroke: #038048; stroke-width: 1.0;"/><text fill="#000000" font-family="sans-serif" font-size="11" lengthAdjust="spacingAndGlyphs" text-decoration="underline" textLength="90" x="58.5" y="306.2549">main(String[]): void</text><polygon fill="#FFFF44" points="49.5,312.0898,53.5,316.0898,49.5,320.0898,45.5,316.0898" style="stroke: #B38D22; stroke-width: 1.0;"/><text fill="#000000" font-family="sans-serif" font-size="11" lengthAdjust="spacingAndGlyphs" textLength="123" x="58.5" y="320.0908">createView(Logic): View</text><!--class mastermind.Mastermind--><rect fill="#FEFECE" filter="url(#f2j4xqadeue0x)" height="117.1797" id="mastermind.Mastermind" style="stroke: #A80036; stroke-width: 1.5;" width="144" x="226" y="60"/><ellipse cx="262.15" cy="76" fill="#ADD1B2" rx="11" ry="11" style="stroke: #A80036; stroke-width: 1.0;"/><path d="M264.9156,71.875 Q265.0719,71.6563 265.2594,71.5469 Q265.4469,71.4375 265.6656,71.4375 Q266.0406,71.4375 266.275,71.6953 Q266.5094,71.9531 266.5094,72.5625 L266.5094,74.0156 Q266.5094,74.625 266.275,74.8906 Q266.0406,75.1563 265.6656,75.1563 Q265.3219,75.1563 265.1188,74.9531 Q264.9156,74.7656 264.8063,74.25 Q264.7594,73.8906 264.5719,73.7031 Q264.2438,73.3281 263.6344,73.1094 Q263.025,72.8906 262.4,72.8906 Q261.6344,72.8906 261.0016,73.2188 Q260.3688,73.5469 259.8766,74.2969 Q259.3844,75.0469 259.3844,76.0781 L259.3844,77.1719 Q259.3844,78.4063 260.275,79.2266 Q261.1656,80.0469 262.7594,80.0469 Q263.6969,80.0469 264.3531,79.7969 Q264.7438,79.6406 265.1656,79.2031 Q265.4313,78.9375 265.5797,78.8594 Q265.7281,78.7813 265.9313,78.7813 Q266.2594,78.7813 266.5172,79.0391 Q266.775,79.2969 266.775,79.6406 Q266.775,79.9844 266.4313,80.3906 Q265.9313,80.9688 265.1344,81.2969 Q264.0563,81.75 262.7594,81.75 Q261.2438,81.75 260.0406,81.125 Q259.0563,80.625 258.3688,79.5547 Q257.6813,78.4844 257.6813,77.2031 L257.6813,76.0469 Q257.6813,74.7188 258.2984,73.5703 Q258.9156,72.4219 260.0094,71.8047 Q261.1031,71.1875 262.3375,71.1875 Q263.0719,71.1875 263.7203,71.3516 Q264.3688,71.5156 264.9156,71.875 Z "/><text fill="#000000" font-family="sans-serif" font-size="12" lengthAdjust="spacingAndGlyphs" textLength="65" x="280.85" y="80.9102">Mastermind</text><line style="stroke: #A80036; stroke-width: 1.5;" x1="227" x2="369" y1="92" y2="92"/><rect fill="none" height="6" style="stroke: #C82930; stroke-width: 1.0;" width="6" x="234" y="101.418"/><text fill="#000000" font-family="sans-serif" font-size="11" lengthAdjust="spacingAndGlyphs" textLength="54" x="246" y="107.4189">logic: Logic</text><rect fill="none" height="6" style="stroke: #C82930; stroke-width: 1.0;" width="6" x="234" y="115.2539"/><text fill="#000000" font-family="sans-serif" font-size="11" lengthAdjust="spacingAndGlyphs" textLength="56" x="246" y="121.2549">view: View</text><line style="stroke: #A80036; stroke-width: 1.5;" x1="227" x2="369" y1="127.6719" y2="127.6719"/><polygon fill="#FFFF44" points="237,135.0898,241,139.0898,237,143.0898,233,139.0898" style="stroke: #B38D22; stroke-width: 1.0;"/><text fill="#000000" font-family="sans-serif" font-size="11" lengthAdjust="spacingAndGlyphs" textLength="63" x="246" y="143.0908">Mastermind()</text><polygon fill="#FFFF44" points="237,148.9258,241,152.9258,237,156.9258,233,152.9258" style="stroke: #B38D22; stroke-width: 1.0;"/><text fill="#000000" font-family="sans-serif" font-size="11" font-style="italic" lengthAdjust="spacingAndGlyphs" textLength="118" x="246" y="156.9268">createView(Logic): View</text><polygon fill="#FFFF44" points="237,162.7617,241,166.7617,237,170.7617,233,166.7617" style="stroke: #B38D22; stroke-width: 1.0;"/><text fill="#000000" font-family="sans-serif" font-size="11" lengthAdjust="spacingAndGlyphs" textLength="54" x="246" y="170.7627">play(): void</text><!--class mastermind.GraphicsMastermind--><rect fill="#FEFECE" filter="url(#f2j4xqadeue0x)" height="89.5078" id="mastermind.GraphicsMastermind" style="stroke: #A80036; stroke-width: 1.5;" width="149" x="222.5" y="237"/><ellipse cx="238.4" cy="253" fill="#ADD1B2" rx="11" ry="11" style="stroke: #A80036; stroke-width: 1.0;"/><path d="M241.1656,248.875 Q241.3219,248.6563 241.5094,248.5469 Q241.6969,248.4375 241.9156,248.4375 Q242.2906,248.4375 242.525,248.6953 Q242.7594,248.9531 242.7594,249.5625 L242.7594,251.0156 Q242.7594,251.625 242.525,251.8906 Q242.2906,252.1563 241.9156,252.1563 Q241.5719,252.1563 241.3688,251.9531 Q241.1656,251.7656 241.0563,251.25 Q241.0094,250.8906 240.8219,250.7031 Q240.4938,250.3281 239.8844,250.1094 Q239.275,249.8906 238.65,249.8906 Q237.8844,249.8906 237.2516,250.2188 Q236.6188,250.5469 236.1266,251.2969 Q235.6344,252.0469 235.6344,253.0781 L235.6344,254.1719 Q235.6344,255.4063 236.525,256.2266 Q237.4156,257.0469 239.0094,257.0469 Q239.9469,257.0469 240.6031,256.7969 Q240.9938,256.6406 241.4156,256.2031 Q241.6813,255.9375 241.8297,255.8594 Q241.9781,255.7813 242.1813,255.7813 Q242.5094,255.7813 242.7672,256.0391 Q243.025,256.2969 243.025,256.6406 Q243.025,256.9844 242.6813,257.3906 Q242.1813,257.9688 241.3844,258.2969 Q240.3063,258.75 239.0094,258.75 Q237.4938,258.75 236.2906,258.125 Q235.3063,257.625 234.6188,256.5547 Q233.9313,255.4844 233.9313,254.2031 L233.9313,253.0469 Q233.9313,251.7188 234.5484,250.5703 Q235.1656,249.4219 236.2594,248.8047 Q237.3531,248.1875 238.5875,248.1875 Q239.3219,248.1875 239.9703,248.3516 Q240.6188,248.5156 241.1656,248.875 Z "/><text fill="#000000" font-family="sans-serif" font-size="12" lengthAdjust="spacingAndGlyphs" textLength="115" x="252.6" y="257.9102">GraphicsMastermind</text><line style="stroke: #A80036; stroke-width: 1.5;" x1="223.5" x2="370.5" y1="269" y2="269"/><line style="stroke: #A80036; stroke-width: 1.5;" x1="223.5" x2="370.5" y1="277" y2="277"/><ellipse cx="233.5" cy="289.418" fill="#84BE84" rx="3" ry="3" style="stroke: #038048; stroke-width: 1.0;"/><text fill="#000000" font-family="sans-serif" font-size="11" lengthAdjust="spacingAndGlyphs" textLength="107" x="242.5" y="292.4189">GraphicsMastermind()</text><ellipse cx="233.5" cy="303.2539" fill="#84BE84" rx="3" ry="3" style="stroke: #038048; stroke-width: 1.0;"/><text fill="#000000" font-family="sans-serif" font-size="11" lengthAdjust="spacingAndGlyphs" text-decoration="underline" textLength="90" x="242.5" y="306.2549">main(String[]): void</text><polygon fill="#FFFF44" points="233.5,312.0898,237.5,316.0898,233.5,320.0898,229.5,316.0898" style="stroke: #B38D22; stroke-width: 1.0;"/><text fill="#000000" font-family="sans-serif" font-size="11" lengthAdjust="spacingAndGlyphs" textLength="123" x="242.5" y="320.0908">createView(Logic): View</text><!--class mastermind.controllers.Logic--><rect fill="#FEFECE" filter="url(#f2j4xqadeue0x)" height="48" id="mastermind.controllers.Logic" style="stroke: #A80036; stroke-width: 1.5;" width="62" x="428" y="258"/><ellipse cx="443" cy="274" fill="#ADD1B2" rx="11" ry="11" style="stroke: #A80036; stroke-width: 1.0;"/><path d="M445.7656,269.875 Q445.9219,269.6563 446.1094,269.5469 Q446.2969,269.4375 446.5156,269.4375 Q446.8906,269.4375 447.125,269.6953 Q447.3594,269.9531 447.3594,270.5625 L447.3594,272.0156 Q447.3594,272.625 447.125,272.8906 Q446.8906,273.1563 446.5156,273.1563 Q446.1719,273.1563 445.9688,272.9531 Q445.7656,272.7656 445.6563,272.25 Q445.6094,271.8906 445.4219,271.7031 Q445.0938,271.3281 444.4844,271.1094 Q443.875,270.8906 443.25,270.8906 Q442.4844,270.8906 441.8516,271.2188 Q441.2188,271.5469 440.7266,272.2969 Q440.2344,273.0469 440.2344,274.0781 L440.2344,275.1719 Q440.2344,276.4063 441.125,277.2266 Q442.0156,278.0469 443.6094,278.0469 Q444.5469,278.0469 445.2031,277.7969 Q445.5938,277.6406 446.0156,277.2031 Q446.2813,276.9375 446.4297,276.8594 Q446.5781,276.7813 446.7813,276.7813 Q447.1094,276.7813 447.3672,277.0391 Q447.625,277.2969 447.625,277.6406 Q447.625,277.9844 447.2813,278.3906 Q446.7813,278.9688 445.9844,279.2969 Q444.9063,279.75 443.6094,279.75 Q442.0938,279.75 440.8906,279.125 Q439.9063,278.625 439.2188,277.5547 Q438.5313,276.4844 438.5313,275.2031 L438.5313,274.0469 Q438.5313,272.7188 439.1484,271.5703 Q439.7656,270.4219 440.8594,269.8047 Q441.9531,269.1875 443.1875,269.1875 Q443.9219,269.1875 444.5703,269.3516 Q445.2188,269.5156 445.7656,269.875 Z "/><text fill="#000000" font-family="sans-serif" font-size="12" lengthAdjust="spacingAndGlyphs" textLength="30" x="457" y="278.9102">Logic</text><line style="stroke: #A80036; stroke-width: 1.5;" x1="429" x2="489" y1="290" y2="290"/><line style="stroke: #A80036; stroke-width: 1.5;" x1="429" x2="489" y1="298" y2="298"/><!--class mastermind.views.View--><rect fill="#FEFECE" filter="url(#f2j4xqadeue0x)" height="48" id="mastermind.views.View" style="stroke: #A80036; stroke-width: 1.5;" width="58" x="631" y="258"/><ellipse cx="646" cy="274" fill="#ADD1B2" rx="11" ry="11" style="stroke: #A80036; stroke-width: 1.0;"/><path d="M648.7656,269.875 Q648.9219,269.6563 649.1094,269.5469 Q649.2969,269.4375 649.5156,269.4375 Q649.8906,269.4375 650.125,269.6953 Q650.3594,269.9531 650.3594,270.5625 L650.3594,272.0156 Q650.3594,272.625 650.125,272.8906 Q649.8906,273.1563 649.5156,273.1563 Q649.1719,273.1563 648.9688,272.9531 Q648.7656,272.7656 648.6563,272.25 Q648.6094,271.8906 648.4219,271.7031 Q648.0938,271.3281 647.4844,271.1094 Q646.875,270.8906 646.25,270.8906 Q645.4844,270.8906 644.8516,271.2188 Q644.2188,271.5469 643.7266,272.2969 Q643.2344,273.0469 643.2344,274.0781 L643.2344,275.1719 Q643.2344,276.4063 644.125,277.2266 Q645.0156,278.0469 646.6094,278.0469 Q647.5469,278.0469 648.2031,277.7969 Q648.5938,277.6406 649.0156,277.2031 Q649.2813,276.9375 649.4297,276.8594 Q649.5781,276.7813 649.7813,276.7813 Q650.1094,276.7813 650.3672,277.0391 Q650.625,277.2969 650.625,277.6406 Q650.625,277.9844 650.2813,278.3906 Q649.7813,278.9688 648.9844,279.2969 Q647.9063,279.75 646.6094,279.75 Q645.0938,279.75 643.8906,279.125 Q642.9063,278.625 642.2188,277.5547 Q641.5313,276.4844 641.5313,275.2031 L641.5313,274.0469 Q641.5313,272.7188 642.1484,271.5703 Q642.7656,270.4219 643.8594,269.8047 Q644.9531,269.1875 646.1875,269.1875 Q646.9219,269.1875 647.5703,269.3516 Q648.2188,269.5156 648.7656,269.875 Z "/><text fill="#000000" font-family="sans-serif" font-size="12" lengthAdjust="spacingAndGlyphs" textLength="26" x="660" y="278.9102">View</text><line style="stroke: #A80036; stroke-width: 1.5;" x1="632" x2="688" y1="290" y2="290"/><line style="stroke: #A80036; stroke-width: 1.5;" x1="632" x2="688" y1="298" y2="298"/><!--link mastermind.Mastermind to mastermind.ConsoleMastermind--><path d="M216.679,190.491 C198.614,206.262 179.971,222.536 163.562,236.861 " fill="none" id="mastermind.Mastermind-mastermind.ConsoleMastermind" style="stroke: #A80036; stroke-width: 1.0;"/><polygon fill="none" points="212.324,185.001,231.994,177.121,221.531,195.547,212.324,185.001" style="stroke: #A80036; stroke-width: 1.0;"/><!--link mastermind.Mastermind to mastermind.GraphicsMastermind--><path d="M297.516,197.613 C297.433,211.145 297.348,224.776 297.273,236.984 " fill="none" id="mastermind.Mastermind-mastermind.GraphicsMastermind" style="stroke: #A80036; stroke-width: 1.0;"/><polygon fill="none" points="290.518,197.305,297.642,177.349,304.518,197.392,290.518,197.305" style="stroke: #A80036; stroke-width: 1.0;"/><!--link mastermind.Mastermind to mastermind.controllers.Logic--><path d="M355.67,177.349 C381.662,203.422 411.116,232.968 431.909,253.824 " fill="none" id="mastermind.Mastermind-mastermind.controllers.Logic" style="stroke: #A80036; stroke-width: 1.0;"/><polygon fill="#A80036" points="435.687,257.615,432.1663,248.4169,432.1572,254.0738,426.5003,254.0646,435.687,257.615" style="stroke: #A80036; stroke-width: 1.0;"/><!--link mastermind.Mastermind to mastermind.views.View--><path d="M370.386,151.794 C448.052,186.443 568.058,239.981 626.168,265.9066 " fill="none" id="mastermind.Mastermind-mastermind.views.View" style="stroke: #A80036; stroke-width: 1.0;"/><polygon fill="#A80036" points="630.92,268.0265,624.3305,260.7067,626.3538,265.9894,621.0712,268.0127,630.92,268.0265" style="stroke: #A80036; stroke-width: 1.0;"/><!--
@startuml

class  mastermind.ConsoleMastermind{
+ ConsoleMastermind()
+ {static} main(String[]): void
# createView(Logic): View
}
mastermind.Mastermind <|-down- mastermind.ConsoleMastermind

class  mastermind.GraphicsMastermind{
+ GraphicsMastermind()
+ {static} main(String[]): void
# createView(Logic): View
}
mastermind.Mastermind <|-down- mastermind.GraphicsMastermind

class  mastermind.Mastermind{
- logic: Logic
- view: View
# Mastermind()
# {abstract} createView(Logic): View
# play(): void
}
mastermind.Mastermind - -> mastermind.controllers.Logic
mastermind.Mastermind - -> mastermind.views.View

@enduml

PlantUML version 1.2019.05(Sat Apr 20 18:45:36 CEST 2019)
(GPL source distribution)
Java Runtime: OpenJDK Runtime Environment
JVM: OpenJDK 64-Bit Server VM
Java Version: 1.8.0_222-b10
Operating System: Windows 10
OS Version: 10.0
Default Encoding: windows-1252
Language: es
Country: ES
--></g></svg>