<?xml version="1.0" encoding="UTF-8" standalone="no"?><svg xmlns="http://www.w3.org/2000/svg" xmlns:xlink="http://www.w3.org/1999/xlink" contentScriptType="application/ecmascript" contentStyleType="text/css" height="382px" preserveAspectRatio="none" style="width:768px;height:382px;" version="1.1" viewBox="0 0 768 382" width="768px" zoomAndPan="magnify"><defs><filter height="300%" id="f1flgsbiya6re0" width="300%" x="-1" y="-1"><feGaussianBlur result="blurOut" stdDeviation="2.0"/><feColorMatrix in="blurOut" result="blurOut2" type="matrix" values="0 0 0 0 0 0 0 0 0 0 0 0 0 0 0 0 0 0 .4 0"/><feOffset dx="4.0" dy="4.0" in="blurOut2" result="blurOut3"/><feBlend in="SourceGraphic" in2="blurOut3" mode="normal"/></filter></defs><g><!--cluster mastermind.controllers--><polygon fill="#FFFFFF" filter="url(#f1flgsbiya6re0)" points="22,24,191,24,198,47.6094,569,47.6094,569,370,22,370,22,24" style="stroke: #000000; stroke-width: 1.5;"/><line style="stroke: #000000; stroke-width: 1.5;" x1="22" x2="198" y1="47.6094" y2="47.6094"/><text fill="#000000" font-family="sans-serif" font-size="14" font-weight="bold" lengthAdjust="spacingAndGlyphs" textLength="163" x="26" y="40.5332">mastermind.controllers</text><!--cluster mastermind.models--><polygon fill="#FFFFFF" filter="url(#f1flgsbiya6re0)" points="593,228.5,736,228.5,743,252.1094,746,252.1094,746,328.5,593,328.5,593,228.5" style="stroke: #000000; stroke-width: 1.5;"/><line style="stroke: #000000; stroke-width: 1.5;" x1="593" x2="743" y1="252.1094" y2="252.1094"/><text fill="#000000" font-family="sans-serif" font-size="14" font-weight="bold" lengthAdjust="spacingAndGlyphs" textLength="137" x="597" y="245.0332">mastermind.models</text><!--class mastermind.controllers.Controller--><rect fill="#FEFECE" filter="url(#f1flgsbiya6re0)" height="103.3438" id="mastermind.controllers.Controller" style="stroke: #A80036; stroke-width: 1.5;" width="108" x="346" y="60"/><ellipse cx="370.9" cy="76" fill="#ADD1B2" rx="11" ry="11" style="stroke: #A80036; stroke-width: 1.0;"/><path d="M373.6656,71.875 Q373.8219,71.6563 374.0094,71.5469 Q374.1969,71.4375 374.4156,71.4375 Q374.7906,71.4375 375.025,71.6953 Q375.2594,71.9531 375.2594,72.5625 L375.2594,74.0156 Q375.2594,74.625 375.025,74.8906 Q374.7906,75.1563 374.4156,75.1563 Q374.0719,75.1563 373.8688,74.9531 Q373.6656,74.7656 373.5563,74.25 Q373.5094,73.8906 373.3219,73.7031 Q372.9938,73.3281 372.3844,73.1094 Q371.775,72.8906 371.15,72.8906 Q370.3844,72.8906 369.7516,73.2188 Q369.1188,73.5469 368.6266,74.2969 Q368.1344,75.0469 368.1344,76.0781 L368.1344,77.1719 Q368.1344,78.4063 369.025,79.2266 Q369.9156,80.0469 371.5094,80.0469 Q372.4469,80.0469 373.1031,79.7969 Q373.4938,79.6406 373.9156,79.2031 Q374.1813,78.9375 374.3297,78.8594 Q374.4781,78.7813 374.6813,78.7813 Q375.0094,78.7813 375.2672,79.0391 Q375.525,79.2969 375.525,79.6406 Q375.525,79.9844 375.1813,80.3906 Q374.6813,80.9688 373.8844,81.2969 Q372.8063,81.75 371.5094,81.75 Q369.9938,81.75 368.7906,81.125 Q367.8063,80.625 367.1188,79.5547 Q366.4313,78.4844 366.4313,77.2031 L366.4313,76.0469 Q366.4313,74.7188 367.0484,73.5703 Q367.6656,72.4219 368.7594,71.8047 Q369.8531,71.1875 371.0875,71.1875 Q371.8219,71.1875 372.4703,71.3516 Q373.1188,71.5156 373.6656,71.875 Z "/><text fill="#000000" font-family="sans-serif" font-size="12" lengthAdjust="spacingAndGlyphs" textLength="54" x="387.1" y="80.9102">Controller</text><line style="stroke: #A80036; stroke-width: 1.5;" x1="347" x2="453" y1="92" y2="92"/><ellipse cx="357" cy="104.418" fill="none" rx="3" ry="3" style="stroke: #038048; stroke-width: 1.0;"/><text fill="#000000" font-family="sans-serif" font-size="11" lengthAdjust="spacingAndGlyphs" text-decoration="underline" textLength="73" x="366" y="107.4189">NO_ERROR: int</text><polygon fill="none" points="357,113.2539,361,117.2539,357,121.2539,353,117.2539" style="stroke: #B38D22; stroke-width: 1.0;"/><text fill="#000000" font-family="sans-serif" font-size="11" lengthAdjust="spacingAndGlyphs" textLength="60" x="366" y="121.2549">game: Game</text><line style="stroke: #A80036; stroke-width: 1.5;" x1="347" x2="453" y1="127.6719" y2="127.6719"/><polygon fill="#4177AF" points="357,136.0898,353,142.0898,361,142.0898" style="stroke: #1963A0; stroke-width: 1.0;"/><text fill="#000000" font-family="sans-serif" font-size="11" lengthAdjust="spacingAndGlyphs" textLength="82" x="366" y="143.0908">Controller(Game)</text><ellipse cx="357" cy="153.9258" fill="#84BE84" rx="3" ry="3" style="stroke: #038048; stroke-width: 1.0;"/><text fill="#000000" font-family="sans-serif" font-size="11" lengthAdjust="spacingAndGlyphs" text-decoration="underline" textLength="67" x="366" y="156.9268">getWidth(): int</text><!--class mastermind.controllers.ProposalController--><rect fill="#FEFECE" filter="url(#f1flgsbiya6re0)" height="131.0156" id="mastermind.controllers.ProposalController" style="stroke: #A80036; stroke-width: 1.5;" width="166" x="38" y="223"/><ellipse cx="66.5" cy="239" fill="#ADD1B2" rx="11" ry="11" style="stroke: #A80036; stroke-width: 1.0;"/><path d="M69.2656,234.875 Q69.4219,234.6563 69.6094,234.5469 Q69.7969,234.4375 70.0156,234.4375 Q70.3906,234.4375 70.625,234.6953 Q70.8594,234.9531 70.8594,235.5625 L70.8594,237.0156 Q70.8594,237.625 70.625,237.8906 Q70.3906,238.1563 70.0156,238.1563 Q69.6719,238.1563 69.4688,237.9531 Q69.2656,237.7656 69.1563,237.25 Q69.1094,236.8906 68.9219,236.7031 Q68.5938,236.3281 67.9844,236.1094 Q67.375,235.8906 66.75,235.8906 Q65.9844,235.8906 65.3516,236.2188 Q64.7188,236.5469 64.2266,237.2969 Q63.7344,238.0469 63.7344,239.0781 L63.7344,240.1719 Q63.7344,241.4063 64.625,242.2266 Q65.5156,243.0469 67.1094,243.0469 Q68.0469,243.0469 68.7031,242.7969 Q69.0938,242.6406 69.5156,242.2031 Q69.7813,241.9375 69.9297,241.8594 Q70.0781,241.7813 70.2813,241.7813 Q70.6094,241.7813 70.8672,242.0391 Q71.125,242.2969 71.125,242.6406 Q71.125,242.9844 70.7813,243.3906 Q70.2813,243.9688 69.4844,244.2969 Q68.4063,244.75 67.1094,244.75 Q65.5938,244.75 64.3906,244.125 Q63.4063,243.625 62.7188,242.5547 Q62.0313,241.4844 62.0313,240.2031 L62.0313,239.0469 Q62.0313,237.7188 62.6484,236.5703 Q63.2656,235.4219 64.3594,234.8047 Q65.4531,234.1875 66.6875,234.1875 Q67.4219,234.1875 68.0703,234.3516 Q68.7188,234.5156 69.2656,234.875 Z "/><text fill="#000000" font-family="sans-serif" font-size="12" lengthAdjust="spacingAndGlyphs" textLength="104" x="83.5" y="243.9102">ProposalController</text><line style="stroke: #A80036; stroke-width: 1.5;" x1="39" x2="203" y1="255" y2="255"/><line style="stroke: #A80036; stroke-width: 1.5;" x1="39" x2="203" y1="263" y2="263"/><ellipse cx="49" cy="275.418" fill="#84BE84" rx="3" ry="3" style="stroke: #038048; stroke-width: 1.0;"/><text fill="#000000" font-family="sans-serif" font-size="11" lengthAdjust="spacingAndGlyphs" textLength="124" x="58" y="278.4189">ProposalController(Game)</text><ellipse cx="49" cy="289.2539" fill="#84BE84" rx="3" ry="3" style="stroke: #038048; stroke-width: 1.0;"/><text fill="#000000" font-family="sans-serif" font-size="11" lengthAdjust="spacingAndGlyphs" textLength="140" x="58" y="292.2549">proposeCombination(int[]): int</text><ellipse cx="49" cy="303.0898" fill="#84BE84" rx="3" ry="3" style="stroke: #038048; stroke-width: 1.0;"/><text fill="#000000" font-family="sans-serif" font-size="11" lengthAdjust="spacingAndGlyphs" textLength="94" x="58" y="306.0908">isWinner(): boolean</text><ellipse cx="49" cy="316.9258" fill="#84BE84" rx="3" ry="3" style="stroke: #038048; stroke-width: 1.0;"/><text fill="#000000" font-family="sans-serif" font-size="11" lengthAdjust="spacingAndGlyphs" textLength="94" x="58" y="319.9268">isLooser(): boolean</text><ellipse cx="49" cy="330.7617" fill="#84BE84" rx="3" ry="3" style="stroke: #038048; stroke-width: 1.0;"/><text fill="#000000" font-family="sans-serif" font-size="11" lengthAdjust="spacingAndGlyphs" textLength="62" x="58" y="333.7627">getTurn(): int</text><ellipse cx="49" cy="344.5977" fill="#84BE84" rx="3" ry="3" style="stroke: #038048; stroke-width: 1.0;"/><text fill="#000000" font-family="sans-serif" font-size="11" lengthAdjust="spacingAndGlyphs" textLength="101" x="58" y="347.5986">getAllCodes(): int[][][]</text><!--class mastermind.controllers.ResumeController--><rect fill="#FEFECE" filter="url(#f1flgsbiya6re0)" height="75.6719" id="mastermind.controllers.ResumeController" style="stroke: #A80036; stroke-width: 1.5;" width="147" x="239.5" y="250.5"/><ellipse cx="260.35" cy="266.5" fill="#ADD1B2" rx="11" ry="11" style="stroke: #A80036; stroke-width: 1.0;"/><path d="M263.1156,262.375 Q263.2719,262.1563 263.4594,262.0469 Q263.6469,261.9375 263.8656,261.9375 Q264.2406,261.9375 264.475,262.1953 Q264.7094,262.4531 264.7094,263.0625 L264.7094,264.5156 Q264.7094,265.125 264.475,265.3906 Q264.2406,265.6563 263.8656,265.6563 Q263.5219,265.6563 263.3188,265.4531 Q263.1156,265.2656 263.0063,264.75 Q262.9594,264.3906 262.7719,264.2031 Q262.4438,263.8281 261.8344,263.6094 Q261.225,263.3906 260.6,263.3906 Q259.8344,263.3906 259.2016,263.7188 Q258.5688,264.0469 258.0766,264.7969 Q257.5844,265.5469 257.5844,266.5781 L257.5844,267.6719 Q257.5844,268.9063 258.475,269.7266 Q259.3656,270.5469 260.9594,270.5469 Q261.8969,270.5469 262.5531,270.2969 Q262.9438,270.1406 263.3656,269.7031 Q263.6313,269.4375 263.7797,269.3594 Q263.9281,269.2813 264.1313,269.2813 Q264.4594,269.2813 264.7172,269.5391 Q264.975,269.7969 264.975,270.1406 Q264.975,270.4844 264.6313,270.8906 Q264.1313,271.4688 263.3344,271.7969 Q262.2563,272.25 260.9594,272.25 Q259.4438,272.25 258.2406,271.625 Q257.2563,271.125 256.5688,270.0547 Q255.8813,268.9844 255.8813,267.7031 L255.8813,266.5469 Q255.8813,265.2188 256.4984,264.0703 Q257.1156,262.9219 258.2094,262.3047 Q259.3031,261.6875 260.5375,261.6875 Q261.2719,261.6875 261.9203,261.8516 Q262.5688,262.0156 263.1156,262.375 Z "/><text fill="#000000" font-family="sans-serif" font-size="12" lengthAdjust="spacingAndGlyphs" textLength="102" x="275.65" y="271.4102">ResumeController</text><line style="stroke: #A80036; stroke-width: 1.5;" x1="240.5" x2="385.5" y1="282.5" y2="282.5"/><line style="stroke: #A80036; stroke-width: 1.5;" x1="240.5" x2="385.5" y1="290.5" y2="290.5"/><ellipse cx="250.5" cy="302.918" fill="#84BE84" rx="3" ry="3" style="stroke: #038048; stroke-width: 1.0;"/><text fill="#000000" font-family="sans-serif" font-size="11" lengthAdjust="spacingAndGlyphs" textLength="121" x="259.5" y="305.9189">ResumeController(Game)</text><ellipse cx="250.5" cy="316.7539" fill="#84BE84" rx="3" ry="3" style="stroke: #038048; stroke-width: 1.0;"/><text fill="#000000" font-family="sans-serif" font-size="11" lengthAdjust="spacingAndGlyphs" textLength="108" x="259.5" y="319.7549">resume(boolean): void</text><!--class mastermind.controllers.StartController--><rect fill="#FEFECE" filter="url(#f1flgsbiya6re0)" height="61.8359" id="mastermind.controllers.StartController" style="stroke: #A80036; stroke-width: 1.5;" width="131" x="421.5" y="257.5"/><ellipse cx="445.5" cy="273.5" fill="#ADD1B2" rx="11" ry="11" style="stroke: #A80036; stroke-width: 1.0;"/><path d="M448.2656,269.375 Q448.4219,269.1563 448.6094,269.0469 Q448.7969,268.9375 449.0156,268.9375 Q449.3906,268.9375 449.625,269.1953 Q449.8594,269.4531 449.8594,270.0625 L449.8594,271.5156 Q449.8594,272.125 449.625,272.3906 Q449.3906,272.6563 449.0156,272.6563 Q448.6719,272.6563 448.4688,272.4531 Q448.2656,272.2656 448.1563,271.75 Q448.1094,271.3906 447.9219,271.2031 Q447.5938,270.8281 446.9844,270.6094 Q446.375,270.3906 445.75,270.3906 Q444.9844,270.3906 444.3516,270.7188 Q443.7188,271.0469 443.2266,271.7969 Q442.7344,272.5469 442.7344,273.5781 L442.7344,274.6719 Q442.7344,275.9063 443.625,276.7266 Q444.5156,277.5469 446.1094,277.5469 Q447.0469,277.5469 447.7031,277.2969 Q448.0938,277.1406 448.5156,276.7031 Q448.7813,276.4375 448.9297,276.3594 Q449.0781,276.2813 449.2813,276.2813 Q449.6094,276.2813 449.8672,276.5391 Q450.125,276.7969 450.125,277.1406 Q450.125,277.4844 449.7813,277.8906 Q449.2813,278.4688 448.4844,278.7969 Q447.4063,279.25 446.1094,279.25 Q444.5938,279.25 443.3906,278.625 Q442.4063,278.125 441.7188,277.0547 Q441.0313,275.9844 441.0313,274.7031 L441.0313,273.5469 Q441.0313,272.2188 441.6484,271.0703 Q442.2656,269.9219 443.3594,269.3047 Q444.4531,268.6875 445.6875,268.6875 Q446.4219,268.6875 447.0703,268.8516 Q447.7188,269.0156 448.2656,269.375 Z "/><text fill="#000000" font-family="sans-serif" font-size="12" lengthAdjust="spacingAndGlyphs" textLength="79" x="461.5" y="278.4102">StartController</text><line style="stroke: #A80036; stroke-width: 1.5;" x1="422.5" x2="551.5" y1="289.5" y2="289.5"/><line style="stroke: #A80036; stroke-width: 1.5;" x1="422.5" x2="551.5" y1="297.5" y2="297.5"/><ellipse cx="432.5" cy="309.918" fill="#84BE84" rx="3" ry="3" style="stroke: #038048; stroke-width: 1.0;"/><text fill="#000000" font-family="sans-serif" font-size="11" lengthAdjust="spacingAndGlyphs" textLength="105" x="441.5" y="312.9189">StartController(Game)</text><!--class mastermind.models.Game--><rect fill="#FEFECE" filter="url(#f1flgsbiya6re0)" height="48" id="mastermind.models.Game" style="stroke: #A80036; stroke-width: 1.5;" width="66" x="609" y="264.5"/><ellipse cx="624" cy="280.5" fill="#ADD1B2" rx="11" ry="11" style="stroke: #A80036; stroke-width: 1.0;"/><path d="M626.7656,276.375 Q626.9219,276.1563 627.1094,276.0469 Q627.2969,275.9375 627.5156,275.9375 Q627.8906,275.9375 628.125,276.1953 Q628.3594,276.4531 628.3594,277.0625 L628.3594,278.5156 Q628.3594,279.125 628.125,279.3906 Q627.8906,279.6563 627.5156,279.6563 Q627.1719,279.6563 626.9688,279.4531 Q626.7656,279.2656 626.6563,278.75 Q626.6094,278.3906 626.4219,278.2031 Q626.0938,277.8281 625.4844,277.6094 Q624.875,277.3906 624.25,277.3906 Q623.4844,277.3906 622.8516,277.7188 Q622.2188,278.0469 621.7266,278.7969 Q621.2344,279.5469 621.2344,280.5781 L621.2344,281.6719 Q621.2344,282.9063 622.125,283.7266 Q623.0156,284.5469 624.6094,284.5469 Q625.5469,284.5469 626.2031,284.2969 Q626.5938,284.1406 627.0156,283.7031 Q627.2813,283.4375 627.4297,283.3594 Q627.5781,283.2813 627.7813,283.2813 Q628.1094,283.2813 628.3672,283.5391 Q628.625,283.7969 628.625,284.1406 Q628.625,284.4844 628.2813,284.8906 Q627.7813,285.4688 626.9844,285.7969 Q625.9063,286.25 624.6094,286.25 Q623.0938,286.25 621.8906,285.625 Q620.9063,285.125 620.2188,284.0547 Q619.5313,282.9844 619.5313,281.7031 L619.5313,280.5469 Q619.5313,279.2188 620.1484,278.0703 Q620.7656,276.9219 621.8594,276.3047 Q622.9531,275.6875 624.1875,275.6875 Q624.9219,275.6875 625.5703,275.8516 Q626.2188,276.0156 626.7656,276.375 Z "/><text fill="#000000" font-family="sans-serif" font-size="12" lengthAdjust="spacingAndGlyphs" textLength="34" x="638" y="285.4102">Game</text><line style="stroke: #A80036; stroke-width: 1.5;" x1="610" x2="674" y1="296.5" y2="296.5"/><line style="stroke: #A80036; stroke-width: 1.5;" x1="610" x2="674" y1="304.5" y2="304.5"/><!--link mastermind.controllers.Controller to mastermind.models.Game--><path d="M465.621,150.754 C497.685,170.357 536.306,195.355 569,220.5 C582.743,231.069 596.978,243.7 609.189,255.132 " fill="none" id="mastermind.controllers.Controller-mastermind.models.Game" style="stroke: #A80036; stroke-width: 1.0;"/><polygon fill="#A80036" points="618.915,264.381,615.1492,255.2805,615.2916,260.9356,609.6365,261.078,618.915,264.381" style="stroke: #A80036; stroke-width: 1.0;"/><line style="stroke: #A80036; stroke-width: 1.0;" x1="615.2916" x2="609.4945" y1="260.9356" y2="255.4225"/><polygon fill="#A80036" points="454.128,143.785,457.1846,150.3162,464.3891,150.0068,461.3325,143.4755,454.128,143.785" style="stroke: #A80036; stroke-width: 1.0;"/><!--link mastermind.controllers.Controller to mastermind.controllers.ProposalController--><path d="M328.489,154.991 C295.83,174.626 256.762,198.437 222,220.5 C216.137,224.221 210.108,228.096 204.052,232.024 " fill="none" id="mastermind.controllers.Controller-mastermind.controllers.ProposalController" style="stroke: #A80036; stroke-width: 1.0;"/><polygon fill="none" points="325.153,148.829,345.906,144.549,332.351,160.837,325.153,148.829" style="stroke: #A80036; stroke-width: 1.0;"/><!--link mastermind.controllers.Controller to mastermind.controllers.ResumeController--><path d="M365.908,181.076 C354.176,204.675 341.485,230.203 331.474,250.34 " fill="none" id="mastermind.controllers.Controller-mastermind.controllers.ResumeController" style="stroke: #A80036; stroke-width: 1.0;"/><polygon fill="none" points="359.664,177.91,374.836,163.117,372.201,184.142,359.664,177.91" style="stroke: #A80036; stroke-width: 1.0;"/><!--link mastermind.controllers.Controller to mastermind.controllers.StartController--><path d="M434.199,181.291 C447.296,207.635 461.572,236.353 471.975,257.276 " fill="none" id="mastermind.controllers.Controller-mastermind.controllers.StartController" style="stroke: #A80036; stroke-width: 1.0;"/><polygon fill="none" points="427.799,184.142,425.164,163.117,440.336,177.91,427.799,184.142" style="stroke: #A80036; stroke-width: 1.0;"/><!--
@startuml

class  mastermind.controllers.Controller{
+ {static} NO_ERROR: int
# game: Game
~ Controller(Game)
+ {static} getWidth(): int
}
mastermind.controllers.Controller *-down-> mastermind.models.Game

class  mastermind.controllers.ProposalController{
+ ProposalController(Game)
+ proposeCombination(int[]): int
+ isWinner(): boolean
+ isLooser(): boolean
+ getTurn(): int
+ getAllCodes(): int[][][]
}
mastermind.controllers.Controller <|-down- mastermind.controllers.ProposalController

class  mastermind.controllers.ResumeController{
+ ResumeController(Game)
+ resume(boolean): void
}
mastermind.controllers.Controller <|-down- mastermind.controllers.ResumeController

class  mastermind.controllers.StartController{
+ StartController(Game)
}
mastermind.controllers.Controller <|-down- mastermind.controllers.StartController

@enduml

PlantUML version 1.2019.05(Sat Apr 20 18:45:36 CEST 2019)
(GPL source distribution)
Java Runtime: OpenJDK Runtime Environment
JVM: OpenJDK 64-Bit Server VM
Java Version: 1.8.0_222-b10
Operating System: Windows 10
OS Version: 10.0
Default Encoding: windows-1252
Language: es
Country: ES
--></g></svg>