<?xml version="1.0" encoding="UTF-8" standalone="no"?><svg xmlns="http://www.w3.org/2000/svg" xmlns:xlink="http://www.w3.org/1999/xlink" contentScriptType="application/ecmascript" contentStyleType="text/css" height="1481px" preserveAspectRatio="none" style="width:1012px;height:1481px;" version="1.1" viewBox="0 0 1012 1481" width="1012px" zoomAndPan="magnify"><defs><filter height="300%" id="fdnk08swfskkc" width="300%" x="-1" y="-1"><feGaussianBlur result="blurOut" stdDeviation="2.0"/><feColorMatrix in="blurOut" result="blurOut2" type="matrix" values="0 0 0 0 0 0 0 0 0 0 0 0 0 0 0 0 0 0 .4 0"/><feOffset dx="4.0" dy="4.0" in="blurOut2" result="blurOut3"/><feBlend in="SourceGraphic" in2="blurOut3" mode="normal"/></filter></defs><g><!--cluster mastermind.models--><polygon fill="#FFFFFF" filter="url(#fdnk08swfskkc)" points="59.2384,24,202.2384,24,209.2384,47.6094,985.238,47.6094,985.238,1345,59.2384,1345,59.2384,24" style="stroke: #000000; stroke-width: 1.5;"/><line style="stroke: #000000; stroke-width: 1.5;" x1="59.2384" x2="209.2384" y1="47.6094" y2="47.6094"/><text fill="#000000" font-family="sans-serif" font-size="14" font-weight="bold" lengthAdjust="spacingAndGlyphs" textLength="137" x="63.2384" y="40.5332">mastermind.models</text><!--cluster mastermind.types--><polygon fill="#FFFFFF" filter="url(#fdnk08swfskkc)" points="629.238,1369,759.238,1369,766.238,1392.6094,818.238,1392.6094,818.238,1469,629.238,1469,629.238,1369" style="stroke: #000000; stroke-width: 1.5;"/><line style="stroke: #000000; stroke-width: 1.5;" x1="629.238" x2="766.238" y1="1392.6094" y2="1392.6094"/><text fill="#000000" font-family="sans-serif" font-size="14" font-weight="bold" lengthAdjust="spacingAndGlyphs" textLength="124" x="633.238" y="1385.5332">mastermind.types</text><!--class mastermind.models.Combination--><rect fill="#FEFECE" filter="url(#fdnk08swfskkc)" height="117.1797" id="mastermind.models.Combination" style="stroke: #A80036; stroke-width: 1.5;" width="137" x="831.738" y="698"/><ellipse cx="861.588" cy="714" fill="#A9DCDF" rx="11" ry="11" style="stroke: #A80036; stroke-width: 1.0;"/><path d="M863.7755,715.7656 L859.6349,715.7656 L859.213,716.7969 L859.6349,716.7969 Q860.2443,716.7969 860.5099,717.0313 Q860.7755,717.2656 860.7755,717.6563 Q860.7755,718.0313 860.5099,718.2656 Q860.2443,718.5 859.6349,718.5 L857.338,718.5 Q856.7286,718.5 856.4708,718.2656 Q856.213,718.0313 856.213,717.6406 Q856.213,717.2656 856.4864,717.0234 Q856.7599,716.7813 857.3849,716.7969 L860.0568,710.1406 L858.9474,710.1406 Q858.338,710.1406 858.0724,709.9063 Q857.8068,709.6719 857.8068,709.2813 Q857.8068,708.9063 858.0724,708.6719 Q858.338,708.4375 858.9474,708.4375 L862.6193,708.4375 L866.0099,716.7969 Q866.6036,716.7969 866.7911,716.9375 Q867.1818,717.2031 867.1818,717.6563 Q867.1818,718.0313 866.9239,718.2656 Q866.6661,718.5 866.0568,718.5 L863.7599,718.5 Q863.1505,718.5 862.8849,718.2656 Q862.6193,718.0313 862.6193,717.6406 Q862.6193,717.2656 862.8849,717.0313 Q863.1505,716.7969 863.7599,716.7969 L864.1818,716.7969 L863.7755,715.7656 Z M863.0568,714.0625 L861.6974,710.6875 L860.3224,714.0625 L863.0568,714.0625 Z "/><text fill="#000000" font-family="sans-serif" font-size="12" font-style="italic" lengthAdjust="spacingAndGlyphs" textLength="72" x="878.888" y="718.9102">Combination</text><line style="stroke: #A80036; stroke-width: 1.5;" x1="832.738" x2="967.738" y1="730" y2="730"/><rect fill="none" height="6" style="stroke: #C82930; stroke-width: 1.0;" width="6" x="839.738" y="739.418"/><text fill="#000000" font-family="sans-serif" font-size="11" lengthAdjust="spacingAndGlyphs" text-decoration="underline" textLength="46" x="851.738" y="745.4189">int WIDTH</text><polygon fill="none" points="842.738,751.2539,846.738,755.2539,842.738,759.2539,838.738,755.2539" style="stroke: #B38D22; stroke-width: 1.0;"/><text fill="#000000" font-family="sans-serif" font-size="11" lengthAdjust="spacingAndGlyphs" textLength="87" x="851.738" y="759.2549">List&lt;Color&gt; colors</text><line style="stroke: #A80036; stroke-width: 1.5;" x1="832.738" x2="967.738" y1="765.6719" y2="765.6719"/><polygon fill="#FFFF44" points="842.738,773.0898,846.738,777.0898,842.738,781.0898,838.738,777.0898" style="stroke: #B38D22; stroke-width: 1.0;"/><text fill="#000000" font-family="sans-serif" font-size="11" lengthAdjust="spacingAndGlyphs" textLength="66" x="851.738" y="781.0908">Combination()</text><polygon fill="#4177AF" points="842.738,787.9258,838.738,793.9258,846.738,793.9258" style="stroke: #1963A0; stroke-width: 1.0;"/><text fill="#000000" font-family="sans-serif" font-size="11" lengthAdjust="spacingAndGlyphs" text-decoration="underline" textLength="64" x="851.738" y="794.9268">int getWidth()</text><ellipse cx="842.738" cy="805.7617" fill="#84BE84" rx="3" ry="3" style="stroke: #038048; stroke-width: 1.0;"/><text fill="#000000" font-family="sans-serif" font-size="11" lengthAdjust="spacingAndGlyphs" textLength="111" x="851.738" y="808.7627">List&lt;Color&gt; getColors()</text><!--class mastermind.models.Game--><rect fill="#FEFECE" filter="url(#fdnk08swfskkc)" height="269.375" id="mastermind.models.Game" style="stroke: #A80036; stroke-width: 1.5;" width="390" x="280.238" y="622"/><ellipse cx="453.988" cy="638" fill="#ADD1B2" rx="11" ry="11" style="stroke: #A80036; stroke-width: 1.0;"/><path d="M456.7536,633.875 Q456.9099,633.6563 457.0974,633.5469 Q457.2849,633.4375 457.5036,633.4375 Q457.8786,633.4375 458.113,633.6953 Q458.3474,633.9531 458.3474,634.5625 L458.3474,636.0156 Q458.3474,636.625 458.113,636.8906 Q457.8786,637.1563 457.5036,637.1563 Q457.1599,637.1563 456.9568,636.9531 Q456.7536,636.7656 456.6443,636.25 Q456.5974,635.8906 456.4099,635.7031 Q456.0818,635.3281 455.4724,635.1094 Q454.863,634.8906 454.238,634.8906 Q453.4724,634.8906 452.8396,635.2188 Q452.2068,635.5469 451.7146,636.2969 Q451.2224,637.0469 451.2224,638.0781 L451.2224,639.1719 Q451.2224,640.4063 452.113,641.2266 Q453.0036,642.0469 454.5974,642.0469 Q455.5349,642.0469 456.1911,641.7969 Q456.5818,641.6406 457.0036,641.2031 Q457.2693,640.9375 457.4177,640.8594 Q457.5661,640.7813 457.7693,640.7813 Q458.0974,640.7813 458.3552,641.0391 Q458.613,641.2969 458.613,641.6406 Q458.613,641.9844 458.2693,642.3906 Q457.7693,642.9688 456.9724,643.2969 Q455.8943,643.75 454.5974,643.75 Q453.0818,643.75 451.8786,643.125 Q450.8943,642.625 450.2068,641.5547 Q449.5193,640.4844 449.5193,639.2031 L449.5193,638.0469 Q449.5193,636.7188 450.1364,635.5703 Q450.7536,634.4219 451.8474,633.8047 Q452.9411,633.1875 454.1755,633.1875 Q454.9099,633.1875 455.5583,633.3516 Q456.2068,633.5156 456.7536,633.875 Z "/><text fill="#000000" font-family="sans-serif" font-size="12" lengthAdjust="spacingAndGlyphs" textLength="34" x="474.488" y="642.9102">Game</text><line style="stroke: #A80036; stroke-width: 1.5;" x1="281.238" x2="669.238" y1="654" y2="654"/><rect fill="none" height="6" style="stroke: #C82930; stroke-width: 1.0;" width="6" x="288.238" y="663.418"/><text fill="#000000" font-family="sans-serif" font-size="11" lengthAdjust="spacingAndGlyphs" text-decoration="underline" textLength="72" x="300.238" y="669.4189">int MAX_LONG</text><rect fill="none" height="6" style="stroke: #C82930; stroke-width: 1.0;" width="6" x="288.238" y="677.2539"/><text fill="#000000" font-family="sans-serif" font-size="11" lengthAdjust="spacingAndGlyphs" textLength="182" x="300.238" y="683.2549">SecretCombination secretCombination</text><rect fill="none" height="6" style="stroke: #C82930; stroke-width: 1.0;" width="6" x="288.238" y="691.0898"/><text fill="#000000" font-family="sans-serif" font-size="11" lengthAdjust="spacingAndGlyphs" textLength="246" x="300.238" y="697.0908">List&lt;ProposedCombination&gt; proposedCombinations</text><rect fill="none" height="6" style="stroke: #C82930; stroke-width: 1.0;" width="6" x="288.238" y="704.9258"/><text fill="#000000" font-family="sans-serif" font-size="11" lengthAdjust="spacingAndGlyphs" textLength="95" x="300.238" y="710.9268">List&lt;Result&gt; results</text><rect fill="none" height="6" style="stroke: #C82930; stroke-width: 1.0;" width="6" x="288.238" y="718.7617"/><text fill="#000000" font-family="sans-serif" font-size="11" lengthAdjust="spacingAndGlyphs" textLength="55" x="300.238" y="724.7627">int attempts</text><line style="stroke: #A80036; stroke-width: 1.5;" x1="281.238" x2="669.238" y1="731.1797" y2="731.1797"/><polygon fill="#4177AF" points="291.238,739.5977,287.238,745.5977,295.238,745.5977" style="stroke: #1963A0; stroke-width: 1.0;"/><text fill="#000000" font-family="sans-serif" font-size="11" lengthAdjust="spacingAndGlyphs" textLength="36" x="300.238" y="746.5986">Game()</text><polygon fill="#4177AF" points="291.238,753.4336,287.238,759.4336,295.238,759.4336" style="stroke: #1963A0; stroke-width: 1.0;"/><text fill="#000000" font-family="sans-serif" font-size="11" lengthAdjust="spacingAndGlyphs" textLength="55" x="300.238" y="760.4346">void clear()</text><polygon fill="#4177AF" points="291.238,767.2695,287.238,773.2695,295.238,773.2695" style="stroke: #1963A0; stroke-width: 1.0;"/><text fill="#000000" font-family="sans-serif" font-size="11" lengthAdjust="spacingAndGlyphs" textLength="364" x="300.238" y="774.2705">void addProposedCombination(ProposedCombination proposedCombination)</text><polygon fill="#4177AF" points="291.238,781.1055,287.238,787.1055,295.238,787.1055" style="stroke: #1963A0; stroke-width: 1.0;"/><text fill="#000000" font-family="sans-serif" font-size="11" lengthAdjust="spacingAndGlyphs" textLength="128" x="300.238" y="788.1064">Memento createMemento()</text><polygon fill="#4177AF" points="291.238,794.9414,287.238,800.9414,295.238,800.9414" style="stroke: #1963A0; stroke-width: 1.0;"/><text fill="#000000" font-family="sans-serif" font-size="11" lengthAdjust="spacingAndGlyphs" textLength="135" x="300.238" y="801.9424">void set(Memento memento)</text><polygon fill="#4177AF" points="291.238,808.7773,287.238,814.7773,295.238,814.7773" style="stroke: #1963A0; stroke-width: 1.0;"/><text fill="#000000" font-family="sans-serif" font-size="11" lengthAdjust="spacingAndGlyphs" textLength="91" x="300.238" y="815.7783">boolean isLooser()</text><polygon fill="#4177AF" points="291.238,822.6133,287.238,828.6133,295.238,828.6133" style="stroke: #1963A0; stroke-width: 1.0;"/><text fill="#000000" font-family="sans-serif" font-size="11" lengthAdjust="spacingAndGlyphs" textLength="91" x="300.238" y="829.6143">boolean isWinner()</text><ellipse cx="291.238" cy="840.4492" fill="#84BE84" rx="3" ry="3" style="stroke: #038048; stroke-width: 1.0;"/><text fill="#000000" font-family="sans-serif" font-size="11" lengthAdjust="spacingAndGlyphs" textLength="206" x="300.238" y="843.4502">SecretCombination getSecretCombination()</text><ellipse cx="291.238" cy="854.2852" fill="#84BE84" rx="3" ry="3" style="stroke: #038048; stroke-width: 1.0;"/><text fill="#000000" font-family="sans-serif" font-size="11" lengthAdjust="spacingAndGlyphs" textLength="285" x="300.238" y="857.2861">ProposedCombination getProposedCombination(int position)</text><ellipse cx="291.238" cy="868.1211" fill="#84BE84" rx="3" ry="3" style="stroke: #038048; stroke-width: 1.0;"/><text fill="#000000" font-family="sans-serif" font-size="11" lengthAdjust="spacingAndGlyphs" textLength="195" x="300.238" y="871.1221">Result getResultCombination(int position)</text><ellipse cx="291.238" cy="881.957" fill="#84BE84" rx="3" ry="3" style="stroke: #038048; stroke-width: 1.0;"/><text fill="#000000" font-family="sans-serif" font-size="11" lengthAdjust="spacingAndGlyphs" textLength="80" x="300.238" y="884.958">int getAttempts()</text><!--class mastermind.models.SecretCombination--><rect fill="#FEFECE" filter="url(#fdnk08swfskkc)" height="75.6719" id="mastermind.models.SecretCombination" style="stroke: #A80036; stroke-width: 1.5;" width="323" x="608.738" y="999.5"/><ellipse cx="712.988" cy="1015.5" fill="#ADD1B2" rx="11" ry="11" style="stroke: #A80036; stroke-width: 1.0;"/><path d="M715.7536,1011.375 Q715.9099,1011.1563 716.0974,1011.0469 Q716.2849,1010.9375 716.5036,1010.9375 Q716.8786,1010.9375 717.113,1011.1953 Q717.3474,1011.4531 717.3474,1012.0625 L717.3474,1013.5156 Q717.3474,1014.125 717.113,1014.3906 Q716.8786,1014.6563 716.5036,1014.6563 Q716.1599,1014.6563 715.9568,1014.4531 Q715.7536,1014.2656 715.6443,1013.75 Q715.5974,1013.3906 715.4099,1013.2031 Q715.0818,1012.8281 714.4724,1012.6094 Q713.863,1012.3906 713.238,1012.3906 Q712.4724,1012.3906 711.8396,1012.7188 Q711.2068,1013.0469 710.7146,1013.7969 Q710.2224,1014.5469 710.2224,1015.5781 L710.2224,1016.6719 Q710.2224,1017.9063 711.113,1018.7266 Q712.0036,1019.5469 713.5974,1019.5469 Q714.5349,1019.5469 715.1911,1019.2969 Q715.5818,1019.1406 716.0036,1018.7031 Q716.2693,1018.4375 716.4177,1018.3594 Q716.5661,1018.2813 716.7693,1018.2813 Q717.0974,1018.2813 717.3552,1018.5391 Q717.613,1018.7969 717.613,1019.1406 Q717.613,1019.4844 717.2693,1019.8906 Q716.7693,1020.4688 715.9724,1020.7969 Q714.8943,1021.25 713.5974,1021.25 Q712.0818,1021.25 710.8786,1020.625 Q709.8943,1020.125 709.2068,1019.0547 Q708.5193,1017.9844 708.5193,1016.7031 L708.5193,1015.5469 Q708.5193,1014.2188 709.1364,1013.0703 Q709.7536,1011.9219 710.8474,1011.3047 Q711.9411,1010.6875 713.1755,1010.6875 Q713.9099,1010.6875 714.5583,1010.8516 Q715.2068,1011.0156 715.7536,1011.375 Z "/><text fill="#000000" font-family="sans-serif" font-size="12" lengthAdjust="spacingAndGlyphs" textLength="106" x="733.488" y="1020.4102">SecretCombination</text><line style="stroke: #A80036; stroke-width: 1.5;" x1="609.738" x2="930.738" y1="1031.5" y2="1031.5"/><line style="stroke: #A80036; stroke-width: 1.5;" x1="609.738" x2="930.738" y1="1039.5" y2="1039.5"/><polygon fill="#4177AF" points="619.738,1047.918,615.738,1053.918,623.738,1053.918" style="stroke: #1963A0; stroke-width: 1.0;"/><text fill="#000000" font-family="sans-serif" font-size="11" lengthAdjust="spacingAndGlyphs" textLength="98" x="628.738" y="1054.9189">SecretCombination()</text><polygon fill="#4177AF" points="619.738,1061.7539,615.738,1067.7539,623.738,1067.7539" style="stroke: #1963A0; stroke-width: 1.0;"/><text fill="#000000" font-family="sans-serif" font-size="11" lengthAdjust="spacingAndGlyphs" textLength="297" x="628.738" y="1068.7549">Result getResult(ProposedCombination proposedCombination)</text><!--class mastermind.models.ProposedCombination--><rect fill="#FEFECE" filter="url(#fdnk08swfskkc)" height="117.1797" id="mastermind.models.ProposedCombination" style="stroke: #A80036; stroke-width: 1.5;" width="225" x="396.738" y="1198"/><ellipse cx="442.488" cy="1214" fill="#ADD1B2" rx="11" ry="11" style="stroke: #A80036; stroke-width: 1.0;"/><path d="M445.2536,1209.875 Q445.4099,1209.6563 445.5974,1209.5469 Q445.7849,1209.4375 446.0036,1209.4375 Q446.3786,1209.4375 446.613,1209.6953 Q446.8474,1209.9531 446.8474,1210.5625 L446.8474,1212.0156 Q446.8474,1212.625 446.613,1212.8906 Q446.3786,1213.1563 446.0036,1213.1563 Q445.6599,1213.1563 445.4568,1212.9531 Q445.2536,1212.7656 445.1443,1212.25 Q445.0974,1211.8906 444.9099,1211.7031 Q444.5818,1211.3281 443.9724,1211.1094 Q443.363,1210.8906 442.738,1210.8906 Q441.9724,1210.8906 441.3396,1211.2188 Q440.7068,1211.5469 440.2146,1212.2969 Q439.7224,1213.0469 439.7224,1214.0781 L439.7224,1215.1719 Q439.7224,1216.4063 440.613,1217.2266 Q441.5036,1218.0469 443.0974,1218.0469 Q444.0349,1218.0469 444.6911,1217.7969 Q445.0818,1217.6406 445.5036,1217.2031 Q445.7693,1216.9375 445.9177,1216.8594 Q446.0661,1216.7813 446.2693,1216.7813 Q446.5974,1216.7813 446.8552,1217.0391 Q447.113,1217.2969 447.113,1217.6406 Q447.113,1217.9844 446.7693,1218.3906 Q446.2693,1218.9688 445.4724,1219.2969 Q444.3943,1219.75 443.0974,1219.75 Q441.5818,1219.75 440.3786,1219.125 Q439.3943,1218.625 438.7068,1217.5547 Q438.0193,1216.4844 438.0193,1215.2031 L438.0193,1214.0469 Q438.0193,1212.7188 438.6364,1211.5703 Q439.2536,1210.4219 440.3474,1209.8047 Q441.4411,1209.1875 442.6755,1209.1875 Q443.4099,1209.1875 444.0583,1209.3516 Q444.7068,1209.5156 445.2536,1209.875 Z "/><text fill="#000000" font-family="sans-serif" font-size="12" lengthAdjust="spacingAndGlyphs" textLength="125" x="462.988" y="1218.9102">ProposedCombination</text><line style="stroke: #A80036; stroke-width: 1.5;" x1="397.738" x2="620.738" y1="1230" y2="1230"/><line style="stroke: #A80036; stroke-width: 1.5;" x1="397.738" x2="620.738" y1="1238" y2="1238"/><ellipse cx="407.738" cy="1250.418" fill="#84BE84" rx="3" ry="3" style="stroke: #038048; stroke-width: 1.0;"/><text fill="#000000" font-family="sans-serif" font-size="11" lengthAdjust="spacingAndGlyphs" text-decoration="underline" textLength="154" x="416.738" y="1253.4189">Error isValid(List&lt;Color&gt; colors)</text><ellipse cx="407.738" cy="1264.2539" fill="#84BE84" rx="3" ry="3" style="stroke: #038048; stroke-width: 1.0;"/><text fill="#000000" font-family="sans-serif" font-size="11" lengthAdjust="spacingAndGlyphs" textLength="133" x="416.738" y="1267.2549">void set(List&lt;Color&gt; colors)</text><polygon fill="#4177AF" points="407.738,1274.0898,403.738,1280.0898,411.738,1280.0898" style="stroke: #1963A0; stroke-width: 1.0;"/><text fill="#000000" font-family="sans-serif" font-size="11" lengthAdjust="spacingAndGlyphs" textLength="199" x="416.738" y="1281.0908">boolean contains(Color color, int position)</text><polygon fill="#4177AF" points="407.738,1287.9258,403.738,1293.9258,411.738,1293.9258" style="stroke: #1963A0; stroke-width: 1.0;"/><text fill="#000000" font-family="sans-serif" font-size="11" lengthAdjust="spacingAndGlyphs" textLength="142" x="416.738" y="1294.9268">boolean contains(Color color)</text><polygon fill="#4177AF" points="407.738,1301.7617,403.738,1307.7617,411.738,1307.7617" style="stroke: #1963A0; stroke-width: 1.0;"/><text fill="#000000" font-family="sans-serif" font-size="11" lengthAdjust="spacingAndGlyphs" textLength="139" x="416.738" y="1308.7627">ProposedCombination copy()</text><!--class mastermind.models.Result--><rect fill="#FEFECE" filter="url(#fdnk08swfskkc)" height="144.8516" id="mastermind.models.Result" style="stroke: #A80036; stroke-width: 1.5;" width="162" x="678.238" y="1184"/><ellipse cx="736.988" cy="1200" fill="#ADD1B2" rx="11" ry="11" style="stroke: #A80036; stroke-width: 1.0;"/><path d="M739.7536,1195.875 Q739.9099,1195.6563 740.0974,1195.5469 Q740.2849,1195.4375 740.5036,1195.4375 Q740.8786,1195.4375 741.113,1195.6953 Q741.3474,1195.9531 741.3474,1196.5625 L741.3474,1198.0156 Q741.3474,1198.625 741.113,1198.8906 Q740.8786,1199.1563 740.5036,1199.1563 Q740.1599,1199.1563 739.9568,1198.9531 Q739.7536,1198.7656 739.6443,1198.25 Q739.5974,1197.8906 739.4099,1197.7031 Q739.0818,1197.3281 738.4724,1197.1094 Q737.863,1196.8906 737.238,1196.8906 Q736.4724,1196.8906 735.8396,1197.2188 Q735.2068,1197.5469 734.7146,1198.2969 Q734.2224,1199.0469 734.2224,1200.0781 L734.2224,1201.1719 Q734.2224,1202.4063 735.113,1203.2266 Q736.0036,1204.0469 737.5974,1204.0469 Q738.5349,1204.0469 739.1911,1203.7969 Q739.5818,1203.6406 740.0036,1203.2031 Q740.2693,1202.9375 740.4177,1202.8594 Q740.5661,1202.7813 740.7693,1202.7813 Q741.0974,1202.7813 741.3552,1203.0391 Q741.613,1203.2969 741.613,1203.6406 Q741.613,1203.9844 741.2693,1204.3906 Q740.7693,1204.9688 739.9724,1205.2969 Q738.8943,1205.75 737.5974,1205.75 Q736.0818,1205.75 734.8786,1205.125 Q733.8943,1204.625 733.2068,1203.5547 Q732.5193,1202.4844 732.5193,1201.2031 L732.5193,1200.0469 Q732.5193,1198.7188 733.1364,1197.5703 Q733.7536,1196.4219 734.8474,1195.8047 Q735.9411,1195.1875 737.1755,1195.1875 Q737.9099,1195.1875 738.5583,1195.3516 Q739.2068,1195.5156 739.7536,1195.875 Z "/><text fill="#000000" font-family="sans-serif" font-size="12" lengthAdjust="spacingAndGlyphs" textLength="36" x="757.488" y="1204.9102">Result</text><line style="stroke: #A80036; stroke-width: 1.5;" x1="679.238" x2="839.238" y1="1216" y2="1216"/><rect fill="none" height="6" style="stroke: #C82930; stroke-width: 1.0;" width="6" x="686.238" y="1225.418"/><text fill="#000000" font-family="sans-serif" font-size="11" lengthAdjust="spacingAndGlyphs" textLength="45" x="698.238" y="1231.4189">int blacks</text><rect fill="none" height="6" style="stroke: #C82930; stroke-width: 1.0;" width="6" x="686.238" y="1239.2539"/><text fill="#000000" font-family="sans-serif" font-size="11" lengthAdjust="spacingAndGlyphs" textLength="47" x="698.238" y="1245.2549">int whites</text><line style="stroke: #A80036; stroke-width: 1.5;" x1="679.238" x2="839.238" y1="1251.6719" y2="1251.6719"/><polygon fill="#4177AF" points="689.238,1260.0898,685.238,1266.0898,693.238,1266.0898" style="stroke: #1963A0; stroke-width: 1.0;"/><text fill="#000000" font-family="sans-serif" font-size="11" lengthAdjust="spacingAndGlyphs" textLength="136" x="698.238" y="1267.0908">Result(int blacks, int whites)</text><polygon fill="#4177AF" points="689.238,1273.9258,685.238,1279.9258,693.238,1279.9258" style="stroke: #1963A0; stroke-width: 1.0;"/><text fill="#000000" font-family="sans-serif" font-size="11" lengthAdjust="spacingAndGlyphs" textLength="91" x="698.238" y="1280.9268">boolean isWinner()</text><ellipse cx="689.238" cy="1291.7617" fill="#84BE84" rx="3" ry="3" style="stroke: #038048; stroke-width: 1.0;"/><text fill="#000000" font-family="sans-serif" font-size="11" lengthAdjust="spacingAndGlyphs" textLength="69" x="698.238" y="1294.7627">int getBlacks()</text><ellipse cx="689.238" cy="1305.5977" fill="#84BE84" rx="3" ry="3" style="stroke: #038048; stroke-width: 1.0;"/><text fill="#000000" font-family="sans-serif" font-size="11" lengthAdjust="spacingAndGlyphs" textLength="70" x="698.238" y="1308.5986">int getWhites()</text><polygon fill="#4177AF" points="689.238,1315.4336,685.238,1321.4336,693.238,1321.4336" style="stroke: #1963A0; stroke-width: 1.0;"/><text fill="#000000" font-family="sans-serif" font-size="11" lengthAdjust="spacingAndGlyphs" textLength="65" x="698.238" y="1322.4346">Result copy()</text><!--class mastermind.models.Memento--><rect fill="#FEFECE" filter="url(#fdnk08swfskkc)" height="172.5234" id="mastermind.models.Memento" style="stroke: #A80036; stroke-width: 1.5;" width="349" x="112.738" y="951"/><ellipse cx="257.488" cy="967" fill="#ADD1B2" rx="11" ry="11" style="stroke: #A80036; stroke-width: 1.0;"/><path d="M260.2536,962.875 Q260.4099,962.6563 260.5974,962.5469 Q260.7849,962.4375 261.0036,962.4375 Q261.3786,962.4375 261.613,962.6953 Q261.8474,962.9531 261.8474,963.5625 L261.8474,965.0156 Q261.8474,965.625 261.613,965.8906 Q261.3786,966.1563 261.0036,966.1563 Q260.6599,966.1563 260.4568,965.9531 Q260.2536,965.7656 260.1443,965.25 Q260.0974,964.8906 259.9099,964.7031 Q259.5818,964.3281 258.9724,964.1094 Q258.363,963.8906 257.738,963.8906 Q256.9724,963.8906 256.3396,964.2188 Q255.7068,964.5469 255.2146,965.2969 Q254.7224,966.0469 254.7224,967.0781 L254.7224,968.1719 Q254.7224,969.4063 255.613,970.2266 Q256.5036,971.0469 258.0974,971.0469 Q259.0349,971.0469 259.6911,970.7969 Q260.0818,970.6406 260.5036,970.2031 Q260.7693,969.9375 260.9177,969.8594 Q261.0661,969.7813 261.2693,969.7813 Q261.5974,969.7813 261.8552,970.0391 Q262.113,970.2969 262.113,970.6406 Q262.113,970.9844 261.7693,971.3906 Q261.2693,971.9688 260.4724,972.2969 Q259.3943,972.75 258.0974,972.75 Q256.5818,972.75 255.3786,972.125 Q254.3943,971.625 253.7068,970.5547 Q253.0193,969.4844 253.0193,968.2031 L253.0193,967.0469 Q253.0193,965.7188 253.6364,964.5703 Q254.2536,963.4219 255.3474,962.8047 Q256.4411,962.1875 257.6755,962.1875 Q258.4099,962.1875 259.0583,962.3516 Q259.7068,962.5156 260.2536,962.875 Z "/><text fill="#000000" font-family="sans-serif" font-size="12" lengthAdjust="spacingAndGlyphs" textLength="51" x="277.988" y="971.9102">Memento</text><line style="stroke: #A80036; stroke-width: 1.5;" x1="113.738" x2="460.738" y1="983" y2="983"/><rect fill="none" height="6" style="stroke: #C82930; stroke-width: 1.0;" width="6" x="120.738" y="992.418"/><text fill="#000000" font-family="sans-serif" font-size="11" lengthAdjust="spacingAndGlyphs" textLength="246" x="132.738" y="998.4189">List&lt;ProposedCombination&gt; proposedCombinations</text><rect fill="none" height="6" style="stroke: #C82930; stroke-width: 1.0;" width="6" x="120.738" y="1006.2539"/><text fill="#000000" font-family="sans-serif" font-size="11" lengthAdjust="spacingAndGlyphs" textLength="95" x="132.738" y="1012.2549">List&lt;Result&gt; results</text><rect fill="none" height="6" style="stroke: #C82930; stroke-width: 1.0;" width="6" x="120.738" y="1020.0898"/><text fill="#000000" font-family="sans-serif" font-size="11" lengthAdjust="spacingAndGlyphs" textLength="55" x="132.738" y="1026.0908">int attempts</text><line style="stroke: #A80036; stroke-width: 1.5;" x1="113.738" x2="460.738" y1="1032.5078" y2="1032.5078"/><polygon fill="#4177AF" points="123.738,1040.9258,119.738,1046.9258,127.738,1046.9258" style="stroke: #1963A0; stroke-width: 1.0;"/><text fill="#000000" font-family="sans-serif" font-size="11" lengthAdjust="spacingAndGlyphs" textLength="106" x="132.738" y="1047.9268">Memento(int attempts)</text><polygon fill="#4177AF" points="123.738,1054.7617,119.738,1060.7617,127.738,1060.7617" style="stroke: #1963A0; stroke-width: 1.0;"/><text fill="#000000" font-family="sans-serif" font-size="11" lengthAdjust="spacingAndGlyphs" textLength="323" x="132.738" y="1061.7627">void set(ProposedCombination proposedCombination, Result result)</text><polygon fill="#4177AF" points="123.738,1068.5977,119.738,1074.5977,127.738,1074.5977" style="stroke: #1963A0; stroke-width: 1.0;"/><text fill="#000000" font-family="sans-serif" font-size="11" lengthAdjust="spacingAndGlyphs" textLength="285" x="132.738" y="1075.5986">ProposedCombination getProposedCombination(int position)</text><polygon fill="#4177AF" points="123.738,1082.4336,119.738,1088.4336,127.738,1088.4336" style="stroke: #1963A0; stroke-width: 1.0;"/><text fill="#000000" font-family="sans-serif" font-size="11" lengthAdjust="spacingAndGlyphs" textLength="137" x="132.738" y="1089.4346">Result getResult(int position)</text><polygon fill="#4177AF" points="123.738,1096.2695,119.738,1102.2695,127.738,1102.2695" style="stroke: #1963A0; stroke-width: 1.0;"/><text fill="#000000" font-family="sans-serif" font-size="11" lengthAdjust="spacingAndGlyphs" textLength="58" x="132.738" y="1103.2705">int getSize()</text><polygon fill="#4177AF" points="123.738,1110.1055,119.738,1116.1055,127.738,1116.1055" style="stroke: #1963A0; stroke-width: 1.0;"/><text fill="#000000" font-family="sans-serif" font-size="11" lengthAdjust="spacingAndGlyphs" textLength="80" x="132.738" y="1117.1064">int getAttempts()</text><!--class mastermind.models.Registry--><rect fill="#FEFECE" filter="url(#fdnk08swfskkc)" height="186.3594" id="mastermind.models.Registry" style="stroke: #A80036; stroke-width: 1.5;" width="189" x="249.738" y="376"/><ellipse cx="317.488" cy="392" fill="#ADD1B2" rx="11" ry="11" style="stroke: #A80036; stroke-width: 1.0;"/><path d="M320.2536,387.875 Q320.4099,387.6563 320.5974,387.5469 Q320.7849,387.4375 321.0036,387.4375 Q321.3786,387.4375 321.613,387.6953 Q321.8474,387.9531 321.8474,388.5625 L321.8474,390.0156 Q321.8474,390.625 321.613,390.8906 Q321.3786,391.1563 321.0036,391.1563 Q320.6599,391.1563 320.4568,390.9531 Q320.2536,390.7656 320.1443,390.25 Q320.0974,389.8906 319.9099,389.7031 Q319.5818,389.3281 318.9724,389.1094 Q318.363,388.8906 317.738,388.8906 Q316.9724,388.8906 316.3396,389.2188 Q315.7068,389.5469 315.2146,390.2969 Q314.7224,391.0469 314.7224,392.0781 L314.7224,393.1719 Q314.7224,394.4063 315.613,395.2266 Q316.5036,396.0469 318.0974,396.0469 Q319.0349,396.0469 319.6911,395.7969 Q320.0818,395.6406 320.5036,395.2031 Q320.7693,394.9375 320.9177,394.8594 Q321.0661,394.7813 321.2693,394.7813 Q321.5974,394.7813 321.8552,395.0391 Q322.113,395.2969 322.113,395.6406 Q322.113,395.9844 321.7693,396.3906 Q321.2693,396.9688 320.4724,397.2969 Q319.3943,397.75 318.0974,397.75 Q316.5818,397.75 315.3786,397.125 Q314.3943,396.625 313.7068,395.5547 Q313.0193,394.4844 313.0193,393.2031 L313.0193,392.0469 Q313.0193,390.7188 313.6364,389.5703 Q314.2536,388.4219 315.3474,387.8047 Q316.4411,387.1875 317.6755,387.1875 Q318.4099,387.1875 319.0583,387.3516 Q319.7068,387.5156 320.2536,387.875 Z "/><text fill="#000000" font-family="sans-serif" font-size="12" lengthAdjust="spacingAndGlyphs" textLength="45" x="337.988" y="396.9102">Registry</text><line style="stroke: #A80036; stroke-width: 1.5;" x1="250.738" x2="437.738" y1="408" y2="408"/><rect fill="none" height="6" style="stroke: #C82930; stroke-width: 1.0;" width="6" x="257.738" y="417.418"/><text fill="#000000" font-family="sans-serif" font-size="11" lengthAdjust="spacingAndGlyphs" textLength="163" x="269.738" y="423.4189">ArrayList&lt;Memento&gt; mementoList</text><rect fill="none" height="6" style="stroke: #C82930; stroke-width: 1.0;" width="6" x="257.738" y="431.2539"/><text fill="#000000" font-family="sans-serif" font-size="11" lengthAdjust="spacingAndGlyphs" textLength="57" x="269.738" y="437.2549">Game game</text><rect fill="none" height="6" style="stroke: #C82930; stroke-width: 1.0;" width="6" x="257.738" y="445.0898"/><text fill="#000000" font-family="sans-serif" font-size="11" lengthAdjust="spacingAndGlyphs" textLength="75" x="269.738" y="451.0908">int firstPrevious</text><line style="stroke: #A80036; stroke-width: 1.5;" x1="250.738" x2="437.738" y1="457.5078" y2="457.5078"/><polygon fill="#4177AF" points="260.738,465.9258,256.738,471.9258,264.738,471.9258" style="stroke: #1963A0; stroke-width: 1.0;"/><text fill="#000000" font-family="sans-serif" font-size="11" lengthAdjust="spacingAndGlyphs" textLength="105" x="269.738" y="472.9268">Registry(Game game)</text><polygon fill="#4177AF" points="260.738,479.7617,256.738,485.7617,264.738,485.7617" style="stroke: #1963A0; stroke-width: 1.0;"/><text fill="#000000" font-family="sans-serif" font-size="11" lengthAdjust="spacingAndGlyphs" textLength="68" x="269.738" y="486.7627">void registry()</text><polygon fill="#4177AF" points="260.738,493.5977,256.738,499.5977,264.738,499.5977" style="stroke: #1963A0; stroke-width: 1.0;"/><text fill="#000000" font-family="sans-serif" font-size="11" lengthAdjust="spacingAndGlyphs" textLength="112" x="269.738" y="500.5986">void undo(Game game)</text><polygon fill="#4177AF" points="260.738,507.4336,256.738,513.4336,264.738,513.4336" style="stroke: #1963A0; stroke-width: 1.0;"/><text fill="#000000" font-family="sans-serif" font-size="11" lengthAdjust="spacingAndGlyphs" textLength="110" x="269.738" y="514.4346">void redo(Game game)</text><polygon fill="#4177AF" points="260.738,521.2695,256.738,527.2695,264.738,527.2695" style="stroke: #1963A0; stroke-width: 1.0;"/><text fill="#000000" font-family="sans-serif" font-size="11" lengthAdjust="spacingAndGlyphs" textLength="93" x="269.738" y="528.2705">boolean undoable()</text><polygon fill="#4177AF" points="260.738,535.1055,256.738,541.1055,264.738,541.1055" style="stroke: #1963A0; stroke-width: 1.0;"/><text fill="#000000" font-family="sans-serif" font-size="11" lengthAdjust="spacingAndGlyphs" textLength="91" x="269.738" y="542.1064">boolean redoable()</text><polygon fill="#4177AF" points="260.738,548.9414,256.738,554.9414,264.738,554.9414" style="stroke: #1963A0; stroke-width: 1.0;"/><text fill="#000000" font-family="sans-serif" font-size="11" lengthAdjust="spacingAndGlyphs" textLength="56" x="269.738" y="555.9424">void reset()</text><!--class mastermind.models.Session--><rect fill="#FEFECE" filter="url(#fdnk08swfskkc)" height="255.5391" id="mastermind.models.Session" style="stroke: #A80036; stroke-width: 1.5;" width="390" x="214.238" y="60"/><ellipse cx="381.988" cy="76" fill="#ADD1B2" rx="11" ry="11" style="stroke: #A80036; stroke-width: 1.0;"/><path d="M384.7536,71.875 Q384.9099,71.6563 385.0974,71.5469 Q385.2849,71.4375 385.5036,71.4375 Q385.8786,71.4375 386.113,71.6953 Q386.3474,71.9531 386.3474,72.5625 L386.3474,74.0156 Q386.3474,74.625 386.113,74.8906 Q385.8786,75.1563 385.5036,75.1563 Q385.1599,75.1563 384.9568,74.9531 Q384.7536,74.7656 384.6443,74.25 Q384.5974,73.8906 384.4099,73.7031 Q384.0818,73.3281 383.4724,73.1094 Q382.863,72.8906 382.238,72.8906 Q381.4724,72.8906 380.8396,73.2188 Q380.2068,73.5469 379.7146,74.2969 Q379.2224,75.0469 379.2224,76.0781 L379.2224,77.1719 Q379.2224,78.4063 380.113,79.2266 Q381.0036,80.0469 382.5974,80.0469 Q383.5349,80.0469 384.1911,79.7969 Q384.5818,79.6406 385.0036,79.2031 Q385.2693,78.9375 385.4177,78.8594 Q385.5661,78.7813 385.7693,78.7813 Q386.0974,78.7813 386.3552,79.0391 Q386.613,79.2969 386.613,79.6406 Q386.613,79.9844 386.2693,80.3906 Q385.7693,80.9688 384.9724,81.2969 Q383.8943,81.75 382.5974,81.75 Q381.0818,81.75 379.8786,81.125 Q378.8943,80.625 378.2068,79.5547 Q377.5193,78.4844 377.5193,77.2031 L377.5193,76.0469 Q377.5193,74.7188 378.1364,73.5703 Q378.7536,72.4219 379.8474,71.8047 Q380.9411,71.1875 382.1755,71.1875 Q382.9099,71.1875 383.5583,71.3516 Q384.2068,71.5156 384.7536,71.875 Z "/><text fill="#000000" font-family="sans-serif" font-size="12" lengthAdjust="spacingAndGlyphs" textLength="46" x="402.488" y="80.9102">Session</text><line style="stroke: #A80036; stroke-width: 1.5;" x1="215.238" x2="603.238" y1="92" y2="92"/><rect fill="none" height="6" style="stroke: #C82930; stroke-width: 1.0;" width="6" x="222.238" y="101.418"/><text fill="#000000" font-family="sans-serif" font-size="11" lengthAdjust="spacingAndGlyphs" textLength="52" x="234.238" y="107.4189">State state</text><rect fill="none" height="6" style="stroke: #C82930; stroke-width: 1.0;" width="6" x="222.238" y="115.2539"/><text fill="#000000" font-family="sans-serif" font-size="11" lengthAdjust="spacingAndGlyphs" textLength="57" x="234.238" y="121.2549">Game game</text><rect fill="none" height="6" style="stroke: #C82930; stroke-width: 1.0;" width="6" x="222.238" y="129.0898"/><text fill="#000000" font-family="sans-serif" font-size="11" lengthAdjust="spacingAndGlyphs" textLength="80" x="234.238" y="135.0908">Registry registry</text><line style="stroke: #A80036; stroke-width: 1.5;" x1="215.238" x2="603.238" y1="141.5078" y2="141.5078"/><ellipse cx="225.238" cy="153.9258" fill="#84BE84" rx="3" ry="3" style="stroke: #038048; stroke-width: 1.0;"/><text fill="#000000" font-family="sans-serif" font-size="11" lengthAdjust="spacingAndGlyphs" textLength="47" x="234.238" y="156.9268">Session()</text><ellipse cx="225.238" cy="167.7617" fill="#84BE84" rx="3" ry="3" style="stroke: #038048; stroke-width: 1.0;"/><text fill="#000000" font-family="sans-serif" font-size="11" lengthAdjust="spacingAndGlyphs" textLength="52" x="234.238" y="170.7627">void next()</text><ellipse cx="225.238" cy="181.5977" fill="#84BE84" rx="3" ry="3" style="stroke: #038048; stroke-width: 1.0;"/><text fill="#000000" font-family="sans-serif" font-size="11" lengthAdjust="spacingAndGlyphs" textLength="364" x="234.238" y="184.5986">void addProposedCombination(ProposedCombination proposedCombination)</text><ellipse cx="225.238" cy="195.4336" fill="#84BE84" rx="3" ry="3" style="stroke: #038048; stroke-width: 1.0;"/><text fill="#000000" font-family="sans-serif" font-size="11" lengthAdjust="spacingAndGlyphs" textLength="93" x="234.238" y="198.4346">boolean undoable()</text><ellipse cx="225.238" cy="209.2695" fill="#84BE84" rx="3" ry="3" style="stroke: #038048; stroke-width: 1.0;"/><text fill="#000000" font-family="sans-serif" font-size="11" lengthAdjust="spacingAndGlyphs" textLength="91" x="234.238" y="212.2705">boolean redoable()</text><ellipse cx="225.238" cy="223.1055" fill="#84BE84" rx="3" ry="3" style="stroke: #038048; stroke-width: 1.0;"/><text fill="#000000" font-family="sans-serif" font-size="11" lengthAdjust="spacingAndGlyphs" textLength="55" x="234.238" y="226.1064">void undo()</text><ellipse cx="225.238" cy="236.9414" fill="#84BE84" rx="3" ry="3" style="stroke: #038048; stroke-width: 1.0;"/><text fill="#000000" font-family="sans-serif" font-size="11" lengthAdjust="spacingAndGlyphs" textLength="53" x="234.238" y="239.9424">void redo()</text><ellipse cx="225.238" cy="250.7773" fill="#84BE84" rx="3" ry="3" style="stroke: #038048; stroke-width: 1.0;"/><text fill="#000000" font-family="sans-serif" font-size="11" lengthAdjust="spacingAndGlyphs" textLength="83" x="234.238" y="253.7783">void clearGame()</text><ellipse cx="225.238" cy="264.6133" fill="#84BE84" rx="3" ry="3" style="stroke: #038048; stroke-width: 1.0;"/><text fill="#000000" font-family="sans-serif" font-size="11" lengthAdjust="spacingAndGlyphs" textLength="91" x="234.238" y="267.6143">boolean isWinner()</text><ellipse cx="225.238" cy="278.4492" fill="#84BE84" rx="3" ry="3" style="stroke: #038048; stroke-width: 1.0;"/><text fill="#000000" font-family="sans-serif" font-size="11" lengthAdjust="spacingAndGlyphs" textLength="91" x="234.238" y="281.4502">boolean isLooser()</text><ellipse cx="225.238" cy="292.2852" fill="#84BE84" rx="3" ry="3" style="stroke: #038048; stroke-width: 1.0;"/><text fill="#000000" font-family="sans-serif" font-size="11" lengthAdjust="spacingAndGlyphs" textLength="132" x="234.238" y="295.2861">StateValue getValueState()</text><ellipse cx="225.238" cy="306.1211" fill="#84BE84" rx="3" ry="3" style="stroke: #038048; stroke-width: 1.0;"/><text fill="#000000" font-family="sans-serif" font-size="11" lengthAdjust="spacingAndGlyphs" textLength="82" x="234.238" y="309.1221">Game getGame()</text><!--class mastermind.models.State--><rect fill="#FEFECE" filter="url(#fdnk08swfskkc)" height="117.1797" id="mastermind.models.State" style="stroke: #A80036; stroke-width: 1.5;" width="158" x="591.238" y="410.5"/><ellipse cx="651.988" cy="426.5" fill="#ADD1B2" rx="11" ry="11" style="stroke: #A80036; stroke-width: 1.0;"/><path d="M654.7536,422.375 Q654.9099,422.1563 655.0974,422.0469 Q655.2849,421.9375 655.5036,421.9375 Q655.8786,421.9375 656.113,422.1953 Q656.3474,422.4531 656.3474,423.0625 L656.3474,424.5156 Q656.3474,425.125 656.113,425.3906 Q655.8786,425.6563 655.5036,425.6563 Q655.1599,425.6563 654.9568,425.4531 Q654.7536,425.2656 654.6443,424.75 Q654.5974,424.3906 654.4099,424.2031 Q654.0818,423.8281 653.4724,423.6094 Q652.863,423.3906 652.238,423.3906 Q651.4724,423.3906 650.8396,423.7188 Q650.2068,424.0469 649.7146,424.7969 Q649.2224,425.5469 649.2224,426.5781 L649.2224,427.6719 Q649.2224,428.9063 650.113,429.7266 Q651.0036,430.5469 652.5974,430.5469 Q653.5349,430.5469 654.1911,430.2969 Q654.5818,430.1406 655.0036,429.7031 Q655.2693,429.4375 655.4177,429.3594 Q655.5661,429.2813 655.7693,429.2813 Q656.0974,429.2813 656.3552,429.5391 Q656.613,429.7969 656.613,430.1406 Q656.613,430.4844 656.2693,430.8906 Q655.7693,431.4688 654.9724,431.7969 Q653.8943,432.25 652.5974,432.25 Q651.0818,432.25 649.8786,431.625 Q648.8943,431.125 648.2068,430.0547 Q647.5193,428.9844 647.5193,427.7031 L647.5193,426.5469 Q647.5193,425.2188 648.1364,424.0703 Q648.7536,422.9219 649.8474,422.3047 Q650.9411,421.6875 652.1755,421.6875 Q652.9099,421.6875 653.5583,421.8516 Q654.2068,422.0156 654.7536,422.375 Z "/><text fill="#000000" font-family="sans-serif" font-size="12" lengthAdjust="spacingAndGlyphs" textLength="28" x="672.488" y="431.4102">State</text><line style="stroke: #A80036; stroke-width: 1.5;" x1="592.238" x2="748.238" y1="442.5" y2="442.5"/><rect fill="none" height="6" style="stroke: #C82930; stroke-width: 1.0;" width="6" x="599.238" y="451.918"/><text fill="#000000" font-family="sans-serif" font-size="11" lengthAdjust="spacingAndGlyphs" textLength="108" x="611.238" y="457.9189">StateValue stateValue</text><line style="stroke: #A80036; stroke-width: 1.5;" x1="592.238" x2="748.238" y1="464.3359" y2="464.3359"/><polygon fill="#4177AF" points="602.238,472.7539,598.238,478.7539,606.238,478.7539" style="stroke: #1963A0; stroke-width: 1.0;"/><text fill="#000000" font-family="sans-serif" font-size="11" lengthAdjust="spacingAndGlyphs" textLength="33" x="611.238" y="479.7549">State()</text><polygon fill="#4177AF" points="602.238,486.5898,598.238,492.5898,606.238,492.5898" style="stroke: #1963A0; stroke-width: 1.0;"/><text fill="#000000" font-family="sans-serif" font-size="11" lengthAdjust="spacingAndGlyphs" textLength="52" x="611.238" y="493.5908">void next()</text><polygon fill="#4177AF" points="602.238,500.4258,598.238,506.4258,606.238,506.4258" style="stroke: #1963A0; stroke-width: 1.0;"/><text fill="#000000" font-family="sans-serif" font-size="11" lengthAdjust="spacingAndGlyphs" textLength="56" x="611.238" y="507.4268">void reset()</text><polygon fill="#4177AF" points="602.238,514.2617,598.238,520.2617,606.238,520.2617" style="stroke: #1963A0; stroke-width: 1.0;"/><text fill="#000000" font-family="sans-serif" font-size="11" lengthAdjust="spacingAndGlyphs" textLength="132" x="611.238" y="521.2627">StateValue getValueState()</text><!--class mastermind.models.StateValue--><rect fill="#FEFECE" filter="url(#fdnk08swfskkc)" height="103.3438" id="mastermind.models.StateValue" style="stroke: #A80036; stroke-width: 1.5;" width="91" x="705.738" y="705"/><ellipse cx="720.738" cy="721" fill="#EB937F" rx="11" ry="11" style="stroke: #A80036; stroke-width: 1.0;"/><path d="M719.5974,721.7969 L719.5974,724.2969 L723.9255,724.2969 L723.9255,723.375 Q723.9255,722.7656 724.1677,722.5 Q724.4099,722.2344 724.7849,722.2344 Q725.1599,722.2344 725.3943,722.5 Q725.6286,722.7656 725.6286,723.375 L725.6286,726 L717.6286,726 Q717.0036,726 716.7458,725.7656 Q716.488,725.5313 716.488,725.1406 Q716.488,724.7656 716.7536,724.5313 Q717.0193,724.2969 717.6286,724.2969 L717.8943,724.2969 L717.8943,717.6406 L717.6286,717.6406 Q717.0036,717.6406 716.7458,717.4063 Q716.488,717.1719 716.488,716.7813 Q716.488,716.4063 716.7458,716.1719 Q717.0036,715.9375 717.6286,715.9375 L725.2536,715.9375 L725.2536,718.5313 Q725.2536,719.1406 725.0271,719.3984 Q724.8005,719.6563 724.4099,719.6563 Q724.0349,719.6563 723.8005,719.3984 Q723.5661,719.1406 723.5661,718.5313 L723.5661,717.6406 L719.5974,717.6406 L719.5974,720.0938 L721.0818,720.0938 Q721.0818,719.4375 721.2068,719.25 Q721.4724,718.8438 721.9411,718.8438 Q722.3161,718.8438 722.5505,719.1016 Q722.7849,719.3594 722.7849,719.9688 L722.7849,721.9375 Q722.7849,722.4844 722.6599,722.6719 Q722.3943,723.0625 721.9411,723.0625 Q721.4724,723.0625 721.2068,722.6563 Q721.0818,722.4688 721.0818,721.7969 L719.5974,721.7969 Z "/><text fill="#000000" font-family="sans-serif" font-size="12" lengthAdjust="spacingAndGlyphs" textLength="59" x="734.738" y="725.9102">StateValue</text><line style="stroke: #A80036; stroke-width: 1.5;" x1="706.738" x2="795.738" y1="737" y2="737"/><text fill="#000000" font-family="sans-serif" font-size="11" lengthAdjust="spacingAndGlyphs" textLength="33" x="711.738" y="752.4189">INITIAL</text><text fill="#000000" font-family="sans-serif" font-size="11" lengthAdjust="spacingAndGlyphs" textLength="45" x="711.738" y="766.2549">IN_GAME</text><text fill="#000000" font-family="sans-serif" font-size="11" lengthAdjust="spacingAndGlyphs" textLength="29" x="711.738" y="780.0908">FINAL</text><text fill="#000000" font-family="sans-serif" font-size="11" lengthAdjust="spacingAndGlyphs" textLength="21" x="711.738" y="793.9268">EXIT</text><line style="stroke: #A80036; stroke-width: 1.5;" x1="706.738" x2="795.738" y1="800.3438" y2="800.3438"/><!--class mastermind.types.Color--><rect fill="#FEFECE" filter="url(#fdnk08swfskkc)" height="48" id="mastermind.types.Color" style="stroke: #A80036; stroke-width: 1.5;" width="62" x="740.238" y="1405"/><ellipse cx="755.238" cy="1421" fill="#ADD1B2" rx="11" ry="11" style="stroke: #A80036; stroke-width: 1.0;"/><path d="M758.0036,1416.875 Q758.1599,1416.6563 758.3474,1416.5469 Q758.5349,1416.4375 758.7536,1416.4375 Q759.1286,1416.4375 759.363,1416.6953 Q759.5974,1416.9531 759.5974,1417.5625 L759.5974,1419.0156 Q759.5974,1419.625 759.363,1419.8906 Q759.1286,1420.1563 758.7536,1420.1563 Q758.4099,1420.1563 758.2068,1419.9531 Q758.0036,1419.7656 757.8943,1419.25 Q757.8474,1418.8906 757.6599,1418.7031 Q757.3318,1418.3281 756.7224,1418.1094 Q756.113,1417.8906 755.488,1417.8906 Q754.7224,1417.8906 754.0896,1418.2188 Q753.4568,1418.5469 752.9646,1419.2969 Q752.4724,1420.0469 752.4724,1421.0781 L752.4724,1422.1719 Q752.4724,1423.4063 753.363,1424.2266 Q754.2536,1425.0469 755.8474,1425.0469 Q756.7849,1425.0469 757.4411,1424.7969 Q757.8318,1424.6406 758.2536,1424.2031 Q758.5193,1423.9375 758.6677,1423.8594 Q758.8161,1423.7813 759.0193,1423.7813 Q759.3474,1423.7813 759.6052,1424.0391 Q759.863,1424.2969 759.863,1424.6406 Q759.863,1424.9844 759.5193,1425.3906 Q759.0193,1425.9688 758.2224,1426.2969 Q757.1443,1426.75 755.8474,1426.75 Q754.3318,1426.75 753.1286,1426.125 Q752.1443,1425.625 751.4568,1424.5547 Q750.7693,1423.4844 750.7693,1422.2031 L750.7693,1421.0469 Q750.7693,1419.7188 751.3864,1418.5703 Q752.0036,1417.4219 753.0974,1416.8047 Q754.1911,1416.1875 755.4255,1416.1875 Q756.1599,1416.1875 756.8083,1416.3516 Q757.4568,1416.5156 758.0036,1416.875 Z "/><text fill="#000000" font-family="sans-serif" font-size="12" lengthAdjust="spacingAndGlyphs" textLength="30" x="769.238" y="1425.9102">Color</text><line style="stroke: #A80036; stroke-width: 1.5;" x1="741.238" x2="801.238" y1="1437" y2="1437"/><line style="stroke: #A80036; stroke-width: 1.5;" x1="741.238" x2="801.238" y1="1445" y2="1445"/><!--class mastermind.types.Error--><rect fill="#FEFECE" filter="url(#fdnk08swfskkc)" height="48" id="mastermind.types.Error" style="stroke: #A80036; stroke-width: 1.5;" width="59" x="645.738" y="1405"/><ellipse cx="660.738" cy="1421" fill="#ADD1B2" rx="11" ry="11" style="stroke: #A80036; stroke-width: 1.0;"/><path d="M663.5036,1416.875 Q663.6599,1416.6563 663.8474,1416.5469 Q664.0349,1416.4375 664.2536,1416.4375 Q664.6286,1416.4375 664.863,1416.6953 Q665.0974,1416.9531 665.0974,1417.5625 L665.0974,1419.0156 Q665.0974,1419.625 664.863,1419.8906 Q664.6286,1420.1563 664.2536,1420.1563 Q663.9099,1420.1563 663.7068,1419.9531 Q663.5036,1419.7656 663.3943,1419.25 Q663.3474,1418.8906 663.1599,1418.7031 Q662.8318,1418.3281 662.2224,1418.1094 Q661.613,1417.8906 660.988,1417.8906 Q660.2224,1417.8906 659.5896,1418.2188 Q658.9568,1418.5469 658.4646,1419.2969 Q657.9724,1420.0469 657.9724,1421.0781 L657.9724,1422.1719 Q657.9724,1423.4063 658.863,1424.2266 Q659.7536,1425.0469 661.3474,1425.0469 Q662.2849,1425.0469 662.9411,1424.7969 Q663.3318,1424.6406 663.7536,1424.2031 Q664.0193,1423.9375 664.1677,1423.8594 Q664.3161,1423.7813 664.5193,1423.7813 Q664.8474,1423.7813 665.1052,1424.0391 Q665.363,1424.2969 665.363,1424.6406 Q665.363,1424.9844 665.0193,1425.3906 Q664.5193,1425.9688 663.7224,1426.2969 Q662.6443,1426.75 661.3474,1426.75 Q659.8318,1426.75 658.6286,1426.125 Q657.6443,1425.625 656.9568,1424.5547 Q656.2693,1423.4844 656.2693,1422.2031 L656.2693,1421.0469 Q656.2693,1419.7188 656.8864,1418.5703 Q657.5036,1417.4219 658.5974,1416.8047 Q659.6911,1416.1875 660.9255,1416.1875 Q661.6599,1416.1875 662.3083,1416.3516 Q662.9568,1416.5156 663.5036,1416.875 Z "/><text fill="#000000" font-family="sans-serif" font-size="12" lengthAdjust="spacingAndGlyphs" textLength="27" x="674.738" y="1425.9102">Error</text><line style="stroke: #A80036; stroke-width: 1.5;" x1="646.738" x2="703.738" y1="1437" y2="1437"/><line style="stroke: #A80036; stroke-width: 1.5;" x1="646.738" x2="703.738" y1="1445" y2="1445"/><!--link mastermind.models.Combination to mastermind.types.Color--><path d="M932.297,827.677 C947.027,863.719 962.844,908.822 970.238,951 C983.516,1026.734 987.576,1049.091 970.238,1124 C944.692,1234.381 927.444,1263.294 858.238,1353 C845.471,1369.549 828.575,1385.1191 813.07,1397.7376 " fill="none" id="mastermind.models.Combination-mastermind.types.Color" style="stroke: #A80036; stroke-width: 1.0;"/><polygon fill="#A80036" points="802.627,1405.9778,812.1702,1403.543,806.5522,1402.8806,807.2146,1397.2627,802.627,1405.9778" style="stroke: #A80036; stroke-width: 1.0;"/><line style="stroke: #A80036; stroke-width: 1.0;" x1="806.5522" x2="812.8325" y1="1402.8806" y2="1397.9252"/><polygon fill="#A80036" points="927.147,815.326,925.7641,822.4033,931.7651,826.4018,933.148,819.3245,927.147,815.326" style="stroke: #A80036; stroke-width: 1.0;"/><!--link mastermind.models.Game to mastermind.models.SecretCombination--><path d="M626.538,900.594 C660.883,933.075 694.952,965.297 721.292,990.208 " fill="none" id="mastermind.models.Game-mastermind.models.SecretCombination" style="stroke: #A80036; stroke-width: 1.0;"/><polygon fill="#A80036" points="730.993,999.383,727.2031,990.2925,727.3605,995.9472,721.7058,996.1046,730.993,999.383" style="stroke: #A80036; stroke-width: 1.0;"/><line style="stroke: #A80036; stroke-width: 1.0;" x1="727.3605" x2="721.5485" y1="995.9472" y2="990.4505"/><polygon fill="#A80036" points="616.69,891.28,618.3004,898.309,625.408,899.5259,623.7977,892.497,616.69,891.28" style="stroke: #A80036; stroke-width: 1.0;"/><!--link mastermind.models.Game to mastermind.models.ProposedCombination--><path d="M485.265,904.357 C491.581,996.876 499.452,1112.153 504.413,1184.815 " fill="none" id="mastermind.models.Game-mastermind.models.ProposedCombination" style="stroke: #A80036; stroke-width: 1.0;"/><polygon fill="#A80036" points="505.304,1197.872,508.6815,1188.6204,504.9633,1192.8836,500.7001,1189.1654,505.304,1197.872" style="stroke: #A80036; stroke-width: 1.0;"/><line style="stroke: #A80036; stroke-width: 1.0;" x1="504.9633" x2="504.4185" y1="1192.8836" y2="1184.902"/><polygon fill="#A80036" points="484.372,891.282,480.7901,897.5406,485.1896,903.2541,488.7715,896.9955,484.372,891.282" style="stroke: #A80036; stroke-width: 1.0;"/><!--link mastermind.models.Game to mastermind.models.Result--><path d="M500.51,904.247 C517.784,975.176 546.019,1058.83 591.238,1124 C611.366,1153.008 639.797,1178.645 667.557,1199.4 " fill="none" id="mastermind.models.Game-mastermind.models.Result" style="stroke: #A80036; stroke-width: 1.0;"/><polygon fill="#A80036" points="678.145,1207.113,673.2258,1198.5806,674.1036,1204.1689,668.5153,1205.0468,678.145,1207.113" style="stroke: #A80036; stroke-width: 1.0;"/><line style="stroke: #A80036; stroke-width: 1.0;" x1="674.1036" x2="667.637" y1="1204.1689" y2="1199.4585"/><polygon fill="#A80036" points="497.411,891.159,494.902,897.9196,500.1775,902.8357,502.6865,896.0752,497.411,891.159" style="stroke: #A80036; stroke-width: 1.0;"/><!--link mastermind.models.Game to mastermind.models.Memento--><path d="M385.093,891.28 C372.496,909.974 359.807,928.805 347.932,946.428 " fill="none" id="mastermind.models.Game-mastermind.models.Memento" style="stroke: #A80036; stroke-width: 1.0; stroke-dasharray: 7.0,7.0;"/><polygon fill="#A80036" points="344.931,950.881,353.2773,945.6523,347.7249,946.7344,346.6428,941.182,344.931,950.881" style="stroke: #A80036; stroke-width: 1.0;"/><!--link mastermind.models.Memento to mastermind.models.ProposedCombination--><path d="M384.5,1133.571 C403.357,1152.003 422.751,1170.96 440.46,1188.271 " fill="none" id="mastermind.models.Memento-mastermind.models.ProposedCombination" style="stroke: #A80036; stroke-width: 1.0;"/><polygon fill="#A80036" points="450.111,1197.704,446.4707,1188.5526,446.5353,1194.2091,440.8788,1194.2737,450.111,1197.704" style="stroke: #A80036; stroke-width: 1.0;"/><line style="stroke: #A80036; stroke-width: 1.0;" x1="446.5353" x2="440.8145" y1="1194.2091" y2="1188.617"/><polygon fill="#A80036" points="374.979,1124.264,376.4739,1131.3185,383.5606,1132.6518,382.0658,1125.5974,374.979,1124.264" style="stroke: #A80036; stroke-width: 1.0;"/><!--link mastermind.models.Memento to mastermind.models.Result--><path d="M473.987,1109.788 C528.028,1131.996 586.616,1157.622 639.238,1184 C648.232,1188.508 657.462,1193.433 666.616,1198.521 " fill="none" id="mastermind.models.Memento-mastermind.models.Result" style="stroke: #A80036; stroke-width: 1.0;"/><polygon fill="#A80036" points="678.146,1205.033,672.2771,1197.1238,673.7925,1202.5739,668.3425,1204.0893,678.146,1205.033" style="stroke: #A80036; stroke-width: 1.0;"/><line style="stroke: #A80036; stroke-width: 1.0;" x1="673.7925" x2="666.827" y1="1202.5739" y2="1198.64"/><polygon fill="#A80036" points="461.808,1104.809,465.8478,1110.7823,472.9154,1109.3506,468.8756,1103.3773,461.808,1104.809" style="stroke: #A80036; stroke-width: 1.0;"/><!--link mastermind.models.Combination to mastermind.models.ProposedCombination--><path d="M865.076,832.801 C851.829,854.292 834.868,875.938 814.238,891 C731.347,951.523 663.821,878.433 591.238,951 C525.42,1016.804 510.856,1129.49 508.499,1197.775 " fill="none" id="mastermind.models.Combination-mastermind.models.ProposedCombination" style="stroke: #A80036; stroke-width: 1.0;"/><polygon fill="none" points="859.08,829.185,875.115,815.332,871.219,836.161,859.08,829.185" style="stroke: #A80036; stroke-width: 1.0;"/><!--link mastermind.models.ProposedCombination to mastermind.types.Error--><path d="M565.438,1315.224 C593.83,1344.385 626.909,1378.36 649.279,1401.3372 " fill="none" id="mastermind.models.ProposedCombination-mastermind.types.Error" style="stroke: #A80036; stroke-width: 1.0; stroke-dasharray: 7.0,7.0;"/><polygon fill="#A80036" points="652.775,1404.928,649.3612,1395.6897,649.2865,1401.3461,643.6301,1401.2713,652.775,1404.928" style="stroke: #A80036; stroke-width: 1.0;"/><!--link mastermind.models.Registry to mastermind.models.Memento--><path d="M279.582,574.073 C272.449,589.651 266.304,605.899 262.238,622 C235.57,727.603 249.086,852.926 264.644,937.914 " fill="none" id="mastermind.models.Registry-mastermind.models.Memento" style="stroke: #A80036; stroke-width: 1.0;"/><polygon fill="#A80036" points="267.102,950.936,269.3631,941.3502,266.1745,946.0228,261.502,942.8342,267.102,950.936" style="stroke: #A80036; stroke-width: 1.0;"/><line style="stroke: #A80036; stroke-width: 1.0;" x1="266.1745" x2="264.691" y1="946.0228" y2="938.162"/><polygon fill="#A80036" points="285.212,562.304,279.0144,565.9904,280.0335,573.1291,286.2311,569.4427,285.212,562.304" style="stroke: #A80036; stroke-width: 1.0;"/><!--link mastermind.models.Registry to mastermind.models.Game--><path d="M392.201,574.53 C397.516,586.112 402.996,598.055 408.488,610.025 " fill="none" id="mastermind.models.Registry-mastermind.models.Game" style="stroke: #A80036; stroke-width: 1.0;"/><polygon fill="#A80036" points="413.978,621.99,413.8603,612.1418,411.8929,617.4455,406.5892,615.4781,413.978,621.99" style="stroke: #A80036; stroke-width: 1.0;"/><line style="stroke: #A80036; stroke-width: 1.0;" x1="411.8929" x2="408.5565" y1="617.4455" y2="610.1745"/><polygon fill="#A80036" points="386.589,562.299,385.4566,569.4206,391.5949,573.205,392.7273,566.0833,386.589,562.299" style="stroke: #A80036; stroke-width: 1.0;"/><!--link mastermind.models.Result to mastermind.models.Combination--><path d="M840.274,1221.812 C880.85,1200.29 926.149,1168.06 949.238,1124 C1000.117,1026.911 961.325,896.288 929.847,820.058 " fill="none" id="mastermind.models.Result-mastermind.models.Combination" style="stroke: #A80036; stroke-width: 1.0; stroke-dasharray: 7.0,7.0;"/><polygon fill="#A80036" points="927.785,815.117,927.5599,824.9633,929.7107,819.7313,934.9427,821.8821,927.785,815.117" style="stroke: #A80036; stroke-width: 1.0;"/><!--link mastermind.models.Combination to mastermind.models.SecretCombination--><path d="M864.784,833.591 C839.729,887.363 807.234,957.101 787.6,999.239 " fill="none" id="mastermind.models.Combination-mastermind.models.SecretCombination" style="stroke: #A80036; stroke-width: 1.0;"/><polygon fill="none" points="858.51,830.481,873.302,815.309,871.2,836.394,858.51,830.481" style="stroke: #A80036; stroke-width: 1.0;"/><!--link mastermind.models.SecretCombination to mastermind.models.ProposedCombination--><path d="M725.668,1075.557 C686.37,1108.23 628.357,1156.462 582.283,1194.769 " fill="none" id="mastermind.models.SecretCombination-mastermind.models.ProposedCombination" style="stroke: #A80036; stroke-width: 1.0; stroke-dasharray: 7.0,7.0;"/><polygon fill="#A80036" points="578.427,1197.976,587.9055,1195.3004,582.2726,1194.7804,582.7925,1189.1475,578.427,1197.976" style="stroke: #A80036; stroke-width: 1.0;"/><!--link mastermind.models.SecretCombination to mastermind.models.Result--><path d="M768.347,1075.804 C766.919,1103.985 764.909,1143.64 763.14,1178.531 " fill="none" id="mastermind.models.SecretCombination-mastermind.models.Result" style="stroke: #A80036; stroke-width: 1.0; stroke-dasharray: 7.0,7.0;"/><polygon fill="#A80036" points="762.881,1183.642,767.331,1174.8558,763.1338,1178.6484,759.3412,1174.4513,762.881,1183.642" style="stroke: #A80036; stroke-width: 1.0;"/><!--link mastermind.models.Session to mastermind.models.Game--><path d="M447.623,329.22 C450.98,344.91 453.961,360.74 456.238,376 C467.627,452.32 472.575,538.122 474.59,608.811 " fill="none" id="mastermind.models.Session-mastermind.models.Game" style="stroke: #A80036; stroke-width: 1.0;"/><polygon fill="#A80036" points="474.933,621.829,478.6943,612.7266,474.8011,616.8307,470.697,612.9376,474.933,621.829" style="stroke: #A80036; stroke-width: 1.0;"/><line style="stroke: #A80036; stroke-width: 1.0;" x1="474.8011" x2="474.5905" y1="616.8307" y2="608.834"/><polygon fill="#A80036" points="444.721,316.08,442.1073,322.8007,447.3057,327.7983,449.9195,321.0776,444.721,316.08" style="stroke: #A80036; stroke-width: 1.0;"/><!--link mastermind.models.Session to mastermind.models.State--><path d="M537.32,325.91 C561.6,351.87 585.991,377.94 607.131,400.54 " fill="none" id="mastermind.models.Session-mastermind.models.State" style="stroke: #A80036; stroke-width: 1.0;"/><polygon fill="#A80036" points="616.291,410.33,613.0609,401.0259,612.8741,406.6797,607.2204,406.4929,616.291,410.33" style="stroke: #A80036; stroke-width: 1.0;"/><line style="stroke: #A80036; stroke-width: 1.0;" x1="612.8741" x2="607.4105" y1="406.6797" y2="400.84"/><polygon fill="#A80036" points="528.282,316.25,529.4614,323.364,536.4818,325.0114,535.3024,317.8974,528.282,316.25" style="stroke: #A80036; stroke-width: 1.0;"/><!--link mastermind.models.Session to mastermind.models.Registry--><path d="M376.618,329.02 C373.951,340.47 371.284,351.91 368.691,363.04 " fill="none" id="mastermind.models.Session-mastermind.models.Registry" style="stroke: #A80036; stroke-width: 1.0;"/><polygon fill="#A80036" points="365.684,375.95,371.6177,368.0892,366.816,371.0798,363.8254,366.2781,365.684,375.95" style="stroke: #A80036; stroke-width: 1.0;"/><line style="stroke: #A80036; stroke-width: 1.0;" x1="366.816" x2="368.6335" y1="371.0798" y2="363.29"/><polygon fill="#A80036" points="379.592,316.25,374.3321,321.1829,376.8625,327.9355,382.1224,323.0026,379.592,316.25" style="stroke: #A80036; stroke-width: 1.0;"/><!--link mastermind.models.Session to mastermind.models.ProposedCombination--><path d="M272.905,316.23 C257.57,335.13 243.459,355.26 232.238,376 C71.4174,673.26 -104.32,851.23 95.2384,1124 C130.661,1172.417 281.958,1211.444 391.42,1234.052 " fill="none" id="mastermind.models.Session-mastermind.models.ProposedCombination" style="stroke: #A80036; stroke-width: 1.0; stroke-dasharray: 7.0,7.0;"/><polygon fill="#A80036" points="396.6,1235.116,388.5887,1229.3873,391.7022,1234.1102,386.9793,1237.2237,396.6,1235.116" style="stroke: #A80036; stroke-width: 1.0;"/><!--link mastermind.models.State to mastermind.models.StateValue--><path d="M690.202,540.366 C703.411,586.921 720.581,647.444 733.345,692.431 " fill="none" id="mastermind.models.State-mastermind.models.StateValue" style="stroke: #A80036; stroke-width: 1.0;"/><polygon fill="#A80036" points="736.904,704.977,738.2953,695.2269,735.5391,700.1669,730.5991,697.4107,736.904,704.977" style="stroke: #A80036; stroke-width: 1.0;"/><line style="stroke: #A80036; stroke-width: 1.0;" x1="735.5391" x2="733.356" y1="700.1669" y2="692.471"/><polygon fill="#A80036" points="686.63,527.775,684.4189,534.6387,689.9042,539.3197,692.1153,532.4559,686.63,527.775" style="stroke: #A80036; stroke-width: 1.0;"/><!--
@startuml
abstract class mastermind.models.Combination {
	-{static}int WIDTH
	#List<Color> colors
	#Combination()
	~{static}int getWidth()
	+List<Color> getColors()
}
mastermind.models.Combination *-down-> mastermind.types.Color

class mastermind.models.Game {
	-{static}int MAX_LONG
	-SecretCombination secretCombination
	-List<ProposedCombination> proposedCombinations
	-List<Result> results
	-int attempts
	~Game()
	~void clear()
	~void addProposedCombination(ProposedCombination proposedCombination)
	~Memento createMemento()
	~void set(Memento memento)
	~boolean isLooser()
	~boolean isWinner()
	+SecretCombination getSecretCombination()
	+ProposedCombination getProposedCombination(int position)
	+Result getResultCombination(int position)
	+int getAttempts()
}
mastermind.models.Game *-down-> mastermind.models.SecretCombination
mastermind.models.Game *-down-> mastermind.models.ProposedCombination
mastermind.models.Game *-down-> mastermind.models.Result
mastermind.models.Game ..> mastermind.models.Memento

class mastermind.models.Memento {
	-List<ProposedCombination> proposedCombinations
	-List<Result> results
	-int attempts
	~Memento(int attempts)
	~void set(ProposedCombination proposedCombination, Result result)
	~ProposedCombination getProposedCombination(int position)
	~Result getResult(int position)
	~int getSize()
	~int getAttempts()
}
mastermind.models.Memento *-down-> mastermind.models.ProposedCombination
mastermind.models.Memento *-down-> mastermind.models.Result

class mastermind.models.ProposedCombination {
	+{static}Error isValid(List<Color> colors)
	+void set(List<Color> colors)
	~boolean contains(Color color, int position)
	~boolean contains(Color color)
	~ProposedCombination copy()
}
mastermind.models.Combination <|-down- mastermind.models.ProposedCombination
mastermind.models.ProposedCombination ..> mastermind.types.Error

class mastermind.models.Registry {
	-ArrayList<Memento> mementoList
	-Game game
	-int firstPrevious
	~Registry(Game game)
	~void registry()
	~void undo(Game game)
	~void redo(Game game)
	~boolean undoable()
	~boolean redoable()
	~void reset()
}
mastermind.models.Registry *-down-> mastermind.models.Memento
mastermind.models.Registry *-down-> mastermind.models.Game

class mastermind.models.Result {
	-int blacks
	-int whites
	~Result(int blacks, int whites)
	~boolean isWinner()
	+int getBlacks()
	+int getWhites()
	~Result copy()
}
mastermind.models.Result ..> mastermind.models.Combination

class mastermind.models.SecretCombination {
	~SecretCombination()
	~Result getResult(ProposedCombination proposedCombination)
}
mastermind.models.Combination <|-down- mastermind.models.SecretCombination
mastermind.models.SecretCombination ..> mastermind.models.ProposedCombination
mastermind.models.SecretCombination ..> mastermind.models.Result

class mastermind.models.Session {
	-State state
	-Game game
	-Registry registry
	+Session()
	+void next()
	+void addProposedCombination(ProposedCombination proposedCombination)
	+boolean undoable()
	+boolean redoable()
	+void undo()
	+void redo()
	+void clearGame()
	+boolean isWinner()
	+boolean isLooser()
	+StateValue getValueState()
	+Game getGame()
}
mastermind.models.Session *-down-> mastermind.models.Game
mastermind.models.Session *-down-> mastermind.models.State
mastermind.models.Session *-down-> mastermind.models.Registry
mastermind.models.Session ..> mastermind.models.ProposedCombination

class mastermind.models.State {
	-StateValue stateValue
	~State()
	~void next()
	~void reset()
	~StateValue getValueState()
}
mastermind.models.State *-down-> mastermind.models.StateValue

enum mastermind.models.StateValue {
	INITIAL
	IN_GAME
	FINAL
	EXIT
}
@enduml

PlantUML version 1.2019.05(Sat Apr 20 18:45:36 CEST 2019)
(GPL source distribution)
Java Runtime: OpenJDK Runtime Environment
JVM: OpenJDK 64-Bit Server VM
Java Version: 1.8.0_222-b10
Operating System: Windows 10
OS Version: 10.0
Default Encoding: windows-1252
Language: es
Country: ES
--></g></svg>