<?xml version="1.0" encoding="UTF-8" standalone="no"?><svg xmlns="http://www.w3.org/2000/svg" xmlns:xlink="http://www.w3.org/1999/xlink" contentScriptType="application/ecmascript" contentStyleType="text/css" height="767px" preserveAspectRatio="none" style="width:1163px;height:767px;" version="1.1" viewBox="0 0 1163 767" width="1163px" zoomAndPan="magnify"><defs><filter height="300%" id="f1gvqo58yh9ply" width="300%" x="-1" y="-1"><feGaussianBlur result="blurOut" stdDeviation="2.0"/><feColorMatrix in="blurOut" result="blurOut2" type="matrix" values="0 0 0 0 0 0 0 0 0 0 0 0 0 0 0 0 0 0 .4 0"/><feOffset dx="4.0" dy="4.0" in="blurOut2" result="blurOut3"/><feBlend in="SourceGraphic" in2="blurOut3" mode="normal"/></filter></defs><g><!--cluster santaTecla.utils--><polygon fill="#FFFFFF" filter="url(#f1gvqo58yh9ply)" points="22,24,137,24,144,47.6094,705,47.6094,705,755,22,755,22,24" style="stroke: #000000; stroke-width: 1.5;"/><line style="stroke: #000000; stroke-width: 1.5;" x1="22" x2="144" y1="47.6094" y2="47.6094"/><text fill="#000000" font-family="sans-serif" font-size="14" font-weight="bold" lengthAdjust="spacingAndGlyphs" textLength="109" x="26" y="40.5332">santaTecla.utils</text><!--cluster java.io--><polygon fill="#FFFFFF" filter="url(#f1gvqo58yh9ply)" points="865,620.5,917,620.5,924,644.1094,1141,644.1094,1141,720.5,865,720.5,865,620.5" style="stroke: #000000; stroke-width: 1.5;"/><line style="stroke: #000000; stroke-width: 1.5;" x1="865" x2="924" y1="644.1094" y2="644.1094"/><text fill="#000000" font-family="sans-serif" font-size="14" font-weight="bold" lengthAdjust="spacingAndGlyphs" textLength="46" x="869" y="637.0332">java.io</text><!--cluster java.util--><polygon fill="#FFFFFF" filter="url(#f1gvqo58yh9ply)" points="729,620.5,790,620.5,797,644.1094,841,644.1094,841,720.5,729,720.5,729,620.5" style="stroke: #000000; stroke-width: 1.5;"/><line style="stroke: #000000; stroke-width: 1.5;" x1="729" x2="797" y1="644.1094" y2="644.1094"/><text fill="#000000" font-family="sans-serif" font-size="14" font-weight="bold" lengthAdjust="spacingAndGlyphs" textLength="55" x="733" y="637.0332">java.util</text><!--cluster java.net--><polygon fill="#FFFFFF" filter="url(#f1gvqo58yh9ply)" points="850,409,912,409,919,432.6094,1091,432.6094,1091,509,850,509,850,409" style="stroke: #000000; stroke-width: 1.5;"/><line style="stroke: #000000; stroke-width: 1.5;" x1="850" x2="919" y1="432.6094" y2="432.6094"/><text fill="#000000" font-family="sans-serif" font-size="14" font-weight="bold" lengthAdjust="spacingAndGlyphs" textLength="56" x="854" y="425.5332">java.net</text><!--class santaTecla.utils.ClosedInterval--><rect fill="#FEFECE" filter="url(#f1gvqo58yh9ply)" height="103.3438" id="santaTecla.utils.ClosedInterval" style="stroke: #A80036; stroke-width: 1.5;" width="130" x="559" y="136.5"/><ellipse cx="582.55" cy="152.5" fill="#ADD1B2" rx="11" ry="11" style="stroke: #A80036; stroke-width: 1.0;"/><path d="M585.3156,148.375 Q585.4719,148.1563 585.6594,148.0469 Q585.8469,147.9375 586.0656,147.9375 Q586.4406,147.9375 586.675,148.1953 Q586.9094,148.4531 586.9094,149.0625 L586.9094,150.5156 Q586.9094,151.125 586.675,151.3906 Q586.4406,151.6563 586.0656,151.6563 Q585.7219,151.6563 585.5188,151.4531 Q585.3156,151.2656 585.2063,150.75 Q585.1594,150.3906 584.9719,150.2031 Q584.6438,149.8281 584.0344,149.6094 Q583.425,149.3906 582.8,149.3906 Q582.0344,149.3906 581.4016,149.7188 Q580.7688,150.0469 580.2766,150.7969 Q579.7844,151.5469 579.7844,152.5781 L579.7844,153.6719 Q579.7844,154.9063 580.675,155.7266 Q581.5656,156.5469 583.1594,156.5469 Q584.0969,156.5469 584.7531,156.2969 Q585.1438,156.1406 585.5656,155.7031 Q585.8313,155.4375 585.9797,155.3594 Q586.1281,155.2813 586.3313,155.2813 Q586.6594,155.2813 586.9172,155.5391 Q587.175,155.7969 587.175,156.1406 Q587.175,156.4844 586.8313,156.8906 Q586.3313,157.4688 585.5344,157.7969 Q584.4563,158.25 583.1594,158.25 Q581.6438,158.25 580.4406,157.625 Q579.4563,157.125 578.7688,156.0547 Q578.0813,154.9844 578.0813,153.7031 L578.0813,152.5469 Q578.0813,151.2188 578.6984,150.0703 Q579.3156,148.9219 580.4094,148.3047 Q581.5031,147.6875 582.7375,147.6875 Q583.4719,147.6875 584.1203,147.8516 Q584.7688,148.0156 585.3156,148.375 Z "/><text fill="#000000" font-family="sans-serif" font-size="12" lengthAdjust="spacingAndGlyphs" textLength="79" x="598.45" y="157.4102">ClosedInterval</text><line style="stroke: #A80036; stroke-width: 1.5;" x1="560" x2="688" y1="168.5" y2="168.5"/><rect fill="none" height="6" style="stroke: #C82930; stroke-width: 1.0;" width="6" x="567" y="177.918"/><text fill="#000000" font-family="sans-serif" font-size="11" lengthAdjust="spacingAndGlyphs" textLength="33" x="579" y="183.9189">min: int</text><rect fill="none" height="6" style="stroke: #C82930; stroke-width: 1.0;" width="6" x="567" y="191.7539"/><text fill="#000000" font-family="sans-serif" font-size="11" lengthAdjust="spacingAndGlyphs" textLength="37" x="579" y="197.7549">max: int</text><line style="stroke: #A80036; stroke-width: 1.5;" x1="560" x2="688" y1="204.1719" y2="204.1719"/><ellipse cx="570" cy="216.5898" fill="#84BE84" rx="3" ry="3" style="stroke: #038048; stroke-width: 1.0;"/><text fill="#000000" font-family="sans-serif" font-size="11" lengthAdjust="spacingAndGlyphs" textLength="104" x="579" y="219.5908">ClosedInterval(int, int)</text><ellipse cx="570" cy="230.4258" fill="#84BE84" rx="3" ry="3" style="stroke: #038048; stroke-width: 1.0;"/><text fill="#000000" font-family="sans-serif" font-size="11" lengthAdjust="spacingAndGlyphs" textLength="103" x="579" y="233.4268">includes(int): boolean</text><!--class santaTecla.utils.Command--><rect fill="#FEFECE" filter="url(#f1gvqo58yh9ply)" height="117.1797" id="santaTecla.utils.Command" style="stroke: #A80036; stroke-width: 1.5;" width="119" x="76.5" y="622"/><ellipse cx="104.1" cy="638" fill="#ADD1B2" rx="11" ry="11" style="stroke: #A80036; stroke-width: 1.0;"/><path d="M106.8656,633.875 Q107.0219,633.6563 107.2094,633.5469 Q107.3969,633.4375 107.6156,633.4375 Q107.9906,633.4375 108.225,633.6953 Q108.4594,633.9531 108.4594,634.5625 L108.4594,636.0156 Q108.4594,636.625 108.225,636.8906 Q107.9906,637.1563 107.6156,637.1563 Q107.2719,637.1563 107.0688,636.9531 Q106.8656,636.7656 106.7563,636.25 Q106.7094,635.8906 106.5219,635.7031 Q106.1938,635.3281 105.5844,635.1094 Q104.975,634.8906 104.35,634.8906 Q103.5844,634.8906 102.9516,635.2188 Q102.3188,635.5469 101.8266,636.2969 Q101.3344,637.0469 101.3344,638.0781 L101.3344,639.1719 Q101.3344,640.4063 102.225,641.2266 Q103.1156,642.0469 104.7094,642.0469 Q105.6469,642.0469 106.3031,641.7969 Q106.6938,641.6406 107.1156,641.2031 Q107.3813,640.9375 107.5297,640.8594 Q107.6781,640.7813 107.8813,640.7813 Q108.2094,640.7813 108.4672,641.0391 Q108.725,641.2969 108.725,641.6406 Q108.725,641.9844 108.3813,642.3906 Q107.8813,642.9688 107.0844,643.2969 Q106.0063,643.75 104.7094,643.75 Q103.1938,643.75 101.9906,643.125 Q101.0063,642.625 100.3188,641.5547 Q99.6313,640.4844 99.6313,639.2031 L99.6313,638.0469 Q99.6313,636.7188 100.2484,635.5703 Q100.8656,634.4219 101.9594,633.8047 Q103.0531,633.1875 104.2875,633.1875 Q105.0219,633.1875 105.6703,633.3516 Q106.3188,633.5156 106.8656,633.875 Z "/><text fill="#000000" font-family="sans-serif" font-size="12" lengthAdjust="spacingAndGlyphs" textLength="59" x="120.9" y="642.9102">Command</text><line style="stroke: #A80036; stroke-width: 1.5;" x1="77.5" x2="194.5" y1="654" y2="654"/><polygon fill="none" points="87.5,661.418,91.5,665.418,87.5,669.418,83.5,665.418" style="stroke: #B38D22; stroke-width: 1.0;"/><text fill="#000000" font-family="sans-serif" font-size="11" lengthAdjust="spacingAndGlyphs" textLength="50" x="96.5" y="669.4189">title: String</text><line style="stroke: #A80036; stroke-width: 1.5;" x1="77.5" x2="194.5" y1="675.8359" y2="675.8359"/><polygon fill="#FFFF44" points="87.5,683.2539,91.5,687.2539,87.5,691.2539,83.5,687.2539" style="stroke: #B38D22; stroke-width: 1.0;"/><text fill="#000000" font-family="sans-serif" font-size="11" lengthAdjust="spacingAndGlyphs" textLength="83" x="96.5" y="691.2549">Command(String)</text><polygon fill="#FFFF44" points="87.5,697.0898,91.5,701.0898,87.5,705.0898,83.5,701.0898" style="stroke: #B38D22; stroke-width: 1.0;"/><text fill="#000000" font-family="sans-serif" font-size="11" font-style="italic" lengthAdjust="spacingAndGlyphs" textLength="73" x="96.5" y="705.0908">execute(): void</text><polygon fill="#FFFF44" points="87.5,710.9258,91.5,714.9258,87.5,718.9258,83.5,714.9258" style="stroke: #B38D22; stroke-width: 1.0;"/><text fill="#000000" font-family="sans-serif" font-size="11" font-style="italic" lengthAdjust="spacingAndGlyphs" textLength="93" x="96.5" y="718.9268">isActive(): boolean</text><polygon fill="#4177AF" points="87.5,725.7617,83.5,731.7617,91.5,731.7617" style="stroke: #1963A0; stroke-width: 1.0;"/><text fill="#000000" font-family="sans-serif" font-size="11" lengthAdjust="spacingAndGlyphs" textLength="76" x="96.5" y="732.7627">getTitle(): String</text><!--class santaTecla.utils.WithConsoleView--><rect fill="#FEFECE" filter="url(#f1gvqo58yh9ply)" height="75.6719" id="santaTecla.utils.WithConsoleView" style="stroke: #A80036; stroke-width: 1.5;" width="129" x="90.5" y="150"/><ellipse cx="105.5" cy="166" fill="#ADD1B2" rx="11" ry="11" style="stroke: #A80036; stroke-width: 1.0;"/><path d="M108.2656,161.875 Q108.4219,161.6563 108.6094,161.5469 Q108.7969,161.4375 109.0156,161.4375 Q109.3906,161.4375 109.625,161.6953 Q109.8594,161.9531 109.8594,162.5625 L109.8594,164.0156 Q109.8594,164.625 109.625,164.8906 Q109.3906,165.1563 109.0156,165.1563 Q108.6719,165.1563 108.4688,164.9531 Q108.2656,164.7656 108.1563,164.25 Q108.1094,163.8906 107.9219,163.7031 Q107.5938,163.3281 106.9844,163.1094 Q106.375,162.8906 105.75,162.8906 Q104.9844,162.8906 104.3516,163.2188 Q103.7188,163.5469 103.2266,164.2969 Q102.7344,165.0469 102.7344,166.0781 L102.7344,167.1719 Q102.7344,168.4063 103.625,169.2266 Q104.5156,170.0469 106.1094,170.0469 Q107.0469,170.0469 107.7031,169.7969 Q108.0938,169.6406 108.5156,169.2031 Q108.7813,168.9375 108.9297,168.8594 Q109.0781,168.7813 109.2813,168.7813 Q109.6094,168.7813 109.8672,169.0391 Q110.125,169.2969 110.125,169.6406 Q110.125,169.9844 109.7813,170.3906 Q109.2813,170.9688 108.4844,171.2969 Q107.4063,171.75 106.1094,171.75 Q104.5938,171.75 103.3906,171.125 Q102.4063,170.625 101.7188,169.5547 Q101.0313,168.4844 101.0313,167.2031 L101.0313,166.0469 Q101.0313,164.7188 101.6484,163.5703 Q102.2656,162.4219 103.3594,161.8047 Q104.4531,161.1875 105.6875,161.1875 Q106.4219,161.1875 107.0703,161.3516 Q107.7188,161.5156 108.2656,161.875 Z "/><text fill="#000000" font-family="sans-serif" font-size="12" lengthAdjust="spacingAndGlyphs" textLength="97" x="119.5" y="170.9102">WithConsoleView</text><line style="stroke: #A80036; stroke-width: 1.5;" x1="91.5" x2="218.5" y1="182" y2="182"/><polygon fill="none" points="101.5,189.418,105.5,193.418,101.5,197.418,97.5,193.418" style="stroke: #B38D22; stroke-width: 1.0;"/><text fill="#000000" font-family="sans-serif" font-size="11" lengthAdjust="spacingAndGlyphs" textLength="83" x="110.5" y="197.4189">console: Console</text><line style="stroke: #A80036; stroke-width: 1.5;" x1="91.5" x2="218.5" y1="203.8359" y2="203.8359"/><polygon fill="#FFFF44" points="101.5,211.2539,105.5,215.2539,101.5,219.2539,97.5,215.2539" style="stroke: #B38D22; stroke-width: 1.0;"/><text fill="#000000" font-family="sans-serif" font-size="11" lengthAdjust="spacingAndGlyphs" textLength="94" x="110.5" y="219.2549">WithConsoleView()</text><!--class santaTecla.utils.Console--><rect fill="#FEFECE" filter="url(#f1gvqo58yh9ply)" height="186.3594" id="santaTecla.utils.Console" style="stroke: #A80036; stroke-width: 1.5;" width="187" x="309.5" y="376"/><ellipse cx="375.25" cy="392" fill="#ADD1B2" rx="11" ry="11" style="stroke: #A80036; stroke-width: 1.0;"/><path d="M378.0156,387.875 Q378.1719,387.6563 378.3594,387.5469 Q378.5469,387.4375 378.7656,387.4375 Q379.1406,387.4375 379.375,387.6953 Q379.6094,387.9531 379.6094,388.5625 L379.6094,390.0156 Q379.6094,390.625 379.375,390.8906 Q379.1406,391.1563 378.7656,391.1563 Q378.4219,391.1563 378.2188,390.9531 Q378.0156,390.7656 377.9063,390.25 Q377.8594,389.8906 377.6719,389.7031 Q377.3438,389.3281 376.7344,389.1094 Q376.125,388.8906 375.5,388.8906 Q374.7344,388.8906 374.1016,389.2188 Q373.4688,389.5469 372.9766,390.2969 Q372.4844,391.0469 372.4844,392.0781 L372.4844,393.1719 Q372.4844,394.4063 373.375,395.2266 Q374.2656,396.0469 375.8594,396.0469 Q376.7969,396.0469 377.4531,395.7969 Q377.8438,395.6406 378.2656,395.2031 Q378.5313,394.9375 378.6797,394.8594 Q378.8281,394.7813 379.0313,394.7813 Q379.3594,394.7813 379.6172,395.0391 Q379.875,395.2969 379.875,395.6406 Q379.875,395.9844 379.5313,396.3906 Q379.0313,396.9688 378.2344,397.2969 Q377.1563,397.75 375.8594,397.75 Q374.3438,397.75 373.1406,397.125 Q372.1563,396.625 371.4688,395.5547 Q370.7813,394.4844 370.7813,393.2031 L370.7813,392.0469 Q370.7813,390.7188 371.3984,389.5703 Q372.0156,388.4219 373.1094,387.8047 Q374.2031,387.1875 375.4375,387.1875 Q376.1719,387.1875 376.8203,387.3516 Q377.4688,387.5156 378.0156,387.875 Z "/><text fill="#000000" font-family="sans-serif" font-size="12" lengthAdjust="spacingAndGlyphs" textLength="47" x="395.75" y="396.9102">Console</text><line style="stroke: #A80036; stroke-width: 1.5;" x1="310.5" x2="495.5" y1="408" y2="408"/><rect fill="none" height="6" style="stroke: #C82930; stroke-width: 1.0;" width="6" x="317.5" y="417.418"/><text fill="#000000" font-family="sans-serif" font-size="11" lengthAdjust="spacingAndGlyphs" textLength="161" x="329.5" y="423.4189">bufferedReader: BufferedReader</text><line style="stroke: #A80036; stroke-width: 1.5;" x1="310.5" x2="495.5" y1="429.8359" y2="429.8359"/><ellipse cx="320.5" cy="442.2539" fill="#84BE84" rx="3" ry="3" style="stroke: #038048; stroke-width: 1.0;"/><text fill="#000000" font-family="sans-serif" font-size="11" lengthAdjust="spacingAndGlyphs" textLength="47" x="329.5" y="445.2549">Console()</text><ellipse cx="320.5" cy="456.0898" fill="#84BE84" rx="3" ry="3" style="stroke: #038048; stroke-width: 1.0;"/><text fill="#000000" font-family="sans-serif" font-size="11" lengthAdjust="spacingAndGlyphs" textLength="81" x="329.5" y="459.0908">write(char): void</text><ellipse cx="320.5" cy="469.9258" fill="#84BE84" rx="3" ry="3" style="stroke: #038048; stroke-width: 1.0;"/><text fill="#000000" font-family="sans-serif" font-size="11" lengthAdjust="spacingAndGlyphs" textLength="87" x="329.5" y="472.9268">write(String): void</text><ellipse cx="320.5" cy="483.7617" fill="#84BE84" rx="3" ry="3" style="stroke: #038048; stroke-width: 1.0;"/><text fill="#000000" font-family="sans-serif" font-size="11" lengthAdjust="spacingAndGlyphs" textLength="86" x="329.5" y="486.7627">readInt(String): int</text><ellipse cx="320.5" cy="497.5977" fill="#84BE84" rx="3" ry="3" style="stroke: #038048; stroke-width: 1.0;"/><text fill="#000000" font-family="sans-serif" font-size="11" lengthAdjust="spacingAndGlyphs" textLength="109" x="329.5" y="500.5986">readChar(String): char</text><ellipse cx="320.5" cy="511.4336" fill="#84BE84" rx="3" ry="3" style="stroke: #038048; stroke-width: 1.0;"/><text fill="#000000" font-family="sans-serif" font-size="11" lengthAdjust="spacingAndGlyphs" textLength="120" x="329.5" y="514.4346">readString(String): String</text><ellipse cx="320.5" cy="525.2695" fill="#84BE84" rx="3" ry="3" style="stroke: #038048; stroke-width: 1.0;"/><text fill="#000000" font-family="sans-serif" font-size="11" lengthAdjust="spacingAndGlyphs" textLength="95" x="329.5" y="528.2705">writeln(String): void</text><ellipse cx="320.5" cy="539.1055" fill="#84BE84" rx="3" ry="3" style="stroke: #038048; stroke-width: 1.0;"/><text fill="#000000" font-family="sans-serif" font-size="11" lengthAdjust="spacingAndGlyphs" textLength="67" x="329.5" y="542.1064">writeln(): void</text><rect fill="#F24D5C" height="6" style="stroke: #C82930; stroke-width: 1.0;" width="6" x="317.5" y="549.9414"/><text fill="#000000" font-family="sans-serif" font-size="11" lengthAdjust="spacingAndGlyphs" textLength="111" x="329.5" y="555.9424">writeError(String): void</text><!--class santaTecla.utils.Menu--><rect fill="#FEFECE" filter="url(#f1gvqo58yh9ply)" height="117.1797" id="santaTecla.utils.Menu" style="stroke: #A80036; stroke-width: 1.5;" width="199" x="75.5" y="410.5"/><ellipse cx="155.75" cy="426.5" fill="#ADD1B2" rx="11" ry="11" style="stroke: #A80036; stroke-width: 1.0;"/><path d="M158.5156,422.375 Q158.6719,422.1563 158.8594,422.0469 Q159.0469,421.9375 159.2656,421.9375 Q159.6406,421.9375 159.875,422.1953 Q160.1094,422.4531 160.1094,423.0625 L160.1094,424.5156 Q160.1094,425.125 159.875,425.3906 Q159.6406,425.6563 159.2656,425.6563 Q158.9219,425.6563 158.7188,425.4531 Q158.5156,425.2656 158.4063,424.75 Q158.3594,424.3906 158.1719,424.2031 Q157.8438,423.8281 157.2344,423.6094 Q156.625,423.3906 156,423.3906 Q155.2344,423.3906 154.6016,423.7188 Q153.9688,424.0469 153.4766,424.7969 Q152.9844,425.5469 152.9844,426.5781 L152.9844,427.6719 Q152.9844,428.9063 153.875,429.7266 Q154.7656,430.5469 156.3594,430.5469 Q157.2969,430.5469 157.9531,430.2969 Q158.3438,430.1406 158.7656,429.7031 Q159.0313,429.4375 159.1797,429.3594 Q159.3281,429.2813 159.5313,429.2813 Q159.8594,429.2813 160.1172,429.5391 Q160.375,429.7969 160.375,430.1406 Q160.375,430.4844 160.0313,430.8906 Q159.5313,431.4688 158.7344,431.7969 Q157.6563,432.25 156.3594,432.25 Q154.8438,432.25 153.6406,431.625 Q152.6563,431.125 151.9688,430.0547 Q151.2813,428.9844 151.2813,427.7031 L151.2813,426.5469 Q151.2813,425.2188 151.8984,424.0703 Q152.5156,422.9219 153.6094,422.3047 Q154.7031,421.6875 155.9375,421.6875 Q156.6719,421.6875 157.3203,421.8516 Q157.9688,422.0156 158.5156,422.375 Z "/><text fill="#000000" font-family="sans-serif" font-size="12" lengthAdjust="spacingAndGlyphs" textLength="30" x="176.25" y="431.4102">Menu</text><line style="stroke: #A80036; stroke-width: 1.5;" x1="76.5" x2="273.5" y1="442.5" y2="442.5"/><rect fill="none" height="6" style="stroke: #C82930; stroke-width: 1.0;" width="6" x="83.5" y="451.918"/><text fill="#000000" font-family="sans-serif" font-size="11" lengthAdjust="spacingAndGlyphs" text-decoration="underline" textLength="68" x="95.5" y="457.9189">String OPTION</text><rect fill="none" height="6" style="stroke: #C82930; stroke-width: 1.0;" width="6" x="83.5" y="465.7539"/><text fill="#000000" font-family="sans-serif" font-size="11" lengthAdjust="spacingAndGlyphs" textLength="173" x="95.5" y="471.7549">commandList: ArrayList&lt;Command&gt;</text><line style="stroke: #A80036; stroke-width: 1.5;" x1="76.5" x2="273.5" y1="478.1719" y2="478.1719"/><ellipse cx="86.5" cy="490.5898" fill="#84BE84" rx="3" ry="3" style="stroke: #038048; stroke-width: 1.0;"/><text fill="#000000" font-family="sans-serif" font-size="11" lengthAdjust="spacingAndGlyphs" textLength="34" x="95.5" y="493.5908">Menu()</text><ellipse cx="86.5" cy="504.4258" fill="#84BE84" rx="3" ry="3" style="stroke: #038048; stroke-width: 1.0;"/><text fill="#000000" font-family="sans-serif" font-size="11" lengthAdjust="spacingAndGlyphs" textLength="73" x="95.5" y="507.4268">execute(): void</text><polygon fill="#FFFF44" points="86.5,513.2617,90.5,517.2617,86.5,521.2617,82.5,517.2617" style="stroke: #B38D22; stroke-width: 1.0;"/><text fill="#000000" font-family="sans-serif" font-size="11" lengthAdjust="spacingAndGlyphs" textLength="146" x="95.5" y="521.2627">addCommand(Command): void</text><!--class santaTecla.utils.TCPIP--><rect fill="#FEFECE" filter="url(#f1gvqo58yh9ply)" height="255.5391" id="santaTecla.utils.TCPIP" style="stroke: #A80036; stroke-width: 1.5;" width="269" x="254.5" y="60"/><ellipse cx="367.25" cy="76" fill="#ADD1B2" rx="11" ry="11" style="stroke: #A80036; stroke-width: 1.0;"/><path d="M370.0156,71.875 Q370.1719,71.6563 370.3594,71.5469 Q370.5469,71.4375 370.7656,71.4375 Q371.1406,71.4375 371.375,71.6953 Q371.6094,71.9531 371.6094,72.5625 L371.6094,74.0156 Q371.6094,74.625 371.375,74.8906 Q371.1406,75.1563 370.7656,75.1563 Q370.4219,75.1563 370.2188,74.9531 Q370.0156,74.7656 369.9063,74.25 Q369.8594,73.8906 369.6719,73.7031 Q369.3438,73.3281 368.7344,73.1094 Q368.125,72.8906 367.5,72.8906 Q366.7344,72.8906 366.1016,73.2188 Q365.4688,73.5469 364.9766,74.2969 Q364.4844,75.0469 364.4844,76.0781 L364.4844,77.1719 Q364.4844,78.4063 365.375,79.2266 Q366.2656,80.0469 367.8594,80.0469 Q368.7969,80.0469 369.4531,79.7969 Q369.8438,79.6406 370.2656,79.2031 Q370.5313,78.9375 370.6797,78.8594 Q370.8281,78.7813 371.0313,78.7813 Q371.3594,78.7813 371.6172,79.0391 Q371.875,79.2969 371.875,79.6406 Q371.875,79.9844 371.5313,80.3906 Q371.0313,80.9688 370.2344,81.2969 Q369.1563,81.75 367.8594,81.75 Q366.3438,81.75 365.1406,81.125 Q364.1563,80.625 363.4688,79.5547 Q362.7813,78.4844 362.7813,77.2031 L362.7813,76.0469 Q362.7813,74.7188 363.3984,73.5703 Q364.0156,72.4219 365.1094,71.8047 Q366.2031,71.1875 367.4375,71.1875 Q368.1719,71.1875 368.8203,71.3516 Q369.4688,71.5156 370.0156,71.875 Z "/><text fill="#000000" font-family="sans-serif" font-size="12" lengthAdjust="spacingAndGlyphs" textLength="35" x="387.75" y="80.9102">TCPIP</text><line style="stroke: #A80036; stroke-width: 1.5;" x1="255.5" x2="522.5" y1="92" y2="92"/><rect fill="none" height="6" style="stroke: #C82930; stroke-width: 1.0;" width="6" x="262.5" y="101.418"/><text fill="#000000" font-family="sans-serif" font-size="11" lengthAdjust="spacingAndGlyphs" textLength="134" x="274.5" y="107.4189">ServerSocket serverSocket</text><rect fill="none" height="6" style="stroke: #C82930; stroke-width: 1.0;" width="6" x="262.5" y="115.2539"/><text fill="#000000" font-family="sans-serif" font-size="11" lengthAdjust="spacingAndGlyphs" textLength="68" x="274.5" y="121.2549">Socket socket</text><rect fill="none" height="6" style="stroke: #C82930; stroke-width: 1.0;" width="6" x="262.5" y="129.0898"/><text fill="#000000" font-family="sans-serif" font-size="11" lengthAdjust="spacingAndGlyphs" textLength="68" x="274.5" y="135.0908">PrintWriter out</text><rect fill="none" height="6" style="stroke: #C82930; stroke-width: 1.0;" width="6" x="262.5" y="142.9258"/><text fill="#000000" font-family="sans-serif" font-size="11" lengthAdjust="spacingAndGlyphs" textLength="89" x="274.5" y="148.9268">BufferedReader in</text><line style="stroke: #A80036; stroke-width: 1.5;" x1="255.5" x2="522.5" y1="155.3438" y2="155.3438"/><ellipse cx="265.5" cy="167.7617" fill="#84BE84" rx="3" ry="3" style="stroke: #038048; stroke-width: 1.0;"/><text fill="#000000" font-family="sans-serif" font-size="11" lengthAdjust="spacingAndGlyphs" textLength="103" x="274.5" y="170.7627">TCPIP(Socket socket)</text><ellipse cx="265.5" cy="181.5977" fill="#84BE84" rx="3" ry="3" style="stroke: #038048; stroke-width: 1.0;"/><text fill="#000000" font-family="sans-serif" font-size="11" lengthAdjust="spacingAndGlyphs" textLength="243" x="274.5" y="184.5986">TCPIP(ServerSocket serverSocket, Socket socket)</text><ellipse cx="265.5" cy="195.4336" fill="#84BE84" rx="3" ry="3" style="stroke: #038048; stroke-width: 1.0;"/><text fill="#000000" font-family="sans-serif" font-size="11" lengthAdjust="spacingAndGlyphs" text-decoration="underline" textLength="128" x="274.5" y="198.4346">TCPIP createClientSocket()</text><ellipse cx="265.5" cy="209.2695" fill="#84BE84" rx="3" ry="3" style="stroke: #038048; stroke-width: 1.0;"/><text fill="#000000" font-family="sans-serif" font-size="11" lengthAdjust="spacingAndGlyphs" text-decoration="underline" textLength="135" x="274.5" y="212.2705">TCPIP createServerSocket()</text><ellipse cx="265.5" cy="223.1055" fill="#84BE84" rx="3" ry="3" style="stroke: #038048; stroke-width: 1.0;"/><text fill="#000000" font-family="sans-serif" font-size="11" lengthAdjust="spacingAndGlyphs" textLength="112" x="274.5" y="226.1064">void send(String value)</text><ellipse cx="265.5" cy="236.9414" fill="#84BE84" rx="3" ry="3" style="stroke: #038048; stroke-width: 1.0;"/><text fill="#000000" font-family="sans-serif" font-size="11" lengthAdjust="spacingAndGlyphs" textLength="95" x="274.5" y="239.9424">void send(int value)</text><ellipse cx="265.5" cy="250.7773" fill="#84BE84" rx="3" ry="3" style="stroke: #038048; stroke-width: 1.0;"/><text fill="#000000" font-family="sans-serif" font-size="11" lengthAdjust="spacingAndGlyphs" textLength="122" x="274.5" y="253.7783">void send(boolean value)</text><ellipse cx="265.5" cy="264.6133" fill="#84BE84" rx="3" ry="3" style="stroke: #038048; stroke-width: 1.0;"/><text fill="#000000" font-family="sans-serif" font-size="11" lengthAdjust="spacingAndGlyphs" textLength="95" x="274.5" y="267.6143">String receiveLine()</text><ellipse cx="265.5" cy="278.4492" fill="#84BE84" rx="3" ry="3" style="stroke: #038048; stroke-width: 1.0;"/><text fill="#000000" font-family="sans-serif" font-size="11" lengthAdjust="spacingAndGlyphs" textLength="124" x="274.5" y="281.4502">boolean receiveBoolean()</text><ellipse cx="265.5" cy="292.2852" fill="#84BE84" rx="3" ry="3" style="stroke: #038048; stroke-width: 1.0;"/><text fill="#000000" font-family="sans-serif" font-size="11" lengthAdjust="spacingAndGlyphs" textLength="69" x="274.5" y="295.2861">int receiveInt()</text><ellipse cx="265.5" cy="306.1211" fill="#84BE84" rx="3" ry="3" style="stroke: #038048; stroke-width: 1.0;"/><text fill="#000000" font-family="sans-serif" font-size="11" lengthAdjust="spacingAndGlyphs" textLength="57" x="274.5" y="309.1221">void close()</text><!--class santaTecla.utils.YesNoDialog--><rect fill="#FEFECE" filter="url(#f1gvqo58yh9ply)" height="158.6875" id="santaTecla.utils.YesNoDialog" style="stroke: #A80036; stroke-width: 1.5;" width="157" x="531.5" y="389.5"/><ellipse cx="569.9" cy="405.5" fill="#ADD1B2" rx="11" ry="11" style="stroke: #A80036; stroke-width: 1.0;"/><path d="M572.6656,401.375 Q572.8219,401.1563 573.0094,401.0469 Q573.1969,400.9375 573.4156,400.9375 Q573.7906,400.9375 574.025,401.1953 Q574.2594,401.4531 574.2594,402.0625 L574.2594,403.5156 Q574.2594,404.125 574.025,404.3906 Q573.7906,404.6563 573.4156,404.6563 Q573.0719,404.6563 572.8688,404.4531 Q572.6656,404.2656 572.5563,403.75 Q572.5094,403.3906 572.3219,403.2031 Q571.9938,402.8281 571.3844,402.6094 Q570.775,402.3906 570.15,402.3906 Q569.3844,402.3906 568.7516,402.7188 Q568.1188,403.0469 567.6266,403.7969 Q567.1344,404.5469 567.1344,405.5781 L567.1344,406.6719 Q567.1344,407.9063 568.025,408.7266 Q568.9156,409.5469 570.5094,409.5469 Q571.4469,409.5469 572.1031,409.2969 Q572.4938,409.1406 572.9156,408.7031 Q573.1813,408.4375 573.3297,408.3594 Q573.4781,408.2813 573.6813,408.2813 Q574.0094,408.2813 574.2672,408.5391 Q574.525,408.7969 574.525,409.1406 Q574.525,409.4844 574.1813,409.8906 Q573.6813,410.4688 572.8844,410.7969 Q571.8063,411.25 570.5094,411.25 Q568.9938,411.25 567.7906,410.625 Q566.8063,410.125 566.1188,409.0547 Q565.4313,407.9844 565.4313,406.7031 L565.4313,405.5469 Q565.4313,404.2188 566.0484,403.0703 Q566.6656,401.9219 567.7594,401.3047 Q568.8531,400.6875 570.0875,400.6875 Q570.8219,400.6875 571.4703,400.8516 Q572.1188,401.0156 572.6656,401.375 Z "/><text fill="#000000" font-family="sans-serif" font-size="12" lengthAdjust="spacingAndGlyphs" textLength="73" x="589.1" y="410.4102">YesNoDialog</text><line style="stroke: #A80036; stroke-width: 1.5;" x1="532.5" x2="687.5" y1="421.5" y2="421.5"/><rect fill="none" height="6" style="stroke: #C82930; stroke-width: 1.0;" width="6" x="539.5" y="430.918"/><text fill="#000000" font-family="sans-serif" font-size="11" lengthAdjust="spacingAndGlyphs" text-decoration="underline" textLength="89" x="551.5" y="436.9189">AFIRMATIVE: char</text><rect fill="none" height="6" style="stroke: #C82930; stroke-width: 1.0;" width="6" x="539.5" y="444.7539"/><text fill="#000000" font-family="sans-serif" font-size="11" lengthAdjust="spacingAndGlyphs" text-decoration="underline" textLength="79" x="551.5" y="450.7549">NEGATIVE: char</text><rect fill="none" height="6" style="stroke: #C82930; stroke-width: 1.0;" width="6" x="539.5" y="458.5898"/><text fill="#000000" font-family="sans-serif" font-size="11" lengthAdjust="spacingAndGlyphs" text-decoration="underline" textLength="85" x="551.5" y="464.5908">QUESTION: String</text><rect fill="none" height="6" style="stroke: #C82930; stroke-width: 1.0;" width="6" x="539.5" y="472.4258"/><text fill="#000000" font-family="sans-serif" font-size="11" lengthAdjust="spacingAndGlyphs" text-decoration="underline" textLength="84" x="551.5" y="478.4268">MESSAGE: String</text><line style="stroke: #A80036; stroke-width: 1.5;" x1="532.5" x2="687.5" y1="484.8438" y2="484.8438"/><ellipse cx="542.5" cy="497.2617" fill="#84BE84" rx="3" ry="3" style="stroke: #038048; stroke-width: 1.0;"/><text fill="#000000" font-family="sans-serif" font-size="11" lengthAdjust="spacingAndGlyphs" textLength="70" x="551.5" y="500.2627">YesNoDialog()</text><ellipse cx="542.5" cy="511.0977" fill="#84BE84" rx="3" ry="3" style="stroke: #038048; stroke-width: 1.0;"/><text fill="#000000" font-family="sans-serif" font-size="11" lengthAdjust="spacingAndGlyphs" textLength="102" x="551.5" y="514.0986">read(String): boolean</text><rect fill="#F24D5C" height="6" style="stroke: #C82930; stroke-width: 1.0;" width="6" x="539.5" y="521.9336"/><text fill="#000000" font-family="sans-serif" font-size="11" lengthAdjust="spacingAndGlyphs" text-decoration="underline" textLength="124" x="551.5" y="527.9346">isNegative(char): boolean</text><rect fill="#F24D5C" height="6" style="stroke: #C82930; stroke-width: 1.0;" width="6" x="539.5" y="535.7695"/><text fill="#000000" font-family="sans-serif" font-size="11" lengthAdjust="spacingAndGlyphs" text-decoration="underline" textLength="131" x="551.5" y="541.7705">isAfirmative(char): boolean</text><!--class java.io.BufferedReader--><rect fill="#FEFECE" filter="url(#f1gvqo58yh9ply)" height="48" id="java.io.BufferedReader" style="stroke: #A80036; stroke-width: 1.5;" width="119" x="881.5" y="656.5"/><ellipse cx="896.5" cy="672.5" fill="#ADD1B2" rx="11" ry="11" style="stroke: #A80036; stroke-width: 1.0;"/><path d="M899.2656,668.375 Q899.4219,668.1563 899.6094,668.0469 Q899.7969,667.9375 900.0156,667.9375 Q900.3906,667.9375 900.625,668.1953 Q900.8594,668.4531 900.8594,669.0625 L900.8594,670.5156 Q900.8594,671.125 900.625,671.3906 Q900.3906,671.6563 900.0156,671.6563 Q899.6719,671.6563 899.4688,671.4531 Q899.2656,671.2656 899.1563,670.75 Q899.1094,670.3906 898.9219,670.2031 Q898.5938,669.8281 897.9844,669.6094 Q897.375,669.3906 896.75,669.3906 Q895.9844,669.3906 895.3516,669.7188 Q894.7188,670.0469 894.2266,670.7969 Q893.7344,671.5469 893.7344,672.5781 L893.7344,673.6719 Q893.7344,674.9063 894.625,675.7266 Q895.5156,676.5469 897.1094,676.5469 Q898.0469,676.5469 898.7031,676.2969 Q899.0938,676.1406 899.5156,675.7031 Q899.7813,675.4375 899.9297,675.3594 Q900.0781,675.2813 900.2813,675.2813 Q900.6094,675.2813 900.8672,675.5391 Q901.125,675.7969 901.125,676.1406 Q901.125,676.4844 900.7813,676.8906 Q900.2813,677.4688 899.4844,677.7969 Q898.4063,678.25 897.1094,678.25 Q895.5938,678.25 894.3906,677.625 Q893.4063,677.125 892.7188,676.0547 Q892.0313,674.9844 892.0313,673.7031 L892.0313,672.5469 Q892.0313,671.2188 892.6484,670.0703 Q893.2656,668.9219 894.3594,668.3047 Q895.4531,667.6875 896.6875,667.6875 Q897.4219,667.6875 898.0703,667.8516 Q898.7188,668.0156 899.2656,668.375 Z "/><text fill="#000000" font-family="sans-serif" font-size="12" lengthAdjust="spacingAndGlyphs" textLength="87" x="910.5" y="677.4102">BufferedReader</text><line style="stroke: #A80036; stroke-width: 1.5;" x1="882.5" x2="999.5" y1="688.5" y2="688.5"/><line style="stroke: #A80036; stroke-width: 1.5;" x1="882.5" x2="999.5" y1="696.5" y2="696.5"/><!--class java.io.PrintWriter--><rect fill="#FEFECE" filter="url(#f1gvqo58yh9ply)" height="48" id="java.io.PrintWriter" style="stroke: #A80036; stroke-width: 1.5;" width="89" x="1035.5" y="656.5"/><ellipse cx="1050.5" cy="672.5" fill="#ADD1B2" rx="11" ry="11" style="stroke: #A80036; stroke-width: 1.0;"/><path d="M1053.2656,668.375 Q1053.4219,668.1563 1053.6094,668.0469 Q1053.7969,667.9375 1054.0156,667.9375 Q1054.3906,667.9375 1054.625,668.1953 Q1054.8594,668.4531 1054.8594,669.0625 L1054.8594,670.5156 Q1054.8594,671.125 1054.625,671.3906 Q1054.3906,671.6563 1054.0156,671.6563 Q1053.6719,671.6563 1053.4688,671.4531 Q1053.2656,671.2656 1053.1563,670.75 Q1053.1094,670.3906 1052.9219,670.2031 Q1052.5938,669.8281 1051.9844,669.6094 Q1051.375,669.3906 1050.75,669.3906 Q1049.9844,669.3906 1049.3516,669.7188 Q1048.7188,670.0469 1048.2266,670.7969 Q1047.7344,671.5469 1047.7344,672.5781 L1047.7344,673.6719 Q1047.7344,674.9063 1048.625,675.7266 Q1049.5156,676.5469 1051.1094,676.5469 Q1052.0469,676.5469 1052.7031,676.2969 Q1053.0938,676.1406 1053.5156,675.7031 Q1053.7813,675.4375 1053.9297,675.3594 Q1054.0781,675.2813 1054.2813,675.2813 Q1054.6094,675.2813 1054.8672,675.5391 Q1055.125,675.7969 1055.125,676.1406 Q1055.125,676.4844 1054.7813,676.8906 Q1054.2813,677.4688 1053.4844,677.7969 Q1052.4063,678.25 1051.1094,678.25 Q1049.5938,678.25 1048.3906,677.625 Q1047.4063,677.125 1046.7188,676.0547 Q1046.0313,674.9844 1046.0313,673.7031 L1046.0313,672.5469 Q1046.0313,671.2188 1046.6484,670.0703 Q1047.2656,668.9219 1048.3594,668.3047 Q1049.4531,667.6875 1050.6875,667.6875 Q1051.4219,667.6875 1052.0703,667.8516 Q1052.7188,668.0156 1053.2656,668.375 Z "/><text fill="#000000" font-family="sans-serif" font-size="12" lengthAdjust="spacingAndGlyphs" textLength="57" x="1064.5" y="677.4102">PrintWriter</text><line style="stroke: #A80036; stroke-width: 1.5;" x1="1036.5" x2="1123.5" y1="688.5" y2="688.5"/><line style="stroke: #A80036; stroke-width: 1.5;" x1="1036.5" x2="1123.5" y1="696.5" y2="696.5"/><!--class java.util.ArrayList--><rect fill="#FEFECE" filter="url(#f1gvqo58yh9ply)" height="48" id="java.util.ArrayList" style="stroke: #A80036; stroke-width: 1.5;" width="79" x="745.5" y="656.5"/><ellipse cx="760.5" cy="672.5" fill="#ADD1B2" rx="11" ry="11" style="stroke: #A80036; stroke-width: 1.0;"/><path d="M763.2656,668.375 Q763.4219,668.1563 763.6094,668.0469 Q763.7969,667.9375 764.0156,667.9375 Q764.3906,667.9375 764.625,668.1953 Q764.8594,668.4531 764.8594,669.0625 L764.8594,670.5156 Q764.8594,671.125 764.625,671.3906 Q764.3906,671.6563 764.0156,671.6563 Q763.6719,671.6563 763.4688,671.4531 Q763.2656,671.2656 763.1563,670.75 Q763.1094,670.3906 762.9219,670.2031 Q762.5938,669.8281 761.9844,669.6094 Q761.375,669.3906 760.75,669.3906 Q759.9844,669.3906 759.3516,669.7188 Q758.7188,670.0469 758.2266,670.7969 Q757.7344,671.5469 757.7344,672.5781 L757.7344,673.6719 Q757.7344,674.9063 758.625,675.7266 Q759.5156,676.5469 761.1094,676.5469 Q762.0469,676.5469 762.7031,676.2969 Q763.0938,676.1406 763.5156,675.7031 Q763.7813,675.4375 763.9297,675.3594 Q764.0781,675.2813 764.2813,675.2813 Q764.6094,675.2813 764.8672,675.5391 Q765.125,675.7969 765.125,676.1406 Q765.125,676.4844 764.7813,676.8906 Q764.2813,677.4688 763.4844,677.7969 Q762.4063,678.25 761.1094,678.25 Q759.5938,678.25 758.3906,677.625 Q757.4063,677.125 756.7188,676.0547 Q756.0313,674.9844 756.0313,673.7031 L756.0313,672.5469 Q756.0313,671.2188 756.6484,670.0703 Q757.2656,668.9219 758.3594,668.3047 Q759.4531,667.6875 760.6875,667.6875 Q761.4219,667.6875 762.0703,667.8516 Q762.7188,668.0156 763.2656,668.375 Z "/><text fill="#000000" font-family="sans-serif" font-size="12" lengthAdjust="spacingAndGlyphs" textLength="47" x="774.5" y="677.4102">ArrayList</text><line style="stroke: #A80036; stroke-width: 1.5;" x1="746.5" x2="823.5" y1="688.5" y2="688.5"/><line style="stroke: #A80036; stroke-width: 1.5;" x1="746.5" x2="823.5" y1="696.5" y2="696.5"/><!--class java.net.ServerSocket--><rect fill="#FEFECE" filter="url(#f1gvqo58yh9ply)" height="48" id="java.net.ServerSocket" style="stroke: #A80036; stroke-width: 1.5;" width="104" x="971" y="445"/><ellipse cx="986" cy="461" fill="#ADD1B2" rx="11" ry="11" style="stroke: #A80036; stroke-width: 1.0;"/><path d="M988.7656,456.875 Q988.9219,456.6563 989.1094,456.5469 Q989.2969,456.4375 989.5156,456.4375 Q989.8906,456.4375 990.125,456.6953 Q990.3594,456.9531 990.3594,457.5625 L990.3594,459.0156 Q990.3594,459.625 990.125,459.8906 Q989.8906,460.1563 989.5156,460.1563 Q989.1719,460.1563 988.9688,459.9531 Q988.7656,459.7656 988.6563,459.25 Q988.6094,458.8906 988.4219,458.7031 Q988.0938,458.3281 987.4844,458.1094 Q986.875,457.8906 986.25,457.8906 Q985.4844,457.8906 984.8516,458.2188 Q984.2188,458.5469 983.7266,459.2969 Q983.2344,460.0469 983.2344,461.0781 L983.2344,462.1719 Q983.2344,463.4063 984.125,464.2266 Q985.0156,465.0469 986.6094,465.0469 Q987.5469,465.0469 988.2031,464.7969 Q988.5938,464.6406 989.0156,464.2031 Q989.2813,463.9375 989.4297,463.8594 Q989.5781,463.7813 989.7813,463.7813 Q990.1094,463.7813 990.3672,464.0391 Q990.625,464.2969 990.625,464.6406 Q990.625,464.9844 990.2813,465.3906 Q989.7813,465.9688 988.9844,466.2969 Q987.9063,466.75 986.6094,466.75 Q985.0938,466.75 983.8906,466.125 Q982.9063,465.625 982.2188,464.5547 Q981.5313,463.4844 981.5313,462.2031 L981.5313,461.0469 Q981.5313,459.7188 982.1484,458.5703 Q982.7656,457.4219 983.8594,456.8047 Q984.9531,456.1875 986.1875,456.1875 Q986.9219,456.1875 987.5703,456.3516 Q988.2188,456.5156 988.7656,456.875 Z "/><text fill="#000000" font-family="sans-serif" font-size="12" lengthAdjust="spacingAndGlyphs" textLength="72" x="1000" y="465.9102">ServerSocket</text><line style="stroke: #A80036; stroke-width: 1.5;" x1="972" x2="1074" y1="477" y2="477"/><line style="stroke: #A80036; stroke-width: 1.5;" x1="972" x2="1074" y1="485" y2="485"/><!--class java.net.Socket--><rect fill="#FEFECE" filter="url(#f1gvqo58yh9ply)" height="48" id="java.net.Socket" style="stroke: #A80036; stroke-width: 1.5;" width="69" x="866.5" y="445"/><ellipse cx="881.5" cy="461" fill="#ADD1B2" rx="11" ry="11" style="stroke: #A80036; stroke-width: 1.0;"/><path d="M884.2656,456.875 Q884.4219,456.6563 884.6094,456.5469 Q884.7969,456.4375 885.0156,456.4375 Q885.3906,456.4375 885.625,456.6953 Q885.8594,456.9531 885.8594,457.5625 L885.8594,459.0156 Q885.8594,459.625 885.625,459.8906 Q885.3906,460.1563 885.0156,460.1563 Q884.6719,460.1563 884.4688,459.9531 Q884.2656,459.7656 884.1563,459.25 Q884.1094,458.8906 883.9219,458.7031 Q883.5938,458.3281 882.9844,458.1094 Q882.375,457.8906 881.75,457.8906 Q880.9844,457.8906 880.3516,458.2188 Q879.7188,458.5469 879.2266,459.2969 Q878.7344,460.0469 878.7344,461.0781 L878.7344,462.1719 Q878.7344,463.4063 879.625,464.2266 Q880.5156,465.0469 882.1094,465.0469 Q883.0469,465.0469 883.7031,464.7969 Q884.0938,464.6406 884.5156,464.2031 Q884.7813,463.9375 884.9297,463.8594 Q885.0781,463.7813 885.2813,463.7813 Q885.6094,463.7813 885.8672,464.0391 Q886.125,464.2969 886.125,464.6406 Q886.125,464.9844 885.7813,465.3906 Q885.2813,465.9688 884.4844,466.2969 Q883.4063,466.75 882.1094,466.75 Q880.5938,466.75 879.3906,466.125 Q878.4063,465.625 877.7188,464.5547 Q877.0313,463.4844 877.0313,462.2031 L877.0313,461.0469 Q877.0313,459.7188 877.6484,458.5703 Q878.2656,457.4219 879.3594,456.8047 Q880.4531,456.1875 881.6875,456.1875 Q882.4219,456.1875 883.0703,456.3516 Q883.7188,456.5156 884.2656,456.875 Z "/><text fill="#000000" font-family="sans-serif" font-size="12" lengthAdjust="spacingAndGlyphs" textLength="37" x="895.5" y="465.9102">Socket</text><line style="stroke: #A80036; stroke-width: 1.5;" x1="867.5" x2="934.5" y1="477" y2="477"/><line style="stroke: #A80036; stroke-width: 1.5;" x1="867.5" x2="934.5" y1="485" y2="485"/><!--link santaTecla.utils.WithConsoleView to santaTecla.utils.Command--><path d="M117.974,243.243 C95.7661,279.159 69.6406,328.278 58,376 C38.4098,456.312 34.1223,482.857 58,562 C64.3651,583.097 75.8952,603.883 88.172,621.969 " fill="none" id="santaTecla.utils.WithConsoleView-santaTecla.utils.Command" style="stroke: #A80036; stroke-width: 1.0;"/><polygon fill="none" points="112.156,239.347,128.805,226.241,123.963,246.87,112.156,239.347" style="stroke: #A80036; stroke-width: 1.0;"/><!--link santaTecla.utils.Console to java.io.BufferedReader--><path d="M508.291,559.3 C510.186,560.24 512.09,561.141 514,562 C648.116,622.319 703.99,559.08 841,612.5 C863.089,621.113 885.24,635.25 903.06,648.325 " fill="none" id="santaTecla.utils.Console-java.io.BufferedReader" style="stroke: #A80036; stroke-width: 1.0;"/><polygon fill="#A80036" points="913.556,656.269,908.7938,647.648,909.5692,653.2514,903.9658,654.0268,913.556,656.269" style="stroke: #A80036; stroke-width: 1.0;"/><line style="stroke: #A80036; stroke-width: 1.0;" x1="909.5692" x2="903.19" y1="653.2514" y2="648.424"/><polygon fill="#A80036" points="496.758,553.076,500.1376,559.4461,507.3176,558.7764,503.9379,552.4064,496.758,553.076" style="stroke: #A80036; stroke-width: 1.0;"/><!--link santaTecla.utils.WithConsoleView to santaTecla.utils.Menu--><path d="M159.101,246.203 C162.539,294.17 167.426,362.342 170.872,410.416 " fill="none" id="santaTecla.utils.WithConsoleView-santaTecla.utils.Menu" style="stroke: #A80036; stroke-width: 1.0;"/><polygon fill="none" points="152.104,246.498,157.656,226.049,166.068,245.497,152.104,246.498" style="stroke: #A80036; stroke-width: 1.0;"/><!--link santaTecla.utils.Menu to java.util.ArrayList--><path d="M246.052,535.555 C260.41,545.902 276.029,555.36 292,562 C462.753,632.991 535.362,538.884 705,612.5 C723.455,620.509 740.952,634.176 754.85,647.086 " fill="none" id="santaTecla.utils.Menu-java.util.ArrayList" style="stroke: #A80036; stroke-width: 1.0;"/><polygon fill="#A80036" points="764.296,656.261,760.6273,647.121,760.7095,652.7772,755.0532,652.8594,764.296,656.261" style="stroke: #A80036; stroke-width: 1.0;"/><line style="stroke: #A80036; stroke-width: 1.0;" x1="760.7095" x2="754.971" y1="652.7772" y2="647.2035"/><polygon fill="#A80036" points="235.333,527.5,237.7266,534.3023,244.9262,534.7091,242.5326,527.9068,235.333,527.5" style="stroke: #A80036; stroke-width: 1.0;"/><!--link santaTecla.utils.Menu to santaTecla.utils.Command--><path d="M161.86,540.588 C157.771,562.552 153.263,586.767 149.172,608.742 " fill="none" id="santaTecla.utils.Menu-santaTecla.utils.Command" style="stroke: #A80036; stroke-width: 1.0;"/><polygon fill="#A80036" points="146.752,621.741,152.3311,613.6247,147.6668,616.8254,144.4661,612.1611,146.752,621.741" style="stroke: #A80036; stroke-width: 1.0;"/><line style="stroke: #A80036; stroke-width: 1.0;" x1="147.6668" x2="149.1315" y1="616.8254" y2="608.9605"/><polygon fill="#A80036" points="164.291,527.524,159.2607,532.6908,162.0953,539.3214,167.1256,534.1546,164.291,527.524" style="stroke: #A80036; stroke-width: 1.0;"/><!--link santaTecla.utils.TCPIP to java.net.ServerSocket--><path d="M535.298,313.354 C537.193,314.265 539.094,315.148 541,316 C709.936,391.508 793.578,282.057 953,376 C975.731,389.395 993.576,413.293 1005.558,433.375 " fill="none" id="santaTecla.utils.TCPIP-java.net.ServerSocket" style="stroke: #A80036; stroke-width: 1.0;"/><polygon fill="#A80036" points="1012.09,444.953,1011.1538,435.1487,1009.6342,440.5977,1004.1853,439.078,1012.09,444.953" style="stroke: #A80036; stroke-width: 1.0;"/><line style="stroke: #A80036; stroke-width: 1.0;" x1="1009.6342" x2="1005.7045" y1="440.5977" y2="433.631"/><polygon fill="#A80036" points="523.737,307.403,527.2415,313.7052,534.4069,312.8942,530.9024,306.592,523.737,307.403" style="stroke: #A80036; stroke-width: 1.0;"/><!--link santaTecla.utils.TCPIP to java.io.PrintWriter--><path d="M535.017,312.833 C537.007,313.917 539.002,314.974 541,316 C635.735,364.666 692.628,306.119 773,376 C840.518,434.705 783.637,501.992 850,562 C907.831,614.292 951.862,571.212 1018,612.5 C1032.04,621.263 1044.94,634.023 1055.29,646.063 " fill="none" id="santaTecla.utils.TCPIP-java.io.PrintWriter" style="stroke: #A80036; stroke-width: 1.0;"/><polygon fill="#A80036" points="1063.7,656.339,1061.0943,646.8411,1060.5328,652.47,1054.9039,651.9086,1063.7,656.339" style="stroke: #A80036; stroke-width: 1.0;"/><line style="stroke: #A80036; stroke-width: 1.0;" x1="1060.5328" x2="1055.47" y1="652.47" y2="646.2785"/><polygon fill="#A80036" points="523.669,306.329,526.8855,312.783,534.0802,312.2962,530.8637,305.8422,523.669,306.329" style="stroke: #A80036; stroke-width: 1.0;"/><!--link santaTecla.utils.TCPIP to java.net.Socket--><path d="M535.366,313.207 C537.24,314.165 539.118,315.097 541,316 C662.807,374.443 726.606,301.032 839,376 C859.833,389.896 875.497,413.407 885.869,433.183 " fill="none" id="santaTecla.utils.TCPIP-java.net.Socket" style="stroke: #A80036; stroke-width: 1.0;"/><polygon fill="#A80036" points="891.642,444.894,891.2514,435.0529,889.4317,440.4091,884.0755,438.5894,891.642,444.894" style="stroke: #A80036; stroke-width: 1.0;"/><line style="stroke: #A80036; stroke-width: 1.0;" x1="889.4317" x2="885.8935" y1="440.4091" y2="433.2335"/><polygon fill="#A80036" points="523.923,307,527.2898,313.3769,534.4711,312.7217,531.1043,306.3448,523.923,307" style="stroke: #A80036; stroke-width: 1.0;"/><!--link santaTecla.utils.TCPIP to java.io.BufferedReader--><path d="M534.738,312.307 C536.824,313.566 538.912,314.798 541,316 C608.624,354.935 649.141,322.559 706,376 C771.7,437.751 731.371,491.041 787,562 C803.168,582.624 856.725,621.684 896.155,649.089 " fill="none" id="santaTecla.utils.TCPIP-java.io.BufferedReader" style="stroke: #A80036; stroke-width: 1.0;"/><polygon fill="#A80036" points="906.859,656.485,901.7283,648.0781,902.7454,653.6428,897.1807,654.6599,906.859,656.485" style="stroke: #A80036; stroke-width: 1.0;"/><line style="stroke: #A80036; stroke-width: 1.0;" x1="902.7454" x2="896.1635" y1="653.6428" y2="649.0955"/><polygon fill="#A80036" points="523.61,305.335,526.5703,311.9105,533.7785,311.707,530.8182,305.1315,523.61,305.335" style="stroke: #A80036; stroke-width: 1.0;"/><!--link santaTecla.utils.WithConsoleView to santaTecla.utils.Console--><path d="M182.158,237.286 C196.976,261.897 216.46,291.681 237,316 C255.889,338.364 277.938,360.655 299.68,381.002 " fill="none" id="santaTecla.utils.WithConsoleView-santaTecla.utils.Console" style="stroke: #A80036; stroke-width: 1.0;"/><polygon fill="#A80036" points="309.301,389.9,305.4103,380.8522,305.6305,386.5048,299.9779,386.725,309.301,389.9" style="stroke: #A80036; stroke-width: 1.0;"/><line style="stroke: #A80036; stroke-width: 1.0;" x1="305.6305" x2="299.7575" y1="386.5048" y2="381.073"/><polygon fill="#A80036" points="175.483,226.025,175.1011,233.226,181.6012,236.3482,181.9832,229.1472,175.483,226.025" style="stroke: #A80036; stroke-width: 1.0;"/><!--link santaTecla.utils.WithConsoleView to santaTecla.utils.YesNoDialog--><path d="M178.555,244.488 C192.085,269.961 211.51,298.359 237,316 C340.579,387.685 402.78,316.86 514,376 C521.236,379.847 528.311,384.397 535.13,389.38 " fill="none" id="santaTecla.utils.WithConsoleView-santaTecla.utils.YesNoDialog" style="stroke: #A80036; stroke-width: 1.0;"/><polygon fill="none" points="172.119,247.263,169.55,226.23,184.675,241.07,172.119,247.263" style="stroke: #A80036; stroke-width: 1.0;"/><!--
@startuml
class  santaTecla.utils.ClosedInterval{
- min: int
- max: int
+ ClosedInterval(int, int)
+ includes(int): boolean
}

class  santaTecla.utils.Command{
# title: String
# Command(String)
# {abstract} execute(): void
# {abstract} isActive(): boolean
~ getTitle(): String
}
santaTecla.utils.WithConsoleView <|-down- santaTecla.utils.Command

class  santaTecla.utils.Console{
- bufferedReader: BufferedReader
+ Console()
+ write(char): void
+ write(String): void
+ readInt(String): int
+ readChar(String): char
+ readString(String): String
+ writeln(String): void
+ writeln(): void
- writeError(String): void
}
santaTecla.utils.Console *-down-> java.io.BufferedReader

class  santaTecla.utils.Menu{
-{static}String OPTION
- commandList: ArrayList<Command>
+ Menu()
+ execute(): void
# addCommand(Command): void
}
santaTecla.utils.WithConsoleView <|-down- santaTecla.utils.Menu
santaTecla.utils.Menu *-down-> java.util.ArrayList
santaTecla.utils.Menu *-down-> santaTecla.utils.Command

class  santaTecla.utils.TCPIP{
-ServerSocket serverSocket
-Socket socket
-PrintWriter out
-BufferedReader in
+TCPIP(Socket socket)
+TCPIP(ServerSocket serverSocket, Socket socket)
+{static}TCPIP createClientSocket()
+{static}TCPIP createServerSocket()
+void send(String value)
+void send(int value)
+void send(boolean value)
+String receiveLine()
+boolean receiveBoolean()
+int receiveInt()
+void close()
}
santaTecla.utils.TCPIP *-down-> java.net.ServerSocket
santaTecla.utils.TCPIP *-down-> java.io.PrintWriter
santaTecla.utils.TCPIP *-down-> java.net.Socket
santaTecla.utils.TCPIP *-down-> java.io.BufferedReader

class  santaTecla.utils.WithConsoleView{
# console: Console
# WithConsoleView()
}
santaTecla.utils.WithConsoleView *-down-> santaTecla.utils.Console

class  santaTecla.utils.YesNoDialog{
- {static} AFIRMATIVE: char
- {static} NEGATIVE: char
- {static} QUESTION: String
- {static} MESSAGE: String
+ YesNoDialog()
+ read(String): boolean
- {static} isNegative(char): boolean
- {static} isAfirmative(char): boolean
}
santaTecla.utils.WithConsoleView <|-down- santaTecla.utils.YesNoDialog
@enduml

PlantUML version 1.2019.05(Sat Apr 20 18:45:36 CEST 2019)
(GPL source distribution)
Java Runtime: OpenJDK Runtime Environment
JVM: OpenJDK 64-Bit Server VM
Java Version: 1.8.0_222-b10
Operating System: Windows 10
OS Version: 10.0
Default Encoding: windows-1252
Language: es
Country: ES
--></g></svg>