<?xml version="1.0" encoding="UTF-8" standalone="no"?><svg xmlns="http://www.w3.org/2000/svg" xmlns:xlink="http://www.w3.org/1999/xlink" contentScriptType="application/ecmascript" contentStyleType="text/css" height="305px" preserveAspectRatio="none" style="width:519px;height:305px;" version="1.1" viewBox="0 0 519 305" width="519px" zoomAndPan="magnify"><defs><filter height="300%" id="fg7ndxcr0p7hl" width="300%" x="-1" y="-1"><feGaussianBlur result="blurOut" stdDeviation="2.0"/><feColorMatrix in="blurOut" result="blurOut2" type="matrix" values="0 0 0 0 0 0 0 0 0 0 0 0 0 0 0 0 0 0 .4 0"/><feOffset dx="4.0" dy="4.0" in="blurOut2" result="blurOut3"/><feBlend in="SourceGraphic" in2="blurOut3" mode="normal"/></filter></defs><g><polygon fill="#DDDDDD" filter="url(#fg7ndxcr0p7hl)" points="6,8,179,8,186,31.6094,193,31.6094,193,63.2188,6,63.2188,6,8" style="stroke: #000000; stroke-width: 1.5;"/><line style="stroke: #000000; stroke-width: 1.5;" x1="6" x2="186" y1="31.6094" y2="31.6094"/><text fill="#000000" font-family="sans-serif" font-size="14" font-weight="bold" lengthAdjust="spacingAndGlyphs" textLength="167" x="10" y="24.5332">usantatecla.mastermind</text><polygon fill="#FFFFFF" filter="url(#fg7ndxcr0p7hl)" points="172,123,233,123,240,146.6094,247,146.6094,247,178.2188,172,178.2188,172,123" style="stroke: #000000; stroke-width: 1.5;"/><line style="stroke: #000000; stroke-width: 1.5;" x1="172" x2="240" y1="146.6094" y2="146.6094"/><text fill="#000000" font-family="sans-serif" font-size="14" font-weight="bold" lengthAdjust="spacingAndGlyphs" textLength="55" x="176" y="139.5332">java.util</text><polygon fill="#DDDDDD" filter="url(#fg7ndxcr0p7hl)" points="362,8,483,8,490,31.6094,497,31.6094,497,63.2188,362,63.2188,362,8" style="stroke: #000000; stroke-width: 1.5;"/><line style="stroke: #000000; stroke-width: 1.5;" x1="362" x2="490" y1="31.6094" y2="31.6094"/><text fill="#000000" font-family="sans-serif" font-size="14" font-weight="bold" lengthAdjust="spacingAndGlyphs" textLength="115" x="366" y="24.5332">usantatecla.utils</text><polygon fill="#FFFFFF" filter="url(#fg7ndxcr0p7hl)" points="311.5,238,363.5,238,370.5,261.6094,377.5,261.6094,377.5,293.2188,311.5,293.2188,311.5,238" style="stroke: #000000; stroke-width: 1.5;"/><line style="stroke: #000000; stroke-width: 1.5;" x1="311.5" x2="370.5" y1="261.6094" y2="261.6094"/><text fill="#000000" font-family="sans-serif" font-size="14" font-weight="bold" lengthAdjust="spacingAndGlyphs" textLength="46" x="315.5" y="254.5332">java.io</text><!--class mastermind--><rect fill="#FEFECE" filter="url(#fg7ndxcr0p7hl)" height="48" id="mastermind" style="stroke: #A80036; stroke-width: 1.5;" width="99" x="228" y="11.5"/><ellipse cx="243" cy="27.5" fill="#ADD1B2" rx="11" ry="11" style="stroke: #A80036; stroke-width: 1.0;"/><path d="M245.7656,23.375 Q245.9219,23.1563 246.1094,23.0469 Q246.2969,22.9375 246.5156,22.9375 Q246.8906,22.9375 247.125,23.1953 Q247.3594,23.4531 247.3594,24.0625 L247.3594,25.5156 Q247.3594,26.125 247.125,26.3906 Q246.8906,26.6563 246.5156,26.6563 Q246.1719,26.6563 245.9688,26.4531 Q245.7656,26.2656 245.6563,25.75 Q245.6094,25.3906 245.4219,25.2031 Q245.0938,24.8281 244.4844,24.6094 Q243.875,24.3906 243.25,24.3906 Q242.4844,24.3906 241.8516,24.7188 Q241.2188,25.0469 240.7266,25.7969 Q240.2344,26.5469 240.2344,27.5781 L240.2344,28.6719 Q240.2344,29.9063 241.125,30.7266 Q242.0156,31.5469 243.6094,31.5469 Q244.5469,31.5469 245.2031,31.2969 Q245.5938,31.1406 246.0156,30.7031 Q246.2813,30.4375 246.4297,30.3594 Q246.5781,30.2813 246.7813,30.2813 Q247.1094,30.2813 247.3672,30.5391 Q247.625,30.7969 247.625,31.1406 Q247.625,31.4844 247.2813,31.8906 Q246.7813,32.4688 245.9844,32.7969 Q244.9063,33.25 243.6094,33.25 Q242.0938,33.25 240.8906,32.625 Q239.9063,32.125 239.2188,31.0547 Q238.5313,29.9844 238.5313,28.7031 L238.5313,27.5469 Q238.5313,26.2188 239.1484,25.0703 Q239.7656,23.9219 240.8594,23.3047 Q241.9531,22.6875 243.1875,22.6875 Q243.9219,22.6875 244.5703,22.8516 Q245.2188,23.0156 245.7656,23.375 Z "/><text fill="#000000" font-family="sans-serif" font-size="12" lengthAdjust="spacingAndGlyphs" textLength="67" x="257" y="32.4102">mastermind</text><line style="stroke: #A80036; stroke-width: 1.5;" x1="229" x2="326" y1="43.5" y2="43.5"/><line style="stroke: #A80036; stroke-width: 1.5;" x1="229" x2="326" y1="51.5" y2="51.5"/><!--class mastermind.utils--><rect fill="#FEFECE" filter="url(#fg7ndxcr0p7hl)" height="48" id="mastermind.utils" style="stroke: #A80036; stroke-width: 1.5;" width="125" x="282" y="126.5"/><ellipse cx="297" cy="142.5" fill="#ADD1B2" rx="11" ry="11" style="stroke: #A80036; stroke-width: 1.0;"/><path d="M299.7656,138.375 Q299.9219,138.1563 300.1094,138.0469 Q300.2969,137.9375 300.5156,137.9375 Q300.8906,137.9375 301.125,138.1953 Q301.3594,138.4531 301.3594,139.0625 L301.3594,140.5156 Q301.3594,141.125 301.125,141.3906 Q300.8906,141.6563 300.5156,141.6563 Q300.1719,141.6563 299.9688,141.4531 Q299.7656,141.2656 299.6563,140.75 Q299.6094,140.3906 299.4219,140.2031 Q299.0938,139.8281 298.4844,139.6094 Q297.875,139.3906 297.25,139.3906 Q296.4844,139.3906 295.8516,139.7188 Q295.2188,140.0469 294.7266,140.7969 Q294.2344,141.5469 294.2344,142.5781 L294.2344,143.6719 Q294.2344,144.9063 295.125,145.7266 Q296.0156,146.5469 297.6094,146.5469 Q298.5469,146.5469 299.2031,146.2969 Q299.5938,146.1406 300.0156,145.7031 Q300.2813,145.4375 300.4297,145.3594 Q300.5781,145.2813 300.7813,145.2813 Q301.1094,145.2813 301.3672,145.5391 Q301.625,145.7969 301.625,146.1406 Q301.625,146.4844 301.2813,146.8906 Q300.7813,147.4688 299.9844,147.7969 Q298.9063,148.25 297.6094,148.25 Q296.0938,148.25 294.8906,147.625 Q293.9063,147.125 293.2188,146.0547 Q292.5313,144.9844 292.5313,143.7031 L292.5313,142.5469 Q292.5313,141.2188 293.1484,140.0703 Q293.7656,138.9219 294.8594,138.3047 Q295.9531,137.6875 297.1875,137.6875 Q297.9219,137.6875 298.5703,137.8516 Q299.2188,138.0156 299.7656,138.375 Z "/><text fill="#000000" font-family="sans-serif" font-size="12" lengthAdjust="spacingAndGlyphs" textLength="93" x="311" y="147.4102">mastermind.utils</text><line style="stroke: #A80036; stroke-width: 1.5;" x1="283" x2="406" y1="158.5" y2="158.5"/><line style="stroke: #A80036; stroke-width: 1.5;" x1="283" x2="406" y1="166.5" y2="166.5"/><!--link mastermind to java.util--><path d="M263.575,59.64 C253.402,76.545 239.493,99.658 228.33,118.21 " fill="none" id="mastermind-java.util" style="stroke: #A80036; stroke-width: 1.0; stroke-dasharray: 7.0,7.0;"/><polygon fill="#A80036" points="225.554,122.821,233.6208,117.1706,228.1313,118.5364,226.7655,113.0469,225.554,122.821" style="stroke: #A80036; stroke-width: 1.0;"/><!--link mastermind to mastermind.utils--><path d="M291.22,59.64 C301.879,77.616 316.7,102.613 328.005,121.679 " fill="none" id="mastermind-mastermind.utils" style="stroke: #A80036; stroke-width: 1.0; stroke-dasharray: 7.0,7.0;"/><polygon fill="#A80036" points="330.798,126.391,329.6478,116.6095,328.2476,122.0904,322.7668,120.6901,330.798,126.391" style="stroke: #A80036; stroke-width: 1.0;"/><!--link mastermind.utils to java.io--><path d="M344.5,174.64 C344.5,191.402 344.5,214.2667 344.5,232.7369 " fill="none" id="mastermind.utils-java.io" style="stroke: #A80036; stroke-width: 1.0; stroke-dasharray: 7.0,7.0;"/><polygon fill="#A80036" points="344.5,237.8212,348.5,228.8212,344.5,232.8212,340.5,228.8212,344.5,237.8212" style="stroke: #A80036; stroke-width: 1.0;"/><!--
@startuml

package usantatecla.mastermind #DDDDDD { }
package java.util{ }
mastermind .down.> java.util
mastermind .down.> mastermind.utils

package usantatecla.utils #DDDDDD { }
package java.io{ }
mastermind.utils .down.> java.io

@enduml

PlantUML version 1.2019.05(Sat Apr 20 18:45:36 CEST 2019)
(GPL source distribution)
Java Runtime: OpenJDK Runtime Environment
JVM: OpenJDK 64-Bit Server VM
Java Version: 1.8.0_222-b10
Operating System: Windows 10
OS Version: 10.0
Default Encoding: windows-1252
Language: es
Country: ES
--></g></svg>