<?xml version="1.0" encoding="UTF-8" standalone="no"?><svg xmlns="http://www.w3.org/2000/svg" xmlns:xlink="http://www.w3.org/1999/xlink" contentScriptType="application/ecmascript" contentStyleType="text/css" height="535px" preserveAspectRatio="none" style="width:930px;height:535px;" version="1.1" viewBox="0 0 930 535" width="930px" zoomAndPan="magnify"><defs><filter height="300%" id="fezbq8d4zizah" width="300%" x="-1" y="-1"><feGaussianBlur result="blurOut" stdDeviation="2.0"/><feColorMatrix in="blurOut" result="blurOut2" type="matrix" values="0 0 0 0 0 0 0 0 0 0 0 0 0 0 0 0 0 0 .4 0"/><feOffset dx="4.0" dy="4.0" in="blurOut2" result="blurOut3"/><feBlend in="SourceGraphic" in2="blurOut3" mode="normal"/></filter></defs><g><polygon fill="#DDDDDD" filter="url(#fezbq8d4zizah)" points="178.302,8,266.302,8,273.302,31.6094,280.302,31.6094,280.302,63.2188,178.302,63.2188,178.302,8" style="stroke: #000000; stroke-width: 1.5;"/><line style="stroke: #000000; stroke-width: 1.5;" x1="178.302" x2="273.302" y1="31.6094" y2="31.6094"/><text fill="#000000" font-family="sans-serif" font-size="14" font-weight="bold" lengthAdjust="spacingAndGlyphs" textLength="82" x="182.302" y="24.5332">mastermind</text><polygon fill="#DDDDDD" filter="url(#fezbq8d4zizah)" points="282.802,238,415.802,238,422.802,261.6094,429.802,261.6094,429.802,293.2188,282.802,293.2188,282.802,238" style="stroke: #000000; stroke-width: 1.5;"/><line style="stroke: #000000; stroke-width: 1.5;" x1="282.802" x2="422.802" y1="261.6094" y2="261.6094"/><text fill="#000000" font-family="sans-serif" font-size="14" font-weight="bold" lengthAdjust="spacingAndGlyphs" textLength="127" x="286.802" y="254.5332">mastermind.views</text><polygon fill="#DDDDDD" filter="url(#fezbq8d4zizah)" points="226.802,353,369.802,353,376.802,376.6094,383.802,376.6094,383.802,408.2188,226.802,408.2188,226.802,353" style="stroke: #000000; stroke-width: 1.5;"/><line style="stroke: #000000; stroke-width: 1.5;" x1="226.802" x2="376.802" y1="376.6094" y2="376.6094"/><text fill="#000000" font-family="sans-serif" font-size="14" font-weight="bold" lengthAdjust="spacingAndGlyphs" textLength="137" x="230.802" y="369.5332">mastermind.models</text><polygon fill="#FFFFFF" filter="url(#fezbq8d4zizah)" points="267.802,468,328.802,468,335.802,491.6094,342.802,491.6094,342.802,523.2188,267.802,523.2188,267.802,468" style="stroke: #000000; stroke-width: 1.5;"/><line style="stroke: #000000; stroke-width: 1.5;" x1="267.802" x2="335.802" y1="491.6094" y2="491.6094"/><text fill="#000000" font-family="sans-serif" font-size="14" font-weight="bold" lengthAdjust="spacingAndGlyphs" textLength="55" x="271.802" y="484.5332">java.util</text><polygon fill="#DDDDDD" filter="url(#fezbq8d4zizah)" points="40.3024,238,162.3024,238,169.3024,261.6094,176.3024,261.6094,176.3024,293.2188,40.3024,293.2188,40.3024,238" style="stroke: #000000; stroke-width: 1.5;"/><line style="stroke: #000000; stroke-width: 1.5;" x1="40.3024" x2="169.3024" y1="261.6094" y2="261.6094"/><text fill="#000000" font-family="sans-serif" font-size="14" font-weight="bold" lengthAdjust="spacingAndGlyphs" textLength="116" x="44.3024" y="254.5332">mastermind.utils</text><polygon fill="#FFFFFF" filter="url(#fezbq8d4zizah)" points="75.3024,353,127.3024,353,134.3024,376.6094,141.3024,376.6094,141.3024,408.2188,75.3024,408.2188,75.3024,353" style="stroke: #000000; stroke-width: 1.5;"/><line style="stroke: #000000; stroke-width: 1.5;" x1="75.3024" x2="134.3024" y1="376.6094" y2="376.6094"/><text fill="#000000" font-family="sans-serif" font-size="14" font-weight="bold" lengthAdjust="spacingAndGlyphs" textLength="46" x="79.3024" y="369.5332">java.io</text><polygon fill="#DDDDDD" filter="url(#fezbq8d4zizah)" points="125.802,123,318.802,123,325.802,146.6094,332.802,146.6094,332.802,178.2188,125.802,178.2188,125.802,123" style="stroke: #000000; stroke-width: 1.5;"/><line style="stroke: #000000; stroke-width: 1.5;" x1="125.802" x2="325.802" y1="146.6094" y2="146.6094"/><text fill="#000000" font-family="sans-serif" font-size="14" font-weight="bold" lengthAdjust="spacingAndGlyphs" textLength="187" x="129.802" y="139.5332">mastermind.views.console</text><polygon fill="#DDDDDD" filter="url(#fezbq8d4zizah)" points="423.302,123,621.302,123,628.302,146.6094,635.302,146.6094,635.302,178.2188,423.302,178.2188,423.302,123" style="stroke: #000000; stroke-width: 1.5;"/><line style="stroke: #000000; stroke-width: 1.5;" x1="423.302" x2="628.302" y1="146.6094" y2="146.6094"/><text fill="#000000" font-family="sans-serif" font-size="14" font-weight="bold" lengthAdjust="spacingAndGlyphs" textLength="192" x="427.302" y="139.5332">mastermind.views.graphics</text><polygon fill="#FFFFFF" filter="url(#fezbq8d4zizah)" points="536.802,238,599.802,238,606.802,261.6094,613.802,261.6094,613.802,293.2188,536.802,293.2188,536.802,238" style="stroke: #000000; stroke-width: 1.5;"/><line style="stroke: #000000; stroke-width: 1.5;" x1="536.802" x2="606.802" y1="261.6094" y2="261.6094"/><text fill="#000000" font-family="sans-serif" font-size="14" font-weight="bold" lengthAdjust="spacingAndGlyphs" textLength="57" x="540.802" y="254.5332">java.awt</text><polygon fill="#FFFFFF" filter="url(#fezbq8d4zizah)" points="649.302,238,757.302,238,764.302,261.6094,771.302,261.6094,771.302,293.2188,649.302,293.2188,649.302,238" style="stroke: #000000; stroke-width: 1.5;"/><line style="stroke: #000000; stroke-width: 1.5;" x1="649.302" x2="764.302" y1="261.6094" y2="261.6094"/><text fill="#000000" font-family="sans-serif" font-size="14" font-weight="bold" lengthAdjust="spacingAndGlyphs" textLength="102" x="653.302" y="254.5332">java.awt.event</text><polygon fill="#FFFFFF" filter="url(#fezbq8d4zizah)" points="806.302,238,894.302,238,901.302,261.6094,908.302,261.6094,908.302,293.2188,806.302,293.2188,806.302,238" style="stroke: #000000; stroke-width: 1.5;"/><line style="stroke: #000000; stroke-width: 1.5;" x1="806.302" x2="901.302" y1="261.6094" y2="261.6094"/><text fill="#000000" font-family="sans-serif" font-size="14" font-weight="bold" lengthAdjust="spacingAndGlyphs" textLength="82" x="810.302" y="254.5332">javax.swing</text><!--link mastermind to mastermind.views.graphics--><path d="M280.533,55.797 C328.212,73.756 399.857,100.742 454.033,121.148 " fill="none" id="mastermind-mastermind.views.graphics" style="stroke: #A80036; stroke-width: 1.0; stroke-dasharray: 7.0,7.0;"/><polygon fill="#A80036" points="458.889,122.978,451.8767,116.0622,454.2099,121.2155,449.0567,123.5487,458.889,122.978" style="stroke: #A80036; stroke-width: 1.0;"/><!--link mastermind to mastermind.models--><path d="M179.382,63.058 C99.5656,108.987 -41.6068,206.638 22.3024,293 C46.2527,325.365 146.961,350.524 221.458,365.168 " fill="none" id="mastermind-mastermind.models" style="stroke: #A80036; stroke-width: 1.0; stroke-dasharray: 7.0,7.0;"/><polygon fill="#A80036" points="226.775,366.204,218.7069,360.5554,221.8674,365.2471,217.1758,368.4076,226.775,366.204" style="stroke: #A80036; stroke-width: 1.0;"/><!--link mastermind to mastermind.views.console--><path d="M229.302,63.279 C229.302,79.604 229.302,100.556 229.302,117.718 " fill="none" id="mastermind-mastermind.views.console" style="stroke: #A80036; stroke-width: 1.0; stroke-dasharray: 7.0,7.0;"/><polygon fill="#A80036" points="229.302,122.913,233.302,113.913,229.302,117.913,225.302,113.913,229.302,122.913" style="stroke: #A80036; stroke-width: 1.0;"/><!--link mastermind.models to java.util--><path d="M305.302,408.279 C305.302,424.6038 305.302,445.5556 305.302,462.7176 " fill="none" id="mastermind.models-java.util" style="stroke: #A80036; stroke-width: 1.0; stroke-dasharray: 7.0,7.0;"/><polygon fill="#A80036" points="305.302,467.9128,309.302,458.9128,305.302,462.9128,301.302,458.9128,305.302,467.9128" style="stroke: #A80036; stroke-width: 1.0;"/><!--link mastermind.utils to java.io--><path d="M108.302,293.279 C108.302,309.604 108.302,330.556 108.302,347.718 " fill="none" id="mastermind.utils-java.io" style="stroke: #A80036; stroke-width: 1.0; stroke-dasharray: 7.0,7.0;"/><polygon fill="#A80036" points="108.302,352.913,112.302,343.913,108.302,347.913,104.302,343.913,108.302,352.913" style="stroke: #A80036; stroke-width: 1.0;"/><!--link mastermind.views to mastermind.models--><path d="M344.216,293.279 C336.785,309.745 327.229,330.917 319.447,348.161 " fill="none" id="mastermind.views-mastermind.models" style="stroke: #A80036; stroke-width: 1.0; stroke-dasharray: 7.0,7.0;"/><polygon fill="#A80036" points="317.302,352.913,324.649,346.3539,319.358,348.3553,317.3566,343.0643,317.302,352.913" style="stroke: #A80036; stroke-width: 1.0;"/><!--link mastermind.views.console to mastermind.views--><path d="M259.4,178.279 C278.379,195.167 302.924,217.006 322.562,234.479 " fill="none" id="mastermind.views.console-mastermind.views" style="stroke: #A80036; stroke-width: 1.0; stroke-dasharray: 7.0,7.0;"/><polygon fill="#A80036" points="326.421,237.913,322.3567,228.9419,322.6858,234.5891,317.0385,234.9182,326.421,237.913" style="stroke: #A80036; stroke-width: 1.0;"/><!--link mastermind.views.console to mastermind.models--><path d="M234.52,178.011 C240.531,206.771 251.394,253.824 265.302,293 C271.924,311.652 281.091,331.76 288.98,347.891 " fill="none" id="mastermind.views.console-mastermind.models" style="stroke: #A80036; stroke-width: 1.0; stroke-dasharray: 7.0,7.0;"/><polygon fill="#A80036" points="291.382,352.763,290.9889,342.922,289.1705,348.2786,283.8139,346.4603,291.382,352.763" style="stroke: #A80036; stroke-width: 1.0;"/><!--link mastermind.views.console to mastermind.utils--><path d="M200.627,178.279 C182.544,195.167 159.159,217.006 140.449,234.479 " fill="none" id="mastermind.views.console-mastermind.utils" style="stroke: #A80036; stroke-width: 1.0; stroke-dasharray: 7.0,7.0;"/><polygon fill="#A80036" points="136.772,237.913,146.0797,234.6934,140.4262,234.5002,140.6193,228.8467,136.772,237.913" style="stroke: #A80036; stroke-width: 1.0;"/><!--link mastermind.views.graphics to java.awt--><path d="M540.204,178.279 C546.906,194.745 555.525,215.917 562.545,233.161 " fill="none" id="mastermind.views.graphics-java.awt" style="stroke: #A80036; stroke-width: 1.0; stroke-dasharray: 7.0,7.0;"/><polygon fill="#A80036" points="564.479,237.913,564.7898,228.069,562.5935,233.2821,557.3804,231.0858,564.479,237.913" style="stroke: #A80036; stroke-width: 1.0;"/><!--link mastermind.views.graphics to java.awt.event--><path d="M572.197,178.279 C599.585,195.378 635.104,217.553 663.262,235.132 " fill="none" id="mastermind.views.graphics-java.awt.event" style="stroke: #A80036; stroke-width: 1.0; stroke-dasharray: 7.0,7.0;"/><polygon fill="#A80036" points="667.716,237.913,662.1988,229.7545,663.4743,235.2657,657.9631,236.5412,667.716,237.913" style="stroke: #A80036; stroke-width: 1.0;"/><!--link mastermind.views.graphics to mastermind.views--><path d="M488.304,178.279 C462.127,195.378 428.177,217.553 401.263,235.132 " fill="none" id="mastermind.views.graphics-mastermind.views" style="stroke: #A80036; stroke-width: 1.0; stroke-dasharray: 7.0,7.0;"/><polygon fill="#A80036" points="397.007,237.913,406.7296,236.3413,401.1934,235.1792,402.3555,229.643,397.007,237.913" style="stroke: #A80036; stroke-width: 1.0;"/><!--link mastermind.views.graphics to mastermind.models--><path d="M518.72,178.079 C505.55,208.62 480.66,258.904 447.302,293 C424.498,316.309 394.17,335.89 367.398,350.495 " fill="none" id="mastermind.views.graphics-mastermind.models" style="stroke: #A80036; stroke-width: 1.0; stroke-dasharray: 7.0,7.0;"/><polygon fill="#A80036" points="362.789,352.979,372.6093,352.229,367.1902,350.6063,368.8129,345.1872,362.789,352.979" style="stroke: #A80036; stroke-width: 1.0;"/><!--link mastermind.views.graphics to javax.swing--><path d="M612.514,178.002 C663.722,194.603 730.573,216.802 789.302,238 C793.243,239.422 797.299,240.919 801.377,242.448 " fill="none" id="mastermind.views.graphics-javax.swing" style="stroke: #A80036; stroke-width: 1.0; stroke-dasharray: 7.0,7.0;"/><polygon fill="#A80036" points="806.167,244.254,799.1572,237.3357,801.4886,242.4898,796.3345,244.8211,806.167,244.254" style="stroke: #A80036; stroke-width: 1.0;"/><!--
@startuml

package mastermind #DDDDDD { }
mastermind .down.> mastermind.views.graphics
mastermind .down.> mastermind.models
mastermind .down.> mastermind.views.console

package mastermind.models #DDDDDD { }
package java.util{ }
mastermind.models .down.> java.util

package mastermind.utils #DDDDDD { }
package java.io{ }
mastermind.utils .down.> java.io

package mastermind.views #DDDDDD { }
mastermind.views .down.> mastermind.models

package mastermind.views.console #DDDDDD { }
mastermind.views.console .down.> mastermind.views
mastermind.views.console .down.> mastermind.models
mastermind.views.console .down.> mastermind.utils

package mastermind.views.graphics #DDDDDD { }
package java.awt{ }
mastermind.views.graphics .down.> java.awt
package java.awt.event{ }
mastermind.views.graphics .down.> java.awt.event
mastermind.views.graphics .down.> mastermind.views
mastermind.views.graphics .down.> mastermind.models
package javax.swing{ }
mastermind.views.graphics .down.> javax.swing

@enduml

PlantUML version 1.2019.05(Sat Apr 20 18:45:36 CEST 2019)
(GPL source distribution)
Java Runtime: OpenJDK Runtime Environment
JVM: OpenJDK 64-Bit Server VM
Java Version: 1.8.0_222-b10
Operating System: Windows 10
OS Version: 10.0
Default Encoding: windows-1252
Language: es
Country: ES
--></g></svg>