<?xml version="1.0" encoding="UTF-8" standalone="no"?><svg xmlns="http://www.w3.org/2000/svg" xmlns:xlink="http://www.w3.org/1999/xlink" contentScriptType="application/ecmascript" contentStyleType="text/css" height="329px" preserveAspectRatio="none" style="width:656px;height:329px;" version="1.1" viewBox="0 0 656 329" width="656px" zoomAndPan="magnify"><defs><filter height="300%" id="fwsfunqdjauuz" width="300%" x="-1" y="-1"><feGaussianBlur result="blurOut" stdDeviation="2.0"/><feColorMatrix in="blurOut" result="blurOut2" type="matrix" values="0 0 0 0 0 0 0 0 0 0 0 0 0 0 0 0 0 0 .4 0"/><feOffset dx="4.0" dy="4.0" in="blurOut2" result="blurOut3"/><feBlend in="SourceGraphic" in2="blurOut3" mode="normal"/></filter></defs><g><!--cluster mastermind--><polygon fill="#FFFFFF" filter="url(#fwsfunqdjauuz)" points="128,24,216,24,223,47.6094,527,47.6094,527,193,128,193,128,24" style="stroke: #000000; stroke-width: 1.5;"/><line style="stroke: #000000; stroke-width: 1.5;" x1="128" x2="223" y1="47.6094" y2="47.6094"/><text fill="#000000" font-family="sans-serif" font-size="14" font-weight="bold" lengthAdjust="spacingAndGlyphs" textLength="82" x="132" y="40.5332">mastermind</text><!--cluster mastermind.views.console--><polygon fill="#FFFFFF" filter="url(#fwsfunqdjauuz)" points="22,217,215,217,222,240.6094,225,240.6094,225,317,22,317,22,217" style="stroke: #000000; stroke-width: 1.5;"/><line style="stroke: #000000; stroke-width: 1.5;" x1="22" x2="222" y1="240.6094" y2="240.6094"/><text fill="#000000" font-family="sans-serif" font-size="14" font-weight="bold" lengthAdjust="spacingAndGlyphs" textLength="187" x="26" y="233.5332">mastermind.views.console</text><!--cluster mastermind.models--><polygon fill="#FFFFFF" filter="url(#fwsfunqdjauuz)" points="249,217,392,217,399,240.6094,402,240.6094,402,317,249,317,249,217" style="stroke: #000000; stroke-width: 1.5;"/><line style="stroke: #000000; stroke-width: 1.5;" x1="249" x2="399" y1="240.6094" y2="240.6094"/><text fill="#000000" font-family="sans-serif" font-size="14" font-weight="bold" lengthAdjust="spacingAndGlyphs" textLength="137" x="253" y="233.5332">mastermind.models</text><!--cluster mastermind.views.graphics--><polygon fill="#FFFFFF" filter="url(#fwsfunqdjauuz)" points="426,217,624,217,631,240.6094,634,240.6094,634,317,426,317,426,217" style="stroke: #000000; stroke-width: 1.5;"/><line style="stroke: #000000; stroke-width: 1.5;" x1="426" x2="631" y1="240.6094" y2="240.6094"/><text fill="#000000" font-family="sans-serif" font-size="14" font-weight="bold" lengthAdjust="spacingAndGlyphs" textLength="192" x="430" y="233.5332">mastermind.views.graphics</text><!--class mastermind.ConsoleMastermind--><rect fill="#FEFECE" filter="url(#fwsfunqdjauuz)" height="117.1797" id="mastermind.ConsoleMastermind" style="stroke: #A80036; stroke-width: 1.5;" width="161" x="144.5" y="60"/><ellipse cx="167.15" cy="76" fill="#ADD1B2" rx="11" ry="11" style="stroke: #A80036; stroke-width: 1.0;"/><path d="M169.9156,71.875 Q170.0719,71.6563 170.2594,71.5469 Q170.4469,71.4375 170.6656,71.4375 Q171.0406,71.4375 171.275,71.6953 Q171.5094,71.9531 171.5094,72.5625 L171.5094,74.0156 Q171.5094,74.625 171.275,74.8906 Q171.0406,75.1563 170.6656,75.1563 Q170.3219,75.1563 170.1188,74.9531 Q169.9156,74.7656 169.8063,74.25 Q169.7594,73.8906 169.5719,73.7031 Q169.2438,73.3281 168.6344,73.1094 Q168.025,72.8906 167.4,72.8906 Q166.6344,72.8906 166.0016,73.2188 Q165.3688,73.5469 164.8766,74.2969 Q164.3844,75.0469 164.3844,76.0781 L164.3844,77.1719 Q164.3844,78.4063 165.275,79.2266 Q166.1656,80.0469 167.7594,80.0469 Q168.6969,80.0469 169.3531,79.7969 Q169.7438,79.6406 170.1656,79.2031 Q170.4313,78.9375 170.5797,78.8594 Q170.7281,78.7813 170.9313,78.7813 Q171.2594,78.7813 171.5172,79.0391 Q171.775,79.2969 171.775,79.6406 Q171.775,79.9844 171.4313,80.3906 Q170.9313,80.9688 170.1344,81.2969 Q169.0563,81.75 167.7594,81.75 Q166.2438,81.75 165.0406,81.125 Q164.0563,80.625 163.3688,79.5547 Q162.6813,78.4844 162.6813,77.2031 L162.6813,76.0469 Q162.6813,74.7188 163.2984,73.5703 Q163.9156,72.4219 165.0094,71.8047 Q166.1031,71.1875 167.3375,71.1875 Q168.0719,71.1875 168.7203,71.3516 Q169.3688,71.5156 169.9156,71.875 Z "/><text fill="#000000" font-family="sans-serif" font-size="12" lengthAdjust="spacingAndGlyphs" textLength="112" x="182.85" y="80.9102">ConsoleMastermind</text><line style="stroke: #A80036; stroke-width: 1.5;" x1="145.5" x2="304.5" y1="92" y2="92"/><rect fill="none" height="6" style="stroke: #C82930; stroke-width: 1.0;" width="6" x="152.5" y="101.418"/><text fill="#000000" font-family="sans-serif" font-size="11" lengthAdjust="spacingAndGlyphs" textLength="60" x="164.5" y="107.4189">game: Game</text><rect fill="none" height="6" style="stroke: #C82930; stroke-width: 1.0;" width="6" x="152.5" y="115.2539"/><text fill="#000000" font-family="sans-serif" font-size="11" lengthAdjust="spacingAndGlyphs" textLength="135" x="164.5" y="121.2549">consoleView: ConsoleView</text><line style="stroke: #A80036; stroke-width: 1.5;" x1="145.5" x2="304.5" y1="127.6719" y2="127.6719"/><polygon fill="#FFFF44" points="155.5,135.0898,159.5,139.0898,155.5,143.0898,151.5,139.0898" style="stroke: #B38D22; stroke-width: 1.0;"/><text fill="#000000" font-family="sans-serif" font-size="11" lengthAdjust="spacingAndGlyphs" textLength="102" x="164.5" y="143.0908">ConsoleMastermind()</text><ellipse cx="155.5" cy="153.9258" fill="#84BE84" rx="3" ry="3" style="stroke: #038048; stroke-width: 1.0;"/><text fill="#000000" font-family="sans-serif" font-size="11" lengthAdjust="spacingAndGlyphs" text-decoration="underline" textLength="90" x="164.5" y="156.9268">main(String[]): void</text><polygon fill="#FFFF44" points="155.5,162.7617,159.5,166.7617,155.5,170.7617,151.5,166.7617" style="stroke: #B38D22; stroke-width: 1.0;"/><text fill="#000000" font-family="sans-serif" font-size="11" lengthAdjust="spacingAndGlyphs" textLength="54" x="164.5" y="170.7627">play(): void</text><!--class mastermind.GraphicsMastermind--><rect fill="#FEFECE" filter="url(#fwsfunqdjauuz)" height="117.1797" id="mastermind.GraphicsMastermind" style="stroke: #A80036; stroke-width: 1.5;" width="170" x="341" y="60"/><ellipse cx="366.35" cy="76" fill="#ADD1B2" rx="11" ry="11" style="stroke: #A80036; stroke-width: 1.0;"/><path d="M369.1156,71.875 Q369.2719,71.6563 369.4594,71.5469 Q369.6469,71.4375 369.8656,71.4375 Q370.2406,71.4375 370.475,71.6953 Q370.7094,71.9531 370.7094,72.5625 L370.7094,74.0156 Q370.7094,74.625 370.475,74.8906 Q370.2406,75.1563 369.8656,75.1563 Q369.5219,75.1563 369.3188,74.9531 Q369.1156,74.7656 369.0063,74.25 Q368.9594,73.8906 368.7719,73.7031 Q368.4438,73.3281 367.8344,73.1094 Q367.225,72.8906 366.6,72.8906 Q365.8344,72.8906 365.2016,73.2188 Q364.5688,73.5469 364.0766,74.2969 Q363.5844,75.0469 363.5844,76.0781 L363.5844,77.1719 Q363.5844,78.4063 364.475,79.2266 Q365.3656,80.0469 366.9594,80.0469 Q367.8969,80.0469 368.5531,79.7969 Q368.9438,79.6406 369.3656,79.2031 Q369.6313,78.9375 369.7797,78.8594 Q369.9281,78.7813 370.1313,78.7813 Q370.4594,78.7813 370.7172,79.0391 Q370.975,79.2969 370.975,79.6406 Q370.975,79.9844 370.6313,80.3906 Q370.1313,80.9688 369.3344,81.2969 Q368.2563,81.75 366.9594,81.75 Q365.4438,81.75 364.2406,81.125 Q363.2563,80.625 362.5688,79.5547 Q361.8813,78.4844 361.8813,77.2031 L361.8813,76.0469 Q361.8813,74.7188 362.4984,73.5703 Q363.1156,72.4219 364.2094,71.8047 Q365.3031,71.1875 366.5375,71.1875 Q367.2719,71.1875 367.9203,71.3516 Q368.5688,71.5156 369.1156,71.875 Z "/><text fill="#000000" font-family="sans-serif" font-size="12" lengthAdjust="spacingAndGlyphs" textLength="115" x="382.65" y="80.9102">GraphicsMastermind</text><line style="stroke: #A80036; stroke-width: 1.5;" x1="342" x2="510" y1="92" y2="92"/><rect fill="none" height="6" style="stroke: #C82930; stroke-width: 1.0;" width="6" x="349" y="101.418"/><text fill="#000000" font-family="sans-serif" font-size="11" lengthAdjust="spacingAndGlyphs" textLength="60" x="361" y="107.4189">game: Game</text><rect fill="none" height="6" style="stroke: #C82930; stroke-width: 1.0;" width="6" x="349" y="115.2539"/><text fill="#000000" font-family="sans-serif" font-size="11" lengthAdjust="spacingAndGlyphs" textLength="144" x="361" y="121.2549">graphicsView: GraphicsView</text><line style="stroke: #A80036; stroke-width: 1.5;" x1="342" x2="510" y1="127.6719" y2="127.6719"/><polygon fill="#FFFF44" points="352,135.0898,356,139.0898,352,143.0898,348,139.0898" style="stroke: #B38D22; stroke-width: 1.0;"/><text fill="#000000" font-family="sans-serif" font-size="11" lengthAdjust="spacingAndGlyphs" textLength="107" x="361" y="143.0908">GraphicsMastermind()</text><ellipse cx="352" cy="153.9258" fill="#84BE84" rx="3" ry="3" style="stroke: #038048; stroke-width: 1.0;"/><text fill="#000000" font-family="sans-serif" font-size="11" lengthAdjust="spacingAndGlyphs" text-decoration="underline" textLength="90" x="361" y="156.9268">main(String[]): void</text><polygon fill="#FFFF44" points="352,162.7617,356,166.7617,352,170.7617,348,166.7617" style="stroke: #B38D22; stroke-width: 1.0;"/><text fill="#000000" font-family="sans-serif" font-size="11" lengthAdjust="spacingAndGlyphs" textLength="54" x="361" y="170.7627">play(): void</text><!--class mastermind.views.console.ConsoleView--><rect fill="#FEFECE" filter="url(#fwsfunqdjauuz)" height="48" id="mastermind.views.console.ConsoleView" style="stroke: #A80036; stroke-width: 1.5;" width="105" x="103.5" y="253"/><ellipse cx="118.5" cy="269" fill="#ADD1B2" rx="11" ry="11" style="stroke: #A80036; stroke-width: 1.0;"/><path d="M121.2656,264.875 Q121.4219,264.6563 121.6094,264.5469 Q121.7969,264.4375 122.0156,264.4375 Q122.3906,264.4375 122.625,264.6953 Q122.8594,264.9531 122.8594,265.5625 L122.8594,267.0156 Q122.8594,267.625 122.625,267.8906 Q122.3906,268.1563 122.0156,268.1563 Q121.6719,268.1563 121.4688,267.9531 Q121.2656,267.7656 121.1563,267.25 Q121.1094,266.8906 120.9219,266.7031 Q120.5938,266.3281 119.9844,266.1094 Q119.375,265.8906 118.75,265.8906 Q117.9844,265.8906 117.3516,266.2188 Q116.7188,266.5469 116.2266,267.2969 Q115.7344,268.0469 115.7344,269.0781 L115.7344,270.1719 Q115.7344,271.4063 116.625,272.2266 Q117.5156,273.0469 119.1094,273.0469 Q120.0469,273.0469 120.7031,272.7969 Q121.0938,272.6406 121.5156,272.2031 Q121.7813,271.9375 121.9297,271.8594 Q122.0781,271.7813 122.2813,271.7813 Q122.6094,271.7813 122.8672,272.0391 Q123.125,272.2969 123.125,272.6406 Q123.125,272.9844 122.7813,273.3906 Q122.2813,273.9688 121.4844,274.2969 Q120.4063,274.75 119.1094,274.75 Q117.5938,274.75 116.3906,274.125 Q115.4063,273.625 114.7188,272.5547 Q114.0313,271.4844 114.0313,270.2031 L114.0313,269.0469 Q114.0313,267.7188 114.6484,266.5703 Q115.2656,265.4219 116.3594,264.8047 Q117.4531,264.1875 118.6875,264.1875 Q119.4219,264.1875 120.0703,264.3516 Q120.7188,264.5156 121.2656,264.875 Z "/><text fill="#000000" font-family="sans-serif" font-size="12" lengthAdjust="spacingAndGlyphs" textLength="73" x="132.5" y="273.9102">ConsoleView</text><line style="stroke: #A80036; stroke-width: 1.5;" x1="104.5" x2="207.5" y1="285" y2="285"/><line style="stroke: #A80036; stroke-width: 1.5;" x1="104.5" x2="207.5" y1="293" y2="293"/><!--class mastermind.models.Game--><rect fill="#FEFECE" filter="url(#fwsfunqdjauuz)" height="48" id="mastermind.models.Game" style="stroke: #A80036; stroke-width: 1.5;" width="66" x="292" y="253"/><ellipse cx="307" cy="269" fill="#ADD1B2" rx="11" ry="11" style="stroke: #A80036; stroke-width: 1.0;"/><path d="M309.7656,264.875 Q309.9219,264.6563 310.1094,264.5469 Q310.2969,264.4375 310.5156,264.4375 Q310.8906,264.4375 311.125,264.6953 Q311.3594,264.9531 311.3594,265.5625 L311.3594,267.0156 Q311.3594,267.625 311.125,267.8906 Q310.8906,268.1563 310.5156,268.1563 Q310.1719,268.1563 309.9688,267.9531 Q309.7656,267.7656 309.6563,267.25 Q309.6094,266.8906 309.4219,266.7031 Q309.0938,266.3281 308.4844,266.1094 Q307.875,265.8906 307.25,265.8906 Q306.4844,265.8906 305.8516,266.2188 Q305.2188,266.5469 304.7266,267.2969 Q304.2344,268.0469 304.2344,269.0781 L304.2344,270.1719 Q304.2344,271.4063 305.125,272.2266 Q306.0156,273.0469 307.6094,273.0469 Q308.5469,273.0469 309.2031,272.7969 Q309.5938,272.6406 310.0156,272.2031 Q310.2813,271.9375 310.4297,271.8594 Q310.5781,271.7813 310.7813,271.7813 Q311.1094,271.7813 311.3672,272.0391 Q311.625,272.2969 311.625,272.6406 Q311.625,272.9844 311.2813,273.3906 Q310.7813,273.9688 309.9844,274.2969 Q308.9063,274.75 307.6094,274.75 Q306.0938,274.75 304.8906,274.125 Q303.9063,273.625 303.2188,272.5547 Q302.5313,271.4844 302.5313,270.2031 L302.5313,269.0469 Q302.5313,267.7188 303.1484,266.5703 Q303.7656,265.4219 304.8594,264.8047 Q305.9531,264.1875 307.1875,264.1875 Q307.9219,264.1875 308.5703,264.3516 Q309.2188,264.5156 309.7656,264.875 Z "/><text fill="#000000" font-family="sans-serif" font-size="12" lengthAdjust="spacingAndGlyphs" textLength="34" x="321" y="273.9102">Game</text><line style="stroke: #A80036; stroke-width: 1.5;" x1="293" x2="357" y1="285" y2="285"/><line style="stroke: #A80036; stroke-width: 1.5;" x1="293" x2="357" y1="293" y2="293"/><!--class mastermind.views.graphics.GraphicsView--><rect fill="#FEFECE" filter="url(#fwsfunqdjauuz)" height="48" id="mastermind.views.graphics.GraphicsView" style="stroke: #A80036; stroke-width: 1.5;" width="108" x="442" y="253"/><ellipse cx="457" cy="269" fill="#ADD1B2" rx="11" ry="11" style="stroke: #A80036; stroke-width: 1.0;"/><path d="M459.7656,264.875 Q459.9219,264.6563 460.1094,264.5469 Q460.2969,264.4375 460.5156,264.4375 Q460.8906,264.4375 461.125,264.6953 Q461.3594,264.9531 461.3594,265.5625 L461.3594,267.0156 Q461.3594,267.625 461.125,267.8906 Q460.8906,268.1563 460.5156,268.1563 Q460.1719,268.1563 459.9688,267.9531 Q459.7656,267.7656 459.6563,267.25 Q459.6094,266.8906 459.4219,266.7031 Q459.0938,266.3281 458.4844,266.1094 Q457.875,265.8906 457.25,265.8906 Q456.4844,265.8906 455.8516,266.2188 Q455.2188,266.5469 454.7266,267.2969 Q454.2344,268.0469 454.2344,269.0781 L454.2344,270.1719 Q454.2344,271.4063 455.125,272.2266 Q456.0156,273.0469 457.6094,273.0469 Q458.5469,273.0469 459.2031,272.7969 Q459.5938,272.6406 460.0156,272.2031 Q460.2813,271.9375 460.4297,271.8594 Q460.5781,271.7813 460.7813,271.7813 Q461.1094,271.7813 461.3672,272.0391 Q461.625,272.2969 461.625,272.6406 Q461.625,272.9844 461.2813,273.3906 Q460.7813,273.9688 459.9844,274.2969 Q458.9063,274.75 457.6094,274.75 Q456.0938,274.75 454.8906,274.125 Q453.9063,273.625 453.2188,272.5547 Q452.5313,271.4844 452.5313,270.2031 L452.5313,269.0469 Q452.5313,267.7188 453.1484,266.5703 Q453.7656,265.4219 454.8594,264.8047 Q455.9531,264.1875 457.1875,264.1875 Q457.9219,264.1875 458.5703,264.3516 Q459.2188,264.5156 459.7656,264.875 Z "/><text fill="#000000" font-family="sans-serif" font-size="12" lengthAdjust="spacingAndGlyphs" textLength="76" x="471" y="273.9102">GraphicsView</text><line style="stroke: #A80036; stroke-width: 1.5;" x1="443" x2="549" y1="285" y2="285"/><line style="stroke: #A80036; stroke-width: 1.5;" x1="443" x2="549" y1="293" y2="293"/><!--link mastermind.ConsoleMastermind to mastermind.views.console.ConsoleView--><path d="M194.159,189.451 C186.329,207.211 178.244,225.549 171.543,240.7474 " fill="none" id="mastermind.ConsoleMastermind-mastermind.views.console.ConsoleView" style="stroke: #A80036; stroke-width: 1.0;"/><polygon fill="#A80036" points="166.275,252.6945,173.5661,246.0733,168.2923,248.1195,166.2461,242.8457,166.275,252.6945" style="stroke: #A80036; stroke-width: 1.0;"/><line style="stroke: #A80036; stroke-width: 1.0;" x1="168.2923" x2="171.52" y1="248.1195" y2="240.7993"/><polygon fill="#A80036" points="199.503,177.33,193.4225,181.2066,194.6623,188.3103,200.7427,184.4337,199.503,177.33" style="stroke: #A80036; stroke-width: 1.0;"/><!--link mastermind.ConsoleMastermind to mastermind.models.Game--><path d="M269.095,188.508 C280.816,206.852 292.977,225.883 302.951,241.4929 " fill="none" id="mastermind.ConsoleMastermind-mastermind.models.Game" style="stroke: #A80036; stroke-width: 1.0;"/><polygon fill="#A80036" points="310.108,252.6945,308.6331,242.9567,307.416,248.4811,301.8916,247.2639,310.108,252.6945" style="stroke: #A80036; stroke-width: 1.0;"/><line style="stroke: #A80036; stroke-width: 1.0;" x1="307.416" x2="303.1085" y1="248.4811" y2="241.7399"/><polygon fill="#A80036" points="261.952,177.33,261.8122,184.5397,268.4136,187.4418,268.5534,180.232,261.952,177.33" style="stroke: #A80036; stroke-width: 1.0;"/><!--link mastermind.GraphicsMastermind to mastermind.views.graphics.GraphicsView--><path d="M457.288,189.451 C465.232,207.211 473.434,225.549 480.232,240.7474 " fill="none" id="mastermind.GraphicsMastermind-mastermind.views.graphics.GraphicsView" style="stroke: #A80036; stroke-width: 1.0;"/><polygon fill="#A80036" points="485.576,252.6945,485.5527,242.8457,483.5345,248.1303,478.2499,246.1121,485.576,252.6945" style="stroke: #A80036; stroke-width: 1.0;"/><line style="stroke: #A80036; stroke-width: 1.0;" x1="483.5345" x2="480.2675" y1="248.1303" y2="240.8275"/><polygon fill="#A80036" points="451.867,177.33,450.6657,184.4403,456.7671,188.284,457.9684,181.1736,451.867,177.33" style="stroke: #A80036; stroke-width: 1.0;"/><!--link mastermind.GraphicsMastermind to mastermind.models.Game--><path d="M381.464,188.508 C369.626,206.852 357.344,225.883 347.27,241.4929 " fill="none" id="mastermind.GraphicsMastermind-mastermind.models.Game" style="stroke: #A80036; stroke-width: 1.0;"/><polygon fill="#A80036" points="340.041,252.6945,348.2821,247.3016,342.7523,248.4934,341.5604,242.9635,340.041,252.6945" style="stroke: #A80036; stroke-width: 1.0;"/><line style="stroke: #A80036; stroke-width: 1.0;" x1="342.7523" x2="347.09" y1="248.4934" y2="241.7717"/><polygon fill="#A80036" points="388.678,177.33,382.0638,180.2026,382.1715,187.4129,388.7857,184.5403,388.678,177.33" style="stroke: #A80036; stroke-width: 1.0;"/><!--
@startuml

class  mastermind.ConsoleMastermind{
- game: Game
- consoleView: ConsoleView
# ConsoleMastermind()
+ {static} main(String[]): void
# play(): void
}
mastermind.ConsoleMastermind *-down-> mastermind.views.console.ConsoleView
mastermind.ConsoleMastermind *-down-> mastermind.models.Game

class  mastermind.GraphicsMastermind{
- game: Game
- graphicsView: GraphicsView
# GraphicsMastermind()
+ {static} main(String[]): void
# play(): void
}
mastermind.GraphicsMastermind *-down-> mastermind.views.graphics.GraphicsView
mastermind.GraphicsMastermind *-down-> mastermind.models.Game

@enduml

PlantUML version 1.2019.05(Sat Apr 20 18:45:36 CEST 2019)
(GPL source distribution)
Java Runtime: OpenJDK Runtime Environment
JVM: OpenJDK 64-Bit Server VM
Java Version: 1.8.0_222-b10
Operating System: Windows 10
OS Version: 10.0
Default Encoding: windows-1252
Language: es
Country: ES
--></g></svg>